<?xml version="1.0" encoding="UTF-8" standalone="no"?>
<!DOCTYPE svg PUBLIC "-//W3C//DTD SVG 1.1//EN"
 "http://www.w3.org/Graphics/SVG/1.1/DTD/svg11.dtd">
<!-- Generated by graphviz version 14.1.1 (20251213.1925)
 -->
<!-- Title: data_processing Pages: 1 -->
<svg width="259pt" height="419pt"
 viewBox="0.00 0.00 259.00 419.00" xmlns="http://www.w3.org/2000/svg" xmlns:xlink="http://www.w3.org/1999/xlink">
<g id="graph0" class="graph" transform="scale(1 1) rotate(0) translate(4 414.56)">
<title>data_processing</title>
<polygon fill="white" stroke="none" points="-4,4 -4,-414.56 254.74,-414.56 254.74,4 -4,4"/>
<g id="clust1" class="cluster">
<title>cluster_filoma_df</title>
<path fill="none" stroke="#4caf50" d="M33.37,-136C33.37,-136 217.37,-136 217.37,-136 223.37,-136 229.37,-142 229.37,-148 229.37,-148 229.37,-344.5 229.37,-344.5 229.37,-350.5 223.37,-356.5 217.37,-356.5 217.37,-356.5 33.37,-356.5 33.37,-356.5 27.37,-356.5 21.37,-350.5 21.37,-344.5 21.37,-344.5 21.37,-148 21.37,-148 21.37,-142 27.37,-136 33.37,-136"/>
<text xml:space="preserve" text-anchor="middle" x="125.37" y="-339.2" font-family="Times,serif" font-size="14.00">Filoma DataFrame (Polars/Pandas)</text>
</g>
<!-- RawData -->
<g id="node1" class="node">
<title>RawData</title>
<path fill="#eeeeee" stroke="black" d="M212.5,-406.38C212.5,-408.69 173.45,-410.56 125.37,-410.56 77.3,-410.56 38.25,-408.69 38.25,-406.38 38.25,-406.38 38.25,-368.69 38.25,-368.69 38.25,-366.38 77.3,-364.5 125.37,-364.5 173.45,-364.5 212.5,-366.38 212.5,-368.69 212.5,-368.69 212.5,-406.38 212.5,-406.38"/>
<path fill="none" stroke="black" d="M212.5,-406.38C212.5,-404.06 173.45,-402.19 125.37,-402.19 77.3,-402.19 38.25,-404.06 38.25,-406.38"/>
<text xml:space="preserve" text-anchor="middle" x="125.37" y="-388.88" font-family="Helvetica,sans-Serif" font-size="12.00">Raw Scan Results</text>
<text xml:space="preserve" text-anchor="middle" x="125.37" y="-376.13" font-family="Helvetica,sans-Serif" font-size="12.00">(File Paths &amp; Basic Metadata)</text>
</g>
<!-- Enrich -->
<g id="node2" class="node">
<title>Enrich</title>
<path fill="#f9f9f9" stroke="black" d="M194.87,-324C194.87,-324 55.87,-324 55.87,-324 49.87,-324 43.87,-318 43.87,-312 43.87,-312 43.87,-300 43.87,-300 43.87,-294 49.87,-288 55.87,-288 55.87,-288 194.87,-288 194.87,-288 200.87,-288 206.87,-294 206.87,-300 206.87,-300 206.87,-312 206.87,-312 206.87,-318 200.87,-324 194.87,-324"/>
<text xml:space="preserve" text-anchor="middle" x="125.37" y="-307.35" font-family="Helvetica,sans-Serif" font-size="12.00">Enrich</text>
<text xml:space="preserve" text-anchor="middle" x="125.37" y="-294.6" font-family="Helvetica,sans-Serif" font-size="12.00">(Components, Depth, Stats)</text>
</g>
<!-- RawData&#45;&gt;Enrich -->
<g id="edge1" class="edge">
<title>RawData&#45;&gt;Enrich</title>
<path fill="none" stroke="black" d="M125.37,-364.38C125.37,-355.46 125.37,-345.06 125.37,-335.58"/>
<polygon fill="black" stroke="black" points="128.87,-335.76 125.37,-325.76 121.87,-335.76 128.87,-335.76"/>
</g>
<!-- Transform -->
<g id="node3" class="node">
<title>Transform</title>
<path fill="#f9f9f9" stroke="black" d="M176.87,-252C176.87,-252 73.87,-252 73.87,-252 67.87,-252 61.87,-246 61.87,-240 61.87,-240 61.87,-228 61.87,-228 61.87,-222 67.87,-216 73.87,-216 73.87,-216 176.87,-216 176.87,-216 182.87,-216 188.87,-222 188.87,-228 188.87,-228 188.87,-240 188.87,-240 188.87,-246 182.87,-252 176.87,-252"/>
<text xml:space="preserve" text-anchor="middle" x="125.37" y="-235.35" font-family="Helvetica,sans-Serif" font-size="12.00">Transform &amp; Chain</text>
<text xml:space="preserve" text-anchor="middle" x="125.37" y="-222.6" font-family="Helvetica,sans-Serif" font-size="12.00">(Map, Filter, Expand)</text>
</g>
<!-- Enrich&#45;&gt;Transform -->
<g id="edge2" class="edge">
<title>Enrich&#45;&gt;Transform</title>
<path fill="none" stroke="black" d="M125.37,-287.7C125.37,-280.41 125.37,-271.73 125.37,-263.54"/>
<polygon fill="black" stroke="black" points="128.87,-263.62 125.37,-253.62 121.87,-263.62 128.87,-263.62"/>
</g>
<!-- Deduplicate -->
<g id="node4" class="node">
<title>Deduplicate</title>
<path fill="#f9f9f9" stroke="black" d="M164.5,-180C164.5,-180 86.25,-180 86.25,-180 80.25,-180 74.25,-174 74.25,-168 74.25,-168 74.25,-156 74.25,-156 74.25,-150 80.25,-144 86.25,-144 86.25,-144 164.5,-144 164.5,-144 170.5,-144 176.5,-150 176.5,-156 176.5,-156 176.5,-168 176.5,-168 176.5,-174 170.5,-180 164.5,-180"/>
<text xml:space="preserve" text-anchor="middle" x="125.37" y="-163.35" font-family="Helvetica,sans-Serif" font-size="12.00">Deduplicate</text>
<text xml:space="preserve" text-anchor="middle" x="125.37" y="-150.6" font-family="Helvetica,sans-Serif" font-size="12.00">(Content&#45;based)</text>
</g>
<!-- Transform&#45;&gt;Deduplicate -->
<g id="edge3" class="edge">
<title>Transform&#45;&gt;Deduplicate</title>
<path fill="none" stroke="black" d="M125.37,-215.7C125.37,-208.41 125.37,-199.73 125.37,-191.54"/>
<polygon fill="black" stroke="black" points="128.87,-191.62 125.37,-181.62 121.87,-191.62 128.87,-191.62"/>
</g>
<!-- Output -->
<g id="node5" class="node">
<title>Output</title>
<polygon fill="#fff9c4" stroke="black" points="188.87,-108 55.87,-108 55.87,-72 194.87,-72 194.87,-102 188.87,-108"/>
<polyline fill="none" stroke="black" points="188.87,-108 188.87,-102"/>
<polyline fill="none" stroke="black" points="194.87,-102 188.87,-102"/>
<text xml:space="preserve" text-anchor="middle" x="125.37" y="-84.97" font-family="Helvetica,sans-Serif" font-size="12.00">Clean, Actionable Data</text>
</g>
<!-- Deduplicate&#45;&gt;Output -->
<g id="edge4" class="edge">
<title>Deduplicate&#45;&gt;Output</title>
<path fill="none" stroke="black" d="M125.37,-143.7C125.37,-136.41 125.37,-127.73 125.37,-119.54"/>
<polygon fill="black" stroke="black" points="128.87,-119.62 125.37,-109.62 121.87,-119.62 128.87,-119.62"/>
</g>
<!-- Insights -->
<g id="node6" class="node">
<title>Insights</title>
<path fill="#e1f5fe" stroke="black" d="M238.74,-36C238.74,-36 63.3,-36 63.3,-36 57.3,-36 46.39,-32.55 41.48,-29.11 41.48,-29.11 9.82,-6.89 9.82,-6.89 4.91,-3.45 6,0 12,0 12,0 187.44,0 187.44,0 193.44,0 204.35,-3.45 209.26,-6.89 209.26,-6.89 240.92,-29.11 240.92,-29.11 245.83,-32.55 244.74,-36 238.74,-36"/>
<text xml:space="preserve" text-anchor="middle" x="125.37" y="-12.97" font-family="Helvetica,sans-Serif" font-size="12.00">Insights &amp; Visualization</text>
</g>
<!-- Output&#45;&gt;Insights -->
<g id="edge5" class="edge">
<title>Output&#45;&gt;Insights</title>
<path fill="none" stroke="black" d="M125.37,-71.7C125.37,-64.41 125.37,-55.73 125.37,-47.54"/>
<polygon fill="black" stroke="black" points="128.87,-47.62 125.37,-37.62 121.87,-47.62 128.87,-47.62"/>
</g>
</g>
</svg>
