<?xml version="1.0" encoding="UTF-8" standalone="no"?>
<svg
   viewBox="0 0 48 48"
   version="1.1"
   id="svg60"
   sodipodi:docname="edge.svg"
   width="48"
   height="48"
   inkscape:version="1.1.2 (0a00cf5339, 2022-02-04)"
   xmlns:inkscape="http://www.inkscape.org/namespaces/inkscape"
   xmlns:sodipodi="http://sodipodi.sourceforge.net/DTD/sodipodi-0.dtd"
   xmlns="http://www.w3.org/2000/svg"
   xmlns:svg="http://www.w3.org/2000/svg">
  <sodipodi:namedview
     id="namedview62"
     pagecolor="#ffffff"
     bordercolor="#666666"
     borderopacity="1.0"
     inkscape:pageshadow="2"
     inkscape:pageopacity="0.0"
     inkscape:pagecheckerboard="0"
     showgrid="false"
     inkscape:zoom="2.515625"
     inkscape:cx="128"
     inkscape:cy="128"
     inkscape:window-width="2580"
     inkscape:window-height="1080"
     inkscape:window-x="426"
     inkscape:window-y="146"
     inkscape:window-maximized="0"
     inkscape:current-layer="svg60" />
  <defs
     id="defs46">
    <radialGradient
       id="b"
       cx="161.8"
       cy="68.900002"
       r="95.400002"
       gradientTransform="matrix(0.17186968,0,0,-0.16335172,1.2093994,43.92121)"
       gradientUnits="userSpaceOnUse">
      <stop
         offset=".7"
         stop-opacity="0"
         id="stop2" />
      <stop
         offset=".9"
         stop-opacity=".5"
         id="stop4" />
      <stop
         offset="1"
         id="stop6" />
    </radialGradient>
    <radialGradient
       id="d"
       cx="-340.29999"
       cy="63"
       r="143.2"
       gradientTransform="matrix(0.02578045,-0.17022969,-0.13749574,-0.0206339,31.561585,-20.422173)"
       gradientUnits="userSpaceOnUse">
      <stop
         offset=".8"
         stop-opacity="0"
         id="stop9" />
      <stop
         offset=".9"
         stop-opacity=".5"
         id="stop11" />
      <stop
         offset="1"
         id="stop13" />
    </radialGradient>
    <radialGradient
       id="e"
       cx="113.4"
       cy="570.20001"
       r="202.39999"
       gradientTransform="matrix(-0.00687479,0.17194918,0.36608242,0.01375593,-201.51089,-17.206723)"
       gradientUnits="userSpaceOnUse">
      <stop
         offset="0"
         stop-color="#35c1f1"
         id="stop16" />
      <stop
         offset=".1"
         stop-color="#34c1ed"
         id="stop18" />
      <stop
         offset=".2"
         stop-color="#2fc2df"
         id="stop20" />
      <stop
         offset=".3"
         stop-color="#2bc3d2"
         id="stop22" />
      <stop
         offset=".7"
         stop-color="#36c752"
         id="stop24" />
    </radialGradient>
    <radialGradient
       id="f"
       cx="376.5"
       cy="568"
       r="97.300003"
       gradientTransform="matrix(0.04812351,0.16507121,0.13405835,-0.03954831,-51.004609,-24.394199)"
       gradientUnits="userSpaceOnUse">
      <stop
         offset="0"
         stop-color="#66eb6e"
         id="stop27" />
      <stop
         offset="1"
         stop-color="#66eb6e"
         stop-opacity="0"
         id="stop29" />
    </radialGradient>
    <linearGradient
       id="a"
       x1="63.299999"
       y1="84"
       x2="241.7"
       y2="84"
       gradientTransform="matrix(0.17186968,0,0,-0.17194918,1.2093994,46.878736)"
       gradientUnits="userSpaceOnUse">
      <stop
         offset="0"
         stop-color="#0c59a4"
         id="stop32" />
      <stop
         offset="1"
         stop-color="#114a8b"
         id="stop34" />
    </linearGradient>
    <linearGradient
       id="c"
       x1="157.3"
       y1="161.39999"
       x2="46"
       y2="40.099998"
       gradientTransform="matrix(0.17186968,0,0,-0.17194918,1.2093994,46.878736)"
       gradientUnits="userSpaceOnUse">
      <stop
         offset="0"
         stop-color="#1b9de2"
         id="stop37" />
      <stop
         offset=".2"
         stop-color="#1595df"
         id="stop39" />
      <stop
         offset=".7"
         stop-color="#0680d7"
         id="stop41" />
      <stop
         offset="1"
         stop-color="#0078d4"
         id="stop43" />
    </linearGradient>
  </defs>
  <path
     d="m 41.719083,34.756319 a 16.104189,16.111638 0 0 1 -1.821818,0.808161 17.513521,17.521622 0 0 1 -6.170122,1.100475 c -8.129436,0 -15.210467,-5.588348 -15.210467,-12.775824 a 5.413895,5.4163992 0 0 1 2.818663,-4.694213 c -7.356022,0.309509 -9.246589,7.978442 -9.246589,12.466316 0,12.724239 11.704326,13.996663 14.23081,13.996663 1.35777,0 3.40302,-0.395483 4.640481,-0.790966 l 0.223431,-0.06878 a 22.05088,22.06108 0 0 0 11.446521,-9.078916 0.68747872,0.68779673 0 0 0 -0.91091,-0.962916 z"
     style="fill:url(#a);stroke-width:0.17191"
     id="path48" />
  <path
     d="m 41.719083,34.756319 a 16.104189,16.111638 0 0 1 -1.821818,0.808161 17.513521,17.521622 0 0 1 -6.170122,1.100475 c -8.129436,0 -15.210467,-5.588348 -15.210467,-12.775824 a 5.413895,5.4163992 0 0 1 2.818663,-4.694213 c -7.356022,0.309509 -9.246589,7.978442 -9.246589,12.466316 0,12.724239 11.704326,13.996663 14.23081,13.996663 1.35777,0 3.40302,-0.395483 4.640481,-0.790966 l 0.223431,-0.06878 a 22.05088,22.06108 0 0 0 11.446521,-9.078916 0.68747872,0.68779673 0 0 0 -0.91091,-0.962916 z"
     style="opacity:0.35;isolation:isolate;fill:url(#b);stroke-width:0.17191"
     id="path50" />
  <path
     d="M 20.166625,43.491338 A 13.612079,13.618375 0 0 1 16.265184,39.82882 13.869883,13.876299 0 0 1 21.335339,19.194918 c 0.549983,-0.257924 1.460892,-0.704991 2.681167,-0.687796 a 5.5685777,5.5711535 0 0 1 4.417051,2.235339 5.4826428,5.4851789 0 0 1 1.082779,3.21545 c 0,-0.03439 4.210807,-13.687155 -13.749575,-13.687155 -7.5450785,0 -13.749574,7.153086 -13.749574,13.446426 A 22.377432,22.387784 0 0 0 4.0968101,33.346336 21.999319,22.009495 0 0 0 30.977228,44.866931 12.976161,12.982163 0 0 1 20.183812,43.491338 Z"
     style="fill:url(#c);stroke-width:0.17191"
     id="path52" />
  <path
     d="M 20.166625,43.491338 A 13.612079,13.618375 0 0 1 16.265184,39.82882 13.869883,13.876299 0 0 1 21.335339,19.194918 c 0.549983,-0.257924 1.460892,-0.704991 2.681167,-0.687796 a 5.5685777,5.5711535 0 0 1 4.417051,2.235339 5.4826428,5.4851789 0 0 1 1.082779,3.21545 c 0,-0.03439 4.210807,-13.687155 -13.749575,-13.687155 -7.5450785,0 -13.749574,7.153086 -13.749574,13.446426 A 22.377432,22.387784 0 0 0 4.0968101,33.346336 21.999319,22.009495 0 0 0 30.977228,44.866931 12.976161,12.982163 0 0 1 20.183812,43.491338 Z"
     style="opacity:0.41;isolation:isolate;fill:url(#d);stroke-width:0.17191"
     id="path54" />
  <path
     d="m 28.192939,27.586038 c -0.154682,0.171949 -0.584357,0.429873 -0.584357,0.962916 0,0.447068 0.292179,0.894135 0.824975,1.255229 2.457736,1.719492 7.115405,1.478763 7.132592,1.478763 A 10.243433,10.248171 0 0 0 40.7738,29.855768 10.552798,10.55768 0 0 0 45.998638,20.759656 C 46.050199,16.907994 44.623681,14.345951 44.056511,13.211087 40.395687,6.0923907 32.541242,2.0000001 23.999319,2.0000001 A 21.999319,22.009495 0 0 0 2,23.699987 c 0.085935,-6.276145 6.3248043,-11.348646 13.749574,-11.348646 0.601544,0 4.038938,0.05159 7.218527,1.719492 a 12.477739,12.483511 0 0 1 5.310773,5.038111 c 1.048405,1.822661 1.237462,4.143975 1.237462,5.072501 0,0.928525 -0.464048,2.286924 -1.340584,3.421788 z"
     style="fill:url(#e);stroke-width:0.17191"
     id="path56" />
  <path
     d="m 28.192939,27.586038 c -0.154682,0.171949 -0.584357,0.429873 -0.584357,0.962916 0,0.447068 0.292179,0.894135 0.824975,1.255229 2.457736,1.719492 7.115405,1.478763 7.132592,1.478763 A 10.243433,10.248171 0 0 0 40.7738,29.855768 10.552798,10.55768 0 0 0 45.998638,20.759656 C 46.050199,16.907994 44.623681,14.345951 44.056511,13.211087 40.395687,6.0923907 32.541242,2.0000001 23.999319,2.0000001 A 21.999319,22.009495 0 0 0 2,23.699987 c 0.085935,-6.276145 6.3248043,-11.348646 13.749574,-11.348646 0.601544,0 4.038938,0.05159 7.218527,1.719492 a 12.477739,12.483511 0 0 1 5.310773,5.038111 c 1.048405,1.822661 1.237462,4.143975 1.237462,5.072501 0,0.928525 -0.464048,2.286924 -1.340584,3.421788 z"
     style="fill:url(#f);stroke-width:0.17191"
     id="path58" />
</svg>
