<?xml version="1.0" encoding="UTF-8" standalone="no"?>
<!-- Created with Inkscape (http://www.inkscape.org/) -->

<svg
   width="22"
   version="1.1"
   height="22"
   id="svg6"
   sodipodi:docname="pdfviewer.svg"
   inkscape:version="1.1.2 (0a00cf5339, 2022-02-04)"
   xmlns:inkscape="http://www.inkscape.org/namespaces/inkscape"
   xmlns:sodipodi="http://sodipodi.sourceforge.net/DTD/sodipodi-0.dtd"
   xmlns="http://www.w3.org/2000/svg"
   xmlns:svg="http://www.w3.org/2000/svg">
  <sodipodi:namedview
     id="namedview8"
     pagecolor="#ffffff"
     bordercolor="#666666"
     borderopacity="1.0"
     inkscape:pageshadow="2"
     inkscape:pageopacity="0.0"
     inkscape:pagecheckerboard="0"
     showgrid="false"
     inkscape:zoom="29.272727"
     inkscape:cx="11"
     inkscape:cy="11"
     inkscape:window-width="2580"
     inkscape:window-height="1080"
     inkscape:window-x="426"
     inkscape:window-y="146"
     inkscape:window-maximized="0"
     inkscape:current-layer="layer1" />
  <defs
     id="defs3871" />
  <metadata
     id="metadata3874" />
  <g
     inkscape:label="Capa 1"
     inkscape:groupmode="layer"
     id="layer1"
     transform="matrix(1 0 0 1 -326 -534.3622)">
    <path
       inkscape:label="Capa 1"
       inkscape:connector-curvature="0"
       style="fill:#cf000f;stroke-width:1.66883"
       id="path26"
       d="m 330.10511,535.3622 c -0.27018,0.0167 -0.56038,0 -0.87894,0.22043 -2.84194,1.22285 -0.93576,4.57763 2.68673,7.13137 0.0217,-0.48109 0.22193,-1.52877 0.21693,-1.98983 -3.09046,-2.11874 -4.89836,-4.18137 -2.92868,-4.99911 2.07642,-0.86199 2.72089,1.49137 2.75758,4.90693 0.19346,0.2004 1.53367,1.0906 1.73713,1.23105 -0.075,-3.115 -1.73115,-6.29445 -3.32223,-6.47479 -0.085,-0.0167 -0.17847,-0.0167 -0.26853,-0.0167 m 2.8932,5.41942 -0.64665,-0.25182 -0.53614,0.36119 -0.108,1.13669 0.6772,0.51933 0.28105,0.37706 c 2.08477,1.38316 3.86088,2.44854 6.19747,3.32857 l 1.4572,0.21643 h 0.95898 c 0.88393,-0.52118 0.35692,-0.72173 3.56912,-1.12251 l -3.61916,0.28055 c -2.79191,-1.08242 -5.64098,-2.63691 -8.23276,-4.33284 m 6.37082,4.53405 c 0.41863,0 3.68487,-0.28337 4.98408,-0.40361 1.28589,-0.20055 2.8653,-0.26066 2.56676,1.24273 0.34024,-0.80172 -0.43501,-2.16282 -1.53744,-2.40329 -1.7045,-0.3809 -4.4093,0.66361 -5.38163,0.9844 m 1.56707,0.41663 c -0.50701,0.20054 -1.66531,0.3455 -2.21236,0.52584 0.77553,0.40095 4.66929,1.83871 6.27705,1.53796 0.25685,0 1.34235,-0.78083 1.36904,-1.34224 -0.0834,1.02229 -4.84331,0.26066 -5.43373,-0.7416 m 1.05906,0.0184 c -0.41694,-0.2004 -2.36933,-0.19054 -2.8013,-0.35086 -2.44604,0.85565 -5.7362,2.86453 -8.09116,4.21946 l -0.68213,0.20056 c -0.13154,0.93579 -0.70815,1.25808 -1.23418,1.86408 l 0.79721,0.80188 0.62377,-1.0223 c 2.75689,-1.66371 8.20729,-4.35171 11.38612,-5.6427 m -11.38612,5.6427 c -0.3369,0.20039 -0.65879,0.40093 -0.964,0.60132 -0.70715,2.00652 -1.53105,3.35746 -2.31825,3.29935 1.21582,0.58129 3.8346,-2.28323 4.71687,-4.97725 m -4.71687,4.97725 c -1.85462,-1.10246 2.07107,-3.1115 2.95001,-3.69478 0.19847,-0.56125 -0.34407,-1.49121 -0.1673,-2.15281 -2.76856,1.72398 -4.4055,4.21794 -3.47653,5.40056 0.22349,0.2807 0.46032,0.42097 0.69548,0.44102 m 2.69438,-4.19993 c 0.12892,-0.51665 1.8391,-1.69175 2.14764,-1.87226 0.41376,-3.25709 0.43347,-3.57872 0.78492,-6.11075 -0.21015,-0.20039 -1.50359,-1.20867 -1.70373,-1.34892 -0.24836,2.70602 -0.71546,6.37308 -1.37591,8.82246" />
  </g>
</svg>
