<?xml version="1.0" encoding="UTF-8" standalone="no"?>
<svg
   xmlns:dc="http://purl.org/dc/elements/1.1/"
   xmlns:cc="http://creativecommons.org/ns#"
   xmlns:rdf="http://www.w3.org/1999/02/22-rdf-syntax-ns#"
   xmlns:svg="http://www.w3.org/2000/svg"
   xmlns="http://www.w3.org/2000/svg"
   xmlns:sodipodi="http://sodipodi.sourceforge.net/DTD/sodipodi-0.dtd"
   xmlns:inkscape="http://www.inkscape.org/namespaces/inkscape"
   viewBox="0 0 96 36"
   version="1.1"
   id="svg6"
   sodipodi:docname="sbDotsV96.svg"
   inkscape:version="0.92.0 r15299"
   width="96"
   height="36">
  <metadata
     id="metadata10">
    <rdf:RDF>
      <cc:Work
         rdf:about="">
        <dc:format>image/svg+xml</dc:format>
        <dc:type
           rdf:resource="http://purl.org/dc/dcmitype/StillImage" />
        <dc:title></dc:title>
      </cc:Work>
    </rdf:RDF>
  </metadata>
  <sodipodi:namedview
     pagecolor="#ffffff"
     bordercolor="#666666"
     borderopacity="1"
     objecttolerance="10"
     gridtolerance="10"
     guidetolerance="10"
     inkscape:pageopacity="0"
     inkscape:pageshadow="2"
     inkscape:window-width="1638"
     inkscape:window-height="1189"
     id="namedview8"
     showgrid="false"
     inkscape:zoom="7.8997086"
     inkscape:cx="42.108537"
     inkscape:cy="41.16976"
     inkscape:window-x="0"
     inkscape:window-y="0"
     inkscape:window-maximized="0"
     inkscape:current-layer="svg6" />
  <defs
     id="defs3051">
    <style
       type="text/css"
       id="current-color-scheme">
      .ColorScheme-Text {
        color:#232629;
      }
      </style>
  </defs>
  <path
     style="color:#232629;fill:#eff0f1;fill-opacity:1;stroke:none;stroke-width:2.28622389"
     d="M 17.423771,6.027476 C 8.4177996,6.021577 2.6993224,17.586698 8.0924243,24.821462 12.741562,32.430976 25.242593,31.43365 28.760656,23.278383 32.827793,15.307844 26.322707,5.4104911 17.423771,6.027476 Z m 0.91844,5.729034 c 6.419372,-0.03931 8.128927,9.92938 2.114081,12.097799 -6.142636,3.055773 -11.9787966,-6.142615 -6.684571,-10.470766 1.222997,-1.13452 2.911011,-1.728507 4.57049,-1.627033 z"
     id="path4"
     inkscape:connector-curvature="0" />
  <path
     style="color:#232629;fill:#eff0f1;fill-opacity:1;stroke:none;stroke-width:2.28622389"
     d="M 47.423771,6.027476 C 38.4178,6.0215786 32.699322,17.586698 38.092425,24.821462 42.741562,32.430976 55.242593,31.43365 58.760656,23.278383 62.827793,15.307844 56.322707,5.4104911 47.423771,6.027476 Z m 0.91844,5.729034 c 6.419372,-0.03931 8.128927,9.92938 2.114081,12.097799 -6.142636,3.055773 -11.978796,-6.142615 -6.684571,-10.470766 1.222998,-1.13452 2.911011,-1.728507 4.57049,-1.627033 z"
     id="path4-9"
     inkscape:connector-curvature="0" />
  <path
     style="color:#232629;fill:#eff0f1;fill-opacity:1;stroke:none;stroke-width:2.28622389"
     d="M 77.423771,6.027476 C 68.4178,6.0215786 62.699322,17.586698 68.092425,24.821462 72.741562,32.430976 85.242593,31.43365 88.760656,23.278383 92.827793,15.307844 86.322707,5.4104911 77.423771,6.027476 Z m 0.91844,5.729034 c 6.419372,-0.03931 8.128927,9.92938 2.114081,12.097799 -6.142636,3.055773 -11.978796,-6.142615 -6.684571,-10.470766 1.222998,-1.13452 2.911011,-1.728507 4.57049,-1.627033 z"
     id="path4-8"
     inkscape:connector-curvature="0" />
</svg>
