<?xml version="1.0" encoding="UTF-8" standalone="no"?>
<svg
   xmlns:dc="http://purl.org/dc/elements/1.1/"
   xmlns:cc="http://creativecommons.org/ns#"
   xmlns:rdf="http://www.w3.org/1999/02/22-rdf-syntax-ns#"
   xmlns:svg="http://www.w3.org/2000/svg"
   xmlns="http://www.w3.org/2000/svg"
   xmlns:sodipodi="http://sodipodi.sourceforge.net/DTD/sodipodi-0.dtd"
   xmlns:inkscape="http://www.inkscape.org/namespaces/inkscape"
   version="1.1"
   viewBox="0 0 96 96"
   id="svg9"
   sodipodi:docname="sbFindLocation96.svg"
   inkscape:version="1.0.2 (e86c870879, 2021-01-15)"
   width="96"
   height="96">
  <metadata
     id="metadata13">
    <rdf:RDF>
      <cc:Work
         rdf:about="">
        <dc:format>image/svg+xml</dc:format>
        <dc:type
           rdf:resource="http://purl.org/dc/dcmitype/StillImage" />
        <dc:title></dc:title>
      </cc:Work>
    </rdf:RDF>
  </metadata>
  <sodipodi:namedview
     pagecolor="#ffffff"
     bordercolor="#666666"
     borderopacity="1"
     objecttolerance="10"
     gridtolerance="10"
     guidetolerance="10"
     inkscape:pageopacity="0"
     inkscape:pageshadow="2"
     inkscape:window-width="1594"
     inkscape:window-height="1014"
     id="namedview11"
     showgrid="false"
     inkscape:zoom="8.125"
     inkscape:cx="49.661108"
     inkscape:cy="46.016632"
     inkscape:window-x="74"
     inkscape:window-y="18"
     inkscape:window-maximized="0"
     inkscape:current-layer="svg9" />
  <defs
     id="defs3">
    <style
       id="current-color-scheme"
       type="text/css">
            .ColorScheme-Text {
                color:#eff0f1;
            }
        </style>
  </defs>
  <path
     style="fill:currentColor;fill-opacity:1;stroke:none;stroke-width:5.25"
     class="ColorScheme-Text"
     d="M 21.75,6 C 16.12725,6 10.92366,9.0055725 8.112285,13.875 6.7065975,16.309688 6,19.02987 6,21.75 v 52.5 c 0,2.720025 0.70665,5.44005 2.112285,7.875 C 10.92366,86.994375 16.12725,90 21.75,90 h 52.5 v -5.25 h -52.5 c -3.755483,0 -7.21749,-1.997625 -9.095205,-5.25 -1.877768,-3.252375 -1.877768,-7.247625 0,-10.5 C 14.53251,65.747625 17.994517,63.75 21.75,63.75 H 27 V 27 h 52.5 v 42 h 5.25 V 21.75 H 27 V 6 Z m 0,5.25 V 21.75 27 58.5 c -3.938812,0 -7.650825,1.503075 -10.5,4.06035 V 21.75 c 0,-1.811933 0.465885,-3.623813 1.404795,-5.25 1.877715,-3.252375 5.339722,-5.25 9.095205,-5.25 z"
     id="path5" />
  <path
     style="fill:currentColor;fill-opacity:1;stroke:none;stroke-width:5.25"
     class="ColorScheme-Text"
     d="m 53.25,32.25 c -11.597985,0 -21,9.402015 -21,21 0,11.597775 9.402015,21 21,21 4.65885,-0.0097 9.18225,-1.56765 12.8583,-4.429425 L 86.28825,90 90,86.28825 69.83055,66.1188 C 72.691275,62.43855 74.2458,57.91095 74.25,53.25 c 0,-11.597985 -9.402225,-21 -21,-21 z m 0,5.25 C 61.948725,37.5 69,44.551275 69,53.25 69,61.948725 61.948725,69 53.25,69 44.551275,69 37.5,61.948725 37.5,53.25 37.5,44.551275 44.551275,37.5 53.25,37.5 Z"
     id="path7" />
</svg>
