<?xml version="1.0" encoding="UTF-8" standalone="no"?>
<svg
   xmlns:dc="http://purl.org/dc/elements/1.1/"
   xmlns:cc="http://creativecommons.org/ns#"
   xmlns:rdf="http://www.w3.org/1999/02/22-rdf-syntax-ns#"
   xmlns:svg="http://www.w3.org/2000/svg"
   xmlns="http://www.w3.org/2000/svg"
   xmlns:sodipodi="http://sodipodi.sourceforge.net/DTD/sodipodi-0.dtd"
   xmlns:inkscape="http://www.inkscape.org/namespaces/inkscape"
   viewBox="0 0 22 22"
   version="1.1"
   id="svg6"
   sodipodi:docname="tableOfContents.svg"
   inkscape:version="1.0.2 (e86c870879, 2021-01-15)">
  <metadata
     id="metadata10">
    <rdf:RDF>
      <cc:Work
         rdf:about="">
        <dc:format>image/svg+xml</dc:format>
        <dc:type
           rdf:resource="http://purl.org/dc/dcmitype/StillImage" />
        <dc:title></dc:title>
      </cc:Work>
    </rdf:RDF>
  </metadata>
  <sodipodi:namedview
     pagecolor="#ffffff"
     bordercolor="#666666"
     borderopacity="1"
     objecttolerance="10"
     gridtolerance="10"
     guidetolerance="10"
     inkscape:pageopacity="0"
     inkscape:pageshadow="2"
     inkscape:window-width="1551"
     inkscape:window-height="1038"
     id="namedview8"
     showgrid="false"
     inkscape:zoom="32.5"
     inkscape:cx="11"
     inkscape:cy="11"
     inkscape:window-x="0"
     inkscape:window-y="0"
     inkscape:window-maximized="0"
     inkscape:current-layer="svg6" />
  <defs
     id="defs3051">
    <style
       type="text/css"
       id="current-color-scheme">
      .ColorScheme-Text {
        color:#232629;
      }
      </style>
  </defs>
  <path
     style="fill:currentColor;fill-opacity:1;stroke:none;stroke-width:1.24992"
     d="M 21,1 V 2.2498438 H 8.5 V 1 Z M 4.75,1.0024372 V 2.252281 H 3.5 V 4.7519685 H 4.75 V 6.0018123 H 3.5 2.25 1 V 4.7519685 H 2.25 V 2.252281 H 1 V 1.0024372 H 2.25 3.5 Z M 21,3.4996875 V 4.7495313 H 13.5 V 3.4996875 Z m -8.75,0 V 4.7495313 H 11 V 3.4996875 Z m -2.5,0 V 4.7495313 H 8.5 V 3.4996875 Z m -2.5,0 V 4.7495313 H 6 V 3.4996875 Z M 21,8.4990626 V 9.7489064 H 11 V 8.4990626 Z M 7.25,8.5014998 V 9.7513436 H 6 v 2.4996874 h 1.25 v 1.249844 H 1 V 12.251031 H 2.25 V 9.7513475 H 1 V 8.5015037 Z M 4.75,9.7513436 H 3.5 V 12.251031 H 4.75 Z M 21,10.998746 v 1.249848 H 16 V 10.99875 Z m -6.25,0 v 1.249848 H 13.5 V 10.99875 Z m -2.5,0 v 1.249848 H 11 V 10.99875 Z m -2.5,0 v 1.249848 H 8.5 V 10.99875 Z M 21,15.998125 v 1.249844 h -8.75 v -1.249844 z m -11.25,0.0025 v 1.249844 H 8.5 v 2.499687 H 9.75 V 21 H 8.5 7.25 6 1 V 19.750156 H 2.25 V 17.250469 H 1 V 16.000625 H 6 7.25 8.5 Z m -2.5,1.249844 H 6 v 2.499687 h 1.25 z m -2.5,0 H 3.5 v 2.499687 H 4.75 Z M 21,18.497813 v 1.249844 h -2.5 v -1.249844 z m -3.75,0 v 1.249844 H 16 v -1.249844 z m -2.5,0 v 1.249844 H 13.5 v -1.249844 z m -2.5,0 v 1.249844 H 11 v -1.249844 z"
     class="ColorScheme-Text"
     id="path4" />
</svg>
