<?xml version="1.0" encoding="UTF-8" standalone="no"?>
<svg
   version="1.1"
   viewBox="0 0 22 22"
   id="svg7"
   sodipodi:docname="upgrade.svg"
   inkscape:version="1.1.2 (0a00cf5339, 2022-02-04)"
   xmlns:inkscape="http://www.inkscape.org/namespaces/inkscape"
   xmlns:sodipodi="http://sodipodi.sourceforge.net/DTD/sodipodi-0.dtd"
   xmlns="http://www.w3.org/2000/svg"
   xmlns:svg="http://www.w3.org/2000/svg">
  <sodipodi:namedview
     id="namedview9"
     pagecolor="#ffffff"
     bordercolor="#666666"
     borderopacity="1.0"
     inkscape:pageshadow="2"
     inkscape:pageopacity="0.0"
     inkscape:pagecheckerboard="0"
     showgrid="false"
     inkscape:zoom="29.272727"
     inkscape:cx="11"
     inkscape:cy="10.982919"
     inkscape:window-width="2580"
     inkscape:window-height="1080"
     inkscape:window-x="426"
     inkscape:window-y="146"
     inkscape:window-maximized="0"
     inkscape:current-layer="svg7" />
  <defs
     id="defs3">
    <style
       type="text/css"
       id="current-color-scheme">.ColorScheme-Text {
        color:#232629;
      }</style>
  </defs>
  <path
     class="ColorScheme-Text"
     fill="currentColor"
     d="m 10.99878,4.7491249 5.000228,5.0001736 H 13.498894 V 15.999516 H 8.4986657 V 9.7492985 H 5.9985519 Z M 17.851556,4.1308643 14.750828,4.5044135 15.375857,3.4203909 C 11.663687,1.2771915 6.9549612,2.1361626 4.2352136,5.4492701 1.5154648,8.7623776 1.5929484,13.544639 4.418327,16.768022 L 3.4783429,17.590805 C 0.25532123,13.913833 0.16598091,8.4326461 3.2683721,4.6533441 6.3707634,0.87410664 11.766317,-0.10596113 16.000884,2.3388112 l 0.625029,-1.0815813 z m 3.147116,6.7092187 c 0.03745,2.302299 -0.716974,4.616923 -2.26817,6.506573 -3.102516,3.779236 -8.495505,4.759305 -12.7300724,2.314533 L 5.3754012,20.74277 4.1473178,17.869136 7.2504865,17.495586 6.6254581,18.577168 C 10.337626,20.720367 15.043912,19.863836 17.763661,16.55073 20.483409,13.237624 20.405925,8.4553607 17.580546,5.2319775 L 18.52053,4.4091952 c 1.611511,1.8384863 2.440686,4.1285871 2.478142,6.4308878 z"
     id="path5"
     style="stroke-width:1.25005" />
</svg>
