<svg xmlns="http://www.w3.org/2000/svg" width="960.0" height="720.0"><rect x="0" y="0" width="100%" height="100%" fill="#f9fafb"/><line stroke="#cbd5f5" stroke-dasharray="12 18" stroke-width="4" x1="480" y1="0" x2="480" y2="100%"/><g><line stroke="#cbd5f5" stroke-width="3" x1="480" y1="80" x2="96" y2="80"/><rect x="120 - 60" y="44.0" width="120" height="32" rx="16" fill="#e0f2fe"/><text text-anchor="start" font-family="Inter, Arial, sans-serif" font-size="24" font-weight="600" fill="#1f2937" x="120" y="80 - 12">Insight</text><text text-anchor="end" font-family="Inter, Arial, sans-serif" font-size="18" fill="#4b5563" x="840.0" y="80 + 18">Synthesize interview learnings into themes.</text></g><g><line stroke="#cbd5f5" stroke-width="3" x1="480" y1="200" x2="864.0" y2="200"/><rect x="840.0 - 60" y="164.0" width="120" height="32" rx="16" fill="#e0f2fe"/><text text-anchor="end" font-family="Inter, Arial, sans-serif" font-size="24" font-weight="600" fill="#1f2937" x="840.0" y="200 - 12">Concept</text><text text-anchor="start" font-family="Inter, Arial, sans-serif" font-size="18" fill="#4b5563" x="120" y="200 + 18">Expand divergent ideas around the themes.</text></g><g><line stroke="#cbd5f5" stroke-width="3" x1="480" y1="320" x2="96" y2="320"/><rect x="120 - 60" y="284.0" width="120" height="32" rx="16" fill="#e0f2fe"/><text text-anchor="start" font-family="Inter, Arial, sans-serif" font-size="24" font-weight="600" fill="#1f2937" x="120" y="320 - 12">Plan</text><text text-anchor="end" font-family="Inter, Arial, sans-serif" font-size="18" fill="#4b5563" x="840.0" y="320 + 18">Sequence the delivery roadmap with owners.</text></g><g><line stroke="#cbd5f5" stroke-width="3" x1="480" y1="440" x2="864.0" y2="440"/><rect x="840.0 - 60" y="404.0" width="120" height="32" rx="16" fill="#e0f2fe"/><text text-anchor="end" font-family="Inter, Arial, sans-serif" font-size="24" font-weight="600" fill="#1f2937" x="840.0" y="440 - 12">Measure</text><text text-anchor="start" font-family="Inter, Arial, sans-serif" font-size="18" fill="#4b5563" x="120" y="440 + 18">Define outcomes and leading indicators.</text></g></svg>