<svg class="typst-doc" viewBox="0 0 8.578 9.700000000000001" width="8.578pt" height="9.700000000000001pt" xmlns="http://www.w3.org/2000/svg" xmlns:xlink="http://www.w3.org/1999/xlink">
  <style>
    path {
      fill: #000000;
    }
    @media (prefers-color-scheme: dark) {
      path {
        fill: #ffffff;
      }
    }
  </style>
  <g transform="matrix(1 0 0 -1 1 8.700000000000001)">
    <path d="M5.324 4.906c0-.506-.264-.77-.759-.77H2.816v2.42c0 .506.209.759.638.759h.341c1.287 0 1.76-.231 2.145-1.001l.088-.176h.363L5.951 7.7H.33v-.363h.341c.44 0 .649-.297.649-.869V1.221c0-.572-.209-.858-.649-.858H.33V0h3.52v.374h-.396c-.429 0-.638.286-.638.847v2.431h1.749c.495 0 .759-.264.759-.77v-.11h.341v2.244h-.341Z"/>
  </g>
</svg>
