<svg xmlns="http://www.w3.org/2000/svg" width="1024.0" height="600.0"><rect x="0" y="0" width="100%" height="100%" fill="#0f172a"/><g><rect x="48.0" y="48.0" width="280" height="140" rx="20" fill="#1e293b"/><rect x="48.0" y="48.0" width="6" height="140" rx="6" fill="#38bdf8"/><text dominant-baseline="middle" font-family="Inter, Arial, sans-serif" font-size="18" fill="#e2e8f0" x="68.0" y="84.0">Monthly Revenue</text><text dominant-baseline="middle" font-family="Inter, Arial, sans-serif" font-size="40" font-weight="700" fill="#f8fafc" x="68.0" y="130.0">$128K</text><text dominant-baseline="middle" font-family="Inter, Arial, sans-serif" font-size="16" fill="#94a3b8" x="68.0" y="160.0">+6.2% vs last month</text></g><g><rect x="352.0" y="48.0" width="280" height="140" rx="20" fill="#1e293b"/><rect x="352.0" y="48.0" width="6" height="140" rx="6" fill="#34d399"/><text dominant-baseline="middle" font-family="Inter, Arial, sans-serif" font-size="18" fill="#e2e8f0" x="372.0" y="84.0">Active Subscriptions</text><text dominant-baseline="middle" font-family="Inter, Arial, sans-serif" font-size="40" font-weight="700" fill="#f8fafc" x="372.0" y="130.0">42,310</text><text dominant-baseline="middle" font-family="Inter, Arial, sans-serif" font-size="16" fill="#94a3b8" x="372.0" y="160.0">+3.4% vs target</text></g><g><rect x="656.0" y="48.0" width="280" height="140" rx="20" fill="#1e293b"/><rect x="656.0" y="48.0" width="6" height="140" rx="6" fill="#f97316"/><text dominant-baseline="middle" font-family="Inter, Arial, sans-serif" font-size="18" fill="#e2e8f0" x="676.0" y="84.0">Support CSAT</text><text dominant-baseline="middle" font-family="Inter, Arial, sans-serif" font-size="40" font-weight="700" fill="#f8fafc" x="676.0" y="130.0">4.7</text><text dominant-baseline="middle" font-family="Inter, Arial, sans-serif" font-size="16" fill="#94a3b8" x="676.0" y="160.0">Last 30 day average</text></g><g><rect x="48.0" y="212.0" width="280" height="140" rx="20" fill="#1e293b"/><rect x="48.0" y="212.0" width="6" height="140" rx="6" fill="#a855f7"/><text dominant-baseline="middle" font-family="Inter, Arial, sans-serif" font-size="18" fill="#e2e8f0" x="68.0" y="248.0">NPS</text><text dominant-baseline="middle" font-family="Inter, Arial, sans-serif" font-size="40" font-weight="700" fill="#f8fafc" x="68.0" y="294.0">63</text><text dominant-baseline="middle" font-family="Inter, Arial, sans-serif" font-size="16" fill="#94a3b8" x="68.0" y="324.0">+4 points vs Q1</text></g></svg>