<?xml version="1.0" encoding="UTF-8"?>
<svg id="Layer_1" data-name="Layer 1" xmlns="http://www.w3.org/2000/svg" viewBox="0 0 1376.06 702.36">
  <defs>
    <style>
      .cls-1 {
        fill: #fff;
        stroke-width: 0px;
      }
    </style>
  </defs>
  <g>
    <path class="cls-1" d="M170.02,150.27v105.68c0,4.46,5.4,6.7,8.55,3.54l51.08-51.08c1.95-1.95,1.96-5.11.01-7.07-6.26-6.3-19.5-19.61-28.24-28.41-3.14-3.16-.9-8.53,3.55-8.53,33.17,0,125.94,0,159.23,0,4.46,0,6.69,5.4,3.53,8.55l-43.27,43.27.13.13-153.12,153.12c-1.23.51-2.91,1.21-4.14,1.72h0c-21.69,0-43.38,0-65.07,0-2.77,0-5.01-2.24-5.01-5.01v-220.92s0-67.75,0-67.75c0-2.77,2.24-5.01,5.01-5.01h354.34c4.46,0,6.7,5.4,3.54,8.55-20.91,20.91-41.82,41.82-62.74,62.74-.94.94-2.21,1.47-3.54,1.47h-218.85c-2.77,0-5.01,2.24-5.01,5.01ZM543.54,106.49v259.69c0,2.77,2.24,5.01,5.01,5.01h62.74c2.77,0,5.01-2.24,5.01-5.01v-196.95c0-1.33-.53-2.6-1.47-3.54l-59.01-59.01-3.73-3.73c-3.16-3.16-8.55-.92-8.55,3.54ZM707.41,84.47l-59.01,59.01c-.94.94-1.47,2.21-1.47,3.54v219.16c0,2.77,2.24,5.01,5.01,5.01h62.74c2.77,0,5.01-2.24,5.01-5.01V84.28c0-4.46-5.4-6.7-8.55-3.54l-3.73,3.73ZM512.34,76.93c0-1.63-1.97-2.44-3.12-1.28l-69.64,70.23-216.87,216.87c-3.12,3.12-.91,8.45,3.5,8.45h88.86c1.33,0,2.6-.53,3.54-1.47l112.4-112.4c3.16-3.16,8.55-.92,8.55,3.54v105.32c0,2.77,2.24,5.01,5.01,5.01h62.74c2.77,0,5.01-2.24,5.01-5.01V76.93ZM615.53,127.38v-49.87c0-2.77-2.24-5.01-5.01-5.01h-49.87c-4.46,0-6.7,5.4-3.54,8.55l49.87,49.87c3.16,3.16,8.55.92,8.55-3.54ZM971.57,71.73h-88.72c-1.33,0-2.6.53-3.54,1.47l-159.98,159.98.02.02-.02.02,136.52,136.52c.94.94,2.21,1.47,3.54,1.47h88.72c4.46,0,6.7-5.4,3.54-8.55l-125.9-125.9c-1.96-1.96-1.96-5.13,0-7.09l149.36-149.36c3.16-3.16.92-8.55-3.54-8.55Z"/>
    <path class="cls-1" d="M1220.72,131.24c-21.47,0-38.87,17.4-38.87,38.87,0,5.76,1.26,11.22,3.51,16.13-4.9,1.97-10.37,3.67-16.33,4.48-4.25.58-8.43.66-12.99,1.15-8.12-17.65-25.95-29.92-46.66-29.92-6.08,0-11.9,1.06-17.31,3-3.97-13.16-10.62-31.02-17.42-43.33,6.8-5.17,11.22-13.33,11.22-22.53,0-15.64-12.68-28.31-28.31-28.31s-28.31,12.68-28.31,28.31c0,9.76,4.94,18.36,12.45,23.46-3.42,14.05-15.77,29.39-37.51,62.41-1.45-.59-3.04-.92-4.7-.92-6.89,0-12.48,5.59-12.48,12.48s5.59,12.48,12.48,12.48c3.63,0,6.88-1.56,9.16-4.03,27.43,37.92,40.4,51.43,40.89,68.4.02.72.03,1.79.08,2.98-4.25,3.7-6.94,9.13-6.94,15.2,0,11.13,9.02,20.16,20.16,20.16s20.16-9.02,20.16-20.16c0-4.92-1.76-9.42-4.69-12.91,4.03-4.84,8.36-11.01,12.48-17.45,5.77,2.24,12.04,3.49,18.6,3.49,28.36,0,51.35-22.99,51.35-51.35,0-3.26-.32-6.45-.9-9.54,11.75-.77,24.82-2.19,35.62-4.12,6.8,5.82,15.62,9.34,25.27,9.34,21.47,0,38.87-17.4,38.87-38.87s-17.4-38.87-38.87-38.87ZM1058.08,215.49c-6.34-1.19-14.35-2.93-23.19-6.74-7-3.02-13.51-6.9-23.21-9.62.18-.85.28-1.72.28-2.62,0-.58-.05-1.14-.13-1.7,24.41-3.68,41.16-6.96,53.76-8.33-4.79,7.81-7.56,16.99-7.56,26.82,0,.73.02,1.46.06,2.18ZM1048.54,125.91c2.83.95,5.85,1.49,9.01,1.49s6.09-.52,8.89-1.45c3.66,5.38,7.79,12.1,11.02,20.51,2.55,6.61,4.23,13.44,8.16,21.32-5.75,3.01-10.85,7.07-15.06,11.93-20.23,2.2-44.92,8.67-59.21,12.96-.88-2.72-2.66-5.03-5-6.57,12.69-14.52,34.16-41.21,42.19-60.18ZM1071.96,273.58c-2.74-1.4-5.84-2.2-9.13-2.2-1.52,0-2.99.18-4.41.5-2.24-16.94-29.19-48.64-45.71-66.29,13.23,6.84,33.28,15.62,46.47,18.53,3.16,14.77,12.67,27.18,25.54,34.24-4.37,6.4-8.92,11.31-12.75,15.23Z"/>
    <path class="cls-1" d="M1046.51,328.01l-6.46,32.18c-1.13,5.61,3.16,10.85,8.89,10.85h220.79c5.69,0,9.98-5.19,8.9-10.78l-23.84-123.81h-54.1l-8.64,40.67-63.96,8.64c-2.88,11.2-5.76,22.4-8.64,33.59"/>
  </g>
  <g>
    <path class="cls-1" d="M149.57,499.88l-3.76,3.56c-2.7-2.66-5.67-4.68-8.89-6.05-3.22-1.37-6.36-2.06-9.42-2.06-3.8,0-7.43.93-10.87,2.8s-6.1,4.4-8,7.6c-1.89,3.2-2.84,6.58-2.84,10.14s.98,7.12,2.93,10.41c1.96,3.29,4.66,5.87,8.11,7.75,3.45,1.88,7.23,2.82,11.34,2.82,4.99,0,9.21-1.41,12.66-4.22s5.5-6.46,6.13-10.95h-15.47v-4.68h20.91c-.04,7.5-2.27,13.45-6.68,17.86-4.41,4.41-10.31,6.61-17.69,6.61-8.97,0-16.07-3.06-21.3-9.17-4.02-4.7-6.03-10.15-6.03-16.32,0-4.59,1.15-8.87,3.46-12.83,2.31-3.96,5.47-7.05,9.5-9.28,4.02-2.23,8.57-3.35,13.65-3.35,4.11,0,7.98.74,11.61,2.22,3.63,1.49,7.17,3.86,10.62,7.14Z"/>
    <path class="cls-1" d="M208.41,528.34l3.89,2.04c-1.28,2.51-2.75,4.53-4.42,6.07s-3.55,2.71-5.64,3.51c-2.09.8-4.46,1.2-7.1,1.2-5.85,0-10.43-1.92-13.73-5.76-3.3-3.83-4.95-8.17-4.95-13.01,0-4.55,1.4-8.61,4.19-12.17,3.54-4.53,8.28-6.79,14.22-6.79s11,2.32,14.65,6.96c2.6,3.28,3.92,7.36,3.96,12.27h-32.28c.09,4.17,1.42,7.58,3.99,10.25,2.58,2.66,5.76,4,9.54,4,1.83,0,3.61-.32,5.33-.95,1.73-.64,3.2-1.48,4.41-2.53,1.21-1.05,2.52-2.75,3.93-5.09ZM208.41,518.68c-.62-2.46-1.51-4.43-2.69-5.9s-2.73-2.66-4.67-3.56c-1.94-.9-3.97-1.35-6.11-1.35-3.52,0-6.55,1.13-9.08,3.4-1.85,1.65-3.25,4.12-4.19,7.42h26.74Z"/>
    <path class="cls-1" d="M239.39,504.37h4.62v6.43c1.85-2.46,3.89-4.3,6.13-5.52,2.24-1.22,4.68-1.83,7.32-1.83s5.06.68,7.14,2.04c2.08,1.36,3.61,3.2,4.6,5.51s1.48,5.9,1.48,10.78v18.47h-4.62v-17.11c0-4.13-.17-6.89-.51-8.28-.53-2.37-1.56-4.16-3.08-5.36-1.52-1.2-3.5-1.8-5.94-1.8-2.79,0-5.29.92-7.5,2.77-2.21,1.85-3.67,4.13-4.37,6.86-.44,1.78-.66,5.03-.66,9.76v13.16h-4.62v-35.88Z"/>
    <path class="cls-1" d="M328.07,528.34l3.89,2.04c-1.28,2.51-2.75,4.53-4.42,6.07-1.67,1.54-3.55,2.71-5.64,3.51-2.09.8-4.46,1.2-7.1,1.2-5.85,0-10.43-1.92-13.73-5.76-3.3-3.83-4.95-8.17-4.95-13.01,0-4.55,1.4-8.61,4.19-12.17,3.54-4.53,8.28-6.79,14.22-6.79s11,2.32,14.65,6.96c2.6,3.28,3.92,7.36,3.96,12.27h-32.28c.09,4.17,1.42,7.58,3.99,10.25,2.58,2.66,5.76,4,9.54,4,1.83,0,3.61-.32,5.33-.95,1.73-.64,3.2-1.48,4.41-2.53,1.21-1.05,2.52-2.75,3.93-5.09ZM328.07,518.68c-.62-2.46-1.51-4.43-2.69-5.9s-2.73-2.66-4.67-3.56c-1.94-.9-3.97-1.35-6.11-1.35-3.52,0-6.55,1.13-9.08,3.4-1.85,1.65-3.25,4.12-4.19,7.42h26.74Z"/>
    <path class="cls-1" d="M357.29,504.37h4.72v5.24c1.41-2.07,2.89-3.61,4.45-4.63,1.56-1.02,3.19-1.53,4.88-1.53,1.28,0,2.64.41,4.09,1.22l-2.41,3.89c-.97-.42-1.78-.63-2.44-.63-1.54,0-3.02.63-4.45,1.9-1.43,1.27-2.52,3.23-3.26,5.89-.57,2.04-.86,6.18-.86,12.4v12.14h-4.72v-35.88Z"/>
    <path class="cls-1" d="M432.39,504.37v35.88h-4.55v-6.17c-1.93,2.35-4.11,4.12-6.51,5.31-2.41,1.19-5.04,1.78-7.9,1.78-5.08,0-9.42-1.84-13.01-5.52-3.6-3.68-5.39-8.16-5.39-13.44s1.81-9.59,5.44-13.26c3.63-3.67,7.99-5.51,13.09-5.51,2.95,0,5.61.63,8,1.88s4.48,3.13,6.28,5.64v-6.6h4.55ZM413.94,507.89c-2.57,0-4.94.63-7.12,1.9-2.17,1.26-3.9,3.04-5.19,5.32-1.28,2.28-1.93,4.7-1.93,7.25s.65,4.94,1.94,7.25,3.04,4.1,5.22,5.38c2.18,1.29,4.53,1.93,7.03,1.93s4.92-.64,7.18-1.91c2.26-1.27,4-3,5.22-5.17,1.22-2.17,1.83-4.62,1.83-7.35,0-4.15-1.37-7.62-4.1-10.41-2.73-2.79-6.1-4.18-10.1-4.18Z"/>
    <path class="cls-1" d="M464.09,491.04h4.62v13.32h7.32v3.99h-7.32v31.89h-4.62v-31.89h-6.3v-3.99h6.3v-13.32Z"/>
    <path class="cls-1" d="M501.84,489.59c1.05,0,1.95.37,2.69,1.12.75.75,1.12,1.65,1.12,2.7s-.37,1.92-1.12,2.67c-.74.75-1.64,1.12-2.69,1.12s-1.92-.37-2.66-1.12c-.75-.75-1.12-1.64-1.12-2.67s.37-1.96,1.12-2.7c.74-.75,1.63-1.12,2.66-1.12ZM499.55,504.37h4.62v35.88h-4.62v-35.88Z"/>
    <path class="cls-1" d="M527.65,504.37h4.91l12.04,26.15,11.9-26.15h4.95l-16.42,35.88h-.86l-16.52-35.88Z"/>
    <path class="cls-1" d="M615.97,528.34l3.89,2.04c-1.28,2.51-2.75,4.53-4.42,6.07s-3.55,2.71-5.64,3.51c-2.09.8-4.46,1.2-7.1,1.2-5.85,0-10.43-1.92-13.73-5.76-3.3-3.83-4.95-8.17-4.95-13.01,0-4.55,1.4-8.61,4.19-12.17,3.54-4.53,8.28-6.79,14.22-6.79s11,2.32,14.65,6.96c2.6,3.28,3.92,7.36,3.96,12.27h-32.28c.09,4.17,1.42,7.58,3.99,10.25,2.58,2.66,5.76,4,9.54,4,1.83,0,3.61-.32,5.33-.95,1.73-.64,3.2-1.48,4.41-2.53,1.21-1.05,2.52-2.75,3.93-5.09ZM615.97,518.68c-.62-2.46-1.51-4.43-2.69-5.9s-2.73-2.66-4.67-3.56c-1.94-.9-3.97-1.35-6.11-1.35-3.52,0-6.55,1.13-9.08,3.4-1.85,1.65-3.25,4.12-4.19,7.42h26.74Z"/>
    <path class="cls-1" d="M703.51,491.74l22.62,48.51h-5.24l-7.63-15.96h-20.9l-7.56,15.96h-5.41l22.92-48.51h1.19ZM702.9,502.04l-8.31,17.56h16.58l-8.27-17.56Z"/>
    <path class="cls-1" d="M750.25,491.74h4.85v48.51h-4.85v-48.51Z"/>
    <path class="cls-1" d="M779.74,520h18.14v4.02h-18.14v-4.02Z"/>
    <path class="cls-1" d="M823.24,491.74h27.8v4.75h-22.95v15.2h22.75v4.75h-22.75v19.06h22.75v4.75h-27.6v-48.51Z"/>
    <path class="cls-1" d="M875.95,504.37h4.62v6.43c1.85-2.46,3.89-4.3,6.13-5.52,2.24-1.22,4.68-1.83,7.32-1.83s5.06.68,7.14,2.04c2.08,1.36,3.61,3.2,4.6,5.51s1.48,5.9,1.48,10.78v18.47h-4.62v-17.11c0-4.13-.17-6.89-.51-8.28-.53-2.37-1.56-4.16-3.08-5.36-1.52-1.2-3.5-1.8-5.94-1.8-2.79,0-5.29.92-7.5,2.77-2.21,1.85-3.67,4.13-4.37,6.86-.44,1.78-.66,5.03-.66,9.76v13.16h-4.62v-35.88Z"/>
    <path class="cls-1" d="M934.42,490.52h4.62v20.28c1.87-2.46,3.92-4.3,6.17-5.52,2.24-1.22,4.67-1.83,7.29-1.83s5.06.68,7.14,2.04c2.08,1.36,3.61,3.19,4.6,5.49.99,2.3,1.48,5.9,1.48,10.8v18.47h-4.62v-17.11c0-4.13-.16-6.89-.49-8.28-.57-2.37-1.61-4.16-3.12-5.36-1.51-1.2-3.48-1.8-5.92-1.8-2.79,0-5.29.92-7.5,2.77-2.21,1.85-3.67,4.13-4.37,6.86-.44,1.76-.66,5.01-.66,9.76v13.16h-4.62v-49.73Z"/>
    <path class="cls-1" d="M1028.64,504.37v35.88h-4.55v-6.17c-1.93,2.35-4.11,4.12-6.51,5.31-2.41,1.19-5.04,1.78-7.9,1.78-5.08,0-9.42-1.84-13.01-5.52-3.6-3.68-5.39-8.16-5.39-13.44s1.81-9.59,5.44-13.26c3.63-3.67,7.99-5.51,13.09-5.51,2.95,0,5.61.63,8,1.88s4.48,3.13,6.28,5.64v-6.6h4.55ZM1010.2,507.89c-2.57,0-4.94.63-7.12,1.9-2.17,1.26-3.9,3.04-5.19,5.32-1.28,2.28-1.93,4.7-1.93,7.25s.65,4.94,1.94,7.25c1.29,2.31,3.04,4.1,5.22,5.38,2.18,1.29,4.53,1.93,7.03,1.93s4.92-.64,7.18-1.91c2.26-1.27,4-3,5.22-5.17,1.22-2.17,1.83-4.62,1.83-7.35,0-4.15-1.37-7.62-4.1-10.41-2.73-2.79-6.1-4.18-10.1-4.18Z"/>
    <path class="cls-1" d="M1056.32,504.37h4.62v6.43c1.85-2.46,3.89-4.3,6.13-5.52,2.24-1.22,4.68-1.83,7.32-1.83s5.06.68,7.14,2.04c2.08,1.36,3.61,3.2,4.6,5.51.99,2.31,1.48,5.9,1.48,10.78v18.47h-4.62v-17.11c0-4.13-.17-6.89-.51-8.28-.53-2.37-1.56-4.16-3.08-5.36-1.52-1.2-3.5-1.8-5.94-1.8-2.79,0-5.29.92-7.5,2.77-2.21,1.85-3.67,4.13-4.37,6.86-.44,1.78-.66,5.03-.66,9.76v13.16h-4.62v-35.88Z"/>
    <path class="cls-1" d="M1149.62,511.82l-3.66,2.28c-3.16-4.2-7.48-6.3-12.94-6.3-4.37,0-8,1.4-10.89,4.22-2.89,2.81-4.33,6.23-4.33,10.24,0,2.61.66,5.07,1.99,7.38,1.33,2.31,3.15,4.1,5.47,5.37,2.31,1.27,4.91,1.91,7.79,1.91,5.27,0,9.57-2.1,12.91-6.3l3.66,2.41c-1.71,2.58-4.02,4.59-6.91,6.01-2.89,1.42-6.18,2.13-9.88,2.13-5.67,0-10.38-1.8-14.11-5.41-3.74-3.61-5.61-7.99-5.61-13.16,0-3.47.87-6.7,2.62-9.68,1.75-2.98,4.15-5.3,7.2-6.97,3.06-1.67,6.47-2.51,10.26-2.51,2.37,0,4.67.36,6.88,1.09,2.21.73,4.08,1.67,5.62,2.84s2.85,2.65,3.92,4.45Z"/>
    <path class="cls-1" d="M1205.99,528.34l3.89,2.04c-1.28,2.51-2.75,4.53-4.42,6.07-1.67,1.54-3.55,2.71-5.64,3.51-2.09.8-4.46,1.2-7.1,1.2-5.85,0-10.43-1.92-13.73-5.76-3.3-3.83-4.95-8.17-4.95-13.01,0-4.55,1.4-8.61,4.19-12.17,3.54-4.53,8.28-6.79,14.22-6.79s11,2.32,14.65,6.96c2.6,3.28,3.92,7.36,3.96,12.27h-32.28c.09,4.17,1.42,7.58,3.99,10.25,2.58,2.66,5.76,4,9.54,4,1.83,0,3.61-.32,5.33-.95,1.73-.64,3.2-1.48,4.41-2.53,1.21-1.05,2.52-2.75,3.93-5.09ZM1205.99,518.68c-.62-2.46-1.51-4.43-2.69-5.9s-2.73-2.66-4.67-3.56c-1.94-.9-3.97-1.35-6.11-1.35-3.52,0-6.55,1.13-9.08,3.4-1.85,1.65-3.25,4.12-4.19,7.42h26.74Z"/>
    <path class="cls-1" d="M1272.77,490.52v49.73h-4.55v-6.17c-1.93,2.35-4.11,4.12-6.51,5.31-2.41,1.19-5.04,1.78-7.9,1.78-5.08,0-9.42-1.84-13.01-5.52-3.6-3.68-5.39-8.16-5.39-13.44s1.81-9.59,5.44-13.26,7.99-5.51,13.09-5.51c2.95,0,5.61.63,8,1.88,2.39,1.25,4.48,3.13,6.28,5.64v-20.45h4.55ZM1254.32,507.89c-2.57,0-4.94.63-7.12,1.9-2.17,1.26-3.9,3.04-5.19,5.32-1.28,2.28-1.93,4.7-1.93,7.25s.65,4.94,1.94,7.25,3.04,4.1,5.22,5.38c2.18,1.29,4.53,1.93,7.03,1.93s4.92-.64,7.18-1.91c2.26-1.27,4-3,5.22-5.17,1.22-2.17,1.83-4.62,1.83-7.35,0-4.15-1.37-7.62-4.1-10.41-2.73-2.79-6.1-4.18-10.1-4.18Z"/>
  </g>
  <g>
    <path class="cls-1" d="M101.6,581.54h3.96v14.56l15.51-14.56h5.21l-18.64,17.41,20.09,21.39h-5.17l-17.01-18.08v18.08h-3.96v-38.81Z"/>
    <path class="cls-1" d="M140.1,591.65h3.69v5.14c1.48-1.97,3.11-3.44,4.91-4.42s3.75-1.46,5.86-1.46,4.05.55,5.71,1.64,2.89,2.56,3.68,4.41,1.19,4.72,1.19,8.63v14.77h-3.69v-13.69c0-3.31-.14-5.51-.41-6.62-.43-1.9-1.25-3.33-2.46-4.29s-2.8-1.44-4.75-1.44c-2.24,0-4.24.74-6,2.22s-2.93,3.31-3.5,5.49c-.35,1.42-.53,4.03-.53,7.81v10.53h-3.69v-28.7Z"/>
    <path class="cls-1" d="M193.82,590.91c4.42,0,8.09,1.6,10.99,4.8,2.64,2.92,3.96,6.38,3.96,10.37s-1.4,7.51-4.19,10.51c-2.79,3-6.38,4.5-10.77,4.5s-8-1.5-10.8-4.5c-2.79-3-4.19-6.5-4.19-10.51s1.32-7.42,3.96-10.34c2.91-3.22,6.58-4.83,11.02-4.83ZM193.81,594.52c-3.07,0-5.71,1.13-7.92,3.4-2.21,2.27-3.31,5.01-3.31,8.23,0,2.08.5,4.01,1.51,5.8,1.01,1.79,2.37,3.18,4.08,4.15s3.59,1.46,5.64,1.46,3.93-.49,5.64-1.46c1.71-.98,3.07-2.36,4.08-4.15,1-1.79,1.51-3.73,1.51-5.8,0-3.22-1.11-5.96-3.32-8.23-2.22-2.27-4.85-3.4-7.9-3.4Z"/>
    <path class="cls-1" d="M218.92,591.65h3.8l8.8,20.84,9.16-20.84h.67l9.22,20.84,8.97-20.84h3.84l-12.47,28.7h-.68l-9.18-20.55-9.17,20.55h-.69l-12.26-28.7Z"/>
    <path class="cls-1" d="M274.33,580.57h3.69v39.78h-3.69v-39.78Z"/>
    <path class="cls-1" d="M317.05,610.83l3.11,1.64c-1.02,2-2.2,3.62-3.54,4.85-1.34,1.23-2.84,2.17-4.51,2.81-1.67.64-3.57.96-5.68.96-4.68,0-8.34-1.53-10.98-4.6s-3.96-6.54-3.96-10.41c0-3.64,1.12-6.89,3.35-9.73,2.83-3.62,6.63-5.43,11.38-5.43s8.8,1.86,11.72,5.57c2.08,2.62,3.13,5.89,3.17,9.81h-25.83c.07,3.33,1.14,6.07,3.2,8.2,2.06,2.13,4.6,3.2,7.63,3.2,1.46,0,2.88-.26,4.26-.76s2.56-1.18,3.53-2.02c.97-.84,2.02-2.2,3.14-4.07ZM317.05,603.1c-.49-1.97-1.21-3.54-2.15-4.72-.94-1.18-2.19-2.13-3.74-2.85-1.55-.72-3.18-1.08-4.89-1.08-2.82,0-5.24.91-7.26,2.72-1.48,1.32-2.6,3.3-3.35,5.94h21.39Z"/>
    <path class="cls-1" d="M363.83,580.57v39.78h-3.64v-4.93c-1.55,1.88-3.28,3.3-5.21,4.25s-4.03,1.42-6.32,1.42c-4.06,0-7.53-1.47-10.41-4.42s-4.31-6.53-4.31-10.75,1.45-7.67,4.35-10.61c2.9-2.94,6.39-4.41,10.47-4.41,2.36,0,4.49.5,6.4,1.5s3.58,2.51,5.03,4.51v-16.36h3.64ZM349.07,594.47c-2.06,0-3.95.51-5.69,1.51-1.74,1.01-3.12,2.43-4.15,4.26s-1.54,3.76-1.54,5.8.52,3.95,1.55,5.8c1.04,1.84,2.43,3.28,4.18,4.31,1.75,1.03,3.62,1.54,5.63,1.54s3.94-.51,5.74-1.53c1.81-1.02,3.2-2.4,4.18-4.14.97-1.74,1.46-3.7,1.46-5.88,0-3.32-1.09-6.1-3.28-8.33-2.19-2.23-4.88-3.35-8.08-3.35Z"/>
    <path class="cls-1" d="M404.13,591.65h3.69v22.87c0,4.03-.35,6.97-1.06,8.84-.97,2.64-2.65,4.67-5.04,6.09s-5.27,2.14-8.63,2.14c-2.46,0-4.67-.35-6.63-1.04-1.96-.7-3.56-1.63-4.79-2.81-1.23-1.17-2.37-2.89-3.4-5.15h4.01c1.09,1.9,2.5,3.31,4.23,4.22s3.86,1.37,6.42,1.37,4.64-.47,6.38-1.41c1.73-.94,2.97-2.12,3.71-3.54.74-1.42,1.11-3.71,1.11-6.88v-1.48c-1.39,1.76-3.09,3.11-5.1,4.05-2.01.94-4.14,1.41-6.39,1.41-2.64,0-5.12-.66-7.45-1.97s-4.12-3.07-5.39-5.29c-1.27-2.22-1.9-4.65-1.9-7.31s.66-5.13,1.98-7.43,3.15-4.11,5.48-5.45,4.79-2,7.38-2c2.15,0,4.15.44,6.01,1.33,1.86.89,3.65,2.35,5.37,4.39v-4.99ZM393.23,594.47c-2.09,0-4.04.51-5.83,1.52s-3.2,2.41-4.22,4.19-1.53,3.72-1.53,5.79c0,3.15,1.06,5.75,3.17,7.81s4.85,3.09,8.2,3.09,6.12-1.02,8.19-3.06,3.1-4.72,3.1-8.05c0-2.16-.47-4.09-1.42-5.79s-2.3-3.04-4.04-4.02c-1.74-.98-3.61-1.48-5.62-1.48Z"/>
    <path class="cls-1" d="M447.08,610.83l3.11,1.64c-1.02,2-2.2,3.62-3.54,4.85-1.34,1.23-2.84,2.17-4.51,2.81-1.67.64-3.57.96-5.68.96-4.68,0-8.34-1.53-10.98-4.6-2.64-3.07-3.96-6.54-3.96-10.41,0-3.64,1.12-6.89,3.35-9.73,2.83-3.62,6.63-5.43,11.38-5.43s8.8,1.86,11.72,5.57c2.08,2.62,3.13,5.89,3.17,9.81h-25.83c.07,3.33,1.14,6.07,3.2,8.2,2.06,2.13,4.6,3.2,7.63,3.2,1.46,0,2.88-.26,4.26-.76s2.56-1.18,3.53-2.02c.97-.84,2.02-2.2,3.14-4.07ZM447.08,603.1c-.49-1.97-1.21-3.54-2.15-4.72-.94-1.18-2.19-2.13-3.74-2.85-1.55-.72-3.18-1.08-4.89-1.08-2.82,0-5.24.91-7.26,2.72-1.48,1.32-2.6,3.3-3.35,5.94h21.39Z"/>
    <path class="cls-1" d="M486.2,620.35l5.56-38.81h.63l15.78,31.84,15.62-31.84h.62l5.58,38.81h-3.8l-3.83-27.75-13.72,27.75h-.99l-13.89-27.96-3.81,27.96h-3.75Z"/>
    <path class="cls-1" d="M572.79,591.65v28.7h-3.64v-4.93c-1.55,1.88-3.28,3.3-5.21,4.25-1.93.95-4.03,1.42-6.32,1.42-4.06,0-7.53-1.47-10.41-4.42-2.88-2.95-4.31-6.53-4.31-10.75s1.45-7.67,4.35-10.61c2.9-2.94,6.39-4.41,10.47-4.41,2.36,0,4.49.5,6.4,1.5s3.58,2.51,5.03,4.51v-5.28h3.64ZM558.03,594.47c-2.06,0-3.95.51-5.69,1.51-1.74,1.01-3.12,2.43-4.15,4.26s-1.54,3.76-1.54,5.8.52,3.95,1.55,5.8c1.04,1.84,2.43,3.28,4.18,4.31,1.75,1.03,3.62,1.54,5.63,1.54s3.94-.51,5.74-1.53c1.81-1.02,3.2-2.4,4.18-4.14.97-1.74,1.46-3.7,1.46-5.88,0-3.32-1.09-6.1-3.28-8.33-2.19-2.23-4.88-3.35-8.08-3.35Z"/>
    <path class="cls-1" d="M588.29,591.65h3.69v5.14c1.48-1.97,3.11-3.44,4.91-4.42s3.75-1.46,5.86-1.46,4.05.55,5.71,1.64c1.66,1.09,2.89,2.56,3.68,4.41s1.19,4.72,1.19,8.63v14.77h-3.69v-13.69c0-3.31-.14-5.51-.41-6.62-.43-1.9-1.25-3.33-2.46-4.29s-2.8-1.44-4.75-1.44c-2.24,0-4.24.74-6,2.22s-2.93,3.31-3.5,5.49c-.35,1.42-.53,4.03-.53,7.81v10.53h-3.69v-28.7Z"/>
    <path class="cls-1" d="M657.02,591.65v28.7h-3.64v-4.93c-1.55,1.88-3.28,3.3-5.21,4.25s-4.03,1.42-6.32,1.42c-4.06,0-7.53-1.47-10.41-4.42s-4.31-6.53-4.31-10.75,1.45-7.67,4.35-10.61,6.39-4.41,10.47-4.41c2.36,0,4.49.5,6.4,1.5s3.58,2.51,5.03,4.51v-5.28h3.64ZM642.26,594.47c-2.06,0-3.95.51-5.69,1.51-1.74,1.01-3.12,2.43-4.15,4.26s-1.54,3.76-1.54,5.8.52,3.95,1.55,5.8c1.04,1.84,2.43,3.28,4.18,4.31,1.75,1.03,3.62,1.54,5.63,1.54s3.94-.51,5.74-1.53c1.81-1.02,3.2-2.4,4.18-4.14.97-1.74,1.46-3.7,1.46-5.88,0-3.32-1.09-6.1-3.28-8.33-2.19-2.23-4.88-3.35-8.08-3.35Z"/>
    <path class="cls-1" d="M697.26,591.65h3.69v22.87c0,4.03-.35,6.97-1.06,8.84-.97,2.64-2.65,4.67-5.04,6.09s-5.27,2.14-8.63,2.14c-2.46,0-4.67-.35-6.63-1.04-1.96-.7-3.56-1.63-4.79-2.81-1.23-1.17-2.37-2.89-3.4-5.15h4.01c1.09,1.9,2.5,3.31,4.23,4.22s3.86,1.37,6.42,1.37,4.64-.47,6.38-1.41c1.73-.94,2.97-2.12,3.71-3.54.74-1.42,1.11-3.71,1.11-6.88v-1.48c-1.39,1.76-3.09,3.11-5.1,4.05-2.01.94-4.14,1.41-6.39,1.41-2.64,0-5.12-.66-7.45-1.97-2.32-1.31-4.12-3.07-5.39-5.29-1.27-2.22-1.9-4.65-1.9-7.31s.66-5.13,1.98-7.43,3.15-4.11,5.48-5.45,4.79-2,7.38-2c2.15,0,4.15.44,6.01,1.33,1.86.89,3.65,2.35,5.37,4.39v-4.99ZM686.37,594.47c-2.09,0-4.04.51-5.83,1.52s-3.2,2.41-4.22,4.19-1.53,3.72-1.53,5.79c0,3.15,1.06,5.75,3.17,7.81s4.85,3.09,8.2,3.09,6.12-1.02,8.19-3.06,3.1-4.72,3.1-8.05c0-2.16-.47-4.09-1.42-5.79-.95-1.7-2.3-3.04-4.04-4.02s-3.61-1.48-5.62-1.48Z"/>
    <path class="cls-1" d="M740.22,610.83l3.11,1.64c-1.02,2-2.2,3.62-3.54,4.85-1.34,1.23-2.84,2.17-4.51,2.81-1.67.64-3.57.96-5.68.96-4.68,0-8.34-1.53-10.98-4.6s-3.96-6.54-3.96-10.41c0-3.64,1.12-6.89,3.35-9.73,2.83-3.62,6.63-5.43,11.38-5.43s8.8,1.86,11.72,5.57c2.08,2.62,3.13,5.89,3.17,9.81h-25.83c.07,3.33,1.14,6.07,3.2,8.2,2.06,2.13,4.6,3.2,7.63,3.2,1.46,0,2.88-.26,4.26-.76s2.56-1.18,3.53-2.02c.97-.84,2.02-2.2,3.14-4.07ZM740.22,603.1c-.49-1.97-1.21-3.54-2.15-4.72-.94-1.18-2.19-2.13-3.74-2.85-1.55-.72-3.18-1.08-4.89-1.08-2.82,0-5.24.91-7.26,2.72-1.48,1.32-2.6,3.3-3.35,5.94h21.39Z"/>
    <path class="cls-1" d="M758.33,591.65h3.69v4.96c1.29-1.83,2.61-3.17,3.96-4.01,1.87-1.13,3.83-1.69,5.89-1.69,1.39,0,2.71.27,3.96.82s2.27,1.27,3.06,2.18c.79.91,1.48,2.2,2.06,3.89,1.23-2.25,2.76-3.96,4.61-5.13s3.83-1.75,5.95-1.75c1.98,0,3.73.5,5.25,1.5,1.52,1,2.64,2.4,3.38,4.19s1.11,4.48,1.11,8.07v15.67h-3.77v-15.67c0-3.08-.22-5.19-.66-6.34s-1.19-2.08-2.25-2.78c-1.06-.7-2.33-1.06-3.8-1.06-1.79,0-3.42.53-4.9,1.58-1.48,1.06-2.56,2.46-3.25,4.22s-1.02,4.7-1.02,8.81v11.24h-3.69v-14.69c0-3.46-.22-5.82-.65-7.06s-1.18-2.23-2.26-2.98-2.35-1.12-3.83-1.12c-1.71,0-3.3.51-4.79,1.54s-2.59,2.41-3.3,4.15-1.07,4.41-1.07,7.99v12.16h-3.69v-28.7Z"/>
    <path class="cls-1" d="M840.38,610.83l3.11,1.64c-1.02,2-2.2,3.62-3.54,4.85-1.34,1.23-2.84,2.17-4.51,2.81-1.67.64-3.57.96-5.68.96-4.68,0-8.34-1.53-10.98-4.6-2.64-3.07-3.96-6.54-3.96-10.41,0-3.64,1.12-6.89,3.35-9.73,2.83-3.62,6.63-5.43,11.38-5.43s8.8,1.86,11.72,5.57c2.08,2.62,3.13,5.89,3.17,9.81h-25.83c.07,3.33,1.14,6.07,3.2,8.2,2.06,2.13,4.6,3.2,7.63,3.2,1.46,0,2.88-.26,4.26-.76s2.56-1.18,3.53-2.02c.97-.84,2.02-2.2,3.14-4.07ZM840.38,603.1c-.49-1.97-1.21-3.54-2.15-4.72-.94-1.18-2.19-2.13-3.74-2.85-1.55-.72-3.18-1.08-4.89-1.08-2.82,0-5.24.91-7.26,2.72-1.48,1.32-2.6,3.3-3.35,5.94h21.39Z"/>
    <path class="cls-1" d="M858.52,591.65h3.69v5.14c1.48-1.97,3.11-3.44,4.91-4.42s3.75-1.46,5.86-1.46,4.05.55,5.71,1.64c1.66,1.09,2.89,2.56,3.68,4.41s1.19,4.72,1.19,8.63v14.77h-3.69v-13.69c0-3.31-.14-5.51-.41-6.62-.43-1.9-1.25-3.33-2.46-4.29s-2.8-1.44-4.75-1.44c-2.24,0-4.24.74-6,2.22s-2.93,3.31-3.5,5.49c-.35,1.42-.53,4.03-.53,7.81v10.53h-3.69v-28.7Z"/>
    <path class="cls-1" d="M901.87,580.99h3.69v10.66h5.86v3.19h-5.86v25.51h-3.69v-25.51h-5.04v-3.19h5.04v-10.66Z"/>
    <path class="cls-1" d="M947.57,579.83c.84,0,1.56.3,2.15.9.59.6.89,1.32.89,2.16s-.3,1.54-.89,2.14c-.6.6-1.31.9-2.15.9s-1.53-.3-2.13-.9-.89-1.31-.89-2.14.3-1.57.89-2.16,1.31-.9,2.13-.9ZM945.74,591.65h3.69v28.7h-3.69v-28.7Z"/>
    <path class="cls-1" d="M964.29,591.65h3.69v5.14c1.48-1.97,3.11-3.44,4.91-4.42s3.75-1.46,5.86-1.46,4.05.55,5.71,1.64,2.89,2.56,3.68,4.41c.79,1.85,1.19,4.72,1.19,8.63v14.77h-3.69v-13.69c0-3.31-.14-5.51-.41-6.62-.43-1.9-1.25-3.33-2.46-4.29s-2.8-1.44-4.75-1.44c-2.24,0-4.24.74-6,2.22s-2.93,3.31-3.5,5.49c-.35,1.42-.53,4.03-.53,7.81v10.53h-3.69v-28.7Z"/>
    <path class="cls-1" d="M1027.28,581.54h7.65c3.08,0,5.44.36,7.1,1.09s2.96,1.85,3.92,3.36,1.44,3.19,1.44,5.04c0,1.72-.42,3.29-1.26,4.71s-2.08,2.56-3.7,3.44c2.02.69,3.57,1.49,4.66,2.41,1.09.92,1.93,2.04,2.54,3.35.6,1.31.91,2.73.91,4.26,0,3.11-1.14,5.75-3.42,7.9-2.28,2.15-5.33,3.23-9.17,3.23h-10.66v-38.81ZM1031.08,585.34v12.43h2.22c2.7,0,4.68-.25,5.95-.75s2.27-1.29,3.01-2.37,1.11-2.28,1.11-3.6c0-1.78-.62-3.17-1.86-4.18s-3.22-1.52-5.94-1.52h-4.49ZM1031.08,601.67v14.88h4.81c2.84,0,4.92-.28,6.24-.83s2.38-1.42,3.18-2.6,1.2-2.45,1.2-3.83c0-1.72-.56-3.23-1.69-4.51s-2.68-2.16-4.65-2.64c-1.32-.32-3.62-.47-6.9-.47h-2.19Z"/>
    <path class="cls-1" d="M1064.3,591.65h3.69v13.4c0,3.27.18,5.52.53,6.75.53,1.76,1.54,3.15,3.03,4.17s3.26,1.53,5.32,1.53,3.81-.5,5.25-1.49c1.43-.99,2.42-2.3,2.97-3.92.37-1.11.55-3.46.55-7.04v-13.4h3.77v14.09c0,3.96-.46,6.94-1.38,8.94-.92,2-2.31,3.57-4.17,4.71s-4.18,1.7-6.98,1.7-5.13-.57-7-1.7-3.27-2.72-4.19-4.75-1.38-5.09-1.38-9.17v-13.82Z"/>
    <path class="cls-1" d="M1119.24,594.79l-2.37,2.45c-1.97-1.92-3.91-2.88-5.79-2.88-1.2,0-2.23.4-3.08,1.19-.86.79-1.28,1.71-1.28,2.77,0,.93.35,1.82,1.06,2.66.71.86,2.19,1.87,4.44,3.03,2.75,1.42,4.62,2.8,5.61,4.12.97,1.34,1.45,2.84,1.45,4.51,0,2.36-.83,4.35-2.48,5.99s-3.72,2.45-6.21,2.45c-1.66,0-3.24-.36-4.74-1.08-1.51-.72-2.75-1.71-3.74-2.98l2.32-2.64c1.89,2.13,3.89,3.19,6,3.19,1.48,0,2.74-.47,3.78-1.42s1.56-2.07,1.56-3.35c0-1.06-.34-2-1.03-2.82-.69-.81-2.24-1.83-4.65-3.06-2.59-1.34-4.36-2.66-5.29-3.96s-1.4-2.79-1.4-4.46c0-2.18.74-3.99,2.23-5.43,1.49-1.44,3.37-2.16,5.64-2.16,2.64,0,5.3,1.29,7.98,3.88Z"/>
    <path class="cls-1" d="M1134.25,579.83c.84,0,1.56.3,2.15.9.59.6.89,1.32.89,2.16s-.3,1.54-.89,2.14c-.6.6-1.31.9-2.15.9s-1.53-.3-2.13-.9-.89-1.31-.89-2.14.3-1.57.89-2.16,1.31-.9,2.13-.9ZM1132.41,591.65h3.69v28.7h-3.69v-28.7Z"/>
    <path class="cls-1" d="M1150.97,591.65h3.69v5.14c1.48-1.97,3.11-3.44,4.91-4.42s3.75-1.46,5.86-1.46,4.05.55,5.71,1.64,2.89,2.56,3.68,4.41,1.19,4.72,1.19,8.63v14.77h-3.69v-13.69c0-3.31-.14-5.51-.41-6.62-.43-1.9-1.25-3.33-2.46-4.29s-2.8-1.44-4.75-1.44c-2.24,0-4.24.74-6,2.22s-2.93,3.31-3.5,5.49c-.35,1.42-.53,4.03-.53,7.81v10.53h-3.69v-28.7Z"/>
    <path class="cls-1" d="M1215.27,610.83l3.11,1.64c-1.02,2-2.2,3.62-3.54,4.85-1.34,1.23-2.84,2.17-4.51,2.81-1.67.64-3.57.96-5.68.96-4.68,0-8.34-1.53-10.98-4.6s-3.96-6.54-3.96-10.41c0-3.64,1.12-6.89,3.35-9.73,2.83-3.62,6.63-5.43,11.38-5.43s8.8,1.86,11.72,5.57c2.08,2.62,3.13,5.89,3.17,9.81h-25.83c.07,3.33,1.14,6.07,3.2,8.2,2.06,2.13,4.6,3.2,7.63,3.2,1.46,0,2.88-.26,4.26-.76s2.56-1.18,3.53-2.02c.97-.84,2.02-2.2,3.14-4.07ZM1215.27,603.1c-.49-1.97-1.21-3.54-2.15-4.72-.94-1.18-2.19-2.13-3.74-2.85-1.55-.72-3.18-1.08-4.89-1.08-2.82,0-5.24.91-7.26,2.72-1.48,1.32-2.6,3.3-3.35,5.94h21.39Z"/>
    <path class="cls-1" d="M1247.83,594.79l-2.37,2.45c-1.97-1.92-3.91-2.88-5.79-2.88-1.2,0-2.23.4-3.08,1.19-.86.79-1.28,1.71-1.28,2.77,0,.93.35,1.82,1.06,2.66.71.86,2.19,1.87,4.44,3.03,2.75,1.42,4.62,2.8,5.61,4.12.97,1.34,1.45,2.84,1.45,4.51,0,2.36-.83,4.35-2.48,5.99-1.66,1.64-3.72,2.45-6.21,2.45-1.66,0-3.24-.36-4.74-1.08s-2.75-1.71-3.74-2.98l2.32-2.64c1.89,2.13,3.89,3.19,6,3.19,1.48,0,2.74-.47,3.78-1.42s1.56-2.07,1.56-3.35c0-1.06-.34-2-1.03-2.82-.69-.81-2.24-1.83-4.65-3.06-2.59-1.34-4.36-2.66-5.29-3.96s-1.4-2.79-1.4-4.46c0-2.18.74-3.99,2.23-5.43,1.49-1.44,3.37-2.16,5.64-2.16,2.64,0,5.3,1.29,7.98,3.88Z"/>
    <path class="cls-1" d="M1275.99,594.79l-2.37,2.45c-1.97-1.92-3.91-2.88-5.79-2.88-1.2,0-2.23.4-3.08,1.19-.86.79-1.28,1.71-1.28,2.77,0,.93.35,1.82,1.06,2.66.71.86,2.19,1.87,4.44,3.03,2.75,1.42,4.62,2.8,5.61,4.12.97,1.34,1.45,2.84,1.45,4.51,0,2.36-.83,4.35-2.48,5.99s-3.72,2.45-6.21,2.45c-1.66,0-3.24-.36-4.74-1.08s-2.75-1.71-3.74-2.98l2.32-2.64c1.89,2.13,3.89,3.19,6,3.19,1.48,0,2.74-.47,3.78-1.42s1.56-2.07,1.56-3.35c0-1.06-.34-2-1.03-2.82-.69-.81-2.24-1.83-4.65-3.06-2.59-1.34-4.36-2.66-5.29-3.96s-1.4-2.79-1.4-4.46c0-2.18.74-3.99,2.23-5.43,1.49-1.44,3.37-2.16,5.64-2.16,2.64,0,5.3,1.29,7.98,3.88Z"/>
  </g>
</svg>