<?xml version="1.0" encoding="UTF-8"?>
<svg id="Layer_1" data-name="Layer 1" xmlns="http://www.w3.org/2000/svg" xmlns:xlink="http://www.w3.org/1999/xlink" viewBox="0 0 1920 980">
  <defs>
    <style>
      .cls-1 {
        fill: url(#linear-gradient);
      }

      .cls-1, .cls-2, .cls-3, .cls-4 {
        stroke-width: 0px;
      }

      .cls-2 {
        fill: #000;
      }

      .cls-3 {
        fill: #666;
      }

      .cls-4 {
        fill: #333;
      }
    </style>
    <linearGradient id="linear-gradient" x1="805.58" y1="-63.25" x2="799.46" y2="852.83" gradientUnits="userSpaceOnUse">
      <stop offset="0" stop-color="#0079c2"/>
      <stop offset=".14" stop-color="#0277c0"/>
      <stop offset=".23" stop-color="#0b71bd"/>
      <stop offset=".31" stop-color="#1a68b6"/>
      <stop offset=".38" stop-color="#305bad"/>
      <stop offset=".45" stop-color="#4b49a1"/>
      <stop offset=".51" stop-color="#6d3593"/>
      <stop offset=".55" stop-color="#8a2387"/>
    </linearGradient>
  </defs>
  <g>
    <path class="cls-1" d="M424.44,282.28v109.26c0,4.62,5.58,6.93,8.84,3.66l52.81-52.81c2.02-2.02,2.03-5.29.01-7.31-6.48-6.51-20.16-20.27-29.2-29.37-3.24-3.27-.93-8.82,3.67-8.82,34.29,0,130.21,0,164.63,0,4.62,0,6.91,5.58,3.65,8.84l-44.73,44.73.14.14-158.3,158.3c-1.28.53-3.01,1.25-4.28,1.77h0c-22.43,0-44.85,0-67.28,0-2.86,0-5.18-2.32-5.18-5.18v-228.41s0-70.04,0-70.04c0-2.86,2.32-5.18,5.18-5.18h366.35c4.62,0,6.93,5.58,3.66,8.84-21.62,21.62-43.24,43.24-64.86,64.86-.97.97-2.29,1.52-3.66,1.52h-226.26c-2.86,0-5.18,2.32-5.18,5.18ZM810.61,237.02v268.49c0,2.86,2.32,5.18,5.18,5.18h64.86c2.86,0,5.18-2.32,5.18-5.18v-203.62c0-1.37-.55-2.69-1.52-3.66l-61.01-61.01-3.85-3.85c-3.26-3.26-8.84-.95-8.84,3.66ZM980.04,214.25l-61.01,61.01c-.97.97-1.52,2.29-1.52,3.66v226.59c0,2.86,2.32,5.18,5.18,5.18h64.86c2.86,0,5.18-2.32,5.18-5.18V214.06c0-4.62-5.58-6.93-8.84-3.66l-3.85,3.85ZM778.36,206.45c0-1.68-2.04-2.52-3.22-1.33l-72,72.61-224.21,224.21c-3.23,3.23-.94,8.74,3.62,8.74h91.87c1.37,0,2.69-.55,3.66-1.52l116.21-116.21c3.26-3.26,8.84-.95,8.84,3.66v108.88c0,2.86,2.32,5.18,5.18,5.18h64.86c2.86,0,5.18-2.32,5.18-5.18V206.45ZM885.05,258.62v-51.56c0-2.86-2.32-5.18-5.18-5.18h-51.56c-4.62,0-6.93,5.58-3.66,8.84l51.56,51.56c3.26,3.26,8.84.95,8.84-3.66ZM1253.15,201.09h-91.73c-1.37,0-2.69.55-3.66,1.52l-165.4,165.4.02.02-.02.02,141.14,141.14c.97.97,2.29,1.52,3.66,1.52h91.73c4.62,0,6.93-5.58,3.66-8.84l-130.17-130.17c-2.02-2.02-2.02-5.3,0-7.33l154.42-154.42c3.26-3.26.95-8.84-3.66-8.84Z"/>
    <path class="cls-3" d="M1510.73,262.61c-22.2,0-40.19,17.99-40.19,40.19,0,5.95,1.3,11.6,3.63,16.68-5.07,2.04-10.72,3.79-16.88,4.63-4.39.59-8.72.69-13.43,1.19-8.4-18.25-26.83-30.93-48.24-30.93-6.28,0-12.3,1.1-17.9,3.1-4.11-13.61-10.98-32.08-18.01-44.8,7.04-5.35,11.6-13.78,11.6-23.3,0-16.17-13.11-29.27-29.27-29.27s-29.27,13.11-29.27,29.27c0,10.09,5.11,18.99,12.87,24.25-3.53,14.53-16.3,30.38-38.78,64.52-1.5-.61-3.14-.95-4.86-.95-7.12,0-12.9,5.78-12.9,12.9s5.78,12.9,12.9,12.9c3.75,0,7.11-1.61,9.47-4.16,28.36,39.21,41.77,53.17,42.28,70.72.02.74.03,1.85.08,3.08-4.39,3.82-7.18,9.43-7.18,15.71,0,11.51,9.33,20.84,20.84,20.84s20.84-9.33,20.84-20.84c0-5.08-1.82-9.74-4.85-13.35,4.17-5,8.64-11.38,12.9-18.04,5.97,2.32,12.45,3.61,19.23,3.61,29.32,0,53.09-23.77,53.09-53.09,0-3.37-.33-6.67-.93-9.86,12.15-.79,25.66-2.27,36.83-4.26,7.03,6.02,16.15,9.66,26.12,9.66,22.2,0,40.19-17.99,40.19-40.19s-17.99-40.19-40.19-40.19ZM1342.59,349.71c-6.55-1.23-14.83-3.03-23.98-6.97-7.24-3.12-13.97-7.13-24-9.94.19-.87.29-1.78.29-2.71,0-.6-.05-1.18-.13-1.75,25.24-3.81,42.55-7.2,55.58-8.61-4.95,8.07-7.81,17.56-7.81,27.73,0,.76.03,1.51.06,2.26ZM1332.73,257.1c2.93.98,6.05,1.54,9.31,1.54s6.3-.54,9.19-1.49c3.78,5.56,8.05,12.51,11.4,21.2,2.63,6.84,4.37,13.89,8.43,22.04-5.94,3.11-11.22,7.31-15.57,12.33-20.91,2.27-46.44,8.97-61.22,13.4-.91-2.81-2.75-5.2-5.17-6.79,13.11-15.02,35.32-42.61,43.62-62.22ZM1356.94,409.77c-2.84-1.45-6.04-2.28-9.44-2.28-1.57,0-3.09.19-4.56.52-2.31-17.52-30.18-50.28-47.26-68.54,13.68,7.07,34.41,16.15,48.04,19.16,3.27,15.27,13.1,28.1,26.4,35.4-4.51,6.61-9.22,11.69-13.19,15.74Z"/>
    <path class="cls-4" d="M1330.63,466.05l-6.68,33.27c-1.16,5.8,3.27,11.22,9.19,11.22h228.27c5.89,0,10.32-5.36,9.2-11.14l-24.65-128h-55.93l-8.93,42.05-66.13,8.93c-2.98,11.58-5.95,23.15-8.93,34.73"/>
  </g>
  <g>
    <path class="cls-2" d="M403.3,643.74l-3.89,3.68c-2.8-2.75-5.86-4.83-9.19-6.25-3.33-1.42-6.58-2.13-9.73-2.13-3.93,0-7.68.97-11.23,2.9s-6.31,4.55-8.27,7.86c-1.95,3.31-2.93,6.8-2.93,10.48s1.01,7.36,3.03,10.76c2.02,3.4,4.82,6.07,8.39,8.01,3.57,1.95,7.48,2.92,11.73,2.92,5.16,0,9.52-1.45,13.09-4.36,3.57-2.91,5.68-6.68,6.34-11.32h-15.99v-4.84h21.62c-.05,7.75-2.35,13.91-6.9,18.46-4.56,4.56-10.66,6.83-18.29,6.83-9.27,0-16.61-3.16-22.02-9.48-4.16-4.86-6.24-10.49-6.24-16.88,0-4.75,1.19-9.17,3.58-13.26,2.39-4.09,5.66-7.29,9.82-9.6,4.16-2.3,8.86-3.46,14.11-3.46,4.25,0,8.25.77,12,2.3,3.75,1.54,7.41,4,10.98,7.38Z"/>
    <path class="cls-2" d="M464.13,673.16l4.02,2.11c-1.32,2.59-2.84,4.68-4.57,6.27-1.73,1.59-3.67,2.8-5.83,3.63-2.16.83-4.61,1.25-7.34,1.25-6.05,0-10.78-1.98-14.2-5.95-3.41-3.96-5.12-8.45-5.12-13.45,0-4.7,1.44-8.9,4.33-12.58,3.66-4.68,8.56-7.02,14.71-7.02s11.38,2.4,15.15,7.19c2.68,3.39,4.05,7.61,4.1,12.68h-33.38c.09,4.31,1.47,7.84,4.13,10.6,2.66,2.75,5.95,4.13,9.86,4.13,1.89,0,3.73-.33,5.51-.98,1.79-.66,3.3-1.53,4.56-2.62,1.25-1.09,2.6-2.84,4.06-5.26ZM464.13,663.17c-.64-2.55-1.56-4.58-2.78-6.1s-2.83-2.75-4.83-3.68c-2-.93-4.11-1.4-6.32-1.4-3.64,0-6.77,1.17-9.39,3.51-1.91,1.7-3.36,4.26-4.33,7.67h27.65Z"/>
    <path class="cls-2" d="M496.16,648.37h4.77v6.65c1.91-2.55,4.02-4.45,6.34-5.71,2.32-1.26,4.84-1.89,7.57-1.89s5.23.7,7.38,2.11c2.15,1.41,3.73,3.31,4.75,5.69,1.02,2.39,1.53,6.1,1.53,11.15v19.09h-4.77v-17.69c0-4.27-.18-7.13-.53-8.56-.55-2.45-1.61-4.3-3.18-5.54-1.57-1.24-3.61-1.86-6.14-1.86-2.89,0-5.47.95-7.76,2.86-2.29,1.91-3.79,4.27-4.52,7.09-.45,1.84-.68,5.2-.68,10.09v13.6h-4.77v-37.09Z"/>
    <path class="cls-2" d="M587.84,673.16l4.02,2.11c-1.32,2.59-2.84,4.68-4.57,6.27-1.73,1.59-3.67,2.8-5.83,3.63-2.16.83-4.61,1.25-7.34,1.25-6.05,0-10.78-1.98-14.2-5.95-3.41-3.96-5.12-8.45-5.12-13.45,0-4.7,1.44-8.9,4.33-12.58,3.66-4.68,8.56-7.02,14.71-7.02s11.38,2.4,15.15,7.19c2.68,3.39,4.05,7.61,4.1,12.68h-33.38c.09,4.31,1.47,7.84,4.13,10.6,2.66,2.75,5.95,4.13,9.86,4.13,1.89,0,3.73-.33,5.51-.98,1.79-.66,3.3-1.53,4.56-2.62,1.25-1.09,2.6-2.84,4.06-5.26ZM587.84,663.17c-.64-2.55-1.56-4.58-2.78-6.1s-2.83-2.75-4.83-3.68c-2-.93-4.11-1.4-6.32-1.4-3.64,0-6.77,1.17-9.39,3.51-1.91,1.7-3.36,4.26-4.33,7.67h27.65Z"/>
    <path class="cls-2" d="M618.06,648.37h4.88v5.42c1.45-2.14,2.99-3.73,4.6-4.79,1.61-1.06,3.3-1.59,5.05-1.59,1.32,0,2.73.42,4.23,1.26l-2.49,4.02c-1-.43-1.84-.65-2.52-.65-1.59,0-3.13.65-4.6,1.96-1.48,1.31-2.6,3.34-3.38,6.09-.59,2.11-.89,6.39-.89,12.82v12.55h-4.88v-37.09Z"/>
    <path class="cls-2" d="M695.7,648.37v37.09h-4.7v-6.38c-2,2.43-4.25,4.26-6.73,5.49-2.49,1.23-5.21,1.84-8.17,1.84-5.25,0-9.73-1.9-13.45-5.71-3.72-3.81-5.58-8.44-5.58-13.89s1.88-9.91,5.63-13.71c3.75-3.8,8.26-5.69,13.54-5.69,3.05,0,5.8.65,8.27,1.94,2.47,1.3,4.63,3.24,6.5,5.83v-6.82h4.7ZM676.63,652.02c-2.66,0-5.11.65-7.36,1.96-2.25,1.3-4.03,3.14-5.36,5.5-1.33,2.36-1.99,4.86-1.99,7.49s.67,5.11,2.01,7.49c1.34,2.38,3.14,4.24,5.4,5.57,2.26,1.33,4.68,1.99,7.27,1.99s5.09-.66,7.43-1.98c2.34-1.32,4.14-3.1,5.4-5.35,1.26-2.25,1.89-4.78,1.89-7.6,0-4.29-1.41-7.88-4.24-10.76-2.83-2.88-6.31-4.33-10.44-4.33Z"/>
    <path class="cls-2" d="M728.47,634.6h4.77v13.77h7.57v4.13h-7.57v32.97h-4.77v-32.97h-6.51v-4.13h6.51v-13.77Z"/>
    <path class="cls-2" d="M767.5,633.1c1.08,0,2.01.39,2.78,1.16.77.77,1.15,1.7,1.15,2.8s-.38,1.99-1.15,2.76c-.77.77-1.7,1.16-2.78,1.16s-1.98-.39-2.75-1.16c-.77-.77-1.15-1.69-1.15-2.76s.38-2.02,1.15-2.8c.77-.77,1.68-1.16,2.75-1.16ZM765.13,648.37h4.77v37.09h-4.77v-37.09Z"/>
    <path class="cls-2" d="M794.19,648.37h5.08l12.45,27.04,12.3-27.04h5.11l-16.98,37.09h-.89l-17.08-37.09Z"/>
    <path class="cls-2" d="M885.5,673.16l4.02,2.11c-1.32,2.59-2.84,4.68-4.57,6.27s-3.67,2.8-5.83,3.63c-2.16.83-4.61,1.25-7.34,1.25-6.05,0-10.78-1.98-14.2-5.95-3.41-3.96-5.12-8.45-5.12-13.45,0-4.7,1.44-8.9,4.33-12.58,3.66-4.68,8.56-7.02,14.71-7.02s11.38,2.4,15.15,7.19c2.68,3.39,4.05,7.61,4.1,12.68h-33.38c.09,4.31,1.47,7.84,4.13,10.6,2.66,2.75,5.95,4.13,9.86,4.13,1.89,0,3.73-.33,5.51-.98,1.79-.66,3.3-1.53,4.56-2.62,1.25-1.09,2.6-2.84,4.06-5.26ZM885.5,663.17c-.64-2.55-1.56-4.58-2.78-6.1s-2.83-2.75-4.83-3.68c-2-.93-4.11-1.4-6.32-1.4-3.64,0-6.77,1.17-9.39,3.51-1.91,1.7-3.36,4.26-4.33,7.67h27.65Z"/>
    <path class="cls-2" d="M976.01,635.32l23.39,50.15h-5.41l-7.89-16.5h-21.61l-7.81,16.5h-5.59l23.69-50.15h1.23ZM975.38,645.97l-8.59,18.15h17.14l-8.55-18.15Z"/>
    <path class="cls-2" d="M1024.33,635.32h5.01v50.15h-5.01v-50.15Z"/>
    <path class="cls-2" d="M1054.82,664.53h18.75v4.16h-18.75v-4.16Z"/>
    <path class="cls-2" d="M1099.79,635.32h28.74v4.91h-23.73v15.72h23.52v4.91h-23.52v19.71h23.52v4.91h-28.54v-50.15Z"/>
    <path class="cls-2" d="M1154.29,648.37h4.77v6.65c1.91-2.55,4.02-4.45,6.34-5.71,2.32-1.26,4.84-1.89,7.57-1.89s5.23.7,7.38,2.11c2.15,1.41,3.73,3.31,4.75,5.69s1.53,6.1,1.53,11.15v19.09h-4.77v-17.69c0-4.27-.18-7.13-.53-8.56-.55-2.45-1.61-4.3-3.18-5.54-1.57-1.24-3.61-1.86-6.14-1.86-2.89,0-5.47.95-7.76,2.86-2.29,1.91-3.79,4.27-4.52,7.09-.45,1.84-.68,5.2-.68,10.09v13.6h-4.77v-37.09Z"/>
    <path class="cls-2" d="M1214.74,634.06h4.77v20.97c1.93-2.55,4.06-4.45,6.38-5.71,2.32-1.26,4.83-1.89,7.53-1.89s5.23.7,7.38,2.11c2.15,1.41,3.73,3.3,4.75,5.68,1.02,2.38,1.53,6.1,1.53,11.16v19.09h-4.77v-17.69c0-4.27-.17-7.13-.51-8.56-.59-2.45-1.67-4.3-3.22-5.54-1.56-1.24-3.6-1.86-6.12-1.86-2.89,0-5.47.95-7.76,2.86-2.29,1.91-3.79,4.27-4.52,7.09-.45,1.82-.68,5.18-.68,10.09v13.6h-4.77v-51.41Z"/>
    <path class="cls-2" d="M1312.16,648.37v37.09h-4.7v-6.38c-2,2.43-4.25,4.26-6.73,5.49-2.49,1.23-5.21,1.84-8.17,1.84-5.25,0-9.73-1.9-13.45-5.71-3.72-3.81-5.58-8.44-5.58-13.89s1.88-9.91,5.63-13.71c3.75-3.8,8.26-5.69,13.54-5.69,3.05,0,5.8.65,8.27,1.94s4.63,3.24,6.5,5.83v-6.82h4.7ZM1293.08,652.02c-2.66,0-5.11.65-7.36,1.96-2.25,1.3-4.03,3.14-5.36,5.5-1.33,2.36-1.99,4.86-1.99,7.49s.67,5.11,2.01,7.49c1.34,2.38,3.14,4.24,5.4,5.57,2.26,1.33,4.68,1.99,7.27,1.99s5.09-.66,7.43-1.98c2.34-1.32,4.14-3.1,5.4-5.35,1.26-2.25,1.89-4.78,1.89-7.6,0-4.29-1.41-7.88-4.24-10.76-2.83-2.88-6.31-4.33-10.44-4.33Z"/>
    <path class="cls-2" d="M1340.77,648.37h4.77v6.65c1.91-2.55,4.02-4.45,6.34-5.71,2.32-1.26,4.84-1.89,7.57-1.89s5.23.7,7.38,2.11c2.15,1.41,3.73,3.31,4.75,5.69,1.02,2.39,1.53,6.1,1.53,11.15v19.09h-4.77v-17.69c0-4.27-.18-7.13-.53-8.56-.55-2.45-1.61-4.3-3.18-5.54-1.57-1.24-3.61-1.86-6.14-1.86-2.89,0-5.47.95-7.76,2.86-2.29,1.91-3.79,4.27-4.52,7.09-.45,1.84-.68,5.2-.68,10.09v13.6h-4.77v-37.09Z"/>
    <path class="cls-2" d="M1437.23,656.08l-3.78,2.35c-3.27-4.34-7.73-6.51-13.38-6.51-4.52,0-8.27,1.45-11.26,4.36-2.98,2.9-4.48,6.44-4.48,10.59,0,2.7.69,5.24,2.06,7.63,1.38,2.38,3.26,4.23,5.65,5.55,2.39,1.32,5.08,1.98,8.05,1.98,5.45,0,9.9-2.17,13.35-6.51l3.78,2.49c-1.77,2.67-4.15,4.74-7.14,6.21-2.99,1.47-6.39,2.21-10.21,2.21-5.86,0-10.73-1.86-14.59-5.59s-5.8-8.26-5.8-13.6c0-3.59.9-6.93,2.71-10.01,1.8-3.08,4.29-5.48,7.45-7.21,3.16-1.73,6.69-2.59,10.6-2.59,2.45,0,4.82.38,7.11,1.13,2.28.75,4.22,1.73,5.81,2.93s2.94,2.74,4.06,4.6Z"/>
    <path class="cls-2" d="M1495.51,673.16l4.02,2.11c-1.32,2.59-2.84,4.68-4.57,6.27-1.73,1.59-3.67,2.8-5.83,3.63-2.16.83-4.61,1.25-7.34,1.25-6.05,0-10.78-1.98-14.2-5.95-3.41-3.96-5.12-8.45-5.12-13.45,0-4.7,1.44-8.9,4.33-12.58,3.66-4.68,8.56-7.02,14.71-7.02s11.38,2.4,15.15,7.19c2.68,3.39,4.05,7.61,4.1,12.68h-33.38c.09,4.31,1.47,7.84,4.13,10.6,2.66,2.75,5.95,4.13,9.86,4.13,1.89,0,3.73-.33,5.51-.98,1.79-.66,3.3-1.53,4.56-2.62,1.25-1.09,2.6-2.84,4.06-5.26ZM1495.51,663.17c-.64-2.55-1.56-4.58-2.78-6.1s-2.83-2.75-4.83-3.68c-2-.93-4.11-1.4-6.32-1.4-3.64,0-6.77,1.17-9.39,3.51-1.91,1.7-3.36,4.26-4.33,7.67h27.65Z"/>
    <path class="cls-2" d="M1564.56,634.06v51.41h-4.7v-6.38c-2,2.43-4.25,4.26-6.73,5.49-2.49,1.23-5.21,1.84-8.17,1.84-5.25,0-9.73-1.9-13.45-5.71-3.72-3.81-5.58-8.44-5.58-13.89s1.88-9.91,5.63-13.71,8.26-5.69,13.54-5.69c3.05,0,5.8.65,8.27,1.94,2.47,1.3,4.63,3.24,6.5,5.83v-21.14h4.7ZM1545.48,652.02c-2.66,0-5.11.65-7.36,1.96-2.25,1.3-4.03,3.14-5.36,5.5-1.33,2.36-1.99,4.86-1.99,7.49s.67,5.11,2.01,7.49,3.14,4.24,5.4,5.57c2.26,1.33,4.68,1.99,7.27,1.99s5.09-.66,7.43-1.98c2.34-1.32,4.14-3.1,5.4-5.35,1.26-2.25,1.89-4.78,1.89-7.6,0-4.29-1.41-7.88-4.24-10.76-2.83-2.88-6.31-4.33-10.44-4.33Z"/>
  </g>
  <g>
    <path class="cls-2" d="M353.7,728.17h4.09v15.06l16.04-15.06h5.39l-19.27,18,20.77,22.12h-5.34l-17.58-18.69v18.69h-4.09v-40.12Z"/>
    <path class="cls-2" d="M393.51,738.61h3.82v5.32c1.53-2.04,3.22-3.56,5.07-4.57s3.87-1.51,6.05-1.51,4.19.56,5.9,1.69,2.99,2.65,3.8,4.55,1.23,4.88,1.23,8.92v15.27h-3.82v-14.16c0-3.42-.14-5.7-.43-6.85-.44-1.96-1.29-3.44-2.55-4.43s-2.89-1.49-4.91-1.49c-2.31,0-4.38.76-6.21,2.29s-3.03,3.42-3.61,5.67c-.36,1.47-.55,4.16-.55,8.07v10.88h-3.82v-29.67Z"/>
    <path class="cls-2" d="M449.05,737.85c4.57,0,8.36,1.65,11.37,4.96,2.73,3.02,4.1,6.59,4.1,10.72s-1.44,7.77-4.33,10.87c-2.89,3.1-6.6,4.65-11.13,4.65s-8.27-1.55-11.16-4.65c-2.89-3.1-4.33-6.72-4.33-10.87s1.37-7.67,4.1-10.69c3-3.33,6.8-4.99,11.39-4.99ZM449.03,741.59c-3.18,0-5.9,1.17-8.18,3.52-2.28,2.35-3.42,5.18-3.42,8.51,0,2.15.52,4.15,1.56,6,1.04,1.85,2.45,3.29,4.22,4.3s3.71,1.51,5.83,1.51,4.06-.5,5.83-1.51c1.77-1.01,3.18-2.44,4.22-4.3,1.04-1.85,1.56-3.85,1.56-6,0-3.33-1.15-6.16-3.43-8.51-2.29-2.35-5.01-3.52-8.17-3.52Z"/>
    <path class="cls-2" d="M475,738.61h3.93l9.1,21.55,9.47-21.55h.69l9.53,21.55,9.27-21.55h3.97l-12.89,29.67h-.71l-9.49-21.25-9.48,21.25h-.71l-12.68-29.67Z"/>
    <path class="cls-2" d="M532.28,727.16h3.82v41.13h-3.82v-41.13Z"/>
    <path class="cls-2" d="M576.45,758.44l3.22,1.69c-1.05,2.07-2.28,3.75-3.66,5.02-1.38,1.27-2.94,2.24-4.67,2.9-1.73.66-3.69,1-5.87,1-4.84,0-8.63-1.59-11.36-4.76s-4.1-6.76-4.1-10.76c0-3.76,1.15-7.12,3.47-10.06,2.93-3.75,6.85-5.62,11.77-5.62s9.1,1.92,12.12,5.75c2.15,2.71,3.24,6.09,3.28,10.15h-26.7c.07,3.45,1.18,6.27,3.3,8.48,2.13,2.2,4.76,3.31,7.89,3.31,1.51,0,2.98-.26,4.41-.79s2.65-1.22,3.65-2.09c1-.87,2.08-2.27,3.25-4.21ZM576.45,750.45c-.51-2.04-1.25-3.66-2.23-4.88-.98-1.22-2.26-2.2-3.86-2.95-1.6-.75-3.29-1.12-5.05-1.12-2.91,0-5.42.94-7.51,2.81-1.53,1.36-2.69,3.41-3.47,6.14h22.12Z"/>
    <path class="cls-2" d="M624.82,727.16v41.13h-3.76v-5.1c-1.6,1.95-3.4,3.41-5.39,4.39s-4.17,1.47-6.53,1.47c-4.2,0-7.79-1.52-10.76-4.57-2.97-3.05-4.46-6.75-4.46-11.11s1.5-7.93,4.5-10.96c3-3.04,6.61-4.55,10.83-4.55,2.44,0,4.64.52,6.61,1.55s3.7,2.59,5.2,4.66v-16.91h3.76ZM609.56,741.53c-2.13,0-4.09.52-5.88,1.57-1.8,1.05-3.23,2.51-4.29,4.4s-1.59,3.89-1.59,5.99.54,4.09,1.61,5.99,2.51,3.39,4.32,4.45c1.81,1.06,3.75,1.59,5.82,1.59s4.07-.53,5.94-1.58c1.87-1.05,3.31-2.48,4.32-4.28,1.01-1.8,1.51-3.82,1.51-6.08,0-3.43-1.13-6.3-3.39-8.61-2.26-2.3-5.05-3.46-8.35-3.46Z"/>
    <path class="cls-2" d="M666.48,738.61h3.82v23.65c0,4.16-.36,7.21-1.09,9.14-1,2.73-2.74,4.83-5.21,6.3s-5.45,2.21-8.92,2.21c-2.55,0-4.83-.36-6.86-1.08-2.03-.72-3.68-1.69-4.95-2.9-1.27-1.21-2.45-2.99-3.52-5.32h4.15c1.13,1.96,2.58,3.42,4.37,4.36s4,1.42,6.64,1.42,4.8-.48,6.59-1.45c1.79-.97,3.07-2.19,3.84-3.65.77-1.47,1.15-3.84,1.15-7.11v-1.53c-1.44,1.82-3.2,3.21-5.27,4.19-2.08.97-4.28,1.46-6.61,1.46-2.73,0-5.3-.68-7.7-2.03s-4.26-3.18-5.57-5.47c-1.31-2.29-1.97-4.81-1.97-7.56s.68-5.3,2.05-7.68,3.25-4.25,5.66-5.63c2.41-1.38,4.96-2.07,7.63-2.07,2.22,0,4.29.46,6.21,1.38,1.92.92,3.77,2.43,5.55,4.54v-5.15ZM655.21,741.53c-2.16,0-4.17.52-6.03,1.57s-3.31,2.49-4.36,4.34-1.58,3.84-1.58,5.99c0,3.25,1.09,5.95,3.27,8.07,2.18,2.13,5.01,3.19,8.48,3.19s6.33-1.05,8.47-3.16,3.2-4.88,3.2-8.32c0-2.24-.49-4.23-1.47-5.99s-2.37-3.14-4.17-4.16c-1.8-1.02-3.74-1.53-5.81-1.53Z"/>
    <path class="cls-2" d="M710.89,758.44l3.22,1.69c-1.05,2.07-2.28,3.75-3.66,5.02-1.38,1.27-2.94,2.24-4.67,2.9-1.73.66-3.69,1-5.87,1-4.84,0-8.63-1.59-11.36-4.76-2.73-3.17-4.1-6.76-4.1-10.76,0-3.76,1.15-7.12,3.47-10.06,2.93-3.75,6.85-5.62,11.77-5.62s9.1,1.92,12.12,5.75c2.15,2.71,3.24,6.09,3.28,10.15h-26.7c.07,3.45,1.18,6.27,3.3,8.48,2.13,2.2,4.76,3.31,7.89,3.31,1.51,0,2.98-.26,4.41-.79s2.65-1.22,3.65-2.09c1-.87,2.08-2.27,3.25-4.21ZM710.89,750.45c-.51-2.04-1.25-3.66-2.23-4.88-.98-1.22-2.26-2.2-3.86-2.95-1.6-.75-3.29-1.12-5.05-1.12-2.91,0-5.42.94-7.51,2.81-1.53,1.36-2.69,3.41-3.47,6.14h22.12Z"/>
    <path class="cls-2" d="M751.34,768.29l5.74-40.12h.65l16.31,32.92,16.15-32.92h.64l5.77,40.12h-3.93l-3.96-28.69-14.19,28.69h-1.03l-14.36-28.91-3.94,28.91h-3.87Z"/>
    <path class="cls-2" d="M840.86,738.61v29.67h-3.76v-5.1c-1.6,1.95-3.4,3.41-5.39,4.39-1.99.98-4.17,1.47-6.53,1.47-4.2,0-7.79-1.52-10.76-4.57-2.97-3.05-4.46-6.75-4.46-11.11s1.5-7.93,4.5-10.96c3-3.04,6.61-4.55,10.83-4.55,2.44,0,4.64.52,6.61,1.55s3.7,2.59,5.2,4.66v-5.45h3.76ZM825.6,741.53c-2.13,0-4.09.52-5.88,1.57-1.8,1.05-3.23,2.51-4.29,4.4s-1.59,3.89-1.59,5.99.54,4.09,1.61,5.99c1.07,1.91,2.51,3.39,4.32,4.45,1.81,1.06,3.75,1.59,5.82,1.59s4.07-.53,5.94-1.58c1.87-1.05,3.31-2.48,4.32-4.28,1.01-1.8,1.51-3.82,1.51-6.08,0-3.43-1.13-6.3-3.39-8.61-2.26-2.3-5.05-3.46-8.35-3.46Z"/>
    <path class="cls-2" d="M856.88,738.61h3.82v5.32c1.53-2.04,3.22-3.56,5.07-4.57s3.87-1.51,6.05-1.51,4.19.56,5.9,1.69,2.99,2.65,3.8,4.55,1.23,4.88,1.23,8.92v15.27h-3.82v-14.16c0-3.42-.14-5.7-.43-6.85-.44-1.96-1.29-3.44-2.55-4.43s-2.89-1.49-4.91-1.49c-2.31,0-4.38.76-6.21,2.29s-3.03,3.42-3.61,5.67c-.36,1.47-.55,4.16-.55,8.07v10.88h-3.82v-29.67Z"/>
    <path class="cls-2" d="M927.94,738.61v29.67h-3.76v-5.1c-1.6,1.95-3.4,3.41-5.39,4.39s-4.17,1.47-6.53,1.47c-4.2,0-7.79-1.52-10.76-4.57s-4.46-6.75-4.46-11.11,1.5-7.93,4.5-10.96,6.61-4.55,10.83-4.55c2.44,0,4.64.52,6.61,1.55s3.7,2.59,5.2,4.66v-5.45h3.76ZM912.68,741.53c-2.13,0-4.09.52-5.88,1.57-1.8,1.05-3.23,2.51-4.29,4.4s-1.59,3.89-1.59,5.99.54,4.09,1.61,5.99,2.51,3.39,4.32,4.45c1.81,1.06,3.75,1.59,5.82,1.59s4.07-.53,5.94-1.58c1.87-1.05,3.31-2.48,4.32-4.28,1.01-1.8,1.51-3.82,1.51-6.08,0-3.43-1.13-6.3-3.39-8.61-2.26-2.3-5.05-3.46-8.35-3.46Z"/>
    <path class="cls-2" d="M969.55,738.61h3.82v23.65c0,4.16-.36,7.21-1.09,9.14-1,2.73-2.74,4.83-5.21,6.3s-5.45,2.21-8.92,2.21c-2.55,0-4.83-.36-6.86-1.08-2.03-.72-3.68-1.69-4.95-2.9-1.27-1.21-2.45-2.99-3.52-5.32h4.15c1.13,1.96,2.58,3.42,4.37,4.36s4,1.42,6.64,1.42,4.8-.48,6.59-1.45c1.79-.97,3.07-2.19,3.84-3.65.77-1.47,1.15-3.84,1.15-7.11v-1.53c-1.44,1.82-3.2,3.21-5.27,4.19-2.08.97-4.28,1.46-6.61,1.46-2.73,0-5.3-.68-7.7-2.03-2.4-1.35-4.26-3.18-5.57-5.47-1.31-2.29-1.97-4.81-1.97-7.56s.68-5.3,2.05-7.68,3.25-4.25,5.66-5.63,4.96-2.07,7.63-2.07c2.22,0,4.29.46,6.21,1.38,1.92.92,3.77,2.43,5.55,4.54v-5.15ZM958.28,741.53c-2.16,0-4.17.52-6.03,1.57s-3.31,2.49-4.36,4.34-1.58,3.84-1.58,5.99c0,3.25,1.09,5.95,3.27,8.07s5.01,3.19,8.48,3.19,6.33-1.05,8.47-3.16,3.2-4.88,3.2-8.32c0-2.24-.49-4.23-1.47-5.99-.98-1.75-2.37-3.14-4.17-4.16s-3.74-1.53-5.81-1.53Z"/>
    <path class="cls-2" d="M1013.96,758.44l3.22,1.69c-1.05,2.07-2.28,3.75-3.66,5.02-1.38,1.27-2.94,2.24-4.67,2.9-1.73.66-3.69,1-5.87,1-4.84,0-8.63-1.59-11.36-4.76s-4.1-6.76-4.1-10.76c0-3.76,1.15-7.12,3.47-10.06,2.93-3.75,6.85-5.62,11.77-5.62s9.1,1.92,12.12,5.75c2.15,2.71,3.24,6.09,3.28,10.15h-26.7c.07,3.45,1.18,6.27,3.3,8.48,2.13,2.2,4.76,3.31,7.89,3.31,1.51,0,2.98-.26,4.41-.79s2.65-1.22,3.65-2.09c1-.87,2.08-2.27,3.25-4.21ZM1013.96,750.45c-.51-2.04-1.25-3.66-2.23-4.88-.98-1.22-2.26-2.2-3.86-2.95-1.6-.75-3.29-1.12-5.05-1.12-2.91,0-5.42.94-7.51,2.81-1.53,1.36-2.69,3.41-3.47,6.14h22.12Z"/>
    <path class="cls-2" d="M1032.68,738.61h3.82v5.13c1.33-1.89,2.69-3.27,4.1-4.15,1.93-1.16,3.96-1.75,6.09-1.75,1.44,0,2.8.28,4.1.85s2.35,1.31,3.17,2.25c.82.94,1.53,2.28,2.13,4.02,1.27-2.33,2.86-4.1,4.76-5.3,1.9-1.21,3.95-1.81,6.15-1.81,2.05,0,3.86.52,5.43,1.55,1.57,1.04,2.73,2.48,3.5,4.34s1.14,4.64,1.14,8.35v16.2h-3.9v-16.2c0-3.18-.23-5.37-.68-6.56s-1.23-2.15-2.33-2.88c-1.1-.73-2.4-1.09-3.93-1.09-1.85,0-3.54.55-5.07,1.64-1.53,1.09-2.65,2.55-3.36,4.36-.71,1.82-1.06,4.85-1.06,9.11v11.62h-3.82v-15.19c0-3.58-.22-6.01-.67-7.3s-1.22-2.31-2.33-3.08-2.43-1.16-3.95-1.16c-1.76,0-3.41.53-4.95,1.6s-2.67,2.5-3.41,4.3-1.1,4.55-1.1,8.26v12.57h-3.82v-29.67Z"/>
    <path class="cls-2" d="M1117.52,758.44l3.22,1.69c-1.05,2.07-2.28,3.75-3.66,5.02-1.38,1.27-2.94,2.24-4.67,2.9-1.73.66-3.69,1-5.87,1-4.84,0-8.63-1.59-11.36-4.76-2.73-3.17-4.1-6.76-4.1-10.76,0-3.76,1.15-7.12,3.47-10.06,2.93-3.75,6.85-5.62,11.77-5.62s9.1,1.92,12.12,5.75c2.15,2.71,3.24,6.09,3.28,10.15h-26.7c.07,3.45,1.18,6.27,3.3,8.48,2.13,2.2,4.76,3.31,7.89,3.31,1.51,0,2.98-.26,4.41-.79s2.65-1.22,3.65-2.09c1-.87,2.08-2.27,3.25-4.21ZM1117.52,750.45c-.51-2.04-1.25-3.66-2.23-4.88-.98-1.22-2.26-2.2-3.86-2.95-1.6-.75-3.29-1.12-5.05-1.12-2.91,0-5.42.94-7.51,2.81-1.53,1.36-2.69,3.41-3.47,6.14h22.12Z"/>
    <path class="cls-2" d="M1136.26,738.61h3.82v5.32c1.53-2.04,3.22-3.56,5.07-4.57s3.87-1.51,6.05-1.51,4.19.56,5.9,1.69,2.99,2.65,3.8,4.55,1.23,4.88,1.23,8.92v15.27h-3.82v-14.16c0-3.42-.14-5.7-.43-6.85-.44-1.96-1.29-3.44-2.55-4.43s-2.89-1.49-4.91-1.49c-2.31,0-4.38.76-6.21,2.29s-3.03,3.42-3.61,5.67c-.36,1.47-.55,4.16-.55,8.07v10.88h-3.82v-29.67Z"/>
    <path class="cls-2" d="M1181.09,727.59h3.82v11.02h6.05v3.3h-6.05v26.37h-3.82v-26.37h-5.21v-3.3h5.21v-11.02Z"/>
    <path class="cls-2" d="M1228.33,726.39c.87,0,1.61.31,2.23.93.61.62.92,1.36.92,2.24s-.31,1.59-.92,2.21c-.62.62-1.36.93-2.23.93s-1.58-.31-2.2-.93-.92-1.35-.92-2.21.31-1.62.92-2.24,1.35-.93,2.2-.93ZM1226.44,738.61h3.82v29.67h-3.82v-29.67Z"/>
    <path class="cls-2" d="M1245.62,738.61h3.82v5.32c1.53-2.04,3.22-3.56,5.07-4.57s3.87-1.51,6.05-1.51,4.19.56,5.9,1.69,2.99,2.65,3.8,4.55c.82,1.91,1.23,4.88,1.23,8.92v15.27h-3.82v-14.16c0-3.42-.14-5.7-.43-6.85-.44-1.96-1.29-3.44-2.55-4.43s-2.89-1.49-4.91-1.49c-2.31,0-4.38.76-6.21,2.29s-3.03,3.42-3.61,5.67c-.36,1.47-.55,4.16-.55,8.07v10.88h-3.82v-29.67Z"/>
    <path class="cls-2" d="M1310.75,728.17h7.91c3.18,0,5.63.38,7.34,1.13s3.06,1.91,4.05,3.48,1.49,3.3,1.49,5.21c0,1.78-.43,3.4-1.3,4.87s-2.15,2.65-3.83,3.56c2.08.71,3.69,1.54,4.81,2.5,1.12.95,2,2.11,2.62,3.46s.94,2.82.94,4.4c0,3.22-1.18,5.94-3.53,8.17-2.35,2.23-5.51,3.34-9.48,3.34h-11.02v-40.12ZM1314.68,732.09v12.85h2.3c2.79,0,4.84-.26,6.15-.78s2.35-1.34,3.12-2.45,1.15-2.36,1.15-3.72c0-1.84-.64-3.28-1.93-4.32s-3.33-1.57-6.14-1.57h-4.65ZM1314.68,748.98v15.38h4.97c2.93,0,5.08-.29,6.45-.86s2.46-1.47,3.29-2.69c.83-1.22,1.24-2.54,1.24-3.95,0-1.78-.58-3.34-1.75-4.66s-2.77-2.24-4.8-2.73c-1.37-.33-3.75-.49-7.13-.49h-2.27Z"/>
    <path class="cls-2" d="M1349.02,738.61h3.82v13.86c0,3.38.18,5.71.55,6.98.55,1.82,1.59,3.25,3.13,4.31s3.37,1.58,5.5,1.58,3.94-.51,5.42-1.54c1.48-1.03,2.51-2.38,3.07-4.05.38-1.15.57-3.57.57-7.28v-13.86h3.9v14.56c0,4.09-.48,7.17-1.43,9.25s-2.39,3.7-4.31,4.87-4.32,1.76-7.21,1.76-5.3-.59-7.24-1.76c-1.94-1.17-3.38-2.81-4.34-4.91s-1.43-5.26-1.43-9.48v-14.29Z"/>
    <path class="cls-2" d="M1405.82,741.86l-2.45,2.54c-2.04-1.98-4.04-2.97-5.99-2.97-1.24,0-2.3.41-3.18,1.23-.89.82-1.33,1.77-1.33,2.86,0,.96.36,1.88,1.09,2.75.73.89,2.26,1.94,4.59,3.14,2.84,1.47,4.78,2.89,5.8,4.25,1,1.38,1.5,2.94,1.5,4.66,0,2.44-.86,4.5-2.57,6.19s-3.85,2.54-6.42,2.54c-1.71,0-3.35-.37-4.9-1.12-1.56-.75-2.85-1.77-3.87-3.08l2.4-2.73c1.95,2.2,4.02,3.3,6.2,3.3,1.53,0,2.83-.49,3.91-1.47s1.61-2.14,1.61-3.46c0-1.09-.35-2.06-1.07-2.92-.71-.84-2.31-1.89-4.81-3.16-2.68-1.38-4.5-2.75-5.47-4.09s-1.45-2.88-1.45-4.61c0-2.25.77-4.13,2.31-5.62,1.54-1.49,3.48-2.24,5.83-2.24,2.73,0,5.48,1.34,8.25,4.01Z"/>
    <path class="cls-2" d="M1421.34,726.39c.87,0,1.61.31,2.23.93.61.62.92,1.36.92,2.24s-.31,1.59-.92,2.21c-.62.62-1.36.93-2.23.93s-1.58-.31-2.2-.93-.92-1.35-.92-2.21.31-1.62.92-2.24,1.35-.93,2.2-.93ZM1419.44,738.61h3.82v29.67h-3.82v-29.67Z"/>
    <path class="cls-2" d="M1438.63,738.61h3.82v5.32c1.53-2.04,3.22-3.56,5.07-4.57s3.87-1.51,6.05-1.51,4.19.56,5.9,1.69,2.99,2.65,3.8,4.55,1.23,4.88,1.23,8.92v15.27h-3.82v-14.16c0-3.42-.14-5.7-.43-6.85-.44-1.96-1.29-3.44-2.55-4.43s-2.89-1.49-4.91-1.49c-2.31,0-4.38.76-6.21,2.29s-3.03,3.42-3.61,5.67c-.36,1.47-.55,4.16-.55,8.07v10.88h-3.82v-29.67Z"/>
    <path class="cls-2" d="M1505.11,758.44l3.22,1.69c-1.05,2.07-2.28,3.75-3.66,5.02-1.38,1.27-2.94,2.24-4.67,2.9-1.73.66-3.69,1-5.87,1-4.84,0-8.63-1.59-11.36-4.76-2.73-3.17-4.1-6.76-4.1-10.76,0-3.76,1.15-7.12,3.47-10.06,2.93-3.75,6.85-5.62,11.77-5.62s9.1,1.92,12.12,5.75c2.15,2.71,3.24,6.09,3.28,10.15h-26.7c.07,3.45,1.18,6.27,3.3,8.48,2.13,2.2,4.76,3.31,7.89,3.31,1.51,0,2.98-.26,4.41-.79s2.65-1.22,3.65-2.09c1-.87,2.08-2.27,3.25-4.21ZM1505.11,750.45c-.51-2.04-1.25-3.66-2.23-4.88-.98-1.22-2.26-2.2-3.86-2.95-1.6-.75-3.29-1.12-5.05-1.12-2.91,0-5.42.94-7.51,2.81-1.53,1.36-2.69,3.41-3.47,6.14h22.12Z"/>
    <path class="cls-2" d="M1538.77,741.86l-2.45,2.54c-2.04-1.98-4.04-2.97-5.99-2.97-1.24,0-2.3.41-3.18,1.23-.89.82-1.33,1.77-1.33,2.86,0,.96.36,1.88,1.09,2.75.73.89,2.26,1.94,4.59,3.14,2.84,1.47,4.78,2.89,5.8,4.25,1,1.38,1.5,2.94,1.5,4.66,0,2.44-.86,4.5-2.57,6.19-1.71,1.69-3.85,2.54-6.42,2.54-1.71,0-3.35-.37-4.9-1.12-1.56-.75-2.85-1.77-3.87-3.08l2.4-2.73c1.95,2.2,4.02,3.3,6.2,3.3,1.53,0,2.83-.49,3.91-1.47s1.61-2.14,1.61-3.46c0-1.09-.35-2.06-1.07-2.92-.71-.84-2.31-1.89-4.81-3.16-2.68-1.38-4.5-2.75-5.47-4.09s-1.45-2.88-1.45-4.61c0-2.25.77-4.13,2.31-5.62,1.54-1.49,3.48-2.24,5.83-2.24,2.73,0,5.48,1.34,8.25,4.01Z"/>
    <path class="cls-2" d="M1567.89,741.86l-2.45,2.54c-2.04-1.98-4.04-2.97-5.99-2.97-1.24,0-2.3.41-3.18,1.23-.89.82-1.33,1.77-1.33,2.86,0,.96.36,1.88,1.09,2.75.73.89,2.26,1.94,4.59,3.14,2.84,1.47,4.78,2.89,5.8,4.25,1,1.38,1.5,2.94,1.5,4.66,0,2.44-.86,4.5-2.57,6.19s-3.85,2.54-6.42,2.54c-1.71,0-3.35-.37-4.9-1.12-1.56-.75-2.85-1.77-3.87-3.08l2.4-2.73c1.95,2.2,4.02,3.3,6.2,3.3,1.53,0,2.83-.49,3.91-1.47s1.61-2.14,1.61-3.46c0-1.09-.35-2.06-1.07-2.92-.71-.84-2.31-1.89-4.81-3.16-2.68-1.38-4.5-2.75-5.47-4.09s-1.45-2.88-1.45-4.61c0-2.25.77-4.13,2.31-5.62,1.54-1.49,3.48-2.24,5.83-2.24,2.73,0,5.48,1.34,8.25,4.01Z"/>
  </g>
</svg>