<?xml version="1.0" encoding="UTF-8"?>
<svg id="Layer_1" data-name="Layer 1" xmlns="http://www.w3.org/2000/svg" xmlns:xlink="http://www.w3.org/1999/xlink" viewBox="0 0 738 358">
  <defs>
    <style>
      .cls-1 {
        fill: url(#linear-gradient);
      }

      .cls-1, .cls-2, .cls-3, .cls-4 {
        stroke-width: 0px;
      }

      .cls-2 {
        fill: #000;
      }

      .cls-3 {
        fill: #666;
      }

      .cls-4 {
        fill: #333;
      }
    </style>
    <linearGradient id="linear-gradient" x1="304.34" y1="-52.66" x2="301.78" y2="330.92" gradientUnits="userSpaceOnUse">
      <stop offset="0" stop-color="#0079c2"/>
      <stop offset=".14" stop-color="#0277c0"/>
      <stop offset=".23" stop-color="#0b71bd"/>
      <stop offset=".31" stop-color="#1a68b6"/>
      <stop offset=".38" stop-color="#305bad"/>
      <stop offset=".45" stop-color="#4b49a1"/>
      <stop offset=".51" stop-color="#6d3593"/>
      <stop offset=".55" stop-color="#8a2387"/>
    </linearGradient>
  </defs>
  <g>
    <path class="cls-1" d="M144.75,92.02v45.75c0,1.93,2.34,2.9,3.7,1.53l22.11-22.11c.85-.85.85-2.21,0-3.06-2.71-2.73-8.44-8.49-12.23-12.3-1.36-1.37-.39-3.69,1.54-3.69,14.36,0,54.52,0,68.93,0,1.93,0,2.89,2.34,1.53,3.7l-18.73,18.73.06.06-66.29,66.29-1.79.74h0c-9.39,0-18.78,0-28.17,0-1.2,0-2.17-.97-2.17-2.17v-95.64s0-29.33,0-29.33c0-1.2.97-2.17,2.17-2.17h153.4c1.93,0,2.9,2.34,1.53,3.7-9.05,9.05-18.11,18.11-27.16,27.16-.41.41-.96.64-1.53.64h-94.74c-1.2,0-2.17.97-2.17,2.17ZM306.45,73.07v112.42c0,1.2.97,2.17,2.17,2.17h27.16c1.2,0,2.17-.97,2.17-2.17v-85.26c0-.58-.23-1.13-.64-1.53l-25.55-25.55-1.61-1.61c-1.37-1.37-3.7-.4-3.7,1.53ZM377.39,63.54l-25.55,25.55c-.41.41-.64.96-.64,1.53v94.88c0,1.2.97,2.17,2.17,2.17h27.16c1.2,0,2.17-.97,2.17-2.17V63.46c0-1.93-2.34-2.9-3.7-1.53l-1.61,1.61ZM292.94,60.27c0-.7-.85-1.06-1.35-.56l-30.15,30.4-93.88,93.88c-1.35,1.35-.39,3.66,1.52,3.66h38.47c.58,0,1.13-.23,1.53-.64l48.66-48.66c1.37-1.37,3.7-.4,3.7,1.53v45.59c0,1.2.97,2.17,2.17,2.17h27.16c1.2,0,2.17-.97,2.17-2.17V60.27ZM337.62,82.11v-21.59c0-1.2-.97-2.17-2.17-2.17h-21.59c-1.93,0-2.9,2.34-1.53,3.7l21.59,21.59c1.37,1.37,3.7.4,3.7-1.53ZM491.75,58.03h-38.41c-.58,0-1.13.23-1.53.64l-69.26,69.26h0s0,.01,0,.01l59.1,59.1c.41.41.96.64,1.53.64h38.41c1.93,0,2.9-2.34,1.53-3.7l-54.5-54.5c-.85-.85-.85-2.22,0-3.07l64.66-64.66c1.37-1.37.4-3.7-1.53-3.7Z"/>
    <path class="cls-3" d="M599.6,83.79c-9.29,0-16.83,7.53-16.83,16.83,0,2.49.55,4.86,1.52,6.98-2.12.85-4.49,1.59-7.07,1.94-1.84.25-3.65.29-5.62.5-3.52-7.64-11.24-12.95-20.2-12.95-2.63,0-5.15.46-7.49,1.3-1.72-5.7-4.6-13.43-7.54-18.76,2.95-2.24,4.86-5.77,4.86-9.75,0-6.77-5.49-12.26-12.26-12.26s-12.26,5.49-12.26,12.26c0,4.23,2.14,7.95,5.39,10.15-1.48,6.08-6.83,12.72-16.24,27.02-.63-.26-1.31-.4-2.03-.4-2.98,0-5.4,2.42-5.4,5.4s2.42,5.4,5.4,5.4c1.57,0,2.98-.67,3.97-1.74,11.87,16.42,17.49,22.26,17.7,29.61,0,.31.01.78.04,1.29-1.84,1.6-3,3.95-3,6.58,0,4.82,3.91,8.73,8.73,8.73s8.73-3.91,8.73-8.73c0-2.13-.76-4.08-2.03-5.59,1.75-2.09,3.62-4.77,5.4-7.55,2.5.97,5.21,1.51,8.05,1.51,12.28,0,22.23-9.95,22.23-22.23,0-1.41-.14-2.79-.39-4.13,5.09-.33,10.74-.95,15.42-1.78,2.94,2.52,6.76,4.05,10.94,4.05,9.29,0,16.83-7.53,16.83-16.83s-7.53-16.83-16.83-16.83ZM529.2,120.26c-2.74-.52-6.21-1.27-10.04-2.92-3.03-1.31-5.85-2.99-10.05-4.16.08-.37.12-.75.12-1.13,0-.25-.02-.49-.06-.73,10.57-1.59,17.82-3.01,23.27-3.6-2.07,3.38-3.27,7.35-3.27,11.61,0,.32.01.63.02.95ZM525.07,81.48c1.23.41,2.53.64,3.9.64s2.64-.23,3.85-.63c1.58,2.33,3.37,5.24,4.77,8.88,1.1,2.86,1.83,5.82,3.53,9.23-2.49,1.3-4.7,3.06-6.52,5.16-8.76.95-19.45,3.75-25.63,5.61-.38-1.18-1.15-2.18-2.16-2.84,5.49-6.29,14.79-17.84,18.26-26.05ZM535.21,145.41c-1.19-.61-2.53-.95-3.95-.95-.66,0-1.29.08-1.91.22-.97-7.34-12.64-21.05-19.79-28.7,5.73,2.96,14.41,6.76,20.12,8.02,1.37,6.39,5.49,11.77,11.06,14.82-1.89,2.77-3.86,4.9-5.52,6.59Z"/>
    <path class="cls-4" d="M524.19,168.97l-2.8,13.93c-.49,2.43,1.37,4.7,3.85,4.7h95.58c2.46,0,4.32-2.25,3.85-4.67l-10.32-53.6h-23.42l-3.74,17.61-27.69,3.74c-1.25,4.85-2.49,9.7-3.74,14.54"/>
  </g>
  <g>
    <path class="cls-2" d="M135.9,243.37l-1.63,1.54c-1.17-1.15-2.45-2.02-3.85-2.62-1.4-.59-2.75-.89-4.08-.89-1.65,0-3.21.4-4.7,1.21s-2.64,1.91-3.46,3.29c-.82,1.39-1.23,2.85-1.23,4.39s.42,3.08,1.27,4.5,2.02,2.54,3.51,3.35c1.49.81,3.13,1.22,4.91,1.22,2.16,0,3.99-.61,5.48-1.83s2.38-2.8,2.66-4.74h-6.7v-2.03h9.05c-.02,3.25-.98,5.82-2.89,7.73-1.91,1.91-4.46,2.86-7.66,2.86-3.88,0-6.96-1.32-9.22-3.97-1.74-2.04-2.61-4.39-2.61-7.07,0-1.99.5-3.84,1.5-5.55s2.37-3.05,4.11-4.02c1.74-.97,3.71-1.45,5.91-1.45,1.78,0,3.45.32,5.03.96,1.57.64,3.1,1.67,4.6,3.09Z"/>
    <path class="cls-2" d="M161.37,255.69l1.68.89c-.55,1.08-1.19,1.96-1.91,2.63s-1.54,1.17-2.44,1.52c-.91.35-1.93.52-3.07.52-2.53,0-4.51-.83-5.94-2.49-1.43-1.66-2.14-3.54-2.14-5.63,0-1.97.6-3.73,1.81-5.27,1.53-1.96,3.59-2.94,6.16-2.94s4.76,1,6.34,3.01c1.12,1.42,1.7,3.19,1.71,5.31h-13.98c.04,1.8.61,3.28,1.73,4.44,1.12,1.15,2.49,1.73,4.13,1.73.79,0,1.56-.14,2.31-.41s1.38-.64,1.91-1.1c.52-.45,1.09-1.19,1.7-2.2ZM161.37,251.51c-.27-1.07-.65-1.92-1.16-2.56s-1.18-1.15-2.02-1.54-1.72-.59-2.64-.59c-1.52,0-2.83.49-3.93,1.47-.8.71-1.41,1.78-1.81,3.21h11.58Z"/>
    <path class="cls-2" d="M174.78,245.31h2v2.78c.8-1.07,1.68-1.86,2.66-2.39.97-.53,2.03-.79,3.17-.79s2.19.3,3.09.89c.9.59,1.56,1.38,1.99,2.38s.64,2.56.64,4.67v7.99h-2v-7.41c0-1.79-.07-2.98-.22-3.58-.23-1.03-.68-1.8-1.33-2.32-.66-.52-1.51-.78-2.57-.78-1.21,0-2.29.4-3.25,1.2-.96.8-1.59,1.79-1.89,2.97-.19.77-.29,2.18-.29,4.23v5.7h-2v-15.53Z"/>
    <path class="cls-2" d="M213.17,255.69l1.68.89c-.55,1.08-1.19,1.96-1.91,2.63s-1.54,1.17-2.44,1.52c-.91.35-1.93.52-3.07.52-2.53,0-4.51-.83-5.94-2.49-1.43-1.66-2.14-3.54-2.14-5.63,0-1.97.6-3.73,1.81-5.27,1.53-1.96,3.59-2.94,6.16-2.94s4.76,1,6.34,3.01c1.12,1.42,1.7,3.19,1.71,5.31h-13.98c.04,1.8.61,3.28,1.73,4.44,1.12,1.15,2.49,1.73,4.13,1.73.79,0,1.56-.14,2.31-.41s1.38-.64,1.91-1.1c.52-.45,1.09-1.19,1.7-2.2ZM213.17,251.51c-.27-1.07-.65-1.92-1.16-2.56s-1.18-1.15-2.02-1.54-1.72-.59-2.64-.59c-1.52,0-2.83.49-3.93,1.47-.8.71-1.41,1.78-1.81,3.21h11.58Z"/>
    <path class="cls-2" d="M225.82,245.31h2.04v2.27c.61-.89,1.25-1.56,1.93-2.01.68-.44,1.38-.66,2.11-.66.55,0,1.14.18,1.77.53l-1.04,1.68c-.42-.18-.77-.27-1.06-.27-.67,0-1.31.27-1.93.82-.62.55-1.09,1.4-1.41,2.55-.25.89-.37,2.67-.37,5.37v5.25h-2.04v-15.53Z"/>
    <path class="cls-2" d="M258.33,245.31v15.53h-1.97v-2.67c-.84,1.02-1.78,1.78-2.82,2.3-1.04.51-2.18.77-3.42.77-2.2,0-4.08-.8-5.63-2.39-1.56-1.59-2.33-3.53-2.33-5.82s.79-4.15,2.36-5.74,3.46-2.38,5.67-2.38c1.28,0,2.43.27,3.46.81s1.94,1.36,2.72,2.44v-2.86h1.97ZM250.35,246.84c-1.11,0-2.14.27-3.08.82-.94.55-1.69,1.31-2.25,2.3-.56.99-.83,2.03-.83,3.14s.28,2.14.84,3.14,1.31,1.77,2.26,2.33c.95.56,1.96.83,3.04.83s2.13-.28,3.11-.83c.98-.55,1.73-1.3,2.26-2.24.53-.94.79-2,.79-3.18,0-1.8-.59-3.3-1.77-4.51-1.18-1.21-2.64-1.81-4.37-1.81Z"/>
    <path class="cls-2" d="M272.06,239.55h2v5.77h3.17v1.73h-3.17v13.8h-2v-13.8h-2.73v-1.73h2.73v-5.77Z"/>
    <path class="cls-2" d="M288.4,238.92c.45,0,.84.16,1.16.49.32.32.48.71.48,1.17s-.16.83-.48,1.16c-.32.32-.71.49-1.16.49s-.83-.16-1.15-.49c-.32-.32-.48-.71-.48-1.16s.16-.85.48-1.17c.32-.32.71-.49,1.15-.49ZM287.41,245.31h2v15.53h-2v-15.53Z"/>
    <path class="cls-2" d="M299.57,245.31h2.13l5.21,11.32,5.15-11.32h2.14l-7.11,15.53h-.37l-7.15-15.53Z"/>
    <path class="cls-2" d="M337.81,255.69l1.68.89c-.55,1.08-1.19,1.96-1.91,2.63s-1.54,1.17-2.44,1.52c-.91.35-1.93.52-3.07.52-2.53,0-4.51-.83-5.94-2.49-1.43-1.66-2.14-3.54-2.14-5.63,0-1.97.6-3.73,1.81-5.27,1.53-1.96,3.59-2.94,6.16-2.94s4.76,1,6.34,3.01c1.12,1.42,1.7,3.19,1.71,5.31h-13.98c.04,1.8.61,3.28,1.73,4.44,1.12,1.15,2.49,1.73,4.13,1.73.79,0,1.56-.14,2.31-.41s1.38-.64,1.91-1.1c.52-.45,1.09-1.19,1.7-2.2ZM337.81,251.51c-.27-1.07-.65-1.92-1.16-2.56s-1.18-1.15-2.02-1.54-1.72-.59-2.64-.59c-1.52,0-2.83.49-3.93,1.47-.8.71-1.41,1.78-1.81,3.21h11.58Z"/>
    <path class="cls-2" d="M375.7,239.85l9.79,21h-2.27l-3.3-6.91h-9.05l-3.27,6.91h-2.34l9.92-21h.51ZM375.44,244.31l-3.6,7.6h7.18l-3.58-7.6Z"/>
    <path class="cls-2" d="M395.94,239.85h2.1v21h-2.1v-21Z"/>
    <path class="cls-2" d="M408.7,252.08h7.85v1.74h-7.85v-1.74Z"/>
    <path class="cls-2" d="M427.53,239.85h12.03v2.06h-9.94v6.58h9.85v2.06h-9.85v8.25h9.85v2.06h-11.95v-21Z"/>
    <path class="cls-2" d="M450.35,245.31h2v2.78c.8-1.07,1.68-1.86,2.66-2.39.97-.53,2.03-.79,3.17-.79s2.19.3,3.09.89c.9.59,1.56,1.38,1.99,2.38s.64,2.56.64,4.67v7.99h-2v-7.41c0-1.79-.07-2.98-.22-3.58-.23-1.03-.68-1.8-1.33-2.32-.66-.52-1.51-.78-2.57-.78-1.21,0-2.29.4-3.25,1.2-.96.8-1.59,1.79-1.89,2.97-.19.77-.29,2.18-.29,4.23v5.7h-2v-15.53Z"/>
    <path class="cls-2" d="M475.67,239.32h2v8.78c.81-1.07,1.7-1.86,2.67-2.39.97-.53,2.02-.79,3.15-.79s2.19.3,3.09.89c.9.59,1.56,1.38,1.99,2.38s.64,2.55.64,4.67v7.99h-2v-7.41c0-1.79-.07-2.98-.21-3.58-.25-1.03-.7-1.8-1.35-2.32-.65-.52-1.51-.78-2.56-.78-1.21,0-2.29.4-3.25,1.2-.96.8-1.59,1.79-1.89,2.97-.19.76-.29,2.17-.29,4.23v5.7h-2v-21.53Z"/>
    <path class="cls-2" d="M516.46,245.31v15.53h-1.97v-2.67c-.84,1.02-1.78,1.78-2.82,2.3-1.04.51-2.18.77-3.42.77-2.2,0-4.08-.8-5.63-2.39-1.56-1.59-2.33-3.53-2.33-5.82s.79-4.15,2.36-5.74,3.46-2.38,5.67-2.38c1.28,0,2.43.27,3.46.81s1.94,1.36,2.72,2.44v-2.86h1.97ZM508.47,246.84c-1.11,0-2.14.27-3.08.82-.94.55-1.69,1.31-2.25,2.3-.56.99-.83,2.03-.83,3.14s.28,2.14.84,3.14,1.31,1.77,2.26,2.33c.95.56,1.96.83,3.04.83s2.13-.28,3.11-.83c.98-.55,1.73-1.3,2.26-2.24.53-.94.79-2,.79-3.18,0-1.8-.59-3.3-1.77-4.51-1.18-1.21-2.64-1.81-4.37-1.81Z"/>
    <path class="cls-2" d="M528.44,245.31h2v2.78c.8-1.07,1.68-1.86,2.66-2.39.97-.53,2.03-.79,3.17-.79s2.19.3,3.09.89c.9.59,1.56,1.38,1.99,2.38s.64,2.56.64,4.67v7.99h-2v-7.41c0-1.79-.07-2.98-.22-3.58-.23-1.03-.68-1.8-1.33-2.32-.66-.52-1.51-.78-2.57-.78-1.21,0-2.29.4-3.25,1.2-.96.8-1.59,1.79-1.89,2.97-.19.77-.29,2.18-.29,4.23v5.7h-2v-15.53Z"/>
    <path class="cls-2" d="M568.83,248.54l-1.58.99c-1.37-1.82-3.24-2.73-5.6-2.73-1.89,0-3.46.61-4.71,1.83-1.25,1.22-1.87,2.7-1.87,4.43,0,1.13.29,2.2.86,3.19.58,1,1.36,1.77,2.37,2.32,1,.55,2.13.83,3.37.83,2.28,0,4.14-.91,5.59-2.73l1.58,1.04c-.74,1.12-1.74,1.99-2.99,2.6-1.25.62-2.68.92-4.28.92-2.46,0-4.49-.78-6.11-2.34s-2.43-3.46-2.43-5.7c0-1.5.38-2.9,1.14-4.19.76-1.29,1.8-2.3,3.12-3.02s2.8-1.08,4.44-1.08c1.03,0,2.02.16,2.98.47.96.31,1.77.72,2.43,1.23s1.23,1.15,1.7,1.93Z"/>
    <path class="cls-2" d="M593.23,255.69l1.68.89c-.55,1.08-1.19,1.96-1.91,2.63s-1.54,1.17-2.44,1.52c-.91.35-1.93.52-3.07.52-2.53,0-4.51-.83-5.94-2.49-1.43-1.66-2.14-3.54-2.14-5.63,0-1.97.6-3.73,1.81-5.27,1.53-1.96,3.59-2.94,6.16-2.94s4.76,1,6.34,3.01c1.12,1.42,1.7,3.19,1.71,5.31h-13.98c.04,1.8.61,3.28,1.73,4.44,1.12,1.15,2.49,1.73,4.13,1.73.79,0,1.56-.14,2.31-.41s1.38-.64,1.91-1.1c.52-.45,1.09-1.19,1.7-2.2ZM593.23,251.51c-.27-1.07-.65-1.92-1.16-2.56s-1.18-1.15-2.02-1.54-1.72-.59-2.64-.59c-1.52,0-2.83.49-3.93,1.47-.8.71-1.41,1.78-1.81,3.21h11.58Z"/>
    <path class="cls-2" d="M622.14,239.32v21.53h-1.97v-2.67c-.84,1.02-1.78,1.78-2.82,2.3-1.04.51-2.18.77-3.42.77-2.2,0-4.08-.8-5.63-2.39-1.56-1.59-2.33-3.53-2.33-5.82s.79-4.15,2.36-5.74,3.46-2.38,5.67-2.38c1.28,0,2.43.27,3.46.81s1.94,1.36,2.72,2.44v-8.85h1.97ZM614.15,246.84c-1.11,0-2.14.27-3.08.82-.94.55-1.69,1.31-2.25,2.3-.56.99-.83,2.03-.83,3.14s.28,2.14.84,3.14,1.31,1.77,2.26,2.33c.95.56,1.96.83,3.04.83s2.13-.28,3.11-.83c.98-.55,1.73-1.3,2.26-2.24.53-.94.79-2,.79-3.18,0-1.8-.59-3.3-1.77-4.51-1.18-1.21-2.64-1.81-4.37-1.81Z"/>
  </g>
  <g>
    <path class="cls-2" d="M115.13,278.73h1.71v6.3l6.72-6.3h2.26l-8.07,7.54,8.7,9.26h-2.24l-7.36-7.82v7.82h-1.71v-16.8Z"/>
    <path class="cls-2" d="M131.8,283.1h1.6v2.23c.64-.85,1.35-1.49,2.12-1.91s1.62-.63,2.54-.63,1.75.24,2.47.71,1.25,1.11,1.59,1.91.51,2.04.51,3.73v6.4h-1.6v-5.93c0-1.43-.06-2.39-.18-2.87-.19-.82-.54-1.44-1.07-1.86s-1.21-.62-2.06-.62c-.97,0-1.83.32-2.6.96s-1.27,1.43-1.51,2.38c-.15.62-.23,1.74-.23,3.38v4.56h-1.6v-12.43Z"/>
    <path class="cls-2" d="M155.05,282.78c1.91,0,3.5.69,4.76,2.08,1.14,1.26,1.72,2.76,1.72,4.49s-.6,3.25-1.81,4.55c-1.21,1.3-2.76,1.95-4.66,1.95s-3.46-.65-4.67-1.95c-1.21-1.3-1.81-2.82-1.81-4.55s.57-3.21,1.72-4.48c1.26-1.39,2.85-2.09,4.77-2.09ZM155.05,284.34c-1.33,0-2.47.49-3.43,1.47-.95.98-1.43,2.17-1.43,3.56,0,.9.22,1.74.65,2.51.44.78,1.02,1.38,1.77,1.8s1.56.63,2.44.63,1.7-.21,2.44-.63,1.33-1.02,1.77-1.8c.43-.78.65-1.61.65-2.51,0-1.39-.48-2.58-1.44-3.56-.96-.98-2.1-1.47-3.42-1.47Z"/>
    <path class="cls-2" d="M165.92,283.1h1.64l3.81,9.02,3.96-9.02h.29l3.99,9.02,3.88-9.02h1.66l-5.4,12.43h-.3l-3.97-8.9-3.97,8.9h-.3l-5.31-12.43Z"/>
    <path class="cls-2" d="M189.91,278.3h1.6v17.22h-1.6v-17.22Z"/>
    <path class="cls-2" d="M208.4,291.4l1.35.71c-.44.87-.95,1.57-1.53,2.1-.58.53-1.23.94-1.95,1.22-.72.28-1.54.42-2.46.42-2.03,0-3.61-.66-4.75-1.99s-1.71-2.83-1.71-4.51c0-1.58.48-2.98,1.45-4.21,1.23-1.57,2.87-2.35,4.93-2.35s3.81.8,5.08,2.41c.9,1.13,1.36,2.55,1.37,4.25h-11.18c.03,1.44.49,2.63,1.38,3.55.89.92,1.99,1.38,3.3,1.38.63,0,1.25-.11,1.85-.33s1.11-.51,1.53-.88c.42-.36.87-.95,1.36-1.76ZM208.4,288.06c-.21-.85-.52-1.53-.93-2.04-.41-.51-.95-.92-1.62-1.23-.67-.31-1.38-.47-2.12-.47-1.22,0-2.27.39-3.14,1.18-.64.57-1.12,1.43-1.45,2.57h9.26Z"/>
    <path class="cls-2" d="M228.65,278.3v17.22h-1.58v-2.14c-.67.81-1.42,1.43-2.26,1.84s-1.75.62-2.74.62c-1.76,0-3.26-.64-4.51-1.91s-1.87-2.83-1.87-4.65.63-3.32,1.88-4.59,2.77-1.91,4.53-1.91c1.02,0,1.94.22,2.77.65s1.55,1.08,2.18,1.95v-7.08h1.58ZM222.26,284.32c-.89,0-1.71.22-2.46.66-.75.44-1.35,1.05-1.8,1.84s-.67,1.63-.67,2.51.22,1.71.67,2.51,1.05,1.42,1.81,1.87c.76.44,1.57.67,2.44.67s1.7-.22,2.49-.66c.78-.44,1.39-1.04,1.81-1.79.42-.75.63-1.6.63-2.54,0-1.44-.47-2.64-1.42-3.61-.95-.97-2.11-1.45-3.5-1.45Z"/>
    <path class="cls-2" d="M246.1,283.1h1.6v9.9c0,1.74-.15,3.02-.46,3.83-.42,1.14-1.15,2.02-2.18,2.64s-2.28.93-3.73.93c-1.07,0-2.02-.15-2.87-.45-.85-.3-1.54-.71-2.07-1.21-.53-.51-1.02-1.25-1.47-2.23h1.74c.47.82,1.08,1.43,1.83,1.83s1.67.59,2.78.59,2.01-.2,2.76-.61c.75-.41,1.29-.92,1.61-1.53.32-.61.48-1.61.48-2.98v-.64c-.6.76-1.34,1.35-2.21,1.75-.87.41-1.79.61-2.77.61-1.14,0-2.22-.28-3.22-.85s-1.78-1.33-2.33-2.29c-.55-.96-.82-2.01-.82-3.16s.29-2.22.86-3.21,1.36-1.78,2.37-2.36,2.08-.87,3.2-.87c.93,0,1.8.19,2.6.58.8.38,1.58,1.02,2.33,1.9v-2.16ZM241.38,284.32c-.91,0-1.75.22-2.52.66s-1.39,1.04-1.83,1.82-.66,1.61-.66,2.51c0,1.36.46,2.49,1.37,3.38s2.1,1.34,3.55,1.34,2.65-.44,3.55-1.32,1.34-2.04,1.34-3.48c0-.94-.21-1.77-.62-2.51s-.99-1.32-1.75-1.74-1.56-.64-2.43-.64Z"/>
    <path class="cls-2" d="M264.69,291.4l1.35.71c-.44.87-.95,1.57-1.53,2.1-.58.53-1.23.94-1.95,1.22-.72.28-1.54.42-2.46.42-2.03,0-3.61-.66-4.75-1.99s-1.71-2.83-1.71-4.51c0-1.58.48-2.98,1.45-4.21,1.23-1.57,2.87-2.35,4.93-2.35s3.81.8,5.08,2.41c.9,1.13,1.36,2.55,1.37,4.25h-11.18c.03,1.44.49,2.63,1.38,3.55.89.92,1.99,1.38,3.3,1.38.63,0,1.25-.11,1.85-.33s1.11-.51,1.53-.88c.42-.36.87-.95,1.36-1.76ZM264.69,288.06c-.21-.85-.52-1.53-.93-2.04-.41-.51-.95-.92-1.62-1.23-.67-.31-1.38-.47-2.12-.47-1.22,0-2.27.39-3.14,1.18-.64.57-1.12,1.43-1.45,2.57h9.26Z"/>
    <path class="cls-2" d="M281.63,295.53l2.4-16.8h.27l6.83,13.78,6.76-13.78h.27l2.42,16.8h-1.65l-1.66-12.01-5.94,12.01h-.43l-6.01-12.11-1.65,12.11h-1.62Z"/>
    <path class="cls-2" d="M319.11,283.1v12.43h-1.58v-2.14c-.67.81-1.42,1.43-2.26,1.84s-1.75.62-2.74.62c-1.76,0-3.26-.64-4.51-1.91s-1.87-2.83-1.87-4.65.63-3.32,1.88-4.59,2.77-1.91,4.53-1.91c1.02,0,1.94.22,2.77.65s1.55,1.08,2.18,1.95v-2.28h1.58ZM312.72,284.32c-.89,0-1.71.22-2.46.66-.75.44-1.35,1.05-1.8,1.84s-.67,1.63-.67,2.51.22,1.71.67,2.51,1.05,1.42,1.81,1.87c.76.44,1.57.67,2.44.67s1.7-.22,2.49-.66c.78-.44,1.39-1.04,1.81-1.79.42-.75.63-1.6.63-2.54,0-1.44-.47-2.64-1.42-3.61-.95-.97-2.11-1.45-3.5-1.45Z"/>
    <path class="cls-2" d="M325.82,283.1h1.6v2.23c.64-.85,1.35-1.49,2.12-1.91s1.62-.63,2.54-.63,1.75.24,2.47.71,1.25,1.11,1.59,1.91.51,2.04.51,3.73v6.4h-1.6v-5.93c0-1.43-.06-2.39-.18-2.87-.19-.82-.54-1.44-1.07-1.86s-1.21-.62-2.06-.62c-.97,0-1.83.32-2.6.96s-1.27,1.43-1.51,2.38c-.15.62-.23,1.74-.23,3.38v4.56h-1.6v-12.43Z"/>
    <path class="cls-2" d="M355.58,283.1v12.43h-1.58v-2.14c-.67.81-1.42,1.43-2.26,1.84s-1.75.62-2.74.62c-1.76,0-3.26-.64-4.51-1.91s-1.87-2.83-1.87-4.65.63-3.32,1.88-4.59,2.77-1.91,4.53-1.91c1.02,0,1.94.22,2.77.65s1.55,1.08,2.18,1.95v-2.28h1.58ZM349.19,284.32c-.89,0-1.71.22-2.46.66-.75.44-1.35,1.05-1.8,1.84s-.67,1.63-.67,2.51.22,1.71.67,2.51,1.05,1.42,1.81,1.87c.76.44,1.57.67,2.44.67s1.7-.22,2.49-.66c.78-.44,1.39-1.04,1.81-1.79.42-.75.63-1.6.63-2.54,0-1.44-.47-2.64-1.42-3.61-.95-.97-2.11-1.45-3.5-1.45Z"/>
    <path class="cls-2" d="M373,283.1h1.6v9.9c0,1.74-.15,3.02-.46,3.83-.42,1.14-1.15,2.02-2.18,2.64s-2.28.93-3.73.93c-1.07,0-2.02-.15-2.87-.45-.85-.3-1.54-.71-2.07-1.21-.53-.51-1.02-1.25-1.47-2.23h1.74c.47.82,1.08,1.43,1.83,1.83s1.67.59,2.78.59,2.01-.2,2.76-.61c.75-.41,1.29-.92,1.61-1.53.32-.61.48-1.61.48-2.98v-.64c-.6.76-1.34,1.35-2.21,1.75-.87.41-1.79.61-2.77.61-1.14,0-2.22-.28-3.22-.85s-1.78-1.33-2.33-2.29c-.55-.96-.82-2.01-.82-3.16s.29-2.22.86-3.21,1.36-1.78,2.37-2.36,2.08-.87,3.2-.87c.93,0,1.8.19,2.6.58.8.38,1.58,1.02,2.33,1.9v-2.16ZM368.28,284.32c-.91,0-1.75.22-2.52.66s-1.39,1.04-1.83,1.82-.66,1.61-.66,2.51c0,1.36.46,2.49,1.37,3.38s2.1,1.34,3.55,1.34,2.65-.44,3.55-1.32,1.34-2.04,1.34-3.48c0-.94-.21-1.77-.62-2.51s-.99-1.32-1.75-1.74-1.56-.64-2.43-.64Z"/>
    <path class="cls-2" d="M391.59,291.4l1.35.71c-.44.87-.95,1.57-1.53,2.1-.58.53-1.23.94-1.95,1.22-.72.28-1.54.42-2.46.42-2.03,0-3.61-.66-4.75-1.99s-1.71-2.83-1.71-4.51c0-1.58.48-2.98,1.45-4.21,1.23-1.57,2.87-2.35,4.93-2.35s3.81.8,5.08,2.41c.9,1.13,1.36,2.55,1.37,4.25h-11.18c.03,1.44.49,2.63,1.38,3.55.89.92,1.99,1.38,3.3,1.38.63,0,1.25-.11,1.85-.33s1.11-.51,1.53-.88c.42-.36.87-.95,1.36-1.76ZM391.59,288.06c-.21-.85-.52-1.53-.93-2.04-.41-.51-.95-.92-1.62-1.23-.67-.31-1.38-.47-2.12-.47-1.22,0-2.27.39-3.14,1.18-.64.57-1.12,1.43-1.45,2.57h9.26Z"/>
    <path class="cls-2" d="M399.43,283.1h1.6v2.15c.56-.79,1.13-1.37,1.71-1.74.81-.49,1.66-.73,2.55-.73.6,0,1.17.12,1.71.35s.98.55,1.33.94c.34.39.64.95.89,1.68.53-.97,1.2-1.71,1.99-2.22s1.66-.76,2.57-.76c.86,0,1.62.22,2.27.65.66.43,1.14,1.04,1.46,1.82s.48,1.94.48,3.49v6.78h-1.63v-6.78c0-1.33-.1-2.25-.28-2.75s-.51-.9-.97-1.2c-.46-.3-1.01-.46-1.64-.46-.77,0-1.48.23-2.12.69-.64.46-1.11,1.07-1.41,1.83s-.44,2.03-.44,3.81v4.87h-1.6v-6.36c0-1.5-.09-2.52-.28-3.05s-.51-.97-.98-1.29-1.02-.49-1.66-.49c-.74,0-1.43.22-2.07.67s-1.12,1.04-1.43,1.8-.46,1.91-.46,3.46v5.26h-1.6v-12.43Z"/>
    <path class="cls-2" d="M434.96,291.4l1.35.71c-.44.87-.95,1.57-1.53,2.1-.58.53-1.23.94-1.95,1.22-.72.28-1.54.42-2.46.42-2.03,0-3.61-.66-4.75-1.99s-1.71-2.83-1.71-4.51c0-1.58.48-2.98,1.45-4.21,1.23-1.57,2.87-2.35,4.93-2.35s3.81.8,5.08,2.41c.9,1.13,1.36,2.55,1.37,4.25h-11.18c.03,1.44.49,2.63,1.38,3.55.89.92,1.99,1.38,3.3,1.38.63,0,1.25-.11,1.85-.33s1.11-.51,1.53-.88c.42-.36.87-.95,1.36-1.76ZM434.96,288.06c-.21-.85-.52-1.53-.93-2.04-.41-.51-.95-.92-1.62-1.23-.67-.31-1.38-.47-2.12-.47-1.22,0-2.27.39-3.14,1.18-.64.57-1.12,1.43-1.45,2.57h9.26Z"/>
    <path class="cls-2" d="M442.81,283.1h1.6v2.23c.64-.85,1.35-1.49,2.12-1.91s1.62-.63,2.54-.63,1.75.24,2.47.71,1.25,1.11,1.59,1.91.51,2.04.51,3.73v6.4h-1.6v-5.93c0-1.43-.06-2.39-.18-2.87-.19-.82-.54-1.44-1.07-1.86s-1.21-.62-2.06-.62c-.97,0-1.83.32-2.6.96s-1.27,1.43-1.51,2.38c-.15.62-.23,1.74-.23,3.38v4.56h-1.6v-12.43Z"/>
    <path class="cls-2" d="M461.57,278.49h1.6v4.61h2.54v1.38h-2.54v11.04h-1.6v-11.04h-2.18v-1.38h2.18v-4.61Z"/>
    <path class="cls-2" d="M481.36,277.98c.36,0,.67.13.93.39.26.26.39.57.39.94s-.13.67-.39.93c-.26.26-.57.39-.93.39s-.66-.13-.92-.39-.39-.57-.39-.93.13-.68.39-.94.57-.39.92-.39ZM480.56,283.1h1.6v12.43h-1.6v-12.43Z"/>
    <path class="cls-2" d="M488.6,283.1h1.6v2.23c.64-.85,1.35-1.49,2.12-1.91s1.62-.63,2.54-.63,1.75.24,2.47.71,1.25,1.11,1.59,1.91.51,2.04.51,3.73v6.4h-1.6v-5.93c0-1.43-.06-2.39-.18-2.87-.19-.82-.54-1.44-1.07-1.86s-1.21-.62-2.06-.62c-.97,0-1.83.32-2.6.96s-1.27,1.43-1.51,2.38c-.15.62-.23,1.74-.23,3.38v4.56h-1.6v-12.43Z"/>
    <path class="cls-2" d="M515.87,278.73h3.31c1.33,0,2.36.16,3.07.47s1.28.8,1.7,1.46.62,1.38.62,2.18c0,.75-.18,1.43-.55,2.04s-.9,1.11-1.6,1.49c.87.3,1.54.65,2.02,1.04.47.4.84.88,1.1,1.45s.39,1.18.39,1.84c0,1.35-.49,2.49-1.48,3.42s-2.31,1.4-3.97,1.4h-4.61v-16.8ZM517.51,280.37v5.38h.96c1.17,0,2.03-.11,2.58-.33s.98-.56,1.3-1.03.48-.99.48-1.56c0-.77-.27-1.37-.81-1.81s-1.39-.66-2.57-.66h-1.95ZM517.51,287.44v6.44h2.08c1.23,0,2.13-.12,2.7-.36s1.03-.61,1.38-1.12.52-1.06.52-1.66c0-.75-.24-1.4-.73-1.95s-1.16-.94-2.01-1.14c-.57-.14-1.57-.21-2.99-.21h-.95Z"/>
    <path class="cls-2" d="M531.89,283.1h1.6v5.8c0,1.42.08,2.39.23,2.92.23.76.67,1.36,1.31,1.8s1.41.66,2.31.66,1.65-.22,2.27-.65c.62-.43,1.05-1,1.29-1.7.16-.48.24-1.5.24-3.05v-5.8h1.63v6.1c0,1.71-.2,3-.6,3.87s-1,1.55-1.8,2.04-1.81.74-3.02.74-2.22-.25-3.03-.74-1.42-1.18-1.82-2.06-.6-2.2-.6-3.97v-5.98Z"/>
    <path class="cls-2" d="M555.68,284.46l-1.03,1.06c-.85-.83-1.69-1.24-2.51-1.24-.52,0-.96.17-1.33.51-.37.34-.56.74-.56,1.2,0,.4.15.79.46,1.15.31.37.95.81,1.92,1.31,1.19.62,2,1.21,2.43,1.78.42.58.63,1.23.63,1.95,0,1.02-.36,1.88-1.08,2.59s-1.61,1.06-2.69,1.06c-.72,0-1.4-.16-2.05-.47s-1.19-.74-1.62-1.29l1.01-1.14c.82.92,1.68,1.38,2.6,1.38.64,0,1.19-.21,1.64-.62s.68-.89.68-1.45c0-.46-.15-.86-.45-1.22-.3-.35-.97-.79-2.01-1.32-1.12-.58-1.89-1.15-2.29-1.71s-.61-1.21-.61-1.93c0-.94.32-1.73.97-2.35.64-.62,1.46-.94,2.44-.94,1.14,0,2.3.56,3.45,1.68Z"/>
    <path class="cls-2" d="M562.17,277.98c.36,0,.67.13.93.39.26.26.39.57.39.94s-.13.67-.39.93c-.26.26-.57.39-.93.39s-.66-.13-.92-.39-.39-.57-.39-.93.13-.68.39-.94.57-.39.92-.39ZM561.38,283.1h1.6v12.43h-1.6v-12.43Z"/>
    <path class="cls-2" d="M569.41,283.1h1.6v2.23c.64-.85,1.35-1.49,2.12-1.91s1.62-.63,2.54-.63,1.75.24,2.47.71,1.25,1.11,1.59,1.91.51,2.04.51,3.73v6.4h-1.6v-5.93c0-1.43-.06-2.39-.18-2.87-.19-.82-.54-1.44-1.07-1.86s-1.21-.62-2.06-.62c-.97,0-1.83.32-2.6.96s-1.27,1.43-1.51,2.38c-.15.62-.23,1.74-.23,3.38v4.56h-1.6v-12.43Z"/>
    <path class="cls-2" d="M597.25,291.4l1.35.71c-.44.87-.95,1.57-1.53,2.1-.58.53-1.23.94-1.95,1.22-.72.28-1.54.42-2.46.42-2.03,0-3.61-.66-4.75-1.99s-1.71-2.83-1.71-4.51c0-1.58.48-2.98,1.45-4.21,1.23-1.57,2.87-2.35,4.93-2.35s3.81.8,5.08,2.41c.9,1.13,1.36,2.55,1.37,4.25h-11.18c.03,1.44.49,2.63,1.38,3.55.89.92,1.99,1.38,3.3,1.38.63,0,1.25-.11,1.85-.33s1.11-.51,1.53-.88c.42-.36.87-.95,1.36-1.76ZM597.25,288.06c-.21-.85-.52-1.53-.93-2.04-.41-.51-.95-.92-1.62-1.23-.67-.31-1.38-.47-2.12-.47-1.22,0-2.27.39-3.14,1.18-.64.57-1.12,1.43-1.45,2.57h9.26Z"/>
    <path class="cls-2" d="M611.34,284.46l-1.03,1.06c-.85-.83-1.69-1.24-2.51-1.24-.52,0-.96.17-1.33.51-.37.34-.56.74-.56,1.2,0,.4.15.79.46,1.15.31.37.95.81,1.92,1.31,1.19.62,2,1.21,2.43,1.78.42.58.63,1.23.63,1.95,0,1.02-.36,1.88-1.08,2.59s-1.61,1.06-2.69,1.06c-.72,0-1.4-.16-2.05-.47s-1.19-.74-1.62-1.29l1.01-1.14c.82.92,1.68,1.38,2.6,1.38.64,0,1.19-.21,1.64-.62s.68-.89.68-1.45c0-.46-.15-.86-.45-1.22-.3-.35-.97-.79-2.01-1.32-1.12-.58-1.89-1.15-2.29-1.71s-.61-1.21-.61-1.93c0-.94.32-1.73.97-2.35.64-.62,1.46-.94,2.44-.94,1.14,0,2.3.56,3.45,1.68Z"/>
    <path class="cls-2" d="M623.53,284.46l-1.03,1.06c-.85-.83-1.69-1.24-2.51-1.24-.52,0-.96.17-1.33.51-.37.34-.56.74-.56,1.2,0,.4.15.79.46,1.15.31.37.95.81,1.92,1.31,1.19.62,2,1.21,2.43,1.78.42.58.63,1.23.63,1.95,0,1.02-.36,1.88-1.08,2.59s-1.61,1.06-2.69,1.06c-.72,0-1.4-.16-2.05-.47s-1.19-.74-1.62-1.29l1.01-1.14c.82.92,1.68,1.38,2.6,1.38.64,0,1.19-.21,1.64-.62s.68-.89.68-1.45c0-.46-.15-.86-.45-1.22-.3-.35-.97-.79-2.01-1.32-1.12-.58-1.89-1.15-2.29-1.71s-.61-1.21-.61-1.93c0-.94.32-1.73.97-2.35.64-.62,1.46-.94,2.44-.94,1.14,0,2.3.56,3.45,1.68Z"/>
  </g>
</svg>