<?xml version="1.0" encoding="UTF-8"?>
<svg id="Layer_1" data-name="Layer 1" xmlns="http://www.w3.org/2000/svg" xmlns:xlink="http://www.w3.org/1999/xlink" viewBox="0 0 1376.06 702.36">
  <defs>
    <style>
      .cls-1 {
        fill: url(#linear-gradient);
      }

      .cls-1, .cls-2, .cls-3, .cls-4 {
        stroke-width: 0px;
      }

      .cls-2 {
        fill: #000;
      }

      .cls-3 {
        fill: #666;
      }

      .cls-4 {
        fill: #333;
      }
    </style>
    <linearGradient id="linear-gradient" x1="588.9" y1="-3.99" x2="584.97" y2="584.11" gradientUnits="userSpaceOnUse">
      <stop offset="0" stop-color="#0079c2"/>
      <stop offset=".14" stop-color="#0277c0"/>
      <stop offset=".23" stop-color="#0b71bd"/>
      <stop offset=".31" stop-color="#1a68b6"/>
      <stop offset=".38" stop-color="#305bad"/>
      <stop offset=".45" stop-color="#4b49a1"/>
      <stop offset=".51" stop-color="#6d3593"/>
      <stop offset=".55" stop-color="#8a2387"/>
    </linearGradient>
  </defs>
  <g>
    <path class="cls-1" d="M344.21,217.83v70.14c0,2.96,3.58,4.45,5.68,2.35l33.9-33.9c1.3-1.3,1.3-3.39,0-4.69-4.16-4.18-12.94-13.01-18.74-18.86-2.08-2.1-.6-5.66,2.36-5.66,22.01,0,83.59,0,105.69,0,2.96,0,4.44,3.58,2.34,5.68l-28.72,28.72.09.09-101.63,101.63c-.82.34-1.93.8-2.75,1.14h0c-14.4,0-28.79,0-43.19,0-1.84,0-3.33-1.49-3.33-3.33v-146.63s0-44.97,0-44.97c0-1.84,1.49-3.33,3.33-3.33h235.19c2.96,0,4.45,3.58,2.35,5.68-13.88,13.88-27.76,27.76-41.64,41.64-.62.62-1.47.97-2.35.97h-145.25c-1.84,0-3.33,1.49-3.33,3.33ZM592.13,188.78v172.36c0,1.84,1.49,3.33,3.33,3.33h41.64c1.84,0,3.33-1.49,3.33-3.33v-130.72c0-.88-.35-1.73-.97-2.35l-39.17-39.17-2.47-2.47c-2.1-2.1-5.68-.61-5.68,2.35ZM700.89,174.16l-39.17,39.17c-.62.62-.97,1.47-.97,2.35v145.46c0,1.84,1.49,3.33,3.33,3.33h41.64c1.84,0,3.33-1.49,3.33-3.33v-187.1c0-2.96-3.58-4.45-5.68-2.35l-2.47,2.47ZM571.42,169.15c0-1.08-1.31-1.62-2.07-.85l-46.22,46.61-143.94,143.94c-2.07,2.07-.6,5.61,2.32,5.61h58.98c.88,0,1.73-.35,2.35-.97l74.6-74.6c2.1-2.1,5.68-.61,5.68,2.35v69.9c0,1.84,1.49,3.33,3.33,3.33h41.64c1.84,0,3.33-1.49,3.33-3.33v-191.99ZM639.91,202.64v-33.1c0-1.84-1.49-3.33-3.33-3.33h-33.1c-2.96,0-4.45,3.58-2.35,5.68l33.1,33.1c2.1,2.1,5.68.61,5.68-2.35ZM876.22,165.71h-58.89c-.88,0-1.73.35-2.35.97l-106.18,106.18h0s0,.02,0,.02l90.61,90.61c.62.62,1.47.97,2.35.97h58.89c2.96,0,4.45-3.58,2.35-5.68l-83.56-83.56c-1.3-1.3-1.3-3.4,0-4.7l99.14-99.14c2.1-2.1.61-5.68-2.35-5.68Z"/>
    <path class="cls-3" d="M1041.59,205.2c-14.25,0-25.8,11.55-25.8,25.8,0,3.82.84,7.45,2.33,10.71-3.25,1.31-6.88,2.44-10.84,2.97-2.82.38-5.6.44-8.62.76-5.39-11.72-17.23-19.86-30.97-19.86-4.03,0-7.9.7-11.49,1.99-2.64-8.74-7.05-20.59-11.56-28.76,4.52-3.43,7.45-8.85,7.45-14.96,0-10.38-8.41-18.79-18.79-18.79s-18.79,8.41-18.79,18.79c0,6.48,3.28,12.19,8.27,15.57-2.27,9.33-10.47,19.51-24.89,41.42-.96-.39-2.01-.61-3.12-.61-4.57,0-8.28,3.71-8.28,8.28s3.71,8.28,8.28,8.28c2.41,0,4.57-1.03,6.08-2.67,18.21,25.17,26.82,34.13,27.14,45.4.01.48.02,1.19.05,1.98-2.82,2.45-4.61,6.06-4.61,10.09,0,7.39,5.99,13.38,13.38,13.38s13.38-5.99,13.38-13.38c0-3.26-1.17-6.25-3.11-8.57,2.68-3.21,5.55-7.31,8.28-11.58,3.83,1.49,7.99,2.32,12.35,2.32,18.82,0,34.08-15.26,34.08-34.08,0-2.16-.21-4.28-.6-6.33,7.8-.51,16.47-1.45,23.64-2.74,4.51,3.86,10.37,6.2,16.77,6.2,14.25,0,25.8-11.55,25.8-25.8s-11.55-25.8-25.8-25.8ZM933.64,261.12c-4.21-.79-9.52-1.94-15.4-4.48-4.65-2-8.97-4.58-15.41-6.38.12-.56.19-1.14.19-1.74,0-.38-.04-.76-.09-1.13,16.2-2.44,27.32-4.62,35.68-5.53-3.18,5.18-5.02,11.28-5.02,17.8,0,.49.02.97.04,1.45ZM927.31,201.67c1.88.63,3.89.99,5.98.99s4.04-.35,5.9-.96c2.43,3.57,5.17,8.03,7.32,13.61,1.69,4.39,2.81,8.92,5.41,14.15-3.81,2-7.2,4.69-10,7.92-13.43,1.46-29.81,5.76-39.3,8.6-.58-1.8-1.77-3.34-3.32-4.36,8.42-9.64,22.67-27.35,28-39.95ZM942.85,299.67c-1.82-.93-3.88-1.46-6.06-1.46-1.01,0-1.98.12-2.93.33-1.49-11.25-19.37-32.28-30.34-44,8.78,4.54,22.09,10.37,30.84,12.3,2.1,9.8,8.41,18.04,16.95,22.73-2.9,4.24-5.92,7.51-8.47,10.11Z"/>
    <path class="cls-4" d="M925.96,335.8l-4.29,21.36c-.75,3.72,2.1,7.2,5.9,7.2h146.54c3.78,0,6.62-3.44,5.91-7.15l-15.82-82.17h-35.91l-5.73,27-42.45,5.73c-1.91,7.43-3.82,14.86-5.73,22.3"/>
  </g>
  <g>
    <path class="cls-2" d="M330.64,449.88l-2.5,2.36c-1.79-1.77-3.76-3.1-5.9-4.02-2.14-.91-4.22-1.37-6.25-1.37-2.52,0-4.93.62-7.21,1.86s-4.05,2.92-5.31,5.04c-1.25,2.12-1.88,4.37-1.88,6.73s.65,4.72,1.95,6.91,3.09,3.9,5.38,5.14c2.29,1.25,4.8,1.87,7.53,1.87,3.31,0,6.11-.93,8.4-2.8s3.65-4.29,4.07-7.27h-10.27v-3.11h13.88c-.03,4.98-1.51,8.93-4.43,11.85-2.93,2.93-6.84,4.39-11.74,4.39-5.95,0-10.67-2.03-14.14-6.08-2.67-3.12-4.01-6.73-4.01-10.83,0-3.05.77-5.89,2.3-8.51,1.53-2.63,3.63-4.68,6.3-6.16,2.67-1.48,5.69-2.22,9.06-2.22,2.73,0,5.3.49,7.7,1.48,2.41.99,4.76,2.57,7.05,4.74Z"/>
    <path class="cls-2" d="M369.69,468.77l2.58,1.36c-.85,1.66-1.83,3.01-2.94,4.03s-2.36,1.8-3.75,2.33c-1.39.53-2.96.8-4.71.8-3.89,0-6.92-1.27-9.11-3.82-2.19-2.54-3.29-5.42-3.29-8.63,0-3.02.93-5.71,2.78-8.08,2.35-3.01,5.5-4.51,9.44-4.51s7.3,1.54,9.73,4.62c1.72,2.17,2.6,4.89,2.63,8.14h-21.43c.06,2.77.94,5.03,2.65,6.8,1.71,1.77,3.82,2.65,6.33,2.65,1.21,0,2.39-.21,3.54-.63s2.12-.98,2.93-1.68c.8-.7,1.67-1.82,2.61-3.38ZM369.69,462.35c-.41-1.63-1-2.94-1.79-3.92s-1.82-1.77-3.1-2.36-2.64-.9-4.05-.9c-2.34,0-4.35.75-6.03,2.25-1.23,1.09-2.16,2.74-2.78,4.92h17.75Z"/>
    <path class="cls-2" d="M390.25,452.85h3.06v4.27c1.23-1.63,2.58-2.86,4.07-3.67,1.49-.81,3.11-1.21,4.86-1.21s3.36.45,4.74,1.36c1.38.9,2.4,2.12,3.05,3.66s.98,3.92.98,7.16v12.26h-3.06v-11.36c0-2.74-.11-4.57-.34-5.49-.35-1.58-1.04-2.76-2.04-3.56-1.01-.79-2.32-1.19-3.94-1.19-1.85,0-3.51.61-4.98,1.84-1.47,1.23-2.43,2.74-2.9,4.55-.29,1.18-.44,3.34-.44,6.48v8.73h-3.06v-23.81Z"/>
    <path class="cls-2" d="M449.11,468.77l2.58,1.36c-.85,1.66-1.83,3.01-2.94,4.03s-2.36,1.8-3.75,2.33c-1.39.53-2.96.8-4.71.8-3.89,0-6.92-1.27-9.11-3.82-2.19-2.54-3.29-5.42-3.29-8.63,0-3.02.93-5.71,2.78-8.08,2.35-3.01,5.5-4.51,9.44-4.51s7.3,1.54,9.73,4.62c1.72,2.17,2.6,4.89,2.63,8.14h-21.43c.06,2.77.94,5.03,2.65,6.8,1.71,1.77,3.82,2.65,6.33,2.65,1.21,0,2.39-.21,3.54-.63s2.12-.98,2.93-1.68c.8-.7,1.67-1.82,2.61-3.38ZM449.11,462.35c-.41-1.63-1-2.94-1.79-3.92s-1.82-1.77-3.1-2.36-2.64-.9-4.05-.9c-2.34,0-4.35.75-6.03,2.25-1.23,1.09-2.16,2.74-2.78,4.92h17.75Z"/>
    <path class="cls-2" d="M468.51,452.85h3.13v3.48c.93-1.37,1.92-2.4,2.95-3.07,1.04-.68,2.12-1.02,3.24-1.02.85,0,1.75.27,2.71.81l-1.6,2.58c-.64-.28-1.18-.42-1.62-.42-1.02,0-2.01.42-2.95,1.26-.95.84-1.67,2.14-2.17,3.91-.38,1.36-.57,4.1-.57,8.23v8.05h-3.13v-23.81Z"/>
    <path class="cls-2" d="M518.35,452.85v23.81h-3.02v-4.09c-1.28,1.56-2.73,2.74-4.32,3.52-1.6.79-3.35,1.18-5.24,1.18-3.37,0-6.25-1.22-8.63-3.67-2.39-2.44-3.58-5.42-3.58-8.92s1.2-6.36,3.61-8.8c2.41-2.44,5.3-3.66,8.69-3.66,1.96,0,3.72.42,5.31,1.25s2.97,2.08,4.17,3.74v-4.38h3.02ZM506.11,455.2c-1.71,0-3.28.42-4.72,1.26-1.44.84-2.59,2.02-3.44,3.53-.85,1.52-1.28,3.12-1.28,4.81s.43,3.28,1.29,4.81,2.02,2.72,3.47,3.57c1.45.85,3.01,1.28,4.67,1.28s3.27-.42,4.77-1.27c1.5-.84,2.66-1.99,3.46-3.43.81-1.44,1.21-3.07,1.21-4.88,0-2.75-.91-5.06-2.72-6.91-1.82-1.85-4.05-2.78-6.7-2.78Z"/>
    <path class="cls-2" d="M539.39,444.01h3.06v8.84h4.86v2.65h-4.86v21.16h-3.06v-21.16h-4.18v-2.65h4.18v-8.84Z"/>
    <path class="cls-2" d="M564.45,443.05c.7,0,1.29.25,1.79.74.49.5.74,1.09.74,1.79s-.25,1.28-.74,1.77c-.49.5-1.09.74-1.79.74s-1.27-.25-1.77-.74c-.49-.5-.74-1.09-.74-1.77s.25-1.3.74-1.79c.49-.5,1.08-.74,1.77-.74ZM562.93,452.85h3.06v23.81h-3.06v-23.81Z"/>
    <path class="cls-2" d="M581.58,452.85h3.26l7.99,17.36,7.9-17.36h3.28l-10.9,23.81h-.57l-10.97-23.81Z"/>
    <path class="cls-2" d="M640.2,468.77l2.58,1.36c-.85,1.66-1.83,3.01-2.94,4.03s-2.36,1.8-3.75,2.33c-1.39.53-2.96.8-4.71.8-3.89,0-6.92-1.27-9.11-3.82-2.19-2.54-3.29-5.42-3.29-8.63,0-3.02.93-5.71,2.78-8.08,2.35-3.01,5.5-4.51,9.44-4.51s7.3,1.54,9.73,4.62c1.72,2.17,2.6,4.89,2.63,8.14h-21.43c.06,2.77.94,5.03,2.65,6.8,1.71,1.77,3.82,2.65,6.33,2.65,1.21,0,2.39-.21,3.54-.63s2.12-.98,2.93-1.68c.8-.7,1.67-1.82,2.61-3.38ZM640.2,462.35c-.41-1.63-1-2.94-1.79-3.92s-1.82-1.77-3.1-2.36c-1.29-.6-2.64-.9-4.05-.9-2.34,0-4.35.75-6.03,2.25-1.23,1.09-2.16,2.74-2.78,4.92h17.75Z"/>
    <path class="cls-2" d="M698.3,444.47l15.01,32.2h-3.48l-5.06-10.59h-13.87l-5.02,10.59h-3.59l15.21-32.2h.79ZM697.9,451.31l-5.52,11.65h11.01l-5.49-11.65Z"/>
    <path class="cls-2" d="M729.32,444.47h3.22v32.2h-3.22v-32.2Z"/>
    <path class="cls-2" d="M748.9,463.23h12.04v2.67h-12.04v-2.67Z"/>
    <path class="cls-2" d="M777.77,444.47h18.45v3.15h-15.23v10.09h15.1v3.15h-15.1v12.65h15.1v3.15h-18.32v-32.2Z"/>
    <path class="cls-2" d="M812.75,452.85h3.06v4.27c1.23-1.63,2.58-2.86,4.07-3.67,1.49-.81,3.11-1.21,4.86-1.21s3.36.45,4.74,1.36c1.38.9,2.4,2.12,3.05,3.66s.98,3.92.98,7.16v12.26h-3.06v-11.36c0-2.74-.11-4.57-.34-5.49-.35-1.58-1.04-2.76-2.04-3.56-1.01-.79-2.32-1.19-3.94-1.19-1.85,0-3.51.61-4.98,1.84-1.47,1.23-2.43,2.74-2.9,4.55-.29,1.18-.44,3.34-.44,6.48v8.73h-3.06v-23.81Z"/>
    <path class="cls-2" d="M851.57,443.66h3.06v13.46c1.24-1.63,2.6-2.86,4.09-3.67,1.49-.81,3.1-1.21,4.84-1.21s3.36.45,4.74,1.36c1.38.9,2.4,2.12,3.05,3.64s.98,3.91.98,7.17v12.26h-3.06v-11.36c0-2.74-.11-4.57-.33-5.49-.38-1.58-1.07-2.76-2.07-3.56-1-.79-2.31-1.19-3.93-1.19-1.85,0-3.51.61-4.98,1.84-1.47,1.23-2.43,2.74-2.9,4.55-.29,1.17-.44,3.33-.44,6.48v8.73h-3.06v-33.01Z"/>
    <path class="cls-2" d="M914.1,452.85v23.81h-3.02v-4.09c-1.28,1.56-2.73,2.74-4.32,3.52-1.6.79-3.35,1.18-5.24,1.18-3.37,0-6.25-1.22-8.63-3.67-2.39-2.44-3.58-5.42-3.58-8.92s1.2-6.36,3.61-8.8,5.3-3.66,8.69-3.66c1.96,0,3.72.42,5.31,1.25s2.97,2.08,4.17,3.74v-4.38h3.02ZM901.86,455.2c-1.71,0-3.28.42-4.72,1.26-1.44.84-2.59,2.02-3.44,3.53-.85,1.52-1.28,3.12-1.28,4.81s.43,3.28,1.29,4.81,2.02,2.72,3.47,3.57c1.45.85,3.01,1.28,4.67,1.28s3.27-.42,4.77-1.27c1.5-.84,2.66-1.99,3.46-3.43.81-1.44,1.21-3.07,1.21-4.88,0-2.75-.91-5.06-2.72-6.91-1.82-1.85-4.05-2.78-6.7-2.78Z"/>
    <path class="cls-2" d="M932.47,452.85h3.06v4.27c1.23-1.63,2.58-2.86,4.07-3.67,1.49-.81,3.11-1.21,4.86-1.21s3.36.45,4.74,1.36c1.38.9,2.4,2.12,3.05,3.66s.98,3.92.98,7.16v12.26h-3.06v-11.36c0-2.74-.11-4.57-.34-5.49-.35-1.58-1.04-2.76-2.04-3.56-1.01-.79-2.32-1.19-3.94-1.19-1.85,0-3.51.61-4.98,1.84-1.47,1.23-2.43,2.74-2.9,4.55-.29,1.18-.44,3.34-.44,6.48v8.73h-3.06v-23.81Z"/>
    <path class="cls-2" d="M994.4,457.8l-2.43,1.51c-2.1-2.79-4.96-4.18-8.59-4.18-2.9,0-5.31.93-7.23,2.8-1.92,1.86-2.87,4.13-2.87,6.8,0,1.73.44,3.37,1.32,4.9.88,1.53,2.09,2.72,3.63,3.56,1.54.84,3.26,1.27,5.17,1.27,3.5,0,6.35-1.39,8.57-4.18l2.43,1.6c-1.14,1.71-2.67,3.04-4.58,3.99-1.92.94-4.1,1.42-6.56,1.42-3.76,0-6.89-1.2-9.37-3.59s-3.72-5.3-3.72-8.73c0-2.31.58-4.45,1.74-6.42,1.16-1.98,2.75-3.52,4.78-4.63s4.3-1.66,6.81-1.66c1.58,0,3.1.24,4.56.72,1.46.48,2.71,1.11,3.73,1.88s1.89,1.76,2.6,2.95Z"/>
    <path class="cls-2" d="M1031.81,468.77l2.58,1.36c-.85,1.66-1.83,3.01-2.94,4.03s-2.36,1.8-3.75,2.33c-1.39.53-2.96.8-4.71.8-3.89,0-6.92-1.27-9.11-3.82-2.19-2.54-3.29-5.42-3.29-8.63,0-3.02.93-5.71,2.78-8.08,2.35-3.01,5.5-4.51,9.44-4.51s7.3,1.54,9.73,4.62c1.72,2.17,2.6,4.89,2.63,8.14h-21.43c.06,2.77.94,5.03,2.65,6.8,1.71,1.77,3.82,2.65,6.33,2.65,1.21,0,2.39-.21,3.54-.63s2.12-.98,2.93-1.68c.8-.7,1.67-1.82,2.61-3.38ZM1031.81,462.35c-.41-1.63-1-2.94-1.79-3.92s-1.82-1.77-3.1-2.36c-1.29-.6-2.64-.9-4.05-.9-2.34,0-4.35.75-6.03,2.25-1.23,1.09-2.16,2.74-2.78,4.92h17.75Z"/>
    <path class="cls-2" d="M1076.14,443.66v33.01h-3.02v-4.09c-1.28,1.56-2.73,2.74-4.32,3.52-1.6.79-3.35,1.18-5.24,1.18-3.37,0-6.25-1.22-8.63-3.67-2.39-2.44-3.58-5.42-3.58-8.92s1.2-6.36,3.61-8.8,5.3-3.66,8.69-3.66c1.96,0,3.72.42,5.31,1.25,1.58.83,2.97,2.08,4.17,3.74v-13.57h3.02ZM1063.89,455.2c-1.71,0-3.28.42-4.72,1.26-1.44.84-2.59,2.02-3.44,3.53-.85,1.52-1.28,3.12-1.28,4.81s.43,3.28,1.29,4.81,2.02,2.72,3.47,3.57c1.45.85,3.01,1.28,4.67,1.28s3.27-.42,4.77-1.27c1.5-.84,2.66-1.99,3.46-3.43.81-1.44,1.21-3.07,1.21-4.88,0-2.75-.91-5.06-2.72-6.91-1.82-1.85-4.05-2.78-6.7-2.78Z"/>
  </g>
  <g>
    <path class="cls-2" d="M298.8,504.08h2.63v9.67l10.3-9.67h3.46l-12.37,11.56,13.33,14.2h-3.43l-11.29-12v12h-2.63v-25.76Z"/>
    <path class="cls-2" d="M324.35,510.78h2.45v3.41c.98-1.31,2.07-2.29,3.26-2.93s2.49-.97,3.89-.97,2.69.36,3.79,1.09,1.92,1.7,2.44,2.92.79,3.13.79,5.73v9.81h-2.45v-9.09c0-2.19-.09-3.66-.27-4.39-.28-1.26-.83-2.21-1.63-2.85s-1.86-.95-3.15-.95c-1.48,0-2.81.49-3.98,1.47s-1.95,2.19-2.32,3.64c-.23.95-.35,2.67-.35,5.18v6.99h-2.45v-19.05Z"/>
    <path class="cls-2" d="M360.01,510.29c2.94,0,5.37,1.06,7.3,3.19,1.75,1.94,2.63,4.23,2.63,6.88s-.93,4.99-2.78,6.98c-1.85,1.99-4.24,2.99-7.15,2.99s-5.31-1-7.17-2.99c-1.85-1.99-2.78-4.32-2.78-6.98s.88-4.93,2.63-6.86c1.93-2.14,4.37-3.2,7.31-3.2ZM360,512.69c-2.04,0-3.79.75-5.25,2.26-1.46,1.51-2.2,3.33-2.2,5.46,0,1.38.33,2.66,1,3.85.67,1.19,1.57,2.11,2.71,2.76s2.38.97,3.74.97,2.61-.32,3.74-.97,2.04-1.57,2.71-2.76c.67-1.19,1-2.47,1-3.85,0-2.14-.74-3.96-2.2-5.46-1.47-1.51-3.22-2.26-5.25-2.26Z"/>
    <path class="cls-2" d="M376.67,510.78h2.52l5.84,13.83,6.08-13.83h.44l6.12,13.83,5.95-13.83h2.55l-8.28,19.05h-.45l-6.09-13.64-6.09,13.64h-.46l-8.14-19.05Z"/>
    <path class="cls-2" d="M413.44,503.43h2.45v26.4h-2.45v-26.4Z"/>
    <path class="cls-2" d="M441.8,523.51l2.07,1.09c-.68,1.33-1.46,2.4-2.35,3.22-.89.82-1.89,1.44-3,1.86-1.11.43-2.37.64-3.77.64-3.11,0-5.54-1.02-7.29-3.06s-2.63-4.34-2.63-6.91c0-2.42.74-4.57,2.23-6.46,1.88-2.4,4.4-3.61,7.55-3.61s5.84,1.23,7.78,3.69c1.38,1.74,2.08,3.91,2.1,6.51h-17.14c.05,2.21.75,4.03,2.12,5.44,1.37,1.42,3.06,2.12,5.07,2.12.97,0,1.91-.17,2.83-.51s1.7-.79,2.34-1.34c.64-.56,1.34-1.46,2.09-2.7ZM441.8,518.38c-.33-1.31-.8-2.35-1.43-3.13-.63-.78-1.45-1.41-2.48-1.89-1.03-.48-2.11-.72-3.24-.72-1.87,0-3.48.6-4.82,1.8-.98.88-1.72,2.19-2.23,3.94h14.2Z"/>
    <path class="cls-2" d="M472.85,503.43v26.4h-2.42v-3.27c-1.03,1.25-2.18,2.19-3.46,2.82s-2.68.95-4.19.95c-2.7,0-5-.98-6.91-2.93s-2.86-4.33-2.86-7.14.96-5.09,2.89-7.04,4.24-2.92,6.95-2.92c1.56,0,2.98.33,4.25,1s2.38,1.66,3.34,2.99v-10.86h2.42ZM463.06,512.66c-1.36,0-2.62.34-3.78,1.01-1.15.67-2.07,1.61-2.75,2.82s-1.02,2.5-1.02,3.85.34,2.62,1.03,3.85,1.61,2.18,2.77,2.86c1.16.68,2.4,1.02,3.73,1.02s2.61-.34,3.81-1.01c1.2-.68,2.12-1.59,2.77-2.75.65-1.15.97-2.45.97-3.9,0-2.2-.73-4.05-2.18-5.53-1.45-1.48-3.24-2.22-5.36-2.22Z"/>
    <path class="cls-2" d="M499.59,510.78h2.45v15.18c0,2.67-.23,4.63-.7,5.87-.64,1.75-1.76,3.1-3.34,4.04s-3.5,1.42-5.73,1.42c-1.63,0-3.1-.23-4.4-.69-1.3-.46-2.36-1.08-3.18-1.86-.82-.78-1.57-1.92-2.26-3.42h2.66c.72,1.26,1.66,2.19,2.8,2.8s2.57.91,4.26.91,3.08-.31,4.23-.93c1.15-.62,1.97-1.41,2.46-2.35.49-.94.74-2.46.74-4.56v-.98c-.92,1.17-2.05,2.06-3.38,2.69-1.33.62-2.75.94-4.24.94-1.75,0-3.4-.43-4.94-1.3s-2.73-2.04-3.57-3.51c-.84-1.47-1.26-3.09-1.26-4.85s.44-3.41,1.31-4.93,2.09-2.73,3.64-3.62,3.18-1.33,4.9-1.33c1.43,0,2.75.29,3.99.88,1.23.59,2.42,1.56,3.57,2.92v-3.31ZM492.36,512.66c-1.39,0-2.68.34-3.87,1.01s-2.12,1.6-2.8,2.78-1.02,2.47-1.02,3.84c0,2.09.7,3.82,2.1,5.18s3.22,2.05,5.45,2.05,4.07-.68,5.44-2.03,2.06-3.13,2.06-5.34c0-1.44-.32-2.72-.95-3.84s-1.52-2.02-2.68-2.67-2.4-.98-3.73-.98Z"/>
    <path class="cls-2" d="M528.11,523.51l2.07,1.09c-.68,1.33-1.46,2.4-2.35,3.22-.89.82-1.89,1.44-3,1.86-1.11.43-2.37.64-3.77.64-3.11,0-5.54-1.02-7.29-3.06s-2.63-4.34-2.63-6.91c0-2.42.74-4.57,2.23-6.46,1.88-2.4,4.4-3.61,7.55-3.61s5.84,1.23,7.78,3.69c1.38,1.74,2.08,3.91,2.1,6.51h-17.14c.05,2.21.75,4.03,2.12,5.44,1.37,1.42,3.06,2.12,5.07,2.12.97,0,1.91-.17,2.83-.51s1.7-.79,2.34-1.34c.64-.56,1.34-1.46,2.09-2.7ZM528.11,518.38c-.33-1.31-.8-2.35-1.43-3.13-.63-.78-1.45-1.41-2.48-1.89-1.03-.48-2.11-.72-3.24-.72-1.87,0-3.48.6-4.82,1.8-.98.88-1.72,2.19-2.23,3.94h14.2Z"/>
    <path class="cls-2" d="M554.07,529.83l3.69-25.76h.42l10.47,21.13,10.37-21.13h.41l3.71,25.76h-2.52l-2.54-18.42-9.11,18.42h-.66l-9.22-18.56-2.53,18.56h-2.49Z"/>
    <path class="cls-2" d="M611.54,510.78v19.05h-2.42v-3.27c-1.03,1.25-2.18,2.19-3.46,2.82s-2.68.95-4.19.95c-2.7,0-5-.98-6.91-2.93-1.91-1.96-2.86-4.33-2.86-7.14s.96-5.09,2.89-7.04c1.93-1.95,4.24-2.92,6.95-2.92,1.56,0,2.98.33,4.25,1s2.38,1.66,3.34,2.99v-3.5h2.42ZM601.75,512.66c-1.36,0-2.62.34-3.78,1.01-1.15.67-2.07,1.61-2.75,2.82s-1.02,2.5-1.02,3.85.34,2.62,1.03,3.85,1.61,2.18,2.77,2.86c1.16.68,2.4,1.02,3.73,1.02s2.61-.34,3.81-1.01c1.2-.68,2.12-1.59,2.77-2.75.65-1.15.97-2.45.97-3.9,0-2.2-.73-4.05-2.18-5.53-1.45-1.48-3.24-2.22-5.36-2.22Z"/>
    <path class="cls-2" d="M621.83,510.78h2.45v3.41c.98-1.31,2.07-2.29,3.26-2.93s2.49-.97,3.89-.97,2.69.36,3.79,1.09,1.92,1.7,2.44,2.92.79,3.13.79,5.73v9.81h-2.45v-9.09c0-2.19-.09-3.66-.27-4.39-.28-1.26-.83-2.21-1.63-2.85s-1.86-.95-3.15-.95c-1.48,0-2.81.49-3.98,1.47s-1.95,2.19-2.32,3.64c-.23.95-.35,2.67-.35,5.18v6.99h-2.45v-19.05Z"/>
    <path class="cls-2" d="M667.45,510.78v19.05h-2.42v-3.27c-1.03,1.25-2.18,2.19-3.46,2.82s-2.68.95-4.19.95c-2.7,0-5-.98-6.91-2.93-1.91-1.96-2.86-4.33-2.86-7.14s.96-5.09,2.89-7.04,4.24-2.92,6.95-2.92c1.56,0,2.98.33,4.25,1s2.38,1.66,3.34,2.99v-3.5h2.42ZM657.65,512.66c-1.36,0-2.62.34-3.78,1.01-1.15.67-2.07,1.61-2.75,2.82s-1.02,2.5-1.02,3.85.34,2.62,1.03,3.85c.69,1.22,1.61,2.18,2.77,2.86,1.16.68,2.4,1.02,3.73,1.02s2.61-.34,3.81-1.01c1.2-.68,2.12-1.59,2.77-2.75.65-1.15.97-2.45.97-3.9,0-2.2-.73-4.05-2.18-5.53-1.45-1.48-3.24-2.22-5.36-2.22Z"/>
    <path class="cls-2" d="M694.16,510.78h2.45v15.18c0,2.67-.23,4.63-.7,5.87-.64,1.75-1.76,3.1-3.34,4.04s-3.5,1.42-5.73,1.42c-1.63,0-3.1-.23-4.4-.69-1.3-.46-2.36-1.08-3.18-1.86-.82-.78-1.57-1.92-2.26-3.42h2.66c.72,1.26,1.66,2.19,2.8,2.8s2.57.91,4.26.91,3.08-.31,4.23-.93c1.15-.62,1.97-1.41,2.46-2.35.49-.94.74-2.46.74-4.56v-.98c-.92,1.17-2.05,2.06-3.38,2.69-1.33.62-2.75.94-4.24.94-1.75,0-3.4-.43-4.94-1.3-1.54-.87-2.73-2.04-3.57-3.51-.84-1.47-1.26-3.09-1.26-4.85s.44-3.41,1.31-4.93c.88-1.52,2.09-2.73,3.64-3.62s3.18-1.33,4.9-1.33c1.43,0,2.75.29,3.99.88,1.23.59,2.42,1.56,3.57,2.92v-3.31ZM686.93,512.66c-1.39,0-2.68.34-3.87,1.01s-2.12,1.6-2.8,2.78-1.02,2.47-1.02,3.84c0,2.09.7,3.82,2.1,5.18s3.22,2.05,5.45,2.05,4.07-.68,5.44-2.03,2.06-3.13,2.06-5.34c0-1.44-.32-2.72-.95-3.84s-1.52-2.02-2.68-2.67-2.4-.98-3.73-.98Z"/>
    <path class="cls-2" d="M722.67,523.51l2.07,1.09c-.68,1.33-1.46,2.4-2.35,3.22-.89.82-1.89,1.44-3,1.86-1.11.43-2.37.64-3.77.64-3.11,0-5.54-1.02-7.29-3.06s-2.63-4.34-2.63-6.91c0-2.42.74-4.57,2.23-6.46,1.88-2.4,4.4-3.61,7.55-3.61s5.84,1.23,7.78,3.69c1.38,1.74,2.08,3.91,2.1,6.51h-17.14c.05,2.21.75,4.03,2.12,5.44,1.37,1.42,3.06,2.12,5.07,2.12.97,0,1.91-.17,2.83-.51s1.7-.79,2.34-1.34c.64-.56,1.34-1.46,2.09-2.7ZM722.67,518.38c-.33-1.31-.8-2.35-1.43-3.13-.63-.78-1.45-1.41-2.48-1.89-1.03-.48-2.11-.72-3.24-.72-1.87,0-3.48.6-4.82,1.8-.98.88-1.72,2.19-2.23,3.94h14.2Z"/>
    <path class="cls-2" d="M734.69,510.78h2.45v3.29c.85-1.21,1.73-2.1,2.63-2.66,1.24-.75,2.54-1.12,3.91-1.12.92,0,1.8.18,2.63.54s1.51.84,2.03,1.44c.53.6.98,1.46,1.37,2.58.81-1.49,1.83-2.63,3.06-3.41s2.54-1.16,3.95-1.16c1.32,0,2.48.33,3.49,1,1.01.67,1.76,1.59,2.24,2.78s.73,2.98.73,5.36v10.4h-2.5v-10.4c0-2.04-.15-3.45-.44-4.21s-.79-1.38-1.49-1.85c-.7-.47-1.54-.7-2.52-.7-1.19,0-2.27.35-3.26,1.05-.98.7-1.7,1.63-2.16,2.8s-.68,3.12-.68,5.85v7.46h-2.45v-9.75c0-2.3-.14-3.86-.43-4.68s-.79-1.48-1.5-1.98-1.56-.74-2.54-.74c-1.13,0-2.19.34-3.18,1.02s-1.72,1.6-2.19,2.76-.71,2.92-.71,5.31v8.07h-2.45v-19.05Z"/>
    <path class="cls-2" d="M789.15,523.51l2.07,1.09c-.68,1.33-1.46,2.4-2.35,3.22-.89.82-1.89,1.44-3,1.86-1.11.43-2.37.64-3.77.64-3.11,0-5.54-1.02-7.29-3.06s-2.63-4.34-2.63-6.91c0-2.42.74-4.57,2.23-6.46,1.88-2.4,4.4-3.61,7.55-3.61s5.84,1.23,7.78,3.69c1.38,1.74,2.08,3.91,2.1,6.51h-17.14c.05,2.21.75,4.03,2.12,5.44,1.37,1.42,3.06,2.12,5.07,2.12.97,0,1.91-.17,2.83-.51s1.7-.79,2.34-1.34c.64-.56,1.34-1.46,2.09-2.7ZM789.15,518.38c-.33-1.31-.8-2.35-1.43-3.13-.63-.78-1.45-1.41-2.48-1.89-1.03-.48-2.11-.72-3.24-.72-1.87,0-3.48.6-4.82,1.8-.98.88-1.72,2.19-2.23,3.94h14.2Z"/>
    <path class="cls-2" d="M801.19,510.78h2.45v3.41c.98-1.31,2.07-2.29,3.26-2.93s2.49-.97,3.89-.97,2.69.36,3.79,1.09,1.92,1.7,2.44,2.92.79,3.13.79,5.73v9.81h-2.45v-9.09c0-2.19-.09-3.66-.27-4.39-.28-1.26-.83-2.21-1.63-2.85s-1.86-.95-3.15-.95c-1.48,0-2.81.49-3.98,1.47s-1.95,2.19-2.32,3.64c-.23.95-.35,2.67-.35,5.18v6.99h-2.45v-19.05Z"/>
    <path class="cls-2" d="M829.96,503.71h2.45v7.07h3.89v2.12h-3.89v16.93h-2.45v-16.93h-3.34v-2.12h3.34v-7.07Z"/>
    <path class="cls-2" d="M860.29,502.94c.56,0,1.03.2,1.43.6.39.4.59.88.59,1.44s-.2,1.02-.59,1.42c-.4.4-.87.6-1.43.6s-1.02-.2-1.41-.6-.59-.87-.59-1.42.2-1.04.59-1.44.87-.6,1.41-.6ZM859.07,510.78h2.45v19.05h-2.45v-19.05Z"/>
    <path class="cls-2" d="M871.39,510.78h2.45v3.41c.98-1.31,2.07-2.29,3.26-2.93s2.49-.97,3.89-.97,2.69.36,3.79,1.09,1.92,1.7,2.44,2.92.79,3.13.79,5.73v9.81h-2.45v-9.09c0-2.19-.09-3.66-.27-4.39-.28-1.26-.83-2.21-1.63-2.85s-1.86-.95-3.15-.95c-1.48,0-2.81.49-3.98,1.47s-1.95,2.19-2.32,3.64c-.23.95-.35,2.67-.35,5.18v6.99h-2.45v-19.05Z"/>
    <path class="cls-2" d="M913.2,504.08h5.08c2.04,0,3.61.24,4.71.73s1.96,1.23,2.6,2.23.95,2.12.95,3.34c0,1.14-.28,2.19-.84,3.13s-1.38,1.7-2.46,2.29c1.34.46,2.37.99,3.09,1.6.72.61,1.28,1.35,1.68,2.22s.6,1.81.6,2.83c0,2.07-.76,3.81-2.27,5.24s-3.54,2.14-6.08,2.14h-7.07v-25.76ZM915.72,506.6v8.25h1.47c1.79,0,3.11-.17,3.95-.5s1.51-.86,2-1.58.74-1.51.74-2.39c0-1.18-.41-2.1-1.24-2.78s-2.14-1.01-3.94-1.01h-2.98ZM915.72,517.44v9.88h3.19c1.88,0,3.26-.18,4.14-.55s1.58-.94,2.11-1.72.8-1.63.8-2.54c0-1.14-.37-2.14-1.12-2.99s-1.78-1.44-3.08-1.75c-.88-.21-2.4-.32-4.58-.32h-1.46Z"/>
    <path class="cls-2" d="M937.77,510.78h2.45v8.89c0,2.17.12,3.67.35,4.48.35,1.17,1.02,2.09,2.01,2.77s2.17,1.02,3.53,1.02,2.53-.33,3.48-.99c.95-.66,1.61-1.53,1.97-2.6.25-.74.37-2.29.37-4.68v-8.89h2.5v9.35c0,2.63-.31,4.61-.92,5.94s-1.54,2.37-2.77,3.13-2.78,1.13-4.63,1.13-3.41-.38-4.65-1.13-2.17-1.8-2.78-3.15-.92-3.38-.92-6.08v-9.18Z"/>
    <path class="cls-2" d="M974.23,512.87l-1.58,1.63c-1.31-1.27-2.59-1.91-3.84-1.91-.8,0-1.48.26-2.04.79-.57.53-.85,1.14-.85,1.84,0,.62.23,1.21.7,1.77.47.57,1.45,1.24,2.95,2.01,1.83.95,3.07,1.86,3.72,2.73.64.89.96,1.89.96,2.99,0,1.56-.55,2.89-1.65,3.97s-2.47,1.63-4.12,1.63c-1.1,0-2.15-.24-3.15-.72s-1.83-1.14-2.48-1.98l1.54-1.75c1.25,1.41,2.58,2.12,3.98,2.12.98,0,1.82-.32,2.51-.95s1.04-1.37,1.04-2.22c0-.7-.23-1.32-.68-1.87-.46-.54-1.49-1.21-3.09-2.03-1.72-.89-2.89-1.76-3.51-2.63s-.93-1.85-.93-2.96c0-1.45.49-2.65,1.48-3.61.99-.96,2.24-1.44,3.74-1.44,1.75,0,3.52.86,5.3,2.57Z"/>
    <path class="cls-2" d="M984.19,502.94c.56,0,1.03.2,1.43.6.39.4.59.88.59,1.44s-.2,1.02-.59,1.42c-.4.4-.87.6-1.43.6s-1.02-.2-1.41-.6-.59-.87-.59-1.42.2-1.04.59-1.44.87-.6,1.41-.6ZM982.98,510.78h2.45v19.05h-2.45v-19.05Z"/>
    <path class="cls-2" d="M995.29,510.78h2.45v3.41c.98-1.31,2.07-2.29,3.26-2.93s2.49-.97,3.89-.97,2.69.36,3.79,1.09,1.92,1.7,2.44,2.92.79,3.13.79,5.73v9.81h-2.45v-9.09c0-2.19-.09-3.66-.27-4.39-.28-1.26-.83-2.21-1.63-2.85s-1.86-.95-3.15-.95c-1.48,0-2.81.49-3.98,1.47s-1.95,2.19-2.32,3.64c-.23.95-.35,2.67-.35,5.18v6.99h-2.45v-19.05Z"/>
    <path class="cls-2" d="M1037.97,523.51l2.07,1.09c-.68,1.33-1.46,2.4-2.35,3.22-.89.82-1.89,1.44-3,1.86-1.11.43-2.37.64-3.77.64-3.11,0-5.54-1.02-7.29-3.06s-2.63-4.34-2.63-6.91c0-2.42.74-4.57,2.23-6.46,1.88-2.4,4.4-3.61,7.55-3.61s5.84,1.23,7.78,3.69c1.38,1.74,2.08,3.91,2.1,6.51h-17.14c.05,2.21.75,4.03,2.12,5.44,1.37,1.42,3.06,2.12,5.07,2.12.97,0,1.91-.17,2.83-.51s1.7-.79,2.34-1.34c.64-.56,1.34-1.46,2.09-2.7ZM1037.97,518.38c-.33-1.31-.8-2.35-1.43-3.13-.63-.78-1.45-1.41-2.48-1.89-1.03-.48-2.11-.72-3.24-.72-1.87,0-3.48.6-4.82,1.8-.98.88-1.72,2.19-2.23,3.94h14.2Z"/>
    <path class="cls-2" d="M1059.59,512.87l-1.58,1.63c-1.31-1.27-2.59-1.91-3.84-1.91-.8,0-1.48.26-2.04.79-.57.53-.85,1.14-.85,1.84,0,.62.23,1.21.7,1.77.47.57,1.45,1.24,2.95,2.01,1.83.95,3.07,1.86,3.72,2.73.64.89.96,1.89.96,2.99,0,1.56-.55,2.89-1.65,3.97s-2.47,1.63-4.12,1.63c-1.1,0-2.15-.24-3.15-.72s-1.83-1.14-2.48-1.98l1.54-1.75c1.25,1.41,2.58,2.12,3.98,2.12.98,0,1.82-.32,2.51-.95s1.04-1.37,1.04-2.22c0-.7-.23-1.32-.68-1.87-.46-.54-1.49-1.21-3.09-2.03-1.72-.89-2.89-1.76-3.51-2.63s-.93-1.85-.93-2.96c0-1.45.49-2.65,1.48-3.61.99-.96,2.24-1.44,3.74-1.44,1.75,0,3.52.86,5.3,2.57Z"/>
    <path class="cls-2" d="M1078.28,512.87l-1.58,1.63c-1.31-1.27-2.59-1.91-3.84-1.91-.8,0-1.48.26-2.04.79-.57.53-.85,1.14-.85,1.84,0,.62.23,1.21.7,1.77.47.57,1.45,1.24,2.95,2.01,1.83.95,3.07,1.86,3.72,2.73.64.89.96,1.89.96,2.99,0,1.56-.55,2.89-1.65,3.97s-2.47,1.63-4.12,1.63c-1.1,0-2.15-.24-3.15-.72s-1.83-1.14-2.48-1.98l1.54-1.75c1.25,1.41,2.58,2.12,3.98,2.12.98,0,1.82-.32,2.51-.95s1.04-1.37,1.04-2.22c0-.7-.23-1.32-.68-1.87-.46-.54-1.49-1.21-3.09-2.03-1.72-.89-2.89-1.76-3.51-2.63s-.93-1.85-.93-2.96c0-1.45.49-2.65,1.48-3.61.99-.96,2.24-1.44,3.74-1.44,1.75,0,3.52.86,5.3,2.57Z"/>
  </g>
</svg>