<?xml version="1.0" encoding="UTF-8" standalone="no"?>
<!-- Created with Inkscape (http://www.inkscape.org/) -->

<svg
   width="200mm"
   height="200mm"
   viewBox="0 0 200 200"
   version="1.1"
   id="svg5"
   inkscape:version="1.2.2 (b0a8486541, 2022-12-01)"
   sodipodi:docname="icon.svg"
   inkscape:export-filename="icon.png"
   inkscape:export-xdpi="96"
   inkscape:export-ydpi="96"
   xmlns:inkscape="http://www.inkscape.org/namespaces/inkscape"
   xmlns:sodipodi="http://sodipodi.sourceforge.net/DTD/sodipodi-0.dtd"
   xmlns="http://www.w3.org/2000/svg"
   xmlns:svg="http://www.w3.org/2000/svg">
  <sodipodi:namedview
     id="namedview7"
     pagecolor="#ffffff"
     bordercolor="#000000"
     borderopacity="0.25"
     inkscape:showpageshadow="2"
     inkscape:pageopacity="0.0"
     inkscape:pagecheckerboard="0"
     inkscape:deskcolor="#d1d1d1"
     inkscape:document-units="mm"
     showgrid="false"
     inkscape:zoom="0.51087175"
     inkscape:cx="-148.76532"
     inkscape:cy="472.72138"
     inkscape:window-width="1920"
     inkscape:window-height="995"
     inkscape:window-x="0"
     inkscape:window-y="0"
     inkscape:window-maximized="1"
     inkscape:current-layer="layer1" />
  <defs
     id="defs2" />
  <g
     inkscape:label="Capa 1"
     inkscape:groupmode="layer"
     id="layer1">
    <path
       id="path2420-78"
       style="fill:#00a09d;fill-opacity:1;stroke:none;stroke-width:0.20879;stroke-opacity:1"
       d="m 171.86488,142.22921 a 54.936655,54.936723 0 0 0 0,-77.692334 54.936655,54.936723 0 0 0 -58.89228,-12.276633 l 35.58444,35.584489 a 21.974662,21.974689 0 0 1 0,31.076628 21.974662,21.974689 0 0 1 -31.07657,-1e-5 L 81.906848,83.347698 78.634744,80.075585 a 16.480996,16.481017 0 0 0 -23.307817,0 16.480996,16.481017 0 0 0 -1.1e-5,23.307865 l 38.845716,38.84577 a 54.936655,54.936723 0 0 0 77.692248,-1e-5 z M 14.232883,62.289359 A 60.430321,60.430396 0 0 1 24.249943,48.999374 60.430321,60.430396 0 0 1 37.52586,38.967445 l -9.391147,-9.391157 a 16.481008,16.480876 49.471001 0 0 -23.3078253,1.1e-5 16.481008,16.480876 49.471001 0 0 3.977e-4,23.307454 z" />
    <path
       id="path2422-2-9-9"
       style="fill:#f36c37;fill-opacity:1;stroke-width:0.187846"
       d="m 195.1731,165.53667 a 16.481008,16.480876 49.471001 0 0 -3.9e-4,-23.30747 l -9.4056,-9.4056 a 60.430321,60.430396 0 0 1 -10.01706,13.28998 60.430321,60.430396 0 0 1 -13.27592,10.03193 l 9.39115,9.39116 a 16.481008,16.480876 49.471001 0 0 23.30782,0 z m -50.50042,-50.49969 a 16.480996,16.481017 0 0 0 0,-23.307868 L 105.82695,52.883346 a 54.936655,54.936723 0 0 0 -77.692237,0 54.936655,54.936723 0 0 0 0,77.692324 54.936655,54.936723 0 0 0 58.89229,12.27663 L 51.442539,107.26782 a 21.974662,21.974689 0 0 1 0,-31.076602 21.974662,21.974689 0 0 1 31.07658,-1.1e-5 l 35.573611,35.573653 3.27211,3.27212 a 16.480996,16.481017 0 0 0 23.30784,0 z" />
  </g>
</svg>
