<?xml version="1.0" encoding="UTF-8" standalone="no"?>
<svg
   xmlns:dc="http://purl.org/dc/elements/1.1/"
   xmlns:cc="http://creativecommons.org/ns#"
   xmlns:rdf="http://www.w3.org/1999/02/22-rdf-syntax-ns#"
   xmlns:svg="http://www.w3.org/2000/svg"
   xmlns="http://www.w3.org/2000/svg"
   xmlns:sodipodi="http://sodipodi.sourceforge.net/DTD/sodipodi-0.dtd"
   xmlns:inkscape="http://www.inkscape.org/namespaces/inkscape"
   viewBox="0 0 22 22"
   version="1.1"
   id="svg6"
   sodipodi:docname="cancel.svg"
   inkscape:version="1.0.2 (e86c870879, 2021-01-15)">
  <metadata
     id="metadata10">
    <rdf:RDF>
      <cc:Work
         rdf:about="">
        <dc:format>image/svg+xml</dc:format>
        <dc:type
           rdf:resource="http://purl.org/dc/dcmitype/StillImage" />
      </cc:Work>
    </rdf:RDF>
  </metadata>
  <sodipodi:namedview
     pagecolor="#ffffff"
     bordercolor="#666666"
     borderopacity="1"
     objecttolerance="10"
     gridtolerance="10"
     guidetolerance="10"
     inkscape:pageopacity="0"
     inkscape:pageshadow="2"
     inkscape:window-width="1683"
     inkscape:window-height="1047"
     id="namedview8"
     showgrid="false"
     inkscape:zoom="32.5"
     inkscape:cx="11"
     inkscape:cy="11"
     inkscape:window-x="0"
     inkscape:window-y="0"
     inkscape:window-maximized="0"
     inkscape:current-layer="svg6" />
  <defs
     id="defs3051">
    <style
       type="text/css"
       id="current-color-scheme">
      .ColorScheme-Text {
        color:#eff0f1;
      }
      </style>
  </defs>
  <path
     style="fill:currentColor;fill-opacity:1;stroke:none;stroke-width:1.25"
     d="M 11,1 C 8.4655025,1 6.16085,1.9458675 4.3984375,3.5 4.2406388,3.63915 4.0784,3.780975 3.9296875,3.9296875 L 3.5,4.3984375 C 1.9458675,6.16085 1,8.4655025 1,11 c 0,5.52285 4.47715,10 10,10 2.534497,0 4.83915,-0.945867 6.601562,-2.5 l 0.46875,-0.429688 C 18.219025,17.9216 18.36085,17.759361 18.5,17.601562 20.054133,15.83915 21,13.534497 21,11 21,5.47715 16.52285,1 11,1 m 0,1.25 c 4.832487,0 8.75,3.9175125 8.75,8.75 0,2.192075 -0.816519,4.167835 -2.148438,5.703125 L 5.296875,4.3984375 C 6.8321638,3.0665187 8.807925,2.25 11,2.25 M 4.3984375,5.296875 16.703125,17.601562 C 15.167835,18.933481 13.192075,19.75 11,19.75 6.1675125,19.75 2.25,15.832487 2.25,11 2.25,8.807925 3.0665187,6.8321638 4.3984375,5.296875"
     class="ColorScheme-Text"
     id="path4" />
</svg>
