<?xml version="1.0" encoding="UTF-8" standalone="no"?>
<svg
   viewBox="0 0 22 22"
   version="1.1"
   id="svg6"
   sodipodi:docname="dialog-cancel.svg"
   inkscape:version="1.2.2 (b0a8486541, 2022-12-01)"
   xmlns:inkscape="http://www.inkscape.org/namespaces/inkscape"
   xmlns:sodipodi="http://sodipodi.sourceforge.net/DTD/sodipodi-0.dtd"
   xmlns="http://www.w3.org/2000/svg"
   xmlns:svg="http://www.w3.org/2000/svg">
  <sodipodi:namedview
     id="namedview8"
     pagecolor="#ffffff"
     bordercolor="#000000"
     borderopacity="0.25"
     inkscape:showpageshadow="2"
     inkscape:pageopacity="0.0"
     inkscape:pagecheckerboard="0"
     inkscape:deskcolor="#d1d1d1"
     showgrid="false"
     inkscape:zoom="46.681818"
     inkscape:cx="11.471276"
     inkscape:cy="11.160662"
     inkscape:window-width="2580"
     inkscape:window-height="1255"
     inkscape:window-x="692"
     inkscape:window-y="13"
     inkscape:window-maximized="0"
     inkscape:current-layer="svg6" />
  <defs
     id="defs3051">
    <style
       type="text/css"
       id="current-color-scheme">
      .ColorScheme-Text {
        color:#eff0f1;
      }
      </style>
  </defs>
  <path
     style="fill:currentColor;fill-opacity:1;stroke:none;stroke-width:1.25"
     d="M 11,1 C 8.4655025,1 6.16085,1.9458675 4.3984375,3.5 4.2406387,3.63915 4.0784,3.780975 3.9296875,3.9296875 L 3.5,4.3984375 C 1.9458675,6.16085 1,8.4655025 1,11 c 0,5.52285 4.47715,10 10,10 2.534497,0 4.83915,-0.945867 6.601563,-2.5 l 0.46875,-0.429687 C 18.219025,17.9216 18.36085,17.759361 18.5,17.601563 20.054133,15.83915 21,13.534497 21,11 21,5.47715 16.52285,1 11,1 m 0,1.25 c 4.832487,0 8.75,3.9175125 8.75,8.75 0,2.192075 -0.816519,4.167835 -2.148437,5.703125 L 5.296875,4.3984375 C 6.8321637,3.0665187 8.807925,2.25 11,2.25 M 4.3984375,5.296875 16.703125,17.601563 C 15.167835,18.933481 13.192075,19.75 11,19.75 6.1675125,19.75 2.25,15.832487 2.25,11 2.25,8.807925 3.0665187,6.8321637 4.3984375,5.296875"
     class="ColorScheme-Text"
     id="path4" />
</svg>
