<?xml version="1.0" encoding="UTF-8" standalone="no"?>
<svg
   version="1.1"
   viewBox="0 0 22 22"
   id="svg7"
   sodipodi:docname="documentOpenRecent.svg"
   inkscape:version="1.2.2 (b0a8486541, 2022-12-01)"
   xmlns:inkscape="http://www.inkscape.org/namespaces/inkscape"
   xmlns:sodipodi="http://sodipodi.sourceforge.net/DTD/sodipodi-0.dtd"
   xmlns="http://www.w3.org/2000/svg"
   xmlns:svg="http://www.w3.org/2000/svg">
  <sodipodi:namedview
     id="namedview9"
     pagecolor="#ffffff"
     bordercolor="#000000"
     borderopacity="0.25"
     inkscape:showpageshadow="2"
     inkscape:pageopacity="0.0"
     inkscape:pagecheckerboard="0"
     inkscape:deskcolor="#d1d1d1"
     showgrid="false"
     inkscape:zoom="46.681818"
     inkscape:cx="11.942551"
     inkscape:cy="11.503408"
     inkscape:window-width="2580"
     inkscape:window-height="1357"
     inkscape:window-x="861"
     inkscape:window-y="24"
     inkscape:window-maximized="0"
     inkscape:current-layer="svg7" />
  <defs
     id="defs3">
    <style
       type="text/css"
       id="current-color-scheme">
            .ColorScheme-Text {
                color:#eff0f1;
            }
        </style>
  </defs>
  <path
     style="fill:currentColor;fill-opacity:1;stroke:none;stroke-width:1.26773"
     d="m 14.857143,11 c -2.849137,0 -5.1428573,2.230006 -5.1428573,5 0,2.769994 2.2937203,5 5.1428573,5 C 17.706279,21 20,18.769994 20,16 20,13.230006 17.706279,11 14.857143,11 m 0,1.25 c 2.136851,0 3.857143,1.672506 3.857143,3.75 0,2.077494 -1.720292,3.75 -3.857143,3.75 C 12.720292,19.75 11,18.077494 11,16 c 0,-2.077494 1.720292,-3.75 3.857143,-3.75 m -1.285714,1.25 v 3.75 h 2.571428 V 16 H 14.857143 V 13.5 H 13.571429 M 2,1 V 21 H 9.7142857 V 19.75 H 3.2857143 V 2.25 H 13.571429 v 5 h 5.142857 V 11 H 20 V 5.9902344 L 14.867187,1 14.857147,1.0122125 V 1 H 3.2857143 Z"
     class="ColorScheme-Text"
     id="path5" />
</svg>
