<?xml version="1.0" encoding="UTF-8" standalone="no"?>
<svg
   version="1.1"
   viewBox="0 0 22 22"
   id="svg8"
   sodipodi:docname="fileSaveAsRemote.svg"
   inkscape:version="1.2.2 (b0a8486541, 2022-12-01)"
   xmlns:inkscape="http://www.inkscape.org/namespaces/inkscape"
   xmlns:sodipodi="http://sodipodi.sourceforge.net/DTD/sodipodi-0.dtd"
   xmlns="http://www.w3.org/2000/svg"
   xmlns:svg="http://www.w3.org/2000/svg">
  <sodipodi:namedview
     id="namedview10"
     pagecolor="#ffffff"
     bordercolor="#000000"
     borderopacity="0.25"
     inkscape:showpageshadow="2"
     inkscape:pageopacity="0.0"
     inkscape:pagecheckerboard="0"
     inkscape:deskcolor="#d1d1d1"
     showgrid="false"
     inkscape:zoom="46.681818"
     inkscape:cx="12.028238"
     inkscape:cy="11.546251"
     inkscape:window-width="2580"
     inkscape:window-height="1321"
     inkscape:window-x="860"
     inkscape:window-y="59"
     inkscape:window-maximized="0"
     inkscape:current-layer="svg8" />
  <defs
     id="defs4">
    <style
       type="text/css"
       id="style2">.ColorScheme-Text {
        color:#eff0f1;
      }</style>
  </defs>
  <path
     class="ColorScheme-Text"
     d="M 2,1.0001509 V 15.994085 h 9.000109 v -0.93707 H 6.0000082 V 9.4348532 H 11.000109 V 8.4977845 H 5.0000061 V 15.057015 H 3.000002 V 1.9388863 H 6.0000082 V 6.6240635 H 14.000114 V 1.9388863 h 0.292971 l 2.707054,2.5365439 V 7.561049 h 1.000002 V 4.0947694 h -0.0077 l 0.0077,-0.00915 L 14.707092,1 14.699256,1.00915 V 1 H 14.000034 Z M 7.0001004,1.9389695 H 10.900567 V 5.6870781 H 7.0001004 Z M 18.000033,8.4982011 17.003901,9.4297698 h -0.0038 L 12,14.113115 l 0.0077,0.0092 -0.0039,0.940653 H 11.9999 V 16 h 2.000071 l 0.0059,-0.0092 h 0.01364 l -0.0059,-0.0092 0.98632,-0.924234 4.00001,-3.744443 -0.705086,-0.664339 -4.990291,4.672345 -0.593755,-0.554534 4.99227,-4.674178 0.591802,0.556359 0.705087,0.658847 L 20,10.37034 Z"
     color="#eff0f1"
     fill="currentColor"
     id="path6"
     style="stroke-width:0.866025" />
  <path
     style="color:#eff0f1;fill:currentColor;fill-opacity:1;stroke:none;stroke-width:1.29099"
     d="m 8.4999983,17 v 1.333333 H 1 v 1.333334 H 8.4999983 V 21 h 4.9999987 v -1.333333 h 7.499999 V 18.333333 H 13.499997 V 17 H 8.4999983 m 2.4999997,0.666667 c 0.6925,0 1.25,0.594666 1.25,1.333333 0,0.738667 -0.5575,1.333333 -1.25,1.333333 -0.6925,0 -1.2499999,-0.594666 -1.2499999,-1.333333 0,-0.738667 0.5574999,-1.333333 1.2499999,-1.333333"
     class="ColorScheme-Text"
     id="path4"
     sodipodi:nodetypes="ccccccccccccccsssc" />
</svg>
