<?xml version="1.0" encoding="UTF-8" standalone="no"?>
<svg
   viewBox="0 0 22 22"
   version="1.1"
   id="svg6"
   sodipodi:docname="open-remote.svg"
   inkscape:version="1.2.2 (b0a8486541, 2022-12-01)"
   xmlns:inkscape="http://www.inkscape.org/namespaces/inkscape"
   xmlns:sodipodi="http://sodipodi.sourceforge.net/DTD/sodipodi-0.dtd"
   xmlns="http://www.w3.org/2000/svg"
   xmlns:svg="http://www.w3.org/2000/svg">
  <sodipodi:namedview
     id="namedview8"
     pagecolor="#ffffff"
     bordercolor="#000000"
     borderopacity="0.25"
     inkscape:showpageshadow="2"
     inkscape:pageopacity="0.0"
     inkscape:pagecheckerboard="0"
     inkscape:deskcolor="#d1d1d1"
     showgrid="false"
     inkscape:zoom="46.681818"
     inkscape:cx="11.621227"
     inkscape:cy="11.332035"
     inkscape:window-width="2580"
     inkscape:window-height="1337"
     inkscape:window-x="861"
     inkscape:window-y="44"
     inkscape:window-maximized="0"
     inkscape:current-layer="svg6" />
  <defs
     id="defs3051">
    <style
       type="text/css"
       id="current-color-scheme">
      .ColorScheme-Text {
        color:#eff0f1;
      }
      </style>
  </defs>
  <path
     style="fill:currentColor;fill-opacity:1;stroke:none;stroke-width:1.25"
     d="M 1,1 V 2.25 16 H 2.2499998 V 9.75 H 5.9999991 V 9.74023 L 6.0097653,9.75 8.5097648,7.25 H 19.749998 V 16 h 1.25 V 3.5 H 12.259764 L 9.7597646,1 9.7500046,1.00976 V 1 H 2.2500035 1.0000037 M 8.5000023,17.25 V 18.5 H 1.0000037 v 1.25 H 8.5000023 V 21 H 13.500001 V 19.75 H 21 V 18.5 H 13.500001 V 17.25 H 8.5000023 m 2.4999997,0.625 c 0.6925,0 1.25,0.5575 1.25,1.25 0,0.6925 -0.5575,1.25 -1.25,1.25 -0.6925,0 -1.2499999,-0.5575 -1.2499999,-1.25 0,-0.6925 0.5574999,-1.25 1.2499999,-1.25"
     class="ColorScheme-Text"
     id="path4" />
</svg>
