<?xml version="1.0" encoding="UTF-8" standalone="no"?>
<svg
   height="22"
   width="22"
   version="1.1"
   id="svg1718"
   sodipodi:docname="preferences-eric-server.svg"
   inkscape:version="1.2.2 (b0a8486541, 2022-12-01)"
   xmlns:inkscape="http://www.inkscape.org/namespaces/inkscape"
   xmlns:sodipodi="http://sodipodi.sourceforge.net/DTD/sodipodi-0.dtd"
   xmlns:xlink="http://www.w3.org/1999/xlink"
   xmlns="http://www.w3.org/2000/svg"
   xmlns:svg="http://www.w3.org/2000/svg">
  <defs
     id="defs1722" />
  <sodipodi:namedview
     id="namedview1720"
     pagecolor="#ffffff"
     bordercolor="#000000"
     borderopacity="0.25"
     inkscape:showpageshadow="2"
     inkscape:pageopacity="0.0"
     inkscape:pagecheckerboard="0"
     inkscape:deskcolor="#d1d1d1"
     showgrid="false"
     inkscape:zoom="32.09375"
     inkscape:cx="16.623174"
     inkscape:cy="16.327167"
     inkscape:window-width="2580"
     inkscape:window-height="1381"
     inkscape:window-x="0"
     inkscape:window-y="0"
     inkscape:window-maximized="0"
     inkscape:current-layer="svg1718" />
  <linearGradient
     id="b"
     gradientTransform="matrix(0.7,0,0,0.7,-0.7,-1.1)"
     gradientUnits="userSpaceOnUse"
     x2="0"
     y1="44"
     y2="4">
    <stop
       offset="0"
       stop-color="#1d1e1e"
       id="stop1680" />
    <stop
       offset="1"
       stop-color="#44484c"
       id="stop1682" />
  </linearGradient>
  <linearGradient
     id="c"
     gradientTransform="matrix(0.7,0,0,0.7,-270.499,-350.76)"
     x2="0"
     xlink:href="#a"
     y1="507.79999"
     y2="506.79999" />
  <linearGradient
     id="a"
     gradientUnits="userSpaceOnUse"
     x2="0"
     y1="507.79999"
     y2="506.79999">
    <stop
       offset="0"
       stop-color="#3da103"
       id="stop1686" />
    <stop
       offset="1"
       stop-color="#7ddf07"
       id="stop1688" />
  </linearGradient>
  <linearGradient
     id="d"
     gradientTransform="matrix(0.7,0,0,0.7,-270.499,-339.76)"
     x2="0"
     xlink:href="#a"
     y1="507.79999"
     y2="506.79999" />
  <linearGradient
     id="e"
     gradientTransform="matrix(0.7,0,0,0.7,-270.499,-328.76)"
     x2="0"
     xlink:href="#a"
     y1="507.79999"
     y2="506.79999" />
  <linearGradient
     id="f"
     gradientUnits="userSpaceOnUse"
     x1="5"
     x2="18"
     y1="12"
     y2="25">
    <stop
       offset="0"
       stop-color="#292c2f"
       id="stop1693"
       style="stop-color:#c0c0c0;stop-opacity:1;" />
    <stop
       offset="1"
       stop-opacity="0"
       id="stop1695" />
  </linearGradient>
  <g
     id="g2294"
     transform="matrix(0.72413793,0,0,0.71428571,-1.1724138,-0.42857143)">
    <path
       d="M 3,7 H 29 V 24 H 3 Z"
       fill="#111213"
       id="path1698" />
    <path
       d="M 3,2 V 30 H 29 V 2 Z m 1,6 h 24 v 4 H 4 Z m 0,11 h 24 v 4 H 4 Z"
       fill="url(#b)"
       id="path1700"
       style="fill:#ececec;stroke-width:0.7" />
    <path
       d="M 5,4 H 7 V 5 H 5 Z"
       fill="url(#c)"
       id="path1702"
       style="fill:url(#c);stroke-width:0.7" />
    <path
       d="m 5,15 h 2 v 1 H 5 Z"
       fill="url(#d)"
       id="path1704"
       style="fill:url(#d);stroke-width:0.7" />
    <path
       d="m 5,26 h 2 v 1 H 5 Z"
       fill="url(#e)"
       id="path1706"
       style="fill:url(#e);stroke-width:0.7" />
    <path
       d="m 3,29 h 26 v 1 H 3 Z"
       opacity="0.2"
       id="path1710" />
    <path
       d="m 4,12 7,7 h 17 v 4 H 15 l 7,7 h 7 V 13 l -1,-1 z"
       fill="url(#f)"
       fill-rule="evenodd"
       opacity="0.4"
       id="path1712"
       style="fill:url(#f)" />
    <rect
       fill="#eff0f1"
       height="16"
       rx="2"
       width="16"
       x="16"
       y="14"
       id="rect1714" />
    <path
       d="m 19,16 v 2 h -1 v 2 h 1 v 4 h -1 v 2 h 1 v 2 H 30 V 16 Z m 1,1 h 1 v 10 h -1 z m 2,0 h 7 v 10 h -7 z"
       fill="#232629"
       id="path1716" />
  </g>
</svg>
