<?xml version="1.0" encoding="UTF-8" standalone="no"?>
<svg
   version="1.1"
   viewBox="0 0 22 22"
   id="svg10"
   sodipodi:docname="projectOpen-remote.svg"
   inkscape:version="1.2.2 (b0a8486541, 2022-12-01)"
   xmlns:inkscape="http://www.inkscape.org/namespaces/inkscape"
   xmlns:sodipodi="http://sodipodi.sourceforge.net/DTD/sodipodi-0.dtd"
   xmlns="http://www.w3.org/2000/svg"
   xmlns:svg="http://www.w3.org/2000/svg">
  <sodipodi:namedview
     id="namedview12"
     pagecolor="#ffffff"
     bordercolor="#000000"
     borderopacity="0.25"
     inkscape:showpageshadow="2"
     inkscape:pageopacity="0.0"
     inkscape:pagecheckerboard="0"
     inkscape:deskcolor="#d1d1d1"
     showgrid="false"
     inkscape:zoom="46.681818"
     inkscape:cx="12.028238"
     inkscape:cy="11.546251"
     inkscape:window-width="2580"
     inkscape:window-height="1285"
     inkscape:window-x="861"
     inkscape:window-y="96"
     inkscape:window-maximized="0"
     inkscape:current-layer="svg10" />
  <defs
     id="defs4">
    <style
       type="text/css"
       id="style2">.ColorScheme-Text {
        color:#eff0f1;
      }</style>
  </defs>
  <g
     id="g4755"
     transform="matrix(0.75,0,0,0.75,2.75,0.25)">
    <path
       d="M 3.5,1 V 3.5 H 1 v 3.75 h 2.5 v 7.5 H 1 V 18.5 H 3.5 V 21 H 11 V 19.75 H 4.75 V 6 h 15 v 5 H 21 V 1 Z m 1.25,1.25 h 15 v 2.5 h -15 z"
       color="#eff0f1"
       fill="currentColor"
       id="path6" />
    <path
       class="ColorScheme-Text"
       d="m 12,12 v 9 h 9 V 13.5 H 17.2559 L 15.7559,12 15.75,12.0059 V 12 h -3 z m 0.75,0.75 h 2.6938 l 0.75146,0.75 h -0.44531 v 0.0059 l -0.0058,-0.0059 -1.5,1.5 h -1.4941 z m 0,3 h 7.5 v 4.5 h -7.5 z"
       color="#eff0f1"
       fill="currentColor"
       id="path8" />
  </g>
  <path
     style="color:#eff0f1;fill:currentColor;fill-opacity:1;stroke:none;stroke-width:1.29099"
     d="m 8.4999998,17 v 1.333333 H 1 v 1.333334 H 8.4999998 V 21 H 13.499999 V 19.666667 H 21 V 18.333333 H 13.499999 V 17 H 8.4999998 M 11,17.666667 c 0.6925,0 1.25,0.594666 1.25,1.333333 0,0.738667 -0.5575,1.333333 -1.25,1.333333 -0.6925,0 -1.2500002,-0.594666 -1.2500002,-1.333333 0,-0.738667 0.5575002,-1.333333 1.2500002,-1.333333"
     class="ColorScheme-Text"
     id="path4"
     sodipodi:nodetypes="ccccccccccccccsssc" />
</svg>
