<?xml version="1.0" encoding="UTF-8" standalone="no"?>
<svg
   xmlns:dc="http://purl.org/dc/elements/1.1/"
   xmlns:cc="http://creativecommons.org/ns#"
   xmlns:rdf="http://www.w3.org/1999/02/22-rdf-syntax-ns#"
   xmlns:svg="http://www.w3.org/2000/svg"
   xmlns="http://www.w3.org/2000/svg"
   xmlns:sodipodi="http://sodipodi.sourceforge.net/DTD/sodipodi-0.dtd"
   xmlns:inkscape="http://www.inkscape.org/namespaces/inkscape"
   version="1.1"
   viewBox="0 0 48 48"
   id="svg8"
   sodipodi:docname="sbCodeDocuViewer48.svg"
   width="48"
   height="48"
   inkscape:version="1.0.2 (e86c870879, 2021-01-15)">
  <metadata
     id="metadata12">
    <rdf:RDF>
      <cc:Work
         rdf:about="">
        <dc:format>image/svg+xml</dc:format>
        <dc:type
           rdf:resource="http://purl.org/dc/dcmitype/StillImage" />
        <dc:title></dc:title>
      </cc:Work>
    </rdf:RDF>
  </metadata>
  <sodipodi:namedview
     pagecolor="#ffffff"
     bordercolor="#666666"
     borderopacity="1"
     objecttolerance="10"
     gridtolerance="10"
     guidetolerance="10"
     inkscape:pageopacity="0"
     inkscape:pageshadow="2"
     inkscape:window-width="1684"
     inkscape:window-height="1042"
     id="namedview10"
     showgrid="false"
     inkscape:zoom="16.25"
     inkscape:cx="24.302287"
     inkscape:cy="21.873466"
     inkscape:window-x="0"
     inkscape:window-y="0"
     inkscape:window-maximized="0"
     inkscape:current-layer="svg8" />
  <defs
     id="defs4">
    <style
       type="text/css"
       id="style2">.ColorScheme-Text {
        color:#eff0f1;
      }</style>
  </defs>
  <path
     class="ColorScheme-Text"
     d="M 8.0004,4 V 44 H 26.285811 V 41.5 H 10.286151 V 6.5 H 37.713569 V 29 H 39.99932 V 4 H 8 m 20.571563,20 c -3.798719,0 -6.857054,3.345 -6.857054,7.5 0,4.155 3.058135,7.5 6.857054,7.5 1.484288,0 2.848739,-0.52146 3.968716,-1.3916 L 38.383954,44 40,42.23242 34.156324,35.84082 c 0.795543,-1.22494 1.272293,-2.7174 1.272293,-4.3408 0,-4.155 -3.058135,-7.5 -6.857054,-7.5 m 0,2.5 c 2.532546,0 4.571303,2.23 4.571303,5 0,2.77 -2.038757,5 -4.571303,5 -2.532546,0 -4.571303,-2.23 -4.571303,-5 0,-2.77 2.038757,-5 4.571303,-5"
     color="#eff0f1"
     fill="currentColor"
     id="path6"
     style="stroke-width:1.99998" />
</svg>
