<?xml version="1.0" encoding="UTF-8" standalone="no"?>
<svg
   xmlns:dc="http://purl.org/dc/elements/1.1/"
   xmlns:cc="http://creativecommons.org/ns#"
   xmlns:rdf="http://www.w3.org/1999/02/22-rdf-syntax-ns#"
   xmlns:svg="http://www.w3.org/2000/svg"
   xmlns="http://www.w3.org/2000/svg"
   xmlns:sodipodi="http://sodipodi.sourceforge.net/DTD/sodipodi-0.dtd"
   xmlns:inkscape="http://www.inkscape.org/namespaces/inkscape"
   version="1.1"
   viewBox="0 0 48 48"
   id="svg10"
   sodipodi:docname="sbCooperation48.svg"
   inkscape:version="1.0.2 (e86c870879, 2021-01-15)">
  <metadata
     id="metadata14">
    <rdf:RDF>
      <cc:Work
         rdf:about="">
        <dc:format>image/svg+xml</dc:format>
        <dc:type
           rdf:resource="http://purl.org/dc/dcmitype/StillImage" />
        <dc:title></dc:title>
      </cc:Work>
    </rdf:RDF>
  </metadata>
  <sodipodi:namedview
     pagecolor="#ffffff"
     bordercolor="#666666"
     borderopacity="1"
     objecttolerance="10"
     gridtolerance="10"
     guidetolerance="10"
     inkscape:pageopacity="0"
     inkscape:pageshadow="2"
     inkscape:window-width="1696"
     inkscape:window-height="1013"
     id="namedview12"
     showgrid="false"
     inkscape:zoom="14.895833"
     inkscape:cx="24"
     inkscape:cy="24"
     inkscape:window-x="0"
     inkscape:window-y="0"
     inkscape:window-maximized="0"
     inkscape:current-layer="svg10" />
  <defs
     id="defs4">
    <style
       type="text/css"
       id="style2">.ColorScheme-Text {
        color:#eff0f1;
      }</style>
  </defs>
  <path
     class="ColorScheme-Text"
     d="M 4,6 V 31.713899 L 11.500074,42 l -5e-5,-7.71426 5e-5,-2.57139 H 44 V 6.00045 Z M 6.4999943,8.5713899 H 41.499915 V 29.142689 H 6.4999943 Z"
     color="#eff0f1"
     fill="currentColor"
     id="path6"
     style="stroke-width:0.904533" />
  <path
     class="ColorScheme-Text"
     d="m 27.999945,12.0003 -11.999972,3.41793 v 6.1641 l 0.999997,0.285156 v 2.433599 l 5.999987,1.699201 v -2.42379 l 4.999988,1.4238 v -11.9574 z m 4.029264,0.427734 -0.77148,0.630864 c 1.13727,1.77228 1.741905,3.83373 1.742178,5.93946 -0.004,2.10384 -0.611417,4.1625 -1.749996,5.93163 l 0.783198,0.642582 c 1.281543,-1.95327 1.965086,-4.238101 1.966814,-6.57423 -0.004,-2.33523 -0.688499,-4.61862 -1.970723,-6.57036 z m -5.029261,0.90036 v 10.343699 l -9.999978,-2.84769 v -4.64841 z m 2.689448,1.01565 -0.781253,0.638676 c 0.71179,1.21878 1.088452,2.60424 1.091816,4.01562 -0.002,1.41192 -0.378399,2.79801 -1.089816,4.0176 l 0.781253,0.640629 c 0.853225,-1.40418 1.305815,-3.01518 1.308634,-4.65822 -0.004,-1.64196 -0.457318,-3.25143 -1.310543,-4.65426 z m -14.689057,1.35936 -0.999998,0.285156 v 5.02353 l 0.999998,0.285156 v -5.29695 z m 2.999993,6.44922 3.999991,1.13868 v 1.425779 l -3.999991,-1.132829 z"
     color="#eff0f1"
     fill="currentColor"
     id="path8"
     style="stroke-width:0.904533" />
</svg>
