<?xml version="1.0" encoding="UTF-8" standalone="no"?>
<svg
   xmlns:dc="http://purl.org/dc/elements/1.1/"
   xmlns:cc="http://creativecommons.org/ns#"
   xmlns:rdf="http://www.w3.org/1999/02/22-rdf-syntax-ns#"
   xmlns:svg="http://www.w3.org/2000/svg"
   xmlns="http://www.w3.org/2000/svg"
   xmlns:sodipodi="http://sodipodi.sourceforge.net/DTD/sodipodi-0.dtd"
   xmlns:inkscape="http://www.inkscape.org/namespaces/inkscape"
   version="1.1"
   viewBox="0 0 96 96"
   id="svg10"
   sodipodi:docname="sbCooperation96.svg"
   inkscape:version="0.92.0 r15299"
   width="96"
   height="96">
  <metadata
     id="metadata14">
    <rdf:RDF>
      <cc:Work
         rdf:about="">
        <dc:format>image/svg+xml</dc:format>
        <dc:type
           rdf:resource="http://purl.org/dc/dcmitype/StillImage" />
        <dc:title></dc:title>
      </cc:Work>
    </rdf:RDF>
  </metadata>
  <sodipodi:namedview
     pagecolor="#ffffff"
     bordercolor="#666666"
     borderopacity="1"
     objecttolerance="10"
     gridtolerance="10"
     guidetolerance="10"
     inkscape:pageopacity="0"
     inkscape:pageshadow="2"
     inkscape:window-width="1696"
     inkscape:window-height="1013"
     id="namedview12"
     showgrid="false"
     inkscape:zoom="14.895833"
     inkscape:cx="24"
     inkscape:cy="24"
     inkscape:window-x="0"
     inkscape:window-y="0"
     inkscape:window-maximized="0"
     inkscape:current-layer="svg10" />
  <defs
     id="defs4">
    <style
       type="text/css"
       id="style2">.ColorScheme-Text {
        color:#eff0f1;
      }</style>
  </defs>
  <path
     class="ColorScheme-Text"
     d="M 6,10 V 64.284898 L 21.750155,86 21.75005,69.71434 21.750155,64.28585 H 90 v -54.2849 z m 5.249988,5.42849 H 84.749821 V 58.856788 H 11.249988 Z"
     id="path6"
     style="color:#eff0f1;fill:currentColor;stroke-width:1.90453792"
     inkscape:connector-curvature="0" />
  <path
     class="ColorScheme-Text"
     d="m 56.399884,22.6673 -25.199941,7.21563 v 13.0131 l 2.099994,0.601996 v 5.137597 l 12.599973,3.587203 v -5.11689 l 10.499975,3.0058 v -25.2434 z m 8.461455,0.902994 -1.620108,1.331824 c 2.388267,3.74148 3.658,8.09343 3.658574,12.53886 -0.0084,4.44144 -1.283976,8.7875 -3.674992,12.52233 l 1.644716,1.356562 c 2.69124,-4.12357 4.126681,-8.947102 4.130309,-13.87893 -0.0084,-4.92993 -1.445848,-9.75042 -4.138518,-13.87076 z m -10.561448,1.90076 v 21.836698 l -20.999954,-6.01179 v -9.81331 z m 5.647841,2.14415 -1.640632,1.348316 c 1.494759,2.57298 2.28575,5.49784 2.292814,8.47742 -0.0042,2.98072 -0.794638,5.90691 -2.288614,8.4816 l 1.640632,1.352439 c 1.791772,-2.96438 2.742211,-6.36538 2.748131,-9.83402 -0.0084,-3.46636 -0.960368,-6.86413 -2.75214,-9.82566 z m -30.84702,2.86976 -2.099996,0.601996 v 10.60523 l 2.099996,0.601996 v -11.18245 z m 6.299985,13.61502 8.399981,2.40388 v 3.009978 l -8.399981,-2.391528 z"
     id="path8"
     style="color:#eff0f1;fill:currentColor;stroke-width:1.90453792"
     inkscape:connector-curvature="0" />
</svg>
