<?xml version="1.0" encoding="UTF-8" standalone="no"?>
<svg
   xmlns:dc="http://purl.org/dc/elements/1.1/"
   xmlns:cc="http://creativecommons.org/ns#"
   xmlns:rdf="http://www.w3.org/1999/02/22-rdf-syntax-ns#"
   xmlns:svg="http://www.w3.org/2000/svg"
   xmlns="http://www.w3.org/2000/svg"
   xmlns:sodipodi="http://sodipodi.sourceforge.net/DTD/sodipodi-0.dtd"
   xmlns:inkscape="http://www.inkscape.org/namespaces/inkscape"
   version="1.1"
   viewBox="0 0 96 96"
   id="svg8"
   sodipodi:docname="sbCodeDocuViewer96.svg"
   width="96"
   height="96"
   inkscape:version="0.92.0 r15299">
  <metadata
     id="metadata12">
    <rdf:RDF>
      <cc:Work
         rdf:about="">
        <dc:format>image/svg+xml</dc:format>
        <dc:type
           rdf:resource="http://purl.org/dc/dcmitype/StillImage" />
        <dc:title></dc:title>
      </cc:Work>
    </rdf:RDF>
  </metadata>
  <sodipodi:namedview
     pagecolor="#ffffff"
     bordercolor="#666666"
     borderopacity="1"
     objecttolerance="10"
     gridtolerance="10"
     guidetolerance="10"
     inkscape:pageopacity="0"
     inkscape:pageshadow="2"
     inkscape:window-width="1684"
     inkscape:window-height="1042"
     id="namedview10"
     showgrid="false"
     inkscape:zoom="16.25"
     inkscape:cx="24.302287"
     inkscape:cy="21.873466"
     inkscape:window-x="0"
     inkscape:window-y="0"
     inkscape:window-maximized="0"
     inkscape:current-layer="svg8" />
  <defs
     id="defs4">
    <style
       type="text/css"
       id="style2">.ColorScheme-Text {
        color:#eff0f1;
      }</style>
  </defs>
  <path
     class="ColorScheme-Text"
     d="M 14.00085,6 V 90 H 52.857348 V 84.75 H 18.858071 V 11.25 H 77.141334 V 58.5 h 4.857221 V 6 H 14 m 43.714571,42 c -8.072278,0 -14.571239,7.0245 -14.571239,15.75 0,8.7255 6.498536,15.75 14.571239,15.75 3.154112,0 6.053571,-1.095066 8.433522,-2.92236 L 78.565902,90 82,86.288082 69.582188,72.865722 c 1.69053,-2.572374 2.703623,-5.70654 2.703623,-9.11568 0,-8.7255 -6.498537,-15.75 -14.57124,-15.75 m 0,5.25 c 5.381661,0 9.71402,4.683 9.71402,10.5 0,5.817 -4.332359,10.5 -9.71402,10.5 -5.38166,0 -9.714018,-4.683 -9.714018,-10.5 0,-5.817 4.332358,-10.5 9.714018,-10.5"
     id="path6"
     style="color:#eff0f1;fill:currentColor;stroke-width:4.22488356"
     inkscape:connector-curvature="0" />
</svg>
