<?xml version="1.0" encoding="UTF-8" standalone="no"?>
<svg
   xmlns:dc="http://purl.org/dc/elements/1.1/"
   xmlns:cc="http://creativecommons.org/ns#"
   xmlns:rdf="http://www.w3.org/1999/02/22-rdf-syntax-ns#"
   xmlns:svg="http://www.w3.org/2000/svg"
   xmlns="http://www.w3.org/2000/svg"
   xmlns:sodipodi="http://sodipodi.sourceforge.net/DTD/sodipodi-0.dtd"
   xmlns:inkscape="http://www.inkscape.org/namespaces/inkscape"
   version="1.1"
   viewBox="0 0 96 96"
   id="svg8"
   sodipodi:docname="sbHelpViewer96.svg"
   inkscape:version="1.0.2 (e86c870879, 2021-01-15)"
   width="96"
   height="96">
  <metadata
     id="metadata12">
    <rdf:RDF>
      <cc:Work
         rdf:about="">
        <dc:format>image/svg+xml</dc:format>
        <dc:type
           rdf:resource="http://purl.org/dc/dcmitype/StillImage" />
        <dc:title></dc:title>
      </cc:Work>
    </rdf:RDF>
  </metadata>
  <sodipodi:namedview
     pagecolor="#ffffff"
     bordercolor="#666666"
     borderopacity="1"
     objecttolerance="10"
     gridtolerance="10"
     guidetolerance="10"
     inkscape:pageopacity="0"
     inkscape:pageshadow="2"
     inkscape:window-width="1636"
     inkscape:window-height="1043"
     id="namedview10"
     showgrid="false"
     inkscape:zoom="8.125"
     inkscape:cx="49.905789"
     inkscape:cy="48.695447"
     inkscape:window-x="335"
     inkscape:window-y="0"
     inkscape:window-maximized="0"
     inkscape:current-layer="svg8" />
  <defs
     id="defs4">
    <style
       type="text/css"
       id="style2">.ColorScheme-Text {
        color:#eff0f1;
      }</style>
  </defs>
  <path
     class="ColorScheme-Text"
     d="m 47.99996,6 c -9.859929,0 -18.884058,3.3864632 -26.034565,9.033789 -0.02684,0.02117 -0.05528,0.04028 -0.08203,0.06152 -0.278498,0.221047 -0.557928,0.438565 -0.830551,0.666499 L 16.54117,11.250169 H 6 v 10.54117 l 5.475545,5.475545 C 8.0094919,33.38083 6,40.442717 6,48.000204 6,55.558111 8.0095339,62.619578 11.475545,68.733523 L 6,74.209069 v 10.54117 h 10.54117 l 4.511644,-4.511645 c 0.272648,0.227893 0.552091,0.445453 0.830551,0.666499 0.02675,0.021 0.05522,0.04032 0.08203,0.06153 7.150927,5.647325 16.174636,9.033789 26.034565,9.033789 10.28203,0 19.661899,-3.671224 26.947226,-9.76165 l 4.511644,4.511645 H 90 V 74.209237 L 84.524455,68.733691 C 87.990508,62.619746 90,55.557859 90,48.000372 90,40.442465 87.990466,33.380998 84.524455,27.267052 L 90,21.791507 V 11.250337 H 79.45883 l -4.511644,4.511644 c -0.272623,-0.22793 -0.552049,-0.445452 -0.830551,-0.666499 -0.02688,-0.02121 -0.05519,-0.04036 -0.08207,-0.06153 C 66.88406,9.3866312 57.859931,6.000168 48.000002,6.000168 Z m 0,5.250005 c 6.512526,0 12.609672,1.687184 17.903357,4.634704 L 53.865266,27.922761 c -1.871354,-0.543397 -3.814024,-0.922867 -5.865306,-0.922867 -2.051282,0 -3.99391,0.379428 -5.865305,0.922867 L 30.096603,15.884709 c 5.293685,-2.947604 11.390831,-4.634704 17.903357,-4.634704 z m -35.170833,3.711922 4.429744,4.429744 c -0.749449,0.805308 -1.478822,1.628971 -2.16359,2.491694 -0.02121,0.0268 -0.04036,0.05522 -0.06153,0.08203 -0.211932,0.268355 -0.40979,0.546673 -0.615217,0.820303 L 9.7120139,18.079174 Z m 70.341667,0 3.1172,3.1172 -4.706524,4.706525 c -0.887755,-1.182427 -1.83494,-2.31374 -2.840337,-3.394065 z M 15.88253,30.096641 27.920581,42.134692 c -0.543396,1.871312 -0.922867,3.813982 -0.922867,5.865306 0,2.051324 0.379429,3.99391 0.922867,5.865305 L 15.88253,65.903355 C 12.934925,60.60967 11.247825,54.512524 11.247825,47.999998 c 0,-6.512526 1.687184,-12.609672 4.634705,-17.903357 z m 64.230661,0 c 2.947604,5.293685 4.634704,11.390831 4.634704,17.903357 0,6.512526 -1.687184,12.609672 -4.634704,17.903357 L 68.075139,53.865303 c 0.543397,-1.871353 0.922867,-3.814023 0.922867,-5.865305 0,-2.051282 -0.379428,-3.99391 -0.922867,-5.865306 z M 47.99786,32.249983 c 0.478633,0 0.927025,0.102144 1.394527,0.143514 2.072408,0.183498 4.012768,0.747811 5.772906,1.650896 2.924337,1.500367 5.287805,3.863751 6.788046,6.788046 0.903085,1.76018 1.467398,3.70054 1.650896,5.772906 0.04158,0.467544 0.143556,0.915936 0.143556,1.394569 0,0.478632 -0.102144,0.927025 -0.143514,1.394527 -0.183498,2.072408 -0.747811,4.012768 -1.650896,5.772906 -1.500367,2.924336 -3.863793,5.287805 -6.788046,6.788046 -1.76018,0.903085 -3.70054,1.467398 -5.772906,1.650896 -0.467544,0.04158 -0.915936,0.143556 -1.394569,0.143556 -0.478632,0 -0.927025,-0.102144 -1.394527,-0.143556 -2.072408,-0.183498 -4.012768,-0.747811 -5.772906,-1.650896 -2.924336,-1.500367 -5.287805,-3.863752 -6.788046,-6.788046 -0.903085,-1.76018 -1.467398,-3.70054 -1.650896,-5.772906 -0.04158,-0.467502 -0.143556,-0.915895 -0.143556,-1.394527 0,-0.478633 0.102144,-0.927025 0.143556,-1.394527 0.183498,-2.072408 0.747811,-4.012768 1.650896,-5.772906 1.500367,-2.924337 3.863752,-5.287805 6.788046,-6.788046 1.76018,-0.903085 3.70054,-1.467398 5.772906,-1.650896 0.467502,-0.04158 0.915895,-0.143556 1.394527,-0.143556 z m -5.865305,35.827294 c 1.871311,0.543396 3.814023,0.922867 5.865305,0.922867 2.051282,0 3.99391,-0.379429 5.865306,-0.922867 l 12.038051,12.038051 c -5.293685,2.947605 -11.390831,4.634705 -17.903357,4.634705 -6.512526,0 -12.609672,-1.687184 -17.903357,-4.634705 l 5.865306,-5.865305 z m -27.716247,5.137025 c 0.887755,1.182427 1.83494,2.31374 2.840337,3.394065 L 12.826901,81.038111 9.7096997,77.92091 Z m 67.162264,0 4.706524,4.706524 -3.1172,3.117201 -4.429745,-4.429744 c 1.005397,-1.080325 1.952582,-2.211596 2.840337,-3.394065 z"
     color="#eff0f1"
     fill="currentColor"
     id="path6"
     style="stroke-width:4.2" />
</svg>
