<?xml version="1.0" encoding="UTF-8" standalone="no"?>
<svg
   xmlns:dc="http://purl.org/dc/elements/1.1/"
   xmlns:cc="http://creativecommons.org/ns#"
   xmlns:rdf="http://www.w3.org/1999/02/22-rdf-syntax-ns#"
   xmlns:svg="http://www.w3.org/2000/svg"
   xmlns="http://www.w3.org/2000/svg"
   xmlns:sodipodi="http://sodipodi.sourceforge.net/DTD/sodipodi-0.dtd"
   xmlns:inkscape="http://www.inkscape.org/namespaces/inkscape"
   version="1.1"
   viewBox="0 0 48 48"
   id="svg16"
   sodipodi:docname="sbMultiProjectViewer48.svg"
   width="48"
   height="48"
   inkscape:version="1.0.2 (e86c870879, 2021-01-15)">
  <metadata
     id="metadata20">
    <rdf:RDF>
      <cc:Work
         rdf:about="">
        <dc:format>image/svg+xml</dc:format>
        <dc:type
           rdf:resource="http://purl.org/dc/dcmitype/StillImage" />
        <dc:title></dc:title>
      </cc:Work>
    </rdf:RDF>
  </metadata>
  <sodipodi:namedview
     pagecolor="#ffffff"
     bordercolor="#666666"
     borderopacity="1"
     objecttolerance="10"
     gridtolerance="10"
     guidetolerance="10"
     inkscape:pageopacity="0"
     inkscape:pageshadow="2"
     inkscape:window-width="1636"
     inkscape:window-height="1037"
     id="namedview18"
     showgrid="false"
     inkscape:zoom="16.25"
     inkscape:cx="20.502607"
     inkscape:cy="23.761169"
     inkscape:window-x="0"
     inkscape:window-y="0"
     inkscape:window-maximized="0"
     inkscape:current-layer="svg16"
     inkscape:document-rotation="0" />
  <defs
     id="defs4">
    <style
       type="text/css"
       id="style2">.ColorScheme-Text {
        color:#eff0f1;
      }</style>
  </defs>
  <g
     fill="#eff0f1"
     id="g14"
     transform="matrix(1.99995,0,0,2,2.00005,2.0002)">
    <path
       class="ColorScheme-Text"
       d="m 2.1875,11.5 v 1.1875 H 1 v 1.7812 h 1.1875 v 3.5625 H 1 v 1.7812 h 1.1875 v 1.1875 H 10.5 v -9.5 z m 0.59375,0.59375 h 7.125 v 1.1875 h -7.125 V 12.6875 Z m 0,1.7812 h 7.125 v 6.5312 h -7.125 z"
       color="#eff0f1"
       id="path6" />
    <path
       class="ColorScheme-Text"
       d="M 2.1875,1 V 2.1875 H 1 V 3.9687 H 2.1875 V 7.5312 H 1 v 1.7812 h 1.1875 v 1.1875 H 10.5 v -9.5 z m 0.59375,0.59375 h 7.125 v 1.1875 h -7.125 V 2.1875 Z m 0,1.7812 h 7.125 v 6.5312 h -7.125 z"
       color="#eff0f1"
       id="path8" />
    <path
       class="ColorScheme-Text"
       d="m 12.688,11.5 v 1.1875 h -1.1875 v 1.7812 h 1.1875 v 3.5625 h -1.1875 v 1.7812 h 1.1875 v 1.1875 h 8.3125 v -9.5 z m 0.59375,0.59375 h 7.125 v 1.1875 h -7.125 V 12.6875 Z m 0,1.7812 h 7.125 v 6.5312 h -7.125 z"
       color="#eff0f1"
       id="path10" />
    <path
       class="ColorScheme-Text"
       d="m 12.688,1 v 1.1875 h -1.1875 v 1.7812 h 1.1875 v 3.5625 h -1.1875 v 1.7812 h 1.1875 v 1.1875 h 8.3125 v -9.5 z m 0.59375,0.59375 h 7.125 v 1.1875 h -7.125 V 2.1875 Z m 0,1.7812 h 7.125 v 6.5312 h -7.125 z"
       color="#eff0f1"
       id="path12" />
  </g>
</svg>
