<?xml version="1.0" encoding="UTF-8" standalone="no"?>
<svg
   xmlns:dc="http://purl.org/dc/elements/1.1/"
   xmlns:cc="http://creativecommons.org/ns#"
   xmlns:rdf="http://www.w3.org/1999/02/22-rdf-syntax-ns#"
   xmlns:svg="http://www.w3.org/2000/svg"
   xmlns="http://www.w3.org/2000/svg"
   xmlns:xlink="http://www.w3.org/1999/xlink"
   xmlns:sodipodi="http://sodipodi.sourceforge.net/DTD/sodipodi-0.dtd"
   xmlns:inkscape="http://www.inkscape.org/namespaces/inkscape"
   version="1.1"
   viewBox="0 0 96 96"
   id="svg37"
   sodipodi:docname="sbPluginRepository96.svg"
   width="96"
   height="96"
   inkscape:version="1.0.2 (e86c870879, 2021-01-15)">
  <metadata
     id="metadata41">
    <rdf:RDF>
      <cc:Work
         rdf:about="">
        <dc:format>image/svg+xml</dc:format>
        <dc:type
           rdf:resource="http://purl.org/dc/dcmitype/StillImage" />
        <dc:title></dc:title>
      </cc:Work>
    </rdf:RDF>
  </metadata>
  <sodipodi:namedview
     pagecolor="#ffffff"
     bordercolor="#666666"
     borderopacity="1"
     objecttolerance="10"
     gridtolerance="10"
     guidetolerance="10"
     inkscape:pageopacity="0"
     inkscape:pageshadow="2"
     inkscape:window-width="1715"
     inkscape:window-height="1059"
     id="namedview39"
     showgrid="false"
     inkscape:zoom="8.125"
     inkscape:cx="40.355572"
     inkscape:cy="41.820815"
     inkscape:window-x="0"
     inkscape:window-y="0"
     inkscape:window-maximized="0"
     inkscape:current-layer="svg37" />
  <defs
     id="defs21">
    <style
       type="text/css"
       id="style2">.ColorScheme-Text {
        color:#eff0f1;
      }</style>
    <linearGradient
       id="a"
       x1="34"
       x2="44"
       y1="19.007999"
       y2="29.007999"
       gradientUnits="userSpaceOnUse">
      <stop
         stop-color="#292c2f"
         offset="0"
         id="stop4" />
      <stop
         stop-opacity="0"
         offset="1"
         id="stop6" />
    </linearGradient>
    <linearGradient
       id="d"
       x1="4"
       x2="4"
       y1="44"
       y2="4"
       gradientTransform="matrix(0.25,0,0,0.24998,-12.847,15.052)"
       gradientUnits="userSpaceOnUse">
      <stop
         stop-color="#54d883"
         offset="0"
         id="stop9" />
      <stop
         stop-color="#abf9c7"
         offset="1"
         id="stop11" />
    </linearGradient>
    <linearGradient
       id="c"
       x1="34"
       x2="44"
       y1="19.007999"
       y2="29.007999"
       gradientTransform="matrix(0.25,0,0,0.24998,-12.847,15.052)"
       gradientUnits="userSpaceOnUse"
       xlink:href="#a" />
    <linearGradient
       id="e"
       x1="9"
       x2="38"
       y1="9"
       y2="38"
       gradientTransform="matrix(0.25,0,0,0.24998,-12.847,15.052)"
       gradientUnits="userSpaceOnUse"
       xlink:href="#a" />
    <linearGradient
       id="f"
       x1="4"
       x2="4"
       y1="44"
       y2="4"
       gradientTransform="matrix(0.25,0,0,0.24998,-12.847,15.052)"
       gradientUnits="userSpaceOnUse">
      <stop
         stop-color="#197cf1"
         offset="0"
         id="stop16" />
      <stop
         stop-color="#20bcfa"
         offset="1"
         id="stop18" />
    </linearGradient>
  </defs>
  <path
     class="ColorScheme-Text"
     d="m 19.99986,14 v 6.8 H 6 V 82 H 90 V 20.8 H 76.00014 V 14 h -21 v 6.8 H 41.00028 V 14 Z m -7.00014,13.6 h 70.0014 v 47.6 h -70.0014 z"
     color="#eff0f1"
     fill="currentColor"
     id="path23"
     style="stroke-width:4.22493" />
  <g
     transform="matrix(3.78,0,0,3.824405,75.9846,-30.3819)"
     stroke-width="0.24999"
     id="g35">
    <ellipse
       cx="-6.8474002"
       cy="21.051001"
       rx="5"
       ry="4.9997001"
       fill="url(#f)"
       id="ellipse25"
       style="fill:url(#f)" />
    <path
       d="m -6.8474,16.051 a 5,4.9997 0 0 0 -4.975,4.4997 h 0.725 l 0.75,0.74993 0.5,0.24983 2.7422,4.4872 a 5,4.9997 0 0 0 0.25775,0.01134 5,4.9997 0 0 0 5,-4.9997 5,4.9997 0 0 0 -5,-4.9997 z"
       fill="url(#e)"
       opacity="0.2"
       id="path27"
       style="fill:url(#e)" />
    <path
       d="m -2.2009,19.21 -1.6465,2.3416 1.5537,1.5536 a 5,4.9997 0 0 0 0.44625,-2.0536 5,4.9997 0 0 0 -0.34,-1.8114 5,4.9997 0 0 0 -0.013531,-0.03024 z"
       fill="url(#c)"
       fill-rule="evenodd"
       opacity="0.2"
       id="path29"
       style="fill:url(#c)" />
    <path
       d="m -6.8474,16.051 a 5,4.9997 0 0 0 -0.4755,0.02646 5,4.9997 0 0 0 -0.063496,0.0076 5,4.9997 0 0 0 -0.80475,0.15912 v -0.0076 a 5,4.9997 0 0 0 -2.425,1.5349 h 0.0025 a 5,4.9997 0 0 0 -0.895,1.4861 l 0.41125,-0.20561 h 1 v 0.24983 l 0.25,0.24983 v -0.49996 l 0.5,-0.49965 h 0.25 v -0.24983 l 0.25,-0.24983 0.5,-0.24983 0.25,-0.24983 0.5,-0.24983 v 0.24983 l 0.5,-0.24983 h -0.25 v -0.24983 l -0.25,-0.24983 h 1 l -0.25,0.24983 0.75,0.24983 -0.25,-0.49999 v -0.49996 l -0.23675,-0.2366 a 5,4.9997 0 0 0 -0.26325,-0.01134 z m 3.75,1.7024 v 0.54746 h 0.42275 A 5,4.9997 0 0 0 -3.0974,17.7534 Z m -6.9845,0.01512 h 0.01523 l -0.03073,0.03024 0.01576,-0.03024 z m 7.506,0.69044 -0.2715,0.09033 -0.5,0.24983 v 0.24983 l -0.5,0.49999 -0.25,0.49996 v 0.99995 l 0.25,0.49996 0.5,0.24983 0.25,0.24983 1.1793,-0.19616 a 5,4.9997 0 0 0 4.993e-4,-0.0076 5,4.9997 0 0 0 0.052252,-0.43797 5,4.9997 0 0 0 0.01799,-0.36019 5,4.9997 0 0 0 -0.022488,-0.43498 5,4.9997 0 0 0 -0.024265,-0.2022 5,4.9997 0 0 0 -0.047497,-0.30841 5,4.9997 0 0 0 -0.033751,-0.14929 5,4.9997 0 0 0 -0.089261,-0.34847 5,4.9997 0 0 0 -0.036246,-0.10809 5,4.9997 0 0 0 -0.13476,-0.36813 5,4.9997 0 0 0 -0.037002,-0.08239 5,4.9997 0 0 0 -0.185,-0.3812 5,4.9997 0 0 0 -0.11825,-0.20636 z m -8.5215,1.5902 -0.25,0.24983 h -0.25 l -0.1625,-0.16252 a 5,4.9997 0 0 0 0,9.45e-4 5,4.9997 0 0 0 -0.0665,0.49421 5,4.9997 0 0 0 -5e-4,0.0076 l 0.4795,0.1595 0.5,0.24983 0.5,0.49965 h 0.5 v 0.49999 l -0.25,0.2502 -0.25,0.49996 v 0.24983 l 0.5,0.49965 0.25,0.49999 0.25,0.24983 0.5,0.24983 v 1.0799 a 5,4.9997 0 0 0 0.00151,4.91e-4 5,4.9997 0 0 0 0.42425,0.16139 5,4.9997 0 0 0 0.048,0.0189 5,4.9997 0 0 0 0.37825,0.10205 5,4.9997 0 0 0 0.11275,0.03024 5,4.9997 0 0 0 0.33,0.05405 5,4.9997 0 0 0 0.17,0.02646 5,4.9997 0 0 0 0.2875,0.0189 5,4.9997 0 0 0 0.24775,0.01134 5,4.9997 0 0 0 0.2545,-0.0076 l 0.2455,-0.49073 v -0.24983 l 0.5,-0.24983 0.25,-0.24983 0.25,-0.99995 0.25,-0.24983 v -0.49999 l -0.5,-0.25285 h -0.25 l -0.5,-0.24983 h -0.25 l -0.25,-0.50014 -0.25,-0.24983 h -0.5 l -0.5,-0.5003 h -0.5 l -0.75,-0.24983 -0.25,0.49996 -0.5,-0.24983 h -0.25001 v -0.49996 l -0.5,-0.24983 0.25,-0.49996 z"
       fill="url(#d)"
       id="path31"
       style="fill:url(#d)" />
    <path
       d="m -11.835,20.926 c -10e-4,0.04271 -0.01277,0.08202 -0.01277,0.1251 0,2.7698 2.23,4.9997 5,4.9997 2.77,0 5,-2.2298 5,-4.9997 0,-0.04271 -0.011792,-0.08239 -0.012775,-0.1251 -0.00741,0.30123 -0.030236,0.59943 -0.088505,0.88516 a 4.9725,4.9722 0 0 1 -1.3602,2.5281 4.9875,4.9872 0 0 1 -1.5887,1.0697 4.9542,4.9539 0 0 1 -0.9395,0.29065 5.051,5.0507 0 0 1 -1.01,0.10091 c -0.34625,0 -0.68425,-0.03402 -1.01,-0.10091 a 4.9725,4.9722 0 0 1 -2.5283,-1.3602 4.9875,4.9872 0 0 1 -1.0697,-1.5886 4.9542,4.9539 0 0 1 -0.2905,-0.93944 c -0.05825,-0.28573 -0.08075,-0.58375 -0.0885,-0.88516"
       opacity="0.2"
       id="path33" />
  </g>
</svg>
