<?xml version="1.0" encoding="UTF-8" standalone="no"?>
<svg
   xmlns:dc="http://purl.org/dc/elements/1.1/"
   xmlns:cc="http://creativecommons.org/ns#"
   xmlns:rdf="http://www.w3.org/1999/02/22-rdf-syntax-ns#"
   xmlns:svg="http://www.w3.org/2000/svg"
   xmlns="http://www.w3.org/2000/svg"
   xmlns:sodipodi="http://sodipodi.sourceforge.net/DTD/sodipodi-0.dtd"
   xmlns:inkscape="http://www.inkscape.org/namespaces/inkscape"
   width="96"
   height="96"
   viewBox="0 0 25.399999 25.400001"
   version="1.1"
   id="svg22"
   inkscape:version="1.0.2 (e86c870879, 2021-01-15)"
   sodipodi:docname="sbVirtenvManager96.svg">
  <defs
     id="defs16" />
  <sodipodi:namedview
     id="base"
     pagecolor="#ffffff"
     bordercolor="#666666"
     borderopacity="1.0"
     inkscape:pageopacity="0.0"
     inkscape:pageshadow="2"
     inkscape:zoom="7.9195959"
     inkscape:cx="52.812035"
     inkscape:cy="50.685788"
     inkscape:document-units="mm"
     inkscape:current-layer="g10"
     inkscape:document-rotation="0"
     showgrid="false"
     units="px"
     inkscape:window-width="1817"
     inkscape:window-height="1094"
     inkscape:window-x="0"
     inkscape:window-y="268"
     inkscape:window-maximized="0" />
  <metadata
     id="metadata19">
    <rdf:RDF>
      <cc:Work
         rdf:about="">
        <dc:format>image/svg+xml</dc:format>
        <dc:type
           rdf:resource="http://purl.org/dc/dcmitype/StillImage" />
        <dc:title />
      </cc:Work>
    </rdf:RDF>
  </metadata>
  <g
     inkscape:label="Ebene 1"
     inkscape:groupmode="layer"
     id="layer1">
    <rect
       style="fill:none;stroke:#eff0f1;stroke-width:1.48167;stroke-miterlimit:4;stroke-dasharray:none;stroke-opacity:1"
       id="rect24"
       width="20.743334"
       height="20.74333"
       x="2.3283331"
       y="2.3283331" />
    <g
       stroke-width="0.18644"
       id="g10"
       transform="matrix(0.70803264,0,0,0.70911154,4.9369334,4.921228)">
      <path
         d="M 3.8769,16.021 C 2.5837,15.83091 1.5493,14.9629 1.0986,13.6899 0.99398,13.39434 0.99094,13.33623 0.97425,11.3132 0.95291,8.7266 0.9706758,8.5376 1.29838,7.8646 1.50563,7.43902 1.58818,7.32508 1.93996,6.97901 2.40203,6.52444 2.78589,6.28201 3.31866,6.10829 3.67352,5.99258 3.76023,5.98491 5.11316,5.94962 5.89505,5.929226 7.52586,5.911065 8.73706,5.909264 l 2.2023,-0.00327 v -1.4915 h -5.017 l 0.039441,-0.33792 c 0.082337,-0.70546 0.25768,-1.1849 0.61798,-1.6898 0.42952,-0.60191 1.1146,-1.096 1.8194,-1.3123 0.25572,-0.078458 0.47917,-0.085803 2.6102,-0.085803 h 2.3305 l 0.37288,0.12699 c 0.53022,0.18057 0.9215,0.42591 1.3262,0.83156 0.39706,0.398 0.6012,0.71448 0.81882,1.2694 l 0.14988,0.38221 0.05924,5.803 h -3.4512 c -2.1311,0 -3.6243,0.01902 -3.9038,0.049728 -1.8332,0.20141 -3.4435,1.5466 -4.0833,3.4109 -0.16642,0.48492 -0.2114,0.87998 -0.21359,1.8762 -0.00101,0.46144 -0.015071,0.9491 -0.031236,1.0837 -0.032921,0.27408 -0.022253,0.2699 -0.50691,0.19866 z M 9.7007,3.324 c 0.22793,-0.13357 0.39978,-0.41605 0.39978,-0.65711 0,-0.38236 -0.38671,-0.76907 -0.76907,-0.76907 -0.37964,0 -0.76907,0.38942 -0.76907,0.76907 0,0.22876 0.1764,0.52469 0.38858,0.65187 C 9.2012,3.46878 9.45067,3.47052 9.70069,3.324 Z"
         fill="#5599ff"
         stroke="#5599ff"
         id="path6" />
      <path
         d="M 8.4791,20.868 C 7.3486,20.5677 6.4694,19.6861 6.1294,18.5117 6.02279,18.14347 6.02205,18.12216 6.02205,15.4142 v -2.7267 l 3.7521,-0.0245 c 4.0868,-0.02668 3.7551,-0.0052 4.6099,-0.299 0.68486,-0.23541 1.3543,-0.67684 1.9039,-1.2554 0.75974,-0.7998 1.219,-1.7686 1.3618,-2.8724 0.02487,-0.19227 0.04587,-0.77332 0.04666,-1.2912 l 0.0014,-0.94166 0.2447,0.025284 c 1.4235,0.14709 2.5831,1.1278 2.928,2.4764 0.0826,0.32295 0.09004,0.52992 0.09004,2.5022 0,2.3009 -0.0047,2.3571 -0.24808,2.9596 -0.38832,0.96139 -1.3874,1.7661 -2.4289,1.9562 -0.18272,0.03336 -1.4679,0.0505 -3.7871,0.0505 h -3.5105 v 1.7246 h 4.9873 v 0.15458 c 0,0.69752 -0.41873,1.6179 -0.98356,2.1619 -0.43106,0.41516 -0.71671,0.5953 -1.2587,0.79375 l -0.34464,0.1262 -2.2839,0.0118 c -2.1321,0.01102 -2.3065,0.0058 -2.6234,-0.07838 z m 4.5484,-0.76527 c 0.14329,-0.07486 0.34581,-0.28173 0.42313,-0.43224 0.07192,-0.13999 0.06565,-0.49923 -0.01187,-0.68041 -0.23374,-0.54628 -0.98118,-0.67393 -1.3894,-0.23729 -0.15562,0.16644 -0.22436,0.34315 -0.22436,0.57672 0,0.33492 0.19378,0.64097 0.48941,0.77292 0.18463,0.08241 0.55566,0.08257 0.71312,3.26e-4 z"
         fill="#ffdd55"
         stroke="#ffdd55"
         id="path8" />
    </g>
  </g>
</svg>
