<?xml version="1.0" encoding="UTF-8" standalone="no"?>
<svg
   width="48"
   height="48"
   viewBox="0 0 48 48"
   version="1.1"
   id="svg17"
   sodipodi:docname="vivaldi.svg"
   inkscape:version="1.1.2 (0a00cf5339, 2022-02-04)"
   xmlns:inkscape="http://www.inkscape.org/namespaces/inkscape"
   xmlns:sodipodi="http://sodipodi.sourceforge.net/DTD/sodipodi-0.dtd"
   xmlns="http://www.w3.org/2000/svg"
   xmlns:svg="http://www.w3.org/2000/svg">
  <sodipodi:namedview
     id="namedview19"
     pagecolor="#ffffff"
     bordercolor="#666666"
     borderopacity="1.0"
     inkscape:pageshadow="2"
     inkscape:pageopacity="0.0"
     inkscape:pagecheckerboard="0"
     showgrid="false"
     inkscape:zoom="1.4153846"
     inkscape:cx="228.20652"
     inkscape:cy="227.5"
     inkscape:window-width="2580"
     inkscape:window-height="1080"
     inkscape:window-x="426"
     inkscape:window-y="146"
     inkscape:window-maximized="0"
     inkscape:current-layer="svg17" />
  <defs
     id="defs7">
    <linearGradient
       id="a"
       x1="142.44026"
       x2="358.94864"
       y1="80.53595"
       y2="456.88947"
       gradientTransform="scale(1.0018059,0.99819732)"
       gradientUnits="userSpaceOnUse">
      <stop
         stop-opacity=".2"
         offset="0%"
         id="stop2" />
      <stop
         stop-opacity=".05"
         offset="79.08%"
         id="stop4" />
    </linearGradient>
  </defs>
  <g
     fill="none"
     id="g15"
     transform="matrix(0.09666081,0,0,0.09702315,1.9613357,1.9223815)">
    <path
       fill="#ef3939"
       d="m 228,454.3 c 99.7,0 155.1,0 191.4,-36.1 36.2,-36.1 36.2,-91.3 36.2,-190.7 0,-99.4 0,-154.6 -36.2,-190.7 C 383.1,0.8 327.7,0.8 228,0.8 128.3,0.8 72.9,0.8 36.6,36.9 0.4,73 0.4,128.2 0.4,227.6 c 0,99.4 0,154.6 36.2,190.7 36.3,36 91.7,36 191.4,36 z"
       id="path9" />
    <path
       fill="url(#a)"
       d="M 376,143.7 C 354.2,105.6 317.7,75.9 271.8,63.6 180.7,39.3 87.1,93.1 62.7,183.8 50.4,229.4 58,275.7 80.2,313.5 c 0.3,0.5 0.6,1.1 1,1.6 l 80.2,138.5 c 13.3,0.4 27.7,0.5 43.2,0.5 h 22.6 c 44.3,0 79.9,0 109,-3.2 36.3,-4 62.3,-12.9 82.4,-32.9 29.3,-29.2 34.9,-71 36,-138.7 C 407.8,198.5 376.1,143.8 376,143.7 Z"
       id="path11"
       style="fill:url(#a)" />
    <path
       fill="#ffffff"
       d="m 347.8,107.6 c -66.5,-66.4 -174.4,-66.4 -241,0 -66.5,66.4 -66.5,174 0,240.3 66.5,66.4 174.4,66.4 241,0 66.6,-66.4 66.6,-174 0,-240.3 z m -10.2,78.1 c -28.1,48.7 -56.2,97.4 -84.3,146.2 -5.2,9.1 -12.8,14.5 -23.2,15.3 -11.6,0.8 -20.8,-4.1 -26.7,-14.1 -17.8,-30.5 -35.4,-61.2 -53,-91.8 -10.7,-18.6 -21.5,-37.2 -32.2,-55.9 -10.8,-18.8 1.4,-41.7 23,-42.8 11.4,-0.6 20.2,4.7 26,14.6 7.9,13.5 15.7,27.2 23.6,40.8 5.7,9.8 11.2,19.7 17,29.3 8.4,14.1 20.8,22 37.3,23 23.3,1.4 45,-15.5 47.8,-40.2 0.2,-1.8 0.3,-3.7 0.4,-4.6 -0.1,-8 -1.6,-14.8 -4.8,-21.1 -8.7,-17.4 0.6,-36.9 19.5,-41.1 15.4,-3.4 31.4,7.9 33.4,23.5 1,6.7 -0.4,13 -3.8,18.9 z"
       id="path13" />
  </g>
</svg>
