<?xml version="1.0" encoding="UTF-8" standalone="no"?>
<svg
   width="22"
   height="22"
   viewBox="0 0 22 22"
   fill="none"
   version="1.1">
  <path
     d="m 12.996936,3 c 0.452086,0 0.8186,0.3637724 0.8186,0.8125 V 8.8574315 C 14.353192,8.4095923 15.012765,8.1458332 15.725601,8.1458332 17.534052,8.1458332 19,9.8434165 19,11.937499 c 0,2.094084 -1.465948,3.791668 -3.274399,3.791668 -0.712836,0 -1.372409,-0.263793 -1.910065,-0.711642 V 15.1875 c 0,0.448717 -0.366514,0.8125 -0.8186,0.8125 -0.452085,0 -0.818599,-0.363783 -0.818599,-0.8125 V 3.8125 C 12.178337,3.3637724 12.544851,3 12.996936,3 Z m 2.728665,11.104166 c 0.676492,0 1.6372,-0.726049 1.6372,-2.166667 0,-1.440616 -0.960708,-2.1666659 -1.6372,-2.1666659 -0.67649,0 -1.637198,0.7260499 -1.637198,2.1666659 0,1.440618 0.960708,2.166667 1.637198,2.166667 z M 6.3433484,9.1610032 C 5.8429658,9.1801132 5.4161806,9.2958023 5.1771823,9.4144165 4.7728159,9.6150931 4.2810996,9.452409 4.0789164,9.0510556 3.8767332,8.6496916 4.0406387,8.1616499 4.4450051,7.9609732 4.9336544,7.7184691 5.5983354,7.5632599 6.2803708,7.5372057 c 0.6864557,-0.026228 1.4692552,0.075313 2.1712862,0.4238 1.550264,0.7695458 1.5456361,2.3020393 1.5439991,2.8461433 l -9.8e-5,0.04712 v 4.333118 c 0,0.448716 -0.3665039,0.812499 -0.8186001,0.812499 -0.431402,0 -0.7848623,-0.331283 -0.8163184,-0.751508 -0.9510926,0.583164 -2.0640824,0.921489 -3.2148478,0.61653 -2.2667351,-0.600816 -3.057273,-3.644225 -0.7894356,-5.144642 0.8453077,-0.559325 1.8583956,-0.706539 2.7572398,-0.661353 0.413873,0.0208 0.8224742,0.08314 1.2062337,0.175651 C 8.2596463,9.8977889 8.10659,9.6066106 7.7193378,9.4143732 7.3298918,9.2210631 6.8393105,9.1420556 6.3433484,9.1610032 Z m 2.01501,2.7758458 C 7.971772,11.804683 7.5080081,11.705774 7.0307864,11.681833 c -0.6863138,-0.03445 -1.3109489,0.08927 -1.7663523,0.390542 -1.0077834,0.666791 -0.7043995,1.955308 0.3037551,2.222567 0.8197019,0.217208 1.8207946,-0.198793 2.7901692,-1.079109 z"
     style="stroke-width:1.08739;fill:#eff0f1;fill-opacity:1" />
  <path
     style="fill:none;stroke:#eff0f1;stroke-width:1.46731px;stroke-linecap:butt;stroke-linejoin:miter;stroke-opacity:1;fill-opacity:1"
     d="m 1.7336471,13.001417 0.00998,5.16863 18.5176069,0.09314 0.0051,-5.257885" />
</svg>
