<?xml version="1.0" encoding="UTF-8" standalone="no"?>
<svg
   viewBox="0 0 22 22"
   version="1.1"
   id="svg6"
   sodipodi:docname="zoomFitPage.svg"
   inkscape:version="1.1.2 (0a00cf5339, 2022-02-04)"
   xmlns:inkscape="http://www.inkscape.org/namespaces/inkscape"
   xmlns:sodipodi="http://sodipodi.sourceforge.net/DTD/sodipodi-0.dtd"
   xmlns="http://www.w3.org/2000/svg"
   xmlns:svg="http://www.w3.org/2000/svg">
  <sodipodi:namedview
     id="namedview8"
     pagecolor="#ffffff"
     bordercolor="#666666"
     borderopacity="1.0"
     inkscape:pageshadow="2"
     inkscape:pageopacity="0.0"
     inkscape:pagecheckerboard="0"
     showgrid="false"
     inkscape:zoom="29.272727"
     inkscape:cx="11"
     inkscape:cy="11"
     inkscape:window-width="2580"
     inkscape:window-height="1080"
     inkscape:window-x="426"
     inkscape:window-y="146"
     inkscape:window-maximized="0"
     inkscape:current-layer="svg6" />
  <defs
     id="defs3051">
    <style
       type="text/css"
       id="current-color-scheme">
      .ColorScheme-Text {
        color:#eff0f1;
      }
      </style>
  </defs>
  <path
     style="fill:currentColor;fill-opacity:1;stroke:none;stroke-width:1.25"
     d="M 1,1 V 2.25 6 H 2.25 V 2.25 H 6 V 1 H 2.25 Z M 11,1 8.5,3.5 h 5 z m 5,0 v 1.25 h 3.75 V 6 H 21 V 2.25 1 H 19.75 Z M 4.75,4.75 v 12.5 h 12.5 V 4.75 Z M 6,6 H 16 V 16 H 6 Z M 3.5,8.5 1,11 3.5,13.5 Z m 15,0 v 5 L 21,11 Z M 1,16 V 19.75 21 H 6 V 19.75 H 2.25 V 16 Z m 18.75,0 v 3.75 H 16 V 21 h 5 V 19.75 16 Z M 8.5,18.5 11,21 13.5,18.5 Z"
     class="ColorScheme-Text"
     id="path4" />
</svg>
