<svg id="UI" xmlns="http://www.w3.org/2000/svg" width="44" height="44" viewBox="0 0 44 44">
  <title>SpaltButtonPickee_t5</title>
  <rect width="44" height="44" fill="none"/>
  <rect x="17" y="17" width="10" height="10" rx="1" ry="1" fill="#0288d1"/>
  <path d="M3585,239.5a2.5,2.5,0,0,1,2.5,2.5v8a2.5,2.5,0,0,1-2.5,2.5h-6a2.5,2.5,0,0,1-2.5-2.5v-8a2.5,2.5,0,0,1,2.5-2.5h6m0-1.5h-6a4,4,0,0,0-4,4v8a4,4,0,0,0,4,4h6a4,4,0,0,0,4-4v-8a4,4,0,0,0-4-4h0Z" transform="translate(-3560 -224)" fill="#0288d1"/>
  <line x1="30.83" y1="13.17" x2="33.9" y2="10.1" fill="none" stroke="#0288d1" stroke-linecap="round" stroke-miterlimit="10" stroke-width="1.5"/>
  <line x1="13.17" y1="13.17" x2="10.1" y2="10.1" fill="none" stroke="#0288d1" stroke-linecap="round" stroke-miterlimit="10" stroke-width="1.5"/>
  <line x1="13.17" y1="30.83" x2="10.1" y2="33.9" fill="none" stroke="#0288d1" stroke-linecap="round" stroke-miterlimit="10" stroke-width="1.5"/>
  <line x1="30.83" y1="30.83" x2="33.9" y2="33.9" fill="none" stroke="#0288d1" stroke-linecap="round" stroke-miterlimit="10" stroke-width="1.5"/>
  <line x1="9.51" y1="22" x2="5.17" y2="22" fill="none" stroke="#0288d1" stroke-linecap="round" stroke-miterlimit="10" stroke-width="1.5"/>
  <line x1="22" y1="9.51" x2="22" y2="5.17" fill="none" stroke="#0288d1" stroke-linecap="round" stroke-miterlimit="10" stroke-width="1.5"/>
  <line x1="34.49" y1="22" x2="38.83" y2="22" fill="none" stroke="#0288d1" stroke-linecap="round" stroke-miterlimit="10" stroke-width="1.5"/>
  <line x1="22" y1="34.49" x2="22" y2="38.83" fill="none" stroke="#0288d1" stroke-linecap="round" stroke-miterlimit="10" stroke-width="1.5"/>
</svg>
