<?xml version="1.0" encoding="UTF-8" standalone="no"?>
<!DOCTYPE svg PUBLIC "-//W3C//DTD SVG 1.1//EN"
 "http://www.w3.org/Graphics/SVG/1.1/DTD/svg11.dtd">
<!-- Generated by graphviz version 14.0.2 (20251019.1705)
 -->
<!-- Title: G Pages: 1 -->
<svg width="1145pt" height="588pt"
 viewBox="0.00 0.00 1145.00 588.00" xmlns="http://www.w3.org/2000/svg" xmlns:xlink="http://www.w3.org/1999/xlink">
<g id="graph0" class="graph" transform="scale(1 1) rotate(0) translate(4 584.19)">
<title>G</title><style>.edge>path:hover{stroke-width:8}</style>
<polygon fill="white" stroke="none" points="-4,4 -4,-584.19 1141.12,-584.19 1141.12,4 -4,4"/>
<!-- typechecked -->
<g id="node1" class="node">
<title>typechecked</title><style>.edge>path:hover{stroke-width:8}</style>
<polygon fill="blue" stroke="black" points="229.75,-568.67 158.25,-568.67 158.25,-532.67 229.75,-532.67 229.75,-568.67"/>
<text xml:space="preserve" text-anchor="middle" x="194" y="-546.79" font-family="Helvetica,sans-Serif" font-size="10.00" fill="white">typechecked</text>
</g>
<!-- typechecked__immutable -->
<g id="node14" class="node">
<title>typechecked__immutable</title><style>.edge>path:hover{stroke-width:8}</style>
<ellipse fill="#f91010" stroke="black" cx="155" cy="-100.7" rx="52.68" ry="21.57"/>
<text xml:space="preserve" text-anchor="middle" x="155" y="-102.45" font-family="Helvetica,sans-Serif" font-size="10.00" fill="#ffffff">typechecked.</text>
<text xml:space="preserve" text-anchor="middle" x="155" y="-91.2" font-family="Helvetica,sans-Serif" font-size="10.00" fill="#ffffff">_immutable</text>
</g>
<!-- typechecked&#45;&gt;typechecked__immutable -->
<g id="edge21" class="edge">
<title>typechecked&#45;&gt;typechecked__immutable</title><style>.edge>path:hover{stroke-width:8}</style>
<path fill="none" stroke="black" d="M157.96,-534.53C101.86,-508.27 0,-448.6 0,-361.58 0,-361.58 0,-361.58 0,-264.54 0,-210.3 22.09,-197.06 60,-158.27 74.24,-143.69 93.01,-131.48 110.1,-122.17"/>
<polygon fill="blue" stroke="black" points="111.34,-125.47 118.58,-117.73 108.1,-119.27 111.34,-125.47"/>
</g>
<!-- typechecked__typechecked -->
<g id="node15" class="node">
<title>typechecked__typechecked</title><style>.edge>path:hover{stroke-width:8}</style>
<polygon fill="blue" stroke="black" points="337.38,-473.63 260.62,-473.63 260.62,-437.63 337.38,-437.63 337.38,-473.63"/>
<text xml:space="preserve" text-anchor="middle" x="299" y="-457.38" font-family="Helvetica,sans-Serif" font-size="10.00" fill="white">typechecked.</text>
<text xml:space="preserve" text-anchor="middle" x="299" y="-446.13" font-family="Helvetica,sans-Serif" font-size="10.00" fill="white">_typechecked</text>
</g>
<!-- typechecked&#45;&gt;typechecked__typechecked -->
<g id="edge27" class="edge">
<title>typechecked&#45;&gt;typechecked__typechecked</title><style>.edge>path:hover{stroke-width:8}</style>
<path fill="none" stroke="black" d="M213.26,-532.6C229.44,-518.27 252.77,-497.59 271.02,-481.42"/>
<polygon fill="blue" stroke="black" points="273.21,-484.15 278.38,-474.9 268.57,-478.91 273.21,-484.15"/>
</g>
<!-- typechecked__cache -->
<g id="node2" class="node">
<title>typechecked__cache</title><style>.edge>path:hover{stroke-width:8}</style>
<ellipse fill="#f91010" stroke="black" cx="270" cy="-21.57" rx="52.68" ry="21.57"/>
<text xml:space="preserve" text-anchor="middle" x="270" y="-23.32" font-family="Helvetica,sans-Serif" font-size="10.00" fill="#ffffff">typechecked.</text>
<text xml:space="preserve" text-anchor="middle" x="270" y="-12.07" font-family="Helvetica,sans-Serif" font-size="10.00" fill="#ffffff">_cache</text>
</g>
<!-- typechecked__collections_abc -->
<g id="node3" class="node">
<title>typechecked__collections_abc</title><style>.edge>path:hover{stroke-width:8}</style>
<polygon fill="blue" stroke="black" points="677.38,-283.54 588.62,-283.54 588.62,-247.54 677.38,-247.54 677.38,-283.54"/>
<text xml:space="preserve" text-anchor="middle" x="633" y="-267.29" font-family="Helvetica,sans-Serif" font-size="10.00" fill="white">typechecked.</text>
<text xml:space="preserve" text-anchor="middle" x="633" y="-256.04" font-family="Helvetica,sans-Serif" font-size="10.00" fill="white">_collections_abc</text>
</g>
<!-- typechecked__collections_abc__callable -->
<g id="node4" class="node">
<title>typechecked__collections_abc__callable</title><style>.edge>path:hover{stroke-width:8}</style>
<polygon fill="blue" stroke="black" points="910.88,-200.02 819.12,-200.02 819.12,-158.27 910.88,-158.27 910.88,-200.02"/>
<text xml:space="preserve" text-anchor="middle" x="865" y="-186.52" font-family="Helvetica,sans-Serif" font-size="10.00" fill="white">typechecked.</text>
<text xml:space="preserve" text-anchor="middle" x="865" y="-175.27" font-family="Helvetica,sans-Serif" font-size="10.00" fill="white">_collections_abc.</text>
<text xml:space="preserve" text-anchor="middle" x="865" y="-164.02" font-family="Helvetica,sans-Serif" font-size="10.00" fill="white">_callable</text>
</g>
<!-- typechecked__collections_abc&#45;&gt;typechecked__collections_abc__callable -->
<g id="edge11" class="edge">
<title>typechecked__collections_abc&#45;&gt;typechecked__collections_abc__callable</title><style>.edge>path:hover{stroke-width:8}</style>
<path fill="none" stroke="black" d="M677.73,-248.27C714.88,-234.75 767.95,-215.45 808.12,-200.83"/>
<polygon fill="blue" stroke="black" points="809.19,-204.17 817.4,-197.46 806.8,-197.59 809.19,-204.17"/>
</g>
<!-- typechecked__collections_abc__collection -->
<g id="node5" class="node">
<title>typechecked__collections_abc__collection</title><style>.edge>path:hover{stroke-width:8}</style>
<polygon fill="blue" stroke="black" points="322.88,-200.02 231.12,-200.02 231.12,-158.27 322.88,-158.27 322.88,-200.02"/>
<text xml:space="preserve" text-anchor="middle" x="277" y="-186.52" font-family="Helvetica,sans-Serif" font-size="10.00" fill="white">typechecked.</text>
<text xml:space="preserve" text-anchor="middle" x="277" y="-175.27" font-family="Helvetica,sans-Serif" font-size="10.00" fill="white">_collections_abc.</text>
<text xml:space="preserve" text-anchor="middle" x="277" y="-164.02" font-family="Helvetica,sans-Serif" font-size="10.00" fill="white">_collection</text>
</g>
<!-- typechecked__collections_abc&#45;&gt;typechecked__collections_abc__collection -->
<g id="edge12" class="edge">
<title>typechecked__collections_abc&#45;&gt;typechecked__collections_abc__collection</title><style>.edge>path:hover{stroke-width:8}</style>
<path fill="none" stroke="black" d="M604.94,-247.09C597.11,-242.88 588.43,-238.8 580,-236.02 477.65,-202.22 442.32,-225.47 334.34,-200.3"/>
<polygon fill="blue" stroke="black" points="335.32,-196.94 324.78,-197.98 333.67,-203.74 335.32,-196.94"/>
</g>
<!-- typechecked__collections_abc__iterable -->
<g id="node6" class="node">
<title>typechecked__collections_abc__iterable</title><style>.edge>path:hover{stroke-width:8}</style>
<polygon fill="blue" stroke="black" points="432.88,-200.02 341.12,-200.02 341.12,-158.27 432.88,-158.27 432.88,-200.02"/>
<text xml:space="preserve" text-anchor="middle" x="387" y="-186.52" font-family="Helvetica,sans-Serif" font-size="10.00" fill="white">typechecked.</text>
<text xml:space="preserve" text-anchor="middle" x="387" y="-175.27" font-family="Helvetica,sans-Serif" font-size="10.00" fill="white">_collections_abc.</text>
<text xml:space="preserve" text-anchor="middle" x="387" y="-164.02" font-family="Helvetica,sans-Serif" font-size="10.00" fill="white">_iterable</text>
</g>
<!-- typechecked__collections_abc&#45;&gt;typechecked__collections_abc__iterable -->
<g id="edge13" class="edge">
<title>typechecked__collections_abc&#45;&gt;typechecked__collections_abc__iterable</title><style>.edge>path:hover{stroke-width:8}</style>
<path fill="none" stroke="black" d="M603.27,-247.11C595.82,-243.15 587.74,-239.18 580,-236.02 535.62,-217.89 483.27,-203.12 444.29,-193.33"/>
<polygon fill="blue" stroke="black" points="445.18,-189.95 434.63,-190.94 443.5,-196.74 445.18,-189.95"/>
</g>
<!-- typechecked__collections_abc__mapping -->
<g id="node7" class="node">
<title>typechecked__collections_abc__mapping</title><style>.edge>path:hover{stroke-width:8}</style>
<polygon fill="blue" stroke="black" points="580.88,-200.02 489.12,-200.02 489.12,-158.27 580.88,-158.27 580.88,-200.02"/>
<text xml:space="preserve" text-anchor="middle" x="535" y="-186.52" font-family="Helvetica,sans-Serif" font-size="10.00" fill="white">typechecked.</text>
<text xml:space="preserve" text-anchor="middle" x="535" y="-175.27" font-family="Helvetica,sans-Serif" font-size="10.00" fill="white">_collections_abc.</text>
<text xml:space="preserve" text-anchor="middle" x="535" y="-164.02" font-family="Helvetica,sans-Serif" font-size="10.00" fill="white">_mapping</text>
</g>
<!-- typechecked__collections_abc&#45;&gt;typechecked__collections_abc__mapping -->
<g id="edge14" class="edge">
<title>typechecked__collections_abc&#45;&gt;typechecked__collections_abc__mapping</title><style>.edge>path:hover{stroke-width:8}</style>
<path fill="none" stroke="black" d="M612.69,-247.05C599.48,-235.67 581.96,-220.59 566.91,-207.62"/>
<polygon fill="blue" stroke="black" points="569.39,-205.14 559.52,-201.26 564.82,-210.44 569.39,-205.14"/>
</g>
<!-- typechecked__collections_abc__sequence -->
<g id="node8" class="node">
<title>typechecked__collections_abc__sequence</title><style>.edge>path:hover{stroke-width:8}</style>
<polygon fill="blue" stroke="black" points="690.88,-200.02 599.12,-200.02 599.12,-158.27 690.88,-158.27 690.88,-200.02"/>
<text xml:space="preserve" text-anchor="middle" x="645" y="-186.52" font-family="Helvetica,sans-Serif" font-size="10.00" fill="white">typechecked.</text>
<text xml:space="preserve" text-anchor="middle" x="645" y="-175.27" font-family="Helvetica,sans-Serif" font-size="10.00" fill="white">_collections_abc.</text>
<text xml:space="preserve" text-anchor="middle" x="645" y="-164.02" font-family="Helvetica,sans-Serif" font-size="10.00" fill="white">_sequence</text>
</g>
<!-- typechecked__collections_abc&#45;&gt;typechecked__collections_abc__sequence -->
<g id="edge15" class="edge">
<title>typechecked__collections_abc&#45;&gt;typechecked__collections_abc__sequence</title><style>.edge>path:hover{stroke-width:8}</style>
<path fill="none" stroke="black" d="M635.49,-247.05C636.95,-236.73 638.85,-223.37 640.57,-211.31"/>
<polygon fill="blue" stroke="black" points="643.98,-212.17 641.92,-201.77 637.05,-211.18 643.98,-212.17"/>
</g>
<!-- typechecked__collections_abc__set -->
<g id="node9" class="node">
<title>typechecked__collections_abc__set</title><style>.edge>path:hover{stroke-width:8}</style>
<polygon fill="blue" stroke="black" points="800.88,-200.02 709.12,-200.02 709.12,-158.27 800.88,-158.27 800.88,-200.02"/>
<text xml:space="preserve" text-anchor="middle" x="755" y="-186.52" font-family="Helvetica,sans-Serif" font-size="10.00" fill="white">typechecked.</text>
<text xml:space="preserve" text-anchor="middle" x="755" y="-175.27" font-family="Helvetica,sans-Serif" font-size="10.00" fill="white">_collections_abc.</text>
<text xml:space="preserve" text-anchor="middle" x="755" y="-164.02" font-family="Helvetica,sans-Serif" font-size="10.00" fill="white">_set</text>
</g>
<!-- typechecked__collections_abc&#45;&gt;typechecked__collections_abc__set -->
<g id="edge16" class="edge">
<title>typechecked__collections_abc&#45;&gt;typechecked__collections_abc__set</title><style>.edge>path:hover{stroke-width:8}</style>
<path fill="none" stroke="black" d="M658.28,-247.05C675.12,-235.4 697.56,-219.88 716.59,-206.71"/>
<polygon fill="blue" stroke="black" points="718.42,-209.7 724.65,-201.14 714.44,-203.95 718.42,-209.7"/>
</g>
<!-- typechecked__collections_abc__callable&#45;&gt;typechecked__typechecked -->
<g id="edge28" class="edge">
<title>typechecked__collections_abc__callable&#45;&gt;typechecked__typechecked</title><style>.edge>path:hover{stroke-width:8}</style>
<path fill="none" stroke="black" d="M826.14,-200.4C799.26,-215.55 766.7,-236.56 757.44,-253.83"/>
<polygon fill="blue" stroke="black" points="754.14,-252.54 755.34,-263.06 760.97,-254.09 754.14,-252.54"/>
</g>
<!-- typechecked__collections_abc__collection&#45;&gt;typechecked__cache -->
<g id="edge1" class="edge">
<title>typechecked__collections_abc__collection&#45;&gt;typechecked__cache</title><style>.edge>path:hover{stroke-width:8}</style>
<path fill="none" stroke="black" d="M323.37,-161.05C379.81,-139.96 466.96,-106.3 461,-101.7"/>
</g>
<!-- typechecked__collections_abc__collection&#45;&gt;typechecked__typechecked -->
<g id="edge29" class="edge">
<title>typechecked__collections_abc__collection&#45;&gt;typechecked__typechecked</title><style>.edge>path:hover{stroke-width:8}</style>
<path fill="none" stroke="black" d="M387,-266.54C398.57,-306.24 395.28,-319.07 387,-359.58"/>
<path fill="none" stroke="black" d="M323.17,-198.89C346,-210.89 371.14,-228.94 382.93,-253.85"/>
<polygon fill="blue" stroke="black" points="379.63,-255.02 386.46,-263.12 386.17,-252.53 379.63,-255.02"/>
</g>
<!-- typechecked__collections_abc__iterable&#45;&gt;typechecked__cache -->
<g id="edge2" class="edge">
<title>typechecked__collections_abc__iterable&#45;&gt;typechecked__cache</title><style>.edge>path:hover{stroke-width:8}</style>
<path fill="none" stroke="black" d="M426.67,-157.89C454.34,-141.5 482.71,-118.46 461,-101.7"/>
</g>
<!-- typechecked__collections_abc__iterable&#45;&gt;typechecked__typechecked -->
<g id="edge30" class="edge">
<title>typechecked__collections_abc__iterable&#45;&gt;typechecked__typechecked</title><style>.edge>path:hover{stroke-width:8}</style>
<path fill="none" stroke="black" d="M383.88,-200.37C382.25,-214.83 381.21,-234.95 384.47,-253.53"/>
<polygon fill="blue" stroke="black" points="381.01,-254.1 386.66,-263.06 387.83,-252.53 381.01,-254.1"/>
</g>
<!-- typechecked__collections_abc__mapping&#45;&gt;typechecked__cache -->
<g id="edge3" class="edge">
<title>typechecked__collections_abc__mapping&#45;&gt;typechecked__cache</title><style>.edge>path:hover{stroke-width:8}</style>
<path fill="none" stroke="black" d="M518.44,-158.06C504.28,-141.65 482.79,-118.52 461,-101.7"/>
</g>
<!-- typechecked__collections_abc__mapping&#45;&gt;typechecked__typechecked -->
<g id="edge31" class="edge">
<title>typechecked__collections_abc__mapping&#45;&gt;typechecked__typechecked</title><style>.edge>path:hover{stroke-width:8}</style>
<path fill="none" stroke="black" d="M581.19,-197.02C617.99,-210.5 666.48,-228.37 686,-236.02 712.8,-246.51 741.24,-235.58 751.59,-253.89"/>
<polygon fill="blue" stroke="black" points="748.15,-254.64 754.54,-263.1 754.82,-252.51 748.15,-254.64"/>
<path fill="none" stroke="black" d="M755,-266.54C806.01,-441.67 456.46,-455.58 337.59,-455.31"/>
</g>
<!-- typechecked__collections_abc__sequence&#45;&gt;typechecked__cache -->
<g id="edge4" class="edge">
<title>typechecked__collections_abc__sequence&#45;&gt;typechecked__cache</title><style>.edge>path:hover{stroke-width:8}</style>
<path fill="none" stroke="black" d="M598.8,-160.4C548.15,-140.72 472.5,-110.58 461,-101.7"/>
</g>
<!-- typechecked__collections_abc__sequence&#45;&gt;typechecked__typechecked -->
<g id="edge32" class="edge">
<title>typechecked__collections_abc__sequence&#45;&gt;typechecked__typechecked</title><style>.edge>path:hover{stroke-width:8}</style>
<path fill="none" stroke="black" d="M691.28,-196.91C715.83,-208.66 742.83,-227.06 752.23,-253.56"/>
<polygon fill="blue" stroke="black" points="748.79,-254.23 754.63,-263.07 755.58,-252.52 748.79,-254.23"/>
</g>
<!-- typechecked__collections_abc__set&#45;&gt;typechecked__cache -->
<g id="edge5" class="edge">
<title>typechecked__collections_abc__set&#45;&gt;typechecked__cache</title><style>.edge>path:hover{stroke-width:8}</style>
<path fill="none" stroke="black" d="M708.91,-161.06C705.91,-160.08 702.92,-159.14 700,-158.27 595.39,-127.1 547.41,-168.4 461,-101.7"/>
</g>
<!-- typechecked__collections_abc__set&#45;&gt;typechecked__typechecked -->
<g id="edge33" class="edge">
<title>typechecked__collections_abc__set&#45;&gt;typechecked__typechecked</title><style>.edge>path:hover{stroke-width:8}</style>
<path fill="none" stroke="black" d="M753.29,-200.39C752.43,-214.69 751.88,-234.56 753.64,-253.35"/>
<polygon fill="blue" stroke="black" points="750.14,-253.53 754.82,-263.04 757.09,-252.69 750.14,-253.53"/>
</g>
<!-- typechecked__exceptions__error_tag -->
<g id="node10" class="node">
<title>typechecked__exceptions__error_tag</title><style>.edge>path:hover{stroke-width:8}</style>
<ellipse fill="#ce3b3b" stroke="black" cx="1020" cy="-360.58" rx="52.68" ry="29.52"/>
<text xml:space="preserve" text-anchor="middle" x="1020" y="-367.96" font-family="Helvetica,sans-Serif" font-size="10.00" fill="#ffffff">typechecked.</text>
<text xml:space="preserve" text-anchor="middle" x="1020" y="-356.71" font-family="Helvetica,sans-Serif" font-size="10.00" fill="#ffffff">_exceptions.</text>
<text xml:space="preserve" text-anchor="middle" x="1020" y="-345.46" font-family="Helvetica,sans-Serif" font-size="10.00" fill="#ffffff">_error_tag</text>
</g>
<!-- typechecked__exceptions__tagged_exception -->
<g id="node11" class="node">
<title>typechecked__exceptions__tagged_exception</title><style>.edge>path:hover{stroke-width:8}</style>
<ellipse fill="#c04040" stroke="black" cx="1068" cy="-455.63" rx="69.12" ry="29.52"/>
<text xml:space="preserve" text-anchor="middle" x="1068" y="-463" font-family="Helvetica,sans-Serif" font-size="10.00" fill="#ffffff">typechecked.</text>
<text xml:space="preserve" text-anchor="middle" x="1068" y="-451.75" font-family="Helvetica,sans-Serif" font-size="10.00" fill="#ffffff">_exceptions.</text>
<text xml:space="preserve" text-anchor="middle" x="1068" y="-440.5" font-family="Helvetica,sans-Serif" font-size="10.00" fill="#ffffff">_tagged_exception</text>
</g>
<!-- typechecked__exceptions__tagged_exception&#45;&gt;typechecked__exceptions__error_tag -->
<g id="edge17" class="edge">
<title>typechecked__exceptions__tagged_exception&#45;&gt;typechecked__exceptions__error_tag</title><style>.edge>path:hover{stroke-width:8}</style>
<path fill="none" stroke="black" d="M1053.47,-426.46C1049.06,-417.91 1044.14,-408.37 1039.46,-399.3"/>
<polygon fill="#c04040" stroke="black" points="1042.71,-397.96 1035.01,-390.68 1036.49,-401.17 1042.71,-397.96"/>
</g>
<!-- typechecked__exceptions__type_check_error -->
<g id="node12" class="node">
<title>typechecked__exceptions__type_check_error</title><style>.edge>path:hover{stroke-width:8}</style>
<ellipse fill="#ac4949" stroke="black" cx="1019" cy="-550.67" rx="68.06" ry="29.52"/>
<text xml:space="preserve" text-anchor="middle" x="1019" y="-558.04" font-family="Helvetica,sans-Serif" font-size="10.00" fill="#ffffff">typechecked.</text>
<text xml:space="preserve" text-anchor="middle" x="1019" y="-546.79" font-family="Helvetica,sans-Serif" font-size="10.00" fill="#ffffff">_exceptions.</text>
<text xml:space="preserve" text-anchor="middle" x="1019" y="-535.54" font-family="Helvetica,sans-Serif" font-size="10.00" fill="#ffffff">_type_check_error</text>
</g>
<!-- typechecked__exceptions__type_check_error&#45;&gt;typechecked__exceptions__error_tag -->
<g id="edge18" class="edge">
<title>typechecked__exceptions__type_check_error&#45;&gt;typechecked__exceptions__error_tag</title><style>.edge>path:hover{stroke-width:8}</style>
<path fill="none" stroke="black" d="M1003.3,-521.65C997.97,-510.63 992.68,-497.64 990,-485.15 984.5,-459.49 984.33,-451.73 990,-426.1 992.01,-417.01 995.44,-407.68 999.27,-399.04"/>
<polygon fill="#ac4949" stroke="black" points="1002.31,-400.81 1003.43,-390.28 995.98,-397.81 1002.31,-400.81"/>
</g>
<!-- typechecked__exceptions__type_check_error&#45;&gt;typechecked__exceptions__tagged_exception -->
<g id="edge19" class="edge">
<title>typechecked__exceptions__type_check_error&#45;&gt;typechecked__exceptions__tagged_exception</title><style>.edge>path:hover{stroke-width:8}</style>
<path fill="none" stroke="black" d="M1033.83,-521.5C1038.25,-513.12 1043.16,-503.79 1047.85,-494.88"/>
<polygon fill="#ac4949" stroke="black" points="1050.95,-496.52 1052.51,-486.04 1044.75,-493.25 1050.95,-496.52"/>
</g>
<!-- typechecked__generic -->
<g id="node13" class="node">
<title>typechecked__generic</title><style>.edge>path:hover{stroke-width:8}</style>
<polygon fill="blue" stroke="black" points="516.25,-378.58 441.75,-378.58 441.75,-342.58 516.25,-342.58 516.25,-378.58"/>
<text xml:space="preserve" text-anchor="middle" x="479" y="-362.33" font-family="Helvetica,sans-Serif" font-size="10.00" fill="white">typechecked.</text>
<text xml:space="preserve" text-anchor="middle" x="479" y="-351.08" font-family="Helvetica,sans-Serif" font-size="10.00" fill="white">_generic</text>
</g>
<!-- typechecked__generic&#45;&gt;typechecked__cache -->
<g id="edge6" class="edge">
<title>typechecked__generic&#45;&gt;typechecked__cache</title><style>.edge>path:hover{stroke-width:8}</style>
<path fill="none" stroke="black" d="M437,-264.54C414.9,-235.4 489.96,-124.05 461,-101.7"/>
</g>
<!-- typechecked__generic&#45;&gt;typechecked__collections_abc -->
<g id="edge10" class="edge">
<title>typechecked__generic&#45;&gt;typechecked__collections_abc</title><style>.edge>path:hover{stroke-width:8}</style>
<path fill="none" stroke="black" d="M507.61,-342.3C532.16,-327.46 567.77,-305.95 594.77,-289.64"/>
<polygon fill="blue" stroke="black" points="596.24,-292.84 602.99,-284.67 592.62,-286.84 596.24,-292.84"/>
</g>
<!-- typechecked__generic&#45;&gt;typechecked__immutable -->
<g id="edge22" class="edge">
<title>typechecked__generic&#45;&gt;typechecked__immutable</title><style>.edge>path:hover{stroke-width:8}</style>
<path fill="none" stroke="black" d="M437,-264.54C376.69,-185.07 305.15,-255.15 222,-200.02 197.29,-183.63 179.23,-154.72 168.13,-132.48"/>
<polygon fill="blue" stroke="black" points="171.34,-131.07 163.89,-123.54 165.02,-134.08 171.34,-131.07"/>
<path fill="none" stroke="black" d="M473.79,-342.21C467.31,-322.53 454.89,-290.12 437,-266.54"/>
</g>
<!-- typechecked__types -->
<g id="node16" class="node">
<title>typechecked__types</title><style>.edge>path:hover{stroke-width:8}</style>
<ellipse fill="#c24747" stroke="black" cx="518" cy="-265.54" rx="52.68" ry="21.57"/>
<text xml:space="preserve" text-anchor="middle" x="518" y="-267.29" font-family="Helvetica,sans-Serif" font-size="10.00" fill="#ffffff">typechecked.</text>
<text xml:space="preserve" text-anchor="middle" x="518" y="-256.04" font-family="Helvetica,sans-Serif" font-size="10.00" fill="#ffffff">_types</text>
</g>
<!-- typechecked__generic&#45;&gt;typechecked__types -->
<g id="edge36" class="edge">
<title>typechecked__generic&#45;&gt;typechecked__types</title><style>.edge>path:hover{stroke-width:8}</style>
<path fill="none" stroke="black" d="M486.15,-342.52C491.43,-329.94 498.75,-312.47 505.04,-297.46"/>
<polygon fill="blue" stroke="black" points="508.17,-299.04 508.81,-288.46 501.72,-296.33 508.17,-299.04"/>
</g>
<!-- typechecked__typechecked&#45;&gt;typechecked__cache -->
<g id="edge7" class="edge">
<title>typechecked__typechecked&#45;&gt;typechecked__cache</title><style>.edge>path:hover{stroke-width:8}</style>
<path fill="none" stroke="black" d="M337.8,-452.29C432.47,-446.06 672.63,-426.98 743,-390.1 845.25,-336.52 877.73,-307.44 920,-200.02 926.79,-182.75 932.29,-172.17 920,-158.27 783.84,-4.29 623.15,-228.02 461,-101.7"/>
</g>
<!-- typechecked__typechecked&#45;&gt;typechecked__generic -->
<g id="edge20" class="edge">
<title>typechecked__typechecked&#45;&gt;typechecked__generic</title><style>.edge>path:hover{stroke-width:8}</style>
<path fill="none" stroke="black" d="M332.43,-437.34C361.52,-422.31 403.85,-400.43 435.55,-384.04"/>
<polygon fill="blue" stroke="black" points="436.82,-387.33 444.09,-379.62 433.6,-381.11 436.82,-387.33"/>
</g>
<!-- typechecked__typechecked&#45;&gt;typechecked__immutable -->
<g id="edge23" class="edge">
<title>typechecked__typechecked&#45;&gt;typechecked__immutable</title><style>.edge>path:hover{stroke-width:8}</style>
<path fill="none" stroke="black" d="M127,-178.14C126.03,-162.45 131.19,-145.96 137.34,-132.33"/>
<polygon fill="blue" stroke="black" points="140.44,-133.95 141.71,-123.44 134.16,-130.86 140.44,-133.95"/>
<path fill="none" stroke="black" d="M260.24,-446.19C229.59,-437.44 188.22,-420.62 165,-390.1 107.57,-314.64 132.86,-274.79 127,-180.14"/>
</g>
<!-- typechecked__typing -->
<g id="node17" class="node">
<title>typechecked__typing</title><style>.edge>path:hover{stroke-width:8}</style>
<polygon fill="blue" stroke="black" points="248.25,-378.58 173.75,-378.58 173.75,-342.58 248.25,-342.58 248.25,-378.58"/>
<text xml:space="preserve" text-anchor="middle" x="211" y="-362.33" font-family="Helvetica,sans-Serif" font-size="10.00" fill="white">typechecked.</text>
<text xml:space="preserve" text-anchor="middle" x="211" y="-351.08" font-family="Helvetica,sans-Serif" font-size="10.00" fill="white">_typing</text>
</g>
<!-- typechecked__typechecked&#45;&gt;typechecked__typing -->
<g id="edge37" class="edge">
<title>typechecked__typechecked&#45;&gt;typechecked__typing</title><style>.edge>path:hover{stroke-width:8}</style>
<path fill="none" stroke="black" d="M282.86,-437.56C269.42,-423.35 250.1,-402.92 234.87,-386.82"/>
<polygon fill="blue" stroke="black" points="237.79,-384.81 228.38,-379.95 232.7,-389.62 237.79,-384.81"/>
</g>
<!-- typechecked__typing__literal -->
<g id="node18" class="node">
<title>typechecked__typing__literal</title><style>.edge>path:hover{stroke-width:8}</style>
<ellipse fill="#c04040" stroke="black" cx="211" cy="-265.54" rx="52.68" ry="29.52"/>
<text xml:space="preserve" text-anchor="middle" x="211" y="-272.91" font-family="Helvetica,sans-Serif" font-size="10.00" fill="#ffffff">typechecked.</text>
<text xml:space="preserve" text-anchor="middle" x="211" y="-261.66" font-family="Helvetica,sans-Serif" font-size="10.00" fill="#ffffff">_typing.</text>
<text xml:space="preserve" text-anchor="middle" x="211" y="-250.41" font-family="Helvetica,sans-Serif" font-size="10.00" fill="#ffffff">_literal</text>
</g>
<!-- typechecked__typing&#45;&gt;typechecked__typing__literal -->
<g id="edge38" class="edge">
<title>typechecked__typing&#45;&gt;typechecked__typing__literal</title><style>.edge>path:hover{stroke-width:8}</style>
<path fill="none" stroke="black" d="M211,-342.52C211,-332.47 211,-319.32 211,-306.79"/>
<polygon fill="blue" stroke="black" points="214.5,-307.07 211,-297.07 207.5,-307.07 214.5,-307.07"/>
</g>
<!-- typechecked__typing__typeddict -->
<g id="node19" class="node">
<title>typechecked__typing__typeddict</title><style>.edge>path:hover{stroke-width:8}</style>
<polygon fill="blue" stroke="black" points="102.25,-286.41 27.75,-286.41 27.75,-244.66 102.25,-244.66 102.25,-286.41"/>
<text xml:space="preserve" text-anchor="middle" x="65" y="-272.91" font-family="Helvetica,sans-Serif" font-size="10.00" fill="white">typechecked.</text>
<text xml:space="preserve" text-anchor="middle" x="65" y="-261.66" font-family="Helvetica,sans-Serif" font-size="10.00" fill="white">_typing.</text>
<text xml:space="preserve" text-anchor="middle" x="65" y="-250.41" font-family="Helvetica,sans-Serif" font-size="10.00" fill="white">_typeddict</text>
</g>
<!-- typechecked__typing&#45;&gt;typechecked__typing__typeddict -->
<g id="edge39" class="edge">
<title>typechecked__typing&#45;&gt;typechecked__typing__typeddict</title><style>.edge>path:hover{stroke-width:8}</style>
<path fill="none" stroke="black" d="M183.88,-342.3C162.11,-328.43 131.19,-308.72 106.34,-292.89"/>
<polygon fill="blue" stroke="black" points="108.39,-290.04 98.08,-287.62 104.63,-295.95 108.39,-290.04"/>
</g>
<!-- typechecked__typing__union -->
<g id="node20" class="node">
<title>typechecked__typing__union</title><style>.edge>path:hover{stroke-width:8}</style>
<polygon fill="blue" stroke="black" points="356.25,-286.41 281.75,-286.41 281.75,-244.66 356.25,-244.66 356.25,-286.41"/>
<text xml:space="preserve" text-anchor="middle" x="319" y="-272.91" font-family="Helvetica,sans-Serif" font-size="10.00" fill="white">typechecked.</text>
<text xml:space="preserve" text-anchor="middle" x="319" y="-261.66" font-family="Helvetica,sans-Serif" font-size="10.00" fill="white">_typing.</text>
<text xml:space="preserve" text-anchor="middle" x="319" y="-250.41" font-family="Helvetica,sans-Serif" font-size="10.00" fill="white">_union</text>
</g>
<!-- typechecked__typing&#45;&gt;typechecked__typing__union -->
<g id="edge40" class="edge">
<title>typechecked__typing&#45;&gt;typechecked__typing__union</title><style>.edge>path:hover{stroke-width:8}</style>
<path fill="none" stroke="black" d="M231.06,-342.3C246.79,-328.75 268.97,-309.64 287.13,-294"/>
<polygon fill="blue" stroke="black" points="289.23,-296.81 294.52,-287.63 284.66,-291.5 289.23,-296.81"/>
</g>
<!-- typechecked__typing__literal&#45;&gt;typechecked__immutable -->
<g id="edge24" class="edge">
<title>typechecked__typing__literal&#45;&gt;typechecked__immutable</title><style>.edge>path:hover{stroke-width:8}</style>
<path fill="none" stroke="black" d="M173.6,-244.47C151.99,-229.94 128.72,-208 127,-180.14"/>
</g>
<!-- typechecked__typing__typeddict&#45;&gt;typechecked__cache -->
<g id="edge8" class="edge">
<title>typechecked__typing__typeddict&#45;&gt;typechecked__cache</title><style>.edge>path:hover{stroke-width:8}</style>
<path fill="none" stroke="black" d="M74,-178.14C86.82,-135.21 63.27,-112.66 93,-79.13 121.54,-46.95 168.37,-32.95 206.69,-26.92"/>
<polygon fill="blue" stroke="black" points="206.85,-30.43 216.27,-25.57 205.88,-23.5 206.85,-30.43"/>
<path fill="none" stroke="black" d="M64.8,-244.26C65.18,-226.85 67.06,-201.28 74,-180.14"/>
</g>
<!-- typechecked__typing__typeddict&#45;&gt;typechecked__immutable -->
<g id="edge25" class="edge">
<title>typechecked__typing__typeddict&#45;&gt;typechecked__immutable</title><style>.edge>path:hover{stroke-width:8}</style>
<path fill="none" stroke="black" d="M74,-178.14C80.6,-156.05 98.62,-137.96 115.99,-124.93"/>
<polygon fill="blue" stroke="black" points="117.58,-128.1 123.71,-119.46 113.53,-122.38 117.58,-128.1"/>
</g>
<!-- typechecked__typing__typeddict&#45;&gt;typechecked__typechecked -->
<g id="edge34" class="edge">
<title>typechecked__typing__typeddict&#45;&gt;typechecked__typechecked</title><style>.edge>path:hover{stroke-width:8}</style>
<path fill="none" stroke="black" d="M68.06,-286.5C73.23,-313.58 86.2,-361.83 116,-390.1 152.44,-424.68 208.53,-440.87 249,-448.36"/>
<polygon fill="blue" stroke="black" points="248.3,-451.79 258.75,-450.03 249.48,-444.89 248.3,-451.79"/>
</g>
<!-- typechecked__typing__union&#45;&gt;typechecked__cache -->
<g id="edge9" class="edge">
<title>typechecked__typing__union&#45;&gt;typechecked__cache</title><style>.edge>path:hover{stroke-width:8}</style>
<path fill="none" stroke="black" d="M461,-99.7C420.76,-68.64 366.33,-48.29 325.86,-36.34"/>
<polygon fill="blue" stroke="black" points="326.88,-32.99 316.3,-33.6 324.95,-39.72 326.88,-32.99"/>
<path fill="none" stroke="black" d="M165,-178.14C165.65,-42.27 568.56,-184.72 461,-101.7"/>
</g>
<!-- typechecked__typing__union&#45;&gt;typechecked__immutable -->
<g id="edge26" class="edge">
<title>typechecked__typing__union&#45;&gt;typechecked__immutable</title><style>.edge>path:hover{stroke-width:8}</style>
<path fill="none" stroke="black" d="M287.69,-244.26C282.84,-241.37 277.83,-238.53 273,-236.02 225.06,-211.06 164.74,-234.18 165,-180.14"/>
<path fill="none" stroke="black" d="M165,-178.14C165.07,-163.55 163.27,-147.51 161.17,-133.92"/>
<polygon fill="blue" stroke="black" points="164.65,-133.47 159.54,-124.19 157.74,-134.63 164.65,-133.47"/>
</g>
<!-- typechecked__typing__union&#45;&gt;typechecked__typechecked -->
<g id="edge35" class="edge">
<title>typechecked__typing__union&#45;&gt;typechecked__typechecked</title><style>.edge>path:hover{stroke-width:8}</style>
<path fill="none" stroke="black" d="M348.26,-286.76C366.49,-301.72 386.7,-323.68 387.87,-348.17"/>
<polygon fill="blue" stroke="black" points="384.39,-347.84 387.12,-358.07 391.37,-348.37 384.39,-347.84"/>
<path fill="none" stroke="black" d="M387,-361.58C380.23,-394.69 350.48,-421.29 327.42,-437.43"/>
</g>
</g>
</svg>
