<svg width="383" height="389" viewBox="0 0 383 389" fill="none" xmlns="http://www.w3.org/2000/svg">
<path d="M105.898 292.621C2.0394 233.991 28.5571 56.6279 161.177 35.2082C323.666 8.96442 355.556 140.484 355.556 173.428C355.556 204.989 347.799 272.112 286.254 293.897C308.59 305.464 326.196 294.997 334.275 299.951C355.391 312.901 326.658 340.273 281.936 337.85C295.046 362.554 228.818 356.351 187.421 329.673C126.628 376.716 105.34 352.926 107.015 336.733C45.5929 355.718 19.3491 304.905 61.7859 303.23C95.7354 301.89 101.989 296.343 105.898 292.621Z" fill="#FF98B6"/>
<path d="M277.879 296.53C280.764 295.732 283.555 294.853 286.254 293.897M107.015 336.733C45.5929 355.718 19.3491 304.905 61.7859 303.23C95.7354 301.89 101.989 296.344 105.898 292.621C2.0394 233.991 28.5571 56.6279 161.177 35.2082C323.666 8.96442 355.556 140.484 355.556 173.428C355.556 204.989 347.8 272.112 286.254 293.897M107.015 336.733C105.34 352.926 126.628 376.716 187.421 329.673M107.015 336.733C107.708 330.032 115.39 320.763 139.959 312.723M187.421 329.673C189.778 327.85 192.197 325.924 194.68 323.89L187.421 329.673ZM187.421 329.673C228.818 356.351 295.046 362.554 281.936 337.85M259.452 316.073C271.868 325.013 278.955 332.231 281.936 337.85M281.936 337.85C326.658 340.273 355.391 312.901 334.275 299.951C326.196 294.997 308.59 305.464 286.254 293.897" stroke="#3E0816" stroke-width="6.70055" stroke-linecap="round" stroke-linejoin="round"/>
<circle cx="139.879" cy="140.166" r="6.46124" fill="#3E0816" stroke="#3E0816" stroke-width="1.43583"/>
<circle cx="246.131" cy="140.166" r="6.46124" fill="#3E0816" stroke="#3E0816" stroke-width="1.43583"/>
<path d="M191.413 171.842C187.476 166.818 178.026 166.215 175.664 171.842C172.711 178.877 184.042 184.038 187.98 184.038C183.386 185.712 176.202 194.241 180.585 197.971C184.969 201.701 193.466 195.365 194.122 192.35" stroke="#3E0816" stroke-width="6.70055" stroke-linecap="round" stroke-linejoin="round"/>
</svg>
