<?xml version="1.0" encoding="UTF-8" standalone="no"?>
<!-- Created with Inkscape (http://www.inkscape.org/) -->

<svg
   width="48"
   height="48"
   viewBox="0 0 12.7 12.7"
   version="1.1"
   id="svg5129"
   sodipodi:docname="ollama48-dark.svg"
   inkscape:version="1.2.2 (b0a8486541, 2022-12-01)"
   xmlns:inkscape="http://www.inkscape.org/namespaces/inkscape"
   xmlns:sodipodi="http://sodipodi.sourceforge.net/DTD/sodipodi-0.dtd"
   xmlns="http://www.w3.org/2000/svg"
   xmlns:svg="http://www.w3.org/2000/svg">
  <sodipodi:namedview
     id="namedview5131"
     pagecolor="#ffffff"
     bordercolor="#000000"
     borderopacity="0.25"
     inkscape:showpageshadow="2"
     inkscape:pageopacity="0.0"
     inkscape:pagecheckerboard="0"
     inkscape:deskcolor="#d1d1d1"
     inkscape:document-units="mm"
     showgrid="false"
     inkscape:zoom="10.35098"
     inkscape:cx="88.059296"
     inkscape:cy="48.014778"
     inkscape:window-width="2580"
     inkscape:window-height="1325"
     inkscape:window-x="861"
     inkscape:window-y="0"
     inkscape:window-maximized="0"
     inkscape:current-layer="layer1" />
  <defs
     id="defs5126" />
  <g
     inkscape:label="Ebene 1"
     inkscape:groupmode="layer"
     id="layer1">
    <g
       fill="#7d7d87"
       id="g3912"
       transform="matrix(0.05009,0,0,0.04904635,1.8310635,-0.38516287)"
       style="fill:#eff0f1;fill-opacity:1">
      <path
         d="M 37.7,19.5 C 32.5,21.3 29.4,24.4 26,31.1 21.5,40 19.8,50.3 20.2,66.6 l 0.3,14.2 -5.8,6.1 c -14.8,15.5 -18.5,38.7 -9.2,57.4 l 3.4,6.9 -2,4.4 c -3.4,8.2 -5,16.4 -5,26.3 0,10.8 1.8,19 5.8,26.2 l 2.6,4.8 -2.1,4.9 c -1.2,2.7 -2.6,7.1 -3.2,9.8 -1.4,6.2 -1.5,22.1 -0.1,25.7 1,2.6 1.4,2.7 7.6,2.7 7.3,0 7,0.4 5.3,-8.6 -1.5,-8.2 0.2,-18.8 4.2,-26.6 3.7,-7 3.8,-10.4 0.5,-14.8 -4.7,-6.4 -6.8,-13.6 -6.9,-24 -0.1,-10.3 1.4,-16 6.6,-26.1 3.1,-6.1 2.9,-8.7 -1,-12.2 -1.1,-1 -3.1,-4.2 -4.3,-7 -1.9,-4.2 -2.4,-6.9 -2.3,-14.2 0,-11.4 2.5,-18.3 9.5,-26 7,-7.6 14.2,-11 23.9,-11.2 4.1,0 7.8,-0.2 8.2,-0.2 0.4,-0.1 1.7,-2.2 2.9,-4.7 3,-5.9 9.6,-11.9 16.7,-15.2 4.9,-2.3 7,-2.7 14.7,-2.7 7.9,0 9.7,0.4 14.9,2.9 6.8,3.3 13.3,9.4 15.9,14.8 1,2 2.3,4.1 3,4.5 0.6,0.4 4.6,0.8 8.7,0.8 6.7,0.1 8.3,0.5 14,3.6 12.3,6.8 19.3,18.7 19.3,33.4 0.1,6.7 -0.4,9 -2.7,14.2 -1.6,3.5 -3.5,6.8 -4.3,7.5 -3.4,2.8 -3.5,5.8 -0.5,11.7 5.2,10.1 6.7,15.8 6.6,26.1 -0.1,10.4 -2.2,17.6 -6.9,24 -3.3,4.4 -3.2,7.8 0.5,14.8 4,7.8 5.7,18.4 4.2,26.6 -1.7,9 -2,8.6 5.3,8.6 6.2,0 6.6,-0.1 7.6,-2.7 1.4,-3.6 1.3,-19.5 -0.1,-25.7 -0.6,-2.7 -2,-7.1 -3.2,-9.8 l -2.1,-4.9 2.6,-4.8 c 7.6,-13.9 7.9,-35.9 0.6,-52.8 l -2,-4.7 2.5,-4.6 c 9.9,-18.3 6.4,-43.9 -8.1,-59.1 l -5.8,-6.1 0.3,-14.2 C 161.2,50.2 159.5,40 155,30.9 148.6,18.3 137.8,15 128.7,23 c -5.4,4.7 -9.2,13.8 -12.3,29.8 -0.3,1.4 -1,2.2 -1.7,1.8 C 96.5,46.6 85,46.1 70.4,52.5 L 65,54.9 64.6,52.7 C 61,34.2 56.1,24.2 49,20.5 44.7,18.4 41.6,18.1 37.7,19.5 m 7.7,16.8 c 4.2,7.1 8.1,30.1 5.7,33.6 -0.5,0.8 -3.1,1.6 -5.8,1.8 -2.6,0.2 -6.2,0.8 -8,1.3 l -3.1,0.8 -0.7,-4.9 C 32.7,63 33.7,51.7 35.7,44.1 37.1,38.4 40.5,32 42,32 c 0.5,0 2,1.9 3.4,4.3 m 96.5,-1 c 4,6.5 6.9,23.9 5.6,33.6 l -0.7,4.9 -3.1,-0.8 c -1.8,-0.5 -5.4,-1.1 -8,-1.3 -2.7,-0.2 -5.3,-1 -5.8,-1.8 -1.2,-1.7 -0.3,-14.1 1.7,-22.9 1.5,-6.4 5.7,-15 7.4,-15 0.4,0 1.8,1.5 2.9,3.3"
         id="path3906"
         style="fill:#eff0f1;fill-opacity:1" />
      <path
         d="m 77.8,119.9 c -7.3,2.4 -11.6,5.1 -16.5,10.4 -5.5,6 -7.6,12 -7.1,20.1 0.5,7.6 3.5,12.9 10.6,18.3 6.2,4.7 12.7,6.3 25.7,6.3 17.2,0 25.8,-3.6 32.9,-13.8 4.2,-5.9 4.8,-15.5 1.6,-23 -2.9,-6.8 -11.1,-14.3 -18.8,-17.3 -8,-3.1 -20.7,-3.6 -28.4,-1 m 25.7,10 c 16.1,7.1 19.4,23.2 6.6,31.8 -4.9,3.3 -9.4,4.3 -19.6,4.3 -10.2,0 -14.7,-1 -19.6,-4.3 -17.8,-12 -3.2,-35.6 21.1,-34.3 3.9,0.2 8.6,1.2 11.5,2.5"
         id="path3908"
         style="fill:#eff0f1;fill-opacity:1" />
      <path
         d="m 83.8,140.1 c -2.5,1.4 -2.2,4.4 0.7,6.7 2,1.6 2.4,2.6 1.9,4.9 -0.7,3.6 1.5,5.8 5.1,4.9 2.1,-0.5 2.5,-1.2 2.5,-4.6 0,-2.9 0.5,-4.2 2,-5 2.7,-1.5 2.7,-6.6 0,-7.5 -1,-0.3 -2.8,-0.1 -4,0.5 -1.4,0.7 -2.6,0.8 -3.9,0 -2.3,-1.2 -2.2,-1.2 -4.3,0.1 M 39.7,121.2 c -0.9,0.7 -2.3,3 -3.2,5 -2.1,5.3 -0.1,10.3 4.7,11.6 4.3,1.1 6,0.6 9.2,-2.7 4,-4.1 4.3,-8.1 1.1,-11.9 -2.1,-2.5 -3.4,-3.2 -6.4,-3.2 -2,0 -4.5,0.6 -5.4,1.2 m 89.8,2 c -3.2,3.8 -2.9,7.8 1.1,11.9 3.2,3.3 4.9,3.8 9.2,2.7 4.9,-1.3 6.8,-6.2 4.6,-11.8 -1.9,-4.7 -3.8,-6 -8.7,-6 -2.7,0 -4.1,0.7 -6.2,3.2"
         id="path3910"
         style="fill:#eff0f1;fill-opacity:1" />
    </g>
  </g>
</svg>
