<?xml version="1.0" encoding="UTF-8" standalone="no"?>
<svg
   version="1.1"
   viewBox="0 0 48 48"
   id="svg24"
   sodipodi:docname="chrome_unknown.svg"
   inkscape:version="1.1.2 (0a00cf5339, 2022-02-04)"
   xmlns:inkscape="http://www.inkscape.org/namespaces/inkscape"
   xmlns:sodipodi="http://sodipodi.sourceforge.net/DTD/sodipodi-0.dtd"
   xmlns="http://www.w3.org/2000/svg"
   xmlns:svg="http://www.w3.org/2000/svg">
  <defs
     id="defs28" />
  <sodipodi:namedview
     id="namedview26"
     pagecolor="#ffffff"
     bordercolor="#666666"
     borderopacity="1.0"
     inkscape:pageshadow="2"
     inkscape:pageopacity="0.0"
     inkscape:pagecheckerboard="0"
     showgrid="false"
     inkscape:zoom="13.416667"
     inkscape:cx="24"
     inkscape:cy="24"
     inkscape:window-width="2580"
     inkscape:window-height="1080"
     inkscape:window-x="426"
     inkscape:window-y="146"
     inkscape:window-maximized="0"
     inkscape:current-layer="svg24" />
  <g
     stroke-width="1.1"
     id="g22">
    <path
       d="m46 24c0 12.148-9.8516 22-22 22s-22-9.8516-22-22 9.8516-22 22-22 22 9.8516 22 22z"
       fill="#4caf50"
       id="path2" />
    <path
       d="m24 2v22l8.8 4.4-9.7273 17.6h0.9273c12.158 0 22-9.8417 22-22s-9.8417-22-22-22z"
       fill="#ffc107"
       id="path4" />
    <path
       d="m46 24c0 12.148-9.8516 22-22 22s-22-9.8516-22-22 9.8516-22 22-22 22 9.8516 22 22z"
       fill="#4caf50"
       id="path6" />
    <path
       d="m24 2v22l8.8 4.4-9.7273 17.6h0.9273c12.158 0 22-9.8417 22-22s-9.8417-22-22-22z"
       fill="#ffc107"
       id="path8" />
    <path
       d="M 43.624,14.1 H 24 V 28.4 L 20.7,27.3 5.476,12.186 H 5.454 C 9.348,6.059 16.201,2 24,2 32.58,2 40.005,6.928 43.624,14.1 Z"
       fill="#f44336"
       id="path10" />
    <path
       d="m5.4738 12.19 9.7273 16.348 5.4989-1.2386z"
       fill="#dd2c00"
       id="path12" />
    <path
       d="m23.073 46 9.8274-17.665-4.5001-3.2351z"
       fill="#558b2f"
       id="path14" />
    <path
       d="m43.652 14.1h-19.652l-1.7369 5.038z"
       fill="#f9a825"
       id="path16" />
    <path
       d="m33.9 24c0 5.4659-4.4341 9.9-9.9 9.9s-9.9-4.4341-9.9-9.9 4.4341-9.9 9.9-9.9 9.9 4.4341 9.9 9.9z"
       fill="#fff"
       id="path18" />
    <path
       d="m31.7 24c0 4.2537-3.4463 7.7-7.7 7.7s-7.7-3.4463-7.7-7.7 3.4463-7.7 7.7-7.7 7.7 3.4463 7.7 7.7z"
       fill="#2196f3"
       id="path20" />
  </g>
  <path
     d="M 23.999999,8 A 11,10.666667 0 0 0 13,18.666666 h 5.500001 a 5.4999999,5.3333334 0 0 1 5.499998,-5.333332 5.4999999,5.3333334 0 0 1 5.5,5.333332 5.4999999,5.3333334 0 0 1 -5.5,5.333334 H 21.25 v 8 h 5.5 V 28.978666 A 11,10.666667 0 0 0 35,18.666666 11,10.666667 0 0 0 23.999999,8 Z M 21.25,34.666666 V 40 h 5.5 v -5.333334 z"
     fill="#ffffff"
     id="path7"
     style="fill:#232629;fill-opacity:1;stroke-width:2.70801" />
</svg>
