<?xml version="1.0" encoding="UTF-8" standalone="no"?>
<svg
   version="1.1"
   viewBox="0 0 22 22"
   id="svg5677"
   sodipodi:docname="fileModified.svg"
   inkscape:version="1.2.2 (b0a8486541, 2022-12-01)"
   xmlns:inkscape="http://www.inkscape.org/namespaces/inkscape"
   xmlns:sodipodi="http://sodipodi.sourceforge.net/DTD/sodipodi-0.dtd"
   xmlns="http://www.w3.org/2000/svg"
   xmlns:svg="http://www.w3.org/2000/svg">
  <sodipodi:namedview
     id="namedview5679"
     pagecolor="#fffff0"
     bordercolor="#000000"
     borderopacity="0.25"
     inkscape:showpageshadow="2"
     inkscape:pageopacity="0.05882353"
     inkscape:pagecheckerboard="0"
     inkscape:deskcolor="#d1d1d1"
     showgrid="false"
     inkscape:zoom="95.523698"
     inkscape:cx="16.461884"
     inkscape:cy="17.011485"
     inkscape:window-width="2590"
     inkscape:window-height="1245"
     inkscape:window-x="708"
     inkscape:window-y="10"
     inkscape:window-maximized="0"
     inkscape:current-layer="svg5677" />
  <defs
     id="defs5669">
    <style
       type="text/css"
       id="style5667">.ColorScheme-Text {
        color:#eff0f1;
      }</style>
  </defs>
  <rect
     style="fill:#eff0f1;fill-opacity:1;stroke:#232629;stroke-width:0;stroke-linecap:square;stroke-dasharray:none;stroke-opacity:1"
     id="rect12968"
     width="6.4509988"
     height="6.501143"
     x="13.541302"
     y="14.488747" />
  <path
     d="m2 1v20h11.571v-1.25h-10.286v-17.5h10.286v5h5.1429v7.5h1.2857v-8.7598l-5.1328-4.9902-0.01004 0.012207v-0.012207h-11.571z"
     fill="#eff0f1"
     id="path5671"
     style="fill:#eff0f1;fill-opacity:1" />
  <path
     class="ColorScheme-Text"
     d="m6 8v10h10v-8.099l-1.901-1.901h-7.2656zm0.83333 0.83333h1.6667v3.3333h5v-3.3333h0.23438l1.4323 1.4323v6.901h-0.83333v-3.3333h-6.6927v3.3333h-0.80729zm2.5 0h1.5885v2.5h-1.5885zm-0.83333 5.8333h5v2.5h-5z"
     color="#eff0f1"
     fill="currentColor"
     id="path5675"
     style="fill:#000000;fill-opacity:1" />
  <path
     style="fill:#ffc300;fill-opacity:1;stroke:#000000;stroke-width:0.00592194;stroke-linecap:square;stroke-dasharray:none;stroke-opacity:1"
     d="m 8.4461642,19.757067 -5.1446837,-0.0076 v -8.74958 -8.7495805 h 5.1224764 5.1224761 v 2.5020188 2.5020189 h 2.576043 2.576044 v 3.7438778 c 0,2.46398 0.01012,3.750135 0.02961,3.762179 0.01936,0.01197 0.02961,0.883663 0.02961,2.518571 v 2.500271 l -2.583446,-0.0073 c -1.420895,-0.004 -4.898553,-0.01072 -7.7281288,-0.01489 z M 16.004038,13.938933 V 9.8751735 L 15.064104,8.9348949 14.124169,7.9946164 H 10.060066 5.9959623 v 5.0040376 5.004038 H 11 16.004038 Z"
     id="path6301" />
  <path
     style="fill:#ffc300;fill-opacity:1;stroke:#000000;stroke-width:0.00592194;stroke-linecap:square;stroke-dasharray:none;stroke-opacity:1"
     d="M 6.8546433,12.998654 V 8.8532974 H 7.6689098 8.4831763 V 10.51144 12.169583 H 11 13.516824 V 10.51144 8.8532974 h 0.111267 c 0.105768,0 0.146016,0.034771 0.814267,0.7034569 l 0.702999,0.7034567 v 3.4419 3.4419 h -0.399731 -0.399731 v -1.658143 -1.658143 h -3.3607 -3.3606997 v 1.658143 1.658143 h -0.384926 -0.384926 z"
     id="path6303" />
  <path
     style="fill:#ffc300;fill-opacity:1;stroke:#000000;stroke-width:0.00592194;stroke-linecap:square;stroke-dasharray:none;stroke-opacity:1"
     d="M 9.3418573,10.0821 V 8.8532974 h 0.7846567 0.784657 V 10.0821 11.310902 H 10.126514 9.3418573 Z"
     id="path6305" />
  <path
     style="fill:#ffc300;fill-opacity:1;stroke:#000000;stroke-width:0.00592194;stroke-linecap:square;stroke-dasharray:none;stroke-opacity:1"
     d="M 8.512786,15.915209 V 14.686406 H 11 13.487214 v 1.228803 1.228802 H 11 8.512786 Z"
     id="path6307" />
</svg>
