<?xml version="1.0" encoding="UTF-8" standalone="no"?>
<svg
   xmlns:dc="http://purl.org/dc/elements/1.1/"
   xmlns:cc="http://creativecommons.org/ns#"
   xmlns:rdf="http://www.w3.org/1999/02/22-rdf-syntax-ns#"
   xmlns:svg="http://www.w3.org/2000/svg"
   xmlns="http://www.w3.org/2000/svg"
   xmlns:sodipodi="http://sodipodi.sourceforge.net/DTD/sodipodi-0.dtd"
   xmlns:inkscape="http://www.inkscape.org/namespaces/inkscape"
   version="1.1"
   viewBox="0 0 22 22"
   id="svg9"
   sodipodi:docname="findLocation.svg"
   inkscape:version="1.0.2 (e86c870879, 2021-01-15)">
  <metadata
     id="metadata13">
    <rdf:RDF>
      <cc:Work
         rdf:about="">
        <dc:format>image/svg+xml</dc:format>
        <dc:type
           rdf:resource="http://purl.org/dc/dcmitype/StillImage" />
      </cc:Work>
    </rdf:RDF>
  </metadata>
  <sodipodi:namedview
     pagecolor="#ffffff"
     bordercolor="#666666"
     borderopacity="1"
     objecttolerance="10"
     gridtolerance="10"
     guidetolerance="10"
     inkscape:pageopacity="0"
     inkscape:pageshadow="2"
     inkscape:window-width="1594"
     inkscape:window-height="1014"
     id="namedview11"
     showgrid="false"
     inkscape:zoom="32.5"
     inkscape:cx="11"
     inkscape:cy="11"
     inkscape:window-x="74"
     inkscape:window-y="18"
     inkscape:window-maximized="0"
     inkscape:current-layer="svg9" />
  <defs
     id="defs3">
    <style
       id="current-color-scheme"
       type="text/css">
            .ColorScheme-Text {
                color:#eff0f1;
            }
        </style>
  </defs>
  <path
     style="fill:currentColor;fill-opacity:1;stroke:none;stroke-width:1.25"
     class="ColorScheme-Text"
     d="M 4.75,1 C 3.41125,1 2.1723,1.7156125 1.502925,2.875 1.1682375,3.4546875 1,4.10235 1,4.75 v 12.5 c 0,0.647625 0.16825,1.29525 0.502925,1.875 C 2.1723,20.284375 3.41125,21 4.75,21 h 12.5 V 19.75 H 4.75 c -0.8941625,0 -1.71845,-0.475625 -2.165525,-1.25 -0.4470875,-0.774375 -0.4470875,-1.725625 0,-2.5 C 3.03155,15.225625 3.8558375,14.75 4.75,14.75 H 6 V 6 h 12.5 v 10 h 1.25 V 4.75 H 6 V 1 Z m 0,1.25 V 4.75 6 13.5 c -0.9378125,0 -1.821625,0.357875 -2.5,0.96675 V 4.75 C 2.25,4.3185875 2.360925,3.8871875 2.584475,3.5 3.03155,2.725625 3.8558375,2.25 4.75,2.25 Z"
     id="path5" />
  <path
     style="fill:currentColor;fill-opacity:1;stroke:none;stroke-width:1.25"
     class="ColorScheme-Text"
     d="m 12.25,7.25 c -2.761425,0 -5,2.238575 -5,5 0,2.761375 2.238575,5 5,5 1.10925,-0.0023 2.18625,-0.37325 3.0615,-1.054625 L 20.11625,21 21,20.11625 16.19775,15.314 C 16.878875,14.43775 17.249,13.35975 17.25,12.25 c 0,-2.761425 -2.238625,-5 -5,-5 z m 0,1.25 C 14.321125,8.5 16,10.178875 16,12.25 16,14.321125 14.321125,16 12.25,16 10.178875,16 8.5,14.321125 8.5,12.25 8.5,10.178875 10.178875,8.5 12.25,8.5 Z"
     id="path7" />
</svg>
