<?xml version="1.0" encoding="UTF-8" standalone="no"?>
<svg
   viewBox="0 0 22 22"
   version="1.1"
   id="svg6"
   sodipodi:docname="global.svg"
   inkscape:version="1.2.2 (b0a8486541, 2022-12-01)"
   xmlns:inkscape="http://www.inkscape.org/namespaces/inkscape"
   xmlns:sodipodi="http://sodipodi.sourceforge.net/DTD/sodipodi-0.dtd"
   xmlns="http://www.w3.org/2000/svg"
   xmlns:svg="http://www.w3.org/2000/svg">
  <sodipodi:namedview
     id="namedview8"
     pagecolor="#ffffff"
     bordercolor="#000000"
     borderopacity="0.25"
     inkscape:showpageshadow="2"
     inkscape:pageopacity="0.0"
     inkscape:pagecheckerboard="0"
     inkscape:deskcolor="#d1d1d1"
     showgrid="false"
     inkscape:zoom="46.681818"
     inkscape:cx="11.010711"
     inkscape:cy="11.12853"
     inkscape:window-width="2580"
     inkscape:window-height="1378"
     inkscape:window-x="0"
     inkscape:window-y="0"
     inkscape:window-maximized="0"
     inkscape:current-layer="svg6" />
  <defs
     id="defs3051">
    <style
       type="text/css"
       id="current-color-scheme">.ColorScheme-Text { color: #fcfcfc; } </style>
  </defs>
  <path
     style="fill:currentColor;fill-opacity:1;stroke:none;stroke-width:1.25011"
     d="m 11.146507,1.0010361 a 10.001521,10.000248 0 0 0 -7.2178929,2.9297566 10.001521,10.000248 0 0 0 0,14.1409593 10.001521,10.000248 0 0 0 14.1427719,0 10.001521,10.000248 0 0 0 0,-14.1409593 10.001521,10.000248 0 0 0 -6.924879,-2.9297566 z M 10.873028,2.2510656 A 8.7513281,8.7502068 0 0 1 16.723525,4.394671 L 14.967887,6.1500834 A 10.000877,6.2505481 44.991623 0 0 8.1870728,2.7222681 8.7513281,8.7502068 0 0 1 10.873028,2.2510656 Z M 7.0882733,3.8844049 a 8.7507675,5.0004385 44.992769 0 1 6.9932497,3.15193 L 11,10.117463 5.3106598,4.4288514 A 8.7507675,5.0004385 44.992769 0 1 7.0882733,3.8844049 Z M 17.614774,5.2711565 A 8.7513281,8.7502068 0 0 1 19.284949,13.784541 10.000877,6.2505481 44.991623 0 0 15.846927,7.0387763 Z M 4.4242948,5.3102199 10.116077,11.001272 7.0321124,14.084841 A 8.7507675,5.0004385 44.992769 0 1 4.4242948,5.3102199 Z M 14.967887,7.9177033 a 8.7507675,5.0004385 44.992769 0 1 2.607818,8.7746207 L 11.883923,11.001272 Z M 2.715051,8.2180034 A 10.000877,6.2505481 44.991623 0 0 6.1530728,14.963769 L 4.3852264,16.731388 A 8.7513281,8.7502068 0 0 1 2.715051,8.2180034 Z M 11,11.885082 16.68934,17.573693 A 8.7507675,5.0004385 44.992769 0 1 7.9184773,14.96621 Z m -3.9678876,3.967379 a 10.000877,6.2505481 44.991623 0 0 6.7808146,3.427816 8.7513281,8.7502068 0 0 1 -8.5364521,-1.672403 z"
     class="ColorScheme-Text"
     id="path4" />
</svg>
