<?xml version="1.0" encoding="UTF-8"?>
<svg width="22" height="22" version="1.1" viewBox="0 0 5.8208 5.8208" xmlns="http://www.w3.org/2000/svg">
 <g transform="translate(75.788 -339)">
  <g transform="matrix(.0039363 0 0 .0039363 -75.524 339.26)">
   <path d="m653.87 862.09c-11.535-16.835-73.068-106.65-73.068-106.65l46.896 128.98-145.39 21.107 145.39 21.107-56.28 110.22s70.216-73.816 80.136-84.247c-4.088 159.82-5.0933 199.15-5.0933 199.15s-358.79-166.5-159.46-534.68c0 0-248.57-274.37-23.451-443.21 0 0-384.58 232.16-140.7 630.82 0 0-201.67-196.98-96.147-396.32 0 0-182.91 257.96 39.865 541.72 0 0-60.969-37.525-114.9-180.57 0 0 39.343 425.85 515.78 431.44l-1e-3 0.056c1.588 0 3.172-0.01 4.7493-0.015 1.5773 0.01 3.1613 0.015 4.748 0.015v-0.056c476.44-5.588 515.78-431.44 515.78-431.44-53.935 143.05-114.9 180.57-114.9 180.57 222.78-283.76 39.865-541.72 39.865-541.72 105.53 199.33-96.147 396.32-96.147 396.32 243.88-398.66-140.7-630.82-140.7-630.82 225.12 168.84-23.451 443.21-23.451 443.21 199.33 368.18-159.46 534.68-159.46 534.68s-1.0067-39.332-5.0947-199.15c9.92 10.431 80.136 84.247 80.136 84.247l-56.28-110.22 145.39-21.107-145.39-21.107 46.896-128.98s-61.533 89.811-73.068 106.65c-5.2227-204.15-18.179-710.67-18.241-713.06-0.024-5.6173-0.024-5.648-0.024-5.648s0 5e-3 -0.06 2.3347c-0.06-2.3293-0.06-2.3347-0.06-2.3347s0 0.0307-0.0253 5.648c-0.10133 3.9947-13.029 509.38-18.24 713.06" fill="#eff0f1" fill-rule="evenodd"/>
   <path d="m672.19 0.20007c-371.13 0-672 300.86-672 671.99 0 371.13 300.87 672 672 672 371.14 0 671.99-300.87 671.99-672 0-371.14-300.86-671.99-671.99-671.99z" fill="none" stroke="#000" stroke-miterlimit="10" stroke-width=".32"/>
   <path d="m672.19 0.20007c-371.13 0-672 300.87-672 671.99 0 371.13 300.87 672 672 672s671.99-300.87 671.99-672c0-371.13-300.87-671.99-671.99-671.99zm0 80.505c326.67 0 591.49 264.82 591.49 591.49 0 326.67-264.82 591.49-591.49 591.49-326.67 0-591.49-264.82-591.49-591.49 0-326.67 264.82-591.49 591.49-591.49" fill="#eff0f1" fill-rule="evenodd"/>
  </g>
 </g>
</svg>
