<?xml version="1.0" encoding="UTF-8" standalone="no"?>
<svg
   version="1.1"
   viewBox="0 0 22 22"
   id="svg5839"
   sodipodi:docname="logViewerNew.svg"
   inkscape:version="1.2.2 (b0a8486541, 2022-12-01)"
   xmlns:inkscape="http://www.inkscape.org/namespaces/inkscape"
   xmlns:sodipodi="http://sodipodi.sourceforge.net/DTD/sodipodi-0.dtd"
   xmlns="http://www.w3.org/2000/svg"
   xmlns:svg="http://www.w3.org/2000/svg">
  <defs
     id="defs5843" />
  <sodipodi:namedview
     id="namedview5841"
     pagecolor="#ffffff"
     bordercolor="#000000"
     borderopacity="0.25"
     inkscape:showpageshadow="2"
     inkscape:pageopacity="0.0"
     inkscape:pagecheckerboard="0"
     inkscape:deskcolor="#d1d1d1"
     showgrid="false"
     inkscape:zoom="46.681818"
     inkscape:cx="11.642648"
     inkscape:cy="11.321324"
     inkscape:window-width="2580"
     inkscape:window-height="1262"
     inkscape:window-x="447"
     inkscape:window-y="98"
     inkscape:window-maximized="0"
     inkscape:current-layer="svg5839" />
  <linearGradient
     id="c"
     x1="386.57"
     x2="386.57"
     y1="527.13"
     y2="504.91"
     gradientTransform="matrix(.71429 0 0 .70714 -276.55 -352.47)"
     gradientUnits="userSpaceOnUse">
    <stop
       stop-color="#1d1e1e"
       offset="0"
       id="stop5787" />
    <stop
       stop-color="#44484c"
       offset="1"
       id="stop5789" />
  </linearGradient>
  <linearGradient
     id="d"
     x1="-2"
     x2="-2"
     y1="30"
     y2="2"
     gradientTransform="matrix(.71429 0 0 .71429 -.42857 -.42857)"
     gradientUnits="userSpaceOnUse">
    <stop
       stop-color="#c6cdd1"
       offset="0"
       id="stop5792" />
    <stop
       stop-color="#e0e5e7"
       offset="1"
       id="stop5794" />
  </linearGradient>
  <rect
     x="1.9656"
     y="1.9656"
     width="18.069"
     height="18.069"
     fill="#232629"
     stroke="#eff0f1"
     stroke-width="1.9313"
     id="rect5797" />
  <g
     transform="matrix(.8 0 0 .8 2.1835 2.2852)"
     id="g5837">
    <g
       stroke-width=".71429"
       id="g5827">
      <path
         d="m1 1v20h20v-20z"
         fill="url(#d)"
         id="path5799" />
      <path
         d="m1 4.5714h20v14.286h-20z"
         fill="url(#c)"
         id="path5801" />
      <path
         d="m1 1h20v2.8571h-20z"
         fill="#566069"
         id="path5803" />
      <path
         d="m1 3.8571h20v0.71429h-20z"
         fill="#3daee9"
         id="path5805" />
      <rect
         x="18.857"
         y="1.7143"
         width="1.4286"
         height="1.4286"
         rx=".71429"
         fill="#eff0f1"
         id="rect5807" />
      <circle
         cx="4.9286"
         cy="14.929"
         r="2.5"
         fill="#eff0f1"
         id="circle5809" />
      <circle
         cx="4.9286"
         cy="14.929"
         r="1.7857"
         fill="#3daefd"
         id="circle5811" />
      <path
         d="m8.8571 7.4286h1.4286v0.71429h-1.4286zm2.1429 0h2.1429v0.71429h-2.1429z"
         fill="#da4453"
         id="path5813" />
      <path
         d="m15.286 7.4286h2.1429v0.71429h-2.1429zm0 1.4286h4.2857v0.71429h-4.2857zm2.8571-1.4286h1.4286v0.71429h-1.4286z"
         fill="#95a5a6"
         id="path5815" />
      <path
         d="m8.8571 8.8571h2.8571v0.71429h-2.8571zm3.5714 0h1.4286v0.71429h-1.4286z"
         fill="#bdc3c7"
         id="path5817" />
      <path
         d="m8.8571 13.857h1.4286v0.71429h-1.4286zm2.1429 0h2.1429v0.71429h-2.1429z"
         fill="#3daefd"
         id="path5819" />
      <path
         d="m15.286 13.857h2.8571v0.71429h-2.8571z"
         fill="#95a5a6"
         id="path5821" />
      <path
         d="m8.8571 15.286h2.1429v0.71429h-2.1429z"
         fill="#bdc3c7"
         id="path5823" />
      <path
         d="m15.286 15.286h2.1429v0.71429h-2.1429zm2.8571 0h0.71429v0.71429h-0.71429zm0.71429-1.4286h0.71429v0.71429h-0.71429z"
         fill="#95a5a6"
         id="path5825" />
    </g>
    <g
       transform="matrix(.71429 0 0 .71429 -.42857 -.42857)"
       fill-rule="evenodd"
       id="g5833">
      <path
         d="m7.5 8.92-3.501 1.467s0.416 1.902 0.867 3c0.225 0.551 0.5 1.121 0.889 1.617s0.965 0.99 1.745 0.99 1.354-0.494 1.743-0.99 0.664-1.066 0.889-1.617c0.451-1.102 0.869-3 0.869-3z"
         fill="#eff0f1"
         id="path5829" />
      <path
         d="m5 11 2.5-1 2.5 1s-0.928 4-2.5 4-2.5-4-2.5-4"
         fill="#da4453"
         id="path5831" />
    </g>
    <path
       d="m1 20.286h20v0.71429h-20z"
       fill="#99a1a7"
       stroke-width=".71429"
       id="path5835" />
  </g>
  <circle
     style="fill:#ffcc00;fill-opacity:1;stroke:none;stroke-width:0.25;stroke-linecap:square;stroke-linejoin:round;stroke-opacity:1"
     id="path840"
     cx="17"
     cy="5"
     r="4" />
</svg>
