<?xml version="1.0" encoding="UTF-8" standalone="no"?>
<svg
   version="1.2"
   viewBox="0 0 48 48"
   width="48"
   height="48"
   xmlns="http://www.w3.org/2000/svg">
  <style
     id="style4">
		.s0 { opacity: .6;fill: #00a9ce }
		.s1 { opacity: .8;fill: #00a9ce }
		.s2 { opacity: .5;fill: #00a9ce }
		.s3 { fill: #00a9ce }
	</style>
  <g
     id="g19"
     transform="matrix(0.02773226,0,0,0.03160011,1.9944535,2)">
    <g
       id="g17">
      <g
         id="g15">
        <g
           id="g13">
          <path
             id="Layer"
             class="s0"
             d="m 1138.2,8.7 c 0,0 -2.2,0 -2.2,2.2 -4.4,2.2 -6.5,4.4 -10.9,4.4 l -339.2,195 393.8,227.6 V 0 c -13.1,0 -28.4,4.4 -41.5,8.7 z" />
          <path
             id="path7"
             class="s1"
             d="m 444.4,1381.5 358.9,-208 -393.8,-227.6 v 444.5 c 10.9,2 21.8,-2.2 34.9,-8.9 z" />
          <path
             id="path9"
             class="s2"
             d="M 1582.6,1149.5 774.9,683.2 737.8,661.2 8.9,238.7 c -4.3,13.1 -8.7,26.2 -8.7,41.5 0,2.2 0,6.7 0,8.9 v 836.2 c 0,26.4 15.3,50.4 37.1,63.5 L 370,1383.7 c 10.9,6.7 24.2,8.7 37.3,8.7 V 965.6 948.1 l 755.1,435.6 c 2,2.2 4.2,2.2 6.4,2.2 h 2.3 c 21.9,8.7 39.3,2.3 59,-11 l 127,-72.2 201.3,-120.4 c 11.1,-6.6 19.7,-19.7 24.2,-32.8 z" />
          <path
             id="path11"
             class="s3"
             d="M 1586.8,597.7 V 280.2 c 0,-41.5 -21.8,-78.8 -56.8,-98.6 L 1236.8,13.1 C 1219.2,4.4 1199.5,0 1179.7,0 V 440.1 L 520.9,56.8 446.6,15.3 c -32.9,-17.5 -61.3,-19.7 -94.1,-4.4 0,0 -2.2,0 -2.2,2.2 -4.3,2.2 -6.5,4.4 -10.9,6.7 L 223.5,87.5 57,183.9 C 35.3,197 17.7,216.7 6.7,240.9 l 728.9,420.3 37,22 807.7,466.3 c 4.5,-15.3 4.5,-41.8 4.5,-41.8 v -510 z" />
        </g>
      </g>
    </g>
  </g>
</svg>
