<?xml version="1.0" encoding="UTF-8" standalone="no"?>
<svg
   version="1.1"
   viewBox="0 0 22 22"
   id="svg10"
   sodipodi:docname="projectReload.svg"
   inkscape:version="1.1.2 (0a00cf5339, 2022-02-04)"
   xmlns:inkscape="http://www.inkscape.org/namespaces/inkscape"
   xmlns:sodipodi="http://sodipodi.sourceforge.net/DTD/sodipodi-0.dtd"
   xmlns="http://www.w3.org/2000/svg"
   xmlns:svg="http://www.w3.org/2000/svg">
  <sodipodi:namedview
     id="namedview12"
     pagecolor="#ffffff"
     bordercolor="#666666"
     borderopacity="1.0"
     inkscape:pageshadow="2"
     inkscape:pageopacity="0.0"
     inkscape:pagecheckerboard="0"
     showgrid="false"
     inkscape:zoom="29.272727"
     inkscape:cx="11"
     inkscape:cy="11"
     inkscape:window-width="2580"
     inkscape:window-height="1080"
     inkscape:window-x="426"
     inkscape:window-y="146"
     inkscape:window-maximized="0"
     inkscape:current-layer="svg10" />
  <defs
     id="defs4">
    <style
       type="text/css"
       id="style2">.ColorScheme-Text {
        color:#eff0f1;
      }</style>
  </defs>
  <path
     d="m3.5 1v2.5h-2.5v3.75h2.5v7.5h-2.5v3.75h2.5v2.5h7.5v-1.25h-6.25v-13.75h15v5h1.25v-10h-17.5zm1.25 1.25h15v2.5h-15v-2.5z"
     color="#eff0f1"
     fill="currentColor"
     id="path6" />
  <path
     class="ColorScheme-Text"
     d="m 20.76087,15.500026 c 0,0.94805 -0.251811,1.834233 -0.687175,2.600838 l -0.485499,-0.485493 0.0013,-0.0013 -1.826417,-1.827662 0.464951,-0.464945 1.631185,1.632429 c 0.152975,-0.457443 0.243999,-0.943579 0.243999,-1.453928 0,-2.550176 -2.053054,-4.603206 -4.603261,-4.603206 -0.764457,0 -1.482198,0.187958 -2.115395,0.515033 l -0.485485,-0.485496 c 0.766614,-0.435362 1.652807,-0.687166 2.600869,-0.687166 2.914521,0 5.26087,2.34632 5.26087,5.260806 z m -2.660001,4.57364 c -0.766667,0.435363 -1.652808,0.687166 -2.600869,0.687166 -2.914522,0 -5.26087,-2.346319 -5.26087,-5.260806 0,-0.948049 0.251812,-1.834232 0.687175,-2.600837 l 0.449537,0.449531 0.0013,-0.0012 1.859823,1.8598 -0.464946,0.464943 -1.62987,-1.62985 c -0.153859,0.458541 -0.24535,0.945997 -0.24535,1.457768 0,2.550176 2.053054,4.603206 4.60326,4.603206 0.764457,0 1.482197,-0.187964 2.115395,-0.515033 z"
     color="#eff0f1"
     fill="#5fd38d"
     stroke-width="0.687497"
     id="path6-3"
     style="color:#eff0f1;stroke:#5fd38d;stroke-width:0.47826;stroke-miterlimit:4;stroke-dasharray:none;stroke-opacity:1" />
</svg>
