<?xml version="1.0" encoding="UTF-8" standalone="no"?>
<svg
   version="1.1"
   viewBox="0 0 22 22"
   id="svg1216"
   sodipodi:docname="projectOpenRecent.svg"
   inkscape:version="1.2.2 (b0a8486541, 2022-12-01)"
   xmlns:inkscape="http://www.inkscape.org/namespaces/inkscape"
   xmlns:sodipodi="http://sodipodi.sourceforge.net/DTD/sodipodi-0.dtd"
   xmlns="http://www.w3.org/2000/svg"
   xmlns:svg="http://www.w3.org/2000/svg">
  <sodipodi:namedview
     id="namedview1218"
     pagecolor="#ffffff"
     bordercolor="#000000"
     borderopacity="0.25"
     inkscape:showpageshadow="2"
     inkscape:pageopacity="0.0"
     inkscape:pagecheckerboard="0"
     inkscape:deskcolor="#d1d1d1"
     showgrid="false"
     inkscape:zoom="46.681818"
     inkscape:cx="11.578384"
     inkscape:cy="11.299903"
     inkscape:window-width="2580"
     inkscape:window-height="1242"
     inkscape:window-x="0"
     inkscape:window-y="0"
     inkscape:window-maximized="0"
     inkscape:current-layer="svg1216" />
  <defs
     id="defs1210">
    <style
       type="text/css"
       id="style1208">.ColorScheme-Text {
        color:#eff0f1;
      }</style>
  </defs>
  <path
     d="m3.5 1v2.5h-2.5v3.75h2.5v7.5h-2.5v3.75h2.5v2.5h7.5v-1.25h-6.25v-13.75h15v5h1.25v-10h-17.5zm1.25 1.25h15v2.5h-15v-2.5z"
     color="#eff0f1"
     fill="currentColor"
     id="path1212" />
  <path
     style="color:#eff0f1;fill:currentColor;fill-opacity:1;stroke:none;stroke-width:0.75"
     d="M 16.5,12 C 14.014718,12 12,14.014719 12,16.5 12,18.985281 14.014718,21 16.5,21 18.98528,21 21,18.985281 21,16.5 21,14.014719 18.98528,12 16.5,12 Z m 0,0.75 c 2.071067,0 3.749999,1.678932 3.749999,3.75 0,2.071068 -1.678932,3.75 -3.749999,3.75 -2.071068,0 -3.75,-1.678932 -3.75,-3.75 0,-2.071068 1.678932,-3.75 3.75,-3.75 z m -0.75,0.75 v 3 0.75 h 3.749999 V 16.5 H 16.5 v -3 z"
     class="ColorScheme-Text"
     id="path4" />
</svg>
