<?xml version="1.0" encoding="UTF-8" standalone="no"?>
<svg
   xmlns:dc="http://purl.org/dc/elements/1.1/"
   xmlns:cc="http://creativecommons.org/ns#"
   xmlns:rdf="http://www.w3.org/1999/02/22-rdf-syntax-ns#"
   xmlns:svg="http://www.w3.org/2000/svg"
   xmlns="http://www.w3.org/2000/svg"
   xmlns:sodipodi="http://sodipodi.sourceforge.net/DTD/sodipodi-0.dtd"
   xmlns:inkscape="http://www.inkscape.org/namespaces/inkscape"
   fill="none"
   version="1.1"
   viewBox="0 0 48 48"
   id="svg10"
   sodipodi:docname="sbDebugViewer48.svg"
   width="48"
   height="48"
   inkscape:version="1.0.2 (e86c870879, 2021-01-15)">
  <metadata
     id="metadata16">
    <rdf:RDF>
      <cc:Work
         rdf:about="">
        <dc:format>image/svg+xml</dc:format>
        <dc:type
           rdf:resource="http://purl.org/dc/dcmitype/StillImage" />
        <dc:title></dc:title>
      </cc:Work>
    </rdf:RDF>
  </metadata>
  <defs
     id="defs14" />
  <sodipodi:namedview
     pagecolor="#ffffff"
     bordercolor="#666666"
     borderopacity="1"
     objecttolerance="10"
     gridtolerance="10"
     guidetolerance="10"
     inkscape:pageopacity="0"
     inkscape:pageshadow="2"
     inkscape:window-width="1683"
     inkscape:window-height="1312"
     id="namedview12"
     showgrid="false"
     inkscape:zoom="16.25"
     inkscape:cx="21.126299"
     inkscape:cy="32.555081"
     inkscape:window-x="0"
     inkscape:window-y="0"
     inkscape:window-maximized="0"
     inkscape:current-layer="svg10"
     inkscape:document-rotation="0" />
  <g
     transform="matrix(2.8735715,0,0,2.9308109,1.1248768,1.0692184)"
     fill="#eff0f1"
     id="g8">
    <path
       d="M 3.02,8.5017 3.01729,8.46089 C 3.01816,8.4745 3.01907,8.48811 3.02,8.5017 Z"
       id="path2" />
    <path
       d="M 7.2577,8.9047 5.4876,7.1256 6.07922,6.53399 l 1.8718,1.8812 1.8451,-1.8451 0.59165,0.5916 -1.77,1.77 1.7701,1.7791 -0.59161,0.5916 -1.8717,-1.8813 -1.8451,1.8451 -0.59161,-0.5916 z"
       id="path4" />
    <path
       d="m 10.878,3.9183 v 0.58167 h 0.7849 l 1.6579,-1.6579 0.5916,0.59161 -1.5698,1.5698 0.0189,0.04949 c 0.3304,0.86212 0.5165,1.8351 0.5165,2.8653 0,0.1957 -0.0067,0.38933 -0.0199,0.58053 l -0.003,0.04364 h 2.0654 V 9.3791 H 12.75 l -0.0061,0.03349 c -0.1764,0.96445 -0.5195,1.8438 -0.9869,2.5838 l -0.0347,0.0551 1.9964,2.0065 -0.5931,0.5901 -1.9098,-1.9194 -0.0577,0.0645 c -0.8627,0.965 -1.9806,1.5435 -3.1984,1.5435 -1.2367,0 -2.3704,-0.5966 -3.2384,-1.5887 l -0.05749,-0.0657 -1.8717,1.8717 -0.59162,-0.5916 1.9632,-1.9632 -0.03399,-0.055 c -0.45068,-0.729 -0.782,-1.5897 -0.95424,-2.5316 L 3.16934,9.3791 H 1.00054 V 8.54244 h 2.0637 L 3.06124,8.4988 C 3.04809,8.3076 3.04138,8.11397 3.04138,7.91827 c 0,-1.0167 0.18128,-1.9778 0.50362,-2.8315 l 0.01857,-0.04919 -1.6109,-1.619 0.59311,-0.59012 1.6631,1.6715 H 5.04137 V 3.91829 c 0,-1.6118 1.3066,-2.9183 2.9183,-2.9183 1.6117,0 2.9183,1.3066 2.9183,2.9183 z m -5,0 v 0.58167 h 4.1633 V 3.9183 c 0,-1.1497 -0.93196,-2.0817 -2.0816,-2.0817 -1.14964,0 -2.0817,0.93199 -2.0817,2.0817 z M 11.5943,5.3895 11.5744,5.3366 H 4.3449 L 4.325,5.3895 C 4.04159,6.14263 3.87799,7 3.87799,7.9183 c 0,1.6099 0.50298,3.0339 1.274,4.0363 0.77037,1.0015 1.771,1.5454 2.8076,1.5454 1.0366,0 2.0373,-0.5439 2.8076,-1.5454 0.7711,-1.0024 1.274,-2.4263 1.274,-4.0363 0,-0.91822 -0.1636,-1.7756 -0.447,-2.5288 z"
       clip-rule="evenodd"
       fill-rule="evenodd"
       id="path6" />
  </g>
</svg>
