<?xml version="1.0" encoding="UTF-8" standalone="no"?>
<svg
   fill="none"
   version="1.1"
   viewBox="0 0 22 22"
   id="svg1877"
   sodipodi:docname="syntaxError22.svg"
   inkscape:version="1.2.2 (b0a8486541, 2022-12-01)"
   xmlns:inkscape="http://www.inkscape.org/namespaces/inkscape"
   xmlns:sodipodi="http://sodipodi.sourceforge.net/DTD/sodipodi-0.dtd"
   xmlns="http://www.w3.org/2000/svg"
   xmlns:svg="http://www.w3.org/2000/svg">
  <defs
     id="defs1881" />
  <sodipodi:namedview
     id="namedview1879"
     pagecolor="#ffffff"
     bordercolor="#000000"
     borderopacity="0.25"
     inkscape:showpageshadow="2"
     inkscape:pageopacity="0.0"
     inkscape:pagecheckerboard="0"
     inkscape:deskcolor="#d1d1d1"
     showgrid="false"
     inkscape:zoom="33.772727"
     inkscape:cx="11"
     inkscape:cy="11.02961"
     inkscape:window-width="1432"
     inkscape:window-height="928"
     inkscape:window-x="1633"
     inkscape:window-y="44"
     inkscape:window-maximized="0"
     inkscape:current-layer="svg1877" />
  <path
     d="m 3.902356,11.992981 -0.00389,-0.0598 c 0.00125,0.01994 0.00256,0.03989 0.00389,0.0598 z"
     id="path1869"
     style="fill:#eff0f1;stroke:none;stroke-width:1.45103;stroke-opacity:1" />
  <path
     d="M 9.6784196,12.577212 6.3212903,9.1358486 7.4433426,7.9914808 10.993354,11.630339 14.492726,8.06131 l 1.122109,1.1443485 -3.356939,3.4237605 3.35713,3.441363 -1.122034,1.144348 -3.549822,-3.639051 -3.4993723,3.569029 -1.1220333,-1.144349 z"
     id="path1871"
     style="fill:#eff0f1;stroke:none;stroke-width:1.91536;stroke-opacity:1" />
  <path
     d="m 15.08981,5.39346 v 0.8272061 h 1.100299 l 2.324098,-2.3577371 0.829324,0.8413419 -2.200597,2.2324481 0.0265,0.070381 c 0.463166,1.2260403 0.724047,2.6097372 0.724047,4.074809 0,0.278309 -0.0094,0.553674 -0.02789,0.825584 l -0.0042,0.06206 h 2.895343 v 1.189833 h -3.042693 l -0.0086,0.04763 c -0.247284,1.371566 -0.728252,2.62211 -1.383469,3.67448 l -0.04864,0.07836 2.798618,2.85349 -0.831427,0.839194 -2.67722,-2.729622 -0.08089,0.09173 c -1.20936,1.372348 -2.776469,2.195046 -4.483621,2.195046 -1.733646,0 -3.3229037,-0.848439 -4.5396943,-2.259327 l -0.080541,-0.09343 -2.6238101,2.661787 -0.8293522,-0.841329 2.7520778,-2.791911 -0.047649,-0.07822 C 4.9980458,15.770533 4.5335907,14.546512 4.292139,13.207014 l -0.00858,-0.04763 H 1.243266 v -1.189829 h 2.8929617 l -0.0042,-0.06206 c -0.018439,-0.271912 -0.027845,-0.547277 -0.027845,-0.825586 0,-1.4458732 0.2541242,-2.8126754 0.7059909,-4.0267413 L 4.8362043,6.9852134 2.5779922,4.6827968 3.4094331,3.843574 5.7408209,6.2206519 H 6.9078324 V 5.3934457 c 0,-2.2921771 1.8316345,-4.1501803 4.0909686,-4.1501803 2.259333,0 4.090967,1.8581455 4.090967,4.1501803 z m -7.0091624,0 V 6.2206661 H 13.916897 V 5.39346 c 0,-1.6350143 -1.306451,-2.9604327 -2.918055,-2.9604327 -1.6116024,0 -2.9181944,1.3254041 -2.9181944,2.9604327 z m 8.0132944,2.0922268 -0.02789,-0.075231 H 5.9314981 l -0.027896,0.075231 C 5.5063082,8.55673 5.2769684,9.7760156 5.2769684,11.081951 c 0,2.289474 0.7050938,4.314577 1.7859347,5.740113 1.0799297,1.424256 2.4826455,2.197749 3.9357849,2.197749 1.45314,0 2.855954,-0.773493 3.935786,-2.197749 1.080952,-1.425536 1.785934,-3.450495 1.785934,-5.740113 0,-1.3058219 -0.22934,-2.5251214 -0.62662,-3.5962642 z"
     clip-rule="evenodd"
     fill-rule="evenodd"
     id="path1873"
     style="fill:#da4453;fill-opacity:1;stroke:#da4453;stroke-width:0.486531;stroke-dasharray:none;stroke-opacity:1" />
  <path
     style="fill:#da4453;stroke:#da4453;stroke-width:0.015;stroke-dasharray:none"
     d="m 15.621375,16.091714 c -0.0012,-0.01692 -0.753846,-0.802145 -1.672447,-1.744947 l -1.670183,-1.714185 0.611637,-0.629036 c 0.3364,-0.34597 1.089326,-1.11604 1.673169,-1.711267 L 15.625082,9.2100494 15.066915,8.6321315 C 14.759923,8.3142766 14.502086,8.0545086 14.493943,8.0548692 14.485801,8.0552298 13.699664,8.8533298 12.746972,9.8284248 11.79428,10.80352 11.007794,11.602601 10.999224,11.604162 10.990655,11.605722 10.19187,10.794213 9.2241461,9.8008075 8.2564229,8.8074024 7.457179,7.9946164 7.4480486,7.9946164 c -0.028439,0 -1.1263797,1.1093847 -1.1263797,1.1381197 0,0.014953 0.256494,0.2880566 0.5699866,0.6068977 0.3134925,0.3188412 1.0656995,1.0870052 1.6715709,1.7070312 l 1.1015847,1.127319 -1.6753665,1.709217 -1.6753664,1.709218 -0.048966,-0.08302 C 6.0540228,15.551508 5.7036795,14.655833 5.5372432,14.048556 4.9623517,11.950944 5.036153,9.5417567 5.7353973,7.5799612 l 0.068557,-0.1923434 h 5.1923497 5.192349 l 0.05852,0.1480484 c 0.10233,0.258897 0.312389,1.0258753 0.390054,1.4241896 0.391437,2.0075342 0.236272,4.0728402 -0.444968,5.9226812 -0.126298,0.342951 -0.566079,1.274447 -0.570881,1.209177 z"
     id="path2432" />
  <path
     style="fill:#da4453;stroke:#da4453;stroke-width:0.015;stroke-dasharray:none"
     d="M 10.395947,19.260828 C 9.1725,19.061243 8.1128973,18.413681 7.1746738,17.292192 6.9080894,16.973534 6.3512786,16.145921 6.3512786,16.068342 c 0,-0.0077 0.2460196,0.234523 0.5467102,0.538247 l 0.5467102,0.552227 1.0873708,-1.110364 c 0.598054,-0.6107 1.3880035,-1.411919 1.7554432,-1.780487 l 0.668072,-0.670123 1.421266,1.461772 c 0.781695,0.803975 1.577864,1.618348 1.769264,1.809719 l 0.347999,0.347947 0.562499,-0.561914 c 0.309374,-0.309053 0.562499,-0.551909 0.562499,-0.53968 0,0.04548 -0.400057,0.667814 -0.603554,0.93889 -0.254577,0.339117 -0.78032,0.889195 -1.084199,1.134383 -0.663184,0.535095 -1.343474,0.868779 -2.098862,1.029496 -0.379767,0.0808 -1.075246,0.101314 -1.43655,0.04237 z"
     id="path2434" />
  <path
     style="fill:#da4453;stroke:#da4453;stroke-width:0.0148048"
     d="m 8.0094213,5.6838936 c 0,-0.2449218 0.014244,-0.5730503 0.031652,-0.7291744 C 8.1819227,3.6915745 9.0287556,2.6847423 10.24549,2.3338036 10.453259,2.2738776 10.544472,2.2658227 11,2.2671743 c 0.436618,0.0013 0.554443,0.011591 0.748645,0.065418 1.212724,0.3361314 2.080827,1.3742658 2.211151,2.644237 0.01693,0.1649833 0.03078,0.4917611 0.03078,0.7261728 V 6.1292059 H 11 8.0094213 Z"
     id="path2436" />
</svg>
