<?xml version="1.0" encoding="UTF-8" standalone="no"?>
<svg
   version="1.1"
   viewBox="0 0 22 22"
   id="svg10"
   sodipodi:docname="vcsUncommit.svg"
   inkscape:version="1.2.2 (b0a8486541, 2022-12-01)"
   xmlns:inkscape="http://www.inkscape.org/namespaces/inkscape"
   xmlns:sodipodi="http://sodipodi.sourceforge.net/DTD/sodipodi-0.dtd"
   xmlns="http://www.w3.org/2000/svg"
   xmlns:svg="http://www.w3.org/2000/svg">
  <sodipodi:namedview
     id="namedview12"
     pagecolor="#ffffff"
     bordercolor="#000000"
     borderopacity="0.25"
     inkscape:showpageshadow="2"
     inkscape:pageopacity="0.0"
     inkscape:pagecheckerboard="0"
     inkscape:deskcolor="#d1d1d1"
     showgrid="false"
     inkscape:zoom="46.681818"
     inkscape:cx="11.963973"
     inkscape:cy="10.485881"
     inkscape:window-width="1782"
     inkscape:window-height="1310"
     inkscape:window-x="0"
     inkscape:window-y="0"
     inkscape:window-maximized="0"
     inkscape:current-layer="svg10" />
  <defs
     id="defs4">
    <style
       type="text/css"
       id="style2">.ColorScheme-Text {
        color:#eff0f1
      }</style>
  </defs>
  <path
     d="m11 1a10 3.75 0 0 0-10 3.75v12.5a10 3.75 0 0 0 9 3.7266v-1.2441a8.75 2.5 0 0 1-7.75-2.4824v-4.4355a10 3.75 0 0 0 7.75 1.9121v-1.2441a8.75 2.5 0 0 1-7.75-2.4824v-4.4355a10 3.75 0 0 0 8.75 1.9355 10 3.75 0 0 0 8.75-1.9434v3.4434h1.25v-5.25a10 3.75 0 0 0-10-3.75zm0 1.25a8.75 2.5 0 0 1 8.75 2.5 8.75 2.5 0 0 1-8.75 2.5 8.75 2.5 0 0 1-8.75-2.5 8.75 2.5 0 0 1 8.75-2.5z"
     color="#eff0f1"
     fill="currentColor"
     id="path6" />
  <g
     id="g8324">
    <path
       d="M 20.9999,14.6667 H 17.6666 V 18 H 14.3333 V 14.6667 H 11 L 16,8 l 5,6.6667"
       fill="#ffd42a"
       id="path8" />
    <path
       class="ColorScheme-Text"
       d="m 11,19 v 2 h 10 v -2 z"
       color="#eff0f1"
       fill="#ff2a2a"
       id="path3168"
       style="color:#eff0f1" />
  </g>
</svg>
