<!-- icon666.com - MILLIONS OF FREE VECTOR ICONS --><svg viewBox="0 0 480 480" xmlns="http://www.w3.org/2000/svg"><path d="m416 24c0-13.253906-10.746094-24-24-24h-304c-13.253906 0-24 10.746094-24 24v104h-16v16h16v216h-16v16h16v80c0 13.253906 10.746094 24 24 24h304c13.253906 0 24-10.746094 24-24v-80h16v-16h-16v-216h16v-16h-16zm-80-8h16v29.601562l-1.34375-2.015624c-1.570312-2.101563-4.035156-3.335938-6.65625-3.335938s-5.085938 1.234375-6.65625 3.335938l-1.34375 2.015624zm64 344h-64v16h64v80c0 4.417969-3.582031 8-8 8h-304c-4.417969 0-8-3.582031-8-8v-80h64v-16h-64v-216h60.6875l29.65625 29.65625 11.3125-11.3125-32-32c-1.5-1.5-3.535156-2.34375-5.65625-2.34375h-64v-104c0-4.417969 3.582031-8 8-8h232v56c0 3.527344 2.304688 6.636719 5.679688 7.65625 3.375 1.023438 7.019531-.28125 8.976562-3.214844l9.34375-14.042968 9.34375 14.015624c1.953125 2.929688 5.59375 4.238282 8.964844 3.222657s5.683594-4.117188 5.691406-7.636719v-56h24c4.417969 0 8 3.582031 8 8v104h-64c-2.121094 0-4.15625.84375-5.65625 2.34375l-32 32 11.3125 11.3125 29.65625-29.65625h60.6875zm0 0"></path><path d="m112 48h32v16h-32zm0 0"></path><path d="m160 48h48v16h-48zm0 0"></path><path d="m112 80h96v16h-96zm0 0"></path><path d="m448 128h32v16h-32zm0 0"></path><path d="m448 160h32v16h-32zm0 0"></path><path d="m448 360h32v16h-32zm0 0"></path><path d="m448 392h32v16h-32zm0 0"></path><path d="m0 128h32v16h-32zm0 0"></path><path d="m0 160h32v16h-32zm0 0"></path><path d="m0 360h32v16h-32zm0 0"></path><path d="m0 392h32v16h-32zm0 0"></path><path d="m336 216c0-2.121094-.84375-4.15625-2.34375-5.65625l-16-16c-1.5-1.5-3.535156-2.34375-5.65625-2.34375h-18.230469l-6.183593-18.527344c-1.089844-3.265625-4.144532-5.46875-7.585938-5.472656h-24c-2.121094 0-4.15625.84375-5.65625 2.34375l-10.34375 10.34375-10.34375-10.34375c-1.5-1.5-3.535156-2.34375-5.65625-2.34375h-24c-3.441406.003906-6.496094 2.207031-7.585938 5.472656l-6.183593 18.527344h-18.230469c-2.121094 0-4.15625.84375-5.65625 2.34375l-16 16c-1.5 1.5-2.34375 3.535156-2.34375 5.65625v29.601562l-14.65625 21.984376c-.871094 1.308593-1.335938 2.84375-1.34375 4.414062v40c0 2.121094.84375 4.15625 2.34375 5.65625l21.65625 21.65625v12.6875c0 3.671875 2.5 6.871094 6.0625 7.761719l27.738281 6.933593 6.613281 19.832032c1.089844 3.265625 4.144532 5.46875 7.585938 5.472656h24c2.121094 0 4.15625-.84375 5.65625-2.34375l10.34375-10.34375 10.34375 10.34375c1.5 1.5 3.535156 2.34375 5.65625 2.34375h24c3.441406-.003906 6.496094-2.207031 7.585938-5.472656l6.613281-19.832032 27.738281-6.933593c3.5625-.890625 6.0625-4.089844 6.0625-7.761719v-12.6875l21.65625-21.65625c1.5-1.5 2.34375-3.535156 2.34375-5.65625v-40c-.003906-1.578125-.46875-3.125-1.34375-4.441406l-14.65625-21.957032zm-115.3125 160h-14.917969l-4.617187-13.839844 12.503906-12.503906c1.5-1.5 2.34375-3.535156 2.34375-5.65625v-8h-16v4.6875l-10.457031 10.457031-21.542969-5.390625v-41.753906h-16v12.6875l-8-8v-34.289062l9.238281-13.863282 6.761719 6.753906v4.710938h16v-8c0-2.121094-.84375-4.15625-2.34375-5.65625l-13.65625-13.65625v-25.375l11.3125-11.3125h17.375l11.3125 11.3125v4.6875h16v-8c0-2.121094-.84375-4.15625-2.34375-5.65625l-12.503906-12.503906 4.617187-13.839844h14.917969l11.3125 11.3125v169.375zm115.3125-67.3125-8 8v-12.6875h-16v41.753906l-21.542969 5.390625-10.457031-10.457031v-4.6875h-16v8c0 2.121094.84375 4.15625 2.34375 5.65625l12.503906 12.503906-4.617187 13.839844h-14.917969l-11.3125-11.3125v-169.375l11.3125-11.3125h14.917969l4.617187 13.839844-12.503906 12.503906c-1.5 1.5-2.34375 3.535156-2.34375 5.65625v8h16v-4.6875l11.3125-11.3125h17.375l11.3125 11.3125v25.375l-13.65625 13.65625c-1.5 1.5-2.34375 3.535156-2.34375 5.65625v8h16v-4.6875l6.761719-6.753906 9.238281 13.839844zm0 0"></path><path d="m293.65625 274.34375-13.65625-13.65625v-20.6875h-16v24c0 2.121094.84375 4.15625 2.34375 5.65625l16 16zm0 0"></path><path d="m285.65625 298.34375-11.3125 11.3125 5.65625 5.65625v12.6875h16v-16c0-2.121094-.84375-4.15625-2.34375-5.65625zm0 0"></path><path d="m200 260.6875-13.65625 13.65625 11.3125 11.3125 16-16c1.5-1.5 2.34375-3.535156 2.34375-5.65625v-24h-16zm0 0"></path><path d="m186.34375 306.34375c-1.5 1.5-2.34375 3.535156-2.34375 5.65625v16h16v-12.6875l5.65625-5.65625-11.3125-11.3125zm0 0"></path></svg>