<?xml version="1.0" encoding="UTF-8" standalone="no"?>
<!-- Created with Inkscape (http://www.inkscape.org/) -->

<svg
   version="1.1"
   id="svg1"
   width="980"
   height="980"
   viewBox="0 0 980 980"
   sodipodi:docname="colorwheel.png"
   xmlns:inkscape="http://www.inkscape.org/namespaces/inkscape"
   xmlns:sodipodi="http://sodipodi.sourceforge.net/DTD/sodipodi-0.dtd"
   xmlns="http://www.w3.org/2000/svg"
   xmlns:svg="http://www.w3.org/2000/svg">
  <defs
     id="defs1" />
  <sodipodi:namedview
     id="namedview1"
     pagecolor="#ffffff"
     bordercolor="#000000"
     borderopacity="0.25"
     inkscape:showpageshadow="2"
     inkscape:pageopacity="0.0"
     inkscape:pagecheckerboard="0"
     inkscape:deskcolor="#d1d1d1"
     showgrid="false">
    <inkscape:page
       x="0"
       y="0"
       width="980"
       height="980"
       id="page2"
       margin="0"
       bleed="0" />
  </sodipodi:namedview>
  <g
     inkscape:groupmode="layer"
     inkscape:label="Image"
     id="g1">
    <g
       id="g2"
       transform="translate(-0.83975865)">
      <path
         style="fill:#fefefe"
         d="M 0.16810311,746.25 C 0.26055983,617.6875 0.48229235,514.3 0.66084204,516.5 c 0.1785497,2.2 0.80134486,9.85 1.38398926,17 C 6.6972586,590.59289 23.213167,650.28126 49.299399,704.27764 93.290562,795.33579 163.71036,869.43584 254,919.67625 c 6.875,3.8255 14.75,8.0051 17.5,9.28799 2.75,1.2829 9.275,4.33703 14.5,6.78695 30.44772,14.27647 69.25171,26.99619 104.45342,34.23923 21.33471,4.38978 41.52891,7.08686 70.04658,9.35521 2.2,0.17499 -100.5125,0.39381 -228.25,0.48627 L 0,980 Z M 530,978.41347 c 104.54218,-9.03529 202.52769,-49.91453 280,-116.81509 5.775,-4.98696 17.49834,-16.04921 26.05186,-24.58279 13.3553,-13.32416 18.83226,-19.24925 32.36725,-35.01559 1.1804,-1.375 4.50302,-5.65 7.38361,-9.5 2.88058,-3.85 5.60578,-7.46578 6.056,-8.03507 1.80867,-2.287 13.82436,-19.22149 16.29452,-22.96493 C 904.28316,752.21036 912,739.89128 912,739.3952 c 0,-0.29432 2.04409,-3.90244 4.54243,-8.01804 5.78592,-9.53135 16.85095,-31.68013 22.9192,-45.87716 2.58596,-6.05 5.29737,-12.35 6.02537,-14 2.19441,-4.97362 10.12656,-27.48901 12.50662,-35.5 1.22553,-4.125 2.83416,-9.525 3.57474,-12 4.2456,-14.18871 11.03833,-46.62213 13.29919,-63.5 1.78541,-13.32851 3.10385,-24.52901 4.0022,-34 0.4987,-5.25753 0.91119,87.16067 0.99197,222.25 L 980,980 747.25,979.87655 C 545.09594,979.76932 516.53754,979.577 530,978.41347 Z M 0.1409442,233.25 0,0 232.25,0.13594768 C 364.56302,0.21339718 460.41216,0.6313675 455,1.1072959 367.77844,8.7772893 294.04517,33.376645 224.31587,78.069581 195.43541,96.580487 170.2286,116.85115 145.4394,141.5 104.75424,181.95481 76.582183,220.94593 51.01583,272.18554 22.42312,329.49051 6.0889976,389.49079 1.1113762,455.5 0.63832118,461.77328 0.22132436,366.27195 0.1409442,233.25 Z M 978.64613,454.01269 C 977.49487,436.44519 974.31819,413.8341 969.93385,392 c -1.71134,-8.52246 -6.86865,-29.99408 -8.40672,-35 -6.46638,-21.0459 -12.37054,-38.47789 -16.59615,-49 -5.43375,-13.53048 -14.98852,-35.19138 -15.87984,-36 C 928.74801,271.725 926.925,268.36056 925,264.52346 910.44693,235.51487 886.9773,200.0986 866.33733,176 c -0.70659,-0.825 -4.52455,-5.325 -8.48436,-10 -7.94852,-9.38414 -34.4178,-35.94263 -42.85555,-43 -2.9591,-2.475 -6.08156,-5.2019 -6.9388,-6.05979 C 805.23806,114.11754 782.66981,96.567026 774,90.454048 726.08026,56.666421 681.50246,35.419923 621,17.531771 596.83432,10.386948 559.71825,4.0905623 524,1.0766503 518.775,0.63576394 619.2375,0.213155 747.25,0.13751936 L 980,0 v 232 c 0,127.6 -0.15736,232 -0.34968,232 -0.19232,0 -0.64421,-4.49429 -1.00419,-9.98731 z"
         id="path14" />
      <path
         style="fill:#fcdf06"
         d="m 968.5,548.88582 c -2.75,-0.48341 -11.075,-1.56495 -18.5,-2.40342 -18.55527,-2.09534 -35.87899,-4.11912 -46,-5.37379 -4.675,-0.57954 -14.125,-1.73927 -21,-2.57717 -6.875,-0.8379 -17.675,-2.1983 -24,-3.0231 -6.325,-0.82481 -24.775,-3.09603 -41,-5.04716 -16.225,-1.95112 -36.25,-4.42308 -44.5,-5.49324 -8.25,-1.07015 -21.075,-2.63953 -28.5,-3.4875 -10.90037,-1.24487 -150.16608,-18.42748 -181.5,-22.39348 -4.4,-0.55691 -12.05,-1.49826 -17,-2.09188 -4.95,-0.59362 -11.925,-1.50258 -15.5,-2.01992 -3.575,-0.51733 -13.025,-1.65677 -21,-2.53208 -7.975,-0.87531 -15.13334,-1.79614 -15.90741,-2.0463 -2.59114,-0.83736 2.00384,-3.81635 9.90741,-6.42312 4.125,-1.36051 7.725,-2.71953 8,-3.02003 C 512.85786,480.0162 525.06009,475 526.48258,475 c 0.74291,0 1.50075,-0.34533 1.68409,-0.7674 0.18333,-0.42207 3.70833,-2.09471 7.83333,-3.71699 4.125,-1.62228 8.85,-3.75027 10.5,-4.72887 1.65,-0.97859 3.5502,-1.78095 4.22266,-1.783 0.67247,-0.002 3.59747,-1.08549 6.5,-2.40763 12.16621,-5.54185 16.54182,-7.42215 21.27734,-9.14332 2.75,-0.99951 5.88763,-2.41028 6.97251,-3.13504 1.08487,-0.72476 2.99737,-1.31775 4.25,-1.31775 1.25262,0 2.27749,-0.35782 2.27749,-0.79515 0,-0.43734 4.1625,-2.51515 9.25,-4.61737 5.0875,-2.10222 11.78127,-4.8944 14.87505,-6.20485 3.09377,-1.31045 6.13127,-2.38263 6.75,-2.38263 0.61872,0 1.12495,-0.45 1.12495,-1 0,-0.55 0.92335,-1 2.05188,-1 1.12854,0 3.71604,-0.89661 5.75,-1.99247 2.03397,-1.09586 8.19812,-3.8321 13.69812,-6.08055 5.5,-2.24844 11.70136,-4.95183 13.78079,-6.00753 2.07944,-1.0557 4.32944,-1.9182 5,-1.91667 0.67057,0.002 3.01921,-0.88028 5.21921,-1.95958 C 676.77355,410.47489 685.22042,407 686.62084,407 687.37938,407 688,406.55 688,406 c 0,-0.55 0.66503,-1 1.47785,-1 0.81281,0 3.85031,-1.0756 6.75,-2.39022 2.89968,-1.31462 7.97215,-3.54073 11.27215,-4.94689 3.3,-1.40617 10.27578,-4.38057 15.50174,-6.60978 C 728.2277,388.8239 733.0101,387 733.6293,387 c 0.6192,0 1.68601,-0.675 2.3707,-1.5 0.68469,-0.825 2.22479,-1.5 3.42244,-1.5 1.19766,0 2.60506,-0.39443 3.12756,-0.87651 0.5225,-0.48207 3.55831,-1.83354 6.74623,-3.00326 3.18793,-1.16972 7.67512,-3.08529 9.97153,-4.25683 2.29641,-1.17154 5.31311,-2.48789 6.70377,-2.92522 2.48225,-0.78061 18.62923,-7.59871 24.52847,-10.3572 5.47164,-2.55855 23.91937,-10.4577 29.12523,-12.47116 2.81887,-1.09025 7.09387,-2.8529 9.5,-3.917 C 839.17847,341.74681 845.79315,339 846.44647,339 c 0.38301,0 1.37139,-0.675 2.19639,-1.5 0.825,-0.825 2.72785,-1.5 4.22857,-1.5 1.50071,0 3.15885,-0.43028 3.68474,-0.95617 0.52589,-0.52589 4.10339,-2.28298 7.95,-3.90465 3.84661,-1.62167 11.15029,-4.75431 16.23041,-6.96143 5.08012,-2.20712 10.59262,-4.31078 12.25,-4.6748 C 894.64396,319.13893 896,318.42684 896,317.92054 896,317.41425 896.59873,317 897.33052,317 c 0.73179,0 3.54429,-1.12312 6.25,-2.49581 2.70571,-1.3727 5.70698,-2.4977 6.66948,-2.5 0.9625,-0.002 1.75,-0.38296 1.75,-0.8459 0,-0.46294 1.9125,-1.40686 4.25,-2.0976 2.3375,-0.69073 5.825,-2.07232 7.75,-3.0702 4.0534,-2.10119 7.07858,-3.33639 8.5,-3.47061 0.55,-0.0519 2.23975,-0.91839 3.75501,-1.92544 2.22912,-1.48151 3.04037,-1.59419 4.25,-0.59029 0.82224,0.68241 1.49499,1.86064 1.49499,2.61829 0,0.75766 0.45,1.37756 1,1.37756 0.55,0 1,0.68111 1,1.51357 0,0.83246 0.39506,2.29496 0.87792,3.25 2.30007,4.54933 4.12208,9.48042 4.12208,11.15605 0,1.01847 0.67223,3.1407 1.49384,4.71607 0.82161,1.57537 1.51092,3.53931 1.5318,4.36431 0.0209,0.825 0.69866,2.37351 1.50616,3.44113 0.80751,1.06762 1.4682,3.17856 1.4682,4.69098 0,1.51242 0.45,3.02797 1,3.36789 0.55,0.33992 1.00277,1.37898 1.00616,2.30902 0.003,0.93004 0.67839,2.97992 1.5,4.55529 0.82161,1.57537 1.49384,4.07287 1.49384,5.55 0,1.47713 0.37414,3.11319 0.83142,3.63569 1.09922,1.25599 3.16858,8.62618 3.16858,11.28512 0,1.1567 1.09327,5.45223 2.42949,9.54562 1.33622,4.09339 2.18311,8.38469 1.88197,9.53622 -0.30113,1.15153 -0.0127,2.73813 0.64102,3.52578 1.4458,1.74208 4.0006,15.40802 4.73111,25.30726 0.29425,3.9875 0.93582,7.25 1.42571,7.25 0.48988,0 0.8907,3.12071 0.8907,6.9349 0,3.8142 0.45153,8.12251 1.00339,9.57402 4.55524,11.98119 2.43833,110.86856 -2.3628,110.37346 -0.62732,-0.0647 -3.39059,-0.51314 -6.14059,-0.99656 z"
         id="path13" />
      <path
         style="fill:#faaf16"
         d="m 956.75,547.33772 c 0.6875,-0.27741 1.8125,-0.27741 2.5,0 0.6875,0.27741 0.125,0.50439 -1.25,0.50439 -1.375,0 -1.9375,-0.22698 -1.25,-0.50439 z m -36,-4 c 0.6875,-0.27741 1.8125,-0.27741 2.5,0 0.6875,0.27741 0.125,0.50439 -1.25,0.50439 -1.375,0 -1.9375,-0.22698 -1.25,-0.50439 z m -72,-9 c 0.6875,-0.27741 1.8125,-0.27741 2.5,0 0.6875,0.27741 0.125,0.50439 -1.25,0.50439 -1.375,0 -1.9375,-0.22698 -1.25,-0.50439 z m -58.9375,-7.02083 c 0.72187,-0.28887 1.58438,-0.25335 1.91667,0.0789 0.33229,0.33229 -0.25834,0.56864 -1.3125,0.52522 -1.16495,-0.048 -1.4019,-0.28494 -0.60417,-0.60416 z m -37,-5 c 0.72187,-0.28887 1.58438,-0.25335 1.91667,0.0789 0.33229,0.33229 -0.25834,0.56864 -1.3125,0.52522 -1.16495,-0.048 -1.4019,-0.28494 -0.60417,-0.60416 z m -92,-11 c 0.72187,-0.28887 1.58438,-0.25335 1.91667,0.0789 0.33229,0.33229 -0.25834,0.56864 -1.3125,0.52522 -1.16495,-0.048 -1.4019,-0.28494 -0.60417,-0.60416 z M 529.26903,495.30701 c 0.97297,-0.25354 2.32297,-0.23687 3,0.0371 0.67703,0.27393 -0.11903,0.48137 -1.76903,0.46099 -1.65,-0.0204 -2.20394,-0.2445 -1.23097,-0.49804 z m -37.19542,-5.24036 c -1.65982,-1.05044 -2.3725,0.11824 9.28409,-15.22427 4.32174,-5.68831 8.48424,-10.70224 9.25,-11.14207 0.76577,-0.43983 1.3923,-1.26935 1.3923,-1.84337 0,-0.57403 3.2625,-5.32357 7.25,-10.55454 3.9875,-5.23096 7.925,-10.53319 8.75,-11.78271 2.82255,-4.27496 14.4052,-19.01922 15.20316,-19.35302 0.43826,-0.18334 0.79684,-1.19584 0.79684,-2.25 0,-1.05417 0.4074,-1.91667 0.90534,-1.91667 0.49794,0 3.27953,-3.2625 6.18131,-7.25 2.90178,-3.9875 6.04018,-7.925 6.97422,-8.75 0.93404,-0.825 1.86495,-1.99997 2.06869,-2.61105 0.20374,-0.61107 1.57802,-2.63607 3.05394,-4.5 1.47593,-1.86392 6.87593,-9.02919 12,-15.92282 5.12408,-6.89362 11.004,-14.58997 13.0665,-17.10299 2.0625,-2.51302 3.75,-5.06292 3.75,-5.66644 0,-0.60353 0.57438,-1.45718 1.27639,-1.89701 0.70202,-0.43983 3.72812,-4.17469 6.72467,-8.29969 2.99655,-4.125 5.83787,-7.77671 6.31404,-8.11491 0.47618,-0.3382 1.38758,-1.53015 2.02534,-2.64879 0.63776,-1.11863 8.02206,-11.07735 16.40956,-22.13049 8.3875,-11.05314 15.25,-20.52632 15.25,-21.05152 0,-0.5252 0.57695,-1.31477 1.28212,-1.7546 1.41155,-0.88042 10.6719,-13.05599 11.44632,-15.04969 0.26705,-0.6875 1.11239,-1.25 1.87855,-1.25 0.76615,0 1.39301,-0.8625 1.39301,-1.91667 0,-1.05416 0.40279,-2.06666 0.8951,-2.25 0.4923,-0.18333 3.71228,-4.15833 7.1555,-8.83333 3.44322,-4.675 6.52793,-8.725 6.8549,-9 0.32698,-0.275 1.0445,-1.23844 1.5945,-2.14097 0.55,-0.90254 5.05,-6.94957 10,-13.43785 4.95,-6.48829 11.38946,-14.97485 14.30991,-18.85903 2.92046,-3.88418 5.73296,-7.21215 6.25,-7.39548 C 703.57696,207.98333 704,207.4328 704,206.94327 704,206.26041 716.73256,188.70542 721.7286,182.5 727.57795,175.23471 736,163.76686 736,163.0674 c 0,-0.4954 0.35858,-1.05073 0.79684,-1.23407 0.43826,-0.18333 3.67501,-4.15833 7.19278,-8.83333 3.51776,-4.675 6.64669,-8.725 6.95316,-9 0.30647,-0.275 1.00722,-1.22387 1.55722,-2.1086 0.96054,-1.54513 17.79347,-24.09658 19.64109,-26.31361 0.49401,-0.59278 2.02539,-2.42779 3.40307,-4.07779 1.37768,-1.65 3.95634,-5.1259 5.73035,-7.72421 1.77402,-2.59832 3.48596,-4.735822 3.8043,-4.750005 C 786.16942,98.9772 800,110.14297 800,111.07203 c 0,0.51038 0.5625,0.92832 1.25,0.92875 0.6875,4.3e-4 3.05,1.61741 5.25,3.59328 2.2,1.97588 6.22246,5.46303 8.9388,7.74922 7.22823,6.08362 34.09587,32.91776 41.97241,41.92009 4.23368,4.8388 6.5776,8.3234 6.22203,9.25 -0.37011,0.9645 0.0407,1.48663 1.16959,1.48663 1.80522,0 12.89199,13.42655 12.44717,15.07406 -0.1375,0.50926 0.425,0.92594 1.25,0.92594 0.825,0 1.5,0.675 1.5,1.5 0,0.825 0.36835,1.5 0.81856,1.5 1.2024,0 15.18144,19.3358 15.18144,20.99895 0,0.50058 1.14923,2.05937 2.55384,3.46398 1.40461,1.40461 2.27805,3.00006 1.94098,3.54545 -0.33707,0.54539 -0.18287,0.99162 0.34266,0.99162 1.5255,0 16.12642,24.48355 24.16252,40.51692 1.925,3.84069 3.74801,7.20808 4.05114,7.48308 0.60681,0.55051 10.19728,21.77705 11.92741,26.39888 0.95525,2.55186 0.90238,2.74719 -0.44169,1.63171 -1.25122,-1.03842 -2.02418,-0.93663 -4.28185,0.56385 -1.51526,1.00705 -3.20501,1.8735 -3.75501,1.92544 -1.42142,0.13422 -4.4466,1.36942 -8.5,3.47061 -1.925,0.99788 -5.4125,2.37947 -7.75,3.0702 -2.3375,0.69074 -4.25,1.63466 -4.25,2.0976 0,0.46294 -0.7875,0.84359 -1.75,0.8459 -0.9625,0.002 -3.96377,1.1273 -6.66948,2.5 -2.70571,1.37269 -5.51821,2.49581 -6.25,2.49581 -0.73179,0 -1.33052,0.41425 -1.33052,0.92054 0,0.5063 -1.35604,1.21839 -3.01342,1.58241 -1.65738,0.36402 -7.16988,2.46768 -12.25,4.6748 -5.08012,2.20712 -12.3838,5.33976 -16.23041,6.96143 -3.84661,1.62167 -7.42411,3.37876 -7.95,3.90465 -0.52589,0.52589 -2.18403,0.95617 -3.68474,0.95617 -1.50072,0 -3.40357,0.675 -4.22857,1.5 -0.825,0.825 -1.81338,1.5 -2.19639,1.5 -0.65332,0 -7.268,2.74681 -17.32124,7.19282 -2.40613,1.0641 -6.68113,2.82675 -9.5,3.917 -5.20586,2.01346 -23.65359,9.91261 -29.12523,12.47116 -5.89924,2.75849 -22.04622,9.57659 -24.52847,10.3572 -1.39066,0.43733 -4.40736,1.75368 -6.70377,2.92522 -2.29641,1.17154 -6.7836,3.08711 -9.97153,4.25683 -3.18792,1.16972 -6.22373,2.52119 -6.74623,3.00326 -0.5225,0.48208 -1.9299,0.87651 -3.12756,0.87651 -1.19765,0 -2.73775,0.675 -3.42244,1.5 -0.68469,0.825 -1.7515,1.5 -2.3707,1.5 -0.6192,0 -5.4016,1.8239 -10.62756,4.05311 -5.22596,2.22921 -12.20174,5.20361 -15.50174,6.60978 -3.3,1.40616 -8.37247,3.63227 -11.27215,4.94689 -2.89969,1.31462 -5.93719,2.39022 -6.75,2.39022 -0.81282,0 -1.47785,0.45 -1.47785,1 0,0.55 -0.62062,1 -1.37916,1 -1.40042,0 -9.84729,3.47489 -17.12084,7.0432 -2.2,1.0793 -4.54864,1.96111 -5.21921,1.95958 -0.67056,-0.002 -2.92056,0.86097 -5,1.91667 -2.07943,1.0557 -8.28079,3.75909 -13.78079,6.00753 -5.5,2.24845 -11.66415,4.98469 -13.69812,6.08055 -2.03396,1.09586 -4.62146,1.99247 -5.75,1.99247 -1.12853,0 -2.05188,0.45 -2.05188,1 0,0.55 -0.50623,1 -1.12495,1 -0.61873,0 -3.65623,1.07218 -6.75,2.38263 -3.09378,1.31045 -9.78755,4.10263 -14.87505,6.20485 -5.0875,2.10222 -9.25,4.18003 -9.25,4.61737 0,0.43733 -1.02487,0.79515 -2.27749,0.79515 -1.25263,0 -3.16513,0.59299 -4.25,1.31775 -1.08488,0.72476 -4.22251,2.13553 -6.97251,3.13504 -4.73552,1.72117 -9.11113,3.60147 -21.27734,9.14332 -2.90253,1.32214 -5.82753,2.40557 -6.5,2.40763 -0.67246,0.002 -2.57266,0.80441 -4.22266,1.783 -1.65,0.9786 -6.375,3.10659 -10.5,4.72887 -4.125,1.62228 -7.65,3.29492 -7.83333,3.71699 -0.18334,0.42207 -0.94118,0.7674 -1.68409,0.7674 -1.42249,0 -13.62472,5.0162 -14.48258,5.95363 -0.275,0.3005 -3.875,1.66441 -8,3.0309 -7.63433,2.52902 -11.30304,4.71613 -10.38976,6.19385 0.64752,1.0477 0.24967,1.01877 -1.53663,-0.11173 z M 978.232,458 c 0,-1.925 0.2058,-2.7125 0.45733,-1.75 0.25152,0.9625 0.25152,2.5375 0,3.5 -0.25153,0.9625 -0.45733,0.175 -0.45733,-1.75 z m -2.07411,-22 c 0,-1.375 0.22698,-1.9375 0.50439,-1.25 0.27741,0.6875 0.27741,1.8125 0,2.5 -0.27741,0.6875 -0.50439,0.125 -0.50439,-1.25 z m -1.96294,-15.5 c 0.0204,-1.65 0.2445,-2.20394 0.49804,-1.23097 0.25354,0.97297 0.23687,2.32297 -0.0371,3 -0.27393,0.67703 -0.48137,-0.11903 -0.46099,-1.76903 z M 968.15789,388 c 0,-1.375 0.22698,-1.9375 0.50439,-1.25 0.27741,0.6875 0.27741,1.8125 0,2.5 -0.27741,0.6875 -0.50439,0.125 -0.50439,-1.25 z m -4.07894,-18.58333 c 0.048,-1.16495 0.28494,-1.4019 0.60416,-0.60417 0.28887,0.72187 0.25335,1.58438 -0.0789,1.91667 -0.33229,0.33229 -0.56864,-0.25834 -0.52522,-1.3125 z m -8.73387,-29.9598 c -0.32569,-0.84872 -0.36872,-1.76657 -0.0956,-2.03966 0.27309,-0.2731 0.73656,0.42131 1.02992,1.54313 0.62315,2.38293 -0.0692,2.75089 -0.9343,0.49653 z m -3,-9 c -0.32569,-0.84872 -0.36872,-1.76657 -0.0956,-2.03966 0.27309,-0.2731 0.73656,0.42131 1.02992,1.54313 0.62315,2.38293 -0.0692,2.75089 -0.9343,0.49653 z m -3,-8 c -0.32569,-0.84872 -0.36872,-1.76657 -0.0956,-2.03966 0.27309,-0.2731 0.73656,0.42131 1.02992,1.54313 0.62315,2.38293 -0.0692,2.75089 -0.9343,0.49653 z M 734.44113,65.444834 c -1.86402,-1.493392 -1.85176,-1.511856 0.30887,-0.464816 1.2375,0.599692 2.25,1.299517 2.25,1.555166 0,0.76522 -0.51861,0.544238 -2.55887,-1.09035 z M 561.8125,5.316886 c 0.72187,-0.2888706 1.58438,-0.2533443 1.91667,0.078947 0.33229,0.3322917 -0.25834,0.5686404 -1.3125,0.5252193 -1.16495,-0.047984 -1.4019,-0.2849403 -0.60417,-0.6041663 z m -7.54347,-1.0098767 c 0.97297,-0.2535434 2.32297,-0.2368691 3,0.037054 0.67703,0.2739231 -0.11903,0.4813677 -1.76903,0.460988 -1.65,-0.02038 -2.20394,-0.2444986 -1.23097,-0.498042 z M 464.8125,0.31688596 c 0.72187,-0.28887061 1.58438,-0.25334429 1.91667,0.0789474 0.33229,0.33229167 -0.25834,0.56864035 -1.3125,0.5252193 -1.16495,-0.0479839 -1.4019,-0.2849403 -0.60417,-0.6041667 z m 48,0 c 0.72187,-0.28887061 1.58438,-0.25334429 1.91667,0.0789474 0.33229,0.33229167 -0.25834,0.56864035 -1.3125,0.5252193 -1.16495,-0.0479839 -1.4019,-0.2849403 -0.60417,-0.6041667 z"
         id="path12" />
      <path
         style="fill:#f47b1d"
         d="m 490.42889,485.5 c 0.32502,-2.2 1.27893,-10.3 2.1198,-18 0.84086,-7.7 1.78856,-14.675 2.106,-15.5 0.31743,-0.825 0.91118,-5.55 1.31943,-10.5 0.7407,-8.98077 7.05846,-61.73307 8.98221,-75 0.55826,-3.85 1.49463,-11.275 2.08082,-16.5 0.5862,-5.225 1.91402,-15.575 2.95073,-23 1.03671,-7.425 2.15014,-16.875 2.47431,-21 0.32416,-4.125 1.02702,-10.2 1.56192,-13.5 0.5349,-3.3 1.66148,-12.075 2.50351,-19.5 0.84204,-7.425 1.96566,-16.65 2.49694,-20.5 0.53128,-3.85 2.08272,-16.675 3.44766,-28.5 1.36493,-11.825 2.93752,-24.65 3.49464,-28.5 0.55712,-3.85 2.35794,-18.025 4.00183,-31.5 1.64388,-13.475 3.67155,-29.675 4.50591,-36 0.83437,-6.325 2.62529,-20.95 3.97982,-32.5 1.35454,-11.55 2.93654,-24.15 3.51557,-28 0.57903,-3.85 1.47663,-11.503319 1.99468,-17.007375 0.51805,-5.504056 1.42023,-13.379056 2.00485,-17.5 1.35181,-9.528838 2.96141,-21.698749 3.3336,-25.2048127 0.15836,-1.4917032 0.52085,-2.9451145 0.80554,-3.2298028 0.7478,-0.747805 25.66547,3.0286639 40.073,6.0733795 6.77509,1.431766 13.55584,2.826501 15.06834,3.099411 1.5125,0.272909 2.75,0.895124 2.75,1.382699 C 608,15.601075 609.39535,16 611.10078,16 c 5.999,0 38.72339,10.423223 63.39922,20.193633 14.3349,5.675914 47.99027,22.254161 62.55009,30.811454 C 757.86446,79.238389 784,97.175456 784,99.227251 c 0,0.923269 -5.9924,9.474059 -9.45242,13.488049 -2.39482,2.77823 -3.7061,4.47481 -12.17614,15.75389 -4.87929,6.49748 -9.32144,12.53747 -9.87144,13.42221 -0.55,0.88473 -1.25075,1.8336 -1.55722,2.1086 -0.30647,0.275 -3.4354,4.325 -6.95316,9 -3.51777,4.675 -6.75452,8.65 -7.19278,8.83333 C 736.35858,162.01667 736,162.572 736,163.0674 736,163.76686 727.57795,175.23471 721.7286,182.5 716.73256,188.70542 704,206.26041 704,206.94327 c 0,0.48953 -0.42304,1.04006 -0.94009,1.2234 -0.51704,0.18333 -3.32954,3.5113 -6.25,7.39548 -2.92045,3.88418 -9.35991,12.37074 -14.30991,18.85903 -4.95,6.48828 -9.45,12.53531 -10,13.43785 -0.55,0.90253 -1.26752,1.86597 -1.5945,2.14097 -0.32697,0.275 -3.41168,4.325 -6.8549,9 -3.44322,4.675 -6.6632,8.65 -7.1555,8.83333 -0.49231,0.18334 -0.8951,1.19584 -0.8951,2.25 0,1.05417 -0.62686,1.91667 -1.39301,1.91667 -0.76616,0 -1.6115,0.5625 -1.87855,1.25 -0.77442,1.9937 -10.03477,14.16927 -11.44632,15.04969 -0.70517,0.43983 -1.28212,1.2294 -1.28212,1.7546 0,0.5252 -6.8625,9.99838 -15.25,21.05152 -8.3875,11.05314 -15.7718,21.01186 -16.40956,22.13049 -0.63776,1.11864 -1.54916,2.31059 -2.02534,2.64879 -0.47617,0.3382 -3.31749,3.98991 -6.31404,8.11491 -2.99655,4.125 -6.02265,7.85986 -6.72467,8.29969 -0.70201,0.43983 -1.27639,1.29348 -1.27639,1.89701 0,0.60352 -1.6875,3.15342 -3.75,5.66644 -2.0625,2.51302 -7.94242,10.20937 -13.0665,17.10299 -5.12407,6.89363 -10.52407,14.0589 -12,15.92282 -1.47592,1.86393 -2.8502,3.88893 -3.05394,4.5 -0.20374,0.61108 -1.13465,1.78605 -2.06869,2.61105 -0.93404,0.825 -4.07244,4.7625 -6.97422,8.75 -2.90178,3.9875 -5.68337,7.25 -6.18131,7.25 -0.49794,0 -0.90534,0.8625 -0.90534,1.91667 0,1.05416 -0.35858,2.06666 -0.79684,2.25 -0.79796,0.3338 -12.38061,15.07806 -15.20316,19.35302 -0.825,1.24952 -4.7625,6.55175 -8.75,11.78271 -3.9875,5.23097 -7.25,9.98051 -7.25,10.55454 0,0.57402 -0.62653,1.40354 -1.3923,1.84337 -0.76576,0.43983 -4.80419,5.29969 -8.97428,10.79969 -4.17009,5.5 -8.53002,11.125 -9.68874,12.5 l -2.10675,2.5 z M 115,173.62244 c 0,-0.20765 0.7875,-0.99515 1.75,-1.75 1.58606,-1.24387 1.62143,-1.2085 0.37756,0.37756 C 115.82119,173.91575 115,174.44548 115,173.62244 Z M 135.5,151 c 0.99549,-1.1 2.03498,-2 2.30998,-2 0.275,0 -0.31449,0.9 -1.30998,2 -0.99549,1.1 -2.03498,2 -2.30998,2 -0.275,0 0.31449,-0.9 1.30998,-2 z M 146,140.62244 c 0,-0.20765 0.7875,-0.99515 1.75,-1.75 1.58606,-1.24387 1.62143,-1.2085 0.37756,0.37756 C 146.82119,140.91575 146,141.44548 146,140.62244 Z M 152,134.5 c 1.29175,-1.375 2.57363,-2.5 2.84863,-2.5 0.275,0 -0.55688,1.125 -1.84863,2.5 -1.29175,1.375 -2.57363,2.5 -2.84863,2.5 -0.275,0 0.55688,-1.125 1.84863,-2.5 z m 11,-9.87756 c 0,-0.20765 0.7875,-0.99515 1.75,-1.75 1.58606,-1.24387 1.62143,-1.2085 0.37756,0.37756 C 163.82119,124.91575 163,125.44548 163,124.62244 Z M 313,33 c 0.825,-0.533156 1.95,-0.969374 2.5,-0.969374 0.55,0 0.325,0.436218 -0.5,0.969374 -0.825,0.533156 -1.95,0.969374 -2.5,0.969374 -0.55,0 -0.325,-0.436218 0.5,-0.969374 z m 47.8125,-15.683114 c 0.72187,-0.288871 1.58438,-0.253344 1.91667,0.07895 0.33229,0.332292 -0.25834,0.568641 -1.3125,0.52522 -1.16495,-0.04798 -1.4019,-0.284941 -0.60417,-0.604167 z M 384.75,11.337719 c 0.6875,-0.277412 1.8125,-0.277412 2.5,0 0.6875,0.277413 0.125,0.504386 -1.25,0.504386 -1.375,0 -1.9375,-0.226973 -1.25,-0.504386 z m 5.0625,-1.020833 c 0.72187,-0.288871 1.58438,-0.253344 1.91667,0.07895 0.33229,0.332292 -0.25834,0.568641 -1.3125,0.52522 -1.16495,-0.04798 -1.4019,-0.284941 -0.60417,-0.604167 z m 5,-1 c 0.72187,-0.2888706 1.58438,-0.2533443 1.91667,0.078947 0.33229,0.3322917 -0.25834,0.5686404 -1.3125,0.5252193 -1.16495,-0.047984 -1.4019,-0.2849403 -0.60417,-0.6041663 z m 11,-2 c 0.72187,-0.2888706 1.58438,-0.2533443 1.91667,0.078947 0.33229,0.3322917 -0.25834,0.5686404 -1.3125,0.5252193 -1.16495,-0.047984 -1.4019,-0.2849403 -0.60417,-0.6041663 z M 417.75,5.3377193 c 0.6875,-0.2774123 1.8125,-0.2774123 2.5,0 0.6875,0.2774123 0.125,0.504386 -1.25,0.504386 -1.375,0 -1.9375,-0.2269737 -1.25,-0.504386 z m 8,-1 c 0.6875,-0.2774123 1.8125,-0.2774123 2.5,0 0.6875,0.2774123 0.125,0.504386 -1.25,0.504386 -1.375,0 -1.9375,-0.2269737 -1.25,-0.504386 z m 7.51903,-1.03071 c 0.97297,-0.2535434 2.32297,-0.2368691 3,0.037054 0.67703,0.2739231 -0.11903,0.4813677 -1.76903,0.460988 -1.65,-0.02038 -2.20394,-0.2444986 -1.23097,-0.498042 z M 442.25,2.3106745 c 0.9625,-0.2515276 2.5375,-0.2515276 3.5,0 0.9625,0.2515275 0.175,0.4573228 -1.75,0.4573228 -1.925,0 -2.7125,-0.2057953 -1.75,-0.4573228 z m 93,0 c 0.9625,-0.2515276 2.5375,-0.2515276 3.5,0 0.9625,0.2515275 0.175,0.4573228 -1.75,0.4573228 -1.925,0 -2.7125,-0.2057953 -1.75,-0.4573228 z M 455.26375,1.2824188 c 1.52006,-0.2298544 3.77006,-0.2237119 5,0.01365 1.22994,0.2373619 -0.0138,0.4254246 -2.76375,0.4179171 -2.75,-0.00751 -3.75631,-0.2017128 -2.23625,-0.4315671 z m 67.49791,0.01032 c 1.24391,-0.2391932 3.04391,-0.2301119 4,0.020181 C 527.71775,1.5632124 526.7,1.758916 524.5,1.7478166 522.3,1.7367172 521.51775,1.5319324 522.76166,1.2927388 Z M 469.7277,0.27826796 c 1.77523,-0.22091184 4.92523,-0.22454156 7,-0.008066 2.07476,0.21647552 0.6223,0.39722157 -3.2277,0.40165789 -3.85,0.004436 -5.54754,-0.17268001 -3.7723,-0.39359189 z m 36.0223,0.015999 c 1.2375,-0.23835289 3.2625,-0.23835289 4.5,0 1.2375,0.2383529 0.225,0.4333689 -2.25,0.4333689 -2.475,0 -3.4875,-0.195016 -2.25,-0.4333689 z"
         id="path11" />
      <path
         style="fill:#87ba3e"
         d="m 464.8125,979.31689 c 0.72187,-0.28887 1.58438,-0.25335 1.91667,0.0789 0.33229,0.33229 -0.25834,0.56864 -1.3125,0.52522 -1.16495,-0.048 -1.4019,-0.28494 -0.60417,-0.60416 z m 48,0 c 0.72187,-0.28887 1.58438,-0.25335 1.91667,0.0789 0.33229,0.33229 -0.25834,0.56864 -1.3125,0.52522 -1.16495,-0.048 -1.4019,-0.28494 -0.60417,-0.60416 z m -63,-1 c 0.72187,-0.28887 1.58438,-0.25335 1.91667,0.0789 0.33229,0.33229 -0.25834,0.56864 -1.3125,0.52522 -1.16495,-0.048 -1.4019,-0.28494 -0.60417,-0.60416 z m -20,-2 c 0.72187,-0.28887 1.58438,-0.25335 1.91667,0.0789 0.33229,0.33229 -0.25834,0.56864 -1.3125,0.52522 -1.16495,-0.048 -1.4019,-0.28494 -0.60417,-0.60416 z m 117,0 c 0.72187,-0.28887 1.58438,-0.25335 1.91667,0.0789 0.33229,0.33229 -0.25834,0.56864 -1.3125,0.52522 -1.16495,-0.048 -1.4019,-0.28494 -0.60417,-0.60416 z M 710,927.60699 c 0,-0.21616 0.69837,-0.661 1.55194,-0.98855 0.88992,-0.34149 1.29132,-0.17385 0.94098,0.39301 C 711.90566,927.96166 710,928.4169 710,927.60699 Z m 14,-7.03662 c 0,-0.275 0.9,-0.98167 2,-1.57037 1.1,-0.5887 2,-0.84537 2,-0.57037 0,0.275 -0.9,0.98167 -2,1.57037 -1.1,0.5887 -2,0.84537 -2,0.57037 z m 7,-4 c 0,-0.275 0.9,-0.98167 2,-1.57037 1.1,-0.5887 2,-0.84537 2,-0.57037 0,0.275 -0.9,0.98167 -2,1.57037 -1.1,0.5887 -2,0.84537 -2,0.57037 z m 17,-10 c 0,-0.275 0.9,-0.98167 2,-1.57037 1.1,-0.5887 2,-0.84537 2,-0.57037 0,0.275 -0.9,0.98167 -2,1.57037 -1.1,0.5887 -2,0.84537 -2,0.57037 z m 23,-14.94793 c 0,-0.20765 0.7875,-0.99515 1.75,-1.75 1.58606,-1.24387 1.62143,-1.2085 0.37756,0.37756 C 771.82119,891.91575 771,892.44548 771,891.62244 Z m 7,-5 c 0,-0.20765 0.7875,-0.99515 1.75,-1.75 1.58606,-1.24387 1.62143,-1.2085 0.37756,0.37756 C 778.82119,886.91575 778,887.44548 778,886.62244 Z M 783.5,882 c 0.99549,-1.1 2.03498,-2 2.30998,-2 0.275,0 -0.31449,0.9 -1.30998,2 -0.99549,1.1 -2.03498,2 -2.30998,2 -0.275,0 0.31449,-0.9 1.30998,-2 z m 8,-6 c 0.99549,-1.1 2.03498,-2 2.30998,-2 0.275,0 -0.31449,0.9 -1.30998,2 -0.99549,1.1 -2.03498,2 -2.30998,2 -0.275,0 0.31449,-0.9 1.30998,-2 z m 3.5,-2.29551 c 0,-0.25496 2.11653,-2.1979 4.7034,-4.31765 2.58688,-2.11975 4.38063,-3.33183 3.98613,-2.6935 C 802.84892,868.05347 795,874.38638 795,873.70449 Z M 808,862.5 c 1.29175,-1.375 2.57363,-2.5 2.84863,-2.5 0.275,0 -0.55688,1.125 -1.84863,2.5 -1.29175,1.375 -2.57363,2.5 -2.84863,2.5 -0.275,0 0.55688,-1.125 1.84863,-2.5 z m 5,-3.81291 c 0,-0.1721 1.4625,-1.6346 3.25,-3.25 l 3.25,-2.93709 -2.93709,3.25 C 813.82513,858.77946 813,859.45965 813,858.68709 Z M 836,836.5 c 6.30706,-6.325 11.69238,-11.5 11.96738,-11.5 0.275,0 -4.66032,5.175 -10.96738,11.5 -6.30706,6.325 -11.69238,11.5 -11.96738,11.5 -0.275,0 4.66032,-5.175 10.96738,-11.5 z m 19,-20 c 1.86578,-1.925 3.61733,-3.5 3.89233,-3.5 0.275,0 -1.02655,1.575 -2.89233,3.5 -1.86578,1.925 -3.61733,3.5 -3.89233,3.5 -0.275,0 1.02655,-1.575 2.89233,-3.5 z m 7,-8 c 1.29175,-1.375 2.57363,-2.5 2.84863,-2.5 0.275,0 -0.55688,1.125 -1.84863,2.5 -1.29175,1.375 -2.57363,2.5 -2.84863,2.5 -0.275,0 0.55688,-1.125 1.84863,-2.5 z m 4,-4.87756 c 0,-0.20765 0.7875,-0.99515 1.75,-1.75 1.58606,-1.24387 1.62143,-1.2085 0.37756,0.37756 C 866.82119,803.91575 866,804.44548 866,803.62244 Z m 4,-4.30079 c 0,-0.55642 1.0125,-1.86892 2.25,-2.91666 L 874.5,794.5 872.51066,797 c -1.09414,1.375 -2.10664,2.6875 -2.25,2.91667 C 870.1173,800.14583 870,799.87808 870,799.32165 Z m 6.43726,-8.6505 C 877.97732,788.65202 879.43961,787 879.68678,787 c 0.69466,0 -3.63455,5.84969 -4.91477,6.64091 -0.62418,0.38576 0.12518,-0.95063 1.66525,-2.96976 z m -2.51964,-10.9478 c -3.07032,-2.32284 -7.19503,-5.51164 -9.16603,-7.08623 -1.971,-1.57458 -4.69728,-3.59958 -6.05841,-4.5 -1.36113,-0.90041 -5.95921,-4.33712 -10.21796,-7.63712 -4.25875,-3.3 -8.73515,-6.675 -9.94755,-7.5 -1.21239,-0.825 -3.7396,-2.7116 -5.61601,-4.19245 C 831.03525,747.3267 822.975,741.26776 815,735.34325 807.025,729.41874 799.3796,723.54284 798.01022,722.2857 796.64084,721.02857 795.12038,720 794.63142,720 c -0.48896,0 -2.74356,-1.59759 -5.01022,-3.55019 -2.26666,-1.95261 -4.57589,-3.86511 -5.13162,-4.25 -0.55573,-0.3849 -3.10647,-2.38731 -5.6683,-4.44981 -2.56183,-2.0625 -5.03674,-3.75 -5.4998,-3.75 -0.46305,0 -1.96232,-1.03033 -3.3317,-2.28961 C 768.6204,700.4511 757.6,691.97201 745.5,682.86797 733.4,673.76392 716.15514,660.73175 707.17809,653.90758 698.20105,647.08341 689.57748,640.6 688.01461,639.5 c -1.56287,-1.1 -6.30749,-4.7 -10.5436,-8 -4.23611,-3.3 -8.71928,-6.675 -9.9626,-7.5 -1.24332,-0.825 -5.97351,-4.425 -10.51152,-8 -4.53802,-3.575 -10.19864,-7.85 -12.57915,-9.5 -2.38052,-1.65 -15.90102,-11.775 -30.04555,-22.5 -26.37098,-19.99563 -33.69635,-25.5342 -38.78882,-29.32747 -1.60415,-1.19489 -5.27913,-3.97253 -8.16662,-6.17253 -2.8875,-2.2 -6.48177,-4.9 -7.98727,-6 -1.5055,-1.1 -6.38053,-4.78461 -10.83338,-8.18801 -4.45286,-3.40341 -9.2211,-7.03315 -10.5961,-8.0661 -1.375,-1.03294 -11.79914,-8.89947 -23.16476,-17.48118 -11.36562,-8.58171 -21.60312,-16.1053 -22.75,-16.71909 C 490.93836,491.43183 490,490.47963 490,489.92963 c 0,-0.64634 0.6252,-0.6654 1.76781,-0.0539 0.9723,0.52035 9.4098,1.75338 18.75,2.74006 9.3402,0.98668 17.13219,2.15176 17.31552,2.58908 0.18334,0.43732 3.36319,0.79512 7.06634,0.79512 3.70316,0 9.17816,0.40287 12.16667,0.89526 2.98851,0.4924 9.70866,1.40249 14.93366,2.02243 5.225,0.61995 14.9,1.81446 21.5,2.65449 6.6,0.84002 15.6,1.94934 20,2.46516 4.4,0.51581 11.6,1.40805 16,1.98274 4.4,0.5747 13.625,1.69676 20.5,2.49347 6.875,0.79672 15.2,1.88876 18.5,2.42677 3.3,0.53801 30.75,3.9463 61,7.57399 30.25,3.62769 59.5,7.25052 65,8.05073 5.5,0.8002 21.7,2.84087 36,4.53481 14.3,1.69393 29.375,3.49011 33.5,3.9915 4.125,0.50138 11.775,1.37156 17,1.93372 8.80175,0.94699 17.14144,2.02365 39,5.03493 4.675,0.64404 12.325,1.51551 17,1.93659 9.78935,0.88175 40.77004,4.68204 45.68382,5.60387 3.94503,0.74009 4.00741,1.2556 1.77282,14.6491 -3.63426,21.78262 -9.07536,47.00773 -12.88828,59.75044 -0.74058,2.475 -2.34921,7.875 -3.57474,12 -2.38006,8.01099 -10.31221,30.52638 -12.50662,35.5 -0.728,1.65 -3.43941,7.95 -6.02537,14 -6.06825,14.19703 -17.13328,36.34581 -22.9192,45.87716 -2.49834,4.1156 -4.54243,7.71294 -4.54243,7.9941 0,0.68905 -11.36475,18.53635 -16.98233,26.66921 C 884.22324,781.6681 882.41842,783.97549 881,783.9615 c -0.825,-0.008 -4.01207,-1.91531 -7.08238,-4.23816 z M 317.8125,31.316886 c 0.72187,-0.288871 1.58438,-0.253344 1.91667,0.07895 0.33229,0.332292 -0.25834,0.568641 -1.3125,0.52522 -1.16495,-0.04798 -1.4019,-0.284941 -0.60417,-0.604167 z M 609.26903,15.307009 c 0.97297,-0.253543 2.32297,-0.236869 3,0.03705 0.67703,0.273923 -0.11903,0.481368 -1.76903,0.460988 -1.65,-0.02038 -2.20394,-0.244498 -1.23097,-0.498042 z m -64,-11.9999997 c 0.97297,-0.2535434 2.32297,-0.2368691 3,0.037054 0.67703,0.2739231 -0.11903,0.4813677 -1.76903,0.460988 -1.65,-0.02038 -2.20394,-0.2444986 -1.23097,-0.498042 z"
         id="path10" />
      <path
         style="fill:#f05321"
         d="m 488.51127,487.5 c -0.42308,-1.1 -2.46654,-6.05 -4.54101,-11 -2.07447,-4.95 -5.45176,-13.05 -7.5051,-18 -2.05334,-4.95 -4.02914,-9.45 -4.39068,-10 -0.36153,-0.55 -1.26585,-2.8 -2.0096,-5 -1.2142,-3.5916 -3.61989,-9.302 -7.58307,-18 -0.75182,-1.65 -4.37093,-10.2 -8.04248,-19 -3.67156,-8.8 -7.47579,-17.8 -8.45386,-20 -0.97806,-2.2 -2.97548,-6.925 -4.43871,-10.5 -1.46323,-3.575 -3.98484,-9.33271 -5.60359,-12.7949 C 434.32443,359.7429 433,356.70897 433,356.46301 c 0,-0.5387 -10.23011,-24.76036 -13.67442,-32.3767 -1.34652,-2.97753 -3.05137,-7.02753 -3.78857,-9 -0.73719,-1.97247 -4.12252,-10.11131 -7.52294,-18.08631 -3.40043,-7.975 -7.73404,-18.2416 -9.63024,-22.81467 -1.89621,-4.57306 -3.87198,-9.07306 -4.39061,-10 -0.51863,-0.92693 -2.1118,-4.61033 -3.54038,-8.18533 -1.42859,-3.575 -6.12747,-14.825 -10.44198,-25 -4.3145,-10.175 -12.32719,-29.075 -17.80596,-42 -5.47878,-12.925 -10.29628,-24.625 -10.70555,-26 -0.40927,-1.375 -1.09207,-2.95 -1.51733,-3.5 -0.42527,-0.55 -1.96873,-3.925 -3.42992,-7.5 -1.46118,-3.575 -4.39932,-10.55 -6.52919,-15.5 -2.12987,-4.95 -5.96769,-13.95 -8.52849,-20 -2.56079,-6.05 -5.92806,-13.925 -7.48281,-17.5 -1.55476,-3.575 -5.16436,-12.125 -8.02134,-19 -4.79066,-11.528155 -6.74837,-16.117934 -14.43804,-33.849342 -1.51445,-3.492138 -2.37075,-6.681414 -1.90289,-7.087281 0.46786,-0.405866 4.90066,-2.201701 9.85066,-3.990744 4.95,-1.789043 10.35,-3.848777 12,-4.577187 13.76271,-6.075695 47.78152,-15.380892 79,-21.6089419 42.55177,-8.48902931 102.00635,-10.6449331 144.64466,-5.2450124 4.31371,0.5463085 4.62155,0.7759891 4.32028,3.2233652 -0.67254,5.4633911 -2.47114,18.9076311 -3.49542,26.1277681 -0.58462,4.120944 -1.4868,11.995944 -2.00485,17.5 C 543.44662,55.996681 542.54902,63.65 541.96999,67.5 c -0.57903,3.85 -2.16103,16.45 -3.51557,28 -1.35453,11.55 -3.14545,26.175 -3.97982,32.5 -0.83436,6.325 -2.86203,22.525 -4.50591,36 -1.64389,13.475 -3.44471,27.65 -4.00183,31.5 -0.55712,3.85 -2.12971,16.675 -3.49464,28.5 -1.36494,11.825 -2.91638,24.65 -3.44766,28.5 -0.53128,3.85 -1.6549,13.075 -2.49694,20.5 -0.84203,7.425 -1.96861,16.2 -2.50351,19.5 -0.5349,3.3 -1.23776,9.375 -1.56192,13.5 -0.32417,4.125 -1.4376,13.575 -2.47431,21 -1.03671,7.425 -2.36453,17.775 -2.95073,23 -0.58619,5.225 -1.52256,12.65 -2.08082,16.5 -1.92375,13.26693 -8.24151,66.01923 -8.98221,75 -0.40825,4.95 -1.00258,9.675 -1.32072,10.5 -0.31814,0.825 -1.28896,8.025 -2.15737,16 -0.86841,7.975 -1.94716,16.075 -2.39722,18 -0.70197,3.00246 -0.92765,3.21569 -1.58754,1.5 z M 100,192.62244 c 0,-0.20765 0.7875,-0.99515 1.75,-1.75 1.58606,-1.24387 1.62143,-1.2085 0.37756,0.37756 C 100.82119,192.91575 100,193.44548 100,192.62244 Z m 25,-30 c 0,-0.20765 0.7875,-0.99515 1.75,-1.75 1.58606,-1.24387 1.62143,-1.2085 0.37756,0.37756 C 125.82119,162.91575 125,163.44548 125,162.62244 Z m 44,-43 c 0,-0.20765 0.7875,-0.99515 1.75,-1.75 1.58606,-1.24387 1.62143,-1.2085 0.37756,0.37756 C 169.82119,119.91575 169,120.44548 169,119.62244 Z m 16,-13 c 0,-0.20765 0.7875,-0.99515 1.75,-1.75 1.58606,-1.24387 1.62143,-1.2085 0.37756,0.37756 C 185.82119,106.91575 185,107.44548 185,106.62244 Z m 5,-4 c 0,-0.20765 0.7875,-0.99515 1.75,-1.75 1.58606,-1.243866 1.62143,-1.208496 0.37756,0.37756 C 190.82119,102.91575 190,103.44548 190,102.62244 Z"
         id="path9" />
      <path
         style="fill:#e31d24"
         d="m 483.7681,485.30505 c -2.03237,-1.54278 -3.71161,-3.36755 -3.73166,-4.05505 -0.02,-0.6875 -1.04894,-1.2625 -2.28644,-1.27778 -1.2375,-0.0153 -3.55439,-1.35717 -5.14865,-2.98198 -1.59425,-1.62481 -4.18175,-3.52216 -5.75,-4.21633 C 465.28311,472.07974 464,470.99541 464,470.3643 c 0,-0.63112 -1.09501,-1.42231 -2.43335,-1.75822 -1.33834,-0.3359 -2.71867,-1.50968 -3.06739,-2.6084 C 458.15054,464.89895 457.06529,464 456.0876,464 c -0.97769,0 -2.59211,-0.9 -3.5876,-2 -0.99549,-1.1 -2.41523,-2 -3.15499,-2 C 448.60526,460 448,459.37959 448,458.62132 c 0,-0.75827 -1.29827,-1.91644 -2.88505,-2.57371 -1.58678,-0.65726 -4.56834,-2.73686 -6.6257,-4.62132 C 436.4319,449.54183 434.13018,448 433.37431,448 432.61844,448 432,447.325 432,446.5 c 0,-0.825 -0.50309,-1.5 -1.11798,-1.5 -0.6149,0 -2.59988,-1.2375 -4.41107,-2.75 -1.8112,-1.5125 -4.89572,-3.875 -6.85449,-5.25 -1.95877,-1.375 -3.57379,-3.0625 -3.58893,-3.75 -0.0151,-0.6875 -0.75258,-1.25 -1.63875,-1.25 -0.88617,0 -3.76112,-1.8 -6.38878,-4 -2.62766,-2.2 -5.12736,-4 -5.55489,-4 -0.42754,0 -1.49008,-0.67263 -2.36122,-1.49474 C 396.9247,419.52389 392.1915,416 391.34619,416 c -0.4758,0 -1.42716,-0.9 -2.11412,-2 -0.68696,-1.1 -1.89784,-2 -2.69085,-2 -0.79301,0 -1.8017,-0.58718 -2.24153,-1.30484 -0.43983,-0.71767 -2.38237,-2.26458 -4.31675,-3.4376 -1.93438,-1.17301 -4.60032,-3.28583 -5.92431,-4.69515 C 372.73464,401.15308 370.82981,400 369.82569,400 368.82156,400 368,399.325 368,398.5 c 0,-0.825 -0.45,-1.5 -1,-1.5 -0.55,0 -1.87607,-0.87607 -2.94682,-1.94682 -1.07075,-1.07075 -3.32075,-2.65731 -5,-3.52568 C 357.37393,390.65913 356,389.54052 356,389.04171 c 0,-0.49882 -0.9,-1.19258 -2,-1.54171 -1.1,-0.34913 -2,-1.27945 -2,-2.06739 C 352,384.64468 351.17844,384 350.17431,384 c -1.00412,0 -2.90895,-1.15308 -4.23294,-2.56241 -1.32399,-1.40932 -3.98993,-3.53253 -5.92431,-4.71825 -4.15798,-2.54871 -5.39369,-3.47207 -8.65772,-6.46934 -1.34764,-1.2375 -2.92753,-2.25 -3.51087,-2.25 -0.58335,0 -1.94555,-1.125 -3.02713,-2.5 -1.08158,-1.375 -2.56069,-2.5 -3.28693,-2.5 -0.72624,0 -1.57945,-0.675 -1.89604,-1.5 -0.31658,-0.825 -1.18985,-1.5 -1.9406,-1.5 -0.75074,0 -3.31474,-1.8 -5.69777,-4 -2.38303,-2.2 -5.1579,-4 -6.16639,-4 C 304.82512,352 304,351.35532 304,350.56739 c 0,-0.78794 -0.9,-1.71826 -2,-2.06739 -1.1,-0.34913 -2,-1.04289 -2,-1.54171 0,-0.49881 -1.37393,-1.61742 -3.05318,-2.48579 -1.67925,-0.86837 -3.92925,-2.45493 -5,-3.52568 C 290.87607,339.87607 289.55,339 289,339 c -0.55,0 -1,-0.675 -1,-1.5 0,-0.825 -0.64723,-1.5 -1.43828,-1.5 -0.79106,0 -2.87138,-1.30893 -4.62294,-2.90874 -1.75157,-1.5998 -4.70434,-3.72714 -6.56172,-4.7274 C 273.51968,327.36359 272,325.97252 272,325.2726 272,324.57267 271.325,324 270.5,324 c -0.825,0 -2.4,-0.9 -3.5,-2 -1.1,-1.1 -2.49774,-2 -3.10608,-2 -0.60834,0 -1.991,-1.125 -3.07258,-2.5 -1.08158,-1.375 -2.38042,-2.5 -2.88631,-2.5 -0.92235,0 -3.10885,-1.69703 -9.98529,-7.75 -2.03068,-1.7875 -4.6501,-3.25 -5.82094,-3.25 -1.46213,0 -2.1288,-0.62633 -2.1288,-2 0,-1.1 -0.5625,-2.02988 -1.25,-2.06639 -0.6875,-0.0365 -3.275,-1.61191 -5.75,-3.50087 -2.475,-1.88897 -5.5125,-3.95632 -6.75,-4.59413 C 225.0125,291.20081 224,290.0762 224,289.33948 224,288.60277 223.53676,288 222.97058,288 c -0.56618,0 -3.2696,-1.77076 -6.00759,-3.93502 -2.738,-2.16427 -5.87476,-4.21959 -6.97059,-4.56739 C 208.89658,279.14979 208,278.22055 208,277.43261 208,276.64468 207.40985,276 206.68856,276 c -0.72129,0 -2.27747,-0.9 -3.45819,-2 -1.18071,-1.1 -2.53441,-2 -3.00822,-2 -0.47381,0 -1.83965,-1.125 -3.0352,-2.5 -1.19555,-1.375 -2.58333,-2.5 -3.08395,-2.5 -0.88366,0 -6.05179,-4.17147 -10.84058,-8.75 C 181.96809,257.0125 179.80455,256 178.45455,256 176.66667,256 176,255.45679 176,254 c 0,-1.1 -0.59656,-2 -1.32569,-2 -0.72912,0 -2.38927,-1.13214 -3.68922,-2.51587 -1.29995,-1.38373 -4.30339,-3.6527 -6.67431,-5.04215 C 161.93985,243.05252 160,241.48466 160,240.95785 160,240.43103 159.3625,240 158.58333,240 c -0.77916,0 -1.56666,-0.35804 -1.75,-0.79565 C 156.2371,237.78117 146.75086,231 145.3562,231 144.61029,231 144,230.39723 144,229.66052 c 0,-0.73672 -1.0125,-1.85846 -2.25,-2.49275 -3.99696,-2.04867 -6.13049,-3.62053 -8.03238,-5.91777 -1.02453,-1.2375 -2.39262,-2.2625 -3.0402,-2.27778 -0.64758,-0.0153 -2.52742,-1.40836 -4.17742,-3.09574 -1.65,-1.68737 -4.2375,-3.71143 -5.75,-4.4979 C 119.2375,210.59211 118,209.5102 118,208.97432 118,208.43844 116.65,208 115,208 c -2.37805,0 -3,-0.43404 -3,-2.09362 0,-1.25262 -0.8034,-2.30371 -2,-2.61663 -1.1,-0.28766 -2,-0.92714 -2,-1.42108 0,-0.49394 -1.45324,-1.78183 -3.22942,-2.86199 -4.69562,-2.85558 -4.988616,-4.855 -1.37012,-9.34969 10.09261,-12.53647 20.83612,-25.1045 27.01738,-31.60563 C 142.43692,145.41032 161.24918,127 162.14713,127 162.61621,127 163,126.61619 163,126.14708 c 0,-1.11586 25.61125,-22.39515 30.24439,-25.12877 1.96735,-1.160764 3.82807,-2.764742 4.13492,-3.564395 0.30686,-0.799653 1.13454,-1.454267 1.83931,-1.454697 0.70476,-4.3e-4 3.05062,-1.57543 5.21303,-3.5 C 206.59406,90.574648 208.9342,89 209.63196,89 c 0.69776,0 1.62852,-0.5625 2.06835,-1.25 C 212.71086,86.170403 221.73074,80 223.02924,80 223.56316,80 224,79.602484 224,79.116631 c 0,-0.485852 0.7875,-1.161681 1.75,-1.501842 0.9625,-0.340161 4.675,-2.425457 8.25,-4.633993 3.575,-2.208535 7.7375,-4.501728 9.25,-5.095983 C 244.7625,67.290558 246,66.442392 246,66 c 0,-0.442392 1.2375,-1.300673 2.75,-1.90729 1.5125,-0.606618 5,-2.463212 7.75,-4.125766 4.29859,-2.59878 8.95894,-4.942656 18,-9.052924 1.1,-0.500084 2.675,-1.334063 3.5,-1.853285 4.15948,-2.617813 19.37224,-9.126809 20.3628,-8.712512 0.62546,0.261594 2.21526,3.10276 3.5329,6.313702 1.31763,3.210941 3.85918,9.213075 5.64787,13.338075 1.7887,4.125 5.58971,13.125 8.4467,20 2.85698,6.875 6.46658,15.425 8.02134,19 1.55475,3.575 4.92202,11.45 7.48281,17.5 2.5608,6.05 6.39862,15.05 8.52849,20 2.12987,4.95 5.06801,11.925 6.52919,15.5 1.46119,3.575 3.00465,6.95 3.42992,7.5 0.42526,0.55 1.10806,2.125 1.51733,3.5 0.40927,1.375 5.22677,13.075 10.70555,26 5.47877,12.925 13.49146,31.825 17.80596,42 4.31451,10.175 9.01339,21.425 10.44198,25 1.42858,3.575 3.02175,7.2584 3.54038,8.18533 0.51863,0.92694 2.4944,5.42694 4.39061,10 1.8962,4.57307 6.22981,14.83967 9.63024,22.81467 3.40042,7.975 6.78575,16.11384 7.52294,18.08631 0.7372,1.97247 2.44205,6.02247 3.78857,9 3.44431,7.61634 13.67442,31.838 13.67442,32.3767 0,0.24596 1.32443,3.27989 2.94317,6.74209 1.61875,3.46219 4.14036,9.2199 5.60359,12.7949 1.46323,3.575 3.46065,8.3 4.43871,10.5 0.97807,2.2 4.7823,11.2 8.45386,20 3.67155,8.8 7.29066,17.35 8.04248,19 3.96318,8.698 6.36887,14.4084 7.58307,18 0.74375,2.2 1.64807,4.45 2.0096,5 0.36154,0.55 2.33734,5.05 4.39068,10 2.05334,4.95 5.52116,13.17756 7.70627,18.28347 2.18511,5.10591 3.81969,9.74318 3.6324,10.30504 -0.18729,0.56187 -2.00337,-0.24069 -4.03573,-1.78346 z"
         id="path8" />
      <path
         style="fill:#513b96"
         d="m 413,974 c -3.46042,-0.72839 -3.46608,-0.73803 -0.5,-0.85305 1.65,-0.064 3.675,0.31989 4.5,0.85305 1.66506,1.07605 1.11209,1.07605 -4,0 z m -9.25,-1.66228 c 0.6875,-0.27741 1.8125,-0.27741 2.5,0 0.6875,0.27741 0.125,0.50439 -1.25,0.50439 -1.375,0 -1.9375,-0.22698 -1.25,-0.50439 z m -14.9375,-3.02083 c 0.72187,-0.28887 1.58438,-0.25335 1.91667,0.0789 0.33229,0.33229 -0.25834,0.56864 -1.3125,0.52522 -1.16495,-0.048 -1.4019,-0.28494 -0.60417,-0.60416 z m -5,-1 c 0.72187,-0.28887 1.58438,-0.25335 1.91667,0.0789 0.33229,0.33229 -0.25834,0.56864 -1.3125,0.52522 -1.16495,-0.048 -1.4019,-0.28494 -0.60417,-0.60416 z m -20,-5 c 0.72187,-0.28887 1.58438,-0.25335 1.91667,0.0789 0.33229,0.33229 -0.25834,0.56864 -1.3125,0.52522 -1.16495,-0.048 -1.4019,-0.28494 -0.60417,-0.60416 z M 355.5,961.528 c -2.20072,-0.7253 -3.10036,-1.34517 -2,-1.37804 1.1,-0.0329 3.35,0.5584 5,1.31393 3.81129,1.74515 2.20483,1.77949 -3,0.0641 z M 343.5,958 c -1.31874,-0.56668 -1.48906,-0.87815 -0.5,-0.9144 0.825,-0.0302 2.175,0.38124 3,0.9144 1.82797,1.18132 0.24909,1.18132 -2.5,0 z m -9,-3 c -1.63041,-0.70061 -1.68751,-0.87242 -0.30902,-0.92971 0.93004,-0.0387 1.9691,0.37971 2.30902,0.92971 0.71066,1.14988 0.67591,1.14988 -2,0 z m -17,-6 c -1.90836,-0.82005 -1.8969,-0.86265 0.25,-0.92971 1.2375,-0.0387 2.25,0.37971 2.25,0.92971 0,0.55 -0.1125,0.96837 -0.25,0.92971 -0.1375,-0.0386 -1.15,-0.45702 -2.25,-0.92971 z m -9,-3.53519 c -2.51248,-1.21016 -2.59373,-1.34707 -0.5,-0.8425 1.375,0.33136 2.9275,1.0019 3.45,1.49008 1.29616,1.21103 0.58434,1.05477 -2.95,-0.64758 z M 294,939.5 c -1.375,-0.78602 -2.05,-1.42913 -1.5,-1.42913 0.55,0 2.125,0.64311 3.5,1.42913 1.375,0.78602 2.05,1.42913 1.5,1.42913 -0.55,0 -2.125,-0.64311 -3.5,-1.42913 z m -29.55887,-13.9682 c -1.06762,-0.8075 -1.46464,-1.4825 -0.88226,-1.5 0.58238,-0.0175 1.93238,0.62889 3,1.4364 1.06762,0.8075 1.46464,1.4825 0.88226,1.5 -0.58238,0.0175 -1.93238,-0.62889 -3,-1.4364 z M 242,913 c -0.90129,-0.58246 -1.02463,-0.97549 -0.30902,-0.98469 0.65504,-0.008 1.4691,0.43469 1.80902,0.98469 0.7673,1.24153 0.42112,1.24153 -1.5,0 z m -24,-15 c -1.375,-1.07554 -2.00724,-1.96553 -1.40499,-1.97776 0.60226,-0.0122 1.9095,0.87776 2.90499,1.97776 2.28016,2.51955 1.72106,2.51955 -1.5,0 z m -5.12756,-3.75 c -1.24387,-1.58606 -1.2085,-1.62143 0.37756,-0.37756 0.9625,0.75485 1.75,1.54235 1.75,1.75 0,0.82304 -0.82119,0.29331 -2.12756,-1.37244 z M 201,885.91065 c -2.15377,-1.76168 -2.1961,-1.89635 -0.30569,-0.97239 1.20687,0.58987 2.47092,1.52008 2.80901,2.06712 0.90258,1.4604 0.29641,1.19531 -2.50332,-1.09473 z m -9.5,-7.47832 c -2.75,-2.71278 -4.325,-4.0511 -3.5,-2.97404 0.825,1.07706 -1.75932,-0.65856 -5.74293,-3.85693 -3.98361,-3.19837 -6.95159,-6.28663 -6.59549,-6.8628 0.35609,-0.57617 0.20124,-0.77181 -0.3441,-0.43477 -1.32041,0.81606 -5.514,-2.17679 -4.75988,-3.39699 0.32508,-0.52599 0.0156,-0.8327 -0.68782,-0.68158 -0.70338,0.15113 -1.29933,-0.35732 -1.32433,-1.12989 -0.025,-0.77257 -0.88764,-1.52828 -1.91699,-1.67936 -2.19392,-0.32199 -7.76552,-5.38519 -7.10391,-6.45569 0.24938,-0.40352 -0.21662,-1.28975 -1.03556,-1.96942 C 157.67005,848.3112 157,848.04558 157,848.40061 c 0,0.35502 -1.12114,-0.0891 -2.49141,-0.98694 -1.37028,-0.89784 -2.19814,-2.14572 -1.83968,-2.77305 0.35846,-0.62734 0.26946,-0.79298 -0.19778,-0.36809 -1.10393,1.00388 -9.57601,-7.29382 -8.77326,-8.59269 0.33613,-0.54387 0.16292,-0.71184 -0.38491,-0.37326 -1.29834,0.80242 -7.58506,-5.67738 -6.58054,-6.78265 0.42217,-0.46452 0.2278,-0.53492 -0.43192,-0.15645 -1.35531,0.77752 -5.99688,-4.94291 -5.46717,-6.73792 0.18334,-0.62126 -2.6e-4,-0.79596 -0.40799,-0.38824 -0.92712,0.92713 -3.58706,-1.17063 -2.89802,-2.28553 0.27792,-0.44968 -0.0216,-1.14322 -0.66552,-1.5412 -0.77539,-0.47922 -0.92656,-0.24926 -0.44759,0.6809 0.39778,0.77248 -0.87116,-0.34462 -2.81986,-2.48245 -1.9487,-2.13783 -3.33458,-4.22434 -3.07973,-4.63669 0.25485,-0.41236 -0.31919,-1.36322 -1.27563,-2.11304 -1.5953,-1.25066 -1.62525,-1.19806 -0.36241,0.63669 0.75712,1.1 -0.46695,-0.025 -2.72016,-2.5 -2.2532,-2.475 -4.11017,-4.75047 -4.12658,-5.05659 -0.0164,-0.30612 -2.07196,-2.74948 -4.56788,-5.42968 -2.49592,-2.6802 -4.3182,-5.44598 -4.04951,-6.14618 0.26869,-0.7002 -0.91278,-2.45221 -2.6255,-3.89337 -3.764859,-3.16792 -7.901541,-8.23544 -5.768539,-7.06658 0.814874,0.44654 0.304729,-0.24999 -1.133656,-1.54785 -3.321648,-2.99714 -7.79386,-9.48996 -5.831422,-8.46614 0.795667,0.4151 0.231461,-0.19993 -1.253791,-1.36675 -1.485252,-1.16682 -2.467073,-2.72968 -2.181826,-3.47303 0.285247,-0.74334 -0.03158,-1.69158 -0.704051,-2.10719 -0.84555,-0.52258 -0.975551,-0.32244 -0.421469,0.64885 0.547099,0.95905 0.471521,1.08735 -0.238292,0.40451 -1.866859,-1.79591 -8.513433,-12.77843 -7.267394,-12.00834 0.936694,0.57891 0.954479,0.26659 0.07807,-1.37098 C 75.440361,748.9543 74.693908,748 74.405799,748 c -0.288108,0 -0.245718,0.45 0.0942,1 0.339919,0.55 0.410925,1 0.157793,1 -0.253133,0 -1.405466,-1.60204 -2.560741,-3.56008 -1.155276,-1.95805 -1.604829,-3.25374 -0.999008,-2.87933 0.776559,0.47994 0.766689,0.0552 -0.03346,-1.43991 C 70.440361,740.9543 69.504611,740 68.98514,740 c -0.975322,0 -5.330095,-7.67393 -5.429247,-9.56735 -0.03074,-0.58704 -0.84634,-1.85963 -1.812441,-2.82798 -2.402707,-2.40828 -3.947665,-5.46523 -3.29544,-6.52055 0.297276,-0.481 -0.160436,-1.14353 -1.017138,-1.47227 -0.856701,-0.32875 -1.302656,-1.01029 -0.991012,-1.51455 0.729598,-1.18051 -0.420947,-4.22702 -1.373943,-3.63804 -0.983497,0.60783 -7.647023,-13.36313 -7.249037,-15.19857 0.20428,-0.9421 -0.122614,-1.18977 -0.919939,-0.697 -0.862414,0.533 -1.043519,0.26066 -0.598267,-0.89965 C 46.649881,696.74882 46.531678,696 46.036003,696 c -1.137549,0 -2.501175,-3.93695 -2.164788,-6.25 0.143413,-0.98614 -0.384976,-1.75 -1.210532,-1.75 -0.805768,0 -1.941017,-1.36541 -2.522776,-3.03425 -0.759866,-2.17975 -0.750881,-2.84459 0.03191,-2.3608 0.642212,0.39691 0.897682,0.103 0.622148,-0.71575 -0.595035,-1.76816 2.037262,-3.81611 4.958039,-3.8574 C 46.9875,678.01431 48,677.55 48,677 c 0,-0.55 1.064314,-1 2.365141,-1 1.300828,0 3.509306,-0.9 4.90773,-2 1.398423,-1.1 3.934109,-2 5.634858,-2 C 62.782164,672 64,671.48677 64,670.69683 c 0,-0.7317 3.060736,-2.28894 6.979702,-3.55113 3.838836,-1.23638 7.562625,-2.83088 8.275086,-3.54335 0.712462,-0.71246 2.971596,-1.60984 5.020299,-1.99418 C 86.323789,661.22383 88,660.56866 88,660.15223 c 0,-0.88404 8.754985,-4.16443 11.095012,-4.15718 0.877257,0.003 2.401538,-0.88625 3.387288,-1.97549 0.98575,-1.08925 3.34408,-2.27156 5.24073,-2.62738 1.89664,-0.35581 6.11703,-1.93961 9.37864,-3.51956 3.2616,-1.57994 6.2641,-2.87262 6.67222,-2.87262 0.40811,0 2.76344,-1.06376 5.23407,-2.36391 2.47062,-1.30014 6.13389,-2.66197 8.14059,-3.02628 2.00671,-0.3643 4.77768,-1.55055 6.15773,-2.63609 1.38005,-1.08555 3.17952,-1.97372 3.99883,-1.97372 0.8193,0 4.21058,-1.35 7.53618,-3 3.32559,-1.65 6.45264,-3 6.94898,-3 1.37048,0 7.09176,-3.00011 7.74887,-4.06332 C 169.85753,624.4215 171.44148,624 173.05902,624 174.67656,624 176,623.65616 176,623.2359 c 0,-0.91157 5.56419,-3.39408 13.90555,-6.20408 3.33544,-1.12363 7.53368,-2.93877 9.32944,-4.03365 1.79576,-1.09488 4.50251,-1.99238 6.01501,-1.99443 1.77612,-0.002 2.75,-0.53495 2.75,-1.50374 0,-0.95898 0.96347,-1.5 2.67126,-1.5 1.46919,0 3.38169,-0.6121 4.25,-1.36022 0.86831,-0.74812 4.95374,-2.62198 9.07874,-4.16414 4.125,-1.54216 7.64525,-3.16582 7.82278,-3.60812 0.17753,-0.44231 1.97753,-1.10836 4,-1.4801 2.02247,-0.37175 3.90222,-0.95889 4.17722,-1.30476 1.44206,-1.81369 6.27181,-4.08447 8.71482,-4.0974 1.53185,-0.008 3.91018,-0.63481 5.28518,-1.39267 6.23312,-3.4355 12.72957,-6.4162 15.25,-6.99699 1.5125,-0.34854 2.75,-1.07513 2.75,-1.61465 0,-0.53952 0.8372,-0.98095 1.86045,-0.98095 1.02325,0 3.41352,-1.05394 5.31171,-2.34208 1.89818,-1.28815 5.39658,-2.65316 7.77422,-3.03335 2.37763,-0.3802 5.40061,-1.53895 6.71773,-2.575 1.31712,-1.03605 4.18152,-2.18559 6.36533,-2.55454 2.18381,-0.36896 3.97056,-1.04637 3.97056,-1.50538 0,-0.459 1.6875,-1.38347 3.75,-2.05439 2.0625,-0.67091 4.63763,-1.83081 5.72251,-2.57755 1.08487,-0.74674 2.99737,-1.35771 4.25,-1.35771 1.35777,0 2.27749,-0.60575 2.27749,-1.5 0,-1.05099 1.0602,-1.5 3.54181,-1.5 2.06281,0 4.37036,-0.77191 5.52595,-1.8485 1.09128,-1.01668 3.88496,-2.44733 6.20819,-3.17922 2.32323,-0.73189 5.88924,-2.14783 7.92448,-3.14653 2.03524,-0.9987 5.86024,-2.53998 8.5,-3.42507 2.63976,-0.88509 5.51,-2.23732 6.37831,-3.00496 0.86831,-0.76765 3.45581,-1.39572 5.75,-1.39572 3.01727,0 4.17126,-0.40971 4.17126,-1.48095 0,-0.81452 1.2375,-1.79067 2.75,-2.16922 1.5125,-0.37855 4.1,-1.51044 5.75,-2.51531 1.65,-1.00488 4.0125,-1.82873 5.25,-1.83078 1.2375,-0.002 2.25,-0.41884 2.25,-0.92619 0,-0.50734 1.6767,-1.47581 3.72601,-2.15214 2.0493,-0.67633 5.0868,-2.05955 6.75,-3.07381 1.66319,-1.01427 3.69899,-1.85589 4.52399,-1.87027 0.825,-0.0144 4.2,-1.35598 7.5,-2.98133 3.3,-1.62535 6.7875,-2.96527 7.75,-2.97759 0.9625,-0.0123 1.75,-0.38919 1.75,-0.83748 0,-0.92821 11.65001,-5.21044 14.13337,-5.19505 0.89835,0.006 1.86872,-0.88988 2.15638,-1.98988 0.38977,-1.49047 1.37485,-2.00566 3.86663,-2.02224 1.83899,-0.0122 4.46862,-0.90222 5.84362,-1.97776 1.375,-1.07554 3.1057,-1.96553 3.846,-1.97776 0.7403,-0.0122 4.61228,-1.57222 8.60439,-3.46664 3.99211,-1.89442 8.56141,-3.76004 10.15399,-4.14583 1.59259,-0.38578 4.09009,-1.5358 5.54999,-2.5556 1.4599,-1.01979 4.2724,-1.85417 6.25,-1.85417 1.9776,0 3.59848,-0.3375 3.60195,-0.75 0.01,-1.14365 5.90484,-4.25 8.06562,-4.25 1.62767,0 1.46794,0.42232 -1.08104,2.85826 -1.645,1.57205 -2.9909,3.3023 -2.9909,3.84502 0,0.54271 -0.9,1.80123 -2,2.79672 -1.1,0.99549 -2,2.86523 -2,4.15499 0,1.40976 -0.59367,2.34501 -1.48853,2.34501 -0.81869,0 -3.47225,2.8125 -5.89678,6.25 -2.42454,3.4375 -5.35471,7.19736 -6.51147,8.35524 -1.15677,1.15788 -2.10322,3.07038 -2.10322,4.25 0,1.45317 -0.62319,2.14476 -1.93261,2.14476 -1.06294,0 -2.21505,0.88987 -2.56025,1.97749 -0.55873,1.76042 -3.41232,5.60832 -9.53502,12.85746 -1.08466,1.28422 -1.97212,2.55349 -1.97212,2.82059 0,0.26711 -1.75026,2.59138 -3.88946,5.16505 -2.13921,2.57368 -4.19453,5.69191 -4.56739,6.92941 -0.37286,1.2375 -1.3226,2.25 -2.11054,2.25 -0.78793,0 -1.43261,0.67119 -1.43261,1.49153 0,0.82034 -0.9,2.05358 -2,2.74054 -1.1,0.68696 -2,1.98902 -2,2.89347 0,0.90444 -1.125,2.38157 -2.5,3.2825 -1.375,0.90094 -2.5,2.28718 -2.5,3.08053 0,0.79336 -1.2375,2.74872 -2.75,4.34523 -6.14576,6.48716 -8.25,9.48896 -8.25,11.76903 0,1.70264 -0.55993,2.39717 -1.93261,2.39717 -1.06294,0 -2.18299,0.7875 -2.48902,1.75 -0.30602,0.9625 -2.13959,3.55 -4.07461,5.75 -1.93502,2.2 -3.78875,5.0125 -4.1194,6.25 -0.33065,1.2375 -1.22739,2.25 -1.99277,2.25 -0.8177,0 -1.39159,1.031 -1.39159,2.5 0,1.375 -0.57971,2.5 -1.28824,2.5 C 397.26757,613 390,621.29258 390,622.94046 390,623.52321 389.55,624 389,624 c -0.55,0 -1,0.65917 -1,1.46482 0,0.80565 -0.9,1.94648 -2,2.53518 -1.1,0.5887 -2,1.77727 -2,2.64126 0,0.864 -1.125,2.45582 -2.5,3.5374 -1.375,1.08158 -2.5,2.58648 -2.5,3.34423 0,0.75775 -0.58731,1.73759 -1.30514,2.17742 -0.71782,0.43983 -2.62766,2.59969 -4.24409,4.79969 -1.61642,2.2 -3.50411,4.35986 -4.19486,4.79969 -0.69075,0.43983 -1.25591,2.12733 -1.25591,3.75 0,2.19322 -0.47001,2.95031 -1.83159,2.95031 -1.76339,0 -6.85342,6.51515 -10.16841,13.01541 -0.825,1.61772 -2.02771,2.95104 -2.67268,2.96295 -1.17752,0.0217 -9.3549,11.04517 -10.5995,14.28855 -0.36578,0.9532 -1.30539,1.73309 -2.08803,1.73309 -0.78263,0 -1.70533,1.125 -2.05043,2.5 -0.34511,1.375 -1.06889,2.5 -1.60841,2.5 -0.53952,0 -0.98095,0.86968 -0.98095,1.93261 0,1.06294 -0.8516,2.2029 -1.89245,2.53326 -1.04085,0.33035 -2.44545,1.93567 -3.12132,3.56738 -0.67588,1.63171 -1.53454,2.96675 -1.90814,2.96675 -0.37359,0 -1.93997,1.9945 -3.48084,4.43222 -1.54087,2.43771 -3.4306,4.67359 -4.19941,4.96861 -0.76881,0.29502 -1.39784,1.36937 -1.39784,2.38745 0,1.01808 -1.0125,2.83922 -2.25,4.04698 -1.2375,1.20776 -3.53077,3.72064 -5.09615,5.58418 -1.56539,1.86354 -4.15289,4.81614 -5.75,6.56133 C 305.30673,733.72596 304,736.24423 304,737.57692 304,738.97467 303.41394,740 302.61501,740 c -0.76174,0 -2.18312,1.2375 -3.1586,2.75 -0.97549,1.5125 -2.61643,3.65 -3.64654,4.75 -6.35323,6.78427 -7.80987,8.81241 -7.80987,10.87396 0,1.4814 -0.88343,2.70753 -2.47241,3.43152 -1.35983,0.61957 -2.75861,2.26681 -3.10841,3.66051 -0.36585,1.45766 -1.35164,2.53401 -2.32079,2.53401 -1.03786,0 -2.05219,1.24795 -2.64159,3.25 -0.5301,1.8006 -1.96023,3.69023 -3.2068,4.23713 -1.40882,0.61808 -2.25,1.85982 -2.25,3.32143 C 272,781.24431 269.91466,784 268.07143,784 267.48214,784 267,784.48027 267,785.06726 c 0,1.1492 -5.08414,7.78975 -8.75,11.42864 -1.2375,1.22839 -2.25,3.16402 -2.25,4.30138 0,1.13737 -0.7875,2.33768 -1.75,2.66735 -1.51303,0.51823 -5.42957,5.19133 -8.75,10.44024 -0.55,0.86943 -2.0125,2.57503 -3.25,3.79021 -1.2375,1.21518 -2.25,3.13091 -2.25,4.25717 C 240,823.07851 239.56753,824 239.03896,824 237.71903,824 234,828.1057 234,829.56286 c 0,1.11147 -2.49063,4.35018 -7.75,10.07775 -1.2375,1.34766 -2.25,2.90133 -2.25,3.45259 0,0.55127 -1.125,2.04491 -2.5,3.31922 -1.375,1.27431 -2.50676,2.71532 -2.51501,3.20225 -0.008,0.48693 -2.48326,3.54507 -5.5,6.79586 -3.01675,3.25079 -5.48499,6.64564 -5.48499,7.5441 0,0.89847 -2.45315,4.2906 -5.45145,7.53807 -3.60039,3.8996 -5.55283,6.91764 -5.75,8.88823 L 196.5,883.36466 Z M 100.40499,787.75 98.5,785.5 l 2.25,1.90499 c 1.2375,1.04774 2.25,2.06024 2.25,2.25 0,0.80025 -0.80479,0.20945 -2.59501,-1.90499 z M 6.0789474,568.41667 c 0.047984,-1.16495 0.2849403,-1.4019 0.6041666,-0.60417 0.2888706,0.72187 0.2533443,1.58438 -0.078947,1.91667 -0.3322917,0.33229 -0.5686404,-0.25834 -0.5252196,-1.3125 z m -3,-21 c 0.047984,-1.16495 0.2849403,-1.4019 0.6041666,-0.60417 0.2888706,0.72187 0.2533443,1.58438 -0.078947,1.91667 -0.3322917,0.33229 -0.5686404,-0.25834 -0.5252196,-1.3125 z m -1,-10 c 0.047984,-1.16495 0.2849403,-1.4019 0.6041666,-0.60417 0.2888706,0.72187 0.2533443,1.58438 -0.078947,1.91667 -0.3322917,0.33229 -0.5686404,-0.25834 -0.5252196,-1.3125 z M 1.1578947,526 c 0,-1.375 0.2269737,-1.9375 0.504386,-1.25 0.2774123,0.6875 0.2774123,1.8125 0,2.5 -0.2774123,0.6875 -0.504386,0.125 -0.504386,-1.25 z M 0.28601415,508.5 c 0.007508,-2.75 0.2017127,-3.75631 0.43156708,-2.23625 0.22985437,1.52006 0.22371186,3.77006 -0.01365,5 C 0.46656929,512.49369 0.27850662,511.25 0.28601415,508.5 Z m 0,-38 c 0.007508,-2.75 0.2017127,-3.75631 0.43156708,-2.23625 0.22985437,1.52006 0.22371186,3.77006 -0.01365,5 C 0.46656929,474.49369 0.27850662,473.25 0.28601415,470.5 Z m 0.90893455,-17 c 0.02038,-1.65 0.2444986,-2.20394 0.498042,-1.23097 0.2535434,0.97297 0.2368691,2.32297 -0.037054,3 C 1.3820136,455.94606 1.174569,455.15 1.1949487,453.5 Z M 2.1578947,442 c 0,-1.375 0.2269737,-1.9375 0.504386,-1.25 0.2774123,0.6875 0.2774123,1.8125 0,2.5 -0.2774123,0.6875 -0.504386,0.125 -0.504386,-1.25 z m 1,-10 c 0,-1.375 0.2269737,-1.9375 0.504386,-1.25 0.2774123,0.6875 0.2774123,1.8125 0,2.5 -0.2774123,0.6875 -0.504386,0.125 -0.504386,-1.25 z"
         id="path7" />
      <path
         style="fill:#2152a5"
         d="m 468.26903,979.30701 c 0.97297,-0.25354 2.32297,-0.23687 3,0.0371 0.67703,0.27393 -0.11903,0.48137 -1.76903,0.46099 -1.65,-0.0204 -2.20394,-0.2445 -1.23097,-0.49804 z m 40.48097,0.0307 c 0.6875,-0.27741 1.8125,-0.27741 2.5,0 0.6875,0.27741 0.125,0.50439 -1.25,0.50439 -1.375,0 -1.9375,-0.22698 -1.25,-0.50439 z m 16.0625,-1.02083 c 0.72187,-0.28887 1.58438,-0.25335 1.91667,0.0789 0.33229,0.33229 -0.25834,0.56864 -1.3125,0.52522 -1.16495,-0.048 -1.4019,-0.28494 -0.60417,-0.60416 z M 420,974.84269 c -1.925,-0.52393 -7.775,-1.58054 -13,-2.34804 -9.7271,-1.42881 -27.31273,-5.05152 -30,-6.18012 -0.825,-0.34648 -2.02857,-0.54706 -2.67459,-0.44573 -0.64603,0.10133 -1.43398,-0.23545 -1.751,-0.7484 -0.31702,-0.51295 -1.47595,-0.6974 -2.57541,-0.40989 -1.09945,0.28751 -1.999,0.11599 -1.999,-0.38117 0,-0.49716 -1.39242,-1.01002 -3.09427,-1.1397 -1.70184,-0.12968 -4.3795,-0.90039 -5.95034,-1.71271 C 357.38455,960.66462 354.93841,960 353.51953,960 c -1.41889,0 -5.25867,-1.12752 -8.53285,-2.50561 -3.27418,-1.37808 -6.29812,-2.43164 -6.71986,-2.34124 -0.42175,0.0904 -1.44182,-0.0969 -2.26682,-0.41614 -0.825,-0.31927 -4.65,-1.58252 -8.5,-2.80722 -3.85,-1.22469 -7.225,-2.545 -7.5,-2.93401 -0.275,-0.38901 -2.14228,-1.00911 -4.14952,-1.378 -2.00723,-0.36889 -4.19983,-1.3338 -4.87244,-2.14424 C 310.30543,944.66309 308.46021,944 306.87756,944 305.2949,944 304,943.60246 304,943.11658 c 0,-0.48589 -1.0125,-1.11212 -2.25,-1.39163 -3.30213,-0.74584 -13.19521,-5.10142 -13.58541,-5.98118 -0.18448,-0.41593 -0.74698,-0.50187 -1.25,-0.19098 C 286.41157,935.86367 286,935.61492 286,935 c 0,-0.61492 -0.45,-0.83992 -1,-0.5 -0.55,0.33992 -1,0.0665 -1,-0.60765 0,-0.67413 -0.29305,-0.93263 -0.65122,-0.57446 -0.53757,0.53756 -7.72606,-2.70273 -14.34878,-6.46788 -0.825,-0.46903 -3.95971,-1.99538 -6.96602,-3.3919 -3.0063,-1.39651 -5.7063,-2.87081 -6,-3.27621 -0.29369,-0.40541 -2.44648,-1.58052 -4.78398,-2.61137 -2.3375,-1.03086 -4.25,-2.20134 -4.25,-2.60108 0,-0.39975 -1.4625,-1.31748 -3.25,-2.03941 -1.7875,-0.72192 -3.61516,-1.91098 -4.06146,-2.64235 -0.4463,-0.73136 -1.2338,-1.06873 -1.75,-0.74971 -0.5162,0.31903 -0.93854,0.15228 -0.93854,-0.37055 0,-0.52284 -1.125,-1.23297 -2.5,-1.57807 -1.375,-0.34511 -2.5,-1.06889 -2.5,-1.60841 C 232,905.44143 231.325,905 230.5,905 c -0.825,0 -1.5,-0.45 -1.5,-1 0,-0.55 -0.64053,-1 -1.4234,-1 -0.78288,0 -3.48677,-1.575 -6.00866,-3.5 -2.52188,-1.925 -4.83638,-3.5 -5.14331,-3.5 -0.90911,0 -7.85526,-5.37902 -8.73609,-6.76512 -0.4463,-0.70232 -1.18282,-1.04743 -1.63669,-0.76692 -0.45388,0.28051 -1.40595,-0.1897 -2.11571,-1.04491 -0.70976,-0.85521 -2.56075,-2.21181 -4.11331,-3.01467 -4.53302,-2.34411 -3.80445,-5.84449 2.67755,-12.86428 3.02479,-3.27574 5.49962,-6.691 5.49962,-7.58947 0,-0.89846 2.46824,-4.29331 5.48499,-7.5441 3.01674,-3.25079 5.49174,-6.30893 5.5,-6.79586 0.008,-0.48693 1.14001,-1.92794 2.51501,-3.20225 1.375,-1.27431 2.5,-2.73184 2.5,-3.23897 0,-0.87652 2.80645,-4.43042 7.75,-9.81406 1.2375,-1.34766 2.25,-3.01999 2.25,-3.71628 0,-1.5192 3.6824,-5.64311 5.03896,-5.64311 0.52857,0 0.96104,-0.92149 0.96104,-2.04775 0,-1.12626 1.0125,-3.04199 2.25,-4.25717 1.2375,-1.21518 2.7,-2.92078 3.25,-3.79021 3.32043,-5.24891 7.23697,-9.92201 8.75,-10.44024 0.9625,-0.32967 1.75,-1.52998 1.75,-2.66735 0,-1.13736 1.0125,-3.07299 2.25,-4.30138 3.66586,-3.63889 8.75,-10.27944 8.75,-11.42864 C 267,784.48027 267.48214,784 268.07143,784 269.91466,784 272,781.24431 272,778.80856 c 0,-1.46161 0.84118,-2.70335 2.25,-3.32143 1.24657,-0.5469 2.6767,-2.43653 3.2068,-4.23713 0.5894,-2.00205 1.60373,-3.25 2.64159,-3.25 0.96915,0 1.95494,-1.07635 2.32079,-2.53401 0.3498,-1.3937 1.74858,-3.04094 3.10841,-3.66051 1.58898,-0.72399 2.47241,-1.95012 2.47241,-3.43152 0,-2.06155 1.45664,-4.08969 7.80987,-10.87396 1.03011,-1.1 2.67105,-3.2375 3.64654,-4.75 0.97548,-1.5125 2.39686,-2.75 3.1586,-2.75 0.79893,0 1.38499,-1.02533 1.38499,-2.42308 0,-1.33269 1.30673,-3.85096 2.90385,-5.59615 1.59711,-1.74519 4.18461,-4.69779 5.75,-6.56133 1.56538,-1.86354 3.85865,-4.37642 5.09615,-5.58418 1.2375,-1.20776 2.25,-3.0289 2.25,-4.04698 0,-1.01808 0.62903,-2.09243 1.39784,-2.38745 0.76881,-0.29502 2.65854,-2.5309 4.19941,-4.96861 C 327.13812,705.9945 328.7045,704 329.07809,704 c 0.3736,0 1.23226,-1.33504 1.90814,-2.96675 0.67587,-1.63171 2.08047,-3.23703 3.12132,-3.56738 C 335.1484,697.13551 336,695.99555 336,694.93261 336,693.86968 336.44143,693 336.98095,693 c 0.53952,0 1.2633,-1.125 1.60841,-2.5 0.3451,-1.375 1.2678,-2.5 2.05043,-2.5 0.78264,0 1.72225,-0.77989 2.08803,-1.73309 1.2446,-3.24338 9.42198,-14.26682 10.5995,-14.28855 0.64497,-0.0119 1.84768,-1.34523 2.67268,-2.96295 C 359.31499,662.51515 364.40502,656 366.16841,656 367.52999,656 368,655.24291 368,653.04969 c 0,-1.62267 0.56516,-3.31017 1.25591,-3.75 0.69075,-0.43983 2.57844,-2.59969 4.19486,-4.79969 1.61643,-2.2 3.52627,-4.35986 4.24409,-4.79969 0.71783,-0.43983 1.30514,-1.41967 1.30514,-2.17742 0,-0.75775 1.125,-2.26265 2.5,-3.34423 1.375,-1.08158 2.5,-2.6734 2.5,-3.5374 0,-0.86399 0.9,-2.05256 2,-2.64126 1.1,-0.5887 2,-1.72953 2,-2.53518 0,-0.80565 0.45,-1.46482 1,-1.46482 0.55,0 1,-0.47679 1,-1.05954 C 390,621.29258 397.26757,613 398.71176,613 399.42029,613 400,611.875 400,610.5 c 0,-1.469 0.57389,-2.5 1.39159,-2.5 0.76538,0 1.66212,-1.0125 1.99277,-2.25 0.33065,-1.2375 2.18438,-4.05 4.1194,-6.25 1.93502,-2.2 3.76859,-4.7875 4.07461,-5.75 0.30603,-0.9625 1.42608,-1.75 2.48902,-1.75 1.37268,0 1.93261,-0.69453 1.93261,-2.39717 0,-2.28007 2.10424,-5.28187 8.25,-11.76903 1.5125,-1.59651 2.75,-3.55187 2.75,-4.34523 0,-0.79335 1.125,-2.17959 2.5,-3.08053 1.375,-0.90093 2.5,-2.37806 2.5,-3.2825 0,-0.90445 0.9,-2.20651 2,-2.89347 1.1,-0.68696 2,-1.9202 2,-2.74054 0,-0.82034 0.64468,-1.49153 1.43261,-1.49153 0.78794,0 1.73768,-1.0125 2.11054,-2.25 0.37286,-1.2375 2.42818,-4.35573 4.56739,-6.92941 2.1392,-2.57367 3.88946,-4.89794 3.88946,-5.16505 0,-0.2671 0.88746,-1.53637 1.97212,-2.82059 6.1227,-7.24914 8.97629,-11.09704 9.53502,-12.85746 0.3452,-1.08762 1.49731,-1.97749 2.56025,-1.97749 1.30942,0 1.93261,-0.69159 1.93261,-2.14476 0,-1.17962 0.94645,-3.09212 2.10322,-4.25 1.15676,-1.15788 4.08693,-4.91774 6.51147,-8.35524 2.42453,-3.4375 5.07809,-6.25 5.89678,-6.25 0.89486,0 1.48853,-0.93525 1.48853,-2.34501 0,-1.28976 0.9,-3.1595 2,-4.15499 1.1,-0.99549 2,-2.20987 2,-2.69863 0,-0.48876 1.17448,-2.10652 2.60996,-3.59501 l 2.60996,-2.70636 -0.59059,9 c -0.69363,10.57019 -1.10848,14.41791 -3.0728,28.5 -0.80555,5.775 -1.9508,15 -2.545,20.5 -0.59419,5.5 -1.51487,10.15 -2.04594,10.33333 C 480.42065,560.02145 480,565.14026 480,571.58333 480,578.03098 479.59143,583 479.06127,583 c -0.98877,0 -1.64078,3.95355 -2.55621,15.5 -0.30524,3.85 -0.95752,10.15 -1.4495,14 -0.49199,3.85 -1.62197,13.75 -2.51108,22 -0.8891,8.25 -2.27534,17.98939 -3.08052,21.64308 -0.80518,3.6537 -1.4805,9.5037 -1.50072,13 -0.0202,3.49631 -0.74713,9.50692 -1.61537,13.35692 -0.86823,3.85 -1.86419,12.4 -2.21324,19 -0.34905,6.6 -1.05209,12.64891 -1.56233,13.44203 -0.98555,1.53196 -2.26915,12.58959 -3.22803,27.80797 -0.32056,5.0875 -0.90414,9.25 -1.29686,9.25 -0.39272,0 -1.27596,7.03484 -1.96275,15.63297 -0.68679,8.59814 -1.62639,16.58564 -2.08799,17.75 -0.46161,1.16437 -1.35292,7.51703 -1.9807,14.11703 -1.82261,19.1616 -2.08506,20.98133 -3.07682,21.33333 C 448.42262,821.01667 448,825.81667 448,831.5 c 0,5.68333 -0.42967,10.48333 -0.95482,10.66667 -0.52515,0.18333 -1.15282,2.80833 -1.39481,5.83333 -0.94632,11.82937 -2.83176,28.74083 -3.73488,33.5 -0.52185,2.75 -1.38672,9.5 -1.92194,15 -0.53522,5.5 -1.62268,14.95 -2.41659,21 -0.79391,6.05 -1.7343,14.6 -2.08977,19 -0.85366,10.56656 -1.40448,13.80521 -2.54267,14.95 -0.51949,0.5225 -0.94452,5.64789 -0.94452,11.38976 0,8.76988 -0.27992,10.65224 -1.75,11.76819 -2.00814,1.5244 -5.23962,1.59841 -10.25,0.23474 z"
         id="path6" />
      <path
         style="fill:#971c59"
         d="m 480.32225,488.57388 c 0.25945,-0.69471 -2.26919,-1.14995 -7.16162,-1.28933 -4.15947,-0.1185 -12.08472,-0.88427 -17.61166,-1.70172 C 450.02204,484.76537 441.225,483.81155 436,483.46321 430.775,483.11487 424.18074,482.19315 421.34609,481.41494 418.51144,480.63672 411.9289,480 406.71822,480 c -5.76166,0 -10.79532,-0.54094 -12.8461,-1.38049 -1.85466,-0.75927 -9.44712,-1.91753 -16.87212,-2.57392 -13.83925,-1.22341 -17.46584,-1.66212 -36.5,-4.4154 -6.05,-0.87513 -13.1375,-1.59993 -15.75,-1.61067 -2.6125,-0.0107 -4.75,-0.42034 -4.75,-0.91022 0,-0.48989 -5.0625,-1.211 -11.25,-1.60246 -6.1875,-0.39147 -13.70704,-1.34065 -16.7101,-2.1093 C 289.03685,464.62889 282.4543,464 277.41203,464 c -5.46827,0 -10.52855,-0.55406 -12.53991,-1.37301 -1.85466,-0.75515 -7.42212,-1.67951 -12.37212,-2.05413 -4.95,-0.37461 -17.55,-1.74696 -28,-3.04966 -10.45,-1.3027 -22.0375,-2.68077 -25.75,-3.06237 -3.7125,-0.3816 -6.75,-1.0914 -6.75,-1.57733 0,-0.48592 -2.71774,-0.8835 -6.03941,-0.8835 -8.70964,0 -25.40286,-1.99019 -25.79392,-3.07518 C 159.98333,448.41617 155.40013,448 149.98177,448 c -5.41837,0 -11.11837,-0.48257 -12.66667,-1.07237 -1.54831,-0.5898 -8.8901,-1.7054 -16.3151,-2.47911 -18.7364,-1.95238 -36.939925,-4.13275 -54,-6.46796 -7.975,-1.09163 -18.99432,-2.45066 -24.487379,-3.02005 -5.493058,-0.5694 -10.420558,-1.46845 -10.95,-1.99789 C 31.03318,432.43318 25.119594,432 18.42132,432 H 6.2426407 l -1.1746884,-2.83595 c -0.9280306,-2.24046 -0.840909,-4.91767 0.4149099,-12.75 C 7.9705431,400.89881 11.913138,381.39374 14.662488,371 c 1.382115,-5.225 2.938986,-11.3 3.459714,-13.5 1.063094,-4.49142 5.100506,-17.18443 8.111081,-25.5 1.095172,-3.025 2.50082,-6.9625 3.12366,-8.75 C 29.979784,321.4625 30.82927,320 31.24469,320 31.660111,320 32,319.02281 32,317.82846 c 0,-1.19435 1.136462,-5.13185 2.525471,-8.75 2.575119,-6.70779 3.304094,-8.41493 7.719754,-18.07846 1.382247,-3.025 2.82286,-6.5125 3.201363,-7.75 0.378503,-1.2375 1.107863,-2.25 1.6208,-2.25 C 47.580324,281 48,280.1 48,279 c 0,-1.1 0.441427,-2 0.980948,-2 0.539521,0 1.282623,-1.2375 1.651338,-2.75 0.654841,-2.68622 11.055839,-23.2589 12.260152,-24.25 0.834471,-0.68674 2.99358,-4.17801 3.710582,-6 1.500088,-3.81191 3.925246,-8 4.632481,-8 0.429381,0 1.50091,-1.8 2.381176,-4 0.880265,-2.2 2.001622,-4 2.491903,-4 C 76.598861,228 77,227.31088 77,226.46862 c 0,-0.84227 0.675,-1.79041 1.5,-2.10699 0.825,-0.31659 1.498961,-1.08996 1.497692,-1.71862 C 79.994488,221.05655 89.00797,208 90.106376,208 90.597869,208 91,207.30455 91,206.45455 c 0,-0.85 1.0125,-2.58539 2.25,-3.85643 1.2375,-1.27103 3.001954,-3.60122 3.921008,-5.17821 1.8957,-3.25279 3.828992,-4.31412 3.828992,-2.10202 0,0.81651 1.575,2.41383 3.5,3.54961 1.925,1.13578 3.5,2.47774 3.5,2.98214 0,0.5044 0.9,1.15245 2,1.44011 1.30508,0.34128 2,1.36401 2,2.94344 0,2.12054 0.37169,2.36587 3,1.98012 1.76463,-0.259 3,0.008 3,0.64751 0,0.5983 1.2375,1.73129 2.75,2.51776 1.5125,0.78647 4.1,2.81053 5.75,4.4979 1.65,1.68738 3.52984,3.08046 4.17742,3.09574 0.64758,0.0153 2.01567,1.04028 3.0402,2.27778 1.90189,2.29724 4.03542,3.8691 8.03238,5.91777 1.2375,0.63429 2.25,1.75603 2.25,2.49275 0,0.73671 0.61029,1.33948 1.3562,1.33948 1.39466,0 10.8809,6.78117 11.47713,8.20435 0.18334,0.43761 0.97084,0.79565 1.75,0.79565 0.77917,0 1.41667,0.43103 1.41667,0.95785 0,0.52681 1.93985,2.09467 4.31078,3.48413 2.37092,1.38945 5.37436,3.65842 6.67431,5.04215 1.29995,1.38373 2.9601,2.51587 3.68922,2.51587 0.72913,0 1.32569,0.9 1.32569,2 0,1.45679 0.66667,2 2.45455,2 1.35,0 3.51354,1.0125 4.80787,2.25 4.78879,4.57853 9.95692,8.75 10.84058,8.75 0.50062,0 1.8884,1.125 3.08395,2.5 1.19555,1.375 2.56139,2.5 3.0352,2.5 0.47381,0 1.82751,0.9 3.00822,2 1.18072,1.1 2.7369,2 3.45819,2 0.72129,0 1.31144,0.64468 1.31144,1.43261 0,0.78794 0.89658,1.71718 1.9924,2.06498 1.09583,0.3478 4.23259,2.40312 6.97059,4.56739 2.73799,2.16426 5.44141,3.93502 6.00759,3.93502 0.56618,0 1.02942,0.60277 1.02942,1.33948 0,0.73672 1.0125,1.86133 2.25,2.49913 1.2375,0.63781 4.275,2.70516 6.75,4.59413 2.475,1.88896 5.0625,3.46435 5.75,3.50087 0.6875,0.0365 1.25,0.96639 1.25,2.06639 0,1.37367 0.66667,2 2.1288,2 1.17084,0 3.79026,1.4625 5.82094,3.25 6.87644,6.05297 9.06294,7.75 9.98529,7.75 0.50589,0 1.80473,1.125 2.88631,2.5 1.08158,1.375 2.46424,2.5 3.07258,2.5 0.60834,0 2.00608,0.9 3.10608,2 1.1,1.1 2.675,2 3.5,2 0.825,0 1.5,0.57267 1.5,1.2726 0,0.69992 1.51968,2.09099 3.37706,3.09126 1.85738,1.00026 4.81015,3.1276 6.56172,4.7274 1.75156,1.59981 3.83188,2.90874 4.62294,2.90874 0.79105,0 1.43828,0.675 1.43828,1.5 0,0.825 0.45,1.5 1,1.5 0.55,0 1.87607,0.87607 2.94682,1.94682 1.07075,1.07075 3.32075,2.65731 5,3.52568 1.67925,0.86837 3.05318,1.98698 3.05318,2.48579 0,0.49882 0.9,1.19258 2,1.54171 1.1,0.34913 2,1.27945 2,2.06739 0,0.78793 0.82512,1.43261 1.83361,1.43261 1.00849,0 3.78336,1.8 6.16639,4 2.38303,2.2 4.94703,4 5.69777,4 0.75075,0 1.62402,0.675 1.9406,1.5 0.31659,0.825 1.1698,1.5 1.89604,1.5 0.72624,0 2.20535,1.125 3.28693,2.5 1.08158,1.375 2.44378,2.5 3.02713,2.5 0.58334,0 2.16323,1.0125 3.51087,2.25 3.26403,2.99727 4.49974,3.92063 8.65772,6.46934 1.93438,1.18572 4.60032,3.30893 5.92431,4.71825 1.32399,1.40933 3.22882,2.56241 4.23294,2.56241 1.00413,0 1.82569,0.64468 1.82569,1.43261 0,0.78794 0.9,1.71826 2,2.06739 1.1,0.34913 2,1.04289 2,1.54171 0,0.49881 1.37393,1.61742 3.05318,2.48579 1.67925,0.86837 3.92925,2.45493 5,3.52568 C 365.12393,396.12393 366.45,397 367,397 c 0.55,0 1,0.675 1,1.5 0,0.825 0.82156,1.5 1.82569,1.5 1.00412,0 2.90895,1.15308 4.23294,2.56241 1.32399,1.40932 3.98993,3.52214 5.92431,4.69515 1.93438,1.17302 3.87692,2.71993 4.31675,3.4376 0.43983,0.71766 1.44852,1.30484 2.24153,1.30484 0.79301,0 2.00389,0.9 2.69085,2 0.68696,1.1 1.63832,2 2.11412,2 0.84531,0 5.57851,3.52389 8.7377,6.50526 0.87114,0.82211 1.93368,1.49474 2.36122,1.49474 0.42753,0 2.92723,1.8 5.55489,4 2.62766,2.2 5.50261,4 6.38878,4 0.88617,0 1.62361,0.5625 1.63875,1.25 0.0151,0.6875 1.63016,2.375 3.58893,3.75 1.95877,1.375 5.04329,3.7375 6.85449,5.25 1.81119,1.5125 3.79617,2.75 4.41107,2.75 0.61489,0 1.11798,0.675 1.11798,1.5 0,0.825 0.61844,1.5 1.37431,1.5 0.75587,0 3.05759,1.54183 5.11494,3.42629 2.05736,1.88446 5.03892,3.96406 6.6257,4.62132 1.58678,0.65727 2.88505,1.81544 2.88505,2.57371 0,0.75827 0.60526,1.37868 1.34501,1.37868 0.73976,0 2.1595,0.9 3.15499,2 0.99549,1.1 2.60991,2 3.5876,2 0.97769,0 2.06294,0.89895 2.41166,1.99768 0.34872,1.09872 1.72905,2.2725 3.06739,2.6084 1.33834,0.33591 2.43335,1.1271 2.43335,1.75822 0,0.63111 1.28311,1.71544 2.85135,2.40961 1.56825,0.69417 4.15575,2.59152 5.75,4.21633 1.59426,1.62481 3.91115,2.9667 5.14865,2.98198 1.2375,0.0153 2.26239,0.59028 2.27753,1.27778 0.0243,1.1038 2.01046,2.80251 8.23879,7.04644 1.48987,1.01519 0.97504,1.21512 -3.2894,1.27744 -3.21128,0.0469 -4.90941,-0.3179 -4.65467,-1 z M 109,181.62244 c 0,-0.20765 0.7875,-0.99515 1.75,-1.75 1.58606,-1.24387 1.62143,-1.2085 0.37756,0.37756 C 109.82119,181.91575 109,182.44548 109,181.62244 Z m 5,-6 c 0,-0.20765 0.7875,-0.99515 1.75,-1.75 1.58606,-1.24387 1.62143,-1.2085 0.37756,0.37756 C 114.82119,175.91575 114,176.44548 114,175.62244 Z m 6,-7 c 0,-0.20765 0.7875,-0.99515 1.75,-1.75 1.58606,-1.24387 1.62143,-1.2085 0.37756,0.37756 C 120.82119,168.91575 120,169.44548 120,168.62244 Z M 132.5,155 c 2.70865,-2.75 5.14982,-5 5.42482,-5 0.275,0 -1.71617,2.25 -4.42482,5 -2.70865,2.75 -5.14982,5 -5.42482,5 -0.275,0 1.71617,-2.25 4.42482,-5 z M 150,137.62244 c 0,-0.20765 0.7875,-0.99515 1.75,-1.75 1.58606,-1.24387 1.62143,-1.2085 0.37756,0.37756 C 150.82119,137.91575 150,138.44548 150,137.62244 Z m 4,-3.93535 c 0,-0.1721 1.4625,-1.6346 3.25,-3.25 l 3.25,-2.93709 -2.93709,3.25 C 154.82513,133.77946 154,134.45965 154,133.68709 Z m 19,-17.06465 c 0,-0.20765 0.7875,-0.99515 1.75,-1.75 1.58606,-1.24387 1.62143,-1.2085 0.37756,0.37756 C 173.82119,116.91575 173,117.44548 173,116.62244 Z m 21.22619,-17.196101 c 0.94941,-0.99401 2.00045,-1.533036 2.33565,-1.197835 0.3352,0.3352 -0.44159,1.148481 -1.72619,1.807286 -2.23286,1.14512 -2.25968,1.1183 -0.60946,-0.609451 z m 6.33268,-4.894536 c 1.06762,-0.807508 2.36464,-1.482508 2.88226,-1.5 0.51762,-0.01749 0.0676,0.628885 -1,1.436394 -1.06762,0.807508 -2.36464,1.482508 -2.88226,1.5 -0.51762,0.01749 -0.0676,-0.628885 1,-1.436394 z M 209,88.606989 c 0,-0.216156 0.69837,-0.661002 1.55194,-0.988546 0.88992,-0.341496 1.29132,-0.173849 0.94098,0.393011 C 210.90566,88.961658 209,89.416902 209,88.606989 Z m 25,-16.036621 c 0,-0.275 0.9,-0.981666 2,-1.570368 1.1,-0.588702 2,-0.845368 2,-0.570368 0,0.275 -0.9,0.981666 -2,1.570368 -1.1,0.588702 -2,0.845368 -2,0.570368 z M 242.5,67 c 0.33992,-0.55 1.37898,-0.993109 2.30902,-0.984687 1.45727,0.0132 1.48367,0.149288 0.19098,0.984687 -1.95837,1.265597 -3.28218,1.265597 -2.5,0 z m 6.5,-3.393011 c 0,-0.216156 0.69837,-0.661002 1.55194,-0.988546 0.88992,-0.341496 1.29132,-0.173849 0.94098,0.393011 C 250.90566,63.961658 249,64.416902 249,63.606989 Z m 21.73333,-11.731077 c 0.67834,-0.683418 1.48524,-0.990671 1.79313,-0.682784 0.30789,0.307887 -0.24711,0.867048 -1.23333,1.242579 -1.4252,0.542685 -1.54006,0.427821 -0.5598,-0.559795 z M 274,50.606989 c 0,-0.216156 0.69837,-0.661002 1.55194,-0.988546 0.88992,-0.341496 1.29132,-0.173849 0.94098,0.393011 C 275.90566,50.961658 274,51.416902 274,50.606989 Z m 6,-3 c 0,-0.216156 0.69837,-0.661002 1.55194,-0.988546 0.88992,-0.341496 1.29132,-0.173849 0.94098,0.393011 C 281.90566,47.961658 280,48.416902 280,47.606989 Z"
         id="path5" />
      <path
         style="fill:#66277c"
         d="m 187.87244,875.25 c -1.24387,-1.58606 -1.2085,-1.62143 0.37756,-0.37756 0.9625,0.75485 1.75,1.54235 1.75,1.75 0,0.82304 -0.82119,0.29331 -2.12756,-1.37244 z m -30,-26 c -1.24387,-1.58606 -1.2085,-1.62143 0.37756,-0.37756 1.66575,1.30637 2.19548,2.12756 1.37244,2.12756 -0.20765,0 -0.99515,-0.7875 -1.75,-1.75 z m -39,-40 c -1.24387,-1.58606 -1.2085,-1.62143 0.37756,-0.37756 1.66575,1.30637 2.19548,2.12756 1.37244,2.12756 -0.20765,0 -0.99515,-0.7875 -1.75,-1.75 z m -17.94813,-22 -2.42431,-2.75 2.75,2.42431 c 2.57029,2.26589 3.20859,3.07569 2.42431,3.07569 -0.17912,0 -1.41662,-1.2375 -2.75,-2.75 z M 83.564293,763.29313 c -0.542685,-1.4252 -0.427821,-1.54006 0.559795,-0.5598 0.683418,0.67834 0.990671,1.48524 0.682784,1.79313 -0.307887,0.30789 -0.867048,-0.24711 -1.242579,-1.23333 z M 75,750 c -0.588702,-1.1 -0.845368,-2 -0.570368,-2 0.275,0 0.981666,0.9 1.570368,2 0.588702,1.1 0.845368,2 0.570368,2 -0.275,0 -0.981666,-0.9 -1.570368,-2 z m -5,-8 c -0.588702,-1.1 -0.845368,-2 -0.570368,-2 0.275,0 0.981666,0.9 1.570368,2 0.588702,1.1 0.845368,2 0.570368,2 -0.275,0 -0.981666,-0.9 -1.570368,-2 z m -7.435707,-12.70687 c -0.542685,-1.4252 -0.427821,-1.54006 0.559795,-0.5598 0.683418,0.67834 0.990671,1.48524 0.682784,1.79313 -0.307887,0.30789 -0.867048,-0.24711 -1.242579,-1.23333 z m -6.940754,-12.83179 c -0.964979,-2.51469 -0.680311,-3.16355 0.498534,-1.13634 0.58369,1.00375 0.850598,2.03566 0.593129,2.29313 -0.257468,0.25747 -0.748717,-0.26309 -1.091663,-1.15679 z M 42.638374,689.5 C 42.321791,688.675 42.498646,688 43.031385,688 43.564123,688 44,688.675 44,689.5 c 0,0.825 -0.176855,1.5 -0.393011,1.5 -0.216156,0 -0.652033,-0.675 -0.968615,-1.5 z m -4.66285,-11.0571 C 20.435882,637.52457 7.2931186,584.49648 2.3706983,534.78542 c -2.29616091,-23.18871 -2.29937021,-67.129 -0.00655,-89.71813 0.9173642,-9.03799 1.844629,-16.6094 2.0605885,-16.82536 0.2159595,-0.21596 0.6890659,0.54126 1.0513475,1.68271 C 6.0954563,431.87612 6.8649702,432 18.367388,432 c 6.727936,0 12.665792,0.43318 13.195233,0.96262 0.529442,0.52944 5.456942,1.42849 10.95,1.99789 C 48.00568,435.5299 59.025,436.88893 67,437.98056 c 17.060075,2.33521 35.2636,4.51558 54,6.46796 7.425,0.77371 14.76679,1.88931 16.3151,2.47911 1.5483,0.5898 7.2483,1.07237 12.66667,1.07237 5.41836,0 10.00156,0.41617 10.1849,0.92482 0.39106,1.08499 17.08428,3.07518 25.79392,3.07518 3.32167,0 6.03941,0.39758 6.03941,0.8835 0,0.48593 3.0375,1.19573 6.75,1.57733 3.7125,0.3816 15.3,1.75967 25.75,3.06237 10.45,1.3027 23.05,2.67505 28,3.04966 4.95,0.37462 10.51746,1.29898 12.37212,2.05413 2.01136,0.81895 7.07164,1.37301 12.53991,1.37301 5.04227,0 11.62482,0.62889 14.62787,1.39754 3.00306,0.76865 10.5226,1.71783 16.7101,2.1093 6.1875,0.39146 11.25,1.11257 11.25,1.60246 0,0.48988 2.1375,0.89949 4.75,0.91022 2.6125,0.0107 9.7,0.73554 15.75,1.61067 19.03416,2.75328 22.66075,3.19199 36.5,4.4154 7.425,0.65639 15.01746,1.81465 16.87212,2.57392 2.05078,0.83955 7.08444,1.38049 12.8461,1.38049 5.21068,0 11.79322,0.63672 14.62787,1.41494 2.83465,0.77821 9.42891,1.69993 14.65391,2.04827 5.225,0.34834 14.02204,1.30216 19.54897,2.11962 5.52694,0.81745 13.45219,1.58322 17.61166,1.70172 5.78613,0.16484 7.44624,0.52564 7.067,1.53591 -0.37968,1.01143 0.33549,1.16452 3.05591,0.65417 1.99951,-0.37511 4.35237,-0.20068 5.38402,0.39914 1.70387,0.99066 1.68026,1.06755 -0.33652,1.09582 -2.3799,0.0334 -8.31464,3.08489 -8.32472,4.28041 -0.003,0.4125 -1.62435,0.75 -3.60195,0.75 -1.9776,0 -4.7901,0.83438 -6.25,1.85417 -1.4599,1.0198 -3.9574,2.16982 -5.54999,2.5556 -1.59258,0.38579 -6.16188,2.25141 -10.15399,4.14583 -3.99211,1.89442 -7.86409,3.45441 -8.60439,3.46664 -0.7403,0.0122 -2.471,0.90222 -3.846,1.97776 -1.375,1.07554 -4.00463,1.96553 -5.84362,1.97776 -2.49178,0.0166 -3.47686,0.53177 -3.86663,2.02224 -0.28766,1.1 -1.25803,1.99545 -2.15638,1.98988 C 427.65001,515.97449 416,520.25672 416,521.18493 c 0,0.44829 -0.7875,0.82515 -1.75,0.83748 -0.9625,0.0123 -4.45,1.35224 -7.75,2.97759 -3.3,1.62535 -6.675,2.96695 -7.5,2.98133 -0.825,0.0144 -2.8608,0.856 -4.52399,1.87027 -1.6632,1.01426 -4.7007,2.39748 -6.75,3.07381 -2.04931,0.67633 -3.72601,1.6448 -3.72601,2.15214 0,0.50735 -1.0125,0.92413 -2.25,0.92619 -1.2375,0.002 -3.6,0.8259 -5.25,1.83078 -1.65,1.00487 -4.2375,2.13676 -5.75,2.51531 -1.5125,0.37855 -2.75,1.3547 -2.75,2.16922 0,1.07124 -1.15399,1.48095 -4.17126,1.48095 -2.29419,0 -4.88169,0.62807 -5.75,1.39572 -0.86831,0.76764 -3.73855,2.11987 -6.37831,3.00496 -2.63976,0.88509 -6.46476,2.42637 -8.5,3.42507 -2.03524,0.9987 -5.60125,2.41464 -7.92448,3.14653 -2.32323,0.73189 -5.11691,2.16254 -6.20819,3.17922 C 327.91217,559.22809 325.60462,560 323.54181,560 321.0602,560 320,560.44901 320,561.5 c 0,0.89425 -0.91972,1.5 -2.27749,1.5 -1.25263,0 -3.16513,0.61097 -4.25,1.35771 -1.08488,0.74674 -3.66001,1.90664 -5.72251,2.57755 -2.0625,0.67092 -3.75,1.59539 -3.75,2.05439 0,0.45901 -1.78675,1.13642 -3.97056,1.50538 -2.18381,0.36895 -5.04821,1.51849 -6.36533,2.55454 -1.31712,1.03605 -4.3401,2.1948 -6.71773,2.575 -2.37764,0.38019 -5.87604,1.7452 -7.77422,3.03335 C 277.27397,579.94606 274.8837,581 273.86045,581 272.8372,581 272,581.44143 272,581.98095 c 0,0.53952 -1.2375,1.26611 -2.75,1.61465 -2.52043,0.58079 -9.01688,3.56149 -15.25,6.99699 -1.375,0.75786 -3.75333,1.38456 -5.28518,1.39267 -2.44301,0.0129 -7.27276,2.28371 -8.71482,4.0974 -0.275,0.34587 -2.15475,0.93301 -4.17722,1.30476 -2.02247,0.37174 -3.82247,1.03779 -4,1.4801 -0.17753,0.4423 -3.69778,2.06596 -7.82278,3.60812 -4.125,1.54216 -8.21043,3.41602 -9.07874,4.16414 -0.86831,0.74812 -2.78081,1.36022 -4.25,1.36022 -1.70779,0 -2.67126,0.54102 -2.67126,1.5 0,0.96879 -0.97388,1.50132 -2.75,1.50374 -1.5125,0.002 -4.21925,0.89955 -6.01501,1.99443 -1.79576,1.09488 -5.994,2.91002 -9.32944,4.03365 -8.34136,2.81 -13.90555,5.29251 -13.90555,6.20408 0,0.42026 -1.32344,0.7641 -2.94098,0.7641 -1.61754,0 -3.20149,0.4215 -3.51988,0.93668 -0.65711,1.06321 -6.37839,4.06332 -7.74887,4.06332 -0.49634,0 -3.62339,1.35 -6.94898,3 -3.3256,1.65 -6.71688,3 -7.53618,3 -0.81931,0 -2.61878,0.88817 -3.99883,1.97372 -1.38005,1.08554 -4.15102,2.27179 -6.15773,2.63609 -2.0067,0.36431 -5.66997,1.72614 -8.14059,3.02628 C 126.53733,643.93624 124.182,645 123.77389,645 c -0.40812,0 -3.41062,1.29268 -6.67222,2.87262 -3.26161,1.57995 -7.482,3.16375 -9.37864,3.51956 -1.89665,0.35582 -4.25498,1.53813 -5.24073,2.62738 -0.98575,1.08924 -2.510031,1.97821 -3.387288,1.97549 C 96.754985,655.9878 88,659.26819 88,660.15223 c 0,0.41643 -1.676211,1.0716 -3.724913,1.45594 -2.048703,0.38434 -4.307837,1.28172 -5.020299,1.99418 -0.712461,0.71247 -4.43625,2.30697 -8.275086,3.54335 C 67.060736,668.40789 64,669.96513 64,670.69683 64,671.48677 62.782164,672 60.907729,672 c -1.700749,0 -4.236435,0.9 -5.634858,2 -1.398424,1.1 -3.606902,2 -4.90773,2 C 49.064314,676 48,676.45 48,677 c 0,0.55 -1.0125,1.01431 -2.25,1.0318 -2.826422,0.0399 -5.559496,2.07057 -5.004438,3.7182 0.231608,0.6875 0.142613,1.25 -0.197766,1.25 -0.340379,0 -1.497901,-2.0507 -2.572272,-4.5571 z M 31.078947,318.41667 c 0.04798,-1.16495 0.284941,-1.4019 0.604167,-0.60417 0.288871,0.72187 0.253344,1.58438 -0.07895,1.91667 -0.332292,0.33229 -0.568641,-0.25834 -0.52522,-1.3125 z M 49.030626,276.5 c 0,-0.55 0.436218,-1.675 0.969374,-2.5 0.533156,-0.825 0.969374,-1.05 0.969374,-0.5 0,0.55 -0.436218,1.675 -0.969374,2.5 -0.533156,0.825 -0.969374,1.05 -0.969374,0.5 z m 16.533667,-31.79313 c 0.375531,-0.98622 0.934692,-1.54122 1.242579,-1.23333 0.307887,0.30789 6.34e-4,1.11479 -0.682784,1.79313 -0.987616,0.98026 -1.10248,0.8654 -0.559795,-0.5598 z m 6,-10 c 0.375531,-0.98622 0.934692,-1.54122 1.242579,-1.23333 0.307887,0.30789 6.34e-4,1.11479 -0.682784,1.79313 -0.987616,0.98026 -1.10248,0.8654 -0.559795,-0.5598 z"
         id="path4" />
      <path
         style="fill:#1f9d48"
         d="m 678.56136,935.35305 c -1.39271,-3.04207 -3.00611,-7.29099 -3.58532,-9.44205 C 674.39682,923.75995 673.49026,922 672.96146,922 672.43266,922 672,920.965 672,919.7 c 0,-1.265 -0.4593,-2.7593 -1.02067,-3.32067 -0.9746,-0.9746 -3.45898,-6.94529 -6.71134,-16.12933 C 663.4402,897.9125 662.36627,896 661.88146,896 661.39666,896 661,895.40127 661,894.66948 c 0,-0.73179 -1.12312,-3.54429 -2.49581,-6.25 -1.3727,-2.70571 -2.4977,-5.41284 -2.5,-6.01584 -0.002,-0.603 -0.61606,-2.403 -1.36389,-4 -0.74784,-1.597 -2.81546,-6.50364 -4.59471,-10.90364 -1.77926,-4.4 -4.04556,-9.8 -5.03623,-12 -0.99067,-2.2 -2.05892,-4.7875 -2.3739,-5.75 C 642.32048,848.7875 641.59865,848 641.03138,848 640.46412,848 640,846.4801 640,844.62244 c 0,-1.85765 -0.64607,-3.91374 -1.43572,-4.56909 -0.78965,-0.65535 -1.74618,-2.62295 -2.12563,-4.37245 -0.37945,-1.74949 -1.00171,-3.4059 -1.38279,-3.6809 -0.38108,-0.275 -1.92811,-3.875 -3.43783,-8 -1.50973,-4.125 -3.8414,-9.46918 -5.18149,-11.87595 C 625.09644,809.71727 624,806.95456 624,805.98468 c 0,-0.96988 -1.8,-5.40853 -4,-9.86368 -2.2,-4.45514 -4,-9.00493 -4,-10.11063 0,-1.1057 -0.62492,-2.01037 -1.38871,-2.01037 -0.77358,0 -1.66187,-1.43959 -2.00541,-3.25 -0.33918,-1.7875 -1.32603,-4.6 -2.193,-6.25 -1.60746,-3.05931 -4.7057,-10.45273 -14.03827,-33.5 -1.00221,-2.475 -2.39649,-5.09464 -3.0984,-5.82143 C 592.57429,734.45179 592,732.77443 592,731.45111 c 0,-1.32332 -1.26739,-4.77867 -2.81643,-7.67857 -1.54904,-2.8999 -3.88433,-8.19754 -5.18954,-11.77254 -1.30521,-3.575 -3.63782,-8.96259 -5.18357,-11.97243 C 577.26471,697.01774 576,693.08024 576,691.27757 576,689.03084 575.52823,688 574.5,688 c -0.825,0 -1.50411,-0.5625 -1.50914,-1.25 -0.005,-0.6875 -1.11596,-3.5 -2.46873,-6.25 -1.35277,-2.75 -2.47366,-5.49957 -2.49086,-6.11015 -0.0172,-0.61059 -1.83127,-5.00625 -4.03127,-9.76814 -2.2,-4.76189 -4,-9.35696 -4,-10.21127 0,-0.85432 -0.67716,-2.23046 -1.5048,-3.05809 -0.82763,-0.82764 -2.01571,-3.53382 -2.64016,-6.01374 -0.62445,-2.47992 -1.74729,-4.74377 -2.4952,-5.03077 -0.74791,-0.287 -1.35984,-1.31929 -1.35984,-2.29399 0,-1.73464 -3.72305,-10.90106 -6.56688,-16.16814 C 544.6449,620.38585 544,618.30345 544,617.21815 c 0,-1.08529 -0.59507,-2.46713 -1.32238,-3.07074 -0.72732,-0.60362 -3.06067,-5.72122 -5.18524,-11.37245 C 535.36781,597.12373 533.31942,592.275 532.9404,592 c -0.37903,-0.275 -0.9996,-1.93141 -1.37905,-3.6809 -0.37945,-1.7495 -1.33598,-3.7171 -2.12563,-4.37245 C 528.64607,583.2913 528,581.23521 528,579.37756 528,577.5199 527.59402,576 527.09783,576 c -0.4962,0 -1.36762,-1.2375 -1.93648,-2.75 -0.56887,-1.5125 -3.30061,-7.925 -6.07054,-14.25 -2.76993,-6.325 -5.04852,-12.2875 -5.06352,-13.25 C 514.01228,544.7875 513.55,544 513,544 c -0.55,0 -1,-1.0699 -1,-2.37756 0,-1.30765 -0.61891,-2.8912 -1.37536,-3.519 -0.75645,-0.62779 -1.93993,-3.15789 -2.62996,-5.62244 C 507.30465,530.01645 506.34856,528 505.87004,528 505.39152,528 505,527.52723 505,526.9494 c 0,-1.79933 -6.27788,-17.36472 -7.67449,-19.02814 -0.72903,-0.86831 -1.32551,-2.69081 -1.32551,-4.05 0,-1.35919 -0.50762,-2.97888 -1.12803,-3.59929 -0.62042,-0.62042 -1.95081,-2.96576 -2.95642,-5.21186 -1.82176,-4.06903 -1.82099,-4.07987 0.21327,-2.99117 1.12291,0.60096 11.3408,8.11406 22.70642,16.69577 11.36562,8.58171 21.78976,16.44824 23.16476,17.48118 1.375,1.03295 6.14324,4.66269 10.5961,8.0661 4.45285,3.4034 9.32788,7.08801 10.83338,8.18801 1.5055,1.1 5.09977,3.8 7.98727,6 2.88749,2.2 6.56247,4.97764 8.16662,6.17253 5.09247,3.79327 12.41784,9.33184 38.78882,29.32747 14.14453,10.725 27.66503,20.85 30.04555,22.5 2.38051,1.65 8.04113,5.925 12.57915,9.5 4.53801,3.575 9.2682,7.175 10.51152,8 1.24332,0.825 5.72649,4.2 9.9626,7.5 4.23611,3.3 8.98073,6.9 10.5436,8 1.56287,1.1 10.18644,7.58341 19.16348,14.40758 8.97705,6.82417 26.22191,19.85634 38.32191,28.96039 12.1,9.10404 23.1204,17.58313 24.48978,18.84242 1.36938,1.25928 2.86865,2.28961 3.3317,2.28961 0.46306,0 2.93797,1.6875 5.4998,3.75 2.56183,2.0625 5.11257,4.06491 5.6683,4.44981 0.55573,0.38489 2.86496,2.29739 5.13162,4.25 2.26666,1.9526 4.52126,3.55019 5.01022,3.55019 0.48896,0 2.00942,1.02857 3.3788,2.2857 1.36938,1.25714 9.01478,7.13304 16.98978,13.05755 7.975,5.92451 16.03525,11.98345 17.91166,13.4643 1.87641,1.48085 4.40362,3.36745 5.61601,4.19245 1.2124,0.825 5.69479,4.2 9.96086,7.5 4.26607,3.3 9.38886,7.08055 11.38398,8.40121 1.99512,1.32067 3.85249,2.71319 4.12749,3.0945 0.275,0.38131 4.21265,3.43448 8.75033,6.78483 l 8.25033,6.09154 -7.64728,9.81396 c -20.62179,26.46447 -49.40502,55.38033 -77.37631,77.73284 -5.21239,4.16534 -10.03957,7.5751 -10.72707,7.57723 -0.6875,0.002 -1.25,0.44187 -1.25,0.97717 C 784,883.04929 740.73438,912 737.63188,912 c -0.80587,0 -1.61521,0.37456 -1.79855,0.83236 -0.79293,1.98004 -30.98993,17.86855 -47.03655,24.74884 l -7.70323,3.3029 z"
         id="path3" />
      <path
         style="fill:#0a7373"
         d="m 468,979.35049 c -21.19844,-1.4137 -35.82817,-2.73128 -37.5,-3.37732 -1.83297,-0.70831 -1.85385,-0.83191 -0.25,-1.48 1.51347,-0.61157 1.75,-2.1524 1.75,-11.40016 0,-5.88115 0.42503,-11.12051 0.94452,-11.64301 1.13819,-1.14479 1.68901,-4.38344 2.54267,-14.95 0.35547,-4.4 1.29586,-12.95 2.08977,-19 0.79391,-6.05 1.88137,-15.5 2.41659,-21 0.53522,-5.5 1.40009,-12.25 1.92194,-15 0.90312,-4.75917 2.78856,-21.67063 3.73488,-33.5 0.24199,-3.025 0.86966,-5.65 1.39481,-5.83333 C 447.57033,841.98333 448,837.18333 448,831.5 c 0,-5.68333 0.42262,-10.48333 0.93915,-10.66667 0.99176,-0.352 1.25421,-2.17173 3.07682,-21.33333 0.62778,-6.6 1.51909,-12.95266 1.9807,-14.11703 0.4616,-1.16436 1.4012,-9.15186 2.08799,-17.75 C 456.77145,759.03484 457.65469,752 458.04741,752 c 0.39272,0 0.9763,-4.1625 1.29686,-9.25 0.95888,-15.21838 2.24248,-26.27601 3.22803,-27.80797 0.51024,-0.79312 1.21328,-6.84203 1.56233,-13.44203 0.34905,-6.6 1.34501,-15.15 2.21324,-19 0.86824,-3.85 1.59516,-9.86061 1.61537,-13.35692 0.0202,-3.4963 0.69554,-9.3463 1.50072,-13 0.80518,-3.65369 2.19142,-13.39308 3.08052,-21.64308 0.88911,-8.25 2.01909,-18.15 2.51108,-22 0.49198,-3.85 1.14426,-10.15 1.4495,-14 0.91543,-11.54645 1.56744,-15.5 2.55621,-15.5 0.53016,0 0.93873,-4.96902 0.93873,-11.41667 0,-6.44307 0.42065,-11.56188 0.96559,-11.75 C 481.49666,559.65 482.41734,555 483.01153,549.5 c 0.5942,-5.5 1.73945,-14.725 2.545,-20.5 1.91179,-13.70548 2.3552,-17.7321 3.11086,-28.25 0.34576,-4.8125 0.96318,-8.75 1.37205,-8.75 0.40887,0 1.4483,1.76173 2.30985,3.91495 0.86155,2.15322 2.03541,4.20477 2.60858,4.55901 0.57317,0.35424 1.04213,1.81958 1.04213,3.25632 0,1.43673 0.59648,3.32267 1.32551,4.19098 1.39661,1.66342 7.67449,17.22881 7.67449,19.02814 0,0.57783 0.39152,1.0506 0.87004,1.0506 0.47852,0 1.43461,2.01645 2.12464,4.481 0.69003,2.46455 1.87351,4.99465 2.62996,5.62244 0.75645,0.6278 1.37536,2.21135 1.37536,3.519 0,1.30766 0.45,2.37756 1,2.37756 0.55,0 1.01228,0.7875 1.02729,1.75 0.015,0.9625 2.29359,6.925 5.06352,13.25 2.76993,6.325 5.50167,12.7375 6.07054,14.25 0.56886,1.5125 1.44028,2.75 1.93648,2.75 0.49619,0 0.90217,1.5199 0.90217,3.37756 0,1.85765 0.64607,3.91374 1.43572,4.56909 0.78965,0.65535 1.74618,2.62295 2.12563,4.37245 0.37945,1.74949 1.00002,3.4059 1.37905,3.6809 0.37902,0.275 2.42741,5.12373 4.55198,10.77496 2.12457,5.65123 4.45792,10.76883 5.18524,11.37245 0.72731,0.60361 1.32238,1.98545 1.32238,3.07074 0,1.0853 0.6449,3.1677 1.43312,4.62756 2.84383,5.26708 6.56688,14.4335 6.56688,16.16814 0,0.9747 0.61193,2.00699 1.35984,2.29399 0.74791,0.287 1.87075,2.55085 2.4952,5.03077 0.62445,2.47992 1.81253,5.1861 2.64016,6.01374 0.82764,0.82763 1.5048,2.20377 1.5048,3.05809 0,0.85431 1.8,5.44938 4,10.21127 2.2,4.76189 4.01407,9.15755 4.03127,9.76814 0.0172,0.61058 1.13809,3.36015 2.49086,6.11015 1.35277,2.75 2.4637,5.5625 2.46873,6.25 0.005,0.6875 0.68414,1.25 1.50914,1.25 1.02823,0 1.5,1.03084 1.5,3.27757 0,1.80267 1.26471,5.74017 2.81046,8.75 1.54575,3.00984 3.87836,8.39743 5.18357,11.97243 1.30521,3.575 3.6405,8.87264 5.18954,11.77254 1.54904,2.8999 2.81643,6.35525 2.81643,7.67857 0,1.32332 0.57429,3.00068 1.27621,3.72746 0.70191,0.72679 2.09619,3.34643 3.0984,5.82143 9.33257,23.04727 12.43081,30.44069 14.03827,33.5 0.86697,1.65 1.85382,4.4625 2.193,6.25 0.34354,1.81041 1.23183,3.25 2.00541,3.25 0.76379,0 1.38871,0.90467 1.38871,2.01037 0,1.1057 1.8,5.65549 4,10.11063 2.2,4.45515 4,8.8938 4,9.86368 0,0.96988 1.09644,3.73259 2.43654,6.13937 1.34009,2.40677 3.67176,7.75095 5.18149,11.87595 1.50972,4.125 3.05675,7.725 3.43783,8 0.38108,0.275 1.00334,1.93141 1.38279,3.6809 0.37945,1.7495 1.33598,3.7171 2.12563,4.37245 0.78965,0.65535 1.43572,2.66329 1.43572,4.46211 0,1.98468 0.58975,3.49687 1.5,3.84617 0.825,0.31658 1.49875,1.15222 1.49722,1.85699 -0.002,0.70476 0.85585,3.08138 1.90529,5.28138 1.04944,2.2 3.36382,7.6 5.14308,12 1.77925,4.4 3.84687,9.30664 4.59471,10.90364 0.74783,1.597 1.36158,3.397 1.36389,4 0.002,0.603 1.1273,3.31013 2.5,6.01584 1.37269,2.70571 2.49581,5.51821 2.49581,6.25 0,0.73179 0.39666,1.33052 0.88146,1.33052 0.48481,0 1.55874,1.9125 2.38653,4.25 3.25236,9.18404 5.73674,15.15473 6.71134,16.12933 C 671.5407,916.9407 672,918.435 672,919.7 c 0,1.265 0.43266,2.3 0.96146,2.3 0.5288,0 1.44148,1.7827 2.02819,3.96155 0.5867,2.17885 2.16527,6.33263 3.50792,9.23062 1.34266,2.89798 2.11748,5.54864 1.72181,5.89034 -0.39566,0.34171 -4.99438,2.3189 -10.21938,4.39376 -33.00428,13.1061 -75.04485,24.26401 -109,28.9295 -34.66093,4.76247 -68.64129,6.56917 -93,4.94472 z"
         id="path2" />
    </g>
  </g>
</svg>
