<?xml version="1.0"?>
<!DOCTYPE svg PUBLIC "-//W3C//DTD SVG 1.1//EN" "http://www.w3.org/Graphics/SVG/1.1/DTD/svg11.dtd">
<svg xmlns="http://www.w3.org/2000/svg" version="1.1">
<g transform="translate(112.4,226.0)" stroke-width="0" fill="none" >
<path  
style="fill:rgb(4,4,4)" 
d="M -4.9 220.4
Q -2.8,222.8,2.2,218.5
Q 6.4,214.9,10.2,213.0
Q 10.9,212.7,12.9,211.3
Q 14.8,210.0,15.5,209.6
Q 16.3,209.1,18.4,207.5
Q 20.6,205.8,22.6,204.5
Q 24.6,203.2,26.6,201.6
Q 28.6,200.0,30.2,198.9
Q 33.2,196.7,40.2,190.7
Q 64.0,170.0,64.0,150.4
Q 64.0,138.6,53.3,124.8
Q 51.2,122.1,50.4,120.8
Q 49.6,119.5,49.1,119.0
Q 46.4,116.3,41.6,107.6
Q 36.2,97.8,35.3,82.6
Q 35.2,80.4,35.1,78.2
Q 35.7,78.8,36.4,79.3
Q 38.8,81.4,43.7,82.4
Q 56.0,84.9,60.2,75.0
Q 65.7,62.1,43.7,22.4
Q 36.1,8.7,31.3,-4.7
Q 29.8,-8.9,28.4,-10.6
Q 27.0,-12.4,27.2,-12.6
Q 27.4,-12.8,29.6,-12.9
Q 31.8,-13.1,33.8,-8.6
Q 37.0,-1.2,39.8,-1.2
Q 44.0,-1.2,44.0,-11.2
Q 44.0,-15.6,43.6,-17.1
Q 43.2,-18.5,47.8,-23.0
Q 48.1,-22.2,48.5,-21.3
Q 49.2,-19.6,50.0,-17.6
Q 52.7,-9.8,56.7,-11.9
Q 60.4,-13.9,59.9,-26.4
Q 59.7,-31.0,60.0,-31.9
Q 61.6,-35.9,69.1,-37.5
Q 100.3,-44.3,110.7,-64.8
Q 114.9,-73.0,110.1,-72.5
Q 107.5,-72.2,105.0,-70.0
Q 100.9,-66.4,100.6,-66.7
Q 99.4,-67.9,106.7,-78.8
Q 116.9,-94.1,120.6,-103.8
Q 126.1,-118.1,121.6,-120.7
Q 120.1,-121.6,117.7,-119.9
Q 118.2,-119.2,118.7,-118.5
Q 118.8,-118.6,118.9,-118.6
Q 119.2,-118.7,119.8,-119.1
Q 120.1,-119.2,120.4,-119.4
Q 120.7,-119.3,120.9,-119.2
Q 121.4,-119.0,121.4,-118.1
Q 121.4,-117.7,121.3,-117.2
Q 121.3,-116.3,121.3,-115.4
Q 121.3,-113.7,120.2,-109.5
Q 116.5,-96.1,107.0,-83.2
Q 105.7,-81.4,104.3,-79.0
Q 103.0,-76.6,101.5,-73.9
Q 98.7,-68.9,98.7,-65.2
Q 99.0,-64.8,99.5,-64.6
Q 99.7,-64.6,99.9,-64.7
Q 100.4,-64.7,100.9,-64.8
Q 103.1,-65.8,105.6,-67.8
Q 112.6,-73.3,108.6,-65.5
Q 107.6,-63.4,104.4,-59.0
Q 104.2,-58.7,104.0,-58.3
Q 103.5,-57.7,102.9,-57.2
Q 102.5,-57.0,102.2,-56.8
Q 102.0,-56.3,101.8,-56.3
Q 101.4,-55.9,101.1,-55.4
Q 100.4,-54.6,99.3,-53.7
Q 98.8,-53.2,98.2,-52.8
Q 86.9,-44.9,79.6,-42.4
Q 66.1,-37.9,66.9,-39.6
Q 67.0,-39.9,68.7,-42.2
Q 70.8,-45.0,73.6,-50.5
Q 73.9,-51.2,74.2,-51.9
Q 74.2,-52.1,74.2,-52.3
Q 77.6,-59.4,78.1,-70.7
Q 78.2,-73.0,78.2,-75.4
Q 78.1,-75.4,78.0,-75.4
Q 77.8,-75.3,77.8,-77.6
Q 77.8,-78.7,77.8,-79.9
Q 77.8,-83.8,77.8,-84.4
Q 77.7,-84.9,77.3,-85.2
Q 77.3,-85.6,77.3,-86.1
Q 77.2,-87.6,77.1,-89.2
Q 76.9,-92.3,76.0,-97.9
Q 75.6,-100.6,75.1,-103.4
Q 75.1,-103.6,75.1,-103.4
Q 74.7,-105.5,74.2,-107.2
Q 70.7,-120.2,64.4,-129.2
Q 63.1,-130.1,62.7,-130.8
Q 62.4,-131.1,62.2,-131.4
Q 62.0,-131.8,61.8,-132.1
Q 61.3,-132.7,60.4,-133.4
Q 60.0,-133.8,59.6,-134.1
Q 58.2,-135.0,57.8,-135.7
Q 57.6,-136.0,57.3,-136.3
Q 55.5,-138.3,56.1,-138.5
Q 58.6,-139.2,59.2,-140.5
Q 59.7,-141.6,58.3,-145.7
Q 59.1,-145.0,59.9,-144.4
Q 61.6,-143.1,62.9,-141.9
Q 67.2,-138.0,68.7,-140.1
Q 70.2,-142.1,68.4,-146.5
Q 68.0,-147.6,67.6,-148.8
Q 67.4,-149.0,67.3,-149.3
Q 69.2,-147.5,71.1,-145.6
Q 72.9,-144.5,74.4,-143.9
Q 75.9,-143.3,76.7,-143.9
Q 78.7,-145.5,78.7,-149.6
Q 78.7,-159.9,78.8,-160.3
Q 78.8,-160.7,79.1,-160.8
Q 80.7,-164.5,81.6,-164.1
Q 87.4,-161.9,92.9,-144.3
Q 96.3,-133.5,98.1,-133.0
Q 100.4,-132.4,104.1,-142.8
Q 110.8,-161.5,113.6,-158.4
Q 114.2,-157.6,115.6,-153.6
Q 115.9,-153.8,115.9,-153.5
Q 116.0,-153.3,116.0,-151.0
Q 116.0,-142.1,115.6,-139.0
Q 114.5,-131.7,109.5,-116.8
Q 106.1,-106.7,106.9,-105.9
Q 107.7,-105.1,109.2,-106.7
Q 110.7,-108.3,116.0,-115.9
Q 116.2,-116.2,116.5,-116.5
Q 116.9,-117.2,117.8,-117.9
Q 118.2,-118.2,118.7,-118.5
Q 118.2,-119.2,117.7,-119.9
Q 115.3,-118.1,112.1,-113.8
Q 110.1,-111.0,109.9,-111.1
Q 109.8,-111.3,112.0,-117.7
Q 120.9,-142.9,117.5,-155.0
Q 115.9,-160.8,112.9,-160.9
Q 108.0,-161.1,102.9,-145.9
Q 99.5,-135.9,98.7,-135.9
Q 98.0,-135.9,95.6,-143.4
Q 89.9,-162.0,83.8,-165.7
Q 76.8,-170.0,76.7,-153.6
Q 76.7,-148.2,76.5,-147.4
Q 75.5,-143.5,69.6,-150.1
Q 66.7,-153.4,65.5,-151.4
Q 64.8,-150.3,65.7,-147.4
Q 67.4,-142.7,67.0,-142.3
Q 66.2,-141.5,61.4,-145.9
Q 58.5,-148.7,56.9,-147.9
Q 55.2,-147.0,56.7,-144.1
Q 58.1,-141.1,55.2,-140.1
Q 53.1,-139.4,52.2,-139.9
Q 51.3,-140.3,50.1,-144.8
Q 46.6,-157.7,35.8,-163.7
Q 31.2,-166.2,21.5,-166.3
Q 22.0,-167.6,22.5,-169.0
Q 31.1,-191.9,27.6,-195.4
Q 25.5,-197.4,22.5,-192.0
Q 20.7,-189.0,20.3,-187.8
Q 19.6,-185.8,18.8,-187.6
Q 17.2,-191.0,13.7,-191.0
Q 12.0,-191.0,12.3,-192.2
Q 15.8,-208.0,12.1,-208.7
Q 9.4,-209.1,7.4,-199.8
Q 6.8,-201.2,6.1,-202.5
Q 4.7,-205.3,2.3,-207.0
Q 2.0,-207.2,1.9,-207.3
Q 1.4,-206.7,0.9,-206.1
Q 2.2,-205.2,2.6,-204.5
Q 2.9,-204.2,3.1,-203.9
Q 7.0,-198.4,6.0,-192.3
Q 4.9,-185.6,5.9,-185.6
Q 6.7,-185.6,7.6,-190.5
Q 9.6,-202.4,10.9,-204.6
Q 11.2,-205.1,11.6,-205.6
Q 11.8,-204.3,12.0,-203.0
Q 11.9,-200.9,11.7,-200.8
Q 11.6,-200.8,11.6,-200.8
Q 11.2,-198.3,10.9,-195.8
Q 10.3,-190.8,9.3,-190.1
Q 8.3,-189.3,8.8,-188.2
Q 9.3,-187.2,8.1,-182.2
Q 6.4,-175.9,8.0,-176.4
Q 8.8,-176.7,11.0,-185.6
Q 11.7,-188.5,12.2,-188.9
Q 12.7,-189.2,14.0,-189.0
Q 19.9,-187.9,16.9,-178.9
Q 15.0,-173.3,15.2,-173.0
Q 16.1,-171.7,17.9,-176.6
Q 22.1,-187.9,24.4,-191.2
Q 24.7,-191.6,24.9,-191.9
Q 25.6,-192.8,26.2,-193.6
Q 26.3,-193.3,26.5,-193.0
Q 26.7,-192.3,26.5,-191.6
Q 26.3,-191.3,26.2,-191.0
Q 26.0,-189.5,25.8,-188.1
Q 23.9,-176.1,18.7,-165.6
Q 18.4,-165.3,18.2,-165.0
Q 17.8,-164.3,16.0,-163.0
Q 15.4,-162.8,13.8,-161.6
Q 12.0,-159.4,10.9,-158.5
Q 10.3,-158.1,9.8,-157.6
Q 9.1,-156.9,8.4,-156.1
Q 7.1,-154.5,6.0,-152.8
Q 4.9,-151.0,3.1,-150.5
Q 3.1,-149.9,3.1,-149.2
Q 5.4,-149.3,5.8,-149.5
Q 6.5,-149.9,7.8,-151.9
Q 11.7,-158.3,17.2,-161.6
Q 19.6,-163.0,24.4,-164.3
Q 24.7,-164.4,24.9,-164.6
Q 25.3,-164.8,26.7,-164.3
Q 28.1,-164.0,29.5,-163.6
Q 41.7,-160.7,47.1,-147.7
Q 48.5,-144.3,49.0,-141.6
Q 45.3,-143.5,44.5,-143.3
Q 43.8,-143.1,43.8,-142.4
Q 43.8,-141.7,46.1,-140.6
Q 50.2,-138.6,55.8,-134.3
Q 56.8,-133.5,57.8,-132.8
Q 59.1,-131.8,59.8,-131.0
Q 60.1,-130.5,60.4,-130.1
Q 67.2,-121.1,70.1,-112.5
Q 73.5,-102.5,75.1,-86.5
Q 75.3,-84.3,75.6,-82.1
Q 76.0,-81.2,75.6,-79.9
Q 75.9,-68.8,75.3,-64.9
Q 73.0,-49.4,61.5,-37.4
Q 60.0,-35.9,58.6,-34.3
Q 58.3,-35.1,58.0,-35.9
Q 55.0,-44.3,53.5,-42.8
Q 53.1,-42.4,55.3,-37.5
Q 56.4,-35.0,57.8,-27.4
Q 57.9,-26.8,58.0,-26.1
Q 58.2,-24.8,58.0,-23.4
Q 57.9,-22.8,57.8,-22.1
Q 56.4,-15.1,55.7,-14.3
Q 54.0,-12.1,51.1,-20.1
Q 45.2,-36.4,44.5,-36.2
Q 43.5,-35.9,45.6,-30.0
Q 47.2,-25.7,45.9,-24.5
Q 43.8,-22.4,42.4,-21.8
Q 42.0,-21.6,39.9,-25.9
Q 36.8,-32.0,36.0,-31.1
Q 35.5,-30.7,37.3,-27.3
Q 44.8,-13.5,40.9,-4.4
Q 39.3,-0.8,35.1,-10.8
Q 29.3,-24.7,27.8,-24.2
Q 27.1,-23.9,28.7,-20.5
Q 30.6,-16.4,30.4,-16.1
Q 30.1,-15.9,27.9,-15.5
Q 25.1,-14.9,22.0,-14.1
Q 16.3,-12.6,7.3,-12.1
Q 5.2,-12.0,3.1,-11.9
Q 1.8,-11.4,1.1,-11.6
Q 0.8,-11.7,0.4,-11.9
Q -12.0,-13.0,-15.6,-14.3
Q -11.5,-20.0,-11.9,-20.4
Q -12.6,-21.1,-13.9,-19.8
Q -17.3,-16.1,-19.4,-12.1
Q -21.2,-8.6,-25.8,-1.9
Q -29.7,3.7,-32.2,3.7
Q -33.3,3.7,-34.2,1.0
Q -34.3,0.8,-34.5,0.6
Q -34.7,0.1,-34.2,-1.2
Q -33.2,-9.9,-29.9,-17.2
Q -28.8,-19.6,-28.6,-20.3
Q -28.5,-21.0,-27.6,-23.4
Q -25.9,-27.7,-26.9,-28.1
Q -27.4,-28.3,-28.1,-26.7
Q -28.8,-25.0,-29.5,-23.3
Q -29.9,-22.5,-30.2,-21.7
Q -34.6,-24.3,-34.9,-24.8
Q -36.0,-26.0,-32.5,-30.2
Q -31.9,-31.0,-32.3,-31.4
Q -33.7,-32.9,-39.8,-21.4
Q -53.0,3.6,-54.9,-3.5
Q -56.9,-10.7,-48.5,-21.7
Q -46.3,-24.6,-44.9,-26.8
Q -43.4,-28.9,-41.0,-32.2
Q -38.6,-35.5,-38.8,-36.1
Q -39.4,-37.5,-42.4,-33.2
Q -43.5,-31.6,-44.6,-30.0
Q -57.0,-43.4,-64.6,-70.7
Q -66.2,-76.3,-67.1,-83.9
Q -67.4,-83.7,-67.5,-84.0
Q -67.6,-84.2,-67.6,-86.1
Q -67.5,-89.2,-67.5,-89.7
Q -67.6,-90.2,-68.0,-90.5
Q -68.0,-92.1,-68.0,-93.6
Q -67.8,-94.5,-67.7,-95.4
Q -67.4,-97.1,-67.2,-100.6
Q -66.5,-117.1,-60.1,-128.8
Q -55.7,-137.0,-53.3,-138.6
Q -51.6,-139.8,-51.7,-140.7
Q -51.7,-141.6,-50.4,-143.0
Q -49.1,-144.4,-48.3,-144.6
Q -46.8,-145.1,-46.4,-149.0
Q -46.3,-150.8,-45.4,-153.4
Q -41.2,-166.6,-32.0,-167.3
Q -18.6,-168.3,-7.3,-151.8
Q -5.8,-149.6,-4.7,-149.4
Q -4.1,-149.3,-3.6,-149.2
Q -2.2,-149.7,-1.5,-149.4
Q -1.2,-149.3,-0.9,-149.2
Q -0.7,-149.9,-0.4,-150.6
Q -0.5,-150.7,-0.5,-150.7
Q -0.5,-150.8,-0.4,-151.0
Q -1.4,-151.0,-2.4,-151.0
Q -4.4,-151.0,-5.8,-153.2
Q -7.1,-155.4,-8.7,-157.4
Q -9.4,-158.4,-10.2,-159.4
Q -11.5,-160.3,-12.0,-161.0
Q -12.2,-161.3,-12.4,-161.6
Q -13.3,-162.4,-14.2,-163.3
Q -17.0,-165.9,-22.1,-167.9
Q -27.5,-169.9,-31.7,-191.0
Q -32.8,-196.3,-32.4,-198.7
Q -32.3,-199.4,-28.2,-193.1
Q -24.4,-187.2,-23.8,-186.1
Q -23.2,-184.9,-20.7,-181.0
Q -12.7,-168.8,-11.7,-169.8
Q -11.2,-170.3,-15.9,-177.2
Q -21.7,-185.9,-22.0,-187.9
Q -22.1,-188.5,-22.2,-189.2
Q -21.0,-190.8,-20.5,-191.1
Q -20.2,-191.3,-20.0,-191.4
Q -20.5,-192.1,-20.9,-192.8
Q -22.2,-191.9,-23.9,-190.1
Q -24.8,-191.7,-25.8,-193.3
Q -32.0,-203.7,-33.9,-201.7
Q -35.6,-199.9,-33.6,-189.4
Q -31.4,-177.8,-28.0,-171.6
Q -27.4,-170.4,-26.8,-169.3
Q -28.8,-169.3,-30.7,-169.2
Q -44.6,-169.2,-48.0,-150.4
Q -48.5,-147.5,-51.3,-144.7
Q -54.1,-141.8,-55.4,-140.1
Q -56.2,-139.0,-56.7,-138.8
Q -60.6,-137.0,-58.7,-153.6
Q -56.6,-171.5,-61.4,-172.2
Q -64.7,-172.7,-68.1,-163.9
Q -70.6,-157.6,-73.0,-144.6
Q -73.2,-145.2,-73.4,-145.9
Q -73.8,-147.2,-73.8,-149.3
Q -73.8,-157.1,-77.4,-154.9
Q -80.6,-152.9,-81.6,-141.7
Q -82.2,-135.1,-83.3,-146.0
Q -84.9,-161.3,-87.9,-168.0
Q -89.0,-170.6,-90.7,-171.7
Q -93.6,-173.7,-95.8,-169.9
Q -102.0,-159.1,-93.6,-129.6
Q -92.0,-124.1,-92.1,-123.0
Q -92.2,-122.5,-92.3,-121.9
Q -92.7,-122.5,-93.0,-123.0
Q -93.7,-124.1,-95.8,-131.0
Q -100.1,-145.3,-102.5,-145.9
Q -106.5,-146.9,-108.7,-136.5
Q -112.0,-120.8,-104.9,-102.0
Q -99.4,-87.2,-92.8,-77.6
Q -97.6,-80.6,-99.8,-81.8
Q -102.0,-82.9,-104.9,-84.5
Q -109.2,-86.9,-111.3,-85.8
Q -115.1,-83.9,-106.3,-67.8
Q -97.3,-51.4,-75.2,-40.4
Q -63.7,-34.6,-54.9,-33.6
Q -50.9,-33.1,-48.4,-30.5
Q -47.2,-29.3,-46.0,-28.0
Q -46.8,-27.0,-47.7,-26.0
Q -56.0,-16.7,-57.2,-6.7
Q -57.8,-1.3,-54.8,0.1
Q -49.5,2.5,-39.4,-18.0
Q -37.6,-21.7,-37.3,-22.2
Q -37.0,-22.7,-35.7,-21.8
Q -34.4,-20.9,-32.7,-20.1
Q -31.1,-19.4,-31.3,-18.6
Q -31.5,-17.9,-32.4,-16.1
Q -35.8,-9.0,-36.3,-1.8
Q -36.6,2.3,-35.7,4.0
Q -31.8,11.3,-21.3,-4.7
Q -17.9,-9.9,-17.5,-10.6
Q -17.1,-11.4,-14.7,-10.9
Q -12.2,-10.4,-12.1,-10.3
Q -11.9,-10.1,-12.8,-8.2
Q -16.7,0.2,-17.8,8.8
Q -19.7,24.1,-26.9,33.9
Q -32.2,41.1,-34.4,45.2
Q -34.9,46.2,-35.6,47.3
Q -36.3,48.4,-36.6,49.6
Q -36.9,50.9,-37.3,51.6
Q -38.9,54.6,-38.8,62.8
Q -38.7,70.9,-35.9,77.1
Q -31.8,86.1,-24.7,86.0
Q -19.4,86.0,-15.4,82.2
Q -12.8,79.8,-13.0,80.8
Q -13.3,81.8,-13.6,82.8
Q -12.8,83.0,-12.0,83.2
Q -11.8,82.8,-11.6,82.8
Q -11.2,81.6,-10.9,80.3
Q -10.2,77.9,-8.2,73.6
Q -3.4,63.8,-0.7,53.2
Q -0.1,51.1,0.4,49.0
Q 0.1,48.3,-0.6,48.2
Q -0.6,48.2,-0.6,48.2
Q -1.3,48.1,-2.0,51.2
Q -4.8,63.9,-7.6,67.0
Q -8.4,68.0,-9.2,70.1
Q -10.2,73.2,-12.0,75.3
Q -13.3,76.7,-13.3,61.8
Q -13.3,53.8,-13.9,54.1
Q -15.5,54.7,-14.4,73.1
Q -14.1,78.2,-16.6,80.3
Q -21.5,84.5,-24.7,83.9
Q -25.2,83.8,-25.8,83.7
Q -26.2,83.7,-26.7,83.7
Q -30.1,81.8,-31.4,80.2
Q -40.1,69.6,-29.8,57.7
Q -22.9,49.9,-23.8,49.0
Q -24.3,48.6,-28.4,53.8
Q -32.6,59.0,-34.5,62.0
Q -36.1,64.6,-36.3,64.7
Q -36.7,64.8,-36.7,63.0
Q -36.6,58.8,-35.9,55.3
Q -34.8,50.2,-32.6,46.3
Q -31.1,43.7,-28.0,39.2
Q -27.8,38.8,-27.6,38.8
Q -20.7,28.4,-18.4,21.7
Q -17.3,18.3,-16.4,12.6
Q -16.4,12.0,-16.4,11.5
Q -16.4,10.5,-16.2,10.4
Q -16.1,10.4,-16.0,10.3
Q -15.8,8.5,-15.5,6.6
Q -14.6,0.0,-11.4,-6.8
Q -9.8,-10.2,-7.3,-9.9
Q -4.9,-9.6,0.4,-9.4
Q 3.1,-9.3,5.8,-9.2
Q 6.0,-9.3,6.2,-9.5
Q 6.7,-9.7,7.4,-9.5
Q 7.7,-9.3,8.0,-9.2
Q 9.9,-9.4,11.7,-9.5
Q 15.5,-9.9,20.0,-10.9
Q 23.7,-11.8,24.4,-11.6
Q 27.0,-10.8,31.3,1.3
Q 34.6,10.6,44.6,28.9
Q 47.1,33.5,49.3,37.9
Q 50.4,40.1,51.6,42.3
Q 51.8,42.8,52.0,43.2
Q 53.8,47.2,55.1,51.2
Q 55.2,51.7,55.3,52.1
Q 55.5,53.0,56.0,53.9
Q 59.4,63.5,59.0,65.4
Q 58.8,66.1,55.7,61.2
Q 48.2,49.5,47.1,49.1
Q 45.0,48.3,54.8,63.0
Q 58.8,69.0,58.9,70.0
Q 59.6,76.2,53.3,79.6
Q 48.0,82.3,46.1,78.0
Q 43.7,72.5,41.1,62.6
Q 38.8,53.5,37.9,54.1
Q 37.4,54.3,39.6,63.1
Q 41.8,71.9,43.4,75.5
Q 45.0,79.0,45.2,79.8
Q 45.3,80.2,45.4,80.6
Q 39.1,78.3,35.6,74.8
Q 35.4,74.6,35.3,74.4
Q 35.1,73.9,34.7,73.0
Q 34.2,72.5,33.8,71.9
Q 30.6,67.9,27.3,56.8
Q 26.8,54.9,26.2,53.0
Q 25.5,53.2,24.7,53.3
Q 25.5,57.5,26.7,61.7
Q 28.4,67.4,31.2,72.4
Q 32.4,74.8,32.9,76.6
Q 33.2,76.5,33.3,76.8
Q 33.3,77.1,33.3,79.7
Q 33.3,82.7,33.1,82.8
Q 33.0,82.8,32.9,82.8
Q 32.9,85.0,33.1,85.5
Q 33.2,85.7,33.3,85.9
Q 33.3,86.1,33.3,86.3
Q 33.6,92.1,34.6,96.4
Q 37.4,108.2,46.4,119.8
Q 58.9,136.1,60.7,144.4
Q 65.5,166.9,34.7,192.1
Q 33.5,193.1,32.3,194.1
Q 35.2,188.8,36.1,186.2
Q 40.1,173.8,36.0,153.4
Q 32.2,134.6,31.5,134.6
Q 30.6,134.7,32.5,144.5
Q 37.8,172.7,34.9,183.0
Q 31.9,193.8,26.0,198.8
Q 22.4,201.9,8.3,211.4
Q 4.2,214.2,1.3,216.1
Q -1.5,218.1,-2.1,218.2
Q -2.7,218.4,-2.4,216.9
Q -0.8,207.3,-3.8,198.5
Q -4.8,195.5,-4.0,193.5
Q -2.5,189.7,-2.0,184.6
Q -1.6,181.8,-1.1,162.8
Q -0.7,147.1,2.9,135.3
Q 4.0,131.5,3.6,131.1
Q 2.9,130.4,1.2,135.9
Q -1.4,144.0,-2.4,154.1
Q -3.6,165.0,-3.3,172.6
Q -2.9,185.5,-5.3,191.8
Q -5.5,192.5,-5.8,193.1
Q -7.6,189.6,-9.3,186.2
Q -12.9,179.2,-15.8,173.5
Q -17.2,170.6,-18.7,167.7
Q -18.6,166.8,-19.1,166.3
Q -19.8,164.9,-20.4,163.5
Q -35.9,128.5,-20.4,101.0
Q -15.9,92.9,-13.3,86.6
Q -12.7,84.9,-12.0,83.2
Q -12.8,83.0,-13.6,82.8
Q -14.7,86.6,-16.5,89.9
Q -17.4,91.4,-18.7,93.9
Q -19.9,96.4,-21.0,98.2
Q -33.7,118.6,-29.1,142.5
Q -25.6,160.6,-11.4,187.2
Q -2.0,204.8,-5.0,217.8
Q -5.4,219.7,-4.9,220.4
 " /> 
<path  
style="fill:rgb(4,4,4)" 
d="M -98.7 -60.3
Q -95.6,-57.6,-94.5,-56.3
Q -93.9,-55.6,-93.3,-55.0
Q -91.9,-53.9,-90.4,-52.8
Q -71.7,-38.3,-54.1,-35.6
Q -53.2,-35.4,-52.4,-35.3
Q -57.2,-42.3,-59.6,-47.9
Q -60.7,-48.0,-61.8,-48.1
Q -71.3,-49.0,-86.6,-61.6
Q -93.2,-67.0,-92.6,-68.0
Q -92.4,-68.4,-89.8,-66.0
Q -78.4,-55.2,-65.8,-50.4
Q -63.2,-49.4,-60.4,-49.2
Q -66.8,-67.4,-67.8,-73.0
Q -68.1,-74.9,-68.4,-76.8
Q -69.0,-77.0,-69.5,-77.2
Q -70.0,-77.4,-70.4,-77.6
Q -80.4,-82.1,-87.3,-94.7
Q -90.1,-99.8,-88.9,-99.4
Q -88.4,-99.2,-86.9,-96.5
Q -79.4,-82.7,-68.9,-78.5
Q -69.8,-85.2,-69.8,-90.1
Q -69.9,-90.4,-70.0,-90.8
Q -70.3,-91.4,-70.0,-92.1
Q -69.9,-92.4,-69.8,-92.8
Q -69.8,-93.0,-69.8,-93.2
Q -71.0,-94.3,-72.2,-95.4
Q -79.3,-101.8,-82.4,-112.0
Q -83.6,-115.9,-83.4,-116.6
Q -83.2,-117.0,-83.0,-117.4
Q -78.0,-102.2,-71.5,-96.1
Q -70.6,-95.3,-69.8,-94.5
Q -69.8,-97.2,-69.3,-102.5
Q -69.3,-104.5,-68.9,-104.8
Q -68.7,-109.1,-68.4,-109.6
Q -71.6,-111.9,-73.2,-114.4
Q -76.9,-120.2,-77.6,-124.9
Q -77.7,-125.8,-77.9,-126.7
Q -77.0,-125.8,-76.1,-123.2
Q -73.8,-116.2,-70.3,-112.6
Q -69.4,-111.5,-68.4,-110.5
Q -68.1,-112.3,-67.8,-114.1
Q -67.1,-117.7,-65.8,-120.8
Q -65.1,-122.3,-64.4,-123.9
Q -64.9,-124.2,-65.3,-124.5
Q -67.5,-126.2,-67.9,-133.3
Q -68.1,-137.6,-67.7,-137.6
Q -67.2,-137.6,-66.9,-133.2
Q -66.6,-128.8,-65.5,-127.0
Q -65.0,-126.1,-64.4,-125.2
Q -61.8,-130.1,-59.9,-133.1
Q -57.8,-136.5,-58.7,-137.0
Q -60.7,-138.0,-61.2,-141.1
Q -61.4,-142.4,-60.9,-153.2
Q -60.9,-153.8,-60.9,-154.4
Q -60.9,-155.6,-60.4,-155.9
Q -60.4,-157.9,-60.4,-159.9
Q -60.4,-162.3,-60.0,-162.5
Q -60.4,-167.4,-61.0,-168.8
Q -61.3,-169.5,-61.6,-170.3
Q -62.2,-169.7,-62.8,-169.2
Q -66.9,-165.0,-69.6,-151.6
Q -71.5,-141.7,-72.2,-138.8
Q -72.8,-136.1,-73.1,-134.8
Q -73.4,-133.6,-74.1,-133.9
Q -74.8,-134.3,-75.6,-137.6
Q -75.6,-138.8,-75.6,-139.9
Q -75.7,-142.8,-75.8,-145.6
Q -76.3,-159.0,-78.8,-145.9
Q -79.5,-142.3,-79.8,-139.4
Q -80.4,-133.3,-82.1,-133.8
Q -83.7,-134.2,-84.6,-140.9
Q -84.8,-142.0,-84.9,-143.0
Q -85.0,-142.9,-85.1,-142.9
Q -85.4,-142.8,-85.4,-144.0
Q -85.4,-144.0,-85.4,-144.0
Q -85.4,-144.6,-85.3,-145.2
Q -85.4,-146.6,-85.6,-148.1
Q -85.8,-151.0,-86.2,-153.1
Q -86.6,-155.2,-87.3,-158.8
Q -90.0,-172.4,-93.4,-169.5
Q -94.8,-168.2,-96.0,-161.6
Q -96.0,-160.9,-96.0,-160.2
Q -96.0,-158.8,-96.4,-158.5
Q -96.4,-158.1,-96.4,-157.6
Q -96.0,-157.8,-96.0,-157.5
Q -95.9,-157.3,-96.0,-154.5
Q -96.0,-153.6,-96.0,-152.8
Q -96.0,-151.0,-95.6,-147.9
Q -95.0,-148.0,-95.1,-146.8
Q -95.1,-146.8,-95.1,-146.8
Q -95.1,-146.2,-95.1,-145.6
Q -94.2,-139.9,-93.1,-136.0
Q -89.6,-124.1,-89.9,-121.2
Q -90.4,-117.2,-93.5,-120.2
Q -95.7,-122.3,-97.7,-129.4
Q -100.8,-140.3,-101.7,-142.0
Q -104.1,-146.7,-106.2,-137.6
Q -106.4,-136.5,-106.7,-135.4
Q -106.7,-133.4,-107.1,-133.2
Q -107.1,-132.5,-107.1,-131.9
Q -107.1,-129.4,-107.6,-129.2
Q -107.6,-106.2,-93.2,-83.3
Q -91.1,-79.9,-90.6,-78.3
Q -90.4,-77.5,-90.2,-76.8
Q -89.8,-75.4,-90.4,-75.0
Q -91.1,-74.5,-92.0,-75.0
Q -94.7,-75.9,-97.2,-77.5
Q -100.3,-79.5,-107.1,-83.0
Q -109.5,-84.3,-109.9,-83.9
Q -112.4,-81.4,-98.7,-60.3
 " /> 
<path  
style="fill:rgb(14,103,171)" 
d="M -98.7 -60.3
Q -98.0,-59.5,-97.3,-58.8
Q -96.0,-57.2,-93.3,-55.0
Q -93.9,-55.6,-94.5,-56.3
Q -95.6,-57.6,-98.7,-60.3
 " /> 
<path  
style="fill:rgb(14,103,171)" 
d="M -92.0 -75.0
Q -91.1,-74.5,-90.4,-75.0
Q -89.8,-75.4,-90.2,-76.8
Q -90.4,-76.3,-90.5,-75.9
Q -90.8,-75.1,-92.0,-75.0
 " /> 
<path  
style="fill:rgb(14,103,171)" 
d="M -107.6 -129.2
Q -107.1,-129.4,-107.1,-131.9
Q -107.5,-131.7,-107.6,-129.2
 " /> 
<path  
style="fill:rgb(14,103,171)" 
d="M -107.1 -133.2
Q -106.7,-133.4,-106.7,-135.4
Q -106.8,-135.4,-106.8,-135.3
Q -107.0,-135.3,-107.1,-133.2
 " /> 
<path  
style="fill:rgb(14,103,171)" 
d="M -95.1 -145.6
Q -95.1,-146.2,-95.1,-146.8
Q -95.3,-147.4,-95.6,-147.9
Q -95.6,-145.9,-95.5,-145.7
Q -95.4,-145.5,-95.1,-145.6
 " /> 
<path  
style="fill:rgb(14,103,171)" 
d="M -95.6 -147.9
Q -95.3,-147.4,-95.1,-146.8
Q -95.1,-146.8,-95.1,-146.8
Q -95.0,-148.0,-95.6,-147.9
 " /> 
<path  
style="fill:rgb(14,103,171)" 
d="M -96.0 -154.5
Q -95.9,-157.3,-96.0,-157.5
Q -96.0,-157.8,-96.4,-157.6
Q -96.4,-154.8,-96.4,-154.6
Q -96.3,-154.4,-96.0,-154.5
 " /> 
<path  
style="fill:rgb(14,103,171)" 
d="M -96.4 -158.5
Q -96.0,-158.8,-96.0,-160.2
Q -96.0,-160.9,-96.0,-161.6
Q -96.1,-161.6,-96.2,-161.6
Q -96.4,-161.5,-96.4,-160.0
Q -96.4,-159.3,-96.4,-158.5
 " /> 
<path  
style="fill:rgb(14,103,171)" 
d="M -85.3 -145.2
Q -85.4,-144.6,-85.4,-144.0
Q -85.1,-143.5,-84.9,-143.0
Q -84.9,-144.9,-84.9,-145.1
Q -85.0,-145.4,-85.3,-145.2
 " /> 
<path  
style="fill:rgb(14,103,171)" 
d="M -84.9 -143.0
Q -85.1,-143.5,-85.4,-144.0
Q -85.4,-144.0,-85.4,-144.0
Q -85.4,-142.8,-85.1,-142.9
Q -85.0,-142.9,-84.9,-143.0
 " /> 
<path  
style="fill:rgb(14,103,171)" 
d="M -75.6 -139.9
Q -75.6,-138.8,-75.6,-137.6
Q -75.4,-138.0,-75.3,-138.3
Q -75.1,-139.0,-75.6,-139.9
 " /> 
<path  
style="fill:rgb(14,103,171)" 
d="M -60.0 -162.5
Q -60.4,-162.3,-60.4,-159.9
Q -60.1,-160.0,-60.0,-162.5
 " /> 
<path  
style="fill:rgb(14,103,171)" 
d="M -60.4 -155.9
Q -60.9,-155.6,-60.9,-154.4
Q -60.9,-153.8,-60.9,-153.2
Q -60.8,-153.2,-60.7,-153.3
Q -60.5,-153.4,-60.5,-154.6
Q -60.5,-155.2,-60.4,-155.9
 " /> 
<path  
style="fill:rgb(97,247,248)" 
d="M -64.4 -125.2
Q -65.0,-126.1,-65.5,-127.0
Q -66.6,-128.8,-66.9,-133.2
Q -67.2,-137.6,-67.7,-137.6
Q -68.1,-137.6,-67.9,-133.3
Q -67.5,-126.2,-65.3,-124.5
Q -64.9,-124.2,-64.4,-123.9
Q -64.4,-124.5,-64.4,-125.2
 " /> 
<path  
style="fill:rgb(97,247,248)" 
d="M -68.4 -110.5
Q -69.4,-111.5,-70.3,-112.6
Q -73.8,-116.2,-76.1,-123.2
Q -77.0,-125.8,-77.9,-126.7
Q -77.7,-125.8,-77.6,-124.9
Q -76.9,-120.2,-73.2,-114.4
Q -71.6,-111.9,-68.4,-109.6
Q -68.4,-110.1,-68.4,-110.5
 " /> 
<path  
style="fill:rgb(14,103,171)" 
d="M -68.9 -104.8
Q -69.3,-104.5,-69.3,-102.5
Q -69.2,-102.6,-69.1,-102.6
Q -68.9,-102.7,-68.9,-103.7
Q -68.9,-104.2,-68.9,-104.8
 " /> 
<path  
style="fill:rgb(97,247,248)" 
d="M -69.8 -94.5
Q -70.6,-95.3,-71.5,-96.1
Q -78.0,-102.2,-83.0,-117.4
Q -83.2,-117.0,-83.4,-116.6
Q -83.6,-115.9,-82.4,-112.0
Q -79.3,-101.8,-72.2,-95.4
Q -71.0,-94.3,-69.8,-93.2
Q -69.8,-93.9,-69.8,-94.5
 " /> 
<path  
style="fill:rgb(14,103,171)" 
d="M -69.8 -92.8
Q -69.9,-92.4,-70.0,-92.1
Q -70.3,-91.4,-70.0,-90.8
Q -69.9,-90.4,-69.8,-90.1
Q -69.8,-91.4,-69.8,-92.8
 " /> 
<path  
style="fill:rgb(97,247,248)" 
d="M -68.9 -78.5
Q -69.2,-77.9,-69.5,-77.2
Q -69.0,-77.0,-68.4,-76.8
Q -68.9,-77.6,-68.9,-78.5
 " /> 
<path  
style="fill:rgb(97,247,248)" 
d="M -68.9 -78.5
Q -79.4,-82.7,-86.9,-96.5
Q -88.4,-99.2,-88.9,-99.4
Q -90.1,-99.8,-87.3,-94.7
Q -80.4,-82.1,-70.4,-77.6
Q -70.0,-77.4,-69.5,-77.2
Q -69.2,-77.9,-68.9,-78.5
 " /> 
<path  
style="fill:rgb(97,247,248)" 
d="M -60.4 -49.2
Q -63.2,-49.4,-65.8,-50.4
Q -78.4,-55.2,-89.8,-66.0
Q -92.4,-68.4,-92.6,-68.0
Q -93.2,-67.0,-86.6,-61.6
Q -71.3,-49.0,-61.8,-48.1
Q -60.7,-48.0,-59.6,-47.9
Q -60.0,-48.5,-60.4,-49.2
 " /> 
<path  
style="fill:rgb(14,103,171)" 
d="M -19.1 166.3
Q -18.7,159.2,-18.4,157.1
Q -17.7,150.6,-16.2,144.3
Q -12.8,129.9,-10.9,129.9
Q -10.1,129.9,-10.4,130.7
Q -16.0,144.5,-17.6,163.4
Q -17.8,166.2,-18.0,166.8
Q -18.1,167.3,-18.7,167.7
Q -17.2,170.6,-15.8,173.5
Q -12.9,179.2,-9.3,186.2
Q -7.6,189.6,-5.8,193.1
Q -5.5,192.5,-5.3,191.8
Q -2.9,185.5,-3.3,172.6
Q -3.6,165.0,-2.4,154.1
Q -1.4,144.0,1.2,135.9
Q 2.9,130.4,3.6,131.1
Q 4.0,131.5,2.9,135.3
Q -0.7,147.1,-1.1,162.8
Q -1.6,181.8,-2.0,184.6
Q -2.5,189.7,-4.0,193.5
Q -4.8,195.5,-3.8,198.5
Q -0.8,207.3,-2.4,216.9
Q -2.7,218.4,-2.1,218.2
Q -1.5,218.1,1.3,216.1
Q 4.2,214.2,8.3,211.4
Q 22.4,201.9,26.0,198.8
Q 31.9,193.8,34.9,183.0
Q 37.8,172.7,32.5,144.5
Q 30.6,134.7,31.5,134.6
Q 32.2,134.6,36.0,153.4
Q 40.1,173.8,36.1,186.2
Q 35.2,188.8,32.3,194.1
Q 33.5,193.1,34.7,192.1
Q 65.5,166.9,60.7,144.4
Q 58.9,136.1,46.4,119.8
Q 37.4,108.2,34.6,96.4
Q 33.6,92.1,33.3,86.3
Q 31.7,86.3,31.4,86.7
Q 31.1,87.0,31.1,88.7
Q 31.1,93.0,29.7,100.0
Q 29.3,102.4,28.2,103.1
Q 26.4,104.2,26.0,100.3
Q 25.4,94.7,24.1,91.5
Q 22.6,94.5,21.6,95.6
Q 19.1,98.4,15.0,93.0
Q 11.9,89.1,10.9,99.5
Q 10.3,105.6,6.4,109.1
Q 4.6,110.7,3.8,100.4
Q 3.7,98.5,3.6,96.6
Q 3.6,96.1,3.6,95.7
Q 3.4,95.7,3.3,95.7
Q 3.2,95.7,3.2,95.5
Q 3.1,95.2,3.1,93.0
Q 3.1,92.6,3.1,92.1
Q 3.1,91.2,2.7,90.1
Q 2.4,89.6,2.2,89.0
Q 1.9,88.8,1.5,88.5
Q 0.9,88.0,-0.7,90.1
Q -1.4,91.1,-2.2,92.1
Q -2.2,92.3,-2.2,92.6
Q -2.7,93.2,-3.1,93.9
Q -4.0,95.2,-5.6,95.2
Q -7.1,95.2,-8.4,92.6
Q -8.4,92.3,-8.4,92.1
Q -8.9,91.1,-9.3,90.1
Q -10.2,88.1,-11.1,85.7
Q -11.6,84.5,-12.0,83.2
Q -12.7,84.9,-13.3,86.6
Q -15.9,92.9,-20.4,101.0
Q -35.9,128.5,-20.4,163.5
Q -19.8,164.9,-19.1,166.3
 " /> 
<path  
style="fill:rgb(7,193,201)" 
d="M 0.7 214.4
Q 1.1,215.1,2.1,213.9
Q 10.2,204.2,15.3,191.9
Q 18.6,184.0,19.3,179.4
Q 19.5,177.9,20.0,175.8
Q 20.9,171.8,20.9,161.8
Q 20.9,156.6,20.7,156.6
Q 20.4,156.6,20.2,159.8
Q 19.0,177.2,15.8,186.3
Q 11.1,199.9,1.8,212.1
Q 0.4,213.9,0.7,214.4
 " /> 
<path  
style="fill:rgb(7,193,201)" 
d="M 46.1 176.8
Q 47.6,178.2,48.7,171.2
Q 51.0,156.5,46.4,141.8
Q 44.8,136.9,44.0,137.7
Q 43.6,138.1,44.4,140.6
Q 50.5,158.6,46.5,174.2
Q 45.9,176.5,46.1,176.8
 " /> 
<path  
style="fill:rgb(7,193,201)" 
d="M -19.1 166.3
Q -18.6,166.8,-18.7,167.7
Q -18.1,167.3,-18.0,166.8
Q -17.8,166.2,-17.6,163.4
Q -16.0,144.5,-10.4,130.7
Q -10.1,129.9,-10.9,129.9
Q -12.8,129.9,-16.2,144.3
Q -17.7,150.6,-18.4,157.1
Q -18.7,159.2,-19.1,166.3
 " /> 
<path  
style="fill:rgb(7,193,201)" 
d="M -12.0 83.2
Q -11.6,84.5,-11.1,85.7
Q -10.2,88.1,-9.3,90.1
Q -8.9,91.1,-8.4,92.1
Q -9.8,88.1,-10.7,85.5
Q -11.1,84.1,-11.6,82.8
Q -11.8,82.8,-12.0,83.2
 " /> 
<path  
style="fill:rgb(97,247,248)" 
d="M -8.4 92.1
Q -8.4,92.3,-8.4,92.6
Q -8.2,92.9,-8.0,93.2
Q -6.3,95.8,-3.5,93.7
Q -2.9,93.1,-2.2,92.6
Q -2.2,92.3,-2.2,92.1
Q -1.8,91.2,-1.3,90.3
Q 0.8,86.2,1.8,88.2
Q 2.0,88.6,2.2,89.0
Q 2.4,89.6,2.7,90.1
Q 3.1,91.2,3.1,92.1
Q 3.1,92.6,3.1,93.0
Q 3.4,93.0,3.5,93.2
Q 3.6,93.5,3.6,95.7
Q 3.6,96.1,3.6,96.6
Q 3.9,98.7,4.3,100.8
Q 5.0,105.1,5.2,106.8
Q 5.5,109.9,7.7,107.0
Q 9.9,104.2,10.4,99.4
Q 11.4,90.6,14.0,91.3
Q 14.6,91.5,16.4,93.8
Q 20.1,98.5,23.1,92.6
Q 24.0,90.8,24.4,90.8
Q 24.8,90.8,25.3,93.8
Q 26.9,102.8,27.3,102.8
Q 29.9,102.8,30.3,92.1
Q 30.5,87.1,31.3,86.2
Q 31.7,85.9,33.3,85.9
Q 33.2,85.7,33.1,85.5
Q 32.9,85.0,32.9,82.8
Q 32.9,81.2,32.9,79.7
Q 32.9,78.1,32.9,76.6
Q 32.4,74.8,31.2,72.4
Q 28.4,67.4,26.7,61.7
Q 25.5,57.5,24.7,53.3
Q 24.3,51.0,24.0,48.7
Q 23.9,48.5,23.6,44.1
Q 23.4,44.1,23.3,44.2
Q 23.1,44.2,23.1,41.0
Q 24.4,37.5,25.3,35.0
Q 26.2,32.6,26.7,29.2
Q 26.9,27.6,27.1,25.9
Q 27.1,23.0,27.1,20.1
Q 26.8,17.5,26.4,14.8
Q 25.8,10.0,25.7,9.8
Q 25.1,9.1,24.7,12.6
Q 24.1,17.0,22.8,17.0
Q 22.1,17.0,23.3,9.5
Q 24.0,5.7,24.4,2.2
Q 24.7,-1.4,25.3,-1.4
Q 25.9,-1.4,25.8,1.1
Q 25.7,3.6,26.6,6.7
Q 27.4,9.8,27.9,13.0
Q 28.2,14.5,28.4,16.1
Q 28.6,16.1,28.7,16.1
Q 28.9,16.0,28.9,17.2
Q 28.9,17.2,28.9,17.2
Q 28.9,17.8,28.9,18.3
Q 28.9,22.6,28.6,26.0
Q 28.0,33.4,26.1,37.4
Q 24.6,40.7,25.8,49.5
Q 26.0,51.0,26.2,52.6
Q 31.1,48.6,33.5,46.3
Q 35.9,44.1,38.4,42.3
Q 40.9,40.6,44.9,38.8
Q 45.1,38.8,45.3,38.8
Q 47.3,38.8,50.2,41.2
Q 50.9,41.8,51.6,42.3
Q 50.4,40.1,49.3,37.9
Q 47.1,33.5,44.6,28.9
Q 34.6,10.6,31.3,1.3
Q 27.0,-10.8,24.4,-11.6
Q 23.7,-11.8,20.0,-10.9
Q 15.5,-9.9,11.7,-9.5
Q 9.9,-9.4,8.0,-9.2
Q 6.9,-9.2,5.8,-9.2
Q 3.1,-9.3,0.4,-9.4
Q -4.9,-9.6,-7.3,-9.9
Q -9.8,-10.2,-11.4,-6.8
Q -14.6,0.0,-15.5,6.6
Q -15.8,8.5,-16.0,10.3
Q -16.0,12.5,-16.4,12.6
Q -17.3,18.3,-18.4,21.7
Q -20.7,28.4,-27.6,38.8
Q -27.0,38.9,-26.4,39.0
Q -25.3,39.3,-24.4,39.5
Q -24.0,39.6,-23.6,39.7
Q -23.3,39.7,-23.1,39.7
Q -22.8,39.8,-22.4,39.9
Q -21.8,40.1,-21.1,40.6
Q -20.8,40.8,-20.4,41.0
Q -20.2,41.0,-20.0,41.0
Q -18.7,40.6,-15.6,39.7
Q -15.3,39.7,-15.1,39.7
Q -14.6,39.6,-14.0,39.5
Q -12.9,39.2,-11.4,40.8
Q -9.8,42.4,-7.9,42.7
Q -3.5,43.2,-2.1,45.5
Q -1.8,46.2,-1.1,45.9
Q -0.8,45.7,-0.4,45.5
Q -0.2,43.6,0.0,41.7
Q 0.4,37.9,-0.9,35.1
Q -3.3,30.3,-3.8,26.2
Q -4.0,24.9,-4.2,21.1
Q -4.3,18.2,-4.4,13.9
Q -4.4,12.8,-4.4,11.7
Q -5.3,4.6,-5.4,3.8
Q -5.5,3.1,-4.9,2.9
Q -4.2,2.8,-3.4,6.7
Q -2.6,10.6,-1.5,14.3
Q -0.0,19.3,-1.1,19.4
Q -2.0,19.5,-2.1,18.5
Q -2.2,18.0,-2.2,17.5
Q -2.3,17.5,-2.4,17.5
Q -2.5,17.5,-2.6,17.9
Q -2.6,18.3,-2.7,21.0
Q -2.4,22.8,-2.2,24.6
Q -1.4,31.3,1.4,35.9
Q 3.7,39.7,2.5,39.7
Q 1.9,39.7,1.6,42.3
Q 1.4,44.1,0.9,45.8
Q 0.7,46.7,0.4,47.7
Q 0.4,48.3,0.4,49.0
Q -0.1,51.1,-0.7,53.2
Q -3.4,63.8,-8.2,73.6
Q -10.2,77.9,-10.9,80.3
Q -11.2,81.6,-11.6,82.8
Q -11.1,84.1,-10.7,85.5
Q -9.8,88.1,-8.4,92.1
 " /> 
<path  
style="fill:rgb(7,193,201)" 
d="M -8.4 92.6
Q -7.1,95.2,-5.6,95.2
Q -4.0,95.2,-3.1,93.9
Q -2.7,93.2,-2.2,92.6
Q -2.9,93.1,-3.5,93.7
Q -6.3,95.8,-8.0,93.2
Q -8.2,92.9,-8.4,92.6
 " /> 
<path  
style="fill:rgb(7,193,201)" 
d="M -2.2 92.1
Q -1.4,91.1,-0.7,90.1
Q 0.9,88.0,1.5,88.5
Q 1.9,88.8,2.2,89.0
Q 2.0,88.6,1.8,88.2
Q 0.8,86.2,-1.3,90.3
Q -1.8,91.2,-2.2,92.1
 " /> 
<path  
style="fill:rgb(7,193,201)" 
d="M 3.1 93.0
Q 3.1,95.2,3.2,95.5
Q 3.2,95.7,3.3,95.7
Q 3.4,95.7,3.6,95.7
Q 3.6,93.5,3.5,93.2
Q 3.4,93.0,3.1,93.0
 " /> 
<path  
style="fill:rgb(7,193,201)" 
d="M 3.6 96.6
Q 3.7,98.5,3.8,100.4
Q 4.6,110.7,6.4,109.1
Q 10.3,105.6,10.9,99.5
Q 11.9,89.1,15.0,93.0
Q 19.1,98.4,21.6,95.6
Q 22.6,94.5,24.1,91.5
Q 25.4,94.7,26.0,100.3
Q 26.4,104.2,28.2,103.1
Q 29.3,102.4,29.7,100.0
Q 31.1,93.0,31.1,88.7
Q 31.1,87.0,31.4,86.7
Q 31.7,86.3,33.3,86.3
Q 33.3,86.1,33.3,85.9
Q 31.7,85.9,31.3,86.2
Q 30.5,87.1,30.3,92.1
Q 29.9,102.8,27.3,102.8
Q 26.9,102.8,25.3,93.8
Q 24.8,90.8,24.4,90.8
Q 24.0,90.8,23.1,92.6
Q 20.1,98.5,16.4,93.8
Q 14.6,91.5,14.0,91.3
Q 11.4,90.6,10.4,99.4
Q 9.9,104.2,7.7,107.0
Q 5.5,109.9,5.2,106.8
Q 5.0,105.1,4.3,100.8
Q 3.9,98.7,3.6,96.6
 " /> 
<path  
style="fill:rgb(14,103,171)" 
d="M 0.4 49.0
Q 0.4,48.3,0.4,47.7
Q -0.2,47.2,-0.4,47.2
Q -0.5,47.7,-0.6,48.2
Q 0.1,48.3,0.4,49.0
 " /> 
<path  
style="fill:rgb(4,4,4)" 
d="M 0.4 47.7
Q 0.7,46.7,0.9,45.8
Q 0.3,45.6,-0.4,45.5
Q -0.4,46.3,-0.4,47.2
Q -0.2,47.2,0.4,47.7
 " /> 
<path  
style="fill:rgb(4,4,4)" 
d="M -2.7 21.0
Q -2.7,20.1,-2.8,19.1
Q -2.9,17.2,-2.2,17.5
Q -2.2,18.0,-2.1,18.5
Q -2.0,19.5,-1.1,19.4
Q -0.0,19.3,-1.5,14.3
Q -2.6,10.6,-3.4,6.7
Q -4.2,2.8,-4.9,2.9
Q -5.5,3.1,-5.4,3.8
Q -5.3,4.6,-4.4,11.7
Q -4.3,12.0,-4.2,12.3
Q -3.9,13.0,-4.4,13.9
Q -4.3,18.2,-4.2,21.1
Q -3.4,21.0,-2.7,21.0
 " /> 
<path  
style="fill:rgb(4,4,4)" 
d="M -2.7 21.0
Q -3.4,21.0,-4.2,21.1
Q -4.0,24.9,-3.8,26.2
Q -3.3,30.3,-0.9,35.1
Q 0.4,37.9,0.0,41.7
Q -0.2,43.6,-0.4,45.5
Q 0.3,45.6,0.9,45.8
Q 1.4,44.1,1.6,42.3
Q 1.9,39.7,2.5,39.7
Q 3.7,39.7,1.4,35.9
Q -1.4,31.3,-2.2,24.6
Q -2.4,22.8,-2.7,21.0
 " /> 
<path  
style="fill:rgb(14,103,171)" 
d="M -4.4 11.7
Q -4.4,12.8,-4.4,13.9
Q -3.9,13.0,-4.2,12.3
Q -4.3,12.0,-4.4,11.7
 " /> 
<path  
style="fill:rgb(7,193,201)" 
d="M -0.4 45.5
Q -0.8,45.7,-1.1,45.9
Q -0.7,46.6,-0.4,47.2
Q -0.4,46.3,-0.4,45.5
 " /> 
<path  
style="fill:rgb(14,103,171)" 
d="M -15.1 39.7
Q -15.3,39.7,-15.6,39.7
Q -17.4,40.9,-18.7,41.0
Q -19.3,41.0,-20.0,41.0
Q -20.2,41.0,-20.4,41.0
Q -20.8,41.0,-21.1,41.0
Q -21.8,41.0,-22.4,40.4
Q -22.8,40.0,-23.1,39.7
Q -23.3,39.7,-23.6,39.7
Q -27.7,39.7,-27.9,39.6
Q -28.2,39.6,-28.0,39.2
Q -31.1,43.7,-32.6,46.3
Q -34.8,50.2,-35.9,55.3
Q -35.1,55.4,-34.3,55.6
Q -34.6,55.0,-34.0,53.7
Q -33.4,52.3,-32.7,50.6
Q -31.9,48.9,-31.5,49.4
Q -31.0,49.8,-32.0,52.4
Q -33.8,57.0,-34.3,55.6
Q -35.1,55.4,-35.9,55.3
Q -36.6,58.8,-36.7,63.0
Q -36.7,64.8,-36.3,64.7
Q -36.1,64.6,-34.5,62.0
Q -32.6,59.0,-28.4,53.8
Q -24.3,48.6,-23.8,49.0
Q -22.9,49.9,-29.8,57.7
Q -40.1,69.6,-31.4,80.2
Q -30.1,81.8,-26.7,83.7
Q -26.8,80.6,-26.9,77.5
Q -27.2,69.0,-26.0,70.7
Q -25.3,71.6,-25.8,83.7
Q -25.2,83.8,-24.7,83.9
Q -21.5,84.5,-16.6,80.3
Q -14.1,78.2,-14.4,73.1
Q -15.5,54.7,-13.9,54.1
Q -13.3,53.8,-13.3,61.8
Q -13.3,76.7,-12.0,75.3
Q -10.2,73.2,-9.2,70.1
Q -8.4,68.0,-7.6,67.0
Q -4.8,63.9,-2.0,51.2
Q -1.3,48.1,-0.6,48.2
Q -0.6,48.2,-0.6,48.2
Q -0.5,47.7,-0.4,47.2
Q -1.3,47.2,-1.9,46.3
Q -3.9,43.2,-7.7,43.2
Q -9.4,43.2,-11.3,41.4
Q -13.3,39.6,-14.2,39.7
Q -14.6,39.7,-15.1,39.7
 " /> 
<path  
style="fill:rgb(7,193,201)" 
d="M -8.7 63.4
Q -8.4,64.3,-7.9,63.8
Q -7.4,63.3,-7.8,58.6
Q -8.1,53.9,-8.8,53.9
Q -9.4,53.9,-9.2,58.3
Q -9.0,62.6,-8.7,63.4
 " /> 
<path  
style="fill:rgb(7,193,201)" 
d="M -15.1 39.7
Q -14.6,39.7,-14.2,39.7
Q -13.3,39.6,-11.3,41.4
Q -9.4,43.2,-7.7,43.2
Q -3.9,43.2,-1.9,46.3
Q -1.3,47.2,-0.4,47.2
Q -0.7,46.6,-1.1,45.9
Q -1.8,46.2,-2.1,45.5
Q -3.5,43.2,-7.9,42.7
Q -9.8,42.4,-11.4,40.8
Q -12.9,39.2,-14.0,39.5
Q -14.6,39.6,-15.1,39.7
 " /> 
<path  
style="fill:rgb(7,193,201)" 
d="M -15.6 39.7
Q -18.7,40.6,-20.0,41.0
Q -19.3,41.0,-18.7,41.0
Q -17.4,40.9,-15.6,39.7
 " /> 
<path  
style="fill:rgb(7,193,201)" 
d="M -20.4 41.0
Q -20.8,40.8,-21.1,40.6
Q -21.8,40.1,-22.4,39.9
Q -22.8,39.8,-23.1,39.7
Q -22.8,40.0,-22.4,40.4
Q -21.8,41.0,-21.1,41.0
Q -20.8,41.0,-20.4,41.0
 " /> 
<path  
style="fill:rgb(7,193,201)" 
d="M -23.6 39.7
Q -24.0,39.6,-24.4,39.5
Q -25.3,39.3,-26.4,39.0
Q -27.0,38.9,-27.6,38.8
Q -27.8,38.8,-28.0,39.2
Q -28.2,39.6,-27.9,39.6
Q -27.7,39.7,-23.6,39.7
 " /> 
<path  
style="fill:rgb(7,193,201)" 
d="M -16.4 12.6
Q -16.0,12.5,-16.0,10.3
Q -16.1,10.4,-16.2,10.4
Q -16.4,10.5,-16.4,11.5
Q -16.4,12.0,-16.4,12.6
 " /> 
<path  
style="fill:rgb(14,103,171)" 
d="M 5.8 -9.2
Q 6.9,-9.2,8.0,-9.2
Q 7.7,-9.3,7.4,-9.5
Q 6.7,-9.7,6.2,-9.5
Q 6.0,-9.3,5.8,-9.2
 " /> 
<path  
style="fill:rgb(4,4,4)" 
d="M 51.6 42.3
Q 51.5,42.4,51.5,42.5
Q 51.5,42.6,51.8,42.9
Q 51.9,43.1,52.0,43.2
Q 51.8,42.8,51.6,42.3
 " /> 
<path  
style="fill:rgb(7,193,201)" 
d="M 51.6 42.3
Q 51.4,42.5,51.3,42.7
Q 51.6,43.0,52.0,43.2
Q 51.9,43.1,51.8,42.9
Q 51.5,42.6,51.5,42.5
Q 51.5,42.4,51.6,42.3
 " /> 
<path  
style="fill:rgb(7,193,201)" 
d="M 51.6 42.3
Q 50.9,41.8,50.2,41.2
Q 47.3,38.8,45.3,38.8
Q 46.1,39.2,46.9,39.7
Q 48.5,40.5,50.2,41.9
Q 50.8,42.3,51.3,42.7
Q 51.4,42.5,51.6,42.3
 " /> 
<path  
style="fill:rgb(14,103,171)" 
d="M 45.3 38.8
Q 45.1,38.8,44.9,38.8
Q 43.9,39.3,42.9,39.9
Q 40.9,41.0,39.6,42.1
Q 38.4,43.1,37.0,44.0
Q 35.7,44.8,33.0,47.4
Q 30.2,49.9,26.2,53.0
Q 26.8,54.9,27.3,56.8
Q 30.6,67.9,33.8,71.9
Q 34.2,72.5,34.7,73.0
Q 34.2,64.6,34.1,62.3
Q 34.0,60.1,34.5,59.8
Q 35.5,59.4,35.5,69.9
Q 35.5,71.5,35.6,73.0
Q 35.6,73.9,35.6,74.8
Q 39.1,78.3,45.4,80.6
Q 45.3,80.2,45.2,79.8
Q 45.0,79.0,43.4,75.5
Q 41.8,71.9,39.6,63.1
Q 37.4,54.3,37.9,54.1
Q 38.8,53.5,41.1,62.6
Q 43.7,72.5,46.1,78.0
Q 48.0,82.3,53.3,79.6
Q 59.6,76.2,58.9,70.0
Q 58.8,69.0,54.8,63.0
Q 45.0,48.3,47.1,49.1
Q 48.2,49.5,55.7,61.2
Q 58.8,66.1,59.0,65.4
Q 59.4,63.5,56.0,53.9
Q 55.0,52.9,54.2,52.1
Q 51.9,49.8,51.8,49.6
Q 51.7,49.3,51.9,49.2
Q 52.2,48.9,53.6,50.1
Q 54.4,50.7,55.1,51.2
Q 53.8,47.2,52.0,43.2
Q 51.6,43.0,51.3,42.7
Q 50.8,42.3,50.2,41.9
Q 48.5,40.5,46.9,39.7
Q 46.1,39.2,45.3,38.8
 " /> 
<path  
style="fill:rgb(7,193,201)" 
d="M 52.9 74.7
Q 54.4,77.9,55.0,77.9
Q 55.9,77.9,52.4,69.9
Q 51.5,67.9,50.6,66.0
Q 49.8,64.1,49.1,64.1
Q 48.0,64.1,50.1,68.7
Q 51.5,71.5,52.9,74.7
 " /> 
<path  
style="fill:rgb(7,193,201)" 
d="M 44.9 38.8
Q 40.9,40.6,38.4,42.3
Q 35.9,44.1,33.5,46.3
Q 31.1,48.6,26.2,52.6
Q 26.2,52.8,26.2,53.0
Q 30.2,49.9,33.0,47.4
Q 35.7,44.8,37.0,44.0
Q 38.4,43.1,39.6,42.1
Q 40.9,41.0,42.9,39.9
Q 43.9,39.3,44.9,38.8
 " /> 
<path  
style="fill:rgb(4,4,4)" 
d="M 26.2 52.6
Q 25.4,52.7,24.6,52.8
Q 25.1,55.2,25.6,57.4
Q 25.5,53.2,26.2,53.0
Q 26.2,52.8,26.2,52.6
 " /> 
<path  
style="fill:rgb(4,4,4)" 
d="M 26.2 52.6
Q 26.0,51.0,25.8,49.5
Q 24.6,40.7,26.1,37.4
Q 28.0,33.4,28.6,26.0
Q 27.9,26.0,27.1,25.9
Q 26.9,27.6,26.7,29.2
Q 26.2,32.6,25.3,35.0
Q 24.4,37.5,23.1,41.0
Q 23.4,40.9,23.5,41.2
Q 23.6,41.5,23.6,44.1
Q 23.9,48.5,24.6,52.8
Q 25.4,52.7,26.2,52.6
 " /> 
<path  
style="fill:rgb(7,193,201)" 
d="M 28.9 18.3
Q 28.9,17.8,28.9,17.2
Q 28.7,16.7,28.4,16.1
Q 28.4,18.5,28.7,18.4
Q 28.8,18.4,28.9,18.3
 " /> 
<path  
style="fill:rgb(4,4,4)" 
d="M 28.9 18.3
Q 28.8,18.4,28.7,18.4
Q 28.4,18.5,28.4,16.1
Q 28.2,14.5,27.9,13.0
Q 27.4,9.8,26.6,6.7
Q 25.7,3.6,25.8,1.1
Q 25.9,-1.4,25.3,-1.4
Q 24.7,-1.4,24.4,2.2
Q 24.0,5.7,23.3,9.5
Q 22.1,17.0,22.8,17.0
Q 24.1,17.0,24.7,12.6
Q 25.1,9.1,25.7,9.8
Q 25.8,10.0,26.4,14.8
Q 26.8,17.5,27.1,20.1
Q 27.6,22.8,27.3,24.3
Q 27.2,25.1,27.1,25.9
Q 27.9,26.0,28.6,26.0
Q 28.9,22.6,28.9,18.3
 " /> 
<path  
style="fill:rgb(7,193,201)" 
d="M 28.4 16.1
Q 28.7,16.7,28.9,17.2
Q 28.9,17.2,28.9,17.2
Q 28.9,16.0,28.7,16.1
Q 28.6,16.1,28.4,16.1
 " /> 
<path  
style="fill:rgb(14,103,171)" 
d="M 27.1 20.1
Q 27.1,23.0,27.1,25.9
Q 27.2,25.1,27.3,24.3
Q 27.6,22.8,27.1,20.1
 " /> 
<path  
style="fill:rgb(7,193,201)" 
d="M 23.1 41.0
Q 23.1,44.2,23.3,44.2
Q 23.4,44.1,23.6,44.1
Q 23.6,41.5,23.5,41.2
Q 23.4,40.9,23.1,41.0
 " /> 
<path  
style="fill:rgb(14,103,171)" 
d="M 32.9 76.6
Q 32.9,78.1,32.9,79.7
Q 33.1,79.7,33.3,79.7
Q 33.3,77.1,33.3,76.8
Q 33.2,76.5,32.9,76.6
 " /> 
<path  
style="fill:rgb(7,193,201)" 
d="M 32.9 79.7
Q 32.9,81.2,32.9,82.8
Q 33.0,82.8,33.1,82.8
Q 33.3,82.7,33.3,79.7
Q 33.1,79.7,32.9,79.7
 " /> 
<path  
style="fill:rgb(7,193,201)" 
d="M -26.7 83.7
Q -26.2,83.7,-25.8,83.7
Q -25.3,71.6,-26.0,70.7
Q -27.2,69.0,-26.9,77.5
Q -26.8,80.6,-26.7,83.7
 " /> 
<path  
style="fill:rgb(7,193,201)" 
d="M 34.7 73.0
Q 35.1,73.9,35.3,74.4
Q 35.4,74.6,35.6,74.8
Q 35.6,73.9,35.6,73.0
Q 35.1,73.0,34.7,73.0
 " /> 
<path  
style="fill:rgb(7,193,201)" 
d="M 34.7 73.0
Q 35.1,73.0,35.6,73.0
Q 35.5,71.5,35.5,69.9
Q 35.5,59.4,34.5,59.8
Q 34.0,60.1,34.1,62.3
Q 34.2,64.6,34.7,73.0
 " /> 
<path  
style="fill:rgb(7,193,201)" 
d="M 55.1 51.2
Q 54.7,51.7,54.2,52.1
Q 55.0,52.9,56.0,53.9
Q 55.5,53.0,55.3,52.1
Q 55.2,51.7,55.1,51.2
 " /> 
<path  
style="fill:rgb(7,193,201)" 
d="M 55.1 51.2
Q 54.4,50.7,53.6,50.1
Q 52.2,48.9,51.9,49.2
Q 51.7,49.3,51.8,49.6
Q 51.9,49.8,54.2,52.1
Q 54.7,51.7,55.1,51.2
 " /> 
<path  
style="fill:rgb(7,193,201)" 
d="M -34.3 55.6
Q -33.8,57.0,-32.0,52.4
Q -31.0,49.8,-31.5,49.4
Q -31.9,48.9,-32.7,50.6
Q -33.4,52.3,-34.0,53.7
Q -34.6,55.0,-34.3,55.6
 " /> 
<path  
style="fill:rgb(97,247,248)" 
d="M -34.2 -1.2
Q -34.2,-0.1,-34.2,1.0
Q -33.3,3.7,-32.2,3.7
Q -29.7,3.7,-25.8,-1.9
Q -21.2,-8.6,-19.4,-12.1
Q -17.3,-16.1,-13.9,-19.8
Q -12.6,-21.1,-11.9,-20.4
Q -11.5,-20.0,-15.6,-14.3
Q -12.0,-13.0,0.4,-11.9
Q 1.8,-11.9,3.1,-11.9
Q 5.2,-12.0,7.3,-12.1
Q 16.3,-12.6,22.0,-14.1
Q 25.1,-14.9,27.9,-15.5
Q 30.1,-15.9,30.4,-16.1
Q 30.6,-16.4,28.7,-20.5
Q 27.1,-23.9,27.8,-24.2
Q 29.3,-24.7,35.1,-10.8
Q 39.3,-0.8,40.9,-4.4
Q 44.8,-13.5,37.3,-27.3
Q 35.5,-30.7,36.0,-31.1
Q 36.8,-32.0,39.9,-25.9
Q 42.0,-21.6,42.4,-21.8
Q 43.8,-22.4,45.9,-24.5
Q 47.2,-25.7,45.6,-30.0
Q 43.5,-35.9,44.5,-36.2
Q 45.2,-36.4,51.1,-20.1
Q 54.0,-12.1,55.7,-14.3
Q 56.4,-15.1,57.8,-22.1
Q 57.8,-24.8,57.8,-27.4
Q 56.4,-35.0,55.3,-37.5
Q 53.1,-42.4,53.5,-42.8
Q 55.0,-44.3,58.0,-35.9
Q 58.3,-35.1,58.6,-34.3
Q 60.0,-35.9,61.5,-37.4
Q 73.0,-49.4,75.3,-64.9
Q 75.9,-68.8,75.6,-79.9
Q 75.6,-81.0,75.6,-82.1
Q 75.3,-84.3,75.1,-86.5
Q 73.5,-102.5,70.1,-112.5
Q 67.2,-121.1,60.4,-130.1
Q 60.0,-130.4,59.6,-130.8
Q 58.7,-131.4,58.2,-132.1
Q 58.0,-132.4,57.8,-132.8
Q 56.8,-133.5,55.8,-134.3
Q 50.2,-138.6,46.1,-140.6
Q 43.8,-141.7,43.8,-142.4
Q 43.8,-143.1,44.5,-143.3
Q 45.3,-143.5,49.0,-141.6
Q 48.5,-144.3,47.1,-147.7
Q 41.7,-160.7,29.5,-163.6
Q 28.1,-164.0,26.7,-164.3
Q 25.6,-164.3,24.4,-164.3
Q 19.6,-163.0,17.2,-161.6
Q 11.7,-158.3,7.8,-151.9
Q 6.5,-149.9,5.8,-149.5
Q 5.4,-149.3,3.1,-149.2
Q 1.6,-149.2,-0.9,-149.2
Q -2.2,-149.2,-3.6,-149.2
Q -4.1,-149.3,-4.7,-149.4
Q -5.8,-149.6,-7.3,-151.8
Q -18.6,-168.3,-32.0,-167.3
Q -41.2,-166.6,-45.4,-153.4
Q -46.3,-150.8,-46.4,-149.0
Q -46.8,-145.1,-48.3,-144.6
Q -49.1,-144.4,-50.4,-143.0
Q -51.7,-141.6,-51.7,-140.7
Q -51.6,-139.8,-53.3,-138.6
Q -55.7,-137.0,-60.1,-128.8
Q -66.5,-117.1,-67.2,-100.6
Q -67.4,-97.1,-67.7,-95.4
Q -67.8,-94.5,-68.0,-93.6
Q -67.5,-91.9,-67.8,-91.2
Q -67.9,-90.9,-68.0,-90.5
Q -67.6,-90.2,-67.5,-89.7
Q -67.5,-89.2,-67.6,-86.1
Q -67.4,-86.1,-67.3,-86.2
Q -67.1,-86.2,-67.1,-85.0
Q -67.1,-85.0,-67.1,-85.0
Q -67.1,-84.5,-67.1,-83.9
Q -66.2,-76.3,-64.6,-70.7
Q -57.0,-43.4,-44.6,-30.0
Q -43.5,-31.6,-42.4,-33.2
Q -39.4,-37.5,-38.8,-36.1
Q -38.6,-35.5,-41.0,-32.2
Q -43.4,-28.9,-44.9,-26.8
Q -46.3,-24.6,-48.5,-21.7
Q -56.9,-10.7,-54.9,-3.5
Q -53.0,3.6,-39.8,-21.4
Q -33.7,-32.9,-32.3,-31.4
Q -31.9,-31.0,-32.5,-30.2
Q -36.0,-26.0,-34.9,-24.8
Q -34.6,-24.3,-30.2,-21.7
Q -29.9,-22.5,-29.5,-23.3
Q -28.8,-25.0,-28.1,-26.7
Q -27.4,-28.3,-26.9,-28.1
Q -25.9,-27.7,-27.6,-23.4
Q -28.5,-21.0,-28.6,-20.3
Q -28.8,-19.6,-29.9,-17.2
Q -33.2,-9.9,-34.2,-1.2
 " /> 
<path  
style="fill:rgb(4,4,4)" 
d="M 18.7 -24.1
Q 20.9,-22.4,21.5,-23.4
Q 21.8,-23.8,20.3,-25.0
Q 14.6,-29.8,2.2,-27.0
Q -3.4,-25.8,-2.4,-24.7
Q -1.9,-24.3,2.0,-25.2
Q 13.5,-27.9,18.7,-24.1
 " /> 
<path  
style="fill:rgb(4,4,4)" 
d="M -1.1 -45.6
Q -0.4,-44.5,1.7,-48.6
Q 2.7,-50.5,4.4,-53.0
Q 6.2,-55.6,5.8,-56.1
Q 4.9,-56.9,2.1,-52.5
Q -1.7,-46.6,-1.1,-45.6
 " /> 
<path  
style="fill:rgb(4,4,4)" 
d="M 12.9 -49.7
Q 15.2,-45.2,15.7,-45.4
Q 16.6,-45.8,14.8,-49.4
Q 11.8,-55.3,10.7,-55.8
Q 9.6,-56.2,12.9,-49.7
 " /> 
<path  
style="fill:rgb(4,4,4)" 
d="M 38.2 -121.6
Q 36.8,-119.9,35.6,-119.0
Q 31.6,-113.6,28.7,-107.9
Q 23.9,-98.3,19.5,-85.0
Q 17.7,-79.2,16.9,-77.4
Q 16.1,-75.6,15.8,-74.1
Q 15.6,-72.5,14.6,-69.7
Q 13.4,-66.1,14.8,-66.7
Q 15.4,-66.9,17.0,-72.2
Q 22.3,-61.3,26.5,-58.0
Q 28.6,-56.4,33.8,-54.5
Q 34.1,-54.7,34.4,-54.8
Q 35.1,-55.0,36.0,-54.5
Q 45.1,-54.5,54.6,-63.6
Q 60.2,-69.0,62.6,-75.9
Q 63.9,-79.5,65.3,-87.4
Q 65.2,-88.1,65.1,-88.8
Q 64.9,-90.1,65.3,-92.3
Q 63.3,-103.3,59.6,-110.3
Q 53.4,-122.3,47.1,-123.6
Q 46.4,-123.7,45.8,-123.9
Q 44.7,-123.9,43.6,-123.9
Q 41.4,-124.0,39.8,-122.8
Q 39.0,-122.2,38.2,-121.6
 " /> 
<path  
style="fill:rgb(31,181,0)" 
d="M 38.7 -57.6
Q 36.2,-57.6,33.8,-57.6
Q 34.4,-57.5,35.1,-57.4
Q 36.4,-57.2,37.5,-57.4
Q 38.1,-57.5,38.7,-57.6
 " /> 
<path  
style="fill:rgb(115,250,3)" 
d="M 38.7 -57.6
Q 44.5,-59.2,52.0,-64.8
Q 53.4,-66.5,54.7,-67.4
Q 57.8,-71.9,59.3,-75.1
Q 66.2,-89.5,58.8,-106.3
Q 54.0,-117.1,48.1,-120.6
Q 38.5,-126.3,27.0,-99.2
Q 17.9,-77.9,19.5,-73.8
Q 24.3,-61.2,31.5,-58.5
Q 32.6,-58.1,33.8,-57.6
Q 36.2,-57.6,38.7,-57.6
 " /> 
<path  
style="fill:rgb(115,250,3)" 
d="M 42.2 -87.4
Q 43.0,-87.5,43.6,-87.6
Q 43.6,-88.2,43.6,-88.8
Q 43.3,-88.6,43.0,-88.4
Q 42.5,-88.1,42.4,-87.7
Q 42.3,-87.6,42.2,-87.4
 " /> 
<path  
style="fill:rgb(31,181,0)" 
d="M 42.2 -87.4
Q 40.7,-85.6,39.1,-83.9
Q 38.6,-83.3,38.1,-82.7
Q 35.5,-79.9,33.5,-78.5
Q 32.3,-77.6,31.1,-77.2
Q 30.0,-76.8,26.7,-76.8
Q 26.2,-76.1,25.7,-75.4
Q 22.4,-70.4,26.7,-68.1
Q 28.2,-67.3,29.6,-66.5
Q 34.0,-63.9,39.3,-63.9
Q 50.4,-63.9,57.2,-78.4
Q 63.4,-91.3,59.5,-100.2
Q 56.9,-106.3,53.8,-103.9
Q 55.6,-100.3,56.1,-97.1
Q 58.1,-84.3,53.3,-82.1
Q 52.3,-80.1,50.3,-83.3
Q 48.0,-86.8,46.1,-87.5
Q 45.4,-87.7,43.6,-87.6
Q 43.0,-87.5,42.2,-87.4
 " /> 
<path  
style="fill:rgb(4,4,4)" 
d="M 42.2 -87.4
Q 42.3,-87.6,42.4,-87.7
Q 42.5,-88.1,43.0,-88.4
Q 43.3,-88.6,43.6,-88.8
Q 44.0,-89.1,44.4,-89.4
Q 45.3,-90.1,46.2,-89.9
Q 46.7,-89.8,47.1,-89.6
Q 49.3,-87.4,50.2,-85.9
Q 51.1,-84.3,53.3,-82.1
Q 58.1,-84.3,56.1,-97.1
Q 55.6,-100.3,53.8,-103.9
Q 53.0,-103.6,52.3,-103.4
Q 52.7,-102.2,53.1,-101.0
Q 54.3,-97.7,54.7,-91.4
Q 54.8,-91.1,54.9,-90.8
Q 55.2,-90.1,54.9,-89.4
Q 54.8,-89.1,54.7,-88.8
Q 54.6,-87.9,54.4,-87.0
Q 54.1,-84.0,52.9,-85.6
Q 52.1,-86.7,50.7,-89.2
Q 50.3,-89.4,50.0,-89.7
Q 49.4,-90.1,48.4,-91.4
Q 46.2,-92.5,45.6,-92.2
Q 45.2,-92.0,44.9,-91.9
Q 44.6,-91.7,44.4,-91.4
Q 43.8,-91.0,42.7,-90.5
Q 42.0,-90.0,41.3,-89.4
Q 40.0,-88.3,36.9,-83.9
Q 37.5,-83.3,38.1,-82.7
Q 38.6,-83.3,39.1,-83.9
Q 40.7,-85.6,42.2,-87.4
 " /> 
<path  
style="fill:rgb(4,4,4)" 
d="M 26.7 -76.8
Q 30.0,-76.8,31.1,-77.2
Q 32.3,-77.6,33.8,-78.7
Q 33.3,-79.3,32.9,-79.9
Q 31.8,-79.4,30.7,-79.0
Q 28.4,-78.1,26.5,-78.7
Q 23.4,-79.6,23.7,-78.5
Q 24.0,-77.5,26.7,-76.8
 " /> 
<path  
style="fill:rgb(115,250,3)" 
d="M 53.3 -82.1
Q 51.1,-84.3,50.2,-85.9
Q 49.3,-87.4,47.1,-89.6
Q 45.2,-89.8,44.4,-89.3
Q 44.0,-89.0,43.6,-88.8
Q 43.6,-88.2,43.6,-87.6
Q 45.4,-87.7,46.1,-87.5
Q 48.0,-86.8,50.3,-83.3
Q 52.3,-80.1,53.3,-82.1
 " /> 
<path  
style="fill:rgb(4,4,4)" 
d="M 53.8 -103.9
Q 53.6,-104.4,53.4,-104.9
Q 52.7,-104.6,52.0,-104.3
Q 52.2,-103.8,52.3,-103.4
Q 53.0,-103.6,53.8,-103.9
 " /> 
<path  
style="fill:rgb(31,181,0)" 
d="M 32.9 -79.9
Q 33.4,-80.3,34.0,-80.8
Q 35.1,-81.7,36.0,-82.8
Q 36.4,-83.3,36.9,-83.9
Q 36.3,-83.4,35.8,-83.0
Q 34.7,-82.1,33.8,-81.0
Q 33.3,-80.4,32.9,-79.9
 " /> 
<path  
style="fill:rgb(4,4,4)" 
d="M 32.9 -79.9
Q 33.3,-79.3,33.8,-78.7
Q 35.9,-80.3,38.5,-83.2
Q 37.5,-83.3,36.9,-83.9
Q 36.4,-83.3,36.0,-82.8
Q 35.1,-81.7,34.0,-80.8
Q 33.4,-80.3,32.9,-79.9
 " /> 
<path  
style="fill:rgb(115,250,3)" 
d="M 42.7 -90.5
Q 42.8,-90.7,42.9,-90.9
Q 43.2,-91.3,44.0,-91.6
Q 44.5,-91.7,44.9,-91.9
Q 44.5,-92.4,44.1,-93.0
Q 42.8,-92.1,41.2,-90.8
Q 42.3,-91.0,42.7,-90.5
 " /> 
<path  
style="fill:rgb(31,181,0)" 
d="M 42.7 -90.5
Q 43.8,-91.0,44.4,-91.4
Q 44.6,-91.7,44.9,-91.9
Q 44.5,-91.7,44.0,-91.6
Q 43.2,-91.3,42.9,-90.9
Q 42.8,-90.7,42.7,-90.5
 " /> 
<path  
style="fill:rgb(31,181,0)" 
d="M 48.4 -91.4
Q 49.4,-90.1,50.0,-89.7
Q 50.3,-89.4,50.7,-89.2
Q 50.4,-89.5,50.2,-89.9
Q 49.8,-90.5,48.4,-91.4
 " /> 
<path  
style="fill:rgb(31,181,0)" 
d="M 54.7 -88.8
Q 54.8,-89.1,54.9,-89.4
Q 55.2,-90.1,54.9,-90.8
Q 54.8,-91.1,54.7,-91.4
Q 54.7,-90.1,54.7,-88.8
 " /> 
<path  
style="fill:rgb(31,181,0)" 
d="M 52.0 -104.3
Q 51.9,-104.8,51.8,-105.2
Q 51.6,-106.1,51.1,-106.3
Q 50.9,-106.4,50.7,-106.5
Q 51.2,-105.2,52.0,-104.3
 " /> 
<path  
style="fill:rgb(4,4,4)" 
d="M 52.0 -104.3
Q 52.7,-104.6,53.4,-104.9
Q 53.3,-104.9,53.3,-105.0
Q 51.3,-110.1,49.9,-110.1
Q 49.2,-110.1,49.6,-109.0
Q 50.0,-108.0,50.7,-106.5
Q 50.9,-106.4,51.1,-106.3
Q 51.6,-106.1,51.8,-105.2
Q 51.9,-104.8,52.0,-104.3
 " /> 
<path  
style="fill:rgb(31,181,0)" 
d="M 47.1 -89.6
Q 46.7,-89.8,46.2,-89.9
Q 45.3,-90.1,44.4,-89.4
Q 44.0,-89.1,43.6,-88.8
Q 44.0,-89.0,44.4,-89.3
Q 45.2,-89.8,47.1,-89.6
 " /> 
<path  
style="fill:rgb(209,251,185)" 
d="M 28.4 -83.9
Q 30.9,-81.4,38.9,-88.7
Q 40.5,-90.2,42.0,-91.4
Q 43.5,-92.6,44.8,-93.4
Q 45.0,-93.5,45.7,-94.0
Q 48.6,-95.5,49.4,-96.4
Q 51.4,-98.5,49.1,-103.8
Q 46.4,-110.2,44.0,-111.4
Q 42.7,-112.1,42.8,-112.7
Q 42.9,-113.3,42.4,-113.5
Q 41.9,-113.7,41.6,-112.8
Q 41.3,-112.0,40.3,-111.5
Q 38.5,-110.7,35.8,-105.9
Q 34.6,-103.7,34.4,-102.3
Q 34.3,-101.0,32.7,-98.2
Q 25.8,-86.5,28.4,-83.9
 " /> 
<path  
style="fill:rgb(31,181,0)" 
d="M 52.0 -64.8
Q 53.8,-66.1,54.7,-67.4
Q 53.4,-66.5,52.0,-64.8
 " /> 
<path  
style="fill:rgb(14,103,171)" 
d="M 38.2 -121.6
Q 37.8,-121.3,37.3,-121.0
Q 36.5,-120.3,36.0,-119.6
Q 35.8,-119.3,35.6,-119.0
Q 36.8,-119.9,38.2,-121.6
 " /> 
<path  
style="fill:rgb(7,193,201)" 
d="M 43.6 -123.9
Q 44.7,-123.9,45.8,-123.9
Q 45.4,-124.0,45.1,-124.1
Q 44.5,-124.4,43.6,-123.9
 " /> 
<path  
style="fill:rgb(14,103,171)" 
d="M 65.3 -92.3
Q 64.9,-90.1,65.1,-88.8
Q 65.2,-88.1,65.3,-87.4
Q 65.3,-89.9,65.3,-92.3
 " /> 
<path  
style="fill:rgb(14,103,171)" 
d="M 36.0 -54.5
Q 35.1,-55.0,34.4,-54.8
Q 34.1,-54.7,33.8,-54.5
Q 34.9,-54.5,36.0,-54.5
 " /> 
<path  
style="fill:rgb(4,4,4)" 
d="M -51.1 -102.5
Q -50.6,-101.2,-50.9,-100.5
Q -51.0,-100.2,-51.1,-99.9
Q -50.9,-97.6,-50.7,-95.4
Q -48.6,-75.3,-34.7,-63.6
Q -21.8,-52.7,-11.1,-59.8
Q -10.0,-60.5,-8.9,-61.2
Q -8.0,-62.5,-7.3,-62.9
Q -7.0,-63.2,-6.7,-63.4
Q -4.0,-66.5,-2.7,-69.1
Q -2.1,-70.3,-1.5,-71.6
Q -1.2,-70.0,-0.9,-68.5
Q 0.0,-63.3,1.2,-64.5
Q 1.7,-65.0,-0.4,-75.7
Q -10.2,-124.3,-28.9,-129.4
Q -30.3,-129.7,-31.6,-130.1
Q -33.3,-130.1,-35.1,-130.1
Q -35.9,-130.0,-36.7,-129.9
Q -38.2,-129.7,-41.3,-127.4
Q -41.5,-127.2,-41.6,-126.9
Q -42.0,-126.4,-43.6,-125.2
Q -46.2,-122.1,-47.8,-118.9
Q -50.3,-113.6,-50.9,-105.9
Q -51.0,-104.2,-51.1,-102.5
 " /> 
<path  
style="fill:rgb(115,250,3)" 
d="M -38.7 -70.5
Q -35.6,-67.8,-34.5,-66.5
Q -33.9,-65.9,-33.3,-65.2
Q -24.7,-59.7,-20.2,-59.7
Q -12.4,-59.7,-7.4,-66.6
Q -6.6,-67.7,-5.8,-68.8
Q -4.9,-70.5,-4.4,-71.2
Q -4.2,-71.5,-4.0,-71.9
Q -3.0,-75.5,-3.0,-77.0
Q -3.1,-79.3,-5.6,-89.4
Q -9.0,-103.1,-15.4,-114.2
Q -17.4,-117.6,-21.3,-122.1
Q -21.7,-122.3,-22.0,-122.5
Q -22.6,-123.0,-23.1,-123.7
Q -23.3,-124.0,-23.6,-124.3
Q -24.4,-124.9,-25.3,-125.4
Q -27.1,-126.6,-29.1,-127.2
Q -30.1,-127.5,-31.1,-127.9
Q -33.3,-127.9,-35.6,-127.9
Q -37.9,-127.2,-38.9,-126.5
Q -44.0,-122.8,-47.3,-114.6
Q -48.3,-112.2,-48.4,-110.3
Q -48.4,-109.3,-48.4,-108.3
Q -48.4,-104.1,-48.7,-104.0
Q -48.8,-103.9,-48.9,-103.9
Q -48.9,-101.0,-48.9,-98.1
Q -48.8,-98.1,-48.6,-98.2
Q -48.4,-98.2,-48.4,-96.8
Q -48.4,-96.8,-48.4,-96.8
Q -48.4,-96.1,-48.4,-95.4
Q -48.2,-94.0,-48.0,-92.5
Q -46.6,-83.5,-38.7,-70.5
 " /> 
<path  
style="fill:rgb(255,255,255)" 
d="M -25.3 -86.5
Q -25.8,-87.1,-26.3,-87.6
Q -26.7,-87.2,-27.1,-86.5
Q -27.3,-86.1,-27.6,-85.6
Q -26.4,-86.1,-25.3,-86.5
 " /> 
<path  
style="fill:rgb(255,255,255)" 
d="M -25.3 -86.5
Q -23.8,-86.5,-22.2,-86.5
Q -22.6,-87.7,-23.7,-88.0
Q -25.3,-88.5,-26.3,-87.6
Q -25.8,-87.1,-25.3,-86.5
 " /> 
<path  
style="fill:rgb(31,181,0)" 
d="M -25.3 -86.5
Q -28.4,-84.3,-30.0,-82.5
Q -31.7,-80.8,-32.6,-80.8
Q -38.0,-80.8,-40.8,-95.3
Q -41.5,-98.7,-41.7,-104.3
Q -41.8,-106.2,-41.8,-108.3
Q -41.9,-108.0,-42.0,-107.6
Q -42.2,-107.0,-42.8,-107.2
Q -43.4,-107.5,-44.2,-105.8
Q -46.1,-101.9,-42.9,-89.5
Q -36.8,-65.0,-22.4,-65.1
Q -16.8,-65.1,-13.6,-67.5
Q -6.4,-72.9,-7.4,-76.3
Q -7.7,-77.6,-7.6,-78.5
Q -8.2,-78.4,-8.9,-78.3
Q -9.0,-78.3,-9.2,-78.3
Q -12.1,-78.0,-16.8,-82.3
Q -19.5,-84.8,-22.2,-86.5
Q -23.8,-86.5,-25.3,-86.5
 " /> 
<path  
style="fill:rgb(4,4,4)" 
d="M -25.3 -86.5
Q -26.4,-86.1,-27.6,-85.6
Q -27.3,-86.1,-27.1,-86.5
Q -26.7,-87.2,-26.3,-87.6
Q -25.3,-88.5,-23.7,-88.0
Q -22.6,-87.7,-22.2,-86.5
Q -19.5,-84.8,-16.8,-82.3
Q -12.1,-78.0,-9.2,-78.3
Q -9.3,-79.1,-9.3,-79.9
Q -14.7,-82.5,-17.6,-85.7
Q -22.2,-90.5,-24.4,-90.5
Q -26.9,-90.5,-29.6,-86.4
Q -36.4,-76.0,-39.5,-100.4
Q -39.7,-102.3,-40.0,-104.3
Q -40.8,-104.3,-41.7,-104.3
Q -41.5,-98.7,-40.8,-95.3
Q -38.0,-80.8,-32.6,-80.8
Q -31.7,-80.8,-30.0,-82.5
Q -28.4,-84.3,-25.3,-86.5
 " /> 
<path  
style="fill:rgb(4,4,4)" 
d="M -41.8 -108.3
Q -41.0,-108.2,-40.1,-108.0
Q -40.1,-108.4,-40.0,-108.8
Q -39.9,-109.8,-39.8,-110.8
Q -39.6,-112.8,-38.3,-115.2
Q -37.8,-116.0,-37.3,-116.9
Q -38.0,-117.3,-38.7,-117.6
Q -41.4,-112.3,-41.6,-110.3
Q -41.7,-109.3,-41.8,-108.3
 " /> 
<path  
style="fill:rgb(4,4,4)" 
d="M -41.8 -108.3
Q -41.8,-106.2,-41.7,-104.3
Q -40.8,-104.3,-40.0,-104.3
Q -40.1,-104.9,-40.2,-105.4
Q -40.4,-106.3,-40.1,-108.0
Q -41.0,-108.2,-41.8,-108.3
 " /> 
<path  
style="fill:rgb(4,4,4)" 
d="M -7.6 -78.5
Q -7.3,-78.8,-7.1,-79.0
Q -7.4,-79.1,-7.8,-79.3
Q -8.4,-79.5,-8.9,-79.7
Q -9.1,-79.8,-9.3,-79.9
Q -9.3,-79.1,-9.2,-78.3
Q -9.0,-78.3,-8.9,-78.3
Q -8.2,-78.4,-7.6,-78.5
 " /> 
<path  
style="fill:rgb(4,4,4)" 
d="M -38.7 -117.6
Q -38.0,-117.3,-37.3,-116.9
Q -37.1,-117.3,-36.9,-117.6
Q -37.0,-117.9,-37.1,-118.1
Q -37.4,-118.6,-38.0,-118.1
Q -38.3,-117.9,-38.7,-117.6
 " /> 
<path  
style="fill:rgb(31,181,0)" 
d="M -40.0 -108.8
Q -40.1,-108.4,-40.1,-108.0
Q -40.4,-106.3,-40.2,-105.4
Q -40.1,-104.9,-40.0,-104.3
Q -40.0,-106.5,-40.0,-108.8
 " /> 
<path  
style="fill:rgb(31,181,0)" 
d="M -9.3 -79.9
Q -9.1,-79.8,-8.9,-79.7
Q -8.4,-79.5,-7.8,-79.3
Q -7.4,-79.1,-7.1,-79.0
Q -7.5,-80.0,-8.4,-79.9
Q -8.9,-79.9,-9.3,-79.9
 " /> 
<path  
style="fill:rgb(209,251,185)" 
d="M -12.0 -86.7
Q -9.4,-85.3,-9.9,-86.9
Q -10.1,-87.7,-12.2,-92.3
Q -25.0,-120.7,-31.9,-107.2
Q -33.6,-103.8,-32.6,-100.3
Q -31.1,-95.3,-25.9,-93.8
Q -20.2,-92.3,-16.1,-89.4
Q -13.2,-87.3,-12.0,-86.7
 " /> 
<path  
style="fill:rgb(31,181,0)" 
d="M -38.7 -70.5
Q -38.0,-69.8,-37.3,-69.0
Q -36.0,-67.4,-34.7,-66.3
Q -34.0,-65.8,-33.3,-65.2
Q -33.9,-65.9,-34.5,-66.5
Q -35.6,-67.8,-38.7,-70.5
 " /> 
<path  
style="fill:rgb(31,181,0)" 
d="M -48.4 -95.4
Q -48.4,-96.1,-48.4,-96.8
Q -48.6,-97.5,-48.9,-98.1
Q -48.9,-95.8,-48.8,-95.5
Q -48.8,-95.3,-48.4,-95.4
 " /> 
<path  
style="fill:rgb(31,181,0)" 
d="M -48.9 -98.1
Q -48.6,-97.5,-48.4,-96.8
Q -48.4,-96.8,-48.4,-96.8
Q -48.4,-98.2,-48.6,-98.2
Q -48.8,-98.1,-48.9,-98.1
 " /> 
<path  
style="fill:rgb(31,181,0)" 
d="M -48.9 -103.9
Q -48.8,-103.9,-48.7,-104.0
Q -48.4,-104.1,-48.4,-108.3
Q -48.5,-108.3,-48.6,-108.2
Q -48.8,-108.2,-48.9,-106.0
Q -48.9,-104.9,-48.9,-103.9
 " /> 
<path  
style="fill:rgb(31,181,0)" 
d="M -35.6 -127.9
Q -33.3,-127.9,-31.1,-127.9
Q -31.7,-128.0,-32.2,-128.1
Q -33.3,-128.3,-34.4,-128.1
Q -35.0,-128.0,-35.6,-127.9
 " /> 
<path  
style="fill:rgb(31,181,0)" 
d="M -23.6 -124.3
Q -23.3,-124.0,-23.1,-123.7
Q -22.6,-123.0,-22.0,-122.5
Q -21.7,-122.3,-21.3,-122.1
Q -21.6,-122.4,-21.8,-122.7
Q -22.2,-123.4,-22.9,-123.9
Q -23.2,-124.1,-23.6,-124.3
 " /> 
<path  
style="fill:rgb(31,181,0)" 
d="M -4.0 -71.9
Q -4.2,-71.5,-4.4,-71.2
Q -4.9,-70.5,-5.8,-68.8
Q -5.4,-69.1,-5.1,-69.4
Q -4.4,-70.1,-4.2,-71.0
Q -4.1,-71.4,-4.0,-71.9
 " /> 
<path  
style="fill:rgb(14,103,171)" 
d="M -51.1 -102.5
Q -51.1,-101.2,-51.1,-99.9
Q -51.0,-100.2,-50.9,-100.5
Q -50.6,-101.2,-51.1,-102.5
 " /> 
<path  
style="fill:rgb(14,103,171)" 
d="M -43.6 -125.2
Q -42.0,-126.4,-41.6,-126.9
Q -41.5,-127.2,-41.3,-127.4
Q -41.6,-127.2,-42.0,-127.0
Q -42.6,-126.5,-43.1,-125.8
Q -43.3,-125.5,-43.6,-125.2
 " /> 
<path  
style="fill:rgb(7,193,201)" 
d="M -35.1 -130.1
Q -33.3,-130.1,-31.6,-130.1
Q -32.0,-130.2,-32.4,-130.3
Q -33.3,-130.6,-34.2,-130.3
Q -34.7,-130.2,-35.1,-130.1
 " /> 
<path  
style="fill:rgb(14,103,171)" 
d="M -6.7 -63.4
Q -7.0,-63.2,-7.3,-62.9
Q -8.0,-62.5,-8.9,-61.2
Q -8.6,-61.4,-8.2,-61.7
Q -7.6,-62.1,-6.7,-63.4
 " /> 
<path  
style="fill:rgb(7,193,201)" 
d="M -34.2 -1.2
Q -34.7,0.1,-34.5,0.6
Q -34.3,0.8,-34.2,1.0
Q -34.2,-0.1,-34.2,-1.2
 " /> 
<path  
style="fill:rgb(7,193,201)" 
d="M -67.1 -83.9
Q -67.1,-84.5,-67.1,-85.0
Q -67.3,-85.6,-67.6,-86.1
Q -67.6,-84.2,-67.5,-84.0
Q -67.4,-83.7,-67.1,-83.9
 " /> 
<path  
style="fill:rgb(7,193,201)" 
d="M -67.6 -86.1
Q -67.3,-85.6,-67.1,-85.0
Q -67.1,-85.0,-67.1,-85.0
Q -67.1,-86.2,-67.3,-86.2
Q -67.4,-86.1,-67.6,-86.1
 " /> 
<path  
style="fill:rgb(7,193,201)" 
d="M -68.0 -90.5
Q -67.9,-90.9,-67.8,-91.2
Q -67.5,-91.9,-68.0,-93.6
Q -68.0,-92.1,-68.0,-90.5
 " /> 
<path  
style="fill:rgb(14,103,171)" 
d="M -3.6 -149.2
Q -2.2,-149.2,-0.9,-149.2
Q -1.2,-149.3,-1.5,-149.4
Q -2.2,-149.7,-3.6,-149.2
 " /> 
<path  
style="fill:rgb(4,4,4)" 
d="M -0.9 -149.2
Q 1.6,-149.2,3.1,-149.2
Q 3.1,-149.9,3.1,-150.5
Q 0.1,-150.5,-0.4,-150.6
Q -0.7,-149.9,-0.9,-149.2
 " /> 
<path  
style="fill:rgb(14,103,171)" 
d="M 24.4 -164.3
Q 25.6,-164.3,26.7,-164.3
Q 25.3,-164.8,24.9,-164.6
Q 24.7,-164.4,24.4,-164.3
 " /> 
<path  
style="fill:rgb(14,103,171)" 
d="M 57.8 -132.8
Q 58.0,-132.4,58.2,-132.1
Q 58.7,-131.4,59.6,-130.8
Q 60.0,-130.4,60.4,-130.1
Q 60.1,-130.5,59.8,-131.0
Q 59.1,-131.8,57.8,-132.8
 " /> 
<path  
style="fill:rgb(14,103,171)" 
d="M 75.6 -82.1
Q 75.6,-81.0,75.6,-79.9
Q 76.0,-81.2,75.6,-82.1
 " /> 
<path  
style="fill:rgb(14,103,171)" 
d="M 57.8 -27.4
Q 57.8,-24.8,57.8,-22.1
Q 57.9,-22.8,58.0,-23.4
Q 58.2,-24.8,58.0,-26.1
Q 57.9,-26.8,57.8,-27.4
 " /> 
<path  
style="fill:rgb(14,103,171)" 
d="M 3.1 -11.9
Q 1.8,-11.9,0.4,-11.9
Q 0.8,-11.7,1.1,-11.6
Q 1.8,-11.4,3.1,-11.9
 " /> 
<path  
style="fill:rgb(4,4,4)" 
d="M 74.2 -52.3
Q 75.8,-52.9,77.3,-53.4
Q 83.3,-55.6,89.0,-59.2
Q 93.6,-62.3,93.3,-61.3
Q 92.4,-59.0,82.9,-54.4
Q 77.1,-51.6,74.2,-51.9
Q 73.9,-51.2,73.6,-50.5
Q 70.8,-45.0,68.7,-42.2
Q 67.0,-39.9,66.9,-39.6
Q 66.1,-37.9,79.6,-42.4
Q 86.9,-44.9,98.2,-52.8
Q 100.0,-55.0,101.8,-56.3
Q 102.0,-56.3,102.2,-56.8
Q 103.1,-58.1,104.4,-59.0
Q 107.6,-63.4,108.6,-65.5
Q 112.6,-73.3,105.6,-67.8
Q 103.1,-65.8,100.9,-64.8
Q 100.1,-64.4,99.5,-64.6
Q 98.9,-64.6,98.8,-64.9
Q 98.7,-65.0,98.7,-65.2
Q 98.7,-68.9,101.5,-73.9
Q 103.0,-76.6,104.3,-79.0
Q 105.7,-81.4,107.0,-83.2
Q 116.5,-96.1,120.2,-109.5
Q 121.3,-113.7,121.3,-115.4
Q 121.3,-116.3,121.3,-117.2
Q 121.2,-117.4,121.1,-117.6
Q 120.9,-118.1,120.4,-119.4
Q 120.1,-119.2,119.8,-119.1
Q 119.2,-118.7,118.9,-118.6
Q 118.8,-118.6,118.7,-118.5
Q 118.3,-118.1,118.0,-117.7
Q 117.3,-116.8,116.6,-116.3
Q 116.3,-116.1,116.0,-115.9
Q 110.7,-108.3,109.2,-106.7
Q 107.7,-105.1,106.9,-105.9
Q 106.1,-106.7,109.5,-116.8
Q 114.5,-131.7,115.6,-139.0
Q 116.0,-142.1,116.0,-151.0
Q 115.9,-150.9,115.8,-150.9
Q 115.6,-150.9,115.6,-151.1
Q 115.5,-151.4,115.6,-153.6
Q 114.2,-157.6,113.6,-158.4
Q 110.8,-161.5,104.1,-142.8
Q 100.4,-132.4,98.1,-133.0
Q 96.3,-133.5,92.9,-144.3
Q 87.4,-161.9,81.6,-164.1
Q 80.7,-164.5,79.1,-160.8
Q 79.1,-150.6,79.1,-150.2
Q 79.0,-149.8,78.7,-149.6
Q 78.7,-145.5,76.7,-143.9
Q 75.9,-143.3,74.4,-143.9
Q 72.9,-144.5,71.1,-145.6
Q 70.6,-146.1,70.0,-146.5
Q 68.9,-147.4,68.2,-148.1
Q 67.9,-148.4,67.6,-148.8
Q 68.0,-147.6,68.4,-146.5
Q 70.2,-142.1,68.7,-140.1
Q 67.2,-138.0,62.9,-141.9
Q 61.6,-143.1,59.9,-144.4
Q 59.1,-145.0,58.3,-145.7
Q 59.7,-141.6,59.2,-140.5
Q 58.6,-139.2,56.1,-138.5
Q 55.5,-138.3,57.3,-136.3
Q 57.7,-136.1,58.0,-135.9
Q 58.6,-135.4,59.1,-134.7
Q 59.3,-134.4,59.6,-134.1
Q 60.0,-133.8,60.4,-133.4
Q 61.3,-132.7,61.8,-132.1
Q 62.0,-131.8,62.2,-131.4
Q 62.5,-131.2,62.8,-130.9
Q 63.4,-131.6,63.9,-132.2
Q 63.6,-132.5,63.9,-134.5
Q 64.3,-136.4,64.8,-136.6
Q 65.4,-136.9,65.1,-134.7
Q 64.6,-131.0,63.9,-132.2
Q 63.4,-131.6,62.8,-130.9
Q 63.8,-130.2,64.4,-129.2
Q 70.7,-120.2,74.2,-107.2
Q 74.7,-105.5,75.1,-103.9
Q 80.4,-109.9,82.1,-114.5
Q 85.8,-124.3,85.1,-137.9
Q 84.8,-143.4,85.2,-143.4
Q 85.7,-143.4,86.0,-139.5
Q 88.1,-113.8,75.1,-103.4
Q 75.6,-100.6,76.0,-97.9
Q 76.9,-92.3,77.1,-89.2
Q 77.2,-87.6,77.3,-86.1
Q 79.8,-88.4,82.2,-90.8
Q 99.4,-107.2,106.5,-127.8
Q 108.2,-132.6,108.4,-131.1
Q 108.6,-129.7,106.4,-124.4
Q 100.7,-110.7,88.5,-95.7
Q 82.1,-87.8,78.7,-85.9
Q 78.0,-85.6,77.3,-85.2
Q 77.7,-84.9,77.8,-84.4
Q 77.8,-83.8,77.8,-79.9
Q 77.9,-79.9,78.0,-79.9
Q 78.3,-80.0,78.2,-77.7
Q 78.2,-76.6,78.2,-75.4
Q 78.2,-73.0,78.1,-70.7
Q 78.2,-70.7,78.2,-70.7
Q 78.2,-71.3,80.3,-72.1
Q 89.5,-75.5,101.2,-91.6
Q 103.2,-94.3,103.6,-94.5
Q 105.2,-95.0,96.4,-83.5
Q 89.2,-74.0,80.6,-71.0
Q 78.2,-70.1,78.2,-70.7
Q 78.2,-70.7,78.1,-70.7
Q 77.6,-59.4,74.2,-52.3
 " /> 
<path  
style="fill:rgb(97,247,248)" 
d="M 71.3 -123.3
Q 71.0,-122.5,71.7,-122.5
Q 73.3,-122.5,73.3,-132.0
Q 73.3,-133.6,72.7,-133.6
Q 72.1,-133.6,72.4,-131.2
Q 72.7,-126.9,71.3,-123.3
 " /> 
<path  
style="fill:rgb(97,247,248)" 
d="M 74.2 -52.3
Q 74.2,-52.1,74.2,-51.9
Q 77.1,-51.6,82.9,-54.4
Q 92.4,-59.0,93.3,-61.3
Q 93.6,-62.3,89.0,-59.2
Q 83.3,-55.6,77.3,-53.4
Q 75.8,-52.9,74.2,-52.3
 " /> 
<path  
style="fill:rgb(14,103,171)" 
d="M 78.2 -75.4
Q 78.2,-76.6,78.2,-77.7
Q 78.3,-80.0,78.0,-79.9
Q 77.9,-79.9,77.8,-79.9
Q 77.8,-78.7,77.8,-77.6
Q 77.8,-75.3,78.0,-75.4
Q 78.1,-75.4,78.2,-75.4
 " /> 
<path  
style="fill:rgb(97,247,248)" 
d="M 77.3 -85.2
Q 78.0,-85.6,78.7,-85.9
Q 82.1,-87.8,88.5,-95.7
Q 100.7,-110.7,106.4,-124.4
Q 108.6,-129.7,108.4,-131.1
Q 108.2,-132.6,106.5,-127.8
Q 99.4,-107.2,82.2,-90.8
Q 79.8,-88.4,77.3,-86.1
Q 77.3,-85.6,77.3,-85.2
 " /> 
<path  
style="fill:rgb(14,103,171)" 
d="M 64.4 -129.2
Q 63.8,-130.2,62.8,-130.9
Q 62.5,-131.2,62.2,-131.4
Q 62.4,-131.1,62.7,-130.8
Q 63.1,-130.1,64.4,-129.2
 " /> 
<path  
style="fill:rgb(14,103,171)" 
d="M 59.6 -134.1
Q 59.3,-134.4,59.1,-134.7
Q 58.6,-135.4,58.0,-135.9
Q 57.7,-136.1,57.3,-136.3
Q 57.6,-136.0,57.8,-135.7
Q 58.2,-135.0,59.6,-134.1
 " /> 
<path  
style="fill:rgb(14,103,171)" 
d="M 67.6 -148.8
Q 67.9,-148.4,68.2,-148.1
Q 68.9,-147.4,70.0,-146.5
Q 70.6,-146.1,71.1,-145.6
Q 69.2,-147.5,67.3,-149.3
Q 67.4,-149.0,67.6,-148.8
 " /> 
<path  
style="fill:rgb(14,103,171)" 
d="M 78.7 -149.6
Q 79.0,-149.8,79.1,-150.2
Q 79.1,-150.6,79.1,-160.8
Q 78.8,-160.7,78.8,-160.3
Q 78.7,-159.9,78.7,-149.6
 " /> 
<path  
style="fill:rgb(14,103,171)" 
d="M 115.6 -153.6
Q 115.5,-151.4,115.6,-151.1
Q 115.6,-150.9,115.8,-150.9
Q 115.9,-150.9,116.0,-151.0
Q 116.0,-153.3,115.9,-153.5
Q 115.9,-153.8,115.6,-153.6
 " /> 
<path  
style="fill:rgb(14,103,171)" 
d="M 116.0 -115.9
Q 116.3,-116.1,116.6,-116.3
Q 117.3,-116.8,118.0,-117.7
Q 118.3,-118.1,118.7,-118.5
Q 118.2,-118.2,117.8,-117.9
Q 116.9,-117.2,116.5,-116.5
Q 116.2,-116.2,116.0,-115.9
 " /> 
<path  
style="fill:rgb(14,103,171)" 
d="M 120.4 -119.4
Q 120.9,-118.1,121.1,-117.6
Q 121.2,-117.4,121.3,-117.2
Q 121.4,-117.7,121.4,-118.1
Q 121.4,-119.0,120.9,-119.2
Q 120.7,-119.3,120.4,-119.4
 " /> 
<path  
style="fill:rgb(14,103,171)" 
d="M 104.4 -59.0
Q 103.1,-58.1,102.2,-56.8
Q 102.5,-57.0,102.9,-57.2
Q 103.5,-57.7,104.0,-58.3
Q 104.2,-58.7,104.4,-59.0
 " /> 
<path  
style="fill:rgb(14,103,171)" 
d="M 101.8 -56.3
Q 100.0,-55.0,98.2,-52.8
Q 98.8,-53.2,99.3,-53.7
Q 100.4,-54.6,101.1,-55.4
Q 101.4,-55.9,101.8,-56.3
 " /> 
<path  
style="fill:rgb(97,247,248)" 
d="M 78.2 -70.7
Q 78.2,-70.1,80.6,-71.0
Q 89.2,-74.0,96.4,-83.5
Q 105.2,-95.0,103.6,-94.5
Q 103.2,-94.3,101.2,-91.6
Q 89.5,-75.5,80.3,-72.1
Q 78.2,-71.3,78.2,-70.7
 " /> 
<path  
style="fill:rgb(97,247,248)" 
d="M 63.9 -132.2
Q 64.6,-131.0,65.1,-134.7
Q 65.4,-136.9,64.8,-136.6
Q 64.3,-136.4,63.9,-134.5
Q 63.6,-132.5,63.9,-132.2
 " /> 
<path  
style="fill:rgb(7,193,201)" 
d="M -0.4 -151.0
Q 2.7,-151.0,3.0,-151.0
Q 3.2,-150.9,3.2,-150.8
Q 3.1,-150.7,3.1,-150.5
Q 4.9,-151.0,6.0,-152.8
Q 7.1,-154.5,8.4,-156.1
Q 9.1,-156.9,9.8,-157.6
Q 10.2,-158.2,10.7,-158.7
Q 11.6,-159.8,12.7,-160.7
Q 13.2,-161.2,13.8,-161.6
Q 15.4,-162.8,16.0,-163.0
Q 16.3,-163.3,16.6,-163.7
Q 17.2,-164.4,18.7,-165.6
Q 23.9,-176.1,25.8,-188.1
Q 26.0,-189.5,26.2,-191.0
Q 25.6,-191.4,24.9,-191.9
Q 24.7,-191.6,24.4,-191.2
Q 22.1,-187.9,17.9,-176.6
Q 16.1,-171.7,15.2,-173.0
Q 15.0,-173.3,16.9,-178.9
Q 19.9,-187.9,14.0,-189.0
Q 12.7,-189.2,12.2,-188.9
Q 11.7,-188.5,11.0,-185.6
Q 8.8,-176.7,8.0,-176.4
Q 6.4,-175.9,8.1,-182.2
Q 9.3,-187.2,8.8,-188.2
Q 8.3,-189.3,9.3,-190.1
Q 10.3,-190.8,10.9,-195.8
Q 11.2,-198.3,11.6,-200.8
Q 11.6,-202.8,12.0,-203.0
Q 11.8,-204.3,11.6,-205.6
Q 11.2,-205.1,10.9,-204.6
Q 9.6,-202.4,7.6,-190.5
Q 6.7,-185.6,5.9,-185.6
Q 4.9,-185.6,6.0,-192.3
Q 7.0,-198.4,3.1,-203.9
Q 2.8,-204.1,2.5,-204.3
Q 1.8,-204.8,1.3,-205.4
Q 1.1,-205.8,0.9,-206.1
Q 0.7,-206.0,0.6,-206.0
Q 0.2,-205.9,0.6,-202.6
Q 0.7,-201.0,0.9,-199.4
Q 1.3,-199.5,1.3,-199.3
Q 1.4,-199.0,1.3,-196.3
Q 1.3,-195.0,1.3,-193.6
Q 1.5,-193.7,1.6,-193.7
Q 1.7,-193.8,1.8,-193.5
Q 1.8,-193.3,1.8,-189.6
Q 1.9,-188.4,2.0,-187.2
Q 2.4,-182.5,0.9,-184.1
Q 0.6,-184.5,0.1,-189.5
Q -0.0,-191.1,-0.2,-193.2
Q -0.2,-193.4,-0.2,-193.5
Q -1.2,-204.8,-3.4,-214.1
Q -6.1,-225.5,-7.6,-223.3
Q -8.9,-221.5,-8.9,-216.8
Q -8.9,-215.4,-8.9,-214.1
Q -8.8,-214.1,-8.6,-214.2
Q -8.4,-214.3,-8.4,-210.5
Q -8.4,-209.3,-8.4,-208.1
Q -8.4,-205.6,-8.2,-204.1
Q -8.1,-203.3,-8.0,-202.5
Q -7.9,-202.6,-7.7,-202.6
Q -7.5,-202.7,-7.5,-201.5
Q -7.5,-201.5,-7.5,-201.5
Q -7.5,-200.9,-7.6,-200.3
Q -7.4,-200.0,-7.3,-199.6
Q -7.1,-199.0,-7.1,-197.4
Q -7.1,-196.6,-7.1,-195.9
Q -7.0,-195.9,-6.9,-195.9
Q -6.6,-196.0,-6.7,-193.6
Q -6.7,-193.0,-6.7,-192.3
Q -6.5,-192.4,-6.4,-192.4
Q -6.1,-192.5,-6.2,-191.1
Q -6.2,-191.1,-6.2,-191.1
Q -6.2,-190.4,-6.2,-189.6
Q -6.2,-188.0,-6.5,-187.1
Q -6.7,-186.4,-7.1,-186.2
Q -7.9,-185.9,-7.6,-187.4
Q -7.7,-187.4,-7.8,-187.3
Q -8.1,-187.3,-8.0,-188.5
Q -8.0,-188.5,-8.0,-188.5
Q -8.0,-189.0,-8.0,-189.6
Q -8.2,-191.1,-8.4,-192.5
Q -8.9,-195.4,-9.1,-198.1
Q -9.2,-199.4,-9.3,-200.8
Q -9.8,-200.6,-9.8,-201.8
Q -9.8,-201.8,-9.8,-201.8
Q -9.8,-202.4,-9.8,-203.0
Q -10.2,-204.8,-10.4,-204.8
Q -10.7,-204.8,-11.6,-203.6
Q -14.0,-200.9,-11.1,-192.5
Q -8.6,-185.2,-9.9,-185.2
Q -10.5,-185.2,-11.3,-187.5
Q -12.1,-189.8,-12.5,-190.7
Q -12.9,-191.6,-13.3,-192.8
Q -13.7,-193.9,-14.2,-195.2
Q -14.7,-196.5,-17.9,-204.5
Q -18.4,-202.6,-15.4,-191.0
Q -13.4,-183.2,-12.7,-180.8
Q -10.5,-173.5,-11.5,-173.5
Q -12.3,-173.5,-14.0,-178.9
Q -16.1,-185.9,-16.5,-187.5
Q -17.7,-192.7,-18.9,-192.1
Q -19.4,-191.7,-20.0,-191.4
Q -20.2,-191.1,-20.5,-190.8
Q -20.9,-190.1,-21.6,-189.7
Q -21.9,-189.4,-22.2,-189.2
Q -22.1,-188.5,-22.0,-187.9
Q -21.7,-185.9,-15.9,-177.2
Q -11.2,-170.3,-11.7,-169.8
Q -12.7,-168.8,-20.7,-181.0
Q -23.2,-184.9,-23.8,-186.1
Q -24.4,-187.2,-28.2,-193.1
Q -32.3,-199.4,-32.4,-198.7
Q -32.8,-196.3,-31.7,-191.0
Q -27.5,-169.9,-22.1,-167.9
Q -17.0,-165.9,-14.2,-163.3
Q -13.3,-162.4,-12.4,-161.6
Q -11.1,-160.7,-10.2,-159.4
Q -9.4,-158.4,-8.7,-157.4
Q -7.1,-155.4,-5.8,-153.2
Q -4.4,-151.0,-2.4,-151.0
Q -1.4,-151.0,-0.4,-151.0
 " /> 
<path  
style="fill:rgb(14,103,171)" 
d="M -0.4 -151.0
Q -0.5,-150.8,-0.5,-150.7
Q -0.5,-150.7,-0.4,-150.6
Q 0.1,-150.5,3.1,-150.5
Q 3.1,-150.7,3.2,-150.8
Q 3.2,-150.9,3.0,-151.0
Q 2.7,-151.0,-0.4,-151.0
 " /> 
<path  
style="fill:rgb(14,103,171)" 
d="M -10.2 -159.4
Q -11.1,-160.7,-12.4,-161.6
Q -12.2,-161.3,-12.0,-161.0
Q -11.5,-160.3,-10.2,-159.4
 " /> 
<path  
style="fill:rgb(14,103,171)" 
d="M -22.2 -189.2
Q -21.9,-189.4,-21.6,-189.7
Q -20.9,-190.1,-20.5,-190.8
Q -20.2,-191.1,-20.0,-191.4
Q -20.2,-191.3,-20.5,-191.1
Q -21.0,-190.8,-22.2,-189.2
 " /> 
<path  
style="fill:rgb(4,4,4)" 
d="M -20.0 -191.4
Q -19.4,-191.7,-18.9,-192.1
Q -17.7,-192.7,-16.5,-187.5
Q -16.1,-185.9,-14.0,-178.9
Q -12.3,-173.5,-11.5,-173.5
Q -10.5,-173.5,-12.7,-180.8
Q -13.4,-183.2,-15.4,-191.0
Q -18.4,-202.6,-17.9,-204.5
Q -14.7,-196.5,-14.2,-195.2
Q -13.7,-193.9,-13.3,-192.8
Q -12.9,-191.6,-12.5,-190.7
Q -12.1,-189.8,-11.3,-187.5
Q -10.5,-185.2,-9.9,-185.2
Q -8.6,-185.2,-11.1,-192.5
Q -14.0,-200.9,-11.6,-203.6
Q -10.7,-204.8,-10.4,-204.8
Q -10.2,-204.8,-9.8,-203.0
Q -9.4,-203.2,-9.3,-202.4
Q -8.7,-202.5,-8.0,-202.5
Q -8.1,-203.3,-8.2,-204.1
Q -8.4,-205.6,-8.4,-208.1
Q -8.4,-209.3,-8.4,-210.5
Q -8.8,-210.4,-8.8,-210.6
Q -8.9,-210.8,-8.9,-214.1
Q -8.9,-215.4,-8.9,-216.8
Q -8.9,-221.5,-7.6,-223.3
Q -6.1,-225.5,-3.4,-214.1
Q -1.2,-204.8,-0.2,-193.5
Q 0.5,-193.6,1.3,-193.6
Q 1.3,-195.0,1.3,-196.3
Q 1.0,-196.1,0.9,-196.4
Q 0.9,-196.6,0.9,-199.4
Q 0.7,-201.0,0.6,-202.6
Q 0.2,-205.9,0.6,-206.0
Q 0.7,-206.0,0.9,-206.1
Q 1.4,-206.7,1.9,-207.3
Q -0.2,-209.0,-0.6,-210.7
Q -3.5,-226.7,-7.7,-226.0
Q -10.8,-225.4,-10.6,-214.5
Q -10.5,-207.6,-12.1,-206.1
Q -13.7,-204.7,-14.0,-203.4
Q -14.7,-200.4,-15.3,-203.3
Q -15.9,-205.9,-18.2,-207.1
Q -21.7,-208.9,-19.6,-199.8
Q -18.3,-194.1,-19.9,-193.4
Q -20.4,-193.2,-20.9,-192.8
Q -20.5,-192.1,-20.0,-191.4
 " /> 
<path  
style="fill:rgb(14,103,171)" 
d="M -9.8 -203.0
Q -9.8,-202.4,-9.8,-201.8
Q -9.6,-201.3,-9.3,-200.8
Q -9.3,-201.4,-9.3,-202.0
Q -9.3,-202.2,-9.3,-202.4
Q -9.4,-203.2,-9.8,-203.0
 " /> 
<path  
style="fill:rgb(4,4,4)" 
d="M -9.3 -200.8
Q -8.6,-200.8,-7.9,-200.9
Q -8.0,-201.4,-8.0,-202.5
Q -8.7,-202.5,-9.3,-202.4
Q -9.3,-202.2,-9.3,-202.0
Q -9.3,-201.4,-9.3,-200.8
 " /> 
<path  
style="fill:rgb(4,4,4)" 
d="M -9.3 -200.8
Q -9.2,-199.4,-9.1,-198.1
Q -8.9,-195.4,-8.4,-192.5
Q -8.2,-191.1,-8.0,-189.6
Q -7.9,-189.7,-7.8,-189.7
Q -7.2,-189.7,-6.6,-189.8
Q -6.7,-190.2,-6.7,-192.3
Q -6.7,-193.0,-6.7,-193.6
Q -7.1,-193.4,-7.1,-194.6
Q -7.1,-195.3,-7.1,-195.9
Q -7.1,-196.6,-7.1,-197.4
Q -7.1,-199.0,-7.3,-199.6
Q -7.4,-200.0,-7.6,-200.3
Q -7.7,-200.3,-7.8,-200.2
Q -7.9,-200.1,-7.9,-200.9
Q -8.6,-200.8,-9.3,-200.8
 " /> 
<path  
style="fill:rgb(14,103,171)" 
d="M -9.3 -200.8
Q -9.6,-201.3,-9.8,-201.8
Q -9.8,-201.8,-9.8,-201.8
Q -9.8,-200.6,-9.3,-200.8
 " /> 
<path  
style="fill:rgb(14,103,171)" 
d="M -8.0 -189.6
Q -8.0,-189.0,-8.0,-188.5
Q -7.8,-187.9,-7.6,-187.4
Q -7.6,-188.0,-7.6,-188.6
Q -7.6,-189.1,-7.6,-189.3
Q -7.7,-189.7,-7.9,-189.7
Q -7.9,-189.7,-8.0,-189.6
 " /> 
<path  
style="fill:rgb(4,4,4)" 
d="M -7.6 -187.4
Q -7.0,-187.3,-6.5,-187.1
Q -6.2,-188.0,-6.2,-189.6
Q -6.4,-189.6,-6.5,-189.6
Q -7.1,-189.5,-7.6,-189.3
Q -7.6,-189.1,-7.6,-188.6
Q -7.6,-188.0,-7.6,-187.4
 " /> 
<path  
style="fill:rgb(4,4,4)" 
d="M -7.6 -187.4
Q -7.9,-185.9,-7.1,-186.2
Q -6.7,-186.4,-6.5,-187.1
Q -7.0,-187.3,-7.6,-187.4
 " /> 
<path  
style="fill:rgb(14,103,171)" 
d="M -7.6 -187.4
Q -7.8,-187.9,-8.0,-188.5
Q -8.0,-188.5,-8.0,-188.5
Q -8.1,-187.3,-7.8,-187.3
Q -7.7,-187.4,-7.6,-187.4
 " /> 
<path  
style="fill:rgb(14,103,171)" 
d="M -6.2 -189.6
Q -6.2,-190.4,-6.2,-191.1
Q -6.4,-191.7,-6.7,-192.3
Q -6.7,-190.2,-6.6,-189.8
Q -6.6,-189.7,-6.6,-189.7
Q -6.6,-189.6,-6.5,-189.6
Q -6.4,-189.6,-6.2,-189.6
 " /> 
<path  
style="fill:rgb(14,103,171)" 
d="M -6.7 -192.3
Q -6.4,-191.7,-6.2,-191.1
Q -6.2,-191.1,-6.2,-191.1
Q -6.1,-192.5,-6.4,-192.4
Q -6.5,-192.4,-6.7,-192.3
 " /> 
<path  
style="fill:rgb(14,103,171)" 
d="M -6.7 -193.6
Q -6.6,-196.0,-6.9,-195.9
Q -7.0,-195.9,-7.1,-195.9
Q -7.1,-195.3,-7.1,-194.6
Q -7.1,-193.4,-6.7,-193.6
 " /> 
<path  
style="fill:rgb(14,103,171)" 
d="M -7.6 -200.3
Q -7.5,-200.9,-7.5,-201.5
Q -7.8,-202.0,-8.0,-202.5
Q -8.0,-201.4,-7.9,-200.9
Q -7.9,-200.1,-7.8,-200.2
Q -7.7,-200.3,-7.6,-200.3
 " /> 
<path  
style="fill:rgb(14,103,171)" 
d="M -8.0 -202.5
Q -7.8,-202.0,-7.5,-201.5
Q -7.5,-201.5,-7.5,-201.5
Q -7.5,-202.7,-7.7,-202.6
Q -7.9,-202.6,-8.0,-202.5
 " /> 
<path  
style="fill:rgb(14,103,171)" 
d="M -8.4 -210.5
Q -8.4,-214.3,-8.6,-214.2
Q -8.8,-214.1,-8.9,-214.1
Q -8.9,-210.8,-8.8,-210.6
Q -8.8,-210.4,-8.4,-210.5
 " /> 
<path  
style="fill:rgb(14,103,171)" 
d="M 1.8 -189.6
Q 1.8,-193.3,1.8,-193.5
Q 1.7,-193.8,1.6,-193.7
Q 1.5,-193.7,1.3,-193.6
Q 1.3,-189.9,1.4,-189.7
Q 1.4,-189.6,1.4,-189.6
Q 1.6,-189.6,1.8,-189.6
 " /> 
<path  
style="fill:rgb(4,4,4)" 
d="M 1.8 -189.6
Q 1.5,-189.5,1.4,-189.6
Q 0.8,-189.5,0.1,-189.5
Q 0.6,-184.5,0.9,-184.1
Q 2.4,-182.5,2.0,-187.2
Q 1.9,-188.4,1.8,-189.6
 " /> 
<path  
style="fill:rgb(4,4,4)" 
d="M 1.3 -193.6
Q 0.5,-193.6,-0.2,-193.5
Q -0.2,-193.4,-0.2,-193.2
Q -0.0,-191.1,0.1,-189.5
Q 0.8,-189.5,1.4,-189.6
Q 1.4,-189.6,1.4,-189.7
Q 1.3,-189.9,1.3,-193.6
 " /> 
<path  
style="fill:rgb(14,103,171)" 
d="M 1.3 -196.3
Q 1.4,-199.0,1.3,-199.3
Q 1.3,-199.5,0.9,-199.4
Q 0.9,-196.6,0.9,-196.4
Q 1.0,-196.1,1.3,-196.3
 " /> 
<path  
style="fill:rgb(14,103,171)" 
d="M 0.9 -206.1
Q 1.1,-205.8,1.3,-205.4
Q 1.8,-204.8,2.5,-204.3
Q 2.8,-204.1,3.1,-203.9
Q 2.9,-204.2,2.6,-204.5
Q 2.2,-205.2,0.9,-206.1
 " /> 
<path  
style="fill:rgb(14,103,171)" 
d="M 12.0 -203.0
Q 11.6,-202.8,11.6,-200.8
Q 11.6,-200.8,11.7,-200.8
Q 11.9,-200.9,12.0,-203.0
 " /> 
<path  
style="fill:rgb(14,103,171)" 
d="M 26.2 -193.6
Q 26.2,-192.3,26.2,-191.0
Q 26.3,-191.3,26.5,-191.6
Q 26.7,-192.3,26.5,-193.0
Q 26.3,-193.3,26.2,-193.6
 " /> 
<path  
style="fill:rgb(7,193,201)" 
d="M 26.2 -193.6
Q 25.6,-192.8,24.9,-191.9
Q 25.6,-191.4,26.2,-191.0
Q 26.2,-192.3,26.2,-193.6
 " /> 
<path  
style="fill:rgb(14,103,171)" 
d="M 18.7 -165.6
Q 17.2,-164.4,16.6,-163.7
Q 16.3,-163.3,16.0,-163.0
Q 17.8,-164.3,18.2,-165.0
Q 18.4,-165.3,18.7,-165.6
 " /> 
<path  
style="fill:rgb(14,103,171)" 
d="M 13.8 -161.6
Q 13.2,-161.2,12.7,-160.7
Q 11.6,-159.8,10.7,-158.7
Q 10.2,-158.2,9.8,-157.6
Q 10.3,-158.1,10.9,-158.5
Q 12.0,-159.4,13.8,-161.6
 " /> 
<path  
style="fill:rgb(4,4,4)" 
d="M -6.6 -189.8
Q -7.2,-189.7,-7.8,-189.7
Q -7.6,-189.6,-7.6,-189.2
Q -7.1,-189.5,-6.5,-189.6
Q -6.6,-189.6,-6.6,-189.7
Q -6.6,-189.7,-6.6,-189.8
 " /> 
</g> 
</svg> 
