<?xml version="1.0"?>
<!DOCTYPE svg PUBLIC "-//W3C//DTD SVG 1.1//EN" "http://www.w3.org/Graphics/SVG/1.1/DTD/svg11.dtd">
<svg xmlns="http://www.w3.org/2000/svg" version="1.1">
<g transform="translate(113.9,219.5)" stroke-width="0" fill="none" >
<path  
style="fill:rgb(4,4,4)" 
d="M -28.4 221.0
Q -27.1,222.6,-20.7,220.2
Q -16.6,218.7,-9.7,216.2
Q 25.9,203.6,43.8,185.9
Q 62.1,167.8,50.8,142.1
Q 48.5,137.0,43.8,127.3
Q 36.3,111.9,34.2,101.9
Q 33.4,97.9,32.5,94.6
Q 31.6,91.2,31.0,86.0
Q 31.0,86.0,31.0,86.0
Q 30.2,85.8,29.3,85.7
Q 29.3,90.6,29.8,92.4
Q 29.9,92.4,30.0,92.3
Q 30.2,92.3,30.2,94.1
Q 30.4,95.4,30.6,96.6
Q 32.7,110.9,42.3,130.5
Q 50.4,146.9,51.8,153.7
Q 53.8,163.8,49.0,174.1
Q 42.5,188.2,14.1,203.6
Q 14.2,203.4,14.3,203.2
Q 14.5,202.7,16.3,200.7
Q 27.0,188.5,26.6,155.4
Q 26.4,144.4,25.9,143.9
Q 25.4,143.3,25.1,144.0
Q 24.9,144.6,24.7,158.6
Q 24.5,172.6,23.8,176.8
Q 19.8,200.8,4.7,207.9
Q -1.4,210.8,-13.6,215.0
Q -18.9,216.9,-22.3,218.2
Q -25.8,219.6,-26.0,219.4
Q -26.2,219.2,-24.9,216.3
Q -22.0,209.8,-22.1,201.8
Q -22.2,196.6,-20.7,194.4
Q -16.2,187.6,-13.4,174.1
Q -9.1,153.3,-3.1,141.1
Q -0.7,136.4,-1.9,136.4
Q -3.3,136.4,-8.1,149.1
Q -11.6,158.1,-16.0,177.1
Q -18.5,188.2,-21.9,193.3
Q -22.8,194.7,-23.7,190.4
Q -24.5,186.6,-26.0,181.3
Q -27.6,175.9,-29.8,167.5
Q -29.8,167.0,-29.8,166.6
Q -30.2,165.0,-30.6,163.5
Q -31.5,160.4,-32.4,153.8
Q -37.3,122.0,-20.4,102.6
Q -17.0,98.6,-14.2,91.7
Q -13.7,90.4,-13.2,89.1
Q -13.0,88.8,-12.9,88.4
Q -11.6,83.9,-10.4,81.8
Q -9.2,79.7,-8.0,77.0
Q -6.8,74.3,-5.4,71.5
Q -1.5,63.0,0.5,54.0
Q -0.0,53.9,-0.5,53.8
Q -0.3,54.3,0.1,55.2
Q -0.2,55.1,-0.6,54.9
Q -1.3,54.6,-2.0,57.2
Q -5.0,67.7,-7.9,72.1
Q -9.4,74.3,-10.7,77.0
Q -13.2,82.4,-14.0,81.7
Q -14.3,81.3,-14.2,65.7
Q -14.1,61.1,-14.7,61.1
Q -17.0,61.2,-15.8,80.0
Q -15.3,87.0,-22.2,89.6
Q -23.6,90.1,-27.6,90.1
Q -27.8,90.1,-28.0,90.1
Q -32.3,87.4,-33.7,85.4
Q -38.9,77.8,-35.6,71.0
Q -33.8,67.0,-26.2,58.9
Q -23.9,56.4,-24.2,55.6
Q -24.6,54.5,-32.4,63.3
Q -34.8,66.1,-37.8,71.3
Q -37.7,69.3,-37.6,67.3
Q -37.4,63.9,-36.7,61.0
Q -36.0,57.9,-34.6,55.4
Q -33.3,52.8,-28.0,45.7
Q -27.8,45.3,-27.6,45.3
Q -23.6,40.4,-21.8,36.9
Q -16.6,26.5,-15.8,15.5
Q -15.3,8.4,-10.7,-2.9
Q -3.6,-2.7,11.1,-2.7
Q 12.0,-3.3,12.7,-3.0
Q 13.0,-2.9,13.3,-2.7
Q 15.9,-3.3,18.4,-3.8
Q 22.6,-4.7,23.4,-4.5
Q 26.7,-3.5,32.7,11.7
Q 35.5,19.0,43.2,32.8
Q 48.3,41.8,51.1,51.0
Q 51.6,51.0,51.6,52.4
Q 51.9,53.6,52.2,54.8
Q 52.9,57.3,53.3,62.1
Q 53.3,63.7,53.3,65.3
Q 53.6,71.8,52.5,78.4
Q 52.4,78.0,52.3,77.7
Q 52.1,77.0,50.9,72.2
Q 47.4,57.7,45.9,57.7
Q 45.1,57.7,46.9,63.7
Q 51.8,80.6,51.0,82.9
Q 50.5,84.4,48.9,85.9
Q 47.4,87.3,45.9,88.1
Q 43.1,89.6,40.3,88.8
Q 37.5,88.1,36.7,66.7
Q 36.4,61.3,36.2,61.3
Q 36.0,61.3,35.8,67.6
Q 35.5,77.1,37.3,84.4
Q 38.3,88.1,37.5,87.8
Q 34.5,86.6,32.4,83.9
Q 31.8,83.0,31.1,82.1
Q 31.1,81.9,31.1,81.7
Q 31.2,81.2,30.7,80.8
Q 30.5,80.6,30.2,80.4
Q 27.5,74.2,26.9,70.6
Q 26.2,67.0,25.8,63.5
Q 25.6,61.7,25.3,59.9
Q 24.5,60.0,23.7,60.0
Q 23.7,60.5,23.8,61.0
Q 24.7,74.2,28.0,80.8
Q 28.4,81.7,28.9,82.6
Q 29.2,82.5,29.3,82.8
Q 29.3,83.1,29.3,85.7
Q 30.2,85.8,31.0,86.0
Q 31.8,86.7,32.7,87.5
Q 39.9,93.7,47.0,90.3
Q 58.0,84.9,54.9,57.8
Q 53.5,45.4,43.6,28.6
Q 38.6,20.2,34.4,10.1
Q 30.1,-0.4,27.8,-3.0
Q 25.8,-5.3,26.1,-5.6
Q 26.4,-5.8,28.0,-5.8
Q 30.0,-5.8,31.1,-0.5
Q 33.2,9.1,37.4,6.8
Q 41.3,4.8,41.5,-6.2
Q 41.6,-12.1,45.6,-14.6
Q 46.1,-14.9,46.7,-11.8
Q 48.6,-1.1,52.6,-2.7
Q 54.7,-3.5,56.6,-8.7
Q 58.7,-14.1,58.7,-20.1
Q 58.7,-21.8,59.1,-22.8
Q 61.1,-27.6,70.0,-30.1
Q 75.7,-31.6,79.6,-33.1
Q 100.7,-41.2,108.9,-49.4
Q 116.5,-57.0,112.0,-58.4
Q 109.4,-59.2,103.9,-56.5
Q 101.3,-55.1,100.9,-55.3
Q 99.8,-55.6,107.3,-63.6
Q 116.8,-73.7,122.8,-86.9
Q 131.4,-105.9,126.1,-110.0
Q 123.1,-112.2,116.0,-102.2
Q 114.5,-100.1,114.4,-100.2
Q 114.0,-100.6,119.3,-114.3
Q 122.6,-122.7,123.5,-129.2
Q 124.0,-132.3,124.4,-135.0
Q 126.1,-146.1,121.2,-149.9
Q 116.9,-153.4,108.8,-135.6
Q 104.5,-126.3,104.2,-126.3
Q 103.6,-126.3,99.9,-140.7
Q 96.9,-152.8,92.3,-157.0
Q 85.1,-163.7,83.3,-144.5
Q 82.7,-137.9,80.7,-138.5
Q 79.4,-138.8,75.2,-143.9
Q 72.6,-147.1,71.4,-144.7
Q 71.0,-144.0,72.2,-136.9
Q 72.8,-133.3,66.0,-139.8
Q 63.8,-141.8,62.6,-141.8
Q 60.0,-141.8,61.2,-138.0
Q 62.1,-135.0,61.0,-134.5
Q 55.0,-131.5,52.9,-137.1
Q 46.7,-153.8,33.7,-157.8
Q 30.5,-158.8,21.5,-158.9
Q 21.7,-159.5,22.0,-160.0
Q 22.6,-161.2,23.7,-163.9
Q 33.5,-187.4,27.8,-187.4
Q 25.4,-187.3,22.1,-181.2
Q 20.7,-178.6,20.3,-179.4
Q 18.7,-182.4,15.6,-182.9
Q 14.3,-183.2,14.0,-183.5
Q 13.7,-184.0,14.9,-188.2
Q 18.1,-199.7,15.3,-200.8
Q 12.2,-202.0,9.7,-192.0
Q 9.1,-193.3,8.6,-194.5
Q 8.0,-196.2,7.2,-197.4
Q 6.5,-197.0,5.8,-196.5
Q 6.2,-195.5,6.7,-194.5
Q 7.6,-192.5,7.8,-191.2
Q 7.9,-190.5,8.0,-189.8
Q 8.1,-189.5,8.2,-189.2
Q 8.5,-188.5,8.0,-186.7
Q 6.9,-181.7,6.7,-180.1
Q 6.5,-178.6,7.1,-178.6
Q 7.7,-178.5,8.5,-181.6
Q 12.6,-196.3,14.3,-198.0
Q 13.0,-184.1,10.9,-182.7
Q 10.6,-182.5,10.2,-182.3
Q 9.8,-181.0,10.4,-181.0
Q 11.1,-181.0,10.7,-180.1
Q 8.2,-172.4,8.0,-170.8
Q 7.8,-169.3,8.4,-169.2
Q 9.2,-169.2,12.0,-178.0
Q 13.9,-183.8,17.6,-179.8
Q 20.0,-177.1,18.2,-173.1
Q 15.1,-166.2,15.6,-165.1
Q 16.3,-163.8,19.7,-172.0
Q 20.8,-174.5,22.4,-177.5
Q 24.0,-180.5,27.1,-185.0
Q 28.0,-185.4,28.1,-185.3
Q 28.1,-185.1,27.9,-183.9
Q 27.9,-183.9,27.9,-183.9
Q 27.7,-183.1,27.6,-182.3
Q 27.0,-180.2,26.4,-178.1
Q 21.6,-159.6,15.6,-155.4
Q 14.4,-154.6,13.3,-153.8
Q 11.5,-151.6,10.4,-150.7
Q 9.9,-150.3,9.3,-149.8
Q 8.8,-149.2,8.2,-148.5
Q 7.1,-147.2,6.2,-145.6
Q 5.8,-144.8,5.3,-144.1
Q 6.0,-143.6,6.6,-143.2
Q 7.6,-144.6,10.2,-148.1
Q 10.7,-148.6,11.1,-149.2
Q 12.0,-150.3,13.1,-151.2
Q 13.7,-151.6,14.2,-152.1
Q 21.5,-156.5,25.6,-156.8
Q 37.2,-157.7,45.6,-146.6
Q 50.0,-140.8,51.0,-136.7
Q 51.2,-135.7,49.4,-136.5
Q 47.0,-137.5,45.9,-136.9
Q 44.4,-136.1,47.6,-134.8
Q 67.6,-126.7,73.5,-106.7
Q 76.0,-98.2,77.3,-86.3
Q 77.5,-86.1,77.6,-85.8
Q 77.8,-85.4,77.3,-84.1
Q 77.8,-82.7,77.8,-80.5
Q 77.8,-79.4,77.8,-78.3
Q 77.9,-77.8,78.0,-77.4
Q 78.2,-76.5,77.8,-74.3
Q 77.7,-72.1,77.5,-69.8
Q 76.5,-50.2,63.6,-32.1
Q 62.4,-30.5,61.3,-29.0
Q 61.0,-28.5,60.7,-28.1
Q 60.0,-27.2,59.1,-26.5
Q 58.7,-26.2,58.2,-25.8
Q 57.8,-26.8,57.3,-27.7
Q 56.4,-29.5,55.3,-32.1
Q 54.2,-34.7,53.5,-34.7
Q 52.4,-34.7,54.4,-30.1
Q 58.4,-20.5,54.3,-8.9
Q 50.9,1.0,48.4,-13.4
Q 47.9,-16.3,47.6,-17.6
Q 47.2,-19.0,46.4,-21.6
Q 44.5,-28.6,43.8,-28.3
Q 42.8,-27.9,44.6,-21.4
Q 45.8,-17.6,44.3,-16.3
Q 41.4,-13.6,40.7,-13.8
Q 40.3,-13.9,39.6,-15.9
Q 36.6,-23.6,35.3,-23.6
Q 34.4,-23.6,36.6,-18.5
Q 38.5,-14.3,39.6,-6.7
Q 40.0,-5.8,39.6,-4.5
Q 39.0,0.1,38.0,2.5
Q 37.3,4.1,36.9,4.4
Q 35.3,6.3,33.1,-1.6
Q 31.6,-7.1,30.9,-8.7
Q 30.3,-10.1,29.8,-11.8
Q 27.7,-18.6,26.6,-16.9
Q 26.3,-16.4,26.9,-15.0
Q 28.1,-12.2,28.7,-9.6
Q 29.0,-8.6,27.0,-8.4
Q 25.1,-8.1,21.7,-7.2
Q 18.2,-6.3,12.4,-5.4
Q 11.5,-4.9,10.9,-5.1
Q 10.5,-5.3,10.2,-5.4
Q 8.3,-4.9,6.4,-4.9
Q 5.4,-4.9,4.4,-5.0
Q 2.2,-4.5,1.1,-4.7
Q 0.6,-4.8,0.0,-5.0
Q -2.6,-5.2,-5.1,-5.4
Q -10.2,-5.8,-13.5,-6.6
Q -15.1,-6.9,-16.8,-7.3
Q -12.7,-12.8,-12.7,-13.2
Q -12.9,-15.1,-16.8,-10.7
Q -19.7,-7.5,-20.6,-6.0
Q -21.5,-4.5,-26.5,0.6
Q -40.8,15.2,-38.0,2.2
Q -36.9,-3.1,-31.7,-10.6
Q -29.7,-13.4,-29.6,-14.2
Q -29.4,-15.0,-28.3,-17.5
Q -26.4,-21.8,-27.5,-21.8
Q -28.3,-21.8,-29.3,-19.5
Q -30.5,-16.3,-31.1,-16.3
Q -32.9,-16.4,-36.0,-18.6
Q -36.6,-19.1,-34.6,-21.9
Q -32.2,-25.4,-33.1,-25.4
Q -33.7,-25.4,-34.9,-23.8
Q -36.1,-22.1,-37.4,-20.7
Q -38.7,-19.2,-39.7,-17.5
Q -43.0,-11.9,-46.2,-8.3
Q -47.9,-6.5,-49.2,-4.9
Q -54.8,1.7,-56.9,1.7
Q -58.2,1.7,-58.4,0.7
Q -59.6,-4.0,-51.6,-14.7
Q -52.2,-15.3,-52.8,-15.8
Q -61.8,-5.5,-60.7,0.6
Q -59.6,6.4,-53.7,2.7
Q -49.3,-0.2,-38.6,-15.7
Q -38.0,-16.5,-35.0,-15.0
Q -33.5,-14.3,-31.9,-13.6
Q -32.6,-12.7,-33.2,-11.8
Q -34.5,-10.0,-35.5,-8.1
Q -36.6,-6.1,-37.6,-4.2
Q -42.4,4.1,-40.3,8.6
Q -36.8,16.0,-20.8,-2.2
Q -18.9,-4.4,-15.8,-3.9
Q -13.4,-3.6,-13.2,-3.3
Q -12.9,-3.1,-14.7,2.2
Q -16.6,8.2,-18.0,17.3
Q -20.1,31.4,-27.7,41.7
Q -30.8,45.9,-33.1,49.0
Q -42.6,61.9,-39.4,77.0
Q -36.5,90.3,-27.3,92.5
Q -22.3,93.6,-16.5,88.1
Q -14.1,85.9,-14.4,86.8
Q -16.1,93.5,-24.0,104.3
Q -34.6,118.8,-35.4,133.0
Q -36.4,152.0,-29.6,176.8
Q -26.1,189.3,-25.3,194.5
Q -23.4,207.1,-27.4,215.9
Q -29.3,220.0,-28.4,221.0
 " /> 
<path  
style="fill:rgb(97,247,248)" 
d="M 73.8 -45.4
Q 73.7,-45.3,73.6,-45.2
Q 73.3,-44.9,73.3,-44.1
Q 73.6,-44.7,73.8,-45.4
 " /> 
<path  
style="fill:rgb(4,4,4)" 
d="M 73.8 -45.4
Q 85.8,-49.0,88.8,-50.5
Q 93.0,-52.7,92.7,-51.7
Q 92.2,-49.5,73.3,-44.1
Q 69.8,-37.0,68.0,-34.2
Q 66.6,-31.9,66.5,-31.6
Q 66.2,-30.1,81.2,-35.9
Q 102.8,-44.3,109.6,-53.2
Q 113.7,-58.5,106.8,-55.6
Q 95.9,-50.9,99.5,-57.2
Q 100.4,-58.8,103.1,-61.9
Q 104.4,-63.4,105.8,-65.0
Q 106.1,-65.4,106.5,-65.8
Q 107.1,-66.7,108.9,-68.1
Q 113.3,-74.3,115.6,-77.9
Q 123.8,-91.1,125.3,-101.4
Q 125.5,-103.0,125.8,-104.5
Q 125.8,-105.6,125.8,-106.7
Q 125.8,-108.1,125.4,-108.3
Q 125.0,-108.5,123.1,-107.6
Q 122.9,-107.3,122.6,-107.0
Q 122.2,-106.3,120.9,-105.4
Q 113.6,-96.1,113.0,-95.6
Q 108.7,-91.9,116.1,-111.6
Q 120.9,-124.3,122.2,-137.4
Q 122.2,-139.4,122.2,-141.4
Q 122.1,-142.5,122.0,-143.6
Q 121.8,-145.8,120.9,-147.2
Q 118.1,-151.4,112.0,-137.4
Q 108.7,-129.7,106.2,-125.0
Q 105.9,-124.6,105.5,-124.3
Q 104.9,-123.6,104.4,-123.6
Q 104.2,-123.6,104.0,-123.6
Q 102.7,-124.0,102.3,-124.4
Q 101.3,-125.8,99.7,-132.5
Q 94.9,-153.0,90.1,-156.1
Q 87.7,-157.5,86.2,-149.0
Q 86.2,-146.5,85.8,-146.3
Q 85.8,-145.6,85.8,-145.0
Q 85.8,-142.5,85.6,-142.4
Q 85.4,-142.3,85.3,-142.3
Q 85.1,-141.3,84.9,-140.3
Q 83.5,-134.1,78.9,-137.2
Q 78.1,-137.8,77.3,-138.3
Q 77.0,-138.5,76.7,-138.7
Q 76.0,-139.2,75.1,-140.5
Q 74.8,-140.8,74.5,-141.0
Q 73.9,-141.5,74.2,-137.8
Q 74.3,-137.5,74.5,-137.2
Q 74.7,-136.5,74.2,-135.6
Q 74.2,-132.5,70.9,-133.3
Q 69.0,-133.7,65.3,-137.4
Q 64.7,-137.4,64.0,-137.3
Q 64.1,-137.1,64.0,-136.8
Q 64.0,-136.2,64.0,-135.6
Q 64.2,-134.2,63.0,-133.4
Q 62.4,-132.9,61.8,-132.5
Q 61.2,-132.3,60.6,-132.0
Q 59.4,-131.5,63.1,-128.5
Q 63.5,-128.2,64.0,-127.8
Q 64.9,-127.2,65.3,-126.5
Q 65.5,-126.2,65.8,-125.8
Q 66.3,-125.2,66.2,-125.1
Q 66.2,-125.0,66.2,-125.0
Q 66.5,-124.7,66.9,-124.5
Q 67.5,-124.0,68.0,-123.4
Q 68.2,-123.1,68.4,-122.7
Q 69.3,-121.4,70.2,-120.1
Q 76.3,-110.9,78.4,-97.6
Q 78.5,-96.8,78.7,-96.1
Q 79.8,-97.1,80.9,-98.1
Q 89.6,-105.9,90.5,-128.0
Q 90.8,-135.2,91.2,-135.2
Q 91.6,-135.2,91.6,-128.2
Q 91.6,-105.1,80.9,-96.9
Q 79.8,-96.0,78.7,-95.2
Q 78.9,-94.0,79.1,-92.7
Q 79.6,-90.3,79.6,-88.7
Q 79.6,-88.0,79.6,-87.2
Q 79.9,-87.3,80.0,-87.0
Q 80.0,-86.7,80.0,-82.3
Q 80.0,-80.1,80.0,-77.8
Q 81.8,-79.1,83.6,-80.3
Q 87.1,-82.7,91.5,-87.3
Q 105.7,-102.3,111.8,-118.2
Q 113.5,-122.6,113.7,-121.1
Q 113.9,-119.8,109.7,-110.7
Q 106.6,-104.0,100.1,-95.5
Q 90.5,-82.8,82.2,-78.2
Q 81.1,-77.6,80.0,-77.0
Q 80.0,-76.4,80.0,-75.8
Q 80.0,-74.7,80.0,-69.8
Q 80.0,-67.8,79.6,-67.6
Q 79.5,-66.7,79.4,-65.9
Q 79.3,-64.1,79.1,-63.6
Q 85.3,-65.0,88.5,-66.3
Q 99.4,-70.9,105.7,-80.6
Q 107.3,-83.2,107.9,-83.2
Q 108.6,-83.2,106.4,-79.6
Q 98.4,-67.0,82.5,-63.1
Q 80.8,-62.7,79.1,-62.3
Q 77.8,-55.2,75.8,-50.3
Q 74.8,-47.8,73.8,-45.4
 " /> 
<path  
style="fill:rgb(97,247,248)" 
d="M 75.8 -116.2
Q 75.4,-115.2,76.0,-115.2
Q 77.4,-115.2,78.0,-120.8
Q 78.5,-125.3,77.7,-126.4
Q 76.9,-127.4,76.9,-123.0
Q 76.9,-119.8,76.5,-118.5
Q 76.0,-117.2,75.8,-116.2
 " /> 
<path  
style="fill:rgb(97,247,248)" 
d="M 68.0 -126.4
Q 68.0,-125.4,68.4,-125.4
Q 68.8,-125.4,69.1,-126.2
Q 70.3,-130.6,69.3,-130.2
Q 68.0,-129.7,68.0,-126.4
 " /> 
<path  
style="fill:rgb(97,247,248)" 
d="M 73.8 -45.4
Q 73.6,-44.7,73.3,-44.1
Q 92.2,-49.5,92.7,-51.7
Q 93.0,-52.7,88.8,-50.5
Q 85.8,-49.0,73.8,-45.4
 " /> 
<path  
style="fill:rgb(97,247,248)" 
d="M 79.1 -62.3
Q 80.8,-62.7,82.5,-63.1
Q 98.4,-67.0,106.4,-79.6
Q 108.6,-83.2,107.9,-83.2
Q 107.3,-83.2,105.7,-80.6
Q 99.4,-70.9,88.5,-66.3
Q 85.3,-65.0,79.1,-63.6
Q 79.1,-63.0,79.1,-62.3
 " /> 
<path  
style="fill:rgb(14,103,171)" 
d="M 79.6 -67.6
Q 80.0,-67.8,80.0,-69.8
Q 79.9,-69.8,79.8,-69.8
Q 79.6,-69.7,79.6,-68.7
Q 79.6,-68.1,79.6,-67.6
 " /> 
<path  
style="fill:rgb(97,247,248)" 
d="M 80.0 -77.0
Q 81.1,-77.6,82.2,-78.2
Q 90.5,-82.8,100.1,-95.5
Q 106.6,-104.0,109.7,-110.7
Q 113.9,-119.8,113.7,-121.1
Q 113.5,-122.6,111.8,-118.2
Q 105.7,-102.3,91.5,-87.3
Q 87.1,-82.7,83.6,-80.3
Q 81.8,-79.1,80.0,-77.8
Q 80.0,-77.4,80.0,-77.0
 " /> 
<path  
style="fill:rgb(14,103,171)" 
d="M 80.0 -82.3
Q 80.0,-86.7,80.0,-87.0
Q 79.9,-87.3,79.6,-87.2
Q 79.6,-82.1,79.8,-82.2
Q 79.9,-82.3,80.0,-82.3
 " /> 
<path  
style="fill:rgb(97,247,248)" 
d="M 78.7 -95.2
Q 79.8,-96.0,80.9,-96.9
Q 91.6,-105.1,91.6,-128.2
Q 91.6,-135.2,91.2,-135.2
Q 90.8,-135.2,90.5,-128.0
Q 89.6,-105.9,80.9,-98.1
Q 79.8,-97.1,78.7,-96.1
Q 78.7,-95.6,78.7,-95.2
 " /> 
<path  
style="fill:rgb(14,103,171)" 
d="M 68.4 -122.7
Q 68.2,-123.1,68.0,-123.4
Q 67.5,-124.0,66.9,-124.5
Q 66.5,-124.7,66.2,-125.0
Q 66.4,-124.6,66.7,-124.3
Q 67.1,-123.6,68.4,-122.7
 " /> 
<path  
style="fill:rgb(14,103,171)" 
d="M 65.8 -125.8
Q 65.5,-126.2,65.3,-126.5
Q 64.9,-127.2,64.0,-127.8
Q 63.5,-128.2,63.1,-128.5
Q 63.4,-128.1,63.8,-127.6
Q 64.5,-126.8,65.8,-125.8
 " /> 
<path  
style="fill:rgb(14,103,171)" 
d="M 61.8 -132.5
Q 62.4,-132.9,63.0,-133.4
Q 64.2,-134.2,64.0,-135.6
Q 63.8,-135.2,63.7,-134.7
Q 63.3,-133.8,61.8,-132.5
 " /> 
<path  
style="fill:rgb(14,103,171)" 
d="M 63.6 -138.3
Q 64.0,-138.3,64.7,-137.9
Q 65.0,-137.6,65.3,-137.4
Q 65.0,-137.8,64.7,-138.3
Q 63.6,-139.8,63.6,-138.3
 " /> 
<path  
style="fill:rgb(7,193,201)" 
d="M 63.6 -138.3
Q 63.7,-138.2,63.8,-138.1
Q 64.0,-137.9,64.0,-137.3
Q 64.7,-137.4,65.3,-137.4
Q 65.0,-137.6,64.7,-137.9
Q 64.0,-138.3,63.6,-138.3
 " /> 
<path  
style="fill:rgb(14,103,171)" 
d="M 74.2 -135.6
Q 74.7,-136.5,74.5,-137.2
Q 74.3,-137.5,74.2,-137.8
Q 74.2,-136.7,74.2,-135.6
 " /> 
<path  
style="fill:rgb(14,103,171)" 
d="M 75.1 -140.5
Q 76.0,-139.2,76.7,-138.7
Q 77.0,-138.5,77.3,-138.3
Q 77.1,-138.6,76.9,-138.9
Q 76.4,-139.6,75.8,-140.1
Q 75.4,-140.3,75.1,-140.5
 " /> 
<path  
style="fill:rgb(14,103,171)" 
d="M 85.3 -142.3
Q 85.4,-142.3,85.6,-142.4
Q 85.8,-142.5,85.8,-145.0
Q 85.4,-144.8,85.4,-143.6
Q 85.3,-142.9,85.3,-142.3
 " /> 
<path  
style="fill:rgb(14,103,171)" 
d="M 85.8 -146.3
Q 86.2,-146.5,86.2,-149.0
Q 85.8,-148.8,85.8,-147.5
Q 85.8,-146.9,85.8,-146.3
 " /> 
<path  
style="fill:rgb(14,103,171)" 
d="M 104.0 -123.6
Q 104.2,-123.6,104.4,-123.6
Q 104.9,-123.6,105.5,-124.3
Q 105.9,-124.6,106.2,-125.0
Q 105.9,-124.7,105.7,-124.5
Q 105.1,-124.1,104.5,-123.8
Q 104.3,-123.7,104.0,-123.6
 " /> 
<path  
style="fill:rgb(14,103,171)" 
d="M 122.2 -141.4
Q 122.2,-139.4,122.2,-137.4
Q 122.3,-138.0,122.5,-138.5
Q 122.7,-139.6,122.5,-140.5
Q 122.3,-141.0,122.2,-141.4
 " /> 
<path  
style="fill:rgb(14,103,171)" 
d="M 120.9 -105.4
Q 122.2,-106.3,122.6,-107.0
Q 122.9,-107.3,123.1,-107.6
Q 122.8,-107.4,122.4,-107.2
Q 121.8,-106.7,121.3,-106.1
Q 121.1,-105.7,120.9,-105.4
 " /> 
<path  
style="fill:rgb(14,103,171)" 
d="M 125.8 -106.7
Q 125.8,-105.6,125.8,-104.5
Q 125.9,-104.8,126.0,-105.2
Q 126.3,-105.8,125.8,-106.7
 " /> 
<path  
style="fill:rgb(14,103,171)" 
d="M 108.9 -68.1
Q 107.1,-66.7,106.5,-65.8
Q 106.1,-65.4,105.8,-65.0
Q 106.2,-65.3,106.7,-65.6
Q 107.5,-66.3,108.2,-67.2
Q 108.5,-67.6,108.9,-68.1
 " /> 
<path  
style="fill:rgb(14,103,171)" 
d="M -29.8 166.6
Q -29.3,164.9,-28.9,163.3
Q -24.0,144.9,-17.7,135.2
Q -15.6,131.9,-15.6,134.1
Q -15.6,134.8,-16.2,135.5
Q -20.4,140.1,-27.3,162.7
Q -28.7,167.4,-28.9,167.6
Q -29.1,167.8,-29.8,167.5
Q -27.6,175.9,-26.0,181.3
Q -24.5,186.6,-23.7,190.4
Q -22.8,194.7,-21.9,193.3
Q -18.5,188.2,-16.0,177.1
Q -11.6,158.1,-8.1,149.1
Q -3.3,136.4,-1.9,136.4
Q -0.7,136.4,-3.1,141.1
Q -9.1,153.3,-13.4,174.1
Q -16.2,187.6,-20.7,194.4
Q -22.2,196.6,-22.1,201.8
Q -22.0,209.8,-24.9,216.3
Q -26.2,219.2,-26.0,219.4
Q -25.8,219.6,-22.3,218.2
Q -18.9,216.9,-13.6,215.0
Q -1.4,210.8,4.7,207.9
Q 19.8,200.8,23.8,176.8
Q 24.5,172.6,24.7,158.6
Q 24.9,144.6,25.1,144.0
Q 25.4,143.3,25.9,143.9
Q 26.4,144.4,26.6,155.4
Q 27.0,188.5,16.3,200.7
Q 14.5,202.7,14.3,203.2
Q 14.2,203.4,14.1,203.6
Q 42.5,188.2,49.0,174.1
Q 53.8,163.8,51.8,153.7
Q 50.4,146.9,42.3,130.5
Q 32.7,110.9,30.6,96.6
Q 30.4,95.4,30.2,94.1
Q 29.8,94.1,29.5,94.0
Q 29.3,94.0,29.1,93.9
Q 28.0,93.7,28.2,96.0
Q 28.4,98.4,28.0,103.1
Q 27.4,110.3,25.6,111.5
Q 23.6,112.8,23.6,108.8
Q 23.6,103.6,22.1,99.8
Q 21.8,99.0,20.7,101.3
Q 17.7,107.4,13.7,101.3
Q 12.2,99.0,11.7,99.0
Q 9.8,99.0,8.9,105.5
Q 7.9,112.5,4.8,114.6
Q 2.9,116.0,2.4,114.7
Q 2.0,113.8,1.9,106.9
Q 1.8,105.4,1.8,103.9
Q 1.8,103.7,1.8,103.5
Q 1.4,103.5,1.4,103.3
Q 1.3,103.0,1.3,99.5
Q 1.6,97.1,0.9,96.8
Q 0.1,94.5,-0.4,94.1
Q -0.4,94.1,-0.4,94.1
Q -0.8,94.1,-2.7,97.1
Q -7.4,104.3,-9.3,99.6
Q -9.6,99.1,-9.8,98.6
Q -9.8,98.4,-9.8,98.1
Q -10.1,97.5,-10.4,96.8
Q -11.1,95.5,-12.0,92.4
Q -12.0,92.1,-12.0,91.9
Q -12.9,90.6,-12.9,89.9
Q -12.9,89.6,-12.9,89.3
Q -13.0,89.2,-13.2,89.1
Q -13.7,90.4,-14.2,91.7
Q -17.0,98.6,-20.4,102.6
Q -37.3,122.0,-32.4,153.8
Q -31.5,160.4,-30.6,163.5
Q -30.2,165.0,-29.8,166.6
 " /> 
<path  
style="fill:rgb(14,103,171)" 
d="M -21.6 216.1
Q -21.9,215.3,-20.9,214.7
Q -17.7,212.6,-11.3,206.3
Q 5.1,190.0,9.8,166.5
Q 10.3,163.9,11.0,163.9
Q 11.7,163.9,11.4,165.6
Q 6.7,195.3,-19.5,215.4
Q -21.3,216.9,-21.6,216.1
 " /> 
<path  
style="fill:rgb(7,193,201)" 
d="M 31.2 188.9
Q 31.0,189.7,31.6,189.7
Q 32.2,189.7,34.3,185.4
Q 39.8,173.8,39.3,161.5
Q 38.9,150.2,38.2,149.5
Q 36.7,148.0,37.4,152.8
Q 39.9,170.0,33.0,184.8
Q 31.5,188.1,31.2,188.9
 " /> 
<path  
style="fill:rgb(7,193,201)" 
d="M -29.8 166.6
Q -29.8,167.0,-29.8,167.5
Q -29.1,167.8,-28.9,167.6
Q -28.7,167.4,-27.3,162.7
Q -20.4,140.1,-16.2,135.5
Q -15.6,134.8,-15.6,134.1
Q -15.6,131.9,-17.7,135.2
Q -24.0,144.9,-28.9,163.3
Q -29.3,164.9,-29.8,166.6
 " /> 
<path  
style="fill:rgb(97,247,248)" 
d="M -12.9 88.4
Q -12.9,88.8,-12.9,89.3
Q -12.7,89.6,-12.4,89.9
Q -12.0,90.6,-12.0,91.3
Q -12.0,91.6,-12.0,91.9
Q -12.0,92.1,-12.0,92.4
Q -11.7,92.9,-11.3,93.5
Q -10.6,94.6,-10.2,96.4
Q -10.0,97.3,-9.8,98.1
Q -9.8,98.4,-9.8,98.6
Q -9.2,99.1,-8.7,99.7
Q -6.5,101.9,-3.1,97.1
Q -1.0,94.0,-0.5,94.1
Q -0.5,94.1,-0.4,94.1
Q 0.0,94.2,0.9,96.8
Q 1.6,97.1,1.3,99.5
Q 1.7,99.4,1.7,99.7
Q 1.8,100.0,1.8,103.5
Q 1.8,103.7,1.8,103.9
Q 2.4,109.8,2.5,112.4
Q 2.7,114.4,2.8,114.7
Q 3.3,115.6,5.2,113.6
Q 7.6,111.0,8.2,106.6
Q 9.2,98.6,11.8,98.6
Q 12.4,98.6,13.8,100.6
Q 17.7,106.4,20.5,100.6
Q 21.5,98.6,22.0,98.7
Q 22.9,99.1,24.0,107.6
Q 24.4,111.3,25.1,110.9
Q 27.4,109.7,27.7,98.6
Q 27.9,93.5,28.6,93.4
Q 29.1,93.3,29.3,93.1
Q 29.5,93.0,29.6,92.8
Q 29.7,92.6,29.8,92.4
Q 29.3,90.6,29.3,85.7
Q 29.2,85.7,29.1,85.7
Q 28.9,85.8,28.9,82.6
Q 28.4,81.7,28.0,80.8
Q 24.7,74.2,23.8,61.0
Q 23.7,60.5,23.7,60.0
Q 23.7,59.5,23.6,59.0
Q 23.6,58.7,23.6,57.7
Q 23.4,57.7,23.3,57.7
Q 23.1,57.8,23.1,55.5
Q 23.1,51.7,23.3,49.2
Q 23.5,47.7,23.6,46.7
Q 23.5,47.0,23.9,45.7
Q 23.9,45.4,24.2,44.6
Q 25.3,42.2,26.2,38.4
Q 26.7,36.5,27.1,34.6
Q 27.1,32.0,27.3,32.0
Q 27.4,32.0,27.6,31.9
Q 27.6,30.6,27.6,29.3
Q 27.1,29.4,27.1,27.8
Q 27.1,27.8,27.1,27.8
Q 27.1,27.0,27.1,26.1
Q 26.4,21.3,25.8,16.4
Q 25.6,17.0,25.4,17.6
Q 24.9,18.8,24.4,21.4
Q 23.9,23.9,23.0,23.9
Q 22.1,23.9,22.4,22.5
Q 23.7,14.7,24.4,9.1
Q 24.7,5.5,25.3,5.6
Q 25.9,5.6,25.8,7.8
Q 25.7,10.1,26.4,12.2
Q 27.5,15.7,28.8,24.7
Q 29.1,26.6,29.3,28.4
Q 29.3,30.4,29.3,32.4
Q 28.3,39.3,25.8,45.0
Q 25.3,46.0,24.9,47.0
Q 24.9,48.1,24.9,49.3
Q 24.9,50.8,24.9,52.4
Q 24.9,53.7,24.9,55.0
Q 25.0,55.0,25.1,55.0
Q 25.3,55.0,25.3,56.1
Q 25.3,56.1,25.3,56.1
Q 25.3,56.7,25.3,57.3
Q 25.3,58.4,25.3,59.5
Q 26.0,58.8,26.7,58.1
Q 28.0,56.8,29.6,55.6
Q 31.3,54.5,32.9,53.0
Q 43.5,43.5,48.9,48.9
Q 50.0,50.0,51.1,51.0
Q 48.3,41.8,43.2,32.8
Q 35.5,19.0,32.7,11.7
Q 26.7,-3.5,23.4,-4.5
Q 22.6,-4.7,18.4,-3.8
Q 15.9,-3.3,13.3,-2.7
Q 12.2,-2.7,11.1,-2.7
Q -3.6,-2.7,-10.7,-2.9
Q -15.3,8.4,-15.8,15.5
Q -16.6,26.5,-21.8,36.9
Q -23.6,40.4,-27.6,45.3
Q -24.4,45.7,-22.2,46.6
Q -20.0,47.5,-17.8,47.1
Q -16.7,46.8,-15.6,46.6
Q -15.3,46.6,-15.1,46.6
Q -13.3,46.1,-11.6,47.7
Q -9.9,49.3,-8.0,49.6
Q -4.3,50.0,-2.9,52.0
Q -2.2,52.8,-0.9,53.7
Q -0.9,53.3,-0.9,52.8
Q 0.2,46.2,0.0,44.9
Q -0.2,43.5,-0.9,42.1
Q -3.6,36.7,-4.1,29.8
Q -4.2,29.1,-4.2,28.4
Q -4.2,27.5,-4.3,26.7
Q -4.4,24.6,-4.4,22.6
Q -4.4,20.1,-4.4,17.7
Q -5.3,11.9,-5.4,11.0
Q -5.5,10.0,-4.9,10.0
Q -4.3,10.0,-3.5,13.3
Q -2.6,16.6,-1.6,20.6
Q -0.1,26.2,-1.1,26.3
Q -1.7,26.4,-2.0,26.0
Q -2.3,26.3,-2.7,26.6
Q -2.7,28.1,-2.7,29.7
Q -2.3,31.5,-2.0,33.3
Q -0.9,39.3,1.7,43.2
Q 3.8,46.6,2.5,46.6
Q 1.9,46.6,1.1,50.7
Q 0.9,51.9,0.7,53.1
Q 0.4,54.6,-0.0,56.1
Q -1.5,63.0,-5.4,71.5
Q -6.8,74.3,-8.0,77.0
Q -9.2,79.7,-10.4,81.8
Q -11.6,83.9,-12.9,88.4
 " /> 
<path  
style="fill:rgb(14,103,171)" 
d="M -12.9 88.4
Q -13.0,88.8,-13.2,89.1
Q -13.0,89.2,-12.9,89.3
Q -12.9,88.8,-12.9,88.4
 " /> 
<path  
style="fill:rgb(7,193,201)" 
d="M -12.9 89.3
Q -12.9,89.6,-12.9,89.9
Q -12.9,90.6,-12.0,91.9
Q -12.0,91.6,-12.0,91.3
Q -12.0,90.6,-12.4,89.9
Q -12.7,89.6,-12.9,89.3
 " /> 
<path  
style="fill:rgb(7,193,201)" 
d="M -12.0 92.4
Q -11.1,95.5,-10.4,96.8
Q -10.1,97.5,-9.8,98.1
Q -10.0,97.3,-10.2,96.4
Q -10.6,94.6,-11.3,93.5
Q -11.7,92.9,-12.0,92.4
 " /> 
<path  
style="fill:rgb(7,193,201)" 
d="M -9.8 98.6
Q -9.6,99.1,-9.3,99.6
Q -7.4,104.3,-2.7,97.1
Q -0.8,94.1,-0.4,94.1
Q -0.4,94.1,-0.4,94.1
Q -0.5,94.1,-0.5,94.1
Q -1.0,94.0,-3.1,97.1
Q -6.5,101.9,-8.7,99.7
Q -9.2,99.1,-9.8,98.6
 " /> 
<path  
style="fill:rgb(7,193,201)" 
d="M 1.3 99.5
Q 1.3,103.0,1.4,103.3
Q 1.4,103.5,1.8,103.5
Q 1.8,100.0,1.7,99.7
Q 1.7,99.4,1.3,99.5
 " /> 
<path  
style="fill:rgb(7,193,201)" 
d="M 1.8 103.9
Q 1.8,105.4,1.9,106.9
Q 2.0,113.8,2.4,114.7
Q 2.9,116.0,4.8,114.6
Q 7.9,112.5,8.9,105.5
Q 9.8,99.0,11.7,99.0
Q 12.2,99.0,13.7,101.3
Q 17.7,107.4,20.7,101.3
Q 21.8,99.0,22.1,99.8
Q 23.6,103.6,23.6,108.8
Q 23.6,112.8,25.6,111.5
Q 27.4,110.3,28.0,103.1
Q 28.4,98.4,28.2,96.0
Q 28.0,93.7,29.1,93.9
Q 29.3,94.0,29.5,94.0
Q 29.5,93.7,29.6,93.4
Q 29.5,93.2,29.3,93.1
Q 29.1,93.3,28.6,93.4
Q 27.9,93.5,27.7,98.6
Q 27.4,109.7,25.1,110.9
Q 24.4,111.3,24.0,107.6
Q 22.9,99.1,22.0,98.7
Q 21.5,98.6,20.5,100.6
Q 17.7,106.4,13.8,100.6
Q 12.4,98.6,11.8,98.6
Q 9.2,98.6,8.2,106.6
Q 7.6,111.0,5.2,113.6
Q 3.3,115.6,2.8,114.7
Q 2.7,114.4,2.5,112.4
Q 2.4,109.8,1.8,103.9
 " /> 
<path  
style="fill:rgb(7,193,201)" 
d="M 30.2 94.1
Q 30.2,92.3,30.0,92.3
Q 29.9,92.4,29.8,92.4
Q 29.7,92.9,29.6,93.4
Q 29.9,93.8,30.2,94.1
 " /> 
<path  
style="fill:rgb(7,193,201)" 
d="M 30.2 94.1
Q 29.9,93.8,29.6,93.4
Q 29.5,93.7,29.5,94.0
Q 29.8,94.1,30.2,94.1
 " /> 
<path  
style="fill:rgb(7,193,201)" 
d="M 29.8 92.4
Q 29.7,92.6,29.6,92.8
Q 29.5,93.0,29.3,93.1
Q 29.5,93.2,29.6,93.4
Q 29.7,92.9,29.8,92.4
 " /> 
<path  
style="fill:rgb(4,4,4)" 
d="M -2.7 29.7
Q -2.8,29.4,-2.9,29.0
Q -3.1,28.4,-2.9,27.5
Q -2.8,27.0,-2.7,26.6
Q -3.5,26.6,-4.3,26.7
Q -4.2,27.5,-4.2,28.4
Q -4.2,29.1,-4.1,29.8
Q -3.4,29.8,-2.7,29.7
 " /> 
<path  
style="fill:rgb(14,103,171)" 
d="M -2.7 29.7
Q -2.7,28.1,-2.7,26.6
Q -2.8,27.0,-2.9,27.5
Q -3.1,28.4,-2.9,29.0
Q -2.8,29.4,-2.7,29.7
 " /> 
<path  
style="fill:rgb(4,4,4)" 
d="M -2.7 29.7
Q -3.4,29.8,-4.1,29.8
Q -3.6,36.7,-0.9,42.1
Q -0.2,43.5,0.0,44.9
Q 0.2,46.2,-0.9,52.8
Q -0.1,53.0,0.7,53.1
Q 0.9,51.9,1.1,50.7
Q 1.9,46.6,2.5,46.6
Q 3.8,46.6,1.7,43.2
Q -0.9,39.3,-2.0,33.3
Q -2.3,31.5,-2.7,29.7
 " /> 
<path  
style="fill:rgb(4,4,4)" 
d="M -2.7 26.6
Q -2.7,25.9,-2.7,25.3
Q -2.2,23.5,-2.5,23.4
Q -2.7,23.3,-2.7,25.3
Q -2.5,24.8,-2.4,25.2
Q -2.4,25.3,-2.4,25.4
Q -2.2,25.8,-2.0,26.0
Q -1.7,26.4,-1.1,26.3
Q -0.1,26.2,-1.6,20.6
Q -2.6,16.6,-3.5,13.3
Q -4.3,10.0,-4.9,10.0
Q -5.5,10.0,-5.4,11.0
Q -5.3,11.9,-4.4,17.7
Q -4.0,19.9,-4.2,21.3
Q -4.3,21.9,-4.4,22.6
Q -4.4,24.6,-4.3,26.7
Q -3.5,26.6,-2.7,26.6
 " /> 
<path  
style="fill:rgb(97,247,248)" 
d="M -2.7 26.6
Q -2.3,26.3,-2.0,26.0
Q -2.2,25.8,-2.4,25.4
Q -2.4,25.3,-2.4,25.2
Q -2.5,25.2,-2.7,25.3
Q -2.7,25.9,-2.7,26.6
 " /> 
<path  
style="fill:rgb(255,255,255)" 
d="M -2.7 25.3
Q -2.7,24.8,-2.7,24.4
Q -2.7,23.3,-2.5,23.4
Q -2.2,23.5,-2.7,24.4
 " /> 
<path  
style="fill:rgb(97,247,248)" 
d="M -2.7 25.3
Q -2.5,25.2,-2.4,25.2
Q -2.5,24.8,-2.7,24.4
Q -2.7,24.8,-2.7,25.3
 " /> 
<path  
style="fill:rgb(14,103,171)" 
d="M -4.4 17.7
Q -4.4,20.1,-4.4,22.6
Q -4.3,21.9,-4.2,21.3
Q -4.0,19.9,-4.4,17.7
 " /> 
<path  
style="fill:rgb(4,4,4)" 
d="M -0.9 52.8
Q -0.8,53.0,-0.8,53.2
Q -0.7,53.4,-0.6,53.6
Q -0.5,53.8,-0.4,54.1
Q -0.0,53.9,0.5,54.0
Q 0.8,52.6,1.1,51.1
Q -0.1,53.0,-0.9,52.8
 " /> 
<path  
style="fill:rgb(14,103,171)" 
d="M -0.9 52.8
Q -0.9,53.3,-0.9,53.7
Q -0.8,53.7,-0.6,53.6
Q -0.7,53.4,-0.8,53.2
Q -0.8,53.0,-0.9,52.8
 " /> 
<path  
style="fill:rgb(14,103,171)" 
d="M -0.9 53.7
Q -1.8,53.7,-2.7,52.6
Q -4.7,50.1,-7.9,50.1
Q -9.8,50.1,-11.4,48.4
Q -12.9,46.6,-14.0,46.6
Q -14.5,46.6,-15.1,46.6
Q -15.3,46.6,-15.6,46.6
Q -19.5,49.0,-22.5,47.0
Q -24.0,46.1,-26.0,45.9
Q -27.0,45.8,-28.0,45.7
Q -33.3,52.8,-34.6,55.4
Q -36.0,57.9,-36.7,61.0
Q -36.0,61.2,-35.3,61.4
Q -35.5,61.0,-34.8,59.5
Q -32.6,54.7,-31.9,55.4
Q -31.4,55.9,-32.8,58.8
Q -34.6,62.5,-35.3,61.4
Q -36.0,61.2,-36.7,61.0
Q -37.4,63.9,-37.6,67.3
Q -37.7,69.3,-37.8,71.3
Q -34.8,66.1,-32.4,63.3
Q -24.6,54.5,-24.2,55.6
Q -23.9,56.4,-26.2,58.9
Q -33.8,67.0,-35.6,71.0
Q -38.9,77.8,-33.7,85.4
Q -32.3,87.4,-28.0,90.1
Q -28.2,89.1,-28.4,88.1
Q -28.9,86.1,-28.4,81.5
Q -28.0,76.8,-27.8,76.9
Q -27.6,77.0,-27.6,83.6
Q -27.6,86.9,-27.6,90.1
Q -23.6,90.1,-22.2,89.6
Q -15.3,87.0,-15.8,80.0
Q -17.0,61.2,-14.7,61.1
Q -14.1,61.1,-14.2,65.7
Q -14.3,81.3,-14.0,81.7
Q -13.2,82.4,-10.7,77.0
Q -9.4,74.3,-7.9,72.1
Q -5.0,67.7,-2.0,57.2
Q -1.3,54.6,-0.6,54.9
Q -0.2,55.1,0.1,55.2
Q -0.3,54.3,-0.5,53.8
Q -0.7,53.7,-0.9,53.7
 " /> 
<path  
style="fill:rgb(7,193,201)" 
d="M -9.9 70.3
Q -9.7,70.6,-9.2,70.4
Q -8.7,70.2,-8.5,65.5
Q -8.4,61.3,-8.6,61.1
Q -10.0,59.5,-10.1,65.5
Q -10.1,69.9,-9.9,70.3
 " /> 
<path  
style="fill:rgb(7,193,201)" 
d="M -0.9 53.7
Q -2.2,52.8,-2.9,52.0
Q -4.3,50.0,-8.0,49.6
Q -9.9,49.3,-11.6,47.7
Q -13.3,46.1,-15.1,46.6
Q -14.5,46.6,-14.0,46.6
Q -12.9,46.6,-11.4,48.4
Q -9.8,50.1,-7.9,50.1
Q -4.7,50.1,-2.7,52.6
Q -1.8,53.7,-0.9,53.7
 " /> 
<path  
style="fill:rgb(7,193,201)" 
d="M -15.6 46.6
Q -16.7,46.8,-17.8,47.1
Q -20.0,47.5,-22.2,46.6
Q -24.4,45.7,-27.6,45.3
Q -27.8,45.3,-28.0,45.7
Q -27.0,45.8,-26.0,45.9
Q -24.0,46.1,-22.5,47.0
Q -19.5,49.0,-15.6,46.6
 " /> 
<path  
style="fill:rgb(14,103,171)" 
d="M 11.1 -2.7
Q 12.2,-2.7,13.3,-2.7
Q 13.0,-2.9,12.7,-3.0
Q 12.0,-3.3,11.1,-2.7
 " /> 
<path  
style="fill:rgb(7,193,201)" 
d="M 51.1 51.0
Q 50.9,51.2,50.7,51.4
Q 51.1,51.9,51.6,52.4
Q 51.6,51.0,51.1,51.0
 " /> 
<path  
style="fill:rgb(7,193,201)" 
d="M 51.1 51.0
Q 50.0,50.0,48.9,48.9
Q 43.5,43.5,32.9,53.0
Q 31.3,54.5,29.6,55.6
Q 28.0,56.8,26.7,58.1
Q 26.0,58.8,25.3,59.5
Q 25.3,59.7,25.3,59.9
Q 29.8,56.0,31.9,54.3
Q 43.6,44.7,47.5,48.1
Q 48.9,49.3,50.2,50.8
Q 50.5,51.1,50.7,51.4
Q 50.9,51.2,51.1,51.0
 " /> 
<path  
style="fill:rgb(4,4,4)" 
d="M 25.3 59.5
Q 24.5,59.5,23.7,59.6
Q 23.7,60.1,23.8,60.6
Q 24.5,60.0,25.3,59.9
Q 25.3,59.7,25.3,59.5
 " /> 
<path  
style="fill:rgb(4,4,4)" 
d="M 25.3 59.5
Q 25.3,58.4,25.3,57.3
Q 25.0,57.3,25.0,57.1
Q 24.3,57.4,23.6,57.7
Q 23.6,58.7,23.7,59.6
Q 24.5,59.5,25.3,59.5
 " /> 
<path  
style="fill:rgb(7,193,201)" 
d="M 25.3 57.3
Q 25.3,56.7,25.3,56.1
Q 25.1,55.6,24.9,55.0
Q 24.9,56.8,24.9,57.1
Q 24.9,57.1,25.0,57.1
Q 25.0,57.3,25.3,57.3
 " /> 
<path  
style="fill:rgb(4,4,4)" 
d="M 24.9 55.0
Q 24.9,53.7,24.9,52.4
Q 24.8,52.4,24.7,52.4
Q 24.4,52.5,24.4,49.3
Q 23.9,49.2,23.3,49.2
Q 23.1,51.7,23.1,55.5
Q 23.4,55.4,23.5,55.7
Q 23.6,56.0,23.6,57.7
Q 24.3,57.4,25.0,57.1
Q 24.9,57.1,24.9,57.1
Q 24.9,56.8,24.9,55.0
 " /> 
<path  
style="fill:rgb(7,193,201)" 
d="M 24.9 55.0
Q 25.1,55.6,25.3,56.1
Q 25.3,56.1,25.3,56.1
Q 25.3,55.0,25.1,55.0
Q 25.0,55.0,24.9,55.0
 " /> 
<path  
style="fill:rgb(7,193,201)" 
d="M 24.9 52.4
Q 24.9,50.8,24.9,49.3
Q 24.7,49.3,24.4,49.3
Q 24.4,52.5,24.7,52.4
Q 24.8,52.4,24.9,52.4
 " /> 
<path  
style="fill:rgb(14,103,171)" 
d="M 24.9 49.3
Q 24.9,48.1,24.9,47.0
Q 24.8,47.1,24.7,47.1
Q 24.5,47.1,24.4,49.2
Q 24.7,49.2,24.9,49.3
 " /> 
<path  
style="fill:rgb(4,4,4)" 
d="M 24.9 47.0
Q 24.2,46.9,23.6,46.8
Q 23.3,48.5,23.2,50.9
Q 23.9,49.2,24.4,49.2
Q 24.5,47.1,24.7,47.1
Q 24.8,47.1,24.9,47.0
 " /> 
<path  
style="fill:rgb(4,4,4)" 
d="M 24.9 47.0
Q 25.3,46.0,25.8,45.0
Q 28.3,39.3,29.3,32.4
Q 29.0,31.0,29.2,29.4
Q 28.4,29.4,27.6,29.3
Q 27.6,30.6,27.6,31.9
Q 27.5,34.5,27.3,34.5
Q 27.2,34.6,27.1,34.6
Q 26.7,36.5,26.2,38.4
Q 25.3,42.2,24.2,44.6
Q 23.9,45.4,23.6,46.8
Q 24.2,46.9,24.9,47.0
 " /> 
<path  
style="fill:rgb(14,103,171)" 
d="M 29.3 32.4
Q 29.3,30.4,29.3,28.4
Q 29.2,28.9,29.2,29.4
Q 29.0,31.0,29.3,32.4
 " /> 
<path  
style="fill:rgb(4,4,4)" 
d="M 29.3 28.4
Q 29.1,26.6,28.8,24.7
Q 27.5,15.7,26.4,12.2
Q 25.7,10.1,25.8,7.8
Q 25.9,5.6,25.3,5.6
Q 24.7,5.5,24.4,9.1
Q 23.7,14.7,22.4,22.5
Q 22.1,23.9,23.0,23.9
Q 23.9,23.9,24.4,21.4
Q 24.9,18.8,25.4,17.6
Q 25.6,17.0,25.8,16.4
Q 26.4,21.3,27.1,26.1
Q 27.4,26.1,27.5,26.3
Q 27.6,26.6,27.6,27.7
Q 27.6,28.5,27.6,29.3
Q 28.4,29.4,29.2,29.4
Q 29.2,28.9,29.3,28.4
 " /> 
<path  
style="fill:rgb(7,193,201)" 
d="M 27.1 26.1
Q 27.1,27.0,27.1,27.8
Q 27.3,28.5,27.6,29.3
Q 27.6,28.5,27.6,27.7
Q 27.6,26.6,27.5,26.3
Q 27.4,26.1,27.1,26.1
 " /> 
<path  
style="fill:rgb(7,193,201)" 
d="M 27.6 29.3
Q 27.3,28.5,27.1,27.8
Q 27.1,27.8,27.1,27.8
Q 27.1,29.4,27.6,29.3
 " /> 
<path  
style="fill:rgb(7,193,201)" 
d="M 27.6 31.9
Q 27.4,32.0,27.3,32.0
Q 27.1,32.0,27.1,34.6
Q 27.2,34.6,27.3,34.5
Q 27.5,34.5,27.6,31.9
 " /> 
<path  
style="fill:rgb(7,193,201)" 
d="M 23.1 55.5
Q 23.1,57.8,23.3,57.7
Q 23.4,57.7,23.6,57.7
Q 23.6,56.0,23.5,55.7
Q 23.4,55.4,23.1,55.5
 " /> 
<path  
style="fill:rgb(7,193,201)" 
d="M 28.9 82.6
Q 28.9,85.8,29.1,85.7
Q 29.2,85.7,29.3,85.7
Q 29.3,83.1,29.3,82.8
Q 29.2,82.5,28.9,82.6
 " /> 
<path  
style="fill:rgb(7,193,201)" 
d="M -27.6 90.1
Q -27.6,86.9,-27.6,83.6
Q -27.6,77.0,-27.8,76.9
Q -28.0,76.8,-28.4,81.5
Q -28.9,86.1,-28.4,88.1
Q -28.2,89.1,-28.0,90.1
Q -27.8,90.1,-27.6,90.1
 " /> 
<path  
style="fill:rgb(14,103,171)" 
d="M 30.2 80.4
Q 30.4,77.3,30.7,74.1
Q 31.2,66.1,32.0,66.9
Q 32.2,67.1,32.3,67.7
Q 32.4,68.5,31.1,82.1
Q 31.8,83.0,32.4,83.9
Q 34.5,86.6,37.5,87.8
Q 38.3,88.1,37.3,84.4
Q 35.5,77.1,35.8,67.6
Q 36.0,61.3,36.2,61.3
Q 36.4,61.3,36.7,66.7
Q 37.5,88.1,40.3,88.8
Q 43.1,89.6,45.9,88.1
Q 45.8,87.9,45.7,87.7
Q 45.6,87.6,45.6,87.4
Q 45.3,86.8,44.2,81.9
Q 42.7,75.5,43.2,73.1
Q 43.4,72.0,44.2,75.8
Q 46.8,87.1,46.2,87.7
Q 45.9,88.0,45.7,87.7
Q 45.8,87.9,45.9,88.1
Q 47.4,87.3,48.9,85.9
Q 50.5,84.4,51.0,82.9
Q 51.8,80.6,46.9,63.7
Q 45.1,57.7,45.9,57.7
Q 47.4,57.7,50.9,72.2
Q 52.1,77.0,52.3,77.7
Q 52.4,78.0,52.5,78.4
Q 53.6,71.8,53.3,65.3
Q 52.7,64.0,52.1,62.8
Q 51.9,62.5,51.8,62.1
Q 50.2,59.0,50.6,58.5
Q 51.0,58.1,51.7,59.4
Q 52.4,60.7,53.3,62.1
Q 52.9,57.3,52.2,54.8
Q 51.9,53.6,51.6,52.4
Q 51.1,51.9,50.7,51.4
Q 50.5,51.1,50.2,50.8
Q 48.9,49.3,47.5,48.1
Q 43.6,44.7,31.9,54.3
Q 29.8,56.0,25.3,59.9
Q 25.6,61.7,25.8,63.5
Q 26.2,67.0,26.9,70.6
Q 27.5,74.2,30.2,80.4
 " /> 
<path  
style="fill:rgb(7,193,201)" 
d="M 30.2 80.4
Q 30.5,80.6,30.7,80.8
Q 31.2,81.2,31.1,81.7
Q 31.1,81.9,31.1,82.1
Q 32.4,68.5,32.3,67.7
Q 32.2,67.1,32.0,66.9
Q 31.2,66.1,30.7,74.1
Q 30.4,77.3,30.2,80.4
 " /> 
<path  
style="fill:rgb(7,193,201)" 
d="M 53.3 62.1
Q 52.7,62.5,52.1,62.8
Q 52.7,64.0,53.3,65.3
Q 53.3,63.7,53.3,62.1
 " /> 
<path  
style="fill:rgb(7,193,201)" 
d="M 53.3 62.1
Q 52.4,60.7,51.7,59.4
Q 51.0,58.1,50.6,58.5
Q 50.2,59.0,51.8,62.1
Q 51.9,62.5,52.1,62.8
Q 52.7,62.5,53.3,62.1
 " /> 
<path  
style="fill:rgb(7,193,201)" 
d="M 45.6 87.4
Q 45.7,87.6,45.7,87.7
Q 45.9,88.0,46.2,87.7
Q 46.8,87.1,44.2,75.8
Q 43.4,72.0,43.2,73.1
Q 42.7,75.5,44.2,81.9
Q 45.3,86.8,45.6,87.4
 " /> 
<path  
style="fill:rgb(7,193,201)" 
d="M -35.3 61.4
Q -34.6,62.5,-32.8,58.8
Q -31.4,55.9,-31.9,55.4
Q -32.6,54.7,-34.8,59.5
Q -35.5,61.0,-35.3,61.4
 " /> 
<path  
style="fill:rgb(4,4,4)" 
d="M -49.3 -17.0
Q -41.9,-24.8,-39.4,-28.7
Q -38.6,-29.9,-39.6,-30.1
Q -40.2,-30.3,-42.3,-27.5
Q -44.4,-24.7,-44.8,-24.8
Q -45.2,-24.8,-47.9,-27.9
Q -54.6,-35.9,-58.5,-44.5
Q -66.6,-62.7,-68.4,-78.1
Q -68.9,-81.7,-69.3,-85.4
Q -69.8,-88.5,-69.3,-91.6
Q -69.3,-91.8,-69.3,-92.1
Q -69.8,-93.4,-69.6,-94.1
Q -69.5,-94.4,-69.3,-94.7
Q -69.2,-96.6,-69.1,-98.5
Q -68.1,-113.8,-59.5,-127.3
Q -57.3,-130.7,-55.1,-132.3
Q -52.9,-133.8,-53.3,-135.2
Q -53.0,-135.6,-52.7,-136.0
Q -52.1,-136.8,-51.4,-137.3
Q -51.0,-137.6,-50.7,-137.8
Q -51.2,-138.5,-51.8,-139.1
Q -54.1,-137.0,-56.3,-134.8
Q -61.0,-129.9,-61.8,-135.4
Q -61.9,-136.6,-61.8,-147.1
Q -61.7,-159.3,-62.0,-161.3
Q -62.3,-163.2,-63.5,-164.6
Q -67.2,-168.7,-71.6,-157.4
Q -74.8,-149.3,-76.0,-139.8
Q -76.2,-137.8,-76.5,-135.8
Q -76.7,-137.9,-76.8,-139.9
Q -77.2,-143.9,-78.2,-146.0
Q -80.5,-150.7,-83.3,-144.4
Q -84.4,-141.9,-85.7,-130.1
Q -91.4,-161.0,-97.2,-163.5
Q -101.4,-165.2,-103.1,-157.7
Q -105.6,-146.9,-98.2,-124.9
Q -94.2,-112.8,-95.5,-113.5
Q -96.9,-114.3,-100.4,-122.7
Q -105.4,-134.4,-107.5,-135.7
Q -111.7,-138.3,-113.3,-128.1
Q -116.2,-109.8,-104.7,-87.8
Q -97.9,-74.9,-96.0,-72.5
Q -94.7,-70.8,-94.4,-70.1
Q -94.3,-69.7,-94.1,-69.4
Q -95.8,-70.3,-97.4,-71.1
Q -108.5,-77.0,-110.5,-77.3
Q -111.9,-77.5,-112.7,-76.3
Q -114.5,-73.6,-110.5,-65.5
Q -101.6,-47.5,-85.8,-38.4
Q -68.0,-28.1,-53.0,-27.0
Q -50.3,-26.8,-48.3,-24.7
Q -47.2,-23.6,-46.2,-22.5
Q -50.0,-19.0,-52.8,-15.8
Q -52.2,-15.3,-51.6,-14.7
Q -50.6,-16.0,-49.3,-17.0
 " /> 
<path  
style="fill:rgb(4,4,4)" 
d="M -55.1 -29.4
Q -53.2,-29.5,-53.0,-29.4
Q -52.8,-29.4,-52.9,-29.0
Q -52.2,-29.0,-52.3,-29.2
Q -52.3,-29.4,-54.4,-32.5
Q -56.9,-36.1,-59.6,-41.0
Q -64.4,-41.4,-67.8,-42.5
Q -74.0,-44.6,-79.8,-48.4
Q -93.3,-57.3,-93.3,-59.3
Q -93.3,-60.5,-90.4,-57.5
Q -86.3,-53.4,-75.3,-47.3
Q -68.2,-43.3,-60.4,-42.3
Q -61.4,-44.8,-62.4,-47.4
Q -66.7,-58.3,-68.4,-65.6
Q -68.9,-67.5,-69.3,-69.4
Q -69.8,-69.6,-70.4,-69.9
Q -71.3,-70.3,-72.2,-70.7
Q -82.6,-75.5,-89.5,-87.2
Q -91.6,-90.8,-91.3,-91.1
Q -91.0,-91.4,-87.2,-85.8
Q -79.9,-74.7,-71.9,-71.9
Q -70.8,-71.5,-69.8,-71.2
Q -70.0,-72.2,-70.2,-73.2
Q -70.7,-75.2,-70.9,-77.6
Q -71.0,-78.8,-71.1,-80.1
Q -71.2,-80.0,-71.4,-80.0
Q -71.6,-79.9,-71.6,-83.2
Q -71.6,-84.7,-71.6,-86.3
Q -72.3,-86.7,-73.1,-87.2
Q -78.7,-90.4,-83.1,-99.2
Q -86.6,-106.2,-85.9,-109.6
Q -85.0,-107.4,-84.2,-105.0
Q -81.4,-95.7,-73.6,-89.0
Q -72.6,-88.1,-71.6,-87.2
Q -71.6,-87.8,-71.6,-88.5
Q -71.6,-89.8,-71.6,-92.3
Q -71.6,-93.5,-71.6,-94.7
Q -71.6,-95.5,-71.6,-96.2
Q -71.6,-97.6,-71.1,-97.8
Q -71.1,-98.8,-71.0,-99.8
Q -70.9,-101.7,-70.8,-102.0
Q -70.7,-102.1,-70.7,-102.3
Q -72.0,-103.5,-73.3,-104.7
Q -79.3,-110.2,-80.7,-118.0
Q -80.9,-118.7,-81.0,-119.4
Q -80.7,-119.0,-80.3,-118.7
Q -79.7,-118.0,-79.2,-116.5
Q -78.3,-113.2,-74.6,-107.4
Q -72.9,-104.7,-70.7,-103.6
Q -68.9,-113.0,-68.0,-115.0
Q -67.6,-116.0,-67.1,-117.0
Q -69.8,-120.5,-70.2,-122.8
Q -71.1,-127.5,-70.6,-130.4
Q -70.3,-131.9,-69.8,-126.7
Q -69.3,-122.7,-66.7,-118.3
Q -66.0,-119.7,-65.3,-121.2
Q -64.0,-124.1,-62.1,-126.8
Q -60.3,-129.5,-60.1,-129.8
Q -60.0,-130.1,-61.3,-130.6
Q -64.0,-131.6,-64.3,-136.3
Q -64.4,-137.5,-64.4,-138.7
Q -64.4,-142.1,-64.4,-142.6
Q -64.3,-143.0,-64.0,-143.2
Q -64.0,-146.3,-64.0,-149.4
Q -64.0,-154.1,-63.9,-154.6
Q -63.9,-155.0,-63.6,-155.2
Q -64.2,-160.7,-64.5,-161.6
Q -65.3,-165.4,-68.3,-159.5
Q -71.8,-152.7,-73.8,-140.3
Q -75.9,-127.6,-76.7,-126.8
Q -78.2,-125.2,-78.5,-132.7
Q -78.6,-135.3,-78.7,-137.8
Q -78.8,-137.8,-78.9,-137.8
Q -79.2,-137.7,-79.1,-139.1
Q -79.1,-139.1,-79.1,-139.1
Q -79.1,-139.8,-79.1,-140.5
Q -79.2,-141.4,-79.3,-142.3
Q -79.6,-144.1,-80.0,-144.8
Q -81.1,-146.9,-82.7,-135.8
Q -84.1,-125.7,-85.2,-126.0
Q -87.4,-126.5,-89.3,-137.8
Q -90.2,-142.8,-92.4,-150.6
Q -95.6,-161.8,-98.4,-161.8
Q -99.0,-161.8,-99.9,-160.1
Q -100.8,-158.4,-101.3,-154.7
Q -101.3,-153.2,-101.3,-151.6
Q -101.3,-150.4,-101.3,-149.2
Q -101.3,-146.7,-100.9,-144.5
Q -100.8,-144.5,-100.6,-144.6
Q -100.4,-144.7,-100.4,-142.3
Q -99.1,-135.6,-97.7,-131.1
Q -96.4,-126.5,-94.8,-121.6
Q -92.0,-112.9,-93.5,-111.0
Q -96.4,-107.1,-104.3,-126.3
Q -107.3,-133.4,-108.6,-133.7
Q -110.1,-134.1,-110.9,-129.0
Q -111.1,-127.2,-111.6,-117.8
Q -111.4,-117.9,-111.3,-117.9
Q -111.2,-118.0,-111.1,-117.7
Q -111.0,-117.5,-111.1,-115.2
Q -109.3,-103.6,-105.1,-94.5
Q -100.0,-83.4,-93.9,-74.2
Q -90.0,-68.1,-91.2,-66.9
Q -92.6,-65.5,-97.3,-68.3
Q -99.3,-69.5,-101.3,-70.6
Q -103.3,-71.7,-105.3,-72.9
Q -107.3,-74.2,-111.1,-75.2
Q -111.1,-73.8,-111.1,-72.5
Q -108.9,-66.7,-105.8,-61.6
Q -102.7,-56.5,-101.1,-54.3
Q -100.3,-53.2,-99.6,-52.1
Q -97.4,-50.3,-95.6,-48.1
Q -76.0,-33.4,-55.1,-29.4
 " /> 
<path  
style="fill:rgb(14,103,171)" 
d="M -55.1 -29.4
Q -55.1,-29.3,-55.2,-29.1
Q -55.2,-29.0,-55.0,-28.9
Q -54.8,-28.9,-52.9,-29.0
Q -52.8,-29.4,-53.0,-29.4
Q -53.2,-29.5,-55.1,-29.4
 " /> 
<path  
style="fill:rgb(14,103,171)" 
d="M -95.6 -48.1
Q -97.4,-50.3,-99.6,-52.1
Q -99.1,-51.5,-98.7,-51.0
Q -97.8,-49.9,-95.6,-48.1
 " /> 
<path  
style="fill:rgb(14,103,171)" 
d="M -111.1 -72.5
Q -111.1,-73.8,-111.1,-75.2
Q -111.6,-73.8,-111.4,-73.2
Q -111.2,-72.8,-111.1,-72.5
 " /> 
<path  
style="fill:rgb(14,103,171)" 
d="M -111.1 -115.2
Q -111.0,-117.5,-111.1,-117.7
Q -111.2,-118.0,-111.3,-117.9
Q -111.4,-117.9,-111.6,-117.8
Q -111.6,-115.5,-111.5,-115.2
Q -111.4,-115.0,-111.1,-115.2
 " /> 
<path  
style="fill:rgb(14,103,171)" 
d="M -100.4 -142.3
Q -100.4,-144.7,-100.6,-144.6
Q -100.8,-144.5,-100.9,-144.5
Q -100.9,-143.9,-100.9,-143.3
Q -100.9,-142.1,-100.4,-142.3
 " /> 
<path  
style="fill:rgb(14,103,171)" 
d="M -101.3 -151.6
Q -101.3,-153.2,-101.3,-154.7
Q -101.4,-154.3,-101.6,-153.8
Q -101.8,-153.0,-101.3,-151.6
 " /> 
<path  
style="fill:rgb(14,103,171)" 
d="M -79.1 -140.5
Q -79.1,-139.8,-79.1,-139.1
Q -78.9,-138.5,-78.7,-137.8
Q -78.7,-140.2,-78.7,-140.4
Q -78.8,-140.7,-79.1,-140.5
 " /> 
<path  
style="fill:rgb(14,103,171)" 
d="M -78.7 -137.8
Q -78.9,-138.5,-79.1,-139.1
Q -79.1,-139.1,-79.1,-139.1
Q -79.2,-137.7,-78.9,-137.8
Q -78.8,-137.8,-78.7,-137.8
 " /> 
<path  
style="fill:rgb(14,103,171)" 
d="M -63.6 -155.2
Q -63.9,-155.0,-63.9,-154.6
Q -64.0,-154.1,-64.0,-149.4
Q -63.9,-149.4,-63.8,-149.5
Q -63.6,-149.6,-63.6,-152.4
Q -63.6,-153.8,-63.6,-155.2
 " /> 
<path  
style="fill:rgb(14,103,171)" 
d="M -64.0 -143.2
Q -64.3,-143.0,-64.4,-142.6
Q -64.4,-142.1,-64.4,-138.7
Q -64.3,-138.8,-64.3,-138.8
Q -64.1,-138.9,-64.0,-141.0
Q -64.0,-142.1,-64.0,-143.2
 " /> 
<path  
style="fill:rgb(97,247,248)" 
d="M -66.7 -118.3
Q -66.9,-117.6,-67.1,-117.0
Q -67.0,-117.1,-66.9,-117.2
Q -66.7,-117.4,-66.7,-118.3
 " /> 
<path  
style="fill:rgb(97,247,248)" 
d="M -66.7 -118.3
Q -69.3,-122.7,-69.8,-126.7
Q -70.3,-131.9,-70.6,-130.4
Q -71.1,-127.5,-70.2,-122.8
Q -69.8,-120.5,-67.1,-117.0
Q -66.9,-117.6,-66.7,-118.3
 " /> 
<path  
style="fill:rgb(97,247,248)" 
d="M -70.7 -103.6
Q -72.9,-104.7,-74.6,-107.4
Q -78.3,-113.2,-79.2,-116.5
Q -79.7,-118.0,-80.3,-118.7
Q -80.7,-119.0,-81.0,-119.4
Q -80.9,-118.7,-80.7,-118.0
Q -79.3,-110.2,-73.3,-104.7
Q -72.0,-103.5,-70.7,-102.3
Q -70.7,-103.0,-70.7,-103.6
 " /> 
<path  
style="fill:rgb(14,103,171)" 
d="M -71.1 -97.8
Q -71.6,-97.6,-71.6,-96.2
Q -71.6,-95.5,-71.6,-94.7
Q -71.2,-94.9,-71.1,-97.8
 " /> 
<path  
style="fill:rgb(97,247,248)" 
d="M -71.6 -87.2
Q -72.6,-88.1,-73.6,-89.0
Q -81.4,-95.7,-84.2,-105.0
Q -85.0,-107.4,-85.9,-109.6
Q -86.6,-106.2,-83.1,-99.2
Q -78.7,-90.4,-73.1,-87.2
Q -72.3,-86.7,-71.6,-86.3
Q -71.6,-86.7,-71.6,-87.2
 " /> 
<path  
style="fill:rgb(14,103,171)" 
d="M -71.6 -83.2
Q -71.6,-79.9,-71.4,-80.0
Q -71.2,-80.0,-71.1,-80.1
Q -71.1,-83.4,-71.3,-83.3
Q -71.4,-83.2,-71.6,-83.2
 " /> 
<path  
style="fill:rgb(97,247,248)" 
d="M -69.8 -71.2
Q -70.1,-70.5,-70.4,-69.9
Q -69.8,-69.6,-69.3,-69.4
Q -69.5,-69.5,-69.6,-69.6
Q -69.9,-69.8,-69.8,-71.2
 " /> 
<path  
style="fill:rgb(97,247,248)" 
d="M -69.8 -71.2
Q -70.8,-71.5,-71.9,-71.9
Q -79.9,-74.7,-87.2,-85.8
Q -91.0,-91.4,-91.3,-91.1
Q -91.6,-90.8,-89.5,-87.2
Q -82.6,-75.5,-72.2,-70.7
Q -71.3,-70.3,-70.4,-69.9
Q -70.1,-70.5,-69.8,-71.2
 " /> 
<path  
style="fill:rgb(97,247,248)" 
d="M -60.4 -42.3
Q -68.2,-43.3,-75.3,-47.3
Q -86.3,-53.4,-90.4,-57.5
Q -93.3,-60.5,-93.3,-59.3
Q -93.3,-57.3,-79.8,-48.4
Q -74.0,-44.6,-67.8,-42.5
Q -64.4,-41.4,-59.6,-41.0
Q -60.0,-41.6,-60.4,-42.3
 " /> 
<path  
style="fill:rgb(97,247,248)" 
d="M -49.3 -17.0
Q -50.3,-15.7,-51.6,-14.7
Q -59.6,-4.0,-58.4,0.7
Q -58.2,1.7,-56.9,1.7
Q -54.8,1.7,-49.2,-4.9
Q -47.9,-6.5,-46.2,-8.3
Q -43.0,-11.9,-39.7,-17.5
Q -38.7,-19.2,-37.4,-20.7
Q -36.1,-22.1,-34.9,-23.8
Q -33.7,-25.4,-33.1,-25.4
Q -32.2,-25.4,-34.6,-21.9
Q -36.6,-19.1,-36.0,-18.6
Q -32.9,-16.4,-31.1,-16.3
Q -30.5,-16.3,-29.3,-19.5
Q -28.3,-21.8,-27.5,-21.8
Q -26.4,-21.8,-28.3,-17.5
Q -29.4,-15.0,-29.6,-14.2
Q -29.7,-13.4,-31.7,-10.6
Q -36.9,-3.1,-38.0,2.2
Q -40.8,15.2,-26.5,0.6
Q -21.5,-4.5,-20.6,-6.0
Q -19.7,-7.5,-16.8,-10.7
Q -12.9,-15.1,-12.7,-13.2
Q -12.7,-12.8,-16.8,-7.3
Q -15.1,-6.9,-13.5,-6.6
Q -10.2,-5.8,-5.1,-5.4
Q -2.6,-5.2,0.0,-5.0
Q 2.2,-5.0,4.4,-5.0
Q 5.4,-4.9,6.4,-4.9
Q 8.3,-4.9,10.2,-5.4
Q 11.3,-5.4,12.4,-5.4
Q 18.2,-6.3,21.7,-7.2
Q 25.1,-8.1,27.0,-8.4
Q 29.0,-8.6,28.7,-9.6
Q 28.1,-12.2,26.9,-15.0
Q 26.3,-16.4,26.6,-16.9
Q 27.7,-18.6,29.8,-11.8
Q 30.3,-10.1,30.9,-8.7
Q 31.6,-7.1,33.1,-1.6
Q 35.3,6.3,36.9,4.4
Q 37.3,4.1,38.0,2.5
Q 39.0,0.1,39.6,-4.5
Q 39.6,-5.6,39.6,-6.7
Q 38.5,-14.3,36.6,-18.5
Q 34.4,-23.6,35.3,-23.6
Q 36.6,-23.6,39.6,-15.9
Q 40.3,-13.9,40.7,-13.8
Q 41.4,-13.6,44.3,-16.3
Q 45.8,-17.6,44.6,-21.4
Q 42.8,-27.9,43.8,-28.3
Q 44.5,-28.6,46.4,-21.6
Q 47.2,-19.0,47.6,-17.6
Q 47.9,-16.3,48.4,-13.4
Q 50.9,1.0,54.3,-8.9
Q 58.4,-20.5,54.4,-30.1
Q 52.4,-34.7,53.5,-34.7
Q 54.2,-34.7,55.3,-32.1
Q 56.4,-29.5,57.3,-27.7
Q 57.8,-26.8,58.2,-25.8
Q 58.6,-26.3,58.9,-26.7
Q 59.6,-27.6,61.3,-29.0
Q 62.4,-30.5,63.6,-32.1
Q 76.5,-50.2,77.5,-69.8
Q 77.7,-72.1,77.8,-74.3
Q 77.8,-76.3,77.8,-78.3
Q 77.8,-79.4,77.8,-80.5
Q 77.8,-82.7,77.3,-84.1
Q 77.3,-85.2,77.3,-86.3
Q 76.0,-98.2,73.5,-106.7
Q 67.6,-126.7,47.6,-134.8
Q 44.4,-136.1,45.9,-136.9
Q 47.0,-137.5,49.4,-136.5
Q 51.2,-135.7,51.0,-136.7
Q 50.0,-140.8,45.6,-146.6
Q 37.2,-157.7,25.6,-156.8
Q 21.5,-156.5,14.2,-152.1
Q 12.4,-149.9,10.2,-148.1
Q 7.6,-144.6,6.6,-143.2
Q 6.1,-142.4,6.1,-142.3
Q 6.0,-141.8,0.4,-142.1
Q 0.2,-142.1,0.0,-142.1
Q -2.0,-142.2,-3.4,-142.4
Q -6.1,-142.9,-6.6,-143.8
Q -11.9,-154.4,-21.1,-158.8
Q -36.5,-166.0,-43.8,-151.5
Q -47.1,-145.0,-47.1,-141.8
Q -47.1,-138.5,-49.0,-138.5
Q -49.6,-138.5,-50.7,-137.8
Q -52.0,-136.1,-53.3,-135.2
Q -52.9,-133.8,-55.1,-132.3
Q -57.3,-130.7,-59.5,-127.3
Q -68.1,-113.8,-69.1,-98.5
Q -69.2,-96.6,-69.3,-94.7
Q -69.3,-93.4,-69.3,-92.1
Q -69.3,-91.8,-69.3,-91.6
Q -69.3,-88.5,-69.3,-85.4
Q -68.9,-81.7,-68.4,-78.1
Q -66.6,-62.7,-58.5,-44.5
Q -54.6,-35.9,-47.9,-27.9
Q -45.2,-24.8,-44.8,-24.8
Q -44.4,-24.7,-42.3,-27.5
Q -40.2,-30.3,-39.6,-30.1
Q -38.6,-29.9,-39.4,-28.7
Q -41.9,-24.8,-49.3,-17.0
 " /> 
<path  
style="fill:rgb(4,4,4)" 
d="M 17.8 -17.1
Q 19.3,-16.1,20.1,-16.1
Q 21.5,-16.1,20.5,-17.1
Q 15.5,-22.3,6.0,-21.0
Q -3.1,-19.7,-3.1,-18.2
Q -3.1,-17.3,-1.9,-17.6
Q 11.9,-21.0,17.8,-17.1
 " /> 
<path  
style="fill:rgb(4,4,4)" 
d="M 12.7 -42.6
Q 14.8,-38.3,15.4,-38.3
Q 16.8,-38.3,13.7,-44.2
Q 10.8,-49.6,10.3,-48.8
Q 10.0,-48.2,12.7,-42.6
 " /> 
<path  
style="fill:rgb(4,4,4)" 
d="M -1.5 -39.1
Q -0.9,-38.1,1.0,-41.2
Q 2.3,-43.4,3.9,-45.8
Q 6.6,-49.8,5.4,-49.8
Q 4.0,-49.8,-0.2,-42.3
Q -1.7,-39.4,-1.5,-39.1
 " /> 
<path  
style="fill:rgb(7,193,201)" 
d="M 48.4 -117.4
Q 47.1,-117.9,45.8,-117.4
Q 47.1,-117.4,48.4,-117.4
 " /> 
<path  
style="fill:rgb(4,4,4)" 
d="M 48.4 -117.4
Q 47.1,-117.4,45.8,-117.4
Q 45.1,-117.3,44.4,-117.2
Q 33.5,-115.4,20.7,-79.4
Q 18.1,-72.3,17.3,-70.5
Q 12.8,-60.3,14.7,-59.8
Q 15.5,-59.6,16.0,-61.3
Q 16.5,-62.9,17.0,-64.0
Q 17.2,-64.6,17.4,-65.2
Q 18.2,-63.4,19.0,-61.6
Q 23.9,-50.5,32.1,-48.0
Q 43.1,-44.7,55.8,-57.2
Q 68.3,-69.5,67.4,-86.4
Q 66.6,-103.0,56.4,-113.0
Q 51.4,-117.9,48.4,-117.4
 " /> 
<path  
style="fill:rgb(31,181,0)" 
d="M 37.8 -50.3
Q 36.4,-50.3,35.1,-50.3
Q 36.4,-49.8,37.1,-50.0
Q 37.4,-50.2,37.8,-50.3
 " /> 
<path  
style="fill:rgb(115,250,3)" 
d="M 37.8 -50.3
Q 38.9,-50.5,40.0,-50.7
Q 44.8,-51.7,50.8,-56.5
Q 60.0,-63.8,63.0,-74.0
Q 63.9,-77.0,64.9,-83.6
Q 64.1,-83.7,63.4,-83.8
Q 62.5,-75.3,55.1,-65.9
Q 44.6,-52.6,32.4,-58.4
Q 25.9,-61.5,25.3,-62.6
Q 23.5,-65.8,26.9,-69.2
Q 27.2,-69.5,27.6,-69.8
Q 27.0,-70.0,26.6,-70.1
Q 24.6,-70.8,24.5,-71.6
Q 24.4,-73.5,26.4,-72.1
Q 26.8,-71.8,27.1,-71.6
Q 28.9,-71.6,30.7,-71.6
Q 32.4,-72.5,33.3,-73.0
Q 33.8,-73.2,34.2,-73.4
Q 36.5,-76.0,39.1,-78.3
Q 41.3,-80.7,42.8,-82.2
Q 44.8,-84.1,45.8,-84.6
Q 50.2,-86.7,53.5,-80.1
Q 54.7,-77.8,55.1,-78.0
Q 55.6,-78.3,56.4,-81.0
Q 56.5,-81.5,56.5,-82.0
Q 56.5,-83.0,56.9,-83.2
Q 56.9,-88.9,56.2,-91.4
Q 55.6,-93.8,54.9,-96.3
Q 54.7,-97.1,54.5,-97.9
Q 54.3,-98.3,54.2,-98.7
Q 52.9,-100.1,52.5,-101.4
Q 52.2,-102.1,52.0,-102.7
Q 52.2,-102.9,52.4,-103.1
Q 53.1,-103.9,53.9,-102.7
Q 54.2,-102.2,55.5,-99.3
Q 55.7,-98.8,56.0,-98.3
Q 56.1,-98.0,56.3,-97.8
Q 56.5,-97.3,58.2,-97.6
Q 59.9,-97.9,61.3,-95.1
Q 63.5,-90.6,63.5,-85.8
Q 64.2,-85.8,64.9,-85.8
Q 64.4,-90.7,63.3,-94.8
Q 60.8,-103.9,56.1,-109.6
Q 49.9,-117.1,43.5,-114.2
Q 42.6,-113.8,41.8,-113.4
Q 41.3,-112.9,40.9,-112.3
Q 40.0,-111.2,39.1,-110.5
Q 38.7,-110.2,38.2,-109.8
Q 31.1,-98.8,26.4,-88.3
Q 19.5,-72.5,19.5,-69.4
Q 19.4,-67.1,23.9,-58.5
Q 24.4,-57.5,24.9,-56.5
Q 27.1,-54.7,28.9,-52.5
Q 29.8,-52.0,30.6,-51.6
Q 32.4,-50.7,33.8,-50.5
Q 34.4,-50.4,35.1,-50.3
Q 36.4,-50.3,37.8,-50.3
 " /> 
<path  
style="fill:rgb(209,251,185)" 
d="M 29.9 -76.5
Q 32.8,-75.2,40.9,-82.5
Q 44.2,-85.5,47.3,-87.0
Q 51.7,-89.2,52.2,-90.6
Q 53.1,-93.2,51.1,-98.1
Q 48.7,-103.7,46.3,-104.9
Q 44.9,-105.6,44.9,-106.2
Q 44.9,-107.5,41.0,-103.8
Q 36.4,-99.3,36.2,-95.6
Q 36.2,-94.4,34.4,-91.6
Q 25.9,-78.2,29.9,-76.5
 " /> 
<path  
style="fill:rgb(31,181,0)" 
d="M 24.9 -56.5
Q 25.3,-56.0,25.8,-55.4
Q 26.7,-54.3,27.8,-53.4
Q 28.3,-53.0,28.9,-52.5
Q 27.1,-54.7,24.9,-56.5
 " /> 
<path  
style="fill:rgb(31,181,0)" 
d="M 38.2 -109.8
Q 38.7,-110.2,39.1,-110.5
Q 40.0,-111.2,40.9,-112.3
Q 41.3,-112.9,41.8,-113.4
Q 39.6,-111.6,38.2,-109.8
 " /> 
<path  
style="fill:rgb(31,181,0)" 
d="M 64.9 -85.8
Q 64.9,-84.7,64.9,-83.6
Q 65.4,-84.9,64.9,-85.8
 " /> 
<path  
style="fill:rgb(115,250,3)" 
d="M 64.9 -85.8
Q 64.2,-85.8,63.5,-85.8
Q 63.5,-82.0,62.0,-77.9
Q 64.1,-83.7,64.9,-83.6
Q 64.9,-84.7,64.9,-85.8
 " /> 
<path  
style="fill:rgb(4,4,4)" 
d="M 44.0 -81.0
Q 44.5,-81.4,44.9,-81.8
Q 45.8,-82.6,48.4,-83.2
Q 48.8,-83.1,49.1,-83.0
Q 49.8,-82.8,50.7,-81.4
Q 52.0,-77.8,53.3,-76.5
Q 54.0,-75.8,54.7,-75.2
Q 54.9,-75.3,55.2,-75.4
Q 58.8,-76.5,58.7,-84.7
Q 58.6,-92.3,56.9,-96.3
Q 56.4,-97.3,56.0,-98.3
Q 55.2,-98.1,54.5,-97.9
Q 54.7,-97.1,54.9,-96.3
Q 55.6,-93.8,56.2,-91.4
Q 56.9,-88.9,56.9,-83.2
Q 56.9,-81.1,56.4,-81.0
Q 55.6,-78.3,55.1,-78.0
Q 54.7,-77.8,53.5,-80.1
Q 50.2,-86.7,45.8,-84.6
Q 44.8,-84.1,42.8,-82.2
Q 43.4,-81.6,44.0,-81.0
 " /> 
<path  
style="fill:rgb(115,250,3)" 
d="M 44.0 -81.0
Q 49.0,-81.0,50.9,-77.3
Q 52.1,-75.0,53.8,-74.1
Q 54.7,-73.6,54.7,-75.2
Q 54.0,-75.8,53.3,-76.5
Q 52.0,-77.8,50.7,-81.4
Q 50.3,-81.7,50.0,-81.9
Q 49.4,-82.4,48.4,-83.2
Q 45.8,-82.6,44.9,-81.8
Q 44.5,-81.4,44.0,-81.0
 " /> 
<path  
style="fill:rgb(31,181,0)" 
d="M 44.0 -81.0
Q 42.9,-79.7,41.8,-78.5
Q 38.0,-74.4,35.1,-72.2
Q 31.3,-69.3,28.9,-69.6
Q 28.2,-69.7,27.6,-69.8
Q 27.2,-69.5,26.9,-69.2
Q 23.5,-65.8,25.3,-62.6
Q 25.9,-61.5,32.4,-58.4
Q 44.6,-52.6,55.1,-65.9
Q 62.5,-75.3,63.4,-83.8
Q 63.7,-87.7,62.7,-91.4
Q 63.5,-90.6,61.3,-95.1
Q 59.9,-97.9,58.2,-97.6
Q 56.5,-97.3,56.3,-97.8
Q 56.1,-98.0,56.0,-98.3
Q 56.4,-97.3,56.9,-96.3
Q 58.6,-92.3,58.7,-84.7
Q 58.8,-76.5,55.2,-75.4
Q 54.9,-75.3,54.7,-75.2
Q 54.7,-73.6,53.8,-74.1
Q 52.1,-75.0,50.9,-77.3
Q 49.0,-81.0,44.0,-81.0
 " /> 
<path  
style="fill:rgb(4,4,4)" 
d="M 44.0 -81.0
Q 43.4,-81.6,42.8,-82.2
Q 41.3,-80.7,39.1,-78.3
Q 38.5,-77.6,38.0,-77.0
Q 36.9,-75.6,35.5,-74.5
Q 34.9,-74.0,34.2,-73.4
Q 34.7,-72.8,35.1,-72.2
Q 38.0,-74.4,41.8,-78.5
Q 42.9,-79.7,44.0,-81.0
 " /> 
<path  
style="fill:rgb(4,4,4)" 
d="M 27.6 -69.8
Q 27.7,-70.6,27.9,-71.4
Q 27.5,-71.5,27.1,-71.6
Q 26.9,-70.9,26.6,-70.1
Q 27.0,-70.0,27.6,-69.8
 " /> 
<path  
style="fill:rgb(4,4,4)" 
d="M 27.6 -69.8
Q 28.2,-69.7,28.9,-69.6
Q 31.3,-69.3,35.1,-72.2
Q 34.7,-72.8,34.2,-73.4
Q 33.8,-73.2,33.3,-73.0
Q 32.4,-72.5,30.7,-71.6
Q 30.2,-71.5,29.8,-71.4
Q 29.1,-71.2,27.9,-71.4
Q 27.7,-70.6,27.6,-69.8
 " /> 
<path  
style="fill:rgb(4,4,4)" 
d="M 56.0 -98.3
Q 55.7,-98.8,55.5,-99.3
Q 54.9,-99.0,54.2,-98.7
Q 54.3,-98.3,54.5,-97.9
Q 55.2,-98.1,56.0,-98.3
 " /> 
<path  
style="fill:rgb(4,4,4)" 
d="M 27.1 -71.6
Q 26.8,-71.8,26.4,-72.1
Q 24.4,-73.5,24.5,-71.6
Q 24.6,-70.8,26.6,-70.1
Q 26.9,-70.9,27.1,-71.6
 " /> 
<path  
style="fill:rgb(31,181,0)" 
d="M 27.1 -71.6
Q 27.5,-71.5,27.9,-71.4
Q 29.1,-71.2,29.8,-71.4
Q 30.2,-71.5,30.7,-71.6
Q 28.9,-71.6,27.1,-71.6
 " /> 
<path  
style="fill:rgb(31,181,0)" 
d="M 34.2 -73.4
Q 34.9,-74.0,35.5,-74.5
Q 36.9,-75.6,38.0,-77.0
Q 38.5,-77.6,39.1,-78.3
Q 36.5,-76.0,34.2,-73.4
 " /> 
<path  
style="fill:rgb(31,181,0)" 
d="M 56.4 -81.0
Q 56.9,-81.1,56.9,-83.2
Q 56.5,-83.0,56.5,-82.0
Q 56.5,-81.5,56.4,-81.0
 " /> 
<path  
style="fill:rgb(31,181,0)" 
d="M 54.2 -98.7
Q 53.9,-99.4,53.6,-100.1
Q 52.9,-101.4,52.4,-102.1
Q 52.2,-102.4,52.0,-102.7
Q 52.2,-102.1,52.5,-101.4
Q 52.9,-100.1,54.2,-98.7
 " /> 
<path  
style="fill:rgb(4,4,4)" 
d="M 54.2 -98.7
Q 54.9,-99.0,55.5,-99.3
Q 54.2,-102.2,53.9,-102.7
Q 53.1,-103.9,52.4,-103.1
Q 52.2,-102.9,52.0,-102.7
Q 52.2,-102.4,52.4,-102.1
Q 52.9,-101.4,53.6,-100.1
Q 53.9,-99.4,54.2,-98.7
 " /> 
<path  
style="fill:rgb(31,181,0)" 
d="M 50.7 -81.4
Q 49.8,-82.8,49.1,-83.0
Q 48.8,-83.1,48.4,-83.2
Q 49.4,-82.4,50.0,-81.9
Q 50.3,-81.7,50.7,-81.4
 " /> 
<path  
style="fill:rgb(4,4,4)" 
d="M -40.4 -62.3
Q -40.1,-62.1,-39.8,-61.8
Q -39.1,-61.4,-38.2,-60.1
Q -28.7,-50.6,-19.0,-50.6
Q -8.9,-50.7,-1.6,-64.7
Q -1.3,-63.0,-0.9,-61.4
Q 0.2,-56.7,1.2,-58.1
Q 1.5,-58.5,-0.0,-66.9
Q -8.9,-115.6,-29.3,-122.8
Q -40.1,-126.7,-48.2,-114.8
Q -50.3,-111.6,-51.4,-104.3
Q -50.6,-104.2,-49.8,-104.1
Q -49.4,-105.4,-49.1,-106.7
Q -48.0,-111.2,-45.3,-115.2
Q -44.9,-115.8,-44.4,-116.5
Q -43.5,-117.8,-42.2,-118.7
Q -35.3,-122.4,-30.1,-120.6
Q -15.4,-115.4,-6.9,-87.4
Q -2.1,-71.7,-3.2,-68.0
Q -6.4,-57.9,-14.1,-54.4
Q -22.1,-50.8,-31.3,-57.2
Q -32.8,-58.2,-34.2,-59.2
Q -36.9,-61.4,-39.6,-64.5
Q -48.6,-78.1,-49.8,-90.3
Q -50.0,-92.5,-50.2,-94.7
Q -50.7,-96.1,-50.5,-96.7
Q -50.3,-97.1,-50.2,-97.4
Q -50.2,-99.6,-50.2,-101.8
Q -51.0,-101.9,-51.7,-102.0
Q -52.2,-97.7,-52.4,-92.1
Q -52.3,-92.1,-52.2,-92.1
Q -51.9,-92.2,-52.0,-90.8
Q -52.0,-90.8,-52.0,-90.8
Q -52.0,-90.1,-52.0,-89.4
Q -51.8,-87.7,-51.6,-86.1
Q -50.1,-75.3,-42.4,-65.0
Q -41.4,-63.6,-40.4,-62.3
 " /> 
<path  
style="fill:rgb(7,193,201)" 
d="M -40.4 -62.3
Q -39.5,-61.0,-38.9,-60.5
Q -38.5,-60.3,-38.2,-60.1
Q -39.1,-61.4,-39.8,-61.8
Q -40.1,-62.1,-40.4,-62.3
 " /> 
<path  
style="fill:rgb(7,193,201)" 
d="M -52.0 -89.4
Q -52.0,-90.1,-52.0,-90.8
Q -52.2,-91.4,-52.4,-92.1
Q -52.4,-89.7,-52.4,-89.5
Q -52.3,-89.3,-52.0,-89.4
 " /> 
<path  
style="fill:rgb(7,193,201)" 
d="M -52.4 -92.1
Q -52.2,-91.4,-52.0,-90.8
Q -52.0,-90.8,-52.0,-90.8
Q -51.9,-92.2,-52.2,-92.1
Q -52.3,-92.1,-52.4,-92.1
 " /> 
<path  
style="fill:rgb(115,250,3)" 
d="M -39.6 -64.5
Q -38.8,-63.8,-38.0,-63.2
Q -36.5,-61.8,-35.3,-60.5
Q -34.8,-59.8,-34.2,-59.2
Q -32.8,-58.2,-31.3,-57.2
Q -22.1,-50.8,-14.1,-54.4
Q -6.4,-57.9,-3.2,-68.0
Q -2.1,-71.7,-6.9,-87.4
Q -15.4,-115.4,-30.1,-120.6
Q -35.3,-122.4,-42.2,-118.7
Q -42.4,-118.5,-42.5,-118.2
Q -42.9,-117.8,-44.4,-116.5
Q -44.9,-115.8,-45.3,-115.2
Q -48.0,-111.2,-49.1,-106.7
Q -49.4,-105.4,-49.8,-104.1
Q -49.8,-102.0,-50.2,-101.8
Q -50.2,-99.6,-50.2,-97.4
Q -50.2,-96.1,-50.2,-94.7
Q -50.0,-92.5,-49.8,-90.3
Q -48.6,-78.1,-39.6,-64.5
 " /> 
<path  
style="fill:rgb(4,4,4)" 
d="M -43.1 -101.8
Q -43.1,-99.9,-43.0,-98.2
Q -42.2,-98.2,-41.3,-98.3
Q -41.8,-100.1,-41.3,-101.4
Q -41.2,-102.4,-41.1,-103.4
Q -40.7,-107.0,-38.6,-110.0
Q -36.9,-112.4,-38.4,-112.3
Q -40.0,-112.3,-42.0,-107.3
Q -43.1,-104.5,-43.1,-101.8
 " /> 
<path  
style="fill:rgb(31,181,0)" 
d="M -43.1 -101.8
Q -43.3,-101.5,-43.6,-101.2
Q -44.0,-100.5,-44.2,-100.5
Q -47.7,-100.5,-45.3,-89.0
Q -41.6,-70.7,-32.9,-62.6
Q -23.7,-54.0,-13.5,-61.3
Q -6.3,-66.4,-7.6,-70.5
Q -7.8,-71.0,-8.0,-71.6
Q -10.9,-71.6,-15.1,-74.3
Q -17.4,-75.9,-20.2,-78.4
Q -23.4,-81.2,-26.8,-79.3
Q -28.4,-78.4,-30.1,-76.5
Q -32.1,-74.3,-33.3,-74.3
Q -39.6,-74.3,-42.4,-91.4
Q -42.8,-94.1,-43.0,-98.2
Q -43.1,-99.9,-43.1,-101.8
 " /> 
<path  
style="fill:rgb(4,4,4)" 
d="M -8.0 -71.6
Q -7.1,-71.6,-7.1,-72.2
Q -7.1,-72.9,-8.7,-73.1
Q -10.2,-73.4,-14.2,-75.6
Q -14.6,-75.0,-15.1,-74.3
Q -10.9,-71.6,-8.0,-71.6
 " /> 
<path  
style="fill:rgb(31,181,0)" 
d="M -41.3 -101.4
Q -41.8,-100.1,-41.3,-98.3
Q -41.3,-99.8,-41.3,-101.4
 " /> 
<path  
style="fill:rgb(4,4,4)" 
d="M -41.3 -98.3
Q -42.2,-98.2,-43.0,-98.2
Q -42.8,-94.1,-42.4,-91.4
Q -39.6,-74.3,-33.3,-74.3
Q -32.1,-74.3,-30.1,-76.5
Q -28.4,-78.4,-26.8,-79.3
Q -26.9,-79.5,-27.1,-79.8
Q -27.5,-79.8,-27.3,-80.2
Q -26.4,-82.6,-23.4,-81.1
Q -22.7,-80.8,-22.0,-80.4
Q -22.2,-80.3,-22.5,-80.3
Q -22.9,-80.1,-24.2,-80.1
Q -25.6,-80.2,-26.6,-79.9
Q -26.9,-79.8,-27.1,-79.8
Q -26.9,-79.5,-26.8,-79.3
Q -23.4,-81.2,-20.2,-78.4
Q -17.4,-75.9,-15.1,-74.3
Q -14.6,-75.0,-14.2,-75.6
Q -14.9,-76.2,-15.5,-76.7
Q -16.9,-77.9,-18.7,-80.1
Q -19.5,-80.9,-20.4,-81.7
Q -22.1,-83.3,-24.0,-83.6
Q -25.1,-83.6,-26.2,-83.6
Q -26.9,-83.3,-27.5,-82.9
Q -28.8,-82.2,-30.7,-78.7
Q -31.5,-77.6,-32.2,-77.0
Q -32.5,-76.8,-32.9,-76.5
Q -35.6,-77.4,-36.4,-78.9
Q -38.0,-81.6,-40.0,-89.7
Q -40.9,-93.4,-41.3,-98.3
 " /> 
<path  
style="fill:rgb(31,181,0)" 
d="M -32.9 -76.5
Q -32.5,-76.8,-32.2,-77.0
Q -31.5,-77.6,-30.7,-78.7
Q -31.0,-78.5,-31.3,-78.3
Q -32.0,-77.8,-32.9,-76.5
 " /> 
<path  
style="fill:rgb(31,181,0)" 
d="M -26.2 -83.6
Q -25.1,-83.6,-24.0,-83.6
Q -24.3,-83.8,-24.7,-83.9
Q -25.3,-84.1,-25.8,-83.9
Q -26.0,-83.8,-26.2,-83.6
 " /> 
<path  
style="fill:rgb(31,181,0)" 
d="M -18.7 -80.1
Q -16.9,-77.9,-15.5,-76.7
Q -14.9,-76.2,-14.2,-75.6
Q -14.8,-76.3,-15.3,-76.9
Q -16.5,-78.3,-18.7,-80.1
 " /> 
<path  
style="fill:rgb(209,251,185)" 
d="M -12.7 -80.5
Q -9.7,-78.8,-9.9,-80.2
Q -10.0,-80.7,-13.0,-86.8
Q -18.7,-98.5,-22.9,-102.8
Q -27.3,-107.3,-31.1,-102.9
Q -34.0,-99.6,-33.9,-96.3
Q -33.8,-89.1,-24.6,-86.7
Q -20.8,-85.7,-17.9,-83.7
Q -14.9,-81.7,-12.7,-80.5
 " /> 
<path  
style="fill:rgb(255,255,255)" 
d="M -27.3 -80.2
Q -27.2,-80.0,-27.1,-79.8
Q -26.9,-79.8,-26.6,-79.9
Q -25.6,-80.2,-24.2,-80.1
Q -22.9,-80.1,-22.5,-80.3
Q -22.2,-80.3,-22.0,-80.4
Q -22.7,-80.8,-23.4,-81.1
Q -26.4,-82.6,-27.3,-80.2
 " /> 
<path  
style="fill:rgb(31,181,0)" 
d="M -39.6 -64.5
Q -36.9,-61.4,-34.2,-59.2
Q -34.8,-59.8,-35.3,-60.5
Q -36.5,-61.8,-38.0,-63.2
Q -38.8,-63.8,-39.6,-64.5
 " /> 
<path  
style="fill:rgb(31,181,0)" 
d="M -50.2 -94.7
Q -50.2,-96.1,-50.2,-97.4
Q -50.3,-97.1,-50.5,-96.7
Q -50.7,-96.1,-50.2,-94.7
 " /> 
<path  
style="fill:rgb(4,4,4)" 
d="M -50.2 -101.8
Q -50.2,-103.9,-50.0,-104.0
Q -49.9,-104.0,-49.8,-104.1
Q -50.6,-104.2,-51.4,-104.3
Q -51.9,-100.9,-52.2,-96.5
Q -51.0,-101.9,-50.2,-101.8
 " /> 
<path  
style="fill:rgb(31,181,0)" 
d="M -50.2 -101.8
Q -49.8,-102.0,-49.8,-104.1
Q -49.9,-104.0,-50.0,-104.0
Q -50.2,-103.9,-50.2,-101.8
 " /> 
<path  
style="fill:rgb(31,181,0)" 
d="M -44.4 -116.5
Q -42.9,-117.8,-42.5,-118.2
Q -42.4,-118.5,-42.2,-118.7
Q -43.5,-117.8,-44.4,-116.5
 " /> 
<path  
style="fill:rgb(7,193,201)" 
d="M -49.3 -17.0
Q -50.6,-16.0,-51.6,-14.7
Q -50.3,-15.7,-49.3,-17.0
 " /> 
<path  
style="fill:rgb(14,103,171)" 
d="M -69.3 -85.4
Q -69.3,-88.5,-69.3,-91.6
Q -69.8,-88.5,-69.3,-85.4
 " /> 
<path  
style="fill:rgb(14,103,171)" 
d="M -69.3 -92.1
Q -69.3,-93.4,-69.3,-94.7
Q -69.5,-94.4,-69.6,-94.1
Q -69.8,-93.4,-69.3,-92.1
 " /> 
<path  
style="fill:rgb(7,193,201)" 
d="M -53.3 -135.2
Q -52.0,-136.1,-50.7,-137.8
Q -51.0,-137.6,-51.4,-137.3
Q -52.1,-136.8,-52.7,-136.0
Q -53.0,-135.6,-53.3,-135.2
 " /> 
<path  
style="fill:rgb(4,4,4)" 
d="M -50.7 -137.8
Q -49.6,-138.5,-49.0,-138.5
Q -47.1,-138.5,-47.1,-141.8
Q -47.1,-145.0,-43.8,-151.5
Q -36.5,-166.0,-21.1,-158.8
Q -11.9,-154.4,-6.6,-143.8
Q -6.1,-142.9,-3.4,-142.4
Q -3.2,-143.2,-3.1,-144.0
Q -3.1,-144.0,-3.1,-144.1
Q -4.5,-144.5,-6.4,-147.3
Q -12.7,-156.8,-20.6,-161.0
Q -27.5,-164.7,-30.2,-184.7
Q -30.4,-186.4,-30.7,-188.1
Q -31.0,-187.9,-31.1,-188.1
Q -31.1,-188.4,-31.1,-190.7
Q -31.9,-190.7,-32.8,-190.7
Q -32.7,-187.1,-31.8,-181.2
Q -30.2,-170.5,-27.1,-164.5
Q -26.7,-163.7,-26.3,-162.9
Q -28.4,-162.9,-30.4,-162.9
Q -43.7,-162.7,-48.7,-143.7
Q -49.3,-141.2,-51.7,-139.1
Q -51.7,-139.1,-51.8,-139.1
Q -51.2,-138.5,-50.7,-137.8
 " /> 
<path  
style="fill:rgb(7,193,201)" 
d="M 10.2 -148.1
Q 12.4,-149.9,14.2,-152.1
Q 13.7,-151.6,13.1,-151.2
Q 12.0,-150.3,11.1,-149.2
Q 10.7,-148.6,10.2,-148.1
 " /> 
<path  
style="fill:rgb(14,103,171)" 
d="M 77.3 -86.3
Q 77.3,-85.2,77.3,-84.1
Q 77.8,-85.4,77.6,-85.8
Q 77.5,-86.1,77.3,-86.3
 " /> 
<path  
style="fill:rgb(14,103,171)" 
d="M 77.8 -78.3
Q 77.8,-76.3,77.8,-74.3
Q 78.2,-76.5,78.0,-77.4
Q 77.9,-77.8,77.8,-78.3
 " /> 
<path  
style="fill:rgb(14,103,171)" 
d="M 61.3 -29.0
Q 59.6,-27.6,58.9,-26.7
Q 58.6,-26.3,58.2,-25.8
Q 58.7,-26.2,59.1,-26.5
Q 60.0,-27.2,60.7,-28.1
Q 61.0,-28.5,61.3,-29.0
 " /> 
<path  
style="fill:rgb(7,193,201)" 
d="M 39.6 -6.7
Q 39.6,-5.6,39.6,-4.5
Q 40.0,-5.8,39.6,-6.7
 " /> 
<path  
style="fill:rgb(14,103,171)" 
d="M 12.4 -5.4
Q 11.3,-5.4,10.2,-5.4
Q 10.5,-5.3,10.9,-5.1
Q 11.5,-4.9,12.4,-5.4
 " /> 
<path  
style="fill:rgb(14,103,171)" 
d="M 4.4 -5.0
Q 2.2,-5.0,0.0,-5.0
Q 0.6,-4.8,1.1,-4.7
Q 2.2,-4.5,4.4,-5.0
 " /> 
<path  
style="fill:rgb(4,4,4)" 
d="M 5.3 -144.1
Q 4.3,-143.0,3.1,-143.6
Q 1.8,-143.6,0.4,-143.6
Q 0.4,-142.9,0.4,-142.1
Q 6.0,-141.8,6.1,-142.3
Q 6.1,-142.4,6.6,-143.2
Q 6.0,-143.6,5.3,-144.1
 " /> 
<path  
style="fill:rgb(14,103,171)" 
d="M 5.3 -144.1
Q 4.8,-143.7,3.1,-143.6
Q 4.3,-143.0,5.3,-144.1
 " /> 
<path  
style="fill:rgb(7,193,201)" 
d="M 5.3 -144.1
Q 5.8,-144.8,6.2,-145.6
Q 7.1,-147.2,8.2,-148.5
Q 8.8,-149.2,9.3,-149.8
Q 9.8,-150.4,10.2,-150.9
Q 11.1,-152.0,13.3,-153.8
Q 14.4,-154.6,15.6,-155.4
Q 21.6,-159.6,26.4,-178.1
Q 27.0,-180.2,27.6,-182.3
Q 27.6,-183.8,27.5,-184.4
Q 27.3,-184.7,27.1,-185.0
Q 24.0,-180.5,22.4,-177.5
Q 20.8,-174.5,19.7,-172.0
Q 16.3,-163.8,15.6,-165.1
Q 15.1,-166.2,18.2,-173.1
Q 20.0,-177.1,17.6,-179.8
Q 13.9,-183.8,12.0,-178.0
Q 9.2,-169.2,8.4,-169.2
Q 7.8,-169.3,8.0,-170.8
Q 8.2,-172.4,10.7,-180.1
Q 10.3,-180.3,9.8,-180.6
Q 9.0,-181.2,9.6,-181.7
Q 9.9,-182.0,10.2,-182.3
Q 10.6,-182.5,10.9,-182.7
Q 13.0,-184.1,14.3,-198.0
Q 12.6,-196.3,8.5,-181.6
Q 7.7,-178.5,7.1,-178.6
Q 6.5,-178.6,6.7,-180.1
Q 6.9,-181.7,8.0,-186.7
Q 8.0,-188.3,8.0,-189.8
Q 7.9,-190.5,7.8,-191.2
Q 7.6,-192.5,6.7,-194.5
Q 6.2,-195.5,5.8,-196.5
Q 5.3,-196.8,4.9,-197.2
Q 4.2,-197.7,3.7,-198.3
Q 3.2,-197.8,2.7,-197.4
Q 3.0,-197.5,3.1,-197.3
Q 3.2,-197.0,3.1,-195.2
Q 3.0,-191.6,2.9,-188.0
Q 2.9,-187.2,2.8,-186.3
Q 2.8,-184.5,2.7,-183.1
Q 2.7,-181.4,2.6,-180.2
Q 2.5,-177.5,2.2,-177.4
Q 2.0,-177.4,1.8,-177.4
Q 1.6,-177.4,1.5,-177.3
Q 1.4,-177.3,1.3,-177.5
Q 1.3,-177.8,1.3,-181.8
Q 1.3,-182.5,1.3,-183.2
Q 1.3,-185.6,1.3,-188.1
Q 1.3,-191.0,1.3,-193.8
Q 1.2,-193.8,1.1,-193.8
Q 0.9,-193.7,0.9,-194.0
Q 0.8,-194.2,0.9,-197.4
Q 0.9,-198.7,0.9,-200.1
Q 0.5,-199.9,0.4,-200.2
Q 0.4,-200.4,0.4,-202.7
Q 0.2,-204.5,0.0,-206.3
Q -1.3,-216.5,-2.9,-217.1
Q -4.4,-217.7,-5.8,-203.6
Q -5.6,-203.2,-5.5,-202.7
Q -5.3,-201.8,-5.8,-200.5
Q -5.8,-198.7,-5.8,-197.0
Q -5.6,-197.0,-5.5,-197.0
Q -5.3,-197.1,-5.3,-192.5
Q -5.3,-191.2,-5.3,-189.8
Q -5.2,-189.9,-5.1,-189.9
Q -4.8,-190.0,-4.9,-187.5
Q -4.9,-186.2,-4.9,-185.0
Q -4.9,-183.6,-4.9,-182.3
Q -4.7,-181.8,-4.6,-181.4
Q -4.3,-180.5,-4.8,-179.8
Q -5.1,-179.5,-5.3,-179.2
Q -5.6,-179.3,-5.8,-179.4
Q -6.3,-179.5,-6.3,-180.0
Q -6.3,-180.3,-6.2,-180.5
Q -6.6,-180.4,-6.7,-180.6
Q -6.7,-180.9,-6.7,-184.1
Q -6.7,-185.6,-6.7,-187.2
Q -6.8,-187.1,-6.9,-187.1
Q -7.0,-187.1,-7.1,-187.3
Q -7.2,-187.6,-7.1,-190.3
Q -7.1,-191.8,-7.1,-193.4
Q -7.6,-196.1,-7.8,-197.4
Q -7.9,-198.1,-8.0,-198.7
Q -8.6,-198.1,-9.1,-197.4
Q -12.4,-193.5,-9.1,-184.4
Q -7.0,-178.7,-8.5,-178.7
Q -9.5,-178.7,-10.8,-183.6
Q -12.6,-190.0,-14.2,-194.8
Q -14.3,-195.0,-14.3,-195.1
Q -14.9,-194.9,-15.6,-194.7
Q -15.2,-192.6,-14.9,-190.5
Q -13.5,-181.7,-11.8,-174.7
Q -9.5,-165.7,-11.0,-166.5
Q -12.2,-167.1,-15.0,-180.3
Q -16.1,-185.6,-16.3,-185.9
Q -16.5,-186.2,-17.8,-185.6
Q -18.5,-185.3,-19.1,-185.0
Q -19.4,-184.6,-19.7,-184.3
Q -20.2,-183.6,-20.9,-182.7
Q -20.8,-182.1,-20.7,-181.4
Q -20.4,-179.7,-13.9,-168.8
Q -11.0,-164.0,-11.3,-163.3
Q -12.1,-161.2,-20.3,-175.9
Q -30.1,-193.4,-30.4,-193.3
Q -30.5,-193.2,-31.1,-190.7
Q -31.0,-190.8,-30.9,-190.8
Q -30.6,-190.9,-30.6,-189.5
Q -30.6,-189.5,-30.6,-189.5
Q -30.6,-188.8,-30.7,-188.1
Q -30.4,-186.4,-30.2,-184.7
Q -27.5,-164.7,-20.6,-161.0
Q -12.7,-156.8,-6.4,-147.3
Q -4.5,-144.5,-3.1,-144.1
Q -2.2,-144.1,-1.3,-144.1
Q 0.6,-144.1,0.4,-143.6
Q 1.8,-143.6,3.1,-143.6
Q 4.8,-143.7,5.3,-144.1
 " /> 
<path  
style="fill:rgb(14,103,171)" 
d="M -3.1 -144.1
Q -3.1,-144.0,-3.1,-144.0
Q -3.1,-143.6,-1.4,-143.6
Q -0.5,-143.6,0.4,-143.6
Q 0.6,-144.1,-1.3,-144.1
Q -2.2,-144.1,-3.1,-144.1
 " /> 
<path  
style="fill:rgb(4,4,4)" 
d="M 0.4 -143.6
Q -0.5,-143.6,-1.4,-143.6
Q -3.1,-143.6,-3.1,-144.0
Q -3.2,-143.2,-3.4,-142.4
Q -2.0,-142.2,0.0,-142.1
Q 0.2,-142.1,0.4,-142.1
Q 0.4,-142.9,0.4,-143.6
 " /> 
<path  
style="fill:rgb(14,103,171)" 
d="M -30.7 -188.1
Q -30.6,-188.8,-30.6,-189.5
Q -30.9,-190.1,-31.1,-190.7
Q -31.1,-188.4,-31.1,-188.1
Q -31.0,-187.9,-30.7,-188.1
 " /> 
<path  
style="fill:rgb(4,4,4)" 
d="M -31.1 -190.7
Q -30.5,-193.2,-30.4,-193.3
Q -30.1,-193.4,-20.3,-175.9
Q -12.1,-161.2,-11.3,-163.3
Q -11.0,-164.0,-13.9,-168.8
Q -20.4,-179.7,-20.7,-181.4
Q -20.8,-182.1,-20.9,-182.7
Q -20.8,-183.0,-20.6,-183.4
Q -20.4,-184.0,-19.8,-184.5
Q -19.4,-184.7,-19.1,-185.0
Q -19.6,-185.6,-20.1,-186.2
Q -21.1,-185.4,-22.5,-184.0
Q -23.5,-185.9,-24.4,-187.7
Q -28.0,-195.0,-30.5,-196.2
Q -33.0,-197.3,-32.8,-190.7
Q -31.9,-190.7,-31.1,-190.7
 " /> 
<path  
style="fill:rgb(14,103,171)" 
d="M -31.1 -190.7
Q -30.9,-190.1,-30.6,-189.5
Q -30.6,-189.5,-30.6,-189.5
Q -30.6,-190.9,-30.9,-190.8
Q -31.0,-190.8,-31.1,-190.7
 " /> 
<path  
style="fill:rgb(14,103,171)" 
d="M -20.9 -182.7
Q -20.2,-183.6,-19.7,-184.3
Q -19.4,-184.6,-19.1,-185.0
Q -19.4,-184.7,-19.8,-184.5
Q -20.4,-184.0,-20.6,-183.4
Q -20.8,-183.0,-20.9,-182.7
 " /> 
<path  
style="fill:rgb(4,4,4)" 
d="M -19.1 -185.0
Q -18.5,-185.3,-17.8,-185.6
Q -16.5,-186.2,-16.3,-185.9
Q -16.1,-185.6,-15.0,-180.3
Q -12.2,-167.1,-11.0,-166.5
Q -9.5,-165.7,-11.8,-174.7
Q -13.5,-181.7,-14.9,-190.5
Q -15.2,-192.6,-15.6,-194.7
Q -15.9,-194.6,-15.9,-194.8
Q -16.0,-195.0,-16.0,-197.0
Q -16.8,-196.9,-17.5,-196.9
Q -17.5,-194.4,-17.1,-190.5
Q -16.8,-187.8,-18.3,-187.3
Q -19.0,-187.0,-20.1,-186.2
Q -19.6,-185.6,-19.1,-185.0
 " /> 
<path  
style="fill:rgb(14,103,171)" 
d="M -15.6 -194.7
Q -15.5,-197.1,-15.7,-197.0
Q -15.9,-197.0,-16.0,-197.0
Q -16.0,-195.0,-15.9,-194.8
Q -15.9,-194.6,-15.6,-194.7
 " /> 
<path  
style="fill:rgb(7,193,201)" 
d="M -15.6 -194.7
Q -14.9,-194.9,-14.3,-195.1
Q -15.2,-197.6,-15.2,-198.0
Q -15.2,-198.2,-15.2,-198.5
Q -15.6,-197.7,-16.0,-197.0
Q -15.9,-197.0,-15.7,-197.0
Q -15.5,-197.1,-15.6,-194.7
 " /> 
<path  
style="fill:rgb(4,4,4)" 
d="M -16.0 -197.0
Q -15.6,-197.7,-15.2,-198.5
Q -15.2,-198.2,-15.2,-198.0
Q -15.2,-197.6,-14.3,-195.1
Q -14.3,-195.0,-14.2,-194.8
Q -12.6,-190.0,-10.8,-183.6
Q -9.5,-178.7,-8.5,-178.7
Q -7.0,-178.7,-9.1,-184.4
Q -12.4,-193.5,-9.1,-197.4
Q -8.6,-198.1,-8.0,-198.7
Q -7.2,-199.2,-7.0,-199.0
Q -6.9,-198.9,-7.0,-197.0
Q -6.4,-197.0,-5.8,-197.0
Q -5.8,-198.7,-5.8,-200.5
Q -5.8,-202.1,-5.8,-203.6
Q -4.4,-217.7,-2.9,-217.1
Q -1.3,-216.5,0.0,-206.3
Q 0.2,-204.5,0.4,-202.7
Q 0.9,-203.0,0.9,-201.5
Q 0.9,-200.8,0.9,-200.1
Q 0.9,-198.7,0.9,-197.4
Q 1.2,-197.6,1.3,-197.3
Q 1.3,-197.3,1.3,-197.3
Q 2.0,-197.3,2.7,-197.4
Q 2.7,-197.8,2.7,-198.2
Q 2.7,-199.0,2.9,-199.1
Q 3.0,-199.1,3.1,-199.2
Q 3.4,-199.9,3.8,-200.6
Q 3.7,-200.6,3.7,-200.6
Q 2.7,-201.1,2.5,-203.8
Q 2.2,-206.5,1.5,-210.1
Q 0.9,-213.6,0.6,-215.0
Q 0.0,-218.9,-3.2,-219.5
Q -6.8,-220.2,-7.4,-207.5
Q -7.7,-200.9,-9.2,-200.0
Q -10.8,-199.0,-11.6,-197.3
Q -11.9,-196.4,-12.3,-195.5
Q -12.7,-196.6,-13.1,-197.7
Q -14.5,-201.4,-16.7,-201.4
Q -17.7,-201.4,-17.5,-196.9
Q -16.8,-196.9,-16.0,-197.0
 " /> 
<path  
style="fill:rgb(14,103,171)" 
d="M -8.0 -198.7
Q -7.9,-198.1,-7.8,-197.4
Q -7.6,-196.1,-7.1,-193.4
Q -7.1,-194.9,-7.0,-196.4
Q -7.0,-196.7,-7.0,-197.0
Q -6.9,-198.9,-7.0,-199.0
Q -7.2,-199.2,-8.0,-198.7
 " /> 
<path  
style="fill:rgb(4,4,4)" 
d="M -7.1 -193.4
Q -6.4,-193.4,-5.8,-193.4
Q -5.8,-194.5,-5.8,-197.0
Q -6.4,-197.0,-7.0,-197.0
Q -7.0,-196.7,-7.0,-196.4
Q -7.1,-194.9,-7.1,-193.4
 " /> 
<path  
style="fill:rgb(4,4,4)" 
d="M -7.1 -193.4
Q -7.1,-191.8,-7.1,-190.3
Q -6.8,-190.5,-6.7,-190.2
Q -6.7,-190.1,-6.7,-189.8
Q -6.0,-189.8,-5.3,-189.8
Q -5.3,-191.2,-5.3,-192.5
Q -5.7,-192.3,-5.7,-192.6
Q -5.7,-192.7,-5.8,-193.4
Q -6.4,-193.4,-7.1,-193.4
 " /> 
<path  
style="fill:rgb(14,103,171)" 
d="M -7.1 -190.3
Q -7.2,-187.6,-7.1,-187.3
Q -7.0,-187.1,-6.9,-187.1
Q -6.8,-187.1,-6.7,-187.2
Q -6.7,-188.0,-6.7,-188.8
Q -6.7,-189.4,-6.7,-189.8
Q -6.7,-190.1,-6.7,-190.2
Q -6.8,-190.5,-7.1,-190.3
 " /> 
<path  
style="fill:rgb(4,4,4)" 
d="M -6.7 -187.2
Q -6.0,-187.2,-5.3,-187.2
Q -5.3,-188.2,-5.3,-189.8
Q -6.0,-189.8,-6.7,-189.8
Q -6.7,-189.4,-6.7,-188.8
Q -6.7,-188.0,-6.7,-187.2
 " /> 
<path  
style="fill:rgb(4,4,4)" 
d="M -6.7 -187.2
Q -6.7,-185.6,-6.7,-184.1
Q -6.0,-184.5,-5.2,-184.9
Q -5.3,-185.0,-5.3,-185.0
Q -5.3,-185.2,-5.3,-187.2
Q -6.0,-187.2,-6.7,-187.2
 " /> 
<path  
style="fill:rgb(4,4,4)" 
d="M -6.7 -184.1
Q -6.4,-184.2,-6.3,-184.1
Q -5.6,-184.5,-4.9,-185.0
Q -5.2,-184.8,-5.2,-184.9
Q -6.0,-184.5,-6.7,-184.1
 " /> 
<path  
style="fill:rgb(14,103,171)" 
d="M -6.7 -184.1
Q -6.7,-180.9,-6.7,-180.6
Q -6.6,-180.4,-6.2,-180.5
Q -6.2,-181.5,-6.2,-182.3
Q -6.2,-183.8,-6.3,-184.0
Q -6.3,-184.0,-6.3,-184.1
Q -6.4,-184.2,-6.7,-184.1
 " /> 
<path  
style="fill:rgb(4,4,4)" 
d="M -6.2 -180.5
Q -5.8,-179.8,-5.3,-179.2
Q -5.3,-179.3,-5.2,-179.5
Q -5.1,-179.7,-5.0,-181.0
Q -4.9,-181.7,-4.9,-182.3
Q -5.6,-182.3,-6.2,-182.3
Q -6.2,-181.5,-6.2,-180.5
 " /> 
<path  
style="fill:rgb(4,4,4)" 
d="M -6.2 -180.5
Q -6.3,-180.3,-6.3,-180.0
Q -6.3,-179.5,-5.8,-179.4
Q -5.6,-179.3,-5.3,-179.2
Q -5.8,-179.8,-6.2,-180.5
 " /> 
<path  
style="fill:rgb(14,103,171)" 
d="M -5.3 -179.2
Q -5.1,-179.5,-4.8,-179.8
Q -4.3,-180.5,-4.6,-181.4
Q -4.7,-181.8,-4.9,-182.3
Q -4.9,-181.7,-5.0,-181.0
Q -5.1,-179.7,-5.2,-179.5
Q -5.3,-179.3,-5.3,-179.2
 " /> 
<path  
style="fill:rgb(4,4,4)" 
d="M -4.9 -182.3
Q -4.9,-183.6,-4.9,-185.0
Q -5.6,-184.5,-6.3,-184.1
Q -6.3,-184.0,-6.3,-184.0
Q -6.2,-183.8,-6.2,-182.3
Q -5.6,-182.3,-4.9,-182.3
 " /> 
<path  
style="fill:rgb(14,103,171)" 
d="M -4.9 -185.0
Q -4.9,-186.2,-4.9,-187.5
Q -4.8,-190.0,-5.1,-189.9
Q -5.2,-189.9,-5.3,-189.8
Q -5.3,-188.2,-5.3,-187.2
Q -5.3,-185.2,-5.3,-185.0
Q -5.3,-185.0,-5.2,-184.9
Q -5.2,-184.8,-4.9,-185.0
 " /> 
<path  
style="fill:rgb(14,103,171)" 
d="M -5.3 -192.5
Q -5.3,-197.1,-5.5,-197.0
Q -5.6,-197.0,-5.8,-197.0
Q -5.8,-194.5,-5.8,-193.4
Q -5.7,-192.7,-5.7,-192.6
Q -5.7,-192.3,-5.3,-192.5
 " /> 
<path  
style="fill:rgb(14,103,171)" 
d="M -5.8 -200.5
Q -5.3,-201.8,-5.5,-202.7
Q -5.6,-203.2,-5.8,-203.6
Q -5.8,-202.1,-5.8,-200.5
 " /> 
<path  
style="fill:rgb(14,103,171)" 
d="M 0.4 -202.7
Q 0.4,-200.4,0.4,-200.2
Q 0.5,-199.9,0.9,-200.1
Q 0.9,-200.8,0.9,-201.5
Q 0.9,-203.0,0.4,-202.7
 " /> 
<path  
style="fill:rgb(14,103,171)" 
d="M 0.9 -197.4
Q 0.8,-194.2,0.9,-194.0
Q 0.9,-193.7,1.1,-193.8
Q 1.2,-193.8,1.3,-193.8
Q 1.3,-196.8,1.3,-197.3
Q 1.3,-197.3,1.3,-197.3
Q 1.2,-197.6,0.9,-197.4
 " /> 
<path  
style="fill:rgb(4,4,4)" 
d="M 1.3 -193.8
Q 1.3,-191.0,1.3,-188.1
Q 2.1,-188.0,2.9,-188.0
Q 3.0,-191.6,3.1,-195.2
Q 2.8,-195.0,2.7,-195.2
Q 2.7,-195.5,2.7,-197.4
Q 2.0,-197.3,1.3,-197.3
Q 1.3,-196.8,1.3,-193.8
 " /> 
<path  
style="fill:rgb(4,4,4)" 
d="M 1.3 -188.1
Q 1.4,-187.5,1.6,-187.0
Q 1.8,-185.8,1.3,-183.2
Q 2.0,-183.1,2.7,-183.1
Q 2.8,-184.5,2.8,-186.3
Q 2.9,-187.2,2.9,-188.0
Q 2.1,-188.0,1.3,-188.1
 " /> 
<path  
style="fill:rgb(14,103,171)" 
d="M 1.3 -188.1
Q 1.3,-185.6,1.3,-183.2
Q 1.8,-185.8,1.6,-187.0
Q 1.4,-187.5,1.3,-188.1
 " /> 
<path  
style="fill:rgb(4,4,4)" 
d="M 1.3 -183.2
Q 1.3,-182.5,1.3,-181.8
Q 1.4,-181.9,1.5,-181.8
Q 2.1,-181.8,2.7,-181.8
Q 2.7,-183.3,2.8,-185.3
Q 2.0,-183.1,1.3,-183.2
 " /> 
<path  
style="fill:rgb(14,103,171)" 
d="M 1.3 -181.8
Q 1.3,-177.8,1.3,-177.5
Q 1.4,-177.3,1.5,-177.3
Q 1.6,-177.4,1.8,-177.4
Q 1.8,-178.6,1.8,-179.7
Q 1.8,-181.6,1.5,-181.8
Q 1.4,-181.8,1.3,-181.8
 " /> 
<path  
style="fill:rgb(4,4,4)" 
d="M 1.8 -177.4
Q 2.0,-177.4,2.2,-177.4
Q 2.5,-177.5,2.7,-181.8
Q 2.1,-181.8,1.5,-181.8
Q 1.8,-181.6,1.8,-179.7
Q 1.8,-178.6,1.8,-177.4
 " /> 
<path  
style="fill:rgb(14,103,171)" 
d="M 3.1 -195.2
Q 3.2,-197.0,3.1,-197.3
Q 3.0,-197.5,2.7,-197.4
Q 2.7,-195.5,2.7,-195.2
Q 2.8,-195.0,3.1,-195.2
 " /> 
<path  
style="fill:rgb(7,193,201)" 
d="M 2.7 -197.4
Q 3.2,-197.8,3.7,-198.3
Q 3.6,-198.4,3.6,-198.5
Q 3.3,-198.8,3.1,-199.2
Q 3.0,-199.1,2.9,-199.1
Q 2.7,-199.0,2.7,-198.2
Q 2.7,-197.8,2.7,-197.4
 " /> 
<path  
style="fill:rgb(4,4,4)" 
d="M 3.1 -199.2
Q 4.4,-198.3,5.8,-196.5
Q 6.5,-197.0,7.2,-197.4
Q 5.7,-199.7,3.8,-200.6
Q 3.4,-199.9,3.1,-199.2
 " /> 
<path  
style="fill:rgb(14,103,171)" 
d="M 3.1 -199.2
Q 3.3,-198.8,3.6,-198.5
Q 3.6,-198.4,3.7,-198.3
Q 4.2,-197.7,4.9,-197.2
Q 5.3,-196.8,5.8,-196.5
Q 4.4,-198.3,3.1,-199.2
 " /> 
<path  
style="fill:rgb(14,103,171)" 
d="M 8.0 -189.8
Q 8.0,-188.3,8.0,-186.7
Q 8.5,-188.5,8.2,-189.2
Q 8.1,-189.5,8.0,-189.8
 " /> 
<path  
style="fill:rgb(14,103,171)" 
d="M 10.2 -182.3
Q 9.9,-182.0,9.6,-181.7
Q 9.0,-181.2,9.8,-180.6
Q 10.3,-180.3,10.7,-180.1
Q 11.1,-181.0,10.4,-181.0
Q 9.8,-181.0,10.2,-182.3
 " /> 
<path  
style="fill:rgb(14,103,171)" 
d="M 27.1 -185.0
Q 27.4,-185.1,27.5,-184.9
Q 27.5,-184.8,27.5,-184.4
Q 27.7,-184.2,27.9,-183.9
Q 28.1,-185.1,28.1,-185.3
Q 28.0,-185.4,27.1,-185.0
 " /> 
<path  
style="fill:rgb(7,193,201)" 
d="M 27.1 -185.0
Q 27.3,-184.7,27.5,-184.4
Q 27.5,-184.8,27.5,-184.9
Q 27.4,-185.1,27.1,-185.0
 " /> 
<path  
style="fill:rgb(14,103,171)" 
d="M 27.6 -182.3
Q 27.7,-183.1,27.9,-183.9
Q 27.9,-183.9,27.9,-183.9
Q 27.7,-184.2,27.5,-184.4
Q 27.6,-183.8,27.6,-182.3
 " /> 
<path  
style="fill:rgb(14,103,171)" 
d="M 13.3 -153.8
Q 11.1,-152.0,10.2,-150.9
Q 9.8,-150.4,9.3,-149.8
Q 9.9,-150.3,10.4,-150.7
Q 11.5,-151.6,13.3,-153.8
 " /> 
</g> 
</svg> 
