<?xml version="1.0"?>
<!DOCTYPE svg PUBLIC "-//W3C//DTD SVG 1.1//EN" "http://www.w3.org/Graphics/SVG/1.1/DTD/svg11.dtd">
<svg xmlns="http://www.w3.org/2000/svg" version="1.1">
<g transform="translate(113.1,215.9)" stroke-width="0" fill="none" >
<path  
style="fill:rgb(4,4,4)" 
d="M -36.9 220.6
Q -35.4,222.2,-30.3,220.7
Q -27.3,219.8,-21.3,218.4
Q 1.0,213.3,13.1,207.2
Q 15.8,205.9,18.4,204.8
Q 24.3,202.3,27.3,199.8
Q 28.3,199.0,31.5,196.9
Q 62.2,176.8,47.1,143.1
Q 46.3,141.3,45.3,138.9
Q 44.4,136.4,43.3,134.2
Q 36.6,119.5,34.4,106.2
Q 33.7,102.2,33.1,99.1
Q 32.5,96.0,32.2,92.7
Q 32.1,91.0,32.0,89.4
Q 32.5,89.9,33.0,90.5
Q 34.1,91.6,36.0,92.5
Q 47.2,97.7,53.3,89.8
Q 57.4,84.5,56.2,66.4
Q 55.3,52.1,44.4,33.8
Q 37.7,22.3,33.3,10.9
Q 30.4,3.2,28.1,0.3
Q 26.1,-2.2,26.5,-2.4
Q 30.1,-3.9,31.0,-0.3
Q 34.3,11.6,38.2,10.0
Q 42.4,8.3,42.2,-3.1
Q 42.1,-7.4,44.2,-9.6
Q 46.0,-11.5,46.3,-11.5
Q 46.9,-11.6,47.3,-8.7
Q 48.4,-1.6,51.3,-0.1
Q 54.9,1.6,57.5,-6.4
Q 58.7,-9.9,58.8,-14.9
Q 59.0,-24.2,66.6,-25.9
Q 88.3,-30.8,102.8,-41.9
Q 113.0,-49.6,113.1,-55.0
Q 113.1,-59.4,105.1,-55.1
Q 101.3,-53.0,100.9,-53.2
Q 99.9,-53.5,107.1,-62.4
Q 126.7,-86.4,126.7,-102.9
Q 126.7,-108.2,123.8,-108.2
Q 121.0,-108.2,113.3,-98.2
Q 113.9,-100.4,115.4,-104.7
Q 121.9,-122.2,122.4,-130.7
Q 123.5,-146.8,118.2,-148.2
Q 114.1,-149.3,106.2,-130.9
Q 104.8,-127.6,102.7,-123.1
Q 101.3,-126.6,100.2,-130.8
Q 94.6,-153.4,88.0,-155.4
Q 82.5,-157.0,81.6,-141.8
Q 81.1,-133.9,77.9,-136.1
Q 77.2,-136.5,75.0,-138.9
Q 72.0,-142.2,71.3,-142.4
Q 68.7,-143.0,70.2,-136.2
Q 71.0,-133.1,71.0,-132.5
Q 71.2,-130.3,64.9,-136.0
Q 62.5,-138.2,61.3,-138.4
Q 58.5,-138.8,59.9,-134.6
Q 60.8,-131.6,59.7,-131.0
Q 54.3,-128.2,52.2,-133.8
Q 46.8,-148.6,36.6,-153.3
Q 29.4,-156.6,21.4,-155.3
Q 22.1,-156.9,22.8,-158.5
Q 33.4,-184.5,27.3,-184.4
Q 25.7,-184.4,22.0,-178.4
Q 20.1,-175.3,19.9,-176.1
Q 19.2,-178.9,15.2,-179.9
Q 13.9,-180.2,13.7,-180.6
Q 13.3,-181.1,15.1,-188.7
Q 17.2,-197.6,14.2,-197.8
Q 11.9,-198.0,9.0,-189.4
Q 5.6,-196.1,3.1,-197.1
Q 1.9,-197.6,1.6,-200.1
Q 0.2,-213.4,-2.9,-215.4
Q -8.4,-218.8,-8.4,-199.3
Q -8.4,-197.3,-9.8,-196.4
Q -11.3,-195.5,-11.8,-194.4
Q -12.4,-193.3,-12.9,-191.6
Q -13.3,-192.6,-13.6,-193.6
Q -14.8,-197.7,-16.9,-197.7
Q -19.1,-197.8,-18.2,-191.3
Q -17.3,-185.0,-17.6,-184.4
Q -17.9,-183.9,-18.8,-183.6
Q -20.3,-182.9,-21.7,-181.8
Q -23.0,-180.7,-24.2,-183.0
Q -31.2,-196.1,-33.1,-191.0
Q -33.6,-189.6,-33.3,-185.7
Q -32.1,-171.8,-27.9,-162.5
Q -26.7,-159.7,-26.9,-159.5
Q -27.1,-159.4,-30.3,-159.4
Q -43.6,-159.3,-48.7,-139.8
Q -49.2,-137.5,-52.6,-134.1
Q -52.1,-133.6,-51.6,-133.1
Q -50.9,-133.6,-50.3,-134.2
Q -49.1,-135.2,-48.6,-135.1
Q -47.3,-134.6,-46.9,-138.9
Q -46.6,-142.2,-43.6,-148.3
Q -39.2,-157.3,-30.0,-157.3
Q -23.4,-157.2,-16.0,-152.2
Q -13.8,-150.4,-12.0,-148.2
Q -11.1,-147.0,-10.2,-145.8
Q -8.4,-143.3,-7.5,-141.8
Q -6.7,-140.2,-4.9,-138.9
Q -4.5,-139.0,-4.2,-139.1
Q -3.5,-139.4,-2.7,-139.1
Q -2.2,-139.0,-1.8,-138.9
Q -1.7,-139.6,-1.6,-140.2
Q -1.9,-140.3,-1.9,-140.4
Q -1.8,-140.5,-1.8,-140.7
Q -2.4,-140.7,-3.1,-140.7
Q -4.4,-140.7,-5.7,-142.8
Q -12.2,-153.5,-21.4,-157.8
Q -28.1,-160.8,-30.9,-182.9
Q -31.0,-183.8,-31.1,-184.7
Q -31.4,-184.5,-31.5,-184.7
Q -31.6,-185.0,-31.6,-186.9
Q -31.2,-189.2,-31.1,-189.6
Q -30.9,-190.3,-28.8,-186.8
Q -24.0,-178.4,-22.7,-175.8
Q -21.4,-173.3,-19.7,-170.6
Q -17.9,-168.0,-15.1,-163.7
Q -12.4,-159.3,-12.0,-159.3
Q -10.5,-159.3,-15.3,-167.4
Q -21.0,-176.8,-21.2,-177.8
Q -21.8,-180.9,-17.5,-182.2
Q -16.6,-182.5,-16.0,-179.9
Q -14.8,-174.1,-12.3,-165.1
Q -11.7,-163.2,-11.1,-163.2
Q -10.1,-163.2,-12.7,-173.7
Q -13.4,-176.4,-13.8,-178.7
Q -14.2,-180.9,-15.1,-185.3
Q -16.0,-189.8,-16.3,-192.2
Q -16.4,-193.4,-16.5,-194.7
Q -14.6,-190.8,-12.4,-183.8
Q -9.7,-175.2,-8.9,-175.0
Q -7.3,-174.4,-9.8,-181.9
Q -10.7,-184.7,-11.1,-188.7
Q -11.6,-189.6,-11.4,-190.2
Q -11.2,-190.6,-11.1,-190.9
Q -10.6,-193.0,-9.7,-194.2
Q -8.4,-195.9,-8.1,-195.0
Q -8.0,-194.7,-8.0,-190.4
Q -7.7,-190.6,-7.6,-190.1
Q -6.9,-190.3,-6.2,-190.4
Q -6.2,-192.7,-6.2,-194.9
Q -6.7,-198.9,-6.4,-200.9
Q -6.3,-201.9,-6.2,-202.9
Q -6.1,-204.8,-6.0,-206.7
Q -5.6,-213.6,-4.2,-213.6
Q -2.8,-213.6,-1.8,-208.1
Q -1.3,-205.6,-0.9,-203.3
Q -0.4,-201.1,0.0,-196.2
Q 0.3,-196.4,0.4,-196.2
Q 0.4,-195.9,0.4,-193.6
Q 0.4,-192.7,0.4,-191.8
Q 0.8,-191.9,0.8,-191.7
Q 0.8,-191.6,0.9,-191.3
Q 1.5,-191.3,2.2,-191.3
Q 2.3,-192.4,2.4,-193.4
Q 2.4,-194.4,2.5,-195.4
Q 3.1,-194.9,3.8,-194.4
Q 6.5,-192.1,7.3,-187.3
Q 7.4,-186.7,7.6,-186.0
Q 8.0,-184.7,7.8,-184.0
Q 7.7,-183.7,7.6,-183.3
Q 6.5,-177.9,6.2,-176.3
Q 6.0,-175.6,6.9,-175.6
Q 7.8,-175.6,8.8,-180.9
Q 9.3,-183.1,10.0,-185.6
Q 12.4,-193.9,13.0,-194.2
Q 14.1,-194.9,13.4,-190.8
Q 11.2,-179.3,10.4,-179.3
Q 8.5,-179.3,9.8,-177.3
Q 10.2,-176.4,8.9,-172.1
Q 7.1,-166.3,8.2,-166.3
Q 8.9,-166.2,9.8,-169.0
Q 10.7,-171.8,12.9,-178.0
Q 13.8,-178.5,14.4,-178.3
Q 14.8,-178.1,15.1,-178.0
Q 20.5,-176.5,17.6,-169.0
Q 15.3,-162.9,15.6,-162.2
Q 16.3,-160.9,19.2,-168.0
Q 22.7,-176.3,25.6,-180.0
Q 26.3,-181.0,27.1,-182.0
Q 27.6,-180.7,27.4,-179.8
Q 27.2,-179.3,27.1,-178.9
Q 25.8,-173.1,24.6,-169.7
Q 22.9,-164.4,19.1,-155.3
Q 17.8,-153.6,16.0,-152.2
Q 12.9,-150.4,11.8,-149.1
Q 11.2,-148.4,10.7,-147.8
Q 10.4,-147.4,10.1,-147.1
Q 9.5,-146.4,9.0,-146.0
Q 8.7,-145.8,8.4,-145.6
Q 4.8,-140.4,2.6,-140.3
Q 1.5,-140.3,0.4,-140.2
Q 0.4,-139.5,0.4,-138.9
Q 5.3,-138.9,5.9,-139.2
Q 6.6,-139.6,8.0,-141.6
Q 12.7,-148.5,18.1,-151.3
Q 20.9,-152.7,24.4,-153.6
Q 25.8,-154.1,26.4,-153.8
Q 26.8,-153.7,27.1,-153.6
Q 28.2,-153.4,29.3,-153.3
Q 31.5,-153.1,34.0,-152.0
Q 36.4,-150.9,40.9,-148.2
Q 41.3,-147.9,41.8,-147.5
Q 42.6,-146.9,43.3,-146.0
Q 43.7,-145.6,44.0,-145.1
Q 45.0,-143.6,46.0,-142.0
Q 48.1,-138.9,49.3,-135.7
Q 50.6,-132.5,50.5,-132.3
Q 50.4,-132.2,48.0,-133.2
Q 45.7,-134.1,45.2,-133.6
Q 44.2,-132.6,50.1,-129.6
Q 54.7,-127.3,57.6,-125.1
Q 59.0,-124.0,60.4,-122.9
Q 60.8,-122.7,61.1,-122.4
Q 61.8,-122.0,62.4,-121.1
Q 62.8,-120.7,63.1,-120.2
Q 64.2,-118.8,65.3,-117.3
Q 74.0,-105.9,76.0,-87.1
Q 76.2,-85.0,76.4,-82.9
Q 76.8,-83.0,76.8,-82.7
Q 76.9,-82.5,76.9,-80.2
Q 77.0,-77.2,77.1,-74.2
Q 77.8,-52.4,68.5,-36.2
Q 66.7,-33.1,61.3,-26.0
Q 60.0,-24.2,59.1,-23.6
Q 58.7,-23.2,58.2,-22.9
Q 57.8,-23.9,57.3,-25.0
Q 54.2,-31.8,53.6,-31.6
Q 53.0,-31.4,54.7,-26.4
Q 55.3,-24.4,56.0,-22.4
Q 56.3,-22.5,56.4,-22.3
Q 56.4,-22.0,56.4,-20.2
Q 56.4,-20.0,56.4,-19.8
Q 56.6,-19.8,56.7,-19.8
Q 56.9,-19.9,56.9,-17.6
Q 56.7,-16.2,56.6,-14.8
Q 55.1,-1.5,52.6,-2.1
Q 50.6,-2.6,48.9,-10.5
Q 47.4,-17.7,45.1,-24.1
Q 44.5,-25.7,43.7,-25.2
Q 42.7,-24.6,45.6,-16.4
Q 46.2,-14.6,41.7,-11.0
Q 40.9,-10.4,40.2,-12.1
Q 36.6,-20.4,35.7,-20.5
Q 34.5,-20.6,36.4,-16.7
Q 42.8,-4.0,38.8,6.0
Q 36.9,10.9,33.2,-0.2
Q 28.4,-15.0,27.0,-13.6
Q 26.6,-13.2,27.7,-10.4
Q 29.8,-5.2,28.1,-5.2
Q 26.9,-5.1,22.5,-4.0
Q 18.2,-2.9,12.0,-2.0
Q 11.1,-1.5,10.4,-1.7
Q 10.1,-1.9,9.8,-2.0
Q 8.1,-1.5,6.1,-1.5
Q 5.0,-1.5,4.0,-1.6
Q 3.5,-1.4,3.1,-1.3
Q 2.2,-1.1,0.0,-1.6
Q -2.4,-1.8,-4.8,-2.1
Q -9.7,-2.6,-16.3,-3.9
Q -16.0,-4.5,-15.6,-5.1
Q -14.8,-6.3,-13.6,-7.9
Q -12.3,-9.6,-12.8,-10.1
Q -13.4,-10.7,-16.5,-7.3
Q -19.6,-4.0,-20.3,-2.6
Q -21.9,0.8,-29.6,8.5
Q -37.4,16.3,-37.4,9.5
Q -37.4,3.1,-31.0,-7.5
Q -29.6,-9.7,-29.1,-11.3
Q -28.5,-12.9,-27.8,-14.7
Q -26.3,-18.1,-27.5,-18.2
Q -28.1,-18.2,-30.0,-13.7
Q -31.1,-11.1,-35.3,-14.9
Q -36.2,-15.7,-34.4,-18.3
Q -31.7,-22.4,-32.9,-21.9
Q -33.5,-21.7,-35.9,-18.8
Q -38.3,-16.0,-39.1,-14.4
Q -39.9,-12.8,-42.2,-9.3
Q -51.8,5.1,-55.2,5.8
Q -59.1,6.6,-56.6,-1.3
Q -54.9,-6.7,-46.9,-15.3
Q -37.7,-25.3,-39.1,-26.6
Q -39.6,-27.1,-40.4,-26.0
Q -41.2,-24.9,-44.6,-20.6
Q -54.2,-31.1,-58.9,-41.8
Q -66.5,-59.5,-68.2,-75.8
Q -68.6,-78.9,-68.9,-82.0
Q -69.4,-84.2,-68.9,-86.4
Q -68.8,-89.2,-68.6,-92.0
Q -68.0,-106.2,-62.7,-117.1
Q -58.1,-126.6,-54.4,-128.8
Q -52.4,-130.0,-52.9,-130.9
Q -52.9,-131.8,-52.2,-132.5
Q -51.9,-132.8,-51.6,-133.1
Q -52.1,-133.6,-52.6,-134.1
Q -54.6,-132.0,-57.5,-129.6
Q -59.0,-128.4,-60.2,-129.3
Q -61.8,-130.5,-60.9,-147.6
Q -60.1,-162.4,-64.4,-162.4
Q -65.3,-162.4,-67.3,-160.2
Q -69.3,-158.0,-70.1,-155.4
Q -71.0,-152.9,-72.2,-149.7
Q -74.3,-143.6,-75.6,-132.9
Q -76.6,-144.1,-79.0,-144.6
Q -82.5,-145.2,-84.2,-131.6
Q -84.5,-129.4,-84.7,-127.2
Q -85.0,-128.4,-85.3,-129.6
Q -85.8,-132.0,-86.0,-133.3
Q -86.9,-140.0,-90.1,-151.3
Q -91.5,-156.4,-93.9,-159.1
Q -98.0,-163.8,-100.9,-157.0
Q -105.2,-146.9,-97.3,-122.2
Q -93.3,-109.8,-94.6,-110.6
Q -95.8,-111.2,-99.3,-120.2
Q -102.4,-128.0,-104.6,-131.2
Q -105.2,-130.8,-105.8,-130.4
Q -102.6,-122.9,-101.5,-119.7
Q -97.7,-109.0,-94.7,-107.7
Q -92.4,-106.8,-92.4,-109.1
Q -92.4,-110.9,-92.4,-112.7
Q -93.6,-118.4,-95.0,-122.8
Q -100.9,-140.3,-99.8,-151.9
Q -99.0,-160.6,-96.0,-158.5
Q -92.1,-155.8,-88.0,-132.9
Q -86.2,-122.9,-84.5,-122.9
Q -83.0,-122.9,-82.5,-127.8
Q -80.9,-143.8,-79.1,-141.6
Q -78.7,-141.1,-78.2,-138.0
Q -77.8,-138.2,-77.8,-136.3
Q -77.8,-135.4,-77.8,-134.4
Q -77.7,-131.9,-77.6,-129.3
Q -77.4,-121.6,-75.7,-123.5
Q -75.2,-124.1,-72.9,-137.1
Q -71.1,-147.7,-68.0,-154.9
Q -67.3,-156.4,-66.7,-158.0
Q -66.1,-158.6,-65.5,-159.3
Q -64.3,-160.6,-63.9,-160.0
Q -63.8,-159.6,-63.6,-159.3
Q -63.3,-158.1,-63.1,-156.9
Q -62.6,-154.4,-62.7,-152.4
Q -62.7,-151.4,-62.7,-150.4
Q -62.7,-149.4,-62.7,-148.3
Q -62.7,-146.2,-62.9,-146.1
Q -63.0,-146.0,-63.1,-146.0
Q -63.1,-143.3,-63.1,-140.7
Q -63.1,-139.9,-63.1,-139.2
Q -63.2,-137.7,-63.6,-137.6
Q -63.6,-135.8,-63.6,-134.0
Q -63.2,-134.2,-63.2,-133.9
Q -63.1,-133.7,-63.1,-131.3
Q -62.8,-128.1,-60.5,-126.9
Q -59.5,-126.4,-61.1,-124.0
Q -62.7,-121.6,-66.2,-114.9
Q -66.3,-113.7,-66.5,-113.6
Q -66.6,-113.6,-66.7,-113.6
Q -68.9,-106.9,-69.3,-104.4
Q -69.6,-103.2,-69.8,-102.0
Q -69.8,-101.3,-69.8,-100.5
Q -69.8,-100.4,-69.8,-100.2
Q -69.9,-99.0,-70.2,-98.9
Q -70.4,-96.7,-70.7,-94.4
Q -71.1,-90.0,-71.1,-87.1
Q -71.1,-85.7,-71.1,-84.2
Q -71.1,-83.6,-71.1,-82.9
Q -71.1,-81.3,-71.1,-79.8
Q -70.8,-79.9,-70.7,-79.7
Q -70.7,-79.5,-70.7,-76.2
Q -70.6,-74.9,-70.4,-73.6
Q -70.2,-70.9,-69.8,-69.1
Q -69.6,-68.2,-69.3,-67.3
Q -69.3,-66.9,-69.3,-66.4
Q -68.7,-63.8,-68.0,-61.1
Q -66.7,-55.8,-63.6,-47.3
Q -62.0,-43.1,-60.4,-38.9
Q -59.7,-37.8,-59.8,-38.0
Q -60.1,-38.4,-60.4,-38.9
Q -58.9,-36.2,-58.1,-34.8
Q -56.8,-32.1,-54.5,-29.0
Q -52.8,-26.5,-52.6,-26.2
Q -51.9,-24.6,-61.6,-27.3
Q -79.1,-32.2,-93.4,-43.7
Q -102.2,-50.8,-108.5,-64.0
Q -112.6,-72.6,-109.8,-72.1
Q -108.4,-71.8,-104.0,-69.6
Q -102.7,-69.1,-102.2,-68.7
Q -102.0,-68.4,-101.8,-68.2
Q -92.5,-62.8,-91.3,-63.9
Q -90.0,-65.1,-94.4,-72.4
Q -103.0,-86.6,-107.4,-99.0
Q -108.4,-102.0,-109.8,-109.1
Q -110.1,-108.9,-110.2,-109.2
Q -110.2,-109.4,-110.2,-111.3
Q -110.2,-112.9,-110.2,-114.4
Q -110.7,-118.0,-110.2,-122.0
Q -109.8,-126.9,-109.1,-128.7
Q -108.8,-129.6,-108.4,-130.4
Q -107.6,-131.4,-106.9,-131.3
Q -106.6,-131.3,-106.4,-131.1
Q -106.1,-130.9,-105.8,-130.4
Q -105.2,-130.8,-104.6,-131.2
Q -106.2,-133.6,-107.4,-133.6
Q -110.8,-133.4,-112.0,-125.3
Q -114.5,-109.0,-106.5,-90.1
Q -101.3,-77.9,-96.0,-70.0
Q -95.2,-68.8,-94.4,-67.6
Q -94.0,-67.0,-93.6,-66.4
Q -101.1,-70.4,-104.9,-72.2
Q -116.5,-78.1,-111.8,-65.9
Q -102.1,-40.5,-70.1,-27.5
Q -61.6,-24.1,-53.6,-23.5
Q -50.5,-23.3,-46.3,-18.7
Q -47.2,-17.7,-48.1,-16.7
Q -49.9,-14.7,-51.3,-13.3
Q -54.4,-10.3,-56.0,-7.3
Q -56.6,-6.3,-56.9,-6.0
Q -57.2,-5.8,-58.4,-2.6
Q -61.2,5.2,-58.0,7.7
Q -53.4,11.3,-41.1,-7.8
Q -37.7,-13.1,-36.5,-12.3
Q -35.3,-11.5,-33.6,-10.7
Q -31.6,-9.8,-33.3,-7.4
Q -38.6,0.4,-39.4,8.4
Q -40.0,14.7,-36.1,14.6
Q -30.5,14.4,-19.5,0.3
Q -18.4,-1.1,-15.6,-0.5
Q -12.7,0.1,-12.8,0.5
Q -12.8,0.9,-14.6,5.9
Q -16.4,10.9,-17.1,15.4
Q -19.0,27.3,-20.7,32.3
Q -22.8,38.6,-27.6,44.9
Q -38.3,58.7,-39.5,68.9
Q -41.3,83.5,-33.6,92.1
Q -26.1,100.5,-17.1,92.1
Q -14.2,89.4,-14.0,89.7
Q -13.7,89.9,-14.9,92.9
Q -17.6,99.9,-22.1,104.8
Q -38.1,122.3,-37.1,150.1
Q -36.6,163.1,-32.9,183.1
Q -29.2,203.8,-35.7,215.5
Q -38.0,219.6,-36.9,220.6
 " /> 
<path  
style="fill:rgb(7,193,201)" 
d="M -33.3 166.0
Q -33.3,166.9,-33.3,167.8
Q -33.1,167.8,-32.9,167.8
Q -32.6,167.8,-32.0,166.7
Q -32.7,166.3,-33.3,166.0
 " /> 
<path  
style="fill:rgb(14,103,171)" 
d="M -33.3 166.0
Q -32.6,164.2,-31.8,162.4
Q -23.4,143.2,-20.7,139.8
Q -20.1,139.1,-18.7,136.9
Q -17.2,134.8,-16.7,135.3
Q -16.2,135.8,-16.8,136.5
Q -21.3,142.1,-30.8,164.1
Q -31.5,165.8,-32.0,166.7
Q -32.6,167.8,-32.9,167.8
Q -33.1,167.8,-33.3,167.8
Q -33.0,169.7,-32.7,171.5
Q -32.0,175.3,-31.1,179.9
Q -30.3,184.4,-29.8,188.4
Q -29.3,192.4,-28.8,194.6
Q -26.3,191.6,-24.7,188.7
Q -21.8,183.1,-18.7,173.1
Q -14.6,160.0,-9.0,148.9
Q -4.0,138.9,-3.1,138.9
Q -1.9,138.9,-4.3,142.9
Q -10.1,153.1,-16.2,171.5
Q -22.6,190.7,-27.6,195.8
Q -28.8,197.0,-29.0,201.6
Q -29.3,208.5,-32.9,215.5
Q -34.7,219.0,-34.5,219.2
Q -34.4,219.3,-31.3,218.5
Q -28.2,217.6,-21.6,216.0
Q -4.7,211.9,-0.9,210.0
Q 18.8,200.3,21.8,164.4
Q 22.2,159.1,22.4,156.9
Q 22.7,154.7,22.7,151.4
Q 22.7,148.1,23.4,148.3
Q 24.4,148.6,23.8,160.4
Q 22.2,192.0,9.6,204.4
Q 8.3,205.7,6.9,207.0
Q 7.4,206.9,7.9,206.8
Q 8.8,206.6,13.8,204.2
Q 54.3,185.4,48.5,156.9
Q 47.1,150.0,38.2,128.9
Q 33.0,116.6,31.2,102.4
Q 30.9,100.2,30.7,98.0
Q 28.9,97.5,28.9,99.0
Q 28.9,100.7,28.2,107.3
Q 27.6,113.4,25.8,115.1
Q 23.6,117.1,23.6,113.2
Q 23.6,106.8,22.5,103.7
Q 22.3,102.9,20.6,105.4
Q 17.3,110.4,14.2,105.3
Q 12.2,102.0,11.1,103.3
Q 10.3,104.3,8.9,107.8
Q 8.9,108.0,8.9,108.2
Q 8.9,108.8,8.9,109.3
Q 8.9,110.4,8.4,110.4
Q 8.4,110.7,8.4,110.9
Q 8.2,111.9,8.0,112.9
Q 7.2,116.5,3.6,118.6
Q 2.0,119.5,1.9,110.3
Q 1.8,107.5,1.8,104.7
Q 1.8,102.0,1.3,100.2
Q 1.1,99.3,0.9,98.4
Q 0.5,98.1,0.2,97.8
Q -0.8,97.7,-2.6,100.4
Q -5.7,105.2,-7.8,103.5
Q -7.9,103.4,-8.1,103.3
Q -8.4,103.0,-8.8,102.5
Q -9.0,102.2,-9.4,101.2
Q -10.0,99.8,-10.9,97.7
Q -11.9,95.2,-12.9,92.7
Q -13.4,94.0,-14.0,95.3
Q -15.1,98.0,-15.9,99.0
Q -16.8,100.0,-17.9,102.0
Q -19.0,104.0,-20.3,105.6
Q -37.1,125.0,-34.7,154.5
Q -34.1,161.6,-33.3,166.0
 " /> 
<path  
style="fill:rgb(7,193,201)" 
d="M -30.2 216.2
Q -30.2,218.3,-18.6,209.4
Q -0.9,196.0,6.2,174.4
Q 8.3,168.2,7.9,167.5
Q 7.4,166.4,5.3,172.5
Q -3.5,198.8,-26.5,213.2
Q -30.2,215.5,-30.2,216.2
 " /> 
<path  
style="fill:rgb(7,193,201)" 
d="M 25.6 194.5
Q 26.1,195.4,28.6,191.4
Q 37.5,176.7,36.2,158.8
Q 35.9,154.4,35.3,154.4
Q 34.7,154.4,34.7,160.7
Q 34.8,178.5,27.2,191.1
Q 25.3,194.1,25.6,194.5
 " /> 
<path  
style="fill:rgb(7,193,201)" 
d="M -33.3 166.0
Q -32.7,166.3,-32.0,166.7
Q -31.5,165.8,-30.8,164.1
Q -21.3,142.1,-16.8,136.5
Q -16.2,135.8,-16.7,135.3
Q -17.2,134.8,-18.7,136.9
Q -20.1,139.1,-20.7,139.8
Q -23.4,143.2,-31.8,162.4
Q -32.6,164.2,-33.3,166.0
 " /> 
<path  
style="fill:rgb(7,193,201)" 
d="M -12.9 92.7
Q -11.9,95.2,-10.9,97.7
Q -10.0,99.8,-9.4,101.2
Q -9.8,99.9,-10.7,97.3
Q -11.6,94.5,-12.4,91.8
Q -12.9,91.8,-12.9,92.7
 " /> 
<path  
style="fill:rgb(97,247,248)" 
d="M 0.9 98.4
Q 1.1,99.3,1.3,100.2
Q 1.8,102.0,1.8,104.7
Q 2.4,113.7,2.6,115.9
Q 2.7,118.0,3.3,117.9
Q 5.9,117.2,8.0,112.0
Q 8.2,111.4,8.4,110.9
Q 8.4,110.7,8.4,110.4
Q 8.4,108.3,8.9,108.2
Q 8.9,108.0,8.9,107.8
Q 8.9,106.0,9.9,104.2
Q 11.8,100.6,13.0,102.6
Q 17.5,110.8,20.9,104.2
Q 22.4,101.2,22.9,103.4
Q 24.0,108.9,24.0,112.3
Q 24.0,116.1,25.7,114.3
Q 27.6,112.2,28.1,100.7
Q 28.2,98.0,28.5,97.7
Q 28.9,97.4,30.7,97.5
Q 30.7,97.1,30.7,96.6
Q 30.8,95.7,30.2,94.9
Q 30.2,93.1,30.2,91.3
Q 30.2,86.4,28.7,83.6
Q 26.1,78.8,24.4,67.8
Q 24.1,65.3,23.8,63.1
Q 23.2,57.8,23.2,54.1
Q 23.2,52.1,23.7,49.8
Q 23.6,49.5,24.2,48.2
Q 25.5,45.6,27.1,37.5
Q 27.1,33.8,27.1,30.0
Q 26.9,28.2,26.7,26.4
Q 26.2,22.9,25.4,19.6
Q 25.2,20.7,25.0,21.8
Q 24.5,24.0,24.2,25.7
Q 24.0,27.3,23.0,27.3
Q 22.1,27.3,23.3,20.0
Q 24.0,16.0,24.4,12.5
Q 24.7,8.9,25.3,8.9
Q 25.9,9.0,25.8,11.2
Q 25.7,13.4,26.6,16.5
Q 28.5,22.8,28.8,28.5
Q 28.8,29.3,28.9,30.0
Q 29.2,29.9,29.3,30.2
Q 29.3,30.5,29.3,33.1
Q 29.3,34.0,29.3,34.9
Q 29.3,37.4,29.1,37.5
Q 29.0,37.5,28.9,37.5
Q 28.9,41.5,26.3,47.4
Q 25.3,49.5,25.1,50.7
Q 25.0,51.2,24.9,51.8
Q 24.9,53.8,24.9,55.8
Q 25.0,56.3,25.1,56.9
Q 25.3,58.0,25.3,59.5
Q 25.3,60.3,25.3,61.1
Q 25.6,62.2,25.8,62.4
Q 25.9,62.5,25.9,62.5
Q 26.2,62.5,27.7,61.2
Q 42.6,47.8,46.9,50.2
Q 48.4,51.1,51.6,54.4
Q 50.7,52.2,49.8,50.0
Q 47.2,43.6,39.1,28.7
Q 34.0,19.4,31.0,10.9
Q 27.0,-0.4,24.0,-1.3
Q 23.3,-1.5,21.1,-0.8
Q 18.1,0.0,15.7,0.3
Q 14.5,0.5,13.3,0.7
Q 12.2,0.7,11.1,0.7
Q 0.4,1.1,-4.7,0.7
Q -9.9,0.2,-10.5,0.8
Q -11.1,1.3,-12.2,4.4
Q -14.6,10.6,-15.6,17.1
Q -15.6,17.6,-15.6,18.2
Q -15.6,19.2,-15.8,19.3
Q -15.9,19.3,-16.0,19.3
Q -16.4,25.1,-17.3,28.4
Q -19.9,38.0,-25.8,46.2
Q -26.7,47.4,-27.6,48.7
Q -27.1,48.8,-26.7,48.9
Q -25.8,49.1,-24.0,49.5
Q -23.8,49.5,-23.6,49.5
Q -20.5,51.1,-18.0,50.5
Q -16.8,50.3,-15.6,50.0
Q -15.3,50.0,-15.1,50.0
Q -13.3,49.5,-11.6,51.1
Q -9.9,52.7,-8.0,53.0
Q -4.2,53.4,-1.8,56.7
Q -1.3,56.0,-0.9,55.3
Q -0.6,53.5,-0.2,51.8
Q 0.4,48.2,-0.9,45.4
Q -2.3,42.7,-3.1,40.1
Q -3.7,38.5,-4.0,33.2
Q -4.2,30.8,-4.4,27.5
Q -4.3,28.5,-4.4,26.2
Q -4.4,27.0,-4.4,25.5
Q -4.4,23.3,-4.4,21.1
Q -5.3,15.3,-5.4,14.4
Q -5.5,13.4,-4.9,13.4
Q -4.3,13.4,-3.5,16.7
Q -2.6,20.0,-1.6,24.0
Q -0.1,29.6,-1.1,29.7
Q -1.5,29.8,-1.9,29.5
Q -2.3,30.0,-2.7,30.4
Q -2.7,31.0,-2.7,31.7
Q -2.7,32.9,-2.7,33.0
Q -2.7,33.0,-2.7,33.1
Q -2.3,34.9,-2.0,36.7
Q -0.9,42.7,1.7,46.6
Q 3.8,50.0,2.5,50.0
Q 1.9,50.0,1.5,52.2
Q 1.2,54.4,0.4,58.0
Q 0.4,58.2,0.4,58.4
Q 0.0,60.1,-0.4,61.8
Q -3.0,71.4,-8.3,81.4
Q -10.7,86.0,-11.6,88.9
Q -12.0,90.3,-12.4,91.8
Q -11.6,94.5,-10.7,97.3
Q -9.8,99.9,-9.4,101.2
Q -8.5,102.8,-8.0,103.4
Q -5.9,105.1,-2.9,100.2
Q -1.2,97.5,-0.8,97.3
Q -0.5,97.2,0.2,97.8
Q 0.6,97.9,0.9,98.4
 " /> 
<path  
style="fill:rgb(14,103,171)" 
d="M -8.1 103.3
Q -8.7,102.6,-9.5,100.8
Q -9.0,102.2,-8.8,102.5
Q -8.4,103.0,-8.1,103.3
 " /> 
<path  
style="fill:rgb(7,193,201)" 
d="M -8.1 103.3
Q -7.9,103.4,-7.8,103.5
Q -5.7,105.2,-2.6,100.4
Q -0.8,97.7,0.2,97.8
Q -0.5,97.2,-0.8,97.3
Q -1.2,97.5,-2.9,100.2
Q -5.9,105.1,-8.1,103.3
 " /> 
<path  
style="fill:rgb(7,193,201)" 
d="M 1.8 104.7
Q 1.8,107.5,1.9,110.3
Q 2.0,119.5,3.6,118.6
Q 7.2,116.5,8.0,112.9
Q 8.2,111.9,8.4,110.9
Q 8.2,111.4,8.0,112.0
Q 5.9,117.2,3.3,117.9
Q 2.7,118.0,2.6,115.9
Q 2.4,113.7,1.8,104.7
 " /> 
<path  
style="fill:rgb(7,193,201)" 
d="M 8.4 110.4
Q 8.9,110.4,8.9,109.3
Q 8.9,108.8,8.9,108.2
Q 8.4,108.3,8.4,110.4
 " /> 
<path  
style="fill:rgb(7,193,201)" 
d="M 8.9 107.8
Q 10.3,104.3,11.1,103.3
Q 12.2,102.0,14.2,105.3
Q 17.3,110.4,20.6,105.4
Q 22.3,102.9,22.5,103.7
Q 23.6,106.8,23.6,113.2
Q 23.6,117.1,25.8,115.1
Q 27.6,113.4,28.2,107.3
Q 28.9,100.7,28.9,99.0
Q 28.9,97.5,30.7,98.0
Q 30.7,97.8,30.7,97.5
Q 28.9,97.4,28.5,97.7
Q 28.2,98.0,28.1,100.7
Q 27.6,112.2,25.7,114.3
Q 24.0,116.1,24.0,112.3
Q 24.0,108.9,22.9,103.4
Q 22.4,101.2,20.9,104.2
Q 17.5,110.8,13.0,102.6
Q 11.8,100.6,9.9,104.2
Q 8.9,106.0,8.9,107.8
 " /> 
<path  
style="fill:rgb(14,103,171)" 
d="M 0.4 58.4
Q 0.4,58.2,0.4,58.0
Q 0.2,57.8,-0.1,57.6
Q -0.6,57.2,-0.9,55.3
Q -0.9,55.7,-0.9,56.1
Q -1.0,56.9,-1.4,56.8
Q -1.6,56.7,-1.8,56.7
Q -2.4,56.1,-3.1,55.5
Q -5.3,53.7,-8.3,53.4
Q -10.2,53.2,-11.5,51.6
Q -12.9,49.9,-14.0,50.0
Q -14.5,50.0,-15.1,50.0
Q -15.3,50.0,-15.6,50.0
Q -17.8,51.3,-19.6,51.3
Q -21.3,51.3,-23.6,49.5
Q -23.8,49.5,-24.0,49.5
Q -27.7,49.5,-27.9,49.5
Q -28.2,49.4,-28.0,49.1
Q -29.3,51.0,-30.7,52.9
Q -34.5,58.3,-36.2,63.9
Q -35.5,64.1,-34.9,64.3
Q -33.7,59.5,-32.0,59.0
Q -30.9,58.6,-32.9,63.2
Q -34.0,65.5,-34.6,65.5
Q -35.2,65.5,-34.9,64.3
Q -35.5,64.1,-36.2,63.9
Q -37.0,66.8,-37.4,69.8
Q -37.7,73.3,-37.3,74.9
Q -36.7,73.8,-36.1,72.6
Q -34.3,69.1,-27.0,61.3
Q -24.5,58.7,-24.2,59.0
Q -23.6,59.6,-29.5,66.4
Q -36.6,74.7,-36.5,79.5
Q -36.5,87.7,-29.3,92.4
Q -28.4,93.0,-27.6,93.5
Q -27.8,92.5,-28.0,91.5
Q -29.3,85.8,-27.5,80.5
Q -27.2,79.4,-26.9,87.0
Q -26.8,90.3,-26.7,93.5
Q -20.8,93.5,-17.0,89.3
Q -15.2,87.4,-15.4,83.0
Q -16.3,64.2,-14.5,64.2
Q -14.0,64.2,-14.0,74.4
Q -14.0,84.6,-13.7,84.9
Q -12.7,85.9,-10.7,81.1
Q -9.8,79.0,-8.3,76.8
Q -5.2,72.2,-2.1,60.8
Q -1.5,58.4,-0.5,58.4
Q -0.0,58.4,0.4,58.4
 " /> 
<path  
style="fill:rgb(7,193,201)" 
d="M -9.8 69.1
Q -9.8,74.0,-9.1,74.0
Q -8.4,74.0,-8.4,69.1
Q -8.4,64.2,-9.1,64.2
Q -9.8,64.2,-9.8,69.1
 " /> 
<path  
style="fill:rgb(4,4,4)" 
d="M 0.4 58.0
Q 1.2,54.4,1.5,52.2
Q 1.9,50.0,2.5,50.0
Q 3.8,50.0,1.7,46.6
Q -0.9,42.7,-2.0,36.7
Q -2.3,34.9,-2.7,33.1
Q -2.8,33.1,-2.9,33.2
Q -2.9,33.2,-3.0,33.1
Q -3.5,33.2,-4.0,33.2
Q -3.7,38.5,-3.1,40.1
Q -2.3,42.7,-0.9,45.4
Q 0.4,48.2,-0.2,51.8
Q -0.6,53.5,-0.9,55.3
Q -0.6,57.2,-0.1,57.6
Q 0.2,57.8,0.4,58.0
 " /> 
<path  
style="fill:rgb(14,103,171)" 
d="M -2.7 33.1
Q -2.7,33.0,-2.7,33.0
Q -2.7,32.9,-2.7,31.7
Q -2.7,31.0,-2.7,30.4
Q -2.9,30.4,-3.1,30.4
Q -3.1,32.6,-3.1,32.9
Q -3.0,33.1,-3.0,33.1
Q -2.8,33.1,-2.7,33.1
 " /> 
<path  
style="fill:rgb(7,193,201)" 
d="M -2.7 30.4
Q -2.7,30.2,-2.7,30.0
Q -2.9,30.2,-3.1,30.4
Q -2.9,30.4,-2.7,30.4
 " /> 
<path  
style="fill:rgb(97,247,248)" 
d="M -2.7 30.4
Q -2.3,30.0,-1.9,29.5
Q -2.1,29.3,-2.3,29.0
Q -2.3,29.7,-2.7,30.0
Q -2.7,30.2,-2.7,30.4
 " /> 
<path  
style="fill:rgb(4,4,4)" 
d="M -2.7 28.2
Q -3.5,28.3,-4.3,28.3
Q -4.2,30.5,-4.1,32.2
Q -3.7,30.5,-3.1,30.4
Q -3.1,29.9,-3.1,29.4
Q -3.1,28.3,-2.9,28.3
Q -2.8,28.2,-2.7,28.2
 " /> 
<path  
style="fill:rgb(4,4,4)" 
d="M -2.7 28.2
Q -2.4,29.0,-2.0,29.4
Q -1.8,29.6,-1.5,29.7
Q -1.5,29.8,-1.1,29.7
Q -0.1,29.6,-1.6,24.0
Q -2.6,20.0,-3.5,16.7
Q -4.3,13.4,-4.9,13.4
Q -5.5,13.4,-5.4,14.4
Q -5.3,15.3,-4.4,21.1
Q -4.0,23.3,-4.2,24.4
Q -4.3,25.0,-4.4,25.5
Q -4.4,27.0,-4.3,28.3
Q -3.5,28.3,-2.7,28.2
 " /> 
<path  
style="fill:rgb(97,247,248)" 
d="M -2.7 28.2
Q -2.7,29.1,-2.7,30.0
Q -2.3,29.7,-2.0,29.4
Q -2.4,29.0,-2.7,28.2
 " /> 
<path  
style="fill:rgb(7,193,201)" 
d="M -2.7 28.2
Q -2.8,28.2,-2.9,28.3
Q -3.1,28.3,-3.1,29.4
Q -3.1,29.9,-3.1,30.4
Q -2.9,30.2,-2.7,30.0
Q -2.7,29.1,-2.7,28.2
 " /> 
<path  
style="fill:rgb(14,103,171)" 
d="M -4.4 21.1
Q -4.4,23.3,-4.4,25.5
Q -4.3,25.0,-4.2,24.4
Q -4.0,23.3,-4.4,21.1
 " /> 
<path  
style="fill:rgb(97,247,248)" 
d="M -0.9 55.3
Q -1.3,56.0,-1.8,56.7
Q -1.6,56.7,-1.4,56.8
Q -1.0,56.9,-0.9,56.1
Q -0.9,55.7,-0.9,55.3
 " /> 
<path  
style="fill:rgb(7,193,201)" 
d="M -1.8 56.7
Q -4.2,53.4,-8.0,53.0
Q -9.9,52.7,-11.6,51.1
Q -13.3,49.5,-15.1,50.0
Q -14.5,50.0,-14.0,50.0
Q -12.9,49.9,-11.5,51.6
Q -10.2,53.2,-8.3,53.4
Q -5.3,53.7,-3.1,55.5
Q -2.4,56.1,-1.8,56.7
 " /> 
<path  
style="fill:rgb(7,193,201)" 
d="M -15.6 50.0
Q -16.8,50.3,-18.0,50.5
Q -20.5,51.1,-23.6,49.5
Q -21.3,51.3,-19.6,51.3
Q -17.8,51.3,-15.6,50.0
 " /> 
<path  
style="fill:rgb(7,193,201)" 
d="M -24.0 49.5
Q -25.8,49.1,-26.7,48.9
Q -27.1,48.8,-27.6,48.7
Q -27.8,48.7,-28.0,49.1
Q -28.2,49.4,-27.9,49.5
Q -27.7,49.5,-24.0,49.5
 " /> 
<path  
style="fill:rgb(7,193,201)" 
d="M -16.0 19.3
Q -15.9,19.3,-15.8,19.3
Q -15.6,19.2,-15.6,18.2
Q -15.6,17.6,-15.6,17.1
Q -15.7,17.1,-15.8,17.2
Q -16.0,17.2,-16.0,19.3
 " /> 
<path  
style="fill:rgb(14,103,171)" 
d="M 11.1 0.7
Q 12.2,0.7,13.3,0.7
Q 13.0,0.5,12.7,0.4
Q 12.0,0.1,11.1,0.7
 " /> 
<path  
style="fill:rgb(14,103,171)" 
d="M 51.6 54.4
Q 51.6,54.9,51.6,55.3
Q 50.9,54.4,50.2,53.6
Q 45.6,47.6,39.6,52.4
Q 38.4,53.4,36.9,54.1
Q 35.3,54.8,33.8,56.4
Q 32.3,58.1,30.4,59.3
Q 28.6,60.6,27.6,61.7
Q 26.6,62.8,26.0,62.8
Q 25.6,62.9,25.3,62.9
Q 25.6,63.9,25.8,64.9
Q 26.2,66.9,26.9,70.9
Q 28.0,77.8,30.5,82.2
Q 31.0,83.2,31.6,84.2
Q 31.7,80.9,31.8,77.5
Q 32.0,70.9,32.5,70.8
Q 33.0,70.7,32.9,72.0
Q 32.9,73.3,32.8,79.6
Q 32.7,85.3,32.6,85.5
Q 32.5,85.8,32.0,85.5
Q 32.7,86.4,33.3,87.3
Q 35.5,90.2,39.8,91.6
Q 40.5,91.9,39.1,87.5
Q 37.8,83.4,37.4,79.5
Q 35.7,65.2,36.4,64.5
Q 37.5,63.4,38.0,73.5
Q 38.4,81.1,40.7,88.5
Q 41.6,91.5,42.1,91.9
Q 44.5,93.7,48.2,91.4
Q 55.2,87.1,52.6,80.4
Q 51.5,77.3,50.4,74.2
Q 47.8,66.9,46.4,63.7
Q 45.4,61.1,45.9,60.8
Q 47.3,59.9,52.1,74.2
Q 53.4,78.2,53.9,79.3
Q 54.1,79.9,54.3,80.4
Q 54.9,73.9,54.6,70.8
Q 54.4,69.3,54.2,67.8
Q 53.3,66.2,52.5,64.9
Q 52.2,64.4,51.9,63.9
Q 50.3,61.1,51.4,61.2
Q 52.3,61.3,53.0,62.8
Q 53.4,63.5,53.8,64.2
Q 53.6,62.9,53.3,61.5
Q 52.9,58.9,51.6,54.4
 " /> 
<path  
style="fill:rgb(7,193,201)" 
d="M 47.3 88.0
Q 48.1,90.4,48.7,90.4
Q 49.5,90.4,47.8,84.4
Q 46.6,80.4,46.1,78.1
Q 45.6,75.8,45.0,75.8
Q 43.5,75.8,45.8,82.8
Q 46.6,85.5,47.3,88.0
 " /> 
<path  
style="fill:rgb(4,4,4)" 
d="M 25.3 61.1
Q 25.3,60.3,25.3,59.5
Q 25.3,58.0,25.1,56.9
Q 25.0,56.3,24.9,55.8
Q 24.1,55.8,23.2,55.8
Q 23.3,59.8,24.1,65.4
Q 24.6,63.0,25.3,62.9
Q 25.3,62.0,25.3,61.1
 " /> 
<path  
style="fill:rgb(7,193,201)" 
d="M 25.3 61.1
Q 25.3,62.0,25.3,62.9
Q 25.6,62.7,25.8,62.4
Q 25.6,62.2,25.3,61.1
 " /> 
<path  
style="fill:rgb(4,4,4)" 
d="M 24.9 55.8
Q 24.8,55.3,24.6,54.9
Q 24.4,54.0,24.6,52.9
Q 24.8,52.3,24.9,51.8
Q 24.1,51.7,23.4,51.6
Q 23.1,54.4,23.4,58.7
Q 24.1,55.8,24.9,55.8
 " /> 
<path  
style="fill:rgb(14,103,171)" 
d="M 24.9 55.8
Q 24.9,53.8,24.9,51.8
Q 24.8,52.3,24.6,52.9
Q 24.4,54.0,24.6,54.9
Q 24.8,55.3,24.9,55.8
 " /> 
<path  
style="fill:rgb(4,4,4)" 
d="M 24.9 51.8
Q 25.0,51.2,25.1,50.7
Q 25.3,49.5,26.3,47.4
Q 28.9,41.5,28.9,37.5
Q 28.9,35.0,29.1,34.9
Q 29.2,34.9,29.3,34.9
Q 29.3,34.0,29.3,33.1
Q 29.0,33.2,28.9,32.9
Q 28.9,32.6,28.9,30.0
Q 28.8,29.3,28.8,28.5
Q 28.5,22.8,26.6,16.5
Q 25.7,13.4,25.8,11.2
Q 25.9,9.0,25.3,8.9
Q 24.7,8.9,24.4,12.5
Q 24.0,16.0,23.3,20.0
Q 22.1,27.3,23.0,27.3
Q 24.0,27.3,24.2,25.7
Q 24.5,24.0,25.0,21.8
Q 25.2,20.7,25.4,19.6
Q 26.2,22.9,26.7,26.4
Q 26.9,28.2,27.1,30.0
Q 27.2,30.9,27.3,31.8
Q 27.6,33.6,27.3,35.6
Q 27.2,36.6,27.1,37.5
Q 25.5,45.6,24.2,48.2
Q 23.6,49.5,23.4,51.6
Q 24.1,51.7,24.9,51.8
 " /> 
<path  
style="fill:rgb(7,193,201)" 
d="M 28.9 37.5
Q 29.0,37.5,29.1,37.5
Q 29.3,37.4,29.3,34.9
Q 29.2,34.9,29.1,34.9
Q 28.9,35.0,28.9,37.5
 " /> 
<path  
style="fill:rgb(7,193,201)" 
d="M 29.3 33.1
Q 29.3,30.5,29.3,30.2
Q 29.2,29.9,28.9,30.0
Q 28.9,32.6,28.9,32.9
Q 29.0,33.2,29.3,33.1
 " /> 
<path  
style="fill:rgb(7,193,201)" 
d="M 27.1 30.0
Q 27.1,33.8,27.1,37.5
Q 27.2,36.6,27.3,35.6
Q 27.6,33.6,27.3,31.8
Q 27.2,30.9,27.1,30.0
 " /> 
<path  
style="fill:rgb(14,103,171)" 
d="M 30.2 91.3
Q 30.2,93.1,30.2,94.9
Q 30.3,94.4,30.5,94.0
Q 30.7,93.1,30.2,91.3
 " /> 
<path  
style="fill:rgb(7,193,201)" 
d="M -26.7 93.5
Q -26.8,90.3,-26.9,87.0
Q -27.2,79.4,-27.5,80.5
Q -29.3,85.8,-28.0,91.5
Q -27.8,92.5,-27.6,93.5
Q -27.1,93.5,-26.7,93.5
 " /> 
<path  
style="fill:rgb(7,193,201)" 
d="M 31.6 84.2
Q 32.1,84.6,32.0,85.5
Q 32.5,85.8,32.6,85.5
Q 32.7,85.3,32.8,79.6
Q 32.9,73.3,32.9,72.0
Q 33.0,70.7,32.5,70.8
Q 32.0,70.9,31.8,77.5
Q 31.7,80.9,31.6,84.2
 " /> 
<path  
style="fill:rgb(7,193,201)" 
d="M 53.8 64.2
Q 53.2,64.6,52.5,64.9
Q 53.3,66.2,54.2,67.8
Q 54.1,67.2,54.0,66.7
Q 53.8,65.6,53.8,64.9
Q 53.8,64.6,53.8,64.2
 " /> 
<path  
style="fill:rgb(7,193,201)" 
d="M 53.8 64.2
Q 53.4,63.5,53.0,62.8
Q 52.3,61.3,51.4,61.2
Q 50.3,61.1,51.9,63.9
Q 52.2,64.4,52.5,64.9
Q 53.2,64.6,53.8,64.2
 " /> 
<path  
style="fill:rgb(7,193,201)" 
d="M -34.9 64.3
Q -35.2,65.5,-34.6,65.5
Q -34.0,65.5,-32.9,63.2
Q -30.9,58.6,-32.0,59.0
Q -33.7,59.5,-34.9,64.3
 " /> 
<path  
style="fill:rgb(4,4,4)" 
d="M -3.1 30.4
Q -3.7,30.5,-4.2,30.5
Q -4.0,33.3,-3.9,35.4
Q -3.5,33.2,-3.0,33.1
Q -3.0,33.1,-3.1,32.9
Q -3.1,32.6,-3.1,30.4
 " /> 
<path  
style="fill:rgb(4,4,4)" 
d="M 78.7 -60.2
Q 84.4,-62.0,88.1,-63.7
Q 97.8,-68.2,104.3,-78.0
Q 106.2,-80.9,106.7,-81.1
Q 107.7,-81.4,105.5,-77.7
Q 100.8,-70.1,92.4,-64.5
Q 87.3,-61.1,78.7,-59.3
Q 77.3,-49.2,74.6,-43.3
Q 74.1,-42.3,73.6,-41.3
Q 73.8,-41.2,73.9,-41.2
Q 74.1,-41.7,79.9,-43.8
Q 85.7,-45.9,89.1,-47.7
Q 93.6,-50.2,92.8,-48.9
Q 90.7,-45.5,74.7,-40.9
Q 73.7,-40.6,73.9,-41.2
Q 73.8,-41.2,73.6,-41.3
Q 72.8,-39.4,71.9,-37.6
Q 70.6,-34.7,68.4,-31.4
Q 66.2,-28.1,66.3,-28.0
Q 66.6,-27.7,73.8,-29.9
Q 87.5,-34.1,100.0,-42.6
Q 101.6,-43.6,103.1,-44.7
Q 103.4,-45.1,103.8,-45.5
Q 104.5,-46.4,105.3,-47.1
Q 105.8,-47.4,106.2,-47.8
Q 109.3,-50.9,110.3,-52.7
Q 111.2,-54.6,110.8,-54.9
Q 110.2,-55.5,103.9,-52.4
Q 99.1,-50.0,98.8,-52.8
Q 98.5,-54.7,106.1,-64.1
Q 120.8,-82.3,123.8,-97.3
Q 124.1,-99.0,124.4,-100.7
Q 124.4,-102.7,124.7,-102.8
Q 124.8,-102.9,124.9,-102.9
Q 124.8,-103.7,124.7,-104.4
Q 124.1,-108.3,120.4,-103.6
Q 118.7,-101.5,112.4,-93.6
Q 112.1,-93.2,111.8,-92.9
Q 111.1,-92.3,110.6,-92.7
Q 110.4,-92.9,110.2,-93.1
Q 110.2,-96.2,112.4,-102.3
Q 115.5,-111.1,118.4,-120.5
Q 119.5,-124.2,120.2,-131.1
Q 120.3,-132.3,120.4,-133.6
Q 120.4,-135.6,120.9,-135.8
Q 120.0,-142.4,119.5,-143.8
Q 116.6,-151.6,108.2,-129.7
Q 103.1,-116.3,100.1,-123.3
Q 99.2,-125.3,98.3,-129.1
Q 93.3,-150.0,87.8,-153.0
Q 86.7,-153.6,85.8,-152.1
Q 85.0,-150.6,84.4,-147.8
Q 84.4,-144.8,84.0,-144.7
Q 84.0,-143.3,84.0,-142.0
Q 84.0,-139.1,83.8,-139.0
Q 83.7,-138.9,83.6,-138.9
Q 83.3,-137.9,83.1,-136.9
Q 81.8,-130.9,77.5,-133.5
Q 76.2,-134.3,71.6,-139.4
Q 74.1,-132.6,72.5,-130.1
Q 71.2,-128.1,64.1,-133.9
Q 63.0,-134.9,61.9,-135.8
Q 64.0,-128.7,59.2,-128.7
Q 57.8,-128.7,61.8,-125.1
Q 62.2,-124.8,62.6,-124.4
Q 63.5,-123.8,64.2,-122.9
Q 64.5,-122.4,64.9,-122.0
Q 68.0,-118.4,69.6,-115.9
Q 74.9,-107.5,77.1,-96.2
Q 77.4,-94.4,77.8,-92.7
Q 85.0,-100.4,87.1,-107.6
Q 88.6,-112.8,89.1,-125.9
Q 89.5,-137.1,90.0,-126.8
Q 91.0,-103.7,80.1,-94.2
Q 78.9,-93.2,77.8,-92.2
Q 77.9,-91.4,78.0,-90.7
Q 78.2,-89.1,78.7,-84.2
Q 79.1,-84.3,79.1,-83.2
Q 79.1,-83.2,79.1,-83.2
Q 79.1,-82.6,79.1,-82.0
Q 79.1,-80.4,79.1,-78.9
Q 79.2,-78.9,79.3,-78.9
Q 79.6,-79.0,79.6,-77.2
Q 79.6,-76.3,79.6,-75.3
Q 80.9,-76.2,82.2,-77.1
Q 91.0,-83.0,102.1,-99.5
Q 106.8,-106.5,110.0,-114.9
Q 111.9,-119.8,112.4,-118.7
Q 112.7,-117.7,108.1,-107.8
Q 102.0,-94.6,89.4,-82.0
Q 81.1,-73.7,79.9,-74.6
Q 79.8,-74.7,79.6,-74.9
Q 79.3,-74.9,79.1,-74.9
Q 79.2,-74.7,79.3,-74.4
Q 79.6,-74.0,79.6,-72.7
Q 79.6,-64.8,79.3,-64.7
Q 79.2,-64.7,79.1,-64.7
Q 79.1,-63.7,79.0,-62.7
Q 78.9,-60.7,78.7,-60.2
 " /> 
<path  
style="fill:rgb(97,247,248)" 
d="M 74.6 -112.1
Q 75.4,-110.6,76.4,-115.6
Q 77.9,-122.5,76.1,-123.2
Q 75.6,-123.4,75.6,-119.7
Q 75.6,-116.0,74.9,-114.2
Q 74.3,-112.5,74.6,-112.1
 " /> 
<path  
style="fill:rgb(97,247,248)" 
d="M 66.9 -123.6
Q 66.6,-121.9,67.2,-122.1
Q 68.9,-122.7,68.1,-127.1
Q 67.9,-126.6,67.7,-126.2
Q 67.2,-125.3,66.9,-123.6
 " /> 
<path  
style="fill:rgb(97,247,248)" 
d="M 78.7 -60.2
Q 78.7,-59.8,78.7,-59.3
Q 87.3,-61.1,92.4,-64.5
Q 100.8,-70.1,105.5,-77.7
Q 107.7,-81.4,106.7,-81.1
Q 106.2,-80.9,104.3,-78.0
Q 97.8,-68.2,88.1,-63.7
Q 84.4,-62.0,78.7,-60.2
 " /> 
<path  
style="fill:rgb(14,103,171)" 
d="M 79.1 -64.7
Q 79.2,-64.7,79.3,-64.7
Q 79.6,-64.8,79.6,-72.7
Q 79.2,-72.6,79.2,-72.2
Q 79.1,-71.8,79.1,-68.6
Q 79.1,-66.6,79.1,-64.7
 " /> 
<path  
style="fill:rgb(14,103,171)" 
d="M 79.1 -74.9
Q 79.3,-75.1,79.6,-75.3
Q 79.6,-76.3,79.6,-77.2
Q 79.6,-79.0,79.3,-78.9
Q 79.2,-78.9,79.1,-78.9
Q 79.1,-76.9,79.1,-74.9
 " /> 
<path  
style="fill:rgb(14,103,171)" 
d="M 79.1 -74.9
Q 79.3,-74.9,79.6,-74.9
Q 79.6,-75.1,79.6,-75.3
Q 79.3,-75.1,79.1,-74.9
 " /> 
<path  
style="fill:rgb(97,247,248)" 
d="M 79.6 -74.9
Q 79.8,-74.7,79.9,-74.6
Q 81.1,-73.7,89.4,-82.0
Q 102.0,-94.6,108.1,-107.8
Q 112.7,-117.7,112.4,-118.7
Q 111.9,-119.8,110.0,-114.9
Q 106.8,-106.5,102.1,-99.5
Q 91.0,-83.0,82.2,-77.1
Q 80.9,-76.2,79.6,-75.3
Q 79.6,-75.1,79.6,-74.9
 " /> 
<path  
style="fill:rgb(14,103,171)" 
d="M 79.1 -82.0
Q 79.1,-82.6,79.1,-83.2
Q 78.9,-83.7,78.7,-84.2
Q 78.7,-82.4,78.7,-82.2
Q 78.8,-81.9,79.1,-82.0
 " /> 
<path  
style="fill:rgb(14,103,171)" 
d="M 78.7 -84.2
Q 78.9,-83.7,79.1,-83.2
Q 79.1,-83.2,79.1,-83.2
Q 79.1,-84.3,78.7,-84.2
 " /> 
<path  
style="fill:rgb(14,103,171)" 
d="M 64.9 -122.0
Q 64.5,-122.4,64.2,-122.9
Q 63.5,-123.8,62.6,-124.4
Q 62.2,-124.8,61.8,-125.1
Q 63.1,-123.4,64.9,-122.0
 " /> 
<path  
style="fill:rgb(14,103,171)" 
d="M 83.6 -138.9
Q 83.7,-138.9,83.8,-139.0
Q 84.0,-139.1,84.0,-142.0
Q 83.9,-142.0,83.8,-141.9
Q 83.6,-141.9,83.6,-140.4
Q 83.6,-139.6,83.6,-138.9
 " /> 
<path  
style="fill:rgb(14,103,171)" 
d="M 84.0 -144.7
Q 84.4,-144.8,84.4,-147.8
Q 84.3,-147.7,84.2,-147.7
Q 84.0,-147.6,84.0,-146.2
Q 84.0,-145.4,84.0,-144.7
 " /> 
<path  
style="fill:rgb(14,103,171)" 
d="M 120.9 -135.8
Q 120.4,-135.6,120.4,-133.6
Q 120.8,-133.7,120.9,-135.8
 " /> 
<path  
style="fill:rgb(14,103,171)" 
d="M 110.2 -93.1
Q 110.4,-92.9,110.6,-92.7
Q 111.1,-92.3,111.8,-92.9
Q 112.1,-93.2,112.4,-93.6
Q 112.1,-93.3,111.8,-93.1
Q 111.1,-92.7,110.7,-92.9
Q 110.4,-93.0,110.2,-93.1
 " /> 
<path  
style="fill:rgb(14,103,171)" 
d="M 124.9 -102.9
Q 124.8,-102.9,124.7,-102.8
Q 124.4,-102.7,124.4,-100.7
Q 124.9,-100.8,124.9,-101.8
Q 124.9,-102.4,124.9,-102.9
 " /> 
<path  
style="fill:rgb(14,103,171)" 
d="M 106.2 -47.8
Q 105.8,-47.4,105.3,-47.1
Q 104.5,-46.4,103.8,-45.5
Q 103.4,-45.1,103.1,-44.7
Q 104.9,-46.0,105.5,-46.9
Q 105.9,-47.3,106.2,-47.8
 " /> 
<path  
style="fill:rgb(97,247,248)" 
d="M 73.9 -41.2
Q 73.7,-40.6,74.7,-40.9
Q 90.7,-45.5,92.8,-48.9
Q 93.6,-50.2,89.1,-47.7
Q 85.7,-45.9,79.9,-43.8
Q 74.1,-41.7,73.9,-41.2
 " /> 
<path  
style="fill:rgb(97,247,248)" 
d="M -68.9 -86.4
Q -68.9,-84.2,-68.9,-82.0
Q -68.6,-78.9,-68.2,-75.8
Q -66.5,-59.5,-58.9,-41.8
Q -54.2,-31.1,-44.6,-20.6
Q -41.2,-24.9,-40.4,-26.0
Q -39.6,-27.1,-39.1,-26.6
Q -37.7,-25.3,-46.9,-15.3
Q -54.9,-6.7,-56.6,-1.3
Q -59.1,6.6,-55.2,5.8
Q -51.8,5.1,-42.2,-9.3
Q -39.9,-12.8,-39.1,-14.4
Q -38.3,-16.0,-35.9,-18.8
Q -33.5,-21.7,-32.9,-21.9
Q -31.7,-22.4,-34.4,-18.3
Q -36.2,-15.7,-35.3,-14.9
Q -31.1,-11.1,-30.0,-13.7
Q -28.1,-18.2,-27.5,-18.2
Q -26.3,-18.1,-27.8,-14.7
Q -28.5,-12.9,-29.1,-11.3
Q -29.6,-9.7,-31.0,-7.5
Q -37.4,3.1,-37.4,9.5
Q -37.4,16.3,-29.6,8.5
Q -21.9,0.8,-20.3,-2.6
Q -19.6,-4.0,-16.5,-7.3
Q -13.4,-10.7,-12.8,-10.1
Q -12.3,-9.6,-13.6,-7.9
Q -14.8,-6.3,-15.6,-5.1
Q -16.0,-4.5,-16.3,-3.9
Q -9.7,-2.6,-4.8,-2.1
Q -2.4,-1.8,0.0,-1.6
Q 2.0,-1.6,4.0,-1.6
Q 5.0,-1.5,6.1,-1.5
Q 8.1,-1.5,9.8,-2.0
Q 10.9,-2.0,12.0,-2.0
Q 18.2,-2.9,22.5,-4.0
Q 26.9,-5.1,28.1,-5.2
Q 29.8,-5.2,27.7,-10.4
Q 26.6,-13.2,27.0,-13.6
Q 28.4,-15.0,33.2,-0.2
Q 36.9,10.9,38.8,6.0
Q 42.8,-4.0,36.4,-16.7
Q 34.5,-20.6,35.7,-20.5
Q 36.6,-20.4,40.2,-12.1
Q 40.9,-10.4,41.7,-11.0
Q 46.2,-14.6,45.6,-16.4
Q 42.7,-24.6,43.7,-25.2
Q 44.5,-25.7,45.1,-24.1
Q 47.4,-17.7,48.9,-10.5
Q 50.6,-2.6,52.6,-2.1
Q 55.1,-1.5,56.6,-14.8
Q 56.7,-16.2,56.9,-17.6
Q 56.8,-17.5,56.6,-17.5
Q 56.4,-17.4,56.4,-18.6
Q 56.4,-18.6,56.4,-18.6
Q 56.4,-19.2,56.4,-19.8
Q 56.4,-20.0,56.4,-20.2
Q 56.3,-20.2,56.2,-20.2
Q 56.0,-20.1,56.0,-21.3
Q 56.0,-21.3,56.0,-21.3
Q 56.0,-21.9,56.0,-22.4
Q 55.3,-24.4,54.7,-26.4
Q 53.0,-31.4,53.6,-31.6
Q 54.2,-31.8,57.3,-25.0
Q 57.8,-23.9,58.2,-22.9
Q 58.6,-23.3,58.9,-23.8
Q 59.6,-24.6,60.5,-25.3
Q 60.9,-25.7,61.3,-26.0
Q 66.7,-33.1,68.5,-36.2
Q 77.8,-52.4,77.1,-74.2
Q 77.0,-77.2,76.9,-80.2
Q 76.8,-80.2,76.6,-80.2
Q 76.4,-80.1,76.4,-81.5
Q 76.4,-81.5,76.4,-81.5
Q 76.4,-82.2,76.4,-82.9
Q 76.2,-85.0,76.0,-87.1
Q 74.0,-105.9,65.3,-117.3
Q 64.2,-118.8,63.1,-120.2
Q 61.4,-121.6,60.4,-122.9
Q 59.0,-124.0,57.6,-125.1
Q 54.7,-127.3,50.1,-129.6
Q 44.2,-132.6,45.2,-133.6
Q 45.7,-134.1,48.0,-133.2
Q 50.4,-132.2,50.5,-132.3
Q 50.6,-132.5,49.3,-135.7
Q 48.1,-138.9,46.0,-142.0
Q 45.0,-143.6,44.0,-145.1
Q 42.2,-146.5,40.9,-148.2
Q 36.4,-150.9,34.0,-152.0
Q 31.5,-153.1,29.3,-153.3
Q 28.2,-153.4,27.1,-153.6
Q 25.8,-153.6,24.4,-153.6
Q 20.9,-152.7,18.1,-151.3
Q 12.7,-148.5,8.0,-141.6
Q 6.6,-139.6,5.9,-139.2
Q 5.3,-138.9,0.4,-138.9
Q -0.6,-138.9,-1.8,-138.9
Q -3.3,-138.9,-4.9,-138.9
Q -6.7,-140.2,-7.5,-141.8
Q -8.4,-143.3,-10.2,-145.8
Q -11.1,-147.0,-12.0,-148.2
Q -12.5,-148.7,-13.1,-149.1
Q -14.2,-150.0,-16.0,-152.2
Q -23.4,-157.2,-30.0,-157.3
Q -39.2,-157.3,-43.6,-148.3
Q -46.6,-142.2,-46.9,-138.9
Q -47.3,-134.6,-48.6,-135.1
Q -49.1,-135.2,-50.3,-134.2
Q -50.9,-133.6,-51.6,-133.1
Q -52.4,-132.2,-52.9,-130.9
Q -52.4,-130.0,-54.4,-128.8
Q -58.1,-126.6,-62.7,-117.1
Q -68.0,-106.2,-68.6,-92.0
Q -68.8,-89.2,-68.9,-86.4
 " /> 
<path  
style="fill:rgb(4,4,4)" 
d="M 17.5 -14.0
Q 20.9,-12.0,20.9,-13.3
Q 20.9,-13.8,19.0,-15.2
Q 11.7,-20.5,-1.7,-15.9
Q -3.6,-15.2,-2.8,-14.4
Q -2.3,-13.9,0.0,-14.6
Q 11.2,-17.7,17.5,-14.0
 " /> 
<path  
style="fill:rgb(4,4,4)" 
d="M 12.7 -39.4
Q 14.9,-34.9,15.4,-34.9
Q 16.8,-34.9,13.7,-40.8
Q 11.3,-45.2,10.7,-45.4
Q 9.6,-45.9,12.7,-39.4
 " /> 
<path  
style="fill:rgb(4,4,4)" 
d="M -1.2 -36.1
Q -1.4,-35.3,-0.8,-35.3
Q -0.1,-35.3,1.1,-37.7
Q 2.3,-40.0,3.9,-42.2
Q 6.1,-45.3,5.7,-46.3
Q 5.5,-46.9,3.1,-43.8
Q -0.3,-39.3,-1.2,-36.1
 " /> 
<path  
style="fill:rgb(4,4,4)" 
d="M 24.0 -50.0
Q 25.8,-48.6,26.7,-47.3
Q 27.3,-46.9,28.0,-46.4
Q 37.5,-40.1,50.4,-49.3
Q 61.2,-56.9,65.0,-69.4
Q 66.1,-72.8,67.1,-79.3
Q 67.0,-79.8,66.9,-80.2
Q 66.6,-81.1,66.9,-82.0
Q 67.0,-82.4,67.1,-82.9
Q 66.2,-88.7,65.1,-92.2
Q 62.6,-100.3,58.9,-105.6
Q 58.1,-106.7,57.3,-107.8
Q 56.0,-108.7,55.1,-110.0
Q 50.2,-113.6,47.1,-113.8
Q 44.0,-114.0,39.6,-111.3
Q 39.2,-110.9,38.9,-110.5
Q 38.2,-109.6,36.9,-108.7
Q 33.3,-104.2,31.2,-100.3
Q 24.6,-88.6,19.6,-73.6
Q 18.1,-69.4,17.3,-67.6
Q 13.0,-57.7,14.3,-56.5
Q 15.3,-55.4,16.5,-59.4
Q 17.0,-61.1,17.3,-61.1
Q 17.6,-61.1,19.1,-57.8
Q 20.6,-54.5,22.3,-52.2
Q 23.1,-51.1,24.0,-50.0
 " /> 
<path  
style="fill:rgb(115,250,3)" 
d="M 24.9 -53.1
Q 27.1,-51.3,28.9,-49.1
Q 29.9,-48.7,30.9,-48.2
Q 38.1,-45.0,47.8,-51.1
Q 49.4,-52.1,51.1,-53.1
Q 53.8,-56.2,56.4,-58.4
Q 60.6,-64.7,62.3,-69.4
Q 63.1,-71.8,64.0,-76.7
Q 64.0,-79.8,64.1,-80.2
Q 64.1,-80.6,64.4,-80.7
Q 64.4,-81.6,64.4,-82.4
Q 64.3,-82.4,64.2,-82.4
Q 64.1,-82.4,64.0,-82.6
Q 64.0,-82.9,64.0,-85.6
Q 63.2,-85.5,62.4,-85.4
Q 63.2,-78.2,58.4,-68.4
Q 47.2,-45.4,26.7,-57.9
Q 22.3,-60.6,26.0,-65.1
Q 26.6,-65.8,27.1,-66.4
Q 26.8,-66.5,26.6,-66.6
Q 26.5,-66.6,26.4,-66.7
Q 26.3,-66.7,26.1,-66.8
Q 25.7,-66.9,25.3,-67.1
Q 25.1,-67.2,24.9,-67.3
Q 24.7,-67.6,24.5,-67.8
Q 24.0,-68.2,24.5,-68.7
Q 24.9,-69.1,26.7,-68.2
Q 26.9,-68.2,27.1,-68.2
Q 28.7,-68.2,30.2,-68.2
Q 31.1,-68.6,32.0,-69.0
Q 34.5,-70.2,40.7,-77.3
Q 48.1,-86.0,53.1,-76.7
Q 54.4,-74.4,54.7,-74.7
Q 55.1,-74.9,56.0,-78.4
Q 56.0,-82.2,56.0,-86.0
Q 55.8,-87.1,55.6,-88.2
Q 55.1,-90.8,54.1,-93.4
Q 53.3,-95.4,52.3,-97.3
Q 51.1,-99.5,51.6,-100.0
Q 52.0,-100.4,52.7,-99.7
Q 53.3,-98.9,55.6,-94.0
Q 56.3,-93.6,56.5,-94.1
Q 56.7,-94.5,58.0,-94.3
Q 59.3,-94.2,60.8,-91.1
Q 62.1,-88.5,62.4,-85.4
Q 63.2,-85.5,64.0,-85.6
Q 63.6,-87.6,63.1,-89.6
Q 62.2,-93.6,59.8,-98.6
Q 51.9,-115.0,41.8,-110.4
Q 41.5,-110.1,41.3,-109.8
Q 40.9,-109.2,39.6,-108.2
Q 38.4,-106.9,37.3,-105.6
Q 34.1,-101.7,28.1,-89.1
Q 18.2,-68.5,19.8,-63.9
Q 20.6,-61.6,24.9,-53.1
 " /> 
<path  
style="fill:rgb(209,251,185)" 
d="M 29.4 -73.3
Q 31.8,-71.6,37.5,-76.7
Q 43.4,-81.9,47.3,-83.9
Q 50.0,-85.2,51.0,-86.4
Q 53.3,-88.8,49.6,-96.4
Q 47.5,-100.7,46.0,-101.4
Q 44.4,-102.2,44.4,-102.8
Q 44.4,-104.2,40.3,-100.1
Q 36.1,-95.9,35.8,-92.2
Q 35.7,-91.1,34.0,-88.4
Q 26.0,-75.8,29.4,-73.3
 " /> 
<path  
style="fill:rgb(31,181,0)" 
d="M 24.9 -53.1
Q 25.3,-52.6,25.8,-52.0
Q 26.7,-50.9,27.8,-50.0
Q 28.3,-49.6,28.9,-49.1
Q 27.1,-51.3,24.9,-53.1
 " /> 
<path  
style="fill:rgb(31,181,0)" 
d="M 39.6 -108.2
Q 40.9,-109.2,41.3,-109.8
Q 41.5,-110.1,41.8,-110.4
Q 40.5,-109.5,39.6,-108.2
 " /> 
<path  
style="fill:rgb(31,181,0)" 
d="M 64.0 -85.6
Q 64.0,-82.9,64.0,-82.6
Q 64.1,-82.4,64.2,-82.4
Q 64.3,-82.4,64.4,-82.4
Q 64.4,-85.2,64.4,-85.4
Q 64.3,-85.7,64.0,-85.6
 " /> 
<path  
style="fill:rgb(31,181,0)" 
d="M 64.4 -80.7
Q 64.1,-80.6,64.1,-80.2
Q 64.0,-79.8,64.0,-76.7
Q 64.1,-76.7,64.2,-76.7
Q 64.4,-76.8,64.4,-80.7
 " /> 
<path  
style="fill:rgb(31,181,0)" 
d="M 56.4 -58.4
Q 53.8,-56.2,51.1,-53.1
Q 51.9,-53.8,52.7,-54.5
Q 54.2,-55.8,55.3,-57.1
Q 55.9,-57.8,56.4,-58.4
 " /> 
<path  
style="fill:rgb(115,250,3)" 
d="M 45.8 -79.3
Q 45.2,-78.7,44.6,-78.1
Q 44.1,-77.6,43.5,-77.0
Q 44.3,-77.1,45.0,-77.3
Q 48.4,-78.1,50.0,-74.9
Q 52.1,-70.9,53.8,-70.9
Q 54.7,-70.9,53.6,-72.2
Q 53.0,-72.9,52.4,-73.6
Q 51.1,-75.8,50.6,-76.9
Q 50.4,-77.4,50.2,-78.0
Q 49.9,-78.3,49.6,-78.5
Q 49.0,-79.0,48.5,-79.4
Q 48.2,-79.6,48.0,-79.8
Q 46.8,-79.8,46.3,-79.6
Q 46.0,-79.4,45.8,-79.3
 " /> 
<path  
style="fill:rgb(31,181,0)" 
d="M 45.8 -79.3
Q 44.8,-78.3,43.8,-77.3
Q 41.8,-75.3,38.6,-72.0
Q 34.1,-67.3,30.5,-66.6
Q 29.9,-66.5,29.3,-66.5
Q 28.2,-66.5,27.1,-66.4
Q 26.6,-65.8,26.0,-65.1
Q 22.3,-60.6,26.7,-57.9
Q 47.2,-45.4,58.4,-68.4
Q 63.2,-78.2,62.4,-85.4
Q 62.1,-88.5,60.8,-91.1
Q 59.3,-94.2,58.0,-94.3
Q 56.7,-94.5,56.5,-94.1
Q 56.3,-93.6,55.6,-94.0
Q 56.0,-93.0,56.4,-92.0
Q 58.5,-87.4,58.1,-79.5
Q 57.8,-72.5,55.4,-72.1
Q 54.5,-71.9,52.4,-73.6
Q 53.0,-72.9,53.6,-72.2
Q 54.7,-70.9,53.8,-70.9
Q 52.1,-70.9,50.0,-74.9
Q 48.4,-78.1,45.0,-77.3
Q 44.3,-77.1,43.5,-77.0
Q 44.1,-77.6,44.6,-78.1
Q 45.2,-78.7,45.8,-79.3
 " /> 
<path  
style="fill:rgb(4,4,4)" 
d="M 45.8 -79.3
Q 46.0,-79.4,46.3,-79.6
Q 46.8,-79.8,48.0,-79.8
Q 48.3,-79.7,48.7,-79.6
Q 49.3,-79.4,50.2,-78.0
Q 50.4,-77.4,50.6,-76.9
Q 51.1,-75.8,52.4,-73.6
Q 54.5,-71.9,55.4,-72.1
Q 57.8,-72.5,58.1,-79.5
Q 58.5,-87.4,56.4,-92.0
Q 56.0,-93.0,55.6,-94.0
Q 54.8,-93.7,54.1,-93.4
Q 55.1,-90.8,55.6,-88.2
Q 55.8,-87.1,56.0,-86.0
Q 56.1,-85.0,56.2,-84.0
Q 56.5,-82.0,56.0,-78.4
Q 55.1,-74.9,54.7,-74.7
Q 54.4,-74.4,53.1,-76.7
Q 48.1,-86.0,40.7,-77.3
Q 34.5,-70.2,32.0,-69.0
Q 31.1,-68.6,30.2,-68.2
Q 30.4,-67.4,30.5,-66.6
Q 34.1,-67.3,38.6,-72.0
Q 41.8,-75.3,43.8,-77.3
Q 44.8,-78.3,45.8,-79.3
 " /> 
<path  
style="fill:rgb(4,4,4)" 
d="M 27.1 -66.4
Q 27.4,-67.2,27.7,-68.0
Q 27.4,-68.1,27.1,-68.2
Q 26.8,-67.4,26.6,-66.6
Q 26.8,-66.5,27.1,-66.4
 " /> 
<path  
style="fill:rgb(4,4,4)" 
d="M 27.1 -66.4
Q 28.2,-66.5,29.3,-66.5
Q 29.9,-66.5,30.5,-66.6
Q 30.4,-67.4,30.2,-68.2
Q 29.8,-68.1,29.3,-68.0
Q 28.4,-67.7,27.8,-68.0
Q 27.7,-68.0,27.7,-68.0
Q 27.4,-67.2,27.1,-66.4
 " /> 
<path  
style="fill:rgb(4,4,4)" 
d="M 55.6 -94.0
Q 53.3,-98.9,52.7,-99.7
Q 52.0,-100.4,51.6,-100.0
Q 51.1,-99.5,52.3,-97.3
Q 53.3,-95.4,54.1,-93.4
Q 54.8,-93.7,55.6,-94.0
 " /> 
<path  
style="fill:rgb(31,181,0)" 
d="M 24.9 -67.3
Q 24.7,-68.4,26.7,-68.2
Q 24.9,-69.1,24.5,-68.7
Q 24.0,-68.2,24.5,-67.8
Q 24.7,-67.6,24.9,-67.3
 " /> 
<path  
style="fill:rgb(4,4,4)" 
d="M 24.9 -67.3
Q 25.1,-67.2,25.3,-67.1
Q 25.7,-66.9,26.1,-66.8
Q 26.4,-67.5,26.7,-68.2
Q 24.7,-68.4,24.9,-67.3
 " /> 
<path  
style="fill:rgb(4,4,4)" 
d="M 26.7 -68.2
Q 26.4,-67.5,26.1,-66.8
Q 26.3,-66.7,26.4,-66.7
Q 26.5,-66.6,26.6,-66.6
Q 26.8,-67.4,27.1,-68.2
Q 26.9,-68.2,26.7,-68.2
 " /> 
<path  
style="fill:rgb(31,181,0)" 
d="M 27.1 -68.2
Q 27.4,-68.1,27.7,-68.0
Q 27.7,-68.0,27.8,-68.0
Q 28.4,-67.7,29.3,-68.0
Q 29.8,-68.1,30.2,-68.2
Q 28.7,-68.2,27.1,-68.2
 " /> 
<path  
style="fill:rgb(31,181,0)" 
d="M 56.0 -78.4
Q 56.5,-82.0,56.2,-84.0
Q 56.1,-85.0,56.0,-86.0
Q 56.0,-82.2,56.0,-78.4
 " /> 
<path  
style="fill:rgb(31,181,0)" 
d="M 50.2 -78.0
Q 49.3,-79.4,48.7,-79.6
Q 48.3,-79.7,48.0,-79.8
Q 48.2,-79.6,48.5,-79.4
Q 49.0,-79.0,49.6,-78.5
Q 49.9,-78.3,50.2,-78.0
 " /> 
<path  
style="fill:rgb(7,193,201)" 
d="M 24.0 -50.0
Q 24.3,-49.6,24.7,-49.1
Q 25.4,-48.2,26.0,-47.8
Q 26.3,-47.6,26.7,-47.3
Q 25.8,-48.6,24.0,-50.0
 " /> 
<path  
style="fill:rgb(14,103,171)" 
d="M 36.9 -108.7
Q 38.2,-109.6,38.9,-110.5
Q 39.2,-110.9,39.6,-111.3
Q 37.8,-110.0,36.9,-108.7
 " /> 
<path  
style="fill:rgb(7,193,201)" 
d="M 55.1 -110.0
Q 56.0,-108.7,57.3,-107.8
Q 57.1,-108.1,56.9,-108.4
Q 56.4,-109.1,55.8,-109.5
Q 55.4,-109.8,55.1,-110.0
 " /> 
<path  
style="fill:rgb(14,103,171)" 
d="M 67.1 -82.9
Q 67.0,-82.4,66.9,-82.0
Q 66.6,-81.1,66.9,-80.2
Q 67.0,-79.8,67.1,-79.3
Q 67.1,-81.1,67.1,-82.9
 " /> 
<path  
style="fill:rgb(4,4,4)" 
d="M -22.2 -47.3
Q -20.4,-47.4,-20.1,-47.3
Q -19.9,-47.3,-20.0,-46.9
Q -18.7,-47.1,-17.3,-47.3
Q -8.1,-48.9,-3.1,-58.4
Q -2.4,-59.9,-1.6,-61.3
Q -1.5,-60.5,-1.3,-59.8
Q -0.9,-58.2,-0.5,-56.5
Q -0.1,-54.7,0.7,-54.5
Q 2.6,-54.1,-2.7,-76.2
Q -11.7,-113.8,-29.5,-119.4
Q -41.9,-123.3,-48.9,-109.0
Q -51.9,-102.8,-52.0,-89.6
Q -51.9,-89.2,-51.8,-88.9
Q -51.5,-88.2,-51.8,-87.6
Q -51.9,-87.2,-52.0,-86.9
Q -51.1,-81.1,-50.2,-77.7
Q -47.4,-67.5,-41.8,-60.7
Q -40.7,-59.3,-39.6,-58.0
Q -37.8,-56.6,-37.1,-55.8
Q -36.8,-55.3,-36.4,-54.9
Q -35.1,-53.8,-33.8,-52.7
Q -29.2,-48.9,-24.2,-47.8
Q -23.2,-47.6,-22.2,-47.3
 " /> 
<path  
style="fill:rgb(31,181,0)" 
d="M -18.2 -49.6
Q -19.8,-49.6,-21.3,-49.6
Q -19.6,-49.1,-18.9,-49.3
Q -18.6,-49.4,-18.2,-49.6
 " /> 
<path  
style="fill:rgb(115,250,3)" 
d="M -18.2 -49.6
Q -17.2,-49.8,-16.2,-50.0
Q -12.8,-50.8,-5.8,-58.9
Q -5.4,-59.6,-5.1,-60.2
Q -4.4,-61.5,-4.0,-62.2
Q -3.8,-62.6,-3.6,-62.9
Q -3.3,-63.9,-3.1,-64.9
Q -2.7,-66.9,-4.3,-73.9
Q -8.2,-91.4,-14.7,-102.5
Q -16.5,-105.5,-20.0,-110.4
Q -21.3,-111.4,-22.2,-112.7
Q -23.6,-113.6,-24.9,-114.4
Q -30.2,-118.0,-34.4,-118.0
Q -44.6,-118.0,-49.3,-100.7
Q -49.3,-98.6,-49.6,-98.5
Q -49.7,-98.5,-49.8,-98.4
Q -49.8,-96.7,-49.8,-94.9
Q -49.8,-92.9,-49.8,-90.9
Q -49.8,-88.9,-49.8,-86.9
Q -49.4,-87.0,-49.3,-86.7
Q -49.3,-86.5,-49.3,-84.7
Q -48.4,-79.8,-47.3,-76.4
Q -45.3,-70.4,-39.1,-60.7
Q -38.3,-60.0,-37.6,-59.3
Q -36.0,-58.0,-34.9,-56.7
Q -34.3,-56.0,-33.8,-55.3
Q -28.9,-52.2,-26.4,-51.1
Q -24.0,-50.0,-21.3,-49.6
Q -19.8,-49.6,-18.2,-49.6
 " /> 
<path  
style="fill:rgb(4,4,4)" 
d="M -42.7 -98.9
Q -42.6,-96.2,-42.5,-93.9
Q -41.7,-94.0,-40.9,-94.0
Q -41.4,-96.7,-40.9,-98.9
Q -40.9,-102.8,-38.5,-106.2
Q -36.8,-108.7,-37.9,-108.7
Q -39.9,-108.7,-41.7,-103.4
Q -42.6,-100.8,-42.6,-99.8
Q -42.6,-99.4,-42.7,-98.9
 " /> 
<path  
style="fill:rgb(31,181,0)" 
d="M -42.7 -98.9
Q -43.1,-97.1,-44.1,-96.7
Q -47.8,-95.3,-44.2,-81.2
Q -39.0,-61.4,-28.8,-56.2
Q -19.7,-51.7,-10.3,-60.4
Q -6.7,-63.7,-8.0,-68.2
Q -11.2,-68.2,-14.6,-70.5
Q -15.6,-71.1,-16.7,-72.0
Q -19.3,-74.2,-20.6,-75.2
Q -23.0,-77.1,-26.4,-75.5
Q -28.4,-74.5,-30.8,-72.3
Q -37.0,-66.4,-41.3,-84.2
Q -42.2,-87.8,-42.5,-93.9
Q -42.6,-96.2,-42.7,-98.9
 " /> 
<path  
style="fill:rgb(4,4,4)" 
d="M -8.0 -68.2
Q -7.1,-68.2,-7.1,-68.8
Q -7.1,-69.4,-8.7,-69.7
Q -10.2,-69.9,-12.0,-70.9
Q -12.9,-71.3,-13.8,-71.8
Q -14.2,-71.1,-14.6,-70.5
Q -11.2,-68.2,-8.0,-68.2
 " /> 
<path  
style="fill:rgb(31,181,0)" 
d="M -40.9 -98.9
Q -41.4,-96.7,-40.9,-94.0
Q -40.9,-96.4,-40.9,-98.9
 " /> 
<path  
style="fill:rgb(4,4,4)" 
d="M -40.9 -94.0
Q -41.7,-94.0,-42.5,-93.9
Q -42.2,-87.8,-41.3,-84.2
Q -37.0,-66.4,-30.8,-72.3
Q -28.4,-74.5,-26.4,-75.5
Q -26.6,-75.9,-26.9,-76.4
Q -27.3,-76.3,-27.7,-76.2
Q -27.4,-76.5,-27.1,-76.9
Q -25.5,-78.8,-23.5,-77.7
Q -22.7,-77.4,-22.0,-77.0
Q -22.2,-76.9,-22.5,-76.9
Q -22.9,-76.7,-24.0,-76.7
Q -24.9,-76.8,-26.9,-76.4
Q -26.6,-75.9,-26.4,-75.5
Q -23.0,-77.1,-20.6,-75.2
Q -19.3,-74.2,-16.7,-72.0
Q -15.6,-71.1,-14.6,-70.5
Q -14.2,-71.1,-13.8,-71.8
Q -15.1,-72.7,-16.0,-74.0
Q -20.9,-78.4,-22.5,-79.5
Q -25.9,-81.7,-28.3,-78.5
Q -31.1,-74.7,-32.2,-73.8
Q -34.6,-71.8,-36.7,-76.3
Q -38.3,-79.7,-40.9,-94.0
 " /> 
<path  
style="fill:rgb(31,181,0)" 
d="M -16.0 -74.0
Q -15.1,-72.7,-13.8,-71.8
Q -14.0,-72.1,-14.2,-72.4
Q -14.7,-73.1,-15.3,-73.5
Q -15.7,-73.8,-16.0,-74.0
 " /> 
<path  
style="fill:rgb(209,251,185)" 
d="M -12.7 -77.1
Q -9.7,-75.4,-9.9,-76.8
Q -10.0,-77.3,-12.4,-82.3
Q -19.8,-97.7,-24.2,-100.7
Q -27.4,-102.8,-30.7,-99.4
Q -35.9,-93.9,-31.9,-87.5
Q -30.1,-84.5,-25.1,-83.3
Q -20.7,-82.3,-16.9,-79.7
Q -15.0,-78.3,-12.7,-77.1
 " /> 
<path  
style="fill:rgb(255,255,255)" 
d="M -27.1 -76.9
Q -27.0,-76.6,-26.9,-76.4
Q -24.9,-76.8,-24.0,-76.7
Q -22.9,-76.7,-22.5,-76.9
Q -22.2,-76.9,-22.0,-77.0
Q -22.7,-77.4,-23.5,-77.7
Q -25.5,-78.8,-27.1,-76.9
 " /> 
<path  
style="fill:rgb(255,255,255)" 
d="M -27.1 -76.9
Q -27.4,-76.5,-27.7,-76.2
Q -27.3,-76.3,-26.9,-76.4
Q -27.0,-76.6,-27.1,-76.9
 " /> 
<path  
style="fill:rgb(31,181,0)" 
d="M -39.1 -60.7
Q -36.4,-57.6,-35.1,-56.5
Q -34.4,-55.9,-33.8,-55.3
Q -34.3,-56.0,-34.9,-56.7
Q -36.0,-58.0,-37.6,-59.3
Q -38.3,-60.0,-39.1,-60.7
 " /> 
<path  
style="fill:rgb(31,181,0)" 
d="M -49.3 -84.7
Q -49.3,-86.5,-49.3,-86.7
Q -49.4,-87.0,-49.8,-86.9
Q -49.8,-85.0,-49.7,-84.8
Q -49.7,-84.5,-49.3,-84.7
 " /> 
<path  
style="fill:rgb(31,181,0)" 
d="M -49.8 -90.9
Q -49.8,-92.9,-49.8,-94.9
Q -49.9,-94.3,-50.0,-93.8
Q -50.2,-92.7,-50.0,-91.8
Q -49.9,-91.3,-49.8,-90.9
 " /> 
<path  
style="fill:rgb(31,181,0)" 
d="M -49.8 -98.4
Q -49.7,-98.5,-49.6,-98.5
Q -49.3,-98.6,-49.3,-100.7
Q -49.4,-100.6,-49.5,-100.6
Q -49.7,-100.5,-49.8,-98.4
 " /> 
<path  
style="fill:rgb(31,181,0)" 
d="M -22.2 -112.7
Q -21.3,-111.4,-20.0,-110.4
Q -20.9,-111.8,-22.2,-112.7
 " /> 
<path  
style="fill:rgb(31,181,0)" 
d="M -3.6 -62.9
Q -3.8,-62.6,-4.0,-62.2
Q -4.4,-61.5,-5.1,-60.2
Q -5.4,-59.6,-5.8,-58.9
Q -5.4,-59.2,-5.1,-59.6
Q -4.4,-60.2,-3.6,-62.9
 " /> 
<path  
style="fill:rgb(7,193,201)" 
d="M -22.2 -47.3
Q -22.3,-47.2,-22.3,-47.1
Q -22.4,-46.9,-22.1,-46.9
Q -21.9,-46.8,-20.0,-46.9
Q -19.9,-47.3,-20.1,-47.3
Q -20.4,-47.4,-22.2,-47.3
 " /> 
<path  
style="fill:rgb(14,103,171)" 
d="M -36.4 -54.9
Q -36.8,-55.3,-37.1,-55.8
Q -37.8,-56.6,-39.6,-58.0
Q -39.2,-57.6,-38.9,-57.1
Q -38.2,-56.2,-36.4,-54.9
 " /> 
<path  
style="fill:rgb(14,103,171)" 
d="M -52.0 -86.9
Q -51.9,-87.2,-51.8,-87.6
Q -51.5,-88.2,-51.8,-88.9
Q -51.9,-89.2,-52.0,-89.6
Q -52.0,-88.2,-52.0,-86.9
 " /> 
<path  
style="fill:rgb(14,103,171)" 
d="M -68.9 -86.4
Q -69.4,-84.2,-68.9,-82.0
Q -68.9,-84.2,-68.9,-86.4
 " /> 
<path  
style="fill:rgb(14,103,171)" 
d="M -52.9 -130.9
Q -52.4,-132.2,-51.6,-133.1
Q -51.9,-132.8,-52.2,-132.5
Q -52.9,-131.8,-52.9,-130.9
 " /> 
<path  
style="fill:rgb(7,193,201)" 
d="M -16.0 -152.2
Q -14.2,-150.0,-13.1,-149.1
Q -12.5,-148.7,-12.0,-148.2
Q -13.8,-150.4,-16.0,-152.2
 " /> 
<path  
style="fill:rgb(14,103,171)" 
d="M -4.9 -138.9
Q -3.3,-138.9,-1.8,-138.9
Q -2.2,-139.0,-2.7,-139.1
Q -3.5,-139.4,-4.2,-139.1
Q -4.5,-139.0,-4.9,-138.9
 " /> 
<path  
style="fill:rgb(4,4,4)" 
d="M -1.8 -138.9
Q -0.6,-138.9,0.4,-138.9
Q 0.4,-139.5,0.4,-140.2
Q -0.1,-140.2,-0.7,-140.2
Q -0.7,-140.2,-0.7,-140.2
Q -1.3,-140.2,-1.6,-140.2
Q -1.7,-139.6,-1.8,-138.9
 " /> 
<path  
style="fill:rgb(7,193,201)" 
d="M 24.4 -153.6
Q 25.8,-153.6,27.1,-153.6
Q 26.8,-153.7,26.4,-153.8
Q 25.8,-154.1,24.4,-153.6
 " /> 
<path  
style="fill:rgb(14,103,171)" 
d="M 40.9 -148.2
Q 42.2,-146.5,44.0,-145.1
Q 43.7,-145.6,43.3,-146.0
Q 42.6,-146.9,41.8,-147.5
Q 41.3,-147.9,40.9,-148.2
 " /> 
<path  
style="fill:rgb(7,193,201)" 
d="M 60.4 -122.9
Q 61.4,-121.6,63.1,-120.2
Q 62.8,-120.7,62.4,-121.1
Q 61.8,-122.0,61.1,-122.4
Q 60.8,-122.7,60.4,-122.9
 " /> 
<path  
style="fill:rgb(7,193,201)" 
d="M 76.4 -82.9
Q 76.4,-82.2,76.4,-81.5
Q 76.7,-80.9,76.9,-80.2
Q 76.9,-82.5,76.8,-82.7
Q 76.8,-83.0,76.4,-82.9
 " /> 
<path  
style="fill:rgb(7,193,201)" 
d="M 76.9 -80.2
Q 76.7,-80.9,76.4,-81.5
Q 76.4,-81.5,76.4,-81.5
Q 76.4,-80.1,76.6,-80.2
Q 76.8,-80.2,76.9,-80.2
 " /> 
<path  
style="fill:rgb(7,193,201)" 
d="M 61.3 -26.0
Q 60.9,-25.7,60.5,-25.3
Q 59.6,-24.6,58.9,-23.8
Q 58.6,-23.3,58.2,-22.9
Q 58.7,-23.2,59.1,-23.6
Q 60.0,-24.2,61.3,-26.0
 " /> 
<path  
style="fill:rgb(7,193,201)" 
d="M 56.0 -22.4
Q 56.0,-21.9,56.0,-21.3
Q 56.2,-20.8,56.4,-20.2
Q 56.4,-22.0,56.4,-22.3
Q 56.3,-22.5,56.0,-22.4
 " /> 
<path  
style="fill:rgb(7,193,201)" 
d="M 56.4 -20.2
Q 56.2,-20.8,56.0,-21.3
Q 56.0,-21.3,56.0,-21.3
Q 56.0,-20.1,56.2,-20.2
Q 56.3,-20.2,56.4,-20.2
 " /> 
<path  
style="fill:rgb(7,193,201)" 
d="M 56.4 -19.8
Q 56.4,-19.2,56.4,-18.6
Q 56.7,-18.1,56.9,-17.6
Q 56.9,-19.9,56.7,-19.8
Q 56.6,-19.8,56.4,-19.8
 " /> 
<path  
style="fill:rgb(7,193,201)" 
d="M 56.9 -17.6
Q 56.7,-18.1,56.4,-18.6
Q 56.4,-18.6,56.4,-18.6
Q 56.4,-17.4,56.6,-17.5
Q 56.8,-17.5,56.9,-17.6
 " /> 
<path  
style="fill:rgb(14,103,171)" 
d="M 12.0 -2.0
Q 10.9,-2.0,9.8,-2.0
Q 10.1,-1.9,10.4,-1.7
Q 11.1,-1.5,12.0,-2.0
 " /> 
<path  
style="fill:rgb(14,103,171)" 
d="M 4.0 -1.6
Q 2.0,-1.6,0.0,-1.6
Q 2.2,-1.1,3.1,-1.3
Q 3.5,-1.4,4.0,-1.6
 " /> 
<path  
style="fill:rgb(4,4,4)" 
d="M -101.8 -68.2
Q -102.2,-68.3,-102.7,-68.4
Q -103.6,-68.6,-104.0,-69.6
Q -108.4,-71.8,-109.8,-72.1
Q -112.6,-72.6,-108.5,-64.0
Q -102.2,-50.8,-93.4,-43.7
Q -79.1,-32.2,-61.6,-27.3
Q -51.9,-24.6,-52.6,-26.2
Q -52.8,-26.5,-54.5,-29.0
Q -56.8,-32.1,-58.1,-34.8
Q -58.9,-36.2,-59.6,-37.6
Q -69.6,-37.6,-86.2,-49.7
Q -93.3,-54.9,-93.3,-56.4
Q -93.3,-57.5,-89.9,-54.4
Q -76.8,-42.3,-64.2,-39.7
Q -62.3,-39.3,-60.4,-38.9
Q -62.0,-43.1,-63.6,-47.3
Q -66.7,-55.8,-68.0,-61.1
Q -68.7,-63.8,-69.3,-66.4
Q -74.7,-68.7,-77.2,-70.6
Q -84.3,-75.9,-88.4,-83.1
Q -91.3,-88.2,-90.4,-88.2
Q -90.0,-88.2,-88.3,-85.2
Q -82.1,-74.6,-69.3,-67.3
Q -69.6,-68.2,-69.8,-69.1
Q -70.2,-70.9,-70.4,-73.6
Q -70.6,-74.9,-70.7,-76.2
Q -70.8,-76.2,-70.9,-76.1
Q -71.2,-76.1,-71.1,-79.8
Q -71.1,-81.3,-71.1,-82.9
Q -75.1,-85.6,-77.7,-89.0
Q -84.3,-97.7,-85.2,-104.1
Q -85.5,-106.0,-85.0,-106.0
Q -84.6,-106.0,-83.9,-103.0
Q -81.2,-92.9,-73.2,-86.0
Q -72.2,-85.1,-71.1,-84.2
Q -71.1,-85.7,-71.1,-87.1
Q -71.1,-90.0,-70.7,-94.4
Q -70.4,-96.7,-70.2,-98.9
Q -71.4,-100.0,-72.7,-101.1
Q -75.1,-103.3,-77.3,-107.9
Q -79.5,-112.4,-79.8,-114.2
Q -79.9,-115.1,-80.1,-116.0
Q -79.9,-115.8,-79.6,-115.5
Q -79.2,-115.1,-77.8,-111.6
Q -76.4,-108.0,-75.0,-105.7
Q -73.8,-103.6,-70.9,-100.8
Q -70.4,-101.3,-70.0,-101.8
Q -69.9,-101.9,-69.8,-102.0
Q -69.6,-103.2,-69.3,-104.4
Q -68.9,-106.9,-66.7,-113.6
Q -67.2,-114.4,-67.8,-115.3
Q -70.2,-119.2,-70.2,-124.6
Q -70.2,-126.7,-70.1,-127.0
Q -69.7,-128.6,-69.0,-122.9
Q -68.4,-118.4,-66.2,-114.9
Q -62.7,-121.6,-61.1,-124.0
Q -59.5,-126.4,-60.5,-126.9
Q -62.8,-128.1,-63.1,-131.3
Q -63.2,-131.3,-63.4,-131.3
Q -63.6,-131.2,-63.6,-134.0
Q -63.6,-135.8,-63.6,-137.6
Q -63.6,-140.4,-63.1,-140.7
Q -63.1,-143.3,-63.1,-146.0
Q -63.1,-149.4,-63.1,-149.8
Q -63.0,-150.3,-62.7,-150.4
Q -62.7,-151.4,-62.7,-152.4
Q -62.6,-154.4,-63.1,-156.9
Q -63.3,-158.1,-63.6,-159.3
Q -63.8,-159.4,-64.1,-159.5
Q -64.7,-159.7,-65.7,-158.9
Q -66.2,-158.4,-66.7,-158.0
Q -67.3,-156.4,-68.0,-154.9
Q -71.1,-147.7,-72.9,-137.1
Q -75.2,-124.1,-75.7,-123.5
Q -77.4,-121.6,-77.6,-129.3
Q -77.7,-131.9,-77.8,-134.4
Q -78.3,-134.3,-78.3,-136.1
Q -78.2,-137.1,-78.2,-138.0
Q -78.7,-141.1,-79.1,-141.6
Q -80.9,-143.8,-82.5,-127.8
Q -83.0,-122.9,-84.5,-122.9
Q -86.2,-122.9,-88.0,-132.9
Q -92.1,-155.8,-96.0,-158.5
Q -99.0,-160.6,-99.8,-151.9
Q -100.9,-140.3,-95.0,-122.8
Q -93.6,-118.4,-92.4,-112.7
Q -92.0,-110.9,-92.2,-110.0
Q -92.3,-109.6,-92.4,-109.1
Q -92.4,-106.8,-94.7,-107.7
Q -97.7,-109.0,-101.5,-119.7
Q -102.6,-122.9,-105.8,-130.4
Q -106.1,-130.8,-106.4,-131.1
Q -106.5,-131.1,-106.5,-131.1
Q -106.9,-131.4,-107.3,-131.3
Q -107.5,-131.3,-108.4,-130.4
Q -108.8,-129.6,-109.1,-128.7
Q -109.8,-126.9,-110.2,-122.0
Q -110.2,-118.2,-110.2,-114.4
Q -110.2,-112.9,-110.2,-111.3
Q -110.1,-111.4,-110.0,-111.4
Q -109.7,-111.5,-109.8,-109.1
Q -108.4,-102.0,-107.4,-99.0
Q -103.0,-86.6,-94.4,-72.4
Q -90.0,-65.1,-91.3,-63.9
Q -92.5,-62.8,-101.8,-68.2
 " /> 
<path  
style="fill:rgb(14,103,171)" 
d="M -101.8 -68.2
Q -102.0,-68.4,-102.2,-68.7
Q -102.7,-69.1,-104.0,-69.6
Q -103.6,-68.6,-102.7,-68.4
Q -102.2,-68.3,-101.8,-68.2
 " /> 
<path  
style="fill:rgb(14,103,171)" 
d="M -109.8 -109.1
Q -109.7,-111.5,-110.0,-111.4
Q -110.1,-111.4,-110.2,-111.3
Q -110.2,-109.4,-110.2,-109.2
Q -110.1,-108.9,-109.8,-109.1
 " /> 
<path  
style="fill:rgb(14,103,171)" 
d="M -110.2 -114.4
Q -110.2,-118.2,-110.2,-122.0
Q -110.7,-118.0,-110.2,-114.4
 " /> 
<path  
style="fill:rgb(14,103,171)" 
d="M -92.4 -109.1
Q -92.3,-109.6,-92.2,-110.0
Q -92.0,-110.9,-92.4,-112.7
Q -92.4,-110.9,-92.4,-109.1
 " /> 
<path  
style="fill:rgb(14,103,171)" 
d="M -78.2 -138.0
Q -78.2,-137.1,-78.3,-136.1
Q -78.3,-134.3,-77.8,-134.4
Q -77.8,-135.4,-77.8,-136.3
Q -77.8,-138.2,-78.2,-138.0
 " /> 
<path  
style="fill:rgb(14,103,171)" 
d="M -66.7 -158.0
Q -66.2,-158.4,-65.7,-158.9
Q -64.7,-159.7,-64.1,-159.5
Q -63.8,-159.4,-63.6,-159.3
Q -63.8,-159.6,-63.9,-160.0
Q -64.3,-160.6,-65.5,-159.3
Q -66.1,-158.6,-66.7,-158.0
 " /> 
<path  
style="fill:rgb(14,103,171)" 
d="M -62.7 -150.4
Q -63.0,-150.3,-63.1,-149.8
Q -63.1,-149.4,-63.1,-146.0
Q -63.0,-146.0,-62.9,-146.1
Q -62.7,-146.2,-62.7,-148.3
Q -62.7,-149.4,-62.7,-150.4
 " /> 
<path  
style="fill:rgb(14,103,171)" 
d="M -63.1 -140.7
Q -63.6,-140.4,-63.6,-137.6
Q -63.2,-137.7,-63.1,-139.2
Q -63.1,-139.9,-63.1,-140.7
 " /> 
<path  
style="fill:rgb(14,103,171)" 
d="M -63.6 -134.0
Q -63.6,-131.2,-63.4,-131.3
Q -63.2,-131.3,-63.1,-131.3
Q -63.1,-133.7,-63.2,-133.9
Q -63.2,-134.2,-63.6,-134.0
 " /> 
<path  
style="fill:rgb(97,247,248)" 
d="M -66.2 -114.9
Q -66.4,-114.2,-66.7,-113.6
Q -66.6,-113.6,-66.5,-113.6
Q -66.3,-113.7,-66.2,-114.9
 " /> 
<path  
style="fill:rgb(97,247,248)" 
d="M -66.2 -114.9
Q -68.4,-118.4,-69.0,-122.9
Q -69.7,-128.6,-70.1,-127.0
Q -70.2,-126.7,-70.2,-124.6
Q -70.2,-119.2,-67.8,-115.3
Q -67.2,-114.4,-66.7,-113.6
Q -66.4,-114.2,-66.2,-114.9
 " /> 
<path  
style="fill:rgb(14,103,171)" 
d="M -69.8 -102.0
Q -69.9,-101.9,-70.0,-101.8
Q -70.2,-101.4,-70.2,-100.2
Q -70.0,-100.2,-69.8,-100.2
Q -69.8,-100.4,-69.8,-100.5
Q -69.8,-101.3,-69.8,-102.0
 " /> 
<path  
style="fill:rgb(14,103,171)" 
d="M -70.2 -100.2
Q -70.2,-99.6,-70.2,-98.9
Q -69.9,-99.0,-69.8,-100.2
Q -70.0,-100.2,-70.2,-100.2
 " /> 
<path  
style="fill:rgb(97,247,248)" 
d="M -70.2 -100.2
Q -70.6,-100.5,-70.9,-100.8
Q -73.8,-103.6,-75.0,-105.7
Q -76.4,-108.0,-77.8,-111.6
Q -79.2,-115.1,-79.6,-115.5
Q -79.9,-115.8,-80.1,-116.0
Q -79.9,-115.1,-79.8,-114.2
Q -79.5,-112.4,-77.3,-107.9
Q -75.1,-103.3,-72.7,-101.1
Q -71.4,-100.0,-70.2,-98.9
Q -70.2,-99.6,-70.2,-100.2
 " /> 
<path  
style="fill:rgb(7,193,201)" 
d="M -70.2 -100.2
Q -70.2,-101.4,-70.0,-101.8
Q -70.4,-101.3,-70.9,-100.8
Q -70.6,-100.5,-70.2,-100.2
 " /> 
<path  
style="fill:rgb(97,247,248)" 
d="M -71.1 -84.2
Q -72.2,-85.1,-73.2,-86.0
Q -81.2,-92.9,-83.9,-103.0
Q -84.6,-106.0,-85.0,-106.0
Q -85.5,-106.0,-85.2,-104.1
Q -84.3,-97.7,-77.7,-89.0
Q -75.1,-85.6,-71.1,-82.9
Q -71.1,-83.6,-71.1,-84.2
 " /> 
<path  
style="fill:rgb(14,103,171)" 
d="M -71.1 -79.8
Q -71.2,-76.1,-70.9,-76.1
Q -70.8,-76.2,-70.7,-76.2
Q -70.7,-79.5,-70.7,-79.7
Q -70.8,-79.9,-71.1,-79.8
 " /> 
<path  
style="fill:rgb(97,247,248)" 
d="M -69.3 -67.3
Q -82.1,-74.6,-88.3,-85.2
Q -90.0,-88.2,-90.4,-88.2
Q -91.3,-88.2,-88.4,-83.1
Q -84.3,-75.9,-77.2,-70.6
Q -74.7,-68.7,-69.3,-66.4
Q -69.3,-66.9,-69.3,-67.3
 " /> 
<path  
style="fill:rgb(97,247,248)" 
d="M -60.4 -38.9
Q -62.3,-39.3,-64.2,-39.7
Q -76.8,-42.3,-89.9,-54.4
Q -93.3,-57.5,-93.3,-56.4
Q -93.3,-54.9,-86.2,-49.7
Q -69.6,-37.6,-59.6,-37.6
Q -60.0,-38.2,-60.4,-38.9
 " /> 
<path  
style="fill:rgb(7,193,201)" 
d="M -1.8 -140.7
Q -1.2,-140.7,-0.6,-140.7
Q -0.6,-140.7,-0.6,-140.7
Q 0.6,-140.7,0.5,-140.5
Q 0.5,-140.4,0.4,-140.2
Q 1.5,-140.3,2.6,-140.3
Q 4.8,-140.4,8.4,-145.6
Q 9.1,-146.5,9.9,-147.2
Q 10.3,-147.5,10.7,-147.8
Q 11.2,-148.4,11.8,-149.1
Q 12.9,-150.4,16.0,-152.2
Q 17.3,-153.8,19.1,-155.3
Q 22.9,-164.4,24.6,-169.7
Q 25.8,-173.1,27.1,-178.9
Q 27.1,-180.4,27.1,-182.0
Q 26.3,-181.0,25.6,-180.0
Q 22.7,-176.3,19.2,-168.0
Q 16.3,-160.9,15.6,-162.2
Q 15.3,-162.9,17.6,-169.0
Q 20.5,-176.5,15.1,-178.0
Q 14.0,-178.0,12.9,-178.0
Q 10.7,-171.8,9.8,-169.0
Q 8.9,-166.2,8.2,-166.3
Q 7.1,-166.3,8.9,-172.1
Q 10.2,-176.4,9.8,-177.3
Q 8.5,-179.3,10.4,-179.3
Q 11.2,-179.3,13.4,-190.8
Q 14.1,-194.9,13.0,-194.2
Q 12.4,-193.9,10.0,-185.6
Q 9.3,-183.1,8.8,-180.9
Q 7.8,-175.6,6.9,-175.6
Q 6.0,-175.6,6.2,-176.3
Q 6.5,-177.9,7.6,-183.3
Q 7.6,-183.9,7.6,-184.6
Q 7.6,-185.8,7.6,-185.9
Q 7.6,-185.9,7.6,-186.0
Q 7.4,-186.7,7.3,-187.3
Q 6.5,-192.1,3.8,-194.4
Q 3.1,-194.9,2.5,-195.4
Q 2.4,-194.4,2.4,-193.4
Q 2.3,-192.4,2.2,-191.3
Q 2.3,-191.4,2.5,-191.4
Q 2.7,-191.5,2.7,-188.7
Q 2.7,-187.4,2.7,-186.0
Q 2.7,-185.4,2.5,-184.0
Q 2.1,-181.8,1.3,-177.6
Q 1.3,-177.6,1.3,-177.6
Q 1.3,-177.6,1.3,-177.6
Q 1.3,-177.6,1.3,-177.6
Q 1.3,-177.6,1.3,-177.6
Q 2.1,-181.8,2.5,-184.0
Q 1.9,-184.1,1.3,-184.2
Q 1.3,-184.2,1.3,-184.2
Q 1.3,-183.9,1.3,-177.6
Q 1.3,-177.6,1.3,-177.6
Q 1.3,-177.6,1.3,-177.6
Q 1.2,-177.5,1.1,-177.5
Q 0.8,-177.4,0.9,-184.2
Q 0.9,-186.2,0.9,-188.2
Q 0.8,-188.2,0.6,-188.1
Q 0.4,-188.1,0.4,-189.9
Q 0.4,-190.8,0.4,-191.8
Q 0.4,-192.7,0.4,-193.6
Q 0.3,-193.5,0.2,-193.5
Q -0.1,-193.4,-0.0,-194.8
Q -0.0,-194.8,-0.0,-194.8
Q -0.0,-195.5,-0.0,-196.2
Q -0.4,-201.1,-0.9,-203.3
Q -1.3,-205.6,-1.8,-208.1
Q -2.8,-213.6,-4.2,-213.6
Q -5.6,-213.6,-6.0,-206.7
Q -6.1,-204.8,-6.2,-202.9
Q -6.2,-198.9,-6.2,-194.9
Q -6.2,-192.7,-6.2,-190.4
Q -6.1,-190.5,-6.0,-190.5
Q -5.7,-190.6,-5.7,-189.2
Q -5.7,-189.2,-5.7,-189.2
Q -5.8,-188.5,-5.8,-187.8
Q -5.8,-186.7,-5.8,-185.6
Q -5.4,-185.7,-5.3,-185.4
Q -5.3,-185.2,-5.3,-183.9
Q -5.3,-182.9,-5.3,-182.0
Q -5.3,-180.9,-5.3,-179.8
Q -5.1,-178.8,-5.0,-178.1
Q -5.0,-177.5,-5.1,-177.1
Q -5.2,-176.7,-5.3,-176.2
Q -5.6,-176.2,-5.9,-176.1
Q -6.4,-176.0,-6.5,-177.0
Q -6.6,-177.5,-6.7,-178.0
Q -7.0,-177.9,-7.1,-178.1
Q -7.2,-178.4,-7.1,-179.5
Q -7.1,-179.5,-7.1,-179.5
Q -7.1,-180.3,-7.1,-181.1
Q -7.1,-182.2,-7.1,-183.3
Q -7.5,-183.2,-7.5,-183.5
Q -7.6,-183.7,-7.6,-184.6
Q -7.6,-184.6,-7.6,-184.6
Q -7.6,-185.3,-7.6,-186.0
Q -7.6,-187.1,-7.6,-188.2
Q -7.7,-188.2,-7.8,-188.1
Q -8.1,-188.1,-8.0,-190.4
Q -8.0,-194.7,-8.1,-195.0
Q -8.4,-195.9,-9.7,-194.2
Q -10.6,-193.0,-11.1,-190.9
Q -11.1,-189.8,-11.1,-188.7
Q -10.7,-184.7,-9.8,-181.9
Q -7.3,-174.4,-8.9,-175.0
Q -9.7,-175.2,-12.4,-183.8
Q -14.6,-190.8,-16.5,-194.7
Q -16.4,-193.4,-16.3,-192.2
Q -16.0,-189.8,-15.1,-185.3
Q -14.2,-180.9,-13.8,-178.7
Q -13.4,-176.4,-12.7,-173.7
Q -10.1,-163.2,-11.1,-163.2
Q -11.7,-163.2,-12.3,-165.1
Q -14.8,-174.1,-16.0,-179.9
Q -16.6,-182.5,-17.5,-182.2
Q -21.8,-180.9,-21.2,-177.8
Q -21.0,-176.8,-15.3,-167.4
Q -10.5,-159.3,-12.0,-159.3
Q -12.4,-159.3,-15.1,-163.7
Q -17.9,-168.0,-19.7,-170.6
Q -21.4,-173.3,-22.7,-175.8
Q -24.0,-178.4,-28.8,-186.8
Q -30.9,-190.3,-31.1,-189.6
Q -31.2,-189.2,-31.6,-186.9
Q -31.0,-187.1,-31.1,-185.9
Q -31.1,-185.9,-31.1,-185.9
Q -31.1,-185.3,-31.1,-184.7
Q -31.0,-183.8,-30.9,-182.9
Q -28.1,-160.8,-21.4,-157.8
Q -12.2,-153.5,-5.7,-142.8
Q -4.4,-140.7,-3.1,-140.7
Q -2.4,-140.7,-1.8,-140.7
 " /> 
<path  
style="fill:rgb(14,103,171)" 
d="M -1.8 -140.7
Q -1.3,-140.4,-0.7,-140.2
Q -0.7,-140.2,-0.7,-140.2
Q -0.1,-140.2,0.4,-140.2
Q -0.1,-140.5,-0.6,-140.7
Q -0.6,-140.7,-0.6,-140.7
Q -1.2,-140.7,-1.8,-140.7
 " /> 
<path  
style="fill:rgb(14,103,171)" 
d="M -1.8 -140.7
Q -1.8,-140.5,-1.9,-140.4
Q -1.9,-140.3,-1.6,-140.2
Q -1.3,-140.2,-0.7,-140.2
Q -1.3,-140.4,-1.8,-140.7
 " /> 
<path  
style="fill:rgb(14,103,171)" 
d="M 0.4 -140.2
Q 0.5,-140.4,0.5,-140.5
Q 0.6,-140.7,-0.6,-140.7
Q -0.1,-140.5,0.4,-140.2
 " /> 
<path  
style="fill:rgb(14,103,171)" 
d="M -31.1 -184.7
Q -31.1,-185.3,-31.1,-185.9
Q -31.3,-186.4,-31.6,-186.9
Q -31.6,-185.0,-31.5,-184.7
Q -31.4,-184.5,-31.1,-184.7
 " /> 
<path  
style="fill:rgb(14,103,171)" 
d="M -11.1 -188.7
Q -11.1,-189.8,-11.1,-190.9
Q -11.2,-190.6,-11.4,-190.2
Q -11.6,-189.6,-11.1,-188.7
 " /> 
<path  
style="fill:rgb(14,103,171)" 
d="M -8.0 -190.4
Q -8.1,-188.1,-7.8,-188.1
Q -7.7,-188.2,-7.6,-188.2
Q -7.6,-188.8,-7.6,-189.4
Q -7.6,-189.9,-7.6,-190.1
Q -7.7,-190.6,-8.0,-190.4
 " /> 
<path  
style="fill:rgb(4,4,4)" 
d="M -7.6 -188.2
Q -6.9,-188.2,-6.2,-188.3
Q -6.2,-188.9,-6.2,-190.4
Q -6.9,-190.3,-7.6,-190.1
Q -7.6,-189.9,-7.6,-189.4
Q -7.6,-188.8,-7.6,-188.2
 " /> 
<path  
style="fill:rgb(4,4,4)" 
d="M -7.6 -188.2
Q -7.6,-187.1,-7.6,-186.0
Q -7.2,-186.2,-7.2,-185.9
Q -7.1,-185.9,-7.1,-185.5
Q -6.5,-185.5,-5.8,-185.6
Q -5.8,-186.7,-5.8,-187.8
Q -6.1,-187.6,-6.2,-187.8
Q -6.2,-187.9,-6.2,-188.3
Q -6.9,-188.2,-7.6,-188.2
 " /> 
<path  
style="fill:rgb(14,103,171)" 
d="M -7.6 -186.0
Q -7.6,-185.3,-7.6,-184.6
Q -7.3,-184.0,-7.1,-183.3
Q -7.1,-184.9,-7.1,-185.5
Q -7.1,-185.9,-7.2,-185.9
Q -7.2,-186.2,-7.6,-186.0
 " /> 
<path  
style="fill:rgb(4,4,4)" 
d="M -7.1 -183.3
Q -6.4,-183.3,-5.8,-183.3
Q -5.8,-183.5,-5.8,-183.7
Q -5.8,-184.6,-5.8,-185.6
Q -6.5,-185.5,-7.1,-185.5
Q -7.1,-184.9,-7.1,-183.3
 " /> 
<path  
style="fill:rgb(4,4,4)" 
d="M -7.1 -183.3
Q -7.1,-182.2,-7.1,-181.1
Q -6.4,-181.6,-5.7,-182.0
Q -5.7,-182.0,-5.7,-182.1
Q -5.8,-182.3,-5.8,-183.3
Q -6.4,-183.3,-7.1,-183.3
 " /> 
<path  
style="fill:rgb(14,103,171)" 
d="M -7.1 -183.3
Q -7.3,-184.0,-7.6,-184.6
Q -7.6,-184.6,-7.6,-184.6
Q -7.6,-183.7,-7.5,-183.5
Q -7.5,-183.2,-7.1,-183.3
 " /> 
<path  
style="fill:rgb(4,4,4)" 
d="M -7.1 -181.1
Q -6.8,-181.2,-6.7,-181.1
Q -6.0,-181.6,-5.3,-182.0
Q -5.6,-181.9,-5.7,-182.0
Q -6.4,-181.6,-7.1,-181.1
 " /> 
<path  
style="fill:rgb(14,103,171)" 
d="M -7.1 -181.1
Q -7.1,-180.3,-7.1,-179.5
Q -6.9,-178.7,-6.7,-178.0
Q -6.7,-179.1,-6.7,-179.8
Q -6.7,-180.9,-6.7,-181.0
Q -6.7,-181.1,-6.7,-181.1
Q -6.8,-181.2,-7.1,-181.1
 " /> 
<path  
style="fill:rgb(4,4,4)" 
d="M -6.7 -178.0
Q -6.0,-178.1,-5.3,-178.1
Q -5.3,-178.9,-5.3,-179.8
Q -6.0,-179.8,-6.7,-179.8
Q -6.7,-179.1,-6.7,-178.0
 " /> 
<path  
style="fill:rgb(4,4,4)" 
d="M -6.7 -178.0
Q -6.0,-178.0,-5.3,-178.0
Q -5.3,-178.5,-5.3,-178.9
Q -6.0,-178.1,-6.7,-178.0
 " /> 
<path  
style="fill:rgb(4,4,4)" 
d="M -6.7 -178.0
Q -6.6,-177.5,-6.5,-177.0
Q -6.4,-176.0,-5.9,-176.1
Q -5.6,-176.2,-5.3,-176.2
Q -5.3,-177.1,-5.3,-178.0
Q -6.0,-178.0,-6.7,-178.0
 " /> 
<path  
style="fill:rgb(14,103,171)" 
d="M -6.7 -178.0
Q -6.9,-178.7,-7.1,-179.5
Q -7.1,-179.5,-7.1,-179.5
Q -7.2,-178.4,-7.1,-178.1
Q -7.0,-177.9,-6.7,-178.0
 " /> 
<path  
style="fill:rgb(14,103,171)" 
d="M -5.3 -176.2
Q -5.2,-176.7,-5.1,-177.1
Q -5.0,-177.5,-5.0,-178.1
Q -5.2,-178.1,-5.3,-178.1
Q -5.3,-177.6,-5.3,-177.2
Q -5.3,-177.1,-5.3,-176.2
 " /> 
<path  
style="fill:rgb(4,4,4)" 
d="M -5.3 -179.8
Q -5.3,-180.9,-5.3,-182.0
Q -6.0,-181.6,-6.7,-181.1
Q -6.7,-181.1,-6.7,-181.0
Q -6.7,-180.9,-6.7,-179.8
Q -6.0,-179.8,-5.3,-179.8
 " /> 
<path  
style="fill:rgb(14,103,171)" 
d="M -5.3 -179.8
Q -5.3,-178.9,-5.3,-178.1
Q -5.2,-178.1,-5.0,-178.1
Q -5.1,-178.8,-5.3,-179.8
 " /> 
<path  
style="fill:rgb(14,103,171)" 
d="M -5.3 -182.0
Q -5.3,-182.9,-5.3,-183.9
Q -5.3,-185.2,-5.3,-185.4
Q -5.4,-185.7,-5.8,-185.6
Q -5.8,-184.6,-5.8,-183.7
Q -5.8,-183.5,-5.8,-183.3
Q -5.8,-182.3,-5.7,-182.1
Q -5.7,-182.0,-5.7,-182.0
Q -5.6,-181.9,-5.3,-182.0
 " /> 
<path  
style="fill:rgb(14,103,171)" 
d="M -5.8 -187.8
Q -5.8,-188.5,-5.7,-189.2
Q -6.0,-189.8,-6.2,-190.4
Q -6.2,-188.9,-6.2,-188.3
Q -6.2,-187.9,-6.2,-187.8
Q -6.1,-187.6,-5.8,-187.8
 " /> 
<path  
style="fill:rgb(14,103,171)" 
d="M -6.2 -190.4
Q -6.0,-189.8,-5.7,-189.2
Q -5.7,-189.2,-5.7,-189.2
Q -5.7,-190.6,-6.0,-190.5
Q -6.1,-190.5,-6.2,-190.4
 " /> 
<path  
style="fill:rgb(14,103,171)" 
d="M -6.2 -194.9
Q -6.2,-198.9,-6.2,-202.9
Q -6.3,-201.9,-6.4,-200.9
Q -6.7,-198.9,-6.2,-194.9
 " /> 
<path  
style="fill:rgb(14,103,171)" 
d="M 0.0 -196.2
Q -0.0,-195.5,-0.0,-194.8
Q 0.2,-194.2,0.4,-193.6
Q 0.4,-195.9,0.4,-196.2
Q 0.3,-196.4,0.0,-196.2
 " /> 
<path  
style="fill:rgb(14,103,171)" 
d="M 0.4 -193.6
Q 0.2,-194.2,-0.0,-194.8
Q -0.0,-194.8,-0.0,-194.8
Q -0.1,-193.4,0.2,-193.5
Q 0.3,-193.5,0.4,-193.6
 " /> 
<path  
style="fill:rgb(14,103,171)" 
d="M 0.4 -191.8
Q 0.4,-190.8,0.4,-189.9
Q 0.4,-188.1,0.6,-188.1
Q 0.8,-188.2,0.9,-188.2
Q 0.9,-190.5,0.9,-191.3
Q 0.8,-191.6,0.8,-191.7
Q 0.8,-191.9,0.4,-191.8
 " /> 
<path  
style="fill:rgb(4,4,4)" 
d="M 0.9 -188.2
Q 1.6,-188.2,2.2,-188.2
Q 2.2,-188.4,2.2,-188.6
Q 2.2,-189.9,2.2,-191.3
Q 1.5,-191.3,0.9,-191.3
Q 0.9,-190.5,0.9,-188.2
 " /> 
<path  
style="fill:rgb(4,4,4)" 
d="M 0.9 -188.2
Q 0.9,-186.2,0.9,-184.2
Q 1.2,-184.4,1.3,-184.2
Q 1.9,-184.1,2.5,-184.0
Q 2.7,-185.4,2.7,-186.0
Q 2.2,-185.8,2.2,-188.2
Q 1.6,-188.2,0.9,-188.2
 " /> 
<path  
style="fill:rgb(14,103,171)" 
d="M 0.9 -184.2
Q 0.8,-177.4,1.1,-177.5
Q 1.2,-177.5,1.3,-177.6
Q 1.3,-183.9,1.3,-184.2
Q 1.3,-184.2,1.3,-184.2
Q 1.1,-184.2,0.9,-184.2
 " /> 
<path  
style="fill:rgb(14,103,171)" 
d="M 2.7 -186.0
Q 2.7,-187.4,2.7,-188.7
Q 2.7,-191.5,2.5,-191.4
Q 2.3,-191.4,2.2,-191.3
Q 2.2,-189.9,2.2,-188.6
Q 2.2,-188.4,2.2,-188.2
Q 2.2,-185.8,2.7,-186.0
 " /> 
<path  
style="fill:rgb(14,103,171)" 
d="M 7.6 -186.0
Q 7.6,-185.9,7.6,-185.9
Q 7.6,-185.8,7.6,-184.6
Q 7.6,-183.9,7.6,-183.3
Q 7.7,-183.7,7.8,-184.0
Q 8.0,-184.7,7.6,-186.0
 " /> 
<path  
style="fill:rgb(14,103,171)" 
d="M 12.9 -178.0
Q 14.0,-178.0,15.1,-178.0
Q 14.8,-178.1,14.4,-178.3
Q 13.8,-178.5,12.9,-178.0
 " /> 
<path  
style="fill:rgb(14,103,171)" 
d="M 27.1 -182.0
Q 27.1,-180.4,27.1,-178.9
Q 27.2,-179.3,27.4,-179.8
Q 27.6,-180.7,27.1,-182.0
 " /> 
<path  
style="fill:rgb(14,103,171)" 
d="M 19.1 -155.3
Q 17.3,-153.8,16.0,-152.2
Q 17.8,-153.6,19.1,-155.3
 " /> 
<path  
style="fill:rgb(14,103,171)" 
d="M 10.7 -147.8
Q 10.3,-147.5,9.9,-147.2
Q 9.1,-146.5,8.4,-145.6
Q 8.7,-145.8,9.0,-146.0
Q 9.5,-146.4,10.1,-147.1
Q 10.4,-147.4,10.7,-147.8
 " /> 
</g> 
</svg> 
