<?xml version="1.0"?>
<!DOCTYPE svg PUBLIC "-//W3C//DTD SVG 1.1//EN" "http://www.w3.org/Graphics/SVG/1.1/DTD/svg11.dtd">
<svg xmlns="http://www.w3.org/2000/svg" version="1.1">
<g transform="translate(112.6,219.2)" stroke-width="0" fill="none" >
<path  
style="fill:rgb(4,4,4)" 
d="M 58.8 217.6
Q 60.8,220.6,61.3,221.0
Q 64.2,223.4,66.4,214.5
Q 67.5,209.6,68.8,205.6
Q 70.1,201.6,71.3,197.9
Q 72.4,194.1,73.8,189.9
Q 75.2,185.7,75.8,183.4
Q 76.4,181.2,77.3,178.1
Q 90.3,135.5,70.2,121.2
Q 65.6,118.0,53.7,113.0
Q 40.7,107.6,36.4,95.9
Q 34.2,89.8,34.2,84.5
Q 35.2,85.3,36.1,86.1
Q 40.9,89.9,47.0,90.0
Q 59.6,90.2,59.6,74.2
Q 59.6,57.8,43.0,28.1
Q 36.1,15.8,31.9,4.1
Q 30.0,-1.3,28.1,-3.6
Q 26.9,-4.9,26.8,-5.3
Q 26.6,-5.7,29.0,-5.7
Q 31.4,-5.7,31.9,-4.4
Q 35.9,6.3,38.8,6.3
Q 42.7,6.3,43.4,-2.7
Q 43.7,-6.5,43.2,-8.8
Q 42.8,-11.0,44.8,-13.1
Q 46.7,-15.2,47.1,-15.4
Q 47.5,-15.5,48.4,-12.3
Q 51.4,-2.6,55.5,-4.2
Q 57.6,-5.0,59.1,-12.0
Q 59.7,-14.5,59.4,-19.4
Q 59.2,-24.3,61.7,-26.7
Q 64.2,-29.1,66.5,-29.6
Q 89.8,-34.5,102.6,-46.4
Q 112.4,-55.5,112.6,-61.4
Q 112.8,-66.5,104.0,-60.4
Q 100.3,-57.8,100.6,-58.8
Q 101.4,-61.7,105.5,-67.3
Q 124.0,-93.2,124.2,-107.3
Q 124.2,-114.4,120.3,-112.9
Q 117.7,-111.9,111.0,-102.8
Q 111.1,-103.3,111.3,-103.7
Q 112.5,-108.2,115.5,-116.1
Q 118.8,-125.0,119.7,-136.4
Q 120.5,-147.7,116.9,-151.6
Q 110.9,-158.0,103.0,-134.4
Q 100.9,-127.9,100.1,-127.9
Q 99.6,-127.9,98.2,-132.4
Q 90.9,-156.1,85.1,-158.6
Q 79.0,-161.3,78.5,-147.2
Q 78.2,-139.7,77.1,-138.9
Q 76.2,-138.3,72.5,-142.0
Q 68.4,-146.1,67.3,-145.2
Q 65.9,-144.1,67.6,-139.2
Q 68.8,-135.5,68.0,-135.3
Q 67.3,-135.2,62.9,-139.0
Q 58.9,-142.4,57.4,-140.6
Q 56.8,-140.0,57.6,-137.5
Q 58.6,-134.4,57.4,-133.8
Q 52.5,-131.2,50.7,-137.7
Q 45.9,-154.7,29.8,-158.8
Q 26.9,-159.6,24.1,-159.3
Q 21.3,-159.0,21.7,-159.8
Q 22.6,-161.5,25.3,-169.5
Q 30.5,-185.0,28.1,-187.9
Q 25.6,-190.9,21.1,-181.6
Q 20.4,-180.3,19.8,-179.0
Q 19.5,-179.7,19.1,-180.3
Q 17.3,-183.2,14.2,-183.7
Q 12.4,-184.0,12.7,-184.9
Q 14.2,-189.7,14.3,-195.9
Q 14.4,-203.6,11.3,-200.8
Q 9.4,-198.9,8.6,-194.9
Q 7.9,-190.9,6.9,-195.1
Q 6.6,-196.3,4.4,-198.5
Q 2.3,-200.8,1.4,-200.8
Q 0.6,-200.8,0.3,-203.1
Q -0.2,-206.8,-2.1,-213.9
Q -2.2,-214.6,-2.5,-215.1
Q -3.2,-214.9,-4.0,-214.6
Q -3.1,-209.2,-2.5,-206.5
Q -1.1,-200.6,-0.3,-193.1
Q 0.5,-193.2,1.3,-193.2
Q 1.3,-194.6,1.3,-196.0
Q 1.1,-200.1,3.7,-196.7
Q 7.6,-191.6,6.1,-182.6
Q 5.4,-178.9,6.1,-178.7
Q 6.7,-178.5,6.9,-178.6
Q 7.0,-178.8,7.8,-182.6
Q 10.4,-196.2,12.4,-198.8
Q 12.4,-194.3,12.0,-192.3
Q 11.6,-190.3,11.1,-187.0
Q 10.6,-183.7,9.4,-182.7
Q 8.2,-181.7,9.0,-181.1
Q 9.8,-180.4,8.7,-176.3
Q 6.9,-170.1,7.3,-169.5
Q 8.3,-167.7,10.1,-174.7
Q 11.6,-180.1,11.9,-180.9
Q 12.1,-181.8,14.1,-181.6
Q 20.2,-180.9,16.9,-171.5
Q 14.7,-165.2,16.0,-165.2
Q 16.6,-165.2,19.0,-171.9
Q 21.5,-178.8,24.7,-183.7
Q 25.5,-185.0,26.3,-186.3
Q 26.4,-185.4,26.5,-184.5
Q 26.9,-180.8,22.5,-167.7
Q 20.3,-161.5,19.1,-159.4
Q 17.8,-157.2,13.3,-154.1
Q 12.4,-152.8,10.7,-151.5
Q 9.9,-150.6,9.1,-149.8
Q 7.5,-148.1,5.9,-145.8
Q 4.4,-143.4,2.3,-143.7
Q 0.2,-143.9,-2.1,-143.9
Q -4.4,-143.9,-5.7,-146.1
Q -7.1,-148.3,-8.7,-150.3
Q -9.4,-151.3,-10.2,-152.3
Q -12.0,-153.7,-13.8,-155.9
Q -18.0,-159.6,-20.6,-160.5
Q -24.5,-161.8,-26.1,-165.5
Q -29.3,-173.0,-31.3,-183.7
Q -33.2,-194.0,-31.2,-192.0
Q -30.8,-191.5,-24.9,-181.5
Q -18.8,-171.2,-15.1,-166.1
Q -13.7,-164.1,-13.4,-163.6
Q -13.1,-163.1,-12.3,-162.7
Q -10.1,-161.9,-14.2,-168.1
Q -22.9,-181.1,-21.1,-183.1
Q -19.3,-185.0,-17.9,-185.0
Q -17.2,-185.0,-16.1,-180.6
Q -12.4,-165.8,-11.4,-166.3
Q -10.4,-166.8,-12.0,-172.3
Q -13.2,-176.4,-14.7,-182.8
Q -15.6,-186.8,-16.4,-190.1
Q -17.3,-193.5,-17.5,-195.7
Q -17.7,-196.8,-17.8,-197.9
Q -17.6,-197.6,-17.4,-197.4
Q -17.0,-197.0,-16.2,-194.8
Q -15.5,-192.6,-14.7,-190.8
Q -13.9,-189.0,-12.4,-184.8
Q -10.2,-178.1,-9.4,-178.1
Q -8.2,-178.1,-10.2,-183.6
Q -11.1,-186.1,-12.0,-191.0
Q -12.3,-190.8,-12.4,-191.1
Q -12.4,-191.3,-12.4,-193.2
Q -11.1,-196.8,-9.3,-198.1
Q -9.0,-198.3,-8.9,-198.1
Q -8.9,-197.9,-8.9,-196.8
Q -8.2,-196.8,-7.6,-196.8
Q -7.6,-198.1,-7.6,-199.5
Q -7.9,-199.3,-7.9,-199.5
Q -8.0,-199.8,-8.0,-203.5
Q -8.0,-203.9,-8.0,-204.3
Q -8.0,-205.5,-8.0,-206.6
Q -8.8,-206.6,-9.6,-206.5
Q -9.6,-200.6,-10.9,-199.6
Q -12.2,-198.7,-14.1,-195.1
Q -17.0,-201.2,-19.0,-200.5
Q -19.7,-200.2,-19.4,-196.3
Q -19.2,-192.4,-18.8,-191.1
Q -17.3,-187.3,-19.7,-186.3
Q -21.5,-185.5,-22.5,-184.4
Q -23.6,-183.3,-23.9,-183.7
Q -24.3,-184.2,-26.2,-187.9
Q -30.4,-195.9,-32.8,-195.3
Q -36.2,-194.5,-31.7,-175.5
Q -30.3,-169.3,-27.8,-164.3
Q -27.3,-163.3,-26.8,-162.3
Q -28.4,-162.4,-30.1,-162.5
Q -43.9,-163.2,-48.0,-143.9
Q -48.7,-140.6,-53.6,-135.5
Q -57.1,-132.0,-57.5,-131.8
Q -60.3,-130.4,-59.8,-141.2
Q -59.4,-151.5,-59.3,-156.3
Q -60.1,-156.3,-60.9,-156.3
Q -60.9,-155.6,-60.9,-154.9
Q -61.0,-153.4,-61.3,-153.2
Q -61.3,-150.8,-61.3,-148.3
Q -61.4,-145.8,-61.6,-145.8
Q -61.7,-145.7,-61.8,-145.7
Q -61.8,-143.7,-61.8,-141.7
Q -61.8,-139.6,-62.2,-139.5
Q -62.2,-138.3,-62.2,-137.2
Q -61.9,-137.4,-61.8,-137.2
Q -61.8,-136.9,-61.8,-134.1
Q -61.8,-133.7,-61.8,-133.2
Q -62.0,-130.5,-59.3,-129.9
Q -58.2,-129.6,-60.0,-127.0
Q -61.8,-124.3,-64.9,-117.7
Q -64.9,-117.5,-64.9,-117.2
Q -65.4,-116.1,-66.0,-115.0
Q -67.9,-111.2,-68.7,-105.2
Q -68.8,-104.3,-68.9,-103.5
Q -68.9,-103.0,-68.9,-102.6
Q -68.9,-102.4,-69.0,-102.3
Q -69.1,-102.0,-69.2,-101.0
Q -69.3,-100.4,-69.3,-99.9
Q -69.4,-97.8,-69.6,-97.8
Q -69.7,-97.7,-69.8,-97.7
Q -70.3,-90.1,-70.2,-88.8
Q -70.2,-88.1,-70.2,-87.5
Q -70.2,-86.8,-70.2,-86.1
Q -70.2,-85.7,-70.2,-85.2
Q -70.2,-84.1,-70.2,-83.0
Q -70.2,-81.5,-70.2,-79.9
Q -69.9,-80.0,-69.8,-79.8
Q -69.8,-79.6,-69.8,-77.2
Q -69.8,-74.6,-68.9,-70.6
Q -68.9,-70.1,-68.9,-69.7
Q -68.4,-67.8,-68.0,-65.9
Q -67.1,-62.1,-65.6,-57.0
Q -64.0,-51.9,-60.4,-42.1
Q -59.7,-41.0,-59.8,-41.2
Q -60.1,-41.6,-60.4,-42.1
Q -57.2,-35.6,-54.8,-32.1
Q -52.4,-28.7,-52.6,-28.5
Q -52.7,-28.4,-55.1,-28.8
Q -61.1,-29.8,-69.8,-33.2
Q -72.0,-34.1,-74.2,-35.0
Q -74.9,-35.3,-75.6,-35.7
Q -76.9,-36.3,-77.8,-37.0
Q -78.2,-37.3,-78.7,-37.7
Q -87.1,-42.6,-91.8,-46.6
Q -94.1,-48.6,-96.4,-50.6
Q -96.9,-50.9,-97.3,-51.2
Q -98.2,-51.9,-98.9,-52.8
Q -99.2,-53.2,-99.6,-53.7
Q -104.8,-61.7,-107.5,-67.3
Q -111.5,-75.2,-110.5,-76.1
Q -109.8,-76.8,-103.6,-73.7
Q -102.2,-73.2,-101.3,-72.3
Q -97.8,-70.1,-95.1,-68.8
Q -94.8,-68.7,-94.4,-68.6
Q -93.8,-68.3,-93.3,-67.9
Q -93.1,-67.7,-92.9,-67.5
Q -91.0,-67.8,-90.5,-68.3
Q -90.0,-68.8,-91.0,-71.0
Q -92.0,-73.2,-96.9,-81.7
Q -97.1,-81.9,-97.3,-82.1
Q -97.7,-82.6,-98.0,-83.2
Q -98.1,-83.6,-98.2,-83.9
Q -105.0,-99.1,-106.2,-103.9
Q -108.4,-112.7,-108.4,-124.8
Q -108.4,-125.3,-108.4,-125.8
Q -108.4,-126.8,-108.2,-126.9
Q -108.1,-127.0,-108.0,-127.0
Q -107.1,-131.9,-106.7,-133.2
Q -106.5,-133.9,-106.2,-134.6
Q -105.8,-135.1,-105.3,-135.6
Q -104.3,-136.7,-103.1,-135.0
Q -102.5,-135.4,-101.9,-135.8
Q -103.4,-138.2,-104.8,-138.2
Q -108.0,-137.9,-109.7,-129.5
Q -114.9,-103.8,-93.3,-70.5
Q -94.4,-71.1,-103.7,-76.1
Q -116.3,-82.9,-111.1,-69.4
Q -105.2,-54.1,-93.9,-45.2
Q -72.3,-28.2,-52.7,-26.3
Q -50.4,-26.1,-47.2,-22.5
Q -46.1,-21.3,-48.3,-18.8
Q -55.1,-11.4,-57.3,-3.5
Q -59.5,4.3,-55.8,6.3
Q -50.4,9.2,-38.1,-14.2
Q -37.2,-15.9,-36.1,-15.1
Q -34.9,-14.2,-33.2,-13.5
Q -31.4,-12.8,-31.7,-12.0
Q -31.9,-11.2,-32.8,-9.4
Q -40.5,6.0,-36.5,11.2
Q -31.5,17.5,-18.0,-3.5
Q -17.2,-4.9,-12.5,-3.2
Q -12.0,-3.0,-12.8,-1.3
Q -16.5,5.9,-17.8,15.9
Q -19.8,31.9,-30.2,45.6
Q -42.5,61.7,-38.0,79.4
Q -35.0,91.0,-27.8,93.3
Q -21.0,95.4,-13.2,88.8
Q -13.3,89.3,-13.5,89.9
Q -13.7,91.0,-16.0,98.8
Q -23.7,125.0,-20.0,141.2
Q -14.4,166.4,11.4,184.8
Q 19.7,190.8,37.7,200.2
Q 52.4,207.8,58.8,217.6
 " /> 
<path  
style="fill:rgb(7,193,201)" 
d="M 14.7 184.5
Q 14.9,184.6,15.1,184.7
Q 15.6,184.9,16.4,185.4
Q 16.0,184.7,15.6,184.0
Q 15.1,184.3,14.7,184.5
 " /> 
<path  
style="fill:rgb(14,103,171)" 
d="M 14.7 184.5
Q 13.6,182.8,12.4,181.0
Q 6.7,171.8,2.8,157.7
Q 0.1,147.7,1.4,145.6
Q 2.2,144.3,3.0,149.9
Q 5.4,166.6,14.8,182.7
Q 15.2,183.4,15.6,184.0
Q 16.0,184.7,16.4,185.4
Q 18.8,187.0,21.1,188.5
Q 25.8,191.6,34.3,195.9
Q 43.1,200.3,42.8,199.5
Q 41.5,195.5,37.9,190.4
Q 35.9,187.5,34.2,185.0
Q 32.6,182.5,30.7,180.1
Q 20.1,166.7,16.4,150.3
Q 14.1,140.1,15.6,140.6
Q 16.2,140.9,17.0,145.5
Q 19.8,161.2,36.0,184.2
Q 42.7,193.8,44.4,199.0
Q 45.3,201.6,48.7,203.8
Q 55.6,208.2,60.2,215.1
Q 62.3,218.3,62.6,218.3
Q 62.9,218.3,63.9,214.2
Q 65.0,209.7,68.9,197.2
Q 73.7,182.0,71.8,174.4
Q 69.1,163.7,50.8,144.0
Q 40.2,132.5,42.7,132.5
Q 43.3,132.5,46.1,136.0
Q 48.8,139.4,52.7,143.4
Q 71.6,162.7,74.0,175.8
Q 74.2,177.4,74.5,178.9
Q 75.0,177.3,75.4,175.6
Q 81.0,155.9,79.2,140.8
Q 77.4,126.5,59.1,118.3
Q 43.3,111.3,39.0,105.5
Q 33.7,98.4,32.9,91.2
Q 31.2,91.2,30.9,91.5
Q 30.7,91.8,30.7,98.0
Q 30.8,107.5,28.9,107.1
Q 28.3,106.9,26.5,101.9
Q 24.7,97.0,24.4,97.0
Q 24.1,97.0,23.6,98.8
Q 21.5,105.6,16.6,100.8
Q 15.0,99.2,14.6,99.2
Q 14.2,99.3,12.4,101.4
Q 12.4,101.6,12.4,101.9
Q 12.4,118.7,9.5,118.5
Q 8.7,118.4,7.0,113.8
Q 5.9,110.9,4.0,103.2
Q 4.1,102.8,4.1,102.4
Q 4.2,101.7,3.6,101.4
Q 1.8,97.4,1.3,97.3
Q 0.8,97.2,-0.8,100.6
Q -4.3,108.3,-6.9,105.3
Q -8.6,103.3,-12.0,92.5
Q -14.7,101.0,-15.8,105.1
Q -22.1,127.8,-17.1,144.8
Q -11.1,165.4,10.7,181.6
Q 12.7,183.1,14.7,184.5
 " /> 
<path  
style="fill:rgb(7,193,201)" 
d="M 62.0 212.9
Q 62.3,213.6,62.7,213.1
Q 63.2,212.6,63.0,208.9
Q 61.2,186.2,51.0,167.2
Q 45.0,156.1,43.2,155.7
Q 41.9,155.4,45.7,161.5
Q 59.5,183.4,61.6,209.0
Q 61.8,212.3,62.0,212.9
 " /> 
<path  
style="fill:rgb(7,193,201)" 
d="M 75.3 157.6
Q 76.0,159.4,76.5,158.9
Q 77.0,158.4,76.1,155.7
Q 72.7,145.6,61.4,134.5
Q 56.4,129.4,55.5,129.4
Q 54.6,129.4,54.8,129.8
Q 54.9,130.2,60.1,135.3
Q 70.3,145.4,73.7,153.7
Q 74.6,155.9,75.3,157.6
 " /> 
<path  
style="fill:rgb(7,193,201)" 
d="M 14.7 184.5
Q 15.1,184.3,15.6,184.0
Q 15.2,183.4,14.8,182.7
Q 5.4,166.6,3.0,149.9
Q 2.2,144.3,1.4,145.6
Q 0.1,147.7,2.8,157.7
Q 6.7,171.8,12.4,181.0
Q 13.6,182.8,14.7,184.5
 " /> 
<path  
style="fill:rgb(7,193,201)" 
d="M -12.0 92.5
Q -11.8,91.9,-11.6,91.2
Q -11.7,91.2,-11.8,91.2
Q -12.0,91.3,-12.0,92.5
 " /> 
<path  
style="fill:rgb(7,193,201)" 
d="M -12.0 92.5
Q -11.6,92.5,-11.3,92.4
Q -11.4,91.8,-11.6,91.2
Q -11.8,91.9,-12.0,92.5
 " /> 
<path  
style="fill:rgb(7,193,201)" 
d="M -12.0 92.5
Q -8.6,103.3,-6.9,105.3
Q -4.3,108.3,-0.8,100.6
Q 0.8,97.2,1.3,97.3
Q 1.8,97.4,3.6,101.4
Q 3.0,99.3,2.4,97.6
Q 2.0,96.7,1.7,95.9
Q 1.2,96.5,0.7,97.1
Q -0.3,98.2,-1.6,101.4
Q -3.7,106.8,-6.2,105.5
Q -8.7,104.1,-11.3,92.4
Q -11.6,92.5,-12.0,92.5
 " /> 
<path  
style="fill:rgb(97,247,248)" 
d="M 3.6 101.4
Q 4.2,101.7,4.1,102.4
Q 4.1,102.8,4.0,103.2
Q 4.8,105.7,5.6,108.1
Q 9.0,118.6,10.1,117.6
Q 11.9,115.7,12.2,107.6
Q 12.3,104.8,12.4,101.9
Q 12.4,101.6,12.4,101.4
Q 13.3,98.8,14.0,98.5
Q 14.7,98.2,16.6,100.1
Q 21.1,104.5,23.3,98.5
Q 24.2,96.0,25.0,97.2
Q 25.3,97.5,26.8,101.8
Q 28.7,106.8,29.1,106.6
Q 30.8,105.9,30.5,97.1
Q 30.3,92.1,30.5,91.6
Q 30.8,91.1,32.4,90.3
Q 32.4,89.5,32.5,88.8
Q 32.5,87.2,32.2,86.5
Q 32.1,86.2,32.0,85.9
Q 32.0,83.6,32.0,81.4
Q 27.6,74.2,25.6,66.1
Q 21.7,50.6,24.7,43.8
Q 25.9,41.0,26.5,37.4
Q 26.8,35.7,27.1,33.9
Q 27.1,30.3,27.1,26.8
Q 26.9,25.1,26.7,23.4
Q 26.2,20.1,25.9,18.2
Q 25.8,17.3,25.6,16.4
Q 25.5,16.8,25.3,17.2
Q 24.9,18.1,24.4,21.1
Q 23.9,24.1,23.0,24.1
Q 22.1,24.1,23.3,16.5
Q 24.0,12.8,24.4,9.2
Q 24.7,5.7,25.3,5.7
Q 25.9,5.7,25.8,8.2
Q 25.7,10.7,26.6,13.5
Q 28.5,19.5,28.8,26.4
Q 28.8,27.5,28.9,28.5
Q 29.4,30.3,28.9,32.1
Q 28.8,33.0,28.7,34.0
Q 28.7,34.6,28.7,35.2
Q 28.3,40.5,25.7,45.5
Q 24.5,48.0,25.6,55.4
Q 25.9,57.5,26.2,59.6
Q 27.2,58.7,28.2,57.7
Q 30.2,55.7,33.3,53.2
Q 34.9,52.0,36.4,50.8
Q 36.7,50.8,36.9,50.8
Q 40.0,48.1,41.7,47.4
Q 45.5,45.7,46.4,46.3
Q 46.8,46.5,47.1,46.8
Q 47.3,46.8,47.6,46.8
Q 49.8,48.1,51.6,49.9
Q 47.1,40.5,44.4,35.6
Q 34.4,17.4,31.5,8.9
Q 27.3,-3.6,24.4,-4.5
Q 23.7,-4.8,20.0,-3.9
Q 15.5,-2.8,8.0,-2.1
Q 6.9,-2.1,5.8,-2.1
Q -4.9,-2.6,-7.5,-2.8
Q -10.1,-3.1,-11.4,-0.0
Q -14.9,7.6,-15.6,14.1
Q -17.4,31.0,-25.2,42.3
Q -27.2,45.2,-27.4,45.7
Q -27.6,46.3,-26.2,46.3
Q -25.8,46.3,-25.3,46.3
Q -23.6,46.3,-22.3,47.0
Q -20.1,48.2,-16.9,47.2
Q -16.2,47.0,-15.6,46.8
Q -15.3,46.8,-15.1,46.8
Q -14.6,46.6,-14.0,46.5
Q -12.9,46.3,-11.4,47.9
Q -9.9,49.5,-8.0,49.7
Q -4.0,50.2,-2.3,52.7
Q -1.8,53.4,-1.3,53.1
Q -1.2,53.0,-1.0,52.8
Q -0.7,52.5,-0.4,52.1
Q -0.2,50.3,0.0,48.5
Q 0.4,45.0,-0.9,42.2
Q -3.5,37.1,-4.1,30.0
Q -4.2,28.8,-4.2,27.7
Q -4.2,27.7,-4.2,27.6
Q -4.2,27.7,-4.2,27.6
Q -4.3,24.3,-4.4,21.0
Q -4.4,19.6,-4.4,18.3
Q -5.3,11.6,-5.4,10.9
Q -5.5,10.2,-4.9,10.0
Q -4.2,9.8,-3.4,13.7
Q -2.6,17.6,-1.5,21.4
Q -0.0,26.4,-1.1,26.5
Q -1.4,26.5,-1.6,26.4
Q -2.1,27.0,-2.7,27.6
Q -2.7,28.8,-2.7,29.9
Q -2.4,31.2,-2.2,32.5
Q -1.2,38.6,1.4,43.0
Q 4.3,47.8,2.5,47.1
Q 1.9,46.8,1.5,49.5
Q 1.3,51.2,1.1,52.4
Q 1.0,53.0,0.8,53.4
Q 0.6,54.1,0.4,54.8
Q 0.4,55.2,0.4,55.6
Q -0.1,57.8,-0.7,59.9
Q -3.8,71.9,-8.3,81.3
Q -9.8,84.5,-10.7,87.9
Q -11.1,89.5,-11.6,91.2
Q -11.4,91.8,-11.3,92.4
Q -8.7,104.1,-6.2,105.5
Q -3.7,106.8,-1.6,101.4
Q -0.3,98.2,0.7,97.1
Q 1.2,96.5,1.7,95.9
Q 2.0,96.7,2.4,97.6
Q 3.0,99.3,3.6,101.4
 " /> 
<path  
style="fill:rgb(7,193,201)" 
d="M 4.0 103.2
Q 5.9,110.9,7.0,113.8
Q 8.7,118.4,9.5,118.5
Q 12.4,118.7,12.4,101.9
Q 12.3,104.8,12.2,107.6
Q 11.9,115.7,10.1,117.6
Q 9.0,118.6,5.6,108.1
Q 4.8,105.7,4.0,103.2
 " /> 
<path  
style="fill:rgb(7,193,201)" 
d="M 12.4 101.4
Q 14.2,99.3,14.6,99.2
Q 15.0,99.2,16.6,100.8
Q 21.5,105.6,23.6,98.8
Q 24.1,97.0,24.4,97.0
Q 24.7,97.0,26.5,101.9
Q 28.3,106.9,28.9,107.1
Q 30.8,107.5,30.7,98.0
Q 30.7,91.8,30.9,91.5
Q 31.2,91.2,32.9,91.2
Q 32.7,90.8,32.4,90.3
Q 30.8,91.1,30.5,91.6
Q 30.3,92.1,30.5,97.1
Q 30.8,105.9,29.1,106.6
Q 28.7,106.8,26.8,101.8
Q 25.3,97.5,25.0,97.2
Q 24.2,96.0,23.3,98.5
Q 21.1,104.5,16.6,100.1
Q 14.7,98.2,14.0,98.5
Q 13.3,98.8,12.4,101.4
 " /> 
<path  
style="fill:rgb(7,193,201)" 
d="M 32.9 91.2
Q 32.9,90.2,32.7,90.3
Q 32.6,90.3,32.4,90.3
Q 32.7,90.8,32.9,91.2
 " /> 
<path  
style="fill:rgb(14,103,171)" 
d="M 0.4 55.6
Q 0.0,55.0,-0.4,54.3
Q -1.3,54.8,-2.5,53.2
Q -4.4,50.6,-8.1,50.2
Q -10.1,50.0,-11.5,48.4
Q -12.9,46.7,-14.0,46.7
Q -14.5,46.8,-15.1,46.8
Q -15.3,46.8,-15.6,46.8
Q -17.8,48.1,-19.3,48.1
Q -20.9,48.1,-25.3,46.3
Q -25.8,46.3,-26.2,46.3
Q -28.0,46.3,-30.2,49.5
Q -34.2,55.3,-35.8,61.2
Q -35.1,61.4,-34.5,61.5
Q -33.1,56.1,-31.6,56.1
Q -30.6,56.1,-32.5,60.4
Q -33.5,62.8,-34.1,62.8
Q -34.8,62.8,-34.5,61.5
Q -35.1,61.4,-35.8,61.2
Q -36.9,65.1,-36.9,69.1
Q -36.9,73.2,-35.5,69.8
Q -34.3,67.0,-27.2,59.0
Q -24.5,55.9,-24.0,55.7
Q -21.9,55.0,-28.4,62.8
Q -36.2,72.1,-36.1,77.0
Q -36.0,81.3,-32.4,86.7
Q -31.0,88.9,-28.0,90.8
Q -27.9,87.5,-27.8,84.3
Q -27.5,76.0,-26.4,77.1
Q -26.1,77.4,-26.2,81.3
Q -26.3,90.0,-27.2,90.6
Q -27.4,90.7,-27.6,90.8
Q -22.9,92.3,-18.4,89.7
Q -15.2,87.8,-14.6,85.8
Q -14.4,85.0,-14.7,80.3
Q -15.9,63.1,-14.4,61.5
Q -13.8,60.8,-13.6,61.5
Q -13.4,62.1,-13.4,68.9
Q -13.4,75.7,-12.8,84.3
Q -12.3,83.6,-11.7,83.0
Q -10.6,81.7,-10.0,79.4
Q -9.3,77.2,-7.8,74.7
Q -4.6,69.5,-2.3,59.1
Q -1.5,55.6,-0.5,55.6
Q -0.0,55.6,0.4,55.6
 " /> 
<path  
style="fill:rgb(7,193,201)" 
d="M -9.0 71.4
Q -7.8,72.6,-7.9,66.7
Q -8.1,60.7,-8.9,61.2
Q -9.3,61.5,-9.3,66.3
Q -9.3,71.1,-9.0,71.4
 " /> 
<path  
style="fill:rgb(14,103,171)" 
d="M 0.4 55.6
Q 0.4,55.2,0.4,54.8
Q -0.2,54.3,-0.4,54.3
Q 0.0,55.0,0.4,55.6
 " /> 
<path  
style="fill:rgb(4,4,4)" 
d="M 0.4 54.8
Q 0.6,54.1,0.8,53.4
Q 1.0,53.0,1.1,52.4
Q 0.3,52.3,-0.4,52.1
Q -0.4,53.2,-0.4,54.3
Q -0.2,54.3,0.4,54.8
 " /> 
<path  
style="fill:rgb(14,103,171)" 
d="M -2.7 29.9
Q -2.9,29.3,-3.1,28.8
Q -3.1,28.8,-3.1,28.8
Q -3.1,29.8,-3.0,29.9
Q -2.8,29.9,-2.7,29.9
 " /> 
<path  
style="fill:rgb(14,103,171)" 
d="M -2.7 29.9
Q -2.7,28.8,-2.7,27.6
Q -2.9,27.7,-3.1,27.7
Q -3.1,28.2,-3.1,28.8
Q -2.9,29.3,-2.7,29.9
 " /> 
<path  
style="fill:rgb(4,4,4)" 
d="M -2.7 29.9
Q -2.8,29.9,-2.9,29.9
Q -2.9,29.9,-3.0,29.9
Q -3.5,29.9,-4.1,30.0
Q -3.5,37.1,-0.9,42.2
Q 0.4,45.0,0.0,48.5
Q -0.2,50.3,-0.4,52.1
Q 0.3,52.3,1.1,52.4
Q 1.3,51.2,1.5,49.5
Q 1.9,46.8,2.5,47.1
Q 4.3,47.8,1.4,43.0
Q -1.2,38.6,-2.2,32.5
Q -2.4,31.2,-2.7,29.9
 " /> 
<path  
style="fill:rgb(7,193,201)" 
d="M -2.7 27.6
Q -2.7,26.9,-2.6,26.1
Q -2.6,24.6,-2.4,24.6
Q -2.3,24.6,-2.2,24.5
Q -2.4,24.5,-2.6,24.4
Q -2.9,24.3,-3.1,27.6
Q -2.9,27.6,-2.7,27.6
 " /> 
<path  
style="fill:rgb(97,247,248)" 
d="M -2.7 27.6
Q -2.1,27.0,-1.6,26.4
Q -2.1,26.0,-2.2,24.5
Q -2.3,24.6,-2.4,24.6
Q -2.6,24.6,-2.6,26.1
Q -2.7,26.9,-2.7,27.6
 " /> 
<path  
style="fill:rgb(4,4,4)" 
d="M -2.2 24.5
Q -2.1,26.0,-1.6,26.4
Q -1.4,26.5,-1.1,26.5
Q -0.0,26.4,-1.5,21.4
Q -2.6,17.6,-3.4,13.7
Q -4.2,9.8,-4.9,10.0
Q -5.5,10.2,-5.4,10.9
Q -5.3,11.6,-4.4,18.3
Q -4.3,18.6,-4.2,19.0
Q -3.9,19.6,-4.4,21.0
Q -4.3,24.3,-4.2,27.6
Q -4.2,27.7,-4.2,27.7
Q -3.7,27.7,-3.1,27.6
Q -2.9,24.3,-2.6,24.4
Q -2.4,24.5,-2.2,24.5
 " /> 
<path  
style="fill:rgb(14,103,171)" 
d="M -4.4 18.3
Q -4.4,19.6,-4.4,21.0
Q -3.9,19.6,-4.2,19.0
Q -4.3,18.6,-4.4,18.3
 " /> 
<path  
style="fill:rgb(7,193,201)" 
d="M -0.4 52.1
Q -0.7,52.5,-1.0,52.8
Q -1.2,53.0,-1.3,53.1
Q -0.9,53.7,-0.4,54.3
Q -0.4,53.2,-0.4,52.1
 " /> 
<path  
style="fill:rgb(7,193,201)" 
d="M -15.1 46.8
Q -14.5,46.8,-14.0,46.7
Q -12.9,46.7,-11.5,48.4
Q -10.1,50.0,-8.1,50.2
Q -4.4,50.6,-2.5,53.2
Q -1.3,54.8,-0.4,54.3
Q -0.9,53.7,-1.3,53.1
Q -1.8,53.4,-2.3,52.7
Q -4.0,50.2,-8.0,49.7
Q -9.9,49.5,-11.4,47.9
Q -12.9,46.3,-14.0,46.5
Q -14.6,46.6,-15.1,46.8
 " /> 
<path  
style="fill:rgb(7,193,201)" 
d="M -15.6 46.8
Q -16.2,47.0,-16.9,47.2
Q -20.1,48.2,-22.3,47.0
Q -23.6,46.3,-25.3,46.3
Q -20.9,48.1,-19.3,48.1
Q -17.8,48.1,-15.6,46.8
 " /> 
<path  
style="fill:rgb(14,103,171)" 
d="M 5.8 -2.1
Q 6.9,-2.1,8.0,-2.1
Q 7.7,-2.3,7.4,-2.4
Q 6.7,-2.7,6.2,-2.4
Q 6.0,-2.3,5.8,-2.1
 " /> 
<path  
style="fill:rgb(7,193,201)" 
d="M 51.6 49.9
Q 51.4,50.1,51.3,50.3
Q 51.6,50.5,52.0,50.8
Q 51.5,50.1,51.6,49.9
 " /> 
<path  
style="fill:rgb(7,193,201)" 
d="M 51.6 49.9
Q 49.8,48.1,47.6,46.8
Q 48.1,47.4,48.7,48.1
Q 49.8,49.4,50.9,50.1
Q 51.1,50.2,51.3,50.3
Q 51.4,50.1,51.6,49.9
 " /> 
<path  
style="fill:rgb(14,103,171)" 
d="M 47.6 46.8
Q 47.3,46.8,47.1,46.8
Q 46.6,46.6,46.0,46.5
Q 43.3,46.0,39.6,49.2
Q 38.4,50.1,37.7,50.4
Q 37.3,50.6,36.9,50.8
Q 36.7,50.8,36.4,50.8
Q 33.8,53.9,31.3,55.7
Q 28.9,57.4,26.2,60.1
Q 29.8,74.3,33.8,79.6
Q 33.6,76.5,33.3,73.4
Q 32.9,67.2,33.6,66.9
Q 34.3,66.6,34.4,66.8
Q 34.6,67.0,34.8,73.9
Q 34.9,80.8,34.3,80.4
Q 34.1,80.3,33.8,80.1
Q 34.9,81.3,36.0,82.5
Q 39.3,86.1,42.4,87.1
Q 43.4,87.3,42.1,83.6
Q 40.3,78.5,38.4,69.2
Q 36.7,60.7,37.8,61.1
Q 38.4,61.3,41.2,74.7
Q 43.7,87.3,46.0,87.9
Q 52.0,89.4,55.8,83.0
Q 57.9,79.3,54.5,73.0
Q 46.6,57.9,46.3,57.1
Q 46.2,56.5,46.8,56.5
Q 47.5,56.5,49.8,60.9
Q 52.1,65.2,53.9,68.3
Q 55.6,71.4,57.7,75.4
Q 57.5,73.8,57.4,72.1
Q 57.1,68.9,56.3,65.6
Q 55.9,64.0,55.6,62.3
Q 55.4,62.2,55.3,62.1
Q 55.2,62.0,55.1,61.9
Q 54.6,61.3,54.1,60.7
Q 53.9,60.5,53.6,60.1
Q 50.2,56.3,52.3,56.6
Q 53.0,56.7,54.1,58.4
Q 54.6,59.3,55.1,60.1
Q 53.8,55.7,52.9,53.2
Q 52.4,52.0,52.0,50.8
Q 51.6,50.5,51.3,50.3
Q 51.1,50.2,50.9,50.1
Q 49.8,49.4,48.7,48.1
Q 48.1,47.4,47.6,46.8
 " /> 
<path  
style="fill:rgb(7,193,201)" 
d="M 51.5 84.7
Q 52.0,85.9,52.5,85.9
Q 53.4,85.9,50.4,77.6
Q 48.2,71.6,47.6,71.6
Q 46.8,71.6,48.4,76.3
Q 50.5,82.2,51.5,84.7
 " /> 
<path  
style="fill:rgb(7,193,201)" 
d="M 47.1 46.8
Q 46.8,46.5,46.4,46.3
Q 45.5,45.7,41.7,47.4
Q 40.0,48.1,36.9,50.8
Q 37.3,50.6,37.7,50.4
Q 38.4,50.1,39.6,49.2
Q 43.3,46.0,46.0,46.5
Q 46.6,46.6,47.1,46.8
 " /> 
<path  
style="fill:rgb(7,193,201)" 
d="M 36.4 50.8
Q 34.9,52.0,33.3,53.2
Q 30.2,55.7,28.2,57.7
Q 27.2,58.7,26.2,59.6
Q 26.2,59.9,26.2,60.1
Q 28.9,57.4,31.3,55.7
Q 33.8,53.9,36.4,50.8
 " /> 
<path  
style="fill:rgb(4,4,4)" 
d="M 28.9 32.1
Q 28.9,30.3,28.9,28.5
Q 28.1,28.6,27.4,28.7
Q 27.5,30.0,27.3,32.0
Q 28.1,32.0,28.9,32.1
 " /> 
<path  
style="fill:rgb(7,193,201)" 
d="M 28.9 32.1
Q 29.4,30.3,28.9,28.5
Q 28.9,30.3,28.9,32.1
 " /> 
<path  
style="fill:rgb(4,4,4)" 
d="M 28.9 32.1
Q 28.1,32.0,27.3,32.0
Q 27.2,32.8,27.1,33.9
Q 27.9,33.9,28.7,34.0
Q 28.8,33.0,28.9,32.1
 " /> 
<path  
style="fill:rgb(4,4,4)" 
d="M 28.9 28.5
Q 28.8,27.5,28.8,26.4
Q 28.5,19.5,26.6,13.5
Q 25.7,10.7,25.8,8.2
Q 25.9,5.7,25.3,5.7
Q 24.7,5.7,24.4,9.2
Q 24.0,12.8,23.3,16.5
Q 22.1,24.1,23.0,24.1
Q 23.9,24.1,24.4,21.1
Q 24.9,18.1,25.3,17.2
Q 25.5,16.8,25.6,16.4
Q 25.8,17.3,25.9,18.2
Q 26.2,20.1,26.7,23.4
Q 26.9,25.1,27.1,26.8
Q 27.2,27.6,27.3,28.5
Q 27.3,28.6,27.4,28.7
Q 28.1,28.6,28.9,28.5
 " /> 
<path  
style="fill:rgb(14,103,171)" 
d="M 27.1 26.8
Q 27.1,30.3,27.1,33.9
Q 27.2,32.8,27.3,32.0
Q 27.5,29.9,27.3,28.7
Q 27.3,28.6,27.3,28.5
Q 27.2,27.6,27.1,26.8
 " /> 
<path  
style="fill:rgb(14,103,171)" 
d="M 32.0 81.4
Q 32.0,83.6,32.0,85.9
Q 32.1,85.3,32.2,84.8
Q 32.5,83.6,32.2,82.5
Q 32.1,82.0,32.0,81.4
 " /> 
<path  
style="fill:rgb(7,193,201)" 
d="M -28.0 90.8
Q -27.8,90.8,-27.6,90.8
Q -27.4,90.7,-27.2,90.6
Q -26.3,90.0,-26.2,81.3
Q -26.1,77.4,-26.4,77.1
Q -27.5,76.0,-27.8,84.3
Q -27.9,87.5,-28.0,90.8
 " /> 
<path  
style="fill:rgb(7,193,201)" 
d="M 33.8 79.6
Q 33.8,79.9,33.8,80.1
Q 34.1,80.3,34.3,80.4
Q 34.9,80.8,34.8,73.9
Q 34.6,67.0,34.4,66.8
Q 34.3,66.6,33.6,66.9
Q 32.9,67.2,33.3,73.4
Q 33.6,76.5,33.8,79.6
 " /> 
<path  
style="fill:rgb(7,193,201)" 
d="M 55.1 60.1
Q 54.7,60.5,54.3,60.9
Q 54.8,61.4,55.3,62.0
Q 55.1,61.6,55.1,61.0
Q 55.1,60.5,55.1,60.1
 " /> 
<path  
style="fill:rgb(7,193,201)" 
d="M 55.1 60.1
Q 54.6,59.3,54.1,58.4
Q 53.0,56.7,52.3,56.6
Q 50.2,56.3,53.6,60.1
Q 53.9,60.5,54.3,60.9
Q 54.7,60.5,55.1,60.1
 " /> 
<path  
style="fill:rgb(7,193,201)" 
d="M -34.5 61.5
Q -34.8,62.8,-34.1,62.8
Q -33.5,62.8,-32.5,60.4
Q -30.6,56.1,-31.6,56.1
Q -33.1,56.1,-34.5,61.5
 " /> 
<path  
style="fill:rgb(7,193,201)" 
d="M -68.0 -85.7
Q -68.0,-87.0,-68.0,-88.3
Q -68.2,-88.3,-68.4,-88.3
Q -68.4,-85.5,-68.2,-85.6
Q -68.1,-85.6,-68.0,-85.7
 " /> 
<path  
style="fill:rgb(97,247,248)" 
d="M -68.0 -85.7
Q -67.6,-76.3,-66.9,-72.5
Q -61.8,-43.5,-46.9,-25.9
Q -45.8,-24.5,-44.6,-23.2
Q -43.9,-24.2,-43.1,-25.2
Q -40.2,-29.3,-39.6,-29.5
Q -36.6,-30.5,-46.1,-18.6
Q -56.0,-6.2,-56.0,1.2
Q -56.0,5.3,-53.2,4.0
Q -50.0,2.5,-42.3,-10.8
Q -40.8,-13.4,-40.1,-14.5
Q -39.4,-15.6,-38.9,-16.8
Q -38.4,-17.9,-35.8,-21.4
Q -33.2,-24.8,-32.8,-24.8
Q -31.7,-24.8,-34.2,-21.0
Q -35.7,-18.9,-35.2,-18.2
Q -34.7,-17.5,-30.3,-15.0
Q -29.9,-15.7,-29.6,-16.4
Q -29.0,-17.9,-28.5,-19.6
Q -27.9,-21.3,-27.2,-21.1
Q -25.9,-20.7,-27.3,-17.6
Q -28.0,-16.1,-28.6,-14.3
Q -29.2,-12.5,-30.6,-9.6
Q -37.1,4.1,-35.1,9.1
Q -33.0,14.7,-21.8,-2.1
Q -19.9,-5.0,-19.1,-6.4
Q -18.3,-7.9,-14.7,-11.9
Q -14.3,-12.2,-14.0,-12.6
Q -14.0,-12.6,-14.0,-12.6
Q -12.0,-14.6,-12.4,-12.3
Q -12.9,-11.6,-13.3,-11.0
Q -14.1,-9.7,-14.8,-8.6
Q -15.4,-7.9,-15.9,-7.1
Q -14.2,-6.8,-12.6,-6.5
Q -9.3,-5.8,0.4,-4.8
Q 1.8,-4.8,3.1,-4.8
Q 4.5,-4.8,6.0,-4.9
Q 8.8,-4.9,9.3,-5.1
Q 9.5,-5.2,9.8,-5.2
Q 10.9,-5.2,12.0,-5.2
Q 17.8,-6.1,22.9,-7.2
Q 25.4,-7.8,28.0,-8.3
Q 28.0,-8.4,28.1,-8.5
Q 28.2,-8.7,30.2,-8.8
Q 29.6,-10.5,28.9,-12.1
Q 27.0,-16.7,27.9,-17.1
Q 28.5,-17.3,29.8,-14.3
Q 31.2,-11.3,32.2,-9.0
Q 33.2,-6.8,34.7,-3.0
Q 38.4,6.2,39.9,3.1
Q 44.2,-5.8,37.1,-20.0
Q 35.1,-23.9,36.1,-23.9
Q 37.0,-23.9,40.4,-16.9
Q 41.1,-15.5,41.8,-14.1
Q 43.0,-15.0,44.2,-16.0
Q 46.7,-17.9,46.5,-19.0
Q 46.3,-20.1,44.9,-24.3
Q 43.4,-28.4,43.9,-28.9
Q 44.4,-29.4,44.8,-29.0
Q 45.2,-28.5,48.0,-20.3
Q 52.0,-8.4,53.1,-7.1
Q 56.1,-3.7,57.0,-15.3
Q 57.2,-17.2,57.3,-19.0
Q 57.3,-20.3,57.3,-21.7
Q 57.1,-22.7,56.9,-23.7
Q 55.7,-28.9,54.7,-31.2
Q 52.8,-35.5,53.8,-35.5
Q 55.2,-35.5,57.4,-29.3
Q 58.0,-27.3,58.2,-27.2
Q 58.4,-27.0,59.1,-27.5
Q 59.4,-27.9,59.8,-28.3
Q 60.5,-29.2,61.1,-29.7
Q 61.4,-29.9,61.8,-30.1
Q 62.9,-31.5,64.0,-32.8
Q 74.7,-45.7,75.8,-60.1
Q 75.9,-61.8,76.0,-63.5
Q 76.0,-67.5,76.1,-67.9
Q 76.1,-68.2,76.4,-68.3
Q 76.4,-70.6,76.4,-72.8
Q 76.1,-72.7,76.0,-73.0
Q 76.0,-73.2,76.0,-74.3
Q 76.0,-74.3,76.0,-74.3
Q 76.0,-75.1,76.0,-75.9
Q 76.0,-77.0,76.0,-78.1
Q 75.1,-86.1,74.4,-90.9
Q 71.4,-111.5,61.8,-122.3
Q 60.6,-123.6,59.6,-124.8
Q 58.2,-125.7,57.8,-126.4
Q 57.6,-126.7,57.3,-127.0
Q 50.2,-131.9,47.1,-133.5
Q 44.0,-135.0,44.0,-135.7
Q 44.0,-137.3,46.9,-136.1
Q 48.6,-135.4,49.2,-135.1
Q 49.5,-135.0,49.8,-134.9
Q 46.1,-144.8,43.3,-147.9
Q 42.6,-148.8,41.8,-149.7
Q 41.4,-149.9,41.1,-150.1
Q 40.5,-150.6,39.6,-151.9
Q 38.8,-152.5,38.0,-153.0
Q 27.3,-160.7,16.2,-153.6
Q 15.2,-153.0,14.2,-152.3
Q 13.8,-151.8,13.3,-151.3
Q 12.4,-150.2,11.3,-149.3
Q 10.8,-148.8,10.2,-148.3
Q 9.1,-146.7,8.0,-145.1
Q 6.2,-142.6,5.5,-142.2
Q 4.8,-141.9,-0.9,-142.1
Q -2.9,-142.1,-4.9,-142.1
Q -6.7,-143.5,-7.8,-145.2
Q -8.9,-147.0,-12.0,-151.5
Q -14.2,-153.3,-15.6,-155.0
Q -16.4,-155.6,-17.3,-156.1
Q -28.5,-163.1,-38.7,-158.1
Q -39.6,-156.8,-40.9,-155.9
Q -43.6,-151.5,-44.4,-149.3
Q -46.7,-143.7,-46.7,-141.5
Q -46.7,-137.7,-48.3,-138.0
Q -48.8,-138.1,-50.5,-136.3
Q -52.2,-134.5,-52.2,-133.7
Q -52.2,-132.8,-54.0,-131.4
Q -57.2,-129.0,-61.1,-121.2
Q -64.6,-114.2,-66.0,-108.2
Q -66.6,-105.2,-67.6,-96.8
Q -67.6,-94.8,-67.8,-94.7
Q -67.9,-94.6,-68.0,-94.6
Q -68.0,-93.2,-68.0,-91.9
Q -68.0,-90.1,-68.0,-88.3
Q -68.0,-87.0,-68.0,-85.7
 " /> 
<path  
style="fill:rgb(4,4,4)" 
d="M 17.4 -17.5
Q 21.3,-15.3,21.3,-16.5
Q 21.3,-17.2,19.4,-18.5
Q 12.3,-23.4,0.1,-19.5
Q -2.4,-18.7,-2.6,-17.9
Q -2.8,-17.1,-1.7,-17.4
Q 11.8,-20.7,17.4,-17.5
 " /> 
<path  
style="fill:rgb(4,4,4)" 
d="M -1.1 -38.5
Q -0.6,-37.7,1.5,-41.5
Q 2.8,-43.6,4.3,-45.8
Q 6.4,-48.8,5.3,-49.1
Q 3.9,-49.4,0.0,-41.8
Q -1.4,-39.0,-1.1,-38.5
 " /> 
<path  
style="fill:rgb(4,4,4)" 
d="M 12.9 -42.4
Q 15.2,-38.1,15.6,-38.1
Q 16.6,-38.1,14.5,-42.6
Q 11.9,-48.2,10.7,-48.7
Q 9.3,-49.2,12.9,-42.4
 " /> 
<path  
style="fill:rgb(4,4,4)" 
d="M 38.7 -114.6
Q 37.3,-112.9,36.0,-111.9
Q 31.1,-105.2,28.2,-99.2
Q 23.5,-89.6,19.0,-75.9
Q 17.2,-70.4,16.6,-69.7
Q 16.0,-69.0,16.0,-67.9
Q 16.0,-66.7,15.1,-64.1
Q 13.6,-59.8,14.6,-59.7
Q 15.2,-59.7,16.2,-62.3
Q 16.7,-63.6,17.2,-64.9
Q 17.9,-63.4,18.6,-61.9
Q 24.5,-49.4,32.6,-48.0
Q 44.3,-46.0,55.6,-57.3
Q 65.5,-67.2,65.4,-83.2
Q 65.4,-100.3,54.6,-112.2
Q 50.7,-116.5,45.3,-117.2
Q 45.0,-117.1,44.7,-117.0
Q 44.0,-116.7,43.1,-117.2
Q 40.4,-115.9,39.5,-115.2
Q 39.1,-114.9,38.7,-114.6
 " /> 
<path  
style="fill:rgb(115,250,3)" 
d="M 33.3 -50.6
Q 33.9,-50.6,34.5,-50.6
Q 34.5,-50.6,34.5,-50.6
Q 35.7,-50.7,35.6,-50.4
Q 35.6,-50.3,35.6,-50.1
Q 36.4,-50.1,37.3,-50.1
Q 37.4,-50.2,37.4,-50.3
Q 37.5,-50.5,38.5,-50.5
Q 39.0,-50.5,39.6,-50.6
Q 40.0,-50.8,40.4,-51.0
Q 41.3,-51.5,42.0,-51.5
Q 42.3,-51.5,42.7,-51.5
Q 43.0,-51.7,43.3,-51.9
Q 44.0,-52.3,44.9,-52.8
Q 45.3,-53.0,45.8,-53.2
Q 47.0,-54.0,48.2,-54.8
Q 50.7,-56.4,52.4,-58.1
Q 53.3,-59.0,54.2,-59.9
Q 55.1,-61.2,56.4,-62.1
Q 57.3,-63.6,58.2,-65.0
Q 61.6,-70.5,62.7,-78.3
Q 62.9,-80.0,63.1,-81.7
Q 63.1,-83.7,63.1,-85.7
Q 62.3,-85.7,61.6,-85.7
Q 61.5,-78.9,57.4,-70.7
Q 46.8,-49.6,25.9,-61.5
Q 24.4,-62.4,24.4,-64.6
Q 24.4,-67.0,26.4,-69.0
Q 26.8,-69.3,27.1,-69.7
Q 24.8,-70.3,24.5,-70.6
Q 24.2,-70.9,24.2,-71.3
Q 24.3,-72.2,26.9,-71.4
Q 27.2,-71.4,27.4,-71.3
Q 30.7,-70.7,34.8,-74.7
Q 36.9,-76.8,40.4,-81.2
Q 40.1,-81.7,39.7,-82.1
Q 31.0,-74.3,28.8,-76.6
Q 25.8,-79.7,33.2,-91.4
Q 34.8,-93.9,34.9,-95.2
Q 35.0,-96.6,36.7,-99.4
Q 39.8,-104.9,43.3,-106.5
Q 43.5,-106.6,43.7,-106.7
Q 43.1,-105.2,44.3,-104.8
Q 46.2,-104.1,49.1,-98.1
Q 52.1,-91.8,49.9,-89.3
Q 49.1,-88.5,46.1,-86.8
Q 44.1,-85.7,42.1,-84.2
Q 42.4,-83.8,42.7,-83.5
Q 43.2,-83.8,43.8,-84.1
Q 48.3,-86.5,52.0,-80.6
Q 54.5,-76.5,54.9,-79.5
Q 55.0,-80.3,55.1,-81.2
Q 55.1,-83.7,55.1,-86.1
Q 54.6,-92.1,52.8,-96.7
Q 52.2,-98.1,51.5,-99.4
Q 50.2,-101.8,50.3,-102.7
Q 50.5,-103.6,51.2,-102.9
Q 52.0,-102.1,54.2,-97.2
Q 54.4,-97.2,54.5,-97.1
Q 54.8,-97.0,55.6,-97.4
Q 59.3,-99.0,61.1,-90.1
Q 61.6,-88.0,61.6,-85.7
Q 62.3,-85.7,63.1,-85.7
Q 63.0,-86.9,62.9,-88.1
Q 62.0,-97.5,53.3,-110.1
Q 53.0,-110.4,52.7,-110.6
Q 52.0,-111.0,51.1,-112.3
Q 50.6,-112.7,50.0,-113.0
Q 48.9,-113.7,47.8,-114.1
Q 47.2,-114.3,46.7,-114.6
Q 45.1,-114.6,43.6,-114.6
Q 43.2,-114.4,42.8,-114.3
Q 42.0,-114.0,40.4,-113.2
Q 40.0,-112.7,39.5,-112.1
Q 38.6,-111.0,36.4,-109.2
Q 35.4,-107.7,34.4,-106.1
Q 28.8,-97.3,20.8,-75.5
Q 18.6,-69.2,20.0,-65.7
Q 24.3,-54.9,31.0,-51.7
Q 32.1,-51.1,33.3,-50.6
 " /> 
<path  
style="fill:rgb(31,181,0)" 
d="M 33.3 -50.6
Q 33.3,-50.4,33.2,-50.3
Q 33.1,-50.0,35.6,-50.1
Q 35.0,-50.4,34.5,-50.6
Q 33.9,-50.6,33.3,-50.6
 " /> 
<path  
style="fill:rgb(31,181,0)" 
d="M 35.6 -50.1
Q 35.6,-50.3,35.6,-50.4
Q 35.7,-50.7,34.5,-50.6
Q 34.5,-50.6,34.5,-50.6
Q 35.0,-50.4,35.6,-50.1
 " /> 
<path  
style="fill:rgb(31,181,0)" 
d="M 36.4 -109.2
Q 38.6,-111.0,39.5,-112.1
Q 40.0,-112.7,40.4,-113.2
Q 38.2,-111.4,36.4,-109.2
 " /> 
<path  
style="fill:rgb(31,181,0)" 
d="M 43.6 -114.6
Q 45.1,-114.6,46.7,-114.6
Q 46.2,-114.7,45.8,-114.8
Q 44.9,-115.1,43.6,-114.6
 " /> 
<path  
style="fill:rgb(31,181,0)" 
d="M 51.1 -112.3
Q 52.0,-111.0,52.7,-110.6
Q 53.0,-110.4,53.3,-110.1
Q 53.1,-110.4,52.9,-110.8
Q 52.4,-111.4,51.1,-112.3
 " /> 
<path  
style="fill:rgb(31,181,0)" 
d="M 63.1 -85.7
Q 63.1,-83.7,63.1,-81.7
Q 63.6,-83.9,63.1,-85.7
 " /> 
<path  
style="fill:rgb(31,181,0)" 
d="M 56.4 -62.1
Q 55.1,-61.2,54.2,-59.9
Q 55.5,-60.8,56.0,-61.5
Q 56.2,-61.8,56.4,-62.1
 " /> 
<path  
style="fill:rgb(31,181,0)" 
d="M 45.8 -53.2
Q 45.3,-53.0,44.9,-52.8
Q 44.0,-52.3,43.3,-51.9
Q 43.0,-51.7,42.7,-51.5
Q 43.0,-51.5,43.3,-51.6
Q 44.0,-51.8,44.9,-52.5
Q 45.3,-52.9,45.8,-53.2
 " /> 
<path  
style="fill:rgb(31,181,0)" 
d="M 39.6 -50.6
Q 39.0,-50.5,38.5,-50.5
Q 37.5,-50.5,37.4,-50.3
Q 37.4,-50.2,37.3,-50.1
Q 39.3,-50.1,39.6,-50.6
 " /> 
<path  
style="fill:rgb(115,250,3)" 
d="M 43.6 -81.7
Q 44.1,-81.1,44.6,-80.5
Q 44.6,-80.5,44.6,-80.5
Q 47.8,-81.1,50.2,-76.8
Q 52.6,-72.7,53.8,-75.0
Q 51.1,-77.7,50.2,-79.4
Q 49.8,-80.3,49.3,-81.2
Q 48.7,-82.0,48.1,-82.4
Q 47.5,-82.7,46.7,-82.6
Q 46.0,-82.6,45.3,-82.6
Q 45.2,-82.5,45.1,-82.5
Q 44.8,-82.4,44.2,-82.0
Q 43.9,-81.9,43.6,-81.7
 " /> 
<path  
style="fill:rgb(115,250,3)" 
d="M 43.6 -81.7
Q 42.9,-80.6,43.0,-80.4
Q 43.1,-80.3,44.6,-80.5
Q 44.1,-81.1,43.6,-81.7
 " /> 
<path  
style="fill:rgb(31,181,0)" 
d="M 43.6 -81.7
Q 39.6,-76.8,37.2,-74.3
Q 33.0,-69.7,29.1,-69.7
Q 28.1,-69.7,27.1,-69.7
Q 26.8,-69.3,26.4,-69.0
Q 24.4,-67.0,24.4,-64.6
Q 24.4,-62.4,25.9,-61.5
Q 46.8,-49.6,57.4,-70.7
Q 61.5,-78.9,61.6,-85.7
Q 61.6,-88.0,61.1,-90.1
Q 59.3,-99.0,55.6,-97.4
Q 54.8,-97.0,54.5,-97.1
Q 54.4,-97.2,54.2,-97.2
Q 56.4,-91.9,56.9,-88.6
Q 58.2,-80.4,56.3,-77.1
Q 55.6,-75.9,53.8,-75.0
Q 52.6,-72.7,50.2,-76.8
Q 47.8,-81.1,44.6,-80.5
Q 44.6,-80.5,44.6,-80.5
Q 43.1,-80.3,43.0,-80.4
Q 42.9,-80.6,43.6,-81.7
 " /> 
<path  
style="fill:rgb(4,4,4)" 
d="M 43.6 -81.7
Q 43.9,-81.9,44.2,-82.0
Q 44.8,-82.4,45.1,-82.5
Q 45.2,-82.5,45.3,-82.6
Q 45.9,-82.7,46.5,-82.9
Q 47.2,-83.1,48.1,-82.4
Q 48.4,-82.2,48.7,-82.0
Q 49.0,-81.6,49.3,-81.2
Q 49.8,-80.3,50.2,-79.4
Q 51.1,-77.7,53.8,-75.0
Q 55.6,-75.9,56.3,-77.1
Q 58.2,-80.4,56.9,-88.6
Q 56.4,-91.9,54.2,-97.2
Q 53.5,-96.9,52.8,-96.7
Q 54.6,-92.1,55.1,-86.1
Q 55.6,-83.5,55.3,-82.3
Q 55.2,-81.8,55.1,-81.2
Q 55.0,-80.3,54.9,-79.5
Q 54.5,-76.5,52.0,-80.6
Q 48.3,-86.5,43.8,-84.1
Q 43.2,-83.8,42.7,-83.5
Q 41.7,-82.2,40.4,-81.2
Q 36.9,-76.8,34.8,-74.7
Q 30.7,-70.7,27.4,-71.3
Q 27.3,-70.5,27.1,-69.7
Q 28.1,-69.7,29.1,-69.7
Q 33.0,-69.7,37.2,-74.3
Q 39.6,-76.8,43.6,-81.7
 " /> 
<path  
style="fill:rgb(4,4,4)" 
d="M 27.1 -69.7
Q 27.3,-70.5,27.4,-71.3
Q 27.2,-71.4,26.9,-71.4
Q 24.3,-72.2,24.2,-71.3
Q 24.2,-70.9,24.5,-70.6
Q 24.8,-70.3,27.1,-69.7
 " /> 
<path  
style="fill:rgb(4,4,4)" 
d="M 54.2 -97.2
Q 52.0,-102.1,51.2,-102.9
Q 50.5,-103.6,50.3,-102.7
Q 50.2,-101.8,51.5,-99.4
Q 52.2,-98.1,52.8,-96.7
Q 53.5,-96.9,54.2,-97.2
 " /> 
<path  
style="fill:rgb(115,250,3)" 
d="M 40.4 -81.2
Q 41.3,-82.5,42.7,-83.5
Q 42.4,-83.8,42.1,-84.2
Q 41.1,-83.4,40.1,-82.5
Q 39.9,-82.3,39.7,-82.1
Q 40.1,-81.7,40.4,-81.2
 " /> 
<path  
style="fill:rgb(31,181,0)" 
d="M 40.4 -81.2
Q 41.7,-82.2,42.7,-83.5
Q 41.3,-82.5,40.4,-81.2
 " /> 
<path  
style="fill:rgb(31,181,0)" 
d="M 55.1 -81.2
Q 55.2,-81.8,55.3,-82.3
Q 55.6,-83.5,55.1,-86.1
Q 55.1,-83.7,55.1,-81.2
 " /> 
<path  
style="fill:rgb(31,181,0)" 
d="M 45.3 -82.6
Q 46.0,-82.6,46.7,-82.6
Q 47.5,-82.7,48.1,-82.4
Q 47.2,-83.1,46.5,-82.9
Q 45.9,-82.7,45.3,-82.6
 " /> 
<path  
style="fill:rgb(209,251,185)" 
d="M 28.8 -76.6
Q 31.0,-74.3,39.7,-82.1
Q 39.9,-82.3,40.1,-82.5
Q 41.1,-83.4,42.1,-84.2
Q 44.1,-85.7,46.1,-86.8
Q 49.1,-88.5,49.9,-89.3
Q 52.1,-91.8,49.1,-98.1
Q 46.2,-104.1,44.3,-104.8
Q 43.1,-105.2,43.7,-106.7
Q 43.5,-106.6,43.3,-106.5
Q 39.8,-104.9,36.7,-99.4
Q 35.0,-96.6,34.9,-95.2
Q 34.8,-93.9,33.2,-91.4
Q 25.8,-79.7,28.8,-76.6
 " /> 
<path  
style="fill:rgb(14,103,171)" 
d="M 38.7 -114.6
Q 38.2,-114.2,37.8,-113.9
Q 36.9,-113.2,36.0,-111.9
Q 37.3,-112.9,38.7,-114.6
 " /> 
<path  
style="fill:rgb(14,103,171)" 
d="M 43.1 -117.2
Q 44.0,-116.7,44.7,-117.0
Q 45.0,-117.1,45.3,-117.2
Q 44.2,-117.2,43.1,-117.2
 " /> 
<path  
style="fill:rgb(4,4,4)" 
d="M -51.1 -96.3
Q -51.1,-93.9,-51.1,-91.5
Q -49.9,-71.5,-37.6,-59.3
Q -23.2,-44.9,-8.9,-54.1
Q -8.5,-54.6,-8.2,-55.0
Q -7.5,-55.9,-6.9,-56.3
Q -6.5,-56.6,-6.2,-56.8
Q -3.6,-60.3,-2.6,-62.4
Q -2.1,-63.5,-1.7,-64.5
Q -1.3,-63.1,-1.0,-61.7
Q -0.4,-58.8,0.0,-58.2
Q 2.3,-55.1,-0.7,-69.9
Q -6.7,-100.1,-17.4,-113.4
Q -18.0,-112.9,-18.7,-112.3
Q -17.6,-110.6,-16.5,-108.8
Q -8.6,-96.0,-3.8,-75.0
Q -2.6,-69.9,-3.1,-68.0
Q -3.8,-65.0,-6.4,-60.8
Q -7.0,-59.9,-7.6,-59.0
Q -8.0,-58.5,-8.4,-57.9
Q -9.3,-56.8,-10.4,-55.9
Q -11.0,-55.5,-11.6,-55.0
Q -20.2,-50.9,-27.2,-54.4
Q -29.3,-55.5,-33.3,-58.1
Q -34.0,-58.7,-34.7,-59.2
Q -36.0,-60.4,-37.3,-61.9
Q -38.0,-62.7,-38.7,-63.5
Q -39.5,-64.8,-40.4,-66.1
Q -44.3,-71.9,-46.6,-78.9
Q -48.0,-83.0,-48.9,-89.2
Q -49.2,-89.1,-49.3,-89.3
Q -49.3,-89.6,-49.3,-91.9
Q -49.3,-92.1,-49.3,-92.3
Q -49.3,-93.7,-49.3,-95.0
Q -49.3,-95.2,-49.3,-95.5
Q -49.3,-100.3,-49.2,-100.7
Q -49.2,-101.1,-48.9,-101.2
Q -48.5,-103.0,-48.2,-104.8
Q -47.3,-109.9,-42.7,-116.8
Q -41.7,-118.1,-40.4,-119.0
Q -36.4,-120.7,-34.5,-121.0
Q -31.3,-121.5,-26.0,-118.6
Q -24.8,-117.9,-23.6,-117.2
Q -22.9,-116.7,-22.2,-116.1
Q -20.9,-115.0,-19.8,-113.7
Q -19.2,-113.0,-18.7,-112.3
Q -18.0,-112.9,-17.4,-113.4
Q -22.8,-120.2,-29.4,-122.5
Q -30.7,-123.0,-32.0,-123.5
Q -32.4,-123.3,-32.9,-123.2
Q -33.8,-123.0,-35.1,-123.5
Q -38.7,-122.6,-41.8,-120.3
Q -42.0,-120.0,-42.3,-119.6
Q -42.9,-118.9,-43.6,-118.3
Q -44.0,-118.0,-44.4,-117.7
Q -45.2,-116.7,-46.0,-115.7
Q -51.1,-109.2,-51.1,-99.7
Q -51.1,-98.0,-51.1,-96.3
 " /> 
<path  
style="fill:rgb(7,193,201)" 
d="M -51.1 -96.3
Q -51.2,-95.7,-51.3,-95.0
Q -51.6,-93.7,-51.1,-91.5
Q -51.1,-93.9,-51.1,-96.3
 " /> 
<path  
style="fill:rgb(14,103,171)" 
d="M -44.4 -117.7
Q -44.0,-118.0,-43.6,-118.3
Q -42.9,-118.9,-42.3,-119.6
Q -42.0,-120.0,-41.8,-120.3
Q -42.2,-120.0,-42.6,-119.7
Q -43.4,-119.0,-44.4,-117.7
 " /> 
<path  
style="fill:rgb(14,103,171)" 
d="M -35.1 -123.5
Q -33.8,-123.0,-32.9,-123.2
Q -32.4,-123.3,-32.0,-123.5
Q -33.6,-123.5,-35.1,-123.5
 " /> 
<path  
style="fill:rgb(7,193,201)" 
d="M -6.2 -56.8
Q -6.5,-56.6,-6.9,-56.3
Q -7.5,-55.9,-8.2,-55.0
Q -8.5,-54.6,-8.9,-54.1
Q -7.1,-55.5,-6.2,-56.8
 " /> 
<path  
style="fill:rgb(115,250,3)" 
d="M -38.7 -63.5
Q -35.6,-60.8,-34.5,-59.4
Q -33.9,-58.8,-33.3,-58.1
Q -29.3,-55.5,-27.2,-54.4
Q -20.2,-50.9,-11.6,-55.0
Q -9.8,-57.2,-7.6,-59.0
Q -7.0,-59.9,-6.4,-60.8
Q -3.8,-65.0,-3.1,-68.0
Q -2.6,-69.9,-3.8,-75.0
Q -8.6,-96.0,-16.5,-108.8
Q -17.6,-110.6,-18.7,-112.3
Q -19.3,-112.9,-20.0,-113.5
Q -21.3,-114.6,-23.6,-117.2
Q -24.8,-117.9,-26.0,-118.6
Q -31.3,-121.5,-34.5,-121.0
Q -36.4,-120.7,-40.4,-119.0
Q -40.6,-118.8,-40.8,-118.5
Q -41.1,-118.0,-42.7,-116.8
Q -47.3,-109.9,-48.2,-104.8
Q -48.5,-103.0,-48.9,-101.2
Q -48.9,-96.5,-48.9,-96.0
Q -49.0,-95.6,-49.3,-95.5
Q -49.3,-95.2,-49.3,-95.0
Q -49.2,-94.7,-49.1,-94.3
Q -48.8,-93.7,-49.1,-93.0
Q -49.2,-92.7,-49.3,-92.3
Q -49.3,-92.1,-49.3,-91.9
Q -49.2,-91.9,-49.1,-92.0
Q -48.8,-92.0,-48.9,-89.2
Q -48.0,-83.0,-46.6,-78.9
Q -44.3,-71.9,-40.4,-66.1
Q -39.5,-64.8,-38.7,-63.5
 " /> 
<path  
style="fill:rgb(255,255,255)" 
d="M -25.8 -79.5
Q -25.9,-80.1,-25.9,-80.7
Q -25.9,-80.7,-25.9,-80.7
Q -27.1,-79.8,-27.1,-79.4
Q -27.1,-79.0,-25.8,-79.5
 " /> 
<path  
style="fill:rgb(255,255,255)" 
d="M -25.8 -79.5
Q -25.6,-79.5,-25.3,-79.5
Q -24.0,-79.9,-23.3,-79.7
Q -23.0,-79.6,-22.7,-79.5
Q -22.4,-79.5,-22.2,-79.5
Q -24.3,-82.1,-25.9,-80.7
Q -25.9,-80.1,-25.8,-79.5
 " /> 
<path  
style="fill:rgb(31,181,0)" 
d="M -25.8 -79.5
Q -28.4,-77.2,-30.4,-75.4
Q -34.2,-71.9,-37.4,-77.3
Q -39.1,-80.2,-40.6,-85.7
Q -42.1,-90.9,-42.2,-100.3
Q -46.8,-100.3,-44.2,-86.7
Q -41.0,-69.6,-32.5,-62.0
Q -22.1,-52.7,-10.2,-63.4
Q -6.3,-66.8,-7.5,-69.7
Q -8.1,-71.2,-7.1,-71.9
Q -11.9,-69.5,-18.1,-76.5
Q -19.5,-78.1,-22.2,-79.5
Q -22.4,-79.5,-22.7,-79.5
Q -24.0,-79.5,-25.3,-79.5
Q -25.6,-79.5,-25.8,-79.5
 " /> 
<path  
style="fill:rgb(4,4,4)" 
d="M -25.8 -79.5
Q -27.1,-79.0,-27.1,-79.4
Q -27.1,-79.8,-25.9,-80.7
Q -25.9,-80.7,-25.9,-80.7
Q -24.3,-82.1,-22.2,-79.5
Q -19.5,-78.1,-18.1,-76.5
Q -11.9,-69.5,-7.1,-71.9
Q -8.0,-72.8,-9.4,-73.0
Q -12.8,-73.5,-18.0,-79.0
Q -20.6,-81.8,-21.9,-82.6
Q -23.1,-83.4,-26.7,-83.0
Q -27.5,-81.9,-28.2,-81.3
Q -28.5,-81.1,-28.9,-80.8
Q -32.1,-76.4,-32.9,-76.2
Q -33.3,-76.0,-33.8,-75.9
Q -34.1,-76.1,-34.4,-76.4
Q -35.1,-76.8,-35.5,-77.5
Q -35.8,-77.8,-36.0,-78.1
Q -36.7,-77.7,-37.4,-77.3
Q -34.2,-71.9,-30.4,-75.4
Q -28.4,-77.2,-25.8,-79.5
 " /> 
<path  
style="fill:rgb(4,4,4)" 
d="M -25.3 -79.5
Q -24.0,-79.5,-22.7,-79.5
Q -23.0,-79.6,-23.3,-79.7
Q -24.0,-79.9,-25.3,-79.5
 " /> 
<path  
style="fill:rgb(4,4,4)" 
d="M -42.2 -100.3
Q -42.1,-90.9,-40.6,-85.7
Q -39.1,-80.2,-37.4,-77.3
Q -36.7,-77.7,-36.0,-78.1
Q -36.6,-79.8,-37.1,-81.5
Q -40.4,-91.4,-40.4,-102.1
Q -40.4,-104.1,-40.0,-104.3
Q -39.1,-107.5,-38.1,-109.1
Q -36.5,-111.9,-37.5,-111.9
Q -38.1,-111.9,-39.3,-110.1
Q -42.0,-106.3,-42.2,-102.1
Q -42.2,-101.2,-42.2,-100.3
 " /> 
<path  
style="fill:rgb(31,181,0)" 
d="M -40.0 -104.3
Q -40.4,-104.1,-40.4,-102.1
Q -40.1,-102.3,-40.0,-103.3
Q -40.0,-103.8,-40.0,-104.3
 " /> 
<path  
style="fill:rgb(31,181,0)" 
d="M -36.0 -78.1
Q -35.8,-77.8,-35.5,-77.5
Q -35.1,-76.8,-34.4,-76.4
Q -34.1,-76.1,-33.8,-75.9
Q -34.0,-76.2,-34.2,-76.6
Q -34.7,-77.2,-35.3,-77.7
Q -35.7,-77.9,-36.0,-78.1
 " /> 
<path  
style="fill:rgb(31,181,0)" 
d="M -28.9 -80.8
Q -28.5,-81.1,-28.2,-81.3
Q -27.5,-81.9,-26.7,-83.0
Q -27.0,-82.8,-27.3,-82.6
Q -28.0,-82.1,-28.9,-80.8
 " /> 
<path  
style="fill:rgb(209,251,185)" 
d="M -12.8 -80.1
Q -9.4,-78.2,-9.9,-79.8
Q -10.1,-80.6,-13.5,-87.7
Q -19.8,-100.7,-23.7,-103.5
Q -27.1,-106.0,-30.1,-102.8
Q -35.0,-97.6,-32.2,-91.8
Q -30.5,-88.1,-25.9,-86.8
Q -20.1,-85.1,-16.9,-82.8
Q -14.8,-81.3,-12.8,-80.1
 " /> 
<path  
style="fill:rgb(31,181,0)" 
d="M -38.7 -63.5
Q -38.0,-62.7,-37.3,-61.9
Q -36.0,-60.4,-34.7,-59.2
Q -34.0,-58.7,-33.3,-58.1
Q -33.9,-58.8,-34.5,-59.4
Q -35.6,-60.8,-38.7,-63.5
 " /> 
<path  
style="fill:rgb(31,181,0)" 
d="M -48.9 -89.2
Q -48.8,-92.0,-49.1,-92.0
Q -49.2,-91.9,-49.3,-91.9
Q -49.3,-89.6,-49.3,-89.3
Q -49.2,-89.1,-48.9,-89.2
 " /> 
<path  
style="fill:rgb(31,181,0)" 
d="M -49.3 -92.3
Q -49.2,-92.7,-49.1,-93.0
Q -48.8,-93.7,-49.1,-94.3
Q -49.2,-94.7,-49.3,-95.0
Q -49.3,-93.7,-49.3,-92.3
 " /> 
<path  
style="fill:rgb(31,181,0)" 
d="M -49.3 -95.5
Q -49.0,-95.6,-48.9,-96.0
Q -48.9,-96.5,-48.9,-101.2
Q -49.2,-101.1,-49.2,-100.7
Q -49.3,-100.3,-49.3,-95.5
 " /> 
<path  
style="fill:rgb(31,181,0)" 
d="M -42.7 -116.8
Q -41.1,-118.0,-40.8,-118.5
Q -40.6,-118.8,-40.4,-119.0
Q -41.7,-118.1,-42.7,-116.8
 " /> 
<path  
style="fill:rgb(31,181,0)" 
d="M -23.6 -117.2
Q -21.3,-114.6,-20.0,-113.5
Q -19.3,-112.9,-18.7,-112.3
Q -19.2,-113.0,-19.8,-113.7
Q -20.9,-115.0,-22.2,-116.1
Q -22.9,-116.7,-23.6,-117.2
 " /> 
<path  
style="fill:rgb(31,181,0)" 
d="M -7.6 -59.0
Q -9.8,-57.2,-11.6,-55.0
Q -11.0,-55.5,-10.4,-55.9
Q -9.3,-56.8,-8.4,-57.9
Q -8.0,-58.5,-7.6,-59.0
 " /> 
<path  
style="fill:rgb(14,103,171)" 
d="M -68.0 -88.3
Q -68.0,-90.1,-68.0,-91.9
Q -68.1,-91.9,-68.2,-91.8
Q -68.4,-91.8,-68.4,-88.3
Q -68.2,-88.3,-68.0,-88.3
 " /> 
<path  
style="fill:rgb(7,193,201)" 
d="M -68.0 -94.6
Q -67.9,-94.6,-67.8,-94.7
Q -67.6,-94.8,-67.6,-96.8
Q -67.6,-96.8,-67.7,-96.7
Q -67.9,-96.6,-68.0,-95.6
Q -68.0,-95.1,-68.0,-94.6
 " /> 
<path  
style="fill:rgb(14,103,171)" 
d="M -40.9 -155.9
Q -39.6,-156.8,-38.7,-158.1
Q -38.9,-158.0,-39.2,-157.8
Q -39.6,-157.5,-40.9,-155.9
 " /> 
<path  
style="fill:rgb(14,103,171)" 
d="M -15.6 -155.0
Q -14.2,-153.3,-12.0,-151.5
Q -12.4,-152.0,-12.9,-152.6
Q -13.8,-153.7,-14.7,-154.3
Q -15.1,-154.7,-15.6,-155.0
 " /> 
<path  
style="fill:rgb(14,103,171)" 
d="M -4.9 -142.1
Q -2.9,-142.1,-0.9,-142.1
Q -3.1,-142.6,-4.0,-142.4
Q -4.4,-142.2,-4.9,-142.1
 " /> 
<path  
style="fill:rgb(7,193,201)" 
d="M 10.2 -148.3
Q 10.8,-148.8,11.3,-149.3
Q 12.4,-150.2,13.3,-151.3
Q 13.8,-151.8,14.2,-152.3
Q 13.7,-151.9,13.1,-151.4
Q 12.0,-150.5,10.2,-148.3
 " /> 
<path  
style="fill:rgb(7,193,201)" 
d="M 39.6 -151.9
Q 40.5,-150.6,41.1,-150.1
Q 41.4,-149.9,41.8,-149.7
Q 40.9,-151.0,39.6,-151.9
 " /> 
<path  
style="fill:rgb(7,193,201)" 
d="M 57.3 -127.0
Q 57.6,-126.7,57.8,-126.4
Q 58.2,-125.7,59.6,-124.8
Q 59.3,-125.1,59.1,-125.4
Q 58.6,-126.1,57.3,-127.0
 " /> 
<path  
style="fill:rgb(14,103,171)" 
d="M 76.0 -78.1
Q 76.0,-77.0,76.0,-75.9
Q 76.2,-75.9,76.4,-75.9
Q 76.4,-77.7,76.4,-78.0
Q 76.3,-78.2,76.0,-78.1
 " /> 
<path  
style="fill:rgb(7,193,201)" 
d="M 76.0 -75.9
Q 76.0,-75.1,76.0,-74.3
Q 76.2,-73.5,76.4,-72.8
Q 76.4,-74.3,76.4,-75.9
Q 76.2,-75.9,76.0,-75.9
 " /> 
<path  
style="fill:rgb(7,193,201)" 
d="M 76.4 -72.8
Q 76.2,-73.5,76.0,-74.3
Q 76.0,-74.3,76.0,-74.3
Q 76.0,-73.2,76.0,-73.0
Q 76.1,-72.7,76.4,-72.8
 " /> 
<path  
style="fill:rgb(7,193,201)" 
d="M 76.4 -68.3
Q 76.1,-68.2,76.1,-67.9
Q 76.0,-67.5,76.0,-63.5
Q 76.1,-63.5,76.2,-63.5
Q 76.4,-63.6,76.4,-68.3
 " /> 
<path  
style="fill:rgb(7,193,201)" 
d="M 61.8 -30.1
Q 61.4,-29.9,61.1,-29.7
Q 60.5,-29.2,59.8,-28.3
Q 59.4,-27.9,59.1,-27.5
Q 59.5,-27.8,60.0,-28.1
Q 60.9,-28.8,61.8,-30.1
 " /> 
<path  
style="fill:rgb(14,103,171)" 
d="M 57.3 -21.7
Q 57.3,-20.3,57.3,-19.0
Q 57.5,-19.3,57.6,-19.7
Q 57.8,-20.3,57.3,-21.7
 " /> 
<path  
style="fill:rgb(7,193,201)" 
d="M 30.2 -8.8
Q 28.2,-8.7,28.1,-8.5
Q 28.0,-8.4,28.0,-8.3
Q 30.0,-8.3,30.2,-8.8
 " /> 
<path  
style="fill:rgb(14,103,171)" 
d="M 12.0 -5.2
Q 10.9,-5.2,9.8,-5.2
Q 10.1,-5.1,10.4,-5.0
Q 11.1,-4.7,12.0,-5.2
 " /> 
<path  
style="fill:rgb(14,103,171)" 
d="M 3.1 -4.8
Q 1.8,-4.8,0.4,-4.8
Q 0.8,-4.7,1.1,-4.5
Q 1.8,-4.3,3.1,-4.8
 " /> 
<path  
style="fill:rgb(4,4,4)" 
d="M -12.4 -12.3
Q -13.1,-12.4,-13.7,-12.5
Q -14.1,-12.3,-14.7,-11.9
Q -14.0,-11.5,-13.3,-11.0
Q -12.9,-11.6,-12.4,-12.3
 " /> 
<path  
style="fill:rgb(4,4,4)" 
d="M -12.4 -12.3
Q -12.5,-12.5,-12.6,-12.8
Q -12.8,-13.0,-13.7,-12.5
Q -13.1,-12.4,-12.4,-12.3
 " /> 
<path  
style="fill:rgb(14,103,171)" 
d="M -12.4 -12.3
Q -12.0,-14.6,-14.0,-12.6
Q -13.8,-12.5,-13.7,-12.5
Q -12.8,-13.0,-12.6,-12.8
Q -12.5,-12.5,-12.4,-12.3
 " /> 
<path  
style="fill:rgb(14,103,171)" 
d="M -14.7 -11.9
Q -14.1,-12.3,-13.7,-12.5
Q -13.8,-12.5,-14.0,-12.6
Q -14.0,-12.6,-14.0,-12.6
Q -14.3,-12.2,-14.7,-11.9
 " /> 
<path  
style="fill:rgb(97,247,248)" 
d="M 73.8 -44.8
Q 73.8,-44.6,73.8,-44.3
Q 75.1,-44.7,76.5,-45.0
Q 83.7,-46.7,90.2,-51.1
Q 92.7,-52.8,92.8,-53.3
Q 93.2,-54.3,89.9,-52.3
Q 83.5,-48.1,77.9,-46.5
Q 76.4,-46.1,75.1,-45.5
Q 74.4,-45.1,73.8,-44.8
 " /> 
<path  
style="fill:rgb(14,103,171)" 
d="M 78.2 -64.3
Q 78.3,-65.8,78.4,-67.2
Q 78.7,-70.1,78.4,-73.2
Q 78.3,-74.8,78.2,-76.3
Q 78.2,-70.3,78.2,-64.3
 " /> 
<path  
style="fill:rgb(14,103,171)" 
d="M 78.2 -79.0
Q 78.2,-79.8,78.2,-80.6
Q 78.0,-81.4,77.8,-82.1
Q 77.8,-80.0,77.8,-79.0
Q 78.0,-79.0,78.2,-79.0
 " /> 
<path  
style="fill:rgb(14,103,171)" 
d="M 77.8 -82.1
Q 78.0,-81.4,78.2,-80.6
Q 78.2,-80.6,78.2,-80.6
Q 78.3,-82.2,78.0,-82.2
Q 77.9,-82.2,77.8,-82.1
 " /> 
<path  
style="fill:rgb(97,247,248)" 
d="M 76.0 -95.9
Q 77.0,-96.7,77.9,-97.5
Q 88.1,-105.7,87.3,-129.1
Q 87.1,-135.9,86.9,-135.9
Q 86.7,-135.9,86.7,-131.0
Q 87.0,-107.8,76.0,-96.8
Q 76.0,-96.3,76.0,-95.9
 " /> 
<path  
style="fill:rgb(14,103,171)" 
d="M 64.9 -123.0
Q 64.7,-123.3,64.4,-123.7
Q 64.0,-124.3,63.3,-124.8
Q 63.0,-125.0,62.7,-125.2
Q 63.6,-123.9,64.2,-123.5
Q 64.6,-123.2,64.9,-123.0
 " /> 
<path  
style="fill:rgb(14,103,171)" 
d="M 61.3 -126.6
Q 60.4,-127.9,59.5,-128.6
Q 59.1,-128.9,58.7,-129.2
Q 59.0,-128.8,59.3,-128.4
Q 60.0,-127.5,60.7,-127.0
Q 61.0,-126.8,61.3,-126.6
 " /> 
<path  
style="fill:rgb(14,103,171)" 
d="M 69.3 -141.7
Q 70.2,-141.2,70.6,-140.8
Q 70.9,-140.6,71.1,-140.3
Q 70.1,-141.3,69.1,-142.2
Q 69.2,-142.0,69.3,-141.7
 " /> 
<path  
style="fill:rgb(7,193,201)" 
d="M 69.3 -141.7
Q 69.6,-140.8,69.8,-140.0
Q 70.5,-140.2,71.1,-140.3
Q 70.9,-140.6,70.6,-140.8
Q 70.2,-141.2,69.3,-141.7
 " /> 
<path  
style="fill:rgb(4,4,4)" 
d="M 71.1 -140.3
Q 71.1,-140.3,71.0,-140.2
Q 71.0,-140.0,71.5,-139.7
Q 71.7,-139.6,72.0,-139.5
Q 71.6,-139.9,71.1,-140.3
 " /> 
<path  
style="fill:rgb(14,103,171)" 
d="M 72.0 -139.5
Q 73.3,-137.6,75.6,-136.8
Q 73.7,-138.0,72.9,-138.7
Q 72.4,-139.1,72.0,-139.5
 " /> 
<path  
style="fill:rgb(14,103,171)" 
d="M 80.4 -142.6
Q 80.6,-142.6,80.7,-142.7
Q 80.9,-142.7,80.9,-149.7
Q 80.8,-149.6,80.7,-149.6
Q 80.5,-149.5,80.5,-146.1
Q 80.5,-144.3,80.4,-142.6
 " /> 
<path  
style="fill:rgb(14,103,171)" 
d="M 117.3 -144.8
Q 117.3,-142.4,117.5,-142.5
Q 117.7,-142.5,117.8,-142.6
Q 117.8,-144.9,117.6,-144.9
Q 117.4,-144.8,117.3,-144.8
 " /> 
<path  
style="fill:rgb(14,103,171)" 
d="M 117.8 -136.8
Q 117.3,-136.6,117.3,-134.1
Q 117.4,-134.2,117.5,-134.2
Q 117.7,-134.3,117.8,-136.8
 " /> 
<path  
style="fill:rgb(14,103,171)" 
d="M 108.0 -98.1
Q 108.8,-97.3,109.8,-98.2
Q 110.2,-98.6,110.7,-99.0
Q 110.2,-98.7,109.8,-98.4
Q 108.9,-97.7,108.0,-98.1
 " /> 
<path  
style="fill:rgb(14,103,171)" 
d="M 105.3 -51.9
Q 104.7,-51.3,104.0,-50.8
Q 102.7,-49.7,101.3,-48.1
Q 100.7,-47.3,100.0,-46.6
Q 103.1,-49.3,105.3,-51.9
 " /> 
<path  
style="fill:rgb(97,247,248)" 
d="M 72.6 -116.7
Q 72.3,-115.5,72.8,-115.5
Q 74.3,-115.5,74.4,-122.2
Q 74.4,-126.2,73.8,-126.4
Q 73.2,-126.7,73.5,-124.7
Q 73.9,-121.8,72.6,-116.7
 " /> 
<path  
style="fill:rgb(4,4,4)" 
d="M -4.1 30.0
Q -3.5,29.9,-3.0,29.9
Q -3.1,29.8,-3.1,28.8
Q -3.1,28.8,-3.1,28.8
Q -3.1,28.2,-3.1,27.7
Q -3.7,27.7,-4.2,27.7
Q -4.2,28.9,-4.1,30.0
 " /> 
<path  
style="fill:rgb(4,4,4)" 
d="M -78.7 -37.7
Q -78.0,-37.3,-77.3,-37.0
Q -76.0,-36.3,-75.1,-35.7
Q -74.7,-35.3,-74.2,-35.0
Q -72.0,-34.1,-69.8,-33.2
Q -61.1,-29.8,-55.1,-28.8
Q -52.7,-28.4,-52.6,-28.5
Q -52.4,-28.7,-54.8,-32.1
Q -57.2,-35.6,-59.6,-40.8
Q -60.7,-40.9,-61.8,-41.0
Q -70.9,-41.9,-85.7,-53.4
Q -93.3,-59.3,-92.6,-60.4
Q -92.3,-60.9,-90.0,-58.7
Q -75.7,-45.0,-63.4,-42.7
Q -61.9,-42.4,-60.4,-42.1
Q -64.0,-51.9,-65.6,-57.0
Q -67.1,-62.1,-68.0,-65.9
Q -68.4,-67.8,-68.9,-69.7
Q -76.6,-73.2,-82.6,-79.9
Q -90.4,-88.7,-89.6,-91.8
Q -89.4,-92.6,-86.3,-87.2
Q -81.3,-78.4,-72.3,-72.6
Q -70.2,-71.3,-68.9,-70.6
Q -69.8,-74.6,-69.8,-77.2
Q -70.3,-77.1,-70.3,-78.5
Q -70.3,-78.5,-70.3,-78.5
Q -70.2,-79.2,-70.2,-79.9
Q -70.2,-81.5,-70.2,-83.0
Q -70.7,-84.3,-70.5,-84.8
Q -70.3,-85.0,-70.2,-85.2
Q -70.2,-85.7,-70.2,-86.1
Q -71.2,-86.9,-72.2,-87.7
Q -74.2,-89.2,-77.1,-93.2
Q -83.8,-102.4,-84.0,-108.0
Q -84.0,-110.7,-82.7,-106.7
Q -79.2,-96.0,-72.1,-89.3
Q -71.2,-88.4,-70.2,-87.5
Q -70.2,-88.1,-70.2,-88.8
Q -70.3,-90.1,-69.8,-97.7
Q -69.8,-99.7,-69.6,-99.8
Q -69.4,-99.8,-69.3,-99.9
Q -69.3,-100.4,-69.2,-101.0
Q -69.1,-102.0,-69.0,-102.3
Q -68.9,-102.4,-68.9,-102.6
Q -69.6,-102.2,-69.9,-102.5
Q -72.6,-104.3,-75.9,-110.8
Q -79.0,-117.1,-78.5,-119.0
Q -78.4,-119.3,-78.3,-119.7
Q -78.1,-119.1,-77.9,-118.5
Q -77.4,-117.4,-76.2,-114.3
Q -73.9,-108.2,-70.5,-105.0
Q -69.7,-104.3,-68.9,-103.5
Q -68.8,-104.3,-68.7,-105.2
Q -67.9,-111.2,-66.0,-115.0
Q -65.4,-116.1,-64.9,-117.2
Q -65.6,-116.9,-65.8,-117.1
Q -66.1,-117.4,-66.7,-118.3
Q -68.9,-122.0,-68.9,-127.6
Q -68.9,-130.6,-68.4,-130.6
Q -68.0,-130.6,-68.0,-128.2
Q -68.0,-122.9,-64.9,-117.7
Q -61.8,-124.3,-60.0,-127.0
Q -58.2,-129.6,-59.3,-129.9
Q -62.0,-130.5,-61.8,-133.2
Q -61.8,-133.7,-61.8,-134.1
Q -61.9,-134.1,-62.0,-134.0
Q -62.3,-134.0,-62.3,-135.6
Q -62.3,-135.6,-62.3,-135.6
Q -62.2,-136.4,-62.2,-137.2
Q -62.2,-138.3,-62.2,-139.5
Q -62.2,-141.5,-61.8,-141.7
Q -61.8,-143.7,-61.8,-145.7
Q -61.8,-148.1,-61.3,-148.3
Q -61.3,-150.8,-61.3,-153.2
Q -61.3,-156.1,-60.9,-156.3
Q -61.0,-157.2,-61.1,-158.1
Q -61.8,-164.0,-63.3,-162.6
Q -67.8,-158.1,-71.3,-140.1
Q -74.0,-126.8,-74.9,-126.8
Q -75.7,-126.7,-76.0,-128.3
Q -76.1,-128.3,-76.3,-128.3
Q -76.5,-128.2,-76.4,-133.7
Q -76.6,-136.3,-76.7,-139.0
Q -77.2,-151.3,-79.7,-139.0
Q -80.4,-135.7,-80.7,-132.6
Q -81.3,-126.3,-82.9,-126.4
Q -85.1,-126.6,-86.7,-139.9
Q -88.9,-159.7,-93.2,-162.5
Q -95.4,-163.9,-96.4,-159.4
Q -96.8,-157.8,-97.0,-156.6
Q -97.2,-156.0,-97.3,-155.5
Q -97.3,-152.5,-97.4,-152.1
Q -97.4,-151.6,-97.8,-151.5
Q -97.8,-150.8,-97.8,-150.1
Q -97.3,-150.3,-97.3,-148.7
Q -97.3,-148.7,-97.3,-148.7
Q -97.3,-147.8,-97.3,-147.0
Q -97.1,-145.0,-96.9,-143.0
Q -96.0,-135.2,-92.2,-122.1
Q -89.5,-112.7,-91.5,-111.5
Q -94.8,-109.5,-100.1,-125.7
Q -101.6,-130.3,-103.1,-135.0
Q -104.4,-136.2,-105.3,-135.4
Q -105.8,-135.0,-106.2,-134.6
Q -106.5,-133.9,-106.7,-133.2
Q -107.1,-131.9,-108.0,-127.0
Q -108.0,-125.0,-108.4,-124.8
Q -108.4,-112.7,-106.2,-103.9
Q -105.0,-99.1,-98.2,-83.9
Q -98.0,-83.8,-97.8,-83.7
Q -97.3,-83.5,-96.9,-81.7
Q -92.0,-73.2,-91.0,-71.0
Q -90.0,-68.8,-90.5,-68.3
Q -91.0,-67.8,-92.9,-67.5
Q -93.3,-67.6,-93.8,-67.7
Q -94.7,-67.9,-95.1,-68.8
Q -97.8,-70.1,-101.3,-72.3
Q -101.8,-72.4,-102.2,-72.5
Q -103.1,-72.8,-103.3,-73.2
Q -103.4,-73.4,-103.6,-73.7
Q -109.8,-76.8,-110.5,-76.1
Q -111.5,-75.2,-107.5,-67.3
Q -104.8,-61.7,-99.6,-53.7
Q -97.8,-52.3,-96.4,-50.6
Q -94.1,-48.6,-91.8,-46.6
Q -87.1,-42.6,-78.7,-37.7
 " /> 
<path  
style="fill:rgb(14,103,171)" 
d="M -78.7 -37.7
Q -78.2,-37.3,-77.8,-37.0
Q -76.9,-36.3,-75.6,-35.7
Q -74.9,-35.3,-74.2,-35.0
Q -74.7,-35.3,-75.1,-35.7
Q -76.0,-36.3,-77.3,-37.0
Q -78.0,-37.3,-78.7,-37.7
 " /> 
<path  
style="fill:rgb(14,103,171)" 
d="M -96.4 -50.6
Q -97.8,-52.3,-99.6,-53.7
Q -99.2,-53.2,-98.9,-52.8
Q -98.2,-51.9,-97.3,-51.2
Q -96.9,-50.9,-96.4,-50.6
 " /> 
<path  
style="fill:rgb(14,103,171)" 
d="M -103.6 -73.7
Q -103.4,-73.4,-103.3,-73.2
Q -103.1,-72.8,-102.2,-72.5
Q -101.8,-72.4,-101.3,-72.3
Q -102.2,-73.2,-103.6,-73.7
 " /> 
<path  
style="fill:rgb(14,103,171)" 
d="M -95.1 -68.8
Q -94.7,-67.9,-93.8,-67.7
Q -93.3,-67.6,-92.9,-67.5
Q -93.1,-67.7,-93.3,-67.9
Q -93.8,-68.3,-94.4,-68.6
Q -94.8,-68.7,-95.1,-68.8
 " /> 
<path  
style="fill:rgb(14,103,171)" 
d="M -96.9 -81.7
Q -97.3,-83.5,-97.8,-83.7
Q -98.0,-83.8,-98.2,-83.9
Q -98.1,-83.6,-98.0,-83.2
Q -97.7,-82.6,-97.3,-82.1
Q -97.1,-81.9,-96.9,-81.7
 " /> 
<path  
style="fill:rgb(14,103,171)" 
d="M -108.4 -124.8
Q -108.0,-125.0,-108.0,-127.0
Q -108.1,-127.0,-108.2,-126.9
Q -108.4,-126.8,-108.4,-125.8
Q -108.4,-125.3,-108.4,-124.8
 " /> 
<path  
style="fill:rgb(14,103,171)" 
d="M -106.2 -134.6
Q -105.8,-135.0,-105.3,-135.4
Q -104.4,-136.2,-103.1,-135.0
Q -104.3,-136.7,-105.3,-135.6
Q -105.8,-135.1,-106.2,-134.6
 " /> 
<path  
style="fill:rgb(4,4,4)" 
d="M -103.1 -135.0
Q -101.6,-130.3,-100.1,-125.7
Q -94.8,-109.5,-91.5,-111.5
Q -89.5,-112.7,-92.2,-122.1
Q -96.0,-135.2,-96.9,-143.0
Q -97.1,-145.0,-97.3,-147.0
Q -97.7,-146.8,-97.7,-147.1
Q -97.8,-147.3,-97.8,-150.1
Q -97.8,-150.8,-97.8,-151.5
Q -97.7,-154.4,-97.7,-154.9
Q -97.6,-155.3,-97.3,-155.5
Q -97.2,-156.0,-97.0,-156.6
Q -96.8,-157.8,-96.4,-159.4
Q -95.4,-163.9,-93.2,-162.5
Q -88.9,-159.7,-86.7,-139.9
Q -85.1,-126.6,-82.9,-126.4
Q -81.3,-126.3,-80.7,-132.6
Q -80.4,-135.7,-79.7,-139.0
Q -77.2,-151.3,-76.7,-139.0
Q -76.6,-136.3,-76.4,-133.7
Q -76.0,-133.9,-76.0,-131.1
Q -76.0,-129.7,-76.0,-128.3
Q -75.7,-126.7,-74.9,-126.8
Q -74.0,-126.8,-71.3,-140.1
Q -67.8,-158.1,-63.3,-162.6
Q -61.8,-164.0,-61.1,-158.1
Q -61.0,-157.2,-60.9,-156.3
Q -60.1,-156.3,-59.3,-156.3
Q -59.2,-159.8,-59.3,-160.4
Q -59.8,-163.2,-61.2,-164.6
Q -64.6,-167.7,-69.5,-156.1
Q -71.0,-152.4,-74.0,-137.6
Q -74.1,-138.4,-74.3,-139.3
Q -74.6,-141.0,-74.8,-143.4
Q -75.2,-148.3,-77.6,-148.0
Q -80.9,-147.7,-82.3,-136.6
Q -82.7,-132.6,-83.2,-131.2
Q -83.4,-132.2,-83.6,-133.2
Q -84.0,-135.2,-84.3,-137.7
Q -86.4,-158.8,-91.5,-163.6
Q -95.9,-167.8,-98.4,-160.4
Q -102.4,-149.0,-94.4,-121.9
Q -93.3,-117.9,-93.0,-116.1
Q -92.9,-115.2,-92.8,-114.4
Q -94.8,-116.7,-97.8,-125.9
Q -100.0,-132.7,-101.9,-135.8
Q -102.5,-135.4,-103.1,-135.0
 " /> 
<path  
style="fill:rgb(14,103,171)" 
d="M -97.3 -147.0
Q -97.3,-147.8,-97.3,-148.7
Q -97.5,-149.4,-97.8,-150.1
Q -97.8,-147.3,-97.7,-147.1
Q -97.7,-146.8,-97.3,-147.0
 " /> 
<path  
style="fill:rgb(14,103,171)" 
d="M -97.8 -150.1
Q -97.5,-149.4,-97.3,-148.7
Q -97.3,-148.7,-97.3,-148.7
Q -97.3,-150.3,-97.8,-150.1
 " /> 
<path  
style="fill:rgb(14,103,171)" 
d="M -97.8 -151.5
Q -97.4,-151.6,-97.4,-152.1
Q -97.3,-152.5,-97.3,-155.5
Q -97.6,-155.3,-97.7,-154.9
Q -97.7,-154.4,-97.8,-151.5
 " /> 
<path  
style="fill:rgb(14,103,171)" 
d="M -76.4 -133.7
Q -76.5,-128.2,-76.3,-128.3
Q -76.1,-128.3,-76.0,-128.3
Q -76.0,-129.7,-76.0,-131.1
Q -76.0,-133.9,-76.4,-133.7
 " /> 
<path  
style="fill:rgb(14,103,171)" 
d="M -60.9 -156.3
Q -61.3,-156.1,-61.3,-153.2
Q -61.0,-153.4,-60.9,-154.9
Q -60.9,-155.6,-60.9,-156.3
 " /> 
<path  
style="fill:rgb(14,103,171)" 
d="M -61.3 -148.3
Q -61.8,-148.1,-61.8,-145.7
Q -61.7,-145.7,-61.6,-145.8
Q -61.4,-145.8,-61.3,-148.3
 " /> 
<path  
style="fill:rgb(14,103,171)" 
d="M -61.8 -141.7
Q -62.2,-141.5,-62.2,-139.5
Q -61.8,-139.6,-61.8,-141.7
 " /> 
<path  
style="fill:rgb(14,103,171)" 
d="M -62.2 -137.2
Q -62.2,-136.4,-62.3,-135.6
Q -62.0,-134.9,-61.8,-134.1
Q -61.8,-136.9,-61.8,-137.2
Q -61.9,-137.4,-62.2,-137.2
 " /> 
<path  
style="fill:rgb(14,103,171)" 
d="M -61.8 -134.1
Q -62.0,-134.9,-62.3,-135.6
Q -62.3,-135.6,-62.3,-135.6
Q -62.3,-134.0,-62.0,-134.0
Q -61.9,-134.1,-61.8,-134.1
 " /> 
<path  
style="fill:rgb(97,247,248)" 
d="M -64.9 -117.7
Q -68.0,-122.9,-68.0,-128.2
Q -68.0,-130.6,-68.4,-130.6
Q -68.9,-130.6,-68.9,-127.6
Q -68.9,-122.0,-66.7,-118.3
Q -66.1,-117.4,-65.8,-117.1
Q -65.6,-116.9,-64.9,-117.2
Q -64.9,-117.5,-64.9,-117.7
 " /> 
<path  
style="fill:rgb(97,247,248)" 
d="M -68.9 -103.5
Q -69.7,-104.3,-70.5,-105.0
Q -73.9,-108.2,-76.2,-114.3
Q -77.4,-117.4,-77.9,-118.5
Q -78.1,-119.1,-78.3,-119.7
Q -78.4,-119.3,-78.5,-119.0
Q -79.0,-117.1,-75.9,-110.8
Q -72.6,-104.3,-69.9,-102.5
Q -69.6,-102.2,-68.9,-102.6
Q -68.9,-103.0,-68.9,-103.5
 " /> 
<path  
style="fill:rgb(14,103,171)" 
d="M -69.3 -99.9
Q -69.4,-99.8,-69.6,-99.8
Q -69.8,-99.7,-69.8,-97.7
Q -69.7,-97.7,-69.6,-97.8
Q -69.4,-97.8,-69.3,-99.9
 " /> 
<path  
style="fill:rgb(97,247,248)" 
d="M -70.2 -87.5
Q -71.2,-88.4,-72.1,-89.3
Q -79.2,-96.0,-82.7,-106.7
Q -84.0,-110.7,-84.0,-108.0
Q -83.8,-102.4,-77.1,-93.2
Q -74.2,-89.2,-72.2,-87.7
Q -71.2,-86.9,-70.2,-86.1
Q -70.2,-86.8,-70.2,-87.5
 " /> 
<path  
style="fill:rgb(14,103,171)" 
d="M -70.2 -85.2
Q -70.3,-85.0,-70.5,-84.8
Q -70.7,-84.3,-70.2,-83.0
Q -70.2,-84.1,-70.2,-85.2
 " /> 
<path  
style="fill:rgb(14,103,171)" 
d="M -70.2 -79.9
Q -70.2,-79.2,-70.3,-78.5
Q -70.0,-77.9,-69.8,-77.2
Q -69.8,-79.6,-69.8,-79.8
Q -69.9,-80.0,-70.2,-79.9
 " /> 
<path  
style="fill:rgb(14,103,171)" 
d="M -69.8 -77.2
Q -70.0,-77.9,-70.3,-78.5
Q -70.3,-78.5,-70.3,-78.5
Q -70.3,-77.1,-69.8,-77.2
 " /> 
<path  
style="fill:rgb(97,247,248)" 
d="M -68.9 -70.6
Q -70.2,-71.3,-72.3,-72.6
Q -81.3,-78.4,-86.3,-87.2
Q -89.4,-92.6,-89.6,-91.8
Q -90.4,-88.7,-82.6,-79.9
Q -76.6,-73.2,-68.9,-69.7
Q -68.9,-70.1,-68.9,-70.6
 " /> 
<path  
style="fill:rgb(97,247,248)" 
d="M -60.4 -42.1
Q -61.9,-42.4,-63.4,-42.7
Q -75.7,-45.0,-90.0,-58.7
Q -92.3,-60.9,-92.6,-60.4
Q -93.3,-59.3,-85.7,-53.4
Q -70.9,-41.9,-61.8,-41.0
Q -60.7,-40.9,-59.6,-40.8
Q -60.0,-41.5,-60.4,-42.1
 " /> 
<path  
style="fill:rgb(7,193,201)" 
d="M -13.8 -155.9
Q -13.2,-155.4,-12.7,-155.0
Q -11.6,-154.1,-10.9,-153.2
Q -10.6,-152.8,-10.2,-152.3
Q -9.4,-151.3,-8.7,-150.3
Q -7.1,-148.3,-5.7,-146.1
Q -4.4,-143.9,-2.1,-143.9
Q 0.2,-143.9,2.3,-143.7
Q 4.4,-143.4,5.9,-145.8
Q 7.5,-148.1,9.1,-149.8
Q 9.9,-150.6,10.7,-151.5
Q 11.0,-151.8,11.2,-152.2
Q 11.8,-152.9,12.6,-153.5
Q 13.0,-153.8,13.3,-154.1
Q 17.8,-157.2,19.1,-159.4
Q 20.3,-161.5,22.5,-167.7
Q 26.9,-180.8,26.5,-184.5
Q 26.4,-185.4,26.3,-186.3
Q 25.5,-185.0,24.7,-183.7
Q 21.5,-178.8,19.0,-171.9
Q 16.6,-165.2,16.0,-165.2
Q 14.7,-165.2,16.9,-171.5
Q 20.2,-180.9,14.1,-181.6
Q 12.1,-181.8,11.9,-180.9
Q 11.6,-180.1,10.1,-174.7
Q 8.3,-167.7,7.3,-169.5
Q 6.9,-170.1,8.7,-176.3
Q 9.8,-180.4,9.0,-181.1
Q 8.2,-181.7,9.4,-182.7
Q 10.6,-183.7,11.1,-187.0
Q 11.6,-190.3,12.0,-192.3
Q 12.4,-194.3,12.4,-198.8
Q 10.4,-196.2,7.8,-182.6
Q 7.0,-178.8,6.9,-178.6
Q 6.7,-178.5,6.1,-178.7
Q 5.4,-178.9,6.1,-182.6
Q 7.6,-191.6,3.7,-196.7
Q 1.1,-200.1,1.3,-196.0
Q 1.3,-194.6,1.3,-193.2
Q 1.7,-193.4,1.8,-193.1
Q 1.8,-192.8,1.8,-191.5
Q 1.8,-190.6,1.8,-189.7
Q 1.8,-187.9,1.8,-186.1
Q 1.9,-186.2,2.0,-186.2
Q 2.2,-186.2,2.2,-186.0
Q 2.3,-185.7,2.2,-181.2
Q 2.2,-179.5,2.2,-177.7
Q 1.3,-176.8,0.9,-177.0
Q 0.4,-177.2,0.4,-180.3
Q 0.3,-182.7,0.2,-185.0
Q 0.2,-185.5,0.2,-186.0
Q -0.0,-190.1,-0.4,-193.7
Q -1.1,-200.6,-2.5,-206.5
Q -3.1,-209.2,-4.0,-214.6
Q -4.3,-214.9,-4.6,-215.3
Q -5.3,-215.9,-6.0,-216.4
Q -6.3,-216.6,-6.7,-216.8
Q -6.8,-216.4,-6.9,-216.1
Q -7.1,-215.4,-7.6,-214.1
Q -7.6,-213.6,-7.6,-213.1
Q -7.6,-212.1,-7.8,-212.0
Q -7.9,-212.0,-8.0,-211.9
Q -7.5,-209.2,-8.0,-206.6
Q -7.5,-205.3,-7.7,-204.8
Q -7.9,-204.6,-8.0,-204.3
Q -8.0,-203.9,-8.0,-203.5
Q -7.9,-203.5,-7.7,-203.5
Q -7.5,-203.6,-7.6,-199.5
Q -7.6,-198.1,-7.6,-196.8
Q -7.4,-196.8,-7.3,-196.9
Q -7.2,-196.9,-7.1,-196.7
Q -7.1,-196.4,-7.1,-194.6
Q -7.1,-193.7,-7.1,-192.8
Q -7.0,-192.8,-6.9,-192.9
Q -6.6,-192.9,-6.6,-191.8
Q -6.6,-191.8,-6.6,-191.8
Q -6.6,-191.2,-6.7,-190.6
Q -6.7,-189.7,-6.7,-188.8
Q -6.1,-188.9,-6.2,-187.8
Q -6.2,-187.8,-6.2,-187.8
Q -6.2,-187.2,-6.2,-186.6
Q -6.2,-185.7,-6.2,-184.8
Q -6.1,-184.8,-6.0,-184.9
Q -5.7,-184.9,-5.7,-183.5
Q -5.7,-183.5,-5.7,-183.5
Q -5.8,-182.8,-5.8,-182.1
Q -5.5,-179.6,-6.7,-179.0
Q -7.7,-179.4,-7.6,-182.1
Q -7.6,-182.8,-7.6,-183.5
Q -7.7,-183.4,-7.8,-183.4
Q -8.1,-183.3,-8.0,-184.5
Q -8.0,-184.5,-8.0,-184.5
Q -8.0,-185.1,-8.0,-185.7
Q -8.2,-187.1,-8.4,-188.6
Q -8.9,-191.5,-8.9,-194.6
Q -9.0,-194.5,-9.1,-194.5
Q -9.4,-194.4,-9.3,-198.1
Q -11.1,-196.8,-12.4,-193.2
Q -12.3,-193.3,-12.2,-193.3
Q -12.1,-193.4,-12.0,-193.1
Q -11.9,-192.8,-12.0,-191.0
Q -11.1,-186.1,-10.2,-183.6
Q -8.2,-178.1,-9.4,-178.1
Q -10.2,-178.1,-12.4,-184.8
Q -13.9,-189.0,-14.7,-190.8
Q -15.5,-192.6,-16.2,-194.8
Q -17.0,-197.0,-17.4,-197.4
Q -17.6,-197.6,-17.8,-197.9
Q -17.7,-196.8,-17.5,-195.7
Q -17.3,-193.5,-16.4,-190.1
Q -15.6,-186.8,-14.7,-182.8
Q -13.2,-176.4,-12.0,-172.3
Q -10.4,-166.8,-11.4,-166.3
Q -12.4,-165.8,-16.1,-180.6
Q -17.2,-185.0,-17.9,-185.0
Q -19.3,-185.0,-21.1,-183.1
Q -22.9,-181.1,-14.2,-168.1
Q -10.1,-161.9,-12.3,-162.7
Q -13.1,-163.1,-13.4,-163.6
Q -13.7,-164.1,-15.1,-166.1
Q -18.8,-171.2,-24.9,-181.5
Q -30.8,-191.5,-31.2,-192.0
Q -33.2,-194.0,-31.3,-183.7
Q -29.3,-173.0,-26.1,-165.5
Q -24.5,-161.8,-20.6,-160.5
Q -18.0,-159.6,-13.8,-155.9
 " /> 
<path  
style="fill:rgb(14,103,171)" 
d="M -13.8 -155.9
Q -12.0,-153.7,-10.2,-152.3
Q -10.6,-152.8,-10.9,-153.2
Q -11.6,-154.1,-12.7,-155.0
Q -13.2,-155.4,-13.8,-155.9
 " /> 
<path  
style="fill:rgb(14,103,171)" 
d="M -12.0 -191.0
Q -11.9,-192.8,-12.0,-193.1
Q -12.1,-193.4,-12.2,-193.3
Q -12.3,-193.3,-12.4,-193.2
Q -12.4,-191.3,-12.4,-191.1
Q -12.3,-190.8,-12.0,-191.0
 " /> 
<path  
style="fill:rgb(14,103,171)" 
d="M -9.3 -198.1
Q -9.4,-194.4,-9.1,-194.5
Q -9.0,-194.5,-8.9,-194.6
Q -8.9,-195.9,-8.9,-196.8
Q -8.9,-197.9,-8.9,-198.1
Q -9.0,-198.3,-9.3,-198.1
 " /> 
<path  
style="fill:rgb(4,4,4)" 
d="M -8.9 -194.6
Q -8.2,-194.6,-7.5,-194.7
Q -7.6,-195.1,-7.6,-196.8
Q -8.2,-196.8,-8.9,-196.8
Q -8.9,-195.9,-8.9,-194.6
 " /> 
<path  
style="fill:rgb(4,4,4)" 
d="M -8.9 -194.6
Q -8.9,-191.5,-8.4,-188.6
Q -8.2,-187.1,-8.0,-185.7
Q -7.3,-186.1,-6.6,-186.6
Q -6.6,-186.6,-6.6,-186.6
Q -6.7,-186.9,-6.7,-188.8
Q -6.7,-189.7,-6.7,-190.6
Q -7.0,-190.4,-7.1,-190.6
Q -7.1,-190.9,-7.1,-192.8
Q -7.1,-193.7,-7.1,-194.6
Q -7.4,-194.4,-7.5,-194.6
Q -7.5,-194.7,-7.5,-194.7
Q -8.2,-194.6,-8.9,-194.6
 " /> 
<path  
style="fill:rgb(4,4,4)" 
d="M -8.0 -185.7
Q -7.7,-185.8,-7.6,-185.6
Q -7.6,-185.5,-7.6,-184.8
Q -6.9,-184.8,-6.2,-184.8
Q -6.2,-185.7,-6.2,-186.6
Q -6.5,-186.4,-6.6,-186.6
Q -7.3,-186.1,-8.0,-185.7
 " /> 
<path  
style="fill:rgb(14,103,171)" 
d="M -8.0 -185.7
Q -8.0,-185.1,-8.0,-184.5
Q -7.8,-184.0,-7.6,-183.5
Q -7.6,-184.3,-7.6,-184.8
Q -7.6,-185.5,-7.6,-185.6
Q -7.7,-185.8,-8.0,-185.7
 " /> 
<path  
style="fill:rgb(4,4,4)" 
d="M -7.6 -183.5
Q -6.9,-183.5,-6.2,-183.5
Q -6.2,-184.0,-6.2,-184.8
Q -6.9,-184.8,-7.6,-184.8
Q -7.6,-184.3,-7.6,-183.5
 " /> 
<path  
style="fill:rgb(4,4,4)" 
d="M -7.6 -183.5
Q -7.6,-182.8,-7.6,-182.1
Q -6.9,-182.2,-6.2,-182.3
Q -6.2,-182.5,-6.2,-183.6
Q -6.9,-183.5,-7.6,-183.5
 " /> 
<path  
style="fill:rgb(14,103,171)" 
d="M -7.6 -183.5
Q -7.8,-184.0,-8.0,-184.5
Q -8.0,-184.5,-8.0,-184.5
Q -8.1,-183.3,-7.8,-183.4
Q -7.7,-183.4,-7.6,-183.5
 " /> 
<path  
style="fill:rgb(4,4,4)" 
d="M -7.6 -182.1
Q -7.5,-181.8,-7.4,-181.4
Q -7.2,-180.8,-6.9,-179.9
Q -6.8,-179.4,-6.7,-179.0
Q -5.5,-179.6,-5.8,-182.1
Q -6.1,-182.0,-6.2,-182.2
Q -6.2,-182.2,-6.2,-182.3
Q -6.9,-182.2,-7.6,-182.1
 " /> 
<path  
style="fill:rgb(14,103,171)" 
d="M -7.6 -182.1
Q -7.7,-179.4,-6.7,-179.0
Q -6.8,-179.4,-6.9,-179.9
Q -7.2,-180.8,-7.4,-181.4
Q -7.5,-181.8,-7.6,-182.1
 " /> 
<path  
style="fill:rgb(14,103,171)" 
d="M -5.8 -182.1
Q -5.8,-182.8,-5.7,-183.5
Q -6.0,-184.2,-6.2,-184.8
Q -6.2,-184.0,-6.2,-183.5
Q -6.2,-182.5,-6.2,-182.2
Q -6.2,-182.2,-6.2,-182.2
Q -6.1,-182.0,-5.8,-182.1
 " /> 
<path  
style="fill:rgb(14,103,171)" 
d="M -6.2 -184.8
Q -6.0,-184.2,-5.7,-183.5
Q -5.7,-183.5,-5.7,-183.5
Q -5.7,-184.9,-6.0,-184.9
Q -6.1,-184.8,-6.2,-184.8
 " /> 
<path  
style="fill:rgb(14,103,171)" 
d="M -6.2 -186.6
Q -6.2,-187.2,-6.2,-187.8
Q -6.4,-188.3,-6.7,-188.8
Q -6.7,-186.9,-6.6,-186.6
Q -6.6,-186.6,-6.6,-186.6
Q -6.5,-186.4,-6.2,-186.6
 " /> 
<path  
style="fill:rgb(14,103,171)" 
d="M -6.7 -188.8
Q -6.4,-188.3,-6.2,-187.8
Q -6.2,-187.8,-6.2,-187.8
Q -6.1,-188.9,-6.7,-188.8
 " /> 
<path  
style="fill:rgb(14,103,171)" 
d="M -6.7 -190.6
Q -6.6,-191.2,-6.6,-191.8
Q -6.9,-192.3,-7.1,-192.8
Q -7.1,-190.9,-7.1,-190.6
Q -7.0,-190.4,-6.7,-190.6
 " /> 
<path  
style="fill:rgb(14,103,171)" 
d="M -7.1 -192.8
Q -6.9,-192.3,-6.6,-191.8
Q -6.6,-191.8,-6.6,-191.8
Q -6.6,-192.9,-6.9,-192.9
Q -7.0,-192.8,-7.1,-192.8
 " /> 
<path  
style="fill:rgb(14,103,171)" 
d="M -7.1 -194.6
Q -7.1,-196.4,-7.1,-196.7
Q -7.2,-196.9,-7.3,-196.9
Q -7.4,-196.8,-7.6,-196.8
Q -7.6,-195.1,-7.5,-194.7
Q -7.5,-194.7,-7.5,-194.6
Q -7.4,-194.4,-7.1,-194.6
 " /> 
<path  
style="fill:rgb(14,103,171)" 
d="M -7.6 -199.5
Q -7.5,-203.6,-7.7,-203.5
Q -7.9,-203.5,-8.0,-203.5
Q -8.0,-199.8,-7.9,-199.5
Q -7.9,-199.3,-7.6,-199.5
 " /> 
<path  
style="fill:rgb(14,103,171)" 
d="M -8.0 -204.3
Q -7.9,-204.6,-7.7,-204.8
Q -7.5,-205.3,-8.0,-206.6
Q -8.0,-205.5,-8.0,-204.3
 " /> 
<path  
style="fill:rgb(4,4,4)" 
d="M -8.0 -206.6
Q -7.5,-209.2,-8.0,-211.9
Q -8.8,-211.9,-9.6,-212.0
Q -9.7,-209.9,-9.6,-207.3
Q -9.6,-206.9,-9.6,-206.5
Q -8.8,-206.6,-8.0,-206.6
 " /> 
<path  
style="fill:rgb(4,4,4)" 
d="M -8.0 -211.9
Q -7.9,-214.0,-7.7,-214.0
Q -7.6,-214.1,-7.6,-214.1
Q -7.1,-215.4,-6.9,-216.1
Q -6.8,-216.4,-6.7,-216.8
Q -5.7,-217.4,-4.8,-216.0
Q -4.4,-215.3,-4.0,-214.6
Q -3.2,-214.9,-2.5,-215.1
Q -3.5,-217.8,-5.5,-218.9
Q -9.1,-220.7,-9.6,-212.0
Q -8.8,-211.9,-8.0,-211.9
 " /> 
<path  
style="fill:rgb(14,103,171)" 
d="M -8.0 -211.9
Q -7.9,-212.0,-7.8,-212.0
Q -7.6,-212.1,-7.6,-213.1
Q -7.6,-213.6,-7.6,-214.1
Q -7.6,-214.1,-7.7,-214.0
Q -7.9,-214.0,-8.0,-211.9
 " /> 
<path  
style="fill:rgb(14,103,171)" 
d="M -6.7 -216.8
Q -6.3,-216.6,-6.0,-216.4
Q -5.3,-215.9,-4.6,-215.3
Q -4.3,-214.9,-4.0,-214.6
Q -4.4,-215.3,-4.8,-216.0
Q -5.7,-217.4,-6.7,-216.8
 " /> 
<path  
style="fill:rgb(14,103,171)" 
d="M 0.4 -180.3
Q 0.4,-177.2,0.9,-177.0
Q 1.3,-176.8,2.2,-177.7
Q 1.9,-177.5,1.5,-177.3
Q 0.8,-176.9,0.4,-180.3
 " /> 
<path  
style="fill:rgb(4,4,4)" 
d="M 0.4 -180.3
Q 0.8,-176.9,1.5,-177.3
Q 1.9,-177.5,2.2,-177.7
Q 2.2,-179.5,2.2,-181.2
Q 2.1,-181.2,2.0,-181.1
Q 1.8,-181.0,1.8,-186.1
Q 1.0,-186.1,0.2,-186.0
Q 0.2,-185.5,0.2,-185.0
Q 0.3,-182.7,0.4,-180.3
 " /> 
<path  
style="fill:rgb(14,103,171)" 
d="M 2.2 -181.2
Q 2.3,-185.7,2.2,-186.0
Q 2.2,-186.2,2.0,-186.2
Q 1.9,-186.2,1.8,-186.1
Q 1.8,-181.0,2.0,-181.1
Q 2.1,-181.2,2.2,-181.2
 " /> 
<path  
style="fill:rgb(4,4,4)" 
d="M 1.8 -186.1
Q 1.8,-187.9,1.8,-189.7
Q 1.4,-189.5,1.4,-189.7
Q 1.3,-190.0,1.3,-191.3
Q 1.3,-192.3,1.3,-193.2
Q 0.5,-193.2,-0.3,-193.1
Q 0.0,-189.4,0.2,-185.4
Q 1.0,-186.1,1.8,-186.1
 " /> 
<path  
style="fill:rgb(14,103,171)" 
d="M 1.8 -189.7
Q 1.8,-190.6,1.8,-191.5
Q 1.8,-192.8,1.8,-193.1
Q 1.7,-193.4,1.3,-193.2
Q 1.3,-192.3,1.3,-191.3
Q 1.3,-190.0,1.4,-189.7
Q 1.4,-189.5,1.8,-189.7
 " /> 
<path  
style="fill:rgb(14,103,171)" 
d="M 13.3 -154.1
Q 13.0,-153.8,12.6,-153.5
Q 11.8,-152.9,11.2,-152.2
Q 11.0,-151.8,10.7,-151.5
Q 12.4,-152.8,13.3,-154.1
 " /> 
</g> 
</svg> 
