<?xml version="1.0"?>
<!DOCTYPE svg PUBLIC "-//W3C//DTD SVG 1.1//EN" "http://www.w3.org/Graphics/SVG/1.1/DTD/svg11.dtd">
<svg xmlns="http://www.w3.org/2000/svg" version="1.1">
<g transform="translate(111.9,227.5)" stroke-width="0" fill="none" >
<path  
style="fill:rgb(4,4,4)" 
d="M 17.9 220.5
Q 19.8,223.0,26.7,214.8
Q 29.2,211.9,31.6,209.5
Q 46.6,194.3,54.6,183.6
Q 56.6,180.9,57.2,180.1
Q 57.8,179.3,57.8,179.0
Q 57.8,178.7,58.4,178.2
Q 59.0,177.7,61.2,174.1
Q 77.9,148.0,67.2,129.8
Q 64.3,124.8,54.4,115.5
Q 47.9,109.4,45.5,106.5
Q 37.1,96.2,37.3,83.3
Q 37.3,80.9,37.3,76.2
Q 37.9,76.6,38.6,77.1
Q 42.5,79.8,50.5,79.8
Q 60.9,79.8,63.8,70.7
Q 66.6,61.7,56.1,43.3
Q 36.7,9.4,31.5,-6.2
Q 30.1,-10.2,28.9,-12.3
Q 27.9,-13.9,28.0,-14.2
Q 28.0,-14.9,31.0,-14.9
Q 32.9,-14.9,35.1,-10.8
Q 40.2,-1.1,43.5,-4.6
Q 47.2,-8.5,44.7,-18.5
Q 44.1,-21.0,46.3,-23.2
Q 48.1,-24.9,48.4,-24.9
Q 49.1,-25.0,50.8,-21.0
Q 53.6,-14.4,56.9,-14.4
Q 61.1,-14.4,61.0,-25.2
Q 60.9,-28.9,60.3,-31.7
Q 58.9,-37.8,69.6,-39.7
Q 89.7,-43.4,101.7,-56.4
Q 108.8,-64.0,110.9,-71.1
Q 112.2,-75.5,110.9,-76.8
Q 109.4,-78.3,106.1,-75.7
Q 106.6,-75.1,107.1,-74.4
Q 107.6,-74.6,108.2,-74.7
Q 110.8,-75.4,107.5,-68.4
Q 98.1,-48.5,72.0,-42.0
Q 70.4,-41.6,66.5,-41.0
Q 68.0,-42.9,69.1,-44.7
Q 69.7,-45.6,70.2,-46.4
Q 70.4,-46.8,70.7,-47.1
Q 71.1,-47.8,71.6,-48.2
Q 71.8,-48.4,72.0,-48.7
Q 72.3,-49.3,72.7,-50.0
Q 73.4,-51.3,73.8,-52.2
Q 74.0,-52.7,74.2,-53.1
Q 74.2,-54.0,74.4,-54.2
Q 74.6,-54.3,74.7,-54.4
Q 75.1,-55.6,75.5,-56.7
Q 77.3,-61.1,77.3,-69.6
Q 77.3,-70.9,77.3,-72.2
Q 77.3,-72.7,77.3,-73.1
Q 77.4,-74.9,77.4,-76.7
Q 77.3,-77.6,77.3,-78.4
Q 77.2,-78.4,77.1,-78.4
Q 76.9,-78.3,76.9,-80.7
Q 76.9,-81.3,76.9,-82.0
Q 76.8,-82.0,76.7,-81.9
Q 76.4,-81.9,76.4,-84.2
Q 76.5,-84.9,76.5,-85.6
Q 76.5,-86.9,76.3,-87.1
Q 76.1,-87.2,76.0,-87.3
Q 76.0,-87.8,76.0,-88.2
Q 75.8,-90.2,75.6,-92.2
Q 75.1,-96.2,74.2,-100.7
Q 73.8,-102.9,73.3,-105.1
Q 73.3,-105.3,73.3,-105.6
Q 73.0,-106.9,72.7,-108.2
Q 69.0,-122.8,63.3,-129.6
Q 62.8,-130.2,62.2,-130.9
Q 60.0,-132.7,58.9,-134.0
Q 58.3,-134.7,57.8,-135.3
Q 54.1,-138.7,54.2,-139.0
Q 54.2,-139.3,55.0,-139.7
Q 57.8,-141.0,56.9,-144.2
Q 56.5,-145.7,56.7,-145.9
Q 56.9,-146.1,58.5,-144.7
Q 66.1,-138.0,66.6,-143.4
Q 66.7,-145.3,66.1,-146.7
Q 65.4,-148.0,64.8,-150.2
Q 71.1,-144.6,73.3,-145.3
Q 75.6,-146.0,75.6,-154.0
Q 75.2,-153.9,75.2,-154.1
Q 75.1,-154.4,75.1,-157.6
Q 75.1,-158.9,75.1,-160.2
Q 75.0,-160.6,74.9,-160.9
Q 74.6,-161.6,75.1,-162.9
Q 75.2,-163.4,75.4,-163.9
Q 76.1,-167.0,78.5,-165.6
Q 84.4,-162.0,91.2,-143.3
Q 95.0,-133.0,97.3,-136.3
Q 98.8,-138.3,104.9,-156.7
Q 105.0,-157.1,105.1,-157.5
Q 105.4,-158.4,105.8,-158.6
Q 106.0,-158.8,106.2,-158.9
Q 108.7,-161.4,109.3,-161.6
Q 109.8,-161.8,110.7,-160.7
Q 112.9,-157.9,112.9,-143.8
Q 112.9,-143.0,112.9,-142.3
Q 112.8,-140.8,112.6,-140.7
Q 112.5,-140.7,112.4,-140.7
Q 112.1,-138.7,111.8,-136.7
Q 111.1,-132.3,105.9,-116.6
Q 103.4,-108.7,105.4,-108.9
Q 106.3,-108.9,110.7,-114.9
Q 117.3,-123.9,118.5,-122.1
Q 119.6,-120.4,118.3,-114.4
Q 115.6,-102.4,106.7,-90.2
Q 101.5,-83.1,98.6,-72.9
Q 97.3,-68.0,100.0,-68.4
Q 100.7,-68.6,101.3,-68.7
Q 102.0,-69.4,102.7,-70.2
Q 104.0,-71.8,105.6,-73.1
Q 106.3,-73.8,107.1,-74.4
Q 106.6,-75.1,106.1,-75.7
Q 104.7,-74.6,102.9,-72.8
Q 100.9,-70.7,100.6,-70.5
Q 99.6,-70.0,100.8,-73.8
Q 103.1,-80.8,106.6,-86.0
Q 116.3,-100.9,119.1,-109.3
Q 124.0,-124.2,117.7,-124.2
Q 115.3,-124.2,110.2,-117.6
Q 107.8,-114.5,107.7,-114.6
Q 107.6,-114.7,110.3,-122.9
Q 116.8,-143.0,114.7,-155.9
Q 113.4,-164.2,109.2,-164.2
Q 105.1,-164.2,99.3,-147.2
Q 96.3,-138.4,96.0,-138.4
Q 95.4,-138.4,93.0,-145.1
Q 85.0,-167.1,77.2,-168.4
Q 71.8,-169.4,73.2,-153.9
Q 73.9,-146.8,72.1,-147.6
Q 69.2,-148.7,65.6,-152.3
Q 63.9,-154.1,63.0,-153.4
Q 61.2,-152.1,63.3,-147.6
Q 65.4,-143.0,64.2,-143.5
Q 62.1,-144.3,58.3,-147.5
Q 56.3,-149.1,55.1,-149.1
Q 52.2,-149.1,54.2,-145.1
Q 55.7,-142.2,53.2,-141.3
Q 50.0,-140.2,49.5,-143.2
Q 47.1,-158.4,36.7,-164.5
Q 30.4,-168.3,24.8,-168.3
Q 22.3,-168.3,22.1,-168.6
Q 21.8,-169.0,23.4,-174.0
Q 29.5,-192.9,27.3,-197.2
Q 24.8,-202.0,19.0,-188.5
Q 18.6,-189.2,18.2,-189.9
Q 16.3,-193.1,12.9,-193.1
Q 11.4,-193.1,11.7,-195.4
Q 12.0,-197.8,12.3,-199.8
Q 13.2,-208.8,11.3,-210.9
Q 10.6,-211.6,9.3,-210.1
Q 7.6,-208.2,6.5,-201.6
Q 6.0,-202.6,5.4,-203.7
Q 4.7,-205.0,3.9,-206.1
Q 3.3,-205.6,2.7,-205.1
Q 5.7,-199.2,5.1,-193.3
Q 4.6,-188.1,5.4,-187.9
Q 6.2,-187.7,6.4,-189.9
Q 6.7,-192.0,7.8,-198.2
Q 9.4,-207.2,9.9,-207.5
Q 10.7,-208.1,10.7,-202.0
Q 10.6,-199.9,10.2,-199.8
Q 9.8,-192.4,8.4,-192.0
Q 6.1,-191.3,8.2,-190.1
Q 8.9,-189.7,7.8,-184.9
Q 6.5,-178.8,7.4,-178.6
Q 8.4,-178.4,8.9,-180.8
Q 9.4,-183.1,9.5,-183.8
Q 10.1,-185.9,10.9,-189.8
Q 11.5,-192.5,14.8,-190.6
Q 18.8,-188.1,17.5,-183.8
Q 15.0,-175.9,15.3,-175.1
Q 16.0,-173.1,18.0,-179.6
Q 21.4,-190.7,25.3,-195.8
Q 25.6,-194.4,25.8,-193.1
Q 25.8,-192.6,25.7,-192.1
Q 25.7,-191.0,25.5,-191.0
Q 25.4,-190.9,25.3,-190.9
Q 24.9,-188.7,24.4,-186.5
Q 20.8,-169.0,16.3,-165.4
Q 10.2,-160.6,7.5,-156.6
Q 5.8,-154.0,4.7,-153.1
Q 4.1,-152.7,3.6,-152.2
Q 3.6,-151.6,3.6,-150.9
Q 4.4,-150.9,5.3,-150.9
Q 6.4,-152.3,7.5,-153.6
Q 17.6,-166.0,24.9,-166.0
Q 33.1,-166.0,39.6,-159.7
Q 46.4,-153.0,47.4,-145.0
Q 47.8,-142.7,44.8,-144.3
Q 43.9,-144.7,43.3,-144.5
Q 41.3,-143.7,45.2,-141.6
Q 64.5,-131.0,70.4,-107.5
Q 74.2,-92.5,74.9,-78.7
Q 75.0,-76.6,75.1,-74.4
Q 75.4,-74.6,75.5,-74.3
Q 75.6,-74.0,75.6,-71.3
Q 75.6,-69.6,75.1,-69.1
Q 75.6,-67.8,75.1,-66.4
Q 74.9,-56.4,66.4,-45.1
Q 65.4,-43.8,64.4,-42.4
Q 63.1,-40.7,62.0,-39.8
Q 61.4,-39.3,60.9,-38.9
Q 60.3,-38.4,59.8,-38.0
Q 58.6,-37.1,57.3,-40.1
Q 54.8,-45.9,53.8,-44.8
Q 53.3,-44.3,54.7,-41.5
Q 56.2,-38.7,56.7,-36.6
Q 57.3,-34.4,58.7,-27.8
Q 59.1,-26.4,58.9,-25.8
Q 58.8,-25.4,58.7,-25.1
Q 58.7,-24.9,58.7,-24.7
Q 58.8,-24.4,58.9,-24.2
Q 59.2,-23.8,58.7,-22.4
Q 58.4,-21.3,58.2,-20.1
Q 56.7,-12.5,51.9,-23.6
Q 50.8,-26.2,49.6,-28.7
Q 48.5,-31.1,47.1,-34.8
Q 45.6,-38.5,44.9,-38.3
Q 43.9,-38.0,46.2,-32.4
Q 47.7,-28.7,47.6,-28.1
Q 47.0,-26.0,43.1,-23.9
Q 42.9,-23.8,41.4,-26.7
Q 37.4,-34.3,36.3,-33.2
Q 35.9,-32.8,37.7,-29.7
Q 39.6,-26.6,40.5,-24.2
Q 41.4,-21.8,42.0,-20.3
Q 42.7,-18.9,42.9,-16.7
Q 43.0,-15.6,43.1,-14.4
Q 43.6,-13.1,43.3,-12.2
Q 43.2,-11.8,43.1,-11.3
Q 42.7,-5.8,41.4,-6.1
Q 39.6,-6.5,35.8,-13.8
Q 29.3,-26.0,28.6,-26.0
Q 27.5,-26.0,29.8,-21.6
Q 31.2,-18.8,31.4,-18.2
Q 31.6,-17.7,29.7,-17.4
Q 27.8,-17.2,24.0,-16.2
Q 16.1,-14.2,7.8,-13.8
Q 5.7,-13.7,3.6,-13.6
Q 3.2,-13.4,2.9,-13.3
Q 2.2,-13.1,1.5,-13.3
Q 1.2,-13.4,0.9,-13.6
Q -1.5,-13.8,-4.0,-14.1
Q -8.8,-14.6,-15.1,-15.8
Q -13.5,-18.3,-12.2,-19.9
Q -11.0,-21.6,-11.5,-22.1
Q -12.5,-23.1,-16.4,-17.3
Q -17.9,-15.2,-18.4,-14.0
Q -28.6,8.4,-31.5,2.1
Q -34.5,-4.5,-29.1,-18.7
Q -25.1,-29.2,-26.6,-29.3
Q -27.2,-29.3,-27.9,-27.6
Q -28.5,-25.8,-29.2,-24.4
Q -29.5,-23.6,-29.8,-22.9
Q -34.1,-25.6,-34.5,-26.0
Q -35.3,-26.9,-33.4,-29.7
Q -31.0,-33.1,-32.4,-33.1
Q -32.9,-33.1,-35.4,-29.5
Q -37.9,-25.8,-38.5,-24.5
Q -41.1,-17.9,-45.5,-9.6
Q -50.6,0.3,-52.7,-3.3
Q -56.5,-10.1,-43.4,-29.8
Q -38.6,-36.9,-38.9,-37.4
Q -39.4,-38.8,-42.4,-34.4
Q -43.5,-32.8,-44.5,-31.2
Q -45.5,-32.4,-46.6,-33.6
Q -61.4,-50.7,-66.0,-81.1
Q -66.3,-83.3,-66.7,-85.6
Q -67.1,-86.9,-66.9,-87.6
Q -66.8,-87.9,-66.7,-88.2
Q -66.8,-89.4,-66.9,-90.7
Q -67.1,-93.1,-66.7,-100.7
Q -66.6,-102.7,-66.2,-102.9
Q -66.0,-105.1,-65.8,-107.3
Q -64.2,-121.7,-57.0,-133.8
Q -54.1,-138.7,-52.4,-140.0
Q -50.6,-141.2,-50.9,-141.9
Q -51.1,-142.6,-49.9,-144.1
Q -48.8,-145.7,-47.9,-145.9
Q -46.1,-146.4,-46.2,-149.8
Q -46.3,-152.6,-44.2,-158.1
Q -43.6,-159.8,-40.4,-164.7
Q -39.2,-166.3,-38.2,-166.4
Q -34.3,-168.6,-31.5,-168.6
Q -20.2,-168.8,-12.7,-160.9
Q -12.1,-161.5,-11.6,-162.0
Q -13.3,-163.4,-14.7,-165.1
Q -19.5,-168.3,-22.0,-169.3
Q -27.6,-171.5,-31.8,-189.4
Q -32.4,-192.2,-32.9,-195.1
Q -33.1,-196.6,-33.3,-198.0
Q -33.6,-200.4,-33.3,-200.3
Q -33.1,-200.3,-32.9,-200.2
Q -32.1,-199.3,-31.3,-198.4
Q -29.7,-196.5,-28.6,-194.0
Q -27.4,-191.6,-25.1,-188.2
Q -22.8,-184.8,-20.4,-181.3
Q -13.2,-170.9,-12.4,-170.9
Q -10.5,-170.9,-13.8,-175.3
Q -19.7,-183.0,-21.9,-187.5
Q -23.8,-191.5,-19.1,-193.3
Q -18.4,-193.6,-17.7,-191.0
Q -17.0,-188.4,-15.3,-183.6
Q -13.7,-178.7,-13.3,-177.2
Q -13.0,-175.7,-12.3,-175.0
Q -10.0,-172.7,-12.6,-181.0
Q -14.3,-186.2,-15.1,-189.1
Q -15.9,-192.0,-17.1,-196.0
Q -19.8,-205.1,-19.3,-205.5
Q -19.1,-205.7,-15.9,-198.5
Q -13.4,-192.9,-12.7,-190.9
Q -10.3,-184.8,-10.2,-187.9
Q -10.1,-188.9,-11.3,-192.2
Q -14.9,-202.4,-12.4,-205.7
Q -11.6,-206.9,-11.1,-206.0
Q -10.8,-206.2,-10.7,-205.9
Q -10.7,-205.7,-10.7,-203.8
Q -9.8,-198.2,-9.2,-194.6
Q -8.4,-194.7,-7.6,-194.9
Q -9.3,-206.4,-9.6,-208.4
Q -9.8,-210.4,-10.2,-215.8
Q -10.6,-215.6,-10.6,-215.8
Q -10.7,-216.1,-10.7,-218.4
Q -10.5,-219.4,-10.4,-220.5
Q -9.7,-227.1,-7.8,-224.1
Q -3.9,-217.8,-1.3,-197.1
Q -1.1,-195.3,-0.9,-193.6
Q -0.4,-193.8,-0.4,-192.3
Q -0.4,-191.6,-0.4,-190.9
Q 0.3,-191.0,1.0,-191.0
Q 0.9,-191.8,0.9,-192.3
Q 0.9,-193.6,0.7,-195.8
Q 0.6,-196.9,0.4,-198.0
Q 0.1,-197.8,0.1,-198.1
Q 0.0,-198.3,0.0,-200.2
Q -0.4,-204.2,-0.7,-206.0
Q -0.9,-207.8,-0.2,-207.6
Q 0.1,-207.4,0.4,-207.3
Q 0.9,-208.0,1.4,-208.6
Q 0.8,-209.0,0.2,-209.4
Q -1.7,-210.5,-1.9,-212.2
Q -2.2,-214.0,-2.9,-216.1
Q -3.6,-218.2,-4.3,-220.7
Q -6.4,-228.1,-9.8,-227.5
Q -13.8,-226.8,-12.0,-212.2
Q -11.6,-208.9,-13.0,-207.7
Q -14.5,-206.5,-15.7,-202.9
Q -16.2,-204.0,-16.7,-205.1
Q -18.6,-209.2,-20.6,-208.4
Q -22.9,-207.5,-20.2,-199.6
Q -18.7,-195.2,-20.5,-194.6
Q -21.9,-194.0,-23.2,-192.8
Q -24.9,-191.2,-27.3,-195.8
Q -30.2,-201.3,-32.9,-202.7
Q -37.1,-204.9,-34.2,-190.3
Q -31.4,-176.7,-28.2,-172.7
Q -26.9,-171.1,-27.4,-170.6
Q -27.6,-170.4,-29.9,-170.7
Q -44.0,-172.2,-47.7,-152.0
Q -48.3,-148.8,-51.2,-145.5
Q -54.1,-142.2,-54.9,-140.9
Q -55.4,-140.3,-55.8,-140.1
Q -58.9,-138.4,-57.3,-153.6
Q -56.5,-161.8,-56.6,-166.5
Q -57.4,-166.5,-58.2,-166.4
Q -58.2,-165.3,-58.2,-164.2
Q -58.3,-162.2,-58.5,-162.1
Q -58.6,-162.0,-58.7,-162.0
Q -58.7,-160.2,-58.7,-158.4
Q -58.7,-157.9,-58.7,-157.4
Q -58.7,-156.4,-58.9,-156.3
Q -59.0,-156.3,-59.1,-156.2
Q -59.3,-154.2,-59.6,-152.2
Q -61.1,-139.1,-57.3,-138.1
Q -56.5,-137.9,-58.2,-135.3
Q -60.0,-132.7,-63.1,-126.4
Q -63.1,-125.7,-63.3,-125.4
Q -63.4,-125.3,-63.6,-125.1
Q -66.4,-118.7,-67.1,-112.2
Q -67.1,-111.8,-67.1,-111.3
Q -68.9,-102.3,-68.9,-96.2
Q -68.9,-96.0,-68.9,-95.9
Q -68.9,-95.5,-69.1,-95.4
Q -69.2,-95.4,-69.3,-95.3
Q -69.3,-92.4,-69.3,-89.6
Q -69.2,-89.6,-69.1,-89.7
Q -68.9,-89.8,-68.9,-86.0
Q -68.9,-85.1,-68.9,-84.2
Q -68.6,-84.4,-68.5,-84.1
Q -68.4,-83.9,-68.4,-81.6
Q -68.4,-80.9,-68.4,-80.2
Q -68.4,-80.0,-68.4,-79.8
Q -68.4,-79.3,-68.2,-78.9
Q -68.1,-78.7,-68.0,-78.4
Q -65.9,-67.3,-61.8,-54.9
Q -61.1,-52.9,-60.4,-50.9
Q -59.6,-50.0,-59.6,-49.6
Q -59.6,-49.3,-59.6,-49.1
Q -58.8,-47.4,-57.9,-45.6
Q -56.3,-42.1,-54.4,-39.4
Q -53.4,-38.1,-52.5,-36.7
Q -53.2,-36.8,-53.9,-36.9
Q -58.9,-37.8,-69.8,-42.0
Q -72.4,-42.9,-73.8,-44.2
Q -87.0,-51.7,-96.9,-61.6
Q -97.2,-61.8,-97.5,-62.0
Q -98.2,-62.5,-98.6,-63.1
Q -98.9,-63.4,-99.1,-63.8
Q -99.8,-63.3,-100.4,-62.7
Q -93.3,-53.8,-83.0,-47.0
Q -66.5,-36.0,-53.4,-34.6
Q -50.9,-34.4,-48.4,-31.7
Q -46.4,-29.5,-46.3,-29.0
Q -46.3,-28.5,-47.3,-27.2
Q -54.0,-18.4,-55.2,-9.7
Q -56.2,-1.5,-52.5,-0.1
Q -50.6,0.6,-47.8,-2.2
Q -45.2,-4.8,-38.9,-18.9
Q -36.8,-23.5,-36.7,-23.7
Q -36.6,-23.8,-34.0,-22.3
Q -31.4,-20.7,-31.0,-20.5
Q -30.5,-20.4,-31.4,-17.7
Q -35.8,-5.6,-34.1,1.2
Q -32.6,7.7,-27.8,4.7
Q -23.9,2.4,-18.5,-8.7
Q -16.4,-12.9,-15.9,-12.8
Q -15.3,-12.7,-13.4,-12.4
Q -11.5,-12.1,-11.7,-11.6
Q -11.9,-11.1,-13.5,-7.8
Q -16.8,-0.7,-18.0,8.3
Q -19.8,21.7,-29.5,36.2
Q -38.2,49.2,-38.2,60.2
Q -38.2,74.5,-31.2,81.5
Q -23.9,88.8,-14.6,81.0
Q -13.4,80.1,-12.3,79.1
Q -15.0,87.5,-16.5,90.9
Q -17.9,93.7,-19.1,96.7
Q -20.3,99.6,-21.0,101.1
Q -34.0,131.4,-14.0,164.9
Q -8.3,174.4,-2.7,181.1
Q 2.1,186.9,5.6,191.4
Q 8.1,194.6,8.9,195.6
Q 9.6,196.5,10.7,198.2
Q 11.7,199.9,12.6,201.3
Q 16.5,207.5,17.2,216.4
Q 17.4,220.0,17.9,220.5
 " /> 
<path  
style="fill:rgb(7,193,201)" 
d="M -8.4 169.1
Q -8.3,169.3,-8.2,169.6
Q -8.0,170.0,-7.6,170.9
Q -7.3,170.2,-6.9,169.4
Q -6.9,169.4,-6.9,169.4
Q -7.0,169.2,-7.0,169.0
Q -7.7,169.0,-8.4,169.1
 " /> 
<path  
style="fill:rgb(14,103,171)" 
d="M -8.4 169.1
Q -8.7,166.9,-8.9,164.7
Q -10.5,148.1,-8.2,136.0
Q -7.1,130.3,-6.2,131.2
Q -5.8,131.6,-6.4,134.7
Q -8.0,142.4,-7.8,152.9
Q -7.5,164.2,-7.0,169.0
Q -7.0,169.2,-6.9,169.4
Q -6.9,169.4,-6.9,169.4
Q -6.8,170.9,-7.2,170.9
Q -7.4,170.9,-7.6,170.9
Q -1.3,179.3,1.6,182.7
Q 4.6,186.2,7.4,189.9
Q 10.7,194.1,11.0,193.2
Q 12.3,189.3,8.4,172.0
Q 5.0,156.6,5.9,140.9
Q 6.6,130.4,7.9,130.4
Q 8.7,130.4,7.5,139.1
Q 5.8,151.6,10.0,170.0
Q 12.5,181.0,12.6,190.1
Q 12.7,196.7,13.9,198.8
Q 18.6,206.5,19.3,213.6
Q 19.6,216.4,20.3,218.5
Q 21.4,217.1,22.6,215.7
Q 25.0,212.9,28.2,209.5
Q 31.4,206.2,34.7,202.7
Q 37.9,199.2,40.3,196.7
Q 51.6,184.7,47.8,166.3
Q 46.2,158.8,42.4,149.1
Q 35.4,131.1,35.7,130.3
Q 36.2,128.7,38.8,135.2
Q 40.8,140.4,44.0,148.2
Q 48.7,159.6,50.1,167.7
Q 51.6,177.0,48.4,187.1
Q 55.3,178.6,57.8,174.8
Q 74.1,150.6,66.1,133.5
Q 63.4,127.8,55.8,120.7
Q 46.8,112.2,43.4,108.1
Q 35.3,98.1,34.8,85.3
Q 34.8,84.3,34.7,83.3
Q 34.7,83.3,34.7,83.3
Q 34.1,83.4,33.6,83.5
Q 32.4,83.8,32.2,87.6
Q 31.5,98.8,29.2,100.3
Q 28.5,100.8,28.2,100.6
Q 28.0,100.3,27.1,95.5
Q 26.2,90.7,25.8,89.8
Q 25.7,89.4,25.5,89.1
Q 25.2,89.0,24.7,89.5
Q 23.2,93.0,22.7,93.6
Q 20.2,96.0,16.9,91.8
Q 15.5,90.0,14.9,90.0
Q 14.3,90.0,13.4,92.0
Q 12.5,94.1,12.0,98.0
Q 12.0,98.4,12.0,98.9
Q 12.0,103.3,9.2,106.9
Q 7.8,108.8,7.1,107.7
Q 6.8,107.3,6.2,104.7
Q 6.2,104.4,6.2,104.2
Q 5.9,103.1,5.5,102.0
Q 4.9,99.8,4.7,96.9
Q 4.5,95.4,4.4,94.0
Q 4.5,93.3,4.6,92.6
Q 4.7,91.1,4.3,91.0
Q 4.2,90.9,4.0,90.9
Q 3.8,90.6,3.5,90.2
Q 3.1,89.6,3.1,88.9
Q 3.1,88.6,3.1,88.2
Q 3.1,88.0,3.1,87.8
Q 2.1,85.7,-0.5,90.2
Q -5.6,99.6,-9.1,88.4
Q -9.6,86.7,-10.4,84.6
Q -10.7,83.5,-11.1,82.4
Q -13.3,87.8,-14.6,90.8
Q -19.4,102.0,-21.2,107.3
Q -29.9,133.8,-12.8,162.5
Q -11.0,165.5,-8.4,169.1
 " /> 
<path  
style="fill:rgb(7,193,201)" 
d="M 22.0 213.6
Q 22.7,214.6,24.3,210.8
Q 34.5,186.9,32.0,166.0
Q 30.2,151.6,28.8,153.0
Q 28.3,153.5,29.0,157.2
Q 32.4,175.1,29.1,190.9
Q 27.1,200.7,23.3,209.7
Q 21.8,213.2,22.0,213.6
 " /> 
<path  
style="fill:rgb(7,193,201)" 
d="M 58.5 167.7
Q 58.7,168.4,59.1,167.9
Q 59.5,167.5,59.7,164.3
Q 60.3,151.1,53.3,137.2
Q 49.9,130.5,49.0,131.1
Q 48.5,131.4,50.5,135.1
Q 57.4,147.9,58.0,162.0
Q 58.3,167.1,58.5,167.7
 " /> 
<path  
style="fill:rgb(7,193,201)" 
d="M -8.4 169.1
Q -7.7,169.0,-7.0,169.0
Q -7.5,164.2,-7.8,152.9
Q -8.0,142.4,-6.4,134.7
Q -5.8,131.6,-6.2,131.2
Q -7.1,130.3,-8.2,136.0
Q -10.5,148.1,-8.9,164.7
Q -8.7,166.9,-8.4,169.1
 " /> 
<path  
style="fill:rgb(7,193,201)" 
d="M -7.6 170.9
Q -7.4,170.9,-7.2,170.9
Q -6.8,170.9,-6.9,169.4
Q -7.3,170.2,-7.6,170.9
 " /> 
<path  
style="fill:rgb(7,193,201)" 
d="M -11.1 82.4
Q -10.9,81.8,-10.7,81.1
Q -11.1,81.2,-11.1,81.8
Q -11.1,82.1,-11.1,82.4
 " /> 
<path  
style="fill:rgb(7,193,201)" 
d="M -11.1 82.4
Q -10.8,82.4,-10.4,82.3
Q -10.5,81.7,-10.7,81.1
Q -10.9,81.8,-11.1,82.4
 " /> 
<path  
style="fill:rgb(97,247,248)" 
d="M 3.1 87.8
Q 3.1,88.0,3.1,88.2
Q 4.0,89.5,4.0,90.2
Q 4.0,90.5,4.0,90.9
Q 4.2,90.9,4.3,91.0
Q 4.7,91.1,4.6,92.6
Q 4.5,93.3,4.4,94.0
Q 4.7,94.9,4.9,95.8
Q 5.3,97.5,5.8,100.9
Q 6.0,102.5,6.2,104.2
Q 6.2,104.4,6.2,104.7
Q 7.7,107.2,7.8,107.2
Q 8.0,107.3,9.3,105.5
Q 10.7,103.8,12.0,98.9
Q 12.0,98.4,12.0,98.0
Q 12.0,92.1,14.3,89.8
Q 15.2,88.9,16.7,90.7
Q 18.3,92.4,19.4,93.3
Q 21.6,95.1,23.9,90.8
Q 24.8,89.1,25.4,89.1
Q 25.5,89.0,25.5,89.0
Q 25.5,89.0,25.5,89.1
Q 26.2,89.1,26.6,91.2
Q 27.6,96.3,28.3,99.3
Q 28.5,100.3,29.4,99.5
Q 30.8,98.2,31.6,89.6
Q 32.1,83.6,32.3,83.4
Q 32.5,83.1,33.6,83.2
Q 34.1,83.3,34.7,83.3
Q 34.7,82.4,34.7,81.5
Q 34.7,80.9,34.7,80.2
Q 34.7,74.1,34.9,74.0
Q 35.0,74.0,35.1,74.0
Q 34.3,72.7,33.6,71.3
Q 24.3,55.4,23.4,41.6
Q 23.2,39.5,23.7,37.6
Q 24.0,36.6,24.4,35.6
Q 28.2,27.5,26.2,11.9
Q 25.7,8.2,25.6,8.1
Q 25.2,7.5,24.4,11.7
Q 23.4,16.5,22.3,15.1
Q 22.2,14.9,23.3,7.8
Q 24.0,3.5,24.4,0.2
Q 24.7,-3.1,25.3,-3.1
Q 25.9,-3.1,26.0,0.0
Q 26.2,3.1,27.0,6.5
Q 29.2,14.9,28.8,23.4
Q 28.3,31.9,26.2,36.2
Q 25.8,37.1,25.3,38.0
Q 25.3,39.8,25.3,41.5
Q 25.4,42.4,25.5,43.3
Q 25.8,45.1,26.2,48.0
Q 26.4,49.4,26.7,50.9
Q 26.9,50.9,27.1,50.9
Q 28.0,50.0,28.9,49.1
Q 36.9,41.1,42.5,38.0
Q 43.7,37.3,44.9,36.7
Q 46.7,36.5,47.4,37.0
Q 47.7,37.3,48.0,37.5
Q 48.4,37.8,48.9,38.0
Q 49.8,38.4,51.1,39.3
Q 49.6,36.5,48.0,33.8
Q 35.0,10.6,31.1,-1.2
Q 27.9,-10.7,26.0,-12.8
Q 24.9,-13.9,22.1,-13.1
Q 19.3,-12.3,15.8,-11.7
Q 12.4,-11.1,8.0,-10.9
Q 6.9,-10.9,5.8,-10.9
Q -6.2,-11.3,-7.8,-11.4
Q -9.4,-11.5,-11.6,-7.4
Q -14.8,-1.2,-15.6,4.9
Q -18.0,22.2,-25.3,34.0
Q -26.4,35.8,-27.6,37.5
Q -27.1,37.5,-26.7,37.5
Q -25.8,37.5,-24.9,37.8
Q -24.4,37.9,-24.0,38.0
Q -23.8,38.0,-23.6,38.0
Q -22.7,38.4,-21.8,38.8
Q -20.1,39.5,-17.8,38.8
Q -16.7,38.4,-15.6,38.0
Q -15.3,38.0,-15.1,38.0
Q -14.6,37.9,-14.0,37.8
Q -12.9,37.5,-11.4,39.1
Q -9.9,40.7,-8.0,40.9
Q -6.2,41.1,-5.5,41.5
Q -5.2,41.8,-4.9,42.0
Q -4.7,42.0,-4.4,42.0
Q -3.8,42.4,-3.1,42.9
Q -1.7,43.7,-0.4,45.1
Q -0.4,44.9,-0.4,44.7
Q -0.2,42.5,0.0,40.4
Q 0.4,36.2,-0.9,33.4
Q -3.6,28.1,-4.3,19.9
Q -4.5,17.1,-4.5,14.0
Q -4.4,8.5,-4.9,6.3
Q -5.8,1.5,-4.8,1.2
Q -4.1,1.1,-3.6,4.3
Q -3.0,7.5,-1.9,11.3
Q -0.0,17.9,-1.1,18.1
Q -2.0,18.2,-2.2,15.8
Q -2.3,15.8,-2.4,15.8
Q -2.6,15.9,-2.6,17.8
Q -2.7,18.8,-2.7,19.8
Q -2.6,20.9,-2.4,22.0
Q -1.6,30.0,1.9,35.0
Q 2.8,36.3,3.0,37.5
Q 3.2,38.6,2.6,38.2
Q 1.9,37.9,1.4,41.7
Q 1.1,43.6,0.9,45.5
Q 0.9,46.8,0.4,46.9
Q 0.1,48.5,-0.2,50.2
Q -3.1,64.4,-7.6,72.5
Q -8.9,74.9,-10.7,81.1
Q -10.5,81.7,-10.4,82.3
Q -10.3,82.8,-10.2,83.3
Q -9.8,85.5,-8.4,89.2
Q -5.0,98.1,-1.5,91.2
Q 2.2,83.9,2.9,86.9
Q 3.0,87.3,3.1,87.8
 " /> 
<path  
style="fill:rgb(7,193,201)" 
d="M 3.1 88.2
Q 3.1,88.6,3.1,88.9
Q 3.1,89.6,3.5,90.2
Q 3.8,90.6,4.0,90.9
Q 4.0,90.5,4.0,90.2
Q 4.0,89.5,3.1,88.2
 " /> 
<path  
style="fill:rgb(7,193,201)" 
d="M 4.4 94.0
Q 4.5,95.4,4.7,96.9
Q 4.9,99.8,5.5,102.0
Q 5.9,103.1,6.2,104.2
Q 6.0,102.5,5.8,100.9
Q 5.3,97.5,4.9,95.8
Q 4.7,94.9,4.4,94.0
 " /> 
<path  
style="fill:rgb(7,193,201)" 
d="M 6.2 104.7
Q 6.8,107.3,7.1,107.7
Q 7.8,108.8,9.2,106.9
Q 12.0,103.3,12.0,98.9
Q 10.7,103.8,9.3,105.5
Q 8.0,107.3,7.8,107.2
Q 7.7,107.2,6.2,104.7
 " /> 
<path  
style="fill:rgb(7,193,201)" 
d="M 12.0 98.0
Q 12.5,94.1,13.4,92.0
Q 14.3,90.0,14.9,90.0
Q 15.5,90.0,16.9,91.8
Q 20.2,96.0,22.7,93.6
Q 23.2,93.0,25.4,89.1
Q 24.8,89.1,23.9,90.8
Q 21.6,95.1,19.4,93.3
Q 18.3,92.4,16.7,90.7
Q 15.2,88.9,14.3,89.8
Q 12.0,92.1,12.0,98.0
 " /> 
<path  
style="fill:rgb(7,193,201)" 
d="M 34.7 83.3
Q 34.1,83.3,33.6,83.2
Q 32.5,83.1,32.3,83.4
Q 32.1,83.6,31.6,89.6
Q 30.8,98.2,29.4,99.5
Q 28.5,100.3,28.3,99.3
Q 27.6,96.3,26.6,91.2
Q 26.2,89.1,25.5,89.1
Q 25.7,89.4,25.8,89.8
Q 26.2,90.7,27.1,95.5
Q 28.0,100.3,28.2,100.6
Q 28.5,100.8,29.2,100.3
Q 31.5,98.8,32.2,87.6
Q 32.4,83.8,33.6,83.5
Q 34.1,83.4,34.7,83.3
 " /> 
<path  
style="fill:rgb(14,103,171)" 
d="M 34.7 83.3
Q 34.7,83.3,34.7,83.3
Q 34.7,82.4,34.7,81.5
Q 34.7,82.4,34.7,83.3
 " /> 
<path  
style="fill:rgb(14,103,171)" 
d="M 0.4 46.9
Q 0.5,46.2,0.5,45.6
Q -0.1,45.6,-0.3,45.2
Q -0.3,45.2,-0.3,45.2
Q -0.3,45.1,-0.4,45.1
Q -0.6,45.3,-0.7,45.5
Q -0.9,46.0,-1.3,45.3
Q -1.8,44.7,-4.4,42.0
Q -4.7,42.0,-4.9,42.0
Q -9.8,41.1,-11.5,39.5
Q -13.3,37.9,-15.1,38.0
Q -15.3,38.0,-15.6,38.0
Q -17.8,39.3,-19.3,39.6
Q -20.9,39.8,-22.2,38.9
Q -22.9,38.4,-23.6,38.0
Q -23.8,38.0,-24.0,38.0
Q -24.6,38.0,-25.3,38.0
Q -26.5,38.0,-27.3,38.0
Q -27.6,38.0,-28.0,38.0
Q -33.8,47.3,-34.7,50.5
Q -35.2,52.1,-35.5,54.1
Q -34.7,54.3,-33.9,54.4
Q -34.1,53.8,-33.5,51.8
Q -31.9,47.2,-31.0,48.1
Q -30.5,48.6,-31.5,51.2
Q -33.4,55.8,-33.9,54.4
Q -34.7,54.3,-35.5,54.1
Q -35.8,56.2,-35.9,58.7
Q -36.1,63.2,-36.0,63.5
Q -35.7,64.6,-34.3,61.4
Q -33.4,59.1,-30.9,56.0
Q -28.4,52.9,-26.3,50.1
Q -23.1,45.9,-23.1,47.9
Q -23.1,48.4,-27.1,53.5
Q -35.4,64.0,-35.0,68.9
Q -34.2,77.1,-26.7,82.0
Q -26.6,80.4,-26.4,78.9
Q -26.2,75.8,-26.2,72.2
Q -26.2,68.7,-25.6,68.7
Q -24.9,68.7,-24.9,75.0
Q -25.0,80.5,-25.1,81.0
Q -25.3,81.5,-26.2,82.0
Q -22.2,82.4,-20.1,81.8
Q -13.0,79.6,-13.5,73.2
Q -15.3,50.5,-13.4,52.5
Q -13.0,52.9,-12.7,59.3
Q -12.2,73.9,-11.7,74.1
Q -10.8,74.5,-8.4,68.3
Q -7.9,66.8,-7.1,65.8
Q -5.2,63.3,-2.0,50.2
Q -1.2,47.2,0.4,46.9
 " /> 
<path  
style="fill:rgb(7,193,201)" 
d="M -8.6 61.0
Q -8.4,62.4,-7.7,62.4
Q -6.4,62.4,-7.4,54.9
Q -8.0,51.3,-8.8,52.5
Q -9.8,54.1,-8.6,61.0
 " /> 
<path  
style="fill:rgb(14,103,171)" 
d="M 0.4 46.9
Q 0.9,46.8,0.9,45.5
Q 0.7,45.6,0.5,45.6
Q 0.5,46.2,0.4,46.9
 " /> 
<path  
style="fill:rgb(4,4,4)" 
d="M 0.9 45.5
Q 0.3,45.4,-0.3,45.2
Q -0.3,45.2,-0.3,45.2
Q -0.1,45.6,0.5,45.6
Q 0.7,45.6,0.9,45.5
 " /> 
<path  
style="fill:rgb(4,4,4)" 
d="M 0.9 45.5
Q 0.2,45.1,-0.4,44.7
Q -0.4,44.9,-0.3,45.1
Q -0.3,45.1,-0.3,45.2
Q 0.3,45.4,0.9,45.5
 " /> 
<path  
style="fill:rgb(4,4,4)" 
d="M 0.9 45.5
Q 1.1,43.6,1.4,41.7
Q 1.9,37.9,2.6,38.2
Q 3.2,38.6,3.0,37.5
Q 2.8,36.3,1.9,35.0
Q -1.6,30.0,-2.4,22.0
Q -2.6,20.9,-2.7,19.8
Q -3.5,19.8,-4.3,19.9
Q -3.6,28.1,-0.9,33.4
Q 0.4,36.2,0.0,40.4
Q -0.2,42.5,-0.4,44.7
Q 0.2,45.1,0.9,45.5
 " /> 
<path  
style="fill:rgb(4,4,4)" 
d="M -2.7 19.8
Q -2.9,15.2,-2.6,15.5
Q -2.4,15.6,-2.2,15.8
Q -2.0,18.2,-1.1,18.1
Q -0.0,17.9,-1.9,11.3
Q -3.0,7.5,-3.6,4.3
Q -4.1,1.1,-4.8,1.2
Q -5.8,1.5,-4.9,6.3
Q -4.4,8.5,-4.5,14.0
Q -4.5,17.1,-4.3,19.9
Q -3.5,19.8,-2.7,19.8
 " /> 
<path  
style="fill:rgb(7,193,201)" 
d="M -2.7 19.8
Q -2.7,18.8,-2.6,17.8
Q -2.6,15.9,-2.4,15.8
Q -2.3,15.8,-2.2,15.8
Q -2.4,15.6,-2.6,15.5
Q -2.9,15.2,-2.7,19.8
 " /> 
<path  
style="fill:rgb(7,193,201)" 
d="M -0.4 45.1
Q -1.7,43.7,-3.1,42.9
Q -3.8,42.4,-4.4,42.0
Q -1.8,44.7,-1.3,45.3
Q -0.9,46.0,-0.7,45.5
Q -0.6,45.3,-0.4,45.1
 " /> 
<path  
style="fill:rgb(7,193,201)" 
d="M -4.9 42.0
Q -5.2,41.8,-5.5,41.5
Q -6.2,41.1,-8.0,40.9
Q -9.9,40.7,-11.4,39.1
Q -12.9,37.5,-14.0,37.8
Q -14.6,37.9,-15.1,38.0
Q -13.3,37.9,-11.5,39.5
Q -9.8,41.1,-4.9,42.0
 " /> 
<path  
style="fill:rgb(7,193,201)" 
d="M -15.6 38.0
Q -16.7,38.4,-17.8,38.8
Q -20.1,39.5,-21.8,38.8
Q -22.7,38.4,-23.6,38.0
Q -22.9,38.4,-22.2,38.9
Q -20.9,39.8,-19.3,39.6
Q -17.8,39.3,-15.6,38.0
 " /> 
<path  
style="fill:rgb(7,193,201)" 
d="M -24.0 38.0
Q -24.4,37.9,-24.9,37.8
Q -25.8,37.5,-26.7,37.5
Q -27.1,37.5,-27.6,37.5
Q -27.8,37.5,-28.0,38.0
Q -27.6,38.0,-27.3,38.0
Q -26.5,38.0,-25.3,38.0
Q -24.6,38.0,-24.0,38.0
 " /> 
<path  
style="fill:rgb(14,103,171)" 
d="M 5.8 -10.9
Q 6.9,-10.9,8.0,-10.9
Q 7.7,-11.0,7.4,-11.2
Q 6.7,-11.4,6.2,-11.2
Q 6.0,-11.0,5.8,-10.9
 " /> 
<path  
style="fill:rgb(7,193,201)" 
d="M 51.1 39.3
Q 50.9,39.6,50.7,39.9
Q 50.8,39.9,50.9,40.0
Q 51.4,40.3,52.0,40.7
Q 51.6,40.0,51.1,39.3
 " /> 
<path  
style="fill:rgb(7,193,201)" 
d="M 51.1 39.3
Q 49.8,38.4,48.9,38.0
Q 48.4,37.8,48.0,37.5
Q 48.4,38.0,48.9,38.4
Q 49.7,39.3,50.7,39.9
Q 50.9,39.6,51.1,39.3
 " /> 
<path  
style="fill:rgb(14,103,171)" 
d="M 48.0 37.5
Q 47.7,37.3,47.4,37.0
Q 46.7,36.5,44.9,36.7
Q 44.1,37.2,43.3,37.8
Q 41.8,38.9,39.7,40.3
Q 37.6,41.7,34.4,44.7
Q 31.1,47.8,27.1,50.9
Q 26.9,50.9,26.7,50.9
Q 31.4,64.3,35.6,69.5
Q 36.4,70.7,37.3,71.8
Q 37.1,70.7,36.9,69.5
Q 36.1,65.6,35.3,59.8
Q 35.1,57.9,35.8,58.1
Q 36.6,58.2,36.7,59.3
Q 36.9,60.4,37.6,64.0
Q 39.1,72.3,37.3,72.2
Q 38.3,73.1,39.3,74.0
Q 42.1,76.5,48.9,77.7
Q 45.3,71.5,43.1,65.3
Q 38.5,52.3,38.8,51.9
Q 39.6,51.1,41.5,56.5
Q 42.8,60.0,43.8,62.2
Q 44.8,64.5,45.9,67.8
Q 49.1,77.2,52.5,77.4
Q 56.6,77.7,59.7,73.9
Q 62.2,70.8,62.2,66.9
Q 62.2,64.3,56.4,58.4
Q 53.0,55.0,49.2,49.8
Q 47.0,46.9,48.1,46.9
Q 48.7,46.9,51.8,50.8
Q 55.0,54.7,62.3,62.2
Q 59.3,54.4,58.3,52.4
Q 57.8,51.4,57.3,50.4
Q 56.3,49.7,55.2,48.9
Q 55.1,48.9,55.1,48.9
Q 52.9,47.3,52.6,46.6
Q 52.2,45.5,56.0,47.8
Q 55.4,46.8,54.9,45.8
Q 53.8,43.8,52.9,42.2
Q 52.4,41.4,52.0,40.7
Q 51.4,40.3,50.9,40.0
Q 50.8,39.9,50.7,39.9
Q 49.7,39.3,48.9,38.4
Q 48.4,38.0,48.0,37.5
 " /> 
<path  
style="fill:rgb(7,193,201)" 
d="M 57.6 73.4
Q 58.2,74.4,58.7,74.4
Q 59.8,74.4,57.3,69.6
Q 53.1,61.1,51.7,61.1
Q 50.8,61.1,52.9,64.9
Q 54.3,67.5,55.7,70.0
Q 57.0,72.4,57.6,73.4
 " /> 
<path  
style="fill:rgb(7,193,201)" 
d="M 44.9 36.7
Q 43.7,37.3,42.5,38.0
Q 36.9,41.1,28.9,49.1
Q 28.0,50.0,27.1,50.9
Q 31.1,47.8,34.4,44.7
Q 37.6,41.7,39.7,40.3
Q 41.8,38.9,43.3,37.8
Q 44.1,37.2,44.9,36.7
 " /> 
<path  
style="fill:rgb(7,193,201)" 
d="M 25.3 41.5
Q 25.3,39.8,25.3,38.0
Q 25.2,38.4,25.1,38.9
Q 24.9,39.8,25.3,41.5
 " /> 
<path  
style="fill:rgb(4,4,4)" 
d="M 25.3 38.0
Q 25.8,37.1,26.2,36.2
Q 28.3,31.9,28.8,23.4
Q 29.2,14.9,27.0,6.5
Q 26.2,3.1,26.0,0.0
Q 25.9,-3.1,25.3,-3.1
Q 24.7,-3.1,24.4,0.2
Q 24.0,3.5,23.3,7.8
Q 22.2,14.9,22.3,15.1
Q 23.4,16.5,24.4,11.7
Q 25.2,7.5,25.6,8.1
Q 25.7,8.2,26.2,11.9
Q 28.2,27.5,24.4,35.6
Q 24.0,36.6,23.7,37.6
Q 24.5,37.8,25.3,38.0
 " /> 
<path  
style="fill:rgb(7,193,201)" 
d="M 35.1 74.0
Q 35.0,74.0,34.9,74.0
Q 34.7,74.1,34.7,80.2
Q 34.8,80.2,34.9,80.2
Q 35.1,80.1,35.1,77.1
Q 35.1,75.5,35.1,74.0
 " /> 
<path  
style="fill:rgb(7,193,201)" 
d="M -26.7 82.0
Q -26.4,82.0,-26.2,82.0
Q -25.3,81.5,-25.1,81.0
Q -25.0,80.5,-24.9,75.0
Q -24.9,68.7,-25.6,68.7
Q -26.2,68.7,-26.2,72.2
Q -26.2,75.8,-26.4,78.9
Q -26.6,80.4,-26.7,82.0
 " /> 
<path  
style="fill:rgb(7,193,201)" 
d="M 37.3 71.8
Q 37.3,72.0,37.3,72.2
Q 39.1,72.3,37.6,64.0
Q 36.9,60.4,36.7,59.3
Q 36.6,58.2,35.8,58.1
Q 35.1,57.9,35.3,59.8
Q 36.1,65.6,36.9,69.5
Q 37.1,70.7,37.3,71.8
 " /> 
<path  
style="fill:rgb(7,193,201)" 
d="M 56.0 47.8
Q 55.6,48.3,55.2,48.9
Q 56.3,49.7,57.3,50.4
Q 57.1,50.1,56.9,49.8
Q 56.5,49.1,56.0,47.8
 " /> 
<path  
style="fill:rgb(7,193,201)" 
d="M 56.0 47.8
Q 52.2,45.5,52.6,46.6
Q 52.9,47.3,55.1,48.9
Q 55.1,48.9,55.2,48.9
Q 55.6,48.3,56.0,47.8
 " /> 
<path  
style="fill:rgb(7,193,201)" 
d="M -33.9 54.4
Q -33.4,55.8,-31.5,51.2
Q -30.5,48.6,-31.0,48.1
Q -31.9,47.2,-33.5,51.8
Q -34.1,53.8,-33.9,54.4
 " /> 
<path  
style="fill:rgb(14,103,171)" 
d="M -66.7 -88.2
Q -66.8,-87.9,-66.9,-87.6
Q -67.1,-86.9,-66.7,-85.6
Q -66.7,-86.9,-66.7,-88.2
 " /> 
<path  
style="fill:rgb(97,247,248)" 
d="M -66.7 -88.2
Q -66.7,-86.9,-66.7,-85.6
Q -66.3,-83.3,-66.0,-81.1
Q -61.4,-50.7,-46.6,-33.6
Q -45.5,-32.4,-44.5,-31.2
Q -43.5,-32.8,-42.4,-34.4
Q -39.4,-38.8,-38.9,-37.4
Q -38.6,-36.9,-43.4,-29.8
Q -56.5,-10.1,-52.7,-3.3
Q -50.6,0.3,-45.5,-9.6
Q -41.1,-17.9,-38.5,-24.5
Q -37.9,-25.8,-35.4,-29.5
Q -32.9,-33.1,-32.4,-33.1
Q -31.0,-33.1,-33.4,-29.7
Q -35.3,-26.9,-34.5,-26.0
Q -34.1,-25.6,-29.8,-22.9
Q -29.5,-23.6,-29.2,-24.4
Q -28.5,-25.8,-27.9,-27.6
Q -27.2,-29.3,-26.6,-29.3
Q -25.1,-29.2,-29.1,-18.7
Q -34.5,-4.5,-31.5,2.1
Q -28.6,8.4,-18.4,-14.0
Q -17.9,-15.2,-16.4,-17.3
Q -12.5,-23.1,-11.5,-22.1
Q -11.0,-21.6,-12.2,-19.9
Q -13.5,-18.3,-15.1,-15.8
Q -8.8,-14.6,-4.0,-14.1
Q -1.5,-13.8,0.9,-13.6
Q 2.2,-13.6,3.6,-13.6
Q 5.7,-13.7,7.8,-13.8
Q 16.1,-14.2,24.0,-16.2
Q 27.8,-17.2,29.7,-17.4
Q 31.6,-17.7,31.4,-18.2
Q 31.2,-18.8,29.8,-21.6
Q 27.5,-26.0,28.6,-26.0
Q 29.3,-26.0,35.8,-13.8
Q 39.6,-6.5,41.4,-6.1
Q 42.7,-5.8,43.1,-11.3
Q 43.1,-12.9,43.1,-14.4
Q 43.0,-15.6,42.9,-16.7
Q 42.7,-18.9,42.0,-20.3
Q 41.4,-21.8,40.5,-24.2
Q 39.6,-26.6,37.7,-29.7
Q 35.9,-32.8,36.3,-33.2
Q 37.4,-34.3,41.4,-26.7
Q 42.9,-23.8,43.1,-23.9
Q 47.0,-26.0,47.6,-28.1
Q 47.7,-28.7,46.2,-32.4
Q 43.9,-38.0,44.9,-38.3
Q 45.6,-38.5,47.1,-34.8
Q 48.5,-31.1,49.6,-28.7
Q 50.8,-26.2,51.9,-23.6
Q 56.7,-12.5,58.2,-20.1
Q 58.4,-21.3,58.7,-22.4
Q 58.7,-23.6,58.7,-24.7
Q 58.7,-24.9,58.7,-25.1
Q 58.7,-26.4,58.7,-27.8
Q 57.3,-34.4,56.7,-36.6
Q 56.2,-38.7,54.7,-41.5
Q 53.3,-44.3,53.8,-44.8
Q 54.8,-45.9,57.3,-40.1
Q 58.6,-37.1,59.8,-38.0
Q 60.3,-38.4,60.9,-38.9
Q 61.3,-39.4,61.8,-40.0
Q 62.7,-41.1,63.6,-41.8
Q 64.0,-42.1,64.4,-42.4
Q 65.4,-43.8,66.4,-45.1
Q 74.9,-56.4,75.1,-66.4
Q 75.1,-67.8,75.1,-69.1
Q 75.6,-69.6,75.6,-71.3
Q 75.2,-71.2,75.1,-71.5
Q 75.1,-71.8,75.1,-74.4
Q 75.0,-76.6,74.9,-78.7
Q 74.2,-92.5,70.4,-107.5
Q 64.5,-131.0,45.2,-141.6
Q 41.3,-143.7,43.3,-144.5
Q 43.9,-144.7,44.8,-144.3
Q 47.8,-142.7,47.4,-145.0
Q 46.4,-153.0,39.6,-159.7
Q 33.1,-166.0,24.9,-166.0
Q 17.6,-166.0,7.5,-153.6
Q 6.4,-152.3,5.3,-150.9
Q 5.0,-150.8,4.7,-150.6
Q 4.1,-150.4,3.1,-150.7
Q 2.9,-150.8,2.7,-150.9
Q 0.2,-150.9,-2.2,-150.9
Q -3.6,-150.9,-4.9,-150.9
Q -5.3,-151.2,-5.8,-151.6
Q -6.7,-152.2,-7.7,-154.1
Q -9.9,-158.1,-12.7,-160.9
Q -20.2,-168.8,-31.5,-168.6
Q -34.3,-168.6,-38.2,-166.4
Q -39.5,-165.5,-40.4,-164.7
Q -43.6,-159.8,-44.2,-158.1
Q -46.3,-152.6,-46.2,-149.8
Q -46.1,-146.4,-47.9,-145.9
Q -48.8,-145.7,-49.9,-144.1
Q -51.1,-142.6,-50.9,-141.9
Q -50.6,-141.2,-52.4,-140.0
Q -54.1,-138.7,-57.0,-133.8
Q -64.2,-121.7,-65.8,-107.3
Q -66.0,-105.1,-66.2,-102.9
Q -66.2,-100.9,-66.7,-100.7
Q -67.1,-93.1,-66.9,-90.7
Q -66.8,-89.4,-66.7,-88.2
 " /> 
<path  
style="fill:rgb(14,103,171)" 
d="M 11.1 -30.0
Q 11.3,-29.9,11.6,-29.8
Q 12.0,-29.5,13.3,-30.0
Q 12.2,-30.0,11.1,-30.0
 " /> 
<path  
style="fill:rgb(4,4,4)" 
d="M 11.1 -30.0
Q 0.3,-28.7,-1.6,-27.4
Q -2.7,-26.6,-2.0,-26.1
Q -1.6,-25.9,2.2,-26.9
Q 12.2,-29.5,18.6,-26.2
Q 22.6,-24.1,21.9,-25.5
Q 20.7,-28.2,14.9,-29.6
Q 14.1,-29.8,13.3,-30.0
Q 12.0,-29.5,11.6,-29.8
Q 11.3,-29.9,11.1,-30.0
 " /> 
<path  
style="fill:rgb(4,4,4)" 
d="M -0.7 -47.4
Q -0.2,-46.1,1.8,-50.0
Q 2.8,-52.0,4.4,-54.4
Q 6.7,-58.0,5.6,-58.0
Q 4.0,-58.0,0.4,-50.9
Q -0.9,-48.1,-0.7,-47.4
 " /> 
<path  
style="fill:rgb(4,4,4)" 
d="M 13.1 -51.0
Q 15.1,-46.9,15.8,-46.9
Q 17.0,-46.9,14.4,-51.9
Q 11.3,-58.3,10.4,-57.4
Q 10.0,-57.1,13.1,-51.0
 " /> 
<path  
style="fill:rgb(7,193,201)" 
d="M 37.3 -56.7
Q 35.8,-56.7,34.2,-56.7
Q 36.0,-56.2,36.7,-56.4
Q 37.0,-56.5,37.3,-56.7
 " /> 
<path  
style="fill:rgb(4,4,4)" 
d="M 37.3 -56.7
Q 38.3,-56.8,39.3,-56.9
Q 46.3,-57.7,54.3,-65.3
Q 61.4,-72.2,63.3,-82.5
Q 66.4,-99.3,55.7,-116.0
Q 51.5,-122.5,46.6,-124.6
Q 45.5,-125.1,44.4,-125.6
Q 44.0,-125.4,43.6,-125.3
Q 42.7,-125.1,41.3,-125.6
Q 40.8,-125.3,40.2,-125.1
Q 39.1,-124.7,36.9,-122.9
Q 36.7,-122.6,36.4,-122.3
Q 36.0,-121.7,35.3,-121.2
Q 35.0,-120.9,34.7,-120.7
Q 33.8,-119.4,32.9,-118.2
Q 27.0,-110.1,19.4,-87.3
Q 13.5,-69.6,13.9,-68.5
Q 14.6,-66.8,16.0,-70.9
Q 16.5,-72.2,17.0,-73.5
Q 24.1,-58.6,32.8,-56.9
Q 33.5,-56.8,34.2,-56.7
Q 35.8,-56.7,37.3,-56.7
 " /> 
<path  
style="fill:rgb(31,181,0)" 
d="M 37.8 -59.3
Q 36.2,-59.3,34.7,-59.3
Q 35.1,-59.2,35.5,-59.1
Q 36.4,-58.8,37.1,-59.1
Q 37.4,-59.2,37.8,-59.3
 " /> 
<path  
style="fill:rgb(115,250,3)" 
d="M 37.8 -59.3
Q 39.3,-59.8,40.9,-60.2
Q 44.0,-61.2,50.2,-65.1
Q 50.8,-65.8,51.3,-66.4
Q 52.5,-67.8,53.8,-68.9
Q 54.4,-69.4,55.1,-70.0
Q 55.7,-70.9,56.2,-71.8
Q 59.8,-77.5,61.8,-89.1
Q 61.7,-89.1,61.5,-89.1
Q 61.3,-89.0,61.3,-94.0
Q 60.6,-94.0,59.9,-94.0
Q 60.2,-85.4,54.7,-76.0
Q 45.2,-59.6,28.9,-68.5
Q 26.0,-70.1,25.3,-70.3
Q 24.5,-70.5,24.2,-72.0
Q 23.7,-74.8,25.6,-77.1
Q 26.1,-77.8,26.7,-78.4
Q 25.9,-78.6,25.2,-78.8
Q 23.8,-79.1,23.7,-80.0
Q 23.6,-80.8,25.0,-80.5
Q 26.0,-80.3,27.0,-80.1
Q 27.3,-80.0,27.7,-80.0
Q 28.9,-79.8,32.4,-81.6
Q 32.9,-82.1,33.3,-82.7
Q 34.2,-83.8,36.4,-85.6
Q 37.8,-87.8,38.7,-88.9
Q 39.1,-89.4,39.6,-90.0
Q 39.2,-90.4,38.8,-90.8
Q 38.6,-90.6,38.3,-90.4
Q 29.9,-82.5,27.7,-85.8
Q 25.9,-88.6,31.6,-99.1
Q 33.5,-102.6,33.6,-103.8
Q 33.7,-104.9,35.1,-107.8
Q 37.8,-113.1,41.5,-114.8
Q 41.7,-114.9,41.9,-115.0
Q 41.3,-113.5,42.6,-113.1
Q 44.6,-112.4,47.5,-106.1
Q 49.8,-101.1,48.8,-98.6
Q 48.5,-97.8,44.3,-95.2
Q 42.9,-94.3,41.2,-92.9
Q 41.5,-92.6,41.8,-92.2
Q 42.4,-92.6,43.0,-93.0
Q 47.3,-95.8,50.2,-90.1
Q 53.3,-84.0,53.7,-88.1
Q 54.5,-96.5,50.9,-104.9
Q 50.6,-105.6,50.2,-106.4
Q 47.6,-111.8,48.4,-111.8
Q 49.8,-111.8,52.4,-105.6
Q 52.8,-105.7,53.1,-105.9
Q 56.6,-107.7,58.9,-100.1
Q 59.8,-97.1,59.9,-94.0
Q 60.6,-94.0,61.3,-94.0
Q 61.1,-95.3,60.9,-96.7
Q 59.4,-105.6,51.1,-118.4
Q 50.8,-118.7,50.5,-118.9
Q 49.8,-119.4,48.9,-120.7
Q 48.3,-121.0,47.8,-121.3
Q 46.7,-122.0,45.8,-122.4
Q 45.3,-122.7,44.9,-122.9
Q 43.1,-122.9,41.3,-122.9
Q 41.1,-122.8,40.9,-122.7
Q 40.4,-122.4,39.8,-122.2
Q 39.4,-122.1,39.1,-122.0
Q 38.7,-121.4,38.2,-120.9
Q 37.3,-119.8,36.2,-118.9
Q 35.7,-118.4,35.1,-118.0
Q 30.2,-109.6,28.0,-104.8
Q 22.2,-92.0,19.5,-80.8
Q 17.9,-74.6,24.5,-65.7
Q 28.0,-61.1,34.7,-59.3
Q 36.2,-59.3,37.8,-59.3
 " /> 
<path  
style="fill:rgb(31,181,0)" 
d="M 39.1 -122.0
Q 38.6,-121.6,38.0,-121.1
Q 36.9,-120.2,36.0,-119.1
Q 35.6,-118.6,35.1,-118.0
Q 35.7,-118.4,36.2,-118.9
Q 37.3,-119.8,38.2,-120.9
Q 38.7,-121.4,39.1,-122.0
 " /> 
<path  
style="fill:rgb(31,181,0)" 
d="M 41.3 -122.9
Q 43.1,-122.9,44.9,-122.9
Q 43.1,-123.4,41.3,-122.9
 " /> 
<path  
style="fill:rgb(31,181,0)" 
d="M 48.9 -120.7
Q 49.8,-119.4,50.5,-118.9
Q 50.8,-118.7,51.1,-118.4
Q 50.9,-118.8,50.6,-119.1
Q 50.2,-119.8,48.9,-120.7
 " /> 
<path  
style="fill:rgb(31,181,0)" 
d="M 61.3 -94.0
Q 61.3,-89.0,61.5,-89.1
Q 61.7,-89.1,61.8,-89.1
Q 61.8,-90.4,61.8,-91.6
Q 61.8,-94.2,61.3,-94.0
 " /> 
<path  
style="fill:rgb(31,181,0)" 
d="M 55.1 -70.0
Q 54.4,-69.4,53.8,-68.9
Q 52.5,-67.8,51.3,-66.4
Q 50.8,-65.8,50.2,-65.1
Q 50.9,-65.7,51.5,-66.2
Q 52.9,-67.3,54.0,-68.7
Q 54.5,-69.3,55.1,-70.0
 " /> 
<path  
style="fill:rgb(115,250,3)" 
d="M 41.3 -88.7
Q 42.1,-88.9,42.9,-89.1
Q 45.7,-89.9,49.1,-85.6
Q 49.4,-85.1,49.7,-84.8
Q 50.2,-85.2,50.7,-85.6
Q 50.1,-86.4,49.5,-87.3
Q 45.8,-93.1,42.7,-90.0
Q 42.0,-89.3,41.3,-88.7
 " /> 
<path  
style="fill:rgb(31,181,0)" 
d="M 41.3 -88.7
Q 36.9,-83.3,35.0,-81.5
Q 31.2,-77.8,28.0,-78.2
Q 27.3,-78.3,26.7,-78.4
Q 26.1,-77.8,25.6,-77.1
Q 23.7,-74.8,24.2,-72.0
Q 24.5,-70.5,25.3,-70.3
Q 26.0,-70.1,28.9,-68.5
Q 45.2,-59.6,54.7,-76.0
Q 60.2,-85.4,59.9,-94.0
Q 59.8,-97.1,58.9,-100.1
Q 56.6,-107.7,53.1,-105.9
Q 52.8,-105.7,52.4,-105.6
Q 55.6,-99.2,55.7,-91.3
Q 55.8,-81.4,50.7,-85.6
Q 51.8,-84.2,52.9,-82.9
Q 52.4,-82.9,51.9,-83.0
Q 51.2,-83.1,49.7,-84.8
Q 49.4,-85.1,49.1,-85.6
Q 45.7,-89.9,42.9,-89.1
Q 42.1,-88.9,41.3,-88.7
 " /> 
<path  
style="fill:rgb(4,4,4)" 
d="M 41.3 -88.7
Q 42.0,-89.3,42.7,-90.0
Q 45.8,-93.1,49.5,-87.3
Q 50.1,-86.4,50.7,-85.6
Q 55.8,-81.4,55.7,-91.3
Q 55.6,-99.2,52.4,-105.6
Q 51.7,-105.2,50.9,-104.9
Q 54.5,-96.5,53.7,-88.1
Q 53.3,-84.0,50.2,-90.1
Q 47.3,-95.8,43.0,-93.0
Q 42.4,-92.6,41.8,-92.2
Q 41.5,-91.9,41.3,-91.6
Q 40.8,-90.9,40.2,-90.5
Q 39.9,-90.2,39.6,-90.0
Q 39.1,-89.4,38.7,-88.9
Q 37.8,-87.8,36.4,-85.6
Q 36.0,-85.0,35.5,-84.5
Q 34.6,-83.4,32.4,-81.6
Q 28.9,-79.8,27.7,-80.0
Q 27.3,-80.0,27.0,-80.1
Q 26.8,-79.3,26.7,-78.4
Q 27.3,-78.3,28.0,-78.2
Q 31.2,-77.8,35.0,-81.5
Q 36.9,-83.3,41.3,-88.7
 " /> 
<path  
style="fill:rgb(4,4,4)" 
d="M 26.7 -78.4
Q 26.8,-79.3,27.0,-80.1
Q 26.0,-80.3,25.0,-80.5
Q 23.6,-80.8,23.7,-80.0
Q 23.8,-79.1,25.2,-78.8
Q 25.9,-78.6,26.7,-78.4
 " /> 
<path  
style="fill:rgb(115,250,3)" 
d="M 50.7 -85.6
Q 50.2,-85.2,49.7,-84.8
Q 51.2,-83.1,51.9,-83.0
Q 52.4,-82.9,52.9,-82.9
Q 51.8,-84.2,50.7,-85.6
 " /> 
<path  
style="fill:rgb(4,4,4)" 
d="M 52.4 -105.6
Q 49.8,-111.8,48.4,-111.8
Q 47.6,-111.8,50.2,-106.4
Q 50.6,-105.6,50.9,-104.9
Q 51.7,-105.2,52.4,-105.6
 " /> 
<path  
style="fill:rgb(31,181,0)" 
d="M 32.4 -81.6
Q 34.6,-83.4,35.5,-84.5
Q 36.0,-85.0,36.4,-85.6
Q 34.2,-83.8,33.3,-82.7
Q 32.9,-82.1,32.4,-81.6
 " /> 
<path  
style="fill:rgb(115,250,3)" 
d="M 39.6 -90.0
Q 39.8,-90.3,40.0,-90.7
Q 40.5,-91.3,41.8,-92.2
Q 41.5,-92.6,41.2,-92.9
Q 39.9,-91.9,38.5,-90.6
Q 39.2,-90.4,39.6,-90.0
 " /> 
<path  
style="fill:rgb(31,181,0)" 
d="M 39.6 -90.0
Q 39.9,-90.2,40.2,-90.5
Q 40.8,-90.9,41.3,-91.6
Q 41.5,-91.9,41.8,-92.2
Q 40.5,-91.3,40.0,-90.7
Q 39.8,-90.3,39.6,-90.0
 " /> 
<path  
style="fill:rgb(209,251,185)" 
d="M 27.7 -85.8
Q 29.9,-82.5,38.3,-90.4
Q 38.6,-90.6,38.8,-90.8
Q 40.2,-92.1,41.4,-93.1
Q 42.9,-94.3,44.3,-95.2
Q 48.5,-97.8,48.8,-98.6
Q 49.8,-101.1,47.5,-106.1
Q 44.6,-112.4,42.6,-113.1
Q 41.3,-113.5,41.9,-115.0
Q 41.7,-114.9,41.5,-114.8
Q 37.8,-113.1,35.1,-107.8
Q 33.7,-104.9,33.6,-103.8
Q 33.5,-102.6,31.6,-99.1
Q 25.9,-88.6,27.7,-85.8
 " /> 
<path  
style="fill:rgb(14,103,171)" 
d="M 36.9 -122.9
Q 36.6,-122.7,36.2,-122.4
Q 35.6,-122.0,35.1,-121.3
Q 34.9,-121.0,34.7,-120.7
Q 35.0,-120.9,35.3,-121.2
Q 36.0,-121.7,36.4,-122.3
Q 36.7,-122.6,36.9,-122.9
 " /> 
<path  
style="fill:rgb(14,103,171)" 
d="M 41.3 -125.6
Q 42.7,-125.1,43.6,-125.3
Q 44.0,-125.4,44.4,-125.6
Q 42.9,-125.6,41.3,-125.6
 " /> 
<path  
style="fill:rgb(4,4,4)" 
d="M -38.7 -69.1
Q -38.1,-68.7,-37.6,-68.2
Q -36.5,-67.3,-35.1,-65.6
Q -28.9,-60.6,-24.0,-59.1
Q -22.9,-58.8,-21.8,-58.4
Q -20.4,-58.9,-19.6,-58.4
Q -18.4,-58.6,-17.3,-58.7
Q -8.1,-59.6,-2.7,-70.7
Q -2.1,-72.0,-1.5,-73.2
Q -1.1,-71.4,-0.7,-69.6
Q 0.4,-64.5,1.2,-66.3
Q 1.8,-67.5,-2.7,-87.6
Q -7.8,-110.3,-17.8,-123.3
Q -18.2,-123.7,-18.6,-124.0
Q -19.5,-124.7,-20.0,-125.3
Q -20.2,-125.7,-20.4,-126.0
Q -28.6,-133.1,-36.5,-131.2
Q -42.0,-129.8,-46.6,-121.1
Q -49.4,-115.9,-49.9,-106.4
Q -50.1,-103.8,-50.2,-101.1
Q -50.1,-100.8,-50.0,-100.4
Q -49.7,-99.8,-50.2,-98.9
Q -50.1,-97.4,-50.0,-96.0
Q -49.0,-82.6,-40.9,-72.0
Q -39.8,-70.6,-38.7,-69.1
 " /> 
<path  
style="fill:rgb(31,181,0)" 
d="M -17.8 -61.1
Q -19.6,-61.1,-21.3,-61.1
Q -20.9,-61.0,-20.4,-60.9
Q -19.6,-60.6,-17.8,-61.1
 " /> 
<path  
style="fill:rgb(115,250,3)" 
d="M -17.8 -61.1
Q -16.8,-61.3,-15.8,-61.6
Q -12.1,-62.4,-7.9,-67.3
Q -2.9,-73.1,-3.0,-78.0
Q -3.1,-84.8,-8.0,-99.0
Q -17.9,-128.3,-32.3,-129.4
Q -39.9,-130.1,-44.9,-119.5
Q -46.7,-115.8,-47.6,-110.4
Q -47.6,-108.4,-47.8,-108.3
Q -47.9,-108.3,-48.0,-108.2
Q -48.0,-106.7,-48.0,-105.1
Q -48.0,-104.5,-48.0,-103.9
Q -48.0,-102.7,-48.0,-102.6
Q -48.0,-102.5,-48.0,-102.4
Q -47.9,-100.1,-47.8,-97.8
Q -47.4,-90.8,-43.6,-80.7
Q -43.3,-80.4,-43.1,-80.2
Q -42.7,-79.8,-42.4,-79.1
Q -42.3,-78.8,-42.2,-78.4
Q -41.8,-77.7,-41.4,-76.9
Q -40.5,-75.3,-38.2,-71.8
Q -37.8,-71.4,-37.3,-71.1
Q -36.5,-70.4,-35.1,-68.7
Q -35.1,-68.1,-34.7,-68.2
Q -34.3,-68.0,-34.0,-67.8
Q -33.4,-67.3,-32.4,-66.0
Q -31.6,-65.4,-30.7,-64.9
Q -25.6,-61.7,-22.9,-61.3
Q -22.1,-61.2,-21.3,-61.1
Q -19.6,-61.1,-17.8,-61.1
 " /> 
<path  
style="fill:rgb(4,4,4)" 
d="M -41.3 -108.7
Q -40.1,-88.6,-36.0,-84.2
Q -32.9,-80.8,-30.1,-83.8
Q -28.0,-86.0,-25.9,-86.9
Q -26.2,-87.5,-26.4,-88.1
Q -26.6,-88.1,-26.5,-88.3
Q -26.3,-88.9,-25.3,-89.4
Q -23.7,-90.2,-22.0,-88.6
Q -21.8,-88.3,-21.6,-88.1
Q -22.1,-88.3,-22.7,-88.4
Q -23.9,-88.6,-25.3,-88.2
Q -26.1,-88.0,-26.4,-88.1
Q -26.2,-87.5,-25.9,-86.9
Q -21.4,-88.9,-17.1,-84.2
Q -13.0,-79.8,-8.0,-79.8
Q -7.1,-79.8,-7.1,-80.4
Q -7.1,-81.1,-8.8,-81.4
Q -12.4,-82.0,-17.8,-87.6
Q -20.6,-90.6,-21.7,-91.2
Q -25.3,-93.6,-28.7,-88.7
Q -29.5,-87.6,-30.2,-86.4
Q -30.7,-85.9,-31.1,-85.4
Q -32.1,-84.3,-32.7,-84.5
Q -33.0,-84.6,-33.3,-84.7
Q -34.0,-85.3,-34.7,-86.0
Q -36.0,-87.3,-36.6,-89.7
Q -42.5,-111.2,-36.4,-119.0
Q -35.8,-119.7,-36.1,-120.1
Q -37.1,-121.1,-39.2,-117.0
Q -40.5,-114.5,-40.9,-111.6
Q -41.1,-110.1,-41.3,-108.7
 " /> 
<path  
style="fill:rgb(31,181,0)" 
d="M -41.3 -108.7
Q -46.5,-108.7,-42.6,-91.6
Q -38.1,-71.9,-27.8,-67.3
Q -18.6,-63.2,-9.9,-72.3
Q -6.6,-75.7,-8.0,-79.8
Q -13.0,-79.8,-17.1,-84.2
Q -21.4,-88.9,-25.9,-86.9
Q -28.0,-86.0,-30.1,-83.8
Q -32.9,-80.8,-36.0,-84.2
Q -40.1,-88.6,-41.3,-108.7
 " /> 
<path  
style="fill:rgb(31,181,0)" 
d="M -33.3 -84.7
Q -33.0,-84.6,-32.7,-84.5
Q -32.1,-84.3,-31.1,-85.4
Q -30.7,-85.9,-30.2,-86.4
Q -30.7,-86.1,-31.1,-85.8
Q -32.0,-85.1,-33.3,-84.7
 " /> 
<path  
style="fill:rgb(255,255,255)" 
d="M -26.5 -88.3
Q -26.5,-88.2,-26.4,-88.1
Q -26.1,-88.0,-25.3,-88.2
Q -23.9,-88.6,-22.7,-88.4
Q -22.1,-88.3,-21.6,-88.1
Q -21.8,-88.3,-22.0,-88.6
Q -23.7,-90.2,-25.3,-89.4
Q -26.3,-88.9,-26.5,-88.3
 " /> 
<path  
style="fill:rgb(209,251,185)" 
d="M -13.4 -89.1
Q -9.3,-86.4,-9.9,-88.6
Q -10.1,-89.3,-12.0,-93.6
Q -22.7,-117.8,-28.9,-112.0
Q -32.5,-108.6,-32.5,-104.6
Q -32.6,-97.2,-24.9,-95.1
Q -19.6,-93.6,-17.1,-91.7
Q -15.4,-90.3,-13.4,-89.1
 " /> 
<path  
style="fill:rgb(31,181,0)" 
d="M -34.7 -68.2
Q -34.4,-67.9,-34.2,-67.6
Q -33.8,-66.9,-33.1,-66.5
Q -32.8,-66.2,-32.4,-66.0
Q -33.4,-67.3,-34.0,-67.8
Q -34.3,-68.0,-34.7,-68.2
 " /> 
<path  
style="fill:rgb(31,181,0)" 
d="M -35.1 -68.7
Q -36.5,-70.4,-37.3,-71.1
Q -37.8,-71.4,-38.2,-71.8
Q -36.9,-70.0,-35.1,-68.7
 " /> 
<path  
style="fill:rgb(31,181,0)" 
d="M -42.2 -78.4
Q -42.3,-78.8,-42.4,-79.1
Q -42.7,-79.8,-43.1,-80.2
Q -43.3,-80.4,-43.6,-80.7
Q -43.1,-78.9,-42.7,-78.7
Q -42.5,-78.6,-42.2,-78.4
 " /> 
<path  
style="fill:rgb(31,181,0)" 
d="M -48.0 -102.4
Q -48.0,-102.5,-48.0,-102.6
Q -48.0,-102.7,-48.0,-103.9
Q -48.0,-104.5,-48.0,-105.1
Q -48.1,-104.8,-48.2,-104.4
Q -48.5,-103.8,-48.2,-103.1
Q -48.1,-102.8,-48.0,-102.4
 " /> 
<path  
style="fill:rgb(31,181,0)" 
d="M -48.0 -108.2
Q -47.9,-108.3,-47.8,-108.3
Q -47.6,-108.4,-47.6,-110.4
Q -47.6,-110.4,-47.7,-110.4
Q -47.9,-110.3,-48.0,-109.3
Q -48.0,-108.7,-48.0,-108.2
 " /> 
<path  
style="fill:rgb(14,103,171)" 
d="M -38.7 -69.1
Q -36.9,-66.9,-35.1,-65.6
Q -36.5,-67.3,-37.6,-68.2
Q -38.1,-68.7,-38.7,-69.1
 " /> 
<path  
style="fill:rgb(14,103,171)" 
d="M -50.2 -98.9
Q -49.7,-99.8,-50.0,-100.4
Q -50.1,-100.8,-50.2,-101.1
Q -50.2,-100.0,-50.2,-98.9
 " /> 
<path  
style="fill:rgb(14,103,171)" 
d="M -20.4 -126.0
Q -20.2,-125.7,-20.0,-125.3
Q -19.5,-124.7,-18.6,-124.0
Q -18.2,-123.7,-17.8,-123.3
Q -18.1,-123.8,-18.5,-124.2
Q -19.1,-125.1,-20.4,-126.0
 " /> 
<path  
style="fill:rgb(14,103,171)" 
d="M -19.6 -58.4
Q -20.4,-58.9,-21.8,-58.4
Q -20.7,-58.4,-19.6,-58.4
 " /> 
<path  
style="fill:rgb(7,193,201)" 
d="M -66.7 -100.7
Q -66.2,-100.9,-66.2,-102.9
Q -66.6,-102.7,-66.7,-100.7
 " /> 
<path  
style="fill:rgb(14,103,171)" 
d="M -40.4 -164.7
Q -39.5,-165.5,-38.2,-166.4
Q -39.2,-166.3,-40.4,-164.7
 " /> 
<path  
style="fill:rgb(4,4,4)" 
d="M -4.9 -150.9
Q -3.5,-151.4,-2.9,-151.1
Q -2.5,-151.0,-2.2,-150.9
Q 0.2,-150.9,2.7,-150.9
Q 2.7,-151.5,2.6,-152.2
Q 2.1,-152.2,1.5,-152.2
Q -0.6,-152.2,-0.5,-152.4
Q -0.5,-152.5,-0.4,-152.7
Q -1.4,-152.7,-2.4,-152.7
Q -4.4,-152.7,-6.0,-155.3
Q -7.6,-158.0,-9.6,-160.0
Q -10.6,-161.0,-11.6,-162.0
Q -12.1,-161.5,-12.7,-160.9
Q -9.9,-158.1,-7.7,-154.1
Q -6.7,-152.2,-5.8,-151.6
Q -5.3,-151.2,-4.9,-150.9
 " /> 
<path  
style="fill:rgb(7,193,201)" 
d="M -4.9 -150.9
Q -3.6,-150.9,-2.2,-150.9
Q -2.5,-151.0,-2.9,-151.1
Q -3.5,-151.4,-4.9,-150.9
 " /> 
<path  
style="fill:rgb(4,4,4)" 
d="M 2.7 -150.9
Q 3.1,-151.6,3.6,-152.2
Q 3.1,-152.2,2.6,-152.2
Q 2.7,-151.5,2.7,-150.9
 " /> 
<path  
style="fill:rgb(4,4,4)" 
d="M 2.7 -150.9
Q 2.9,-150.9,3.2,-150.9
Q 3.4,-151.6,3.6,-152.2
Q 3.1,-151.6,2.7,-150.9
 " /> 
<path  
style="fill:rgb(7,193,201)" 
d="M 5.3 -150.9
Q 4.4,-150.9,3.6,-150.9
Q 3.2,-150.9,2.8,-150.9
Q 3.1,-150.8,3.1,-150.7
Q 4.1,-150.4,4.7,-150.6
Q 5.0,-150.8,5.3,-150.9
 " /> 
<path  
style="fill:rgb(7,193,201)" 
d="M 75.1 -74.4
Q 75.1,-71.8,75.1,-71.5
Q 75.2,-71.2,75.6,-71.3
Q 75.6,-74.0,75.5,-74.3
Q 75.4,-74.6,75.1,-74.4
 " /> 
<path  
style="fill:rgb(14,103,171)" 
d="M 75.1 -69.1
Q 75.1,-67.8,75.1,-66.4
Q 75.6,-67.8,75.1,-69.1
 " /> 
<path  
style="fill:rgb(7,193,201)" 
d="M 64.4 -42.4
Q 64.0,-42.1,63.6,-41.8
Q 62.7,-41.1,61.8,-40.0
Q 61.3,-39.4,60.9,-38.9
Q 61.4,-39.3,62.0,-39.8
Q 63.1,-40.7,64.4,-42.4
 " /> 
<path  
style="fill:rgb(14,103,171)" 
d="M 58.7 -27.8
Q 58.7,-26.4,58.7,-25.1
Q 58.8,-25.4,58.9,-25.8
Q 59.1,-26.4,58.7,-27.8
 " /> 
<path  
style="fill:rgb(14,103,171)" 
d="M 58.7 -24.7
Q 58.7,-23.6,58.7,-22.4
Q 59.2,-23.8,58.9,-24.2
Q 58.8,-24.4,58.7,-24.7
 " /> 
<path  
style="fill:rgb(7,193,201)" 
d="M 43.1 -14.4
Q 43.1,-12.9,43.1,-11.3
Q 43.2,-11.8,43.3,-12.2
Q 43.6,-13.1,43.1,-14.4
 " /> 
<path  
style="fill:rgb(14,103,171)" 
d="M 3.6 -13.6
Q 2.2,-13.6,0.9,-13.6
Q 1.2,-13.4,1.5,-13.3
Q 2.2,-13.1,2.9,-13.3
Q 3.2,-13.4,3.6,-13.6
 " /> 
<path  
style="fill:rgb(4,4,4)" 
d="M -73.8 -44.2
Q -73.1,-43.9,-72.4,-43.5
Q -71.1,-42.9,-70.4,-42.4
Q -70.1,-42.2,-69.8,-42.0
Q -58.9,-37.8,-53.9,-36.9
Q -53.2,-36.8,-52.5,-36.7
Q -53.4,-38.1,-54.4,-39.4
Q -56.3,-42.1,-57.9,-45.6
Q -58.8,-47.4,-59.6,-49.1
Q -60.2,-49.2,-60.8,-49.4
Q -61.2,-49.5,-61.6,-49.6
Q -70.4,-51.5,-81.0,-59.6
Q -91.9,-67.9,-92.2,-70.0
Q -92.5,-71.6,-89.4,-68.4
Q -85.1,-63.8,-75.9,-57.6
Q -68.5,-52.6,-60.4,-50.9
Q -61.1,-52.9,-61.8,-54.9
Q -65.9,-67.3,-68.0,-78.4
Q -69.6,-79.3,-71.1,-80.2
Q -80.8,-85.8,-86.3,-96.7
Q -88.9,-102.0,-88.1,-102.0
Q -87.6,-102.0,-85.5,-97.9
Q -79.4,-86.2,-68.4,-80.2
Q -68.4,-80.9,-68.4,-81.6
Q -68.6,-81.5,-68.7,-81.5
Q -68.8,-81.4,-68.9,-81.7
Q -68.9,-82.0,-68.9,-84.2
Q -68.9,-85.1,-68.9,-86.0
Q -69.4,-85.9,-69.4,-87.7
Q -69.3,-88.6,-69.3,-89.6
Q -69.3,-92.4,-69.3,-95.3
Q -78.8,-104.8,-81.6,-115.8
Q -82.3,-118.5,-81.8,-119.0
Q -81.4,-119.5,-81.1,-118.2
Q -79.8,-112.3,-77.4,-108.3
Q -76.1,-106.2,-74.2,-103.0
Q -72.3,-99.8,-70.6,-98.0
Q -69.7,-97.1,-68.9,-96.2
Q -68.9,-102.3,-67.1,-111.3
Q -72.0,-114.8,-74.7,-121.8
Q -77.2,-128.2,-76.1,-128.2
Q -75.6,-128.2,-74.7,-125.0
Q -72.3,-117.1,-68.8,-113.8
Q -67.9,-113.0,-67.1,-112.2
Q -66.4,-118.7,-63.6,-125.1
Q -64.2,-126.3,-64.9,-127.6
Q -66.2,-130.0,-66.5,-134.4
Q -66.8,-138.9,-66.3,-138.9
Q -65.9,-138.9,-65.6,-134.4
Q -65.4,-130.0,-63.1,-126.4
Q -60.0,-132.7,-58.2,-135.3
Q -56.5,-137.9,-57.3,-138.1
Q -61.1,-139.1,-59.6,-152.2
Q -59.3,-154.2,-59.1,-156.2
Q -59.1,-158.2,-58.7,-158.4
Q -58.7,-160.2,-58.7,-162.0
Q -58.7,-162.5,-58.7,-163.0
Q -58.7,-164.0,-58.2,-164.2
Q -58.2,-165.3,-58.2,-166.4
Q -58.7,-166.3,-58.7,-167.7
Q -58.7,-167.7,-58.7,-167.7
Q -58.7,-168.4,-58.7,-169.1
Q -58.9,-169.7,-59.1,-170.2
Q -60.9,-174.6,-65.9,-160.4
Q -67.0,-157.3,-67.5,-154.7
Q -68.0,-152.0,-68.7,-149.3
Q -69.3,-146.7,-70.0,-143.3
Q -72.0,-134.0,-73.2,-135.4
Q -73.7,-136.0,-73.9,-144.5
Q -74.0,-153.0,-74.5,-153.6
Q -76.0,-155.1,-78.2,-140.9
Q -79.6,-132.2,-81.5,-136.8
Q -82.8,-139.9,-83.3,-149.6
Q -84.4,-169.5,-88.3,-172.1
Q -92.4,-174.8,-93.8,-155.8
Q -93.4,-155.9,-93.3,-155.7
Q -93.3,-155.4,-93.3,-153.1
Q -93.3,-151.8,-93.3,-150.4
Q -92.9,-150.6,-92.9,-150.3
Q -92.8,-150.1,-92.8,-148.8
Q -92.9,-147.8,-92.9,-146.9
Q -92.4,-144.6,-92.0,-142.2
Q -91.1,-137.6,-89.8,-132.6
Q -87.6,-124.5,-88.7,-122.4
Q -89.6,-120.6,-90.8,-121.5
Q -94.3,-124.3,-97.1,-138.6
Q -98.7,-146.7,-100.3,-146.5
Q -102.3,-146.4,-104.4,-137.2
Q -104.6,-136.1,-104.9,-134.9
Q -104.9,-132.9,-105.1,-132.8
Q -105.2,-132.7,-105.3,-132.7
Q -105.3,-131.6,-105.3,-130.4
Q -105.3,-129.9,-105.3,-129.4
Q -105.3,-128.4,-105.6,-128.3
Q -105.7,-128.3,-105.8,-128.2
Q -105.8,-122.9,-105.4,-121.0
Q -104.9,-119.1,-104.7,-116.9
Q -103.7,-109.1,-99.0,-98.9
Q -97.7,-96.0,-96.2,-92.7
Q -94.6,-89.4,-92.6,-85.6
Q -89.5,-79.8,-89.5,-78.6
Q -89.7,-75.2,-96.9,-80.1
Q -108.3,-87.7,-109.4,-86.5
Q -111.8,-84.1,-99.1,-63.8
Q -98.8,-63.6,-98.5,-63.3
Q -97.8,-62.9,-96.9,-61.6
Q -87.0,-51.7,-73.8,-44.2
 " /> 
<path  
style="fill:rgb(14,103,171)" 
d="M -73.8 -44.2
Q -72.4,-42.9,-69.8,-42.0
Q -70.1,-42.2,-70.4,-42.4
Q -71.1,-42.9,-72.4,-43.5
Q -73.1,-43.9,-73.8,-44.2
 " /> 
<path  
style="fill:rgb(14,103,171)" 
d="M -96.9 -61.6
Q -97.8,-62.9,-98.5,-63.3
Q -98.8,-63.6,-99.1,-63.8
Q -98.9,-63.4,-98.6,-63.1
Q -98.2,-62.5,-97.5,-62.0
Q -97.2,-61.8,-96.9,-61.6
 " /> 
<path  
style="fill:rgb(4,4,4)" 
d="M -99.1 -63.8
Q -111.8,-84.1,-109.4,-86.5
Q -108.3,-87.7,-96.9,-80.1
Q -89.7,-75.2,-89.5,-78.6
Q -89.5,-79.8,-92.6,-85.6
Q -94.6,-89.4,-96.2,-92.7
Q -97.7,-96.0,-99.0,-98.9
Q -103.7,-109.1,-104.7,-116.9
Q -104.9,-119.1,-105.4,-121.0
Q -105.8,-122.9,-105.8,-128.2
Q -105.8,-128.7,-105.7,-129.3
Q -105.7,-130.3,-105.5,-130.4
Q -105.4,-130.4,-105.3,-130.4
Q -105.3,-131.6,-105.3,-132.7
Q -105.3,-133.2,-105.3,-133.7
Q -105.3,-134.7,-104.9,-134.9
Q -104.6,-136.1,-104.4,-137.2
Q -102.3,-146.4,-100.3,-146.5
Q -98.7,-146.7,-97.1,-138.6
Q -94.3,-124.3,-90.8,-121.5
Q -89.6,-120.6,-88.7,-122.4
Q -87.6,-124.5,-89.8,-132.6
Q -91.1,-137.6,-92.0,-142.2
Q -92.4,-144.6,-92.9,-146.9
Q -93.2,-146.7,-93.3,-147.0
Q -93.3,-147.2,-93.3,-150.4
Q -93.3,-151.8,-93.3,-153.1
Q -93.7,-152.9,-93.7,-153.2
Q -93.8,-153.4,-93.8,-155.8
Q -92.4,-174.8,-88.3,-172.1
Q -84.4,-169.5,-83.3,-149.6
Q -82.8,-139.9,-81.5,-136.8
Q -79.6,-132.2,-78.2,-140.9
Q -76.0,-155.1,-74.5,-153.6
Q -74.0,-153.0,-73.9,-144.5
Q -73.7,-136.0,-73.2,-135.4
Q -72.0,-134.0,-70.0,-143.3
Q -69.3,-146.7,-68.7,-149.3
Q -68.0,-152.0,-67.5,-154.7
Q -67.0,-157.3,-65.9,-160.4
Q -60.9,-174.6,-59.1,-170.2
Q -58.9,-169.7,-58.7,-169.1
Q -58.3,-169.3,-58.3,-169.0
Q -58.2,-168.8,-58.2,-166.4
Q -57.4,-166.5,-56.6,-166.5
Q -56.8,-171.1,-57.9,-172.4
Q -59.5,-174.6,-61.8,-172.5
Q -64.7,-169.9,-65.7,-167.1
Q -66.1,-165.8,-67.0,-163.8
Q -68.8,-159.7,-70.7,-149.6
Q -71.2,-147.1,-71.8,-144.6
Q -71.9,-146.8,-71.9,-149.1
Q -72.1,-159.6,-75.8,-156.2
Q -78.8,-153.4,-79.9,-143.2
Q -80.1,-140.7,-80.5,-140.7
Q -81.2,-140.7,-81.4,-150.2
Q -81.6,-161.5,-84.5,-169.7
Q -87.4,-177.8,-91.6,-173.5
Q -95.6,-169.4,-95.6,-158.9
Q -95.6,-145.4,-91.8,-132.0
Q -90.6,-128.0,-90.2,-124.0
Q -90.6,-124.5,-91.0,-125.1
Q -91.9,-126.2,-94.7,-137.8
Q -97.5,-149.8,-100.6,-148.9
Q -105.4,-147.6,-107.3,-133.1
Q -109.0,-120.6,-104.4,-106.0
Q -100.0,-92.2,-93.1,-81.3
Q -92.7,-80.7,-92.3,-80.1
Q -95.3,-82.1,-97.1,-83.1
Q -98.9,-84.1,-103.0,-86.4
Q -116.1,-93.9,-110.0,-79.1
Q -106.3,-70.2,-100.4,-62.7
Q -99.8,-63.3,-99.1,-63.8
 " /> 
<path  
style="fill:rgb(14,103,171)" 
d="M -105.8 -128.2
Q -105.7,-128.3,-105.6,-128.3
Q -105.3,-128.4,-105.3,-129.4
Q -105.3,-129.9,-105.3,-130.4
Q -105.4,-130.4,-105.5,-130.4
Q -105.7,-130.3,-105.7,-129.3
Q -105.8,-128.7,-105.8,-128.2
 " /> 
<path  
style="fill:rgb(14,103,171)" 
d="M -105.3 -132.7
Q -105.2,-132.7,-105.1,-132.8
Q -104.9,-132.9,-104.9,-134.9
Q -105.3,-134.7,-105.3,-133.7
Q -105.3,-133.2,-105.3,-132.7
 " /> 
<path  
style="fill:rgb(14,103,171)" 
d="M -92.9 -146.9
Q -92.9,-147.8,-92.8,-148.8
Q -92.8,-150.1,-92.9,-150.3
Q -92.9,-150.6,-93.3,-150.4
Q -93.3,-147.2,-93.3,-147.0
Q -93.2,-146.7,-92.9,-146.9
 " /> 
<path  
style="fill:rgb(14,103,171)" 
d="M -93.3 -153.1
Q -93.3,-155.4,-93.3,-155.7
Q -93.4,-155.9,-93.8,-155.8
Q -93.8,-153.4,-93.7,-153.2
Q -93.7,-152.9,-93.3,-153.1
 " /> 
<path  
style="fill:rgb(14,103,171)" 
d="M -58.7 -169.1
Q -58.7,-168.4,-58.7,-167.7
Q -58.5,-167.1,-58.2,-166.4
Q -58.2,-168.8,-58.3,-169.0
Q -58.3,-169.3,-58.7,-169.1
 " /> 
<path  
style="fill:rgb(14,103,171)" 
d="M -58.2 -166.4
Q -58.5,-167.1,-58.7,-167.7
Q -58.7,-167.7,-58.7,-167.7
Q -58.7,-166.3,-58.2,-166.4
 " /> 
<path  
style="fill:rgb(14,103,171)" 
d="M -58.2 -164.2
Q -58.7,-164.0,-58.7,-163.0
Q -58.7,-162.5,-58.7,-162.0
Q -58.6,-162.0,-58.5,-162.1
Q -58.3,-162.2,-58.2,-164.2
 " /> 
<path  
style="fill:rgb(14,103,171)" 
d="M -58.7 -158.4
Q -59.1,-158.2,-59.1,-156.2
Q -59.0,-156.3,-58.9,-156.3
Q -58.7,-156.4,-58.7,-157.4
Q -58.7,-157.9,-58.7,-158.4
 " /> 
<path  
style="fill:rgb(97,247,248)" 
d="M -63.1 -126.4
Q -63.3,-125.8,-63.6,-125.1
Q -63.4,-125.3,-63.3,-125.4
Q -63.1,-125.7,-63.1,-126.4
 " /> 
<path  
style="fill:rgb(97,247,248)" 
d="M -63.1 -126.4
Q -65.4,-130.0,-65.6,-134.4
Q -65.9,-138.9,-66.3,-138.9
Q -66.8,-138.9,-66.5,-134.4
Q -66.2,-130.0,-64.9,-127.6
Q -64.2,-126.3,-63.6,-125.1
Q -63.3,-125.8,-63.1,-126.4
 " /> 
<path  
style="fill:rgb(97,247,248)" 
d="M -67.1 -112.2
Q -67.9,-113.0,-68.8,-113.8
Q -72.3,-117.1,-74.7,-125.0
Q -75.6,-128.2,-76.1,-128.2
Q -77.2,-128.2,-74.7,-121.8
Q -72.0,-114.8,-67.1,-111.3
Q -67.1,-111.8,-67.1,-112.2
 " /> 
<path  
style="fill:rgb(97,247,248)" 
d="M -68.9 -96.2
Q -69.1,-95.8,-69.3,-95.3
Q -69.2,-95.4,-69.1,-95.4
Q -68.9,-95.5,-68.9,-95.9
Q -68.9,-96.0,-68.9,-96.2
 " /> 
<path  
style="fill:rgb(97,247,248)" 
d="M -68.9 -96.2
Q -69.7,-97.1,-70.6,-98.0
Q -72.3,-99.8,-74.2,-103.0
Q -76.1,-106.2,-77.4,-108.3
Q -79.8,-112.3,-81.1,-118.2
Q -81.4,-119.5,-81.8,-119.0
Q -82.3,-118.5,-81.6,-115.8
Q -78.8,-104.8,-69.3,-95.3
Q -69.1,-95.8,-68.9,-96.2
 " /> 
<path  
style="fill:rgb(14,103,171)" 
d="M -69.3 -89.6
Q -69.3,-88.6,-69.4,-87.7
Q -69.4,-85.9,-68.9,-86.0
Q -68.9,-89.8,-69.1,-89.7
Q -69.2,-89.6,-69.3,-89.6
 " /> 
<path  
style="fill:rgb(14,103,171)" 
d="M -68.9 -84.2
Q -68.9,-82.0,-68.9,-81.7
Q -68.8,-81.4,-68.7,-81.5
Q -68.6,-81.5,-68.4,-81.6
Q -68.4,-83.9,-68.5,-84.1
Q -68.6,-84.4,-68.9,-84.2
 " /> 
<path  
style="fill:rgb(97,247,248)" 
d="M -68.4 -80.2
Q -79.4,-86.2,-85.5,-97.9
Q -87.6,-102.0,-88.1,-102.0
Q -88.9,-102.0,-86.3,-96.7
Q -80.8,-85.8,-71.1,-80.2
Q -69.6,-79.3,-68.0,-78.4
Q -68.1,-78.7,-68.2,-78.9
Q -68.4,-79.3,-68.4,-79.8
Q -68.4,-80.0,-68.4,-80.2
 " /> 
<path  
style="fill:rgb(97,247,248)" 
d="M -60.4 -50.9
Q -60.6,-50.1,-60.8,-49.4
Q -60.2,-49.2,-59.6,-49.1
Q -59.6,-49.3,-59.6,-49.6
Q -59.6,-50.0,-60.4,-50.9
 " /> 
<path  
style="fill:rgb(97,247,248)" 
d="M -60.4 -50.9
Q -68.5,-52.6,-75.9,-57.6
Q -85.1,-63.8,-89.4,-68.4
Q -92.5,-71.6,-92.2,-70.0
Q -91.9,-67.9,-81.0,-59.6
Q -70.4,-51.5,-61.6,-49.6
Q -61.2,-49.5,-60.8,-49.4
Q -60.6,-50.1,-60.4,-50.9
 " /> 
<path  
style="fill:rgb(4,4,4)" 
d="M 72.0 -48.7
Q 71.9,-48.3,71.8,-48.0
Q 71.5,-47.3,70.2,-46.4
Q 69.7,-45.6,69.1,-44.7
Q 68.0,-42.9,66.5,-41.0
Q 70.4,-41.6,72.0,-42.0
Q 98.1,-48.5,107.5,-68.4
Q 110.8,-75.4,108.2,-74.7
Q 107.6,-74.6,107.1,-74.4
Q 104.4,-71.3,101.3,-68.7
Q 100.7,-68.6,100.0,-68.4
Q 97.3,-68.0,98.6,-72.9
Q 101.5,-83.1,106.7,-90.2
Q 115.6,-102.4,118.3,-114.4
Q 119.6,-120.4,118.5,-122.1
Q 117.3,-123.9,110.7,-114.9
Q 106.3,-108.9,105.4,-108.9
Q 103.4,-108.7,105.9,-116.6
Q 111.1,-132.3,111.8,-136.7
Q 112.1,-138.7,112.4,-140.7
Q 112.4,-143.6,112.7,-143.7
Q 112.8,-143.7,112.9,-143.8
Q 112.9,-157.9,110.7,-160.7
Q 109.8,-161.8,109.3,-161.6
Q 108.7,-161.4,106.2,-158.9
Q 106.1,-158.6,105.9,-158.2
Q 105.7,-157.6,105.3,-157.1
Q 105.1,-156.9,104.9,-156.7
Q 98.8,-138.3,97.3,-136.3
Q 95.0,-133.0,91.2,-143.3
Q 84.4,-162.0,78.5,-165.6
Q 76.1,-167.0,75.4,-163.9
Q 75.2,-163.4,75.1,-162.9
Q 75.1,-161.6,75.1,-160.2
Q 75.1,-158.9,75.1,-157.6
Q 75.2,-157.6,75.4,-157.6
Q 75.5,-157.7,75.5,-157.4
Q 75.6,-157.1,75.6,-154.0
Q 75.6,-146.0,73.3,-145.3
Q 71.1,-144.6,64.8,-150.2
Q 65.4,-148.0,66.1,-146.7
Q 66.7,-145.3,66.6,-143.4
Q 66.1,-138.0,58.5,-144.7
Q 56.9,-146.1,56.7,-145.9
Q 56.5,-145.7,56.9,-144.2
Q 57.8,-141.0,55.0,-139.7
Q 54.2,-139.3,54.2,-139.0
Q 54.1,-138.7,57.8,-135.3
Q 58.4,-134.8,59.1,-134.2
Q 60.4,-133.1,61.3,-132.0
Q 61.8,-131.4,62.2,-130.9
Q 62.8,-130.2,63.3,-129.6
Q 69.0,-122.8,72.7,-108.2
Q 73.0,-106.9,73.3,-105.6
Q 73.9,-106.3,74.4,-107.1
Q 84.0,-120.5,82.3,-139.8
Q 81.8,-145.3,82.0,-145.5
Q 83.1,-146.6,83.4,-138.0
Q 84.3,-116.0,75.4,-107.2
Q 74.4,-106.1,73.3,-105.1
Q 73.8,-102.9,74.2,-100.7
Q 75.1,-96.2,75.6,-92.2
Q 75.8,-90.2,76.0,-88.2
Q 77.3,-89.6,78.7,-90.9
Q 83.5,-95.8,90.2,-105.3
Q 101.1,-120.9,104.1,-131.1
Q 105.1,-134.4,105.7,-134.4
Q 106.4,-134.4,104.7,-129.3
Q 100.5,-116.8,85.9,-97.4
Q 80.0,-89.6,76.0,-87.3
Q 76.1,-87.2,76.3,-87.1
Q 76.5,-86.9,76.5,-85.6
Q 76.5,-84.9,76.4,-84.2
Q 76.6,-84.3,76.7,-84.3
Q 76.9,-84.3,76.9,-83.2
Q 76.9,-83.2,76.9,-83.2
Q 76.9,-82.6,76.9,-82.0
Q 76.9,-81.3,76.9,-80.7
Q 77.0,-80.7,77.1,-80.7
Q 77.4,-80.8,77.3,-79.6
Q 77.3,-79.6,77.3,-79.6
Q 77.3,-79.0,77.3,-78.4
Q 77.3,-77.6,77.4,-76.7
Q 77.4,-74.9,77.3,-73.1
Q 88.9,-78.9,91.7,-84.6
Q 93.5,-88.1,98.1,-93.8
Q 99.9,-96.1,100.6,-97.1
Q 101.3,-98.2,101.5,-97.9
Q 102.3,-97.2,96.7,-90.2
Q 94.6,-87.6,92.8,-84.3
Q 89.4,-78.2,81.6,-74.2
Q 79.7,-73.2,77.8,-72.2
Q 77.8,-69.7,77.3,-69.6
Q 77.3,-61.1,75.5,-56.7
Q 75.1,-55.6,74.7,-54.4
Q 81.3,-56.4,85.7,-59.4
Q 90.3,-62.5,91.9,-63.9
Q 92.9,-64.8,93.2,-64.5
Q 93.5,-64.2,91.7,-62.5
Q 85.2,-56.3,74.2,-53.1
Q 74.0,-52.7,73.8,-52.2
Q 73.4,-51.3,72.7,-50.0
Q 72.3,-49.3,72.0,-48.7
 " /> 
<path  
style="fill:rgb(97,247,248)" 
d="M 69.3 -124.0
Q 69.9,-123.4,70.6,-126.4
Q 71.1,-128.4,70.9,-131.7
Q 70.7,-134.9,70.4,-134.9
Q 70.2,-134.9,70.2,-131.9
Q 70.2,-128.9,69.6,-126.6
Q 69.0,-124.2,69.3,-124.0
 " /> 
<path  
style="fill:rgb(97,247,248)" 
d="M 61.8 -135.5
Q 61.8,-133.6,62.2,-133.6
Q 62.5,-133.6,62.8,-135.6
Q 63.2,-138.4,62.3,-137.8
Q 61.8,-137.5,61.8,-135.5
 " /> 
<path  
style="fill:rgb(14,103,171)" 
d="M 72.0 -48.7
Q 71.8,-48.4,71.6,-48.2
Q 71.1,-47.8,70.7,-47.1
Q 70.4,-46.8,70.2,-46.4
Q 71.5,-47.3,71.8,-48.0
Q 71.9,-48.3,72.0,-48.7
 " /> 
<path  
style="fill:rgb(97,247,248)" 
d="M 74.2 -53.1
Q 74.4,-53.8,74.7,-54.4
Q 74.6,-54.3,74.4,-54.2
Q 74.2,-54.0,74.2,-53.1
 " /> 
<path  
style="fill:rgb(97,247,248)" 
d="M 74.2 -53.1
Q 85.2,-56.3,91.7,-62.5
Q 93.5,-64.2,93.2,-64.5
Q 92.9,-64.8,91.9,-63.9
Q 90.3,-62.5,85.7,-59.4
Q 81.3,-56.4,74.7,-54.4
Q 74.4,-53.8,74.2,-53.1
 " /> 
<path  
style="fill:rgb(14,103,171)" 
d="M 77.3 -69.6
Q 77.8,-69.7,77.8,-72.2
Q 77.6,-72.2,77.3,-72.2
Q 77.3,-70.9,77.3,-69.6
 " /> 
<path  
style="fill:rgb(97,247,248)" 
d="M 77.8 -72.2
Q 77.6,-72.7,77.3,-73.1
Q 77.3,-72.7,77.3,-72.2
Q 77.6,-72.2,77.8,-72.2
 " /> 
<path  
style="fill:rgb(97,247,248)" 
d="M 77.8 -72.2
Q 79.7,-73.2,81.6,-74.2
Q 89.4,-78.2,92.8,-84.3
Q 94.6,-87.6,96.7,-90.2
Q 102.3,-97.2,101.5,-97.9
Q 101.3,-98.2,100.6,-97.1
Q 99.9,-96.1,98.1,-93.8
Q 93.5,-88.1,91.7,-84.6
Q 88.9,-78.9,77.3,-73.1
Q 77.6,-72.7,77.8,-72.2
 " /> 
<path  
style="fill:rgb(14,103,171)" 
d="M 77.3 -78.4
Q 77.3,-79.0,77.3,-79.6
Q 77.1,-80.1,76.9,-80.7
Q 76.9,-78.3,77.1,-78.4
Q 77.2,-78.4,77.3,-78.4
 " /> 
<path  
style="fill:rgb(14,103,171)" 
d="M 76.9 -80.7
Q 77.1,-80.1,77.3,-79.6
Q 77.3,-79.6,77.3,-79.6
Q 77.4,-80.8,77.1,-80.7
Q 77.0,-80.7,76.9,-80.7
 " /> 
<path  
style="fill:rgb(14,103,171)" 
d="M 76.9 -82.0
Q 76.9,-82.6,76.9,-83.2
Q 76.7,-83.7,76.4,-84.2
Q 76.4,-81.9,76.7,-81.9
Q 76.8,-82.0,76.9,-82.0
 " /> 
<path  
style="fill:rgb(14,103,171)" 
d="M 76.4 -84.2
Q 76.7,-83.7,76.9,-83.2
Q 76.9,-83.2,76.9,-83.2
Q 76.9,-84.3,76.7,-84.3
Q 76.6,-84.3,76.4,-84.2
 " /> 
<path  
style="fill:rgb(97,247,248)" 
d="M 76.0 -87.3
Q 80.0,-89.6,85.9,-97.4
Q 100.5,-116.8,104.7,-129.3
Q 106.4,-134.4,105.7,-134.4
Q 105.1,-134.4,104.1,-131.1
Q 101.1,-120.9,90.2,-105.3
Q 83.5,-95.8,78.7,-90.9
Q 77.3,-89.6,76.0,-88.2
Q 76.0,-87.8,76.0,-87.3
 " /> 
<path  
style="fill:rgb(97,247,248)" 
d="M 73.3 -105.1
Q 74.4,-106.1,75.4,-107.2
Q 84.3,-116.0,83.4,-138.0
Q 83.1,-146.6,82.0,-145.5
Q 81.8,-145.3,82.3,-139.8
Q 84.0,-120.5,74.4,-107.1
Q 73.9,-106.3,73.3,-105.6
Q 73.3,-105.3,73.3,-105.1
 " /> 
<path  
style="fill:rgb(14,103,171)" 
d="M 62.2 -130.9
Q 61.8,-131.4,61.3,-132.0
Q 60.4,-133.1,59.1,-134.2
Q 58.4,-134.8,57.8,-135.3
Q 58.3,-134.7,58.9,-134.0
Q 60.0,-132.7,62.2,-130.9
 " /> 
<path  
style="fill:rgb(14,103,171)" 
d="M 75.6 -154.0
Q 75.6,-157.1,75.5,-157.4
Q 75.5,-157.7,75.4,-157.6
Q 75.2,-157.6,75.1,-157.6
Q 75.1,-154.4,75.2,-154.1
Q 75.2,-153.9,75.6,-154.0
 " /> 
<path  
style="fill:rgb(14,103,171)" 
d="M 75.1 -160.2
Q 75.1,-161.6,75.1,-162.9
Q 74.6,-161.6,74.9,-160.9
Q 75.0,-160.6,75.1,-160.2
 " /> 
<path  
style="fill:rgb(14,103,171)" 
d="M 104.9 -156.7
Q 105.1,-156.9,105.3,-157.1
Q 105.7,-157.6,105.9,-158.2
Q 106.1,-158.6,106.2,-158.9
Q 106.0,-158.8,105.8,-158.6
Q 105.4,-158.4,105.1,-157.5
Q 105.0,-157.1,104.9,-156.7
 " /> 
<path  
style="fill:rgb(14,103,171)" 
d="M 112.9 -143.8
Q 112.8,-143.7,112.7,-143.7
Q 112.4,-143.6,112.4,-140.7
Q 112.5,-140.7,112.6,-140.7
Q 112.8,-140.8,112.9,-142.3
Q 112.9,-143.0,112.9,-143.8
 " /> 
<path  
style="fill:rgb(14,103,171)" 
d="M 101.3 -68.7
Q 104.4,-71.3,107.1,-74.4
Q 106.3,-73.8,105.6,-73.1
Q 104.0,-71.8,102.7,-70.2
Q 102.0,-69.4,101.3,-68.7
 " /> 
<path  
style="fill:rgb(7,193,201)" 
d="M -0.4 -152.7
Q 0.6,-152.7,1.6,-152.7
Q 3.7,-152.7,3.6,-152.5
Q 3.6,-152.4,3.6,-152.2
Q 4.1,-152.7,4.7,-153.1
Q 5.8,-154.0,7.5,-156.6
Q 10.2,-160.6,16.3,-165.4
Q 20.8,-169.0,24.4,-186.5
Q 24.9,-188.7,25.3,-190.9
Q 25.3,-192.9,25.8,-193.1
Q 25.6,-194.4,25.3,-195.8
Q 21.4,-190.7,18.0,-179.6
Q 16.0,-173.1,15.3,-175.1
Q 15.0,-175.9,17.5,-183.8
Q 18.8,-188.1,14.8,-190.6
Q 11.5,-192.5,10.9,-189.8
Q 10.1,-185.9,9.5,-183.8
Q 9.4,-183.1,8.9,-180.8
Q 8.4,-178.4,7.4,-178.6
Q 6.5,-178.8,7.8,-184.9
Q 8.9,-189.7,8.2,-190.1
Q 6.1,-191.3,8.4,-192.0
Q 9.8,-192.4,10.2,-199.8
Q 10.2,-201.8,10.7,-202.0
Q 10.7,-208.1,9.9,-207.5
Q 9.4,-207.2,7.8,-198.2
Q 6.7,-192.0,6.4,-189.9
Q 6.2,-187.7,5.4,-187.9
Q 4.6,-188.1,5.1,-193.3
Q 5.7,-199.2,2.7,-205.1
Q 1.4,-206.0,0.4,-207.3
Q 0.1,-207.4,-0.2,-207.6
Q -0.9,-207.8,-0.7,-206.0
Q -0.4,-204.2,0.0,-200.2
Q 0.1,-200.3,0.3,-200.3
Q 0.4,-200.3,0.4,-200.1
Q 0.5,-199.8,0.4,-198.0
Q 0.6,-196.9,0.7,-195.8
Q 0.9,-193.6,0.9,-192.3
Q 0.9,-191.8,1.0,-191.0
Q 1.1,-190.2,1.3,-189.2
Q 1.3,-189.2,1.3,-189.0
Q 1.7,-186.9,1.3,-186.4
Q 1.1,-186.2,0.9,-186.0
Q -0.6,-186.4,-0.4,-189.1
Q -0.4,-190.0,-0.4,-190.9
Q -1.0,-190.7,-0.9,-192.1
Q -0.9,-192.1,-0.9,-192.1
Q -0.9,-192.8,-0.9,-193.6
Q -1.1,-195.3,-1.3,-197.1
Q -3.9,-217.8,-7.8,-224.1
Q -9.7,-227.1,-10.4,-220.5
Q -10.5,-219.4,-10.7,-218.4
Q -10.1,-218.6,-10.2,-217.2
Q -10.2,-217.2,-10.2,-217.2
Q -10.2,-216.5,-10.2,-215.8
Q -9.8,-210.4,-9.6,-208.4
Q -9.3,-206.4,-7.6,-194.9
Q -7.0,-195.1,-7.1,-193.9
Q -7.1,-193.9,-7.1,-193.9
Q -7.1,-193.3,-7.1,-192.7
Q -7.1,-192.2,-7.1,-191.8
Q -6.6,-191.9,-6.6,-190.7
Q -6.6,-190.7,-6.6,-190.7
Q -6.6,-190.2,-6.7,-189.6
Q -6.2,-188.2,-6.6,-187.7
Q -7.1,-187.1,-7.7,-188.0
Q -7.9,-188.2,-8.1,-189.2
Q -8.6,-191.2,-9.5,-196.4
Q -9.8,-198.2,-10.7,-203.8
Q -11.0,-203.7,-11.1,-203.9
Q -11.2,-204.2,-11.1,-206.0
Q -11.6,-206.9,-12.4,-205.7
Q -14.9,-202.4,-11.3,-192.2
Q -10.1,-188.9,-10.2,-187.9
Q -10.3,-184.8,-12.7,-190.9
Q -13.4,-192.9,-15.9,-198.5
Q -19.1,-205.7,-19.3,-205.5
Q -19.8,-205.1,-17.1,-196.0
Q -15.9,-192.0,-15.1,-189.1
Q -14.3,-186.2,-12.6,-181.0
Q -10.0,-172.7,-12.3,-175.0
Q -13.0,-175.7,-13.3,-177.2
Q -13.7,-178.7,-15.3,-183.6
Q -17.0,-188.4,-17.7,-191.0
Q -18.4,-193.6,-19.1,-193.3
Q -23.8,-191.5,-21.9,-187.5
Q -19.7,-183.0,-13.8,-175.3
Q -10.5,-170.9,-12.4,-170.9
Q -13.2,-170.9,-20.4,-181.3
Q -22.8,-184.8,-25.1,-188.2
Q -27.4,-191.6,-28.6,-194.0
Q -29.7,-196.5,-31.3,-198.4
Q -32.1,-199.3,-32.9,-200.2
Q -33.3,-200.1,-33.3,-199.0
Q -33.3,-198.5,-33.3,-198.0
Q -33.1,-196.6,-32.9,-195.1
Q -32.4,-192.2,-31.8,-189.4
Q -27.6,-171.5,-22.0,-169.3
Q -19.5,-168.3,-14.7,-165.1
Q -12.9,-163.8,-11.6,-162.0
Q -10.6,-161.0,-9.6,-160.0
Q -7.6,-158.0,-6.0,-155.3
Q -4.4,-152.7,-2.4,-152.7
Q -1.4,-152.7,-0.4,-152.7
 " /> 
<path  
style="fill:rgb(14,103,171)" 
d="M -0.4 -152.7
Q -0.5,-152.5,-0.5,-152.4
Q -0.6,-152.2,1.5,-152.2
Q 2.1,-152.2,2.6,-152.2
Q 3.1,-152.2,3.6,-152.2
Q 3.6,-152.4,3.6,-152.5
Q 3.7,-152.7,1.6,-152.7
Q 0.6,-152.7,-0.4,-152.7
 " /> 
<path  
style="fill:rgb(4,4,4)" 
d="M 3.6 -152.2
Q 3.4,-151.6,3.2,-150.9
Q 3.5,-150.9,3.9,-150.9
Q 3.6,-151.6,3.6,-152.2
 " /> 
<path  
style="fill:rgb(14,103,171)" 
d="M -11.6 -162.0
Q -12.9,-163.8,-14.7,-165.1
Q -13.3,-163.4,-11.6,-162.0
 " /> 
<path  
style="fill:rgb(14,103,171)" 
d="M -33.3 -198.0
Q -33.3,-198.5,-33.3,-199.0
Q -33.3,-200.1,-32.9,-200.2
Q -33.1,-200.3,-33.3,-200.3
Q -33.6,-200.4,-33.3,-198.0
 " /> 
<path  
style="fill:rgb(14,103,171)" 
d="M -11.1 -206.0
Q -11.2,-204.2,-11.1,-203.9
Q -11.0,-203.7,-10.7,-203.8
Q -10.7,-205.7,-10.7,-205.9
Q -10.8,-206.2,-11.1,-206.0
 " /> 
<path  
style="fill:rgb(14,103,171)" 
d="M -6.7 -189.6
Q -6.6,-190.2,-6.6,-190.7
Q -6.9,-191.3,-7.1,-191.8
Q -7.1,-189.8,-7.0,-189.5
Q -6.8,-189.5,-6.7,-189.6
 " /> 
<path  
style="fill:rgb(4,4,4)" 
d="M -6.7 -189.6
Q -6.8,-189.5,-6.9,-189.4
Q -6.9,-189.4,-7.0,-189.5
Q -7.5,-189.3,-8.1,-189.2
Q -7.9,-188.2,-7.7,-188.0
Q -7.1,-187.1,-6.6,-187.7
Q -6.2,-188.2,-6.7,-189.6
 " /> 
<path  
style="fill:rgb(4,4,4)" 
d="M -7.1 -191.8
Q -7.1,-192.2,-7.1,-192.7
Q -7.4,-192.5,-7.5,-192.7
Q -7.6,-193.0,-7.6,-194.9
Q -8.4,-194.7,-9.2,-194.6
Q -8.4,-190.0,-8.0,-188.6
Q -7.5,-189.3,-7.0,-189.5
Q -7.1,-189.8,-7.1,-191.8
 " /> 
<path  
style="fill:rgb(14,103,171)" 
d="M -7.1 -191.8
Q -6.9,-191.3,-6.6,-190.7
Q -6.6,-190.7,-6.6,-190.7
Q -6.6,-191.9,-7.1,-191.8
 " /> 
<path  
style="fill:rgb(14,103,171)" 
d="M -7.1 -192.7
Q -7.1,-193.3,-7.1,-193.9
Q -7.3,-194.4,-7.6,-194.9
Q -7.6,-193.0,-7.5,-192.7
Q -7.4,-192.5,-7.1,-192.7
 " /> 
<path  
style="fill:rgb(14,103,171)" 
d="M -7.6 -194.9
Q -7.3,-194.4,-7.1,-193.9
Q -7.1,-193.9,-7.1,-193.9
Q -7.0,-195.1,-7.6,-194.9
 " /> 
<path  
style="fill:rgb(14,103,171)" 
d="M -10.2 -215.8
Q -10.2,-216.5,-10.2,-217.2
Q -10.4,-217.8,-10.7,-218.4
Q -10.7,-216.1,-10.6,-215.8
Q -10.6,-215.6,-10.2,-215.8
 " /> 
<path  
style="fill:rgb(14,103,171)" 
d="M -10.7 -218.4
Q -10.4,-217.8,-10.2,-217.2
Q -10.2,-217.2,-10.2,-217.2
Q -10.1,-218.6,-10.7,-218.4
 " /> 
<path  
style="fill:rgb(14,103,171)" 
d="M -0.9 -193.6
Q -0.9,-192.8,-0.9,-192.1
Q -0.7,-191.5,-0.4,-190.9
Q -0.4,-191.6,-0.4,-192.3
Q -0.4,-193.8,-0.9,-193.6
 " /> 
<path  
style="fill:rgb(4,4,4)" 
d="M -0.4 -190.9
Q -0.4,-190.0,-0.4,-189.1
Q 0.4,-189.3,1.2,-189.4
Q 1.1,-190.4,1.0,-191.2
Q 0.3,-191.0,-0.4,-190.9
 " /> 
<path  
style="fill:rgb(14,103,171)" 
d="M -0.4 -190.9
Q -0.7,-191.5,-0.9,-192.1
Q -0.9,-192.1,-0.9,-192.1
Q -1.0,-190.7,-0.4,-190.9
 " /> 
<path  
style="fill:rgb(4,4,4)" 
d="M -0.4 -189.1
Q -0.4,-188.7,-0.3,-188.2
Q -0.1,-187.3,0.4,-186.6
Q 0.6,-186.3,0.9,-186.0
Q 1.1,-186.2,1.3,-186.4
Q 1.7,-186.9,1.3,-189.0
Q 1.3,-189.2,1.2,-189.4
Q 0.4,-189.3,-0.4,-189.1
 " /> 
<path  
style="fill:rgb(14,103,171)" 
d="M -0.4 -189.1
Q -0.6,-186.4,0.9,-186.0
Q 0.6,-186.3,0.4,-186.6
Q -0.1,-187.3,-0.3,-188.2
Q -0.4,-188.7,-0.4,-189.1
 " /> 
<path  
style="fill:rgb(14,103,171)" 
d="M 0.4 -198.0
Q 0.5,-199.8,0.4,-200.1
Q 0.4,-200.3,0.3,-200.3
Q 0.1,-200.3,0.0,-200.2
Q 0.0,-198.3,0.1,-198.1
Q 0.1,-197.8,0.4,-198.0
 " /> 
<path  
style="fill:rgb(4,4,4)" 
d="M 0.4 -207.3
Q 1.8,-206.4,2.7,-205.1
Q 3.3,-205.6,3.9,-206.1
Q 2.6,-207.7,1.0,-208.9
Q 0.9,-208.0,0.4,-207.3
 " /> 
<path  
style="fill:rgb(14,103,171)" 
d="M 0.4 -207.3
Q 1.4,-206.0,2.7,-205.1
Q 1.8,-206.4,0.4,-207.3
 " /> 
<path  
style="fill:rgb(14,103,171)" 
d="M 10.7 -202.0
Q 10.2,-201.8,10.2,-199.8
Q 10.6,-199.9,10.7,-202.0
 " /> 
<path  
style="fill:rgb(14,103,171)" 
d="M 25.8 -193.1
Q 25.3,-192.9,25.3,-190.9
Q 25.4,-190.9,25.5,-191.0
Q 25.7,-191.0,25.7,-192.1
Q 25.8,-192.6,25.8,-193.1
 " /> 
</g> 
</svg> 
