<?xml version="1.0" standalone="no"?><!DOCTYPE svg PUBLIC "-//W3C//DTD SVG 1.1//EN" "http://www.w3.org/Graphics/SVG/1.1/DTD/svg11.dtd"><svg t="1769496468116" class="icon" viewBox="0 0 1024 1024" version="1.1" xmlns="http://www.w3.org/2000/svg" p-id="3618" xmlns:xlink="http://www.w3.org/1999/xlink" width="200" height="200"><path d="M168.8 117.6h93.6c15.2 0 27.2-12 27.2-27.2s-12-27.2-27.2-27.2H168C110.4 64 64 110.4 64 168v95.2c0 15.2 12 26.4 27.2 26.4s27.2-12 27.2-27.2V168c-0.8-27.2 22.4-50.4 50.4-50.4zM856 117.6H762.4c-15.2 0-27.2-12-27.2-27.2s12-27.2 27.2-27.2L856 64c57.6 0 104 46.4 104 104v95.2c0 15.2-12 26.4-27.2 26.4s-27.2-12-27.2-27.2V168c0.8-27.2-21.6-50.4-49.6-50.4zM168.8 906.4h93.6c15.2 0 27.2 12 27.2 27.2s-12 27.2-27.2 27.2H168c-57.6 0-104-46.4-104-104V761.6c0-15.2 12-26.4 27.2-26.4s27.2 12 27.2 27.2v94.4c-0.8 26.4 22.4 49.6 50.4 49.6zM856 906.4H761.6c-15.2 0-27.2 12-27.2 27.2s12 27.2 27.2 27.2H856c57.6 0 104-46.4 104-104V761.6c0-15.2-12-26.4-27.2-26.4s-27.2 12-27.2 27.2v94.4c0.8 26.4-21.6 49.6-49.6 49.6z" fill="#8a8a8a" p-id="3619"></path><path d="M723.2 228H244c-48 0-87.2 39.2-87.2 87.2s39.2 87.2 87.2 87.2h152v343.2c0 48 39.2 87.2 87.2 87.2s87.2-39.2 87.2-87.2V402.4h152c48 0 87.2-39.2 87.2-87.2 0.8-48-38.4-87.2-86.4-87.2z" fill="#8a8a8a" p-id="3620"></path><path d="M843.2 576H652c-19.2 0-34.4 15.2-34.4 34.4s15.2 34.4 34.4 34.4h60.8v136.8c0 19.2 15.2 34.4 34.4 34.4s34.4-15.2 34.4-34.4v-136h60.8c19.2 0 34.4-15.2 34.4-34.4 0.8-20-14.4-35.2-33.6-35.2z" fill="#8a8a8a" p-id="3621"></path></svg>