<svg id="UI" xmlns="http://www.w3.org/2000/svg" width="44" height="44" viewBox="0 0 44 44">
  <title>SpaltButtonPickee_t3</title>
  <rect width="44" height="44" fill="none"/>
  <rect x="18" y="17" width="8" height="10" rx="1" ry="1" fill="#0288d1"/>
  <path d="M3486,239.5a2.5,2.5,0,0,1,2.5,2.5v8a2.5,2.5,0,0,1-5,0v-8a2.5,2.5,0,0,1,2.5-2.5m0-1.5a4,4,0,0,0-4,4v8a4,4,0,0,0,8,0v-8a4,4,0,0,0-4-4h0Z" transform="translate(-3464 -224)" fill="#0288d1"/>
  <line x1="28.83" y1="15.12" x2="30.48" y2="13.46" fill="none" stroke="#0288d1" stroke-linecap="round" stroke-miterlimit="10" stroke-width="1.5"/>
  <line x1="15.17" y1="15.12" x2="13.51" y2="13.46" fill="none" stroke="#0288d1" stroke-linecap="round" stroke-miterlimit="10" stroke-width="1.5"/>
  <line x1="15.17" y1="28.78" x2="13.51" y2="30.43" fill="none" stroke="#0288d1" stroke-linecap="round" stroke-miterlimit="10" stroke-width="1.5"/>
  <line x1="28.83" y1="28.78" x2="30.48" y2="30.43" fill="none" stroke="#0288d1" stroke-linecap="round" stroke-miterlimit="10" stroke-width="1.5"/>
  <line x1="21.96" y1="12.31" x2="21.96" y2="9.96" fill="none" stroke="#0288d1" stroke-linecap="round" stroke-miterlimit="10" stroke-width="1.5"/>
  <line x1="12.31" y1="22.04" x2="9.96" y2="22.04" fill="none" stroke="#0288d1" stroke-linecap="round" stroke-miterlimit="10" stroke-width="1.5"/>
  <line x1="22.04" y1="31.69" x2="22.04" y2="34.04" fill="none" stroke="#0288d1" stroke-linecap="round" stroke-miterlimit="10" stroke-width="1.5"/>
  <line x1="33.69" y1="21.96" x2="36.04" y2="21.96" fill="none" stroke="#0288d1" stroke-linecap="round" stroke-miterlimit="10" stroke-width="1.5"/>
</svg>
