<svg id="UI" xmlns="http://www.w3.org/2000/svg" width="44" height="44" viewBox="0 0 44 44">
  <title>SpaltButtonPickee_t8</title>
  <rect width="44" height="44" fill="none"/>
  <path d="M3730,239.5a2.5,2.5,0,0,1,2.5,2.5v8a2.5,2.5,0,0,1-2.5,2.5h-8a2.5,2.5,0,0,1-2.5-2.5v-8a2.5,2.5,0,0,1,2.5-2.5h8m0-1.5h-8a4,4,0,0,0-4,4v8a4,4,0,0,0,4,4h8a4,4,0,0,0,4-4v-8a4,4,0,0,0-4-4h0Z" transform="translate(-3704 -224)" fill="#0288d1"/>
  <rect x="17" y="17" width="10" height="10" rx="1" ry="1" fill="#0288d1"/>
  <line x1="22" y1="0.75" x2="22" y2="1.09" fill="none" stroke="#0288d1" stroke-linecap="round" stroke-miterlimit="10" stroke-width="1.5"/>
  <line x1="37.03" y1="6.97" x2="36.78" y2="7.22" fill="none" stroke="#0288d1" stroke-linecap="round" stroke-miterlimit="10" stroke-width="1.5"/>
  <line x1="43.25" y1="22" x2="42.91" y2="22" fill="none" stroke="#0288d1" stroke-linecap="round" stroke-miterlimit="10" stroke-width="1.5"/>
  <line x1="37.03" y1="37.03" x2="36.78" y2="36.78" fill="none" stroke="#0288d1" stroke-linecap="round" stroke-miterlimit="10" stroke-width="1.5"/>
  <line x1="22" y1="43.25" x2="22" y2="42.91" fill="none" stroke="#0288d1" stroke-linecap="round" stroke-miterlimit="10" stroke-width="1.5"/>
  <line x1="6.97" y1="37.03" x2="7.22" y2="36.78" fill="none" stroke="#0288d1" stroke-linecap="round" stroke-miterlimit="10" stroke-width="1.5"/>
  <line x1="0.75" y1="22" x2="1.09" y2="22" fill="none" stroke="#0288d1" stroke-linecap="round" stroke-miterlimit="10" stroke-width="1.5"/>
  <line x1="6.97" y1="6.97" x2="7.22" y2="7.22" fill="none" stroke="#0288d1" stroke-linecap="round" stroke-miterlimit="10" stroke-width="1.5"/>
</svg>
