<svg id="UI" xmlns="http://www.w3.org/2000/svg" width="44" height="44" viewBox="0 0 44 44">
  <title>SpaltButtonPickee_t6</title>
  <rect width="44" height="44" fill="none"/>
  <path d="M3634,239.5a2.5,2.5,0,0,1,2.5,2.5v8a2.5,2.5,0,0,1-2.5,2.5h-8a2.5,2.5,0,0,1-2.5-2.5v-8a2.5,2.5,0,0,1,2.5-2.5h8m0-1.5h-8a4,4,0,0,0-4,4v8a4,4,0,0,0,4,4h8a4,4,0,0,0,4-4v-8a4,4,0,0,0-4-4h0Z" transform="translate(-3608 -224)" fill="#0288d1"/>
  <rect x="17" y="17" width="10" height="10" rx="1" ry="1" fill="#0288d1"/>
  <line x1="33.83" y1="10.17" x2="35.9" y2="8.1" fill="none" stroke="#0288d1" stroke-linecap="round" stroke-miterlimit="10" stroke-width="1.5"/>
  <line x1="10.17" y1="10.17" x2="8.1" y2="8.1" fill="none" stroke="#0288d1" stroke-linecap="round" stroke-miterlimit="10" stroke-width="1.5"/>
  <line x1="10.17" y1="33.83" x2="8.1" y2="35.9" fill="none" stroke="#0288d1" stroke-linecap="round" stroke-miterlimit="10" stroke-width="1.5"/>
  <line x1="33.83" y1="33.83" x2="35.9" y2="35.9" fill="none" stroke="#0288d1" stroke-linecap="round" stroke-miterlimit="10" stroke-width="1.5"/>
  <line x1="22" y1="5.27" x2="22" y2="2.34" fill="none" stroke="#0288d1" stroke-linecap="round" stroke-miterlimit="10" stroke-width="1.5"/>
  <line x1="38.73" y1="22" x2="41.66" y2="22" fill="none" stroke="#0288d1" stroke-linecap="round" stroke-miterlimit="10" stroke-width="1.5"/>
  <line x1="22" y1="38.73" x2="22" y2="41.66" fill="none" stroke="#0288d1" stroke-linecap="round" stroke-miterlimit="10" stroke-width="1.5"/>
  <line x1="5.27" y1="22" x2="2.34" y2="22" fill="none" stroke="#0288d1" stroke-linecap="round" stroke-miterlimit="10" stroke-width="1.5"/>
</svg>
