<svg id="UI" xmlns="http://www.w3.org/2000/svg" width="44" height="44" viewBox="0 0 44 44">
  <title>SpaltButtonPickee_t10_END</title>
  <rect width="44" height="44" fill="none"/>
  <path d="M3826,239.5a2.5,2.5,0,0,1,2.5,2.5v8a2.5,2.5,0,0,1-2.5,2.5h-8a2.5,2.5,0,0,1-2.5-2.5v-8a2.5,2.5,0,0,1,2.5-2.5h8m0-1.5h-8a4,4,0,0,0-4,4v8a4,4,0,0,0,4,4h8a4,4,0,0,0,4-4v-8a4,4,0,0,0-4-4h0Z" transform="translate(-3800 -224)" fill="#0288d1"/>
  <rect x="17" y="17" width="10" height="10" rx="1" ry="1" fill="#0288d1"/>
</svg>
