<?xml version="1.0" encoding="utf-8" standalone="no"?>
<!DOCTYPE svg PUBLIC "-//W3C//DTD SVG 1.1//EN"
  "http://www.w3.org/Graphics/SVG/1.1/DTD/svg11.dtd">
<svg xmlns:xlink="http://www.w3.org/1999/xlink" width="1000.8pt" height="712.8pt" viewBox="0 0 1000.8 712.8" xmlns="http://www.w3.org/2000/svg" version="1.1">
 <metadata>
  <rdf:RDF xmlns:dc="http://purl.org/dc/elements/1.1/" xmlns:cc="http://creativecommons.org/ns#" xmlns:rdf="http://www.w3.org/1999/02/22-rdf-syntax-ns#">
   <cc:Work>
    <dc:type rdf:resource="http://purl.org/dc/dcmitype/StillImage"/>
    <dc:date>2025-08-17T23:12:52.398866</dc:date>
    <dc:format>image/svg+xml</dc:format>
    <dc:creator>
     <cc:Agent>
      <dc:title>Matplotlib v3.10.5, https://matplotlib.org/</dc:title>
     </cc:Agent>
    </dc:creator>
   </cc:Work>
  </rdf:RDF>
 </metadata>
 <defs>
  <style type="text/css">*{stroke-linejoin: round; stroke-linecap: butt}</style>
 </defs>
 <g id="figure_1">
  <g id="patch_1">
   <path d="M 0 712.8
L 1000.8 712.8
L 1000.8 0
L 0 0
z
" style="fill: #ffffff"/>
  </g>
  <g id="axes_1">
   <g id="patch_2">
    <path d="M 401.76 118.944
L 599.04 118.944
Q 608.904 118.944 608.904 111.96
L 608.904 56.088
Q 608.904 49.104 599.04 49.104
L 401.76 49.104
Q 391.896 49.104 391.896 56.088
L 391.896 111.96
Q 391.896 118.944 401.76 118.944
z
" clip-path="url(#p1c9b665558)" style="fill: #e3f2fd; stroke: #666666; stroke-width: 1.5; stroke-linejoin: miter"/>
   </g>
   <g id="patch_3">
    <path d="M 401.76 209.736
L 599.04 209.736
Q 608.904 209.736 608.904 202.752
L 608.904 146.88
Q 608.904 139.896 599.04 139.896
L 401.76 139.896
Q 391.896 139.896 391.896 146.88
L 391.896 202.752
Q 391.896 209.736 401.76 209.736
z
" clip-path="url(#p1c9b665558)" style="fill: #e3f2fd; stroke: #666666; stroke-width: 1.5; stroke-linejoin: miter"/>
   </g>
   <g id="patch_4">
    <path d="M 352.44 307.512
L 648.36 307.512
Q 658.224 307.512 658.224 300.528
L 658.224 244.656
Q 658.224 237.672 648.36 237.672
L 352.44 237.672
Q 342.576 237.672 342.576 244.656
L 342.576 300.528
Q 342.576 307.512 352.44 307.512
z
" clip-path="url(#p1c9b665558)" style="fill: #fff3e0; stroke: #666666; stroke-width: 1.5; stroke-linejoin: miter"/>
   </g>
   <g id="patch_5">
    <path d="M 56.52 419.256
L 234.072 419.256
Q 243.936 419.256 243.936 412.272
L 243.936 342.432
Q 243.936 335.448 234.072 335.448
L 56.52 335.448
Q 46.656 335.448 46.656 342.432
L 46.656 412.272
Q 46.656 419.256 56.52 419.256
z
" clip-path="url(#p1c9b665558)" style="fill: #fff3e0; stroke: #666666; stroke-width: 1.5; stroke-linejoin: miter"/>
   </g>
   <g id="patch_6">
    <path d="M 283.392 419.256
L 460.944 419.256
Q 470.808 419.256 470.808 412.272
L 470.808 342.432
Q 470.808 335.448 460.944 335.448
L 283.392 335.448
Q 273.528 335.448 273.528 342.432
L 273.528 412.272
Q 273.528 419.256 283.392 419.256
z
" clip-path="url(#p1c9b665558)" style="fill: #e8f5e8; stroke: #666666; stroke-width: 1.5; stroke-linejoin: miter"/>
   </g>
   <g id="patch_7">
    <path d="M 510.264 419.256
L 687.816 419.256
Q 697.68 419.256 697.68 412.272
L 697.68 342.432
Q 697.68 335.448 687.816 335.448
L 510.264 335.448
Q 500.4 335.448 500.4 342.432
L 500.4 412.272
Q 500.4 419.256 510.264 419.256
z
" clip-path="url(#p1c9b665558)" style="fill: #fce4ec; stroke: #666666; stroke-width: 1.5; stroke-linejoin: miter"/>
   </g>
   <g id="patch_8">
    <path d="M 737.136 419.256
L 914.688 419.256
Q 924.552 419.256 924.552 412.272
L 924.552 342.432
Q 924.552 335.448 914.688 335.448
L 737.136 335.448
Q 727.272 335.448 727.272 342.432
L 727.272 412.272
Q 727.272 419.256 737.136 419.256
z
" clip-path="url(#p1c9b665558)" style="fill: #f1f8e9; stroke: #666666; stroke-width: 1.5; stroke-linejoin: miter"/>
   </g>
   <g id="patch_9">
    <path d="M 26.928 537.984
L 145.296 537.984
Q 155.16 537.984 155.16 531
L 155.16 475.128
Q 155.16 468.144 145.296 468.144
L 26.928 468.144
Q 17.064 468.144 17.064 475.128
L 17.064 531
Q 17.064 537.984 26.928 537.984
z
" clip-path="url(#p1c9b665558)" style="fill: #fff3e0; stroke: #666666; stroke-width: 1.5; stroke-linejoin: miter"/>
   </g>
   <g id="patch_10">
    <path d="M 165.024 537.984
L 283.392 537.984
Q 293.256 537.984 293.256 531
L 293.256 475.128
Q 293.256 468.144 283.392 468.144
L 165.024 468.144
Q 155.16 468.144 155.16 475.128
L 155.16 531
Q 155.16 537.984 165.024 537.984
z
" clip-path="url(#p1c9b665558)" style="fill: #fff3e0; stroke: #666666; stroke-width: 1.5; stroke-linejoin: miter"/>
   </g>
   <g id="patch_11">
    <path d="M 312.984 537.984
L 431.352 537.984
Q 441.216 537.984 441.216 531
L 441.216 475.128
Q 441.216 468.144 431.352 468.144
L 312.984 468.144
Q 303.12 468.144 303.12 475.128
L 303.12 531
Q 303.12 537.984 312.984 537.984
z
" clip-path="url(#p1c9b665558)" style="fill: #e8f5e8; stroke: #666666; stroke-width: 1.5; stroke-linejoin: miter"/>
   </g>
   <g id="patch_12">
    <path d="M 451.08 537.984
L 569.448 537.984
Q 579.312 537.984 579.312 531
L 579.312 475.128
Q 579.312 468.144 569.448 468.144
L 451.08 468.144
Q 441.216 468.144 441.216 475.128
L 441.216 531
Q 441.216 537.984 451.08 537.984
z
" clip-path="url(#p1c9b665558)" style="fill: #e8f5e8; stroke: #666666; stroke-width: 1.5; stroke-linejoin: miter"/>
   </g>
   <g id="patch_13">
    <path d="M 599.04 537.984
L 717.408 537.984
Q 727.272 537.984 727.272 531
L 727.272 475.128
Q 727.272 468.144 717.408 468.144
L 599.04 468.144
Q 589.176 468.144 589.176 475.128
L 589.176 531
Q 589.176 537.984 599.04 537.984
z
" clip-path="url(#p1c9b665558)" style="fill: #fce4ec; stroke: #666666; stroke-width: 1.5; stroke-linejoin: miter"/>
   </g>
   <g id="patch_14">
    <path d="M 737.136 537.984
L 855.504 537.984
Q 865.368 537.984 865.368 531
L 865.368 475.128
Q 865.368 468.144 855.504 468.144
L 737.136 468.144
Q 727.272 468.144 727.272 475.128
L 727.272 531
Q 727.272 537.984 737.136 537.984
z
" clip-path="url(#p1c9b665558)" style="fill: #fce4ec; stroke: #666666; stroke-width: 1.5; stroke-linejoin: miter"/>
   </g>
   <g id="patch_15">
    <path d="M 105.84 642.744
L 253.8 642.744
Q 263.664 642.744 263.664 635.76
L 263.664 579.888
Q 263.664 572.904 253.8 572.904
L 105.84 572.904
Q 95.976 572.904 95.976 579.888
L 95.976 635.76
Q 95.976 642.744 105.84 642.744
z
" clip-path="url(#p1c9b665558)" style="fill: #e8f5e8; stroke: #666666; stroke-width: 1.5; stroke-linejoin: miter"/>
   </g>
   <g id="patch_16">
    <path d="M 303.12 642.744
L 451.08 642.744
Q 460.944 642.744 460.944 635.76
L 460.944 579.888
Q 460.944 572.904 451.08 572.904
L 303.12 572.904
Q 293.256 572.904 293.256 579.888
L 293.256 635.76
Q 293.256 642.744 303.12 642.744
z
" clip-path="url(#p1c9b665558)" style="fill: #fff3e0; stroke: #666666; stroke-width: 1.5; stroke-linejoin: miter"/>
   </g>
   <g id="patch_17">
    <path d="M 500.4 642.744
L 648.36 642.744
Q 658.224 642.744 658.224 635.76
L 658.224 579.888
Q 658.224 572.904 648.36 572.904
L 500.4 572.904
Q 490.536 572.904 490.536 579.888
L 490.536 635.76
Q 490.536 642.744 500.4 642.744
z
" clip-path="url(#p1c9b665558)" style="fill: #f1f8e9; stroke: #666666; stroke-width: 1.5; stroke-linejoin: miter"/>
   </g>
   <g id="patch_18">
    <path d="M 697.68 642.744
L 845.64 642.744
Q 855.504 642.744 855.504 635.76
L 855.504 579.888
Q 855.504 572.904 845.64 572.904
L 697.68 572.904
Q 687.816 572.904 687.816 579.888
L 687.816 635.76
Q 687.816 642.744 697.68 642.744
z
" clip-path="url(#p1c9b665558)" style="fill: #f1f8e9; stroke: #666666; stroke-width: 1.5; stroke-linejoin: miter"/>
   </g>
   <g id="patch_19">
    <path d="M 500.4 152.4672
L 496.4544 146.88
L 500.35068 146.88
L 500.35068 111.96
L 500.44932 111.96
L 500.44932 146.88
L 504.3456 146.88
z
" clip-path="url(#p1c9b665558)" style="fill: #666666; opacity: 0.7; stroke: #666666; stroke-linejoin: miter"/>
   </g>
   <g id="patch_20">
    <path d="M 500.4 250.2432
L 496.4544 244.656
L 500.35068 244.656
L 500.35068 202.752
L 500.44932 202.752
L 500.44932 244.656
L 504.3456 244.656
z
" clip-path="url(#p1c9b665558)" style="fill: #666666; opacity: 0.7; stroke: #666666; stroke-linejoin: miter"/>
   </g>
   <g id="patch_21">
    <path d="M 140.394165 328.849627
L 145.023676 326.728679
L 145.290554 328.429294
L 500.394554 300.493294
L 500.405446 300.562706
L 145.301446 328.498706
L 145.568324 330.199321
z
" clip-path="url(#p1c9b665558)" style="fill: #666666; opacity: 0.5; stroke: #666666; stroke-linejoin: miter"/>
   </g>
   <g id="patch_22">
    <path d="M 367.454098 329.490948
L 371.442784 326.79521
L 372.153496 328.430624
L 500.385496 300.494624
L 500.414504 300.561376
L 372.182504 328.497376
L 372.893216 330.13279
z
" clip-path="url(#p1c9b665558)" style="fill: #666666; opacity: 0.5; stroke: #666666; stroke-linejoin: miter"/>
   </g>
   <g id="patch_23">
    <path d="M 603.619247 329.760896
L 598.124151 330.08512
L 599.021683 328.496422
L 500.381683 300.560422
L 500.418317 300.495578
L 599.058317 328.431578
L 599.955849 326.84288
z
" clip-path="url(#p1c9b665558)" style="fill: #666666; opacity: 0.5; stroke: #666666; stroke-linejoin: miter"/>
   </g>
   <g id="patch_24">
    <path d="M 830.808163 328.884197
L 825.615263 330.197313
L 825.906065 328.498666
L 500.394065 300.562666
L 500.405935 300.493334
L 825.917935 328.429334
L 826.208737 326.730687
z
" clip-path="url(#p1c9b665558)" style="fill: #666666; opacity: 0.5; stroke: #666666; stroke-linejoin: miter"/>
   </g>
   <g id="text_1">
    <!-- BooFun Library Architecture -->
    <g transform="translate(365.53125 46.4725) scale(0.16 -0.16)">
     <defs>
      <path id="DejaVuSans-Bold-42" d="M 2456 2859
Q 2741 2859 2887 2984
Q 3034 3109 3034 3353
Q 3034 3594 2887 3720
Q 2741 3847 2456 3847
L 1791 3847
L 1791 2859
L 2456 2859
z
M 2497 819
Q 2859 819 3042 972
Q 3225 1125 3225 1434
Q 3225 1738 3044 1889
Q 2863 2041 2497 2041
L 1791 2041
L 1791 819
L 2497 819
z
M 3616 2497
Q 4003 2384 4215 2081
Q 4428 1778 4428 1338
Q 4428 663 3972 331
Q 3516 0 2584 0
L 588 0
L 588 4666
L 2394 4666
Q 3366 4666 3802 4372
Q 4238 4078 4238 3431
Q 4238 3091 4078 2852
Q 3919 2613 3616 2497
z
" transform="scale(0.015625)"/>
      <path id="DejaVuSans-Bold-6f" d="M 2203 2784
Q 1831 2784 1636 2517
Q 1441 2250 1441 1747
Q 1441 1244 1636 976
Q 1831 709 2203 709
Q 2569 709 2762 976
Q 2956 1244 2956 1747
Q 2956 2250 2762 2517
Q 2569 2784 2203 2784
z
M 2203 3584
Q 3106 3584 3614 3096
Q 4122 2609 4122 1747
Q 4122 884 3614 396
Q 3106 -91 2203 -91
Q 1297 -91 786 396
Q 275 884 275 1747
Q 275 2609 786 3096
Q 1297 3584 2203 3584
z
" transform="scale(0.015625)"/>
      <path id="DejaVuSans-Bold-6c" d="M 538 4863
L 1656 4863
L 1656 0
L 538 0
L 538 4863
z
" transform="scale(0.015625)"/>
      <path id="DejaVuSans-Bold-46" d="M 588 4666
L 3834 4666
L 3834 3756
L 1791 3756
L 1791 2888
L 3713 2888
L 3713 1978
L 1791 1978
L 1791 0
L 588 0
L 588 4666
z
" transform="scale(0.015625)"/>
      <path id="DejaVuSans-Bold-75" d="M 500 1363
L 500 3500
L 1625 3500
L 1625 3150
Q 1625 2866 1622 2436
Q 1619 2006 1619 1863
Q 1619 1441 1641 1255
Q 1663 1069 1716 984
Q 1784 875 1895 815
Q 2006 756 2150 756
Q 2500 756 2700 1025
Q 2900 1294 2900 1772
L 2900 3500
L 4019 3500
L 4019 0
L 2900 0
L 2900 506
Q 2647 200 2364 54
Q 2081 -91 1741 -91
Q 1134 -91 817 281
Q 500 653 500 1363
z
" transform="scale(0.015625)"/>
      <path id="DejaVuSans-Bold-6e" d="M 4056 2131
L 4056 0
L 2931 0
L 2931 347
L 2931 1631
Q 2931 2084 2911 2256
Q 2891 2428 2841 2509
Q 2775 2619 2662 2680
Q 2550 2741 2406 2741
Q 2056 2741 1856 2470
Q 1656 2200 1656 1722
L 1656 0
L 538 0
L 538 3500
L 1656 3500
L 1656 2988
Q 1909 3294 2193 3439
Q 2478 3584 2822 3584
Q 3428 3584 3742 3212
Q 4056 2841 4056 2131
z
" transform="scale(0.015625)"/>
      <path id="DejaVuSans-Bold-63" d="M 3366 3391
L 3366 2478
Q 3138 2634 2908 2709
Q 2678 2784 2431 2784
Q 1963 2784 1702 2511
Q 1441 2238 1441 1747
Q 1441 1256 1702 982
Q 1963 709 2431 709
Q 2694 709 2930 787
Q 3166 866 3366 1019
L 3366 103
Q 3103 6 2833 -42
Q 2563 -91 2291 -91
Q 1344 -91 809 395
Q 275 881 275 1747
Q 275 2613 809 3098
Q 1344 3584 2291 3584
Q 2566 3584 2833 3536
Q 3100 3488 3366 3391
z
" transform="scale(0.015625)"/>
      <path id="DejaVuSans-Bold-20" transform="scale(0.015625)"/>
      <path id="DejaVuSans-Bold-4c" d="M 588 4666
L 1791 4666
L 1791 909
L 3903 909
L 3903 0
L 588 0
L 588 4666
z
" transform="scale(0.015625)"/>
      <path id="DejaVuSans-Bold-69" d="M 538 3500
L 1656 3500
L 1656 0
L 538 0
L 538 3500
z
M 538 4863
L 1656 4863
L 1656 3950
L 538 3950
L 538 4863
z
" transform="scale(0.015625)"/>
      <path id="DejaVuSans-Bold-62" d="M 2400 722
Q 2759 722 2948 984
Q 3138 1247 3138 1747
Q 3138 2247 2948 2509
Q 2759 2772 2400 2772
Q 2041 2772 1848 2508
Q 1656 2244 1656 1747
Q 1656 1250 1848 986
Q 2041 722 2400 722
z
M 1656 2988
Q 1888 3294 2169 3439
Q 2450 3584 2816 3584
Q 3463 3584 3878 3070
Q 4294 2556 4294 1747
Q 4294 938 3878 423
Q 3463 -91 2816 -91
Q 2450 -91 2169 54
Q 1888 200 1656 506
L 1656 0
L 538 0
L 538 4863
L 1656 4863
L 1656 2988
z
" transform="scale(0.015625)"/>
      <path id="DejaVuSans-Bold-72" d="M 3138 2547
Q 2991 2616 2845 2648
Q 2700 2681 2553 2681
Q 2122 2681 1889 2404
Q 1656 2128 1656 1613
L 1656 0
L 538 0
L 538 3500
L 1656 3500
L 1656 2925
Q 1872 3269 2151 3426
Q 2431 3584 2822 3584
Q 2878 3584 2943 3579
Q 3009 3575 3134 3559
L 3138 2547
z
" transform="scale(0.015625)"/>
      <path id="DejaVuSans-Bold-61" d="M 2106 1575
Q 1756 1575 1579 1456
Q 1403 1338 1403 1106
Q 1403 894 1545 773
Q 1688 653 1941 653
Q 2256 653 2472 879
Q 2688 1106 2688 1447
L 2688 1575
L 2106 1575
z
M 3816 1997
L 3816 0
L 2688 0
L 2688 519
Q 2463 200 2181 54
Q 1900 -91 1497 -91
Q 953 -91 614 226
Q 275 544 275 1050
Q 275 1666 698 1953
Q 1122 2241 2028 2241
L 2688 2241
L 2688 2328
Q 2688 2594 2478 2717
Q 2269 2841 1825 2841
Q 1466 2841 1156 2769
Q 847 2697 581 2553
L 581 3406
Q 941 3494 1303 3539
Q 1666 3584 2028 3584
Q 2975 3584 3395 3211
Q 3816 2838 3816 1997
z
" transform="scale(0.015625)"/>
      <path id="DejaVuSans-Bold-79" d="M 78 3500
L 1197 3500
L 2138 1125
L 2938 3500
L 4056 3500
L 2584 -331
Q 2363 -916 2067 -1148
Q 1772 -1381 1288 -1381
L 641 -1381
L 641 -647
L 991 -647
Q 1275 -647 1404 -556
Q 1534 -466 1606 -231
L 1638 -134
L 78 3500
z
" transform="scale(0.015625)"/>
      <path id="DejaVuSans-Bold-41" d="M 3419 850
L 1538 850
L 1241 0
L 31 0
L 1759 4666
L 3194 4666
L 4922 0
L 3713 0
L 3419 850
z
M 1838 1716
L 3116 1716
L 2478 3572
L 1838 1716
z
" transform="scale(0.015625)"/>
      <path id="DejaVuSans-Bold-68" d="M 4056 2131
L 4056 0
L 2931 0
L 2931 347
L 2931 1625
Q 2931 2084 2911 2256
Q 2891 2428 2841 2509
Q 2775 2619 2662 2680
Q 2550 2741 2406 2741
Q 2056 2741 1856 2470
Q 1656 2200 1656 1722
L 1656 0
L 538 0
L 538 4863
L 1656 4863
L 1656 2988
Q 1909 3294 2193 3439
Q 2478 3584 2822 3584
Q 3428 3584 3742 3212
Q 4056 2841 4056 2131
z
" transform="scale(0.015625)"/>
      <path id="DejaVuSans-Bold-74" d="M 1759 4494
L 1759 3500
L 2913 3500
L 2913 2700
L 1759 2700
L 1759 1216
Q 1759 972 1856 886
Q 1953 800 2241 800
L 2816 800
L 2816 0
L 1856 0
Q 1194 0 917 276
Q 641 553 641 1216
L 641 2700
L 84 2700
L 84 3500
L 641 3500
L 641 4494
L 1759 4494
z
" transform="scale(0.015625)"/>
      <path id="DejaVuSans-Bold-65" d="M 4031 1759
L 4031 1441
L 1416 1441
Q 1456 1047 1700 850
Q 1944 653 2381 653
Q 2734 653 3104 758
Q 3475 863 3866 1075
L 3866 213
Q 3469 63 3072 -14
Q 2675 -91 2278 -91
Q 1328 -91 801 392
Q 275 875 275 1747
Q 275 2603 792 3093
Q 1309 3584 2216 3584
Q 3041 3584 3536 3087
Q 4031 2591 4031 1759
z
M 2881 2131
Q 2881 2450 2695 2645
Q 2509 2841 2209 2841
Q 1884 2841 1681 2658
Q 1478 2475 1428 2131
L 2881 2131
z
" transform="scale(0.015625)"/>
     </defs>
     <use xlink:href="#DejaVuSans-Bold-42"/>
     <use xlink:href="#DejaVuSans-Bold-6f" transform="translate(76.220703 0)"/>
     <use xlink:href="#DejaVuSans-Bold-6f" transform="translate(144.921875 0)"/>
     <use xlink:href="#DejaVuSans-Bold-6c" transform="translate(213.623047 0)"/>
     <use xlink:href="#DejaVuSans-Bold-46" transform="translate(247.900391 0)"/>
     <use xlink:href="#DejaVuSans-Bold-75" transform="translate(311.210938 0)"/>
     <use xlink:href="#DejaVuSans-Bold-6e" transform="translate(382.402344 0)"/>
     <use xlink:href="#DejaVuSans-Bold-63" transform="translate(453.59375 0)"/>
     <use xlink:href="#DejaVuSans-Bold-20" transform="translate(512.871094 0)"/>
     <use xlink:href="#DejaVuSans-Bold-4c" transform="translate(547.685547 0)"/>
     <use xlink:href="#DejaVuSans-Bold-69" transform="translate(611.40625 0)"/>
     <use xlink:href="#DejaVuSans-Bold-62" transform="translate(645.683594 0)"/>
     <use xlink:href="#DejaVuSans-Bold-72" transform="translate(717.265625 0)"/>
     <use xlink:href="#DejaVuSans-Bold-61" transform="translate(766.582031 0)"/>
     <use xlink:href="#DejaVuSans-Bold-72" transform="translate(834.0625 0)"/>
     <use xlink:href="#DejaVuSans-Bold-79" transform="translate(883.378906 0)"/>
     <use xlink:href="#DejaVuSans-Bold-20" transform="translate(948.564453 0)"/>
     <use xlink:href="#DejaVuSans-Bold-41" transform="translate(983.378906 0)"/>
     <use xlink:href="#DejaVuSans-Bold-72" transform="translate(1060.771484 0)"/>
     <use xlink:href="#DejaVuSans-Bold-63" transform="translate(1110.087891 0)"/>
     <use xlink:href="#DejaVuSans-Bold-68" transform="translate(1169.365234 0)"/>
     <use xlink:href="#DejaVuSans-Bold-69" transform="translate(1240.556641 0)"/>
     <use xlink:href="#DejaVuSans-Bold-74" transform="translate(1274.833984 0)"/>
     <use xlink:href="#DejaVuSans-Bold-65" transform="translate(1322.636719 0)"/>
     <use xlink:href="#DejaVuSans-Bold-63" transform="translate(1390.458984 0)"/>
     <use xlink:href="#DejaVuSans-Bold-74" transform="translate(1449.736328 0)"/>
     <use xlink:href="#DejaVuSans-Bold-75" transform="translate(1497.539062 0)"/>
     <use xlink:href="#DejaVuSans-Bold-72" transform="translate(1568.730469 0)"/>
     <use xlink:href="#DejaVuSans-Bold-65" transform="translate(1618.046875 0)"/>
    </g>
   </g>
   <g id="text_2">
    <!-- User Interface -->
    <g transform="translate(456.174844 80.857547) scale(0.11 -0.11)">
     <defs>
      <path id="DejaVuSans-Bold-55" d="M 588 4666
L 1791 4666
L 1791 1869
Q 1791 1291 1980 1042
Q 2169 794 2597 794
Q 3028 794 3217 1042
Q 3406 1291 3406 1869
L 3406 4666
L 4609 4666
L 4609 1869
Q 4609 878 4112 393
Q 3616 -91 2597 -91
Q 1581 -91 1084 393
Q 588 878 588 1869
L 588 4666
z
" transform="scale(0.015625)"/>
      <path id="DejaVuSans-Bold-73" d="M 3272 3391
L 3272 2541
Q 2913 2691 2578 2766
Q 2244 2841 1947 2841
Q 1628 2841 1473 2761
Q 1319 2681 1319 2516
Q 1319 2381 1436 2309
Q 1553 2238 1856 2203
L 2053 2175
Q 2913 2066 3209 1816
Q 3506 1566 3506 1031
Q 3506 472 3093 190
Q 2681 -91 1863 -91
Q 1516 -91 1145 -36
Q 775 19 384 128
L 384 978
Q 719 816 1070 734
Q 1422 653 1784 653
Q 2113 653 2278 743
Q 2444 834 2444 1013
Q 2444 1163 2330 1236
Q 2216 1309 1875 1350
L 1678 1375
Q 931 1469 631 1722
Q 331 1975 331 2491
Q 331 3047 712 3315
Q 1094 3584 1881 3584
Q 2191 3584 2531 3537
Q 2872 3491 3272 3391
z
" transform="scale(0.015625)"/>
      <path id="DejaVuSans-Bold-49" d="M 588 4666
L 1791 4666
L 1791 0
L 588 0
L 588 4666
z
" transform="scale(0.015625)"/>
      <path id="DejaVuSans-Bold-66" d="M 2841 4863
L 2841 4128
L 2222 4128
Q 1984 4128 1890 4042
Q 1797 3956 1797 3744
L 1797 3500
L 2753 3500
L 2753 2700
L 1797 2700
L 1797 0
L 678 0
L 678 2700
L 122 2700
L 122 3500
L 678 3500
L 678 3744
Q 678 4316 997 4589
Q 1316 4863 1984 4863
L 2841 4863
z
" transform="scale(0.015625)"/>
     </defs>
     <use xlink:href="#DejaVuSans-Bold-55"/>
     <use xlink:href="#DejaVuSans-Bold-73" transform="translate(81.201172 0)"/>
     <use xlink:href="#DejaVuSans-Bold-65" transform="translate(140.722656 0)"/>
     <use xlink:href="#DejaVuSans-Bold-72" transform="translate(208.544922 0)"/>
     <use xlink:href="#DejaVuSans-Bold-20" transform="translate(257.861328 0)"/>
     <use xlink:href="#DejaVuSans-Bold-49" transform="translate(292.675781 0)"/>
     <use xlink:href="#DejaVuSans-Bold-6e" transform="translate(329.882812 0)"/>
     <use xlink:href="#DejaVuSans-Bold-74" transform="translate(401.074219 0)"/>
     <use xlink:href="#DejaVuSans-Bold-65" transform="translate(448.876953 0)"/>
     <use xlink:href="#DejaVuSans-Bold-72" transform="translate(516.699219 0)"/>
     <use xlink:href="#DejaVuSans-Bold-66" transform="translate(566.015625 0)"/>
     <use xlink:href="#DejaVuSans-Bold-61" transform="translate(609.521484 0)"/>
     <use xlink:href="#DejaVuSans-Bold-63" transform="translate(677.001953 0)"/>
     <use xlink:href="#DejaVuSans-Bold-65" transform="translate(736.279297 0)"/>
    </g>
    <!-- (Python API) -->
    <g transform="translate(461.166094 93.175141) scale(0.11 -0.11)">
     <defs>
      <path id="DejaVuSans-Bold-28" d="M 2413 -844
L 1484 -844
Q 1006 -72 778 623
Q 550 1319 550 2003
Q 550 2688 779 3389
Q 1009 4091 1484 4856
L 2413 4856
Q 2013 4116 1813 3408
Q 1613 2700 1613 2009
Q 1613 1319 1811 609
Q 2009 -100 2413 -844
z
" transform="scale(0.015625)"/>
      <path id="DejaVuSans-Bold-50" d="M 588 4666
L 2584 4666
Q 3475 4666 3951 4270
Q 4428 3875 4428 3144
Q 4428 2409 3951 2014
Q 3475 1619 2584 1619
L 1791 1619
L 1791 0
L 588 0
L 588 4666
z
M 1791 3794
L 1791 2491
L 2456 2491
Q 2806 2491 2997 2661
Q 3188 2831 3188 3144
Q 3188 3456 2997 3625
Q 2806 3794 2456 3794
L 1791 3794
z
" transform="scale(0.015625)"/>
      <path id="DejaVuSans-Bold-29" d="M 513 -844
Q 913 -100 1113 609
Q 1313 1319 1313 2009
Q 1313 2700 1113 3408
Q 913 4116 513 4856
L 1441 4856
Q 1916 4091 2145 3389
Q 2375 2688 2375 2003
Q 2375 1319 2147 623
Q 1919 -72 1441 -844
L 513 -844
z
" transform="scale(0.015625)"/>
     </defs>
     <use xlink:href="#DejaVuSans-Bold-28"/>
     <use xlink:href="#DejaVuSans-Bold-50" transform="translate(45.703125 0)"/>
     <use xlink:href="#DejaVuSans-Bold-79" transform="translate(120.869141 0)"/>
     <use xlink:href="#DejaVuSans-Bold-74" transform="translate(186.054688 0)"/>
     <use xlink:href="#DejaVuSans-Bold-68" transform="translate(233.857422 0)"/>
     <use xlink:href="#DejaVuSans-Bold-6f" transform="translate(305.048828 0)"/>
     <use xlink:href="#DejaVuSans-Bold-6e" transform="translate(373.75 0)"/>
     <use xlink:href="#DejaVuSans-Bold-20" transform="translate(444.941406 0)"/>
     <use xlink:href="#DejaVuSans-Bold-41" transform="translate(479.755859 0)"/>
     <use xlink:href="#DejaVuSans-Bold-50" transform="translate(557.148438 0)"/>
     <use xlink:href="#DejaVuSans-Bold-49" transform="translate(630.439453 0)"/>
     <use xlink:href="#DejaVuSans-Bold-29" transform="translate(667.646484 0)"/>
    </g>
   </g>
   <g id="text_3">
    <!-- API Layer -->
    <g transform="translate(473.744531 171.898344) scale(0.1 -0.1)">
     <use xlink:href="#DejaVuSans-Bold-41"/>
     <use xlink:href="#DejaVuSans-Bold-50" transform="translate(77.392578 0)"/>
     <use xlink:href="#DejaVuSans-Bold-49" transform="translate(150.683594 0)"/>
     <use xlink:href="#DejaVuSans-Bold-20" transform="translate(187.890625 0)"/>
     <use xlink:href="#DejaVuSans-Bold-4c" transform="translate(222.705078 0)"/>
     <use xlink:href="#DejaVuSans-Bold-61" transform="translate(286.425781 0)"/>
     <use xlink:href="#DejaVuSans-Bold-79" transform="translate(350.78125 0)"/>
     <use xlink:href="#DejaVuSans-Bold-65" transform="translate(415.966797 0)"/>
     <use xlink:href="#DejaVuSans-Bold-72" transform="translate(483.789062 0)"/>
    </g>
    <!-- (bf.create, bf.*) -->
    <g transform="translate(456.842187 183.174281) scale(0.1 -0.1)">
     <defs>
      <path id="DejaVuSans-Bold-2e" d="M 653 1209
L 1778 1209
L 1778 0
L 653 0
L 653 1209
z
" transform="scale(0.015625)"/>
      <path id="DejaVuSans-Bold-2c" d="M 653 1209
L 1778 1209
L 1778 256
L 1006 -909
L 341 -909
L 653 256
L 653 1209
z
" transform="scale(0.015625)"/>
      <path id="DejaVuSans-Bold-2a" d="M 3219 3803
L 2188 3263
L 3219 2719
L 2981 2278
L 1941 2853
L 1941 1778
L 1409 1778
L 1409 2853
L 366 2278
L 128 2719
L 1172 3263
L 128 3803
L 366 4244
L 1409 3675
L 1409 4750
L 1941 4750
L 1941 3675
L 2981 4244
L 3219 3803
z
" transform="scale(0.015625)"/>
     </defs>
     <use xlink:href="#DejaVuSans-Bold-28"/>
     <use xlink:href="#DejaVuSans-Bold-62" transform="translate(45.703125 0)"/>
     <use xlink:href="#DejaVuSans-Bold-66" transform="translate(117.285156 0)"/>
     <use xlink:href="#DejaVuSans-Bold-2e" transform="translate(155.291016 0)"/>
     <use xlink:href="#DejaVuSans-Bold-63" transform="translate(193.279297 0)"/>
     <use xlink:href="#DejaVuSans-Bold-72" transform="translate(252.556641 0)"/>
     <use xlink:href="#DejaVuSans-Bold-65" transform="translate(301.873047 0)"/>
     <use xlink:href="#DejaVuSans-Bold-61" transform="translate(369.695312 0)"/>
     <use xlink:href="#DejaVuSans-Bold-74" transform="translate(437.175781 0)"/>
     <use xlink:href="#DejaVuSans-Bold-65" transform="translate(484.978516 0)"/>
     <use xlink:href="#DejaVuSans-Bold-2c" transform="translate(552.800781 0)"/>
     <use xlink:href="#DejaVuSans-Bold-20" transform="translate(590.789062 0)"/>
     <use xlink:href="#DejaVuSans-Bold-62" transform="translate(625.603516 0)"/>
     <use xlink:href="#DejaVuSans-Bold-66" transform="translate(697.185547 0)"/>
     <use xlink:href="#DejaVuSans-Bold-2e" transform="translate(735.191406 0)"/>
     <use xlink:href="#DejaVuSans-Bold-2a" transform="translate(773.179688 0)"/>
     <use xlink:href="#DejaVuSans-Bold-29" transform="translate(825.474609 0)"/>
    </g>
   </g>
   <g id="text_4">
    <!-- Core Engine -->
    <g transform="translate(463.086797 269.382578) scale(0.11 -0.11)">
     <defs>
      <path id="DejaVuSans-Bold-43" d="M 4288 256
Q 3956 84 3597 -3
Q 3238 -91 2847 -91
Q 1681 -91 1000 561
Q 319 1213 319 2328
Q 319 3447 1000 4098
Q 1681 4750 2847 4750
Q 3238 4750 3597 4662
Q 3956 4575 4288 4403
L 4288 3438
Q 3953 3666 3628 3772
Q 3303 3878 2944 3878
Q 2300 3878 1931 3465
Q 1563 3053 1563 2328
Q 1563 1606 1931 1193
Q 2300 781 2944 781
Q 3303 781 3628 887
Q 3953 994 4288 1222
L 4288 256
z
" transform="scale(0.015625)"/>
      <path id="DejaVuSans-Bold-45" d="M 588 4666
L 3834 4666
L 3834 3756
L 1791 3756
L 1791 2888
L 3713 2888
L 3713 1978
L 1791 1978
L 1791 909
L 3903 909
L 3903 0
L 588 0
L 588 4666
z
" transform="scale(0.015625)"/>
      <path id="DejaVuSans-Bold-67" d="M 2919 594
Q 2688 288 2409 144
Q 2131 0 1766 0
Q 1125 0 706 504
Q 288 1009 288 1791
Q 288 2575 706 3076
Q 1125 3578 1766 3578
Q 2131 3578 2409 3434
Q 2688 3291 2919 2981
L 2919 3500
L 4044 3500
L 4044 353
Q 4044 -491 3511 -936
Q 2978 -1381 1966 -1381
Q 1638 -1381 1331 -1331
Q 1025 -1281 716 -1178
L 716 -306
Q 1009 -475 1290 -558
Q 1572 -641 1856 -641
Q 2406 -641 2662 -400
Q 2919 -159 2919 353
L 2919 594
z
M 2181 2772
Q 1834 2772 1640 2515
Q 1447 2259 1447 1791
Q 1447 1309 1634 1061
Q 1822 813 2181 813
Q 2531 813 2725 1069
Q 2919 1325 2919 1791
Q 2919 2259 2725 2515
Q 2531 2772 2181 2772
z
" transform="scale(0.015625)"/>
     </defs>
     <use xlink:href="#DejaVuSans-Bold-43"/>
     <use xlink:href="#DejaVuSans-Bold-6f" transform="translate(73.388672 0)"/>
     <use xlink:href="#DejaVuSans-Bold-72" transform="translate(142.089844 0)"/>
     <use xlink:href="#DejaVuSans-Bold-65" transform="translate(191.40625 0)"/>
     <use xlink:href="#DejaVuSans-Bold-20" transform="translate(259.228516 0)"/>
     <use xlink:href="#DejaVuSans-Bold-45" transform="translate(294.042969 0)"/>
     <use xlink:href="#DejaVuSans-Bold-6e" transform="translate(362.353516 0)"/>
     <use xlink:href="#DejaVuSans-Bold-67" transform="translate(433.544922 0)"/>
     <use xlink:href="#DejaVuSans-Bold-69" transform="translate(505.126953 0)"/>
     <use xlink:href="#DejaVuSans-Bold-6e" transform="translate(539.404297 0)"/>
     <use xlink:href="#DejaVuSans-Bold-65" transform="translate(610.595703 0)"/>
    </g>
    <!-- (BooleanFunction, Factory) -->
    <g transform="translate(416.48375 281.786109) scale(0.11 -0.11)">
     <use xlink:href="#DejaVuSans-Bold-28"/>
     <use xlink:href="#DejaVuSans-Bold-42" transform="translate(45.703125 0)"/>
     <use xlink:href="#DejaVuSans-Bold-6f" transform="translate(121.923828 0)"/>
     <use xlink:href="#DejaVuSans-Bold-6f" transform="translate(190.625 0)"/>
     <use xlink:href="#DejaVuSans-Bold-6c" transform="translate(259.326172 0)"/>
     <use xlink:href="#DejaVuSans-Bold-65" transform="translate(293.603516 0)"/>
     <use xlink:href="#DejaVuSans-Bold-61" transform="translate(361.425781 0)"/>
     <use xlink:href="#DejaVuSans-Bold-6e" transform="translate(428.90625 0)"/>
     <use xlink:href="#DejaVuSans-Bold-46" transform="translate(500.097656 0)"/>
     <use xlink:href="#DejaVuSans-Bold-75" transform="translate(563.408203 0)"/>
     <use xlink:href="#DejaVuSans-Bold-6e" transform="translate(634.599609 0)"/>
     <use xlink:href="#DejaVuSans-Bold-63" transform="translate(705.791016 0)"/>
     <use xlink:href="#DejaVuSans-Bold-74" transform="translate(765.068359 0)"/>
     <use xlink:href="#DejaVuSans-Bold-69" transform="translate(812.871094 0)"/>
     <use xlink:href="#DejaVuSans-Bold-6f" transform="translate(847.148438 0)"/>
     <use xlink:href="#DejaVuSans-Bold-6e" transform="translate(915.849609 0)"/>
     <use xlink:href="#DejaVuSans-Bold-2c" transform="translate(987.041016 0)"/>
     <use xlink:href="#DejaVuSans-Bold-20" transform="translate(1025.029297 0)"/>
     <use xlink:href="#DejaVuSans-Bold-46" transform="translate(1059.84375 0)"/>
     <use xlink:href="#DejaVuSans-Bold-61" transform="translate(1122.279297 0)"/>
     <use xlink:href="#DejaVuSans-Bold-63" transform="translate(1189.759766 0)"/>
     <use xlink:href="#DejaVuSans-Bold-74" transform="translate(1249.037109 0)"/>
     <use xlink:href="#DejaVuSans-Bold-6f" transform="translate(1296.839844 0)"/>
     <use xlink:href="#DejaVuSans-Bold-72" transform="translate(1365.541016 0)"/>
     <use xlink:href="#DejaVuSans-Bold-79" transform="translate(1414.857422 0)"/>
     <use xlink:href="#DejaVuSans-Bold-29" transform="translate(1480.042969 0)"/>
    </g>
   </g>
   <g id="text_5">
    <!-- Boolean Function -->
    <g transform="translate(101.368969 364.683234) scale(0.09 -0.09)">
     <use xlink:href="#DejaVuSans-Bold-42"/>
     <use xlink:href="#DejaVuSans-Bold-6f" transform="translate(76.220703 0)"/>
     <use xlink:href="#DejaVuSans-Bold-6f" transform="translate(144.921875 0)"/>
     <use xlink:href="#DejaVuSans-Bold-6c" transform="translate(213.623047 0)"/>
     <use xlink:href="#DejaVuSans-Bold-65" transform="translate(247.900391 0)"/>
     <use xlink:href="#DejaVuSans-Bold-61" transform="translate(315.722656 0)"/>
     <use xlink:href="#DejaVuSans-Bold-6e" transform="translate(383.203125 0)"/>
     <use xlink:href="#DejaVuSans-Bold-20" transform="translate(454.394531 0)"/>
     <use xlink:href="#DejaVuSans-Bold-46" transform="translate(489.208984 0)"/>
     <use xlink:href="#DejaVuSans-Bold-75" transform="translate(552.519531 0)"/>
     <use xlink:href="#DejaVuSans-Bold-6e" transform="translate(623.710938 0)"/>
     <use xlink:href="#DejaVuSans-Bold-63" transform="translate(694.902344 0)"/>
     <use xlink:href="#DejaVuSans-Bold-74" transform="translate(754.179688 0)"/>
     <use xlink:href="#DejaVuSans-Bold-69" transform="translate(801.982422 0)"/>
     <use xlink:href="#DejaVuSans-Bold-6f" transform="translate(836.259766 0)"/>
     <use xlink:href="#DejaVuSans-Bold-6e" transform="translate(904.960938 0)"/>
    </g>
    <!-- • Evaluation -->
    <g transform="translate(114.037172 374.761266) scale(0.09 -0.09)">
     <defs>
      <path id="DejaVuSans-Bold-2022" d="M 922 2381
Q 922 2613 1005 2816
Q 1088 3019 1247 3175
Q 1413 3334 1616 3417
Q 1819 3500 2047 3500
Q 2275 3500 2479 3415
Q 2684 3331 2841 3175
Q 3003 3013 3086 2811
Q 3169 2609 3169 2381
Q 3169 2150 3084 1945
Q 3000 1741 2841 1581
Q 2681 1422 2476 1337
Q 2272 1253 2041 1253
Q 1813 1253 1609 1337
Q 1406 1422 1247 1581
Q 1091 1741 1006 1945
Q 922 2150 922 2381
z
" transform="scale(0.015625)"/>
      <path id="DejaVuSans-Bold-76" d="M 97 3500
L 1216 3500
L 2088 1081
L 2956 3500
L 4078 3500
L 2700 0
L 1472 0
L 97 3500
z
" transform="scale(0.015625)"/>
     </defs>
     <use xlink:href="#DejaVuSans-Bold-2022"/>
     <use xlink:href="#DejaVuSans-Bold-20" transform="translate(63.916016 0)"/>
     <use xlink:href="#DejaVuSans-Bold-45" transform="translate(98.730469 0)"/>
     <use xlink:href="#DejaVuSans-Bold-76" transform="translate(167.041016 0)"/>
     <use xlink:href="#DejaVuSans-Bold-61" transform="translate(232.226562 0)"/>
     <use xlink:href="#DejaVuSans-Bold-6c" transform="translate(299.707031 0)"/>
     <use xlink:href="#DejaVuSans-Bold-75" transform="translate(333.984375 0)"/>
     <use xlink:href="#DejaVuSans-Bold-61" transform="translate(405.175781 0)"/>
     <use xlink:href="#DejaVuSans-Bold-74" transform="translate(472.65625 0)"/>
     <use xlink:href="#DejaVuSans-Bold-69" transform="translate(520.458984 0)"/>
     <use xlink:href="#DejaVuSans-Bold-6f" transform="translate(554.736328 0)"/>
     <use xlink:href="#DejaVuSans-Bold-6e" transform="translate(623.4375 0)"/>
    </g>
    <!-- • Conversion -->
    <g transform="translate(112.534594 384.839297) scale(0.09 -0.09)">
     <use xlink:href="#DejaVuSans-Bold-2022"/>
     <use xlink:href="#DejaVuSans-Bold-20" transform="translate(63.916016 0)"/>
     <use xlink:href="#DejaVuSans-Bold-43" transform="translate(98.730469 0)"/>
     <use xlink:href="#DejaVuSans-Bold-6f" transform="translate(172.119141 0)"/>
     <use xlink:href="#DejaVuSans-Bold-6e" transform="translate(240.820312 0)"/>
     <use xlink:href="#DejaVuSans-Bold-76" transform="translate(312.011719 0)"/>
     <use xlink:href="#DejaVuSans-Bold-65" transform="translate(377.197266 0)"/>
     <use xlink:href="#DejaVuSans-Bold-72" transform="translate(445.019531 0)"/>
     <use xlink:href="#DejaVuSans-Bold-73" transform="translate(494.335938 0)"/>
     <use xlink:href="#DejaVuSans-Bold-69" transform="translate(553.857422 0)"/>
     <use xlink:href="#DejaVuSans-Bold-6f" transform="translate(588.134766 0)"/>
     <use xlink:href="#DejaVuSans-Bold-6e" transform="translate(656.835938 0)"/>
    </g>
    <!-- • Caching -->
    <g transform="translate(120.675375 394.917328) scale(0.09 -0.09)">
     <use xlink:href="#DejaVuSans-Bold-2022"/>
     <use xlink:href="#DejaVuSans-Bold-20" transform="translate(63.916016 0)"/>
     <use xlink:href="#DejaVuSans-Bold-43" transform="translate(98.730469 0)"/>
     <use xlink:href="#DejaVuSans-Bold-61" transform="translate(172.119141 0)"/>
     <use xlink:href="#DejaVuSans-Bold-63" transform="translate(239.599609 0)"/>
     <use xlink:href="#DejaVuSans-Bold-68" transform="translate(298.876953 0)"/>
     <use xlink:href="#DejaVuSans-Bold-69" transform="translate(370.068359 0)"/>
     <use xlink:href="#DejaVuSans-Bold-6e" transform="translate(404.345703 0)"/>
     <use xlink:href="#DejaVuSans-Bold-67" transform="translate(475.537109 0)"/>
    </g>
   </g>
   <g id="text_6">
    <!-- Representations -->
    <g transform="translate(335.01425 366.122125) scale(0.08 -0.08)">
     <defs>
      <path id="DejaVuSans-Bold-52" d="M 2297 2597
Q 2675 2597 2839 2737
Q 3003 2878 3003 3200
Q 3003 3519 2839 3656
Q 2675 3794 2297 3794
L 1791 3794
L 1791 2597
L 2297 2597
z
M 1791 1766
L 1791 0
L 588 0
L 588 4666
L 2425 4666
Q 3347 4666 3776 4356
Q 4206 4047 4206 3378
Q 4206 2916 3982 2619
Q 3759 2322 3309 2181
Q 3556 2125 3751 1926
Q 3947 1728 4147 1325
L 4800 0
L 3519 0
L 2950 1159
Q 2778 1509 2601 1637
Q 2425 1766 2131 1766
L 1791 1766
z
" transform="scale(0.015625)"/>
      <path id="DejaVuSans-Bold-70" d="M 1656 506
L 1656 -1331
L 538 -1331
L 538 3500
L 1656 3500
L 1656 2988
Q 1888 3294 2169 3439
Q 2450 3584 2816 3584
Q 3463 3584 3878 3070
Q 4294 2556 4294 1747
Q 4294 938 3878 423
Q 3463 -91 2816 -91
Q 2450 -91 2169 54
Q 1888 200 1656 506
z
M 2400 2772
Q 2041 2772 1848 2508
Q 1656 2244 1656 1747
Q 1656 1250 1848 986
Q 2041 722 2400 722
Q 2759 722 2948 984
Q 3138 1247 3138 1747
Q 3138 2247 2948 2509
Q 2759 2772 2400 2772
z
" transform="scale(0.015625)"/>
     </defs>
     <use xlink:href="#DejaVuSans-Bold-52"/>
     <use xlink:href="#DejaVuSans-Bold-65" transform="translate(77.001953 0)"/>
     <use xlink:href="#DejaVuSans-Bold-70" transform="translate(144.824219 0)"/>
     <use xlink:href="#DejaVuSans-Bold-72" transform="translate(216.40625 0)"/>
     <use xlink:href="#DejaVuSans-Bold-65" transform="translate(265.722656 0)"/>
     <use xlink:href="#DejaVuSans-Bold-73" transform="translate(333.544922 0)"/>
     <use xlink:href="#DejaVuSans-Bold-65" transform="translate(393.066406 0)"/>
     <use xlink:href="#DejaVuSans-Bold-6e" transform="translate(460.888672 0)"/>
     <use xlink:href="#DejaVuSans-Bold-74" transform="translate(532.080078 0)"/>
     <use xlink:href="#DejaVuSans-Bold-61" transform="translate(579.882812 0)"/>
     <use xlink:href="#DejaVuSans-Bold-74" transform="translate(647.363281 0)"/>
     <use xlink:href="#DejaVuSans-Bold-69" transform="translate(695.166016 0)"/>
     <use xlink:href="#DejaVuSans-Bold-6f" transform="translate(729.443359 0)"/>
     <use xlink:href="#DejaVuSans-Bold-6e" transform="translate(798.144531 0)"/>
     <use xlink:href="#DejaVuSans-Bold-73" transform="translate(869.335938 0)"/>
    </g>
    <!-- • Truth Table -->
    <g transform="translate(343.097375 375.080375) scale(0.08 -0.08)">
     <defs>
      <path id="DejaVuSans-Bold-54" d="M 31 4666
L 4331 4666
L 4331 3756
L 2784 3756
L 2784 0
L 1581 0
L 1581 3756
L 31 3756
L 31 4666
z
" transform="scale(0.015625)"/>
     </defs>
     <use xlink:href="#DejaVuSans-Bold-2022"/>
     <use xlink:href="#DejaVuSans-Bold-20" transform="translate(63.916016 0)"/>
     <use xlink:href="#DejaVuSans-Bold-54" transform="translate(98.730469 0)"/>
     <use xlink:href="#DejaVuSans-Bold-72" transform="translate(155.943359 0)"/>
     <use xlink:href="#DejaVuSans-Bold-75" transform="translate(205.259766 0)"/>
     <use xlink:href="#DejaVuSans-Bold-74" transform="translate(276.451172 0)"/>
     <use xlink:href="#DejaVuSans-Bold-68" transform="translate(324.253906 0)"/>
     <use xlink:href="#DejaVuSans-Bold-20" transform="translate(395.445312 0)"/>
     <use xlink:href="#DejaVuSans-Bold-54" transform="translate(430.259766 0)"/>
     <use xlink:href="#DejaVuSans-Bold-61" transform="translate(485.597656 0)"/>
     <use xlink:href="#DejaVuSans-Bold-62" transform="translate(553.078125 0)"/>
     <use xlink:href="#DejaVuSans-Bold-6c" transform="translate(624.660156 0)"/>
     <use xlink:href="#DejaVuSans-Bold-65" transform="translate(658.9375 0)"/>
    </g>
    <!-- • ANF • Fourier -->
    <g transform="translate(337.503625 384.038625) scale(0.08 -0.08)">
     <defs>
      <path id="DejaVuSans-Bold-4e" d="M 588 4666
L 1931 4666
L 3628 1466
L 3628 4666
L 4769 4666
L 4769 0
L 3425 0
L 1728 3200
L 1728 0
L 588 0
L 588 4666
z
" transform="scale(0.015625)"/>
     </defs>
     <use xlink:href="#DejaVuSans-Bold-2022"/>
     <use xlink:href="#DejaVuSans-Bold-20" transform="translate(63.916016 0)"/>
     <use xlink:href="#DejaVuSans-Bold-41" transform="translate(98.730469 0)"/>
     <use xlink:href="#DejaVuSans-Bold-4e" transform="translate(176.123047 0)"/>
     <use xlink:href="#DejaVuSans-Bold-46" transform="translate(259.814453 0)"/>
     <use xlink:href="#DejaVuSans-Bold-20" transform="translate(328.125 0)"/>
     <use xlink:href="#DejaVuSans-Bold-2022" transform="translate(362.939453 0)"/>
     <use xlink:href="#DejaVuSans-Bold-20" transform="translate(426.855469 0)"/>
     <use xlink:href="#DejaVuSans-Bold-46" transform="translate(461.669922 0)"/>
     <use xlink:href="#DejaVuSans-Bold-6f" transform="translate(525.980469 0)"/>
     <use xlink:href="#DejaVuSans-Bold-75" transform="translate(594.681641 0)"/>
     <use xlink:href="#DejaVuSans-Bold-72" transform="translate(665.873047 0)"/>
     <use xlink:href="#DejaVuSans-Bold-69" transform="translate(715.189453 0)"/>
     <use xlink:href="#DejaVuSans-Bold-65" transform="translate(749.466797 0)"/>
     <use xlink:href="#DejaVuSans-Bold-72" transform="translate(817.289062 0)"/>
    </g>
    <!-- • BDD • Circuit -->
    <g transform="translate(338.4055 392.996875) scale(0.08 -0.08)">
     <defs>
      <path id="DejaVuSans-Bold-44" d="M 1791 3756
L 1791 909
L 2222 909
Q 2959 909 3348 1275
Q 3738 1641 3738 2338
Q 3738 3031 3350 3393
Q 2963 3756 2222 3756
L 1791 3756
z
M 588 4666
L 1856 4666
Q 2919 4666 3439 4514
Q 3959 4363 4331 4000
Q 4659 3684 4818 3271
Q 4978 2859 4978 2338
Q 4978 1809 4818 1395
Q 4659 981 4331 666
Q 3956 303 3431 151
Q 2906 0 1856 0
L 588 0
L 588 4666
z
" transform="scale(0.015625)"/>
     </defs>
     <use xlink:href="#DejaVuSans-Bold-2022"/>
     <use xlink:href="#DejaVuSans-Bold-20" transform="translate(63.916016 0)"/>
     <use xlink:href="#DejaVuSans-Bold-42" transform="translate(98.730469 0)"/>
     <use xlink:href="#DejaVuSans-Bold-44" transform="translate(174.951172 0)"/>
     <use xlink:href="#DejaVuSans-Bold-44" transform="translate(257.958984 0)"/>
     <use xlink:href="#DejaVuSans-Bold-20" transform="translate(340.966797 0)"/>
     <use xlink:href="#DejaVuSans-Bold-2022" transform="translate(375.78125 0)"/>
     <use xlink:href="#DejaVuSans-Bold-20" transform="translate(439.697266 0)"/>
     <use xlink:href="#DejaVuSans-Bold-43" transform="translate(474.511719 0)"/>
     <use xlink:href="#DejaVuSans-Bold-69" transform="translate(547.900391 0)"/>
     <use xlink:href="#DejaVuSans-Bold-72" transform="translate(582.177734 0)"/>
     <use xlink:href="#DejaVuSans-Bold-63" transform="translate(631.494141 0)"/>
     <use xlink:href="#DejaVuSans-Bold-75" transform="translate(690.771484 0)"/>
     <use xlink:href="#DejaVuSans-Bold-69" transform="translate(761.962891 0)"/>
     <use xlink:href="#DejaVuSans-Bold-74" transform="translate(796.240234 0)"/>
    </g>
   </g>
   <g id="text_7">
    <!-- Analysis Tools -->
    <g transform="translate(563.497734 364.648078) scale(0.09 -0.09)">
     <use xlink:href="#DejaVuSans-Bold-41"/>
     <use xlink:href="#DejaVuSans-Bold-6e" transform="translate(77.392578 0)"/>
     <use xlink:href="#DejaVuSans-Bold-61" transform="translate(148.583984 0)"/>
     <use xlink:href="#DejaVuSans-Bold-6c" transform="translate(216.064453 0)"/>
     <use xlink:href="#DejaVuSans-Bold-79" transform="translate(250.341797 0)"/>
     <use xlink:href="#DejaVuSans-Bold-73" transform="translate(315.527344 0)"/>
     <use xlink:href="#DejaVuSans-Bold-69" transform="translate(375.048828 0)"/>
     <use xlink:href="#DejaVuSans-Bold-73" transform="translate(409.326172 0)"/>
     <use xlink:href="#DejaVuSans-Bold-20" transform="translate(468.847656 0)"/>
     <use xlink:href="#DejaVuSans-Bold-54" transform="translate(503.662109 0)"/>
     <use xlink:href="#DejaVuSans-Bold-6f" transform="translate(558.625 0)"/>
     <use xlink:href="#DejaVuSans-Bold-6f" transform="translate(627.326172 0)"/>
     <use xlink:href="#DejaVuSans-Bold-6c" transform="translate(696.027344 0)"/>
     <use xlink:href="#DejaVuSans-Bold-73" transform="translate(730.304688 0)"/>
    </g>
    <!-- • Spectral -->
    <g transform="translate(573.465938 374.796422) scale(0.09 -0.09)">
     <defs>
      <path id="DejaVuSans-Bold-53" d="M 3834 4519
L 3834 3531
Q 3450 3703 3084 3790
Q 2719 3878 2394 3878
Q 1963 3878 1756 3759
Q 1550 3641 1550 3391
Q 1550 3203 1689 3098
Q 1828 2994 2194 2919
L 2706 2816
Q 3484 2659 3812 2340
Q 4141 2022 4141 1434
Q 4141 663 3683 286
Q 3225 -91 2284 -91
Q 1841 -91 1394 -6
Q 947 78 500 244
L 500 1259
Q 947 1022 1364 901
Q 1781 781 2169 781
Q 2563 781 2772 912
Q 2981 1044 2981 1288
Q 2981 1506 2839 1625
Q 2697 1744 2272 1838
L 1806 1941
Q 1106 2091 782 2419
Q 459 2747 459 3303
Q 459 4000 909 4375
Q 1359 4750 2203 4750
Q 2588 4750 2994 4692
Q 3400 4634 3834 4519
z
" transform="scale(0.015625)"/>
     </defs>
     <use xlink:href="#DejaVuSans-Bold-2022"/>
     <use xlink:href="#DejaVuSans-Bold-20" transform="translate(63.916016 0)"/>
     <use xlink:href="#DejaVuSans-Bold-53" transform="translate(98.730469 0)"/>
     <use xlink:href="#DejaVuSans-Bold-70" transform="translate(170.751953 0)"/>
     <use xlink:href="#DejaVuSans-Bold-65" transform="translate(242.333984 0)"/>
     <use xlink:href="#DejaVuSans-Bold-63" transform="translate(310.15625 0)"/>
     <use xlink:href="#DejaVuSans-Bold-74" transform="translate(369.433594 0)"/>
     <use xlink:href="#DejaVuSans-Bold-72" transform="translate(417.236328 0)"/>
     <use xlink:href="#DejaVuSans-Bold-61" transform="translate(466.552734 0)"/>
     <use xlink:href="#DejaVuSans-Bold-6c" transform="translate(534.033203 0)"/>
    </g>
    <!-- • Property Testing -->
    <g transform="translate(552.522656 384.874453) scale(0.09 -0.09)">
     <use xlink:href="#DejaVuSans-Bold-2022"/>
     <use xlink:href="#DejaVuSans-Bold-20" transform="translate(63.916016 0)"/>
     <use xlink:href="#DejaVuSans-Bold-50" transform="translate(98.730469 0)"/>
     <use xlink:href="#DejaVuSans-Bold-72" transform="translate(172.021484 0)"/>
     <use xlink:href="#DejaVuSans-Bold-6f" transform="translate(221.337891 0)"/>
     <use xlink:href="#DejaVuSans-Bold-70" transform="translate(290.039062 0)"/>
     <use xlink:href="#DejaVuSans-Bold-65" transform="translate(361.621094 0)"/>
     <use xlink:href="#DejaVuSans-Bold-72" transform="translate(429.443359 0)"/>
     <use xlink:href="#DejaVuSans-Bold-74" transform="translate(478.759766 0)"/>
     <use xlink:href="#DejaVuSans-Bold-79" transform="translate(526.5625 0)"/>
     <use xlink:href="#DejaVuSans-Bold-20" transform="translate(591.748047 0)"/>
     <use xlink:href="#DejaVuSans-Bold-54" transform="translate(626.5625 0)"/>
     <use xlink:href="#DejaVuSans-Bold-65" transform="translate(681.525391 0)"/>
     <use xlink:href="#DejaVuSans-Bold-73" transform="translate(749.347656 0)"/>
     <use xlink:href="#DejaVuSans-Bold-74" transform="translate(808.869141 0)"/>
     <use xlink:href="#DejaVuSans-Bold-69" transform="translate(856.671875 0)"/>
     <use xlink:href="#DejaVuSans-Bold-6e" transform="translate(890.949219 0)"/>
     <use xlink:href="#DejaVuSans-Bold-67" transform="translate(962.140625 0)"/>
    </g>
    <!-- • Influences -->
    <g transform="translate(568.361953 395.022797) scale(0.09 -0.09)">
     <use xlink:href="#DejaVuSans-Bold-2022"/>
     <use xlink:href="#DejaVuSans-Bold-20" transform="translate(63.916016 0)"/>
     <use xlink:href="#DejaVuSans-Bold-49" transform="translate(98.730469 0)"/>
     <use xlink:href="#DejaVuSans-Bold-6e" transform="translate(135.9375 0)"/>
     <use xlink:href="#DejaVuSans-Bold-66" transform="translate(207.128906 0)"/>
     <use xlink:href="#DejaVuSans-Bold-6c" transform="translate(250.634766 0)"/>
     <use xlink:href="#DejaVuSans-Bold-75" transform="translate(284.912109 0)"/>
     <use xlink:href="#DejaVuSans-Bold-65" transform="translate(356.103516 0)"/>
     <use xlink:href="#DejaVuSans-Bold-6e" transform="translate(423.925781 0)"/>
     <use xlink:href="#DejaVuSans-Bold-63" transform="translate(495.117188 0)"/>
     <use xlink:href="#DejaVuSans-Bold-65" transform="translate(554.394531 0)"/>
     <use xlink:href="#DejaVuSans-Bold-73" transform="translate(622.216797 0)"/>
    </g>
   </g>
   <g id="text_8">
    <!-- Extensions -->
    <g transform="translate(798.334734 364.718391) scale(0.09 -0.09)">
     <defs>
      <path id="DejaVuSans-Bold-78" d="M 1422 1791
L 159 3500
L 1344 3500
L 2059 2463
L 2784 3500
L 3969 3500
L 2706 1797
L 4031 0
L 2847 0
L 2059 1106
L 1281 0
L 97 0
L 1422 1791
z
" transform="scale(0.015625)"/>
     </defs>
     <use xlink:href="#DejaVuSans-Bold-45"/>
     <use xlink:href="#DejaVuSans-Bold-78" transform="translate(68.310547 0)"/>
     <use xlink:href="#DejaVuSans-Bold-74" transform="translate(132.8125 0)"/>
     <use xlink:href="#DejaVuSans-Bold-65" transform="translate(180.615234 0)"/>
     <use xlink:href="#DejaVuSans-Bold-6e" transform="translate(248.4375 0)"/>
     <use xlink:href="#DejaVuSans-Bold-73" transform="translate(319.628906 0)"/>
     <use xlink:href="#DejaVuSans-Bold-69" transform="translate(379.150391 0)"/>
     <use xlink:href="#DejaVuSans-Bold-6f" transform="translate(413.427734 0)"/>
     <use xlink:href="#DejaVuSans-Bold-6e" transform="translate(482.128906 0)"/>
     <use xlink:href="#DejaVuSans-Bold-73" transform="translate(553.320312 0)"/>
    </g>
    <!-- • Quantum -->
    <g transform="translate(798.156141 374.796422) scale(0.09 -0.09)">
     <defs>
      <path id="DejaVuSans-Bold-51" d="M 2847 -84
L 2753 -84
Q 1600 -84 959 553
Q 319 1191 319 2328
Q 319 3463 958 4106
Q 1597 4750 2719 4750
Q 3853 4750 4486 4112
Q 5119 3475 5119 2328
Q 5119 1541 4783 972
Q 4447 403 3816 116
L 4756 -934
L 3609 -934
L 2847 -84
z
M 2719 3878
Q 2169 3878 1866 3472
Q 1563 3066 1563 2328
Q 1563 1578 1859 1179
Q 2156 781 2719 781
Q 3272 781 3575 1187
Q 3878 1594 3878 2328
Q 3878 3066 3575 3472
Q 3272 3878 2719 3878
z
" transform="scale(0.015625)"/>
      <path id="DejaVuSans-Bold-6d" d="M 3781 2919
Q 3994 3244 4286 3414
Q 4578 3584 4928 3584
Q 5531 3584 5847 3212
Q 6163 2841 6163 2131
L 6163 0
L 5038 0
L 5038 1825
Q 5041 1866 5042 1909
Q 5044 1953 5044 2034
Q 5044 2406 4934 2573
Q 4825 2741 4581 2741
Q 4263 2741 4089 2478
Q 3916 2216 3909 1719
L 3909 0
L 2784 0
L 2784 1825
Q 2784 2406 2684 2573
Q 2584 2741 2328 2741
Q 2006 2741 1831 2477
Q 1656 2213 1656 1722
L 1656 0
L 531 0
L 531 3500
L 1656 3500
L 1656 2988
Q 1863 3284 2130 3434
Q 2397 3584 2719 3584
Q 3081 3584 3359 3409
Q 3638 3234 3781 2919
z
" transform="scale(0.015625)"/>
     </defs>
     <use xlink:href="#DejaVuSans-Bold-2022"/>
     <use xlink:href="#DejaVuSans-Bold-20" transform="translate(63.916016 0)"/>
     <use xlink:href="#DejaVuSans-Bold-51" transform="translate(98.730469 0)"/>
     <use xlink:href="#DejaVuSans-Bold-75" transform="translate(183.740234 0)"/>
     <use xlink:href="#DejaVuSans-Bold-61" transform="translate(254.931641 0)"/>
     <use xlink:href="#DejaVuSans-Bold-6e" transform="translate(322.412109 0)"/>
     <use xlink:href="#DejaVuSans-Bold-74" transform="translate(393.603516 0)"/>
     <use xlink:href="#DejaVuSans-Bold-75" transform="translate(441.40625 0)"/>
     <use xlink:href="#DejaVuSans-Bold-6d" transform="translate(512.597656 0)"/>
    </g>
    <!-- • Visualization -->
    <g transform="translate(788.874188 384.874453) scale(0.09 -0.09)">
     <defs>
      <path id="DejaVuSans-Bold-56" d="M 31 4666
L 1241 4666
L 2478 1222
L 3713 4666
L 4922 4666
L 3194 0
L 1759 0
L 31 4666
z
" transform="scale(0.015625)"/>
      <path id="DejaVuSans-Bold-7a" d="M 366 3500
L 3419 3500
L 3419 2719
L 1575 800
L 3419 800
L 3419 0
L 288 0
L 288 781
L 2131 2700
L 366 2700
L 366 3500
z
" transform="scale(0.015625)"/>
     </defs>
     <use xlink:href="#DejaVuSans-Bold-2022"/>
     <use xlink:href="#DejaVuSans-Bold-20" transform="translate(63.916016 0)"/>
     <use xlink:href="#DejaVuSans-Bold-56" transform="translate(98.730469 0)"/>
     <use xlink:href="#DejaVuSans-Bold-69" transform="translate(174.373047 0)"/>
     <use xlink:href="#DejaVuSans-Bold-73" transform="translate(208.650391 0)"/>
     <use xlink:href="#DejaVuSans-Bold-75" transform="translate(268.171875 0)"/>
     <use xlink:href="#DejaVuSans-Bold-61" transform="translate(339.363281 0)"/>
     <use xlink:href="#DejaVuSans-Bold-6c" transform="translate(406.84375 0)"/>
     <use xlink:href="#DejaVuSans-Bold-69" transform="translate(441.121094 0)"/>
     <use xlink:href="#DejaVuSans-Bold-7a" transform="translate(475.398438 0)"/>
     <use xlink:href="#DejaVuSans-Bold-61" transform="translate(533.601562 0)"/>
     <use xlink:href="#DejaVuSans-Bold-74" transform="translate(601.082031 0)"/>
     <use xlink:href="#DejaVuSans-Bold-69" transform="translate(648.884766 0)"/>
     <use xlink:href="#DejaVuSans-Bold-6f" transform="translate(683.162109 0)"/>
     <use xlink:href="#DejaVuSans-Bold-6e" transform="translate(751.863281 0)"/>
    </g>
    <!-- • Adapters -->
    <g transform="translate(798.407156 394.952484) scale(0.09 -0.09)">
     <defs>
      <path id="DejaVuSans-Bold-64" d="M 2919 2988
L 2919 4863
L 4044 4863
L 4044 0
L 2919 0
L 2919 506
Q 2688 197 2409 53
Q 2131 -91 1766 -91
Q 1119 -91 703 423
Q 288 938 288 1747
Q 288 2556 703 3070
Q 1119 3584 1766 3584
Q 2128 3584 2408 3439
Q 2688 3294 2919 2988
z
M 2181 722
Q 2541 722 2730 984
Q 2919 1247 2919 1747
Q 2919 2247 2730 2509
Q 2541 2772 2181 2772
Q 1825 2772 1636 2509
Q 1447 2247 1447 1747
Q 1447 1247 1636 984
Q 1825 722 2181 722
z
" transform="scale(0.015625)"/>
     </defs>
     <use xlink:href="#DejaVuSans-Bold-2022"/>
     <use xlink:href="#DejaVuSans-Bold-20" transform="translate(63.916016 0)"/>
     <use xlink:href="#DejaVuSans-Bold-41" transform="translate(98.730469 0)"/>
     <use xlink:href="#DejaVuSans-Bold-64" transform="translate(176.123047 0)"/>
     <use xlink:href="#DejaVuSans-Bold-61" transform="translate(247.705078 0)"/>
     <use xlink:href="#DejaVuSans-Bold-70" transform="translate(315.185547 0)"/>
     <use xlink:href="#DejaVuSans-Bold-74" transform="translate(386.767578 0)"/>
     <use xlink:href="#DejaVuSans-Bold-65" transform="translate(434.570312 0)"/>
     <use xlink:href="#DejaVuSans-Bold-72" transform="translate(502.392578 0)"/>
     <use xlink:href="#DejaVuSans-Bold-73" transform="translate(551.708984 0)"/>
    </g>
   </g>
   <g id="text_9">
    <!-- Batch -->
    <g transform="translate(71.623406 500.473266) scale(0.09 -0.09)">
     <use xlink:href="#DejaVuSans-Bold-42"/>
     <use xlink:href="#DejaVuSans-Bold-61" transform="translate(76.220703 0)"/>
     <use xlink:href="#DejaVuSans-Bold-74" transform="translate(143.701172 0)"/>
     <use xlink:href="#DejaVuSans-Bold-63" transform="translate(191.503906 0)"/>
     <use xlink:href="#DejaVuSans-Bold-68" transform="translate(250.78125 0)"/>
    </g>
    <!-- Processing -->
    <g transform="translate(58.4595 510.551297) scale(0.09 -0.09)">
     <use xlink:href="#DejaVuSans-Bold-50"/>
     <use xlink:href="#DejaVuSans-Bold-72" transform="translate(73.291016 0)"/>
     <use xlink:href="#DejaVuSans-Bold-6f" transform="translate(122.607422 0)"/>
     <use xlink:href="#DejaVuSans-Bold-63" transform="translate(191.308594 0)"/>
     <use xlink:href="#DejaVuSans-Bold-65" transform="translate(250.585938 0)"/>
     <use xlink:href="#DejaVuSans-Bold-73" transform="translate(318.408203 0)"/>
     <use xlink:href="#DejaVuSans-Bold-73" transform="translate(377.929688 0)"/>
     <use xlink:href="#DejaVuSans-Bold-69" transform="translate(437.451172 0)"/>
     <use xlink:href="#DejaVuSans-Bold-6e" transform="translate(471.728516 0)"/>
     <use xlink:href="#DejaVuSans-Bold-67" transform="translate(542.919922 0)"/>
    </g>
   </g>
   <g id="text_10">
    <!-- GPU -->
    <g transform="translate(213.561984 500.508422) scale(0.09 -0.09)">
     <defs>
      <path id="DejaVuSans-Bold-47" d="M 4781 347
Q 4331 128 3847 18
Q 3363 -91 2847 -91
Q 1681 -91 1000 561
Q 319 1213 319 2328
Q 319 3456 1012 4103
Q 1706 4750 2913 4750
Q 3378 4750 3804 4662
Q 4231 4575 4609 4403
L 4609 3438
Q 4219 3659 3833 3768
Q 3447 3878 3059 3878
Q 2341 3878 1952 3476
Q 1563 3075 1563 2328
Q 1563 1588 1938 1184
Q 2313 781 3003 781
Q 3191 781 3352 804
Q 3513 828 3641 878
L 3641 1784
L 2906 1784
L 2906 2591
L 4781 2591
L 4781 347
z
" transform="scale(0.015625)"/>
     </defs>
     <use xlink:href="#DejaVuSans-Bold-47"/>
     <use xlink:href="#DejaVuSans-Bold-50" transform="translate(82.080078 0)"/>
     <use xlink:href="#DejaVuSans-Bold-55" transform="translate(155.371094 0)"/>
    </g>
    <!-- Acceleration -->
    <g transform="translate(192.498469 510.586453) scale(0.09 -0.09)">
     <use xlink:href="#DejaVuSans-Bold-41"/>
     <use xlink:href="#DejaVuSans-Bold-63" transform="translate(77.392578 0)"/>
     <use xlink:href="#DejaVuSans-Bold-63" transform="translate(136.669922 0)"/>
     <use xlink:href="#DejaVuSans-Bold-65" transform="translate(195.947266 0)"/>
     <use xlink:href="#DejaVuSans-Bold-6c" transform="translate(263.769531 0)"/>
     <use xlink:href="#DejaVuSans-Bold-65" transform="translate(298.046875 0)"/>
     <use xlink:href="#DejaVuSans-Bold-72" transform="translate(365.869141 0)"/>
     <use xlink:href="#DejaVuSans-Bold-61" transform="translate(415.185547 0)"/>
     <use xlink:href="#DejaVuSans-Bold-74" transform="translate(482.666016 0)"/>
     <use xlink:href="#DejaVuSans-Bold-69" transform="translate(530.46875 0)"/>
     <use xlink:href="#DejaVuSans-Bold-6f" transform="translate(564.746094 0)"/>
     <use xlink:href="#DejaVuSans-Bold-6e" transform="translate(633.447266 0)"/>
    </g>
   </g>
   <g id="text_11">
    <!-- Conversion -->
    <g transform="translate(343.849641 500.508422) scale(0.09 -0.09)">
     <use xlink:href="#DejaVuSans-Bold-43"/>
     <use xlink:href="#DejaVuSans-Bold-6f" transform="translate(73.388672 0)"/>
     <use xlink:href="#DejaVuSans-Bold-6e" transform="translate(142.089844 0)"/>
     <use xlink:href="#DejaVuSans-Bold-76" transform="translate(213.28125 0)"/>
     <use xlink:href="#DejaVuSans-Bold-65" transform="translate(278.466797 0)"/>
     <use xlink:href="#DejaVuSans-Bold-72" transform="translate(346.289062 0)"/>
     <use xlink:href="#DejaVuSans-Bold-73" transform="translate(395.605469 0)"/>
     <use xlink:href="#DejaVuSans-Bold-69" transform="translate(455.126953 0)"/>
     <use xlink:href="#DejaVuSans-Bold-6f" transform="translate(489.404297 0)"/>
     <use xlink:href="#DejaVuSans-Bold-6e" transform="translate(558.105469 0)"/>
    </g>
    <!-- Graph -->
    <g transform="translate(356.794172 510.586453) scale(0.09 -0.09)">
     <use xlink:href="#DejaVuSans-Bold-47"/>
     <use xlink:href="#DejaVuSans-Bold-72" transform="translate(82.080078 0)"/>
     <use xlink:href="#DejaVuSans-Bold-61" transform="translate(131.396484 0)"/>
     <use xlink:href="#DejaVuSans-Bold-70" transform="translate(198.876953 0)"/>
     <use xlink:href="#DejaVuSans-Bold-68" transform="translate(270.458984 0)"/>
    </g>
   </g>
   <g id="text_12">
    <!-- Registry -->
    <g transform="translate(489.0015 500.438109) scale(0.09 -0.09)">
     <use xlink:href="#DejaVuSans-Bold-52"/>
     <use xlink:href="#DejaVuSans-Bold-65" transform="translate(77.001953 0)"/>
     <use xlink:href="#DejaVuSans-Bold-67" transform="translate(144.824219 0)"/>
     <use xlink:href="#DejaVuSans-Bold-69" transform="translate(216.40625 0)"/>
     <use xlink:href="#DejaVuSans-Bold-73" transform="translate(250.683594 0)"/>
     <use xlink:href="#DejaVuSans-Bold-74" transform="translate(310.205078 0)"/>
     <use xlink:href="#DejaVuSans-Bold-72" transform="translate(358.007812 0)"/>
     <use xlink:href="#DejaVuSans-Bold-79" transform="translate(407.324219 0)"/>
    </g>
    <!-- System -->
    <g transform="translate(491.519391 510.586453) scale(0.09 -0.09)">
     <use xlink:href="#DejaVuSans-Bold-53"/>
     <use xlink:href="#DejaVuSans-Bold-79" transform="translate(72.021484 0)"/>
     <use xlink:href="#DejaVuSans-Bold-73" transform="translate(137.207031 0)"/>
     <use xlink:href="#DejaVuSans-Bold-74" transform="translate(196.728516 0)"/>
     <use xlink:href="#DejaVuSans-Bold-65" transform="translate(244.53125 0)"/>
     <use xlink:href="#DejaVuSans-Bold-6d" transform="translate(312.353516 0)"/>
    </g>
   </g>
   <g id="text_13">
    <!-- Fourier -->
    <g transform="translate(640.001813 500.473266) scale(0.09 -0.09)">
     <use xlink:href="#DejaVuSans-Bold-46"/>
     <use xlink:href="#DejaVuSans-Bold-6f" transform="translate(64.310547 0)"/>
     <use xlink:href="#DejaVuSans-Bold-75" transform="translate(133.011719 0)"/>
     <use xlink:href="#DejaVuSans-Bold-72" transform="translate(204.203125 0)"/>
     <use xlink:href="#DejaVuSans-Bold-69" transform="translate(253.519531 0)"/>
     <use xlink:href="#DejaVuSans-Bold-65" transform="translate(287.796875 0)"/>
     <use xlink:href="#DejaVuSans-Bold-72" transform="translate(355.619141 0)"/>
    </g>
    <!-- Analysis -->
    <g transform="translate(637.126031 510.551297) scale(0.09 -0.09)">
     <use xlink:href="#DejaVuSans-Bold-41"/>
     <use xlink:href="#DejaVuSans-Bold-6e" transform="translate(77.392578 0)"/>
     <use xlink:href="#DejaVuSans-Bold-61" transform="translate(148.583984 0)"/>
     <use xlink:href="#DejaVuSans-Bold-6c" transform="translate(216.064453 0)"/>
     <use xlink:href="#DejaVuSans-Bold-79" transform="translate(250.341797 0)"/>
     <use xlink:href="#DejaVuSans-Bold-73" transform="translate(315.527344 0)"/>
     <use xlink:href="#DejaVuSans-Bold-69" transform="translate(375.048828 0)"/>
     <use xlink:href="#DejaVuSans-Bold-73" transform="translate(409.326172 0)"/>
    </g>
   </g>
   <g id="text_14">
    <!-- Property -->
    <g transform="translate(774.134297 500.402953) scale(0.09 -0.09)">
     <use xlink:href="#DejaVuSans-Bold-50"/>
     <use xlink:href="#DejaVuSans-Bold-72" transform="translate(73.291016 0)"/>
     <use xlink:href="#DejaVuSans-Bold-6f" transform="translate(122.607422 0)"/>
     <use xlink:href="#DejaVuSans-Bold-70" transform="translate(191.308594 0)"/>
     <use xlink:href="#DejaVuSans-Bold-65" transform="translate(262.890625 0)"/>
     <use xlink:href="#DejaVuSans-Bold-72" transform="translate(330.712891 0)"/>
     <use xlink:href="#DejaVuSans-Bold-74" transform="translate(380.029297 0)"/>
     <use xlink:href="#DejaVuSans-Bold-79" transform="translate(427.832031 0)"/>
    </g>
    <!-- Testing -->
    <g transform="translate(777.997969 510.551297) scale(0.09 -0.09)">
     <use xlink:href="#DejaVuSans-Bold-54"/>
     <use xlink:href="#DejaVuSans-Bold-65" transform="translate(54.962891 0)"/>
     <use xlink:href="#DejaVuSans-Bold-73" transform="translate(122.785156 0)"/>
     <use xlink:href="#DejaVuSans-Bold-74" transform="translate(182.306641 0)"/>
     <use xlink:href="#DejaVuSans-Bold-69" transform="translate(230.109375 0)"/>
     <use xlink:href="#DejaVuSans-Bold-6e" transform="translate(264.386719 0)"/>
     <use xlink:href="#DejaVuSans-Bold-67" transform="translate(335.578125 0)"/>
    </g>
   </g>
   <g id="text_15">
    <!-- Built-in -->
    <g transform="translate(161.336953 605.268422) scale(0.09 -0.09)">
     <defs>
      <path id="DejaVuSans-Bold-2d" d="M 347 2297
L 2309 2297
L 2309 1388
L 347 1388
L 347 2297
z
" transform="scale(0.015625)"/>
     </defs>
     <use xlink:href="#DejaVuSans-Bold-42"/>
     <use xlink:href="#DejaVuSans-Bold-75" transform="translate(76.220703 0)"/>
     <use xlink:href="#DejaVuSans-Bold-69" transform="translate(147.412109 0)"/>
     <use xlink:href="#DejaVuSans-Bold-6c" transform="translate(181.689453 0)"/>
     <use xlink:href="#DejaVuSans-Bold-74" transform="translate(215.966797 0)"/>
     <use xlink:href="#DejaVuSans-Bold-2d" transform="translate(263.769531 0)"/>
     <use xlink:href="#DejaVuSans-Bold-69" transform="translate(305.273438 0)"/>
     <use xlink:href="#DejaVuSans-Bold-6e" transform="translate(339.550781 0)"/>
    </g>
    <!-- Functions -->
    <g transform="translate(155.229609 615.346453) scale(0.09 -0.09)">
     <use xlink:href="#DejaVuSans-Bold-46"/>
     <use xlink:href="#DejaVuSans-Bold-75" transform="translate(63.310547 0)"/>
     <use xlink:href="#DejaVuSans-Bold-6e" transform="translate(134.501953 0)"/>
     <use xlink:href="#DejaVuSans-Bold-63" transform="translate(205.693359 0)"/>
     <use xlink:href="#DejaVuSans-Bold-74" transform="translate(264.970703 0)"/>
     <use xlink:href="#DejaVuSans-Bold-69" transform="translate(312.773438 0)"/>
     <use xlink:href="#DejaVuSans-Bold-6f" transform="translate(347.050781 0)"/>
     <use xlink:href="#DejaVuSans-Bold-6e" transform="translate(415.751953 0)"/>
     <use xlink:href="#DejaVuSans-Bold-73" transform="translate(486.943359 0)"/>
    </g>
   </g>
   <g id="text_16">
    <!-- Error -->
    <g transform="translate(364.277109 605.268422) scale(0.09 -0.09)">
     <use xlink:href="#DejaVuSans-Bold-45"/>
     <use xlink:href="#DejaVuSans-Bold-72" transform="translate(68.310547 0)"/>
     <use xlink:href="#DejaVuSans-Bold-72" transform="translate(117.626953 0)"/>
     <use xlink:href="#DejaVuSans-Bold-6f" transform="translate(166.943359 0)"/>
     <use xlink:href="#DejaVuSans-Bold-72" transform="translate(235.644531 0)"/>
    </g>
    <!-- Models -->
    <g transform="translate(359.036016 615.346453) scale(0.09 -0.09)">
     <defs>
      <path id="DejaVuSans-Bold-4d" d="M 588 4666
L 2119 4666
L 3181 2169
L 4250 4666
L 5778 4666
L 5778 0
L 4641 0
L 4641 3413
L 3566 897
L 2803 897
L 1728 3413
L 1728 0
L 588 0
L 588 4666
z
" transform="scale(0.015625)"/>
     </defs>
     <use xlink:href="#DejaVuSans-Bold-4d"/>
     <use xlink:href="#DejaVuSans-Bold-6f" transform="translate(99.511719 0)"/>
     <use xlink:href="#DejaVuSans-Bold-64" transform="translate(168.212891 0)"/>
     <use xlink:href="#DejaVuSans-Bold-65" transform="translate(239.794922 0)"/>
     <use xlink:href="#DejaVuSans-Bold-6c" transform="translate(307.617188 0)"/>
     <use xlink:href="#DejaVuSans-Bold-73" transform="translate(341.894531 0)"/>
    </g>
   </g>
   <g id="text_17">
    <!-- Testing -->
    <g transform="translate(556.057969 605.233266) scale(0.09 -0.09)">
     <use xlink:href="#DejaVuSans-Bold-54"/>
     <use xlink:href="#DejaVuSans-Bold-65" transform="translate(54.962891 0)"/>
     <use xlink:href="#DejaVuSans-Bold-73" transform="translate(122.785156 0)"/>
     <use xlink:href="#DejaVuSans-Bold-74" transform="translate(182.306641 0)"/>
     <use xlink:href="#DejaVuSans-Bold-69" transform="translate(230.109375 0)"/>
     <use xlink:href="#DejaVuSans-Bold-6e" transform="translate(264.386719 0)"/>
     <use xlink:href="#DejaVuSans-Bold-67" transform="translate(335.578125 0)"/>
    </g>
    <!-- Framework -->
    <g transform="translate(546.134766 615.381609) scale(0.09 -0.09)">
     <defs>
      <path id="DejaVuSans-Bold-77" d="M 225 3500
L 1313 3500
L 1900 1088
L 2491 3500
L 3425 3500
L 4013 1113
L 4603 3500
L 5691 3500
L 4769 0
L 3547 0
L 2956 2406
L 2369 0
L 1147 0
L 225 3500
z
" transform="scale(0.015625)"/>
      <path id="DejaVuSans-Bold-6b" d="M 538 4863
L 1656 4863
L 1656 2216
L 2944 3500
L 4244 3500
L 2534 1894
L 4378 0
L 3022 0
L 1656 1459
L 1656 0
L 538 0
L 538 4863
z
" transform="scale(0.015625)"/>
     </defs>
     <use xlink:href="#DejaVuSans-Bold-46"/>
     <use xlink:href="#DejaVuSans-Bold-72" transform="translate(61.935547 0)"/>
     <use xlink:href="#DejaVuSans-Bold-61" transform="translate(111.251953 0)"/>
     <use xlink:href="#DejaVuSans-Bold-6d" transform="translate(178.732422 0)"/>
     <use xlink:href="#DejaVuSans-Bold-65" transform="translate(282.931641 0)"/>
     <use xlink:href="#DejaVuSans-Bold-77" transform="translate(350.753906 0)"/>
     <use xlink:href="#DejaVuSans-Bold-6f" transform="translate(443.136719 0)"/>
     <use xlink:href="#DejaVuSans-Bold-72" transform="translate(511.837891 0)"/>
     <use xlink:href="#DejaVuSans-Bold-6b" transform="translate(561.154297 0)"/>
    </g>
   </g>
   <g id="text_18">
    <!-- Utilities -->
    <g transform="translate(751.803047 605.268422) scale(0.09 -0.09)">
     <use xlink:href="#DejaVuSans-Bold-55"/>
     <use xlink:href="#DejaVuSans-Bold-74" transform="translate(81.201172 0)"/>
     <use xlink:href="#DejaVuSans-Bold-69" transform="translate(129.003906 0)"/>
     <use xlink:href="#DejaVuSans-Bold-6c" transform="translate(163.28125 0)"/>
     <use xlink:href="#DejaVuSans-Bold-69" transform="translate(197.558594 0)"/>
     <use xlink:href="#DejaVuSans-Bold-74" transform="translate(231.835938 0)"/>
     <use xlink:href="#DejaVuSans-Bold-69" transform="translate(279.638672 0)"/>
     <use xlink:href="#DejaVuSans-Bold-65" transform="translate(313.916016 0)"/>
     <use xlink:href="#DejaVuSans-Bold-73" transform="translate(381.738281 0)"/>
    </g>
    <!-- &amp; Helpers -->
    <g transform="translate(746.637891 615.346453) scale(0.09 -0.09)">
     <defs>
      <path id="DejaVuSans-Bold-26" d="M 2497 3097
L 3775 1691
Q 3941 1909 4027 2181
Q 4113 2453 4128 2797
L 5100 2797
Q 5053 2228 4879 1784
Q 4706 1341 4397 1006
L 5313 0
L 3988 0
L 3681 341
Q 3353 122 2990 15
Q 2628 -91 2222 -91
Q 1400 -91 892 342
Q 384 775 384 1459
Q 384 1916 607 2267
Q 831 2619 1338 2950
Q 1206 3116 1143 3281
Q 1081 3447 1081 3628
Q 1081 4138 1478 4444
Q 1875 4750 2534 4750
Q 2819 4750 3126 4704
Q 3434 4659 3769 4569
L 3769 3700
Q 3475 3850 3212 3922
Q 2950 3994 2700 3994
Q 2459 3994 2326 3901
Q 2194 3809 2194 3641
Q 2194 3534 2270 3398
Q 2347 3263 2497 3097
z
M 1875 2322
Q 1672 2175 1569 1989
Q 1466 1803 1466 1581
Q 1466 1222 1731 969
Q 1997 716 2369 716
Q 2578 716 2759 780
Q 2941 844 3097 972
L 1875 2322
z
" transform="scale(0.015625)"/>
      <path id="DejaVuSans-Bold-48" d="M 588 4666
L 1791 4666
L 1791 2888
L 3566 2888
L 3566 4666
L 4769 4666
L 4769 0
L 3566 0
L 3566 1978
L 1791 1978
L 1791 0
L 588 0
L 588 4666
z
" transform="scale(0.015625)"/>
     </defs>
     <use xlink:href="#DejaVuSans-Bold-26"/>
     <use xlink:href="#DejaVuSans-Bold-20" transform="translate(87.207031 0)"/>
     <use xlink:href="#DejaVuSans-Bold-48" transform="translate(122.021484 0)"/>
     <use xlink:href="#DejaVuSans-Bold-65" transform="translate(205.712891 0)"/>
     <use xlink:href="#DejaVuSans-Bold-6c" transform="translate(273.535156 0)"/>
     <use xlink:href="#DejaVuSans-Bold-70" transform="translate(307.8125 0)"/>
     <use xlink:href="#DejaVuSans-Bold-65" transform="translate(379.394531 0)"/>
     <use xlink:href="#DejaVuSans-Bold-72" transform="translate(447.216797 0)"/>
     <use xlink:href="#DejaVuSans-Bold-73" transform="translate(496.533203 0)"/>
    </g>
   </g>
   <g id="legend_1">
    <g id="patch_25">
     <path d="M 14.2 88.590625
L 135.785937 88.590625
Q 137.785937 88.590625 137.785937 86.590625
L 137.785937 14.2
Q 137.785937 12.2 135.785937 12.2
L 14.2 12.2
Q 12.2 12.2 12.2 14.2
L 12.2 86.590625
Q 12.2 88.590625 14.2 88.590625
z
" style="fill: #ffffff; opacity: 0.8; stroke: #cccccc; stroke-linejoin: miter"/>
    </g>
    <g id="patch_26">
     <path d="M 16.2 23.798437
L 36.2 23.798437
L 36.2 16.798437
L 16.2 16.798437
z
" style="fill: #e3f2fd; stroke: #e3f2fd; stroke-linejoin: miter"/>
    </g>
    <g id="text_19">
     <!-- API Layer -->
     <g transform="translate(44.2 23.798437) scale(0.1 -0.1)">
      <defs>
       <path id="DejaVuSans-41" d="M 2188 4044
L 1331 1722
L 3047 1722
L 2188 4044
z
M 1831 4666
L 2547 4666
L 4325 0
L 3669 0
L 3244 1197
L 1141 1197
L 716 0
L 50 0
L 1831 4666
z
" transform="scale(0.015625)"/>
       <path id="DejaVuSans-50" d="M 1259 4147
L 1259 2394
L 2053 2394
Q 2494 2394 2734 2622
Q 2975 2850 2975 3272
Q 2975 3691 2734 3919
Q 2494 4147 2053 4147
L 1259 4147
z
M 628 4666
L 2053 4666
Q 2838 4666 3239 4311
Q 3641 3956 3641 3272
Q 3641 2581 3239 2228
Q 2838 1875 2053 1875
L 1259 1875
L 1259 0
L 628 0
L 628 4666
z
" transform="scale(0.015625)"/>
       <path id="DejaVuSans-49" d="M 628 4666
L 1259 4666
L 1259 0
L 628 0
L 628 4666
z
" transform="scale(0.015625)"/>
       <path id="DejaVuSans-20" transform="scale(0.015625)"/>
       <path id="DejaVuSans-4c" d="M 628 4666
L 1259 4666
L 1259 531
L 3531 531
L 3531 0
L 628 0
L 628 4666
z
" transform="scale(0.015625)"/>
       <path id="DejaVuSans-61" d="M 2194 1759
Q 1497 1759 1228 1600
Q 959 1441 959 1056
Q 959 750 1161 570
Q 1363 391 1709 391
Q 2188 391 2477 730
Q 2766 1069 2766 1631
L 2766 1759
L 2194 1759
z
M 3341 1997
L 3341 0
L 2766 0
L 2766 531
Q 2569 213 2275 61
Q 1981 -91 1556 -91
Q 1019 -91 701 211
Q 384 513 384 1019
Q 384 1609 779 1909
Q 1175 2209 1959 2209
L 2766 2209
L 2766 2266
Q 2766 2663 2505 2880
Q 2244 3097 1772 3097
Q 1472 3097 1187 3025
Q 903 2953 641 2809
L 641 3341
Q 956 3463 1253 3523
Q 1550 3584 1831 3584
Q 2591 3584 2966 3190
Q 3341 2797 3341 1997
z
" transform="scale(0.015625)"/>
       <path id="DejaVuSans-79" d="M 2059 -325
Q 1816 -950 1584 -1140
Q 1353 -1331 966 -1331
L 506 -1331
L 506 -850
L 844 -850
Q 1081 -850 1212 -737
Q 1344 -625 1503 -206
L 1606 56
L 191 3500
L 800 3500
L 1894 763
L 2988 3500
L 3597 3500
L 2059 -325
z
" transform="scale(0.015625)"/>
       <path id="DejaVuSans-65" d="M 3597 1894
L 3597 1613
L 953 1613
Q 991 1019 1311 708
Q 1631 397 2203 397
Q 2534 397 2845 478
Q 3156 559 3463 722
L 3463 178
Q 3153 47 2828 -22
Q 2503 -91 2169 -91
Q 1331 -91 842 396
Q 353 884 353 1716
Q 353 2575 817 3079
Q 1281 3584 2069 3584
Q 2775 3584 3186 3129
Q 3597 2675 3597 1894
z
M 3022 2063
Q 3016 2534 2758 2815
Q 2500 3097 2075 3097
Q 1594 3097 1305 2825
Q 1016 2553 972 2059
L 3022 2063
z
" transform="scale(0.015625)"/>
       <path id="DejaVuSans-72" d="M 2631 2963
Q 2534 3019 2420 3045
Q 2306 3072 2169 3072
Q 1681 3072 1420 2755
Q 1159 2438 1159 1844
L 1159 0
L 581 0
L 581 3500
L 1159 3500
L 1159 2956
Q 1341 3275 1631 3429
Q 1922 3584 2338 3584
Q 2397 3584 2469 3576
Q 2541 3569 2628 3553
L 2631 2963
z
" transform="scale(0.015625)"/>
      </defs>
      <use xlink:href="#DejaVuSans-41"/>
      <use xlink:href="#DejaVuSans-50" transform="translate(68.408203 0)"/>
      <use xlink:href="#DejaVuSans-49" transform="translate(128.710938 0)"/>
      <use xlink:href="#DejaVuSans-20" transform="translate(158.203125 0)"/>
      <use xlink:href="#DejaVuSans-4c" transform="translate(189.990234 0)"/>
      <use xlink:href="#DejaVuSans-61" transform="translate(245.703125 0)"/>
      <use xlink:href="#DejaVuSans-79" transform="translate(306.982422 0)"/>
      <use xlink:href="#DejaVuSans-65" transform="translate(366.162109 0)"/>
      <use xlink:href="#DejaVuSans-72" transform="translate(427.685547 0)"/>
     </g>
    </g>
    <g id="patch_27">
     <path d="M 16.2 38.476562
L 36.2 38.476562
L 36.2 31.476562
L 16.2 31.476562
z
" style="fill: #fff3e0; stroke: #fff3e0; stroke-linejoin: miter"/>
    </g>
    <g id="text_20">
     <!-- Core Components -->
     <g transform="translate(44.2 38.476562) scale(0.1 -0.1)">
      <defs>
       <path id="DejaVuSans-43" d="M 4122 4306
L 4122 3641
Q 3803 3938 3442 4084
Q 3081 4231 2675 4231
Q 1875 4231 1450 3742
Q 1025 3253 1025 2328
Q 1025 1406 1450 917
Q 1875 428 2675 428
Q 3081 428 3442 575
Q 3803 722 4122 1019
L 4122 359
Q 3791 134 3420 21
Q 3050 -91 2638 -91
Q 1578 -91 968 557
Q 359 1206 359 2328
Q 359 3453 968 4101
Q 1578 4750 2638 4750
Q 3056 4750 3426 4639
Q 3797 4528 4122 4306
z
" transform="scale(0.015625)"/>
       <path id="DejaVuSans-6f" d="M 1959 3097
Q 1497 3097 1228 2736
Q 959 2375 959 1747
Q 959 1119 1226 758
Q 1494 397 1959 397
Q 2419 397 2687 759
Q 2956 1122 2956 1747
Q 2956 2369 2687 2733
Q 2419 3097 1959 3097
z
M 1959 3584
Q 2709 3584 3137 3096
Q 3566 2609 3566 1747
Q 3566 888 3137 398
Q 2709 -91 1959 -91
Q 1206 -91 779 398
Q 353 888 353 1747
Q 353 2609 779 3096
Q 1206 3584 1959 3584
z
" transform="scale(0.015625)"/>
       <path id="DejaVuSans-6d" d="M 3328 2828
Q 3544 3216 3844 3400
Q 4144 3584 4550 3584
Q 5097 3584 5394 3201
Q 5691 2819 5691 2113
L 5691 0
L 5113 0
L 5113 2094
Q 5113 2597 4934 2840
Q 4756 3084 4391 3084
Q 3944 3084 3684 2787
Q 3425 2491 3425 1978
L 3425 0
L 2847 0
L 2847 2094
Q 2847 2600 2669 2842
Q 2491 3084 2119 3084
Q 1678 3084 1418 2786
Q 1159 2488 1159 1978
L 1159 0
L 581 0
L 581 3500
L 1159 3500
L 1159 2956
Q 1356 3278 1631 3431
Q 1906 3584 2284 3584
Q 2666 3584 2933 3390
Q 3200 3197 3328 2828
z
" transform="scale(0.015625)"/>
       <path id="DejaVuSans-70" d="M 1159 525
L 1159 -1331
L 581 -1331
L 581 3500
L 1159 3500
L 1159 2969
Q 1341 3281 1617 3432
Q 1894 3584 2278 3584
Q 2916 3584 3314 3078
Q 3713 2572 3713 1747
Q 3713 922 3314 415
Q 2916 -91 2278 -91
Q 1894 -91 1617 61
Q 1341 213 1159 525
z
M 3116 1747
Q 3116 2381 2855 2742
Q 2594 3103 2138 3103
Q 1681 3103 1420 2742
Q 1159 2381 1159 1747
Q 1159 1113 1420 752
Q 1681 391 2138 391
Q 2594 391 2855 752
Q 3116 1113 3116 1747
z
" transform="scale(0.015625)"/>
       <path id="DejaVuSans-6e" d="M 3513 2113
L 3513 0
L 2938 0
L 2938 2094
Q 2938 2591 2744 2837
Q 2550 3084 2163 3084
Q 1697 3084 1428 2787
Q 1159 2491 1159 1978
L 1159 0
L 581 0
L 581 3500
L 1159 3500
L 1159 2956
Q 1366 3272 1645 3428
Q 1925 3584 2291 3584
Q 2894 3584 3203 3211
Q 3513 2838 3513 2113
z
" transform="scale(0.015625)"/>
       <path id="DejaVuSans-74" d="M 1172 4494
L 1172 3500
L 2356 3500
L 2356 3053
L 1172 3053
L 1172 1153
Q 1172 725 1289 603
Q 1406 481 1766 481
L 2356 481
L 2356 0
L 1766 0
Q 1100 0 847 248
Q 594 497 594 1153
L 594 3053
L 172 3053
L 172 3500
L 594 3500
L 594 4494
L 1172 4494
z
" transform="scale(0.015625)"/>
       <path id="DejaVuSans-73" d="M 2834 3397
L 2834 2853
Q 2591 2978 2328 3040
Q 2066 3103 1784 3103
Q 1356 3103 1142 2972
Q 928 2841 928 2578
Q 928 2378 1081 2264
Q 1234 2150 1697 2047
L 1894 2003
Q 2506 1872 2764 1633
Q 3022 1394 3022 966
Q 3022 478 2636 193
Q 2250 -91 1575 -91
Q 1294 -91 989 -36
Q 684 19 347 128
L 347 722
Q 666 556 975 473
Q 1284 391 1588 391
Q 1994 391 2212 530
Q 2431 669 2431 922
Q 2431 1156 2273 1281
Q 2116 1406 1581 1522
L 1381 1569
Q 847 1681 609 1914
Q 372 2147 372 2553
Q 372 3047 722 3315
Q 1072 3584 1716 3584
Q 2034 3584 2315 3537
Q 2597 3491 2834 3397
z
" transform="scale(0.015625)"/>
      </defs>
      <use xlink:href="#DejaVuSans-43"/>
      <use xlink:href="#DejaVuSans-6f" transform="translate(69.824219 0)"/>
      <use xlink:href="#DejaVuSans-72" transform="translate(131.005859 0)"/>
      <use xlink:href="#DejaVuSans-65" transform="translate(169.869141 0)"/>
      <use xlink:href="#DejaVuSans-20" transform="translate(231.392578 0)"/>
      <use xlink:href="#DejaVuSans-43" transform="translate(263.179688 0)"/>
      <use xlink:href="#DejaVuSans-6f" transform="translate(333.003906 0)"/>
      <use xlink:href="#DejaVuSans-6d" transform="translate(394.185547 0)"/>
      <use xlink:href="#DejaVuSans-70" transform="translate(491.597656 0)"/>
      <use xlink:href="#DejaVuSans-6f" transform="translate(555.074219 0)"/>
      <use xlink:href="#DejaVuSans-6e" transform="translate(616.255859 0)"/>
      <use xlink:href="#DejaVuSans-65" transform="translate(679.634766 0)"/>
      <use xlink:href="#DejaVuSans-6e" transform="translate(741.158203 0)"/>
      <use xlink:href="#DejaVuSans-74" transform="translate(804.537109 0)"/>
      <use xlink:href="#DejaVuSans-73" transform="translate(843.746094 0)"/>
     </g>
    </g>
    <g id="patch_28">
     <path d="M 16.2 53.154688
L 36.2 53.154688
L 36.2 46.154688
L 16.2 46.154688
z
" style="fill: #e8f5e8; stroke: #e8f5e8; stroke-linejoin: miter"/>
    </g>
    <g id="text_21">
     <!-- Representations -->
     <g transform="translate(44.2 53.154688) scale(0.1 -0.1)">
      <defs>
       <path id="DejaVuSans-52" d="M 2841 2188
Q 3044 2119 3236 1894
Q 3428 1669 3622 1275
L 4263 0
L 3584 0
L 2988 1197
Q 2756 1666 2539 1819
Q 2322 1972 1947 1972
L 1259 1972
L 1259 0
L 628 0
L 628 4666
L 2053 4666
Q 2853 4666 3247 4331
Q 3641 3997 3641 3322
Q 3641 2881 3436 2590
Q 3231 2300 2841 2188
z
M 1259 4147
L 1259 2491
L 2053 2491
Q 2509 2491 2742 2702
Q 2975 2913 2975 3322
Q 2975 3731 2742 3939
Q 2509 4147 2053 4147
L 1259 4147
z
" transform="scale(0.015625)"/>
       <path id="DejaVuSans-69" d="M 603 3500
L 1178 3500
L 1178 0
L 603 0
L 603 3500
z
M 603 4863
L 1178 4863
L 1178 4134
L 603 4134
L 603 4863
z
" transform="scale(0.015625)"/>
      </defs>
      <use xlink:href="#DejaVuSans-52"/>
      <use xlink:href="#DejaVuSans-65" transform="translate(64.982422 0)"/>
      <use xlink:href="#DejaVuSans-70" transform="translate(126.505859 0)"/>
      <use xlink:href="#DejaVuSans-72" transform="translate(189.982422 0)"/>
      <use xlink:href="#DejaVuSans-65" transform="translate(228.845703 0)"/>
      <use xlink:href="#DejaVuSans-73" transform="translate(290.369141 0)"/>
      <use xlink:href="#DejaVuSans-65" transform="translate(342.46875 0)"/>
      <use xlink:href="#DejaVuSans-6e" transform="translate(403.992188 0)"/>
      <use xlink:href="#DejaVuSans-74" transform="translate(467.371094 0)"/>
      <use xlink:href="#DejaVuSans-61" transform="translate(506.580078 0)"/>
      <use xlink:href="#DejaVuSans-74" transform="translate(567.859375 0)"/>
      <use xlink:href="#DejaVuSans-69" transform="translate(607.068359 0)"/>
      <use xlink:href="#DejaVuSans-6f" transform="translate(634.851562 0)"/>
      <use xlink:href="#DejaVuSans-6e" transform="translate(696.033203 0)"/>
      <use xlink:href="#DejaVuSans-73" transform="translate(759.412109 0)"/>
     </g>
    </g>
    <g id="patch_29">
     <path d="M 16.2 67.832812
L 36.2 67.832812
L 36.2 60.832812
L 16.2 60.832812
z
" style="fill: #fce4ec; stroke: #fce4ec; stroke-linejoin: miter"/>
    </g>
    <g id="text_22">
     <!-- Analysis Tools -->
     <g transform="translate(44.2 67.832812) scale(0.1 -0.1)">
      <defs>
       <path id="DejaVuSans-6c" d="M 603 4863
L 1178 4863
L 1178 0
L 603 0
L 603 4863
z
" transform="scale(0.015625)"/>
       <path id="DejaVuSans-54" d="M -19 4666
L 3928 4666
L 3928 4134
L 2272 4134
L 2272 0
L 1638 0
L 1638 4134
L -19 4134
L -19 4666
z
" transform="scale(0.015625)"/>
      </defs>
      <use xlink:href="#DejaVuSans-41"/>
      <use xlink:href="#DejaVuSans-6e" transform="translate(68.408203 0)"/>
      <use xlink:href="#DejaVuSans-61" transform="translate(131.787109 0)"/>
      <use xlink:href="#DejaVuSans-6c" transform="translate(193.066406 0)"/>
      <use xlink:href="#DejaVuSans-79" transform="translate(220.849609 0)"/>
      <use xlink:href="#DejaVuSans-73" transform="translate(280.029297 0)"/>
      <use xlink:href="#DejaVuSans-69" transform="translate(332.128906 0)"/>
      <use xlink:href="#DejaVuSans-73" transform="translate(359.912109 0)"/>
      <use xlink:href="#DejaVuSans-20" transform="translate(412.011719 0)"/>
      <use xlink:href="#DejaVuSans-54" transform="translate(443.798828 0)"/>
      <use xlink:href="#DejaVuSans-6f" transform="translate(487.882812 0)"/>
      <use xlink:href="#DejaVuSans-6f" transform="translate(549.064453 0)"/>
      <use xlink:href="#DejaVuSans-6c" transform="translate(610.246094 0)"/>
      <use xlink:href="#DejaVuSans-73" transform="translate(638.029297 0)"/>
     </g>
    </g>
    <g id="patch_30">
     <path d="M 16.2 82.510937
L 36.2 82.510937
L 36.2 75.510937
L 16.2 75.510937
z
" style="fill: #f1f8e9; stroke: #f1f8e9; stroke-linejoin: miter"/>
    </g>
    <g id="text_23">
     <!-- Extensions -->
     <g transform="translate(44.2 82.510937) scale(0.1 -0.1)">
      <defs>
       <path id="DejaVuSans-45" d="M 628 4666
L 3578 4666
L 3578 4134
L 1259 4134
L 1259 2753
L 3481 2753
L 3481 2222
L 1259 2222
L 1259 531
L 3634 531
L 3634 0
L 628 0
L 628 4666
z
" transform="scale(0.015625)"/>
       <path id="DejaVuSans-78" d="M 3513 3500
L 2247 1797
L 3578 0
L 2900 0
L 1881 1375
L 863 0
L 184 0
L 1544 1831
L 300 3500
L 978 3500
L 1906 2253
L 2834 3500
L 3513 3500
z
" transform="scale(0.015625)"/>
      </defs>
      <use xlink:href="#DejaVuSans-45"/>
      <use xlink:href="#DejaVuSans-78" transform="translate(63.183594 0)"/>
      <use xlink:href="#DejaVuSans-74" transform="translate(122.363281 0)"/>
      <use xlink:href="#DejaVuSans-65" transform="translate(161.572266 0)"/>
      <use xlink:href="#DejaVuSans-6e" transform="translate(223.095703 0)"/>
      <use xlink:href="#DejaVuSans-73" transform="translate(286.474609 0)"/>
      <use xlink:href="#DejaVuSans-69" transform="translate(338.574219 0)"/>
      <use xlink:href="#DejaVuSans-6f" transform="translate(366.357422 0)"/>
      <use xlink:href="#DejaVuSans-6e" transform="translate(427.539062 0)"/>
      <use xlink:href="#DejaVuSans-73" transform="translate(490.917969 0)"/>
     </g>
    </g>
   </g>
  </g>
 </g>
 <defs>
  <clipPath id="p1c9b665558">
   <rect x="7.2" y="7.2" width="986.4" height="698.4"/>
  </clipPath>
 </defs>
</svg>
