<svg xmlns="http://www.w3.org/2000/svg" viewBox="0 0 32 32">
  <!-- Background circle -->
  <circle cx="16" cy="16" r="15" fill="#f5f5f5" stroke="#333" stroke-width="1"/>
  
  <!-- Zebra stripes pattern -->
  <g fill="#1a1a1a">
    <!-- Diagonal stripes -->
    <path d="M4 8 L8 4 L10 4 L4 10 Z"/>
    <path d="M4 14 L14 4 L16 4 L4 16 Z"/>
    <path d="M4 20 L20 4 L22 4 L4 22 Z"/>
    <path d="M4 26 L26 4 L28 4 L6 28 L4 28 Z"/>
    <path d="M10 28 L28 10 L28 12 L12 28 Z"/>
    <path d="M16 28 L28 16 L28 18 L18 28 Z"/>
    <path d="M22 28 L28 22 L28 24 L24 28 Z"/>
  </g>
  
  <!-- Z letter overlay -->
  <text x="16" y="22" font-family="system-ui, -apple-system, sans-serif" font-size="16" font-weight="bold" fill="#6b46c1" text-anchor="middle">Z</text>
</svg>

