<svg xmlns="http://www.w3.org/2000/svg" viewBox="0 0 450 116" width="450" height="116">
  <g fill="#1f2328" stroke="#1f2328">
    <rect x="10" y="10" width="10" height="16"/><rect x="20" y="10" width="10" height="16"/><path d="M30,19.6 H36.0 V26" stroke-width="3" fill="none"/><rect x="60" y="10" width="10" height="16"/><rect x="70" y="10" width="10" height="16"/><path d="M80,19.6 H86.0 V26" stroke-width="3" fill="none"/><rect x="100" y="10" width="10" height="16"/><rect x="110" y="10" width="10" height="16"/><rect x="120" y="10" width="10" height="16"/><rect x="130" y="10" width="10" height="16"/><rect x="140" y="10" width="10" height="16"/><path d="M150,19.6 H156.0 V26" stroke-width="3" fill="none"/><rect x="180" y="10" width="10" height="16"/><rect x="190" y="10" width="10" height="16"/><rect x="200" y="10" width="10" height="16"/><rect x="210" y="10" width="10" height="16"/><rect x="220" y="10" width="10" height="16"/><rect x="230" y="10" width="10" height="16"/><path d="M240,19.6 H246.0 V26" stroke-width="3" fill="none"/><rect x="270" y="10" width="10" height="16"/><rect x="280" y="10" width="10" height="16"/><rect x="290" y="10" width="10" height="16"/><rect x="300" y="10" width="10" height="16"/><rect x="310" y="10" width="10" height="16"/><path d="M320,19.6 H326.0 V26" stroke-width="3" fill="none"/><rect x="340" y="10" width="10" height="16"/><rect x="350" y="10" width="10" height="16"/><rect x="360" y="10" width="10" height="16"/><path d="M370,19.6 H376.0 V26" stroke-width="3" fill="none"/><rect x="410" y="10" width="10" height="16"/><rect x="420" y="10" width="10" height="16"/><path d="M430,19.6 H436.0 V26" stroke-width="3" fill="none"/><rect x="10" y="26" width="10" height="16"/><rect x="20" y="26" width="10" height="16"/><rect x="33.0" y="26" width="4.0" height="16"/><rect x="50" y="26" width="10" height="16"/><rect x="60" y="26" width="10" height="16"/><path d="M80,35.6 H74.0 V42" stroke-width="3" fill="none"/><path d="M86.0,26 V32.4 H80" stroke-width="3" fill="none"/><rect x="90" y="26" width="10" height="16"/><rect x="100" y="26" width="10" height="16"/><path d="M120,35.6 H114.0 V42" stroke-width="3" fill="none"/><rect x="120" y="31.6" width="10" height="4.8"/><rect x="130" y="31.6" width="10" height="4.8"/><rect x="140" y="26" width="10" height="16"/><rect x="150" y="26" width="10" height="16"/><path d="M160,35.6 H166.0 V42" stroke-width="3" fill="none"/><rect x="170" y="26" width="10" height="16"/><rect x="180" y="26" width="10" height="16"/><path d="M200,35.6 H194.0 V42" stroke-width="3" fill="none"/><rect x="200" y="31.6" width="10" height="4.8"/><rect x="210" y="31.6" width="10" height="4.8"/><rect x="220" y="31.6" width="10" height="4.8"/><rect x="230" y="31.6" width="10" height="4.8"/><path d="M246.0,26 V32.4 H240" stroke-width="3" fill="none"/><rect x="260" y="26" width="10" height="16"/><rect x="270" y="26" width="10" height="16"/><path d="M290,35.6 H284.0 V42" stroke-width="3" fill="none"/><rect x="290" y="31.6" width="10" height="4.8"/><rect x="300" y="31.6" width="10" height="4.8"/><rect x="310" y="26" width="10" height="16"/><rect x="320" y="26" width="10" height="16"/><path d="M330,35.6 H336.0 V42" stroke-width="3" fill="none"/><rect x="340" y="26" width="10" height="16"/><rect x="350" y="26" width="10" height="16"/><rect x="360" y="26" width="10" height="16"/><rect x="370" y="26" width="10" height="16"/><path d="M380,35.6 H386.0 V42" stroke-width="3" fill="none"/><rect x="410" y="26" width="10" height="16"/><rect x="420" y="26" width="10" height="16"/><rect x="433.0" y="26" width="4.0" height="16"/><rect x="10" y="42" width="10" height="16"/><rect x="20" y="42" width="10" height="16"/><rect x="30" y="42" width="10" height="16"/><rect x="40" y="42" width="10" height="16"/><rect x="50" y="42" width="10" height="16"/><path d="M70,51.6 H64.0 V58" stroke-width="3" fill="none"/><path d="M76.0,42 V48.4 H70" stroke-width="3" fill="none"/><rect x="90" y="42" width="10" height="16"/><rect x="100" y="42" width="10" height="16"/><rect x="110" y="42" width="10" height="16"/><rect x="120" y="42" width="10" height="16"/><rect x="130" y="42" width="10" height="16"/><rect x="140" y="42" width="10" height="16"/><rect x="150" y="42" width="10" height="16"/><rect x="163.0" y="42" width="4.0" height="16"/><rect x="170" y="42" width="10" height="16"/><rect x="180" y="42" width="10" height="16"/><rect x="193.0" y="42" width="4.0" height="16"/><rect x="220" y="42" width="10" height="16"/><rect x="230" y="42" width="10" height="16"/><rect x="240" y="42" width="10" height="16"/><path d="M250,51.6 H256.0 V58" stroke-width="3" fill="none"/><rect x="260" y="42" width="10" height="16"/><rect x="270" y="42" width="10" height="16"/><rect x="280" y="42" width="10" height="16"/><rect x="290" y="42" width="10" height="16"/><rect x="300" y="42" width="10" height="16"/><rect x="310" y="42" width="10" height="16"/><rect x="320" y="42" width="10" height="16"/><rect x="333.0" y="42" width="4.0" height="16"/><rect x="340" y="42" width="10" height="16"/><rect x="350" y="42" width="10" height="16"/><path d="M370,51.6 H364.0 V58" stroke-width="3" fill="none"/><rect x="370" y="42" width="10" height="16"/><rect x="380" y="42" width="10" height="16"/><path d="M390,51.6 H396.0 V58" stroke-width="3" fill="none"/><rect x="410" y="42" width="10" height="16"/><rect x="420" y="42" width="10" height="16"/><rect x="433.0" y="42" width="4.0" height="16"/><rect x="10" y="58" width="10" height="16"/><rect x="20" y="58" width="10" height="16"/><path d="M40,67.6 H34.0 V74" stroke-width="3" fill="none"/><rect x="40" y="63.6" width="10" height="4.8"/><rect x="50" y="58" width="10" height="16"/><rect x="60" y="58" width="10" height="16"/><path d="M70,67.6 H76.0 V74" stroke-width="3" fill="none"/><rect x="90" y="58" width="10" height="16"/><rect x="100" y="58" width="10" height="16"/><path d="M120,67.6 H114.0 V74" stroke-width="3" fill="none"/><rect x="120" y="63.6" width="10" height="4.8"/><rect x="130" y="63.6" width="10" height="4.8"/><rect x="140" y="58" width="10" height="16"/><rect x="150" y="58" width="10" height="16"/><rect x="163.0" y="58" width="4.0" height="16"/><rect x="170" y="58" width="10" height="16"/><rect x="180" y="58" width="10" height="16"/><rect x="193.0" y="58" width="4.0" height="16"/><rect x="230" y="58" width="10" height="16"/><rect x="240" y="58" width="10" height="16"/><rect x="253.0" y="58" width="4.0" height="16"/><rect x="260" y="58" width="10" height="16"/><rect x="270" y="58" width="10" height="16"/><path d="M290,67.6 H284.0 V74" stroke-width="3" fill="none"/><rect x="290" y="63.6" width="10" height="4.8"/><rect x="300" y="63.6" width="10" height="4.8"/><rect x="310" y="58" width="10" height="16"/><rect x="320" y="58" width="10" height="16"/><rect x="333.0" y="58" width="4.0" height="16"/><rect x="340" y="58" width="10" height="16"/><rect x="350" y="58" width="10" height="16"/><rect x="363.0" y="58" width="4.0" height="16"/><path d="M374.0,58 V64.4 H380" stroke-width="3" fill="none"/><rect x="380" y="58" width="10" height="16"/><rect x="390" y="58" width="10" height="16"/><path d="M400,67.6 H406.0 V74" stroke-width="3" fill="none"/><rect x="410" y="58" width="10" height="16"/><rect x="420" y="58" width="10" height="16"/><rect x="433.0" y="58" width="4.0" height="16"/><rect x="10" y="74" width="10" height="16"/><rect x="20" y="74" width="10" height="16"/><rect x="33.0" y="74" width="4.0" height="16"/><rect x="60" y="74" width="10" height="16"/><rect x="70" y="74" width="10" height="16"/><path d="M80,83.6 H86.0 V90" stroke-width="3" fill="none"/><rect x="90" y="74" width="10" height="16"/><rect x="100" y="74" width="10" height="16"/><rect x="113.0" y="74" width="4.0" height="16"/><rect x="140" y="74" width="10" height="16"/><rect x="150" y="74" width="10" height="16"/><rect x="163.0" y="74" width="4.0" height="16"/><path d="M174.0,74 V80.4 H180" stroke-width="3" fill="none"/><rect x="180" y="74" width="10" height="16"/><rect x="190" y="74" width="10" height="16"/><rect x="200" y="74" width="10" height="16"/><rect x="210" y="74" width="10" height="16"/><rect x="220" y="74" width="10" height="16"/><rect x="230" y="74" width="10" height="16"/><path d="M250,83.6 H244.0 V90" stroke-width="3" fill="none"/><path d="M256.0,74 V80.4 H250" stroke-width="3" fill="none"/><rect x="260" y="74" width="10" height="16"/><rect x="270" y="74" width="10" height="16"/><rect x="283.0" y="74" width="4.0" height="16"/><rect x="310" y="74" width="10" height="16"/><rect x="320" y="74" width="10" height="16"/><rect x="333.0" y="74" width="4.0" height="16"/><rect x="340" y="74" width="10" height="16"/><rect x="350" y="74" width="10" height="16"/><rect x="363.0" y="74" width="4.0" height="16"/><path d="M384.0,74 V80.4 H390" stroke-width="3" fill="none"/><rect x="390" y="74" width="10" height="16"/><rect x="400" y="74" width="10" height="16"/><rect x="410" y="74" width="10" height="16"/><rect x="420" y="74" width="10" height="16"/><rect x="433.0" y="74" width="4.0" height="16"/><path d="M14.0,90 V96.4 H20" stroke-width="3" fill="none"/><rect x="20" y="95.6" width="10" height="4.8"/><path d="M36.0,90 V96.4 H30" stroke-width="3" fill="none"/><path d="M64.0,90 V96.4 H70" stroke-width="3" fill="none"/><rect x="70" y="95.6" width="10" height="4.8"/><path d="M86.0,90 V96.4 H80" stroke-width="3" fill="none"/><path d="M94.0,90 V96.4 H100" stroke-width="3" fill="none"/><rect x="100" y="95.6" width="10" height="4.8"/><path d="M116.0,90 V96.4 H110" stroke-width="3" fill="none"/><path d="M144.0,90 V96.4 H150" stroke-width="3" fill="none"/><rect x="150" y="95.6" width="10" height="4.8"/><path d="M166.0,90 V96.4 H160" stroke-width="3" fill="none"/><path d="M184.0,90 V96.4 H190" stroke-width="3" fill="none"/><rect x="190" y="95.6" width="10" height="4.8"/><rect x="200" y="95.6" width="10" height="4.8"/><rect x="210" y="95.6" width="10" height="4.8"/><rect x="220" y="95.6" width="10" height="4.8"/><rect x="230" y="95.6" width="10" height="4.8"/><path d="M246.0,90 V96.4 H240" stroke-width="3" fill="none"/><path d="M264.0,90 V96.4 H270" stroke-width="3" fill="none"/><rect x="270" y="95.6" width="10" height="4.8"/><path d="M286.0,90 V96.4 H280" stroke-width="3" fill="none"/><path d="M314.0,90 V96.4 H320" stroke-width="3" fill="none"/><rect x="320" y="95.6" width="10" height="4.8"/><path d="M336.0,90 V96.4 H330" stroke-width="3" fill="none"/><path d="M344.0,90 V96.4 H350" stroke-width="3" fill="none"/><rect x="350" y="95.6" width="10" height="4.8"/><path d="M366.0,90 V96.4 H360" stroke-width="3" fill="none"/><path d="M394.0,90 V96.4 H400" stroke-width="3" fill="none"/><rect x="400" y="95.6" width="10" height="4.8"/><rect x="410" y="95.6" width="10" height="4.8"/><rect x="420" y="95.6" width="10" height="4.8"/><path d="M436.0,90 V96.4 H430" stroke-width="3" fill="none"/>
  </g>
</svg>
