<svg version="1.1" id="Layer_1" xmlns="http://www.w3.org/2000/svg" xmlns:xlink="http://www.w3.org/1999/xlink" x="0px" y="0px"
	 width="100%" viewBox="0 0 528 528" enable-background="new 0 0 528 528" xml:space="preserve">
<path fill="#FFFFFF" opacity="1.000000" stroke="none" 
	d="
M487.321228,268.020416 
	C488.347015,304.603485 481.450348,339.033386 465.610931,371.554779 
	C452.675995,398.112701 434.875122,421.047913 412.825684,440.581757 
	C382.633820,467.329041 347.791290,485.300262 308.030304,492.486877 
	C241.782135,504.460876 181.060593,491.249634 126.731178,450.731232 
	C115.452469,442.319702 105.292938,432.748840 96.033508,422.220032 
	C93.713486,419.582001 92.130432,418.903961 89.127213,421.289734 
	C85.611549,424.082581 81.526215,426.090759 76.845032,426.364105 
	C66.492874,426.968567 60.457882,421.124725 60.728291,410.754822 
	C60.753571,409.785400 60.731651,408.814728 60.731651,407.938477 
	C60.268181,407.673157 59.994682,407.385406 59.708237,407.371857 
	C53.501812,407.078857 48.083858,405.340820 45.732731,398.889771 
	C43.328449,392.292816 44.435402,386.155609 48.747353,380.562561 
	C51.937424,376.424683 56.210358,373.510803 60.493019,370.198608 
	C56.157150,359.433685 51.613167,348.905182 48.317394,337.906219 
	C40.645691,312.303528 37.603489,286.300049 39.421642,259.524536 
	C42.133999,219.580261 54.907223,183.303558 78.049072,150.881027 
	C108.399925,108.358444 148.791580,79.558907 199.045929,64.730186 
	C224.228561,57.299469 249.965073,54.160892 276.055756,55.897381 
	C338.401794,60.046879 391.047974,84.831009 432.770844,131.744980 
	C460.944794,163.424332 478.304810,200.322678 484.904480,242.212540 
	C486.223480,250.584534 487.447937,258.998566 487.321228,268.020416 
M242.867050,136.331375 
	C261.072266,123.045303 281.378845,117.572227 303.681091,120.888771 
	C321.521881,123.541855 336.291901,131.325409 344.494110,148.484253 
	C345.602112,150.802170 347.622406,151.208771 349.785858,151.641739 
	C360.069214,153.699738 369.480164,157.961990 378.024017,163.878433 
	C389.308075,171.692429 397.123108,182.126556 400.455811,195.749634 
	C399.643219,196.076202 399.198975,196.402985 398.753235,196.405045 
	C397.590729,196.410461 396.409912,196.375671 395.267212,196.178406 
	C373.398529,192.403259 351.546112,193.595688 329.561432,195.411850 
	C319.878448,196.211777 315.699249,200.958755 313.530609,209.246170 
	C313.446259,209.568512 313.383026,209.896698 313.290833,210.216644 
	C309.880493,222.051376 311.391296,233.926697 312.696198,245.872314 
	C314.981049,266.788849 313.048157,287.199432 303.131561,306.151428 
	C287.555573,335.919037 262.723419,354.165375 230.765915,363.263794 
	C226.986038,364.339935 223.141129,365.187592 219.181168,366.177490 
	C219.384689,367.206207 219.369583,367.912872 219.655716,368.462738 
	C229.112885,386.637238 238.632248,404.779419 248.041931,422.978363 
	C249.336670,425.482513 251.245758,426.036713 253.754089,426.023621 
	C260.752960,425.987122 267.754944,425.930267 274.750610,426.096405 
	C280.329895,426.228912 281.323395,427.712494 281.457886,433.624420 
	C281.569122,438.512665 278.908356,439.412964 274.806091,439.405243 
	C241.309692,439.342316 207.813141,439.384949 174.316666,439.358124 
	C168.673935,439.353607 167.820221,438.159576 167.641159,432.574066 
	C167.479630,427.534882 170.259277,426.211121 174.487518,426.201111 
	C181.051254,426.185608 187.615051,426.196991 194.136871,426.196991 
	C194.136871,425.194336 194.250626,424.814972 194.120651,424.559631 
	C184.826691,406.301117 175.495621,388.061432 166.225845,369.790710 
	C165.160400,367.690704 163.530289,367.149261 161.369019,367.027832 
	C149.937164,366.385590 139.951309,369.633575 131.943604,378.009583 
	C122.851936,387.519409 114.009102,397.270782 104.780754,406.644104 
	C101.788544,409.683319 101.670654,411.597992 104.537827,414.811493 
	C133.229996,446.969513 168.654953,467.968170 210.125443,479.098450 
	C211.795227,479.546661 213.352356,479.451080 215.034866,479.189331 
	C232.566544,476.461578 249.340805,471.106567 265.926270,464.961426 
	C302.303864,451.482971 330.452789,428.785858 347.350586,393.211243 
	C348.741730,390.282532 349.482574,388.202728 346.997528,385.217163 
	C342.942810,380.345795 342.538116,374.464233 345.327271,368.762695 
	C348.245758,362.796692 353.540527,360.018036 359.981934,360.122070 
	C362.710632,360.166168 364.375275,359.360840 365.906982,357.426239 
	C370.766907,351.288177 375.582947,345.112701 380.577759,339.085754 
	C382.078674,337.274689 382.081635,335.791687 381.340942,333.665253 
	C378.623535,325.863983 380.667786,319.863983 387.399261,314.916382 
	C388.843445,313.854919 390.626862,313.115906 390.621368,310.835388 
	C390.592133,298.737366 390.607605,286.639282 390.607605,273.133698 
	C385.320099,279.325470 381.027222,284.526703 376.536072,289.550720 
	C373.528198,292.915405 371.892792,296.251404 372.452698,301.164276 
	C373.299927,308.597839 367.474884,314.430206 359.802551,315.041565 
	C353.572205,315.538025 346.929657,310.539124 345.813812,304.514252 
	C344.414795,296.960052 348.587158,289.178711 356.070129,288.993500 
	C363.185150,288.817383 365.756836,284.357117 369.309448,280.218231 
	C372.673004,276.299622 375.879242,272.243225 379.315430,268.390778 
	C381.141174,266.343842 381.794250,264.559204 380.788544,261.702637 
	C378.724731,255.840897 380.261871,250.404602 384.696747,246.152344 
	C389.740906,241.315903 395.912354,240.241501 402.299500,242.914581 
	C408.338867,245.442093 411.999207,250.435318 411.772400,256.949280 
	C411.630096,261.034912 413.142548,263.062714 416.194672,264.881348 
	C418.194244,266.072815 420.098541,267.440765 421.958710,268.844696 
	C423.670807,270.136902 425.253723,270.606781 427.462891,269.771881 
	C434.004456,267.299561 439.590149,268.923767 443.867981,274.474213 
	C445.139374,276.123840 446.643707,276.664429 448.599365,276.652618 
	C456.598206,276.604279 464.597870,276.552979 472.596222,276.621033 
	C475.667114,276.647156 476.809631,275.193146 476.608978,272.314758 
	C476.331268,268.331512 476.044037,264.348724 475.803528,260.363129 
	C474.383392,236.828156 468.695587,214.269623 458.991119,192.888794 
	C439.214264,149.316528 408.477692,115.671745 366.243530,92.824600 
	C319.351776,67.457863 269.557037,60.685974 217.671463,71.508713 
	C172.137695,81.006538 133.580688,103.509064 102.504044,138.271194 
	C72.131042,172.246246 54.374893,211.961624 50.471405,257.441956 
	C47.390064,293.343262 54.011040,327.744202 68.665466,360.619049 
	C69.108032,361.611877 69.351219,362.942352 71.480164,363.119476 
	C82.155602,355.029144 93.775131,347.408020 104.409325,338.334290 
	C97.726028,331.903046 97.498993,326.346588 103.379143,319.744904 
	C105.258034,317.635498 107.381516,315.739441 109.438904,313.794220 
	C121.326729,302.554413 132.846283,290.996124 141.260757,276.776703 
	C145.504211,269.605865 149.775116,262.475769 155.214783,256.096802 
	C163.905411,245.905472 174.173965,237.323868 184.261505,228.698029 
	C200.045074,215.201538 210.517776,199.169144 215.059570,178.694519 
	C218.842728,161.639832 228.367355,147.588257 242.867050,136.331375 
M224.765884,230.414322 
	C239.104065,235.209274 244.512527,244.673981 241.330475,259.344055 
	C240.583344,262.788513 239.351654,266.051666 237.770447,269.181030 
	C231.445877,281.698029 221.760452,291.261963 210.524429,299.258514 
	C185.353043,317.172760 157.182861,328.462616 127.426704,336.084961 
	C125.622566,336.547119 123.975128,336.985596 122.492134,338.223663 
	C103.806946,353.822388 84.274261,368.292145 64.112946,381.922272 
	C61.630993,383.600250 59.107399,385.286652 57.542885,387.962219 
	C56.376156,389.957489 54.686321,392.083099 56.474129,394.375793 
	C58.368839,396.805603 61.094955,396.082062 63.346722,395.007782 
	C66.941849,393.292664 70.360046,391.202667 73.830635,389.231689 
	C76.802834,387.543823 79.873589,386.602448 82.405563,389.658844 
	C84.984894,392.772430 84.066048,395.718719 81.398506,398.526978 
	C78.309853,401.778625 75.141945,405.021210 73.076553,409.082764 
	C72.123024,410.957886 71.778404,412.945251 73.544472,414.598877 
	C75.225082,416.172455 77.045181,415.371735 78.638405,414.478912 
	C82.284241,412.435791 85.609062,409.927307 88.515442,406.904449 
	C99.945297,395.016479 111.471519,383.218628 122.751274,371.189758 
	C130.208984,363.236694 139.009094,358.061066 149.830994,356.428436 
	C159.294830,355.000702 168.786789,355.550659 178.250336,356.230530 
	C194.475464,357.396149 210.596680,356.831238 226.342819,352.627838 
	C275.637878,339.468506 310.804596,297.330200 301.009735,241.199219 
	C298.257141,225.425125 299.513855,209.991791 307.240875,195.565964 
	C308.105499,193.951752 308.122894,192.697449 307.446472,190.932236 
	C301.847595,176.321655 308.055084,160.684906 322.135437,153.862808 
	C325.237366,152.359894 328.569824,151.332886 332.322235,149.883530 
	C328.868744,143.369904 323.462250,139.359543 317.243256,136.521912 
	C301.064850,129.139877 284.448395,129.496384 268.100281,135.481369 
	C243.899979,144.340988 229.821411,162.177795 224.222290,187.100677 
	C221.677826,198.426636 217.400970,209.050797 210.163498,218.272186 
	C207.313568,221.903336 204.204529,225.331146 200.796844,229.341919 
	C208.936020,228.639496 216.525894,228.120209 224.765884,230.414322 
M323.879547,477.338470 
	C406.921661,453.131287 456.169067,383.418518 467.319397,334.010651 
	C466.540680,333.817474 465.758179,333.456116 464.974518,333.453522 
	C448.148346,333.398010 431.321991,333.379547 414.495697,333.365509 
	C413.150177,333.364380 411.943665,333.585602 410.882629,334.670685 
	C402.004303,343.749878 401.990784,343.733765 402.005432,357.182922 
	C402.009247,360.681488 402.094360,364.184540 401.946075,367.677216 
	C401.823547,370.562073 402.736084,372.616486 405.055237,374.544464 
	C409.878845,378.554352 411.331177,384.365356 409.334900,389.860138 
	C407.286072,395.499634 402.978699,398.228424 397.215637,398.809448 
	C391.709198,399.364655 386.597839,396.273346 383.849060,390.931671 
	C380.607269,384.631836 375.142487,383.466675 369.778320,387.964539 
	C368.082306,389.386688 366.167908,390.516754 364.053772,390.901764 
	C361.272369,391.408295 359.695984,392.933502 358.590210,395.402374 
	C341.536072,433.478546 312.829926,458.994781 274.090912,473.664246 
	C264.720123,477.212738 255.336380,480.727051 244.829605,484.682068 
	C272.196686,487.246094 297.866882,484.790527 323.879547,477.338470 
M192.807846,243.273499 
	C177.070374,248.561768 165.489746,258.973877 157.147110,272.999390 
	C147.041992,289.987946 135.469574,305.736816 120.705070,319.002502 
	C118.037819,321.398987 115.471382,323.907654 112.065178,327.110352 
	C114.103096,326.924835 114.927383,326.927307 115.718544,326.766602 
	C149.951981,319.814484 181.648087,306.948578 209.473007,285.557465 
	C217.958786,279.033813 224.935074,270.860840 229.052505,260.706482 
	C233.795074,249.010391 229.163422,241.417053 216.655930,240.244873 
	C208.762131,239.505081 201.043427,240.317459 192.807846,243.273499 
M470.552277,321.444824 
	C474.501831,310.766846 475.382782,299.666931 475.751923,287.949158 
	C466.979980,287.949158 458.854675,288.023590 450.731934,287.912048 
	C447.540710,287.868225 445.229736,288.726990 442.951141,291.278961 
	C439.136078,295.551758 434.003723,296.934967 428.374756,295.189117 
	C423.114349,293.557587 419.822968,289.887543 419.194305,284.454559 
	C418.826141,281.272797 417.510925,279.280334 414.877014,277.724274 
	C412.444733,276.287384 410.210327,274.519958 407.827545,272.993744 
	C403.504150,270.224579 401.430511,271.317291 401.379395,276.582672 
	C401.298553,284.909180 401.305878,293.240356 401.497620,301.564453 
	C401.640320,307.759949 401.051300,314.378845 408.126343,317.838928 
	C408.659180,318.099518 409.023895,318.826050 409.329041,319.408173 
	C410.400360,321.452179 412.155121,322.010223 414.318878,321.999023 
	C432.801697,321.903503 451.284729,321.841400 470.552277,321.444824 
M235.984314,424.623016 
	C226.742157,406.726868 217.491806,388.834961 208.269089,370.928802 
	C207.218460,368.888977 206.026459,367.129517 203.380356,367.474945 
	C195.283936,368.531860 187.150757,368.015228 178.738785,367.839508 
	C178.908112,368.758850 178.882523,369.444946 179.154861,369.979126 
	C188.229324,387.778168 197.341812,405.557892 206.417938,423.356079 
	C207.473755,425.426514 209.166122,426.044037 211.328949,426.071381 
	C218.152039,426.157593 224.976257,426.425079 231.795456,426.321350 
	C233.155579,426.300690 235.219131,427.493408 235.984314,424.623016 
M342.649597,170.669250 
	C354.289673,171.582581 365.339661,175.350067 376.671509,177.928436 
	C365.839752,168.255981 353.343689,162.363388 338.941650,161.569611 
	C332.725616,161.227020 326.605225,162.929214 321.793152,168.637146 
	C328.800995,170.417770 335.440216,168.985153 342.649597,170.669250 
M390.672119,367.121155 
	C390.672119,360.253265 390.672119,353.385345 390.672119,345.123566 
	C384.672638,352.537659 379.593903,358.790497 374.551025,365.072174 
	C373.829376,365.971100 373.322601,366.966156 373.512268,368.263153 
	C374.109802,372.348846 378.785370,375.677307 383.953735,375.603363 
	C387.546906,375.551941 390.308502,372.430115 390.672119,367.121155 
M330.102234,180.434067 
	C325.853729,180.521118 321.568237,179.795135 317.378265,180.800735 
	C317.221985,185.539261 317.837097,186.111542 322.294464,185.500336 
	C329.755798,184.477249 337.214569,183.435669 345.025787,182.353195 
	C340.145325,181.707962 335.579865,181.104385 330.102234,180.434067 
z"/>
<path fill="#FFFFFF" opacity="1.000000" stroke="none" 
	d="
M390.586182,217.932434 
	C390.586792,214.284241 390.800873,211.100220 390.531067,207.957718 
	C390.216248,204.291718 391.503693,202.845154 395.266418,202.890213 
	C398.959747,202.934448 401.375092,203.553207 401.258240,208.045319 
	C401.058899,215.704407 401.068817,223.374649 401.229370,231.035202 
	C401.319336,235.328964 398.684448,235.307983 395.637482,235.322891 
	C392.495361,235.338257 389.902740,235.035843 390.131073,230.892227 
	C390.360046,226.737396 390.440247,222.574402 390.586182,217.932434 
z"/>
<path fill="#FFFFFF" opacity="1.000000" stroke="none" 
	d="
M286.501099,146.744659 
	C290.794983,142.497665 295.617188,141.461548 299.836304,143.599579 
	C303.775879,145.595947 306.121124,150.446289 305.175842,155.009033 
	C304.225983,159.593887 301.262695,162.304779 296.702698,163.029114 
	C292.817169,163.646317 289.319916,162.460571 286.956482,159.265320 
	C284.140076,155.457657 283.881805,151.284882 286.501099,146.744659 
z"/>
</svg>
