<?xml version="1.0"?>
<!DOCTYPE svg PUBLIC "-//W3C//DTD SVG 1.1//EN" "http://www.w3.org/Graphics/SVG/1.1/DTD/svg11.dtd">
<svg xmlns="http://www.w3.org/2000/svg" version="1.1">
<g transform="translate(114.5,204.8)" stroke-width="0" fill="none" >
<path  
style="fill:rgb(4,4,4)" 
d="M -55.7 221.0
Q -54.5,222.0,-40.0,221.7
Q -20.0,221.4,-10.7,219.6
Q -6.0,218.7,-4.7,218.5
Q -3.4,218.3,-0.3,217.4
Q 2.9,216.5,3.8,216.3
Q 6.6,215.8,9.1,214.6
Q 10.5,214.0,13.8,212.6
Q 35.0,204.1,41.0,188.9
Q 45.5,177.7,43.1,166.8
Q 42.7,164.8,42.5,163.3
Q 42.2,161.7,41.3,158.1
Q 40.4,154.6,40.2,153.2
Q 40.0,151.9,39.1,149.0
Q 38.2,146.1,37.6,143.4
Q 36.9,140.8,35.8,136.7
Q 34.8,132.6,34.5,130.9
Q 34.3,129.2,33.6,125.9
Q 32.9,122.6,32.5,118.6
Q 32.0,114.6,31.2,110.6
Q 30.3,106.5,30.0,103.8
Q 29.9,102.5,29.7,101.1
Q 30.6,101.9,31.5,102.7
Q 33.2,104.4,36.4,105.4
Q 44.0,107.6,49.1,102.6
Q 54.7,96.9,54.7,76.1
Q 54.7,62.2,43.1,42.6
Q 38.4,34.6,32.8,21.2
Q 33.1,21.5,33.4,21.8
Q 34.8,23.1,36.8,21.9
Q 40.9,19.5,41.0,8.6
Q 41.1,4.9,43.2,2.6
Q 44.9,0.8,45.2,0.7
Q 46.0,0.5,46.1,3.0
Q 46.7,10.8,50.0,12.5
Q 52.4,13.7,54.5,10.0
Q 58.2,3.4,58.2,-4.3
Q 58.2,-7.1,61.0,-10.0
Q 64.1,-13.3,67.1,-14.1
Q 69.1,-14.6,70.0,-15.0
Q 70.9,-15.4,73.8,-16.3
Q 97.7,-23.6,108.8,-33.4
Q 116.6,-40.1,112.3,-41.9
Q 110.2,-42.8,104.7,-40.8
Q 102.0,-39.8,100.3,-39.3
Q 103.4,-43.3,106.4,-46.3
Q 108.8,-48.7,111.0,-51.3
Q 110.4,-51.8,109.8,-52.3
Q 108.9,-51.3,108.0,-50.3
Q 106.2,-48.3,102.2,-44.8
Q 98.0,-40.3,98.8,-38.3
Q 99.4,-36.9,104.9,-38.8
Q 111.4,-41.0,111.0,-39.5
Q 109.1,-32.2,85.1,-22.6
Q 74.5,-18.3,69.1,-16.8
Q 67.8,-16.4,65.6,-15.7
Q 66.3,-16.7,67.0,-17.7
Q 68.3,-19.7,69.5,-22.0
Q 70.7,-24.3,72.0,-26.8
Q 72.7,-28.0,73.3,-29.2
Q 73.3,-30.1,73.6,-30.3
Q 73.7,-30.4,73.8,-30.5
Q 77.4,-39.4,79.1,-47.4
Q 79.1,-47.7,79.1,-47.9
Q 79.3,-48.3,79.6,-48.8
Q 80.0,-49.6,80.0,-51.4
Q 80.0,-52.3,80.0,-53.2
Q 80.0,-53.9,80.0,-54.5
Q 80.0,-55.8,80.4,-55.9
Q 80.4,-57.2,80.4,-58.5
Q 80.4,-59.9,80.4,-61.2
Q 80.4,-61.4,80.4,-61.7
Q 80.4,-61.4,80.4,-61.2
Q 80.6,-60.9,80.7,-60.5
Q 80.9,-59.9,80.4,-58.5
Q 80.4,-57.2,80.4,-55.9
Q 80.4,-53.3,80.0,-53.2
Q 80.0,-52.3,80.0,-51.4
Q 80.0,-49.6,79.6,-48.8
Q 79.3,-48.3,79.1,-47.9
Q 80.9,-48.8,84.5,-49.7
Q 99.0,-53.3,106.3,-64.5
Q 108.2,-67.4,108.8,-67.4
Q 109.6,-67.4,106.5,-62.8
Q 98.1,-50.4,81.8,-47.8
Q 80.4,-47.6,79.1,-47.4
Q 77.4,-39.4,73.8,-30.5
Q 82.7,-32.8,86.8,-34.6
Q 92.4,-37.1,92.4,-36.4
Q 92.4,-36.0,89.6,-34.6
Q 82.8,-31.4,73.3,-29.2
Q 72.7,-28.0,72.0,-26.8
Q 70.7,-24.3,69.5,-22.0
Q 68.3,-19.7,67.0,-17.7
Q 66.3,-16.7,65.6,-15.7
Q 67.8,-16.4,69.1,-16.8
Q 74.5,-18.3,85.1,-22.6
Q 109.1,-32.2,111.0,-39.5
Q 111.4,-41.0,104.9,-38.8
Q 99.4,-36.9,98.8,-38.3
Q 98.0,-40.3,102.2,-44.8
Q 105.8,-48.8,109.8,-52.3
Q 115.6,-60.3,117.3,-63.3
Q 124.9,-76.7,126.4,-86.5
Q 127.4,-92.6,125.5,-92.4
Q 124.1,-92.3,117.0,-83.2
Q 112.2,-77.1,112.3,-80.8
Q 112.3,-83.4,118.7,-100.3
Q 122.7,-111.1,123.3,-119.0
Q 123.4,-120.3,123.6,-121.7
Q 123.6,-123.7,123.6,-125.7
Q 123.4,-126.8,123.3,-127.9
Q 122.9,-132.7,120.6,-132.5
Q 118.1,-132.2,111.3,-117.4
Q 107.9,-110.0,106.6,-108.6
Q 103.4,-105.1,101.1,-116.1
Q 99.9,-122.1,97.8,-129.6
Q 97.0,-132.5,93.8,-139.0
Q 93.4,-139.2,93.1,-139.4
Q 92.5,-139.9,91.6,-141.2
Q 88.3,-140.4,87.8,-135.0
Q 87.7,-133.9,87.6,-132.8
Q 87.6,-130.7,87.1,-130.5
Q 87.1,-125.6,84.8,-122.6
Q 83.2,-120.3,79.1,-122.5
Q 77.8,-123.5,76.9,-124.8
Q 76.2,-124.7,75.5,-124.5
Q 75.6,-124.3,75.6,-123.7
Q 75.6,-123.7,75.6,-123.7
Q 75.6,-123.1,75.6,-122.5
Q 75.6,-121.4,75.6,-120.3
Q 75.6,-120.0,75.6,-119.7
Q 75.6,-119.1,74.7,-118.1
Q 72.2,-118.1,70.2,-119.4
Q 69.6,-119.9,68.9,-120.3
Q 68.6,-120.5,68.2,-120.8
Q 67.6,-121.2,66.7,-122.5
Q 65.6,-123.2,64.4,-123.9
Q 64.5,-123.5,64.6,-123.1
Q 65.4,-119.9,64.3,-118.8
Q 63.2,-117.7,59.9,-117.4
Q 60.9,-116.5,62.0,-115.5
Q 63.0,-114.6,64.0,-113.7
Q 64.4,-113.3,64.9,-113.0
Q 65.8,-112.3,66.2,-111.6
Q 66.4,-111.3,66.7,-111.0
Q 70.7,-106.1,72.4,-102.5
Q 72.9,-102.0,73.3,-101.4
Q 74.2,-100.3,75.1,-97.7
Q 75.4,-96.8,75.8,-95.9
Q 77.7,-90.8,79.2,-80.8
Q 79.4,-80.9,79.6,-80.9
Q 79.6,-81.4,81.3,-82.7
Q 91.1,-89.5,91.6,-114.5
Q 91.8,-120.7,92.7,-119.8
Q 94.1,-118.3,92.0,-102.1
Q 90.1,-87.6,80.7,-80.7
Q 79.6,-79.9,79.6,-80.9
Q 79.4,-80.9,79.2,-80.8
Q 79.4,-79.7,79.6,-78.5
Q 80.0,-78.7,80.0,-77.0
Q 80.0,-77.0,80.0,-77.0
Q 80.0,-76.2,80.0,-75.4
Q 80.4,-72.8,80.4,-67.4
Q 80.6,-67.0,80.7,-66.5
Q 80.9,-65.7,80.4,-63.9
Q 80.4,-63.2,80.4,-62.5
Q 88.4,-67.9,92.4,-72.0
Q 106.9,-87.3,113.8,-105.0
Q 114.3,-106.2,114.7,-105.8
Q 115.2,-105.3,113.6,-101.6
Q 108.6,-89.4,100.2,-79.0
Q 89.8,-66.1,82.2,-62.5
Q 81.3,-62.1,80.4,-61.7
Q 80.4,-61.4,80.4,-61.2
Q 80.4,-61.4,80.4,-61.7
Q 80.4,-62.1,80.4,-62.5
Q 80.4,-62.1,80.4,-61.7
Q 81.3,-62.1,82.2,-62.5
Q 89.8,-66.1,100.2,-79.0
Q 108.6,-89.4,113.6,-101.6
Q 115.2,-105.3,114.7,-105.8
Q 114.3,-106.2,113.8,-105.0
Q 106.9,-87.3,92.4,-72.0
Q 88.4,-67.9,80.4,-62.5
Q 80.4,-62.1,80.4,-61.7
Q 80.4,-62.1,80.4,-62.5
Q 80.4,-63.2,80.4,-63.9
Q 80.4,-65.7,80.4,-67.4
Q 80.4,-72.8,80.0,-75.4
Q 79.7,-75.3,79.6,-75.6
Q 79.6,-75.8,79.6,-78.5
Q 79.4,-79.7,79.2,-80.8
Q 77.7,-90.8,75.8,-95.9
Q 75.4,-96.8,75.1,-97.7
Q 74.8,-98.2,74.4,-98.8
Q 73.8,-99.9,72.4,-102.5
Q 70.7,-106.1,66.7,-111.0
Q 66.3,-111.2,66.0,-111.4
Q 65.4,-111.9,64.7,-112.8
Q 64.3,-113.2,64.0,-113.7
Q 63.0,-114.6,62.0,-115.5
Q 60.9,-116.5,59.9,-117.4
Q 63.2,-117.7,64.3,-118.8
Q 65.4,-119.9,64.6,-123.1
Q 64.5,-123.5,64.4,-123.9
Q 65.6,-123.2,66.7,-122.5
Q 68.0,-121.6,68.4,-121.0
Q 68.7,-120.6,68.9,-120.3
Q 69.6,-119.9,70.2,-119.4
Q 72.2,-118.1,74.7,-118.1
Q 75.1,-119.4,75.3,-119.9
Q 75.4,-120.1,75.6,-120.3
Q 75.6,-121.4,75.6,-122.5
Q 75.2,-122.4,75.2,-122.7
Q 75.1,-122.9,75.1,-124.8
Q 75.0,-125.2,74.9,-125.6
Q 74.6,-127.2,75.2,-126.7
Q 75.4,-126.6,76.2,-125.6
Q 76.5,-125.3,76.9,-124.8
Q 78.2,-123.9,79.1,-122.5
Q 83.2,-120.3,84.8,-122.6
Q 87.1,-125.6,87.1,-130.5
Q 87.1,-131.1,87.1,-131.6
Q 87.1,-132.6,87.6,-132.8
Q 87.7,-133.9,87.8,-135.0
Q 88.3,-140.4,91.6,-141.2
Q 91.9,-141.0,92.2,-140.8
Q 92.9,-140.3,93.3,-139.6
Q 93.5,-139.3,93.8,-139.0
Q 97.0,-132.5,97.8,-129.6
Q 99.9,-122.1,101.1,-116.1
Q 103.4,-105.1,106.6,-108.6
Q 107.9,-110.0,111.3,-117.4
Q 118.1,-132.2,120.6,-132.5
Q 122.9,-132.7,123.3,-127.9
Q 123.4,-126.8,123.6,-125.7
Q 124.0,-123.9,123.8,-122.8
Q 123.7,-122.2,123.6,-121.7
Q 123.4,-120.3,123.3,-119.0
Q 122.7,-111.1,118.7,-100.3
Q 112.3,-83.4,112.3,-80.8
Q 112.2,-77.1,117.0,-83.2
Q 124.1,-92.3,125.5,-92.4
Q 127.4,-92.6,126.4,-86.5
Q 124.9,-76.7,117.3,-63.3
Q 115.6,-60.3,109.8,-52.3
Q 110.4,-51.8,111.0,-51.3
Q 123.3,-65.4,127.8,-82.1
Q 131.1,-94.5,125.8,-94.5
Q 123.2,-94.5,120.7,-91.2
Q 119.4,-89.5,118.1,-87.9
Q 116.8,-86.4,115.1,-84.1
Q 115.9,-86.2,116.6,-88.3
Q 118.1,-92.6,119.8,-96.8
Q 126.4,-113.8,125.7,-126.1
Q 125.4,-131.5,123.2,-133.8
Q 118.4,-138.9,111.1,-122.3
Q 106.3,-111.4,105.4,-111.1
Q 104.7,-110.8,102.7,-119.9
Q 97.9,-141.1,91.5,-143.3
Q 86.6,-145.1,84.9,-130.8
Q 84.1,-124.7,82.9,-123.7
Q 81.5,-122.7,77.4,-127.9
Q 75.1,-130.8,74.6,-130.9
Q 71.9,-131.5,73.0,-124.4
Q 73.5,-120.8,73.2,-120.5
Q 72.6,-119.9,67.8,-124.3
Q 64.8,-127.0,63.5,-127.0
Q 61.1,-127.0,62.3,-122.5
Q 62.8,-120.3,62.3,-119.9
Q 61.6,-119.5,59.5,-119.1
Q 55.3,-118.3,53.7,-122.0
Q 45.1,-141.8,29.6,-143.9
Q 25.7,-144.4,23.6,-144.0
Q 22.5,-143.8,21.5,-143.6
Q 22.2,-145.4,23.0,-147.2
Q 31.4,-166.9,29.8,-171.2
Q 28.8,-173.8,25.6,-170.5
Q 24.1,-168.9,20.7,-163.4
Q 19.6,-166.1,18.2,-166.9
Q 16.8,-167.8,15.3,-168.1
Q 13.7,-168.4,14.0,-169.3
Q 14.3,-170.3,14.9,-172.1
Q 15.5,-173.9,16.2,-177.4
Q 18.1,-186.6,14.8,-185.4
Q 12.2,-184.4,10.1,-176.7
Q 9.6,-178.1,9.1,-179.5
Q 9.1,-179.5,9.0,-179.5
Q 8.3,-179.3,7.6,-179.0
Q 8.5,-176.8,8.5,-175.7
Q 8.4,-175.1,8.4,-174.5
Q 8.9,-173.2,8.7,-172.5
Q 8.6,-172.2,8.4,-171.9
Q 8.1,-170.8,7.8,-169.6
Q 6.1,-163.2,7.3,-163.5
Q 8.1,-163.7,9.0,-167.0
Q 9.8,-170.3,10.9,-173.8
Q 11.8,-176.5,13.3,-180.4
Q 13.8,-181.4,14.2,-182.5
Q 15.1,-183.0,15.2,-182.9
Q 15.3,-182.7,15.0,-181.5
Q 15.0,-181.5,15.0,-181.5
Q 14.8,-180.7,14.7,-179.9
Q 13.9,-176.8,13.2,-173.7
Q 11.7,-167.6,10.7,-167.3
Q 9.8,-167.0,9.8,-166.4
Q 9.8,-165.7,10.4,-165.6
Q 11.0,-165.4,9.5,-161.0
Q 7.3,-154.6,8.6,-154.3
Q 9.3,-154.1,11.1,-159.9
Q 12.0,-162.8,12.9,-165.7
Q 13.1,-165.9,13.4,-166.2
Q 13.9,-166.7,15.1,-166.1
Q 20.8,-164.1,17.8,-156.7
Q 15.4,-150.8,15.7,-150.3
Q 16.5,-149.1,18.2,-153.2
Q 22.0,-162.3,25.9,-167.5
Q 27.8,-170.1,27.9,-169.3
Q 28.4,-166.4,25.8,-160.0
Q 25.0,-157.9,24.1,-155.4
Q 21.5,-148.4,19.1,-144.0
Q 17.8,-141.7,12.9,-138.5
Q 12.6,-138.2,12.3,-137.9
Q 11.8,-137.2,11.2,-136.7
Q 10.9,-136.5,10.7,-136.3
Q 11.3,-135.7,11.9,-135.2
Q 12.5,-135.8,13.1,-136.3
Q 13.7,-136.8,14.2,-137.2
Q 15.1,-137.8,16.0,-138.3
Q 20.2,-140.9,23.1,-141.7
Q 24.0,-141.9,24.9,-142.1
Q 25.8,-142.6,27.1,-142.1
Q 30.6,-141.5,33.6,-140.7
Q 43.7,-137.7,49.7,-125.9
Q 51.0,-123.2,51.6,-121.2
Q 50.6,-121.6,49.7,-121.9
Q 46.3,-123.1,45.9,-121.6
Q 45.7,-120.9,49.2,-119.5
Q 67.5,-111.8,73.7,-93.5
Q 78.2,-80.0,78.2,-61.2
Q 78.7,-60.3,78.5,-59.6
Q 78.3,-59.3,78.2,-59.0
Q 77.1,-47.3,75.8,-42.7
Q 70.2,-23.4,60.2,-13.1
Q 58.1,-11.0,57.8,-11.0
Q 57.6,-11.0,56.7,-13.6
Q 54.9,-19.2,53.4,-19.8
Q 52.0,-20.3,53.9,-15.8
Q 57.3,-8.0,55.3,1.4
Q 54.0,7.5,51.5,10.1
Q 49.6,12.1,47.8,1.0
Q 46.7,-5.6,44.7,-12.1
Q 44.2,-13.4,43.4,-13.1
Q 42.7,-12.8,43.8,-8.7
Q 44.9,-4.7,45.0,-3.4
Q 45.1,-2.2,42.6,-0.2
Q 41.3,0.9,40.1,1.9
Q 39.6,0.5,39.2,-0.9
Q 36.9,-8.0,35.1,-8.6
Q 34.0,-9.1,36.0,-4.6
Q 36.9,-2.5,37.6,-0.1
Q 37.9,1.1,38.2,2.3
Q 38.6,2.2,38.6,2.5
Q 38.7,2.8,38.7,4.6
Q 38.7,6.0,38.8,7.3
Q 39.3,16.8,36.0,19.8
Q 34.5,21.2,32.2,12.1
Q 31.0,7.5,30.4,6.1
Q 29.9,4.8,28.9,1.7
Q 27.6,-2.4,26.5,-2.0
Q 25.8,-1.7,26.5,-0.4
Q 29.7,6.0,26.9,6.5
Q 25.3,6.8,18.9,8.1
Q 15.7,8.8,12.4,9.5
Q 11.5,10.0,10.9,9.7
Q 10.5,9.6,10.2,9.5
Q 8.3,9.9,6.6,9.9
Q 5.7,9.9,4.9,9.9
Q 4.2,10.0,3.6,10.1
Q 2.2,10.4,-0.4,9.9
Q -2.9,9.6,-5.3,9.4
Q -17.6,8.1,-16.9,7.0
Q -16.6,6.5,-14.9,4.4
Q -12.2,1.0,-13.4,1.0
Q -14.1,1.0,-17.1,4.2
Q -20.1,7.4,-21.0,8.7
Q -23.4,12.4,-30.2,18.0
Q -40.9,26.9,-39.2,18.3
Q -37.6,10.5,-31.8,3.7
Q -30.7,2.4,-28.2,-3.4
Q -27.0,-6.2,-27.3,-6.9
Q -27.8,-8.3,-31.1,-1.3
Q -35.3,-3.6,-35.9,-4.1
Q -36.6,-4.7,-34.7,-7.2
Q -32.8,-9.7,-33.0,-10.4
Q -33.3,-11.9,-36.6,-7.3
Q -37.4,-6.0,-38.2,-5.3
Q -39.0,-4.5,-39.5,-3.3
Q -40.0,-2.2,-40.8,-1.1
Q -41.7,-0.1,-43.4,2.2
Q -59.1,22.5,-59.1,13.4
Q -59.1,7.3,-50.5,-1.4
Q -37.7,-14.2,-39.1,-15.6
Q -39.6,-16.1,-40.5,-14.8
Q -41.5,-13.5,-43.2,-11.6
Q -44.0,-10.6,-44.8,-9.7
Q -45.9,-11.0,-47.0,-12.3
Q -55.6,-22.4,-60.0,-33.2
Q -67.0,-50.3,-68.7,-62.5
Q -69.0,-65.0,-69.3,-67.4
Q -69.4,-67.4,-69.6,-67.3
Q -69.8,-67.2,-69.8,-70.1
Q -69.8,-73.7,-69.8,-77.2
Q -69.9,-77.4,-70.0,-77.7
Q -70.3,-78.1,-70.0,-78.8
Q -69.9,-79.1,-69.8,-79.4
Q -69.5,-82.2,-69.3,-85.0
Q -68.0,-100.2,-59.7,-112.9
Q -57.7,-115.9,-56.2,-117.0
Q -54.7,-118.1,-53.3,-119.9
Q -53.7,-120.7,-52.4,-121.9
Q -51.8,-122.4,-51.1,-123.0
Q -49.9,-124.1,-49.3,-124.0
Q -47.6,-123.7,-46.9,-128.6
Q -46.7,-130.5,-45.1,-134.2
Q -41.2,-143.1,-35.1,-145.4
Q -34.2,-145.8,-33.3,-146.1
Q -33.3,-146.2,-33.2,-146.3
Q -33.1,-146.5,-32.1,-146.5
Q -31.6,-146.5,-31.1,-146.5
Q -30.5,-146.6,-29.9,-146.6
Q -29.9,-146.6,-29.9,-146.6
Q -28.7,-146.6,-28.9,-146.1
Q -24.5,-145.6,-21.1,-144.1
Q -12.3,-139.9,-6.5,-128.9
Q -5.8,-127.4,-0.4,-127.4
Q -0.5,-128.1,-0.5,-128.7
Q -1.3,-128.7,-2.0,-128.7
Q -4.5,-128.6,-4.7,-129.1
Q -4.8,-129.4,-4.9,-129.7
Q -5.5,-130.9,-6.2,-132.1
Q -7.5,-134.6,-9.8,-137.2
Q -10.9,-138.5,-12.0,-139.9
Q -13.3,-140.8,-14.0,-141.7
Q -14.3,-142.1,-14.7,-142.5
Q -15.5,-143.5,-17.3,-144.3
Q -17.8,-144.5,-18.2,-144.7
Q -19.1,-145.2,-19.6,-145.6
Q -19.8,-145.9,-20.0,-146.1
Q -20.8,-146.4,-21.7,-146.8
Q -26.5,-148.7,-29.5,-167.3
Q -31.1,-177.2,-30.6,-178.7
Q -30.1,-180.5,-25.7,-171.6
Q -20.8,-162.0,-15.0,-152.5
Q -11.9,-147.5,-11.2,-148.5
Q -10.8,-149.3,-13.0,-152.8
Q -14.5,-155.2,-15.9,-157.8
Q -17.3,-160.3,-20.4,-166.1
Q -20.9,-167.0,-20.4,-168.3
Q -19.9,-168.9,-19.4,-169.5
Q -16.1,-173.3,-14.9,-166.8
Q -12.2,-151.9,-10.8,-151.9
Q -9.6,-151.9,-11.5,-159.7
Q -13.1,-166.2,-14.4,-175.9
Q -14.8,-178.3,-15.1,-180.8
Q -15.2,-181.6,-15.3,-182.4
Q -15.3,-182.4,-15.3,-182.4
Q -15.4,-184.0,-15.0,-183.7
Q -14.9,-183.6,-14.7,-183.4
Q -14.3,-182.3,-14.0,-181.1
Q -13.9,-180.7,-13.7,-180.3
Q -12.8,-177.2,-11.7,-173.5
Q -10.6,-169.9,-9.9,-166.9
Q -8.9,-162.2,-7.7,-164.2
Q -7.5,-164.6,-8.9,-169.9
Q -11.3,-179.3,-8.7,-182.5
Q -8.1,-183.2,-7.6,-183.9
Q -6.7,-184.4,-6.6,-184.2
Q -6.6,-184.2,-6.6,-184.1
Q -5.9,-184.2,-5.3,-184.3
Q -4.7,-191.1,-4.4,-195.0
Q -4.0,-198.8,-3.3,-200.7
Q -0.8,-207.0,0.9,-188.8
Q 1.1,-186.3,1.3,-183.9
Q 1.7,-184.0,1.7,-183.8
Q 1.8,-183.6,1.8,-179.4
Q 1.7,-175.0,1.7,-170.7
Q 1.6,-161.9,2.2,-162.0
Q 2.4,-162.0,2.7,-162.1
Q 2.8,-163.0,2.9,-163.9
Q 3.1,-165.7,3.3,-167.4
Q 3.4,-168.3,3.6,-169.2
Q 3.6,-175.2,3.6,-181.2
Q 3.4,-181.5,3.3,-181.9
Q 3.1,-182.5,3.6,-183.9
Q 3.9,-183.6,4.2,-183.4
Q 4.9,-183.0,5.5,-182.1
Q 5.9,-181.6,6.2,-181.2
Q 6.5,-181.1,6.7,-181.0
Q 7.1,-180.8,7.3,-179.9
Q 7.5,-179.4,7.6,-179.0
Q 8.3,-179.3,9.0,-179.5
Q 7.3,-184.3,4.2,-185.8
Q 3.2,-186.2,3.0,-189.1
Q 1.5,-204.8,-2.6,-204.8
Q -5.8,-204.8,-6.5,-195.4
Q -7.1,-186.2,-8.7,-185.2
Q -10.2,-184.2,-11.0,-182.7
Q -11.4,-181.9,-11.8,-181.1
Q -12.2,-182.1,-12.6,-183.1
Q -13.4,-185.1,-14.5,-186.1
Q -18.2,-189.6,-16.6,-175.8
Q -16.3,-173.2,-18.0,-172.5
Q -19.8,-171.8,-21.0,-170.6
Q -22.3,-169.5,-22.5,-170.0
Q -22.8,-170.6,-24.0,-172.9
Q -28.9,-182.2,-31.0,-181.7
Q -33.6,-181.1,-32.0,-169.2
Q -30.2,-156.2,-27.3,-150.5
Q -26.8,-149.4,-26.2,-148.4
Q -28.4,-148.3,-30.6,-148.2
Q -43.1,-147.7,-48.2,-130.8
Q -49.8,-125.8,-58.1,-118.7
Q -61.7,-115.7,-62.4,-120.9
Q -62.7,-122.8,-62.6,-134.4
Q -62.5,-151.9,-66.6,-150.7
Q -72.4,-149.2,-76.6,-126.3
Q -76.9,-124.5,-77.3,-122.8
Q -77.4,-123.9,-77.5,-125.0
Q -78.9,-136.1,-82.6,-132.2
Q -84.3,-130.4,-85.9,-120.1
Q -86.2,-118.1,-86.6,-116.1
Q -88.0,-122.8,-88.5,-125.0
Q -88.9,-127.2,-90.1,-131.2
Q -93.4,-143.2,-95.9,-146.2
Q -100.1,-151.1,-102.8,-146.4
Q -108.0,-137.5,-98.4,-107.7
Q -96.3,-101.5,-96.1,-99.9
Q -96.0,-99.1,-95.9,-98.3
Q -96.5,-98.9,-97.0,-99.5
Q -98.2,-100.8,-102.2,-109.4
Q -107.1,-120.1,-109.6,-120.6
Q -114.3,-121.5,-114.5,-107.7
Q -114.8,-92.3,-106.4,-75.1
Q -100.4,-63.0,-94.2,-54.1
Q -97.9,-56.0,-101.6,-58.0
Q -109.1,-61.8,-110.8,-61.8
Q -118.0,-62.0,-107.7,-44.6
Q -100.1,-31.7,-86.9,-24.0
Q -72.7,-15.7,-62.0,-13.7
Q -59.3,-13.1,-58.2,-12.7
Q -57.1,-12.3,-53.8,-12.3
Q -50.5,-12.3,-48.3,-10.0
Q -46.2,-7.7,-47.4,-6.8
Q -56.3,-0.5,-59.9,8.1
Q -63.3,15.9,-59.6,17.9
Q -54.5,20.6,-41.1,2.1
Q -39.6,0.1,-38.2,-1.9
Q -33.1,0.6,-32.7,0.7
Q -32.3,0.9,-34.3,4.0
Q -44.7,19.8,-40.6,23.9
Q -36.6,27.9,-23.6,14.8
Q -20.0,11.1,-19.1,10.9
Q -17.1,10.2,-13.5,11.5
Q -12.9,11.6,-13.7,14.0
Q -16.7,22.2,-18.2,33.5
Q -19.3,42.0,-22.5,48.3
Q -25.2,53.7,-33.4,64.1
Q -42.1,75.0,-39.8,90.3
Q -37.5,105.6,-27.5,107.0
Q -22.4,107.7,-17.5,103.1
Q -16.0,101.7,-14.5,100.4
Q -14.7,100.9,-14.9,101.5
Q -17.1,109.1,-21.9,113.4
Q -35.9,125.6,-39.8,142.1
Q -43.5,158.0,-43.5,173.7
Q -43.6,198.2,-48.1,207.5
Q -49.8,211.1,-54.8,216.5
Q -57.6,219.5,-55.7,221.0
 " /> 
<path  
style="fill:rgb(14,103,171)" 
d="M -40.9 169.4
Q -39.1,167.0,-37.3,164.6
Q -33.8,159.7,-30.0,154.4
Q -22.3,143.7,-20.2,143.3
Q -19.1,143.1,-22.7,147.5
Q -29.5,155.7,-32.8,160.6
Q -39.9,171.3,-40.2,171.3
Q -40.4,171.4,-40.9,170.3
Q -41.3,174.3,-41.3,180.0
Q -41.3,187.8,-42.4,195.6
Q -42.8,198.0,-41.5,197.0
Q -35.3,192.1,-28.6,180.3
Q -17.8,161.3,-8.8,150.3
Q -7.2,148.4,-6.9,148.7
Q -6.0,149.5,-8.6,152.4
Q -12.7,156.9,-24.4,177.0
Q -34.6,194.4,-40.7,198.2
Q -42.7,199.4,-44.0,203.7
Q -46.1,210.5,-51.2,216.2
Q -53.9,219.3,-53.7,219.4
Q -53.5,219.6,-42.9,219.6
Q -19.8,219.7,-12.3,215.9
Q 7.8,205.7,16.0,166.4
Q 17.4,160.0,18.2,161.4
Q 18.6,162.1,15.3,176.6
Q 8.6,205.8,-7.6,215.4
Q -9.0,216.2,-10.4,217.1
Q -9.4,216.9,-8.4,216.8
Q -6.4,216.5,-3.1,215.6
Q 0.2,214.7,2.4,214.1
Q 7.7,212.7,16.4,208.8
Q 45.6,195.7,40.2,166.1
Q 38.6,157.0,34.3,141.2
Q 32.9,136.3,32.0,131.7
Q 30.2,122.1,28.9,109.4
Q 27.6,109.8,27.3,110.2
Q 27.1,110.6,27.1,112.9
Q 27.1,126.3,23.3,128.1
Q 21.7,128.8,21.5,122.9
Q 21.4,119.2,20.6,115.1
Q 20.0,116.0,19.5,117.0
Q 15.9,123.4,11.2,114.6
Q 10.5,113.2,8.2,117.5
Q 7.9,118.1,7.6,118.8
Q 7.6,119.0,7.6,119.2
Q 7.4,120.1,7.3,121.0
Q 6.8,125.5,3.6,128.1
Q 1.2,130.1,0.6,129.0
Q 0.4,128.6,0.6,123.8
Q 0.8,121.1,0.9,118.3
Q 0.9,116.9,0.9,115.4
Q 0.9,112.6,0.4,111.0
Q 0.2,110.2,0.0,109.4
Q -0.3,109.1,-0.6,108.7
Q -0.6,108.7,-0.7,108.7
Q -0.8,108.6,-1.0,108.6
Q -1.6,108.6,-3.3,111.2
Q -5.1,114.0,-6.9,114.2
Q -7.2,114.3,-7.6,114.3
Q -7.8,114.3,-8.0,114.3
Q -8.5,114.1,-8.9,113.9
Q -9.8,113.5,-10.2,111.7
Q -10.2,111.4,-10.2,111.2
Q -10.7,110.1,-11.1,109.0
Q -12.0,106.8,-12.7,105.0
Q -13.0,104.1,-13.3,103.2
Q -15.6,108.1,-16.6,109.6
Q -18.9,112.8,-24.2,118.1
Q -40.3,134.4,-40.8,167.2
Q -40.9,168.3,-40.9,169.4
 " /> 
<path  
style="fill:rgb(7,193,201)" 
d="M -48.9 217.8
Q -48.9,218.6,-43.5,216.9
Q -15.1,207.4,-2.6,182.8
Q -0.4,178.3,-1.4,178.3
Q -2.1,178.3,-3.3,181.1
Q -4.8,184.2,-9.1,190.3
Q -21.9,208.6,-45.0,215.9
Q -48.9,217.1,-48.9,217.8
 " /> 
<path  
style="fill:rgb(7,193,201)" 
d="M 11.1 207.9
Q 11.1,210.6,18.2,201.2
Q 28.4,187.7,28.4,172.7
Q 28.4,166.8,27.5,172.2
Q 23.9,193.6,13.1,205.1
Q 11.1,207.2,11.1,207.9
 " /> 
<path  
style="fill:rgb(7,193,201)" 
d="M -40.9 169.4
Q -40.9,169.9,-40.9,170.3
Q -40.4,171.4,-40.2,171.3
Q -39.9,171.3,-32.8,160.6
Q -29.5,155.7,-22.7,147.5
Q -19.1,143.1,-20.2,143.3
Q -22.3,143.7,-30.0,154.4
Q -33.8,159.7,-37.3,164.6
Q -39.1,167.0,-40.9,169.4
 " /> 
<path  
style="fill:rgb(7,193,201)" 
d="M -13.3 103.2
Q -13.1,102.8,-12.9,102.3
Q -13.0,102.4,-13.1,102.4
Q -13.3,102.4,-13.3,102.8
Q -13.3,103.0,-13.3,103.2
 " /> 
<path  
style="fill:rgb(7,193,201)" 
d="M -13.3 103.2
Q -13.0,104.1,-12.7,105.0
Q -12.0,106.8,-11.1,109.0
Q -10.7,110.1,-10.2,111.2
Q -10.6,110.1,-10.9,109.0
Q -11.5,106.8,-12.9,102.3
Q -13.1,102.8,-13.3,103.2
 " /> 
<path  
style="fill:rgb(97,247,248)" 
d="M -10.2 111.2
Q -10.2,111.4,-10.2,111.7
Q -10.0,112.0,-9.8,112.4
Q -9.4,113.1,-8.0,114.3
Q -7.8,114.3,-7.6,114.3
Q -7.0,114.1,-6.4,113.9
Q -5.3,113.4,-4.1,111.6
Q -1.6,107.7,-0.7,108.7
Q -0.3,108.8,0.0,109.4
Q 0.2,110.2,0.4,111.0
Q 0.9,112.6,0.9,115.4
Q 0.9,116.9,0.9,118.3
Q 1.2,128.8,1.8,128.7
Q 4.9,128.1,6.9,121.4
Q 7.2,120.3,7.6,119.2
Q 7.6,119.0,7.6,118.8
Q 7.7,118.1,7.8,117.4
Q 8.2,114.6,10.7,113.7
Q 11.3,113.4,12.2,115.1
Q 15.2,120.9,18.0,118.1
Q 19.1,117.0,19.5,115.9
Q 20.0,114.8,20.6,114.8
Q 21.5,114.8,22.1,123.7
Q 22.3,127.9,22.9,127.6
Q 26.5,125.2,26.7,112.1
Q 26.7,109.6,27.8,109.5
Q 28.3,109.5,28.9,109.4
Q 28.8,108.6,28.7,107.7
Q 28.4,105.9,28.2,103.9
Q 28.1,102.9,28.0,101.9
Q 28.0,100.1,28.0,98.3
Q 25.8,93.0,25.1,90.4
Q 24.5,87.9,24.2,84.3
Q 24.0,80.8,23.5,76.9
Q 23.4,75.8,23.3,74.4
Q 23.2,72.9,23.2,71.0
Q 23.1,69.9,23.1,66.3
Q 23.0,66.0,22.9,65.7
Q 22.6,65.0,22.9,64.3
Q 23.0,64.0,23.1,63.7
Q 22.7,61.9,23.5,60.6
Q 25.8,57.4,27.1,49.8
Q 28.1,44.7,25.7,31.0
Q 25.5,31.7,25.3,32.4
Q 24.9,33.7,24.4,36.2
Q 23.9,38.8,23.0,38.8
Q 22.1,38.8,22.4,37.3
Q 23.9,28.6,24.4,24.1
Q 24.7,20.4,25.3,20.4
Q 25.9,20.4,25.8,22.6
Q 25.7,24.8,26.9,28.9
Q 28.0,33.0,28.7,37.9
Q 29.0,40.3,29.3,42.8
Q 29.3,43.9,29.3,45.0
Q 29.3,45.2,29.3,45.4
Q 29.3,46.8,29.3,48.1
Q 29.0,49.8,28.7,51.4
Q 28.0,54.8,26.4,58.3
Q 24.9,61.9,24.9,65.0
Q 24.9,66.6,24.9,68.1
Q 24.9,69.2,24.9,70.3
Q 24.9,71.4,24.9,72.6
Q 25.2,73.4,25.4,73.5
Q 25.4,73.6,25.5,73.6
Q 26.0,73.6,32.0,68.6
Q 35.7,65.5,39.6,63.5
Q 40.2,63.1,40.9,62.8
Q 41.1,62.8,41.3,62.8
Q 42.4,62.4,43.6,62.1
Q 47.0,61.1,50.0,65.2
Q 50.6,66.0,51.1,66.8
Q 48.1,56.1,44.2,49.2
Q 35.0,33.0,31.8,24.3
Q 26.9,11.3,23.6,10.3
Q 22.9,10.1,21.1,10.5
Q 12.7,12.6,-7.0,12.0
Q -9.9,11.9,-10.5,12.3
Q -12.1,13.3,-14.4,22.1
Q -15.5,26.6,-15.8,30.3
Q -16.9,47.0,-25.5,57.5
Q -27.1,59.4,-27.1,59.7
Q -27.2,60.0,-26.2,60.6
Q -24.9,60.5,-24.0,60.7
Q -23.6,60.9,-23.1,61.0
Q -22.4,61.4,-21.8,61.7
Q -20.5,62.5,-15.6,61.4
Q -15.3,61.4,-15.1,61.4
Q -13.3,61.0,-11.6,62.6
Q -9.9,64.2,-8.0,64.4
Q -4.3,64.9,-2.9,66.8
Q -2.2,67.7,-0.9,68.6
Q -0.9,68.3,-0.9,68.1
Q -0.6,66.0,-0.2,63.9
Q 0.4,59.7,-0.9,56.9
Q -3.8,51.3,-4.2,44.2
Q -4.2,43.9,-4.2,43.7
Q -4.3,42.4,-4.3,41.1
Q -4.4,40.3,-4.4,39.5
Q -4.4,39.5,-4.4,38.3
Q -4.4,35.2,-4.4,32.1
Q -4.8,30.3,-5.1,28.6
Q -5.8,25.0,-5.3,24.7
Q -4.4,24.2,-2.3,32.4
Q -0.1,41.1,-1.2,41.2
Q -1.7,41.3,-2.1,40.7
Q -2.4,40.8,-2.7,41.0
Q -2.7,42.6,-2.7,44.1
Q -2.3,46.0,-2.0,47.9
Q -0.9,54.1,1.7,58.1
Q 3.9,61.6,2.6,61.3
Q 1.9,61.2,0.4,69.0
Q 0.4,69.2,0.4,69.4
Q 0.4,69.8,0.0,69.9
Q -1.3,75.7,-2.8,79.6
Q -6.0,87.7,-9.9,94.4
Q -11.6,97.4,-12.9,102.3
Q -11.5,106.8,-10.9,109.0
Q -10.6,110.1,-10.2,111.2
 " /> 
<path  
style="fill:rgb(7,193,201)" 
d="M -10.2 111.7
Q -9.8,113.5,-8.9,113.9
Q -8.5,114.1,-8.0,114.3
Q -9.4,113.1,-9.8,112.4
Q -10.0,112.0,-10.2,111.7
 " /> 
<path  
style="fill:rgb(7,193,201)" 
d="M -7.6 114.3
Q -7.2,114.3,-6.9,114.2
Q -5.1,114.0,-3.3,111.2
Q -1.6,108.6,-1.0,108.6
Q -0.8,108.6,-0.7,108.7
Q -1.6,107.7,-4.1,111.6
Q -5.3,113.4,-6.4,113.9
Q -7.0,114.1,-7.6,114.3
 " /> 
<path  
style="fill:rgb(7,193,201)" 
d="M 0.9 118.3
Q 0.8,121.1,0.6,123.8
Q 0.4,128.6,0.6,129.0
Q 1.2,130.1,3.6,128.1
Q 6.8,125.5,7.3,121.0
Q 7.4,120.1,7.6,119.2
Q 7.2,120.3,6.9,121.4
Q 4.9,128.1,1.8,128.7
Q 1.2,128.8,0.9,118.3
 " /> 
<path  
style="fill:rgb(7,193,201)" 
d="M 7.6 118.8
Q 7.9,118.1,8.2,117.5
Q 10.5,113.2,11.2,114.6
Q 15.9,123.4,19.5,117.0
Q 20.0,116.0,20.6,115.1
Q 21.4,119.2,21.5,122.9
Q 21.7,128.8,23.3,128.1
Q 27.1,126.3,27.1,112.9
Q 27.1,110.6,27.3,110.2
Q 27.6,109.8,28.9,109.4
Q 28.3,109.5,27.8,109.5
Q 26.7,109.6,26.7,112.1
Q 26.5,125.2,22.9,127.6
Q 22.3,127.9,22.1,123.7
Q 21.5,114.8,20.6,114.8
Q 20.0,114.8,19.5,115.9
Q 19.1,117.0,18.0,118.1
Q 15.2,120.9,12.2,115.1
Q 11.3,113.4,10.7,113.7
Q 8.2,114.6,7.8,117.4
Q 7.7,118.1,7.6,118.8
 " /> 
<path  
style="fill:rgb(14,103,171)" 
d="M 0.0 69.9
Q -0.4,69.2,-0.9,68.6
Q -1.8,68.6,-2.7,67.4
Q -4.7,65.0,-7.9,65.0
Q -9.8,65.0,-11.4,63.2
Q -12.9,61.4,-14.0,61.4
Q -14.5,61.4,-15.1,61.4
Q -15.3,61.4,-15.6,61.4
Q -20.3,63.8,-22.2,61.9
Q -22.7,61.4,-23.1,61.0
Q -23.6,60.9,-24.0,60.7
Q -24.9,60.5,-26.2,60.6
Q -26.8,60.7,-27.3,60.8
Q -28.4,61.0,-31.4,64.9
Q -35.0,69.6,-36.7,75.1
Q -36.0,75.3,-35.4,75.5
Q -34.0,70.0,-32.4,70.1
Q -31.5,70.2,-33.2,73.8
Q -34.4,76.6,-35.0,76.6
Q -35.6,76.6,-35.4,75.5
Q -36.0,75.3,-36.7,75.1
Q -37.7,78.4,-38.0,82.0
Q -38.3,84.8,-38.2,85.1
Q -38.0,86.2,-36.2,83.0
Q -34.9,80.6,-30.0,75.2
Q -25.1,69.9,-24.5,69.9
Q -22.4,69.9,-30.1,77.8
Q -39.7,87.5,-36.3,95.7
Q -33.8,101.7,-28.4,104.6
Q -28.6,101.2,-28.7,97.9
Q -28.9,91.2,-28.2,91.2
Q -26.8,91.2,-27.0,99.5
Q -27.0,102.0,-27.1,104.6
Q -19.1,104.6,-16.7,98.5
Q -16.2,97.5,-16.1,90.6
Q -15.9,76.3,-15.1,75.5
Q -14.2,74.6,-14.5,86.0
Q -14.8,96.5,-14.1,96.0
Q -12.6,95.1,-11.3,92.1
Q -10.8,90.9,-9.0,88.2
Q -4.9,82.4,-1.9,70.8
Q -1.6,69.8,0.0,69.9
 " /> 
<path  
style="fill:rgb(7,193,201)" 
d="M -10.2 80.3
Q -10.2,85.0,-9.6,85.0
Q -8.9,85.0,-8.9,83.1
Q -8.9,81.2,-8.8,78.6
Q -8.7,76.0,-9.5,75.8
Q -10.2,75.6,-10.2,80.3
 " /> 
<path  
style="fill:rgb(14,103,171)" 
d="M 0.0 69.9
Q -0.0,69.5,-0.1,69.1
Q -0.4,69.1,-0.6,68.6
Q -0.8,68.6,-0.9,68.6
Q -0.4,69.2,0.0,69.9
 " /> 
<path  
style="fill:rgb(14,103,171)" 
d="M 0.0 69.9
Q 0.2,69.4,0.4,69.0
Q 0.2,69.0,-0.0,69.1
Q -0.0,69.1,-0.1,69.1
Q -0.0,69.5,0.0,69.9
 " /> 
<path  
style="fill:rgb(14,103,171)" 
d="M 0.0 69.9
Q 0.4,69.8,0.4,69.4
Q 0.4,69.2,0.4,69.0
Q 0.2,69.4,0.0,69.9
 " /> 
<path  
style="fill:rgb(4,4,4)" 
d="M 0.4 69.0
Q -0.1,68.8,-0.6,68.6
Q -0.4,69.1,-0.0,69.1
Q -0.0,69.1,-0.0,69.1
Q 0.2,69.0,0.4,69.0
 " /> 
<path  
style="fill:rgb(4,4,4)" 
d="M 0.4 69.0
Q -0.2,68.6,-0.9,68.1
Q -0.8,68.3,-0.7,68.5
Q -0.6,68.7,-0.5,68.8
Q -0.1,68.8,0.4,69.0
 " /> 
<path  
style="fill:rgb(4,4,4)" 
d="M 0.4 69.0
Q 1.9,61.2,2.6,61.3
Q 3.9,61.6,1.7,58.1
Q -0.9,54.1,-2.0,47.9
Q -2.3,46.0,-2.7,44.1
Q -3.4,44.2,-4.2,44.2
Q -3.8,51.3,-0.9,56.9
Q 0.4,59.7,-0.2,63.9
Q -0.6,66.0,-0.9,68.1
Q -0.2,68.6,0.4,69.0
 " /> 
<path  
style="fill:rgb(4,4,4)" 
d="M -2.7 44.1
Q -2.8,43.7,-2.9,43.2
Q -3.1,42.3,-2.7,41.0
Q -3.5,41.0,-4.3,41.1
Q -4.3,42.4,-4.2,43.7
Q -4.2,43.9,-4.2,44.2
Q -3.4,44.2,-2.7,44.1
 " /> 
<path  
style="fill:rgb(14,103,171)" 
d="M -2.7 44.1
Q -2.7,42.6,-2.7,41.0
Q -3.1,42.3,-2.9,43.2
Q -2.8,43.7,-2.7,44.1
 " /> 
<path  
style="fill:rgb(4,4,4)" 
d="M -2.7 41.0
Q -2.7,40.8,-2.7,40.6
Q -3.5,40.6,-4.3,40.6
Q -4.3,41.4,-4.3,42.2
Q -3.5,41.0,-2.7,41.0
 " /> 
<path  
style="fill:rgb(97,247,248)" 
d="M -2.7 41.0
Q -2.4,40.8,-2.1,40.7
Q -2.3,40.3,-2.5,39.8
Q -2.5,40.5,-2.7,40.6
Q -2.7,40.8,-2.7,41.0
 " /> 
<path  
style="fill:rgb(97,247,248)" 
d="M -2.7 40.6
Q -2.5,40.5,-2.3,40.4
Q -2.5,39.9,-2.7,39.2
Q -2.7,39.9,-2.7,40.6
 " /> 
<path  
style="fill:rgb(4,4,4)" 
d="M -2.7 40.6
Q -2.9,39.3,-3.1,38.1
Q -3.8,38.2,-4.4,38.3
Q -4.4,39.5,-4.3,40.6
Q -3.5,40.6,-2.7,40.6
 " /> 
<path  
style="fill:rgb(14,103,171)" 
d="M -2.7 40.6
Q -2.7,39.9,-2.7,39.2
Q -2.5,39.1,-2.3,39.0
Q -2.0,38.7,-2.6,38.3
Q -2.8,38.1,-3.1,37.9
Q -3.1,38.0,-3.1,38.1
Q -2.9,39.3,-2.7,40.6
 " /> 
<path  
style="fill:rgb(4,4,4)" 
d="M -2.7 39.2
Q -2.5,39.9,-2.3,40.4
Q -2.1,40.8,-1.9,41.0
Q -1.7,41.3,-1.2,41.2
Q -0.1,41.1,-2.3,32.4
Q -4.4,24.2,-5.3,24.7
Q -5.8,25.0,-5.1,28.6
Q -4.8,30.3,-4.4,32.1
Q -4.3,32.9,-4.2,33.7
Q -4.0,35.2,-4.2,36.8
Q -4.3,37.6,-4.4,38.3
Q -3.8,38.2,-3.1,38.1
Q -3.1,38.0,-3.1,37.9
Q -2.8,38.1,-2.6,38.3
Q -2.0,38.7,-2.3,39.0
Q -2.5,39.1,-2.7,39.2
 " /> 
<path  
style="fill:rgb(14,103,171)" 
d="M -4.4 32.1
Q -4.4,35.2,-4.4,38.3
Q -4.3,37.6,-4.2,36.8
Q -4.0,35.2,-4.2,33.7
Q -4.3,32.9,-4.4,32.1
 " /> 
<path  
style="fill:rgb(7,193,201)" 
d="M -0.9 68.6
Q -2.2,67.7,-2.9,66.8
Q -4.3,64.9,-8.0,64.4
Q -9.9,64.2,-11.6,62.6
Q -13.3,61.0,-15.1,61.4
Q -14.5,61.4,-14.0,61.4
Q -12.9,61.4,-11.4,63.2
Q -9.8,65.0,-7.9,65.0
Q -4.7,65.0,-2.7,67.4
Q -1.8,68.6,-0.9,68.6
 " /> 
<path  
style="fill:rgb(7,193,201)" 
d="M -15.6 61.4
Q -20.5,62.5,-21.8,61.7
Q -22.4,61.4,-23.1,61.0
Q -22.7,61.4,-22.2,61.9
Q -20.3,63.8,-15.6,61.4
 " /> 
<path  
style="fill:rgb(7,193,201)" 
d="M 51.1 66.8
Q 50.9,66.9,50.8,67.0
Q 51.2,67.5,51.6,68.1
Q 51.6,66.7,51.1,66.8
 " /> 
<path  
style="fill:rgb(7,193,201)" 
d="M 51.1 66.8
Q 50.6,66.0,50.0,65.2
Q 47.0,61.1,43.6,62.1
Q 42.4,62.4,41.3,62.8
Q 45.8,61.9,47.1,62.8
Q 48.3,63.6,50.8,67.0
Q 50.9,66.9,51.1,66.8
 " /> 
<path  
style="fill:rgb(14,103,171)" 
d="M 41.3 62.8
Q 41.1,62.8,40.9,62.8
Q 40.0,63.3,39.1,63.9
Q 37.3,65.0,35.4,66.5
Q 33.5,68.0,31.1,69.7
Q 28.7,71.4,27.2,72.9
Q 25.6,74.5,24.9,74.3
Q 26.2,85.9,26.9,89.0
Q 27.6,92.1,29.3,95.7
Q 29.6,92.4,29.8,89.2
Q 30.2,82.8,30.7,82.1
Q 32.1,80.2,31.5,84.9
Q 31.1,87.5,30.9,91.0
Q 30.5,96.3,30.3,96.9
Q 30.2,97.1,29.8,97.0
Q 30.4,98.0,31.1,99.0
Q 32.4,101.0,34.7,102.2
Q 35.9,102.8,37.0,103.4
Q 34.4,96.5,35.1,84.7
Q 35.6,75.0,36.0,76.4
Q 36.7,79.2,36.1,85.8
Q 35.5,93.0,37.2,100.1
Q 38.6,106.2,44.2,103.2
Q 50.4,99.8,49.1,93.1
Q 46.6,79.9,45.7,76.4
Q 44.3,71.3,46.0,73.0
Q 47.6,74.8,49.6,86.8
Q 50.3,90.6,51.0,94.1
Q 52.3,87.1,52.6,83.4
Q 52.7,81.5,52.9,79.7
Q 52.7,79.8,52.4,79.9
Q 52.0,80.1,51.8,79.0
Q 51.7,78.7,51.6,78.3
Q 51.3,77.4,50.6,76.3
Q 49.7,74.7,50.2,74.2
Q 51.3,73.1,52.5,76.8
Q 52.7,77.3,52.9,77.9
Q 52.8,76.4,52.7,75.0
Q 52.5,72.1,51.6,68.1
Q 51.2,67.5,50.8,67.0
Q 48.3,63.6,47.1,62.8
Q 45.8,61.9,41.3,62.8
 " /> 
<path  
style="fill:rgb(7,193,201)" 
d="M 42.9 99.1
Q 43.7,102.8,44.2,102.6
Q 44.8,102.4,43.8,96.1
Q 43.1,91.9,42.9,90.3
Q 42.6,87.2,41.8,88.0
Q 40.8,88.9,42.9,99.1
 " /> 
<path  
style="fill:rgb(7,193,201)" 
d="M 40.9 62.8
Q 40.2,63.1,39.6,63.5
Q 35.7,65.5,32.0,68.6
Q 26.0,73.6,25.5,73.6
Q 25.4,73.6,25.4,73.5
Q 25.1,73.9,24.9,74.3
Q 25.6,74.5,27.2,72.9
Q 28.7,71.4,31.1,69.7
Q 33.5,68.0,35.4,66.5
Q 37.3,65.0,39.1,63.9
Q 40.0,63.3,40.9,62.8
 " /> 
<path  
style="fill:rgb(4,4,4)" 
d="M 24.9 72.6
Q 24.1,72.6,23.2,72.6
Q 23.3,74.4,23.4,75.8
Q 24.1,74.4,24.9,74.3
Q 24.9,73.4,24.9,72.6
 " /> 
<path  
style="fill:rgb(4,4,4)" 
d="M 24.9 72.6
Q 24.9,71.4,24.9,70.3
Q 24.8,70.1,24.6,69.9
Q 24.4,69.4,24.6,68.8
Q 24.8,68.4,24.9,68.1
Q 24.9,66.6,24.9,65.0
Q 24.9,61.9,26.4,58.3
Q 28.0,54.8,28.7,51.4
Q 29.0,49.8,29.3,48.1
Q 29.2,47.8,29.1,47.4
Q 28.8,46.8,29.1,46.1
Q 29.2,45.8,29.3,45.4
Q 29.3,45.2,29.3,45.0
Q 28.8,44.1,29.1,43.4
Q 29.2,43.1,29.3,42.8
Q 29.0,40.3,28.7,37.9
Q 28.0,33.0,26.9,28.9
Q 25.7,24.8,25.8,22.6
Q 25.9,20.4,25.3,20.4
Q 24.7,20.4,24.4,24.1
Q 23.9,28.6,22.4,37.3
Q 22.1,38.8,23.0,38.8
Q 23.9,38.8,24.4,36.2
Q 24.9,33.7,25.3,32.4
Q 25.5,31.7,25.7,31.0
Q 28.1,44.7,27.1,49.8
Q 25.8,57.4,23.5,60.6
Q 22.7,61.9,23.1,63.7
Q 23.1,65.0,23.1,66.3
Q 23.1,69.9,23.2,72.6
Q 24.1,72.6,24.9,72.6
 " /> 
<path  
style="fill:rgb(7,193,201)" 
d="M 24.9 72.6
Q 24.9,73.4,24.9,74.3
Q 25.1,73.9,25.4,73.5
Q 25.2,73.4,24.9,72.6
 " /> 
<path  
style="fill:rgb(14,103,171)" 
d="M 24.9 70.3
Q 24.9,69.2,24.9,68.1
Q 24.8,68.4,24.6,68.8
Q 24.4,69.4,24.6,69.9
Q 24.8,70.1,24.9,70.3
 " /> 
<path  
style="fill:rgb(14,103,171)" 
d="M 29.3 48.1
Q 29.3,46.8,29.3,45.4
Q 29.2,45.8,29.1,46.1
Q 28.8,46.8,29.1,47.4
Q 29.2,47.8,29.3,48.1
 " /> 
<path  
style="fill:rgb(14,103,171)" 
d="M 29.3 45.0
Q 29.3,43.9,29.3,42.8
Q 29.2,43.1,29.1,43.4
Q 28.8,44.1,29.3,45.0
 " /> 
<path  
style="fill:rgb(7,193,201)" 
d="M 23.1 63.7
Q 23.0,64.0,22.9,64.3
Q 22.6,65.0,22.9,65.7
Q 23.0,66.0,23.1,66.3
Q 23.1,65.0,23.1,63.7
 " /> 
<path  
style="fill:rgb(14,103,171)" 
d="M 28.0 98.3
Q 28.0,100.1,28.0,101.9
Q 28.1,101.5,28.2,101.0
Q 28.5,100.1,28.0,98.3
 " /> 
<path  
style="fill:rgb(7,193,201)" 
d="M -28.4 104.6
Q -27.8,104.6,-27.1,104.6
Q -27.0,102.0,-27.0,99.5
Q -26.8,91.2,-28.2,91.2
Q -28.9,91.2,-28.7,97.9
Q -28.6,101.2,-28.4,104.6
 " /> 
<path  
style="fill:rgb(4,4,4)" 
d="M 29.3 95.7
Q 29.6,96.3,29.8,97.0
Q 29.8,96.8,29.8,96.5
Q 29.8,96.1,29.6,95.9
Q 29.5,95.8,29.3,95.7
 " /> 
<path  
style="fill:rgb(7,193,201)" 
d="M 29.3 95.7
Q 29.5,95.8,29.6,95.9
Q 29.8,96.1,29.8,96.5
Q 29.8,96.8,29.8,97.0
Q 30.2,97.1,30.3,96.9
Q 30.5,96.3,30.9,91.0
Q 31.1,87.5,31.5,84.9
Q 32.1,80.2,30.7,82.1
Q 30.2,82.8,29.8,89.2
Q 29.6,92.4,29.3,95.7
 " /> 
<path  
style="fill:rgb(7,193,201)" 
d="M 52.9 77.9
Q 52.2,78.1,51.6,78.3
Q 51.7,78.7,51.8,79.0
Q 52.0,80.1,52.4,79.9
Q 52.7,79.8,52.9,79.7
Q 52.9,78.8,52.9,77.9
 " /> 
<path  
style="fill:rgb(7,193,201)" 
d="M 52.9 77.9
Q 52.7,77.3,52.5,76.8
Q 51.3,73.1,50.2,74.2
Q 49.7,74.7,50.6,76.3
Q 51.3,77.4,51.6,78.3
Q 52.2,78.1,52.9,77.9
 " /> 
<path  
style="fill:rgb(7,193,201)" 
d="M -35.4 75.5
Q -35.6,76.6,-35.0,76.6
Q -34.4,76.6,-33.2,73.8
Q -31.5,70.2,-32.4,70.1
Q -34.0,70.0,-35.4,75.5
 " /> 
<path  
style="fill:rgb(255,255,255)" 
d="M 29.6 14.3
Q 31.0,16.6,30.4,13.4
Q 29.9,10.1,29.0,9.5
Q 27.6,8.4,26.0,9.1
Q 25.5,9.3,27.4,11.3
Q 28.8,12.8,29.6,14.3
 " /> 
<path  
style="fill:rgb(4,4,4)" 
d="M -100.0 -37.2
Q -99.4,-36.8,-98.9,-36.3
Q -97.8,-35.4,-96.0,-33.2
Q -95.0,-32.4,-94.0,-31.7
Q -82.9,-23.0,-68.8,-18.0
Q -59.0,-14.6,-53.3,-14.5
Q -52.0,-14.5,-53.7,-16.6
Q -57.0,-21.0,-59.6,-26.1
Q -70.1,-26.1,-87.3,-38.2
Q -94.2,-43.1,-93.2,-44.2
Q -92.9,-44.5,-91.0,-42.7
Q -82.0,-34.4,-69.5,-29.6
Q -65.8,-28.1,-60.4,-27.4
Q -64.9,-38.5,-66.4,-43.2
Q -68.0,-47.9,-69.8,-54.5
Q -71.4,-55.3,-73.1,-56.1
Q -84.4,-61.4,-91.9,-75.5
Q -92.1,-75.9,-91.5,-75.9
Q -90.9,-75.9,-89.0,-72.9
Q -84.7,-65.8,-78.1,-60.6
Q -74.4,-57.8,-70.2,-56.3
Q -70.4,-57.8,-70.7,-59.2
Q -71.1,-62.1,-71.6,-66.5
Q -71.8,-68.8,-72.0,-71.0
Q -72.4,-71.4,-72.9,-71.7
Q -74.1,-72.8,-75.3,-73.9
Q -83.5,-81.0,-86.2,-90.5
Q -87.0,-93.6,-86.6,-93.9
Q -86.1,-94.2,-84.7,-89.7
Q -81.6,-79.9,-72.0,-72.8
Q -72.0,-76.5,-72.0,-80.3
Q -72.0,-82.8,-71.9,-83.3
Q -71.9,-83.7,-71.6,-83.9
Q -71.5,-84.6,-71.4,-85.4
Q -71.3,-86.9,-71.1,-87.4
Q -76.8,-90.3,-80.7,-100.5
Q -81.8,-103.6,-81.4,-104.0
Q -81.0,-104.4,-80.0,-101.8
Q -77.1,-94.1,-73.4,-90.6
Q -72.3,-89.4,-71.1,-88.3
Q -70.8,-90.4,-70.5,-92.5
Q -69.8,-96.8,-67.6,-102.1
Q -72.2,-109.1,-71.5,-115.2
Q -71.1,-118.1,-70.3,-111.9
Q -69.8,-107.4,-68.6,-105.0
Q -68.1,-103.8,-67.6,-102.5
Q -65.0,-108.5,-62.3,-112.6
Q -60.5,-115.4,-61.6,-115.6
Q -62.7,-115.9,-63.6,-117.2
Q -64.6,-118.5,-64.4,-120.3
Q -65.0,-120.2,-64.9,-121.4
Q -64.9,-121.4,-64.9,-121.4
Q -64.9,-121.9,-64.9,-122.5
Q -64.9,-125.9,-64.9,-129.2
Q -64.9,-133.0,-64.8,-133.5
Q -64.8,-133.9,-64.4,-134.1
Q -64.6,-137.1,-64.7,-140.1
Q -64.9,-146.1,-66.1,-148.9
Q -71.9,-143.1,-76.1,-115.7
Q -76.7,-111.4,-77.8,-111.6
Q -79.1,-111.9,-79.1,-115.2
Q -79.1,-116.2,-79.1,-117.2
Q -79.6,-117.0,-79.6,-118.2
Q -79.6,-118.2,-79.6,-118.2
Q -79.6,-118.8,-79.6,-119.4
Q -79.6,-122.1,-79.6,-124.8
Q -79.7,-124.7,-79.8,-124.7
Q -80.1,-124.6,-80.0,-127.9
Q -80.4,-129.2,-80.9,-130.5
Q -81.4,-129.6,-81.9,-128.6
Q -82.9,-126.6,-84.0,-116.8
Q -84.0,-114.3,-84.4,-114.1
Q -85.3,-111.4,-86.1,-111.2
Q -87.6,-110.8,-89.3,-119.0
Q -95.1,-145.7,-99.5,-146.4
Q -101.3,-146.8,-102.2,-140.3
Q -102.4,-138.8,-102.7,-137.2
Q -102.5,-137.3,-102.4,-137.3
Q -102.1,-137.4,-102.2,-132.8
Q -100.2,-120.4,-97.6,-112.9
Q -96.0,-108.3,-94.9,-103.9
Q -94.3,-101.7,-93.8,-99.4
Q -93.3,-98.1,-93.5,-97.7
Q -93.6,-97.4,-93.8,-97.2
Q -94.0,-96.8,-94.2,-96.3
Q -96.7,-91.4,-103.2,-106.3
Q -108.5,-118.3,-109.7,-118.4
Q -112.1,-118.4,-112.1,-107.4
Q -112.1,-85.7,-93.9,-58.5
Q -90.0,-52.8,-91.5,-51.4
Q -92.6,-50.2,-106.9,-58.1
Q -109.2,-59.4,-110.2,-59.5
Q -112.8,-59.7,-108.9,-51.8
Q -106.5,-47.0,-100.0,-37.2
 " /> 
<path  
style="fill:rgb(14,103,171)" 
d="M -100.0 -37.2
Q -99.5,-36.7,-99.1,-36.1
Q -98.2,-35.0,-96.0,-33.2
Q -97.8,-35.4,-98.9,-36.3
Q -99.4,-36.8,-100.0,-37.2
 " /> 
<path  
style="fill:rgb(14,103,171)" 
d="M -93.8 -97.2
Q -93.6,-97.4,-93.5,-97.7
Q -93.3,-98.1,-93.8,-99.4
Q -93.8,-98.3,-93.8,-97.2
 " /> 
<path  
style="fill:rgb(14,103,171)" 
d="M -102.2 -132.8
Q -102.1,-137.4,-102.4,-137.3
Q -102.5,-137.3,-102.7,-137.2
Q -102.7,-133.1,-102.6,-132.8
Q -102.6,-132.6,-102.2,-132.8
 " /> 
<path  
style="fill:rgb(14,103,171)" 
d="M -84.4 -114.1
Q -84.0,-114.3,-84.0,-116.8
Q -84.4,-116.6,-84.4,-114.1
 " /> 
<path  
style="fill:rgb(14,103,171)" 
d="M -80.0 -127.9
Q -80.1,-124.6,-79.8,-124.7
Q -79.7,-124.7,-79.6,-124.8
Q -79.6,-127.6,-79.6,-127.8
Q -79.7,-128.0,-80.0,-127.9
 " /> 
<path  
style="fill:rgb(14,103,171)" 
d="M -79.6 -119.4
Q -79.6,-118.8,-79.6,-118.2
Q -79.3,-117.7,-79.1,-117.2
Q -79.1,-119.1,-79.2,-119.4
Q -79.2,-119.6,-79.6,-119.4
 " /> 
<path  
style="fill:rgb(14,103,171)" 
d="M -79.1 -117.2
Q -79.3,-117.7,-79.6,-118.2
Q -79.6,-118.2,-79.6,-118.2
Q -79.6,-117.0,-79.1,-117.2
 " /> 
<path  
style="fill:rgb(14,103,171)" 
d="M -64.4 -134.1
Q -64.8,-133.9,-64.8,-133.5
Q -64.9,-133.0,-64.9,-129.2
Q -64.5,-129.4,-64.5,-131.7
Q -64.5,-132.9,-64.4,-134.1
 " /> 
<path  
style="fill:rgb(14,103,171)" 
d="M -64.9 -122.5
Q -64.9,-121.9,-64.9,-121.4
Q -64.7,-120.8,-64.4,-120.3
Q -64.4,-122.2,-64.5,-122.5
Q -64.6,-122.7,-64.9,-122.5
 " /> 
<path  
style="fill:rgb(14,103,171)" 
d="M -64.4 -120.3
Q -64.7,-120.8,-64.9,-121.4
Q -64.9,-121.4,-64.9,-121.4
Q -65.0,-120.2,-64.4,-120.3
 " /> 
<path  
style="fill:rgb(97,247,248)" 
d="M -71.1 -88.3
Q -72.3,-89.4,-73.4,-90.6
Q -77.1,-94.1,-80.0,-101.8
Q -81.0,-104.4,-81.4,-104.0
Q -81.8,-103.6,-80.7,-100.5
Q -76.8,-90.3,-71.1,-87.4
Q -71.1,-87.9,-71.1,-88.3
 " /> 
<path  
style="fill:rgb(14,103,171)" 
d="M -71.6 -83.9
Q -71.9,-83.7,-71.9,-83.3
Q -72.0,-82.8,-72.0,-80.3
Q -71.9,-80.4,-71.8,-80.4
Q -71.6,-80.5,-71.6,-82.2
Q -71.6,-83.0,-71.6,-83.9
 " /> 
<path  
style="fill:rgb(97,247,248)" 
d="M -72.0 -72.8
Q -72.4,-72.3,-72.9,-71.7
Q -72.4,-71.4,-72.0,-71.0
Q -72.0,-71.9,-72.0,-72.8
 " /> 
<path  
style="fill:rgb(97,247,248)" 
d="M -72.0 -72.8
Q -81.6,-79.9,-84.7,-89.7
Q -86.1,-94.2,-86.6,-93.9
Q -87.0,-93.6,-86.2,-90.5
Q -83.5,-81.0,-75.3,-73.9
Q -74.1,-72.8,-72.9,-71.7
Q -72.4,-72.3,-72.0,-72.8
 " /> 
<path  
style="fill:rgb(97,247,248)" 
d="M -70.2 -56.3
Q -74.4,-57.8,-78.1,-60.6
Q -84.7,-65.8,-89.0,-72.9
Q -90.9,-75.9,-91.5,-75.9
Q -92.1,-75.9,-91.9,-75.5
Q -84.4,-61.4,-73.1,-56.1
Q -71.4,-55.3,-69.8,-54.5
Q -70.2,-55.4,-70.2,-56.3
 " /> 
<path  
style="fill:rgb(97,247,248)" 
d="M -60.4 -27.4
Q -65.8,-28.1,-69.5,-29.6
Q -82.0,-34.4,-91.0,-42.7
Q -92.9,-44.5,-93.2,-44.2
Q -94.2,-43.1,-87.3,-38.2
Q -70.1,-26.1,-59.6,-26.1
Q -60.0,-26.8,-60.4,-27.4
 " /> 
<path  
style="fill:rgb(97,247,248)" 
d="M 76.6 -101.1
Q 76.3,-100.3,77.0,-100.3
Q 78.8,-100.3,78.7,-108.0
Q 78.7,-111.4,78.4,-111.4
Q 78.2,-111.4,78.0,-108.7
Q 77.6,-103.4,76.6,-101.1
 " /> 
<path  
style="fill:rgb(97,247,248)" 
d="M 69.1 -112.6
Q 68.8,-110.4,69.4,-110.7
Q 70.0,-110.9,70.4,-113.0
Q 70.8,-115.0,70.5,-115.3
Q 69.6,-116.2,69.1,-112.6
 " /> 
<path  
style="fill:rgb(97,247,248)" 
d="M -69.8 -70.1
Q -69.6,-70.1,-69.5,-70.2
Q -69.3,-70.3,-69.3,-67.4
Q -69.0,-65.0,-68.7,-62.5
Q -67.0,-50.3,-60.0,-33.2
Q -55.6,-22.4,-47.0,-12.3
Q -45.9,-11.0,-44.8,-9.7
Q -44.0,-10.6,-43.2,-11.6
Q -41.5,-13.5,-40.5,-14.8
Q -39.6,-16.1,-39.1,-15.6
Q -37.7,-14.2,-50.5,-1.4
Q -59.1,7.3,-59.1,13.4
Q -59.1,22.5,-43.4,2.2
Q -41.7,-0.1,-40.8,-1.1
Q -40.0,-2.2,-39.5,-3.3
Q -39.0,-4.5,-38.2,-5.3
Q -37.4,-6.0,-36.6,-7.3
Q -33.3,-11.9,-33.0,-10.4
Q -32.8,-9.7,-34.7,-7.2
Q -36.6,-4.7,-35.9,-4.1
Q -35.3,-3.6,-31.1,-1.3
Q -27.8,-8.3,-27.3,-6.9
Q -27.0,-6.2,-28.2,-3.4
Q -30.7,2.4,-31.8,3.7
Q -37.6,10.5,-39.2,18.3
Q -40.9,26.9,-30.2,18.0
Q -23.4,12.4,-21.0,8.7
Q -20.1,7.4,-17.1,4.2
Q -14.1,1.0,-13.4,1.0
Q -12.2,1.0,-14.9,4.4
Q -16.6,6.5,-16.9,7.0
Q -17.6,8.1,-5.3,9.4
Q -2.9,9.6,-0.4,9.9
Q 2.2,9.9,4.9,9.9
Q 5.7,9.9,6.6,9.9
Q 8.3,9.9,10.2,9.5
Q 11.3,9.5,12.4,9.5
Q 15.7,8.8,18.9,8.1
Q 25.3,6.8,26.9,6.5
Q 29.7,6.0,26.5,-0.4
Q 25.8,-1.7,26.5,-2.0
Q 27.6,-2.4,28.9,1.7
Q 29.9,4.8,30.4,6.1
Q 31.0,7.5,32.2,12.1
Q 34.5,21.2,36.0,19.8
Q 39.3,16.8,38.8,7.3
Q 38.7,6.0,38.7,4.6
Q 38.5,4.6,38.4,4.6
Q 38.2,4.7,38.2,3.5
Q 38.2,3.5,38.2,3.5
Q 38.2,2.9,38.2,2.3
Q 37.9,1.1,37.6,-0.1
Q 36.9,-2.5,36.0,-4.6
Q 34.0,-9.1,35.1,-8.6
Q 36.9,-8.0,39.2,-0.9
Q 39.6,0.5,40.1,1.9
Q 41.3,0.9,42.6,-0.2
Q 45.1,-2.2,45.0,-3.4
Q 44.9,-4.7,43.8,-8.7
Q 42.7,-12.8,43.4,-13.1
Q 44.2,-13.4,44.7,-12.1
Q 46.7,-5.6,47.8,1.0
Q 49.6,12.1,51.5,10.1
Q 54.0,7.5,55.3,1.4
Q 57.3,-8.0,53.9,-15.8
Q 52.0,-20.3,53.4,-19.8
Q 54.9,-19.2,56.7,-13.6
Q 57.6,-11.0,57.8,-11.0
Q 58.1,-11.0,60.2,-13.1
Q 70.2,-23.4,75.8,-42.7
Q 77.1,-47.3,78.2,-59.0
Q 78.2,-60.1,78.2,-61.2
Q 78.2,-80.0,73.7,-93.5
Q 67.5,-111.8,49.2,-119.5
Q 45.7,-120.9,45.9,-121.6
Q 46.3,-123.1,49.7,-121.9
Q 50.6,-121.6,51.6,-121.2
Q 51.0,-123.2,49.7,-125.9
Q 43.7,-137.7,33.6,-140.7
Q 30.6,-141.5,27.1,-142.1
Q 26.0,-142.1,24.9,-142.1
Q 24.0,-141.9,23.1,-141.7
Q 20.2,-140.9,16.0,-138.3
Q 15.1,-137.8,14.2,-137.2
Q 12.4,-135.0,10.2,-133.2
Q 9.2,-131.7,8.2,-130.2
Q 6.7,-128.0,5.9,-127.5
Q 5.1,-127.1,1.8,-127.0
Q 1.2,-127.0,0.6,-127.0
Q -0.7,-127.0,-0.4,-127.4
Q -5.8,-127.4,-6.5,-128.9
Q -12.3,-139.9,-21.1,-144.1
Q -24.5,-145.6,-28.9,-146.1
Q -30.0,-146.1,-31.1,-146.1
Q -32.2,-146.1,-33.3,-146.1
Q -34.2,-145.8,-35.1,-145.4
Q -41.2,-143.1,-45.1,-134.2
Q -46.7,-130.5,-46.9,-128.6
Q -47.6,-123.7,-49.3,-124.0
Q -49.9,-124.1,-51.1,-123.0
Q -51.4,-122.6,-51.8,-122.3
Q -52.4,-121.6,-52.9,-120.8
Q -53.1,-120.3,-53.3,-119.9
Q -54.7,-118.1,-56.2,-117.0
Q -57.7,-115.9,-59.7,-112.9
Q -68.0,-100.2,-69.3,-85.0
Q -69.5,-82.2,-69.8,-79.4
Q -69.8,-78.3,-69.8,-77.2
Q -69.8,-73.7,-69.8,-70.1
 " /> 
<path  
style="fill:rgb(4,4,4)" 
d="M 16.3 -2.9
Q 20.4,-0.6,20.4,-1.8
Q 20.4,-2.4,18.5,-3.8
Q 11.2,-9.0,-2.1,-4.4
Q -4.0,-3.8,-3.3,-3.0
Q -2.8,-2.5,1.1,-3.5
Q 11.0,-5.8,16.3,-2.9
 " /> 
<path  
style="fill:rgb(4,4,4)" 
d="M 12.3 -28.3
Q 14.7,-23.4,15.4,-23.4
Q 16.5,-23.4,13.9,-28.8
Q 11.1,-35.0,10.3,-33.8
Q 10.0,-33.3,12.3,-28.3
 " /> 
<path  
style="fill:rgb(4,4,4)" 
d="M -1.5 -24.3
Q -0.9,-23.2,1.1,-26.6
Q 2.8,-29.4,4.1,-31.4
Q 5.5,-33.3,5.7,-34.2
Q 6.1,-36.6,3.0,-32.4
Q -2.3,-25.5,-1.5,-24.3
 " /> 
<path  
style="fill:rgb(14,103,171)" 
d="M 37.8 -97.2
Q 39.1,-98.2,39.8,-99.0
Q 40.1,-99.4,40.4,-99.9
Q 38.7,-98.5,37.8,-97.2
 " /> 
<path  
style="fill:rgb(4,4,4)" 
d="M 37.8 -97.2
Q 28.3,-85.3,19.9,-62.3
Q 18.1,-57.4,17.5,-55.9
Q 16.8,-54.3,16.4,-52.8
Q 16.0,-51.2,15.2,-49.0
Q 13.7,-45.2,14.7,-44.9
Q 15.4,-44.7,16.4,-47.5
Q 16.9,-48.8,17.4,-50.2
Q 18.6,-47.8,19.8,-45.3
Q 30.1,-24.0,49.5,-36.9
Q 67.0,-48.6,67.9,-69.0
Q 68.4,-82.4,60.6,-93.9
Q 52.8,-105.5,44.9,-102.5
Q 43.2,-101.9,40.4,-99.9
Q 40.1,-99.4,39.8,-99.0
Q 39.1,-98.2,37.8,-97.2
 " /> 
<path  
style="fill:rgb(31,181,0)" 
d="M 38.7 -35.4
Q 36.7,-35.4,34.7,-35.4
Q 35.2,-35.3,35.8,-35.2
Q 36.9,-35.0,38.7,-35.4
 " /> 
<path  
style="fill:rgb(115,250,3)" 
d="M 38.7 -35.4
Q 44.9,-37.3,48.4,-39.7
Q 50.2,-40.9,52.0,-42.1
Q 54.2,-44.8,56.9,-47.0
Q 60.9,-53.2,62.2,-56.1
Q 63.6,-59.0,64.4,-63.4
Q 64.9,-65.7,65.3,-67.9
Q 65.3,-69.9,65.3,-71.9
Q 64.6,-71.9,63.8,-71.9
Q 63.8,-64.5,58.5,-55.7
Q 47.0,-36.6,32.4,-43.5
Q 26.1,-46.5,25.3,-47.6
Q 23.3,-50.1,27.6,-55.0
Q 27.2,-55.1,26.9,-55.3
Q 25.2,-56.0,25.0,-56.2
Q 24.7,-56.4,24.9,-57.2
Q 25.8,-57.8,26.5,-57.3
Q 26.8,-57.0,27.1,-56.8
Q 27.3,-56.8,27.6,-56.8
Q 29.1,-56.8,30.7,-56.8
Q 35.9,-59.9,41.8,-66.5
Q 41.4,-67.0,41.0,-67.5
Q 40.8,-67.3,40.7,-67.2
Q 32.4,-60.1,29.9,-61.9
Q 26.3,-64.4,34.7,-76.8
Q 36.6,-79.6,36.7,-80.8
Q 36.9,-84.4,41.3,-88.7
Q 45.4,-92.8,45.3,-91.2
Q 45.3,-90.5,46.1,-90.5
Q 48.4,-90.5,51.1,-84.3
Q 53.6,-78.6,52.7,-75.8
Q 52.3,-74.4,47.8,-72.1
Q 45.8,-71.2,43.5,-69.4
Q 43.7,-69.1,44.0,-68.8
Q 44.7,-69.1,45.3,-69.5
Q 50.3,-72.0,53.2,-66.4
Q 55.4,-62.0,56.1,-63.2
Q 56.4,-63.9,56.9,-67.0
Q 56.9,-69.1,57.1,-69.1
Q 57.2,-69.2,57.3,-69.2
Q 57.2,-71.0,57.1,-72.8
Q 56.8,-78.7,54.0,-84.7
Q 52.4,-88.0,52.9,-88.5
Q 53.8,-89.4,56.9,-82.5
Q 57.6,-82.2,57.7,-82.6
Q 57.8,-83.0,59.1,-83.0
Q 62.3,-83.0,63.6,-75.3
Q 63.9,-73.6,63.8,-71.9
Q 64.6,-71.9,65.3,-71.9
Q 65.2,-73.1,65.1,-74.3
Q 64.6,-79.9,61.4,-86.7
Q 59.5,-90.5,56.4,-95.4
Q 54.7,-96.8,54.2,-97.4
Q 54.0,-97.8,53.8,-98.1
Q 53.2,-98.4,52.7,-98.8
Q 51.6,-99.5,48.9,-100.3
Q 47.6,-100.3,46.2,-100.3
Q 44.0,-99.5,42.2,-98.5
Q 40.4,-96.4,38.7,-95.0
Q 37.5,-93.3,36.4,-91.7
Q 34.2,-88.3,32.4,-85.0
Q 31.5,-83.3,30.7,-81.7
Q 30.4,-81.2,30.2,-80.8
Q 29.8,-79.9,28.9,-79.0
Q 28.0,-76.9,27.1,-74.8
Q 19.5,-56.7,19.5,-54.8
Q 19.5,-52.7,23.2,-45.4
Q 24.2,-43.3,25.3,-41.2
Q 25.9,-40.8,26.4,-40.3
Q 27.5,-39.4,28.9,-37.7
Q 29.8,-37.2,30.6,-36.7
Q 32.4,-35.8,33.5,-35.6
Q 34.1,-35.5,34.7,-35.4
Q 36.7,-35.4,38.7,-35.4
 " /> 
<path  
style="fill:rgb(31,181,0)" 
d="M 25.3 -41.2
Q 25.8,-40.7,26.2,-40.1
Q 27.1,-39.0,28.0,-38.3
Q 28.4,-38.0,28.9,-37.7
Q 27.5,-39.4,26.4,-40.3
Q 25.9,-40.8,25.3,-41.2
 " /> 
<path  
style="fill:rgb(31,181,0)" 
d="M 28.9 -79.0
Q 29.8,-79.9,30.2,-80.8
Q 30.4,-81.2,30.7,-81.7
Q 29.7,-80.8,29.3,-79.9
Q 29.1,-79.4,28.9,-79.0
 " /> 
<path  
style="fill:rgb(31,181,0)" 
d="M 38.7 -95.0
Q 40.4,-96.4,42.2,-98.5
Q 41.7,-98.1,41.1,-97.6
Q 40.0,-96.8,39.3,-95.9
Q 39.0,-95.4,38.7,-95.0
 " /> 
<path  
style="fill:rgb(31,181,0)" 
d="M 46.2 -100.3
Q 47.6,-100.3,48.9,-100.3
Q 48.6,-100.4,48.2,-100.6
Q 47.6,-100.8,46.2,-100.3
 " /> 
<path  
style="fill:rgb(31,181,0)" 
d="M 53.8 -98.1
Q 54.0,-97.8,54.2,-97.4
Q 54.7,-96.8,56.4,-95.4
Q 56.1,-95.9,55.8,-96.3
Q 55.1,-97.2,53.8,-98.1
 " /> 
<path  
style="fill:rgb(31,181,0)" 
d="M 65.3 -71.9
Q 65.3,-69.9,65.3,-67.9
Q 65.8,-70.1,65.6,-71.0
Q 65.4,-71.4,65.3,-71.9
 " /> 
<path  
style="fill:rgb(31,181,0)" 
d="M 56.9 -47.0
Q 54.2,-44.8,52.0,-42.1
Q 52.7,-42.7,53.3,-43.2
Q 54.6,-44.3,56.9,-47.0
 " /> 
<path  
style="fill:rgb(115,250,3)" 
d="M 44.9 -67.0
Q 45.4,-66.4,45.9,-65.9
Q 45.9,-65.9,45.9,-65.9
Q 49.0,-66.4,51.4,-62.3
Q 53.8,-58.1,55.6,-59.9
Q 52.9,-62.1,51.5,-64.8
Q 49.4,-68.9,46.4,-67.7
Q 45.7,-67.3,44.9,-67.0
 " /> 
<path  
style="fill:rgb(115,250,3)" 
d="M 44.9 -67.0
Q 44.2,-65.9,44.3,-65.8
Q 44.4,-65.6,45.9,-65.9
Q 45.4,-66.4,44.9,-67.0
 " /> 
<path  
style="fill:rgb(31,181,0)" 
d="M 44.9 -67.0
Q 43.9,-65.9,42.9,-64.8
Q 36.2,-57.3,33.9,-56.1
Q 32.8,-55.5,30.9,-55.2
Q 29.5,-55.0,27.6,-55.0
Q 23.3,-50.1,25.3,-47.6
Q 26.1,-46.5,32.4,-43.5
Q 47.0,-36.6,58.5,-55.7
Q 63.8,-64.5,63.8,-71.9
Q 63.9,-73.6,63.6,-75.3
Q 62.3,-83.0,59.1,-83.0
Q 57.8,-83.0,57.7,-82.6
Q 57.6,-82.2,56.9,-82.5
Q 57.3,-81.4,57.8,-80.3
Q 59.3,-76.5,59.0,-67.3
Q 58.9,-63.3,56.9,-61.2
Q 56.2,-60.5,55.6,-59.9
Q 53.8,-58.1,51.4,-62.3
Q 49.0,-66.4,45.9,-65.9
Q 45.9,-65.9,45.9,-65.9
Q 44.4,-65.6,44.3,-65.8
Q 44.2,-65.9,44.9,-67.0
 " /> 
<path  
style="fill:rgb(4,4,4)" 
d="M 44.9 -67.0
Q 45.7,-67.3,46.4,-67.7
Q 49.4,-68.9,51.5,-64.8
Q 52.9,-62.1,55.6,-59.9
Q 56.2,-60.5,56.9,-61.2
Q 58.9,-63.3,59.0,-67.3
Q 59.3,-76.5,57.8,-80.3
Q 57.3,-81.4,56.9,-82.5
Q 53.8,-89.4,52.9,-88.5
Q 52.4,-88.0,54.0,-84.7
Q 56.8,-78.7,57.1,-72.8
Q 57.2,-71.0,57.3,-69.2
Q 57.3,-67.1,56.9,-67.0
Q 56.4,-63.9,56.1,-63.2
Q 55.4,-62.0,53.2,-66.4
Q 50.3,-72.0,45.3,-69.5
Q 44.7,-69.1,44.0,-68.8
Q 43.8,-68.4,43.5,-68.1
Q 43.1,-67.5,41.8,-66.5
Q 35.9,-59.9,30.7,-56.8
Q 30.8,-56.0,30.9,-55.2
Q 32.8,-55.5,33.9,-56.1
Q 36.2,-57.3,42.9,-64.8
Q 43.9,-65.9,44.9,-67.0
 " /> 
<path  
style="fill:rgb(4,4,4)" 
d="M 27.6 -55.0
Q 27.8,-55.8,28.1,-56.6
Q 27.8,-56.7,27.6,-56.8
Q 27.2,-56.0,26.9,-55.3
Q 27.2,-55.1,27.6,-55.0
 " /> 
<path  
style="fill:rgb(4,4,4)" 
d="M 27.6 -55.0
Q 29.5,-55.0,30.9,-55.2
Q 30.8,-56.0,30.7,-56.8
Q 30.2,-56.6,29.8,-56.5
Q 28.9,-56.3,28.2,-56.5
Q 28.2,-56.6,28.1,-56.6
Q 27.8,-55.8,27.6,-55.0
 " /> 
<path  
style="fill:rgb(31,181,0)" 
d="M 24.9 -57.2
Q 25.2,-57.2,25.6,-57.2
Q 26.2,-57.2,26.7,-57.0
Q 26.9,-56.9,27.1,-56.8
Q 26.8,-57.0,26.5,-57.3
Q 25.8,-57.8,24.9,-57.2
 " /> 
<path  
style="fill:rgb(4,4,4)" 
d="M 24.9 -57.2
Q 24.7,-56.4,25.0,-56.2
Q 25.2,-56.0,26.9,-55.3
Q 27.2,-56.0,27.6,-56.8
Q 27.3,-56.8,27.1,-56.8
Q 26.9,-56.9,26.7,-57.0
Q 26.2,-57.2,25.6,-57.2
Q 25.2,-57.2,24.9,-57.2
 " /> 
<path  
style="fill:rgb(31,181,0)" 
d="M 27.6 -56.8
Q 27.8,-56.7,28.1,-56.6
Q 28.2,-56.6,28.2,-56.5
Q 28.9,-56.3,29.8,-56.5
Q 30.2,-56.6,30.7,-56.8
Q 29.1,-56.8,27.6,-56.8
 " /> 
<path  
style="fill:rgb(115,250,3)" 
d="M 41.8 -66.5
Q 42.7,-67.9,43.3,-68.3
Q 43.7,-68.5,44.0,-68.8
Q 43.7,-69.1,43.5,-69.4
Q 42.2,-68.5,40.8,-67.3
Q 41.4,-67.0,41.8,-66.5
 " /> 
<path  
style="fill:rgb(31,181,0)" 
d="M 41.8 -66.5
Q 43.1,-67.5,43.5,-68.1
Q 43.8,-68.4,44.0,-68.8
Q 43.7,-68.5,43.3,-68.3
Q 42.7,-67.9,41.8,-66.5
 " /> 
<path  
style="fill:rgb(31,181,0)" 
d="M 56.9 -67.0
Q 57.3,-67.1,57.3,-69.2
Q 57.2,-69.2,57.1,-69.1
Q 56.9,-69.1,56.9,-67.0
 " /> 
<path  
style="fill:rgb(209,251,185)" 
d="M 29.9 -61.9
Q 32.4,-60.1,40.7,-67.2
Q 40.8,-67.3,41.0,-67.5
Q 42.4,-68.6,43.7,-69.6
Q 45.8,-71.2,47.8,-72.1
Q 52.3,-74.4,52.7,-75.8
Q 53.6,-78.6,51.1,-84.3
Q 48.4,-90.5,46.1,-90.5
Q 45.3,-90.5,45.3,-91.2
Q 45.4,-92.8,41.3,-88.7
Q 36.9,-84.4,36.7,-80.8
Q 36.6,-79.6,34.7,-76.8
Q 26.3,-64.4,29.9,-61.9
 " /> 
<path  
style="fill:rgb(4,4,4)" 
d="M -40.9 -47.9
Q -38.2,-45.6,-36.4,-43.4
Q -33.3,-40.8,-30.8,-39.3
Q -21.6,-33.8,-14.2,-36.8
Q -12.0,-37.6,-8.9,-39.9
Q -8.6,-40.2,-8.4,-40.5
Q -8.0,-41.2,-6.7,-42.1
Q -5.9,-43.1,-5.1,-44.1
Q -3.6,-46.1,-1.7,-49.9
Q -1.3,-48.2,-0.9,-46.6
Q 0.2,-41.8,1.2,-43.2
Q 1.4,-43.5,-0.0,-51.9
Q -8.2,-98.2,-27.5,-107.1
Q -29.9,-108.2,-33.3,-108.8
Q -34.4,-108.8,-35.6,-108.8
Q -36.4,-108.7,-37.3,-108.6
Q -39.1,-108.4,-41.3,-107.0
Q -42.4,-106.3,-43.6,-105.7
Q -44.6,-104.2,-45.4,-103.6
Q -45.8,-103.3,-46.2,-103.0
Q -46.8,-102.3,-47.3,-101.7
Q -51.4,-96.7,-52.4,-87.4
Q -52.4,-86.3,-52.4,-85.2
Q -52.4,-82.7,-52.5,-82.2
Q -52.6,-81.8,-52.9,-81.7
Q -52.9,-63.7,-42.4,-49.9
Q -41.6,-48.9,-40.9,-47.9
 " /> 
<path  
style="fill:rgb(115,250,3)" 
d="M -39.6 -49.7
Q -38.8,-49.0,-38.0,-48.3
Q -36.5,-47.0,-35.3,-45.6
Q -34.8,-45.0,-34.2,-44.3
Q -29.8,-41.2,-27.4,-40.1
Q -19.9,-36.5,-11.1,-41.2
Q -10.8,-41.6,-10.4,-42.1
Q -9.7,-43.0,-8.0,-44.3
Q -3.0,-51.9,-3.0,-55.6
Q -3.0,-56.8,-3.5,-59.2
Q -7.5,-79.2,-16.3,-93.5
Q -18.3,-96.7,-22.2,-100.8
Q -22.5,-101.0,-22.9,-101.2
Q -23.5,-101.7,-24.0,-102.3
Q -24.2,-102.7,-24.4,-103.0
Q -25.4,-103.6,-26.4,-104.1
Q -28.4,-105.3,-33.3,-106.5
Q -34.7,-106.5,-36.0,-106.5
Q -37.0,-106.3,-38.0,-106.1
Q -41.6,-105.3,-45.0,-101.1
Q -48.8,-96.4,-49.7,-90.7
Q -50.0,-89.3,-50.2,-87.9
Q -50.2,-86.8,-50.2,-85.8
Q -50.2,-84.5,-50.3,-84.0
Q -50.3,-83.6,-50.7,-83.4
Q -50.7,-80.5,-50.7,-77.7
Q -50.2,-77.8,-50.2,-76.6
Q -50.2,-76.6,-50.2,-76.6
Q -50.2,-76.0,-50.2,-75.4
Q -49.3,-69.7,-48.2,-66.2
Q -45.8,-59.0,-41.8,-53.0
Q -40.7,-51.3,-39.6,-49.7
 " /> 
<path  
style="fill:rgb(255,255,255)" 
d="M -25.8 -65.2
Q -26.1,-65.8,-26.4,-66.4
Q -26.4,-66.4,-26.4,-66.4
Q -27.6,-65.6,-27.6,-65.2
Q -27.6,-64.8,-25.8,-65.2
 " /> 
<path  
style="fill:rgb(255,255,255)" 
d="M -25.8 -65.2
Q -24.2,-65.2,-22.7,-65.2
Q -24.3,-67.8,-26.4,-66.4
Q -26.1,-65.8,-25.8,-65.2
 " /> 
<path  
style="fill:rgb(31,181,0)" 
d="M -25.8 -65.2
Q -26.4,-64.9,-27.1,-64.5
Q -28.4,-63.9,-30.5,-61.7
Q -35.1,-56.8,-39.0,-64.4
Q -42.7,-71.8,-43.6,-85.7
Q -48.2,-85.7,-45.6,-73.7
Q -42.1,-57.5,-34.7,-49.5
Q -24.1,-38.0,-12.0,-47.6
Q -6.6,-52.0,-7.6,-55.4
Q -7.8,-56.1,-8.0,-56.8
Q -11.2,-56.8,-15.1,-59.5
Q -16.2,-60.2,-17.3,-61.1
Q -20.0,-63.5,-21.3,-64.3
Q -22.0,-64.8,-22.7,-65.2
Q -24.2,-65.2,-25.8,-65.2
 " /> 
<path  
style="fill:rgb(4,4,4)" 
d="M -25.8 -65.2
Q -27.6,-64.8,-27.6,-65.2
Q -27.6,-65.6,-26.4,-66.4
Q -26.4,-66.4,-26.4,-66.4
Q -24.3,-67.8,-22.7,-65.2
Q -22.0,-64.8,-21.3,-64.3
Q -20.0,-63.5,-17.3,-61.1
Q -16.2,-60.2,-15.1,-59.5
Q -14.7,-60.1,-14.2,-60.8
Q -14.8,-61.2,-15.3,-61.7
Q -16.4,-62.6,-18.2,-64.8
Q -19.1,-65.6,-20.0,-66.3
Q -21.7,-67.9,-24.0,-68.8
Q -25.1,-68.8,-26.2,-68.8
Q -26.9,-68.3,-27.6,-67.9
Q -28.9,-67.0,-30.9,-64.3
Q -32.9,-61.6,-33.9,-61.8
Q -36.5,-62.5,-38.1,-67.7
Q -39.0,-70.7,-40.9,-78.1
Q -41.3,-78.0,-41.3,-78.3
Q -41.4,-78.5,-41.3,-80.3
Q -41.3,-80.5,-41.3,-80.8
Q -41.4,-81.8,-41.6,-82.8
Q -41.8,-84.8,-41.6,-86.5
Q -41.4,-87.4,-41.3,-88.3
Q -41.1,-89.3,-40.9,-90.3
Q -40.5,-92.3,-39.4,-94.3
Q -38.8,-95.3,-38.2,-96.3
Q -38.6,-97.0,-38.9,-97.0
Q -39.2,-96.9,-39.8,-96.3
Q -40.3,-95.9,-40.9,-95.4
Q -41.5,-94.3,-42.0,-93.2
Q -43.1,-91.0,-43.6,-85.7
Q -42.7,-71.8,-39.0,-64.4
Q -35.1,-56.8,-30.5,-61.7
Q -28.4,-63.9,-27.1,-64.5
Q -26.4,-64.9,-25.8,-65.2
 " /> 
<path  
style="fill:rgb(4,4,4)" 
d="M -8.0 -56.8
Q -7.1,-57.7,-7.2,-57.9
Q -7.4,-58.0,-9.2,-58.5
Q -11.1,-58.9,-14.2,-60.8
Q -14.7,-60.1,-15.1,-59.5
Q -11.2,-56.8,-8.0,-56.8
 " /> 
<path  
style="fill:rgb(31,181,0)" 
d="M -41.3 -88.3
Q -41.4,-87.4,-41.6,-86.5
Q -41.8,-84.8,-41.6,-82.8
Q -41.4,-81.8,-41.3,-80.8
Q -41.3,-84.5,-41.3,-88.3
 " /> 
<path  
style="fill:rgb(31,181,0)" 
d="M -41.3 -80.3
Q -41.4,-78.5,-41.3,-78.3
Q -41.3,-78.0,-40.9,-78.1
Q -40.9,-80.0,-40.9,-80.2
Q -41.0,-80.5,-41.3,-80.3
 " /> 
<path  
style="fill:rgb(31,181,0)" 
d="M -26.2 -68.8
Q -25.1,-68.8,-24.0,-68.8
Q -24.3,-68.9,-24.7,-69.0
Q -25.3,-69.3,-25.8,-69.0
Q -26.0,-68.9,-26.2,-68.8
 " /> 
<path  
style="fill:rgb(31,181,0)" 
d="M -18.2 -64.8
Q -16.4,-62.6,-15.3,-61.7
Q -14.8,-61.2,-14.2,-60.8
Q -16.0,-63.0,-18.2,-64.8
 " /> 
<path  
style="fill:rgb(209,251,185)" 
d="M -13.3 -66.0
Q -9.1,-63.4,-10.0,-65.5
Q -16.8,-82.7,-24.1,-88.9
Q -27.5,-91.7,-30.9,-88.3
Q -36.0,-83.2,-32.9,-77.2
Q -31.0,-73.6,-24.7,-71.9
Q -20.9,-70.9,-18.1,-69.1
Q -15.4,-67.3,-13.3,-66.0
 " /> 
<path  
style="fill:rgb(31,181,0)" 
d="M -39.6 -49.7
Q -36.9,-46.6,-34.2,-44.3
Q -34.8,-45.0,-35.3,-45.6
Q -36.5,-47.0,-38.0,-48.3
Q -38.8,-49.0,-39.6,-49.7
 " /> 
<path  
style="fill:rgb(31,181,0)" 
d="M -50.2 -75.4
Q -50.2,-76.0,-50.2,-76.6
Q -50.4,-77.1,-50.7,-77.7
Q -50.7,-75.8,-50.6,-75.5
Q -50.6,-75.3,-50.2,-75.4
 " /> 
<path  
style="fill:rgb(31,181,0)" 
d="M -50.7 -77.7
Q -50.4,-77.1,-50.2,-76.6
Q -50.2,-76.6,-50.2,-76.6
Q -50.2,-77.8,-50.7,-77.7
 " /> 
<path  
style="fill:rgb(31,181,0)" 
d="M -50.7 -83.4
Q -50.3,-83.6,-50.3,-84.0
Q -50.2,-84.5,-50.2,-85.8
Q -50.2,-86.8,-50.2,-87.9
Q -50.3,-87.8,-50.4,-87.8
Q -50.6,-87.7,-50.6,-85.6
Q -50.6,-84.5,-50.7,-83.4
 " /> 
<path  
style="fill:rgb(31,181,0)" 
d="M -36.0 -106.5
Q -34.7,-106.5,-33.3,-106.5
Q -33.7,-106.7,-34.0,-106.8
Q -34.7,-107.0,-36.0,-106.5
 " /> 
<path  
style="fill:rgb(31,181,0)" 
d="M -24.4 -103.0
Q -24.2,-102.7,-24.0,-102.3
Q -23.5,-101.7,-22.9,-101.2
Q -22.5,-101.0,-22.2,-100.8
Q -23.1,-102.1,-24.4,-103.0
 " /> 
<path  
style="fill:rgb(31,181,0)" 
d="M -8.0 -44.3
Q -9.7,-43.0,-10.4,-42.1
Q -10.8,-41.6,-11.1,-41.2
Q -10.7,-41.5,-10.2,-41.9
Q -9.3,-42.6,-8.0,-44.3
 " /> 
<path  
style="fill:rgb(7,193,201)" 
d="M -40.9 -47.9
Q -40.3,-47.2,-39.8,-46.6
Q -38.6,-45.2,-36.4,-43.4
Q -38.2,-45.6,-40.9,-47.9
 " /> 
<path  
style="fill:rgb(14,103,171)" 
d="M -52.9 -81.7
Q -52.6,-81.8,-52.5,-82.2
Q -52.4,-82.7,-52.4,-85.2
Q -52.7,-85.2,-52.9,-85.2
Q -52.9,-83.4,-52.9,-81.7
 " /> 
<path  
style="fill:rgb(7,193,201)" 
d="M -52.4 -85.2
Q -52.4,-86.3,-52.4,-87.4
Q -52.8,-87.3,-52.9,-85.2
Q -52.7,-85.2,-52.4,-85.2
 " /> 
<path  
style="fill:rgb(14,103,171)" 
d="M -46.2 -103.0
Q -45.8,-103.3,-45.4,-103.6
Q -44.6,-104.2,-43.6,-105.7
Q -44.0,-105.3,-44.4,-105.0
Q -45.2,-104.3,-46.2,-103.0
 " /> 
<path  
style="fill:rgb(7,193,201)" 
d="M -35.6 -108.8
Q -34.4,-108.8,-33.3,-108.8
Q -33.7,-108.9,-34.0,-109.0
Q -34.6,-109.3,-35.1,-109.0
Q -35.3,-108.9,-35.6,-108.8
 " /> 
<path  
style="fill:rgb(7,193,201)" 
d="M -6.7 -42.1
Q -8.0,-41.2,-8.4,-40.5
Q -8.6,-40.2,-8.9,-39.9
Q -7.6,-40.8,-7.1,-41.4
Q -6.9,-41.8,-6.7,-42.1
 " /> 
<path  
style="fill:rgb(7,193,201)" 
d="M -69.8 -70.1
Q -69.8,-67.2,-69.6,-67.3
Q -69.4,-67.4,-69.3,-67.4
Q -69.3,-70.3,-69.5,-70.2
Q -69.6,-70.1,-69.8,-70.1
 " /> 
<path  
style="fill:rgb(14,103,171)" 
d="M -69.8 -77.2
Q -69.8,-78.3,-69.8,-79.4
Q -69.9,-79.1,-70.0,-78.8
Q -70.3,-78.1,-70.0,-77.7
Q -69.9,-77.4,-69.8,-77.2
 " /> 
<path  
style="fill:rgb(7,193,201)" 
d="M -53.3 -119.9
Q -53.1,-120.3,-52.9,-120.8
Q -52.4,-121.6,-51.8,-122.3
Q -51.4,-122.6,-51.1,-123.0
Q -51.8,-122.4,-52.4,-121.9
Q -53.7,-120.7,-53.3,-119.9
 " /> 
<path  
style="fill:rgb(14,103,171)" 
d="M -33.3 -146.1
Q -32.2,-146.1,-31.1,-146.1
Q -31.1,-146.3,-31.1,-146.5
Q -31.6,-146.5,-32.1,-146.5
Q -33.1,-146.5,-33.2,-146.3
Q -33.3,-146.2,-33.3,-146.1
 " /> 
<path  
style="fill:rgb(7,193,201)" 
d="M -31.1 -146.1
Q -30.0,-146.1,-28.9,-146.1
Q -29.4,-146.3,-29.9,-146.6
Q -29.9,-146.6,-29.9,-146.6
Q -30.5,-146.6,-31.1,-146.5
Q -31.1,-146.3,-31.1,-146.1
 " /> 
<path  
style="fill:rgb(7,193,201)" 
d="M -28.9 -146.1
Q -28.7,-146.6,-29.9,-146.6
Q -29.4,-146.3,-28.9,-146.1
 " /> 
<path  
style="fill:rgb(4,4,4)" 
d="M -0.4 -127.4
Q 0.0,-128.1,0.4,-128.8
Q -0.0,-128.8,-0.5,-128.7
Q -0.5,-128.1,-0.4,-127.4
 " /> 
<path  
style="fill:rgb(4,4,4)" 
d="M -0.4 -127.4
Q 0.1,-127.4,0.5,-127.5
Q 0.5,-128.1,0.4,-128.8
Q 0.0,-128.1,-0.4,-127.4
 " /> 
<path  
style="fill:rgb(7,193,201)" 
d="M -0.4 -127.4
Q -0.7,-127.0,0.6,-127.0
Q 1.2,-127.0,1.8,-127.0
Q 1.8,-127.1,1.8,-127.3
Q 1.8,-127.4,1.6,-127.4
Q 1.5,-127.5,0.5,-127.5
Q 0.1,-127.4,-0.4,-127.4
 " /> 
<path  
style="fill:rgb(4,4,4)" 
d="M 1.8 -127.0
Q 5.1,-127.1,5.9,-127.5
Q 6.7,-128.0,8.2,-130.2
Q 9.2,-131.7,10.2,-133.2
Q 10.7,-133.8,11.1,-134.3
Q 11.5,-134.8,11.9,-135.2
Q 11.3,-135.7,10.7,-136.3
Q 10.0,-135.5,9.3,-134.7
Q 7.8,-133.1,6.4,-130.7
Q 4.9,-128.3,2.7,-128.5
Q 2.3,-128.6,1.9,-128.6
Q 1.9,-128.0,1.8,-127.3
Q 1.8,-127.2,1.8,-127.0
 " /> 
<path  
style="fill:rgb(14,103,171)" 
d="M 10.2 -133.2
Q 12.4,-135.0,14.2,-137.2
Q 13.7,-136.8,13.1,-136.3
Q 12.5,-135.8,11.9,-135.2
Q 11.5,-134.8,11.1,-134.3
Q 10.7,-133.8,10.2,-133.2
 " /> 
<path  
style="fill:rgb(14,103,171)" 
d="M 24.9 -142.1
Q 26.0,-142.1,27.1,-142.1
Q 25.8,-142.6,24.9,-142.1
 " /> 
<path  
style="fill:rgb(14,103,171)" 
d="M 78.2 -61.2
Q 78.2,-60.1,78.2,-59.0
Q 78.3,-59.3,78.5,-59.6
Q 78.7,-60.3,78.2,-61.2
 " /> 
<path  
style="fill:rgb(7,193,201)" 
d="M 38.2 2.3
Q 38.2,2.9,38.2,3.5
Q 38.4,4.0,38.7,4.6
Q 38.7,2.8,38.6,2.5
Q 38.6,2.2,38.2,2.3
 " /> 
<path  
style="fill:rgb(7,193,201)" 
d="M 38.7 4.6
Q 38.4,4.0,38.2,3.5
Q 38.2,3.5,38.2,3.5
Q 38.2,4.7,38.4,4.6
Q 38.5,4.6,38.7,4.6
 " /> 
<path  
style="fill:rgb(14,103,171)" 
d="M 12.4 9.5
Q 11.3,9.5,10.2,9.5
Q 10.5,9.6,10.9,9.7
Q 11.5,10.0,12.4,9.5
 " /> 
<path  
style="fill:rgb(14,103,171)" 
d="M 4.9 9.9
Q 2.2,9.9,-0.4,9.9
Q 2.2,10.4,3.6,10.1
Q 4.2,10.0,4.9,9.9
 " /> 
<path  
style="fill:rgb(97,247,248)" 
d="M 73.8 -30.5
Q 73.7,-30.4,73.6,-30.3
Q 73.3,-30.1,73.3,-29.2
Q 73.6,-29.9,73.8,-30.5
 " /> 
<path  
style="fill:rgb(97,247,248)" 
d="M 73.8 -30.5
Q 73.6,-29.9,73.3,-29.2
Q 82.8,-31.4,89.6,-34.6
Q 92.4,-36.0,92.4,-36.4
Q 92.4,-37.1,86.8,-34.6
Q 82.7,-32.8,73.8,-30.5
 " /> 
<path  
style="fill:rgb(97,247,248)" 
d="M 79.1 -47.4
Q 80.4,-47.6,81.8,-47.8
Q 98.1,-50.4,106.5,-62.8
Q 109.6,-67.4,108.8,-67.4
Q 108.2,-67.4,106.3,-64.5
Q 99.0,-53.3,84.5,-49.7
Q 80.9,-48.8,79.1,-47.9
Q 79.1,-47.7,79.1,-47.4
 " /> 
<path  
style="fill:rgb(14,103,171)" 
d="M 80.0 -53.2
Q 80.4,-53.3,80.4,-55.9
Q 80.0,-55.8,80.0,-54.5
Q 80.0,-53.9,80.0,-53.2
 " /> 
<path  
style="fill:rgb(14,103,171)" 
d="M 80.4 -58.5
Q 80.9,-59.9,80.7,-60.5
Q 80.6,-60.9,80.4,-61.2
Q 80.4,-59.9,80.4,-58.5
 " /> 
<path  
style="fill:rgb(14,103,171)" 
d="M 80.4 -63.9
Q 80.9,-65.7,80.7,-66.5
Q 80.6,-67.0,80.4,-67.4
Q 80.4,-65.7,80.4,-63.9
 " /> 
<path  
style="fill:rgb(14,103,171)" 
d="M 80.0 -75.4
Q 80.0,-76.2,80.0,-77.0
Q 79.8,-77.8,79.6,-78.5
Q 79.6,-75.8,79.6,-75.6
Q 79.7,-75.3,80.0,-75.4
 " /> 
<path  
style="fill:rgb(14,103,171)" 
d="M 79.6 -78.5
Q 79.8,-77.8,80.0,-77.0
Q 80.0,-77.0,80.0,-77.0
Q 80.0,-78.7,79.6,-78.5
 " /> 
<path  
style="fill:rgb(14,103,171)" 
d="M 75.1 -97.7
Q 74.2,-100.3,73.3,-101.4
Q 72.9,-102.0,72.4,-102.5
Q 73.8,-99.9,74.4,-98.8
Q 74.8,-98.2,75.1,-97.7
 " /> 
<path  
style="fill:rgb(14,103,171)" 
d="M 66.7 -111.0
Q 66.4,-111.3,66.2,-111.6
Q 65.8,-112.3,64.9,-113.0
Q 64.4,-113.3,64.0,-113.7
Q 64.3,-113.2,64.7,-112.8
Q 65.4,-111.9,66.0,-111.4
Q 66.3,-111.2,66.7,-111.0
 " /> 
<path  
style="fill:rgb(14,103,171)" 
d="M 66.7 -122.5
Q 67.6,-121.2,68.2,-120.8
Q 68.6,-120.5,68.9,-120.3
Q 68.7,-120.6,68.4,-121.0
Q 68.0,-121.6,66.7,-122.5
 " /> 
<path  
style="fill:rgb(14,103,171)" 
d="M 74.7 -118.1
Q 75.6,-119.1,75.6,-119.7
Q 75.6,-120.0,75.6,-120.3
Q 75.4,-120.1,75.3,-119.9
Q 75.1,-119.4,74.7,-118.1
 " /> 
<path  
style="fill:rgb(14,103,171)" 
d="M 75.6 -122.5
Q 75.6,-123.1,75.6,-123.7
Q 75.3,-124.2,75.1,-124.8
Q 75.1,-122.9,75.2,-122.7
Q 75.2,-122.4,75.6,-122.5
 " /> 
<path  
style="fill:rgb(7,193,201)" 
d="M 75.1 -124.8
Q 75.6,-125.2,76.2,-125.6
Q 75.4,-126.6,75.2,-126.7
Q 74.6,-127.2,74.9,-125.6
Q 75.0,-125.2,75.1,-124.8
 " /> 
<path  
style="fill:rgb(7,193,201)" 
d="M 75.1 -124.8
Q 75.2,-124.8,75.4,-124.8
Q 75.5,-124.9,75.5,-124.5
Q 76.2,-124.7,76.9,-124.8
Q 76.5,-125.3,76.2,-125.6
Q 75.6,-125.2,75.1,-124.8
 " /> 
<path  
style="fill:rgb(14,103,171)" 
d="M 75.1 -124.8
Q 75.3,-124.2,75.6,-123.7
Q 75.6,-123.7,75.6,-123.7
Q 75.6,-124.3,75.5,-124.5
Q 75.5,-124.9,75.4,-124.8
Q 75.2,-124.8,75.1,-124.8
 " /> 
<path  
style="fill:rgb(14,103,171)" 
d="M 76.9 -124.8
Q 77.8,-123.5,79.1,-122.5
Q 78.2,-123.9,76.9,-124.8
 " /> 
<path  
style="fill:rgb(14,103,171)" 
d="M 87.1 -130.5
Q 87.6,-130.7,87.6,-132.8
Q 87.1,-132.6,87.1,-131.6
Q 87.1,-131.1,87.1,-130.5
 " /> 
<path  
style="fill:rgb(14,103,171)" 
d="M 91.6 -141.2
Q 92.5,-139.9,93.1,-139.4
Q 93.4,-139.2,93.8,-139.0
Q 93.5,-139.3,93.3,-139.6
Q 92.9,-140.3,92.2,-140.8
Q 91.9,-141.0,91.6,-141.2
 " /> 
<path  
style="fill:rgb(14,103,171)" 
d="M 123.6 -125.7
Q 123.6,-123.7,123.6,-121.7
Q 123.7,-122.2,123.8,-122.8
Q 124.0,-123.9,123.6,-125.7
 " /> 
<path  
style="fill:rgb(14,103,171)" 
d="M 109.8 -52.3
Q 105.8,-48.8,102.2,-44.8
Q 106.2,-48.3,108.0,-50.3
Q 108.9,-51.3,109.8,-52.3
 " /> 
<path  
style="fill:rgb(97,247,248)" 
d="M 79.6 -80.9
Q 79.6,-79.9,80.7,-80.7
Q 90.1,-87.6,92.0,-102.1
Q 94.1,-118.3,92.7,-119.8
Q 91.8,-120.7,91.6,-114.5
Q 91.1,-89.5,81.3,-82.7
Q 79.6,-81.4,79.6,-80.9
 " /> 
<path  
style="fill:rgb(7,193,201)" 
d="M -4.9 -129.7
Q -4.2,-129.5,-3.6,-129.4
Q -2.2,-129.2,-0.9,-129.0
Q -0.2,-128.9,0.4,-128.8
Q 1.2,-128.7,1.9,-128.6
Q 2.3,-128.6,2.7,-128.5
Q 4.9,-128.3,6.4,-130.7
Q 7.8,-133.1,9.3,-134.7
Q 10.0,-135.5,10.7,-136.3
Q 10.8,-136.6,11.0,-136.8
Q 11.3,-137.3,12.1,-137.9
Q 12.5,-138.2,12.9,-138.5
Q 17.8,-141.7,19.1,-144.0
Q 21.5,-148.4,24.1,-155.4
Q 25.0,-157.9,25.8,-160.0
Q 28.4,-166.4,27.9,-169.3
Q 27.8,-170.1,25.9,-167.5
Q 22.0,-162.3,18.2,-153.2
Q 16.5,-149.1,15.7,-150.3
Q 15.4,-150.8,17.8,-156.7
Q 20.8,-164.1,15.1,-166.1
Q 13.4,-165.9,12.9,-165.7
Q 12.0,-162.8,11.1,-159.9
Q 9.3,-154.1,8.6,-154.3
Q 7.3,-154.6,9.5,-161.0
Q 11.0,-165.4,10.4,-165.6
Q 9.8,-165.7,9.8,-166.4
Q 9.8,-167.0,10.7,-167.3
Q 11.7,-167.6,13.2,-173.7
Q 13.9,-176.8,14.7,-179.9
Q 14.0,-180.1,13.3,-180.4
Q 11.8,-176.5,10.9,-173.8
Q 9.8,-170.3,9.0,-167.0
Q 8.1,-163.7,7.3,-163.5
Q 6.1,-163.2,7.8,-169.6
Q 8.1,-170.8,8.4,-171.9
Q 8.4,-173.2,8.4,-174.5
Q 8.4,-175.1,8.5,-175.7
Q 8.5,-176.8,7.6,-179.0
Q 7.3,-179.2,7.1,-179.4
Q 6.7,-179.9,6.2,-181.2
Q 5.9,-181.6,5.5,-182.1
Q 4.9,-183.0,4.2,-183.4
Q 3.9,-183.6,3.6,-183.9
Q 3.6,-182.5,3.6,-181.2
Q 3.6,-175.2,3.6,-169.2
Q 3.6,-167.6,3.6,-166.1
Q 3.7,-162.9,2.7,-162.1
Q 2.4,-162.0,2.2,-162.0
Q 1.6,-161.9,1.7,-170.7
Q 1.7,-175.0,1.8,-179.4
Q 1.6,-179.4,1.5,-179.4
Q 1.3,-179.3,1.3,-183.9
Q 1.1,-186.3,0.9,-188.8
Q -0.8,-207.0,-3.3,-200.7
Q -4.0,-198.8,-4.4,-195.0
Q -4.7,-191.1,-5.3,-184.3
Q -4.8,-184.5,-4.9,-181.1
Q -4.9,-179.4,-4.9,-177.7
Q -4.9,-175.7,-4.9,-173.7
Q -4.4,-173.8,-4.4,-170.8
Q -4.4,-169.4,-4.4,-167.9
Q -4.4,-165.0,-4.9,-164.8
Q -6.0,-164.5,-6.1,-166.0
Q -6.2,-166.7,-6.2,-167.4
Q -6.2,-169.0,-6.2,-170.5
Q -6.6,-170.4,-6.7,-170.7
Q -6.7,-170.9,-6.7,-172.5
Q -6.7,-173.5,-6.7,-174.5
Q -6.7,-176.5,-6.7,-178.5
Q -7.1,-181.2,-7.3,-182.5
Q -7.4,-183.2,-7.6,-183.9
Q -8.1,-183.2,-8.7,-182.5
Q -11.3,-179.3,-8.9,-169.9
Q -7.5,-164.6,-7.7,-164.2
Q -8.9,-162.2,-9.9,-166.9
Q -10.6,-169.9,-11.7,-173.5
Q -12.8,-177.2,-13.7,-180.3
Q -13.9,-180.7,-14.0,-181.1
Q -14.5,-180.9,-15.1,-180.8
Q -14.8,-178.3,-14.4,-175.9
Q -13.1,-166.2,-11.5,-159.7
Q -9.6,-151.9,-10.8,-151.9
Q -12.2,-151.9,-14.9,-166.8
Q -16.1,-173.3,-19.4,-169.5
Q -19.9,-168.9,-20.4,-168.3
Q -20.4,-167.2,-20.4,-166.1
Q -17.3,-160.3,-15.9,-157.8
Q -14.5,-155.2,-13.0,-152.8
Q -10.8,-149.3,-11.2,-148.5
Q -11.9,-147.5,-15.0,-152.5
Q -20.8,-162.0,-25.7,-171.6
Q -30.1,-180.5,-30.6,-178.7
Q -31.1,-177.2,-29.5,-167.3
Q -26.5,-148.7,-21.7,-146.8
Q -20.8,-146.4,-20.0,-146.1
Q -19.5,-145.9,-19.1,-145.7
Q -18.2,-145.2,-17.8,-144.8
Q -17.5,-144.5,-17.3,-144.3
Q -15.5,-143.5,-14.7,-142.5
Q -14.2,-142.2,-13.8,-141.9
Q -12.9,-141.2,-12.5,-140.5
Q -12.2,-140.2,-12.0,-139.9
Q -10.9,-138.5,-9.8,-137.2
Q -7.5,-134.6,-6.2,-132.1
Q -5.5,-130.9,-4.9,-129.7
 " /> 
<path  
style="fill:rgb(14,103,171)" 
d="M -4.9 -129.7
Q -4.8,-129.4,-4.7,-129.1
Q -4.5,-128.6,-2.0,-128.7
Q -1.3,-128.7,-0.5,-128.7
Q -0.0,-128.8,0.4,-128.8
Q -0.2,-128.9,-0.9,-129.0
Q -2.2,-129.2,-3.6,-129.4
Q -4.2,-129.5,-4.9,-129.7
 " /> 
<path  
style="fill:rgb(4,4,4)" 
d="M 0.4 -128.8
Q 0.5,-128.1,0.5,-127.5
Q 1.5,-127.5,1.6,-127.4
Q 1.8,-127.4,1.8,-127.3
Q 1.9,-128.0,1.9,-128.6
Q 1.2,-128.7,0.4,-128.8
 " /> 
<path  
style="fill:rgb(14,103,171)" 
d="M -12.0 -139.9
Q -12.2,-140.2,-12.5,-140.5
Q -12.9,-141.2,-13.8,-141.9
Q -14.2,-142.2,-14.7,-142.5
Q -14.3,-142.1,-14.0,-141.7
Q -13.3,-140.8,-12.0,-139.9
 " /> 
<path  
style="fill:rgb(14,103,171)" 
d="M -17.3 -144.3
Q -17.5,-144.5,-17.8,-144.8
Q -18.2,-145.2,-19.1,-145.7
Q -19.5,-145.9,-20.0,-146.1
Q -19.8,-145.9,-19.6,-145.6
Q -19.1,-145.2,-18.2,-144.7
Q -17.8,-144.5,-17.3,-144.3
 " /> 
<path  
style="fill:rgb(14,103,171)" 
d="M -20.4 -166.1
Q -20.4,-167.2,-20.4,-168.3
Q -20.9,-167.0,-20.4,-166.1
 " /> 
<path  
style="fill:rgb(14,103,171)" 
d="M -15.1 -180.8
Q -15.1,-182.2,-15.0,-182.9
Q -15.1,-182.6,-15.3,-182.4
Q -15.3,-182.4,-15.3,-182.4
Q -15.2,-181.6,-15.1,-180.8
 " /> 
<path  
style="fill:rgb(7,193,201)" 
d="M -15.1 -180.8
Q -14.5,-180.9,-14.0,-181.1
Q -14.3,-182.3,-14.7,-183.4
Q -14.8,-183.1,-15.0,-182.9
Q -15.1,-182.2,-15.1,-180.8
 " /> 
<path  
style="fill:rgb(14,103,171)" 
d="M -14.7 -183.4
Q -14.9,-183.6,-15.0,-183.7
Q -15.4,-184.0,-15.3,-182.4
Q -15.1,-182.6,-15.0,-182.9
Q -14.9,-183.3,-14.9,-183.4
Q -14.8,-183.4,-14.7,-183.4
 " /> 
<path  
style="fill:rgb(14,103,171)" 
d="M -7.6 -183.9
Q -7.4,-183.2,-7.3,-182.5
Q -7.1,-181.2,-6.7,-178.5
Q -6.6,-180.0,-6.6,-181.5
Q -6.5,-183.7,-6.6,-184.1
Q -6.6,-184.2,-6.6,-184.2
Q -6.7,-184.4,-7.6,-183.9
 " /> 
<path  
style="fill:rgb(4,4,4)" 
d="M -6.7 -178.5
Q -6.0,-178.6,-5.3,-178.6
Q -5.3,-180.1,-5.3,-184.3
Q -5.9,-184.2,-6.6,-184.1
Q -6.5,-183.7,-6.6,-181.5
Q -6.6,-180.0,-6.7,-178.5
 " /> 
<path  
style="fill:rgb(4,4,4)" 
d="M -6.7 -178.5
Q -6.7,-176.5,-6.7,-174.5
Q -6.3,-174.7,-6.2,-173.6
Q -5.6,-173.6,-4.9,-173.7
Q -4.9,-175.7,-4.9,-177.7
Q -5.2,-177.5,-5.3,-177.7
Q -5.3,-177.8,-5.3,-178.6
Q -6.0,-178.6,-6.7,-178.5
 " /> 
<path  
style="fill:rgb(14,103,171)" 
d="M -6.7 -174.5
Q -6.7,-173.5,-6.7,-172.5
Q -6.7,-170.9,-6.7,-170.7
Q -6.6,-170.4,-6.2,-170.5
Q -6.2,-171.6,-6.2,-172.7
Q -6.2,-173.2,-6.2,-173.6
Q -6.3,-174.7,-6.7,-174.5
 " /> 
<path  
style="fill:rgb(4,4,4)" 
d="M -6.2 -170.5
Q -5.5,-170.6,-4.9,-170.6
Q -4.9,-171.8,-4.9,-173.7
Q -5.6,-173.6,-6.2,-173.6
Q -6.2,-173.2,-6.2,-172.7
Q -6.2,-171.6,-6.2,-170.5
 " /> 
<path  
style="fill:rgb(4,4,4)" 
d="M -6.2 -170.5
Q -6.2,-169.0,-6.2,-167.4
Q -5.5,-167.7,-4.8,-167.9
Q -4.8,-167.9,-4.8,-167.9
Q -4.9,-168.1,-4.9,-170.6
Q -5.5,-170.6,-6.2,-170.5
 " /> 
<path  
style="fill:rgb(4,4,4)" 
d="M -6.2 -167.4
Q -6.1,-166.8,-6.1,-166.2
Q -5.9,-165.0,-4.9,-164.8
Q -4.4,-165.0,-4.4,-167.9
Q -4.8,-167.7,-4.8,-167.9
Q -5.5,-167.7,-6.2,-167.4
 " /> 
<path  
style="fill:rgb(14,103,171)" 
d="M -6.2 -167.4
Q -6.2,-166.7,-6.1,-166.0
Q -6.0,-164.5,-4.9,-164.8
Q -5.9,-165.0,-6.1,-166.2
Q -6.1,-166.8,-6.2,-167.4
 " /> 
<path  
style="fill:rgb(14,103,171)" 
d="M -4.4 -167.9
Q -4.4,-169.4,-4.4,-170.8
Q -4.4,-173.8,-4.9,-173.7
Q -4.9,-171.8,-4.9,-170.6
Q -4.9,-168.1,-4.8,-167.9
Q -4.8,-167.9,-4.8,-167.9
Q -4.8,-167.7,-4.4,-167.9
 " /> 
<path  
style="fill:rgb(14,103,171)" 
d="M -4.9 -177.7
Q -4.9,-179.4,-4.9,-181.1
Q -4.8,-184.5,-5.3,-184.3
Q -5.3,-180.1,-5.3,-178.6
Q -5.3,-177.8,-5.3,-177.7
Q -5.2,-177.5,-4.9,-177.7
 " /> 
<path  
style="fill:rgb(14,103,171)" 
d="M 1.3 -183.9
Q 1.3,-179.3,1.5,-179.4
Q 1.6,-179.4,1.8,-179.4
Q 1.8,-183.6,1.7,-183.8
Q 1.7,-184.0,1.3,-183.9
 " /> 
<path  
style="fill:rgb(14,103,171)" 
d="M 2.7 -162.1
Q 3.7,-162.9,3.6,-166.1
Q 3.6,-167.6,3.6,-169.2
Q 3.4,-168.3,3.3,-167.4
Q 3.1,-165.7,2.9,-163.9
Q 2.8,-163.0,2.7,-162.1
 " /> 
<path  
style="fill:rgb(14,103,171)" 
d="M 3.6 -181.2
Q 3.6,-182.5,3.6,-183.9
Q 3.1,-182.5,3.3,-181.9
Q 3.4,-181.5,3.6,-181.2
 " /> 
<path  
style="fill:rgb(14,103,171)" 
d="M 6.2 -181.2
Q 6.7,-179.9,7.1,-179.4
Q 7.3,-179.2,7.6,-179.0
Q 7.5,-179.4,7.3,-179.9
Q 7.1,-180.8,6.7,-181.0
Q 6.5,-181.1,6.2,-181.2
 " /> 
<path  
style="fill:rgb(14,103,171)" 
d="M 8.4 -174.5
Q 8.4,-173.2,8.4,-171.9
Q 8.6,-172.2,8.7,-172.5
Q 8.9,-173.2,8.4,-174.5
 " /> 
<path  
style="fill:rgb(14,103,171)" 
d="M 14.2 -182.5
Q 14.5,-182.7,14.6,-182.0
Q 14.8,-181.8,15.0,-181.5
Q 15.3,-182.7,15.2,-182.9
Q 15.1,-183.0,14.2,-182.5
 " /> 
<path  
style="fill:rgb(7,193,201)" 
d="M 14.2 -182.5
Q 13.8,-181.4,13.3,-180.4
Q 14.0,-180.1,14.7,-179.9
Q 14.7,-180.6,14.7,-181.3
Q 14.7,-181.7,14.6,-182.0
Q 14.4,-182.3,14.2,-182.5
 " /> 
<path  
style="fill:rgb(14,103,171)" 
d="M 14.7 -179.9
Q 14.8,-180.7,15.0,-181.5
Q 15.0,-181.5,15.0,-181.5
Q 14.8,-181.8,14.6,-182.0
Q 14.7,-181.7,14.7,-181.3
Q 14.7,-180.6,14.7,-179.9
 " /> 
<path  
style="fill:rgb(14,103,171)" 
d="M 12.9 -165.7
Q 13.4,-165.9,15.1,-166.1
Q 13.9,-166.7,13.4,-166.2
Q 13.1,-165.9,12.9,-165.7
 " /> 
<path  
style="fill:rgb(14,103,171)" 
d="M 12.9 -138.5
Q 12.5,-138.2,12.1,-137.9
Q 11.3,-137.3,11.0,-136.8
Q 10.8,-136.6,10.7,-136.3
Q 10.9,-136.5,11.2,-136.7
Q 11.8,-137.2,12.3,-137.9
Q 12.6,-138.2,12.9,-138.5
 " /> 
</g> 
</svg> 
