<?xml version="1.0"?>
<!DOCTYPE svg PUBLIC "-//W3C//DTD SVG 1.1//EN" "http://www.w3.org/Graphics/SVG/1.1/DTD/svg11.dtd">
<svg xmlns="http://www.w3.org/2000/svg" version="1.1">
<g transform="translate(113.2,226.9)" stroke-width="0" fill="none" >
<path  
style="fill:rgb(4,4,4)" 
d="M 3.4 221.3
Q 5.5,222.9,10.2,218.5
Q 13.7,215.3,17.5,212.4
Q 19.3,211.1,22.0,208.8
Q 24.7,206.5,27.1,204.6
Q 34.4,198.6,44.5,188.5
Q 75.0,157.8,62.1,133.9
Q 59.0,128.0,49.6,116.9
Q 38.6,103.8,35.1,91.7
Q 34.2,88.4,33.3,85.3
Q 32.5,82.3,31.9,77.7
Q 33.0,78.7,34.1,79.7
Q 36.4,81.8,39.5,82.8
Q 47.8,85.4,52.6,79.7
Q 58.8,72.3,55.6,51.2
Q 53.7,38.9,44.2,22.6
Q 38.6,13.0,34.4,2.8
Q 29.9,-8.2,28.1,-10.5
Q 26.1,-13.0,26.5,-13.1
Q 29.8,-14.5,31.1,-10.0
Q 35.0,3.1,39.4,-1.8
Q 42.7,-5.5,42.1,-14.7
Q 41.9,-17.9,46.4,-22.7
Q 47.0,-20.1,47.8,-17.0
Q 49.1,-11.0,51.8,-10.3
Q 54.2,-9.7,55.9,-13.3
Q 58.7,-19.2,58.7,-25.9
Q 58.8,-31.6,64.0,-35.5
Q 64.9,-36.2,68.7,-37.2
Q 93.8,-43.4,107.7,-56.7
Q 113.6,-62.4,113.2,-65.7
Q 112.7,-69.5,104.8,-65.4
Q 101.5,-63.7,101.1,-63.6
Q 98.9,-62.8,106.7,-72.1
Q 122.9,-91.4,126.3,-108.2
Q 127.9,-116.1,125.2,-118.2
Q 122.2,-120.6,115.4,-110.9
Q 113.6,-108.3,113.5,-108.4
Q 113.4,-108.6,115.6,-115.0
Q 126.5,-146.4,121.7,-155.6
Q 118.5,-161.8,113.4,-155.3
Q 111.3,-152.7,106.9,-142.2
Q 103.5,-134.1,103.1,-134.1
Q 102.2,-134.1,100.0,-143.4
Q 96.3,-159.2,91.1,-164.3
Q 83.3,-172.0,82.0,-152.6
Q 81.5,-145.7,79.4,-146.3
Q 78.4,-146.5,75.2,-150.0
Q 72.0,-153.4,71.3,-152.9
Q 69.4,-151.8,70.3,-148.2
Q 71.7,-143.4,70.9,-142.9
Q 70.1,-142.4,65.6,-146.5
Q 62.5,-149.2,61.5,-149.2
Q 59.0,-149.2,60.2,-145.2
Q 61.0,-142.5,60.6,-142.1
Q 60.2,-141.7,57.9,-141.2
Q 53.8,-140.3,52.2,-144.8
Q 46.7,-161.1,33.6,-165.2
Q 30.5,-166.2,21.5,-166.3
Q 22.5,-168.7,23.5,-171.2
Q 31.2,-190.2,29.2,-194.0
Q 26.9,-198.3,20.3,-186.0
Q 18.7,-189.9,14.8,-190.8
Q 13.2,-191.1,14.4,-195.9
Q 16.2,-202.9,15.6,-205.8
Q 15.0,-209.6,12.5,-207.6
Q 11.5,-206.8,9.0,-199.5
Q 7.1,-205.8,3.4,-207.8
Q 2.1,-208.6,1.3,-213.9
Q -0.1,-224.2,-2.6,-226.1
Q -4.3,-227.5,-5.2,-226.6
Q -8.0,-223.9,-8.0,-214.0
Q -8.0,-208.4,-9.6,-207.5
Q -11.1,-206.5,-12.8,-202.8
Q -13.1,-203.4,-13.3,-204.1
Q -14.7,-207.4,-16.1,-208.3
Q -19.8,-210.4,-17.4,-197.5
Q -17.0,-195.4,-19.0,-194.2
Q -21.1,-193.1,-22.0,-192.3
Q -22.9,-191.4,-24.9,-195.1
Q -28.7,-202.4,-30.8,-203.2
Q -34.4,-204.5,-32.9,-193.4
Q -31.2,-180.7,-28.0,-173.4
Q -26.7,-170.4,-26.9,-170.3
Q -27.1,-170.2,-30.3,-170.1
Q -42.7,-170.1,-47.5,-154.4
Q -49.1,-149.2,-50.1,-147.8
Q -51.0,-146.7,-51.8,-145.7
Q -51.2,-145.3,-50.7,-144.8
Q -50.3,-145.1,-49.9,-145.4
Q -49.2,-146.0,-48.8,-145.8
Q -48.5,-145.7,-47.7,-146.8
Q -46.9,-148.0,-46.8,-149.6
Q -46.6,-153.1,-43.6,-159.1
Q -37.6,-171.3,-23.6,-167.1
Q -20.4,-166.1,-16.0,-163.0
Q -13.8,-161.2,-12.0,-159.0
Q -11.1,-157.8,-10.2,-156.5
Q -8.4,-154.1,-7.5,-152.5
Q -6.7,-151.0,-4.9,-149.6
Q -3.5,-150.1,-2.9,-149.9
Q -2.5,-149.8,-2.2,-149.6
Q -2.0,-150.3,-1.7,-151.0
Q -1.9,-151.1,-1.9,-151.2
Q -1.8,-151.3,-1.8,-151.4
Q -2.4,-151.4,-3.1,-151.4
Q -4.4,-151.4,-5.7,-153.6
Q -12.5,-164.9,-22.4,-169.0
Q -27.8,-171.2,-30.7,-193.0
Q -30.9,-194.6,-31.1,-196.3
Q -31.4,-196.1,-31.5,-196.4
Q -31.6,-196.6,-31.6,-199.0
Q -31.4,-199.4,-31.2,-199.7
Q -30.4,-201.2,-25.5,-191.8
Q -21.2,-183.7,-16.1,-176.0
Q -13.5,-172.0,-12.8,-171.0
Q -12.1,-169.9,-11.5,-170.4
Q -11.1,-170.8,-12.4,-173.4
Q -13.6,-175.7,-16.1,-179.7
Q -21.8,-188.6,-20.9,-190.3
Q -19.9,-192.2,-17.5,-192.9
Q -16.5,-193.2,-15.8,-190.0
Q -15.0,-186.6,-12.7,-177.3
Q -12.4,-176.1,-12.1,-175.4
Q -11.4,-175.6,-10.7,-175.9
Q -12.4,-183.9,-13.1,-187.1
Q -15.6,-198.3,-16.5,-205.9
Q -16.3,-205.6,-16.1,-205.4
Q -15.7,-204.9,-14.2,-200.5
Q -12.8,-196.1,-12.4,-195.2
Q -12.1,-194.3,-10.9,-190.3
Q -9.3,-185.0,-8.5,-185.9
Q -7.7,-186.6,-10.0,-193.4
Q -11.9,-199.3,-10.5,-203.2
Q -9.8,-205.2,-8.9,-205.4
Q -8.4,-205.5,-8.0,-205.6
Q -7.6,-205.9,-7.6,-203.4
Q -6.9,-203.4,-6.2,-203.4
Q -6.2,-209.6,-6.2,-215.9
Q -6.2,-218.9,-6.1,-219.3
Q -6.1,-219.7,-6.0,-219.8
Q -5.9,-219.8,-5.8,-219.9
Q -5.4,-220.8,-5.0,-221.8
Q -3.8,-224.5,-3.2,-224.0
Q -1.8,-222.8,-0.4,-211.9
Q -0.2,-210.1,0.0,-208.3
Q 0.3,-208.5,0.4,-208.2
Q 0.4,-208.0,0.4,-206.1
Q 0.4,-205.0,0.4,-203.9
Q 0.8,-204.0,0.8,-203.8
Q 0.8,-203.8,0.8,-203.7
Q 1.5,-203.8,2.2,-203.9
Q 2.4,-204.4,2.5,-205.0
Q 2.8,-206.1,4.0,-205.0
Q 9.1,-200.3,6.9,-191.0
Q 5.9,-186.4,6.8,-186.4
Q 7.6,-186.3,8.7,-190.8
Q 10.7,-199.2,13.0,-204.7
Q 13.2,-205.3,13.4,-205.9
Q 13.8,-203.2,13.1,-199.6
Q 11.2,-190.1,10.3,-190.1
Q 8.5,-190.1,9.8,-188.0
Q 10.3,-187.2,9.5,-185.0
Q 8.1,-180.4,7.5,-177.7
Q 7.4,-177.1,8.3,-176.9
Q 9.2,-176.7,9.5,-178.0
Q 11.5,-188.3,13.8,-188.7
Q 16.6,-189.2,18.2,-185.8
Q 19.4,-183.4,17.0,-177.9
Q 14.7,-172.8,16.1,-172.8
Q 16.8,-172.8,18.0,-176.0
Q 22.4,-187.5,27.6,-193.0
Q 27.5,-192.1,27.4,-191.2
Q 26.5,-184.8,23.4,-176.7
Q 22.3,-173.9,21.3,-171.2
Q 19.2,-165.6,15.8,-163.1
Q 13.8,-161.6,12.4,-160.3
Q 11.8,-159.6,11.1,-159.0
Q 10.9,-158.7,10.7,-158.3
Q 10.2,-157.7,9.3,-157.0
Q 8.9,-156.7,8.4,-156.3
Q 4.8,-151.2,2.6,-151.1
Q 1.5,-151.0,0.4,-151.0
Q 0.4,-150.3,0.4,-149.6
Q 1.2,-149.6,1.9,-149.6
Q 6.1,-149.5,7.5,-151.7
Q 15.4,-163.1,23.1,-164.1
Q 24.0,-164.2,24.9,-164.3
Q 25.8,-164.8,27.1,-164.3
Q 28.4,-164.1,29.7,-163.8
Q 45.4,-161.0,50.7,-143.0
Q 44.9,-145.3,44.9,-143.6
Q 44.9,-143.0,48.6,-141.2
Q 69.6,-131.6,74.4,-107.6
Q 76.3,-98.3,76.9,-90.1
Q 77.0,-90.1,77.1,-90.2
Q 77.3,-90.2,77.3,-87.0
Q 77.3,-85.9,77.3,-84.8
Q 77.5,-84.5,77.6,-84.3
Q 77.8,-83.9,77.6,-83.2
Q 77.5,-82.9,77.3,-82.5
Q 77.2,-80.0,77.1,-77.4
Q 76.1,-56.7,64.2,-40.5
Q 63.0,-38.9,61.8,-37.2
Q 59.5,-34.5,58.7,-34.1
Q 58.2,-33.9,57.8,-33.6
Q 55.3,-43.1,53.6,-42.4
Q 52.8,-42.0,54.4,-37.9
Q 55.6,-35.0,56.4,-30.1
Q 56.8,-30.2,56.8,-29.9
Q 56.9,-29.7,56.9,-27.9
Q 56.9,-27.4,56.9,-27.0
Q 56.9,-24.4,56.6,-24.4
Q 56.5,-24.3,56.4,-24.3
Q 54.6,-13.8,52.7,-12.7
Q 51.1,-11.8,48.3,-23.2
Q 45.1,-35.9,43.9,-35.9
Q 42.9,-35.9,44.4,-30.8
Q 45.9,-26.0,45.4,-25.0
Q 44.2,-22.3,41.4,-21.4
Q 40.9,-21.2,38.7,-25.9
Q 36.2,-31.2,35.4,-30.8
Q 34.7,-30.6,36.2,-27.6
Q 41.1,-17.8,40.0,-10.3
Q 37.8,4.2,33.3,-10.1
Q 31.9,-14.7,31.3,-16.1
Q 30.8,-17.4,30.0,-19.4
Q 28.1,-24.3,27.3,-24.3
Q 26.5,-24.3,27.9,-20.3
Q 29.3,-16.5,29.0,-16.2
Q 28.8,-15.9,27.2,-15.7
Q 25.1,-15.5,20.8,-14.3
Q 16.4,-13.2,10.2,-12.8
Q 7.1,-12.5,4.0,-12.3
Q 3.5,-12.2,3.1,-12.1
Q 2.2,-11.8,0.0,-12.3
Q -3.2,-12.6,-6.4,-12.9
Q -12.9,-13.5,-16.5,-14.8
Q -15.5,-16.2,-14.4,-17.6
Q -12.7,-19.8,-12.7,-20.2
Q -12.3,-22.6,-16.5,-18.1
Q -19.6,-14.8,-20.5,-13.3
Q -21.3,-11.9,-23.8,-8.8
Q -25.0,-7.2,-26.2,-5.6
Q -28.5,-3.0,-30.0,-1.7
Q -30.8,-1.0,-31.6,-0.3
Q -32.4,0.1,-33.3,0.5
Q -42.2,4.5,-33.7,-13.6
Q -32.3,-16.5,-31.5,-17.6
Q -30.6,-18.7,-30.0,-20.1
Q -26.4,-28.3,-27.1,-28.9
Q -28.1,-29.9,-29.3,-26.3
Q -29.8,-24.9,-30.4,-24.1
Q -31.3,-22.8,-35.1,-25.6
Q -36.4,-26.5,-34.4,-29.3
Q -31.9,-32.8,-32.8,-32.8
Q -33.2,-32.8,-34.8,-31.1
Q -38.0,-27.5,-39.6,-24.5
Q -42.0,-20.0,-50.3,-9.4
Q -53.0,-6.0,-55.6,-5.0
Q -57.8,-4.2,-57.8,-7.7
Q -57.8,-15.4,-46.9,-26.3
Q -45.1,-28.2,-41.8,-32.5
Q -38.5,-36.8,-39.1,-37.3
Q -39.6,-37.8,-40.7,-36.5
Q -41.9,-35.3,-44.7,-31.4
Q -54.1,-41.7,-58.8,-52.5
Q -67.8,-73.3,-68.9,-93.2
Q -69.0,-93.6,-69.1,-94.1
Q -69.4,-95.0,-69.1,-95.9
Q -69.0,-96.3,-68.9,-96.8
Q -68.9,-97.9,-68.9,-99.0
Q -69.4,-100.3,-69.1,-101.2
Q -69.0,-101.7,-68.9,-102.1
Q -67.9,-116.8,-63.3,-126.9
Q -58.8,-136.7,-55.1,-139.2
Q -53.3,-140.3,-52.9,-142.1
Q -52.4,-143.4,-51.5,-144.1
Q -51.1,-144.4,-50.7,-144.8
Q -51.2,-145.3,-51.8,-145.7
Q -54.9,-142.2,-58.0,-140.1
Q -61.4,-137.9,-61.4,-146.1
Q -61.3,-150.3,-61.0,-157.6
Q -60.4,-174.3,-65.0,-173.0
Q -70.7,-171.5,-74.5,-151.7
Q -75.1,-148.1,-75.5,-146.5
Q -75.8,-145.8,-75.9,-145.0
Q -76.1,-146.3,-76.2,-147.7
Q -77.1,-156.5,-80.2,-155.1
Q -82.6,-154.0,-83.8,-146.0
Q -84.5,-141.4,-84.9,-139.9
Q -85.0,-139.1,-85.2,-138.3
Q -85.6,-140.5,-86.0,-142.8
Q -90.8,-171.6,-97.4,-171.6
Q -102.5,-171.6,-102.3,-159.8
Q -102.1,-145.2,-95.8,-127.0
Q -94.6,-123.7,-94.8,-122.3
Q -94.9,-121.7,-95.0,-121.0
Q -95.5,-122.0,-96.1,-123.0
Q -97.2,-125.0,-99.8,-131.2
Q -104.5,-142.8,-106.4,-143.8
Q -110.6,-145.9,-112.3,-136.2
Q -115.8,-115.8,-99.5,-86.5
Q -97.2,-82.3,-93.7,-77.1
Q -93.9,-77.2,-94.1,-77.3
Q -94.5,-77.5,-96.2,-78.4
Q -98.0,-79.3,-103.3,-82.1
Q -118.2,-89.9,-110.7,-73.9
Q -102.5,-56.3,-85.5,-46.0
Q -69.2,-36.0,-55.1,-34.5
Q -51.7,-34.1,-50.7,-33.6
Q -49.6,-33.1,-46.1,-29.4
Q -47.1,-28.5,-48.1,-27.6
Q -54.7,-21.5,-55.4,-19.5
Q -55.7,-18.8,-56.0,-18.5
Q -57.3,-17.3,-59.1,-11.9
Q -61.4,-4.8,-58.0,-3.0
Q -54.2,-1.0,-46.7,-10.8
Q -44.3,-13.8,-37.7,-23.8
Q -36.6,-23.1,-35.4,-22.4
Q -33.1,-21.1,-32.5,-20.8
Q -31.8,-20.4,-33.2,-18.2
Q -43.6,-2.1,-38.6,2.8
Q -33.9,7.6,-21.8,-7.8
Q -19.1,-11.2,-18.2,-11.4
Q -17.5,-11.6,-15.6,-11.3
Q -13.4,-10.9,-13.2,-10.7
Q -12.8,-10.3,-14.8,-4.4
Q -16.4,0.2,-17.1,4.7
Q -20.3,24.9,-27.6,34.1
Q -36.9,45.9,-38.3,51.7
Q -42.0,66.1,-37.0,76.7
Q -32.6,85.9,-24.9,85.4
Q -20.3,85.0,-16.4,81.5
Q -15.2,80.5,-14.1,79.5
Q -14.2,80.2,-14.3,80.8
Q -15.3,85.5,-19.3,93.2
Q -27.6,109.0,-28.7,115.2
Q -28.9,116.3,-29.5,119.5
Q -34.8,143.7,-11.4,180.3
Q -1.8,195.4,0.8,202.4
Q 3.1,208.5,2.8,216.3
Q 2.6,220.8,3.4,221.3
 " /> 
<path  
style="fill:rgb(7,193,201)" 
d="M -16.0 167.7
Q -15.9,168.0,-15.8,168.4
Q -15.6,169.0,-15.1,169.9
Q -15.1,168.8,-15.0,167.7
Q -15.5,167.7,-16.0,167.7
 " /> 
<path  
style="fill:rgb(14,103,171)" 
d="M -16.0 167.7
Q -15.4,148.4,-14.7,144.1
Q -14.3,141.7,-14.0,140.1
Q -12.9,133.5,-11.3,131.3
Q -9.6,129.1,-11.5,136.5
Q -13.9,145.9,-14.7,162.6
Q -14.9,165.1,-15.0,167.7
Q -15.1,168.8,-15.1,169.9
Q -10.7,177.5,-7.7,182.0
Q -4.8,186.5,-2.5,190.2
Q -0.3,194.0,0.1,193.3
Q 1.7,190.3,0.2,169.9
Q -1.2,151.1,1.5,138.3
Q 3.0,131.4,3.6,131.0
Q 4.8,130.3,3.8,134.9
Q 0.5,149.6,2.2,171.7
Q 3.4,186.7,1.9,192.8
Q 1.0,196.3,2.5,200.0
Q 4.9,205.9,5.0,214.0
Q 5.1,218.7,5.3,218.9
Q 5.6,219.4,9.0,216.4
Q 11.8,214.0,17.1,209.7
Q 22.4,205.3,24.0,203.9
Q 25.6,202.5,27.0,201.4
Q 39.3,191.2,39.2,174.1
Q 39.1,163.0,33.1,138.9
Q 31.2,131.0,33.1,133.4
Q 33.4,133.7,34.8,139.3
Q 36.5,145.7,38.3,152.1
Q 44.6,175.7,38.9,188.8
Q 37.5,192.0,38.2,191.4
Q 40.8,189.6,47.8,181.4
Q 68.1,157.8,61.8,139.9
Q 59.2,132.5,49.3,120.7
Q 35.5,104.3,32.3,90.8
Q 31.7,88.1,31.1,85.5
Q 29.8,85.5,29.5,85.8
Q 29.3,86.1,29.2,92.8
Q 29.0,102.6,26.6,102.5
Q 25.9,102.5,24.5,96.6
Q 23.5,92.8,23.1,91.9
Q 22.9,91.5,22.7,91.0
Q 22.4,91.9,22.0,92.7
Q 19.4,99.0,14.8,93.7
Q 13.1,91.6,12.7,91.6
Q 10.8,91.6,9.8,100.3
Q 9.2,105.7,6.3,108.5
Q 5.2,109.5,4.9,109.1
Q 3.6,107.8,2.9,100.2
Q 2.8,98.6,2.7,97.0
Q 2.7,96.8,2.7,96.6
Q 2.5,96.6,2.4,96.6
Q 2.2,96.6,2.2,93.9
Q 2.2,93.5,2.2,93.0
Q 2.0,92.7,1.8,92.3
Q 1.3,91.7,1.3,91.0
Q 1.3,90.7,1.3,90.3
Q 1.3,90.1,1.3,89.9
Q 1.1,89.5,0.9,89.0
Q -0.1,87.1,-2.4,91.2
Q -4.2,94.4,-6.7,95.2
Q -6.9,95.2,-7.1,95.2
Q -9.3,93.5,-10.2,91.0
Q -11.1,88.6,-12.0,85.9
Q -12.4,84.6,-12.9,83.2
Q -16.0,90.3,-18.7,95.8
Q -30.0,118.5,-28.0,133.9
Q -25.6,151.6,-17.7,164.8
Q -16.9,166.2,-16.0,167.7
 " /> 
<path  
style="fill:rgb(7,193,201)" 
d="M 8.1 214.0
Q 7.9,214.8,8.5,214.8
Q 10.1,214.8,15.4,203.4
Q 23.0,187.2,23.7,174.2
Q 24.8,154.7,23.0,155.4
Q 22.5,155.6,22.4,164.4
Q 22.2,178.6,20.9,184.1
Q 16.8,201.1,9.4,211.6
Q 8.3,213.2,8.1,214.0
 " /> 
<path  
style="fill:rgb(7,193,201)" 
d="M 49.6 172.5
Q 49.3,174.3,49.9,174.3
Q 51.5,174.3,52.2,162.3
Q 52.9,152.5,47.8,139.4
Q 46.0,134.4,45.0,135.4
Q 44.8,135.6,46.1,139.1
Q 53.0,157.1,50.2,168.8
Q 49.8,170.6,49.6,172.5
 " /> 
<path  
style="fill:rgb(7,193,201)" 
d="M -16.0 167.7
Q -15.5,167.7,-15.0,167.7
Q -14.9,165.1,-14.7,162.6
Q -13.9,145.9,-11.5,136.5
Q -9.6,129.1,-11.3,131.3
Q -12.9,133.5,-14.0,140.1
Q -14.3,141.7,-14.7,144.1
Q -15.4,148.4,-16.0,167.7
 " /> 
<path  
style="fill:rgb(7,193,201)" 
d="M -12.9 83.2
Q -12.7,82.6,-12.4,81.9
Q -12.5,81.9,-12.7,81.9
Q -12.9,82.0,-12.9,83.2
 " /> 
<path  
style="fill:rgb(7,193,201)" 
d="M -12.9 83.2
Q -12.5,83.1,-12.2,83.0
Q -12.3,82.5,-12.4,81.9
Q -12.7,82.6,-12.9,83.2
 " /> 
<path  
style="fill:rgb(7,193,201)" 
d="M -12.9 83.2
Q -12.4,84.6,-12.0,85.9
Q -11.1,88.6,-10.2,91.0
Q -9.3,93.5,-7.1,95.2
Q -7.5,94.8,-8.0,94.3
Q -9.8,92.5,-11.8,84.6
Q -12.0,83.8,-12.2,83.0
Q -12.5,83.1,-12.9,83.2
 " /> 
<path  
style="fill:rgb(97,247,248)" 
d="M -7.1 95.2
Q -6.9,95.2,-6.7,95.2
Q -6.2,94.9,-5.8,94.6
Q -4.8,93.9,-1.8,89.3
Q 0.7,85.5,1.3,89.9
Q 1.3,90.1,1.3,90.3
Q 1.6,90.7,1.8,91.0
Q 2.2,91.7,2.2,92.3
Q 2.2,92.7,2.2,93.0
Q 2.2,93.5,2.2,93.9
Q 2.7,93.8,2.7,95.2
Q 2.7,95.9,2.7,96.6
Q 2.7,96.8,2.7,97.0
Q 4.1,104.2,4.3,105.8
Q 4.6,109.6,6.8,107.1
Q 9.0,104.7,9.6,98.8
Q 10.1,93.3,11.8,91.7
Q 13.0,90.6,13.9,91.9
Q 19.3,99.4,21.8,92.0
Q 22.6,89.5,23.4,90.7
Q 23.6,91.1,25.5,99.2
Q 26.1,101.6,26.7,101.6
Q 28.6,101.7,28.8,92.3
Q 28.9,85.5,30.0,85.2
Q 30.6,85.1,31.1,85.0
Q 30.9,84.2,30.7,83.5
Q 30.2,81.9,30.2,78.6
Q 30.2,75.4,28.9,73.0
Q 25.7,66.9,23.7,52.3
Q 23.6,51.7,23.6,51.0
Q 22.8,44.7,23.3,40.8
Q 23.6,38.6,24.3,37.1
Q 25.5,34.8,26.3,30.8
Q 26.7,28.8,27.1,26.8
Q 27.1,23.0,27.1,19.2
Q 26.7,14.3,26.0,11.6
Q 25.7,10.2,25.4,8.8
Q 25.2,9.9,24.9,11.0
Q 24.5,13.2,24.2,14.9
Q 24.0,16.6,23.0,16.6
Q 22.1,16.6,23.3,9.2
Q 24.0,5.2,24.4,1.7
Q 24.7,-1.8,25.3,-1.8
Q 25.9,-1.8,25.8,0.4
Q 25.7,2.6,26.6,5.7
Q 28.4,11.9,28.8,17.8
Q 28.8,18.5,28.9,19.2
Q 29.2,19.2,29.3,19.4
Q 29.3,19.7,29.3,21.9
Q 29.3,23.0,29.3,24.1
Q 29.3,26.7,29.1,26.7
Q 29.0,26.8,28.9,26.8
Q 28.9,31.2,26.0,36.9
Q 24.9,39.2,24.9,40.1
Q 24.9,40.6,24.9,41.0
Q 24.9,42.1,24.9,43.1
Q 24.9,45.2,24.9,45.3
Q 24.9,45.4,24.9,45.5
Q 25.0,45.9,25.1,46.3
Q 25.3,47.2,25.3,48.8
Q 25.3,49.6,25.3,50.3
Q 25.6,51.2,25.8,51.3
Q 25.9,51.3,25.9,51.3
Q 26.7,51.3,32.4,46.1
Q 34.5,44.2,36.2,43.2
Q 38.0,42.2,39.5,41.2
Q 44.5,37.7,47.5,39.9
Q 49.3,41.2,51.6,43.7
Q 50.7,41.5,49.8,39.2
Q 47.2,32.8,39.1,17.9
Q 34.0,8.7,31.0,0.1
Q 27.0,-11.1,23.9,-12.0
Q 23.2,-12.2,21.1,-11.6
Q 18.1,-10.7,15.7,-10.4
Q 14.5,-10.3,13.3,-10.1
Q 12.2,-10.1,11.1,-10.1
Q -3.1,-10.1,-6.8,-10.3
Q -8.7,-10.5,-10.6,-10.6
Q -11.3,-8.7,-12.0,-6.9
Q -14.6,-0.2,-15.3,4.4
Q -15.4,5.4,-15.6,6.3
Q -15.6,6.9,-15.6,7.4
Q -15.6,8.4,-15.8,8.5
Q -15.9,8.5,-16.0,8.6
Q -16.4,14.3,-17.3,17.6
Q -19.9,27.3,-25.8,35.5
Q -26.7,36.7,-27.6,37.9
Q -24.4,38.3,-22.4,39.2
Q -20.4,40.1,-18.0,39.7
Q -16.8,39.5,-15.6,39.2
Q -15.3,39.2,-15.1,39.2
Q -13.3,38.8,-11.6,40.4
Q -9.9,41.9,-7.7,42.3
Q -4.1,42.8,-1.9,45.5
Q -1.4,45.0,-0.9,44.6
Q -0.6,42.8,-0.2,41.0
Q 0.4,37.5,-0.9,34.7
Q -2.3,31.9,-3.1,29.4
Q -3.7,27.7,-4.0,22.4
Q -4.2,20.0,-4.4,16.8
Q -4.3,17.8,-4.4,15.4
Q -4.4,16.2,-4.4,14.8
Q -4.4,12.6,-4.4,10.3
Q -5.3,4.6,-5.4,3.6
Q -5.5,2.6,-4.9,2.6
Q -4.3,2.6,-3.5,5.9
Q -2.6,9.2,-1.6,13.2
Q -0.1,18.9,-1.1,19.0
Q -1.5,19.0,-1.9,18.7
Q -2.3,19.2,-2.7,19.7
Q -2.7,20.3,-2.7,20.9
Q -2.7,22.1,-2.7,22.2
Q -2.7,22.3,-2.7,22.3
Q -2.3,24.1,-2.0,25.9
Q -0.9,32.0,1.7,35.9
Q 3.9,39.3,2.6,39.1
Q 1.9,39.0,1.2,43.1
Q 0.8,45.2,0.4,47.2
Q 0.4,47.5,0.4,47.7
Q 0.0,49.3,-0.4,51.0
Q -2.7,59.4,-8.5,71.6
Q -10.7,76.1,-11.6,79.0
Q -12.0,80.5,-12.4,81.9
Q -12.3,82.5,-12.2,83.0
Q -12.0,83.8,-11.8,84.6
Q -9.8,92.5,-8.0,94.3
Q -7.5,94.8,-7.1,95.2
 " /> 
<path  
style="fill:rgb(7,193,201)" 
d="M -6.7 95.2
Q -4.2,94.4,-2.4,91.2
Q -0.1,87.1,0.9,89.0
Q 1.1,89.5,1.3,89.9
Q 0.7,85.5,-1.8,89.3
Q -4.8,93.9,-5.8,94.6
Q -6.2,94.9,-6.7,95.2
 " /> 
<path  
style="fill:rgb(7,193,201)" 
d="M 1.3 90.3
Q 1.3,90.7,1.3,91.0
Q 1.3,91.7,1.8,92.3
Q 2.0,92.7,2.2,93.0
Q 2.2,92.7,2.2,92.3
Q 2.2,91.7,1.8,91.0
Q 1.6,90.7,1.3,90.3
 " /> 
<path  
style="fill:rgb(7,193,201)" 
d="M 2.2 93.9
Q 2.2,96.6,2.4,96.6
Q 2.5,96.6,2.7,96.6
Q 2.7,95.9,2.7,95.2
Q 2.7,93.8,2.2,93.9
 " /> 
<path  
style="fill:rgb(7,193,201)" 
d="M 2.7 97.0
Q 2.8,98.6,2.9,100.2
Q 3.6,107.8,4.9,109.1
Q 5.2,109.5,6.3,108.5
Q 9.2,105.7,9.8,100.3
Q 10.8,91.6,12.7,91.6
Q 13.1,91.6,14.8,93.7
Q 19.4,99.0,22.0,92.7
Q 22.4,91.9,22.7,91.0
Q 22.9,91.5,23.1,91.9
Q 23.5,92.8,24.5,96.6
Q 25.9,102.5,26.6,102.5
Q 29.0,102.6,29.2,92.8
Q 29.3,86.1,29.5,85.8
Q 29.8,85.5,31.1,85.5
Q 31.1,85.2,31.1,85.0
Q 30.6,85.1,30.0,85.2
Q 28.9,85.5,28.8,92.3
Q 28.6,101.7,26.7,101.6
Q 26.1,101.6,25.5,99.2
Q 23.6,91.1,23.4,90.7
Q 22.6,89.5,21.8,92.0
Q 19.3,99.4,13.9,91.9
Q 13.0,90.6,11.8,91.7
Q 10.1,93.3,9.6,98.8
Q 9.0,104.7,6.8,107.1
Q 4.6,109.6,4.3,105.8
Q 4.1,104.2,2.7,97.0
 " /> 
<path  
style="fill:rgb(14,103,171)" 
d="M 0.4 47.7
Q -0.2,47.5,-0.9,47.2
Q -0.6,47.5,-0.3,47.7
Q 0.1,47.7,0.4,47.7
 " /> 
<path  
style="fill:rgb(14,103,171)" 
d="M 0.4 47.7
Q 0.4,47.5,0.4,47.2
Q 0.1,47.2,-0.2,47.2
Q 0.1,47.5,0.4,47.7
 " /> 
<path  
style="fill:rgb(14,103,171)" 
d="M 0.4 47.2
Q 0.2,47.0,-0.1,46.8
Q -0.1,46.8,-0.2,46.7
Q -0.3,46.8,-0.5,46.9
Q -0.0,47.1,0.4,47.2
 " /> 
<path  
style="fill:rgb(4,4,4)" 
d="M 0.4 47.2
Q 0.8,45.2,1.2,43.1
Q 1.9,39.0,2.6,39.1
Q 3.9,39.3,1.7,35.9
Q -0.9,32.0,-2.0,25.9
Q -2.3,24.1,-2.7,22.3
Q -2.8,22.4,-2.9,22.4
Q -2.9,22.4,-3.0,22.4
Q -3.5,22.4,-4.0,22.4
Q -3.7,27.7,-3.1,29.4
Q -2.3,31.9,-0.9,34.7
Q 0.4,37.5,-0.2,41.0
Q -0.6,42.8,-0.9,44.6
Q -0.7,45.9,-0.3,46.5
Q -0.2,46.7,-0.1,46.8
Q -0.2,46.7,-0.1,46.8
Q -0.1,46.8,-0.1,46.8
Q 0.2,47.0,0.4,47.2
 " /> 
<path  
style="fill:rgb(14,103,171)" 
d="M -2.7 22.3
Q -2.7,22.3,-2.7,22.2
Q -2.7,22.1,-2.7,20.9
Q -2.7,20.3,-2.7,19.7
Q -2.9,19.7,-3.1,19.7
Q -3.1,21.9,-3.1,22.1
Q -3.0,22.3,-3.0,22.4
Q -2.8,22.4,-2.7,22.3
 " /> 
<path  
style="fill:rgb(7,193,201)" 
d="M -2.7 19.7
Q -2.7,19.5,-2.7,19.3
Q -2.9,19.5,-3.1,19.7
Q -2.9,19.7,-2.7,19.7
 " /> 
<path  
style="fill:rgb(97,247,248)" 
d="M -2.7 19.7
Q -2.3,19.2,-1.9,18.7
Q -2.1,18.5,-2.3,18.2
Q -2.3,18.9,-2.7,19.3
Q -2.7,19.5,-2.7,19.7
 " /> 
<path  
style="fill:rgb(4,4,4)" 
d="M -2.7 17.5
Q -3.5,17.5,-4.3,17.5
Q -4.2,19.7,-4.1,21.5
Q -3.7,19.7,-3.1,19.7
Q -3.1,19.2,-3.1,18.6
Q -3.1,17.6,-2.9,17.5
Q -2.8,17.5,-2.7,17.5
 " /> 
<path  
style="fill:rgb(4,4,4)" 
d="M -2.7 17.5
Q -2.4,18.2,-2.0,18.6
Q -1.8,18.8,-1.5,18.9
Q -1.5,19.0,-1.1,19.0
Q -0.1,18.9,-1.6,13.2
Q -2.6,9.2,-3.5,5.9
Q -4.3,2.6,-4.9,2.6
Q -5.5,2.6,-5.4,3.6
Q -5.3,4.6,-4.4,10.3
Q -4.0,12.6,-4.2,13.7
Q -4.3,14.2,-4.4,14.8
Q -4.4,16.2,-4.3,17.5
Q -3.5,17.5,-2.7,17.5
 " /> 
<path  
style="fill:rgb(97,247,248)" 
d="M -2.7 17.5
Q -2.7,18.4,-2.7,19.3
Q -2.3,18.9,-2.0,18.6
Q -2.4,18.2,-2.7,17.5
 " /> 
<path  
style="fill:rgb(7,193,201)" 
d="M -2.7 17.5
Q -2.8,17.5,-2.9,17.5
Q -3.1,17.6,-3.1,18.6
Q -3.1,19.2,-3.1,19.7
Q -2.9,19.5,-2.7,19.3
Q -2.7,18.4,-2.7,17.5
 " /> 
<path  
style="fill:rgb(14,103,171)" 
d="M -4.4 10.3
Q -4.4,12.6,-4.4,14.8
Q -4.3,14.2,-4.2,13.7
Q -4.0,12.6,-4.4,10.3
 " /> 
<path  
style="fill:rgb(14,103,171)" 
d="M -0.9 44.6
Q -0.9,45.7,-0.9,46.8
Q -0.6,46.6,-0.3,46.5
Q -0.7,45.9,-0.9,44.6
 " /> 
<path  
style="fill:rgb(97,247,248)" 
d="M -0.9 44.6
Q -1.4,45.0,-1.9,45.5
Q -1.9,45.6,-1.8,45.7
Q -1.3,46.2,-0.9,46.8
Q -0.9,45.7,-0.9,44.6
 " /> 
<path  
style="fill:rgb(14,103,171)" 
d="M -0.9 46.8
Q -0.8,46.8,-0.7,46.8
Q -0.5,46.7,-0.3,46.6
Q -0.4,46.4,-0.5,46.2
Q -0.6,46.6,-0.9,46.8
 " /> 
<path  
style="fill:rgb(7,193,201)" 
d="M -0.9 46.8
Q -1.3,46.2,-1.8,45.7
Q -1.9,45.6,-1.9,45.5
Q -4.1,42.8,-7.7,42.3
Q -9.9,41.9,-11.6,40.4
Q -13.3,38.8,-15.1,39.2
Q -12.8,39.2,-11.6,40.8
Q -10.3,42.4,-8.2,42.7
Q -4.3,43.1,-1.3,47.2
Q -1.1,47.0,-0.9,46.8
 " /> 
<path  
style="fill:rgb(7,193,201)" 
d="M -1.3 47.2
Q -1.1,47.2,-0.9,47.2
Q -0.9,47.1,-0.9,47.0
Q -1.1,47.1,-1.3,47.2
 " /> 
<path  
style="fill:rgb(14,103,171)" 
d="M -15.1 39.2
Q -15.3,39.2,-15.6,39.2
Q -19.5,41.6,-22.5,39.6
Q -24.0,38.7,-26.0,38.5
Q -27.0,38.4,-28.0,38.3
Q -33.9,46.9,-36.1,53.2
Q -35.5,53.4,-34.9,53.6
Q -33.7,48.8,-32.0,48.2
Q -30.7,47.8,-33.0,52.4
Q -34.0,54.5,-34.6,54.7
Q -35.2,54.9,-34.9,53.6
Q -35.5,53.4,-36.1,53.2
Q -37.1,56.0,-37.3,58.3
Q -37.9,63.7,-37.2,63.5
Q -37.0,63.4,-35.8,61.2
Q -34.3,58.5,-29.7,53.5
Q -25.1,48.5,-24.5,48.3
Q -22.3,47.4,-28.7,54.6
Q -38.1,65.2,-36.2,72.1
Q -34.1,79.9,-29.5,82.1
Q -28.7,82.4,-28.0,82.8
Q -28.1,79.9,-28.2,77.0
Q -28.5,69.6,-27.5,69.3
Q -26.5,69.0,-27.1,76.5
Q -27.3,79.7,-27.6,82.8
Q -20.4,82.8,-16.8,78.9
Q -15.2,77.2,-15.6,72.1
Q -16.2,63.0,-15.5,55.8
Q -15.3,53.9,-14.3,53.6
Q -13.8,53.4,-14.0,59.5
Q -14.3,65.7,-14.0,70.6
Q -13.8,73.0,-13.7,75.4
Q -11.6,72.8,-10.6,70.4
Q -9.6,68.0,-8.7,66.8
Q -5.6,63.1,-2.2,50.6
Q -1.8,48.9,-1.3,47.2
Q -4.3,43.1,-8.2,42.7
Q -10.3,42.4,-11.6,40.8
Q -12.8,39.2,-15.1,39.2
 " /> 
<path  
style="fill:rgb(7,193,201)" 
d="M -9.8 58.3
Q -9.8,63.2,-9.1,63.2
Q -8.4,63.2,-8.4,58.3
Q -8.4,53.5,-9.1,53.5
Q -9.8,53.5,-9.8,58.3
 " /> 
<path  
style="fill:rgb(7,193,201)" 
d="M -15.6 39.2
Q -16.8,39.5,-18.0,39.7
Q -20.4,40.1,-22.4,39.2
Q -24.4,38.3,-27.6,37.9
Q -27.8,37.9,-28.0,38.3
Q -27.0,38.4,-26.0,38.5
Q -24.0,38.7,-22.5,39.6
Q -19.5,41.6,-15.6,39.2
 " /> 
<path  
style="fill:rgb(7,193,201)" 
d="M -16.0 8.6
Q -15.9,8.5,-15.8,8.5
Q -15.6,8.4,-15.6,7.4
Q -15.6,6.9,-15.6,6.3
Q -15.7,6.4,-15.8,6.4
Q -16.0,6.5,-16.0,8.6
 " /> 
<path  
style="fill:rgb(14,103,171)" 
d="M 11.1 -10.1
Q 12.2,-10.1,13.3,-10.1
Q 13.0,-10.2,12.7,-10.4
Q 12.0,-10.6,11.1,-10.1
 " /> 
<path  
style="fill:rgb(7,193,201)" 
d="M 51.6 43.7
Q 49.3,41.2,47.5,39.9
Q 44.5,37.7,39.5,41.2
Q 38.0,42.2,36.2,43.2
Q 34.5,44.2,32.4,46.1
Q 26.7,51.3,25.9,51.3
Q 25.9,51.3,25.8,51.3
Q 25.6,51.7,25.3,52.1
Q 25.5,52.2,25.7,52.2
Q 26.1,52.3,27.4,51.0
Q 28.7,49.6,30.8,48.1
Q 32.8,46.7,34.1,45.4
Q 35.3,44.0,37.1,43.1
Q 38.9,42.2,40.0,41.4
Q 44.8,38.2,46.9,40.1
Q 48.0,41.0,49.8,42.6
Q 50.7,43.3,51.6,44.1
Q 51.6,43.9,51.6,43.7
 " /> 
<path  
style="fill:rgb(4,4,4)" 
d="M 25.3 50.3
Q 25.3,49.6,25.3,48.8
Q 25.3,47.2,25.1,46.3
Q 25.0,45.9,24.9,45.5
Q 24.8,44.9,24.6,44.3
Q 24.4,43.2,24.6,42.1
Q 24.8,41.6,24.9,41.0
Q 24.1,40.9,23.3,40.8
Q 22.8,44.7,23.6,51.0
Q 23.6,51.7,23.7,52.3
Q 24.5,52.2,25.3,52.1
Q 25.3,51.2,25.3,50.3
 " /> 
<path  
style="fill:rgb(7,193,201)" 
d="M 25.3 50.3
Q 25.3,51.2,25.3,52.1
Q 25.6,51.7,25.8,51.3
Q 25.6,51.2,25.3,50.3
 " /> 
<path  
style="fill:rgb(14,103,171)" 
d="M 24.9 45.5
Q 24.9,45.4,24.9,45.3
Q 24.9,45.2,24.9,43.1
Q 24.9,42.1,24.9,41.0
Q 24.8,41.6,24.6,42.1
Q 24.4,43.2,24.6,44.3
Q 24.8,44.9,24.9,45.5
 " /> 
<path  
style="fill:rgb(4,4,4)" 
d="M 24.9 41.0
Q 24.9,40.6,24.9,40.1
Q 24.9,39.2,26.0,36.9
Q 28.9,31.2,28.9,26.8
Q 28.9,25.5,28.9,24.1
Q 28.9,23.0,28.9,21.9
Q 28.9,20.6,28.9,19.2
Q 28.8,18.5,28.8,17.8
Q 28.4,11.9,26.6,5.7
Q 25.7,2.6,25.8,0.4
Q 25.9,-1.8,25.3,-1.8
Q 24.7,-1.8,24.4,1.7
Q 24.0,5.2,23.3,9.2
Q 22.1,16.6,23.0,16.6
Q 24.0,16.6,24.2,14.9
Q 24.5,13.2,24.9,11.0
Q 25.2,9.9,25.4,8.8
Q 25.7,10.2,26.0,11.6
Q 26.7,14.3,27.1,19.2
Q 27.2,20.1,27.3,21.0
Q 27.6,22.8,27.3,24.8
Q 27.2,25.8,27.1,26.8
Q 26.7,28.8,26.3,30.8
Q 25.5,34.8,24.3,37.1
Q 23.6,38.6,23.3,40.8
Q 24.1,40.9,24.9,41.0
 " /> 
<path  
style="fill:rgb(7,193,201)" 
d="M 28.9 26.8
Q 29.0,26.8,29.1,26.7
Q 29.3,26.7,29.3,24.1
Q 29.1,24.1,28.9,24.1
Q 28.9,25.5,28.9,26.8
 " /> 
<path  
style="fill:rgb(14,103,171)" 
d="M 29.3 24.1
Q 29.3,23.0,29.3,21.9
Q 29.1,21.9,28.9,21.9
Q 28.9,23.0,28.9,24.1
Q 29.1,24.1,29.3,24.1
 " /> 
<path  
style="fill:rgb(7,193,201)" 
d="M 29.3 21.9
Q 29.3,19.7,29.3,19.4
Q 29.2,19.2,28.9,19.2
Q 28.9,20.6,28.9,21.9
Q 29.1,21.9,29.3,21.9
 " /> 
<path  
style="fill:rgb(7,193,201)" 
d="M 27.1 19.2
Q 27.1,23.0,27.1,26.8
Q 27.2,25.8,27.3,24.8
Q 27.6,22.8,27.3,21.0
Q 27.2,20.1,27.1,19.2
 " /> 
<path  
style="fill:rgb(7,193,201)" 
d="M -28.0 82.8
Q -27.8,82.8,-27.6,82.8
Q -27.3,79.7,-27.1,76.5
Q -26.5,69.0,-27.5,69.3
Q -28.5,69.6,-28.2,77.0
Q -28.1,79.9,-28.0,82.8
 " /> 
<path  
style="fill:rgb(14,103,171)" 
d="M 31.6 73.0
Q 31.7,69.7,31.8,66.3
Q 32.0,59.7,32.5,59.5
Q 32.9,59.3,32.7,66.8
Q 32.6,70.6,32.4,74.3
Q 33.3,75.5,34.2,76.6
Q 36.0,78.8,37.8,79.7
Q 38.7,80.2,39.6,80.7
Q 39.5,80.0,39.4,79.4
Q 39.1,78.1,38.4,75.7
Q 36.9,70.2,36.3,56.2
Q 36.2,53.9,36.7,53.6
Q 37.3,53.4,38.0,64.8
Q 38.4,70.9,40.3,78.0
Q 41.1,81.0,41.8,81.2
Q 44.7,82.2,47.8,80.4
Q 47.7,80.2,47.6,80.0
Q 47.5,79.9,47.4,79.6
Q 46.8,77.8,45.1,71.5
Q 43.4,65.0,44.5,65.0
Q 45.2,65.0,45.9,68.5
Q 46.6,71.9,47.6,75.6
Q 48.5,79.3,48.1,79.8
Q 47.8,80.1,47.6,80.0
Q 47.7,80.2,47.8,80.4
Q 49.1,79.6,50.4,78.4
Q 53.0,75.9,52.9,73.0
Q 52.9,72.0,49.5,62.1
Q 45.7,51.0,45.6,50.6
Q 45.6,50.2,46.2,50.2
Q 47.6,50.1,51.6,63.0
Q 53.4,68.8,53.6,69.4
Q 53.7,69.8,53.8,70.1
Q 54.5,65.3,54.4,61.2
Q 54.3,59.1,54.2,57.0
Q 54.1,56.9,54.0,56.8
Q 53.9,56.8,53.8,56.5
Q 53.0,55.3,52.4,54.4
Q 51.7,53.2,51.3,52.3
Q 50.5,50.8,50.8,50.5
Q 51.3,50.0,53.2,53.0
Q 53.5,53.4,53.8,53.9
Q 53.6,52.5,53.3,51.0
Q 52.9,48.1,51.6,44.1
Q 50.7,43.3,49.8,42.6
Q 48.0,41.0,46.9,40.1
Q 44.8,38.2,40.0,41.4
Q 38.9,42.2,37.1,43.1
Q 35.3,44.0,34.1,45.4
Q 32.8,46.7,30.8,48.1
Q 28.7,49.6,27.4,51.0
Q 26.1,52.3,25.7,52.2
Q 25.5,52.2,25.3,52.1
Q 25.6,53.2,25.8,54.3
Q 26.2,56.6,26.9,60.3
Q 27.5,64.0,28.7,67.2
Q 29.8,70.3,31.6,73.0
 " /> 
<path  
style="fill:rgb(7,193,201)" 
d="M 31.6 73.0
Q 32.1,73.9,32.4,74.3
Q 32.6,70.6,32.7,66.8
Q 32.9,59.3,32.5,59.5
Q 32.0,59.7,31.8,66.3
Q 31.7,69.7,31.6,73.0
 " /> 
<path  
style="fill:rgb(7,193,201)" 
d="M 53.8 53.9
Q 53.2,54.3,52.6,54.7
Q 53.2,55.6,54.1,56.8
Q 53.7,55.8,53.8,53.9
 " /> 
<path  
style="fill:rgb(7,193,201)" 
d="M 53.8 53.9
Q 53.5,53.4,53.2,53.0
Q 51.3,50.0,50.8,50.5
Q 50.5,50.8,51.3,52.3
Q 51.7,53.2,52.6,54.7
Q 53.2,54.3,53.8,53.9
 " /> 
<path  
style="fill:rgb(7,193,201)" 
d="M 47.4 79.6
Q 47.5,79.8,47.6,80.0
Q 47.8,80.1,48.1,79.8
Q 48.5,79.3,47.6,75.6
Q 46.6,71.9,45.9,68.5
Q 45.2,65.0,44.5,65.0
Q 43.4,65.0,45.1,71.5
Q 46.8,77.8,47.4,79.6
 " /> 
<path  
style="fill:rgb(7,193,201)" 
d="M -34.9 53.6
Q -35.2,54.9,-34.6,54.7
Q -34.0,54.5,-33.0,52.4
Q -30.7,47.8,-32.0,48.2
Q -33.7,48.8,-34.9,53.6
 " /> 
<path  
style="fill:rgb(14,103,171)" 
d="M -0.9 47.2
Q -0.7,47.1,-0.6,47.0
Q -0.7,46.9,-0.9,46.8
Q -0.9,47.0,-1.1,47.1
Q -0.9,47.1,-0.9,47.2
 " /> 
<path  
style="fill:rgb(14,103,171)" 
d="M -0.9 47.2
Q -0.9,47.4,-1.0,47.5
Q -1.1,47.8,-0.3,47.7
Q -0.3,47.7,-0.3,47.7
Q -0.6,47.5,-0.9,47.2
 " /> 
<path  
style="fill:rgb(4,4,4)" 
d="M -3.1 19.7
Q -3.7,19.7,-4.2,19.7
Q -4.0,22.6,-3.9,24.7
Q -3.5,22.4,-3.0,22.4
Q -3.0,22.3,-3.1,22.1
Q -3.1,21.9,-3.1,19.7
 " /> 
<path  
style="fill:rgb(4,4,4)" 
d="M -99.6 -59.9
Q -97.4,-58.1,-96.0,-56.3
Q -94.4,-55.1,-92.9,-53.9
Q -75.7,-40.4,-55.4,-36.7
Q -52.8,-36.2,-52.6,-36.5
Q -52.4,-36.7,-54.6,-39.7
Q -56.8,-42.8,-59.6,-48.3
Q -60.7,-48.4,-61.8,-48.5
Q -69.8,-49.3,-80.9,-56.7
Q -94.3,-65.7,-92.9,-67.2
Q -92.5,-67.6,-90.8,-65.8
Q -88.0,-62.9,-79.5,-57.3
Q -71.1,-51.9,-60.4,-49.6
Q -61.4,-52.3,-62.4,-55.0
Q -66.8,-66.5,-69.3,-76.8
Q -79.8,-82.3,-84.4,-88.1
Q -91.9,-97.4,-90.7,-98.7
Q -90.3,-99.0,-88.7,-96.3
Q -85.2,-90.5,-81.9,-87.1
Q -76.7,-81.8,-69.3,-78.1
Q -71.1,-85.1,-71.1,-90.5
Q -71.1,-92.1,-71.1,-93.6
Q -72.2,-94.5,-73.3,-95.4
Q -80.9,-101.4,-84.4,-111.0
Q -86.5,-116.8,-85.4,-116.8
Q -84.9,-116.8,-84.4,-114.9
Q -81.8,-104.9,-71.1,-94.5
Q -71.1,-95.0,-71.1,-95.4
Q -71.2,-95.8,-71.4,-96.1
Q -71.6,-96.7,-71.1,-97.6
Q -71.1,-99.9,-71.1,-102.1
Q -71.1,-104.5,-70.9,-104.7
Q -70.8,-104.7,-70.7,-104.8
Q -70.6,-105.8,-70.6,-106.9
Q -70.4,-109.1,-70.3,-109.4
Q -70.3,-109.5,-70.2,-109.6
Q -71.3,-110.6,-72.4,-111.6
Q -76.1,-115.0,-78.6,-120.9
Q -80.6,-125.7,-80.4,-126.4
Q -79.9,-127.5,-78.2,-122.8
Q -75.3,-114.8,-70.2,-111.0
Q -68.5,-119.9,-66.2,-124.8
Q -66.7,-124.3,-67.7,-125.8
Q -70.2,-129.2,-70.2,-135.1
Q -70.2,-138.1,-69.8,-138.1
Q -69.5,-138.1,-69.1,-134.1
Q -68.8,-130.1,-67.5,-127.9
Q -66.9,-126.8,-66.2,-125.6
Q -65.4,-127.2,-64.7,-128.8
Q -63.1,-131.9,-61.4,-134.5
Q -59.6,-137.1,-61.1,-138.0
Q -63.7,-139.5,-63.6,-147.9
Q -63.6,-149.9,-63.6,-151.9
Q -63.6,-155.2,-63.1,-155.4
Q -63.1,-159.4,-63.1,-163.4
Q -63.1,-164.8,-63.1,-166.1
Q -63.1,-168.3,-63.8,-169.8
Q -64.1,-170.5,-64.5,-171.2
Q -65.2,-170.3,-66.0,-169.5
Q -70.9,-163.9,-74.7,-138.5
Q -75.2,-135.1,-76.4,-134.1
Q -77.9,-134.5,-77.8,-135.2
Q -77.8,-135.5,-77.8,-135.9
Q -77.8,-137.6,-77.8,-139.4
Q -77.9,-139.4,-78.0,-139.3
Q -78.3,-139.3,-78.3,-140.5
Q -78.3,-140.5,-78.3,-140.5
Q -78.2,-141.0,-78.2,-141.6
Q -78.2,-152.3,-79.5,-152.3
Q -81.1,-152.3,-82.2,-142.0
Q -83.3,-131.8,-85.6,-134.0
Q -86.9,-135.3,-89.1,-148.3
Q -92.4,-167.6,-97.0,-169.4
Q -100.1,-170.7,-100.4,-159.5
Q -100.4,-158.1,-100.4,-156.8
Q -100.3,-156.8,-100.2,-156.8
Q -99.9,-156.9,-100.0,-155.5
Q -100.0,-155.5,-100.0,-155.5
Q -100.0,-154.8,-100.0,-154.1
Q -99.1,-147.9,-98.2,-144.0
Q -97.4,-140.1,-96.2,-136.3
Q -91.8,-122.0,-92.5,-119.7
Q -93.4,-116.4,-96.7,-120.0
Q -98.7,-122.2,-103.7,-135.2
Q -106.8,-143.4,-108.1,-141.7
Q -110.5,-138.6,-110.6,-128.7
Q -110.6,-126.3,-110.7,-123.9
Q -110.5,-123.9,-110.4,-123.9
Q -110.1,-124.0,-110.2,-122.8
Q -110.2,-122.8,-110.2,-122.8
Q -110.2,-122.2,-110.2,-121.6
Q -110.0,-120.3,-109.8,-119.0
Q -107.1,-102.7,-93.3,-81.2
Q -89.4,-75.2,-92.7,-74.7
Q -93.5,-74.6,-94.2,-74.5
Q -96.0,-74.9,-96.2,-75.4
Q -96.3,-75.6,-96.4,-75.9
Q -103.1,-79.4,-106.1,-81.0
Q -109.1,-82.6,-110.2,-82.8
Q -113.1,-83.6,-107.7,-73.3
Q -104.7,-67.4,-99.6,-59.9
 " /> 
<path  
style="fill:rgb(14,103,171)" 
d="M -99.6 -59.9
Q -99.1,-59.3,-98.6,-58.8
Q -97.8,-57.7,-96.0,-56.3
Q -97.4,-58.1,-99.6,-59.9
 " /> 
<path  
style="fill:rgb(14,103,171)" 
d="M -96.4 -75.9
Q -96.3,-75.6,-96.2,-75.4
Q -96.0,-74.9,-94.2,-74.5
Q -95.1,-75.4,-96.4,-75.9
 " /> 
<path  
style="fill:rgb(14,103,171)" 
d="M -110.2 -121.6
Q -110.2,-122.2,-110.2,-122.8
Q -110.4,-123.4,-110.7,-123.9
Q -110.7,-121.9,-110.6,-121.7
Q -110.6,-121.5,-110.2,-121.6
 " /> 
<path  
style="fill:rgb(14,103,171)" 
d="M -110.7 -123.9
Q -110.4,-123.4,-110.2,-122.8
Q -110.2,-122.8,-110.2,-122.8
Q -110.1,-124.0,-110.4,-123.9
Q -110.5,-123.9,-110.7,-123.9
 " /> 
<path  
style="fill:rgb(14,103,171)" 
d="M -100.0 -154.1
Q -100.0,-154.8,-100.0,-155.5
Q -100.2,-156.1,-100.4,-156.8
Q -100.4,-156.0,-100.4,-155.3
Q -100.4,-153.9,-100.0,-154.1
 " /> 
<path  
style="fill:rgb(14,103,171)" 
d="M -100.4 -156.8
Q -100.2,-156.1,-100.0,-155.5
Q -100.0,-155.5,-100.0,-155.5
Q -99.9,-156.9,-100.2,-156.8
Q -100.3,-156.8,-100.4,-156.8
 " /> 
<path  
style="fill:rgb(14,103,171)" 
d="M -78.2 -141.6
Q -78.2,-141.0,-78.3,-140.5
Q -78.0,-139.9,-77.8,-139.4
Q -77.8,-140.0,-77.8,-140.6
Q -77.8,-141.9,-78.2,-141.6
 " /> 
<path  
style="fill:rgb(14,103,171)" 
d="M -77.8 -139.4
Q -78.0,-139.9,-78.3,-140.5
Q -78.3,-140.5,-78.3,-140.5
Q -78.3,-139.3,-78.0,-139.3
Q -77.9,-139.4,-77.8,-139.4
 " /> 
<path  
style="fill:rgb(14,103,171)" 
d="M -77.8 -135.9
Q -77.8,-135.5,-77.8,-135.2
Q -77.9,-134.5,-76.4,-134.1
Q -77.5,-134.9,-77.8,-135.9
 " /> 
<path  
style="fill:rgb(14,103,171)" 
d="M -63.1 -166.1
Q -63.1,-164.8,-63.1,-163.4
Q -62.6,-164.8,-62.9,-165.4
Q -63.0,-165.8,-63.1,-166.1
 " /> 
<path  
style="fill:rgb(14,103,171)" 
d="M -63.1 -155.4
Q -63.6,-155.2,-63.6,-151.9
Q -63.3,-152.0,-63.2,-152.4
Q -63.2,-152.9,-63.1,-155.4
 " /> 
<path  
style="fill:rgb(97,247,248)" 
d="M -66.2 -125.6
Q -66.9,-126.8,-67.5,-127.9
Q -68.8,-130.1,-69.1,-134.1
Q -69.5,-138.1,-69.8,-138.1
Q -70.2,-138.1,-70.2,-135.1
Q -70.2,-129.2,-67.7,-125.8
Q -66.7,-124.3,-66.2,-124.8
Q -66.2,-125.2,-66.2,-125.6
 " /> 
<path  
style="fill:rgb(97,247,248)" 
d="M -70.2 -111.0
Q -75.3,-114.8,-78.2,-122.8
Q -79.9,-127.5,-80.4,-126.4
Q -80.6,-125.7,-78.6,-120.9
Q -76.1,-115.0,-72.4,-111.6
Q -71.3,-110.6,-70.2,-109.6
Q -70.2,-110.3,-70.2,-111.0
 " /> 
<path  
style="fill:rgb(14,103,171)" 
d="M -70.7 -104.8
Q -70.8,-104.7,-70.9,-104.7
Q -71.1,-104.5,-71.1,-102.1
Q -71.0,-102.1,-70.9,-102.2
Q -70.7,-102.2,-70.7,-103.5
Q -70.7,-104.1,-70.7,-104.8
 " /> 
<path  
style="fill:rgb(14,103,171)" 
d="M -71.1 -97.6
Q -71.6,-96.7,-71.4,-96.1
Q -71.2,-95.8,-71.1,-95.4
Q -71.1,-96.5,-71.1,-97.6
 " /> 
<path  
style="fill:rgb(97,247,248)" 
d="M -71.1 -94.5
Q -81.8,-104.9,-84.4,-114.9
Q -84.9,-116.8,-85.4,-116.8
Q -86.5,-116.8,-84.4,-111.0
Q -80.9,-101.4,-73.3,-95.4
Q -72.2,-94.5,-71.1,-93.6
Q -71.1,-94.1,-71.1,-94.5
 " /> 
<path  
style="fill:rgb(97,247,248)" 
d="M -69.3 -78.1
Q -76.7,-81.8,-81.9,-87.1
Q -85.2,-90.5,-88.7,-96.3
Q -90.3,-99.0,-90.7,-98.7
Q -91.9,-97.4,-84.4,-88.1
Q -79.8,-82.3,-69.3,-76.8
Q -69.3,-77.4,-69.3,-78.1
 " /> 
<path  
style="fill:rgb(97,247,248)" 
d="M -60.4 -49.6
Q -71.1,-51.9,-79.5,-57.3
Q -88.0,-62.9,-90.8,-65.8
Q -92.5,-67.6,-92.9,-67.2
Q -94.3,-65.7,-80.9,-56.7
Q -69.8,-49.3,-61.8,-48.5
Q -60.7,-48.4,-59.6,-48.3
Q -60.0,-49.0,-60.4,-49.6
 " /> 
<path  
style="fill:rgb(4,4,4)" 
d="M 73.3 -51.9
Q 76.9,-53.6,81.0,-55.0
Q 85.1,-56.4,88.4,-58.1
Q 91.8,-59.9,92.4,-59.7
Q 94.1,-59.3,85.7,-55.5
Q 82.2,-54.0,73.3,-51.4
Q 72.7,-50.0,72.0,-48.5
Q 70.7,-45.6,68.4,-42.2
Q 66.2,-38.8,66.4,-38.7
Q 67.0,-38.0,81.8,-43.5
Q 84.0,-44.4,86.2,-45.2
Q 86.4,-45.4,86.7,-45.6
Q 87.1,-46.0,88.0,-46.3
Q 88.4,-46.4,88.9,-46.5
Q 91.0,-47.7,93.1,-48.8
Q 97.3,-51.0,105.3,-57.2
Q 105.7,-57.6,106.0,-58.1
Q 106.7,-58.9,107.3,-59.4
Q 107.7,-59.6,108.0,-59.9
Q 110.7,-63.9,110.9,-64.8
Q 111.4,-66.4,105.4,-63.6
Q 96.0,-59.2,99.9,-66.2
Q 101.2,-68.6,103.0,-70.6
Q 122.7,-93.2,124.7,-111.0
Q 125.4,-117.0,122.7,-116.3
Q 122.2,-115.8,121.8,-115.2
Q 120.9,-114.1,120.0,-113.4
Q 119.5,-113.1,119.1,-112.8
Q 118.5,-112.0,118.0,-111.2
Q 116.9,-109.7,113.8,-105.2
Q 113.5,-104.9,113.3,-104.6
Q 112.9,-103.9,112.2,-103.4
Q 111.9,-103.2,111.6,-103.0
Q 111.2,-103.2,110.9,-103.4
Q 110.2,-103.9,110.2,-104.7
Q 110.1,-106.3,116.0,-122.5
Q 119.9,-133.4,120.6,-142.3
Q 120.8,-143.8,120.9,-145.2
Q 120.9,-147.2,120.9,-149.2
Q 120.8,-150.3,120.7,-151.4
Q 120.1,-156.6,117.9,-156.4
Q 115.2,-156.2,108.4,-140.1
Q 105.6,-133.5,104.7,-132.4
Q 101.4,-128.6,98.5,-140.2
Q 95.3,-152.8,93.0,-157.5
Q 92.0,-159.4,91.1,-161.2
Q 90.7,-161.5,90.2,-161.9
Q 89.4,-162.6,88.9,-163.2
Q 88.7,-163.5,88.4,-163.9
Q 86.7,-163.9,85.8,-162.1
Q 84.9,-160.3,84.9,-159.4
Q 84.9,-159.0,84.9,-158.5
Q 84.9,-155.6,84.4,-155.4
Q 84.4,-154.3,84.4,-153.2
Q 84.4,-150.3,84.0,-150.1
Q 83.9,-149.4,83.8,-148.8
Q 82.7,-142.3,76.9,-144.8
Q 76.6,-145.0,76.2,-145.2
Q 75.6,-145.7,74.7,-147.0
Q 74.5,-147.1,74.4,-147.3
Q 74.2,-147.6,74.2,-147.9
Q 73.4,-147.8,72.6,-147.7
Q 73.3,-142.4,73.1,-141.4
Q 72.3,-137.5,62.7,-146.2
Q 62.8,-145.1,62.9,-144.1
Q 63.5,-140.2,60.2,-139.6
Q 58.6,-139.3,58.8,-138.9
Q 58.9,-138.6,61.5,-136.4
Q 73.5,-126.2,77.1,-107.2
Q 77.5,-105.5,77.8,-103.9
Q 85.3,-109.5,87.7,-119.4
Q 89.1,-125.2,89.5,-136.9
Q 90.0,-147.2,90.5,-138.4
Q 91.5,-119.8,84.6,-109.4
Q 82.8,-106.7,78.2,-103.0
Q 78.2,-101.6,78.2,-100.3
Q 78.7,-100.4,78.7,-99.3
Q 78.7,-99.3,78.7,-99.3
Q 78.7,-98.7,78.7,-98.1
Q 78.8,-97.4,78.9,-96.8
Q 79.1,-95.4,79.1,-93.2
Q 79.1,-92.1,79.1,-91.0
Q 79.6,-91.1,79.6,-89.9
Q 79.6,-89.9,79.6,-89.9
Q 79.6,-89.3,79.6,-88.8
Q 79.6,-87.2,79.6,-85.6
Q 80.9,-86.5,82.2,-87.4
Q 86.6,-90.4,93.2,-97.9
Q 105.8,-112.5,110.9,-126.6
Q 112.3,-130.6,112.8,-129.5
Q 113.1,-128.8,110.8,-123.4
Q 104.3,-108.0,91.4,-94.3
Q 84.4,-86.8,81.0,-85.4
Q 80.3,-85.1,79.6,-84.8
Q 79.6,-80.3,79.6,-75.9
Q 79.6,-73.3,79.3,-73.3
Q 79.2,-73.2,79.1,-73.2
Q 78.9,-71.0,78.7,-70.5
Q 80.4,-71.4,83.9,-72.5
Q 97.3,-76.8,104.7,-88.7
Q 106.4,-91.4,107.0,-91.4
Q 108.9,-91.4,102.2,-83.5
Q 93.7,-73.3,78.7,-70.1
Q 78.6,-69.0,78.4,-67.9
Q 78.0,-63.5,76.0,-58.0
Q 75.1,-55.4,73.3,-51.9
 " /> 
<path  
style="fill:rgb(97,247,248)" 
d="M 74.9 -123.7
Q 74.5,-122.4,75.1,-122.6
Q 76.4,-123.1,77.1,-128.2
Q 77.5,-131.9,76.7,-133.8
Q 76.0,-135.4,76.0,-130.9
Q 76.0,-127.6,75.6,-126.3
Q 75.2,-125.0,74.9,-123.7
 " /> 
<path  
style="fill:rgb(97,247,248)" 
d="M 67.1 -133.8
Q 67.1,-132.8,67.5,-132.8
Q 67.9,-132.8,68.2,-133.5
Q 69.4,-137.9,68.4,-137.5
Q 67.1,-137.1,67.1,-133.8
 " /> 
<path  
style="fill:rgb(97,247,248)" 
d="M 73.3 -51.9
Q 73.3,-51.6,73.3,-51.4
Q 82.2,-54.0,85.7,-55.5
Q 94.1,-59.3,92.4,-59.7
Q 91.8,-59.9,88.4,-58.1
Q 85.1,-56.4,81.0,-55.0
Q 76.9,-53.6,73.3,-51.9
 " /> 
<path  
style="fill:rgb(97,247,248)" 
d="M 78.7 -70.1
Q 93.7,-73.3,102.2,-83.5
Q 108.9,-91.4,107.0,-91.4
Q 106.4,-91.4,104.7,-88.7
Q 97.3,-76.8,83.9,-72.5
Q 80.4,-71.4,78.7,-70.5
Q 78.7,-70.3,78.7,-70.1
 " /> 
<path  
style="fill:rgb(14,103,171)" 
d="M 79.1 -73.2
Q 79.2,-73.2,79.3,-73.3
Q 79.6,-73.3,79.6,-75.9
Q 79.4,-75.8,79.3,-75.8
Q 79.1,-75.8,79.1,-73.2
 " /> 
<path  
style="fill:rgb(97,247,248)" 
d="M 79.6 -84.8
Q 80.3,-85.1,81.0,-85.4
Q 84.4,-86.8,91.4,-94.3
Q 104.3,-108.0,110.8,-123.4
Q 113.1,-128.8,112.8,-129.5
Q 112.3,-130.6,110.9,-126.6
Q 105.8,-112.5,93.2,-97.9
Q 86.6,-90.4,82.2,-87.4
Q 80.9,-86.5,79.6,-85.6
Q 79.6,-85.2,79.6,-84.8
 " /> 
<path  
style="fill:rgb(14,103,171)" 
d="M 79.6 -88.8
Q 79.6,-89.3,79.6,-89.9
Q 79.3,-90.5,79.1,-91.0
Q 79.1,-89.2,79.2,-88.9
Q 79.2,-88.7,79.6,-88.8
 " /> 
<path  
style="fill:rgb(14,103,171)" 
d="M 79.1 -91.0
Q 79.3,-90.5,79.6,-89.9
Q 79.6,-89.9,79.6,-89.9
Q 79.6,-91.1,79.1,-91.0
 " /> 
<path  
style="fill:rgb(14,103,171)" 
d="M 78.7 -98.1
Q 78.7,-98.7,78.7,-99.3
Q 78.4,-99.8,78.2,-100.3
Q 78.2,-98.5,78.3,-98.2
Q 78.3,-98.0,78.7,-98.1
 " /> 
<path  
style="fill:rgb(14,103,171)" 
d="M 78.2 -100.3
Q 78.4,-99.8,78.7,-99.3
Q 78.7,-99.3,78.7,-99.3
Q 78.7,-100.4,78.2,-100.3
 " /> 
<path  
style="fill:rgb(97,247,248)" 
d="M 78.2 -103.0
Q 82.8,-106.7,84.6,-109.4
Q 91.5,-119.8,90.5,-138.4
Q 90.0,-147.2,89.5,-136.9
Q 89.1,-125.2,87.7,-119.4
Q 85.3,-109.5,77.8,-103.9
Q 77.8,-102.8,78.2,-103.0
 " /> 
<path  
style="fill:rgb(14,103,171)" 
d="M 72.4 -149.2
Q 72.8,-149.0,73.2,-148.8
Q 73.2,-148.8,73.2,-148.8
Q 72.7,-149.3,72.2,-149.8
Q 72.2,-149.6,72.3,-149.5
Q 72.4,-149.3,72.4,-149.2
 " /> 
<path  
style="fill:rgb(14,103,171)" 
d="M 72.4 -149.2
Q 73.3,-148.7,73.8,-148.3
Q 74.0,-148.1,74.2,-147.9
Q 73.7,-148.3,73.2,-148.8
Q 72.8,-149.0,72.4,-149.2
 " /> 
<path  
style="fill:rgb(7,193,201)" 
d="M 72.4 -149.2
Q 72.5,-148.4,72.6,-147.7
Q 73.4,-147.8,74.2,-147.9
Q 74.0,-148.1,73.8,-148.3
Q 73.3,-148.7,72.4,-149.2
 " /> 
<path  
style="fill:rgb(14,103,171)" 
d="M 74.7 -147.0
Q 75.6,-145.7,76.2,-145.2
Q 76.6,-145.0,76.9,-144.8
Q 76.7,-145.1,76.4,-145.4
Q 76.0,-146.1,74.7,-147.0
 " /> 
<path  
style="fill:rgb(14,103,171)" 
d="M 84.0 -150.1
Q 84.4,-150.3,84.4,-153.2
Q 84.3,-153.2,84.2,-153.1
Q 84.0,-153.1,84.0,-151.6
Q 84.0,-150.8,84.0,-150.1
 " /> 
<path  
style="fill:rgb(14,103,171)" 
d="M 84.4 -155.4
Q 84.9,-155.6,84.9,-158.5
Q 84.8,-158.5,84.7,-158.5
Q 84.5,-158.4,84.4,-155.4
 " /> 
<path  
style="fill:rgb(14,103,171)" 
d="M 88.4 -163.9
Q 88.7,-163.5,88.9,-163.2
Q 89.4,-162.6,90.2,-161.9
Q 90.7,-161.5,91.1,-161.2
Q 90.8,-161.6,90.4,-162.1
Q 89.8,-163.0,88.4,-163.9
 " /> 
<path  
style="fill:rgb(14,103,171)" 
d="M 120.9 -149.2
Q 120.9,-147.2,120.9,-145.2
Q 121.0,-145.8,121.1,-146.3
Q 121.4,-147.4,120.9,-149.2
 " /> 
<path  
style="fill:rgb(14,103,171)" 
d="M 111.6 -103.0
Q 111.9,-103.2,112.2,-103.4
Q 112.9,-103.9,113.3,-104.6
Q 113.5,-104.9,113.8,-105.2
Q 113.4,-105.0,113.1,-104.7
Q 112.5,-104.3,112.0,-103.6
Q 111.8,-103.3,111.6,-103.0
 " /> 
<path  
style="fill:rgb(14,103,171)" 
d="M 119.1 -112.8
Q 119.5,-113.1,120.0,-113.4
Q 120.9,-114.1,121.8,-115.2
Q 122.2,-115.8,122.7,-116.3
Q 122.1,-115.9,121.6,-115.4
Q 120.5,-114.5,119.8,-113.6
Q 119.4,-113.2,119.1,-112.8
 " /> 
<path  
style="fill:rgb(14,103,171)" 
d="M 108.0 -59.9
Q 107.7,-59.6,107.3,-59.4
Q 106.7,-58.9,106.0,-58.1
Q 105.7,-57.6,105.3,-57.2
Q 107.1,-58.6,108.0,-59.9
 " /> 
<path  
style="fill:rgb(14,103,171)" 
d="M 88.9 -46.5
Q 88.4,-46.4,88.0,-46.3
Q 87.1,-46.0,86.7,-45.6
Q 86.4,-45.4,86.2,-45.2
Q 86.6,-45.4,87.0,-45.5
Q 87.8,-45.8,88.9,-46.5
 " /> 
<path  
style="fill:rgb(14,103,171)" 
d="M -0.3 46.6
Q -0.5,46.7,-0.7,46.8
Q -0.5,46.9,-0.4,47.0
Q -0.3,46.8,-0.2,46.7
Q -0.3,46.6,-0.4,46.4
 " /> 
<path  
style="fill:rgb(255,255,255)" 
d="M 0.4 47.7
Q 0.1,47.5,-0.2,47.2
Q -0.6,47.2,-0.9,47.2
Q -0.2,47.5,0.4,47.7
 " /> 
<path  
style="fill:rgb(255,255,255)" 
d="M 0.4 47.2
Q -0.0,47.1,-0.5,46.9
Q -0.6,47.0,-0.7,47.1
Q -0.3,47.2,-0.1,47.3
Q 0.1,47.2,0.4,47.2
 " /> 
<path  
style="fill:rgb(255,255,255)" 
d="M -0.9 47.2
Q -0.6,47.2,-0.2,47.2
Q -0.5,47.1,-0.7,46.9
Q -0.7,47.1,-0.9,47.2
 " /> 
<path  
style="fill:rgb(7,193,201)" 
d="M -68.9 -96.8
Q -69.0,-96.3,-69.1,-95.9
Q -69.4,-95.0,-69.1,-94.1
Q -69.0,-93.6,-68.9,-93.2
Q -68.9,-95.0,-68.9,-96.8
 " /> 
<path  
style="fill:rgb(97,247,248)" 
d="M -68.9 -96.8
Q -68.9,-95.0,-68.9,-93.2
Q -67.8,-73.3,-58.8,-52.5
Q -54.1,-41.7,-44.7,-31.4
Q -41.9,-35.3,-40.7,-36.5
Q -39.6,-37.8,-39.1,-37.3
Q -38.5,-36.8,-41.8,-32.5
Q -45.1,-28.2,-46.9,-26.3
Q -57.8,-15.4,-57.8,-7.7
Q -57.8,-4.2,-55.6,-5.0
Q -53.0,-6.0,-50.3,-9.4
Q -42.0,-20.0,-39.6,-24.5
Q -38.0,-27.5,-34.8,-31.1
Q -33.2,-32.8,-32.8,-32.8
Q -31.9,-32.8,-34.4,-29.3
Q -36.4,-26.5,-35.1,-25.6
Q -31.3,-22.8,-30.4,-24.1
Q -29.8,-24.9,-29.3,-26.3
Q -28.1,-29.9,-27.1,-28.9
Q -26.4,-28.3,-30.0,-20.1
Q -30.6,-18.7,-31.5,-17.6
Q -32.3,-16.5,-33.7,-13.6
Q -42.2,4.5,-33.3,0.5
Q -32.4,0.1,-31.6,-0.3
Q -30.9,-1.1,-30.2,-1.9
Q -28.9,-3.4,-27.5,-4.5
Q -26.9,-5.1,-26.2,-5.6
Q -25.0,-7.2,-23.8,-8.8
Q -21.3,-11.9,-20.5,-13.3
Q -19.6,-14.8,-16.5,-18.1
Q -12.3,-22.6,-12.7,-20.2
Q -12.7,-19.8,-14.4,-17.6
Q -15.5,-16.2,-16.5,-14.8
Q -12.9,-13.5,-6.4,-12.9
Q -3.2,-12.6,-0.0,-12.3
Q 2.0,-12.3,4.0,-12.3
Q 7.1,-12.5,10.2,-12.8
Q 16.4,-13.2,20.8,-14.3
Q 25.1,-15.5,27.2,-15.7
Q 28.8,-15.9,29.0,-16.2
Q 29.3,-16.5,27.9,-20.3
Q 26.5,-24.3,27.3,-24.3
Q 28.1,-24.3,30.0,-19.4
Q 30.8,-17.4,31.3,-16.1
Q 31.9,-14.7,33.3,-10.1
Q 37.8,4.2,40.0,-10.3
Q 41.1,-17.8,36.2,-27.6
Q 34.7,-30.6,35.4,-30.8
Q 36.2,-31.2,38.7,-25.9
Q 40.9,-21.2,41.4,-21.4
Q 44.2,-22.3,45.4,-25.0
Q 45.9,-26.0,44.4,-30.8
Q 42.9,-35.9,43.9,-35.9
Q 45.1,-35.9,48.3,-23.2
Q 51.1,-11.8,52.7,-12.7
Q 54.6,-13.8,56.4,-24.3
Q 56.4,-26.9,56.9,-27.0
Q 56.9,-27.4,56.9,-27.9
Q 56.8,-27.8,56.6,-27.8
Q 56.4,-27.8,56.4,-30.1
Q 55.6,-35.0,54.4,-37.9
Q 52.8,-42.0,53.6,-42.4
Q 55.3,-43.1,57.8,-33.6
Q 58.3,-34.1,58.9,-34.5
Q 60.0,-35.4,61.8,-37.2
Q 63.0,-38.9,64.2,-40.5
Q 76.1,-56.7,77.1,-77.4
Q 77.2,-80.0,77.3,-82.5
Q 77.3,-83.6,77.3,-84.8
Q 77.3,-85.9,77.3,-87.0
Q 76.9,-86.9,76.9,-88.5
Q 76.9,-88.5,76.9,-88.5
Q 76.9,-89.3,76.9,-90.1
Q 76.3,-98.3,74.4,-107.6
Q 69.6,-131.6,48.6,-141.2
Q 44.9,-143.0,44.9,-143.6
Q 44.9,-145.3,50.7,-143.0
Q 45.4,-161.0,29.7,-163.8
Q 28.4,-164.1,27.1,-164.3
Q 26.0,-164.3,24.9,-164.3
Q 24.0,-164.2,23.1,-164.1
Q 15.4,-163.1,7.5,-151.7
Q 6.1,-149.5,1.9,-149.6
Q 1.2,-149.6,0.4,-149.6
Q -0.9,-149.6,-2.2,-149.6
Q -3.6,-149.6,-4.9,-149.6
Q -6.7,-151.0,-7.5,-152.5
Q -8.4,-154.1,-10.2,-156.5
Q -11.1,-157.8,-12.0,-159.0
Q -12.5,-159.4,-13.1,-159.9
Q -14.2,-160.8,-16.0,-163.0
Q -20.4,-166.1,-23.6,-167.1
Q -37.6,-171.3,-43.6,-159.1
Q -46.6,-153.1,-46.8,-149.6
Q -46.9,-148.0,-47.7,-146.8
Q -48.5,-145.7,-48.8,-145.8
Q -49.2,-146.0,-49.9,-145.4
Q -50.3,-145.1,-50.7,-144.8
Q -52.1,-143.0,-52.9,-142.1
Q -53.3,-140.3,-55.1,-139.2
Q -58.8,-136.7,-63.3,-126.9
Q -67.9,-116.8,-68.9,-102.1
Q -68.9,-100.5,-68.9,-99.0
Q -68.9,-97.9,-68.9,-96.8
 " /> 
<path  
style="fill:rgb(4,4,4)" 
d="M 17.5 -24.8
Q 20.9,-22.8,20.9,-24.0
Q 20.9,-24.6,19.2,-25.8
Q 13.1,-29.9,2.1,-27.7
Q -4.0,-26.4,-2.9,-25.2
Q -2.4,-24.8,0.0,-25.4
Q 11.4,-28.4,17.5,-24.8
 " /> 
<path  
style="fill:rgb(4,4,4)" 
d="M 12.7 -50.0
Q 14.9,-45.6,15.4,-45.6
Q 16.8,-45.6,13.7,-51.6
Q 10.8,-57.0,10.3,-56.1
Q 10.0,-55.5,12.7,-50.0
 " /> 
<path  
style="fill:rgb(4,4,4)" 
d="M -1.2 -46.9
Q -1.4,-46.1,-0.8,-46.1
Q -0.2,-46.1,1.3,-48.8
Q 2.8,-51.6,4.1,-53.3
Q 5.5,-55.1,5.7,-56.1
Q 6.2,-59.0,3.1,-54.7
Q -0.5,-49.8,-1.2,-46.9
 " /> 
<path  
style="fill:rgb(7,193,201)" 
d="M 37.8 -55.0
Q 36.7,-55.0,35.6,-55.0
Q 35.9,-54.8,36.2,-54.7
Q 36.9,-54.5,37.8,-55.0
 " /> 
<path  
style="fill:rgb(4,4,4)" 
d="M 37.8 -55.0
Q 38.8,-55.1,39.8,-55.2
Q 44.3,-55.7,50.5,-60.1
Q 66.7,-71.7,66.8,-91.7
Q 66.8,-108.7,55.8,-120.2
Q 49.3,-127.0,40.0,-122.5
Q 39.7,-122.1,39.3,-121.7
Q 38.6,-120.8,36.9,-119.4
Q 28.1,-108.5,19.8,-84.8
Q 18.1,-80.1,17.5,-78.5
Q 16.8,-77.0,16.4,-75.7
Q 16.1,-74.3,14.9,-71.0
Q 13.8,-67.7,14.2,-67.2
Q 15.3,-66.2,16.5,-70.2
Q 17.0,-71.9,17.4,-71.9
Q 17.7,-71.9,18.9,-69.0
Q 20.1,-66.1,23.6,-61.2
Q 24.0,-60.9,24.4,-60.5
Q 25.3,-59.8,26.0,-59.0
Q 26.3,-58.5,26.7,-58.1
Q 27.3,-57.6,28.0,-57.2
Q 31.3,-55.0,35.6,-55.0
Q 36.7,-55.0,37.8,-55.0
 " /> 
<path  
style="fill:rgb(115,250,3)" 
d="M 24.9 -63.9
Q 27.1,-62.1,28.9,-59.9
Q 29.9,-59.4,30.9,-59.0
Q 38.0,-55.8,47.6,-61.6
Q 49.1,-62.5,50.7,-63.4
Q 51.0,-63.9,51.3,-64.3
Q 52.0,-65.2,52.9,-65.9
Q 53.3,-66.2,53.8,-66.5
Q 54.0,-66.5,54.2,-67.0
Q 54.6,-67.4,54.9,-67.8
Q 55.6,-68.7,56.2,-69.2
Q 56.6,-69.4,56.9,-69.6
Q 61.8,-77.8,63.1,-82.8
Q 67.2,-98.2,57.1,-114.7
Q 56.3,-116.0,55.6,-117.2
Q 55.1,-117.5,54.7,-117.9
Q 53.8,-118.6,52.4,-120.3
Q 51.4,-120.9,50.4,-121.4
Q 46.8,-123.5,41.3,-120.8
Q 40.0,-119.0,39.1,-118.3
Q 38.7,-118.0,38.2,-117.6
Q 33.3,-110.5,29.4,-102.4
Q 18.4,-79.9,19.8,-74.8
Q 20.1,-73.5,20.4,-72.3
Q 21.3,-71.4,21.8,-69.6
Q 23.1,-67.0,24.9,-63.9
 " /> 
<path  
style="fill:rgb(115,250,3)" 
d="M 44.9 -89.6
Q 44.5,-89.2,44.2,-88.7
Q 43.9,-88.2,43.5,-87.8
Q 46.6,-88.3,47.4,-88.0
Q 49.2,-87.4,51.7,-83.5
Q 52.3,-83.7,52.9,-83.9
Q 50.2,-88.3,49.1,-89.4
Q 48.0,-90.5,44.9,-89.6
 " /> 
<path  
style="fill:rgb(31,181,0)" 
d="M 44.9 -89.6
Q 43.8,-88.4,42.7,-87.2
Q 35.7,-79.5,33.4,-78.3
Q 32.3,-77.7,30.4,-77.4
Q 29.0,-77.2,27.1,-77.2
Q 22.4,-71.3,27.1,-68.5
Q 46.0,-57.3,57.2,-76.6
Q 67.2,-93.8,60.0,-103.9
Q 58.4,-106.2,56.0,-104.3
Q 57.8,-99.4,58.0,-96.9
Q 59.1,-86.2,56.2,-83.2
Q 55.2,-82.2,52.9,-83.9
Q 54.7,-81.6,53.8,-81.6
Q 52.9,-81.6,51.7,-83.5
Q 51.7,-83.5,51.7,-83.5
Q 49.2,-87.4,47.4,-88.0
Q 46.6,-88.3,43.5,-87.8
Q 43.9,-88.2,44.2,-88.7
Q 44.5,-89.2,44.9,-89.6
 " /> 
<path  
style="fill:rgb(4,4,4)" 
d="M 44.9 -89.6
Q 48.0,-90.5,49.1,-89.4
Q 50.2,-88.3,52.9,-83.9
Q 55.2,-82.2,56.2,-83.2
Q 59.1,-86.2,58.0,-96.9
Q 57.8,-99.4,56.0,-104.3
Q 55.6,-105.4,55.1,-106.5
Q 53.7,-110.1,52.2,-110.9
Q 50.7,-111.6,53.5,-105.6
Q 57.5,-97.1,55.8,-86.9
Q 55.2,-83.6,53.1,-87.5
Q 50.8,-91.9,48.6,-92.6
Q 47.4,-93.0,44.0,-91.4
Q 43.5,-90.9,43.1,-90.3
Q 42.2,-89.2,41.3,-88.5
Q 40.9,-88.2,40.4,-87.9
Q 38.7,-86.0,36.9,-84.1
Q 33.3,-80.4,31.8,-79.7
Q 31.0,-79.3,30.2,-79.0
Q 30.3,-78.2,30.4,-77.4
Q 32.3,-77.7,33.4,-78.3
Q 35.7,-79.5,42.7,-87.2
Q 43.8,-88.4,44.9,-89.6
 " /> 
<path  
style="fill:rgb(4,4,4)" 
d="M 27.1 -77.2
Q 27.4,-78.0,27.7,-78.8
Q 27.4,-78.9,27.1,-79.0
Q 26.8,-78.2,26.5,-77.4
Q 26.8,-77.3,27.1,-77.2
 " /> 
<path  
style="fill:rgb(4,4,4)" 
d="M 27.1 -77.2
Q 29.0,-77.2,30.4,-77.4
Q 30.3,-78.2,30.2,-79.0
Q 29.8,-78.9,29.3,-78.7
Q 28.4,-78.5,27.8,-78.7
Q 27.7,-78.8,27.7,-78.8
Q 27.4,-78.0,27.1,-77.2
 " /> 
<path  
style="fill:rgb(115,250,3)" 
d="M 52.9 -83.9
Q 52.3,-83.7,51.7,-83.5
Q 51.7,-83.5,51.7,-83.5
Q 52.9,-81.6,53.8,-81.6
Q 54.7,-81.6,52.9,-83.9
 " /> 
<path  
style="fill:rgb(4,4,4)" 
d="M 27.1 -79.0
Q 26.6,-79.2,26.0,-79.4
Q 24.9,-79.9,24.3,-79.4
Q 23.8,-78.9,24.7,-78.3
Q 25.5,-77.8,26.5,-77.4
Q 26.8,-78.2,27.1,-79.0
 " /> 
<path  
style="fill:rgb(31,181,0)" 
d="M 27.1 -79.0
Q 27.4,-78.9,27.7,-78.8
Q 27.7,-78.8,27.8,-78.7
Q 28.4,-78.5,29.3,-78.7
Q 29.8,-78.9,30.2,-79.0
Q 28.7,-79.0,27.1,-79.0
 " /> 
<path  
style="fill:rgb(115,250,3)" 
d="M 40.4 -87.9
Q 41.8,-89.6,42.9,-90.5
Q 43.4,-91.0,44.0,-91.4
Q 43.7,-91.8,43.5,-92.2
Q 41.1,-90.7,39.2,-88.8
Q 39.9,-88.4,40.4,-87.9
 " /> 
<path  
style="fill:rgb(31,181,0)" 
d="M 40.4 -87.9
Q 40.9,-88.2,41.3,-88.5
Q 42.2,-89.2,43.1,-90.3
Q 43.5,-90.9,44.0,-91.4
Q 43.4,-91.0,42.9,-90.5
Q 41.8,-89.6,40.4,-87.9
 " /> 
<path  
style="fill:rgb(209,251,185)" 
d="M 29.4 -84.1
Q 32.2,-82.1,38.9,-88.5
Q 39.1,-88.8,39.4,-89.0
Q 41.4,-90.9,43.7,-92.4
Q 45.3,-93.5,47.4,-94.5
Q 49.8,-95.8,50.9,-96.7
Q 53.4,-98.9,50.4,-106.0
Q 47.8,-112.0,45.5,-112.6
Q 44.4,-112.9,44.4,-113.5
Q 44.4,-114.5,42.6,-112.9
Q 36.2,-107.5,35.8,-103.0
Q 35.7,-101.8,33.4,-97.8
Q 26.4,-86.2,29.4,-84.1
 " /> 
<path  
style="fill:rgb(31,181,0)" 
d="M 24.9 -63.9
Q 25.3,-63.3,25.8,-62.8
Q 26.7,-61.7,27.8,-60.8
Q 28.3,-60.3,28.9,-59.9
Q 27.1,-62.1,24.9,-63.9
 " /> 
<path  
style="fill:rgb(31,181,0)" 
d="M 21.8 -69.6
Q 21.3,-71.4,20.4,-72.3
Q 20.6,-71.9,20.7,-71.4
Q 20.9,-70.5,21.8,-69.6
 " /> 
<path  
style="fill:rgb(31,181,0)" 
d="M 38.2 -117.6
Q 38.7,-118.0,39.1,-118.3
Q 40.0,-119.0,41.3,-120.8
Q 39.6,-119.4,38.9,-118.5
Q 38.6,-118.1,38.2,-117.6
 " /> 
<path  
style="fill:rgb(31,181,0)" 
d="M 52.4 -120.3
Q 53.8,-118.6,54.7,-117.9
Q 55.1,-117.5,55.6,-117.2
Q 55.2,-117.6,54.9,-118.1
Q 54.2,-119.0,52.4,-120.3
 " /> 
<path  
style="fill:rgb(31,181,0)" 
d="M 56.9 -69.6
Q 56.6,-69.4,56.2,-69.2
Q 55.6,-68.7,54.9,-67.8
Q 54.6,-67.4,54.2,-67.0
Q 54.7,-67.3,55.1,-67.7
Q 56.0,-68.3,56.4,-69.0
Q 56.7,-69.3,56.9,-69.6
 " /> 
<path  
style="fill:rgb(31,181,0)" 
d="M 53.8 -66.5
Q 53.3,-66.2,52.9,-65.9
Q 52.0,-65.2,51.3,-64.3
Q 51.0,-63.9,50.7,-63.4
Q 51.1,-63.8,51.5,-64.1
Q 52.4,-64.8,53.8,-66.5
 " /> 
<path  
style="fill:rgb(7,193,201)" 
d="M 23.6 -61.2
Q 23.9,-60.8,24.2,-60.3
Q 24.9,-59.4,25.8,-58.8
Q 26.2,-58.4,26.7,-58.1
Q 26.3,-58.5,26.0,-59.0
Q 25.3,-59.8,24.4,-60.5
Q 24.0,-60.9,23.6,-61.2
 " /> 
<path  
style="fill:rgb(7,193,201)" 
d="M 36.9 -119.4
Q 38.6,-120.8,39.3,-121.7
Q 39.7,-122.1,40.0,-122.5
Q 39.6,-122.2,39.1,-121.9
Q 38.2,-121.2,36.9,-119.4
 " /> 
<path  
style="fill:rgb(4,4,4)" 
d="M -21.8 -58.1
Q -21.2,-58.1,-20.6,-58.1
Q -20.6,-58.1,-20.6,-58.1
Q -19.4,-58.2,-19.5,-57.9
Q -19.5,-57.8,-19.6,-57.6
Q -13.3,-58.9,-9.3,-61.6
Q -9.0,-62.1,-8.6,-62.5
Q -8.0,-63.4,-6.7,-64.3
Q -6.0,-65.1,-5.3,-65.9
Q -4.0,-67.4,-1.7,-72.1
Q -1.5,-71.3,-1.3,-70.5
Q -0.9,-69.0,-0.5,-67.2
Q -0.1,-65.5,0.7,-65.3
Q 2.6,-64.9,-2.7,-87.0
Q -11.7,-124.6,-29.5,-130.2
Q -38.2,-132.9,-44.9,-125.7
Q -52.0,-118.2,-52.0,-103.2
Q -52.0,-84.2,-41.6,-71.3
Q -40.6,-70.0,-39.6,-68.8
Q -37.8,-67.4,-37.1,-66.5
Q -36.8,-66.1,-36.4,-65.6
Q -35.2,-64.6,-34.0,-63.6
Q -29.0,-59.5,-24.0,-58.5
Q -22.9,-58.3,-21.8,-58.1
 " /> 
<path  
style="fill:rgb(31,181,0)" 
d="M -18.7 -60.3
Q -19.8,-60.3,-20.9,-60.3
Q -20.6,-60.2,-20.2,-60.1
Q -19.6,-59.8,-19.1,-60.1
Q -18.9,-60.2,-18.7,-60.3
 " /> 
<path  
style="fill:rgb(115,250,3)" 
d="M -18.7 -60.3
Q -17.3,-60.6,-16.0,-61.0
Q -10.6,-62.3,-7.2,-67.6
Q -6.5,-68.6,-5.8,-69.6
Q -5.4,-70.3,-5.1,-71.0
Q -4.4,-72.3,-4.0,-73.0
Q -3.8,-73.3,-3.6,-73.6
Q -3.3,-74.6,-3.1,-75.6
Q -2.7,-77.6,-4.0,-83.8
Q -9.0,-105.8,-18.2,-118.7
Q -19.1,-120.0,-20.0,-121.2
Q -21.3,-122.1,-22.2,-123.4
Q -23.6,-124.3,-24.9,-125.2
Q -35.6,-132.3,-42.8,-124.9
Q -48.3,-119.4,-49.5,-110.0
Q -49.6,-109.0,-49.8,-107.9
Q -49.8,-103.9,-49.8,-99.9
Q -49.6,-97.9,-49.4,-95.9
Q -48.9,-91.9,-47.4,-87.2
Q -46.6,-84.9,-45.8,-82.5
Q -45.4,-82.0,-45.1,-81.4
Q -44.4,-80.3,-43.8,-79.0
Q -43.4,-78.3,-43.1,-77.6
Q -42.6,-76.8,-42.0,-75.9
Q -40.9,-74.1,-39.1,-71.4
Q -38.3,-70.8,-37.6,-70.1
Q -36.0,-68.7,-34.9,-67.4
Q -34.3,-66.8,-33.8,-66.1
Q -26.7,-61.6,-22.9,-60.8
Q -21.9,-60.5,-20.9,-60.3
Q -19.8,-60.3,-18.7,-60.3
 " /> 
<path  
style="fill:rgb(4,4,4)" 
d="M -42.7 -109.6
Q -42.6,-107.2,-42.6,-104.8
Q -42.5,-95.4,-39.0,-87.1
Q -35.4,-78.3,-30.7,-83.2
Q -28.5,-85.5,-26.5,-86.5
Q -26.7,-86.8,-26.9,-87.1
Q -27.3,-87.0,-27.7,-86.9
Q -27.4,-87.3,-27.1,-87.6
Q -25.5,-89.6,-23.5,-88.5
Q -22.7,-88.1,-22.0,-87.8
Q -22.2,-87.7,-22.5,-87.6
Q -22.9,-87.5,-24.0,-87.5
Q -24.9,-87.5,-26.9,-87.1
Q -26.7,-86.8,-26.5,-86.5
Q -23.3,-88.1,-20.6,-85.9
Q -19.3,-84.9,-16.7,-82.7
Q -15.6,-81.9,-14.6,-81.2
Q -14.2,-81.9,-13.8,-82.5
Q -14.2,-82.9,-14.6,-83.2
Q -15.5,-83.9,-16.2,-84.8
Q -16.5,-85.2,-16.9,-85.6
Q -21.8,-90.1,-23.1,-90.8
Q -26.2,-92.4,-30.0,-87.2
Q -32.5,-83.9,-33.4,-83.9
Q -35.9,-83.9,-37.6,-89.4
Q -38.5,-92.5,-40.4,-100.3
Q -40.6,-100.3,-40.7,-100.2
Q -40.9,-100.2,-40.9,-101.4
Q -40.9,-101.4,-40.9,-101.4
Q -40.9,-101.9,-40.9,-102.5
Q -40.9,-103.2,-40.9,-103.9
Q -41.4,-107.0,-41.1,-108.3
Q -41.0,-109.0,-40.9,-109.6
Q -40.7,-111.0,-40.4,-112.3
Q -40.0,-115.0,-38.8,-116.6
Q -36.9,-119.4,-38.1,-119.4
Q -38.9,-119.4,-39.9,-117.9
Q -42.9,-113.5,-42.7,-109.6
 " /> 
<path  
style="fill:rgb(31,181,0)" 
d="M -42.7 -109.6
Q -43.1,-107.9,-43.9,-107.9
Q -47.8,-107.9,-44.9,-95.0
Q -37.2,-61.1,-17.9,-66.3
Q -15.6,-66.9,-13.7,-68.3
Q -8.8,-72.2,-7.8,-74.6
Q -7.2,-76.2,-8.0,-79.0
Q -11.2,-79.0,-14.6,-81.2
Q -15.6,-81.9,-16.7,-82.7
Q -19.3,-84.9,-20.6,-85.9
Q -23.3,-88.1,-26.5,-86.5
Q -28.5,-85.5,-30.7,-83.2
Q -35.4,-78.3,-39.0,-87.1
Q -42.5,-95.4,-42.6,-104.8
Q -42.6,-107.2,-42.7,-109.6
 " /> 
<path  
style="fill:rgb(4,4,4)" 
d="M -8.0 -79.0
Q -7.1,-79.0,-7.1,-79.6
Q -7.1,-80.2,-8.7,-80.4
Q -10.2,-80.7,-12.0,-81.6
Q -12.9,-82.1,-13.8,-82.5
Q -14.2,-81.9,-14.6,-81.2
Q -11.2,-79.0,-8.0,-79.0
 " /> 
<path  
style="fill:rgb(31,181,0)" 
d="M -40.9 -109.6
Q -41.0,-109.0,-41.1,-108.3
Q -41.4,-107.0,-40.9,-103.9
Q -40.9,-106.8,-40.9,-109.6
 " /> 
<path  
style="fill:rgb(31,181,0)" 
d="M -40.9 -102.5
Q -40.9,-101.9,-40.9,-101.4
Q -40.7,-100.8,-40.4,-100.3
Q -40.4,-100.9,-40.4,-101.5
Q -40.4,-102.7,-40.9,-102.5
 " /> 
<path  
style="fill:rgb(31,181,0)" 
d="M -40.4 -100.3
Q -40.7,-100.8,-40.9,-101.4
Q -40.9,-101.4,-40.9,-101.4
Q -40.9,-100.2,-40.7,-100.2
Q -40.6,-100.3,-40.4,-100.3
 " /> 
<path  
style="fill:rgb(31,181,0)" 
d="M -16.9 -85.6
Q -16.5,-85.2,-16.2,-84.8
Q -15.5,-83.9,-14.6,-83.2
Q -14.2,-82.9,-13.8,-82.5
Q -14.1,-83.0,-14.5,-83.4
Q -15.1,-84.3,-16.0,-85.0
Q -16.4,-85.3,-16.9,-85.6
 " /> 
<path  
style="fill:rgb(209,251,185)" 
d="M -12.7 -87.8
Q -10.4,-86.6,-10.1,-87.0
Q -8.9,-88.2,-17.7,-102.9
Q -25.3,-115.8,-30.4,-110.6
Q -35.4,-105.4,-32.7,-99.6
Q -30.9,-95.6,-25.5,-94.2
Q -20.6,-93.0,-16.9,-90.4
Q -15.0,-89.0,-12.7,-87.8
 " /> 
<path  
style="fill:rgb(255,255,255)" 
d="M -27.1 -87.6
Q -27.0,-87.4,-26.9,-87.1
Q -24.9,-87.5,-24.0,-87.5
Q -22.9,-87.5,-22.5,-87.6
Q -22.2,-87.7,-22.0,-87.8
Q -22.7,-88.1,-23.5,-88.5
Q -25.5,-89.6,-27.1,-87.6
 " /> 
<path  
style="fill:rgb(255,255,255)" 
d="M -27.1 -87.6
Q -27.4,-87.3,-27.7,-86.9
Q -27.3,-87.0,-26.9,-87.1
Q -27.0,-87.4,-27.1,-87.6
 " /> 
<path  
style="fill:rgb(31,181,0)" 
d="M -39.1 -71.4
Q -36.4,-68.3,-35.1,-67.2
Q -34.4,-66.7,-33.8,-66.1
Q -34.3,-66.8,-34.9,-67.4
Q -36.0,-68.7,-37.6,-70.1
Q -38.3,-70.8,-39.1,-71.4
 " /> 
<path  
style="fill:rgb(31,181,0)" 
d="M -43.1 -77.6
Q -43.4,-78.3,-43.8,-79.0
Q -44.4,-80.3,-45.1,-81.4
Q -45.4,-82.0,-45.8,-82.5
Q -44.9,-79.9,-43.1,-77.6
 " /> 
<path  
style="fill:rgb(31,181,0)" 
d="M -49.8 -99.9
Q -49.8,-103.9,-49.8,-107.9
Q -49.9,-106.9,-50.0,-105.9
Q -50.2,-103.9,-50.0,-101.9
Q -49.9,-100.9,-49.8,-99.9
 " /> 
<path  
style="fill:rgb(31,181,0)" 
d="M -22.2 -123.4
Q -21.3,-122.1,-20.0,-121.2
Q -20.9,-122.5,-22.2,-123.4
 " /> 
<path  
style="fill:rgb(31,181,0)" 
d="M -3.6 -73.6
Q -3.8,-73.3,-4.0,-73.0
Q -4.4,-72.3,-5.1,-71.0
Q -5.4,-70.3,-5.8,-69.6
Q -5.4,-70.0,-5.1,-70.3
Q -4.4,-71.0,-3.6,-73.6
 " /> 
<path  
style="fill:rgb(7,193,201)" 
d="M -21.8 -58.1
Q -21.8,-58.0,-21.9,-57.8
Q -22.0,-57.6,-19.6,-57.6
Q -20.1,-57.9,-20.6,-58.1
Q -20.6,-58.1,-20.6,-58.1
Q -21.2,-58.1,-21.8,-58.1
 " /> 
<path  
style="fill:rgb(7,193,201)" 
d="M -19.6 -57.6
Q -19.5,-57.8,-19.5,-57.9
Q -19.4,-58.2,-20.6,-58.1
Q -20.1,-57.9,-19.6,-57.6
 " /> 
<path  
style="fill:rgb(14,103,171)" 
d="M -36.4 -65.6
Q -36.8,-66.1,-37.1,-66.5
Q -37.8,-67.4,-39.6,-68.8
Q -39.2,-68.3,-38.9,-67.9
Q -38.2,-67.0,-36.4,-65.6
 " /> 
<path  
style="fill:rgb(14,103,171)" 
d="M -6.7 -64.3
Q -8.0,-63.4,-8.6,-62.5
Q -9.0,-62.1,-9.3,-61.6
Q -8.9,-62.0,-8.5,-62.3
Q -7.6,-63.0,-7.1,-63.7
Q -6.9,-64.0,-6.7,-64.3
 " /> 
<path  
style="fill:rgb(14,103,171)" 
d="M -68.9 -99.0
Q -68.9,-100.5,-68.9,-102.1
Q -69.0,-101.7,-69.1,-101.2
Q -69.4,-100.3,-68.9,-99.0
 " /> 
<path  
style="fill:rgb(7,193,201)" 
d="M -52.9 -142.1
Q -52.1,-143.0,-50.7,-144.8
Q -51.1,-144.4,-51.5,-144.1
Q -52.4,-143.4,-52.9,-142.1
 " /> 
<path  
style="fill:rgb(7,193,201)" 
d="M -16.0 -163.0
Q -14.2,-160.8,-13.1,-159.9
Q -12.5,-159.4,-12.0,-159.0
Q -13.8,-161.2,-16.0,-163.0
 " /> 
<path  
style="fill:rgb(14,103,171)" 
d="M -4.9 -149.6
Q -3.6,-149.6,-2.2,-149.6
Q -2.5,-149.8,-2.9,-149.9
Q -3.5,-150.1,-4.9,-149.6
 " /> 
<path  
style="fill:rgb(4,4,4)" 
d="M -2.2 -149.6
Q -0.9,-149.6,0.4,-149.6
Q 0.4,-150.3,0.4,-151.0
Q -0.1,-151.0,-0.7,-150.9
Q -0.7,-150.9,-0.7,-150.9
Q -1.5,-150.9,-1.7,-151.0
Q -2.0,-150.3,-2.2,-149.6
 " /> 
<path  
style="fill:rgb(7,193,201)" 
d="M 24.9 -164.3
Q 26.0,-164.3,27.1,-164.3
Q 25.8,-164.8,24.9,-164.3
 " /> 
<path  
style="fill:rgb(7,193,201)" 
d="M 76.9 -90.1
Q 76.9,-89.3,76.9,-88.5
Q 77.1,-87.7,77.3,-87.0
Q 77.3,-90.2,77.1,-90.2
Q 77.0,-90.1,76.9,-90.1
 " /> 
<path  
style="fill:rgb(7,193,201)" 
d="M 77.3 -87.0
Q 77.1,-87.7,76.9,-88.5
Q 76.9,-88.5,76.9,-88.5
Q 76.9,-86.9,77.3,-87.0
 " /> 
<path  
style="fill:rgb(14,103,171)" 
d="M 77.3 -84.8
Q 77.3,-83.6,77.3,-82.5
Q 77.5,-82.9,77.6,-83.2
Q 77.8,-83.9,77.6,-84.3
Q 77.5,-84.5,77.3,-84.8
 " /> 
<path  
style="fill:rgb(7,193,201)" 
d="M 61.8 -37.2
Q 60.0,-35.4,58.9,-34.5
Q 58.3,-34.1,57.8,-33.6
Q 58.2,-33.9,58.7,-34.1
Q 59.5,-34.5,61.8,-37.2
 " /> 
<path  
style="fill:rgb(7,193,201)" 
d="M 56.4 -30.1
Q 56.4,-27.8,56.6,-27.8
Q 56.8,-27.8,56.9,-27.9
Q 56.9,-29.7,56.8,-29.9
Q 56.8,-30.2,56.4,-30.1
 " /> 
<path  
style="fill:rgb(7,193,201)" 
d="M 56.9 -27.0
Q 56.4,-26.9,56.4,-24.3
Q 56.5,-24.3,56.6,-24.4
Q 56.9,-24.4,56.9,-27.0
 " /> 
<path  
style="fill:rgb(14,103,171)" 
d="M 4.0 -12.3
Q 2.0,-12.3,0.0,-12.3
Q 2.2,-11.8,3.1,-12.1
Q 3.5,-12.2,4.0,-12.3
 " /> 
<path  
style="fill:rgb(14,103,171)" 
d="M -26.2 -5.6
Q -26.9,-5.1,-27.5,-4.5
Q -28.9,-3.4,-30.2,-1.9
Q -30.9,-1.1,-31.6,-0.3
Q -30.8,-1.0,-30.0,-1.7
Q -28.5,-3.0,-26.2,-5.6
 " /> 
<path  
style="fill:rgb(7,193,201)" 
d="M -1.8 -151.4
Q -1.2,-151.4,-0.6,-151.5
Q -0.6,-151.5,-0.6,-151.5
Q 0.6,-151.5,0.5,-151.2
Q 0.5,-151.1,0.4,-151.0
Q 1.5,-151.0,2.6,-151.1
Q 4.8,-151.2,8.4,-156.3
Q 8.7,-156.7,9.0,-157.0
Q 9.6,-157.8,10.4,-158.4
Q 10.7,-158.7,11.1,-159.0
Q 11.8,-159.6,12.4,-160.3
Q 13.8,-161.6,15.8,-163.1
Q 19.2,-165.6,21.3,-171.2
Q 22.3,-173.9,23.4,-176.7
Q 26.5,-184.8,27.4,-191.2
Q 27.5,-192.1,27.6,-193.0
Q 22.4,-187.5,18.0,-176.0
Q 16.8,-172.8,16.1,-172.8
Q 14.7,-172.8,17.0,-177.9
Q 19.4,-183.4,18.2,-185.8
Q 16.6,-189.2,13.8,-188.7
Q 11.5,-188.3,9.5,-178.0
Q 9.2,-176.7,8.3,-176.9
Q 7.4,-177.1,7.5,-177.7
Q 8.1,-180.4,9.5,-185.0
Q 10.3,-187.2,9.8,-188.0
Q 8.5,-190.1,10.3,-190.1
Q 11.2,-190.1,13.1,-199.6
Q 13.8,-203.2,13.4,-205.9
Q 13.2,-205.3,13.0,-204.7
Q 10.7,-199.2,8.7,-190.8
Q 7.6,-186.3,6.8,-186.4
Q 5.9,-186.4,6.9,-191.0
Q 9.1,-200.3,4.0,-205.0
Q 2.8,-206.1,2.5,-205.0
Q 2.4,-204.4,2.2,-203.9
Q 2.6,-204.0,2.7,-203.7
Q 2.7,-203.5,2.7,-201.6
Q 2.7,-197.4,2.7,-193.2
Q 2.8,-192.8,2.9,-192.3
Q 3.1,-191.4,2.7,-190.1
Q 2.7,-189.6,2.7,-189.2
Q 2.7,-188.3,2.7,-187.4
Q 3.2,-186.1,2.7,-185.2
Q 2.2,-184.3,1.8,-184.5
Q 1.3,-184.8,1.3,-187.0
Q 1.3,-187.2,1.3,-187.4
Q 1.3,-188.3,1.3,-189.2
Q 1.2,-189.8,1.1,-190.3
Q 0.9,-191.4,1.3,-193.2
Q 1.2,-193.6,1.1,-194.1
Q 0.9,-195.0,0.9,-197.9
Q 0.9,-199.3,0.9,-200.8
Q 0.8,-200.7,0.6,-200.7
Q 0.5,-200.6,0.4,-200.9
Q 0.4,-201.1,0.4,-203.9
Q 0.4,-205.0,0.4,-206.1
Q 0.1,-206.0,0.0,-206.2
Q -0.0,-206.5,0.0,-208.3
Q -0.2,-210.1,-0.4,-211.9
Q -1.8,-222.8,-3.2,-224.0
Q -3.8,-224.5,-5.0,-221.8
Q -5.4,-220.8,-5.8,-219.9
Q -5.8,-218.9,-5.8,-218.0
Q -5.8,-216.1,-6.2,-215.9
Q -6.2,-209.6,-6.2,-203.4
Q -6.1,-203.5,-6.0,-203.5
Q -5.7,-203.6,-5.7,-201.7
Q -5.8,-200.8,-5.8,-199.9
Q -5.8,-198.8,-5.8,-197.6
Q -5.3,-197.8,-5.3,-195.9
Q -5.3,-195.0,-5.3,-194.1
Q -5.3,-193.0,-5.3,-191.9
Q -5.2,-191.9,-5.1,-191.9
Q -4.8,-192.0,-4.9,-189.9
Q -4.9,-188.9,-4.9,-187.9
Q -5.1,-187.5,-5.3,-187.2
Q -6.7,-185.2,-6.7,-190.1
Q -6.8,-190.0,-6.9,-190.0
Q -7.2,-189.9,-7.1,-191.6
Q -7.1,-191.6,-7.1,-191.6
Q -7.1,-192.4,-7.1,-193.2
Q -7.1,-194.3,-7.1,-195.4
Q -7.2,-195.4,-7.4,-195.3
Q -7.5,-195.3,-7.5,-195.6
Q -7.6,-195.8,-7.6,-198.1
Q -7.6,-199.4,-7.6,-200.8
Q -7.7,-200.7,-7.8,-200.7
Q -8.1,-200.6,-8.0,-203.1
Q -8.0,-204.4,-8.0,-205.6
Q -8.4,-205.5,-8.9,-205.4
Q -9.8,-205.2,-10.5,-203.2
Q -11.9,-199.3,-10.0,-193.4
Q -7.7,-186.6,-8.5,-185.9
Q -9.3,-185.0,-10.9,-190.3
Q -12.1,-194.3,-12.4,-195.2
Q -12.8,-196.1,-14.2,-200.5
Q -15.7,-204.9,-16.1,-205.4
Q -16.3,-205.6,-16.5,-205.9
Q -15.6,-198.3,-13.1,-187.1
Q -12.4,-183.9,-10.7,-175.9
Q -10.5,-175.6,-10.3,-175.3
Q -10.0,-174.7,-11.1,-174.1
Q -11.1,-174.1,-11.1,-174.1
Q -11.8,-173.8,-12.4,-173.4
Q -11.1,-170.8,-11.5,-170.4
Q -12.1,-169.9,-12.8,-171.0
Q -13.5,-172.0,-16.1,-176.0
Q -21.2,-183.7,-25.5,-191.8
Q -30.4,-201.2,-31.2,-199.7
Q -31.4,-199.4,-31.6,-199.0
Q -31.2,-199.1,-31.1,-198.8
Q -31.0,-198.6,-31.1,-197.7
Q -31.1,-197.7,-31.1,-197.7
Q -31.1,-197.0,-31.1,-196.3
Q -30.9,-194.6,-30.7,-193.0
Q -27.8,-171.2,-22.4,-169.0
Q -12.5,-164.9,-5.7,-153.6
Q -4.4,-151.4,-3.1,-151.4
Q -2.4,-151.4,-1.8,-151.4
 " /> 
<path  
style="fill:rgb(14,103,171)" 
d="M -1.8 -151.4
Q -1.3,-151.2,-0.7,-150.9
Q -0.7,-150.9,-0.7,-150.9
Q -0.1,-151.0,0.4,-151.0
Q -0.1,-151.2,-0.6,-151.5
Q -0.6,-151.5,-0.6,-151.5
Q -1.2,-151.4,-1.8,-151.4
 " /> 
<path  
style="fill:rgb(14,103,171)" 
d="M -1.8 -151.4
Q -1.8,-151.3,-1.9,-151.2
Q -1.9,-151.1,-1.7,-151.0
Q -1.5,-150.9,-0.7,-150.9
Q -1.3,-151.2,-1.8,-151.4
 " /> 
<path  
style="fill:rgb(14,103,171)" 
d="M 0.4 -151.0
Q 0.5,-151.1,0.5,-151.2
Q 0.6,-151.5,-0.6,-151.5
Q -0.1,-151.2,0.4,-151.0
 " /> 
<path  
style="fill:rgb(14,103,171)" 
d="M -31.1 -196.3
Q -31.1,-197.0,-31.1,-197.7
Q -31.3,-198.4,-31.6,-199.0
Q -31.6,-196.6,-31.5,-196.4
Q -31.4,-196.1,-31.1,-196.3
 " /> 
<path  
style="fill:rgb(14,103,171)" 
d="M -31.6 -199.0
Q -31.3,-198.4,-31.1,-197.7
Q -31.1,-197.7,-31.1,-197.7
Q -31.0,-198.6,-31.1,-198.8
Q -31.2,-199.1,-31.6,-199.0
 " /> 
<path  
style="fill:rgb(7,193,201)" 
d="M -11.1 -174.1
Q -11.3,-174.2,-11.6,-174.3
Q -11.8,-174.4,-12.1,-175.4
Q -12.4,-176.1,-12.7,-177.3
Q -15.0,-186.6,-15.8,-190.0
Q -16.5,-193.2,-17.5,-192.9
Q -19.9,-192.2,-20.9,-190.3
Q -21.8,-188.6,-16.1,-179.7
Q -13.6,-175.7,-12.4,-173.4
Q -11.8,-173.8,-11.1,-174.1
 " /> 
<path  
style="fill:rgb(14,103,171)" 
d="M -11.1 -174.1
Q -11.1,-174.1,-11.1,-174.1
Q -10.7,-174.3,-10.7,-175.9
Q -11.4,-175.6,-12.1,-175.4
Q -11.8,-174.4,-11.6,-174.3
Q -11.3,-174.2,-11.1,-174.1
 " /> 
<path  
style="fill:rgb(14,103,171)" 
d="M -10.7 -175.9
Q -10.7,-174.3,-11.1,-174.1
Q -10.0,-174.7,-10.3,-175.3
Q -10.5,-175.6,-10.7,-175.9
 " /> 
<path  
style="fill:rgb(14,103,171)" 
d="M -8.0 -205.6
Q -8.0,-204.4,-8.0,-203.1
Q -8.1,-200.6,-7.8,-200.7
Q -7.7,-200.7,-7.6,-200.8
Q -7.6,-202.0,-7.6,-203.3
Q -7.6,-203.4,-7.6,-203.4
Q -7.6,-205.9,-8.0,-205.6
 " /> 
<path  
style="fill:rgb(4,4,4)" 
d="M -7.6 -200.8
Q -6.9,-200.8,-6.2,-200.8
Q -6.2,-201.1,-6.2,-201.5
Q -6.2,-202.5,-6.2,-203.4
Q -6.9,-203.4,-7.6,-203.4
Q -7.6,-203.4,-7.6,-203.3
Q -7.6,-202.0,-7.6,-200.8
 " /> 
<path  
style="fill:rgb(4,4,4)" 
d="M -7.6 -200.8
Q -7.6,-199.4,-7.6,-198.1
Q -7.2,-198.3,-7.2,-198.0
Q -7.1,-197.9,-7.1,-197.6
Q -6.5,-197.6,-5.8,-197.6
Q -5.8,-198.8,-5.8,-199.9
Q -6.1,-199.7,-6.2,-199.9
Q -6.2,-200.1,-6.2,-200.8
Q -6.9,-200.8,-7.6,-200.8
 " /> 
<path  
style="fill:rgb(14,103,171)" 
d="M -7.6 -198.1
Q -7.6,-195.8,-7.5,-195.6
Q -7.5,-195.3,-7.4,-195.3
Q -7.2,-195.4,-7.1,-195.4
Q -7.1,-197.0,-7.1,-197.6
Q -7.1,-197.9,-7.2,-198.0
Q -7.2,-198.3,-7.6,-198.1
 " /> 
<path  
style="fill:rgb(4,4,4)" 
d="M -7.1 -195.4
Q -6.4,-195.4,-5.8,-195.4
Q -5.8,-196.3,-5.8,-197.6
Q -6.5,-197.6,-7.1,-197.6
Q -7.1,-197.0,-7.1,-195.4
 " /> 
<path  
style="fill:rgb(4,4,4)" 
d="M -7.1 -195.4
Q -7.1,-194.3,-7.1,-193.2
Q -6.4,-193.6,-5.7,-194.1
Q -5.7,-194.1,-5.7,-194.2
Q -5.8,-194.3,-5.8,-195.4
Q -6.4,-195.4,-7.1,-195.4
 " /> 
<path  
style="fill:rgb(4,4,4)" 
d="M -7.1 -193.2
Q -6.8,-193.3,-6.7,-193.2
Q -6.0,-193.6,-5.3,-194.1
Q -5.6,-194.0,-5.7,-194.1
Q -6.4,-193.6,-7.1,-193.2
 " /> 
<path  
style="fill:rgb(14,103,171)" 
d="M -7.1 -193.2
Q -7.1,-192.4,-7.1,-191.6
Q -6.9,-190.8,-6.7,-190.1
Q -6.7,-191.2,-6.7,-191.9
Q -6.7,-193.0,-6.7,-193.1
Q -6.7,-193.2,-6.7,-193.2
Q -6.8,-193.3,-7.1,-193.2
 " /> 
<path  
style="fill:rgb(4,4,4)" 
d="M -6.7 -190.1
Q -6.0,-190.1,-5.3,-190.1
Q -5.3,-190.9,-5.3,-191.9
Q -6.0,-191.9,-6.7,-191.9
Q -6.7,-191.2,-6.7,-190.1
 " /> 
<path  
style="fill:rgb(4,4,4)" 
d="M -6.7 -190.1
Q -6.7,-185.2,-5.3,-187.2
Q -5.1,-187.5,-4.9,-187.9
Q -5.2,-187.7,-5.3,-187.9
Q -5.3,-188.1,-5.3,-190.1
Q -6.0,-190.1,-6.7,-190.1
 " /> 
<path  
style="fill:rgb(14,103,171)" 
d="M -6.7 -190.1
Q -6.9,-190.8,-7.1,-191.6
Q -7.1,-191.6,-7.1,-191.6
Q -7.2,-189.9,-6.9,-190.0
Q -6.8,-190.0,-6.7,-190.1
 " /> 
<path  
style="fill:rgb(14,103,171)" 
d="M -4.9 -187.9
Q -4.9,-188.9,-4.9,-189.9
Q -4.8,-192.0,-5.1,-191.9
Q -5.2,-191.9,-5.3,-191.9
Q -5.3,-190.9,-5.3,-190.1
Q -5.3,-188.1,-5.3,-187.9
Q -5.2,-187.7,-4.9,-187.9
 " /> 
<path  
style="fill:rgb(4,4,4)" 
d="M -5.3 -191.9
Q -5.3,-193.0,-5.3,-194.1
Q -6.0,-193.6,-6.7,-193.2
Q -6.7,-193.2,-6.7,-193.1
Q -6.7,-193.0,-6.7,-191.9
Q -6.0,-191.9,-5.3,-191.9
 " /> 
<path  
style="fill:rgb(14,103,171)" 
d="M -5.3 -194.1
Q -5.3,-195.0,-5.3,-195.9
Q -5.3,-197.8,-5.8,-197.6
Q -5.8,-196.3,-5.8,-195.4
Q -5.8,-194.3,-5.7,-194.2
Q -5.7,-194.1,-5.7,-194.1
Q -5.6,-194.0,-5.3,-194.1
 " /> 
<path  
style="fill:rgb(14,103,171)" 
d="M -5.8 -199.9
Q -5.8,-200.8,-5.7,-201.7
Q -5.7,-203.6,-6.0,-203.5
Q -6.1,-203.5,-6.2,-203.4
Q -6.2,-202.5,-6.2,-201.5
Q -6.2,-201.1,-6.2,-200.8
Q -6.2,-200.1,-6.2,-199.9
Q -6.1,-199.7,-5.8,-199.9
 " /> 
<path  
style="fill:rgb(14,103,171)" 
d="M -6.2 -215.9
Q -5.8,-216.1,-5.8,-218.0
Q -5.8,-218.9,-5.8,-219.9
Q -5.9,-219.8,-6.0,-219.8
Q -6.1,-219.7,-6.1,-219.3
Q -6.2,-218.9,-6.2,-215.9
 " /> 
<path  
style="fill:rgb(14,103,171)" 
d="M 0.0 -208.3
Q -0.0,-206.5,0.0,-206.2
Q 0.1,-206.0,0.4,-206.1
Q 0.4,-208.0,0.4,-208.2
Q 0.3,-208.5,0.0,-208.3
 " /> 
<path  
style="fill:rgb(14,103,171)" 
d="M 0.4 -203.9
Q 0.4,-201.1,0.4,-200.9
Q 0.5,-200.6,0.6,-200.7
Q 0.8,-200.7,0.9,-200.8
Q 0.9,-203.3,0.8,-203.7
Q 0.8,-203.8,0.8,-203.8
Q 0.8,-204.0,0.4,-203.9
 " /> 
<path  
style="fill:rgb(4,4,4)" 
d="M 0.9 -200.8
Q 0.9,-199.3,0.9,-197.9
Q 0.9,-195.0,1.1,-194.1
Q 1.2,-193.6,1.3,-193.2
Q 2.0,-193.2,2.7,-193.2
Q 2.7,-197.4,2.7,-201.6
Q 2.2,-201.4,2.2,-202.6
Q 2.2,-203.3,2.2,-203.9
Q 1.5,-203.8,0.8,-203.7
Q 0.9,-203.3,0.9,-200.8
 " /> 
<path  
style="fill:rgb(4,4,4)" 
d="M 1.3 -193.2
Q 1.3,-191.6,1.3,-190.1
Q 2.0,-190.1,2.7,-190.1
Q 2.7,-191.6,2.7,-193.2
Q 2.0,-193.2,1.3,-193.2
 " /> 
<path  
style="fill:rgb(14,103,171)" 
d="M 1.3 -193.2
Q 0.9,-191.4,1.1,-190.3
Q 1.2,-189.8,1.3,-189.2
Q 1.3,-189.6,1.3,-190.1
Q 1.3,-191.6,1.3,-193.2
 " /> 
<path  
style="fill:rgb(4,4,4)" 
d="M 1.3 -189.2
Q 2.0,-189.6,2.7,-190.1
Q 2.0,-190.1,1.3,-190.1
Q 1.3,-189.6,1.3,-189.2
 " /> 
<path  
style="fill:rgb(4,4,4)" 
d="M 1.3 -189.2
Q 2.0,-189.2,2.7,-189.2
Q 2.7,-189.6,2.7,-190.1
Q 2.0,-189.6,1.3,-189.2
 " /> 
<path  
style="fill:rgb(4,4,4)" 
d="M 1.3 -189.2
Q 1.3,-188.3,1.3,-187.4
Q 2.0,-187.4,2.7,-187.4
Q 2.7,-188.3,2.7,-189.2
Q 2.0,-189.2,1.3,-189.2
 " /> 
<path  
style="fill:rgb(14,103,171)" 
d="M 2.7 -185.2
Q 3.2,-186.1,2.7,-187.4
Q 2.7,-186.3,2.7,-185.2
 " /> 
<path  
style="fill:rgb(4,4,4)" 
d="M 2.7 -185.2
Q 2.7,-186.3,2.7,-187.4
Q 2.0,-187.4,1.3,-187.4
Q 1.3,-187.2,1.3,-187.0
Q 1.3,-184.8,1.8,-184.5
Q 2.2,-184.3,2.7,-185.2
 " /> 
<path  
style="fill:rgb(14,103,171)" 
d="M 2.7 -190.1
Q 3.1,-191.4,2.9,-192.3
Q 2.8,-192.8,2.7,-193.2
Q 2.7,-191.6,2.7,-190.1
 " /> 
<path  
style="fill:rgb(14,103,171)" 
d="M 2.7 -201.6
Q 2.7,-203.5,2.7,-203.7
Q 2.6,-204.0,2.2,-203.9
Q 2.2,-203.3,2.2,-202.6
Q 2.2,-201.4,2.7,-201.6
 " /> 
<path  
style="fill:rgb(14,103,171)" 
d="M 11.1 -159.0
Q 10.7,-158.7,10.4,-158.4
Q 9.6,-157.8,9.0,-157.0
Q 8.7,-156.7,8.4,-156.3
Q 8.9,-156.7,9.3,-157.0
Q 10.2,-157.7,10.7,-158.3
Q 10.9,-158.7,11.1,-159.0
 " /> 
</g> 
</svg> 
