<?xml version="1.0"?>
<!DOCTYPE svg PUBLIC "-//W3C//DTD SVG 1.1//EN" "http://www.w3.org/Graphics/SVG/1.1/DTD/svg11.dtd">
<svg xmlns="http://www.w3.org/2000/svg" version="1.1">
<g transform="translate(112.4,223.1)" stroke-width="0" fill="none" >
<path  
style="fill:rgb(4,4,4)" 
d="M 47.4 217.5
Q 49.1,221.3,50.1,221.3
Q 52.5,221.3,54.3,216.4
Q 55.4,213.5,59.3,205.1
Q 63.2,196.7,66.1,190.2
Q 75.7,168.7,77.8,158.7
Q 78.7,154.4,79.1,152.4
Q 79.6,150.4,79.6,145.8
Q 79.6,129.6,69.6,121.6
Q 67.7,120.1,66.2,118.8
Q 64.6,117.5,60.2,115.1
Q 48.9,109.0,45.5,105.9
Q 36.3,97.4,35.3,83.9
Q 35.1,82.1,35.0,80.3
Q 35.7,80.8,36.4,81.4
Q 39.8,84.3,43.9,85.1
Q 55.6,87.5,59.8,78.1
Q 65.6,65.2,45.8,29.1
Q 36.0,11.3,31.9,0.0
Q 29.7,-6.2,28.1,-8.1
Q 27.0,-9.4,27.2,-9.5
Q 27.3,-9.7,29.6,-9.9
Q 31.9,-10.1,33.3,-6.4
Q 36.9,3.1,40.5,1.8
Q 44.0,0.5,44.0,-9.1
Q 44.0,-12.2,43.6,-13.9
Q 43.2,-15.6,47.8,-20.1
Q 48.1,-19.3,48.4,-18.6
Q 49.0,-17.1,49.6,-15.0
Q 51.5,-8.7,54.9,-8.7
Q 60.6,-8.7,59.8,-23.5
Q 59.3,-32.7,67.2,-34.1
Q 98.2,-39.8,110.3,-60.8
Q 113.5,-66.4,112.1,-68.4
Q 110.4,-71.0,103.4,-65.3
Q 100.7,-63.1,100.5,-63.6
Q 100.0,-65.2,109.5,-79.7
Q 126.2,-104.9,123.2,-115.7
Q 121.1,-123.2,111.5,-109.6
Q 110.1,-107.6,109.9,-107.7
Q 109.8,-107.8,111.1,-111.4
Q 117.8,-130.0,118.5,-141.8
Q 119.0,-151.0,116.7,-154.8
Q 113.4,-160.6,109.0,-155.3
Q 106.6,-152.4,101.9,-139.4
Q 100.8,-136.2,99.9,-134.2
Q 99.5,-133.2,99.0,-132.2
Q 98.5,-133.3,98.0,-134.5
Q 97.0,-136.7,95.3,-142.0
Q 90.3,-158.3,84.5,-162.4
Q 77.5,-167.4,76.9,-150.6
Q 76.6,-143.6,76.1,-143.1
Q 75.2,-142.1,70.1,-147.1
Q 67.6,-149.5,67.1,-149.5
Q 64.2,-149.5,66.7,-142.3
Q 67.7,-139.5,67.4,-139.3
Q 66.6,-138.5,62.7,-142.2
Q 57.1,-147.5,56.2,-143.8
Q 55.9,-142.8,56.6,-141.5
Q 59.2,-136.8,53.4,-136.8
Q 51.4,-136.8,50.5,-141.0
Q 49.7,-144.2,48.4,-146.9
Q 40.7,-163.2,25.1,-163.3
Q 23.3,-163.3,21.5,-163.3
Q 25.4,-173.8,27.1,-180.0
Q 30.5,-192.9,26.5,-192.9
Q 23.8,-192.9,20.9,-186.1
Q 19.4,-182.8,19.0,-184.4
Q 18.8,-185.1,17.1,-186.6
Q 15.5,-188.0,13.9,-188.0
Q 12.9,-188.0,12.7,-188.3
Q 12.3,-188.7,13.5,-196.4
Q 15.1,-206.2,12.0,-205.7
Q 10.0,-205.4,8.4,-200.6
Q 7.6,-197.8,7.3,-197.8
Q 7.1,-197.8,6.5,-199.0
Q 4.9,-202.7,1.8,-204.5
Q -0.0,-205.6,-0.3,-207.1
Q -0.9,-211.1,-2.7,-217.5
Q -4.3,-223.1,-7.3,-223.1
Q -9.4,-223.1,-10.0,-218.0
Q -9.2,-217.9,-8.4,-217.8
Q -7.3,-220.7,-7.0,-220.8
Q -5.1,-221.7,-2.2,-205.8
Q -0.3,-195.2,0.2,-186.0
Q 0.3,-184.8,0.4,-183.9
Q 1.1,-183.9,1.8,-184.0
Q 1.8,-191.1,1.5,-192.7
Q 1.4,-193.4,1.3,-194.2
Q 1.0,-194.1,0.9,-194.3
Q 0.9,-194.5,0.9,-197.3
Q 0.8,-200.1,0.8,-202.9
Q 3.3,-200.9,4.6,-198.5
Q 7.0,-193.9,6.2,-189.9
Q 4.8,-182.5,6.0,-182.8
Q 6.8,-183.0,7.2,-184.9
Q 9.5,-198.3,11.1,-202.0
Q 11.3,-202.4,11.5,-202.9
Q 12.1,-201.2,11.2,-194.5
Q 10.2,-187.8,9.3,-187.0
Q 8.3,-186.3,8.8,-185.2
Q 9.6,-183.7,7.4,-176.3
Q 6.3,-172.8,8.1,-173.5
Q 8.8,-173.7,9.0,-175.0
Q 9.9,-179.2,11.5,-184.7
Q 11.8,-186.0,13.6,-186.0
Q 16.6,-186.0,18.0,-182.1
Q 18.5,-180.7,16.8,-175.6
Q 15.0,-170.6,15.5,-170.1
Q 16.4,-169.2,18.0,-173.8
Q 19.2,-177.1,20.7,-180.8
Q 22.2,-184.4,24.9,-189.3
Q 26.8,-191.1,26.4,-188.9
Q 26.4,-188.9,26.4,-188.9
Q 26.3,-188.2,26.2,-187.6
Q 26.0,-186.0,25.8,-184.4
Q 25.2,-180.5,21.5,-169.3
Q 19.1,-162.2,13.8,-158.7
Q 13.4,-158.2,13.1,-157.8
Q 12.4,-156.9,10.2,-155.1
Q 9.4,-154.3,8.6,-153.4
Q 7.0,-151.8,5.7,-149.7
Q 4.4,-147.6,2.6,-147.8
Q 0.7,-148.0,-1.8,-148.0
Q -4.4,-148.0,-5.7,-150.2
Q -7.1,-152.4,-8.7,-154.4
Q -9.4,-155.4,-10.2,-156.4
Q -11.5,-157.4,-12.2,-158.2
Q -12.5,-158.7,-12.9,-159.1
Q -17.7,-163.2,-21.0,-164.6
Q -28.8,-167.7,-32.4,-193.3
Q -32.8,-193.2,-32.8,-193.4
Q -32.9,-193.6,-32.9,-195.6
Q -32.6,-195.8,-32.4,-196.1
Q -31.9,-196.6,-30.4,-194.1
Q -29.0,-191.7,-27.6,-189.3
Q -26.1,-186.9,-25.1,-185.1
Q -23.1,-181.4,-19.3,-176.2
Q -18.3,-174.9,-16.7,-172.2
Q -13.1,-166.7,-12.2,-166.7
Q -10.8,-166.7,-14.9,-172.9
Q -22.4,-184.3,-22.0,-185.5
Q -21.3,-188.5,-18.5,-188.9
Q -17.5,-189.1,-16.0,-183.1
Q -15.6,-181.5,-14.4,-177.8
Q -13.3,-174.0,-12.9,-172.5
Q -12.1,-169.5,-11.1,-170.5
Q -10.6,-171.0,-11.0,-172.5
Q -13.5,-180.7,-14.3,-183.7
Q -14.7,-185.3,-15.1,-187.1
Q -15.6,-188.9,-16.0,-190.6
Q -16.4,-192.2,-17.0,-194.9
Q -17.7,-197.6,-18.0,-199.6
Q -18.1,-200.6,-18.3,-201.5
Q -18.1,-201.3,-17.9,-201.1
Q -17.5,-200.6,-16.7,-198.7
Q -15.9,-196.7,-15.1,-194.9
Q -13.6,-191.4,-11.4,-185.0
Q -10.5,-182.2,-9.8,-182.4
Q -8.7,-182.7,-10.5,-187.8
Q -14.2,-198.1,-11.1,-201.3
Q -10.2,-202.2,-9.8,-201.3
Q -9.3,-201.6,-9.3,-200.1
Q -9.3,-199.4,-9.3,-198.7
Q -9.3,-197.9,-9.3,-197.1
Q -9.3,-195.6,-8.4,-190.7
Q -8.1,-190.8,-8.1,-190.6
Q -8.0,-190.5,-8.0,-190.2
Q -7.3,-190.2,-6.7,-190.2
Q -6.7,-193.3,-7.1,-194.7
Q -7.6,-194.4,-7.6,-195.7
Q -7.6,-196.3,-7.6,-196.9
Q -7.6,-200.0,-8.0,-202.7
Q -8.3,-202.5,-8.4,-202.7
Q -8.4,-203.0,-8.4,-205.8
Q -8.4,-208.4,-8.4,-211.1
Q -8.8,-210.9,-8.8,-211.2
Q -8.9,-211.4,-8.9,-215.1
Q -9.6,-215.1,-10.3,-215.2
Q -10.3,-213.6,-10.3,-211.8
Q -10.3,-204.7,-11.6,-203.6
Q -13.0,-202.5,-13.8,-200.7
Q -14.2,-199.8,-14.6,-198.9
Q -15.0,-199.8,-15.3,-200.7
Q -16.9,-204.4,-18.9,-204.4
Q -20.8,-204.4,-20.0,-199.0
Q -19.5,-196.2,-19.1,-195.1
Q -17.8,-191.3,-19.8,-190.5
Q -21.3,-189.8,-22.6,-188.4
Q -23.3,-187.7,-23.9,-187.0
Q -26.6,-191.8,-27.7,-193.8
Q -30.6,-198.8,-32.6,-198.9
Q -36.7,-198.9,-32.4,-181.3
Q -30.5,-173.4,-26.8,-166.3
Q -28.8,-166.3,-30.8,-166.3
Q -44.6,-166.2,-48.0,-147.4
Q -48.5,-144.7,-51.5,-141.5
Q -54.5,-138.4,-55.7,-136.9
Q -57.5,-134.5,-58.8,-136.7
Q -59.9,-138.6,-59.1,-148.4
Q -58.9,-152.0,-58.7,-155.0
Q -59.6,-155.1,-60.4,-155.1
Q -60.5,-154.5,-60.5,-153.9
Q -60.5,-152.6,-60.9,-152.4
Q -61.3,-148.4,-61.3,-143.1
Q -61.3,-141.8,-61.3,-140.4
Q -61.4,-139.6,-61.4,-138.7
Q -61.5,-134.6,-58.8,-133.9
Q -57.7,-133.7,-59.9,-130.3
Q -61.8,-127.6,-63.1,-124.7
Q -63.8,-123.2,-64.4,-121.8
Q -64.5,-121.6,-64.5,-121.4
Q -64.5,-121.0,-64.7,-121.0
Q -64.8,-120.9,-64.9,-120.9
Q -66.7,-116.4,-67.3,-114.0
Q -68.0,-111.6,-68.2,-109.6
Q -68.3,-108.6,-68.4,-107.6
Q -68.5,-107.3,-68.5,-107.0
Q -68.5,-106.4,-68.7,-106.3
Q -68.8,-106.3,-68.9,-106.2
Q -69.3,-100.4,-69.6,-97.3
Q -69.7,-95.8,-69.8,-94.2
Q -69.8,-93.1,-69.8,-92.0
Q -69.8,-91.8,-69.8,-91.6
Q -69.8,-91.8,-69.8,-92.0
Q -69.9,-92.3,-70.0,-92.7
Q -70.3,-93.3,-70.0,-93.8
Q -69.9,-94.0,-69.8,-94.2
Q -69.7,-95.8,-69.6,-97.3
Q -69.3,-100.4,-68.9,-106.2
Q -73.8,-111.6,-75.1,-114.4
Q -78.8,-122.3,-77.8,-123.2
Q -77.4,-123.6,-76.4,-120.6
Q -73.8,-112.6,-70.4,-109.4
Q -69.4,-108.5,-68.4,-107.6
Q -68.3,-108.6,-68.2,-109.6
Q -68.0,-111.6,-67.3,-114.0
Q -66.7,-116.4,-64.9,-120.9
Q -66.7,-123.1,-67.4,-125.4
Q -68.1,-127.7,-68.1,-131.0
Q -68.0,-134.2,-67.8,-134.2
Q -67.6,-134.2,-67.5,-132.8
Q -67.5,-126.8,-65.5,-123.6
Q -65.0,-122.7,-64.4,-121.8
Q -63.8,-123.2,-63.1,-124.7
Q -61.8,-127.6,-59.9,-130.3
Q -57.7,-133.7,-58.8,-133.9
Q -61.5,-134.6,-61.4,-138.7
Q -61.4,-139.6,-61.3,-140.4
Q -61.5,-140.8,-61.6,-141.1
Q -61.8,-141.8,-61.3,-143.1
Q -61.3,-148.4,-60.9,-152.4
Q -60.9,-154.9,-60.4,-155.1
Q -60.6,-157.8,-60.7,-160.4
Q -60.9,-167.0,-62.1,-166.8
Q -63.9,-166.5,-66.3,-160.2
Q -68.9,-153.3,-70.0,-147.3
Q -70.7,-143.8,-71.4,-140.4
Q -72.0,-137.1,-72.6,-134.3
Q -73.5,-129.4,-75.0,-130.8
Q -75.5,-131.4,-75.6,-140.7
Q -75.6,-144.7,-76.6,-149.9
Q -78.9,-145.3,-80.3,-134.7
Q -80.8,-130.7,-82.2,-130.7
Q -84.5,-130.7,-85.5,-142.7
Q -86.1,-148.8,-86.7,-151.3
Q -87.1,-153.1,-87.6,-155.8
Q -88.1,-158.4,-88.5,-160.0
Q -89.0,-161.5,-89.5,-163.5
Q -90.1,-165.5,-92.4,-167.1
Q -92.8,-167.0,-93.1,-166.8
Q -93.7,-166.6,-94.2,-166.2
Q -94.4,-166.0,-94.7,-165.8
Q -95.0,-164.7,-95.4,-163.6
Q -96.1,-161.3,-96.3,-155.8
Q -96.4,-153.0,-96.4,-150.2
Q -95.9,-150.4,-96.0,-149.0
Q -96.0,-149.0,-96.0,-149.0
Q -96.0,-148.3,-96.0,-147.6
Q -94.4,-136.6,-91.4,-126.1
Q -90.2,-122.2,-90.2,-120.0
Q -90.1,-119.7,-90.0,-119.3
Q -89.7,-118.7,-90.0,-118.0
Q -90.1,-117.7,-90.2,-117.3
Q -91.2,-116.0,-91.6,-116.0
Q -94.8,-115.7,-98.4,-127.9
Q -100.0,-133.3,-101.8,-139.6
Q -102.1,-139.8,-102.4,-140.1
Q -103.0,-140.7,-103.7,-140.3
Q -104.1,-140.2,-104.4,-140.0
Q -104.9,-139.0,-105.3,-138.0
Q -107.2,-133.9,-107.4,-125.1
Q -108.1,-103.6,-92.4,-78.7
Q -89.0,-73.5,-90.4,-72.0
Q -91.8,-70.7,-97.3,-74.4
Q -108.7,-81.9,-110.0,-80.7
Q -112.5,-78.4,-101.3,-61.1
Q -100.2,-59.5,-99.1,-57.8
Q -98.7,-57.4,-98.2,-57.1
Q -97.4,-56.4,-96.0,-54.7
Q -95.6,-54.2,-95.1,-53.8
Q -94.8,-53.5,-94.5,-53.3
Q -93.8,-52.9,-92.9,-51.6
Q -91.1,-50.2,-89.3,-48.9
Q -71.9,-35.8,-54.4,-32.7
Q -52.7,-32.4,-52.7,-32.8
Q -52.8,-33.1,-54.6,-35.6
Q -56.8,-38.5,-59.6,-44.9
Q -60.7,-45.0,-61.8,-45.1
Q -70.8,-46.0,-85.2,-57.5
Q -93.3,-63.9,-92.6,-65.0
Q -92.4,-65.4,-89.8,-63.0
Q -74.4,-48.5,-62.5,-46.5
Q -61.5,-46.4,-60.4,-46.2
Q -64.4,-57.8,-66.0,-62.9
Q -67.5,-68.0,-68.4,-73.8
Q -70.2,-74.7,-72.0,-75.6
Q -81.1,-80.1,-87.1,-91.3
Q -89.9,-96.4,-89.0,-96.4
Q -88.6,-96.4,-87.1,-93.7
Q -79.5,-79.5,-68.9,-75.6
Q -69.4,-76.4,-69.3,-79.1
Q -69.8,-79.0,-69.8,-80.4
Q -69.8,-80.4,-69.8,-80.4
Q -69.8,-81.1,-69.8,-81.8
Q -69.8,-82.9,-69.8,-84.0
Q -69.9,-84.8,-70.0,-85.6
Q -70.2,-87.1,-70.0,-88.7
Q -69.9,-89.4,-69.8,-90.2
Q -69.8,-90.8,-69.8,-91.0
Q -69.8,-90.4,-69.8,-90.7
Q -69.8,-87.1,-69.8,-84.0
Q -69.8,-82.9,-69.8,-81.8
Q -69.7,-81.8,-69.6,-81.9
Q -69.3,-82.0,-69.3,-79.1
Q -69.4,-76.4,-68.9,-75.6
Q -68.9,-75.2,-68.9,-74.9
Q -69.0,-74.2,-68.7,-74.0
Q -68.6,-73.9,-68.4,-73.8
Q -67.5,-68.0,-66.0,-62.9
Q -64.4,-57.8,-60.4,-46.2
Q -59.7,-45.1,-59.8,-45.3
Q -60.1,-45.7,-60.4,-46.2
Q -56.8,-38.5,-54.6,-35.6
Q -52.8,-33.1,-52.7,-32.8
Q -52.7,-32.4,-54.4,-32.7
Q -71.9,-35.8,-89.3,-48.9
Q -91.1,-50.2,-92.9,-51.6
Q -94.2,-52.5,-95.1,-53.8
Q -95.4,-53.7,-95.7,-54.2
Q -95.9,-54.4,-96.0,-54.7
Q -97.8,-56.0,-99.1,-57.8
Q -100.2,-59.5,-101.3,-61.1
Q -112.5,-78.4,-110.0,-80.7
Q -108.7,-81.9,-97.3,-74.4
Q -91.8,-70.7,-90.4,-72.0
Q -89.0,-73.5,-92.4,-78.7
Q -108.1,-103.6,-107.4,-125.1
Q -107.2,-133.9,-105.3,-138.0
Q -104.9,-139.0,-104.4,-140.0
Q -103.0,-141.1,-103.7,-140.6
Q -104.1,-140.3,-104.4,-140.0
Q -101.1,-139.9,-100.5,-140.3
Q -102.2,-143.3,-103.7,-142.9
Q -109.5,-141.4,-109.4,-122.9
Q -109.4,-107.4,-102.1,-92.0
Q -97.0,-81.2,-94.8,-77.8
Q -92.9,-74.9,-93.1,-74.8
Q -93.2,-74.6,-95.2,-75.9
Q -105.1,-82.5,-109.5,-83.0
Q -115.5,-83.7,-109.2,-70.5
Q -96.4,-44.0,-64.8,-33.1
Q -58.9,-31.1,-54.9,-30.6
Q -50.9,-30.1,-48.4,-27.7
Q -47.1,-26.5,-45.8,-25.3
Q -46.9,-24.0,-48.0,-22.8
Q -55.0,-14.3,-56.7,-6.9
Q -58.2,-0.2,-55.9,2.1
Q -50.9,7.0,-39.1,-16.0
Q -37.6,-18.8,-37.3,-19.2
Q -37.0,-19.6,-34.6,-18.2
Q -32.2,-16.8,-31.7,-16.5
Q -31.1,-16.2,-31.7,-15.1
Q -32.3,-14.0,-32.9,-12.4
Q -33.4,-10.9,-33.8,-10.0
Q -38.2,1.1,-36.0,6.6
Q -33.8,12.1,-27.7,6.3
Q -23.0,1.8,-19.5,-4.7
Q -17.6,-8.5,-14.5,-7.9
Q -12.0,-7.4,-12.2,-6.9
Q -16.9,4.6,-17.8,12.0
Q -19.6,27.2,-28.9,39.8
Q -42.0,57.4,-37.8,74.8
Q -34.2,89.5,-24.2,89.5
Q -19.3,89.5,-15.0,86.1
Q -13.9,85.2,-12.8,84.3
Q -15.2,92.9,-16.7,96.7
Q -17.8,99.4,-18.4,101.8
Q -19.0,104.2,-19.9,107.3
Q -29.2,139.9,-6.7,167.7
Q 2.3,178.8,13.6,186.7
Q 15.8,188.3,18.5,190.3
Q 21.1,192.3,27.1,196.2
Q 42.3,206.3,47.4,217.5
 " /> 
<path  
style="fill:rgb(4,4,4)" 
d="M 8.0 179.5
Q 8.7,180.0,9.3,180.4
Q 9.0,179.9,8.5,179.7
Q 8.2,179.6,8.0,179.5
 " /> 
<path  
style="fill:rgb(14,103,171)" 
d="M 8.0 179.5
Q 7.6,178.8,7.1,178.0
Q 6.0,176.1,3.1,167.6
Q -0.6,157.1,-1.3,147.6
Q -1.9,140.0,-0.7,140.0
Q -0.1,140.0,0.1,145.4
Q 0.7,157.7,9.3,180.4
Q 16.4,186.2,25.0,192.0
Q 33.5,197.8,33.7,197.4
Q 34.5,194.9,24.1,176.3
Q 14.5,159.0,13.0,142.9
Q 12.3,136.1,13.5,136.6
Q 14.0,136.8,14.1,139.0
Q 15.1,155.3,25.5,174.9
Q 34.1,190.9,35.3,196.7
Q 36.0,199.8,38.5,201.8
Q 45.3,207.1,49.6,216.6
Q 50.3,218.3,50.5,218.4
Q 50.9,218.5,53.1,213.1
Q 57.6,202.4,62.9,191.2
Q 69.3,177.7,61.1,161.7
Q 58.2,156.2,50.1,145.3
Q 38.4,129.4,40.9,130.3
Q 41.5,130.5,44.2,134.3
Q 48.3,140.0,57.0,151.5
Q 67.6,165.7,67.6,176.9
Q 67.6,178.8,67.6,180.7
Q 68.4,178.9,69.1,177.1
Q 70.7,173.6,72.7,167.8
Q 85.1,131.9,61.1,118.9
Q 49.0,112.4,44.1,108.1
Q 37.8,102.6,35.1,95.2
Q 34.1,92.4,33.3,87.5
Q 31.7,87.5,31.4,87.9
Q 31.1,88.2,31.0,94.8
Q 30.8,103.5,28.9,103.5
Q 28.2,103.5,26.5,98.7
Q 24.9,93.8,24.7,93.8
Q 24.4,93.8,23.9,95.1
Q 21.4,101.2,16.9,96.8
Q 14.9,95.0,14.5,94.9
Q 12.4,94.8,12.4,102.5
Q 12.4,110.3,9.0,114.4
Q 8.5,113.6,8.0,112.8
Q 6.5,110.5,4.0,98.7
Q 4.1,98.2,4.1,97.7
Q 4.2,96.7,3.9,96.6
Q 3.7,96.5,3.6,96.4
Q 3.2,95.4,2.9,94.4
Q 1.9,91.6,0.9,92.8
Q 0.5,93.2,-1.0,96.5
Q -5.1,105.4,-8.3,97.7
Q -9.6,94.4,-11.1,90.2
Q -11.8,89.9,-12.4,89.6
Q -13.1,91.0,-13.5,92.6
Q -14.1,94.9,-15.3,98.4
Q -16.5,102.0,-17.1,104.3
Q -17.8,106.7,-18.4,109.0
Q -28.1,144.4,2.3,174.0
Q 5.1,176.8,8.0,179.5
 " /> 
<path  
style="fill:rgb(7,193,201)" 
d="M 50.8 203.7
Q 50.9,213.3,51.4,213.3
Q 52.8,213.3,52.3,198.0
Q 51.7,180.1,45.9,166.2
Q 40.5,153.1,39.2,153.9
Q 38.7,154.3,40.6,158.1
Q 46.9,170.5,49.6,184.4
Q 50.6,189.8,50.8,203.7
 " /> 
<path  
style="fill:rgb(7,193,201)" 
d="M 71.4 159.9
Q 71.6,160.5,72.1,160.3
Q 72.9,160.0,71.8,155.8
Q 68.8,144.4,58.3,132.3
Q 54.9,128.4,54.1,128.4
Q 52.9,128.4,55.9,131.8
Q 67.4,144.4,70.5,156.6
Q 71.2,159.3,71.4,159.9
 " /> 
<path  
style="fill:rgb(7,193,201)" 
d="M 8.0 179.5
Q 8.2,179.6,8.5,179.7
Q 9.0,179.9,9.3,180.4
Q 0.7,157.7,0.1,145.4
Q -0.1,140.0,-0.7,140.0
Q -1.9,140.0,-1.3,147.6
Q -0.6,157.1,3.1,167.6
Q 6.0,176.1,7.1,178.0
Q 7.6,178.8,8.0,179.5
 " /> 
<path  
style="fill:rgb(97,247,248)" 
d="M -11.6 88.0
Q -11.4,88.1,-11.2,88.1
Q -10.9,88.2,-11.0,89.2
Q -11.1,89.7,-11.1,90.2
Q -10.2,92.4,-9.3,94.7
Q -7.6,99.1,-6.7,100.1
Q -4.6,102.6,-1.7,96.8
Q 0.8,91.9,1.4,91.9
Q 2.3,91.8,3.6,96.4
Q 3.7,96.5,3.9,96.6
Q 4.2,96.7,4.1,97.7
Q 4.1,98.2,4.0,98.7
Q 8.1,112.4,8.6,113.0
Q 9.2,113.6,10.6,111.1
Q 11.7,109.2,11.9,103.6
Q 12.2,91.7,16.3,95.6
Q 21.0,100.2,23.3,94.9
Q 24.4,92.4,24.8,92.4
Q 25.3,92.4,26.9,97.8
Q 28.6,103.1,29.0,103.0
Q 30.7,102.4,30.7,93.9
Q 30.7,87.7,31.0,87.4
Q 31.3,87.1,33.3,87.1
Q 33.1,86.4,32.9,85.8
Q 32.9,83.5,32.9,81.3
Q 32.9,77.3,31.8,75.9
Q 24.9,66.4,23.8,50.4
Q 23.7,48.8,23.6,47.1
Q 23.4,47.1,23.3,47.1
Q 23.1,47.2,23.1,44.0
Q 24.4,40.4,25.3,38.0
Q 26.2,35.5,26.7,32.2
Q 26.9,30.5,27.1,28.9
Q 27.1,26.0,27.1,23.1
Q 26.8,20.4,26.4,17.8
Q 25.8,12.9,25.7,12.8
Q 25.1,12.0,24.7,15.5
Q 24.1,20.0,22.8,20.0
Q 22.1,20.0,23.3,12.4
Q 24.0,8.7,24.4,5.1
Q 24.7,1.6,25.3,1.6
Q 25.9,1.6,25.8,4.1
Q 25.7,6.5,26.6,9.6
Q 27.4,12.8,28.4,19.1
Q 28.6,19.1,28.7,19.1
Q 28.9,19.0,28.9,20.2
Q 28.9,20.2,28.9,20.2
Q 28.9,20.8,28.9,21.3
Q 28.9,25.5,28.6,29.0
Q 27.9,36.5,25.9,40.9
Q 24.8,43.6,25.1,46.7
Q 25.1,46.8,25.1,46.9
Q 25.4,50.0,26.2,55.5
Q 31.1,51.1,33.8,48.9
Q 35.1,47.8,36.4,46.7
Q 36.7,46.7,36.9,46.7
Q 37.9,45.9,38.9,45.1
Q 44.7,40.6,47.3,42.3
Q 48.9,43.3,51.6,45.3
Q 50.4,43.1,49.3,40.9
Q 47.1,36.4,44.6,31.9
Q 34.6,13.6,31.3,4.3
Q 27.0,-7.8,24.4,-8.6
Q 23.7,-8.9,20.0,-8.0
Q 15.5,-6.9,11.7,-6.5
Q 9.9,-6.4,8.0,-6.2
Q 6.9,-6.2,5.8,-6.2
Q 3.1,-6.3,0.4,-6.4
Q -4.9,-6.7,-7.3,-6.9
Q -9.8,-7.2,-11.4,-3.9
Q -14.6,3.0,-15.5,9.6
Q -15.8,11.5,-16.0,13.3
Q -16.0,15.4,-16.4,15.5
Q -16.7,17.0,-16.9,18.4
Q -17.8,24.6,-21.3,31.5
Q -23.1,35.1,-27.6,41.8
Q -27.0,41.9,-26.4,42.0
Q -25.3,42.2,-24.4,42.5
Q -24.0,42.6,-23.6,42.7
Q -23.3,42.7,-23.1,42.7
Q -21.3,43.1,-20.9,43.6
Q -20.7,43.8,-20.4,44.0
Q -20.2,44.0,-20.0,44.0
Q -18.7,43.6,-15.6,42.7
Q -15.3,42.7,-15.1,42.7
Q -14.6,42.5,-14.0,42.4
Q -12.9,42.2,-11.4,43.8
Q -9.9,45.4,-8.0,45.6
Q -3.4,46.2,-2.1,48.6
Q -1.8,49.1,-1.3,48.8
Q -0.9,48.6,-0.4,48.0
Q -0.2,46.2,0.0,44.4
Q 0.4,40.9,-0.9,38.1
Q -3.8,32.4,-4.2,24.1
Q -4.2,23.8,-4.2,23.5
Q -4.3,20.2,-4.4,16.9
Q -4.4,15.8,-4.4,14.7
Q -5.3,7.5,-5.4,6.8
Q -5.5,6.1,-4.9,5.9
Q -4.2,5.7,-3.4,9.6
Q -2.6,13.5,-1.7,16.4
Q 0.2,22.7,-1.2,22.5
Q -2.0,22.4,-2.1,21.4
Q -2.2,20.9,-2.2,20.4
Q -2.3,20.5,-2.4,20.5
Q -2.5,20.5,-2.6,20.9
Q -2.6,21.3,-2.7,24.0
Q -2.4,25.8,-2.2,27.5
Q -1.4,34.3,1.4,38.9
Q 4.3,43.7,2.5,43.0
Q 1.9,42.7,1.6,45.4
Q 1.4,47.0,1.1,48.3
Q 1.0,49.0,0.8,49.5
Q 0.7,50.0,0.6,50.5
Q 0.5,50.8,0.4,51.1
Q 0.4,51.5,0.4,52.0
Q -1.3,59.1,-2.6,63.0
Q -5.7,72.2,-7.5,76.2
Q -10.5,82.5,-11.1,85.8
Q -11.3,86.9,-11.6,88.0
 " /> 
<path  
style="fill:rgb(14,103,171)" 
d="M -11.6 88.0
Q -12.0,88.8,-12.4,89.6
Q -11.8,89.9,-11.1,90.2
Q -11.1,89.7,-11.0,89.2
Q -10.9,88.2,-11.2,88.1
Q -11.4,88.1,-11.6,88.0
 " /> 
<path  
style="fill:rgb(7,193,201)" 
d="M 4.0 98.7
Q 6.5,110.5,8.0,112.8
Q 8.5,113.6,9.0,114.4
Q 12.4,110.3,12.4,102.5
Q 12.4,94.8,14.5,94.9
Q 14.9,95.0,16.9,96.8
Q 21.4,101.2,23.9,95.1
Q 24.4,93.8,24.7,93.8
Q 24.9,93.8,26.5,98.7
Q 28.2,103.5,28.9,103.5
Q 30.8,103.5,31.0,94.8
Q 31.1,88.2,31.4,87.9
Q 31.7,87.5,33.3,87.5
Q 33.3,87.3,33.3,87.1
Q 31.3,87.1,31.0,87.4
Q 30.7,87.7,30.7,93.9
Q 30.7,102.4,29.0,103.0
Q 28.6,103.1,26.9,97.8
Q 25.3,92.4,24.8,92.4
Q 24.4,92.4,23.3,94.9
Q 21.0,100.2,16.3,95.6
Q 12.2,91.7,11.9,103.6
Q 11.7,109.2,10.6,111.1
Q 9.2,113.6,8.6,113.0
Q 8.1,112.4,4.0,98.7
 " /> 
<path  
style="fill:rgb(97,247,248)" 
d="M 33.3 87.1
Q 33.5,86.0,33.2,85.9
Q 33.1,85.8,32.9,85.8
Q 33.1,86.4,33.3,87.1
 " /> 
<path  
style="fill:rgb(14,103,171)" 
d="M 0.4 52.0
Q 0.4,51.5,0.4,51.1
Q 0.3,51.2,0.1,51.4
Q 0.2,51.4,0.2,51.5
Q 0.3,51.8,0.4,52.0
 " /> 
<path  
style="fill:rgb(14,103,171)" 
d="M 0.4 51.1
Q 0.0,50.7,-0.4,50.2
Q -0.5,50.6,-0.5,51.1
Q -0.1,51.1,0.1,51.4
Q 0.3,51.2,0.4,51.1
 " /> 
<path  
style="fill:rgb(14,103,171)" 
d="M 0.4 51.1
Q 0.3,50.9,0.2,50.6
Q 0.1,50.4,-0.1,50.3
Q -0.3,50.3,-0.4,50.2
Q 0.0,50.7,0.4,51.1
 " /> 
<path  
style="fill:rgb(4,4,4)" 
d="M 0.4 51.1
Q 0.5,50.8,0.6,50.5
Q 0.3,50.4,-0.1,50.3
Q 0.1,50.4,0.2,50.6
Q 0.3,50.9,0.4,51.1
 " /> 
<path  
style="fill:rgb(4,4,4)" 
d="M -2.7 24.0
Q -2.7,23.0,-2.8,22.1
Q -2.9,20.2,-2.2,20.4
Q -2.2,20.9,-2.1,21.4
Q -2.0,22.4,-1.2,22.5
Q 0.2,22.7,-1.7,16.4
Q -2.6,13.5,-3.4,9.6
Q -4.2,5.7,-4.9,5.9
Q -5.5,6.1,-5.4,6.8
Q -5.3,7.5,-4.4,14.7
Q -4.3,15.0,-4.2,15.3
Q -3.9,16.0,-4.4,16.9
Q -4.3,20.2,-4.2,23.5
Q -4.2,23.8,-4.2,24.1
Q -3.4,24.0,-2.7,24.0
 " /> 
<path  
style="fill:rgb(4,4,4)" 
d="M -2.7 24.0
Q -3.4,24.0,-4.2,24.1
Q -3.8,32.4,-0.9,38.1
Q 0.4,40.9,0.0,44.4
Q -0.2,46.2,-0.4,48.0
Q 0.3,48.1,1.1,48.3
Q 1.4,47.0,1.6,45.4
Q 1.9,42.7,2.5,43.0
Q 4.3,43.7,1.4,38.9
Q -1.4,34.3,-2.2,27.5
Q -2.4,25.8,-2.7,24.0
 " /> 
<path  
style="fill:rgb(14,103,171)" 
d="M -4.4 14.7
Q -4.4,15.8,-4.4,16.9
Q -3.9,16.0,-4.2,15.3
Q -4.3,15.0,-4.4,14.7
 " /> 
<path  
style="fill:rgb(4,4,4)" 
d="M -0.4 48.0
Q -0.4,49.1,-0.4,50.2
Q -0.3,50.2,-0.1,50.3
Q 0.3,50.4,0.6,50.5
Q 0.7,50.0,0.8,49.5
Q 1.0,49.0,1.1,48.3
Q 0.3,48.1,-0.4,48.0
 " /> 
<path  
style="fill:rgb(7,193,201)" 
d="M -0.4 48.0
Q -0.9,48.6,-1.3,48.8
Q -0.9,49.5,-0.4,50.2
Q -0.4,49.1,-0.4,48.0
 " /> 
<path  
style="fill:rgb(14,103,171)" 
d="M -15.1 42.7
Q -15.3,42.7,-15.6,42.7
Q -17.4,43.9,-18.7,44.0
Q -19.3,44.0,-20.0,44.0
Q -20.2,44.0,-20.4,44.0
Q -20.8,44.0,-21.1,44.0
Q -21.8,44.0,-22.4,43.3
Q -22.8,43.0,-23.1,42.7
Q -23.3,42.7,-23.6,42.7
Q -27.7,42.7,-27.9,42.6
Q -28.2,42.5,-28.0,42.2
Q -30.7,46.2,-32.4,49.0
Q -34.8,52.9,-35.8,58.0
Q -35.1,58.2,-34.4,58.3
Q -34.6,58.0,-33.9,56.4
Q -33.2,54.9,-32.6,53.4
Q -31.9,51.9,-31.5,52.3
Q -31.0,52.8,-32.1,55.6
Q -33.6,59.5,-34.4,58.3
Q -35.1,58.2,-35.8,58.0
Q -36.6,61.7,-36.7,65.9
Q -36.7,67.8,-36.3,67.7
Q -36.1,67.6,-34.7,65.2
Q -33.0,62.4,-28.9,57.2
Q -23.6,50.6,-23.6,52.5
Q -23.6,53.1,-26.7,56.9
Q -36.6,68.6,-35.8,73.8
Q -35.6,75.4,-34.3,78.6
Q -29.3,90.9,-19.5,86.1
Q -15.4,84.1,-14.5,81.7
Q -14.2,80.7,-14.4,76.6
Q -14.9,67.3,-14.6,59.2
Q -14.5,56.7,-13.8,57.1
Q -13.3,57.4,-13.3,65.5
Q -13.3,79.8,-12.4,79.5
Q -10.8,78.9,-9.1,73.8
Q -8.3,71.3,-7.6,70.4
Q -4.9,67.3,-1.9,54.1
Q -1.2,51.1,-0.6,51.1
Q -0.5,51.1,-0.5,51.1
Q -0.5,50.6,-0.4,50.2
Q -1.3,50.2,-2.3,49.1
Q -4.6,46.2,-7.7,46.2
Q -9.4,46.2,-11.3,44.4
Q -13.3,42.6,-15.1,42.7
 " /> 
<path  
style="fill:rgb(7,193,201)" 
d="M -27.3 80.1
Q -27.7,86.7,-27.0,86.7
Q -26.3,86.7,-26.0,80.4
Q -25.7,74.2,-26.0,73.5
Q -26.9,71.0,-27.3,80.1
 " /> 
<path  
style="fill:rgb(7,193,201)" 
d="M -8.7 66.9
Q -8.4,67.7,-7.9,67.2
Q -7.4,66.7,-7.7,62.1
Q -8.0,57.6,-8.5,57.1
Q -9.6,56.0,-9.2,62.1
Q -9.0,66.0,-8.7,66.9
 " /> 
<path  
style="fill:rgb(7,193,201)" 
d="M -15.1 42.7
Q -13.3,42.6,-11.3,44.4
Q -9.4,46.2,-7.7,46.2
Q -4.6,46.2,-2.3,49.1
Q -1.3,50.2,-0.4,50.2
Q -0.9,49.5,-1.3,48.8
Q -1.8,49.1,-2.1,48.6
Q -3.4,46.2,-8.0,45.6
Q -9.9,45.4,-11.4,43.8
Q -12.9,42.2,-14.0,42.4
Q -14.6,42.5,-15.1,42.7
 " /> 
<path  
style="fill:rgb(7,193,201)" 
d="M -15.6 42.7
Q -18.7,43.6,-20.0,44.0
Q -19.3,44.0,-18.7,44.0
Q -17.4,43.9,-15.6,42.7
 " /> 
<path  
style="fill:rgb(7,193,201)" 
d="M -20.4 44.0
Q -20.7,43.8,-20.9,43.6
Q -21.3,43.1,-23.1,42.7
Q -22.8,43.0,-22.4,43.3
Q -21.8,44.0,-21.1,44.0
Q -20.8,44.0,-20.4,44.0
 " /> 
<path  
style="fill:rgb(7,193,201)" 
d="M -23.6 42.7
Q -24.0,42.6,-24.4,42.5
Q -25.3,42.2,-26.4,42.0
Q -27.0,41.9,-27.6,41.8
Q -27.8,41.8,-28.0,42.2
Q -28.2,42.5,-27.9,42.6
Q -27.7,42.7,-23.6,42.7
 " /> 
<path  
style="fill:rgb(7,193,201)" 
d="M -16.4 15.5
Q -16.0,15.4,-16.0,13.3
Q -16.1,13.4,-16.2,13.4
Q -16.4,13.4,-16.4,14.5
Q -16.4,15.0,-16.4,15.5
 " /> 
<path  
style="fill:rgb(14,103,171)" 
d="M 5.8 -6.2
Q 6.9,-6.2,8.0,-6.2
Q 7.7,-6.4,7.4,-6.5
Q 6.7,-6.8,6.2,-6.5
Q 6.0,-6.4,5.8,-6.2
 " /> 
<path  
style="fill:rgb(4,4,4)" 
d="M 51.6 45.3
Q 51.5,45.4,51.5,45.4
Q 51.5,45.6,51.8,45.9
Q 51.9,46.1,52.0,46.2
Q 51.8,45.8,51.6,45.3
 " /> 
<path  
style="fill:rgb(7,193,201)" 
d="M 51.6 45.3
Q 51.4,45.5,51.3,45.6
Q 51.6,45.9,52.0,46.2
Q 51.9,46.1,51.8,45.9
Q 51.5,45.6,51.5,45.4
Q 51.5,45.4,51.6,45.3
 " /> 
<path  
style="fill:rgb(7,193,201)" 
d="M 51.6 45.3
Q 48.9,43.3,47.3,42.3
Q 44.7,40.6,38.9,45.1
Q 37.9,45.9,36.9,46.7
Q 38.7,45.9,40.0,44.8
Q 43.2,41.9,45.8,42.1
Q 47.3,42.3,50.7,45.1
Q 51.0,45.4,51.3,45.6
Q 51.4,45.5,51.6,45.3
 " /> 
<path  
style="fill:rgb(14,103,171)" 
d="M 36.9 46.7
Q 36.7,46.7,36.4,46.7
Q 35.0,48.1,33.5,49.5
Q 30.6,52.4,26.7,56.0
Q 27.0,57.5,27.3,59.1
Q 29.6,69.9,35.6,76.9
Q 35.3,76.4,35.1,76.0
Q 34.1,74.0,33.7,64.5
Q 33.6,63.0,34.3,62.8
Q 35.0,62.6,35.3,65.3
Q 35.6,68.0,35.6,77.3
Q 40.1,81.9,44.2,83.0
Q 45.2,83.2,43.8,80.1
Q 42.7,77.5,41.6,73.5
Q 37.1,57.2,38.2,57.2
Q 38.8,57.1,40.1,62.0
Q 45.5,82.1,47.0,83.2
Q 48.6,84.2,52.2,82.9
Q 57.9,80.8,58.5,74.5
Q 58.7,72.6,55.5,67.6
Q 45.4,51.5,47.1,52.1
Q 48.6,52.6,56.3,65.6
Q 58.8,69.8,58.9,69.7
Q 59.0,69.5,58.5,66.5
Q 58.0,63.5,56.0,57.3
Q 55.0,56.3,54.0,55.2
Q 53.9,55.0,53.8,54.9
Q 50.7,51.5,52.4,52.2
Q 52.7,52.3,55.1,54.2
Q 54.8,53.2,54.4,52.2
Q 53.8,50.2,52.9,48.2
Q 52.4,47.2,52.0,46.2
Q 51.6,45.9,51.3,45.6
Q 51.0,45.4,50.7,45.1
Q 47.3,42.3,45.8,42.1
Q 43.2,41.9,40.0,44.8
Q 38.7,45.9,36.9,46.7
 " /> 
<path  
style="fill:rgb(7,193,201)" 
d="M 51.1 74.8
Q 53.9,81.4,54.4,81.2
Q 55.7,80.6,50.9,70.7
Q 49.4,67.3,48.8,67.4
Q 48.3,67.4,48.3,67.8
Q 48.4,68.2,51.1,74.8
 " /> 
<path  
style="fill:rgb(7,193,201)" 
d="M 36.4 46.7
Q 35.1,47.8,33.8,48.9
Q 31.1,51.1,26.2,55.5
Q 26.2,56.1,26.7,56.0
Q 30.6,52.4,33.5,49.5
Q 35.0,48.1,36.4,46.7
 " /> 
<path  
style="fill:rgb(7,193,201)" 
d="M 28.9 21.3
Q 28.9,20.8,28.9,20.2
Q 28.7,19.6,28.4,19.1
Q 28.4,21.4,28.7,21.4
Q 28.8,21.4,28.9,21.3
 " /> 
<path  
style="fill:rgb(4,4,4)" 
d="M 28.9 21.3
Q 28.8,21.4,28.7,21.4
Q 28.4,21.4,28.4,19.1
Q 27.4,12.8,26.6,9.6
Q 25.7,6.5,25.8,4.1
Q 25.9,1.6,25.3,1.6
Q 24.7,1.6,24.4,5.1
Q 24.0,8.7,23.3,12.4
Q 22.1,20.0,22.8,20.0
Q 24.1,20.0,24.7,15.5
Q 25.1,12.0,25.7,12.8
Q 25.8,12.9,26.4,17.8
Q 26.8,20.4,27.1,23.1
Q 27.6,25.8,27.3,27.3
Q 27.2,28.1,27.1,28.9
Q 27.8,28.9,28.6,29.0
Q 28.9,25.5,28.9,21.3
 " /> 
<path  
style="fill:rgb(7,193,201)" 
d="M 28.4 19.1
Q 28.7,19.6,28.9,20.2
Q 28.9,20.2,28.9,20.2
Q 28.9,19.0,28.7,19.1
Q 28.6,19.1,28.4,19.1
 " /> 
<path  
style="fill:rgb(14,103,171)" 
d="M 27.1 23.1
Q 27.1,26.0,27.1,28.9
Q 27.2,28.1,27.3,27.3
Q 27.6,25.8,27.1,23.1
 " /> 
<path  
style="fill:rgb(4,4,4)" 
d="M 27.1 28.9
Q 26.9,30.5,26.7,32.2
Q 26.2,35.5,25.3,38.0
Q 24.4,40.4,23.1,44.0
Q 23.4,43.9,23.5,44.2
Q 23.6,44.5,23.6,47.1
Q 24.3,47.0,25.1,46.9
Q 25.1,46.8,25.1,46.7
Q 24.8,43.6,25.9,40.9
Q 27.9,36.5,28.6,29.0
Q 27.8,28.9,27.1,28.9
 " /> 
<path  
style="fill:rgb(7,193,201)" 
d="M 23.1 44.0
Q 23.1,47.2,23.3,47.1
Q 23.4,47.1,23.6,47.1
Q 23.6,44.5,23.5,44.2
Q 23.4,43.9,23.1,44.0
 " /> 
<path  
style="fill:rgb(14,103,171)" 
d="M 32.9 81.3
Q 32.9,83.5,32.9,85.8
Q 33.0,85.2,33.1,84.7
Q 33.4,83.5,32.9,81.3
 " /> 
<path  
style="fill:rgb(7,193,201)" 
d="M 35.6 76.9
Q 35.6,77.1,35.6,77.3
Q 35.6,68.0,35.3,65.3
Q 35.0,62.6,34.3,62.8
Q 33.6,63.0,33.7,64.5
Q 34.1,74.0,35.1,76.0
Q 35.3,76.4,35.6,76.9
 " /> 
<path  
style="fill:rgb(7,193,201)" 
d="M 55.1 54.2
Q 54.6,54.7,54.0,55.2
Q 55.0,56.3,56.0,57.3
Q 55.1,55.5,55.1,54.2
 " /> 
<path  
style="fill:rgb(7,193,201)" 
d="M 55.1 54.2
Q 52.7,52.3,52.4,52.2
Q 50.7,51.5,53.8,54.9
Q 53.9,55.0,54.0,55.2
Q 54.6,54.7,55.1,54.2
 " /> 
<path  
style="fill:rgb(7,193,201)" 
d="M -34.4 58.3
Q -33.6,59.5,-32.1,55.6
Q -31.0,52.8,-31.5,52.3
Q -31.9,51.9,-32.6,53.4
Q -33.2,54.9,-33.9,56.4
Q -34.6,58.0,-34.4,58.3
 " /> 
<path  
style="fill:rgb(14,103,171)" 
d="M -67.6 -85.8
Q -67.7,-85.4,-67.8,-85.1
Q -68.0,-84.5,-67.8,-84.0
Q -67.7,-83.8,-67.6,-83.6
Q -67.6,-84.7,-67.6,-85.8
 " /> 
<path  
style="fill:rgb(97,247,248)" 
d="M -67.6 -85.8
Q -67.6,-84.7,-67.6,-83.6
Q -67.3,-81.6,-67.1,-79.6
Q -66.2,-71.7,-61.7,-57.8
Q -55.5,-38.6,-46.3,-29.0
Q -45.5,-28.1,-44.6,-27.1
Q -40.5,-32.8,-40.1,-33.2
Q -38.9,-34.2,-39.0,-32.8
Q -39.0,-31.8,-48.5,-18.7
Q -55.1,-9.6,-55.1,-2.7
Q -55.1,0.7,-54.0,0.8
Q -50.2,1.2,-41.0,-16.4
Q -33.9,-30.0,-32.3,-28.5
Q -31.9,-28.1,-33.6,-25.8
Q -35.3,-23.4,-35.3,-22.6
Q -35.3,-21.8,-32.8,-20.3
Q -31.5,-19.5,-30.2,-18.7
Q -29.9,-19.5,-29.5,-20.4
Q -28.8,-22.0,-28.1,-23.7
Q -27.4,-25.4,-26.9,-25.1
Q -25.7,-24.6,-27.5,-20.6
Q -28.5,-18.5,-28.6,-17.5
Q -28.8,-16.6,-29.9,-14.3
Q -31.8,-10.3,-33.6,-3.6
Q -35.5,4.0,-33.6,6.4
Q -33.0,7.1,-29.8,5.8
Q -29.5,5.4,-29.3,5.1
Q -28.9,4.5,-27.6,3.5
Q -26.9,2.5,-26.2,1.5
Q -24.9,-0.5,-23.0,-3.2
Q -21.2,-6.0,-20.0,-8.3
Q -18.7,-10.7,-16.2,-13.9
Q -12.8,-18.3,-12.0,-17.5
Q -11.5,-17.0,-12.6,-15.7
Q -13.7,-14.4,-14.6,-12.8
Q -15.1,-12.0,-15.6,-11.2
Q -14.0,-10.8,-12.4,-10.4
Q -9.3,-9.6,0.4,-8.9
Q 1.8,-8.9,3.1,-8.9
Q 5.4,-9.0,7.8,-9.1
Q 16.0,-9.5,23.8,-11.6
Q 27.3,-12.5,29.0,-12.8
Q 29.8,-13.0,30.6,-13.1
Q 29.8,-15.1,28.9,-17.0
Q 27.2,-20.9,27.8,-21.2
Q 28.5,-21.5,28.9,-20.8
Q 29.9,-19.3,34.7,-8.4
Q 38.7,0.8,40.2,-0.8
Q 41.5,-2.2,41.7,-6.3
Q 41.7,-7.2,41.8,-8.0
Q 41.8,-9.6,41.8,-11.1
Q 41.6,-12.1,41.3,-13.1
Q 40.1,-18.8,37.8,-23.4
Q 35.0,-28.9,36.4,-28.2
Q 37.6,-27.6,42.1,-18.4
Q 44.3,-20.3,45.7,-21.5
Q 47.1,-22.6,45.5,-27.2
Q 43.5,-32.9,44.5,-33.2
Q 45.2,-33.4,48.6,-23.7
Q 52.1,-14.0,53.2,-12.5
Q 56.9,-7.1,57.6,-20.0
Q 58.1,-27.8,54.8,-35.5
Q 52.7,-40.5,54.2,-39.8
Q 55.8,-39.0,57.6,-33.7
Q 58.4,-31.2,59.3,-32.0
Q 65.0,-36.9,70.1,-46.1
Q 75.8,-56.4,76.0,-76.9
Q 75.9,-76.9,75.8,-76.8
Q 75.5,-76.8,75.6,-79.1
Q 74.3,-94.4,72.0,-103.7
Q 68.4,-118.0,61.1,-126.2
Q 60.1,-127.3,59.1,-128.4
Q 58.8,-128.7,58.5,-128.9
Q 57.8,-129.4,56.9,-130.7
Q 55.2,-131.9,53.6,-133.1
Q 50.2,-135.6,47.5,-136.9
Q 43.0,-139.2,43.9,-140.1
Q 44.5,-140.6,46.5,-139.9
Q 48.6,-139.2,48.8,-139.4
Q 49.1,-139.6,48.3,-141.9
Q 46.4,-147.4,44.0,-150.9
Q 43.3,-151.9,42.7,-152.9
Q 40.9,-154.2,39.6,-156.0
Q 38.4,-156.7,37.3,-157.3
Q 19.9,-167.8,8.0,-149.1
Q 6.6,-146.8,5.9,-146.4
Q 5.2,-146.1,-0.9,-146.2
Q -2.9,-146.2,-4.9,-146.2
Q -5.3,-146.6,-5.8,-146.9
Q -6.7,-147.6,-7.7,-149.2
Q -14.4,-160.2,-23.2,-163.1
Q -36.1,-167.3,-42.1,-157.9
Q -46.0,-151.7,-46.4,-146.2
Q -46.8,-142.1,-48.3,-141.7
Q -49.1,-141.4,-50.4,-140.0
Q -51.8,-138.6,-51.7,-137.8
Q -51.6,-136.9,-53.4,-135.7
Q -57.4,-133.0,-62.4,-121.1
Q -65.5,-113.9,-67.1,-100.9
Q -67.1,-98.9,-67.3,-98.8
Q -67.4,-98.7,-67.6,-98.7
Q -67.6,-97.3,-67.6,-96.0
Q -67.6,-94.9,-67.6,-93.8
Q -68.0,-90.2,-67.6,-85.8
 " /> 
<path  
style="fill:rgb(4,4,4)" 
d="M 18.2 -21.3
Q 20.2,-20.0,20.8,-20.2
Q 21.7,-20.6,19.8,-22.3
Q 15.2,-26.5,6.0,-24.9
Q -3.8,-23.2,-2.4,-21.8
Q -1.9,-21.3,1.6,-22.2
Q 12.9,-24.9,18.2,-21.3
 " /> 
<path  
style="fill:rgb(4,4,4)" 
d="M -1.1 -42.6
Q -0.4,-41.5,2.0,-46.2
Q 3.0,-48.2,4.6,-50.4
Q 6.2,-52.6,5.8,-53.1
Q 4.9,-53.9,2.1,-49.5
Q -1.7,-43.6,-1.1,-42.6
 " /> 
<path  
style="fill:rgb(4,4,4)" 
d="M 12.9 -46.7
Q 15.2,-42.2,15.7,-42.4
Q 16.6,-42.8,14.7,-46.7
Q 11.8,-52.4,10.7,-52.8
Q 9.6,-53.2,12.9,-46.7
 " /> 
<path  
style="fill:rgb(4,4,4)" 
d="M 45.8 -120.9
Q 44.2,-120.9,42.7,-120.9
Q 41.6,-120.4,40.4,-120.0
Q 30.5,-116.0,19.3,-81.3
Q 17.7,-76.2,16.9,-74.4
Q 16.1,-72.7,15.8,-71.1
Q 15.6,-69.5,14.6,-66.8
Q 13.4,-63.1,14.8,-63.7
Q 15.4,-63.9,17.0,-69.3
Q 18.0,-67.4,18.9,-65.4
Q 29.5,-43.3,48.7,-55.8
Q 62.5,-64.8,65.0,-80.9
Q 66.9,-93.4,60.3,-106.5
Q 54.0,-119.1,45.8,-120.9
 " /> 
<path  
style="fill:rgb(31,181,0)" 
d="M 39.1 -54.7
Q 36.4,-54.7,33.8,-54.7
Q 34.4,-54.5,35.1,-54.4
Q 36.4,-54.2,37.8,-54.4
Q 38.4,-54.5,39.1,-54.7
 " /> 
<path  
style="fill:rgb(115,250,3)" 
d="M 39.1 -54.7
Q 43.1,-56.0,44.9,-57.0
Q 46.7,-58.0,49.1,-59.7
Q 50.3,-60.5,51.6,-61.3
Q 52.0,-61.9,52.5,-62.4
Q 53.4,-63.5,55.1,-64.9
Q 55.4,-65.4,55.8,-66.0
Q 56.5,-67.1,57.8,-68.9
Q 59.1,-71.5,60.0,-72.9
Q 61.8,-78.2,62.7,-86.2
Q 62.7,-87.6,62.7,-88.9
Q 61.9,-88.9,61.1,-89.0
Q 60.9,-84.8,59.3,-80.1
Q 56.1,-70.7,49.8,-65.1
Q 40.7,-56.9,29.6,-63.5
Q 28.2,-64.3,26.7,-65.1
Q 22.4,-67.4,25.7,-72.4
Q 26.2,-73.1,26.7,-73.8
Q 23.6,-74.9,24.0,-75.6
Q 24.4,-76.3,26.4,-75.7
Q 28.4,-75.1,30.7,-76.0
Q 31.8,-76.4,32.9,-76.9
Q 34.7,-79.1,37.3,-81.3
Q 41.7,-87.7,44.7,-88.8
Q 48.6,-90.1,52.1,-83.9
Q 54.0,-80.5,54.4,-83.1
Q 54.6,-83.8,54.7,-84.4
Q 54.7,-87.1,54.7,-89.8
Q 54.2,-97.0,51.0,-103.2
Q 49.1,-107.1,49.9,-107.1
Q 50.7,-107.1,52.2,-104.2
Q 53.0,-102.8,53.8,-101.3
Q 54.0,-101.2,54.2,-101.1
Q 54.6,-100.9,54.9,-101.4
Q 56.1,-103.3,58.1,-100.3
Q 61.4,-95.5,61.1,-89.0
Q 61.9,-88.9,62.7,-88.9
Q 61.1,-100.7,55.1,-110.4
Q 54.2,-111.9,53.3,-113.3
Q 52.8,-113.8,52.2,-114.2
Q 51.1,-115.1,50.5,-116.0
Q 50.1,-116.5,49.8,-116.9
Q 49.3,-117.1,48.9,-117.3
Q 48.0,-117.8,45.8,-118.7
Q 44.7,-118.7,43.6,-118.7
Q 43.0,-118.5,42.5,-118.3
Q 41.4,-118.0,40.0,-117.3
Q 38.2,-115.1,36.4,-113.8
Q 31.6,-105.8,29.3,-101.0
Q 25.6,-93.2,21.1,-80.5
Q 18.5,-73.3,19.5,-70.8
Q 24.3,-58.4,31.4,-55.6
Q 32.6,-55.1,33.8,-54.7
Q 36.4,-54.7,39.1,-54.7
 " /> 
<path  
style="fill:rgb(209,251,185)" 
d="M 28.6 -80.6
Q 31.2,-78.7,38.8,-85.7
Q 42.7,-89.3,45.7,-90.9
Q 49.7,-93.2,50.0,-94.7
Q 50.6,-97.6,48.4,-102.6
Q 45.6,-108.9,43.5,-108.9
Q 42.6,-108.9,42.6,-109.6
Q 42.7,-110.7,41.0,-109.0
Q 39.8,-107.8,38.9,-107.1
Q 37.9,-106.4,36.2,-103.3
Q 34.5,-100.3,34.4,-99.1
Q 34.3,-98.0,32.4,-94.7
Q 25.7,-82.8,28.6,-80.6
 " /> 
<path  
style="fill:rgb(31,181,0)" 
d="M 40.0 -117.3
Q 37.8,-115.5,36.4,-113.8
Q 38.2,-115.1,40.0,-117.3
 " /> 
<path  
style="fill:rgb(31,181,0)" 
d="M 43.6 -118.7
Q 44.7,-118.7,45.8,-118.7
Q 44.5,-119.2,43.6,-118.7
 " /> 
<path  
style="fill:rgb(31,181,0)" 
d="M 49.8 -116.9
Q 50.1,-116.5,50.5,-116.0
Q 51.1,-115.1,52.2,-114.2
Q 52.8,-113.8,53.3,-113.3
Q 51.5,-115.5,49.8,-116.9
 " /> 
<path  
style="fill:rgb(31,181,0)" 
d="M 62.7 -88.9
Q 62.7,-87.6,62.7,-86.2
Q 62.8,-86.6,62.9,-86.9
Q 63.1,-87.5,62.7,-88.9
 " /> 
<path  
style="fill:rgb(31,181,0)" 
d="M 60.0 -72.9
Q 59.1,-71.5,57.8,-68.9
Q 59.1,-70.2,59.5,-71.6
Q 59.8,-72.2,60.0,-72.9
 " /> 
<path  
style="fill:rgb(31,181,0)" 
d="M 55.1 -64.9
Q 53.4,-63.5,52.5,-62.4
Q 52.0,-61.9,51.6,-61.3
Q 52.1,-61.8,52.7,-62.2
Q 53.8,-63.1,54.4,-64.0
Q 54.8,-64.4,55.1,-64.9
 " /> 
<path  
style="fill:rgb(115,250,3)" 
d="M 42.7 -84.9
Q 43.6,-84.9,44.4,-84.9
Q 47.0,-84.9,50.9,-79.9
Q 52.1,-78.2,52.9,-78.2
Q 53.8,-78.2,53.3,-79.1
Q 51.1,-81.3,49.5,-83.8
Q 48.8,-85.0,48.0,-86.2
Q 47.4,-86.4,46.7,-86.6
Q 45.5,-86.9,44.3,-86.1
Q 43.7,-85.7,43.1,-85.3
Q 42.7,-85.2,42.7,-84.9
 " /> 
<path  
style="fill:rgb(31,181,0)" 
d="M 42.7 -84.9
Q 38.2,-79.6,35.9,-77.3
Q 34.9,-76.3,33.8,-75.5
Q 31.3,-73.8,28.6,-73.8
Q 27.7,-73.8,26.7,-73.8
Q 26.2,-73.1,25.7,-72.4
Q 22.4,-67.4,26.7,-65.1
Q 28.2,-64.3,29.6,-63.5
Q 40.7,-56.9,49.8,-65.1
Q 56.1,-70.7,59.3,-80.1
Q 60.9,-84.8,61.1,-89.0
Q 61.4,-95.5,58.1,-100.3
Q 56.1,-103.3,54.9,-101.4
Q 54.6,-100.9,54.2,-101.1
Q 54.0,-101.2,53.8,-101.3
Q 54.2,-100.3,54.7,-99.3
Q 56.4,-95.4,56.8,-88.3
Q 57.1,-80.9,53.3,-79.1
Q 53.8,-78.2,52.9,-78.2
Q 52.1,-78.2,50.9,-79.9
Q 47.0,-84.9,44.4,-84.9
Q 43.6,-84.9,42.7,-84.9
 " /> 
<path  
style="fill:rgb(4,4,4)" 
d="M 42.7 -84.9
Q 42.7,-85.2,43.1,-85.3
Q 44.9,-87.1,46.2,-87.1
Q 47.6,-87.1,48.0,-86.2
Q 48.8,-85.0,49.5,-83.8
Q 51.1,-81.3,53.3,-79.1
Q 57.1,-80.9,56.8,-88.3
Q 56.4,-95.4,54.7,-99.3
Q 54.2,-100.3,53.8,-101.3
Q 53.0,-102.8,52.2,-104.2
Q 50.7,-107.1,49.9,-107.1
Q 49.1,-107.1,51.0,-103.2
Q 54.2,-97.0,54.7,-89.8
Q 54.8,-89.1,54.9,-88.4
Q 55.1,-87.1,54.9,-85.8
Q 54.8,-85.1,54.7,-84.4
Q 54.6,-83.8,54.4,-83.1
Q 54.0,-80.5,52.1,-83.9
Q 48.6,-90.1,44.7,-88.8
Q 41.7,-87.7,37.3,-81.3
Q 36.8,-80.7,36.2,-80.0
Q 35.1,-78.7,32.9,-76.9
Q 33.3,-76.2,33.8,-75.5
Q 34.9,-76.3,35.9,-77.3
Q 38.2,-79.6,42.7,-84.9
 " /> 
<path  
style="fill:rgb(4,4,4)" 
d="M 26.7 -73.8
Q 27.7,-73.8,28.6,-73.8
Q 31.3,-73.8,33.8,-75.5
Q 33.3,-76.2,32.9,-76.9
Q 31.8,-76.4,30.7,-76.0
Q 28.4,-75.1,26.4,-75.7
Q 24.4,-76.3,24.0,-75.6
Q 23.6,-74.9,26.7,-73.8
 " /> 
<path  
style="fill:rgb(31,181,0)" 
d="M 32.9 -76.9
Q 35.1,-78.7,36.2,-80.0
Q 36.8,-80.7,37.3,-81.3
Q 34.7,-79.1,32.9,-76.9
 " /> 
<path  
style="fill:rgb(31,181,0)" 
d="M 54.7 -84.4
Q 54.8,-85.1,54.9,-85.8
Q 55.1,-87.1,54.9,-88.4
Q 54.8,-89.1,54.7,-89.8
Q 54.7,-87.1,54.7,-84.4
 " /> 
<path  
style="fill:rgb(31,181,0)" 
d="M 48.0 -86.2
Q 47.6,-87.1,46.2,-87.1
Q 44.9,-87.1,43.1,-85.3
Q 43.7,-85.7,44.3,-86.1
Q 45.5,-86.9,46.7,-86.6
Q 47.4,-86.4,48.0,-86.2
 " /> 
<path  
style="fill:rgb(7,193,201)" 
d="M 45.8 -120.9
Q 45.3,-121.0,44.9,-121.1
Q 44.0,-121.4,42.7,-120.9
Q 44.2,-120.9,45.8,-120.9
 " /> 
<path  
style="fill:rgb(7,193,201)" 
d="M -50.7 -92.4
Q -50.6,-96.1,-50.9,-96.1
Q -51.0,-96.0,-51.1,-96.0
Q -51.1,-92.8,-51.1,-92.5
Q -51.0,-92.3,-50.7,-92.4
 " /> 
<path  
style="fill:rgb(4,4,4)" 
d="M -50.7 -92.4
Q -50.4,-90.7,-50.2,-88.9
Q -48.6,-75.8,-39.5,-65.2
Q -28.4,-52.5,-15.6,-54.8
Q -7.8,-56.2,-3.0,-65.5
Q -2.2,-67.0,-1.5,-68.5
Q -1.2,-67.0,-0.9,-65.5
Q 0.0,-60.3,1.2,-61.5
Q 2.0,-62.3,-2.5,-82.3
Q -9.6,-114.0,-23.2,-123.6
Q -35.0,-131.8,-43.8,-122.1
Q -50.4,-114.8,-50.9,-101.3
Q -51.0,-98.7,-51.1,-96.0
Q -51.0,-96.0,-50.9,-96.1
Q -50.6,-96.1,-50.7,-92.4
 " /> 
<path  
style="fill:rgb(115,250,3)" 
d="M -38.7 -67.6
Q -35.6,-64.9,-34.5,-63.5
Q -33.9,-62.9,-33.3,-62.2
Q -24.7,-56.8,-20.2,-56.8
Q -12.4,-56.8,-7.4,-63.6
Q -6.6,-64.7,-5.8,-65.8
Q -5.6,-66.1,-5.5,-66.4
Q -5.2,-67.1,-4.4,-68.0
Q -4.0,-69.4,-3.6,-70.9
Q -2.7,-73.8,-3.6,-77.9
Q -9.5,-104.6,-18.9,-116.2
Q -19.9,-117.4,-20.9,-118.7
Q -21.3,-119.0,-21.8,-119.3
Q -22.6,-120.0,-23.6,-121.3
Q -24.4,-121.9,-25.3,-122.5
Q -27.1,-123.6,-29.1,-124.2
Q -30.1,-124.6,-31.1,-124.9
Q -33.3,-124.9,-35.6,-124.9
Q -38.3,-124.1,-40.0,-123.1
Q -40.3,-122.8,-40.5,-122.4
Q -41.1,-121.7,-42.7,-120.4
Q -47.7,-112.5,-48.2,-107.8
Q -48.3,-106.8,-48.4,-105.8
Q -48.4,-103.2,-48.5,-102.8
Q -48.6,-102.4,-48.9,-102.2
Q -48.9,-98.4,-48.9,-94.7
Q -48.8,-94.7,-48.6,-94.7
Q -48.5,-94.8,-48.5,-94.5
Q -48.4,-94.3,-48.4,-91.6
Q -47.6,-86.7,-46.6,-83.5
Q -45.1,-78.0,-38.7,-67.6
 " /> 
<path  
style="fill:rgb(255,255,255)" 
d="M -26.7 -83.1
Q -26.9,-83.3,-27.1,-83.5
Q -27.1,-83.5,-27.1,-83.5
Q -27.4,-83.1,-27.6,-82.7
Q -27.1,-82.9,-26.7,-83.1
 " /> 
<path  
style="fill:rgb(255,255,255)" 
d="M -26.7 -83.1
Q -26.3,-83.2,-25.9,-83.4
Q -25.2,-83.6,-23.7,-83.6
Q -23.0,-83.6,-22.2,-83.6
Q -22.5,-84.0,-22.9,-84.4
Q -25.2,-87.3,-27.1,-83.5
Q -26.9,-83.3,-26.7,-83.1
 " /> 
<path  
style="fill:rgb(31,181,0)" 
d="M -26.7 -83.1
Q -27.9,-81.8,-29.1,-80.4
Q -34.1,-74.9,-38.1,-82.8
Q -41.7,-90.0,-41.8,-100.9
Q -41.8,-103.3,-41.8,-105.8
Q -42.7,-104.0,-43.1,-104.1
Q -44.9,-104.5,-44.9,-98.7
Q -44.9,-87.3,-38.7,-74.8
Q -30.7,-58.7,-17.9,-62.6
Q -12.8,-64.1,-8.8,-69.0
Q -7.4,-70.7,-7.5,-72.6
Q -7.6,-74.6,-7.6,-75.6
Q -8.2,-75.4,-8.9,-75.3
Q -9.0,-75.3,-9.2,-75.3
Q -12.1,-75.1,-16.8,-79.3
Q -19.5,-81.8,-22.2,-83.6
Q -23.0,-83.6,-23.7,-83.6
Q -25.2,-83.6,-25.9,-83.4
Q -26.3,-83.2,-26.7,-83.1
 " /> 
<path  
style="fill:rgb(4,4,4)" 
d="M -26.7 -83.1
Q -27.1,-82.9,-27.6,-82.7
Q -27.4,-83.1,-27.1,-83.5
Q -27.1,-83.5,-27.1,-83.5
Q -25.2,-87.3,-22.9,-84.4
Q -22.5,-84.0,-22.2,-83.6
Q -19.5,-81.8,-16.8,-79.3
Q -12.1,-75.1,-9.2,-75.3
Q -9.3,-76.1,-9.3,-76.9
Q -14.7,-79.6,-17.6,-82.7
Q -20.6,-85.9,-22.0,-86.7
Q -26.2,-89.3,-29.8,-83.4
Q -31.3,-80.9,-32.3,-80.4
Q -35.8,-78.5,-38.8,-92.9
Q -39.2,-94.7,-39.6,-96.4
Q -39.7,-96.4,-39.8,-96.4
Q -40.0,-96.3,-40.0,-97.5
Q -40.0,-97.5,-40.0,-97.5
Q -40.0,-98.1,-40.0,-98.7
Q -40.0,-99.6,-40.0,-100.4
Q -40.1,-101.1,-40.2,-101.8
Q -40.5,-103.1,-40.0,-105.8
Q -39.6,-109.4,-38.5,-111.8
Q -38.1,-112.7,-37.7,-113.5
Q -38.4,-113.9,-39.1,-114.2
Q -39.7,-113.2,-40.2,-112.2
Q -41.4,-110.2,-41.8,-105.8
Q -41.8,-103.3,-41.8,-100.9
Q -41.7,-90.0,-38.1,-82.8
Q -34.1,-74.9,-29.1,-80.4
Q -27.9,-81.8,-26.7,-83.1
 " /> 
<path  
style="fill:rgb(4,4,4)" 
d="M -7.6 -75.6
Q -7.3,-75.8,-7.1,-76.0
Q -7.4,-76.1,-7.8,-76.3
Q -8.4,-76.5,-8.9,-76.7
Q -9.1,-76.8,-9.3,-76.9
Q -9.3,-76.1,-9.2,-75.3
Q -9.0,-75.3,-8.9,-75.3
Q -8.2,-75.4,-7.6,-75.6
 " /> 
<path  
style="fill:rgb(31,181,0)" 
d="M -39.1 -114.2
Q -38.4,-114.7,-38.0,-115.0
Q -38.1,-115.0,-38.1,-115.1
Q -38.6,-114.7,-39.1,-114.2
 " /> 
<path  
style="fill:rgb(4,4,4)" 
d="M -39.1 -114.2
Q -38.4,-113.9,-37.7,-113.5
Q -37.5,-113.9,-37.3,-114.2
Q -37.7,-114.6,-38.0,-115.0
Q -38.4,-114.7,-39.1,-114.2
 " /> 
<path  
style="fill:rgb(4,4,4)" 
d="M -37.3 -114.2
Q -37.6,-114.6,-37.9,-115.1
Q -38.1,-114.9,-38.5,-114.6
Q -37.7,-114.6,-37.3,-114.2
 " /> 
<path  
style="fill:rgb(4,4,4)" 
d="M -37.3 -114.2
Q -36.9,-115.6,-37.2,-115.5
Q -37.3,-115.4,-37.9,-115.1
Q -37.6,-114.6,-37.3,-114.2
 " /> 
<path  
style="fill:rgb(31,181,0)" 
d="M -37.3 -114.2
Q -36.4,-115.1,-36.8,-115.5
Q -37.1,-116.0,-38.1,-115.1
Q -38.1,-115.1,-38.1,-115.1
Q -38.1,-115.0,-38.0,-115.0
Q -37.7,-115.2,-37.5,-115.3
Q -37.3,-115.4,-37.2,-115.5
Q -36.9,-115.6,-37.3,-114.2
 " /> 
<path  
style="fill:rgb(31,181,0)" 
d="M -40.0 -105.8
Q -40.5,-103.1,-40.2,-101.8
Q -40.1,-101.1,-40.0,-100.4
Q -40.0,-103.1,-40.0,-105.8
 " /> 
<path  
style="fill:rgb(31,181,0)" 
d="M -40.0 -98.7
Q -40.0,-98.1,-40.0,-97.5
Q -39.8,-97.0,-39.6,-96.4
Q -39.6,-98.3,-39.6,-98.6
Q -39.7,-98.8,-40.0,-98.7
 " /> 
<path  
style="fill:rgb(31,181,0)" 
d="M -39.6 -96.4
Q -39.8,-97.0,-40.0,-97.5
Q -40.0,-97.5,-40.0,-97.5
Q -40.0,-96.3,-39.8,-96.4
Q -39.7,-96.4,-39.6,-96.4
 " /> 
<path  
style="fill:rgb(31,181,0)" 
d="M -9.3 -76.9
Q -9.1,-76.8,-8.9,-76.7
Q -8.4,-76.5,-7.8,-76.3
Q -7.4,-76.1,-7.1,-76.0
Q -7.5,-77.0,-8.4,-77.0
Q -8.9,-76.9,-9.3,-76.9
 " /> 
<path  
style="fill:rgb(209,251,185)" 
d="M -12.0 -83.7
Q -9.4,-82.4,-9.9,-83.9
Q -10.1,-84.7,-12.2,-89.3
Q -22.8,-113.0,-29.2,-107.5
Q -34.3,-103.0,-32.7,-97.5
Q -31.2,-92.3,-25.9,-90.9
Q -20.2,-89.3,-16.1,-86.4
Q -13.2,-84.3,-12.0,-83.7
 " /> 
<path  
style="fill:rgb(31,181,0)" 
d="M -38.7 -67.6
Q -38.0,-66.8,-37.3,-66.0
Q -36.0,-64.5,-34.7,-63.3
Q -34.0,-62.8,-33.3,-62.2
Q -33.9,-62.9,-34.5,-63.5
Q -35.6,-64.9,-38.7,-67.6
 " /> 
<path  
style="fill:rgb(31,181,0)" 
d="M -48.4 -91.6
Q -48.4,-94.3,-48.5,-94.5
Q -48.5,-94.8,-48.6,-94.7
Q -48.8,-94.7,-48.9,-94.7
Q -48.9,-91.9,-48.8,-91.6
Q -48.8,-91.4,-48.4,-91.6
 " /> 
<path  
style="fill:rgb(31,181,0)" 
d="M -48.9 -102.2
Q -48.6,-102.4,-48.5,-102.8
Q -48.4,-103.2,-48.4,-105.8
Q -48.5,-105.7,-48.6,-105.7
Q -48.8,-105.6,-48.9,-102.2
 " /> 
<path  
style="fill:rgb(31,181,0)" 
d="M -42.7 -120.4
Q -41.1,-121.7,-40.5,-122.4
Q -40.3,-122.8,-40.0,-123.1
Q -40.4,-122.8,-40.8,-122.5
Q -41.6,-121.8,-42.1,-121.1
Q -42.4,-120.8,-42.7,-120.4
 " /> 
<path  
style="fill:rgb(31,181,0)" 
d="M -35.6 -124.9
Q -33.3,-124.9,-31.1,-124.9
Q -31.7,-125.0,-32.2,-125.1
Q -33.3,-125.4,-34.4,-125.1
Q -35.0,-125.0,-35.6,-124.9
 " /> 
<path  
style="fill:rgb(31,181,0)" 
d="M -23.6 -121.3
Q -22.6,-120.0,-21.8,-119.3
Q -21.3,-119.0,-20.9,-118.7
Q -21.2,-119.1,-21.6,-119.5
Q -22.2,-120.4,-23.6,-121.3
 " /> 
<path  
style="fill:rgb(31,181,0)" 
d="M -4.4 -68.0
Q -5.2,-67.1,-5.5,-66.4
Q -5.6,-66.1,-5.8,-65.8
Q -5.0,-66.3,-4.4,-68.0
 " /> 
<path  
style="fill:rgb(14,103,171)" 
d="M -67.6 -93.8
Q -67.6,-94.9,-67.6,-96.0
Q -67.7,-95.7,-67.8,-95.3
Q -68.0,-94.7,-67.8,-94.2
Q -67.7,-94.0,-67.6,-93.8
 " /> 
<path  
style="fill:rgb(7,193,201)" 
d="M -67.6 -98.7
Q -67.4,-98.7,-67.3,-98.8
Q -67.1,-98.9,-67.1,-100.9
Q -67.5,-100.7,-67.6,-98.7
 " /> 
<path  
style="fill:rgb(14,103,171)" 
d="M -4.9 -146.2
Q -2.9,-146.2,-0.9,-146.2
Q -3.1,-146.7,-4.0,-146.5
Q -4.4,-146.3,-4.9,-146.2
 " /> 
<path  
style="fill:rgb(14,103,171)" 
d="M 39.6 -156.0
Q 40.9,-154.2,42.7,-152.9
Q 42.3,-153.3,42.0,-153.8
Q 41.3,-154.6,40.4,-155.3
Q 40.0,-155.7,39.6,-156.0
 " /> 
<path  
style="fill:rgb(7,193,201)" 
d="M 56.9 -130.7
Q 57.8,-129.4,58.5,-128.9
Q 58.8,-128.7,59.1,-128.4
Q 58.9,-128.8,58.6,-129.1
Q 58.2,-129.8,56.9,-130.7
 " /> 
<path  
style="fill:rgb(7,193,201)" 
d="M 75.6 -79.1
Q 75.5,-76.8,75.8,-76.8
Q 75.9,-76.9,76.0,-76.9
Q 76.0,-78.7,75.9,-79.0
Q 75.9,-79.2,75.6,-79.1
 " /> 
<path  
style="fill:rgb(7,193,201)" 
d="M 41.8 -11.1
Q 41.8,-9.6,41.8,-8.0
Q 41.9,-8.4,42.0,-8.9
Q 42.3,-9.8,41.8,-11.1
 " /> 
<path  
style="fill:rgb(14,103,171)" 
d="M 3.1 -8.9
Q 1.8,-8.9,0.4,-8.9
Q 0.8,-8.8,1.1,-8.6
Q 1.8,-8.4,3.1,-8.9
 " /> 
<path  
style="fill:rgb(14,103,171)" 
d="M -27.6 3.5
Q -28.9,4.5,-29.3,5.1
Q -29.5,5.4,-29.8,5.8
Q -29.4,5.5,-29.1,5.3
Q -28.5,4.9,-28.0,4.2
Q -27.8,3.9,-27.6,3.5
 " /> 
<path  
style="fill:rgb(4,4,4)" 
d="M 74.2 -49.3
Q 79.1,-51.1,81.7,-52.2
Q 86.3,-54.1,90.7,-57.3
Q 92.6,-58.7,93.0,-58.3
Q 94.2,-57.1,85.4,-52.6
Q 78.4,-49.1,75.4,-48.9
Q 74.8,-48.9,74.2,-48.9
Q 70.2,-40.9,68.4,-38.6
Q 66.6,-36.4,66.9,-36.1
Q 67.1,-35.9,71.2,-36.9
Q 83.4,-39.8,94.7,-47.3
Q 96.2,-48.3,97.8,-49.3
Q 98.0,-49.7,98.2,-50.0
Q 98.7,-50.6,99.3,-51.1
Q 99.7,-51.3,100.0,-51.6
Q 101.8,-52.9,102.4,-53.8
Q 102.8,-54.2,103.1,-54.7
Q 103.3,-55.0,103.6,-55.3
Q 104.0,-56.0,105.3,-56.9
Q 105.8,-57.6,106.2,-58.2
Q 107.1,-59.6,108.4,-61.9
Q 113.4,-70.7,105.2,-64.3
Q 102.1,-61.8,99.1,-61.8
Q 98.9,-62.0,98.6,-62.2
Q 98.1,-62.6,98.4,-63.3
Q 98.5,-63.6,98.7,-64.0
Q 99.1,-65.3,99.6,-66.7
Q 100.4,-69.3,101.5,-70.8
Q 102.5,-72.3,104.8,-76.0
Q 107.0,-79.8,109.9,-84.2
Q 119.2,-97.9,121.3,-111.6
Q 121.3,-113.1,121.3,-114.7
Q 121.1,-115.0,120.9,-115.3
Q 119.8,-116.9,114.2,-109.7
Q 112.0,-106.8,109.8,-104.0
Q 108.4,-102.7,108.0,-102.7
Q 107.8,-102.7,107.6,-102.7
Q 107.3,-103.0,107.1,-103.3
Q 106.7,-104.0,110.2,-115.1
Q 113.8,-126.2,114.7,-130.4
Q 115.1,-132.6,115.6,-134.7
Q 115.6,-136.7,116.0,-136.9
Q 116.0,-137.6,116.0,-138.2
Q 116.0,-140.3,116.2,-140.4
Q 116.3,-140.4,116.4,-140.4
Q 116.4,-150.3,114.6,-153.8
Q 111.1,-160.7,104.7,-140.4
Q 100.2,-126.5,97.0,-131.0
Q 96.3,-132.2,93.3,-140.9
Q 89.5,-152.3,87.2,-155.8
Q 86.3,-157.3,85.3,-158.7
Q 85.0,-158.9,84.7,-159.1
Q 84.0,-159.6,83.1,-160.9
Q 82.6,-161.0,82.0,-161.1
Q 79.1,-161.7,79.1,-152.0
Q 79.6,-149.3,79.3,-148.2
Q 79.2,-147.7,79.1,-147.1
Q 79.1,-141.8,76.6,-140.9
Q 75.5,-140.5,73.7,-141.4
Q 72.9,-141.8,72.0,-142.2
Q 71.4,-142.7,70.9,-143.1
Q 69.8,-144.0,68.9,-144.9
Q 68.4,-145.3,68.0,-145.8
Q 69.3,-141.3,69.2,-139.0
Q 68.8,-133.8,61.1,-140.5
Q 59.4,-142.0,59.1,-142.1
Q 58.8,-142.3,59.4,-140.5
Q 60.7,-136.7,56.5,-135.5
Q 55.9,-135.3,57.5,-133.7
Q 58.3,-132.8,59.1,-132.0
Q 59.7,-131.5,60.2,-131.1
Q 61.3,-130.2,63.1,-128.0
Q 63.6,-128.6,64.2,-129.1
Q 64.0,-129.3,64.0,-130.0
Q 64.0,-133.8,65.0,-133.8
Q 65.4,-133.8,65.2,-131.7
Q 65.0,-129.7,64.5,-129.2
Q 64.3,-129.0,64.2,-129.1
Q 63.6,-128.6,63.1,-128.0
Q 66.2,-124.4,68.2,-121.0
Q 72.1,-114.1,74.2,-105.1
Q 74.7,-103.2,75.1,-101.3
Q 76.0,-102.1,76.9,-102.9
Q 84.7,-109.7,85.1,-131.2
Q 85.4,-141.1,85.8,-139.7
Q 86.8,-136.0,86.5,-127.8
Q 85.5,-107.0,75.1,-100.4
Q 76.0,-96.9,76.4,-93.8
Q 76.9,-90.7,77.3,-84.7
Q 77.4,-83.7,77.5,-82.8
Q 77.6,-82.8,77.8,-82.8
Q 77.8,-83.3,79.7,-84.8
Q 82.9,-87.3,88.9,-94.7
Q 101.7,-110.4,106.7,-124.6
Q 108.3,-129.5,108.8,-128.3
Q 109.5,-126.5,103.6,-114.8
Q 95.8,-99.5,83.6,-87.1
Q 77.8,-81.1,77.8,-82.8
Q 77.6,-82.8,77.5,-82.8
Q 77.6,-80.7,77.8,-78.7
Q 77.9,-78.7,78.0,-78.7
Q 78.3,-78.8,78.2,-76.7
Q 78.2,-75.7,78.2,-74.7
Q 78.2,-71.6,78.2,-68.4
Q 82.2,-69.8,85.0,-71.3
Q 90.7,-74.4,93.7,-78.5
Q 95.0,-80.3,97.8,-83.6
Q 100.6,-86.9,101.9,-89.0
Q 103.3,-91.1,103.7,-91.1
Q 105.3,-91.1,97.1,-80.9
Q 88.6,-70.4,78.2,-67.1
Q 78.0,-64.9,77.8,-62.7
Q 77.0,-55.0,74.2,-49.3
 " /> 
<path  
style="fill:rgb(97,247,248)" 
d="M 71.8 -121.2
Q 71.5,-119.6,71.9,-119.6
Q 73.1,-119.6,73.6,-125.1
Q 74.0,-128.7,73.3,-130.3
Q 72.6,-131.8,72.3,-126.8
Q 72.0,-122.9,71.8,-121.2
 " /> 
<path  
style="fill:rgb(97,247,248)" 
d="M 74.2 -49.3
Q 74.2,-49.1,74.2,-48.9
Q 74.8,-48.9,75.4,-48.9
Q 78.4,-49.1,85.4,-52.6
Q 94.2,-57.1,93.0,-58.3
Q 92.6,-58.7,90.7,-57.3
Q 86.3,-54.1,81.7,-52.2
Q 79.1,-51.1,74.2,-49.3
 " /> 
<path  
style="fill:rgb(97,247,248)" 
d="M 78.2 -67.1
Q 88.6,-70.4,97.1,-80.9
Q 105.3,-91.1,103.7,-91.1
Q 103.3,-91.1,101.9,-89.0
Q 100.6,-86.9,97.8,-83.6
Q 95.0,-80.3,93.7,-78.5
Q 90.7,-74.4,85.0,-71.3
Q 82.2,-69.8,78.2,-68.4
Q 78.2,-67.8,78.2,-67.1
 " /> 
<path  
style="fill:rgb(14,103,171)" 
d="M 78.2 -74.7
Q 78.2,-75.7,78.2,-76.7
Q 78.3,-78.8,78.0,-78.7
Q 77.9,-78.7,77.8,-78.7
Q 77.8,-77.6,77.8,-76.6
Q 77.8,-74.5,78.0,-74.6
Q 78.1,-74.6,78.2,-74.7
 " /> 
<path  
style="fill:rgb(97,247,248)" 
d="M 75.1 -100.4
Q 85.5,-107.0,86.5,-127.8
Q 86.8,-136.0,85.8,-139.7
Q 85.4,-141.1,85.1,-131.2
Q 84.7,-109.7,76.9,-102.9
Q 76.0,-102.1,75.1,-101.3
Q 75.1,-100.9,75.1,-100.4
 " /> 
<path  
style="fill:rgb(14,103,171)" 
d="M 63.1 -128.0
Q 61.3,-130.2,60.2,-131.1
Q 59.7,-131.5,59.1,-132.0
Q 60.9,-129.8,62.0,-128.9
Q 62.6,-128.4,63.1,-128.0
 " /> 
<path  
style="fill:rgb(14,103,171)" 
d="M 68.0 -145.8
Q 68.4,-145.3,68.9,-144.9
Q 69.8,-144.0,70.9,-143.1
Q 71.4,-142.7,72.0,-142.2
Q 70.9,-143.3,69.9,-144.3
Q 68.8,-145.3,67.7,-146.3
Q 67.8,-146.2,67.9,-146.1
Q 67.9,-145.9,68.0,-145.8
 " /> 
<path  
style="fill:rgb(14,103,171)" 
d="M 79.1 -147.1
Q 79.2,-147.7,79.3,-148.2
Q 79.6,-149.3,79.1,-152.0
Q 79.1,-149.6,79.1,-147.1
 " /> 
<path  
style="fill:rgb(14,103,171)" 
d="M 83.1 -160.9
Q 84.0,-159.6,84.7,-159.1
Q 85.0,-158.9,85.3,-158.7
Q 85.1,-159.0,84.9,-159.3
Q 84.4,-160.0,83.1,-160.9
 " /> 
<path  
style="fill:rgb(14,103,171)" 
d="M 116.4 -140.4
Q 116.3,-140.4,116.2,-140.4
Q 116.0,-140.3,116.0,-138.2
Q 116.1,-138.3,116.2,-138.3
Q 116.4,-138.4,116.4,-140.4
 " /> 
<path  
style="fill:rgb(14,103,171)" 
d="M 116.0 -136.9
Q 115.6,-136.7,115.6,-134.7
Q 116.0,-134.8,116.0,-135.8
Q 116.0,-136.4,116.0,-136.9
 " /> 
<path  
style="fill:rgb(14,103,171)" 
d="M 107.6 -102.7
Q 107.8,-102.7,108.0,-102.7
Q 108.4,-102.7,109.8,-104.0
Q 108.6,-103.0,107.6,-102.7
 " /> 
<path  
style="fill:rgb(14,103,171)" 
d="M 121.3 -114.7
Q 121.3,-113.1,121.3,-111.6
Q 121.8,-113.3,121.3,-114.7
 " /> 
<path  
style="fill:rgb(14,103,171)" 
d="M 98.7 -64.0
Q 98.5,-63.6,98.4,-63.3
Q 98.1,-62.6,98.6,-62.2
Q 98.9,-62.0,99.1,-61.8
Q 99.0,-61.9,98.8,-62.0
Q 98.6,-62.2,98.6,-63.1
Q 98.6,-63.5,98.7,-64.0
 " /> 
<path  
style="fill:rgb(14,103,171)" 
d="M 105.3 -56.9
Q 104.0,-56.0,103.6,-55.3
Q 103.3,-55.0,103.1,-54.7
Q 104.4,-55.6,104.9,-56.2
Q 105.1,-56.6,105.3,-56.9
 " /> 
<path  
style="fill:rgb(14,103,171)" 
d="M 100.0 -51.6
Q 99.7,-51.3,99.3,-51.1
Q 98.7,-50.6,98.2,-50.0
Q 98.0,-49.7,97.8,-49.3
Q 99.1,-50.2,99.5,-50.9
Q 99.8,-51.2,100.0,-51.6
 " /> 
<path  
style="fill:rgb(97,247,248)" 
d="M 77.8 -82.8
Q 77.8,-81.1,83.6,-87.1
Q 95.8,-99.5,103.6,-114.8
Q 109.5,-126.5,108.8,-128.3
Q 108.3,-129.5,106.7,-124.6
Q 101.7,-110.4,88.9,-94.7
Q 82.9,-87.3,79.7,-84.8
Q 77.8,-83.3,77.8,-82.8
 " /> 
<path  
style="fill:rgb(97,247,248)" 
d="M 64.0 -130.0
Q 64.0,-129.3,64.2,-129.1
Q 64.3,-129.0,64.5,-129.2
Q 65.0,-129.7,65.2,-131.7
Q 65.4,-133.8,65.0,-133.8
Q 64.0,-133.8,64.0,-130.0
 " /> 
<path  
style="fill:rgb(14,103,171)" 
d="M -95.1 -53.8
Q -94.2,-52.5,-92.9,-51.6
Q -93.8,-52.9,-94.5,-53.3
Q -94.8,-53.5,-95.1,-53.8
 " /> 
<path  
style="fill:rgb(7,193,201)" 
d="M -95.1 -53.8
Q -95.6,-54.2,-96.0,-54.7
Q -95.9,-54.4,-95.7,-54.2
Q -95.4,-53.7,-95.1,-53.8
 " /> 
<path  
style="fill:rgb(14,103,171)" 
d="M -96.0 -54.7
Q -97.4,-56.4,-98.2,-57.1
Q -98.7,-57.4,-99.1,-57.8
Q -97.8,-56.0,-96.0,-54.7
 " /> 
<path  
style="fill:rgb(4,4,4)" 
d="M -101.8 -139.6
Q -100.0,-133.3,-98.4,-127.9
Q -94.8,-115.7,-91.6,-116.0
Q -91.2,-116.0,-90.2,-117.3
Q -90.2,-118.7,-90.2,-120.0
Q -90.2,-122.2,-91.4,-126.1
Q -94.4,-136.6,-96.0,-147.6
Q -96.3,-147.4,-96.4,-147.6
Q -96.4,-147.9,-96.4,-150.2
Q -96.4,-153.0,-96.3,-155.8
Q -96.1,-161.3,-95.4,-163.6
Q -95.0,-164.7,-94.7,-165.8
Q -93.2,-167.5,-92.8,-167.3
Q -92.6,-167.2,-92.4,-167.1
Q -90.1,-165.5,-89.5,-163.5
Q -89.0,-161.5,-88.5,-160.0
Q -88.1,-158.4,-87.6,-155.8
Q -87.1,-153.1,-86.7,-151.3
Q -86.1,-148.8,-85.5,-142.7
Q -84.5,-130.7,-82.2,-130.7
Q -80.8,-130.7,-80.3,-134.7
Q -78.9,-145.3,-76.6,-149.9
Q -75.6,-144.7,-75.6,-140.7
Q -75.5,-131.4,-75.0,-130.8
Q -73.5,-129.4,-72.6,-134.3
Q -72.0,-137.1,-71.4,-140.4
Q -70.7,-143.8,-70.0,-147.3
Q -68.9,-153.3,-66.3,-160.2
Q -63.9,-166.5,-62.1,-166.8
Q -60.9,-167.0,-60.7,-160.4
Q -60.6,-157.8,-60.4,-155.1
Q -59.6,-155.1,-58.7,-155.0
Q -58.3,-166.5,-60.0,-168.4
Q -63.1,-171.7,-67.3,-163.3
Q -70.5,-156.7,-72.2,-147.3
Q -72.9,-143.3,-73.4,-141.8
Q -73.6,-141.0,-73.8,-140.2
Q -73.8,-154.3,-77.5,-151.9
Q -79.8,-150.3,-80.8,-144.5
Q -81.3,-142.0,-82.4,-135.4
Q -82.5,-136.1,-82.7,-136.9
Q -83.1,-138.4,-83.8,-144.7
Q -86.5,-170.9,-93.6,-169.1
Q -98.1,-168.0,-98.5,-155.3
Q -98.7,-146.7,-96.7,-138.0
Q -96.1,-135.3,-95.4,-132.4
Q -94.7,-129.5,-93.6,-126.2
Q -92.6,-122.9,-91.9,-118.5
Q -92.4,-119.0,-92.9,-119.6
Q -94.1,-121.0,-97.0,-130.9
Q -98.8,-137.3,-100.5,-140.3
Q -101.1,-139.9,-101.8,-139.6
 " /> 
<path  
style="fill:rgb(14,103,171)" 
d="M -90.2 -117.3
Q -90.1,-117.7,-90.0,-118.0
Q -89.7,-118.7,-90.0,-119.3
Q -90.1,-119.7,-90.2,-120.0
Q -90.2,-118.7,-90.2,-117.3
 " /> 
<path  
style="fill:rgb(14,103,171)" 
d="M -96.0 -147.6
Q -96.0,-148.3,-96.0,-149.0
Q -96.2,-149.6,-96.4,-150.2
Q -96.4,-147.9,-96.4,-147.6
Q -96.3,-147.4,-96.0,-147.6
 " /> 
<path  
style="fill:rgb(14,103,171)" 
d="M -96.4 -150.2
Q -96.2,-149.6,-96.0,-149.0
Q -96.0,-149.0,-96.0,-149.0
Q -95.9,-150.4,-96.4,-150.2
 " /> 
<path  
style="fill:rgb(14,103,171)" 
d="M -94.7 -165.8
Q -94.4,-166.0,-94.2,-166.2
Q -93.7,-166.6,-93.1,-166.8
Q -92.8,-167.0,-92.4,-167.1
Q -92.6,-167.2,-92.8,-167.3
Q -93.2,-167.5,-94.7,-165.8
 " /> 
<path  
style="fill:rgb(14,103,171)" 
d="M -60.4 -155.1
Q -60.9,-154.9,-60.9,-152.4
Q -60.5,-152.6,-60.5,-153.9
Q -60.5,-154.5,-60.4,-155.1
 " /> 
<path  
style="fill:rgb(14,103,171)" 
d="M -61.3 -143.1
Q -61.8,-141.8,-61.6,-141.1
Q -61.5,-140.8,-61.3,-140.4
Q -61.3,-141.8,-61.3,-143.1
 " /> 
<path  
style="fill:rgb(97,247,248)" 
d="M -64.4 -121.8
Q -64.7,-121.3,-64.9,-120.9
Q -64.8,-120.9,-64.7,-121.0
Q -64.5,-121.0,-64.5,-121.4
Q -64.5,-121.6,-64.4,-121.8
 " /> 
<path  
style="fill:rgb(97,247,248)" 
d="M -64.4 -121.8
Q -65.0,-122.7,-65.5,-123.6
Q -67.5,-126.8,-67.5,-132.8
Q -67.6,-134.2,-67.8,-134.2
Q -68.0,-134.2,-68.1,-131.0
Q -68.1,-127.7,-67.4,-125.4
Q -66.7,-123.1,-64.9,-120.9
Q -64.7,-121.3,-64.4,-121.8
 " /> 
<path  
style="fill:rgb(97,247,248)" 
d="M -68.4 -107.6
Q -68.7,-106.9,-68.9,-106.2
Q -68.8,-106.3,-68.7,-106.3
Q -68.5,-106.4,-68.5,-107.0
Q -68.5,-107.3,-68.4,-107.6
 " /> 
<path  
style="fill:rgb(97,247,248)" 
d="M -68.4 -107.6
Q -69.4,-108.5,-70.4,-109.4
Q -73.8,-112.6,-76.4,-120.6
Q -77.4,-123.6,-77.8,-123.2
Q -78.8,-122.3,-75.1,-114.4
Q -73.8,-111.6,-68.9,-106.2
Q -68.7,-106.9,-68.4,-107.6
 " /> 
<path  
style="fill:rgb(14,103,171)" 
d="M -69.8 -94.2
Q -69.9,-94.0,-70.0,-93.8
Q -70.3,-93.3,-70.0,-92.7
Q -69.9,-92.3,-69.8,-92.0
Q -69.8,-93.1,-69.8,-94.2
 " /> 
<path  
style="fill:rgb(14,103,171)" 
d="M -69.8 -90.2
Q -69.9,-89.4,-70.0,-88.7
Q -70.2,-87.1,-70.0,-85.6
Q -69.9,-84.8,-69.8,-84.0
Q -69.8,-87.1,-69.8,-90.2
 " /> 
<path  
style="fill:rgb(14,103,171)" 
d="M -69.8 -81.8
Q -69.8,-81.1,-69.8,-80.4
Q -69.6,-79.7,-69.3,-79.1
Q -69.3,-82.0,-69.6,-81.9
Q -69.7,-81.8,-69.8,-81.8
 " /> 
<path  
style="fill:rgb(14,103,171)" 
d="M -69.3 -79.1
Q -69.6,-79.7,-69.8,-80.4
Q -69.8,-80.4,-69.8,-80.4
Q -69.8,-79.0,-69.3,-79.1
 " /> 
<path  
style="fill:rgb(97,247,248)" 
d="M -68.9 -75.6
Q -79.5,-79.5,-87.1,-93.7
Q -88.6,-96.4,-89.0,-96.4
Q -89.9,-96.4,-87.1,-91.3
Q -81.1,-80.1,-72.0,-75.6
Q -70.2,-74.7,-68.4,-73.8
Q -68.6,-73.9,-68.7,-74.0
Q -69.0,-74.2,-68.9,-74.9
Q -68.9,-75.2,-68.9,-75.6
 " /> 
<path  
style="fill:rgb(97,247,248)" 
d="M -60.4 -46.2
Q -61.5,-46.4,-62.5,-46.5
Q -74.4,-48.5,-89.8,-63.0
Q -92.4,-65.4,-92.6,-65.0
Q -93.3,-63.9,-85.2,-57.5
Q -70.8,-46.0,-61.8,-45.1
Q -60.7,-45.0,-59.6,-44.9
Q -60.0,-45.6,-60.4,-46.2
 " /> 
<path  
style="fill:rgb(7,193,201)" 
d="M -12.9 -159.1
Q -12.4,-158.8,-12.0,-158.4
Q -11.1,-157.8,-10.2,-156.4
Q -9.4,-155.4,-8.7,-154.4
Q -7.1,-152.4,-5.7,-150.2
Q -4.4,-148.0,-1.8,-148.0
Q 0.7,-148.0,2.6,-147.8
Q 4.4,-147.6,5.7,-149.7
Q 7.0,-151.8,8.6,-153.4
Q 9.4,-154.3,10.2,-155.1
Q 10.7,-155.6,11.1,-156.2
Q 12.0,-157.2,12.9,-157.9
Q 13.3,-158.3,13.8,-158.7
Q 19.1,-162.2,21.5,-169.3
Q 25.2,-180.5,25.8,-184.4
Q 26.0,-186.0,26.2,-187.6
Q 26.2,-188.2,26.1,-188.9
Q 26.1,-188.9,26.1,-189.0
Q 25.5,-189.2,24.9,-189.3
Q 22.2,-184.4,20.7,-180.8
Q 19.2,-177.1,18.0,-173.8
Q 16.4,-169.2,15.5,-170.1
Q 15.0,-170.6,16.8,-175.6
Q 18.5,-180.7,18.0,-182.1
Q 16.6,-186.0,13.6,-186.0
Q 11.8,-186.0,11.5,-184.7
Q 9.9,-179.2,9.0,-175.0
Q 8.8,-173.7,8.1,-173.5
Q 6.3,-172.8,7.4,-176.3
Q 9.6,-183.7,8.8,-185.2
Q 8.3,-186.3,9.3,-187.0
Q 10.2,-187.8,11.2,-194.5
Q 12.1,-201.2,11.5,-202.9
Q 11.3,-202.4,11.1,-202.0
Q 9.5,-198.3,7.2,-184.9
Q 6.8,-183.0,6.0,-182.8
Q 4.8,-182.5,6.2,-189.9
Q 7.0,-193.9,4.6,-198.5
Q 3.3,-200.9,0.8,-202.9
Q 0.8,-200.1,0.9,-197.3
Q 1.4,-197.5,1.4,-195.9
Q 1.4,-195.9,1.4,-195.9
Q 1.3,-195.0,1.3,-194.2
Q 1.4,-193.4,1.5,-192.7
Q 1.8,-191.1,1.8,-184.0
Q 1.9,-183.7,2.0,-183.3
Q 2.3,-182.7,2.0,-182.2
Q 1.9,-182.0,1.8,-181.8
Q 0.8,-179.9,0.4,-183.9
Q 0.3,-184.8,0.2,-186.0
Q -0.3,-195.2,-2.2,-205.8
Q -5.1,-221.7,-7.0,-220.8
Q -7.3,-220.7,-8.4,-217.8
Q -8.4,-215.8,-8.7,-215.7
Q -8.8,-215.6,-8.9,-215.6
Q -8.9,-215.3,-8.9,-215.1
Q -8.5,-215.2,-8.4,-215.0
Q -8.4,-214.7,-8.4,-211.1
Q -8.4,-208.4,-8.4,-205.8
Q -8.3,-205.8,-8.2,-205.9
Q -7.9,-205.9,-8.0,-204.3
Q -8.0,-204.3,-8.0,-204.3
Q -8.0,-203.5,-8.0,-202.7
Q -7.6,-200.0,-7.6,-196.9
Q -7.4,-196.9,-7.3,-197.0
Q -7.0,-197.0,-7.1,-195.9
Q -7.1,-195.9,-7.1,-195.9
Q -7.1,-195.3,-7.1,-194.7
Q -6.7,-193.3,-6.7,-190.2
Q -6.1,-190.4,-6.2,-189.0
Q -6.2,-189.0,-6.2,-189.0
Q -6.2,-188.3,-6.2,-187.6
Q -6.2,-186.9,-6.2,-186.2
Q -5.7,-186.4,-5.7,-185.2
Q -5.7,-185.2,-5.7,-185.2
Q -5.8,-184.6,-5.8,-184.0
Q -6.7,-183.1,-7.1,-183.3
Q -7.5,-183.6,-7.6,-184.9
Q -7.7,-184.9,-7.8,-184.8
Q -8.1,-184.7,-8.0,-187.1
Q -8.0,-187.8,-8.0,-188.4
Q -8.1,-188.4,-8.3,-188.4
Q -8.5,-188.3,-8.4,-190.7
Q -9.3,-195.6,-9.3,-197.1
Q -9.3,-197.9,-9.3,-198.7
Q -9.8,-198.5,-9.8,-199.9
Q -9.8,-199.9,-9.8,-199.9
Q -9.8,-200.6,-9.8,-201.3
Q -10.2,-202.2,-11.1,-201.3
Q -14.2,-198.1,-10.5,-187.8
Q -8.7,-182.7,-9.8,-182.4
Q -10.5,-182.2,-11.4,-185.0
Q -13.6,-191.4,-15.1,-194.9
Q -15.9,-196.7,-16.7,-198.7
Q -17.5,-200.6,-17.9,-201.1
Q -18.1,-201.3,-18.3,-201.5
Q -18.1,-200.6,-18.0,-199.6
Q -17.7,-197.6,-17.0,-194.9
Q -16.4,-192.2,-16.0,-190.6
Q -15.6,-188.9,-15.1,-187.1
Q -14.7,-185.3,-14.3,-183.7
Q -13.5,-180.7,-11.0,-172.5
Q -10.6,-171.0,-11.1,-170.5
Q -12.1,-169.5,-12.9,-172.5
Q -13.3,-174.0,-14.4,-177.8
Q -15.6,-181.5,-16.0,-183.1
Q -17.5,-189.1,-18.5,-188.9
Q -21.3,-188.5,-22.0,-185.5
Q -22.4,-184.3,-14.9,-172.9
Q -10.8,-166.7,-12.2,-166.7
Q -13.1,-166.7,-16.7,-172.2
Q -18.3,-174.9,-19.3,-176.2
Q -23.1,-181.4,-25.1,-185.1
Q -26.1,-186.9,-27.6,-189.3
Q -29.0,-191.7,-30.4,-194.1
Q -31.9,-196.6,-32.4,-196.1
Q -32.6,-195.8,-32.9,-195.6
Q -32.8,-195.6,-32.6,-195.6
Q -32.4,-195.7,-32.4,-193.3
Q -28.8,-167.7,-21.0,-164.6
Q -17.7,-163.2,-12.9,-159.1
 " /> 
<path  
style="fill:rgb(14,103,171)" 
d="M -12.9 -159.1
Q -12.5,-158.7,-12.2,-158.2
Q -11.5,-157.4,-10.2,-156.4
Q -11.1,-157.8,-12.0,-158.4
Q -12.4,-158.8,-12.9,-159.1
 " /> 
<path  
style="fill:rgb(14,103,171)" 
d="M -32.4 -193.3
Q -32.4,-195.7,-32.6,-195.6
Q -32.8,-195.6,-32.9,-195.6
Q -32.9,-193.6,-32.8,-193.4
Q -32.8,-193.2,-32.4,-193.3
 " /> 
<path  
style="fill:rgb(14,103,171)" 
d="M -9.8 -201.3
Q -9.8,-200.6,-9.8,-199.9
Q -9.6,-199.3,-9.3,-198.7
Q -9.3,-199.4,-9.3,-200.1
Q -9.3,-201.6,-9.8,-201.3
 " /> 
<path  
style="fill:rgb(14,103,171)" 
d="M -9.3 -198.7
Q -9.6,-199.3,-9.8,-199.9
Q -9.8,-199.9,-9.8,-199.9
Q -9.8,-198.5,-9.3,-198.7
 " /> 
<path  
style="fill:rgb(14,103,171)" 
d="M -8.4 -190.7
Q -8.5,-188.3,-8.3,-188.4
Q -8.1,-188.4,-8.0,-188.4
Q -8.0,-189.6,-8.0,-190.2
Q -8.0,-190.5,-8.1,-190.6
Q -8.1,-190.8,-8.4,-190.7
 " /> 
<path  
style="fill:rgb(4,4,4)" 
d="M -8.0 -188.4
Q -7.3,-188.5,-6.7,-188.5
Q -6.7,-189.1,-6.7,-190.2
Q -7.3,-190.2,-8.0,-190.2
Q -8.0,-189.6,-8.0,-188.4
 " /> 
<path  
style="fill:rgb(4,4,4)" 
d="M -8.0 -188.4
Q -8.0,-187.8,-8.0,-187.1
Q -7.8,-187.2,-7.7,-187.0
Q -7.0,-187.2,-6.3,-187.5
Q -6.6,-187.4,-6.6,-187.6
Q -6.6,-187.7,-6.7,-188.5
Q -7.3,-188.5,-8.0,-188.4
 " /> 
<path  
style="fill:rgb(14,103,171)" 
d="M -8.0 -187.1
Q -8.1,-184.7,-7.8,-184.8
Q -7.7,-184.9,-7.6,-184.9
Q -7.6,-185.5,-7.6,-186.1
Q -7.6,-186.2,-7.6,-186.2
Q -7.6,-186.8,-7.7,-187.0
Q -7.8,-187.2,-8.0,-187.1
 " /> 
<path  
style="fill:rgb(4,4,4)" 
d="M -7.6 -184.9
Q -6.9,-184.9,-6.2,-184.9
Q -6.2,-185.4,-6.2,-186.2
Q -6.9,-186.2,-7.6,-186.2
Q -7.6,-186.2,-7.6,-186.1
Q -7.6,-185.5,-7.6,-184.9
 " /> 
<path  
style="fill:rgb(4,4,4)" 
d="M -7.6 -184.9
Q -7.5,-183.6,-7.1,-183.3
Q -6.7,-183.1,-5.8,-184.0
Q -6.1,-183.8,-6.2,-184.1
Q -6.2,-184.2,-6.2,-184.9
Q -6.9,-184.9,-7.6,-184.9
 " /> 
<path  
style="fill:rgb(14,103,171)" 
d="M -5.8 -184.0
Q -5.8,-184.6,-5.7,-185.2
Q -6.0,-185.7,-6.2,-186.2
Q -6.2,-185.4,-6.2,-184.9
Q -6.2,-184.2,-6.2,-184.1
Q -6.1,-183.8,-5.8,-184.0
 " /> 
<path  
style="fill:rgb(4,4,4)" 
d="M -6.2 -186.2
Q -6.2,-186.9,-6.2,-187.6
Q -6.3,-187.5,-6.3,-187.5
Q -7.0,-187.2,-7.7,-187.0
Q -7.6,-186.7,-7.6,-186.2
Q -6.9,-186.2,-6.2,-186.2
 " /> 
<path  
style="fill:rgb(14,103,171)" 
d="M -6.2 -186.2
Q -6.0,-185.7,-5.7,-185.2
Q -5.7,-185.2,-5.7,-185.2
Q -5.7,-186.4,-6.2,-186.2
 " /> 
<path  
style="fill:rgb(14,103,171)" 
d="M -6.2 -187.6
Q -6.2,-188.3,-6.2,-189.0
Q -6.4,-189.6,-6.7,-190.2
Q -6.7,-189.1,-6.7,-188.5
Q -6.6,-187.7,-6.6,-187.6
Q -6.6,-187.4,-6.3,-187.5
Q -6.3,-187.5,-6.2,-187.6
 " /> 
<path  
style="fill:rgb(14,103,171)" 
d="M -6.7 -190.2
Q -6.4,-189.6,-6.2,-189.0
Q -6.2,-189.0,-6.2,-189.0
Q -6.1,-190.4,-6.7,-190.2
 " /> 
<path  
style="fill:rgb(14,103,171)" 
d="M -7.1 -194.7
Q -7.1,-195.3,-7.1,-195.9
Q -7.3,-196.4,-7.6,-196.9
Q -7.6,-196.3,-7.6,-195.7
Q -7.6,-194.4,-7.1,-194.7
 " /> 
<path  
style="fill:rgb(14,103,171)" 
d="M -7.6 -196.9
Q -7.3,-196.4,-7.1,-195.9
Q -7.1,-195.9,-7.1,-195.9
Q -7.0,-197.0,-7.3,-197.0
Q -7.4,-196.9,-7.6,-196.9
 " /> 
<path  
style="fill:rgb(14,103,171)" 
d="M -8.0 -202.7
Q -8.0,-203.5,-8.0,-204.3
Q -8.2,-205.0,-8.4,-205.8
Q -8.4,-203.0,-8.4,-202.7
Q -8.3,-202.5,-8.0,-202.7
 " /> 
<path  
style="fill:rgb(14,103,171)" 
d="M -8.4 -205.8
Q -8.2,-205.0,-8.0,-204.3
Q -8.0,-204.3,-8.0,-204.3
Q -7.9,-205.9,-8.2,-205.9
Q -8.3,-205.8,-8.4,-205.8
 " /> 
<path  
style="fill:rgb(14,103,171)" 
d="M -8.4 -211.1
Q -8.4,-214.7,-8.4,-215.0
Q -8.5,-215.2,-8.9,-215.1
Q -8.9,-211.4,-8.8,-211.2
Q -8.8,-210.9,-8.4,-211.1
 " /> 
<path  
style="fill:rgb(4,4,4)" 
d="M -8.9 -215.1
Q -8.9,-215.3,-8.9,-215.6
Q -8.9,-216.1,-8.9,-216.6
Q -8.8,-217.6,-8.4,-217.8
Q -9.2,-217.9,-10.0,-218.0
Q -10.3,-215.9,-10.3,-213.0
Q -9.6,-215.1,-8.9,-215.1
 " /> 
<path  
style="fill:rgb(14,103,171)" 
d="M -8.9 -215.6
Q -8.8,-215.6,-8.7,-215.7
Q -8.4,-215.8,-8.4,-217.8
Q -8.8,-217.6,-8.9,-216.6
Q -8.9,-216.1,-8.9,-215.6
 " /> 
<path  
style="fill:rgb(14,103,171)" 
d="M 1.8 -181.8
Q 1.9,-182.0,2.0,-182.2
Q 2.3,-182.7,2.0,-183.3
Q 1.9,-183.7,1.8,-184.0
Q 1.8,-182.9,1.8,-181.8
 " /> 
<path  
style="fill:rgb(4,4,4)" 
d="M 1.8 -181.8
Q 1.8,-182.9,1.8,-184.0
Q 1.1,-183.9,0.4,-183.9
Q 0.8,-179.9,1.8,-181.8
 " /> 
<path  
style="fill:rgb(14,103,171)" 
d="M 1.3 -194.2
Q 1.3,-195.0,1.4,-195.9
Q 1.1,-196.6,0.9,-197.3
Q 0.9,-194.5,0.9,-194.3
Q 1.0,-194.1,1.3,-194.2
 " /> 
<path  
style="fill:rgb(14,103,171)" 
d="M 0.9 -197.3
Q 1.1,-196.6,1.4,-195.9
Q 1.4,-195.9,1.4,-195.9
Q 1.4,-197.5,0.9,-197.3
 " /> 
<path  
style="fill:rgb(14,103,171)" 
d="M 24.9 -189.3
Q 25.2,-189.6,25.5,-189.8
Q 26.0,-190.2,26.1,-189.0
Q 26.3,-188.9,26.4,-188.9
Q 26.8,-191.1,24.9,-189.3
 " /> 
<path  
style="fill:rgb(7,193,201)" 
d="M 24.9 -189.3
Q 25.5,-189.2,26.1,-189.0
Q 26.0,-190.2,25.5,-189.8
Q 25.2,-189.6,24.9,-189.3
 " /> 
<path  
style="fill:rgb(14,103,171)" 
d="M 26.2 -187.6
Q 26.3,-188.2,26.4,-188.9
Q 26.4,-188.9,26.4,-188.9
Q 26.3,-188.9,26.1,-189.0
Q 26.1,-188.9,26.1,-188.9
Q 26.2,-188.2,26.2,-187.6
 " /> 
<path  
style="fill:rgb(14,103,171)" 
d="M 13.8 -158.7
Q 13.3,-158.3,12.9,-157.9
Q 12.0,-157.2,11.1,-156.2
Q 10.7,-155.6,10.2,-155.1
Q 12.4,-156.9,13.1,-157.8
Q 13.4,-158.2,13.8,-158.7
 " /> 
</g> 
</svg> 
