<?xml version="1.0"?>
<!DOCTYPE svg PUBLIC "-//W3C//DTD SVG 1.1//EN" "http://www.w3.org/Graphics/SVG/1.1/DTD/svg11.dtd">
<svg xmlns="http://www.w3.org/2000/svg" version="1.1">
<g transform="translate(112.5,221.3)" stroke-width="0" fill="none" >
<path  
style="fill:rgb(4,4,4)" 
d="M 53.8 218.6
Q 55.2,221.3,56.2,221.3
Q 58.8,221.3,60.1,216.4
Q 61.5,211.6,70.4,188.7
Q 84.8,152.0,79.3,134.8
Q 75.4,122.5,58.8,114.4
Q 48.4,109.4,44.9,106.3
Q 35.9,98.4,34.8,85.6
Q 34.7,83.9,34.5,82.1
Q 35.5,82.9,36.5,83.6
Q 41.6,87.6,47.5,87.7
Q 60.1,87.8,60.1,72.0
Q 60.0,55.7,44.7,28.9
Q 36.5,14.6,31.6,0.8
Q 30.4,-2.7,28.6,-5.2
Q 26.9,-7.7,27.5,-7.9
Q 31.1,-9.2,32.2,-6.5
Q 33.0,-4.7,33.9,-2.5
Q 37.3,6.3,41.1,3.0
Q 43.6,0.8,43.6,-6.4
Q 43.6,-10.9,43.2,-12.2
Q 42.9,-13.4,45.3,-15.9
Q 46.5,-17.2,47.7,-18.4
Q 50.5,-9.2,52.2,-7.6
Q 56.3,-3.9,58.4,-10.5
Q 60.1,-16.0,59.8,-20.0
Q 59.3,-25.4,59.8,-26.5
Q 60.1,-27.5,62.0,-29.3
Q 64.5,-31.9,66.7,-32.2
Q 90.9,-35.4,106.8,-53.3
Q 114.0,-61.4,112.4,-65.6
Q 111.3,-68.7,104.4,-63.6
Q 100.7,-61.0,100.5,-61.1
Q 99.4,-62.2,111.8,-80.2
Q 117.9,-89.1,120.6,-96.4
Q 126.3,-111.7,123.0,-115.0
Q 120.3,-117.8,115.8,-112.2
Q 114.1,-110.0,112.8,-108.5
Q 111.6,-107.0,110.2,-105.1
Q 117.3,-126.2,118.2,-131.9
Q 120.9,-148.7,116.8,-154.0
Q 111.0,-161.3,103.6,-140.2
Q 100.2,-130.7,99.5,-130.7
Q 99.0,-130.7,96.7,-138.0
Q 91.1,-156.4,84.9,-160.7
Q 78.3,-165.3,77.9,-150.5
Q 77.7,-142.0,76.7,-141.2
Q 75.1,-139.9,70.3,-145.7
Q 68.4,-148.0,67.6,-147.9
Q 65.1,-147.3,66.6,-142.9
Q 68.3,-138.0,67.9,-137.5
Q 67.2,-136.8,61.6,-141.7
Q 59.5,-143.6,58.4,-143.6
Q 55.9,-143.6,56.8,-140.5
Q 58.1,-136.7,57.0,-136.1
Q 53.5,-134.2,52.2,-135.6
Q 51.7,-136.2,50.5,-140.0
Q 43.7,-161.4,25.1,-161.5
Q 21.4,-161.5,21.8,-162.2
Q 22.1,-162.9,23.3,-166.2
Q 31.9,-190.1,26.8,-191.0
Q 24.6,-191.4,21.7,-185.4
Q 20.3,-182.5,20.0,-182.1
Q 19.6,-181.7,18.7,-183.1
Q 17.3,-185.4,14.1,-186.0
Q 12.4,-186.3,12.6,-187.3
Q 14.7,-195.7,14.0,-201.0
Q 13.5,-205.0,11.6,-203.7
Q 9.5,-202.2,8.4,-197.3
Q 8.1,-196.0,7.8,-194.7
Q 6.5,-197.5,5.2,-199.5
Q 4.6,-199.1,4.0,-198.7
Q 6.2,-194.2,6.4,-192.0
Q 6.7,-189.8,5.8,-183.6
Q 6.4,-183.3,7.1,-183.1
Q 7.3,-183.7,7.4,-184.5
Q 9.6,-194.4,10.7,-198.0
Q 10.9,-198.8,11.1,-199.5
Q 11.3,-200.2,11.6,-200.9
Q 12.6,-200.9,12.5,-200.0
Q 12.5,-200.0,12.5,-200.0
Q 12.5,-199.6,12.4,-199.1
Q 10.4,-185.5,9.3,-185.1
Q 7.0,-184.4,9.1,-183.2
Q 9.7,-182.9,8.6,-179.1
Q 6.4,-171.3,7.8,-171.6
Q 8.1,-171.7,8.5,-172.2
Q 9.3,-173.4,11.6,-183.1
Q 11.7,-183.4,11.9,-183.7
Q 12.3,-184.3,13.5,-184.2
Q 14.1,-184.1,14.7,-184.0
Q 18.1,-182.5,18.3,-179.0
Q 18.3,-177.5,16.0,-171.3
Q 15.1,-169.1,15.5,-168.2
Q 16.2,-166.5,18.2,-172.4
Q 22.2,-184.0,25.4,-187.2
Q 26.0,-187.8,26.7,-188.4
Q 26.7,-187.3,26.7,-186.2
Q 26.6,-184.1,26.4,-184.1
Q 26.3,-184.0,26.2,-184.0
Q 22.2,-167.4,19.0,-161.6
Q 17.8,-159.6,13.3,-156.4
Q 12.0,-154.7,10.2,-153.3
Q 9.4,-152.5,8.6,-151.7
Q 7.0,-150.0,5.7,-147.9
Q 4.4,-145.7,2.3,-146.0
Q 0.2,-146.2,-2.1,-146.2
Q -4.4,-146.2,-5.7,-148.4
Q -7.1,-150.7,-8.7,-152.7
Q -9.4,-153.7,-10.2,-154.7
Q -10.7,-155.0,-11.1,-155.3
Q -12.0,-156.0,-12.6,-156.9
Q -13.0,-157.3,-13.3,-157.8
Q -14.2,-158.6,-15.0,-159.4
Q -16.6,-161.0,-18.9,-161.9
Q -21.1,-162.8,-22.6,-163.5
Q -27.6,-166.0,-31.3,-185.1
Q -33.8,-198.5,-30.5,-192.8
Q -29.4,-190.9,-26.5,-186.0
Q -23.5,-181.1,-21.7,-178.0
Q -14.4,-165.5,-12.2,-165.0
Q -10.4,-164.5,-12.4,-167.5
Q -13.3,-168.8,-18.0,-176.2
Q -22.5,-183.3,-21.6,-184.6
Q -20.3,-186.7,-18.4,-187.3
Q -17.6,-187.5,-14.8,-178.1
Q -12.1,-168.7,-11.5,-168.7
Q -10.5,-168.8,-11.5,-172.4
Q -12.8,-177.1,-14.9,-185.3
Q -17.1,-193.9,-17.6,-197.3
Q -17.7,-198.5,-17.8,-199.8
Q -17.5,-199.1,-17.2,-198.4
Q -14.3,-192.5,-11.7,-184.5
Q -10.1,-179.5,-9.0,-180.6
Q -8.6,-181.0,-11.0,-188.0
Q -13.5,-195.3,-10.1,-201.0
Q -9.9,-200.1,-9.7,-199.2
Q -9.3,-197.3,-8.7,-192.0
Q -8.3,-189.3,-8.0,-186.7
Q -7.9,-186.7,-7.9,-186.7
Q -7.3,-186.9,-6.6,-187.1
Q -6.6,-187.2,-6.6,-187.2
Q -6.7,-187.4,-6.7,-189.8
Q -6.7,-190.4,-6.7,-191.1
Q -7.0,-190.9,-7.1,-191.2
Q -7.1,-191.4,-7.1,-193.3
Q -7.1,-194.0,-7.1,-194.7
Q -7.6,-194.4,-7.6,-195.7
Q -7.6,-196.3,-7.6,-196.9
Q -8.0,-200.4,-8.0,-203.1
Q -8.0,-204.4,-8.0,-205.8
Q -8.3,-205.6,-8.4,-205.8
Q -8.4,-206.1,-8.4,-209.8
Q -9.2,-209.8,-10.0,-209.8
Q -10.1,-202.6,-11.1,-201.9
Q -13.3,-200.4,-13.6,-198.6
Q -14.1,-196.3,-15.0,-198.8
Q -16.4,-202.7,-18.8,-202.7
Q -20.1,-202.7,-19.8,-199.0
Q -19.6,-195.3,-19.1,-194.0
Q -17.6,-189.7,-20.0,-188.4
Q -22.0,-187.4,-22.8,-186.5
Q -23.8,-185.4,-25.8,-189.1
Q -28.8,-194.5,-30.9,-196.4
Q -36.6,-201.4,-32.9,-182.4
Q -31.1,-173.2,-27.8,-166.6
Q -27.3,-165.6,-26.8,-164.5
Q -28.7,-164.6,-30.6,-164.6
Q -40.1,-164.6,-44.8,-155.4
Q -47.5,-149.9,-48.3,-144.5
Q -48.5,-143.0,-52.7,-138.5
Q -57.0,-134.0,-57.7,-134.0
Q -60.9,-134.0,-59.2,-148.8
Q -58.8,-152.3,-58.9,-158.0
Q -59.1,-170.5,-63.9,-166.7
Q -69.5,-162.4,-72.7,-144.8
Q -73.1,-142.6,-73.5,-140.4
Q -73.7,-140.8,-73.9,-141.2
Q -74.2,-142.0,-74.2,-144.2
Q -74.2,-148.0,-76.0,-149.9
Q -77.9,-151.9,-79.9,-147.2
Q -81.5,-143.6,-82.0,-138.4
Q -82.3,-135.8,-83.0,-133.6
Q -83.5,-137.1,-83.8,-139.6
Q -86.4,-165.7,-93.0,-167.4
Q -94.3,-167.7,-96.0,-165.8
Q -97.7,-164.0,-97.9,-162.7
Q -98.2,-161.5,-98.6,-159.8
Q -101.4,-149.2,-94.2,-124.9
Q -92.8,-120.2,-92.6,-118.5
Q -92.5,-117.6,-92.4,-116.7
Q -94.2,-118.9,-97.4,-128.6
Q -100.6,-138.4,-101.8,-139.6
Q -106.4,-144.3,-109.1,-132.7
Q -112.9,-116.2,-105.4,-97.1
Q -100.1,-83.6,-95.0,-75.9
Q -93.2,-73.3,-93.4,-73.1
Q -93.6,-72.9,-96.0,-74.4
Q -109.8,-82.7,-111.6,-80.5
Q -115.2,-76.1,-103.6,-58.3
Q -98.0,-49.6,-85.6,-41.5
Q -68.6,-30.6,-54.5,-28.8
Q -50.6,-28.3,-46.0,-23.6
Q -47.2,-22.2,-48.4,-20.8
Q -55.0,-13.1,-56.9,-5.9
Q -59.1,2.4,-55.4,4.4
Q -52.4,6.0,-49.3,1.7
Q -48.3,0.3,-47.8,-0.2
Q -47.3,-0.7,-45.1,-4.2
Q -43.0,-7.7,-41.2,-10.6
Q -39.5,-13.5,-38.3,-15.8
Q -37.2,-18.2,-36.2,-17.4
Q -35.2,-16.6,-33.4,-15.8
Q -31.5,-15.0,-31.7,-14.2
Q -31.9,-13.5,-32.6,-12.0
Q -39.2,3.2,-36.2,8.9
Q -32.6,15.9,-21.0,-1.2
Q -17.8,-5.9,-17.2,-6.1
Q -16.6,-6.4,-14.8,-6.1
Q -12.2,-5.7,-12.1,-5.6
Q -12.0,-5.4,-12.8,-3.5
Q -16.8,5.4,-17.8,13.6
Q -19.8,29.8,-27.4,39.3
Q -36.3,50.6,-38.2,59.6
Q -39.7,66.3,-38.2,74.9
Q -35.3,91.2,-24.4,91.2
Q -19.3,91.3,-15.2,88.1
Q -14.2,87.4,-13.2,86.6
Q -14.4,91.3,-17.3,100.8
Q -19.7,108.7,-20.4,112.6
Q -20.9,115.1,-21.3,117.4
Q -21.8,119.8,-22.0,124.7
Q -23.6,165.5,27.1,195.0
Q 41.9,203.6,46.6,208.4
Q 50.6,212.4,53.8,218.6
 " /> 
<path  
style="fill:rgb(7,193,201)" 
d="M 10.7 181.3
Q 10.9,181.4,11.1,181.5
Q 11.6,181.7,12.3,182.2
Q 12.6,182.4,12.9,182.7
Q 12.4,181.7,12.0,180.7
Q 11.3,181.0,10.7,181.3
 " /> 
<path  
style="fill:rgb(14,103,171)" 
d="M 10.7 181.3
Q 7.6,174.7,6.3,171.7
Q 0.8,159.0,0.1,147.0
Q -0.1,142.6,0.0,142.4
Q 1.0,141.0,1.4,146.3
Q 2.5,159.7,12.0,180.7
Q 12.4,181.7,12.9,182.7
Q 14.4,183.9,16.0,185.1
Q 19.2,187.6,34.4,196.6
Q 38.4,198.9,38.1,197.9
Q 37.3,193.8,29.1,180.7
Q 14.6,157.5,13.9,140.2
Q 13.8,137.6,14.7,138.5
Q 15.1,138.9,15.7,143.6
Q 18.0,159.3,30.9,180.0
Q 38.2,191.7,39.4,196.0
Q 40.6,200.5,43.2,202.4
Q 51.7,208.8,55.3,216.3
Q 56.2,218.2,56.6,218.1
Q 57.0,217.9,58.5,213.7
Q 61.1,206.2,64.7,196.9
Q 70.4,182.0,68.4,173.5
Q 66.1,163.3,49.2,142.7
Q 39.7,131.1,41.9,131.1
Q 42.4,131.1,45.1,134.7
Q 47.7,138.4,52.4,143.7
Q 65.3,158.5,68.6,167.1
Q 69.9,170.4,71.5,179.3
Q 72.3,176.8,73.1,174.2
Q 82.2,145.8,75.5,132.1
Q 71.4,123.7,56.4,116.2
Q 46.6,111.3,42.6,107.6
Q 35.6,101.1,33.5,92.0
Q 33.2,90.7,32.9,89.3
Q 31.6,89.0,31.3,89.2
Q 31.1,89.5,31.0,96.2
Q 30.9,104.5,29.0,105.2
Q 28.4,105.4,26.4,99.6
Q 24.9,95.1,24.8,94.9
Q 24.4,94.6,23.6,96.9
Q 21.4,103.3,16.5,98.4
Q 14.9,96.8,14.6,96.8
Q 12.4,96.3,12.4,105.0
Q 12.4,113.0,9.9,115.5
Q 7.9,117.6,4.0,100.4
Q 4.2,98.9,3.9,98.8
Q 3.7,98.7,3.6,98.7
Q 2.1,95.4,1.9,95.0
Q 1.7,94.7,1.6,94.7
Q 1.3,94.7,-0.5,97.9
Q -2.3,101.1,-3.2,102.3
Q -6.0,106.2,-8.8,99.0
Q -9.6,96.7,-12.0,90.2
Q -12.7,92.2,-13.3,94.2
Q -19.4,112.3,-19.8,124.7
Q -20.9,152.2,0.9,172.5
Q 5.0,176.4,10.7,181.3
 " /> 
<path  
style="fill:rgb(7,193,201)" 
d="M 56.3 212.8
Q 56.4,213.4,57.0,213.2
Q 58.2,212.7,57.3,200.7
Q 55.7,178.5,44.5,158.9
Q 41.5,153.6,41.1,154.8
Q 40.8,155.5,43.2,159.9
Q 56.0,182.8,56.1,208.4
Q 56.1,212.2,56.3,212.8
 " /> 
<path  
style="fill:rgb(7,193,201)" 
d="M 73.4 158.6
Q 73.8,159.6,74.3,159.4
Q 75.3,159.0,73.6,154.2
Q 69.9,143.5,59.4,132.6
Q 53.7,126.6,54.3,129.1
Q 54.5,129.7,58.7,134.1
Q 68.9,144.6,72.1,154.7
Q 73.0,157.5,73.4,158.6
 " /> 
<path  
style="fill:rgb(7,193,201)" 
d="M 10.7 181.3
Q 11.3,181.0,12.0,180.7
Q 2.5,159.7,1.4,146.3
Q 1.0,141.0,0.0,142.4
Q -0.1,142.6,0.1,147.0
Q 0.8,159.0,6.3,171.7
Q 7.6,174.7,10.7,181.3
 " /> 
<path  
style="fill:rgb(7,193,201)" 
d="M -12.0 90.2
Q -11.8,89.6,-11.6,88.9
Q -11.7,88.9,-11.8,88.9
Q -12.0,89.0,-12.0,90.2
 " /> 
<path  
style="fill:rgb(7,193,201)" 
d="M -12.0 90.2
Q -11.6,90.1,-11.3,90.1
Q -11.4,89.5,-11.6,88.9
Q -11.8,89.6,-12.0,90.2
 " /> 
<path  
style="fill:rgb(7,193,201)" 
d="M -12.0 90.2
Q -9.6,96.7,-8.8,99.0
Q -6.0,106.2,-3.2,102.3
Q -2.3,101.1,-0.5,97.9
Q 1.3,94.7,1.6,94.7
Q 1.7,94.7,1.9,95.0
Q 2.1,95.4,3.6,98.7
Q 3.3,97.8,3.1,96.9
Q 2.0,93.0,0.7,94.5
Q -0.0,95.3,-1.5,98.6
Q -4.6,105.6,-7.0,101.7
Q -9.6,97.6,-11.3,90.1
Q -11.6,90.1,-12.0,90.2
 " /> 
<path  
style="fill:rgb(97,247,248)" 
d="M 3.6 98.7
Q 3.7,98.7,3.9,98.8
Q 4.2,98.9,4.0,100.4
Q 4.8,103.0,5.6,105.6
Q 8.9,116.4,9.7,115.2
Q 12.0,111.7,12.0,105.0
Q 12.0,93.2,16.7,97.8
Q 21.0,102.0,23.3,96.1
Q 24.4,93.5,25.1,94.6
Q 25.4,94.9,26.7,98.9
Q 28.5,104.8,29.2,104.6
Q 30.7,104.1,30.6,95.5
Q 30.6,89.2,31.1,88.8
Q 31.6,88.4,32.9,88.9
Q 32.9,88.2,32.9,87.6
Q 32.8,87.6,32.7,87.6
Q 32.5,87.6,32.5,87.3
Q 32.4,87.0,32.4,84.0
Q 32.4,79.1,31.2,77.2
Q 26.3,69.9,24.0,55.5
Q 22.5,46.0,23.9,43.3
Q 24.8,41.5,25.6,39.4
Q 26.3,37.3,27.1,31.1
Q 27.1,27.8,27.1,24.4
Q 26.9,22.9,26.7,21.3
Q 26.2,18.2,25.7,14.0
Q 24.9,15.8,24.4,18.8
Q 23.9,21.8,23.0,21.8
Q 22.1,21.8,23.3,14.2
Q 24.0,10.4,24.4,6.9
Q 24.7,3.4,25.3,3.4
Q 25.9,3.4,25.8,5.8
Q 25.7,8.3,26.6,11.4
Q 28.6,18.1,28.8,24.1
Q 28.8,24.2,28.8,24.4
Q 28.8,25.5,28.9,26.7
Q 29.0,27.0,29.1,27.3
Q 29.4,28.0,29.1,28.7
Q 29.0,29.0,28.9,29.3
Q 28.9,36.1,25.9,42.8
Q 24.6,45.8,25.8,54.4
Q 26.0,55.9,26.2,57.3
Q 27.1,56.4,28.0,55.6
Q 29.8,53.8,36.4,48.4
Q 36.7,48.4,36.9,48.4
Q 37.9,47.7,38.9,46.9
Q 44.1,42.8,46.7,44.0
Q 48.0,44.6,51.6,47.6
Q 47.6,39.1,44.8,34.1
Q 34.3,15.0,31.3,5.8
Q 27.3,-5.9,24.4,-6.8
Q 23.7,-7.1,20.0,-6.2
Q 15.5,-5.1,8.0,-4.4
Q 6.9,-4.4,5.8,-4.4
Q -6.7,-4.9,-8.3,-5.0
Q -9.8,-5.1,-11.1,-2.9
Q -14.7,3.5,-15.8,13.4
Q -17.5,28.5,-25.3,40.2
Q -26.4,41.9,-27.6,43.6
Q -26.7,43.7,-25.8,43.8
Q -24.0,44.0,-22.4,44.7
Q -20.9,45.3,-19.5,45.3
Q -18.2,45.3,-15.6,44.4
Q -15.3,44.4,-15.1,44.4
Q -14.6,44.3,-14.0,44.2
Q -12.9,44.0,-11.4,45.6
Q -9.9,47.2,-8.0,47.4
Q -4.0,47.9,-2.3,50.3
Q -1.8,51.1,-1.3,50.7
Q -1.2,50.7,-1.0,50.5
Q -0.7,50.1,-0.4,49.8
Q -0.2,48.0,0.0,46.2
Q 0.4,42.7,-0.9,39.9
Q -3.8,34.2,-4.2,25.8
Q -4.2,25.6,-4.2,25.3
Q -4.3,22.0,-4.4,18.7
Q -4.4,17.3,-4.4,16.0
Q -5.3,9.3,-5.4,8.6
Q -5.5,7.9,-4.9,7.7
Q -4.2,7.5,-3.4,11.4
Q -2.6,15.3,-1.5,19.1
Q -0.0,24.1,-1.1,24.2
Q -2.0,24.3,-2.2,22.2
Q -2.3,22.2,-2.4,22.3
Q -2.5,22.3,-2.6,22.7
Q -2.6,23.0,-2.7,25.8
Q -2.4,27.6,-2.2,29.3
Q -1.4,36.0,1.4,40.6
Q 4.3,45.5,2.5,44.8
Q 1.9,44.5,1.5,47.1
Q 1.4,48.6,1.0,50.1
Q 0.8,51.3,0.4,52.4
Q 0.4,53.1,0.4,53.8
Q -1.3,60.9,-2.6,64.8
Q -5.7,73.9,-8.7,80.3
Q -10.2,83.5,-10.9,86.2
Q -11.2,87.5,-11.6,88.9
Q -11.4,89.5,-11.3,90.1
Q -9.6,97.6,-7.0,101.7
Q -4.6,105.6,-1.5,98.6
Q -0.0,95.3,0.7,94.5
Q 2.0,93.0,3.1,96.9
Q 3.3,97.8,3.6,98.7
 " /> 
<path  
style="fill:rgb(7,193,201)" 
d="M 4.0 100.4
Q 7.9,117.6,9.9,115.5
Q 12.4,113.0,12.4,105.0
Q 12.4,96.3,14.6,96.8
Q 14.9,96.8,16.5,98.4
Q 21.4,103.3,23.6,96.9
Q 24.4,94.6,24.8,94.9
Q 24.9,95.1,26.4,99.6
Q 28.4,105.4,29.0,105.2
Q 30.9,104.5,31.0,96.2
Q 31.1,89.5,31.3,89.2
Q 31.6,89.0,32.9,89.3
Q 32.9,89.1,32.9,88.9
Q 31.6,88.4,31.1,88.8
Q 30.6,89.2,30.6,95.5
Q 30.7,104.1,29.2,104.6
Q 28.5,104.8,26.7,98.9
Q 25.4,94.9,25.1,94.6
Q 24.4,93.5,23.3,96.1
Q 21.0,102.0,16.7,97.8
Q 12.0,93.2,12.0,105.0
Q 12.0,111.7,9.7,115.2
Q 8.9,116.4,5.6,105.6
Q 4.8,103.0,4.0,100.4
 " /> 
<path  
style="fill:rgb(14,103,171)" 
d="M 0.4 53.8
Q 0.4,53.1,0.4,52.4
Q -0.2,52.0,-0.4,52.0
Q -0.5,52.5,-0.5,53.0
Q -0.5,53.0,-0.5,53.0
Q 0.2,53.1,0.3,53.4
Q 0.4,53.6,0.4,53.8
 " /> 
<path  
style="fill:rgb(4,4,4)" 
d="M 0.4 52.4
Q 0.8,51.3,1.0,50.1
Q 0.3,49.9,-0.4,49.8
Q -0.4,50.9,-0.4,52.0
Q -0.2,52.0,0.4,52.4
 " /> 
<path  
style="fill:rgb(4,4,4)" 
d="M -2.7 25.8
Q -2.7,24.8,-2.8,23.9
Q -2.9,22.0,-2.2,22.2
Q -2.0,24.3,-1.1,24.2
Q -0.0,24.1,-1.5,19.1
Q -2.6,15.3,-3.4,11.4
Q -4.2,7.5,-4.9,7.7
Q -5.5,7.9,-5.4,8.6
Q -5.3,9.3,-4.4,16.0
Q -4.3,16.3,-4.2,16.7
Q -3.9,17.3,-4.4,18.7
Q -4.3,22.0,-4.2,25.3
Q -4.2,25.6,-4.2,25.8
Q -3.4,25.8,-2.7,25.8
 " /> 
<path  
style="fill:rgb(4,4,4)" 
d="M -2.7 25.8
Q -3.4,25.8,-4.2,25.8
Q -3.8,34.2,-0.9,39.9
Q 0.4,42.7,0.0,46.2
Q -0.2,48.0,-0.4,49.8
Q 0.3,49.9,1.0,50.1
Q 1.4,48.6,1.5,47.1
Q 1.9,44.5,2.5,44.8
Q 4.3,45.5,1.4,40.6
Q -1.4,36.0,-2.2,29.3
Q -2.4,27.6,-2.7,25.8
 " /> 
<path  
style="fill:rgb(14,103,171)" 
d="M -4.4 16.0
Q -4.4,17.3,-4.4,18.7
Q -3.9,17.3,-4.2,16.7
Q -4.3,16.3,-4.4,16.0
 " /> 
<path  
style="fill:rgb(7,193,201)" 
d="M -0.4 49.8
Q -0.7,50.1,-1.0,50.5
Q -1.2,50.7,-1.3,50.7
Q -0.9,51.4,-0.4,52.0
Q -0.4,50.9,-0.4,49.8
 " /> 
<path  
style="fill:rgb(14,103,171)" 
d="M -15.1 44.4
Q -15.3,44.4,-15.6,44.4
Q -19.0,47.0,-22.6,45.1
Q -23.9,44.3,-26.0,44.2
Q -27.0,44.1,-28.0,44.0
Q -32.8,50.8,-34.8,55.5
Q -35.4,57.2,-35.9,59.9
Q -35.1,60.0,-34.3,60.2
Q -34.6,59.9,-34.0,58.2
Q -32.4,53.8,-31.5,53.8
Q -30.6,53.8,-32.4,58.1
Q -33.6,60.9,-34.3,60.2
Q -35.1,60.0,-35.9,59.9
Q -36.4,62.4,-36.7,65.9
Q -37.0,68.7,-36.9,69.0
Q -36.6,70.1,-35.0,67.0
Q -33.8,64.7,-30.6,60.9
Q -27.4,57.2,-25.7,55.1
Q -24.1,53.1,-23.8,53.9
Q -23.4,54.8,-30.8,63.7
Q -33.0,66.4,-34.5,69.4
Q -37.4,75.1,-33.8,82.2
Q -31.9,85.9,-27.1,88.9
Q -28.0,87.1,-27.8,84.6
Q -27.6,82.0,-27.5,79.0
Q -27.4,76.0,-26.8,75.2
Q -25.8,73.9,-25.9,77.5
Q -25.9,79.0,-26.7,88.9
Q -19.3,88.9,-15.6,85.3
Q -14.1,83.8,-14.4,80.3
Q -15.7,64.7,-14.2,59.4
Q -13.8,58.0,-13.4,70.0
Q -13.0,80.9,-12.7,81.2
Q -11.7,82.3,-9.7,76.5
Q -8.7,73.6,-7.8,72.5
Q -4.9,69.1,-1.9,55.9
Q -1.2,52.9,-0.5,53.0
Q -0.5,52.5,-0.4,52.0
Q -1.3,52.0,-2.3,50.8
Q -4.6,48.0,-7.7,48.0
Q -9.4,48.0,-11.3,46.2
Q -13.3,44.4,-15.1,44.4
 " /> 
<path  
style="fill:rgb(7,193,201)" 
d="M -8.7 69.0
Q -7.6,69.7,-7.8,64.2
Q -8.1,58.1,-8.9,59.0
Q -9.4,59.4,-9.3,64.0
Q -9.2,68.6,-8.7,69.0
 " /> 
<path  
style="fill:rgb(7,193,201)" 
d="M -15.1 44.4
Q -13.3,44.4,-11.3,46.2
Q -9.4,48.0,-7.7,48.0
Q -4.6,48.0,-2.3,50.8
Q -1.3,52.0,-0.4,52.0
Q -0.9,51.4,-1.3,50.7
Q -1.8,51.1,-2.3,50.3
Q -4.0,47.9,-8.0,47.4
Q -9.9,47.2,-11.4,45.6
Q -12.9,44.0,-14.0,44.2
Q -14.6,44.3,-15.1,44.4
 " /> 
<path  
style="fill:rgb(7,193,201)" 
d="M -15.6 44.4
Q -18.2,45.3,-19.5,45.3
Q -20.9,45.3,-22.4,44.7
Q -24.0,44.0,-25.8,43.8
Q -26.7,43.7,-27.6,43.6
Q -27.8,43.6,-28.0,44.0
Q -27.0,44.1,-26.0,44.2
Q -23.9,44.3,-22.6,45.1
Q -19.0,47.0,-15.6,44.4
 " /> 
<path  
style="fill:rgb(14,103,171)" 
d="M 5.8 -4.4
Q 6.9,-4.4,8.0,-4.4
Q 7.7,-4.6,7.4,-4.7
Q 6.7,-5.0,6.2,-4.7
Q 6.0,-4.6,5.8,-4.4
 " /> 
<path  
style="fill:rgb(7,193,201)" 
d="M 51.6 47.6
Q 51.4,47.7,51.3,47.8
Q 51.7,48.1,52.0,48.4
Q 52.0,47.5,51.6,47.6
 " /> 
<path  
style="fill:rgb(7,193,201)" 
d="M 51.6 47.6
Q 48.0,44.6,46.7,44.0
Q 44.1,42.8,38.9,46.9
Q 37.9,47.7,36.9,48.4
Q 37.4,48.3,37.8,48.1
Q 38.7,47.7,40.0,46.6
Q 45.0,42.1,49.8,46.4
Q 50.5,47.1,51.3,47.8
Q 51.4,47.7,51.6,47.6
 " /> 
<path  
style="fill:rgb(14,103,171)" 
d="M 36.9 48.4
Q 36.7,48.4,36.4,48.4
Q 35.1,49.8,33.8,51.1
Q 31.1,53.8,26.2,57.8
Q 26.8,59.9,27.3,62.0
Q 30.1,72.5,34.2,77.3
Q 33.8,71.6,33.7,68.1
Q 33.6,64.7,34.2,64.7
Q 35.0,64.7,35.3,73.2
Q 35.5,78.2,34.9,78.0
Q 34.5,77.9,34.2,77.8
Q 35.3,79.0,36.4,80.2
Q 39.6,83.7,43.3,84.7
Q 44.2,85.0,42.5,80.2
Q 39.6,72.1,37.5,60.1
Q 37.2,58.7,37.9,58.7
Q 38.5,58.7,39.4,62.8
Q 44.6,85.0,47.1,85.5
Q 51.0,86.4,54.7,82.6
Q 58.3,79.1,57.9,75.6
Q 57.7,74.5,55.5,70.8
Q 47.0,56.2,46.8,55.0
Q 46.1,51.8,52.6,62.5
Q 57.4,70.4,57.9,71.1
Q 58.1,71.4,58.3,71.8
Q 57.6,65.7,56.0,59.6
Q 54.9,58.4,53.8,57.3
Q 51.6,55.1,51.6,54.4
Q 51.6,53.2,54.7,56.0
Q 54.4,55.1,54.2,54.2
Q 53.8,52.4,52.0,48.4
Q 51.7,48.1,51.3,47.8
Q 50.5,47.1,49.8,46.4
Q 45.0,42.1,40.0,46.6
Q 38.7,47.7,37.8,48.1
Q 37.4,48.3,36.9,48.4
 " /> 
<path  
style="fill:rgb(7,193,201)" 
d="M 50.5 77.2
Q 53.0,83.6,53.5,83.6
Q 54.6,83.6,51.1,74.7
Q 48.8,68.8,48.3,69.1
Q 47.3,69.5,50.5,77.2
 " /> 
<path  
style="fill:rgb(7,193,201)" 
d="M 36.4 48.4
Q 29.8,53.8,28.0,55.6
Q 27.1,56.4,26.2,57.3
Q 26.2,57.6,26.2,57.8
Q 31.1,53.8,33.8,51.1
Q 35.1,49.8,36.4,48.4
 " /> 
<path  
style="fill:rgb(4,4,4)" 
d="M 28.9 29.3
Q 28.9,28.0,28.9,26.7
Q 28.1,26.7,27.4,26.8
Q 27.5,28.2,27.3,29.2
Q 28.1,29.2,28.9,29.3
 " /> 
<path  
style="fill:rgb(7,193,201)" 
d="M 28.9 29.3
Q 29.0,29.0,29.1,28.7
Q 29.4,28.0,29.1,27.3
Q 29.0,27.0,28.9,26.7
Q 28.9,28.0,28.9,29.3
 " /> 
<path  
style="fill:rgb(4,4,4)" 
d="M 28.9 26.7
Q 28.8,25.5,28.8,24.4
Q 28.0,24.4,27.1,24.4
Q 27.3,25.7,27.4,26.8
Q 28.1,26.7,28.9,26.7
 " /> 
<path  
style="fill:rgb(14,103,171)" 
d="M 27.1 24.4
Q 27.1,27.8,27.1,31.1
Q 27.2,30.2,27.3,29.3
Q 27.3,29.2,27.4,29.2
Q 27.5,28.1,27.4,26.7
Q 27.3,25.7,27.1,24.4
 " /> 
<path  
style="fill:rgb(4,4,4)" 
d="M 27.1 24.4
Q 28.0,24.4,28.8,24.4
Q 28.8,24.2,28.8,24.1
Q 28.6,18.1,26.6,11.4
Q 25.7,8.3,25.8,5.8
Q 25.9,3.4,25.3,3.4
Q 24.7,3.4,24.4,6.9
Q 24.0,10.4,23.3,14.2
Q 22.1,21.8,23.0,21.8
Q 23.9,21.8,24.4,18.8
Q 24.9,15.8,25.7,14.0
Q 26.2,18.2,26.7,21.3
Q 26.9,22.9,27.1,24.4
 " /> 
<path  
style="fill:rgb(7,193,201)" 
d="M 32.4 84.0
Q 32.4,87.0,32.5,87.3
Q 32.5,87.6,32.7,87.6
Q 32.8,87.6,32.9,87.6
Q 32.9,84.5,32.8,84.2
Q 32.8,83.9,32.4,84.0
 " /> 
<path  
style="fill:rgb(7,193,201)" 
d="M -27.1 88.9
Q -26.9,88.9,-26.7,88.9
Q -25.9,79.0,-25.9,77.5
Q -25.8,73.9,-26.8,75.2
Q -27.4,76.0,-27.5,79.0
Q -27.6,82.0,-27.8,84.6
Q -28.0,87.1,-27.1,88.9
 " /> 
<path  
style="fill:rgb(7,193,201)" 
d="M 34.2 77.3
Q 34.2,77.6,34.2,77.8
Q 34.5,77.9,34.9,78.0
Q 35.5,78.2,35.3,73.2
Q 35.0,64.7,34.2,64.7
Q 33.6,64.7,33.7,68.1
Q 33.8,71.6,34.2,77.3
 " /> 
<path  
style="fill:rgb(7,193,201)" 
d="M 54.7 56.0
Q 51.6,53.2,51.6,54.4
Q 51.6,55.1,53.8,57.3
Q 54.9,58.4,56.0,59.6
Q 55.1,57.3,54.7,56.0
 " /> 
<path  
style="fill:rgb(7,193,201)" 
d="M -34.3 60.2
Q -33.6,60.9,-32.4,58.1
Q -30.6,53.8,-31.5,53.8
Q -32.4,53.8,-34.0,58.2
Q -34.6,59.9,-34.3,60.2
 " /> 
<path  
style="fill:rgb(97,247,248)" 
d="M -55.6 -2.2
Q -55.6,-0.9,-55.6,0.4
Q -55.3,1.0,-55.1,1.6
Q -52.9,7.2,-39.1,-18.4
Q -35.1,-25.9,-32.9,-26.9
Q -31.2,-27.6,-33.6,-24.0
Q -35.2,-21.6,-35.4,-20.9
Q -35.6,-20.2,-33.0,-18.7
Q -31.1,-17.6,-30.6,-17.6
Q -29.8,-17.6,-29.0,-20.3
Q -27.8,-24.4,-26.7,-23.3
Q -26.1,-22.8,-27.4,-19.7
Q -28.6,-16.7,-28.7,-15.8
Q -28.8,-14.9,-30.1,-12.4
Q -31.8,-9.4,-33.8,-2.4
Q -35.5,3.5,-34.7,6.7
Q -33.4,11.4,-26.8,3.3
Q -20.9,-4.0,-19.1,-8.4
Q -18.7,-9.5,-15.3,-13.5
Q -13.2,-16.0,-12.6,-16.0
Q -11.1,-16.0,-15.9,-9.5
Q -14.3,-9.1,-12.6,-8.7
Q -9.3,-7.9,-4.4,-7.5
Q -2.0,-7.3,0.4,-7.1
Q 1.8,-7.1,3.1,-7.1
Q 12.4,-7.1,28.0,-10.7
Q 28.3,-10.8,28.7,-10.9
Q 29.3,-11.1,30.2,-11.6
Q 27.4,-18.5,27.4,-18.9
Q 27.4,-19.2,27.6,-19.4
Q 28.9,-20.1,34.7,-6.0
Q 39.7,6.4,41.4,-3.5
Q 42.7,-11.6,37.1,-22.7
Q 35.5,-25.9,35.9,-26.3
Q 36.9,-27.3,40.5,-19.5
Q 41.2,-18.0,41.9,-16.5
Q 43.1,-17.5,44.4,-18.5
Q 46.9,-20.6,46.8,-21.1
Q 46.7,-21.6,45.1,-26.2
Q 43.6,-30.8,44.0,-31.3
Q 44.7,-32.0,45.5,-30.0
Q 47.4,-25.6,49.6,-18.5
Q 52.9,-8.0,54.9,-8.7
Q 56.5,-9.3,57.5,-18.5
Q 57.6,-19.9,57.8,-21.3
Q 57.7,-21.3,57.5,-21.3
Q 57.3,-21.2,57.3,-22.6
Q 57.3,-22.6,57.3,-22.6
Q 57.3,-23.3,57.3,-24.0
Q 57.2,-24.7,57.1,-25.3
Q 56.3,-30.1,54.9,-33.1
Q 52.8,-37.8,53.9,-37.8
Q 55.6,-37.8,57.6,-31.2
Q 58.2,-29.1,58.7,-29.5
Q 58.9,-29.6,59.1,-29.8
Q 59.4,-30.2,59.8,-30.6
Q 60.5,-31.5,62.2,-32.9
Q 63.3,-34.3,64.4,-35.8
Q 74.0,-48.2,75.5,-61.3
Q 75.8,-63.3,76.0,-65.3
Q 76.0,-68.0,76.0,-70.7
Q 76.0,-71.8,76.0,-72.9
Q 76.0,-83.0,73.3,-97.5
Q 68.2,-124.7,47.3,-135.4
Q 44.0,-137.1,44.0,-137.9
Q 44.0,-139.5,46.5,-138.4
Q 48.2,-137.7,49.3,-137.2
Q 49.0,-138.4,48.6,-139.6
Q 47.1,-144.7,44.2,-148.9
Q 43.4,-150.0,42.7,-151.1
Q 40.9,-152.5,40.0,-153.8
Q 39.2,-154.3,38.4,-154.9
Q 27.5,-162.7,16.5,-156.2
Q 15.6,-155.6,14.7,-155.1
Q 14.0,-154.1,12.4,-152.9
Q 12.2,-152.9,12.0,-152.4
Q 11.3,-151.5,10.6,-150.9
Q 10.2,-150.5,9.8,-150.2
Q 9.3,-149.6,8.9,-148.9
Q 8.0,-147.6,6.7,-145.8
Q 6.0,-144.9,5.3,-144.0
Q 4.2,-144.0,3.1,-144.0
Q 2.2,-144.5,0.7,-144.5
Q -0.1,-144.4,-0.9,-144.4
Q -2.9,-144.4,-4.9,-144.4
Q -5.3,-144.8,-5.8,-145.1
Q -6.7,-145.8,-7.8,-147.6
Q -8.9,-149.3,-10.4,-151.6
Q -11.2,-152.7,-12.0,-153.8
Q -13.7,-155.1,-15.1,-156.9
Q -19.1,-159.6,-21.4,-160.6
Q -38.4,-168.5,-45.1,-149.8
Q -46.3,-146.5,-46.4,-144.4
Q -46.8,-139.6,-48.3,-140.2
Q -48.9,-140.4,-50.3,-138.7
Q -51.8,-136.9,-52.0,-136.0
Q -52.2,-135.1,-54.3,-133.2
Q -59.9,-127.9,-63.3,-118.5
Q -65.0,-113.8,-66.2,-108.0
Q -70.2,-87.3,-65.1,-67.3
Q -58.6,-41.9,-47.3,-28.6
Q -45.9,-27.0,-44.6,-25.4
Q -43.4,-27.1,-42.2,-28.7
Q -39.8,-32.0,-39.4,-31.8
Q -38.9,-31.6,-38.9,-31.0
Q -39.0,-30.0,-46.1,-20.9
Q -54.0,-10.6,-55.6,-2.2
 " /> 
<path  
style="fill:rgb(4,4,4)" 
d="M 18.9 -19.1
Q 21.3,-17.4,21.3,-18.9
Q 21.3,-19.5,19.0,-21.1
Q 14.5,-24.1,7.1,-23.2
Q -2.2,-22.0,-2.6,-20.2
Q -2.8,-19.2,1.7,-20.4
Q 12.9,-23.4,18.9,-19.1
 " /> 
<path  
style="fill:rgb(4,4,4)" 
d="M -1.1 -40.8
Q -0.5,-39.8,1.9,-44.3
Q 3.0,-46.5,4.6,-48.6
Q 6.2,-50.8,5.8,-51.3
Q 4.4,-52.6,0.4,-44.8
Q -1.4,-41.3,-1.1,-40.8
 " /> 
<path  
style="fill:rgb(4,4,4)" 
d="M 12.9 -44.8
Q 15.2,-40.4,15.6,-40.4
Q 16.6,-40.4,14.6,-44.9
Q 11.9,-50.5,10.7,-51.0
Q 9.3,-51.5,12.9,-44.8
 " /> 
<path  
style="fill:rgb(4,4,4)" 
d="M 46.2 -119.6
Q 45.9,-119.4,45.6,-119.3
Q 44.9,-119.1,44.4,-119.3
Q 44.2,-119.4,44.0,-119.6
Q 41.3,-118.9,40.2,-118.2
Q 29.9,-111.4,19.5,-79.8
Q 17.2,-72.7,16.6,-72.0
Q 16.0,-71.4,16.0,-70.2
Q 16.0,-69.0,15.1,-66.4
Q 13.4,-61.6,14.4,-61.9
Q 15.2,-62.0,15.7,-63.3
Q 16.1,-64.6,16.6,-66.0
Q 16.9,-66.6,17.2,-67.3
Q 23.7,-53.4,31.0,-50.7
Q 41.8,-46.6,54.8,-59.0
Q 61.6,-65.5,64.0,-74.4
Q 64.8,-77.7,65.3,-82.2
Q 65.3,-84.7,65.8,-84.9
Q 65.8,-85.1,65.8,-85.3
Q 65.7,-85.3,65.5,-85.3
Q 65.4,-85.2,65.4,-85.5
Q 65.3,-85.8,65.3,-88.0
Q 64.9,-92.9,64.0,-96.1
Q 58.6,-114.7,48.0,-118.9
Q 47.1,-119.2,46.2,-119.6
 " /> 
<path  
style="fill:rgb(115,250,3)" 
d="M 33.8 -52.9
Q 36.2,-53.0,36.1,-52.7
Q 36.0,-52.6,36.0,-52.4
Q 36.4,-52.4,36.9,-52.4
Q 37.1,-52.8,38.1,-52.8
Q 38.6,-52.9,39.1,-52.9
Q 43.1,-54.2,44.7,-55.0
Q 46.3,-55.8,48.5,-57.2
Q 49.6,-57.9,50.7,-58.7
Q 51.2,-59.3,51.8,-60.0
Q 52.9,-61.3,55.6,-63.6
Q 58.7,-68.4,59.7,-70.8
Q 62.5,-76.6,63.1,-86.7
Q 62.6,-86.5,62.6,-88.2
Q 62.6,-88.2,62.6,-88.2
Q 62.7,-89.0,62.7,-89.8
Q 62.0,-89.7,61.3,-89.7
Q 61.7,-84.9,59.8,-79.3
Q 49.8,-50.1,25.9,-63.8
Q 24.4,-64.7,24.4,-66.9
Q 24.4,-69.3,26.4,-71.3
Q 26.8,-71.7,27.1,-72.0
Q 26.4,-72.2,25.6,-72.3
Q 24.2,-72.7,24.3,-73.6
Q 24.3,-74.5,27.0,-73.7
Q 27.2,-73.7,27.4,-73.6
Q 28.7,-73.4,30.4,-74.0
Q 31.4,-74.3,32.4,-74.7
Q 33.0,-75.3,33.6,-76.0
Q 34.7,-77.3,36.2,-78.7
Q 37.0,-79.3,37.8,-80.0
Q 38.0,-80.3,38.2,-80.7
Q 38.6,-81.4,40.0,-83.1
Q 39.5,-83.6,39.1,-84.1
Q 34.1,-79.6,32.1,-78.6
Q 30.0,-77.6,28.7,-79.1
Q 26.0,-82.0,33.3,-94.0
Q 35.1,-97.1,34.6,-97.4
Q 34.1,-97.7,36.0,-100.9
Q 38.2,-104.8,42.4,-108.5
Q 43.1,-109.1,43.1,-108.1
Q 43.1,-107.3,44.5,-106.6
Q 46.0,-105.9,48.2,-101.5
Q 51.2,-95.6,50.2,-92.4
Q 49.8,-91.2,45.7,-89.0
Q 44.1,-88.2,42.5,-87.0
Q 42.8,-86.6,43.1,-86.2
Q 43.9,-86.6,44.6,-87.0
Q 48.5,-89.0,52.2,-82.3
Q 54.1,-78.6,54.8,-82.7
Q 56.2,-90.9,51.7,-100.4
Q 49.4,-105.3,50.4,-105.3
Q 50.8,-105.3,51.1,-105.0
Q 51.5,-104.6,54.2,-99.1
Q 56.0,-100.5,57.3,-99.6
Q 59.3,-98.2,60.7,-93.1
Q 61.1,-91.4,61.3,-89.7
Q 62.0,-89.7,62.7,-89.8
Q 62.2,-91.8,61.8,-93.8
Q 60.0,-101.6,55.3,-108.9
Q 54.3,-110.4,53.3,-112.0
Q 51.6,-113.4,50.2,-115.1
Q 49.8,-115.3,49.3,-115.6
Q 48.4,-116.0,46.2,-116.9
Q 44.9,-116.9,43.6,-116.9
Q 42.4,-116.3,41.3,-115.8
Q 33.2,-111.7,24.8,-88.4
Q 22.7,-82.9,20.7,-77.3
Q 19.1,-73.0,19.0,-71.8
Q 19.0,-69.3,22.3,-63.1
Q 26.0,-56.0,33.8,-52.9
 " /> 
<path  
style="fill:rgb(31,181,0)" 
d="M 33.8 -52.9
Q 33.6,-52.5,33.9,-52.4
Q 34.1,-52.4,36.0,-52.4
Q 36.0,-52.6,36.1,-52.7
Q 36.2,-53.0,33.8,-52.9
 " /> 
<path  
style="fill:rgb(31,181,0)" 
d="M 43.6 -116.9
Q 44.9,-116.9,46.2,-116.9
Q 45.9,-117.0,45.6,-117.1
Q 44.9,-117.4,44.2,-117.1
Q 43.9,-117.0,43.6,-116.9
 " /> 
<path  
style="fill:rgb(31,181,0)" 
d="M 50.2 -115.1
Q 51.6,-113.4,53.3,-112.0
Q 52.0,-113.7,50.2,-115.1
 " /> 
<path  
style="fill:rgb(31,181,0)" 
d="M 62.7 -89.8
Q 62.7,-89.0,62.6,-88.2
Q 62.9,-87.4,63.1,-86.7
Q 63.1,-89.9,62.9,-89.9
Q 62.8,-89.8,62.7,-89.8
 " /> 
<path  
style="fill:rgb(31,181,0)" 
d="M 63.1 -86.7
Q 62.9,-87.4,62.6,-88.2
Q 62.6,-88.2,62.6,-88.2
Q 62.6,-86.5,63.1,-86.7
 " /> 
<path  
style="fill:rgb(31,181,0)" 
d="M 55.6 -63.6
Q 52.9,-61.3,51.8,-60.0
Q 51.2,-59.3,50.7,-58.7
Q 51.3,-59.2,52.0,-59.8
Q 53.3,-60.9,55.6,-63.6
 " /> 
<path  
style="fill:rgb(31,181,0)" 
d="M 39.1 -52.9
Q 38.6,-52.9,38.1,-52.8
Q 37.1,-52.8,36.9,-52.4
Q 38.9,-52.4,39.1,-52.9
 " /> 
<path  
style="fill:rgb(115,250,3)" 
d="M 44.0 -84.4
Q 43.1,-83.3,42.2,-82.1
Q 45.7,-83.3,47.0,-82.4
Q 48.4,-81.5,50.1,-79.1
Q 50.6,-78.4,51.1,-77.9
Q 51.5,-78.3,52.0,-78.7
Q 50.2,-81.8,47.6,-84.9
Q 46.4,-84.9,45.3,-84.9
Q 45.2,-84.8,45.1,-84.7
Q 44.8,-84.6,44.0,-84.4
 " /> 
<path  
style="fill:rgb(31,181,0)" 
d="M 44.0 -84.4
Q 41.3,-81.3,39.1,-78.7
Q 36.1,-75.1,33.2,-73.4
Q 30.0,-71.5,27.1,-72.0
Q 26.8,-71.7,26.4,-71.3
Q 24.4,-69.3,24.4,-66.9
Q 24.4,-64.7,25.9,-63.8
Q 49.8,-50.1,59.8,-79.3
Q 61.7,-84.9,61.3,-89.7
Q 61.1,-91.4,60.7,-93.1
Q 59.3,-98.2,57.3,-99.6
Q 56.0,-100.5,54.2,-99.1
Q 54.7,-98.1,55.1,-97.1
Q 57.6,-91.5,56.7,-82.1
Q 56.4,-77.9,54.3,-77.6
Q 53.6,-77.5,52.0,-78.7
Q 52.9,-77.6,53.8,-76.4
Q 53.3,-76.5,52.8,-76.6
Q 52.2,-76.7,51.1,-77.9
Q 50.6,-78.4,50.1,-79.1
Q 48.4,-81.5,47.0,-82.4
Q 45.7,-83.3,42.2,-82.1
Q 43.1,-83.3,44.0,-84.4
 " /> 
<path  
style="fill:rgb(4,4,4)" 
d="M 44.0 -84.4
Q 44.7,-84.7,45.3,-84.9
Q 45.7,-85.0,46.0,-85.1
Q 46.7,-85.4,47.6,-84.9
Q 50.2,-81.8,52.0,-78.7
Q 53.6,-77.5,54.3,-77.6
Q 56.4,-77.9,56.7,-82.1
Q 57.6,-91.5,55.1,-97.1
Q 54.7,-98.1,54.2,-99.1
Q 51.5,-104.6,51.1,-105.0
Q 50.8,-105.3,50.4,-105.3
Q 49.4,-105.3,51.7,-100.4
Q 56.2,-90.9,54.8,-82.7
Q 54.1,-78.6,52.2,-82.3
Q 48.5,-89.0,44.6,-87.0
Q 43.9,-86.6,43.1,-86.2
Q 41.7,-84.5,40.9,-83.8
Q 40.4,-83.4,40.0,-83.1
Q 38.6,-81.4,38.2,-80.7
Q 38.0,-80.3,37.8,-80.0
Q 37.1,-79.2,36.4,-78.5
Q 35.1,-76.9,32.4,-74.7
Q 32.8,-74.0,33.2,-73.4
Q 36.1,-75.1,39.1,-78.7
Q 41.3,-81.3,44.0,-84.4
 " /> 
<path  
style="fill:rgb(4,4,4)" 
d="M 27.1 -72.0
Q 27.3,-72.8,27.4,-73.6
Q 27.2,-73.7,27.0,-73.7
Q 24.3,-74.5,24.3,-73.6
Q 24.2,-72.7,25.6,-72.3
Q 26.4,-72.2,27.1,-72.0
 " /> 
<path  
style="fill:rgb(4,4,4)" 
d="M 27.1 -72.0
Q 30.0,-71.5,33.2,-73.4
Q 32.8,-74.0,32.4,-74.7
Q 31.4,-74.3,30.4,-74.0
Q 28.7,-73.4,27.4,-73.6
Q 27.3,-72.8,27.1,-72.0
 " /> 
<path  
style="fill:rgb(115,250,3)" 
d="M 52.0 -78.7
Q 51.5,-78.3,51.1,-77.9
Q 52.2,-76.7,52.8,-76.6
Q 53.3,-76.5,53.8,-76.4
Q 52.9,-77.6,52.0,-78.7
 " /> 
<path  
style="fill:rgb(31,181,0)" 
d="M 32.4 -74.7
Q 35.1,-76.9,36.4,-78.5
Q 37.1,-79.2,37.8,-80.0
Q 37.0,-79.3,36.2,-78.7
Q 34.7,-77.3,33.6,-76.0
Q 33.0,-75.3,32.4,-74.7
 " /> 
<path  
style="fill:rgb(115,250,3)" 
d="M 40.0 -83.1
Q 41.3,-84.9,42.2,-85.5
Q 42.7,-85.9,43.1,-86.2
Q 42.8,-86.6,42.5,-87.0
Q 41.0,-85.9,39.5,-84.5
Q 39.3,-84.3,39.1,-84.1
Q 39.5,-83.6,40.0,-83.1
 " /> 
<path  
style="fill:rgb(31,181,0)" 
d="M 40.0 -83.1
Q 40.4,-83.4,40.9,-83.8
Q 41.7,-84.5,43.1,-86.2
Q 42.7,-85.9,42.2,-85.5
Q 41.3,-84.9,40.0,-83.1
 " /> 
<path  
style="fill:rgb(31,181,0)" 
d="M 47.6 -84.9
Q 46.7,-85.4,46.0,-85.1
Q 45.7,-85.0,45.3,-84.9
Q 46.4,-84.9,47.6,-84.9
 " /> 
<path  
style="fill:rgb(209,251,185)" 
d="M 28.7 -79.1
Q 30.0,-77.6,32.1,-78.6
Q 34.1,-79.6,39.1,-84.1
Q 39.3,-84.3,39.5,-84.5
Q 41.0,-85.9,42.5,-87.0
Q 44.1,-88.2,45.7,-89.0
Q 49.8,-91.2,50.2,-92.4
Q 51.2,-95.6,48.2,-101.5
Q 46.0,-105.9,44.5,-106.6
Q 43.1,-107.3,43.1,-108.1
Q 43.1,-109.1,42.4,-108.5
Q 38.2,-104.8,36.0,-100.9
Q 34.1,-97.7,34.6,-97.4
Q 35.1,-97.1,33.3,-94.0
Q 26.0,-82.0,28.7,-79.1
 " /> 
<path  
style="fill:rgb(14,103,171)" 
d="M 46.2 -119.6
Q 45.1,-119.6,44.0,-119.6
Q 44.2,-119.4,44.4,-119.3
Q 44.9,-119.1,45.6,-119.3
Q 45.9,-119.4,46.2,-119.6
 " /> 
<path  
style="fill:rgb(7,193,201)" 
d="M 65.3 -88.0
Q 65.3,-85.8,65.4,-85.5
Q 65.4,-85.2,65.5,-85.3
Q 65.7,-85.3,65.8,-85.3
Q 65.8,-88.1,65.6,-88.1
Q 65.4,-88.0,65.3,-88.0
 " /> 
<path  
style="fill:rgb(7,193,201)" 
d="M 65.8 -84.9
Q 65.3,-84.7,65.3,-82.2
Q 65.4,-82.2,65.5,-82.3
Q 65.7,-82.3,65.8,-84.9
 " /> 
<path  
style="fill:rgb(4,4,4)" 
d="M -32.4 -125.8
Q -33.8,-125.3,-34.7,-125.8
Q -39.6,-124.4,-41.5,-122.8
Q -50.4,-115.0,-50.9,-99.8
Q -51.8,-75.7,-37.6,-61.6
Q -27.1,-51.1,-15.7,-53.1
Q -7.7,-54.4,-1.6,-66.8
Q -1.3,-65.4,-1.0,-64.0
Q -0.1,-60.0,0.7,-60.0
Q 2.3,-60.0,-2.7,-81.3
Q -9.4,-110.6,-22.5,-120.9
Q -23.0,-120.2,-23.6,-119.6
Q -22.9,-119.0,-22.2,-118.4
Q -20.9,-117.3,-19.8,-116.0
Q -19.2,-115.3,-18.7,-114.7
Q -12.0,-103.9,-8.2,-93.6
Q -6.7,-89.4,-3.8,-77.1
Q -2.6,-72.2,-3.1,-70.3
Q -3.6,-68.4,-6.7,-62.2
Q -7.6,-60.9,-8.5,-60.2
Q -8.9,-59.9,-9.3,-59.6
Q -14.6,-55.4,-18.1,-54.9
Q -23.7,-54.0,-33.3,-60.4
Q -36.0,-62.7,-38.2,-65.3
Q -39.0,-66.4,-39.8,-67.6
Q -48.9,-80.8,-48.9,-95.1
Q -49.0,-95.8,-49.1,-96.4
Q -49.4,-97.8,-49.1,-99.1
Q -49.0,-99.8,-48.9,-100.4
Q -48.9,-102.0,-48.9,-103.6
Q -48.8,-105.6,-48.4,-105.8
Q -48.1,-107.1,-47.7,-108.4
Q -44.8,-118.9,-38.4,-122.0
Q -32.5,-124.9,-23.6,-119.6
Q -23.0,-120.2,-22.5,-120.9
Q -27.1,-124.5,-32.4,-125.8
 " /> 
<path  
style="fill:rgb(14,103,171)" 
d="M -32.4 -125.8
Q -33.6,-125.8,-34.7,-125.8
Q -33.8,-125.3,-32.4,-125.8
 " /> 
<path  
style="fill:rgb(115,250,3)" 
d="M -38.2 -65.3
Q -35.6,-63.1,-34.5,-61.8
Q -33.9,-61.1,-33.3,-60.4
Q -23.7,-54.0,-18.1,-54.9
Q -14.6,-55.4,-9.3,-59.6
Q -8.0,-61.3,-6.7,-62.2
Q -3.6,-68.4,-3.1,-70.3
Q -2.6,-72.2,-3.8,-77.1
Q -6.7,-89.4,-8.2,-93.6
Q -12.0,-103.9,-18.7,-114.7
Q -19.3,-115.2,-20.0,-115.8
Q -21.3,-116.9,-23.6,-119.6
Q -32.5,-124.9,-38.4,-122.0
Q -44.8,-118.9,-47.7,-108.4
Q -48.1,-107.1,-48.4,-105.8
Q -48.4,-103.8,-48.9,-103.6
Q -48.9,-102.0,-48.9,-100.4
Q -48.9,-97.8,-48.9,-95.1
Q -48.9,-80.8,-39.8,-67.6
Q -39.0,-66.4,-38.2,-65.3
 " /> 
<path  
style="fill:rgb(255,255,255)" 
d="M -25.8 -81.8
Q -26.0,-82.3,-26.3,-82.8
Q -26.3,-82.8,-26.3,-82.8
Q -27.6,-81.2,-26.4,-81.6
Q -26.1,-81.7,-25.8,-81.8
 " /> 
<path  
style="fill:rgb(255,255,255)" 
d="M -25.8 -81.8
Q -24.0,-81.8,-22.2,-81.8
Q -23.5,-83.4,-24.6,-83.5
Q -25.7,-83.6,-26.3,-82.8
Q -26.0,-82.3,-25.8,-81.8
 " /> 
<path  
style="fill:rgb(31,181,0)" 
d="M -25.8 -81.8
Q -28.4,-79.6,-30.2,-77.7
Q -35.0,-72.7,-38.8,-82.3
Q -41.2,-88.4,-41.6,-96.8
Q -41.7,-98.2,-41.7,-99.6
Q -41.7,-99.8,-41.7,-100.0
Q -41.7,-101.0,-41.7,-102.0
Q -41.8,-103.1,-41.8,-104.4
Q -42.0,-103.9,-42.2,-103.3
Q -42.7,-102.2,-43.2,-102.3
Q -44.9,-102.6,-44.9,-96.4
Q -44.9,-89.6,-42.2,-81.4
Q -35.6,-61.6,-23.9,-60.2
Q -16.7,-59.3,-9.9,-66.0
Q -6.1,-69.8,-7.6,-72.4
Q -8.2,-73.4,-7.1,-74.2
Q -11.9,-71.8,-18.1,-78.8
Q -19.5,-80.5,-22.2,-81.8
Q -24.0,-81.8,-25.8,-81.8
 " /> 
<path  
style="fill:rgb(4,4,4)" 
d="M -25.8 -81.8
Q -26.1,-81.7,-26.4,-81.6
Q -27.6,-81.2,-26.3,-82.8
Q -26.3,-82.8,-26.3,-82.8
Q -25.7,-83.6,-24.6,-83.5
Q -23.5,-83.4,-22.2,-81.8
Q -19.5,-80.5,-18.1,-78.8
Q -11.9,-71.8,-7.1,-74.2
Q -7.4,-74.4,-7.8,-74.7
Q -8.4,-75.1,-9.9,-75.5
Q -13.3,-76.4,-18.0,-81.3
Q -22.2,-85.8,-24.4,-85.8
Q -26.7,-85.8,-30.0,-81.4
Q -32.0,-78.6,-32.7,-78.4
Q -36.1,-77.1,-40.0,-96.9
Q -40.1,-96.9,-40.1,-96.9
Q -40.9,-96.8,-41.6,-96.8
Q -41.2,-88.4,-38.8,-82.3
Q -35.0,-72.7,-30.2,-77.7
Q -28.4,-79.6,-25.8,-81.8
 " /> 
<path  
style="fill:rgb(4,4,4)" 
d="M -41.8 -104.4
Q -41.0,-104.3,-40.3,-104.2
Q -40.2,-104.8,-40.0,-104.9
Q -39.1,-109.8,-38.0,-111.4
Q -36.0,-114.2,-37.3,-114.2
Q -38.9,-114.2,-40.9,-108.9
Q -41.9,-106.2,-41.8,-105.3
Q -41.8,-104.9,-41.8,-104.4
 " /> 
<path  
style="fill:rgb(4,4,4)" 
d="M -41.8 -104.4
Q -41.8,-103.1,-41.7,-101.8
Q -41.1,-101.8,-40.4,-101.8
Q -40.4,-103.4,-40.3,-104.2
Q -41.0,-104.3,-41.8,-104.4
 " /> 
<path  
style="fill:rgb(31,181,0)" 
d="M -40.0 -104.9
Q -40.2,-104.8,-40.3,-104.2
Q -40.4,-103.4,-40.4,-101.8
Q -40.1,-101.9,-40.0,-103.4
Q -40.0,-104.1,-40.0,-104.9
 " /> 
<path  
style="fill:rgb(115,250,3)" 
d="M -40.4 -101.8
Q -40.4,-100.9,-40.4,-100.0
Q -40.3,-100.0,-40.2,-100.1
Q -40.2,-100.1,-40.2,-100.1
Q -40.3,-100.9,-40.4,-101.8
 " /> 
<path  
style="fill:rgb(4,4,4)" 
d="M -40.4 -101.8
Q -41.1,-101.8,-41.7,-101.8
Q -41.7,-100.8,-41.7,-99.8
Q -41.1,-100.0,-40.4,-100.0
Q -40.4,-100.9,-40.4,-101.8
 " /> 
<path  
style="fill:rgb(31,181,0)" 
d="M -40.4 -100.0
Q -40.5,-99.2,-40.5,-98.4
Q -40.2,-97.6,-40.0,-96.9
Q -40.0,-97.7,-40.0,-98.5
Q -40.0,-100.1,-40.2,-100.1
Q -40.2,-100.1,-40.2,-100.1
Q -40.3,-100.0,-40.4,-100.0
 " /> 
<path  
style="fill:rgb(4,4,4)" 
d="M -40.4 -100.0
Q -41.1,-100.0,-41.7,-100.0
Q -41.7,-99.8,-41.7,-99.6
Q -41.7,-98.2,-41.6,-96.8
Q -40.9,-96.8,-40.1,-96.9
Q -40.5,-97.0,-40.5,-98.4
Q -40.5,-98.4,-40.5,-98.4
Q -40.5,-99.2,-40.4,-100.0
 " /> 
<path  
style="fill:rgb(31,181,0)" 
d="M -40.0 -96.9
Q -40.2,-97.6,-40.5,-98.4
Q -40.5,-98.4,-40.5,-98.4
Q -40.5,-97.0,-40.1,-96.9
Q -40.1,-96.9,-40.0,-96.9
 " /> 
<path  
style="fill:rgb(209,251,185)" 
d="M -12.8 -82.5
Q -9.4,-80.5,-9.9,-82.1
Q -10.5,-84.2,-15.6,-94.4
Q -23.4,-109.9,-28.9,-106.1
Q -33.1,-103.2,-33.1,-98.5
Q -33.1,-91.2,-25.9,-89.1
Q -20.1,-87.4,-16.9,-85.1
Q -14.8,-83.6,-12.8,-82.5
 " /> 
<path  
style="fill:rgb(31,181,0)" 
d="M -38.2 -65.3
Q -36.0,-62.7,-33.3,-60.4
Q -33.9,-61.1,-34.5,-61.8
Q -35.6,-63.1,-38.2,-65.3
 " /> 
<path  
style="fill:rgb(31,181,0)" 
d="M -48.9 -95.1
Q -48.9,-97.8,-48.9,-100.4
Q -49.0,-99.8,-49.1,-99.1
Q -49.4,-97.8,-49.1,-96.4
Q -49.0,-95.8,-48.9,-95.1
 " /> 
<path  
style="fill:rgb(31,181,0)" 
d="M -48.9 -103.6
Q -48.4,-103.8,-48.4,-105.8
Q -48.8,-105.6,-48.9,-103.6
 " /> 
<path  
style="fill:rgb(31,181,0)" 
d="M -23.6 -119.6
Q -21.3,-116.9,-20.0,-115.8
Q -19.3,-115.2,-18.7,-114.7
Q -19.2,-115.3,-19.8,-116.0
Q -20.9,-117.3,-22.2,-118.4
Q -22.9,-119.0,-23.6,-119.6
 " /> 
<path  
style="fill:rgb(31,181,0)" 
d="M -6.7 -62.2
Q -8.0,-61.3,-9.3,-59.6
Q -8.9,-59.9,-8.5,-60.2
Q -7.6,-60.9,-6.7,-62.2
 " /> 
<path  
style="fill:rgb(14,103,171)" 
d="M -55.6 -2.2
Q -55.7,-1.9,-55.8,-1.6
Q -56.0,-0.9,-55.6,0.4
Q -55.6,-0.9,-55.6,-2.2
 " /> 
<path  
style="fill:rgb(14,103,171)" 
d="M -15.1 -156.9
Q -13.8,-155.1,-12.0,-153.8
Q -13.4,-155.5,-15.1,-156.9
 " /> 
<path  
style="fill:rgb(14,103,171)" 
d="M -4.9 -144.4
Q -2.9,-144.4,-0.9,-144.4
Q -3.1,-144.9,-4.0,-144.7
Q -4.4,-144.6,-4.9,-144.4
 " /> 
<path  
style="fill:rgb(14,103,171)" 
d="M 3.1 -144.0
Q 4.2,-144.0,5.3,-144.0
Q 4.0,-144.5,3.1,-144.0
 " /> 
<path  
style="fill:rgb(7,193,201)" 
d="M 9.8 -150.2
Q 10.2,-150.5,10.6,-150.9
Q 11.3,-151.5,12.0,-152.4
Q 11.7,-152.2,11.5,-152.0
Q 10.9,-151.6,10.3,-150.9
Q 10.1,-150.6,9.8,-150.2
 " /> 
<path  
style="fill:rgb(7,193,201)" 
d="M 12.4 -152.9
Q 14.0,-154.1,14.7,-155.1
Q 14.4,-154.9,14.1,-154.7
Q 13.6,-154.3,13.0,-153.6
Q 12.7,-153.2,12.4,-152.9
 " /> 
<path  
style="fill:rgb(7,193,201)" 
d="M 40.0 -153.8
Q 40.9,-152.5,42.7,-151.1
Q 41.3,-152.9,40.0,-153.8
 " /> 
<path  
style="fill:rgb(7,193,201)" 
d="M 76.0 -72.9
Q 76.0,-71.8,76.0,-70.7
Q 76.2,-70.7,76.4,-70.7
Q 76.4,-72.5,76.4,-72.7
Q 76.3,-73.0,76.0,-72.9
 " /> 
<path  
style="fill:rgb(14,103,171)" 
d="M 76.0 -70.7
Q 76.0,-68.0,76.0,-65.3
Q 76.1,-65.4,76.2,-65.4
Q 76.4,-65.4,76.4,-70.7
Q 76.2,-70.7,76.0,-70.7
 " /> 
<path  
style="fill:rgb(14,103,171)" 
d="M 62.2 -32.9
Q 60.5,-31.5,59.8,-30.6
Q 59.4,-30.2,59.1,-29.8
Q 59.5,-30.1,60.0,-30.5
Q 60.9,-31.1,62.2,-32.9
 " /> 
<path  
style="fill:rgb(7,193,201)" 
d="M 57.3 -24.0
Q 57.3,-23.3,57.3,-22.6
Q 57.5,-22.0,57.8,-21.3
Q 57.8,-24.1,57.6,-24.1
Q 57.4,-24.0,57.3,-24.0
 " /> 
<path  
style="fill:rgb(7,193,201)" 
d="M 57.8 -21.3
Q 57.5,-22.0,57.3,-22.6
Q 57.3,-22.6,57.3,-22.6
Q 57.3,-21.2,57.5,-21.3
Q 57.7,-21.3,57.8,-21.3
 " /> 
<path  
style="fill:rgb(7,193,201)" 
d="M 30.2 -11.6
Q 29.3,-11.1,28.7,-10.9
Q 28.3,-10.8,28.0,-10.7
Q 28.5,-10.7,29.1,-10.7
Q 30.1,-10.8,30.2,-11.6
 " /> 
<path  
style="fill:rgb(14,103,171)" 
d="M 3.1 -7.1
Q 1.8,-7.1,0.4,-7.1
Q 0.8,-7.0,1.1,-6.9
Q 1.8,-6.6,3.1,-7.1
 " /> 
<path  
style="fill:rgb(4,4,4)" 
d="M -96.9 -53.3
Q -96.6,-53.1,-96.2,-52.9
Q -95.6,-52.4,-95.1,-51.8
Q -94.9,-51.4,-94.7,-51.1
Q -93.2,-50.0,-91.8,-48.9
Q -84.8,-43.5,-81.8,-41.9
Q -78.9,-40.3,-75.8,-38.6
Q -64.7,-32.3,-53.9,-30.9
Q -53.1,-30.8,-52.4,-30.7
Q -54.3,-33.5,-55.8,-35.6
Q -57.2,-37.6,-58.4,-40.4
Q -59.0,-41.7,-59.6,-43.1
Q -60.7,-43.2,-61.8,-43.3
Q -70.5,-44.2,-85.1,-55.2
Q -92.9,-61.2,-92.9,-62.8
Q -92.9,-64.3,-89.9,-61.1
Q -88.2,-59.2,-84.6,-56.6
Q -69.4,-45.1,-61.8,-44.5
Q -61.1,-44.5,-60.4,-44.4
Q -67.8,-64.9,-68.9,-72.4
Q -70.4,-73.2,-72.0,-74.0
Q -82.2,-79.1,-87.9,-90.5
Q -90.1,-94.9,-89.3,-94.6
Q -88.8,-94.4,-87.5,-92.0
Q -80.6,-79.7,-68.9,-73.3
Q -69.1,-74.5,-69.3,-75.8
Q -69.8,-78.2,-70.2,-88.9
Q -75.1,-92.9,-78.1,-97.4
Q -81.0,-101.9,-82.3,-105.4
Q -84.6,-112.0,-83.7,-112.0
Q -83.3,-112.0,-82.0,-108.3
Q -78.1,-96.5,-71.9,-91.6
Q -71.1,-90.9,-70.2,-90.2
Q -70.1,-91.8,-70.0,-93.3
Q -69.8,-96.4,-69.3,-100.4
Q -69.1,-102.4,-68.9,-104.4
Q -74.0,-108.8,-76.7,-115.6
Q -77.8,-118.4,-78.3,-122.0
Q -77.4,-121.1,-76.5,-118.4
Q -74.2,-111.4,-70.8,-107.8
Q -70.2,-107.1,-69.6,-106.5
Q -69.1,-106.9,-68.6,-107.4
Q -68.5,-107.5,-68.4,-107.6
Q -67.1,-114.2,-64.9,-119.1
Q -65.2,-119.3,-65.6,-119.6
Q -67.9,-121.1,-68.3,-128.5
Q -68.5,-132.9,-68.0,-132.9
Q -67.6,-132.9,-67.6,-129.9
Q -67.6,-123.3,-64.9,-120.4
Q -64.1,-121.9,-63.3,-123.3
Q -61.8,-126.2,-59.9,-129.0
Q -58.1,-131.7,-58.7,-131.9
Q -62.1,-133.1,-61.6,-143.3
Q -61.5,-146.3,-61.3,-149.3
Q -61.3,-151.8,-60.9,-152.0
Q -60.9,-154.7,-60.9,-157.3
Q -60.9,-159.1,-60.9,-160.9
Q -61.0,-161.8,-61.1,-162.7
Q -61.5,-165.4,-62.3,-165.2
Q -66.6,-164.1,-70.8,-143.1
Q -71.6,-139.2,-73.6,-129.9
Q -73.8,-128.8,-74.5,-129.0
Q -75.9,-129.3,-76.2,-138.9
Q -76.4,-145.6,-77.2,-148.2
Q -77.7,-146.9,-78.2,-145.6
Q -79.2,-142.9,-79.8,-138.5
Q -81.1,-129.8,-82.0,-129.0
Q -84.3,-126.6,-86.6,-144.9
Q -89.3,-165.3,-93.6,-165.3
Q -94.2,-165.3,-94.9,-164.0
Q -96.6,-160.6,-96.8,-156.3
Q -96.8,-155.3,-96.9,-154.2
Q -96.9,-152.7,-96.9,-151.1
Q -96.4,-145.8,-96.2,-144.1
Q -95.1,-135.2,-91.1,-122.1
Q -88.6,-113.8,-91.9,-113.8
Q -95.3,-113.8,-99.8,-128.9
Q -102.9,-139.6,-104.4,-138.4
Q -106.3,-136.8,-107.1,-132.0
Q -107.3,-130.7,-107.6,-129.3
Q -107.6,-127.3,-108.0,-127.1
Q -108.0,-110.4,-103.5,-99.1
Q -102.6,-96.7,-102.1,-95.3
Q -99.4,-88.3,-93.2,-78.1
Q -88.4,-70.0,-91.9,-70.1
Q -93.6,-70.1,-101.1,-74.8
Q -105.1,-77.2,-107.7,-78.2
Q -108.9,-78.6,-110.2,-79.1
Q -110.2,-77.6,-110.2,-76.0
Q -109.4,-74.2,-108.7,-72.4
Q -104.7,-63.4,-101.7,-59.5
Q -100.4,-57.8,-96.9,-53.3
 " /> 
<path  
style="fill:rgb(14,103,171)" 
d="M -96.9 -53.3
Q -96.7,-53.0,-96.4,-52.7
Q -96.0,-52.0,-94.7,-51.1
Q -94.9,-51.4,-95.1,-51.8
Q -95.6,-52.4,-96.2,-52.9
Q -96.6,-53.1,-96.9,-53.3
 " /> 
<path  
style="fill:rgb(14,103,171)" 
d="M -110.2 -76.0
Q -110.2,-77.6,-110.2,-79.1
Q -110.3,-78.7,-110.5,-78.2
Q -110.7,-77.3,-110.2,-76.0
 " /> 
<path  
style="fill:rgb(14,103,171)" 
d="M -108.0 -127.1
Q -107.6,-127.3,-107.6,-129.3
Q -107.6,-129.3,-107.7,-129.2
Q -107.9,-129.2,-108.0,-127.1
 " /> 
<path  
style="fill:rgb(14,103,171)" 
d="M -96.9 -151.1
Q -96.9,-152.7,-96.9,-154.2
Q -97.0,-153.8,-97.1,-153.3
Q -97.4,-152.4,-96.9,-151.1
 " /> 
<path  
style="fill:rgb(14,103,171)" 
d="M -60.9 -160.9
Q -60.9,-159.1,-60.9,-157.3
Q -60.8,-157.8,-60.6,-158.2
Q -60.4,-159.1,-60.9,-160.9
 " /> 
<path  
style="fill:rgb(14,103,171)" 
d="M -60.9 -152.0
Q -61.3,-151.8,-61.3,-149.3
Q -61.2,-149.4,-61.1,-149.4
Q -61.0,-149.5,-60.9,-152.0
 " /> 
<path  
style="fill:rgb(97,247,248)" 
d="M -64.9 -120.4
Q -67.6,-123.3,-67.6,-129.9
Q -67.6,-132.9,-68.0,-132.9
Q -68.5,-132.9,-68.3,-128.5
Q -67.9,-121.1,-65.6,-119.6
Q -65.2,-119.3,-64.9,-119.1
Q -64.9,-119.8,-64.9,-120.4
 " /> 
<path  
style="fill:rgb(14,103,171)" 
d="M -68.4 -107.6
Q -68.5,-107.5,-68.6,-107.4
Q -68.9,-107.0,-68.9,-105.8
Q -68.7,-105.7,-68.6,-105.7
Q -68.5,-106.4,-68.4,-107.6
 " /> 
<path  
style="fill:rgb(7,193,201)" 
d="M -68.9 -105.8
Q -68.9,-107.0,-68.6,-107.4
Q -69.1,-106.9,-69.6,-106.5
Q -69.2,-106.1,-68.9,-105.8
 " /> 
<path  
style="fill:rgb(97,247,248)" 
d="M -70.2 -90.2
Q -71.1,-90.9,-71.9,-91.6
Q -78.1,-96.5,-82.0,-108.3
Q -83.3,-112.0,-83.7,-112.0
Q -84.6,-112.0,-82.3,-105.4
Q -81.0,-101.9,-78.1,-97.4
Q -75.1,-92.9,-70.2,-88.9
Q -70.2,-89.6,-70.2,-90.2
 " /> 
<path  
style="fill:rgb(97,247,248)" 
d="M -68.9 -73.3
Q -80.6,-79.7,-87.5,-92.0
Q -88.8,-94.4,-89.3,-94.6
Q -90.1,-94.9,-87.9,-90.5
Q -82.2,-79.1,-72.0,-74.0
Q -70.4,-73.2,-68.9,-72.4
Q -68.9,-72.9,-68.9,-73.3
 " /> 
<path  
style="fill:rgb(97,247,248)" 
d="M -60.4 -44.4
Q -61.1,-44.5,-61.8,-44.5
Q -69.4,-45.1,-84.6,-56.6
Q -88.2,-59.2,-89.9,-61.1
Q -92.9,-64.3,-92.9,-62.8
Q -92.9,-61.2,-85.1,-55.2
Q -70.5,-44.2,-61.8,-43.3
Q -60.7,-43.2,-59.6,-43.1
Q -60.0,-43.8,-60.4,-44.4
 " /> 
<path  
style="fill:rgb(4,4,4)" 
d="M 73.8 -47.1
Q 74.4,-47.4,75.1,-47.8
Q 76.4,-48.4,78.5,-49.1
Q 83.9,-50.9,89.3,-54.3
Q 92.2,-56.1,92.9,-56.3
Q 93.2,-56.4,93.5,-56.5
Q 90.8,-53.9,87.7,-52.1
Q 81.1,-48.1,75.8,-47.1
Q 74.8,-46.9,73.8,-46.7
Q 70.2,-38.9,67.3,-35.2
Q 66.9,-34.6,66.5,-34.1
Q 76.2,-35.5,86.8,-40.7
Q 92.4,-43.4,100.4,-49.8
Q 101.0,-50.4,101.6,-51.1
Q 102.7,-52.4,104.0,-53.5
Q 104.7,-54.1,105.3,-54.7
Q 105.9,-55.4,106.4,-56.2
Q 109.6,-60.6,110.1,-63.1
Q 110.6,-66.0,104.7,-61.5
Q 99.7,-57.8,98.6,-60.2
Q 97.6,-62.4,107.3,-77.0
Q 119.1,-94.8,121.1,-105.1
Q 121.4,-106.8,121.8,-108.4
Q 121.8,-110.5,122.0,-110.6
Q 122.1,-110.6,122.2,-110.7
Q 122.1,-111.4,122.0,-112.2
Q 121.6,-115.3,118.5,-112.2
Q 116.9,-110.6,110.2,-101.8
Q 108.9,-100.5,108.4,-100.4
Q 108.2,-100.4,108.0,-100.4
Q 107.3,-101.8,107.4,-102.5
Q 107.5,-103.3,110.3,-111.7
Q 113.4,-121.1,114.9,-127.0
Q 116.4,-132.9,116.9,-141.3
Q 116.9,-143.3,116.9,-145.3
Q 116.9,-150.2,114.7,-152.9
Q 112.1,-156.2,106.5,-141.4
Q 105.0,-137.3,103.4,-133.3
Q 102.6,-131.3,101.8,-129.3
Q 101.4,-128.9,101.1,-128.5
Q 100.4,-127.7,99.1,-128.0
Q 96.3,-130.2,94.2,-138.0
Q 90.5,-151.8,85.5,-157.2
Q 80.0,-163.3,80.0,-149.8
Q 80.0,-138.0,75.6,-138.8
Q 74.2,-139.1,72.9,-140.2
Q 72.2,-140.8,71.6,-141.3
Q 71.2,-141.6,70.9,-141.8
Q 70.2,-142.2,69.8,-142.9
Q 69.6,-143.2,69.3,-143.6
Q 68.7,-143.7,69.2,-141.9
Q 69.5,-140.9,69.8,-140.0
Q 70.3,-137.8,69.8,-136.0
Q 69.6,-135.7,69.3,-135.3
Q 68.0,-133.3,59.4,-140.6
Q 59.6,-140.0,59.7,-139.3
Q 60.1,-138.0,60.2,-137.4
Q 60.4,-136.8,59.9,-135.9
Q 58.8,-133.8,57.0,-133.8
Q 56.0,-133.8,56.1,-133.5
Q 56.2,-133.1,58.7,-131.1
Q 59.4,-130.4,60.2,-129.8
Q 61.8,-128.4,64.4,-125.3
Q 67.1,-121.8,68.8,-118.8
Q 70.6,-115.8,72.2,-111.4
Q 73.8,-107.1,75.6,-99.6
Q 80.4,-104.4,82.0,-107.7
Q 85.3,-114.6,85.6,-128.8
Q 85.9,-138.2,86.0,-138.4
Q 86.6,-139.2,87.0,-132.2
Q 88.0,-110.4,78.5,-100.8
Q 77.3,-99.5,76.0,-98.2
Q 76.0,-97.1,76.0,-96.0
Q 76.5,-96.1,76.5,-94.9
Q 76.5,-94.9,76.5,-94.9
Q 76.5,-94.4,76.4,-93.8
Q 76.9,-92.9,76.9,-91.3
Q 76.9,-90.6,76.9,-89.8
Q 77.4,-89.9,77.3,-88.7
Q 77.3,-88.7,77.3,-88.7
Q 77.3,-88.1,77.3,-87.6
Q 77.3,-86.7,77.3,-85.8
Q 77.5,-85.8,77.6,-85.8
Q 77.8,-85.9,77.8,-84.7
Q 77.8,-84.7,77.8,-84.7
Q 77.8,-84.1,77.8,-83.6
Q 77.8,-82.4,77.8,-81.3
Q 79.1,-82.3,80.4,-83.3
Q 85.4,-87.1,93.6,-98.3
Q 103.5,-111.9,107.4,-123.0
Q 108.6,-126.2,109.0,-126.2
Q 110.0,-126.2,107.6,-120.2
Q 103.3,-109.4,94.9,-98.0
Q 85.8,-85.7,79.7,-81.4
Q 78.7,-80.7,77.8,-80.0
Q 77.8,-79.8,77.8,-79.6
Q 77.9,-79.6,78.0,-79.6
Q 78.3,-79.7,78.2,-76.4
Q 78.2,-75.2,78.2,-74.0
Q 78.3,-71.6,78.2,-66.7
Q 81.8,-67.6,84.0,-68.6
Q 93.1,-73.0,102.1,-86.4
Q 103.8,-88.9,104.4,-88.9
Q 105.6,-88.9,99.1,-80.6
Q 95.4,-75.9,93.3,-73.8
Q 88.6,-68.9,78.2,-65.3
Q 78.2,-64.4,78.2,-63.6
Q 78.2,-61.5,77.8,-61.3
Q 77.2,-53.9,74.7,-48.9
Q 74.2,-48.0,73.8,-47.1
 " /> 
<path  
style="fill:rgb(97,247,248)" 
d="M 72.2 -119.2
Q 71.9,-117.8,72.4,-117.8
Q 73.8,-117.8,73.9,-125.0
Q 74.0,-128.5,73.5,-128.7
Q 72.9,-128.9,72.7,-124.8
Q 72.5,-120.7,72.2,-119.2
 " /> 
<path  
style="fill:rgb(97,247,248)" 
d="M 64.4 -128.6
Q 64.4,-127.6,64.9,-127.6
Q 65.3,-127.6,65.5,-129.0
Q 65.8,-130.4,66.0,-131.2
Q 66.1,-132.0,65.5,-132.0
Q 64.4,-132.0,64.4,-128.6
 " /> 
<path  
style="fill:rgb(97,247,248)" 
d="M 73.8 -47.1
Q 73.8,-46.9,73.8,-46.7
Q 74.8,-46.9,75.8,-47.1
Q 81.1,-48.1,87.7,-52.1
Q 90.8,-53.9,93.5,-56.5
Q 93.2,-56.4,92.9,-56.3
Q 92.2,-56.1,89.3,-54.3
Q 83.9,-50.9,78.5,-49.1
Q 76.4,-48.4,75.1,-47.8
Q 74.4,-47.4,73.8,-47.1
 " /> 
<path  
style="fill:rgb(14,103,171)" 
d="M 77.8 -61.3
Q 78.2,-61.5,78.2,-63.6
Q 78.1,-63.5,78.0,-63.5
Q 77.8,-63.4,77.8,-62.4
Q 77.8,-61.9,77.8,-61.3
 " /> 
<path  
style="fill:rgb(97,247,248)" 
d="M 78.2 -65.3
Q 88.6,-68.9,93.3,-73.8
Q 95.4,-75.9,99.1,-80.6
Q 105.6,-88.9,104.4,-88.9
Q 103.8,-88.9,102.1,-86.4
Q 93.1,-73.0,84.0,-68.6
Q 81.8,-67.6,78.2,-66.7
Q 78.2,-66.0,78.2,-65.3
 " /> 
<path  
style="fill:rgb(14,103,171)" 
d="M 78.2 -76.4
Q 78.3,-79.7,78.0,-79.6
Q 77.9,-79.6,77.8,-79.6
Q 77.8,-76.3,78.0,-76.4
Q 78.1,-76.4,78.2,-76.4
 " /> 
<path  
style="fill:rgb(97,247,248)" 
d="M 77.8 -80.0
Q 78.7,-80.7,79.7,-81.4
Q 85.8,-85.7,94.9,-98.0
Q 103.3,-109.4,107.6,-120.2
Q 110.0,-126.2,109.0,-126.2
Q 108.6,-126.2,107.4,-123.0
Q 103.5,-111.9,93.6,-98.3
Q 85.4,-87.1,80.4,-83.3
Q 79.1,-82.3,77.8,-81.3
Q 77.8,-80.7,77.8,-80.0
 " /> 
<path  
style="fill:rgb(14,103,171)" 
d="M 77.8 -83.6
Q 77.8,-84.1,77.8,-84.7
Q 77.6,-85.2,77.3,-85.8
Q 77.3,-83.4,77.6,-83.5
Q 77.7,-83.5,77.8,-83.6
 " /> 
<path  
style="fill:rgb(14,103,171)" 
d="M 77.3 -85.8
Q 77.6,-85.2,77.8,-84.7
Q 77.8,-84.7,77.8,-84.7
Q 77.8,-85.9,77.6,-85.8
Q 77.5,-85.8,77.3,-85.8
 " /> 
<path  
style="fill:rgb(14,103,171)" 
d="M 77.3 -87.6
Q 77.3,-88.1,77.3,-88.7
Q 77.1,-89.2,76.9,-89.8
Q 76.9,-87.4,77.1,-87.5
Q 77.2,-87.5,77.3,-87.6
 " /> 
<path  
style="fill:rgb(14,103,171)" 
d="M 76.9 -89.8
Q 77.1,-89.2,77.3,-88.7
Q 77.3,-88.7,77.3,-88.7
Q 77.4,-89.9,76.9,-89.8
 " /> 
<path  
style="fill:rgb(14,103,171)" 
d="M 76.4 -93.8
Q 76.5,-94.4,76.5,-94.9
Q 76.2,-95.5,76.0,-96.0
Q 76.0,-94.2,76.1,-93.9
Q 76.1,-93.7,76.4,-93.8
 " /> 
<path  
style="fill:rgb(14,103,171)" 
d="M 76.0 -96.0
Q 76.2,-95.5,76.5,-94.9
Q 76.5,-94.9,76.5,-94.9
Q 76.5,-96.1,76.0,-96.0
 " /> 
<path  
style="fill:rgb(97,247,248)" 
d="M 76.0 -98.2
Q 75.8,-98.9,75.6,-99.6
Q 75.6,-98.1,75.8,-98.1
Q 75.9,-98.2,76.0,-98.2
 " /> 
<path  
style="fill:rgb(14,103,171)" 
d="M 64.4 -125.3
Q 61.8,-128.4,60.2,-129.8
Q 59.4,-130.4,58.7,-131.1
Q 61.3,-128.0,62.9,-126.7
Q 63.7,-126.0,64.4,-125.3
 " /> 
<path  
style="fill:rgb(14,103,171)" 
d="M 69.8 -136.0
Q 70.3,-137.8,69.8,-140.0
Q 69.8,-138.0,69.8,-136.0
 " /> 
<path  
style="fill:rgb(14,103,171)" 
d="M 69.3 -143.6
Q 69.6,-143.2,69.8,-142.9
Q 70.2,-142.2,70.9,-141.8
Q 71.2,-141.6,71.6,-141.3
Q 71.3,-141.7,71.1,-142.0
Q 70.6,-142.6,69.3,-143.6
 " /> 
<path  
style="fill:rgb(14,103,171)" 
d="M 99.1 -128.0
Q 100.4,-127.7,101.1,-128.5
Q 101.4,-128.9,101.8,-129.3
Q 101.4,-129.0,101.1,-128.7
Q 100.4,-128.1,99.7,-128.1
Q 99.4,-128.0,99.1,-128.0
 " /> 
<path  
style="fill:rgb(14,103,171)" 
d="M 116.9 -145.3
Q 116.9,-143.3,116.9,-141.3
Q 117.0,-141.9,117.1,-142.4
Q 117.4,-143.5,117.1,-144.4
Q 117.0,-144.9,116.9,-145.3
 " /> 
<path  
style="fill:rgb(14,103,171)" 
d="M 108.0 -100.4
Q 108.2,-100.4,108.4,-100.4
Q 108.9,-100.5,110.2,-101.8
Q 109.9,-101.5,109.6,-101.3
Q 109.0,-100.8,108.5,-100.6
Q 108.3,-100.5,108.0,-100.4
 " /> 
<path  
style="fill:rgb(14,103,171)" 
d="M 122.2 -110.7
Q 122.1,-110.6,122.0,-110.6
Q 121.8,-110.5,121.8,-108.4
Q 122.2,-108.6,122.2,-109.6
Q 122.2,-110.1,122.2,-110.7
 " /> 
<path  
style="fill:rgb(14,103,171)" 
d="M 105.3 -54.7
Q 104.7,-54.1,104.0,-53.5
Q 102.7,-52.4,101.6,-51.1
Q 101.0,-50.4,100.4,-49.8
Q 101.1,-50.3,101.8,-50.9
Q 103.1,-52.0,104.2,-53.3
Q 104.8,-54.0,105.3,-54.7
 " /> 
<path  
style="fill:rgb(7,193,201)" 
d="M -13.3 -157.8
Q -12.9,-157.4,-12.5,-157.1
Q -11.6,-156.4,-10.9,-155.5
Q -10.6,-155.1,-10.2,-154.7
Q -9.4,-153.7,-8.7,-152.7
Q -7.1,-150.7,-5.7,-148.4
Q -4.4,-146.2,-2.1,-146.2
Q 0.2,-146.2,2.3,-146.0
Q 4.4,-145.7,5.7,-147.9
Q 7.0,-150.0,8.6,-151.7
Q 9.4,-152.5,10.2,-153.3
Q 11.5,-154.9,12.4,-155.7
Q 12.9,-156.1,13.3,-156.4
Q 17.8,-159.6,19.0,-161.6
Q 22.2,-167.4,26.2,-184.0
Q 26.2,-184.5,26.2,-185.0
Q 26.2,-186.0,26.4,-186.1
Q 26.6,-186.2,26.7,-186.2
Q 26.7,-187.3,26.7,-188.4
Q 26.0,-187.8,25.4,-187.2
Q 22.2,-184.0,18.2,-172.4
Q 16.2,-166.5,15.5,-168.2
Q 15.1,-169.1,16.0,-171.3
Q 18.3,-177.5,18.3,-179.0
Q 18.1,-182.5,14.7,-184.0
Q 14.0,-183.9,13.4,-183.9
Q 12.2,-183.8,11.9,-183.4
Q 11.7,-183.3,11.6,-183.1
Q 9.3,-173.4,8.5,-172.2
Q 8.1,-171.7,7.8,-171.6
Q 6.4,-171.3,8.6,-179.1
Q 9.7,-182.9,9.1,-183.2
Q 7.0,-184.4,9.3,-185.1
Q 10.4,-185.5,12.4,-199.1
Q 11.8,-199.3,11.1,-199.5
Q 10.9,-198.8,10.7,-198.0
Q 9.6,-194.4,7.4,-184.5
Q 7.3,-183.7,7.1,-183.1
Q 6.5,-181.6,5.8,-181.3
Q 5.6,-181.7,5.5,-182.0
Q 5.3,-182.6,5.8,-183.6
Q 6.7,-189.8,6.4,-192.0
Q 6.2,-194.2,4.0,-198.7
Q 2.7,-199.6,1.8,-200.9
Q 1.2,-200.4,0.7,-199.9
Q 1.7,-194.1,1.7,-189.7
Q 1.8,-187.4,1.9,-184.5
Q 2.0,-184.2,2.0,-183.8
Q 2.1,-182.1,2.2,-180.4
Q 2.0,-180.1,1.8,-179.8
Q 1.3,-179.1,0.9,-179.3
Q 0.4,-179.6,0.4,-180.4
Q 0.4,-180.9,0.4,-181.3
Q 0.4,-182.9,0.4,-184.4
Q 0.3,-184.4,0.2,-184.4
Q -0.1,-184.3,-0.0,-186.6
Q -0.0,-187.7,0.0,-188.9
Q -0.2,-191.0,-0.4,-193.1
Q -1.5,-203.3,-2.9,-209.3
Q -3.6,-212.2,-4.1,-214.4
Q -5.0,-218.8,-6.4,-218.8
Q -6.8,-218.8,-8.0,-216.0
Q -8.0,-215.5,-8.0,-215.0
Q -8.0,-214.0,-8.2,-213.9
Q -8.3,-213.8,-8.4,-213.8
Q -8.4,-213.3,-8.4,-212.9
Q -8.3,-212.6,-8.2,-212.2
Q -7.9,-211.6,-8.2,-210.9
Q -8.3,-210.6,-8.4,-210.2
Q -8.4,-210.0,-8.4,-209.8
Q -8.3,-209.8,-8.2,-209.9
Q -7.9,-209.9,-8.0,-205.8
Q -8.0,-204.4,-8.0,-203.1
Q -8.0,-200.4,-7.6,-196.9
Q -7.0,-197.0,-7.1,-195.9
Q -7.1,-195.9,-7.1,-195.9
Q -7.1,-195.3,-7.1,-194.7
Q -7.1,-194.0,-7.1,-193.3
Q -6.7,-193.4,-6.7,-193.2
Q -6.6,-192.9,-6.7,-191.1
Q -6.7,-190.4,-6.7,-189.8
Q -6.5,-189.8,-6.4,-189.9
Q -6.1,-189.9,-6.2,-187.1
Q -6.2,-186.4,-6.2,-185.8
Q -6.1,-185.8,-6.0,-185.9
Q -5.7,-185.9,-5.8,-183.1
Q -5.8,-181.8,-6.4,-181.7
Q -7.1,-181.6,-7.6,-184.4
Q -7.7,-184.4,-7.8,-184.4
Q -8.1,-184.3,-8.0,-186.7
Q -8.3,-189.3,-8.7,-192.0
Q -9.3,-197.3,-9.7,-199.2
Q -9.9,-200.1,-10.1,-201.0
Q -13.5,-195.3,-11.0,-188.0
Q -8.6,-181.0,-9.0,-180.6
Q -10.1,-179.5,-11.7,-184.5
Q -14.3,-192.5,-17.2,-198.4
Q -17.5,-199.1,-17.8,-199.8
Q -17.7,-198.5,-17.6,-197.3
Q -17.1,-193.9,-14.9,-185.3
Q -12.8,-177.1,-11.5,-172.4
Q -10.5,-168.8,-11.5,-168.7
Q -12.1,-168.7,-14.8,-178.1
Q -17.6,-187.5,-18.4,-187.3
Q -20.3,-186.7,-21.6,-184.6
Q -22.5,-183.3,-18.0,-176.2
Q -13.3,-168.8,-12.4,-167.5
Q -10.4,-164.5,-12.2,-165.0
Q -14.4,-165.5,-21.7,-178.0
Q -23.5,-181.1,-26.5,-186.0
Q -29.4,-190.9,-30.5,-192.8
Q -33.8,-198.5,-31.3,-185.1
Q -27.6,-166.0,-22.6,-163.5
Q -21.1,-162.8,-18.9,-161.9
Q -16.6,-161.0,-15.0,-159.4
Q -14.2,-158.6,-13.3,-157.8
 " /> 
<path  
style="fill:rgb(14,103,171)" 
d="M -13.3 -157.8
Q -13.0,-157.3,-12.6,-156.9
Q -12.0,-156.0,-11.1,-155.3
Q -10.7,-155.0,-10.2,-154.7
Q -10.6,-155.1,-10.9,-155.5
Q -11.6,-156.4,-12.5,-157.1
Q -12.9,-157.4,-13.3,-157.8
 " /> 
<path  
style="fill:rgb(14,103,171)" 
d="M -8.0 -186.7
Q -8.1,-184.3,-7.8,-184.4
Q -7.7,-184.4,-7.6,-184.4
Q -7.6,-185.1,-7.6,-185.7
Q -7.6,-185.7,-7.6,-185.8
Q -7.6,-186.3,-7.7,-186.5
Q -7.8,-186.7,-7.9,-186.7
Q -7.9,-186.7,-8.0,-186.7
 " /> 
<path  
style="fill:rgb(4,4,4)" 
d="M -7.6 -184.4
Q -6.9,-184.4,-6.2,-184.5
Q -6.2,-185.0,-6.2,-185.8
Q -6.9,-185.8,-7.6,-185.8
Q -7.6,-185.7,-7.6,-185.7
Q -7.6,-185.1,-7.6,-184.4
 " /> 
<path  
style="fill:rgb(4,4,4)" 
d="M -7.6 -184.4
Q -7.1,-181.6,-6.4,-181.7
Q -5.8,-181.8,-5.8,-183.1
Q -6.1,-182.9,-6.2,-183.2
Q -6.2,-183.3,-6.2,-184.5
Q -6.9,-184.4,-7.6,-184.4
 " /> 
<path  
style="fill:rgb(14,103,171)" 
d="M -5.8 -183.1
Q -5.7,-185.9,-6.0,-185.9
Q -6.1,-185.8,-6.2,-185.8
Q -6.2,-185.0,-6.2,-184.5
Q -6.2,-183.3,-6.2,-183.2
Q -6.1,-182.9,-5.8,-183.1
 " /> 
<path  
style="fill:rgb(4,4,4)" 
d="M -6.2 -185.8
Q -6.2,-186.4,-6.2,-187.1
Q -6.3,-187.1,-6.4,-187.1
Q -7.0,-186.8,-7.7,-186.5
Q -7.6,-186.3,-7.6,-185.7
Q -6.9,-185.8,-6.2,-185.8
 " /> 
<path  
style="fill:rgb(14,103,171)" 
d="M -6.2 -187.1
Q -6.1,-189.9,-6.4,-189.9
Q -6.5,-189.8,-6.7,-189.8
Q -6.7,-187.4,-6.6,-187.2
Q -6.6,-187.2,-6.6,-187.1
Q -6.5,-187.0,-6.3,-187.1
Q -6.3,-187.1,-6.2,-187.1
 " /> 
<path  
style="fill:rgb(14,103,171)" 
d="M -6.7 -191.1
Q -6.6,-192.9,-6.7,-193.2
Q -6.7,-193.4,-7.1,-193.3
Q -7.1,-191.4,-7.1,-191.2
Q -7.0,-190.9,-6.7,-191.1
 " /> 
<path  
style="fill:rgb(14,103,171)" 
d="M -7.1 -194.7
Q -7.1,-195.3,-7.1,-195.9
Q -7.3,-196.4,-7.6,-196.9
Q -7.6,-196.3,-7.6,-195.7
Q -7.6,-194.4,-7.1,-194.7
 " /> 
<path  
style="fill:rgb(14,103,171)" 
d="M -7.6 -196.9
Q -7.3,-196.4,-7.1,-195.9
Q -7.1,-195.9,-7.1,-195.9
Q -7.0,-197.0,-7.6,-196.9
 " /> 
<path  
style="fill:rgb(14,103,171)" 
d="M -8.0 -205.8
Q -7.9,-209.9,-8.2,-209.9
Q -8.3,-209.8,-8.4,-209.8
Q -8.4,-206.1,-8.4,-205.8
Q -8.3,-205.6,-8.0,-205.8
 " /> 
<path  
style="fill:rgb(4,4,4)" 
d="M -8.4 -209.8
Q -8.4,-210.0,-8.4,-210.2
Q -8.4,-210.3,-8.4,-210.3
Q -8.4,-210.4,-8.4,-211.7
Q -8.4,-212.3,-8.4,-212.9
Q -9.2,-212.9,-9.9,-213.0
Q -10.0,-211.6,-10.0,-209.9
Q -10.0,-209.8,-10.0,-209.8
Q -9.2,-209.8,-8.4,-209.8
 " /> 
<path  
style="fill:rgb(14,103,171)" 
d="M -8.4 -210.2
Q -8.3,-210.6,-8.2,-210.9
Q -7.9,-211.6,-8.2,-212.2
Q -8.3,-212.6,-8.4,-212.9
Q -8.4,-212.3,-8.4,-211.7
Q -8.4,-210.4,-8.4,-210.3
Q -8.4,-210.3,-8.4,-210.2
 " /> 
<path  
style="fill:rgb(4,4,4)" 
d="M -8.4 -212.9
Q -8.4,-213.3,-8.4,-213.8
Q -8.4,-215.8,-8.2,-215.9
Q -8.1,-216.0,-8.0,-216.0
Q -8.8,-216.1,-9.6,-216.2
Q -9.9,-214.0,-10.0,-210.7
Q -9.2,-212.9,-8.4,-212.9
 " /> 
<path  
style="fill:rgb(14,103,171)" 
d="M -8.4 -213.8
Q -8.3,-213.8,-8.2,-213.9
Q -8.0,-214.0,-8.0,-215.0
Q -8.0,-215.5,-8.0,-216.0
Q -8.1,-216.0,-8.2,-215.9
Q -8.4,-215.8,-8.4,-213.8
 " /> 
<path  
style="fill:rgb(4,4,4)" 
d="M -8.0 -216.0
Q -6.8,-218.8,-6.4,-218.8
Q -5.0,-218.8,-4.1,-214.4
Q -3.6,-212.2,-2.9,-209.3
Q -1.5,-203.3,-0.4,-193.1
Q -0.2,-191.0,0.0,-188.9
Q 0.3,-189.1,0.4,-188.8
Q 0.4,-188.6,0.4,-184.4
Q 1.2,-184.5,1.9,-184.5
Q 1.8,-187.4,1.7,-189.7
Q 1.7,-194.1,0.7,-199.9
Q 0.7,-199.9,0.7,-199.9
Q 0.5,-200.8,0.6,-201.0
Q 0.8,-201.2,1.8,-200.9
Q 2.3,-201.5,2.8,-202.1
Q 2.3,-202.6,1.8,-202.9
Q 0.2,-203.9,-0.3,-207.0
Q -2.2,-218.0,-4.5,-220.1
Q -8.5,-223.8,-9.6,-216.2
Q -8.8,-216.1,-8.0,-216.0
 " /> 
<path  
style="fill:rgb(14,103,171)" 
d="M 0.0 -188.9
Q -0.0,-187.7,-0.0,-186.6
Q -0.1,-184.3,0.2,-184.4
Q 0.3,-184.4,0.4,-184.4
Q 0.4,-188.6,0.4,-188.8
Q 0.3,-189.1,0.0,-188.9
 " /> 
<path  
style="fill:rgb(4,4,4)" 
d="M 0.4 -184.4
Q 0.4,-182.9,0.4,-181.3
Q 0.5,-181.0,0.7,-180.6
Q 1.1,-179.3,2.2,-180.4
Q 2.1,-182.1,2.0,-183.8
Q 2.0,-184.2,1.9,-184.5
Q 1.2,-184.5,0.4,-184.4
 " /> 
<path  
style="fill:rgb(14,103,171)" 
d="M 0.4 -181.3
Q 0.4,-180.9,0.4,-180.4
Q 0.4,-179.6,0.9,-179.3
Q 1.3,-179.1,1.8,-179.8
Q 2.0,-180.1,2.2,-180.4
Q 1.1,-179.3,0.7,-180.6
Q 0.5,-181.0,0.4,-181.3
 " /> 
<path  
style="fill:rgb(4,4,4)" 
d="M 1.8 -200.9
Q 2.1,-200.7,2.4,-200.4
Q 3.1,-200.0,4.0,-198.7
Q 4.6,-199.1,5.2,-199.5
Q 3.8,-201.4,2.3,-202.5
Q 2.3,-201.5,1.8,-200.9
 " /> 
<path  
style="fill:rgb(14,103,171)" 
d="M 1.8 -200.9
Q 2.7,-199.6,4.0,-198.7
Q 3.1,-200.0,2.4,-200.4
Q 2.1,-200.7,1.8,-200.9
 " /> 
<path  
style="fill:rgb(7,193,201)" 
d="M 1.8 -200.9
Q 0.8,-201.2,0.6,-201.0
Q 0.5,-200.8,0.7,-199.9
Q 0.7,-199.9,0.7,-199.9
Q 1.2,-200.4,1.8,-200.9
 " /> 
<path  
style="fill:rgb(4,4,4)" 
d="M 5.8 -183.6
Q 5.8,-182.4,5.8,-181.3
Q 6.5,-181.6,7.1,-183.1
Q 6.4,-183.3,5.8,-183.6
 " /> 
<path  
style="fill:rgb(14,103,171)" 
d="M 5.8 -183.6
Q 5.3,-182.6,5.5,-182.0
Q 5.6,-181.7,5.8,-181.3
Q 5.8,-182.4,5.8,-183.6
 " /> 
<path  
style="fill:rgb(14,103,171)" 
d="M 11.6 -200.9
Q 12.0,-200.5,12.5,-200.0
Q 12.5,-200.0,12.5,-200.0
Q 12.6,-200.9,11.6,-200.9
 " /> 
<path  
style="fill:rgb(14,103,171)" 
d="M 11.6 -200.9
Q 11.9,-200.0,12.2,-199.5
Q 12.3,-199.3,12.4,-199.1
Q 12.5,-199.6,12.5,-200.0
Q 12.0,-200.5,11.6,-200.9
 " /> 
<path  
style="fill:rgb(7,193,201)" 
d="M 11.6 -200.9
Q 11.3,-200.2,11.1,-199.5
Q 11.8,-199.3,12.4,-199.1
Q 12.3,-199.3,12.2,-199.5
Q 11.9,-200.0,11.6,-200.9
 " /> 
<path  
style="fill:rgb(14,103,171)" 
d="M 11.6 -183.1
Q 11.7,-183.3,11.9,-183.4
Q 12.2,-183.8,13.4,-183.9
Q 14.0,-183.9,14.7,-184.0
Q 14.1,-184.1,13.5,-184.2
Q 12.3,-184.3,11.9,-183.7
Q 11.7,-183.4,11.6,-183.1
 " /> 
<path  
style="fill:rgb(14,103,171)" 
d="M 26.7 -186.2
Q 26.6,-186.2,26.4,-186.1
Q 26.2,-186.0,26.2,-185.0
Q 26.2,-184.5,26.2,-184.0
Q 26.3,-184.0,26.4,-184.1
Q 26.6,-184.1,26.7,-186.2
 " /> 
<path  
style="fill:rgb(14,103,171)" 
d="M 13.3 -156.4
Q 12.9,-156.1,12.4,-155.7
Q 11.5,-154.9,10.2,-153.3
Q 12.0,-154.7,13.3,-156.4
 " /> 
<path  
style="fill:rgb(4,4,4)" 
d="M -6.6 -187.1
Q -7.3,-186.9,-7.9,-186.7
Q -7.7,-186.7,-7.6,-186.5
Q -7.0,-186.8,-6.4,-187.1
Q -6.6,-187.0,-6.6,-187.1
 " /> 
</g> 
</svg> 
