<?xml version="1.0"?>
<!DOCTYPE svg PUBLIC "-//W3C//DTD SVG 1.1//EN" "http://www.w3.org/Graphics/SVG/1.1/DTD/svg11.dtd">
<svg xmlns="http://www.w3.org/2000/svg" version="1.1">
<g transform="translate(112.8,226.0)" stroke-width="0" fill="none" >
<path  
style="fill:rgb(4,4,4)" 
d="M 36.3 221.5
Q 38.8,222.2,42.0,216.6
Q 47.2,207.2,49.8,203.5
Q 57.8,192.2,66.5,174.8
Q 80.6,146.9,72.3,130.3
Q 68.2,122.3,52.2,110.9
Q 35.6,99.2,33.1,80.4
Q 32.9,79.2,32.8,78.1
Q 33.9,78.9,35.0,79.8
Q 41.5,85.3,47.4,83.9
Q 62.3,80.6,55.7,50.4
Q 53.5,40.0,46.4,27.3
Q 37.5,11.5,33.5,1.3
Q 30.0,-7.8,27.9,-10.1
Q 25.5,-12.7,29.1,-12.4
Q 30.7,-12.2,32.2,-7.9
Q 35.9,3.1,39.8,-0.7
Q 43.3,-4.2,42.5,-13.9
Q 42.0,-20.0,46.6,-21.7
Q 47.0,-21.8,47.8,-18.6
Q 50.2,-8.3,54.5,-10.2
Q 55.5,-10.7,56.6,-13.0
Q 59.2,-18.7,59.1,-25.9
Q 58.9,-34.3,66.9,-36.2
Q 95.0,-43.1,108.0,-57.3
Q 114.8,-64.6,112.7,-67.4
Q 111.0,-69.7,103.0,-64.8
Q 100.8,-63.5,100.6,-63.7
Q 100.1,-64.2,113.2,-82.0
Q 117.5,-87.9,121.1,-95.8
Q 120.3,-96.1,119.6,-96.5
Q 119.3,-96.0,119.1,-95.6
Q 118.7,-94.7,118.2,-94.2
Q 118.0,-94.0,117.8,-93.8
Q 116.6,-91.6,115.4,-89.3
Q 112.1,-83.3,104.3,-73.1
Q 96.1,-62.4,100.3,-61.9
Q 101.6,-61.8,104.2,-63.4
Q 108.3,-65.9,110.3,-66.2
Q 112.4,-66.6,107.1,-59.1
Q 105.8,-57.4,104.0,-56.0
Q 102.1,-54.6,100.2,-53.1
Q 89.8,-44.9,71.8,-39.4
Q 69.5,-38.8,67.8,-38.4
Q 67.0,-38.3,66.1,-38.1
Q 70.7,-44.9,72.2,-48.0
Q 73.0,-49.6,73.8,-51.1
Q 73.8,-51.4,73.8,-51.6
Q 74.2,-52.5,74.7,-53.4
Q 76.8,-57.7,78.0,-65.1
Q 78.3,-67.2,78.7,-69.4
Q 78.7,-70.0,78.7,-70.7
Q 78.7,-70.9,78.7,-71.1
Q 78.7,-71.7,78.7,-72.2
Q 78.7,-73.2,79.1,-73.4
Q 79.1,-78.7,79.1,-84.0
Q 79.0,-84.0,78.9,-84.0
Q 78.8,-83.9,78.7,-85.3
Q 78.7,-86.7,78.7,-89.4
Q 78.7,-90.2,78.7,-91.1
Q 78.3,-91.0,78.3,-91.3
Q 78.2,-91.5,78.2,-94.2
Q 77.8,-99.1,77.6,-100.7
Q 77.4,-101.5,77.3,-102.2
Q 77.3,-102.5,77.3,-102.7
Q 76.9,-104.6,76.5,-106.5
Q 71.8,-126.8,59.4,-136.5
Q 57.3,-138.2,57.9,-138.4
Q 62.9,-140.0,61.7,-143.7
Q 61.3,-144.8,61.0,-145.8
Q 61.7,-145.2,62.4,-144.6
Q 70.0,-138.0,71.6,-140.2
Q 71.8,-140.6,72.0,-140.9
Q 72.0,-142.7,72.0,-144.5
Q 71.9,-145.1,71.8,-145.8
Q 71.6,-147.1,71.1,-148.9
Q 71.6,-148.5,72.0,-148.0
Q 72.5,-147.6,73.1,-147.1
Q 74.2,-146.2,75.1,-145.1
Q 75.5,-144.6,76.0,-144.0
Q 76.6,-143.7,77.3,-143.4
Q 81.5,-141.4,82.7,-149.8
Q 82.7,-154.1,82.9,-154.2
Q 83.0,-154.2,83.1,-154.2
Q 83.2,-155.7,83.3,-157.1
Q 83.8,-163.1,87.1,-163.1
Q 88.4,-162.2,89.3,-160.9
Q 90.1,-159.5,91.0,-158.1
Q 93.7,-153.5,97.1,-140.5
Q 98.3,-136.3,99.2,-134.0
Q 102.0,-126.3,107.3,-140.1
Q 113.7,-156.9,116.6,-156.3
Q 118.9,-155.9,119.3,-151.1
Q 119.4,-150.0,119.6,-148.9
Q 119.7,-148.5,119.8,-148.0
Q 120.0,-147.1,119.8,-146.0
Q 119.7,-145.5,119.6,-144.9
Q 119.1,-139.6,118.6,-136.3
Q 117.9,-130.6,112.2,-114.5
Q 108.8,-104.6,109.8,-103.8
Q 110.2,-103.5,110.7,-103.1
Q 110.9,-103.5,111.1,-103.8
Q 111.6,-104.4,112.9,-105.4
Q 119.9,-114.8,122.1,-116.5
Q 123.0,-117.2,123.4,-116.6
Q 125.2,-113.5,119.6,-96.5
Q 120.3,-96.1,121.1,-95.8
Q 122.0,-97.9,122.8,-100.1
Q 128.9,-115.5,124.3,-118.2
Q 121.1,-120.2,114.6,-111.2
Q 112.7,-108.5,112.5,-108.7
Q 112.4,-108.8,113.3,-111.2
Q 125.7,-145.2,120.4,-155.3
Q 116.9,-162.0,111.8,-155.4
Q 109.3,-152.0,104.4,-138.7
Q 103.4,-136.3,102.6,-134.9
Q 102.2,-134.3,101.8,-133.6
Q 101.4,-134.6,100.9,-135.6
Q 100.1,-137.6,99.1,-141.8
Q 94.8,-160.4,88.5,-164.7
Q 82.0,-169.1,80.7,-153.7
Q 80.1,-146.6,79.4,-145.9
Q 78.0,-144.5,73.7,-149.3
Q 70.9,-152.5,70.4,-152.5
Q 67.8,-152.5,69.3,-146.2
Q 70.1,-143.1,70.1,-142.6
Q 70.4,-140.1,64.7,-145.6
Q 61.2,-148.9,59.5,-148.0
Q 57.9,-147.1,59.3,-144.2
Q 61.4,-140.0,55.6,-140.0
Q 53.0,-140.0,51.4,-144.9
Q 47.6,-156.8,38.4,-162.2
Q 30.3,-167.1,21.5,-165.5
Q 22.0,-166.8,22.5,-168.2
Q 30.2,-187.3,28.9,-193.3
Q 28.4,-195.6,26.3,-194.5
Q 23.7,-193.2,21.3,-187.6
Q 20.4,-185.6,19.9,-186.4
Q 18.1,-189.5,15.0,-190.0
Q 12.8,-190.3,13.1,-191.1
Q 13.3,-191.8,14.0,-195.1
Q 15.9,-203.9,14.8,-206.8
Q 14.0,-208.8,12.0,-206.9
Q 9.8,-204.8,9.0,-200.1
Q 8.9,-199.3,8.8,-198.5
Q 8.4,-199.5,8.0,-200.6
Q 6.2,-205.8,2.8,-207.2
Q 2.5,-206.5,2.2,-205.8
Q 3.5,-204.9,4.9,-203.1
Q 7.8,-196.6,6.9,-191.4
Q 6.6,-189.5,6.2,-187.6
Q 6.2,-186.5,6.2,-185.4
Q 7.3,-185.4,7.5,-185.7
Q 7.7,-186.1,8.5,-189.9
Q 9.4,-194.5,10.0,-196.5
Q 10.6,-198.5,11.3,-201.1
Q 12.1,-203.8,13.4,-205.1
Q 12.1,-190.1,10.0,-189.3
Q 8.2,-188.6,9.7,-187.6
Q 10.3,-187.3,8.9,-182.9
Q 7.0,-176.5,8.0,-176.2
Q 8.7,-176.0,9.4,-178.3
Q 12.3,-187.9,13.4,-188.2
Q 16.9,-189.1,18.6,-184.1
Q 19.1,-182.7,18.3,-180.8
Q 14.4,-172.0,16.0,-172.0
Q 16.6,-172.0,19.7,-179.4
Q 22.5,-186.1,25.2,-190.2
Q 26.0,-191.4,26.8,-192.7
Q 26.9,-192.1,27.0,-191.5
Q 27.6,-187.3,21.9,-172.5
Q 19.1,-165.3,16.6,-163.3
Q 15.3,-162.3,12.7,-159.8
Q 13.2,-159.2,13.8,-158.7
Q 15.0,-159.4,16.2,-160.1
Q 24.4,-165.0,31.5,-162.9
Q 43.4,-159.4,49.1,-145.4
Q 50.3,-142.6,50.1,-142.4
Q 49.9,-142.2,48.2,-142.9
Q 46.6,-143.6,45.6,-143.5
Q 43.0,-143.0,48.2,-140.4
Q 62.4,-133.4,69.1,-120.2
Q 76.9,-104.8,76.9,-73.8
Q 76.9,-71.3,76.6,-71.2
Q 76.5,-71.2,76.4,-71.1
Q 75.7,-63.4,73.9,-58.2
Q 70.2,-47.9,61.8,-36.5
Q 60.9,-35.2,60.0,-34.5
Q 59.5,-34.1,59.1,-33.8
Q 57.9,-33.1,57.4,-35.0
Q 55.5,-42.1,53.8,-41.6
Q 53.0,-41.4,54.6,-37.2
Q 56.0,-33.8,56.4,-31.1
Q 56.7,-29.8,56.9,-28.5
Q 57.4,-26.2,57.1,-25.1
Q 57.0,-24.6,56.9,-24.0
Q 56.3,-19.3,55.5,-16.4
Q 53.2,-8.7,50.9,-15.4
Q 50.3,-17.1,49.2,-21.1
Q 44.6,-37.6,43.7,-35.3
Q 43.4,-34.6,45.2,-28.5
Q 46.4,-24.4,45.6,-23.9
Q 44.8,-23.5,43.0,-21.9
Q 41.3,-20.3,41.2,-20.5
Q 41.0,-20.7,40.1,-22.9
Q 36.6,-31.5,35.6,-30.4
Q 35.1,-30.0,36.6,-26.7
Q 41.8,-15.4,40.0,-6.9
Q 38.0,2.8,33.3,-11.1
Q 32.4,-14.0,31.6,-15.8
Q 30.8,-17.6,29.7,-20.2
Q 28.0,-24.6,27.1,-23.7
Q 26.6,-23.2,27.3,-21.8
Q 28.1,-20.4,28.7,-18.5
Q 29.3,-16.7,29.6,-15.9
Q 29.9,-15.1,28.6,-15.2
Q 27.3,-15.2,22.8,-14.1
Q 18.2,-12.9,12.0,-12.0
Q 11.1,-11.5,10.4,-11.8
Q 10.1,-11.9,9.8,-12.0
Q 9.4,-11.9,9.0,-11.8
Q 8.1,-11.5,3.6,-11.6
Q 1.8,-11.1,0.0,-11.6
Q -2.4,-11.8,-4.9,-12.1
Q -9.7,-12.6,-16.4,-13.9
Q -11.5,-20.5,-13.0,-20.5
Q -14.6,-20.5,-19.8,-12.7
Q -28.4,0.3,-33.5,2.4
Q -38.0,4.3,-36.5,-2.8
Q -34.9,-10.9,-30.4,-18.0
Q -29.2,-19.7,-29.1,-20.6
Q -29.0,-21.6,-28.0,-23.7
Q -26.2,-27.8,-27.4,-28.3
Q -27.8,-28.5,-29.1,-25.4
Q -30.4,-22.2,-30.9,-22.4
Q -33.9,-23.5,-35.6,-25.0
Q -36.3,-25.6,-34.2,-28.4
Q -31.6,-31.9,-32.9,-31.8
Q -34.6,-31.8,-39.2,-23.7
Q -42.2,-18.3,-47.4,-11.3
Q -55.4,-0.4,-56.9,-4.9
Q -59.0,-11.6,-48.2,-23.6
Q -39.1,-33.7,-39.0,-35.9
Q -38.9,-38.1,-42.3,-33.5
Q -43.5,-31.9,-44.6,-30.3
Q -51.3,-38.2,-54.7,-43.8
Q -60.4,-53.3,-65.5,-71.7
Q -67.1,-77.4,-67.8,-83.4
Q -68.1,-86.4,-68.4,-89.4
Q -68.9,-89.2,-68.9,-91.0
Q -68.9,-92.0,-68.9,-92.9
Q -68.9,-94.0,-68.9,-95.1
Q -68.8,-98.1,-68.4,-98.2
Q -68.4,-99.7,-68.4,-101.1
Q -68.3,-113.9,-62.5,-126.7
Q -59.1,-134.2,-53.6,-139.8
Q -53.0,-140.4,-52.4,-140.9
Q -52.5,-141.2,-52.5,-141.4
Q -52.5,-141.9,-51.8,-142.5
Q -51.5,-142.8,-51.1,-143.1
Q -51.7,-143.7,-52.3,-144.3
Q -52.8,-143.8,-53.3,-143.3
Q -57.5,-139.0,-58.6,-139.0
Q -61.1,-138.9,-60.7,-151.1
Q -60.6,-155.4,-60.5,-158.7
Q -61.4,-158.7,-62.2,-158.7
Q -62.2,-157.8,-62.3,-157.0
Q -62.3,-155.3,-62.5,-155.2
Q -62.6,-155.2,-62.7,-155.1
Q -62.7,-152.7,-62.7,-150.2
Q -62.7,-147.7,-62.9,-147.7
Q -63.0,-147.6,-63.1,-147.6
Q -63.1,-145.6,-63.1,-143.6
Q -62.8,-143.7,-62.7,-143.5
Q -62.7,-143.3,-62.7,-141.4
Q -62.7,-140.9,-62.7,-140.5
Q -62.8,-138.0,-60.2,-136.8
Q -59.2,-136.4,-60.9,-133.5
Q -62.7,-130.7,-65.8,-124.9
Q -65.8,-123.7,-66.0,-123.7
Q -66.1,-123.6,-66.2,-123.6
Q -68.5,-117.8,-69.1,-114.0
Q -69.5,-112.1,-69.8,-110.2
Q -69.8,-109.6,-69.8,-108.9
Q -69.8,-108.8,-69.9,-108.6
Q -70.0,-108.3,-70.1,-106.0
Q -70.2,-104.8,-70.2,-103.6
Q -70.2,-103.1,-70.3,-102.5
Q -70.3,-101.5,-70.5,-101.4
Q -70.6,-101.4,-70.7,-101.4
Q -70.7,-99.4,-70.7,-97.4
Q -70.7,-96.6,-70.7,-95.9
Q -70.7,-94.4,-70.9,-94.3
Q -71.0,-94.3,-71.1,-94.2
Q -70.5,-93.9,-70.6,-93.4
Q -70.6,-93.2,-70.7,-92.9
Q -70.7,-92.7,-70.7,-92.5
Q -70.7,-90.9,-70.7,-89.4
Q -70.7,-88.0,-70.7,-86.7
Q -70.3,-86.8,-70.3,-86.6
Q -70.2,-86.4,-70.2,-84.0
Q -70.2,-81.8,-69.3,-77.8
Q -69.3,-77.4,-69.3,-76.9
Q -68.9,-74.3,-67.8,-70.6
Q -65.9,-64.0,-62.2,-53.8
Q -61.3,-51.4,-60.4,-48.9
Q -59.7,-47.8,-59.8,-48.0
Q -60.1,-48.4,-60.4,-48.9
Q -59.1,-46.5,-58.6,-45.5
Q -56.9,-41.9,-53.7,-37.7
Q -52.4,-36.0,-52.6,-35.7
Q -52.8,-35.5,-55.9,-36.0
Q -70.2,-38.2,-86.4,-48.8
Q -100.2,-57.8,-107.6,-72.5
Q -108.9,-75.1,-110.7,-80.0
Q -111.1,-81.4,-110.9,-82.0
Q -110.8,-82.4,-110.7,-82.7
Q -105.3,-80.5,-100.9,-78.0
Q -98.7,-76.8,-96.4,-75.6
Q -94.7,-74.7,-94.0,-74.2
Q -93.7,-74.0,-93.3,-73.8
Q -92.8,-73.8,-92.2,-73.8
Q -88.7,-73.7,-93.2,-81.0
Q -109.0,-106.1,-109.5,-126.2
Q -109.7,-132.7,-109.3,-134.9
Q -107.0,-146.8,-103.6,-137.3
Q -102.6,-134.5,-101.1,-130.7
Q -99.6,-126.9,-98.9,-124.9
Q -97.1,-119.7,-94.4,-118.1
Q -92.5,-117.1,-92.0,-118.6
Q -91.1,-121.2,-92.6,-126.0
Q -98.1,-143.8,-98.9,-152.9
Q -99.0,-154.2,-99.1,-155.6
Q -99.2,-156.2,-99.3,-156.9
Q -99.6,-158.2,-99.3,-159.8
Q -99.2,-160.6,-99.1,-161.4
Q -99.1,-161.8,-99.1,-162.3
Q -98.9,-166.5,-97.1,-168.4
Q -93.5,-172.3,-89.1,-152.5
Q -88.4,-149.6,-88.0,-146.5
Q -86.0,-132.9,-84.0,-132.9
Q -82.6,-132.9,-81.8,-138.7
Q -80.4,-149.1,-79.5,-150.6
Q -79.1,-151.3,-78.7,-152.0
Q -78.2,-150.7,-77.8,-149.4
Q -77.4,-149.5,-77.4,-149.3
Q -77.3,-149.1,-77.3,-144.9
Q -77.3,-142.3,-77.3,-139.7
Q -77.2,-132.9,-75.7,-133.2
Q -75.0,-133.3,-72.2,-148.2
Q -69.1,-164.5,-65.0,-168.7
Q -63.6,-170.2,-63.1,-168.9
Q -62.9,-168.2,-62.7,-167.6
Q -62.3,-167.7,-62.3,-167.5
Q -62.2,-167.3,-62.2,-165.4
Q -61.4,-165.4,-60.6,-165.4
Q -60.7,-168.7,-61.0,-169.4
Q -63.4,-175.1,-67.8,-168.7
Q -69.3,-166.7,-71.3,-160.6
Q -73.3,-154.5,-75.2,-142.5
Q -75.4,-144.7,-75.5,-147.0
Q -76.1,-154.2,-78.5,-154.6
Q -81.5,-155.1,-83.1,-145.1
Q -83.6,-142.0,-84.0,-139.8
Q -84.1,-138.7,-84.3,-137.6
Q -84.6,-138.9,-84.8,-140.3
Q -85.3,-142.9,-86.0,-147.1
Q -90.4,-174.5,-97.3,-170.9
Q -101.3,-168.8,-101.3,-158.2
Q -101.3,-145.1,-95.6,-128.4
Q -94.3,-124.7,-94.0,-122.5
Q -93.9,-121.4,-93.7,-120.3
Q -95.9,-123.2,-97.3,-127.0
Q -103.0,-142.3,-105.2,-143.6
Q -109.5,-146.1,-111.4,-134.8
Q -114.6,-115.4,-102.7,-92.9
Q -101.0,-89.6,-99.1,-85.9
Q -97.3,-82.3,-95.3,-79.5
Q -93.4,-76.7,-93.5,-76.6
Q -93.7,-76.4,-95.6,-77.7
Q -103.4,-82.9,-109.5,-84.6
Q -112.1,-85.4,-112.7,-82.6
Q -113.8,-77.1,-104.8,-63.4
Q -96.3,-50.4,-76.9,-40.7
Q -62.2,-33.4,-52.9,-33.4
Q -50.4,-33.4,-48.3,-30.9
Q -47.2,-29.7,-46.1,-28.4
Q -58.8,-16.0,-59.1,-7.3
Q -59.3,-1.0,-55.8,-1.3
Q -51.7,-1.6,-46.8,-8.7
Q -45.9,-10.0,-44.0,-12.7
Q -42.1,-15.3,-41.3,-16.7
Q -38.0,-22.5,-37.4,-22.4
Q -34.2,-21.7,-32.6,-20.0
Q -32.0,-19.3,-34.9,-13.4
Q -41.1,-1.0,-38.0,3.9
Q -37.3,4.9,-35.5,4.9
Q -29.3,4.9,-21.3,-6.9
Q -18.5,-11.1,-15.2,-10.6
Q -13.0,-10.2,-12.8,-9.9
Q -12.5,-9.6,-13.8,-6.3
Q -16.5,0.8,-18.0,10.8
Q -20.1,25.0,-27.6,35.1
Q -37.5,48.4,-38.7,55.2
Q -40.9,67.1,-37.0,76.8
Q -33.8,84.8,-28.4,86.0
Q -21.3,87.6,-15.5,82.7
Q -14.6,81.9,-13.6,81.1
Q -13.8,81.7,-13.9,82.2
Q -14.6,85.1,-20.9,102.4
Q -21.9,105.1,-22.3,106.8
Q -22.7,108.6,-23.1,109.5
Q -24.7,113.4,-25.1,124.0
Q -26.4,156.9,10.6,188.1
Q 22.1,197.8,26.9,203.4
Q 32.0,209.4,34.4,217.4
Q 35.6,221.2,36.3,221.5
 " /> 
<path  
style="fill:rgb(7,193,201)" 
d="M 0.4 175.1
Q 0.6,175.3,0.7,175.5
Q 0.9,176.0,1.3,176.2
Q 1.6,176.3,1.8,176.4
Q 1.6,175.6,1.4,174.8
Q 0.9,175.0,0.4,175.1
 " /> 
<path  
style="fill:rgb(14,103,171)" 
d="M 0.4 175.1
Q 0.2,174.6,0.0,174.2
Q -1.4,171.4,-3.5,161.2
Q -5.4,152.3,-5.4,143.8
Q -5.4,136.0,-4.2,136.0
Q -4.0,136.0,-3.8,143.0
Q -3.6,150.0,-3.3,152.8
Q -2.7,159.4,1.4,174.8
Q 1.6,175.6,1.8,176.4
Q 3.7,178.3,5.6,180.2
Q 9.3,184.0,14.1,188.0
Q 18.8,192.1,20.7,193.8
Q 24.2,197.0,23.8,195.0
Q 23.6,194.0,23.4,192.6
Q 22.6,187.8,16.7,173.7
Q 10.0,157.4,9.5,141.8
Q 9.2,134.1,9.7,133.6
Q 10.2,133.1,10.4,133.3
Q 10.6,133.5,10.8,139.1
Q 11.6,155.9,19.5,175.6
Q 24.7,188.4,25.2,194.2
Q 25.5,198.2,29.1,202.2
Q 33.9,207.6,36.3,215.0
Q 37.4,218.6,37.7,218.6
Q 38.0,218.6,40.5,214.1
Q 43.0,209.5,44.4,207.5
Q 45.9,205.6,47.1,203.3
Q 48.3,201.1,50.0,198.6
Q 61.1,182.5,55.6,165.9
Q 52.7,157.0,46.4,146.2
Q 37.4,130.4,38.1,129.7
Q 38.8,128.9,40.6,132.4
Q 42.4,135.9,48.9,146.9
Q 60.2,166.1,59.4,179.1
Q 59.3,181.2,59.2,183.2
Q 59.9,182.0,60.6,180.8
Q 62.5,177.7,67.0,167.9
Q 79.7,140.7,65.4,125.2
Q 60.7,120.1,50.0,112.6
Q 38.5,104.5,33.7,92.2
Q 32.4,88.8,31.7,84.8
Q 31.6,84.8,31.6,84.9
Q 30.2,85.2,30.0,85.6
Q 29.8,86.0,29.9,92.6
Q 30.0,101.4,28.0,101.6
Q 27.2,101.6,25.4,95.8
Q 23.5,89.5,22.9,92.4
Q 22.3,95.1,20.0,96.1
Q 18.5,96.9,15.7,94.1
Q 13.7,92.0,12.6,93.1
Q 12.1,93.6,11.6,94.2
Q 11.6,94.4,11.6,94.6
Q 11.4,96.6,11.3,98.6
Q 10.8,107.8,8.1,110.7
Q 5.9,113.1,3.8,100.0
Q 3.7,99.1,3.6,98.2
Q 3.6,98.0,3.6,97.7
Q 3.1,97.8,3.1,95.5
Q 3.2,95.1,3.2,94.8
Q 3.3,94.0,3.0,93.9
Q 2.8,93.8,2.7,93.7
Q 2.2,92.7,1.8,91.7
Q 0.6,89.0,0.0,89.6
Q -0.2,89.8,-1.2,92.0
Q -7.2,105.9,-11.9,86.6
Q -12.2,85.5,-12.4,84.4
Q -16.0,94.2,-18.4,101.2
Q -23.1,114.9,-23.1,124.8
Q -23.2,150.4,-1.5,173.1
Q -0.5,174.1,0.4,175.1
 " /> 
<path  
style="fill:rgb(7,193,201)" 
d="M 38.4 213.2
Q 38.6,213.7,39.1,213.7
Q 40.2,213.7,41.9,200.2
Q 44.6,180.0,36.7,157.5
Q 35.2,153.1,34.6,153.1
Q 33.7,153.2,35.7,159.1
Q 45.0,187.1,38.6,211.1
Q 38.2,212.6,38.4,213.2
 " /> 
<path  
style="fill:rgb(7,193,201)" 
d="M 65.1 161.9
Q 65.4,163.5,66.1,163.5
Q 67.3,163.5,65.5,155.3
Q 63.3,144.7,55.4,133.2
Q 52.0,128.2,51.3,129.0
Q 51.0,129.3,54.2,134.0
Q 62.7,146.6,65.1,161.9
 " /> 
<path  
style="fill:rgb(7,193,201)" 
d="M 0.4 175.1
Q 0.9,175.0,1.4,174.8
Q -2.7,159.4,-3.3,152.8
Q -3.6,150.0,-3.8,143.0
Q -4.0,136.0,-4.2,136.0
Q -5.4,136.0,-5.4,143.8
Q -5.4,152.3,-3.5,161.2
Q -1.4,171.4,0.0,174.2
Q 0.2,174.6,0.4,175.1
 " /> 
<path  
style="fill:rgb(7,193,201)" 
d="M -12.4 84.4
Q -12.2,83.7,-12.0,83.1
Q -12.1,83.1,-12.2,83.1
Q -12.4,83.2,-12.4,83.8
Q -12.4,84.1,-12.4,84.4
 " /> 
<path  
style="fill:rgb(7,193,201)" 
d="M -12.4 84.4
Q -12.2,84.4,-12.0,84.4
Q -12.0,83.8,-12.0,83.1
Q -12.2,83.7,-12.4,84.4
 " /> 
<path  
style="fill:rgb(97,247,248)" 
d="M 2.7 93.7
Q 2.8,93.8,3.0,93.9
Q 3.3,94.0,3.2,94.8
Q 3.2,95.1,3.1,95.5
Q 3.2,95.5,3.3,95.5
Q 3.6,95.5,3.6,96.6
Q 3.6,96.6,3.6,96.6
Q 3.6,97.2,3.6,97.7
Q 3.6,98.0,3.6,98.2
Q 5.8,106.7,7.4,110.8
Q 8.1,109.8,8.8,108.7
Q 10.9,105.7,10.7,99.7
Q 10.7,96.9,11.1,95.7
Q 11.3,95.2,11.6,94.6
Q 11.6,94.4,11.6,94.2
Q 11.7,93.7,11.8,93.3
Q 12.0,92.4,13.0,91.9
Q 14.0,91.4,15.0,92.8
Q 19.7,98.8,22.3,92.4
Q 23.2,90.2,23.7,90.3
Q 24.6,90.6,26.9,98.8
Q 27.8,101.8,28.4,100.9
Q 29.9,98.8,29.6,91.6
Q 29.4,85.1,29.6,84.9
Q 29.8,84.6,31.6,84.9
Q 31.6,84.4,31.6,84.0
Q 31.4,83.9,31.3,83.8
Q 31.0,83.6,31.1,81.5
Q 31.1,80.5,31.1,79.5
Q 30.6,79.6,30.7,77.3
Q 30.7,76.2,30.7,75.1
Q 27.6,68.9,26.7,66.1
Q 25.8,63.3,25.1,59.6
Q 24.7,57.5,24.1,53.6
Q 23.7,50.8,23.1,47.1
Q 23.1,44.2,23.1,41.3
Q 23.6,40.1,24.0,38.9
Q 24.9,36.4,25.8,33.7
Q 26.7,31.1,27.1,26.2
Q 27.1,23.7,27.1,21.3
Q 27.1,20.2,27.1,19.1
Q 26.4,14.4,25.8,9.7
Q 25.6,10.1,25.4,10.5
Q 24.9,11.3,24.7,13.1
Q 24.0,17.3,23.0,17.3
Q 22.1,17.3,23.3,10.0
Q 24.0,6.0,24.4,2.4
Q 24.7,-1.1,25.3,-1.1
Q 25.9,-1.1,25.8,1.2
Q 25.7,3.4,26.6,6.5
Q 28.3,12.2,28.8,19.0
Q 28.8,19.7,28.9,20.4
Q 29.3,24.0,29.1,25.5
Q 29.0,26.3,28.9,27.1
Q 28.8,28.2,28.7,29.3
Q 28.3,33.1,26.0,38.0
Q 24.4,41.2,25.4,49.3
Q 25.6,51.1,25.8,52.9
Q 26.4,52.2,27.1,51.5
Q 28.4,50.2,30.5,48.6
Q 32.6,46.9,34.4,45.3
Q 38.4,41.8,43.0,40.2
Q 46.4,39.0,49.6,42.1
Q 50.6,43.0,51.6,44.0
Q 50.8,42.1,50.0,40.2
Q 46.9,32.6,41.0,22.2
Q 34.7,11.1,31.7,2.7
Q 27.0,-10.4,24.0,-11.3
Q 23.3,-11.5,21.1,-10.9
Q 18.1,-10.0,13.3,-9.4
Q 12.2,-9.4,11.1,-9.4
Q 10.6,-9.3,10.0,-9.3
Q 8.9,-9.2,8.0,-8.9
Q 6.9,-8.9,5.8,-8.9
Q -4.9,-9.4,-7.6,-9.6
Q -10.2,-9.9,-11.5,-7.0
Q -15.2,1.1,-15.8,8.6
Q -16.8,23.0,-25.8,36.4
Q -26.7,37.7,-27.6,39.1
Q -24.4,39.1,-22.5,40.0
Q -20.5,40.9,-15.6,40.0
Q -15.3,40.0,-15.1,40.0
Q -13.3,39.5,-11.6,41.1
Q -9.9,42.7,-7.7,43.0
Q -4.0,43.6,-1.8,46.4
Q -1.3,47.0,-0.9,47.5
Q -0.9,47.3,-0.9,47.1
Q -0.6,44.9,-0.2,42.6
Q 0.4,38.2,-0.9,35.4
Q -2.3,32.7,-3.1,30.1
Q -3.7,28.5,-4.0,23.2
Q -4.2,20.7,-4.3,17.5
Q -4.3,18.7,-4.4,16.0
Q -4.4,16.8,-4.4,15.1
Q -4.4,13.3,-4.4,11.5
Q -5.3,4.9,-5.4,4.1
Q -5.5,3.4,-4.9,3.4
Q -4.3,3.3,-1.5,14.4
Q -0.2,19.6,-1.1,19.7
Q -2.0,19.8,-2.3,19.0
Q -2.5,18.6,-2.7,18.2
Q -2.7,19.5,-2.7,20.9
Q -2.7,22.0,-2.7,23.1
Q -2.4,24.4,-2.2,25.7
Q -1.2,31.8,1.4,36.2
Q 3.8,40.1,2.6,39.9
Q 1.9,39.8,0.4,48.0
Q 0.4,48.2,0.4,48.4
Q -0.9,54.2,-2.5,58.7
Q -4.1,63.3,-4.9,65.1
Q -5.7,66.9,-6.9,69.9
Q -8.0,72.9,-9.4,75.6
Q -10.7,78.2,-12.0,83.1
Q -12.0,83.8,-12.0,84.4
Q -11.8,86.6,-11.1,88.3
Q -10.3,90.4,-9.1,93.7
Q -7.9,96.9,-7.1,97.3
Q -4.7,98.6,-2.1,92.8
Q 0.3,87.6,1.3,89.3
Q 1.7,89.9,2.7,93.7
 " /> 
<path  
style="fill:rgb(7,193,201)" 
d="M 3.1 95.5
Q 3.3,96.1,3.6,96.6
Q 3.6,96.6,3.6,96.6
Q 3.6,95.5,3.3,95.5
Q 3.2,95.5,3.1,95.5
 " /> 
<path  
style="fill:rgb(7,193,201)" 
d="M 3.1 95.5
Q 3.1,97.8,3.6,97.7
Q 3.6,97.2,3.6,96.6
Q 3.3,96.1,3.1,95.5
 " /> 
<path  
style="fill:rgb(7,193,201)" 
d="M 3.6 98.2
Q 3.7,99.1,3.8,100.0
Q 5.9,113.1,8.1,110.7
Q 10.8,107.8,11.3,98.6
Q 11.4,96.6,11.6,94.6
Q 11.3,95.2,11.1,95.7
Q 10.7,96.9,10.7,99.7
Q 10.9,105.7,8.8,108.7
Q 8.1,109.8,7.4,110.8
Q 5.8,106.7,3.6,98.2
 " /> 
<path  
style="fill:rgb(7,193,201)" 
d="M 11.6 94.2
Q 12.1,93.6,12.6,93.1
Q 13.7,92.0,15.7,94.1
Q 18.5,96.9,20.0,96.1
Q 22.3,95.1,22.9,92.4
Q 23.5,89.5,25.4,95.8
Q 27.2,101.6,28.0,101.6
Q 30.0,101.4,29.9,92.6
Q 29.8,86.0,30.0,85.6
Q 30.2,85.2,31.6,84.9
Q 29.8,84.6,29.6,84.9
Q 29.4,85.1,29.6,91.6
Q 29.9,98.8,28.4,100.9
Q 27.8,101.8,26.9,98.8
Q 24.6,90.6,23.7,90.3
Q 23.2,90.2,22.3,92.4
Q 19.7,98.8,15.0,92.8
Q 14.0,91.4,13.0,91.9
Q 12.0,92.4,11.8,93.3
Q 11.7,93.7,11.6,94.2
 " /> 
<path  
style="fill:rgb(14,103,171)" 
d="M 31.6 84.9
Q 31.6,84.8,31.7,84.8
Q 31.6,84.4,31.6,84.0
Q 31.6,84.4,31.6,84.9
 " /> 
<path  
style="fill:rgb(14,103,171)" 
d="M 0.4 48.4
Q -0.2,48.0,-0.9,47.5
Q -4.9,43.5,-7.9,43.5
Q -9.8,43.5,-11.4,41.7
Q -12.9,39.9,-15.1,40.0
Q -15.3,40.0,-15.6,40.0
Q -17.8,41.3,-19.4,41.3
Q -21.1,41.3,-22.5,40.4
Q -24.0,39.5,-26.0,39.5
Q -27.0,39.5,-28.0,39.5
Q -33.3,46.6,-34.2,48.7
Q -35.6,51.7,-36.3,54.8
Q -35.6,55.0,-34.8,55.2
Q -35.0,54.8,-33.8,52.0
Q -32.5,49.1,-31.9,49.1
Q -30.9,49.2,-32.6,53.0
Q -34.1,56.3,-34.8,55.2
Q -35.6,55.0,-36.3,54.8
Q -37.5,59.9,-37.0,65.0
Q -36.3,63.7,-35.6,62.3
Q -34.1,59.6,-29.4,54.3
Q -24.8,49.1,-24.1,48.9
Q -22.5,48.5,-26.1,52.7
Q -36.6,65.1,-36.6,69.5
Q -36.6,78.0,-28.0,84.0
Q -28.0,71.1,-27.8,70.4
Q -27.6,69.7,-27.1,70.1
Q -26.6,70.5,-26.6,77.2
Q -26.6,80.6,-26.7,84.0
Q -22.2,84.0,-20.3,83.1
Q -14.6,80.4,-15.2,75.3
Q -16.1,66.6,-15.2,58.0
Q -14.7,53.0,-13.9,54.7
Q -13.7,55.0,-13.8,64.8
Q -13.8,76.3,-13.2,76.3
Q -11.8,76.1,-10.5,72.0
Q -9.7,69.8,-8.6,68.3
Q -6.0,65.0,-2.1,51.2
Q -1.4,48.9,0.4,48.4
 " /> 
<path  
style="fill:rgb(7,193,201)" 
d="M -9.5 64.1
Q -9.3,64.5,-8.7,64.2
Q -8.2,64.0,-8.2,59.6
Q -8.1,53.3,-9.3,54.5
Q -9.8,55.0,-9.8,59.3
Q -9.7,63.7,-9.5,64.1
 " /> 
<path  
style="fill:rgb(14,103,171)" 
d="M 0.4 48.4
Q 0.4,48.2,0.4,48.0
Q -0.2,47.7,-0.9,47.5
Q -0.2,48.0,0.4,48.4
 " /> 
<path  
style="fill:rgb(14,103,171)" 
d="M 0.4 48.0
Q 0.2,47.9,-0.0,47.8
Q -0.5,47.6,-0.9,47.1
Q -0.9,47.3,-0.9,47.5
Q -0.2,47.7,0.4,48.0
 " /> 
<path  
style="fill:rgb(4,4,4)" 
d="M 0.4 48.0
Q -0.2,47.5,-0.9,47.1
Q -0.5,47.6,-0.0,47.8
Q 0.2,47.9,0.4,48.0
 " /> 
<path  
style="fill:rgb(4,4,4)" 
d="M 0.4 48.0
Q 1.9,39.8,2.6,39.9
Q 3.8,40.1,1.4,36.2
Q -1.2,31.8,-2.2,25.7
Q -2.4,24.4,-2.7,23.1
Q -2.8,23.1,-2.9,23.1
Q -2.9,23.1,-3.0,23.1
Q -3.5,23.1,-4.0,23.2
Q -3.7,28.5,-3.1,30.1
Q -2.3,32.7,-0.9,35.4
Q 0.4,38.2,-0.2,42.6
Q -0.6,44.9,-0.9,47.1
Q -0.2,47.5,0.4,48.0
 " /> 
<path  
style="fill:rgb(14,103,171)" 
d="M -2.7 23.1
Q -2.9,22.6,-3.1,22.0
Q -3.1,22.0,-3.1,22.0
Q -3.1,23.0,-3.0,23.1
Q -2.8,23.1,-2.7,23.1
 " /> 
<path  
style="fill:rgb(14,103,171)" 
d="M -2.7 23.1
Q -2.7,22.0,-2.7,20.9
Q -2.9,20.9,-3.1,20.9
Q -3.1,21.4,-3.1,22.0
Q -2.9,22.6,-2.7,23.1
 " /> 
<path  
style="fill:rgb(7,193,201)" 
d="M -2.7 20.9
Q -2.7,19.5,-2.7,18.2
Q -2.8,18.2,-2.9,18.2
Q -3.1,18.3,-3.1,20.9
Q -2.9,20.9,-2.7,20.9
 " /> 
<path  
style="fill:rgb(4,4,4)" 
d="M -2.7 18.2
Q -3.5,18.2,-4.3,18.3
Q -4.2,20.8,-4.1,22.8
Q -3.6,20.9,-3.1,20.9
Q -3.1,18.3,-2.9,18.2
Q -2.8,18.2,-2.7,18.2
 " /> 
<path  
style="fill:rgb(4,4,4)" 
d="M -2.7 18.2
Q -2.5,18.6,-2.3,19.0
Q -2.0,19.8,-1.1,19.7
Q -0.2,19.6,-1.5,14.4
Q -4.3,3.3,-4.9,3.4
Q -5.5,3.4,-5.4,4.1
Q -5.3,4.9,-4.4,11.5
Q -4.0,13.3,-4.2,14.2
Q -4.3,14.6,-4.4,15.1
Q -4.4,16.8,-4.3,18.3
Q -3.5,18.2,-2.7,18.2
 " /> 
<path  
style="fill:rgb(14,103,171)" 
d="M -4.4 11.5
Q -4.4,13.3,-4.4,15.1
Q -4.3,14.6,-4.2,14.2
Q -4.0,13.3,-4.4,11.5
 " /> 
<path  
style="fill:rgb(7,193,201)" 
d="M -0.9 47.5
Q -1.3,47.0,-1.8,46.4
Q -4.0,43.6,-7.7,43.0
Q -9.9,42.7,-11.6,41.1
Q -13.3,39.5,-15.1,40.0
Q -12.9,39.9,-11.4,41.7
Q -9.8,43.5,-7.9,43.5
Q -4.9,43.5,-0.9,47.5
 " /> 
<path  
style="fill:rgb(7,193,201)" 
d="M -15.6 40.0
Q -20.5,40.9,-22.5,40.0
Q -24.4,39.1,-27.6,39.1
Q -27.8,39.1,-28.0,39.5
Q -27.0,39.5,-26.0,39.5
Q -24.0,39.5,-22.5,40.4
Q -21.1,41.3,-19.4,41.3
Q -17.8,41.3,-15.6,40.0
 " /> 
<path  
style="fill:rgb(14,103,171)" 
d="M 5.8 -8.9
Q 6.9,-8.9,8.0,-8.9
Q 7.7,-9.0,7.4,-9.2
Q 6.7,-9.4,6.2,-9.2
Q 6.0,-9.0,5.8,-8.9
 " /> 
<path  
style="fill:rgb(14,103,171)" 
d="M 11.1 -9.4
Q 12.2,-9.4,13.3,-9.4
Q 13.0,-9.5,12.7,-9.6
Q 12.0,-9.9,11.1,-9.4
 " /> 
<path  
style="fill:rgb(4,4,4)" 
d="M 51.6 44.0
Q 51.5,44.0,51.5,44.1
Q 51.5,44.2,51.8,44.5
Q 51.9,44.7,52.0,44.9
Q 51.8,44.4,51.6,44.0
 " /> 
<path  
style="fill:rgb(7,193,201)" 
d="M 51.6 44.0
Q 51.4,44.1,51.3,44.2
Q 51.6,44.5,52.0,44.9
Q 51.9,44.7,51.8,44.5
Q 51.5,44.2,51.5,44.1
Q 51.5,44.0,51.6,44.0
 " /> 
<path  
style="fill:rgb(7,193,201)" 
d="M 51.6 44.0
Q 50.6,43.0,49.6,42.1
Q 46.4,39.0,43.0,40.2
Q 38.4,41.8,34.4,45.3
Q 32.6,46.9,30.5,48.6
Q 28.4,50.2,27.1,51.5
Q 26.4,52.2,25.8,52.9
Q 25.8,53.1,25.8,53.3
Q 30.7,49.4,33.2,47.0
Q 41.3,39.2,45.9,40.2
Q 47.0,40.4,51.3,44.2
Q 51.4,44.1,51.6,44.0
 " /> 
<path  
style="fill:rgb(4,4,4)" 
d="M 25.8 52.9
Q 25.6,51.1,25.4,49.3
Q 24.4,41.2,26.0,38.0
Q 28.3,33.1,28.7,29.3
Q 28.8,28.2,28.9,27.1
Q 28.9,24.2,28.9,21.3
Q 28.2,21.3,27.6,21.3
Q 27.5,25.4,27.5,25.8
Q 27.4,26.1,27.3,26.1
Q 27.2,26.2,27.1,26.2
Q 26.7,31.1,25.8,33.7
Q 24.9,36.4,24.0,38.9
Q 23.6,40.1,23.1,41.3
Q 23.6,44.0,23.1,47.1
Q 23.7,50.8,24.1,53.6
Q 24.9,53.4,25.8,53.3
Q 25.8,53.1,25.8,52.9
 " /> 
<path  
style="fill:rgb(7,193,201)" 
d="M 28.9 27.1
Q 29.0,26.3,29.1,25.5
Q 29.3,24.0,28.9,20.4
Q 28.9,20.9,28.9,21.3
Q 28.9,24.2,28.9,27.1
 " /> 
<path  
style="fill:rgb(4,4,4)" 
d="M 28.9 20.4
Q 28.2,20.9,27.6,21.3
Q 28.2,21.3,28.9,21.3
Q 28.9,20.9,28.9,20.4
 " /> 
<path  
style="fill:rgb(4,4,4)" 
d="M 28.9 20.4
Q 28.2,20.4,27.5,20.4
Q 27.6,20.8,27.6,21.3
Q 28.2,20.9,28.9,20.4
 " /> 
<path  
style="fill:rgb(4,4,4)" 
d="M 28.9 20.4
Q 28.8,19.7,28.8,19.0
Q 28.1,19.0,27.4,19.1
Q 27.5,19.3,27.5,20.6
Q 28.2,20.4,28.9,20.4
 " /> 
<path  
style="fill:rgb(14,103,171)" 
d="M 27.1 19.1
Q 27.1,20.2,27.1,21.3
Q 27.3,21.3,27.6,21.3
Q 27.6,20.8,27.5,20.4
Q 27.5,19.2,27.4,19.0
Q 27.2,19.1,27.1,19.1
 " /> 
<path  
style="fill:rgb(4,4,4)" 
d="M 27.1 19.1
Q 27.2,19.1,27.3,19.0
Q 27.4,19.0,27.4,19.1
Q 28.1,19.0,28.8,19.0
Q 28.3,12.2,26.6,6.5
Q 25.7,3.4,25.8,1.2
Q 25.9,-1.1,25.3,-1.1
Q 24.7,-1.1,24.4,2.4
Q 24.0,6.0,23.3,10.0
Q 22.1,17.3,23.0,17.3
Q 24.0,17.3,24.7,13.1
Q 24.9,11.3,25.4,10.5
Q 25.6,10.1,25.8,9.7
Q 26.4,14.4,27.1,19.1
 " /> 
<path  
style="fill:rgb(7,193,201)" 
d="M 27.1 21.3
Q 27.1,23.7,27.1,26.2
Q 27.2,26.2,27.3,26.1
Q 27.4,26.1,27.5,25.8
Q 27.5,25.4,27.6,21.3
Q 27.3,21.3,27.1,21.3
 " /> 
<path  
style="fill:rgb(14,103,171)" 
d="M 23.1 41.3
Q 23.1,44.2,23.1,47.1
Q 23.6,44.0,23.1,41.3
 " /> 
<path  
style="fill:rgb(7,193,201)" 
d="M 30.7 75.1
Q 30.7,76.2,30.7,77.3
Q 30.6,79.6,31.1,79.5
Q 31.1,75.6,31.1,75.3
Q 31.0,75.0,30.7,75.1
 " /> 
<path  
style="fill:rgb(7,193,201)" 
d="M -28.0 84.0
Q -27.3,84.0,-26.7,84.0
Q -26.6,80.6,-26.6,77.2
Q -26.6,70.5,-27.1,70.1
Q -27.6,69.7,-27.8,70.4
Q -28.0,71.1,-28.0,84.0
 " /> 
<path  
style="fill:rgb(14,103,171)" 
d="M 32.4 73.3
Q 32.4,60.4,33.0,60.4
Q 33.5,60.3,33.7,67.3
Q 33.9,73.8,33.8,74.0
Q 33.6,74.2,32.4,73.7
Q 33.2,74.7,34.0,75.7
Q 37.0,79.6,40.3,80.7
Q 41.2,81.0,39.9,76.3
Q 38.1,70.2,36.6,56.7
Q 36.3,54.2,37.0,54.2
Q 37.9,54.2,38.9,64.9
Q 39.4,70.6,41.8,78.7
Q 42.7,81.7,44.1,81.8
Q 50.9,82.7,53.9,76.1
Q 55.1,73.3,52.5,67.1
Q 46.2,52.0,45.9,50.9
Q 45.6,50.1,46.4,50.3
Q 48.1,50.6,53.4,65.1
Q 54.3,67.5,55.2,69.9
Q 55.6,62.9,55.0,60.0
Q 54.5,57.2,54.6,56.4
Q 54.6,55.9,54.7,55.5
Q 54.0,55.5,53.2,54.7
Q 52.9,54.3,52.6,53.9
Q 50.3,50.5,51.9,50.7
Q 52.7,50.8,53.5,52.3
Q 53.8,53.0,54.2,53.7
Q 54.0,52.7,53.8,51.7
Q 53.3,49.7,52.7,47.3
Q 52.3,46.1,52.0,44.9
Q 51.6,44.5,51.3,44.2
Q 47.0,40.4,45.9,40.2
Q 41.3,39.2,33.2,47.0
Q 30.7,49.4,25.8,53.3
Q 26.2,55.5,26.7,57.7
Q 28.4,66.6,31.1,71.1
Q 31.8,72.2,32.4,73.3
 " /> 
<path  
style="fill:rgb(7,193,201)" 
d="M 48.9 79.0
Q 49.3,80.0,49.8,80.0
Q 50.6,80.0,47.2,68.2
Q 46.4,65.6,45.8,65.4
Q 44.3,64.9,47.8,75.6
Q 48.5,77.9,48.9,79.0
 " /> 
<path  
style="fill:rgb(7,193,201)" 
d="M 32.4 73.3
Q 32.4,73.5,32.4,73.7
Q 33.6,74.2,33.8,74.0
Q 33.9,73.8,33.7,67.3
Q 33.5,60.3,33.0,60.4
Q 32.4,60.4,32.4,73.3
 " /> 
<path  
style="fill:rgb(7,193,201)" 
d="M 54.2 53.7
Q 53.7,54.2,53.2,54.7
Q 54.0,55.5,54.7,55.5
Q 54.5,55.4,54.4,55.3
Q 54.1,55.1,54.2,53.7
 " /> 
<path  
style="fill:rgb(7,193,201)" 
d="M 54.2 53.7
Q 53.8,53.0,53.5,52.3
Q 52.7,50.8,51.9,50.7
Q 50.3,50.5,52.6,53.9
Q 52.9,54.3,53.2,54.7
Q 53.7,54.2,54.2,53.7
 " /> 
<path  
style="fill:rgb(7,193,201)" 
d="M -34.8 55.2
Q -34.1,56.3,-32.6,53.0
Q -30.9,49.2,-31.9,49.1
Q -32.5,49.1,-33.8,52.0
Q -35.0,54.8,-34.8,55.2
 " /> 
<path  
style="fill:rgb(4,4,4)" 
d="M -3.1 20.9
Q -3.6,20.9,-4.2,20.9
Q -4.0,23.7,-3.8,25.7
Q -3.5,23.1,-3.0,23.1
Q -3.1,23.0,-3.1,22.0
Q -3.1,22.0,-3.1,22.0
Q -3.1,21.4,-3.1,20.9
 " /> 
<path  
style="fill:rgb(97,247,248)" 
d="M -68.9 -92.9
Q -68.8,-92.9,-68.6,-93.0
Q -68.4,-93.1,-68.4,-91.2
Q -68.4,-90.3,-68.4,-89.4
Q -68.1,-86.4,-67.8,-83.4
Q -67.1,-77.4,-65.5,-71.7
Q -60.4,-53.3,-54.7,-43.8
Q -51.3,-38.2,-44.6,-30.3
Q -43.5,-31.9,-42.3,-33.5
Q -38.9,-38.1,-39.0,-35.9
Q -39.1,-33.7,-48.2,-23.6
Q -59.0,-11.6,-56.9,-4.9
Q -55.4,-0.4,-47.4,-11.3
Q -42.2,-18.3,-39.2,-23.7
Q -34.6,-31.8,-32.9,-31.8
Q -31.6,-31.9,-34.2,-28.4
Q -36.3,-25.6,-35.6,-25.0
Q -33.9,-23.5,-30.9,-22.4
Q -30.4,-22.2,-29.1,-25.4
Q -27.8,-28.5,-27.4,-28.3
Q -26.2,-27.8,-28.0,-23.7
Q -29.0,-21.6,-29.1,-20.6
Q -29.2,-19.7,-30.4,-18.0
Q -34.9,-10.9,-36.5,-2.8
Q -38.0,4.3,-33.5,2.4
Q -28.4,0.3,-19.8,-12.7
Q -14.6,-20.5,-13.0,-20.5
Q -11.5,-20.5,-16.4,-13.9
Q -9.7,-12.6,-4.9,-12.1
Q -2.4,-11.8,0.0,-11.6
Q 1.8,-11.6,3.6,-11.6
Q 8.1,-11.5,9.0,-11.8
Q 9.4,-11.9,9.8,-12.0
Q 10.9,-12.0,12.0,-12.0
Q 18.2,-12.9,22.8,-14.1
Q 27.3,-15.2,28.6,-15.2
Q 29.9,-15.1,29.6,-15.9
Q 29.3,-16.7,28.7,-18.5
Q 28.1,-20.4,27.3,-21.8
Q 26.6,-23.2,27.1,-23.7
Q 28.0,-24.6,29.7,-20.2
Q 30.8,-17.6,31.6,-15.8
Q 32.4,-14.0,33.3,-11.1
Q 38.0,2.8,40.0,-6.9
Q 41.8,-15.4,36.6,-26.7
Q 35.1,-30.0,35.6,-30.4
Q 36.6,-31.5,40.1,-22.9
Q 41.0,-20.7,41.2,-20.5
Q 41.3,-20.3,43.0,-21.9
Q 44.8,-23.5,45.6,-23.9
Q 46.4,-24.4,45.2,-28.5
Q 43.4,-34.6,43.7,-35.3
Q 44.6,-37.6,49.2,-21.1
Q 50.3,-17.1,50.9,-15.4
Q 53.2,-8.7,55.5,-16.4
Q 56.3,-19.3,56.9,-24.0
Q 56.9,-26.2,56.9,-28.5
Q 56.7,-29.8,56.4,-31.1
Q 56.0,-33.8,54.6,-37.2
Q 53.0,-41.4,53.8,-41.6
Q 55.5,-42.1,57.4,-35.0
Q 57.9,-33.1,59.1,-33.8
Q 59.4,-34.2,59.8,-34.7
Q 60.5,-35.5,61.8,-36.5
Q 70.2,-47.9,73.9,-58.2
Q 75.7,-63.4,76.4,-71.1
Q 76.4,-73.7,76.9,-73.8
Q 76.9,-104.8,69.1,-120.2
Q 62.4,-133.4,48.2,-140.4
Q 43.0,-143.0,45.6,-143.5
Q 46.6,-143.6,48.2,-142.9
Q 49.9,-142.2,50.1,-142.4
Q 50.3,-142.6,49.1,-145.4
Q 43.4,-159.4,31.5,-162.9
Q 24.4,-165.0,16.2,-160.1
Q 15.0,-159.4,13.8,-158.7
Q 11.9,-156.6,11.1,-155.8
Q 10.6,-155.5,10.2,-155.1
Q 9.1,-153.5,8.0,-151.9
Q 6.2,-149.4,5.5,-149.0
Q 4.8,-148.7,2.2,-148.8
Q 0.4,-148.8,-1.3,-148.9
Q -3.1,-148.9,-4.9,-148.9
Q -5.3,-149.2,-5.8,-149.6
Q -6.7,-150.2,-7.5,-151.8
Q -8.4,-153.4,-12.4,-158.7
Q -14.2,-160.0,-14.9,-160.9
Q -15.2,-161.4,-15.6,-161.8
Q -19.6,-164.5,-22.0,-165.6
Q -24.4,-166.7,-31.1,-167.6
Q -31.3,-167.2,-33.3,-167.1
Q -38.2,-165.4,-39.5,-164.0
Q -45.7,-157.8,-46.9,-148.5
Q -47.3,-145.1,-48.9,-144.9
Q -49.9,-144.7,-51.1,-143.1
Q -51.3,-142.9,-51.5,-142.7
Q -52.0,-142.2,-52.4,-140.9
Q -53.0,-140.4,-53.6,-139.8
Q -59.1,-134.2,-62.5,-126.7
Q -68.3,-113.9,-68.4,-101.1
Q -68.4,-99.7,-68.4,-98.2
Q -68.4,-95.3,-68.9,-95.1
Q -68.9,-94.0,-68.9,-92.9
 " /> 
<path  
style="fill:rgb(4,4,4)" 
d="M 18.2 -23.7
Q 20.5,-22.2,21.1,-23.1
Q 21.3,-23.5,19.5,-25.0
Q 14.3,-29.1,4.5,-27.4
Q -2.9,-26.1,-2.8,-24.9
Q -2.8,-24.1,2.6,-25.2
Q 12.9,-27.3,18.2,-23.7
 " /> 
<path  
style="fill:rgb(4,4,4)" 
d="M 15.0 -45.3
Q 15.2,-44.9,15.6,-44.9
Q 16.8,-44.9,13.7,-50.8
Q 11.3,-55.2,10.7,-55.4
Q 9.3,-56.0,12.7,-49.6
Q 14.8,-45.6,15.0,-45.3
 " /> 
<path  
style="fill:rgb(4,4,4)" 
d="M -1.2 -46.2
Q -1.4,-45.4,-0.7,-45.4
Q -0.0,-45.4,1.2,-47.7
Q 2.3,-50.0,4.1,-52.5
Q 5.9,-55.0,5.7,-55.8
Q 5.4,-57.2,2.5,-52.9
Q -0.7,-48.0,-1.2,-46.2
 " /> 
<path  
style="fill:rgb(4,4,4)" 
d="M 24.0 -60.0
Q 25.8,-58.7,26.7,-57.4
Q 27.6,-56.8,28.4,-56.2
Q 38.3,-50.1,51.6,-60.3
Q 64.9,-70.5,66.4,-87.4
Q 66.5,-89.0,66.7,-90.7
Q 66.5,-91.0,66.4,-91.4
Q 66.2,-92.0,66.7,-93.4
Q 64.4,-108.1,57.8,-116.5
Q 56.9,-117.6,56.0,-118.7
Q 55.7,-118.9,55.3,-119.1
Q 54.7,-119.6,53.8,-120.9
Q 53.1,-121.4,52.4,-121.8
Q 46.1,-126.0,40.1,-122.1
Q 39.6,-121.7,39.1,-121.4
Q 37.7,-119.6,36.4,-118.7
Q 31.6,-112.2,27.7,-104.1
Q 23.1,-94.5,19.3,-83.4
Q 17.7,-78.5,17.0,-77.2
Q 16.4,-75.8,16.2,-74.7
Q 16.0,-73.6,14.9,-70.3
Q 13.8,-67.0,14.2,-66.5
Q 15.2,-65.6,16.4,-69.3
Q 17.0,-71.1,17.3,-71.1
Q 17.6,-71.1,19.1,-67.8
Q 20.6,-64.5,22.3,-62.3
Q 23.1,-61.1,24.0,-60.0
 " /> 
<path  
style="fill:rgb(115,250,3)" 
d="M 29.3 -59.1
Q 29.7,-59.0,30.0,-58.9
Q 30.6,-58.6,31.1,-58.2
Q 31.3,-58.0,31.6,-57.8
Q 32.6,-57.6,33.6,-57.4
Q 40.5,-55.8,49.6,-62.4
Q 51.0,-63.4,52.4,-64.5
Q 52.8,-64.9,53.1,-65.3
Q 53.8,-66.2,54.5,-66.7
Q 54.8,-66.9,55.1,-67.1
Q 56.0,-68.2,56.9,-69.4
Q 63.6,-77.8,63.7,-90.9
Q 63.7,-103.0,56.6,-113.6
Q 49.7,-124.1,42.6,-120.8
Q 41.7,-120.4,40.9,-120.0
Q 40.5,-119.6,40.2,-119.2
Q 39.5,-118.3,38.6,-117.6
Q 38.2,-117.3,37.8,-116.9
Q 30.7,-105.9,27.1,-97.7
Q 18.4,-77.4,19.9,-73.3
Q 22.8,-65.3,27.0,-61.4
Q 28.1,-60.3,29.3,-59.1
 " /> 
<path  
style="fill:rgb(115,250,3)" 
d="M 44.0 -88.5
Q 44.4,-87.9,44.9,-87.4
Q 44.9,-87.4,44.9,-87.4
Q 47.8,-87.9,50.1,-84.4
Q 52.3,-80.9,53.6,-80.9
Q 54.2,-80.9,53.8,-81.8
Q 53.3,-82.3,52.9,-82.9
Q 51.9,-84.0,50.8,-86.1
Q 49.6,-88.2,48.8,-89.0
Q 47.5,-90.2,44.0,-88.5
 " /> 
<path  
style="fill:rgb(115,250,3)" 
d="M 44.0 -88.5
Q 43.3,-87.4,43.4,-87.3
Q 43.6,-87.1,44.9,-87.4
Q 44.4,-87.9,44.0,-88.5
 " /> 
<path  
style="fill:rgb(31,181,0)" 
d="M 44.0 -88.5
Q 43.1,-87.4,42.2,-86.2
Q 37.8,-80.7,34.3,-78.2
Q 30.8,-75.8,28.2,-76.3
Q 27.7,-76.4,27.1,-76.5
Q 26.6,-75.8,26.0,-75.1
Q 24.1,-72.9,24.6,-70.1
Q 24.9,-68.5,25.7,-68.3
Q 26.5,-68.1,28.9,-66.7
Q 47.1,-56.1,58.2,-78.3
Q 63.5,-88.9,61.5,-97.9
Q 60.2,-104.0,57.5,-104.4
Q 56.2,-104.5,56.1,-104.1
Q 55.9,-103.6,55.5,-103.8
Q 55.3,-103.9,55.1,-104.0
Q 55.6,-103.0,56.0,-102.0
Q 57.8,-98.0,57.8,-90.6
Q 57.8,-86.2,56.8,-84.4
Q 55.7,-82.6,53.8,-81.8
Q 54.2,-80.9,53.6,-80.9
Q 52.3,-80.9,50.1,-84.4
Q 47.8,-87.9,44.9,-87.4
Q 44.9,-87.4,44.9,-87.4
Q 43.6,-87.1,43.4,-87.3
Q 43.3,-87.4,44.0,-88.5
 " /> 
<path  
style="fill:rgb(4,4,4)" 
d="M 44.0 -88.5
Q 47.5,-90.2,48.8,-89.0
Q 49.6,-88.2,50.8,-86.1
Q 51.9,-84.0,52.9,-82.9
Q 53.3,-82.3,53.8,-81.8
Q 55.7,-82.6,56.8,-84.4
Q 57.8,-86.2,57.8,-90.6
Q 57.8,-98.0,56.0,-102.0
Q 55.6,-103.0,55.1,-104.0
Q 54.4,-103.7,53.7,-103.4
Q 57.3,-94.5,55.4,-85.7
Q 54.8,-83.3,53.0,-86.6
Q 50.1,-91.6,47.2,-91.8
Q 45.4,-91.9,43.1,-90.2
Q 42.9,-89.9,42.6,-89.6
Q 42.2,-89.0,40.9,-88.0
Q 39.6,-86.7,38.2,-84.5
Q 37.7,-83.8,37.1,-83.1
Q 36.0,-81.8,34.7,-80.7
Q 34.0,-80.1,33.3,-79.6
Q 33.8,-78.9,34.3,-78.2
Q 37.8,-80.7,42.2,-86.2
Q 43.1,-87.4,44.0,-88.5
 " /> 
<path  
style="fill:rgb(4,4,4)" 
d="M 27.1 -76.5
Q 27.4,-77.3,27.7,-78.0
Q 27.4,-78.1,27.1,-78.2
Q 26.7,-78.8,26.0,-78.7
Q 25.7,-78.7,25.3,-78.7
Q 24.4,-78.3,24.9,-77.6
Q 25.1,-77.3,25.3,-76.9
Q 25.4,-76.8,25.5,-76.7
Q 25.7,-76.4,26.4,-76.4
Q 26.8,-76.4,27.1,-76.5
 " /> 
<path  
style="fill:rgb(4,4,4)" 
d="M 27.1 -76.5
Q 27.7,-76.4,28.2,-76.3
Q 30.8,-75.8,34.3,-78.2
Q 33.8,-78.9,33.3,-79.6
Q 32.9,-79.4,32.4,-79.1
Q 31.5,-78.7,30.2,-78.2
Q 29.8,-78.1,29.3,-78.0
Q 28.4,-77.8,27.8,-78.0
Q 27.7,-78.0,27.7,-78.0
Q 27.4,-77.3,27.1,-76.5
 " /> 
<path  
style="fill:rgb(4,4,4)" 
d="M 55.1 -104.0
Q 54.3,-105.6,53.6,-107.1
Q 52.0,-110.2,51.5,-110.2
Q 50.5,-110.2,52.8,-105.3
Q 53.3,-104.4,53.7,-103.4
Q 54.4,-103.7,55.1,-104.0
 " /> 
<path  
style="fill:rgb(31,181,0)" 
d="M 25.3 -76.9
Q 25.1,-77.3,24.9,-77.6
Q 24.4,-78.3,25.3,-78.7
Q 24.4,-78.7,24.4,-78.2
Q 24.3,-77.8,24.8,-77.4
Q 25.1,-77.1,25.3,-76.9
 " /> 
<path  
style="fill:rgb(31,181,0)" 
d="M 27.1 -78.2
Q 27.4,-78.1,27.7,-78.0
Q 27.7,-78.0,27.8,-78.0
Q 28.4,-77.8,29.3,-78.0
Q 29.8,-78.1,30.2,-78.2
Q 28.7,-78.2,27.1,-78.2
 " /> 
<path  
style="fill:rgb(31,181,0)" 
d="M 33.3 -79.6
Q 34.0,-80.1,34.7,-80.7
Q 36.0,-81.8,37.1,-83.1
Q 37.7,-83.8,38.2,-84.5
Q 37.6,-83.9,36.9,-83.3
Q 35.6,-82.2,33.3,-79.6
 " /> 
<path  
style="fill:rgb(115,250,3)" 
d="M 40.9 -88.0
Q 41.1,-88.4,41.3,-88.7
Q 41.8,-89.3,42.4,-89.8
Q 42.8,-90.0,43.1,-90.2
Q 42.8,-90.6,42.5,-91.0
Q 41.0,-89.9,39.4,-88.5
Q 40.5,-88.5,40.9,-88.0
 " /> 
<path  
style="fill:rgb(31,181,0)" 
d="M 40.9 -88.0
Q 42.2,-89.0,42.6,-89.6
Q 42.9,-89.9,43.1,-90.2
Q 42.8,-90.0,42.4,-89.8
Q 41.8,-89.3,41.3,-88.7
Q 41.1,-88.4,40.9,-88.0
 " /> 
<path  
style="fill:rgb(209,251,185)" 
d="M 28.9 -83.9
Q 31.2,-81.0,38.9,-88.0
Q 39.5,-88.5,40.0,-89.0
Q 41.6,-90.4,43.1,-91.4
Q 44.5,-92.5,46.2,-93.4
Q 49.6,-95.1,50.6,-96.1
Q 53.1,-98.5,49.2,-106.5
Q 47.0,-110.7,45.5,-111.5
Q 44.0,-112.2,44.2,-112.8
Q 44.9,-114.6,42.3,-112.1
Q 41.0,-110.8,40.1,-110.1
Q 38.6,-109.0,36.0,-104.1
Q 34.9,-102.1,35.4,-101.9
Q 36.0,-101.7,33.9,-98.6
Q 26.5,-87.0,28.9,-83.9
 " /> 
<path  
style="fill:rgb(31,181,0)" 
d="M 29.3 -59.1
Q 29.4,-58.9,29.5,-58.7
Q 29.7,-58.2,30.6,-58.0
Q 31.1,-57.9,31.6,-57.8
Q 31.3,-58.0,31.1,-58.2
Q 30.6,-58.6,30.0,-58.9
Q 29.7,-59.0,29.3,-59.1
 " /> 
<path  
style="fill:rgb(31,181,0)" 
d="M 37.8 -116.9
Q 38.2,-117.3,38.6,-117.6
Q 39.5,-118.3,40.2,-119.2
Q 40.5,-119.6,40.9,-120.0
Q 39.1,-118.7,38.4,-117.8
Q 38.1,-117.4,37.8,-116.9
 " /> 
<path  
style="fill:rgb(31,181,0)" 
d="M 55.1 -67.1
Q 54.8,-66.9,54.5,-66.7
Q 53.8,-66.2,53.1,-65.3
Q 52.8,-64.9,52.4,-64.5
Q 52.9,-64.8,53.3,-65.1
Q 54.2,-65.8,55.1,-67.1
 " /> 
<path  
style="fill:rgb(7,193,201)" 
d="M 24.0 -60.0
Q 24.3,-59.6,24.7,-59.1
Q 25.4,-58.3,26.0,-57.8
Q 26.3,-57.6,26.7,-57.4
Q 25.8,-58.7,24.0,-60.0
 " /> 
<path  
style="fill:rgb(7,193,201)" 
d="M 36.4 -118.7
Q 37.7,-119.6,39.1,-121.4
Q 38.7,-121.0,38.2,-120.7
Q 37.3,-120.0,36.4,-118.7
 " /> 
<path  
style="fill:rgb(7,193,201)" 
d="M 53.8 -120.9
Q 54.7,-119.6,55.3,-119.1
Q 55.7,-118.9,56.0,-118.7
Q 55.1,-120.0,53.8,-120.9
 " /> 
<path  
style="fill:rgb(14,103,171)" 
d="M 66.7 -93.4
Q 66.2,-92.0,66.4,-91.4
Q 66.5,-91.0,66.7,-90.7
Q 66.7,-92.0,66.7,-93.4
 " /> 
<path  
style="fill:rgb(4,4,4)" 
d="M -39.1 -67.6
Q -38.7,-67.2,-38.2,-66.9
Q -37.4,-66.2,-36.9,-65.6
Q -36.7,-65.2,-36.4,-64.9
Q -35.4,-64.0,-34.4,-63.1
Q -26.8,-56.3,-18.2,-57.1
Q -8.0,-58.0,-1.7,-71.3
Q -0.4,-65.6,0.0,-65.0
Q 2.8,-61.2,-2.5,-85.1
Q -9.6,-117.5,-24.5,-127.1
Q -35.5,-134.2,-43.8,-125.9
Q -50.7,-119.1,-51.3,-108.5
Q -51.4,-106.7,-51.6,-104.9
Q -51.6,-103.8,-51.6,-102.7
Q -51.6,-100.2,-51.8,-100.1
Q -51.9,-100.1,-52.0,-100.0
Q -51.7,-97.4,-51.3,-94.7
Q -50.3,-86.3,-46.0,-77.5
Q -44.0,-73.4,-39.1,-67.6
 " /> 
<path  
style="fill:rgb(31,181,0)" 
d="M -17.8 -59.6
Q -19.6,-59.6,-21.3,-59.6
Q -20.9,-59.5,-20.4,-59.3
Q -19.6,-59.1,-18.7,-59.3
Q -18.2,-59.5,-17.8,-59.6
 " /> 
<path  
style="fill:rgb(115,250,3)" 
d="M -17.8 -59.6
Q -14.6,-60.4,-10.7,-62.7
Q -10.3,-63.1,-10.0,-63.6
Q -9.3,-64.4,-8.0,-65.4
Q -3.0,-72.9,-3.0,-76.7
Q -3.1,-78.5,-4.4,-84.7
Q -8.9,-104.3,-18.0,-117.8
Q -18.8,-118.9,-19.6,-120.0
Q -21.3,-121.4,-22.0,-122.3
Q -22.3,-122.7,-22.7,-123.1
Q -30.4,-128.1,-34.1,-128.0
Q -36.0,-128.0,-40.4,-126.2
Q -40.8,-125.8,-41.3,-125.3
Q -42.1,-124.4,-44.0,-122.7
Q -44.6,-121.8,-45.1,-120.9
Q -48.2,-116.0,-48.9,-111.4
Q -49.1,-109.9,-49.3,-108.5
Q -49.3,-103.3,-49.6,-103.2
Q -49.7,-103.2,-49.8,-103.1
Q -49.6,-102.5,-49.5,-101.8
Q -49.2,-100.5,-49.5,-99.6
Q -49.6,-99.1,-49.8,-98.7
Q -49.3,-98.8,-49.3,-97.7
Q -49.3,-97.7,-49.3,-97.7
Q -49.3,-97.1,-49.3,-96.5
Q -49.0,-94.5,-48.7,-92.5
Q -47.1,-82.9,-40.9,-73.6
Q -39.8,-71.9,-38.7,-70.2
Q -38.0,-69.7,-37.3,-69.1
Q -36.0,-68.0,-34.9,-66.7
Q -34.3,-66.0,-33.8,-65.4
Q -26.0,-60.2,-23.1,-59.8
Q -22.2,-59.7,-21.3,-59.6
Q -19.6,-59.6,-17.8,-59.6
 " /> 
<path  
style="fill:rgb(4,4,4)" 
d="M -42.7 -107.1
Q -42.6,-105.6,-42.6,-104.1
Q -42.5,-101.0,-41.5,-95.7
Q -39.5,-85.3,-36.6,-82.5
Q -33.3,-79.2,-30.7,-82.1
Q -29.2,-83.7,-27.6,-85.0
Q -27.4,-85.2,-27.1,-85.4
Q -27.3,-85.7,-27.4,-86.0
Q -27.6,-86.0,-27.6,-86.2
Q -27.6,-86.6,-26.7,-87.3
Q -25.2,-88.7,-23.1,-87.6
Q -22.6,-87.3,-22.0,-87.0
Q -23.3,-86.7,-24.7,-86.7
Q -26.0,-86.7,-26.8,-86.2
Q -27.3,-86.0,-27.4,-86.0
Q -27.3,-85.7,-27.1,-85.4
Q -23.2,-87.9,-17.9,-83.1
Q -13.3,-78.9,-10.8,-78.3
Q -8.9,-77.8,-7.1,-78.7
Q -7.6,-79.6,-9.0,-79.8
Q -12.2,-80.3,-18.2,-86.0
Q -25.4,-93.0,-29.0,-87.7
Q -31.9,-83.4,-33.0,-83.1
Q -35.7,-82.6,-38.2,-90.9
Q -40.6,-99.3,-40.9,-108.5
Q -41.7,-108.6,-42.5,-108.7
Q -42.6,-107.9,-42.7,-107.1
 " /> 
<path  
style="fill:rgb(31,181,0)" 
d="M -42.7 -107.1
Q -47.3,-107.1,-44.5,-93.5
Q -42.6,-84.5,-38.8,-77.3
Q -30.7,-61.8,-17.7,-65.6
Q -14.6,-66.5,-10.1,-70.6
Q -6.4,-74.0,-7.6,-76.6
Q -8.1,-77.9,-7.1,-78.7
Q -8.9,-77.8,-10.8,-78.3
Q -13.3,-78.9,-17.9,-83.1
Q -23.2,-87.9,-27.1,-85.4
Q -27.4,-85.2,-27.6,-85.0
Q -29.2,-83.7,-30.7,-82.1
Q -33.3,-79.2,-36.6,-82.5
Q -39.5,-85.3,-41.5,-95.7
Q -42.5,-101.0,-42.6,-104.1
Q -42.6,-105.6,-42.7,-107.1
 " /> 
<path  
style="fill:rgb(31,181,0)" 
d="M -38.2 -116.5
Q -39.3,-115.7,-39.6,-114.2
Q -39.3,-114.5,-39.1,-114.7
Q -38.7,-115.2,-38.2,-116.5
 " /> 
<path  
style="fill:rgb(4,4,4)" 
d="M -38.2 -116.5
Q -38.8,-117.0,-39.5,-117.6
Q -40.6,-116.3,-41.4,-113.9
Q -40.3,-114.5,-39.6,-114.2
Q -39.3,-115.7,-38.2,-116.5
 " /> 
<path  
style="fill:rgb(4,4,4)" 
d="M -38.2 -116.5
Q -36.6,-119.7,-38.6,-118.4
Q -39.0,-118.1,-39.5,-117.6
Q -38.8,-117.0,-38.2,-116.5
 " /> 
<path  
style="fill:rgb(4,4,4)" 
d="M -39.6 -114.2
Q -40.3,-114.5,-41.1,-114.8
Q -42.1,-112.2,-42.6,-108.0
Q -41.7,-108.6,-40.9,-108.5
Q -40.9,-110.5,-40.4,-110.7
Q -40.3,-111.1,-40.2,-111.6
Q -40.0,-112.5,-39.8,-113.4
Q -39.7,-113.8,-39.6,-114.2
 " /> 
<path  
style="fill:rgb(31,181,0)" 
d="M -40.4 -110.7
Q -40.9,-110.5,-40.9,-108.5
Q -40.5,-108.6,-40.4,-110.7
 " /> 
<path  
style="fill:rgb(255,255,255)" 
d="M -27.6 -86.2
Q -27.5,-86.1,-27.4,-86.0
Q -27.3,-86.0,-26.8,-86.2
Q -26.0,-86.7,-24.7,-86.7
Q -23.3,-86.7,-22.0,-87.0
Q -22.6,-87.3,-23.1,-87.6
Q -25.2,-88.7,-26.7,-87.3
Q -27.6,-86.6,-27.6,-86.2
 " /> 
<path  
style="fill:rgb(209,251,185)" 
d="M -12.5 -86.9
Q -10.4,-85.9,-10.1,-86.2
Q -9.3,-87.0,-16.5,-100.2
Q -24.5,-114.9,-29.8,-110.4
Q -36.6,-104.7,-31.5,-97.1
Q -29.9,-94.8,-23.7,-92.9
Q -20.5,-92.0,-17.5,-89.9
Q -14.5,-87.9,-12.5,-86.9
 " /> 
<path  
style="fill:rgb(31,181,0)" 
d="M -38.7 -70.2
Q -36.4,-67.6,-35.1,-66.5
Q -34.4,-65.9,-33.8,-65.4
Q -34.3,-66.0,-34.9,-66.7
Q -36.0,-68.0,-37.3,-69.1
Q -38.0,-69.7,-38.7,-70.2
 " /> 
<path  
style="fill:rgb(31,181,0)" 
d="M -49.3 -96.5
Q -49.3,-97.1,-49.3,-97.7
Q -49.5,-98.2,-49.8,-98.7
Q -49.8,-96.8,-49.7,-96.6
Q -49.7,-96.3,-49.3,-96.5
 " /> 
<path  
style="fill:rgb(31,181,0)" 
d="M -49.8 -98.7
Q -49.5,-98.2,-49.3,-97.7
Q -49.3,-97.7,-49.3,-97.7
Q -49.3,-98.8,-49.8,-98.7
 " /> 
<path  
style="fill:rgb(31,181,0)" 
d="M -49.8 -103.1
Q -49.7,-103.2,-49.6,-103.2
Q -49.3,-103.3,-49.3,-108.5
Q -49.4,-108.4,-49.5,-108.4
Q -49.7,-108.3,-49.7,-105.7
Q -49.8,-104.4,-49.8,-103.1
 " /> 
<path  
style="fill:rgb(31,181,0)" 
d="M -44.0 -122.7
Q -42.1,-124.4,-41.3,-125.3
Q -40.8,-125.8,-40.4,-126.2
Q -41.0,-125.8,-41.5,-125.3
Q -42.6,-124.4,-43.3,-123.6
Q -43.7,-123.1,-44.0,-122.7
 " /> 
<path  
style="fill:rgb(31,181,0)" 
d="M -22.7 -123.1
Q -22.3,-122.7,-22.0,-122.3
Q -21.3,-121.4,-19.6,-120.0
Q -19.9,-120.5,-20.2,-120.9
Q -20.9,-121.8,-21.8,-122.5
Q -22.2,-122.8,-22.7,-123.1
 " /> 
<path  
style="fill:rgb(31,181,0)" 
d="M -8.0 -65.4
Q -9.3,-64.4,-10.0,-63.6
Q -10.3,-63.1,-10.7,-62.7
Q -10.2,-63.0,-9.8,-63.4
Q -8.9,-64.0,-8.5,-64.7
Q -8.2,-65.0,-8.0,-65.4
 " /> 
<path  
style="fill:rgb(14,103,171)" 
d="M -39.1 -67.6
Q -38.8,-67.1,-38.4,-66.7
Q -37.8,-65.8,-37.1,-65.4
Q -36.8,-65.1,-36.4,-64.9
Q -36.7,-65.2,-36.9,-65.6
Q -37.4,-66.2,-38.2,-66.9
Q -38.7,-67.2,-39.1,-67.6
 " /> 
<path  
style="fill:rgb(14,103,171)" 
d="M -52.0 -100.0
Q -51.9,-100.1,-51.8,-100.1
Q -51.6,-100.2,-51.6,-102.7
Q -51.8,-102.7,-52.0,-102.7
Q -52.0,-101.4,-52.0,-100.0
 " /> 
<path  
style="fill:rgb(7,193,201)" 
d="M -51.6 -102.7
Q -51.6,-103.8,-51.6,-104.9
Q -51.9,-104.8,-52.0,-102.7
Q -51.8,-102.7,-51.6,-102.7
 " /> 
<path  
style="fill:rgb(7,193,201)" 
d="M -68.9 -92.9
Q -68.9,-92.0,-68.9,-91.0
Q -68.9,-89.2,-68.4,-89.4
Q -68.4,-90.3,-68.4,-91.2
Q -68.4,-93.1,-68.6,-93.0
Q -68.8,-92.9,-68.9,-92.9
 " /> 
<path  
style="fill:rgb(7,193,201)" 
d="M -68.9 -95.1
Q -68.4,-95.3,-68.4,-98.2
Q -68.8,-98.1,-68.9,-95.1
 " /> 
<path  
style="fill:rgb(7,193,201)" 
d="M -52.4 -140.9
Q -52.0,-142.2,-51.5,-142.7
Q -51.3,-142.9,-51.1,-143.1
Q -51.5,-142.8,-51.8,-142.5
Q -52.5,-141.9,-52.5,-141.4
Q -52.5,-141.2,-52.4,-140.9
 " /> 
<path  
style="fill:rgb(4,4,4)" 
d="M -51.1 -143.1
Q -49.9,-144.7,-48.9,-144.9
Q -47.3,-145.1,-46.9,-148.5
Q -45.7,-157.8,-39.5,-164.0
Q -38.2,-165.4,-33.3,-167.1
Q -33.3,-167.2,-33.2,-167.4
Q -33.1,-167.6,-32.1,-167.6
Q -31.6,-167.6,-31.1,-167.6
Q -31.2,-168.4,-31.2,-169.2
Q -35.4,-169.0,-37.1,-168.2
Q -44.9,-164.7,-48.5,-149.9
Q -49.0,-147.9,-52.3,-144.3
Q -51.7,-143.7,-51.1,-143.1
 " /> 
<path  
style="fill:rgb(7,193,201)" 
d="M -33.3 -167.1
Q -31.3,-167.2,-31.1,-167.6
Q -31.6,-167.6,-32.1,-167.6
Q -33.1,-167.6,-33.2,-167.4
Q -33.3,-167.2,-33.3,-167.1
 " /> 
<path  
style="fill:rgb(4,4,4)" 
d="M -31.1 -167.6
Q -24.4,-166.7,-22.0,-165.6
Q -19.6,-164.5,-15.6,-161.8
Q -15.1,-161.5,-14.7,-161.1
Q -13.8,-160.4,-13.1,-159.6
Q -12.8,-159.1,-12.4,-158.7
Q -8.4,-153.4,-7.5,-151.8
Q -6.7,-150.2,-5.8,-149.6
Q -5.3,-149.2,-4.9,-148.9
Q -4.4,-149.0,-4.0,-149.2
Q -3.1,-149.4,-1.3,-148.9
Q 0.4,-148.8,2.2,-148.8
Q 4.8,-148.7,5.5,-149.0
Q 6.2,-149.4,8.0,-151.9
Q 9.1,-153.5,10.2,-155.1
Q 9.7,-155.7,9.2,-156.2
Q 8.6,-155.6,8.0,-155.1
Q 4.5,-150.3,2.3,-150.5
Q 0.2,-150.7,-2.1,-150.7
Q -4.4,-150.7,-5.7,-152.9
Q -7.1,-155.1,-9.8,-158.7
Q -10.4,-159.3,-11.1,-159.8
Q -12.4,-160.9,-13.8,-162.5
Q -14.4,-163.3,-15.1,-164.0
Q -15.9,-164.6,-16.6,-165.2
Q -18.9,-166.9,-22.8,-168.2
Q -24.7,-168.8,-27.3,-176.3
Q -29.6,-183.1,-31.6,-196.5
Q -32.0,-198.2,-31.8,-199.1
Q -31.7,-199.6,-31.6,-200.0
Q -27.7,-194.2,-24.9,-189.3
Q -21.8,-183.8,-15.7,-174.4
Q -12.4,-169.4,-12.0,-169.4
Q -10.4,-169.4,-13.0,-173.5
Q -21.3,-186.4,-21.3,-188.5
Q -21.3,-189.8,-20.0,-190.8
Q -17.7,-192.4,-17.1,-192.0
Q -16.7,-191.7,-12.4,-175.2
Q -11.6,-171.8,-10.7,-173.3
Q -10.4,-173.8,-11.6,-178.8
Q -17.4,-201.2,-16.7,-204.0
Q -16.6,-204.3,-16.6,-204.7
Q -12.6,-194.1,-10.7,-187.8
Q -9.5,-183.8,-8.6,-185.1
Q -8.2,-185.7,-9.8,-190.9
Q -12.8,-201.0,-10.0,-204.2
Q -8.9,-205.4,-8.7,-204.2
Q -8.6,-203.7,-8.4,-203.1
Q -8.1,-203.3,-8.1,-203.1
Q -8.0,-203.0,-8.0,-202.2
Q -7.3,-202.2,-6.7,-202.2
Q -6.7,-204.0,-6.7,-205.8
Q -7.1,-210.7,-6.7,-216.0
Q -6.6,-220.1,-6.0,-221.7
Q -4.1,-227.2,-1.8,-215.5
Q -0.9,-210.7,0.0,-202.7
Q 0.3,-202.9,0.4,-202.6
Q 0.4,-202.6,0.4,-202.5
Q 1.1,-202.6,1.8,-202.7
Q 1.8,-203.4,1.8,-204.2
Q 1.8,-205.6,2.0,-205.7
Q 2.1,-205.8,2.2,-205.8
Q 2.5,-206.5,2.8,-207.2
Q 2.7,-207.3,2.7,-207.3
Q 1.5,-207.7,1.0,-211.3
Q 0.5,-214.9,0.0,-216.9
Q -0.4,-218.9,-0.8,-220.9
Q -1.6,-224.4,-4.3,-225.7
Q -8.9,-228.1,-8.9,-211.1
Q -8.9,-207.4,-10.2,-206.5
Q -11.6,-205.6,-12.4,-203.9
Q -13.1,-202.2,-13.4,-202.2
Q -13.7,-202.2,-14.0,-203.6
Q -14.9,-207.6,-17.5,-207.6
Q -20.1,-207.6,-18.2,-198.9
Q -17.2,-194.3,-19.1,-193.5
Q -20.9,-192.8,-22.0,-191.5
Q -22.5,-190.9,-23.1,-190.2
Q -24.1,-192.2,-25.1,-194.1
Q -30.6,-204.3,-32.7,-202.2
Q -34.8,-200.0,-32.2,-186.5
Q -30.4,-176.7,-26.7,-169.4
Q -28.9,-169.3,-31.0,-169.2
Q -31.1,-169.2,-31.2,-169.2
Q -31.2,-168.4,-31.1,-167.6
 " /> 
<path  
style="fill:rgb(7,193,201)" 
d="M -15.6 -161.8
Q -15.2,-161.4,-14.9,-160.9
Q -14.2,-160.0,-12.4,-158.7
Q -12.8,-159.1,-13.1,-159.6
Q -13.8,-160.4,-14.7,-161.1
Q -15.1,-161.5,-15.6,-161.8
 " /> 
<path  
style="fill:rgb(14,103,171)" 
d="M -4.9 -148.9
Q -3.1,-148.9,-1.3,-148.9
Q -3.1,-149.4,-4.0,-149.2
Q -4.4,-149.0,-4.9,-148.9
 " /> 
<path  
style="fill:rgb(4,4,4)" 
d="M 10.2 -155.1
Q 10.8,-155.8,11.3,-156.4
Q 10.7,-156.9,10.2,-157.4
Q 9.7,-156.7,9.2,-156.2
Q 9.7,-155.7,10.2,-155.1
 " /> 
<path  
style="fill:rgb(14,103,171)" 
d="M 10.2 -155.1
Q 10.6,-155.5,11.1,-155.8
Q 11.9,-156.6,13.8,-158.7
Q 13.2,-158.2,12.7,-157.8
Q 12.0,-157.3,11.3,-156.4
Q 10.8,-155.8,10.2,-155.1
 " /> 
<path  
style="fill:rgb(4,4,4)" 
d="M 13.8 -158.7
Q 13.2,-159.2,12.7,-159.8
Q 11.6,-158.7,10.2,-157.4
Q 10.7,-156.9,11.3,-156.4
Q 12.0,-157.3,12.7,-157.8
Q 13.2,-158.2,13.8,-158.7
 " /> 
<path  
style="fill:rgb(7,193,201)" 
d="M 76.9 -73.8
Q 76.4,-73.7,76.4,-71.1
Q 76.5,-71.2,76.6,-71.2
Q 76.9,-71.3,76.9,-73.8
 " /> 
<path  
style="fill:rgb(14,103,171)" 
d="M 61.8 -36.5
Q 60.5,-35.5,59.8,-34.7
Q 59.4,-34.2,59.1,-33.8
Q 59.5,-34.1,60.0,-34.5
Q 60.9,-35.2,61.8,-36.5
 " /> 
<path  
style="fill:rgb(14,103,171)" 
d="M 56.9 -28.5
Q 56.9,-26.2,56.9,-24.0
Q 57.0,-24.6,57.1,-25.1
Q 57.4,-26.2,56.9,-28.5
 " /> 
<path  
style="fill:rgb(14,103,171)" 
d="M 12.0 -12.0
Q 10.9,-12.0,9.8,-12.0
Q 10.1,-11.9,10.4,-11.8
Q 11.1,-11.5,12.0,-12.0
 " /> 
<path  
style="fill:rgb(14,103,171)" 
d="M 3.6 -11.6
Q 1.8,-11.6,0.0,-11.6
Q 1.8,-11.1,3.6,-11.6
 " /> 
<path  
style="fill:rgb(4,4,4)" 
d="M -110.7 -82.7
Q -110.7,-81.4,-110.7,-80.0
Q -108.9,-75.1,-107.6,-72.5
Q -100.2,-57.8,-86.4,-48.8
Q -70.2,-38.2,-55.9,-36.0
Q -52.8,-35.5,-52.6,-35.7
Q -52.4,-36.0,-53.7,-37.7
Q -56.9,-41.9,-58.6,-45.5
Q -59.1,-46.5,-59.6,-47.6
Q -60.7,-47.7,-61.8,-47.8
Q -71.7,-48.8,-86.9,-60.5
Q -93.2,-65.4,-92.8,-66.7
Q -92.6,-67.2,-90.6,-65.2
Q -88.6,-63.3,-84.6,-60.4
Q -71.6,-50.9,-63.6,-49.5
Q -62.0,-49.2,-60.4,-48.9
Q -61.3,-51.4,-62.2,-53.8
Q -65.9,-64.0,-67.8,-70.6
Q -68.9,-74.3,-69.3,-76.9
Q -72.8,-76.9,-79.2,-82.5
Q -85.0,-87.7,-88.6,-94.1
Q -90.9,-98.2,-90.2,-98.2
Q -89.6,-98.2,-87.8,-95.1
Q -81.3,-83.6,-72.3,-79.2
Q -70.8,-78.5,-69.3,-77.8
Q -70.2,-81.8,-70.2,-84.0
Q -70.7,-83.9,-70.7,-85.3
Q -70.7,-85.3,-70.7,-85.3
Q -70.7,-86.0,-70.7,-86.7
Q -70.7,-88.0,-70.7,-89.4
Q -71.1,-91.1,-70.9,-91.8
Q -70.8,-92.1,-70.7,-92.5
Q -70.7,-92.7,-70.7,-92.9
Q -71.3,-93.3,-71.8,-93.7
Q -75.1,-96.1,-77.4,-99.2
Q -84.6,-108.7,-84.8,-114.8
Q -84.9,-117.6,-83.6,-113.4
Q -80.1,-102.0,-72.8,-96.1
Q -71.9,-95.4,-71.1,-94.7
Q -71.1,-97.2,-70.7,-97.4
Q -70.7,-99.4,-70.7,-101.4
Q -70.7,-103.4,-70.2,-103.6
Q -70.2,-104.8,-70.1,-106.0
Q -70.0,-108.3,-69.9,-108.6
Q -69.8,-108.8,-69.8,-108.9
Q -74.7,-113.4,-76.9,-117.9
Q -80.6,-125.8,-79.2,-125.8
Q -78.8,-125.8,-78.1,-123.6
Q -77.4,-121.4,-75.7,-117.8
Q -74.1,-114.3,-69.8,-110.2
Q -69.5,-112.1,-69.1,-114.0
Q -68.5,-117.8,-66.2,-123.6
Q -66.8,-124.5,-67.3,-125.4
Q -69.8,-129.3,-69.8,-134.6
Q -69.8,-137.4,-69.3,-137.4
Q -68.9,-137.4,-68.9,-135.5
Q -68.9,-128.8,-65.8,-124.9
Q -62.7,-130.7,-60.9,-133.5
Q -59.2,-136.4,-60.2,-136.8
Q -62.8,-138.0,-62.7,-140.5
Q -62.7,-140.9,-62.7,-141.4
Q -62.8,-141.3,-62.9,-141.3
Q -63.2,-141.2,-63.1,-142.4
Q -63.1,-142.4,-63.1,-142.4
Q -63.1,-143.0,-63.1,-143.6
Q -63.1,-145.6,-63.1,-147.6
Q -63.1,-150.0,-62.7,-150.2
Q -62.7,-152.7,-62.7,-155.1
Q -62.7,-158.5,-62.2,-158.7
Q -62.2,-162.0,-62.2,-165.4
Q -62.4,-165.3,-62.5,-165.3
Q -62.7,-165.2,-62.7,-167.6
Q -62.9,-168.2,-63.1,-168.9
Q -63.6,-170.2,-65.0,-168.7
Q -69.1,-164.5,-72.2,-148.2
Q -75.0,-133.3,-75.7,-133.2
Q -77.2,-132.9,-77.3,-139.7
Q -77.3,-142.3,-77.3,-144.9
Q -77.8,-144.7,-77.8,-147.1
Q -77.8,-148.2,-77.8,-149.4
Q -78.2,-150.7,-78.7,-152.0
Q -79.1,-151.3,-79.5,-150.6
Q -80.4,-149.1,-81.8,-138.7
Q -82.6,-132.9,-84.0,-132.9
Q -86.0,-132.9,-88.0,-146.5
Q -88.4,-149.6,-89.1,-152.5
Q -93.5,-172.3,-97.1,-168.4
Q -98.9,-166.5,-99.1,-162.3
Q -99.1,-161.8,-99.1,-161.4
Q -99.1,-158.5,-99.1,-155.6
Q -99.0,-154.2,-98.9,-152.9
Q -98.1,-143.8,-92.6,-126.0
Q -91.1,-121.2,-92.0,-118.6
Q -92.5,-117.1,-94.4,-118.1
Q -97.1,-119.7,-98.9,-124.9
Q -99.6,-126.9,-101.1,-130.7
Q -102.6,-134.5,-103.6,-137.3
Q -107.0,-146.8,-109.3,-134.9
Q -109.7,-132.7,-109.5,-126.2
Q -109.0,-106.1,-93.2,-81.0
Q -88.7,-73.7,-92.2,-73.8
Q -92.8,-73.8,-93.3,-73.8
Q -93.8,-73.9,-94.2,-74.0
Q -95.1,-74.3,-95.8,-74.9
Q -96.1,-75.2,-96.4,-75.6
Q -98.7,-76.8,-100.9,-78.0
Q -105.3,-80.5,-110.7,-82.7
 " /> 
<path  
style="fill:rgb(14,103,171)" 
d="M -110.7 -82.7
Q -110.8,-82.4,-110.9,-82.0
Q -111.1,-81.4,-110.7,-80.0
Q -110.7,-81.4,-110.7,-82.7
 " /> 
<path  
style="fill:rgb(14,103,171)" 
d="M -96.4 -75.6
Q -96.1,-75.2,-95.8,-74.9
Q -95.1,-74.3,-94.2,-74.0
Q -93.8,-73.9,-93.3,-73.8
Q -93.7,-74.0,-94.0,-74.2
Q -94.7,-74.7,-96.4,-75.6
 " /> 
<path  
style="fill:rgb(14,103,171)" 
d="M -99.1 -155.6
Q -99.1,-158.5,-99.1,-161.4
Q -99.2,-160.6,-99.3,-159.8
Q -99.6,-158.2,-99.3,-156.9
Q -99.2,-156.2,-99.1,-155.6
 " /> 
<path  
style="fill:rgb(14,103,171)" 
d="M -77.8 -149.4
Q -77.8,-148.2,-77.8,-147.1
Q -77.8,-144.7,-77.3,-144.9
Q -77.3,-149.1,-77.4,-149.3
Q -77.4,-149.5,-77.8,-149.4
 " /> 
<path  
style="fill:rgb(14,103,171)" 
d="M -62.7 -167.6
Q -62.7,-165.2,-62.5,-165.3
Q -62.4,-165.3,-62.2,-165.4
Q -62.2,-167.3,-62.3,-167.5
Q -62.3,-167.7,-62.7,-167.6
 " /> 
<path  
style="fill:rgb(4,4,4)" 
d="M -62.2 -165.4
Q -62.2,-162.0,-62.2,-158.7
Q -61.4,-158.7,-60.5,-158.7
Q -60.5,-164.2,-60.7,-166.9
Q -61.4,-165.4,-62.2,-165.4
 " /> 
<path  
style="fill:rgb(14,103,171)" 
d="M -62.2 -158.7
Q -62.7,-158.5,-62.7,-155.1
Q -62.6,-155.2,-62.5,-155.2
Q -62.3,-155.3,-62.3,-157.0
Q -62.2,-157.8,-62.2,-158.7
 " /> 
<path  
style="fill:rgb(14,103,171)" 
d="M -62.7 -150.2
Q -63.1,-150.0,-63.1,-147.6
Q -63.0,-147.6,-62.9,-147.7
Q -62.7,-147.7,-62.7,-150.2
 " /> 
<path  
style="fill:rgb(14,103,171)" 
d="M -63.1 -143.6
Q -63.1,-143.0,-63.1,-142.4
Q -62.9,-141.9,-62.7,-141.4
Q -62.7,-143.3,-62.7,-143.5
Q -62.8,-143.7,-63.1,-143.6
 " /> 
<path  
style="fill:rgb(14,103,171)" 
d="M -62.7 -141.4
Q -62.9,-141.9,-63.1,-142.4
Q -63.1,-142.4,-63.1,-142.4
Q -63.2,-141.2,-62.9,-141.3
Q -62.8,-141.3,-62.7,-141.4
 " /> 
<path  
style="fill:rgb(97,247,248)" 
d="M -65.8 -124.9
Q -66.0,-124.2,-66.2,-123.6
Q -66.1,-123.6,-66.0,-123.7
Q -65.8,-123.7,-65.8,-124.9
 " /> 
<path  
style="fill:rgb(97,247,248)" 
d="M -65.8 -124.9
Q -68.9,-128.8,-68.9,-135.5
Q -68.9,-137.4,-69.3,-137.4
Q -69.8,-137.4,-69.8,-134.6
Q -69.8,-129.3,-67.3,-125.4
Q -66.8,-124.5,-66.2,-123.6
Q -66.0,-124.2,-65.8,-124.9
 " /> 
<path  
style="fill:rgb(97,247,248)" 
d="M -69.8 -110.2
Q -74.1,-114.3,-75.7,-117.8
Q -77.4,-121.4,-78.1,-123.6
Q -78.8,-125.8,-79.2,-125.8
Q -80.6,-125.8,-76.9,-117.9
Q -74.7,-113.4,-69.8,-108.9
Q -69.8,-109.6,-69.8,-110.2
 " /> 
<path  
style="fill:rgb(14,103,171)" 
d="M -70.2 -103.6
Q -70.7,-103.4,-70.7,-101.4
Q -70.6,-101.4,-70.5,-101.4
Q -70.3,-101.5,-70.3,-102.5
Q -70.2,-103.1,-70.2,-103.6
 " /> 
<path  
style="fill:rgb(14,103,171)" 
d="M -70.7 -97.4
Q -71.1,-97.2,-71.1,-94.7
Q -71.1,-94.5,-71.1,-94.2
Q -71.0,-94.3,-70.9,-94.3
Q -70.7,-94.4,-70.7,-95.9
Q -70.7,-96.6,-70.7,-97.4
 " /> 
<path  
style="fill:rgb(97,247,248)" 
d="M -71.1 -94.7
Q -71.5,-94.2,-71.8,-93.7
Q -71.3,-93.3,-70.7,-92.9
Q -70.9,-93.6,-71.1,-94.2
Q -71.1,-94.5,-71.1,-94.7
 " /> 
<path  
style="fill:rgb(97,247,248)" 
d="M -71.1 -94.7
Q -71.9,-95.4,-72.8,-96.1
Q -80.1,-102.0,-83.6,-113.4
Q -84.9,-117.6,-84.8,-114.8
Q -84.6,-108.7,-77.4,-99.2
Q -75.1,-96.1,-71.8,-93.7
Q -71.5,-94.2,-71.1,-94.7
 " /> 
<path  
style="fill:rgb(97,247,248)" 
d="M -70.7 -92.9
Q -70.6,-93.2,-70.6,-93.4
Q -70.5,-93.9,-71.1,-94.2
Q -70.9,-93.6,-70.7,-92.9
 " /> 
<path  
style="fill:rgb(14,103,171)" 
d="M -70.7 -92.5
Q -70.8,-92.1,-70.9,-91.8
Q -71.1,-91.1,-70.7,-89.4
Q -70.7,-90.9,-70.7,-92.5
 " /> 
<path  
style="fill:rgb(14,103,171)" 
d="M -70.7 -86.7
Q -70.7,-86.0,-70.7,-85.3
Q -70.5,-84.7,-70.2,-84.0
Q -70.2,-86.4,-70.3,-86.6
Q -70.3,-86.8,-70.7,-86.7
 " /> 
<path  
style="fill:rgb(14,103,171)" 
d="M -70.2 -84.0
Q -70.5,-84.7,-70.7,-85.3
Q -70.7,-85.3,-70.7,-85.3
Q -70.7,-83.9,-70.2,-84.0
 " /> 
<path  
style="fill:rgb(97,247,248)" 
d="M -69.3 -77.8
Q -70.8,-78.5,-72.3,-79.2
Q -81.3,-83.6,-87.8,-95.1
Q -89.6,-98.2,-90.2,-98.2
Q -90.9,-98.2,-88.6,-94.1
Q -85.0,-87.7,-79.2,-82.5
Q -72.8,-76.9,-69.3,-76.9
Q -69.3,-77.4,-69.3,-77.8
 " /> 
<path  
style="fill:rgb(97,247,248)" 
d="M -60.4 -48.9
Q -62.0,-49.2,-63.6,-49.5
Q -71.6,-50.9,-84.6,-60.4
Q -88.6,-63.3,-90.6,-65.2
Q -92.6,-67.2,-92.8,-66.7
Q -93.2,-65.4,-86.9,-60.5
Q -71.7,-48.8,-61.8,-47.8
Q -60.7,-47.7,-59.6,-47.6
Q -60.0,-48.2,-60.4,-48.9
 " /> 
<path  
style="fill:rgb(4,4,4)" 
d="M 73.8 -51.6
Q 75.6,-52.5,78.5,-53.4
Q 84.3,-55.2,89.9,-58.5
Q 93.6,-60.7,92.8,-59.4
Q 90.6,-55.9,78.7,-52.3
Q 75.2,-51.2,73.8,-51.1
Q 73.0,-49.6,72.2,-48.0
Q 70.7,-44.9,66.1,-38.1
Q 67.0,-38.3,67.8,-38.4
Q 69.5,-38.8,71.8,-39.4
Q 89.8,-44.9,100.2,-53.1
Q 102.1,-54.6,104.0,-56.0
Q 104.3,-56.5,104.7,-56.9
Q 105.4,-57.8,106.2,-58.5
Q 106.7,-58.8,107.1,-59.1
Q 112.4,-66.6,110.3,-66.2
Q 108.3,-65.9,104.2,-63.4
Q 101.6,-61.8,100.3,-61.9
Q 96.1,-62.4,104.3,-73.1
Q 112.1,-83.3,115.4,-89.3
Q 116.6,-91.6,117.8,-93.8
Q 118.0,-94.2,118.2,-94.7
Q 118.7,-95.6,119.6,-96.5
Q 125.2,-113.5,123.4,-116.6
Q 123.0,-117.2,122.1,-116.5
Q 119.9,-114.8,112.9,-105.4
Q 112.7,-105.0,112.4,-104.7
Q 112.0,-104.1,111.3,-103.6
Q 111.0,-103.4,110.7,-103.1
Q 110.2,-103.5,109.8,-103.8
Q 108.8,-104.6,112.2,-114.5
Q 117.9,-130.6,118.6,-136.3
Q 119.1,-139.6,119.6,-144.9
Q 119.6,-146.9,119.6,-148.9
Q 119.4,-150.0,119.3,-151.1
Q 118.9,-155.9,116.6,-156.3
Q 113.7,-156.9,107.3,-140.1
Q 102.0,-126.3,99.2,-134.0
Q 98.3,-136.3,97.1,-140.5
Q 93.7,-153.5,91.0,-158.1
Q 90.1,-159.5,89.3,-160.9
Q 89.0,-161.1,88.7,-161.4
Q 88.0,-161.8,87.1,-163.1
Q 83.8,-163.1,83.3,-157.1
Q 83.2,-155.7,83.1,-154.2
Q 83.1,-150.8,83.1,-150.3
Q 83.0,-149.9,82.7,-149.8
Q 81.5,-141.4,77.3,-143.4
Q 76.6,-143.7,76.0,-144.0
Q 73.8,-145.8,72.0,-148.0
Q 71.6,-148.5,71.1,-148.9
Q 71.6,-147.1,71.8,-145.8
Q 71.9,-145.1,72.0,-144.5
Q 72.1,-144.0,72.2,-143.6
Q 72.5,-142.7,72.0,-140.9
Q 71.8,-140.6,71.6,-140.2
Q 70.0,-138.0,62.4,-144.6
Q 61.7,-145.2,61.0,-145.8
Q 61.3,-144.8,61.7,-143.7
Q 62.9,-140.0,57.9,-138.4
Q 57.3,-138.2,59.4,-136.5
Q 71.8,-126.8,76.5,-106.5
Q 76.9,-104.6,77.3,-102.7
Q 81.3,-107.6,82.7,-109.6
Q 88.5,-118.4,88.4,-139.0
Q 88.4,-142.2,88.7,-142.2
Q 88.9,-142.2,88.9,-133.7
Q 89.0,-112.0,79.2,-103.8
Q 78.3,-103.0,77.3,-102.2
Q 77.4,-101.5,77.6,-100.7
Q 77.8,-99.1,78.2,-94.2
Q 78.3,-94.3,78.5,-94.3
Q 78.7,-94.4,78.7,-91.1
Q 78.7,-90.2,78.7,-89.4
Q 78.8,-89.4,78.9,-89.4
Q 79.1,-89.5,79.1,-87.4
Q 79.1,-86.4,79.1,-85.4
Q 80.6,-86.4,82.0,-87.4
Q 84.9,-89.4,87.5,-92.2
Q 102.9,-108.9,109.0,-124.6
Q 111.3,-130.6,111.5,-129.1
Q 111.7,-127.0,107.1,-117.8
Q 96.5,-96.6,81.8,-86.0
Q 80.5,-85.0,79.1,-84.0
Q 79.1,-78.7,79.1,-73.4
Q 79.1,-71.3,78.7,-71.1
Q 78.7,-70.9,78.7,-70.7
Q 80.0,-71.0,81.3,-71.4
Q 94.5,-74.6,103.6,-88.6
Q 105.6,-91.6,106.1,-91.6
Q 106.7,-91.6,106.5,-91.2
Q 99.7,-78.5,87.9,-72.7
Q 84.5,-71.0,78.7,-69.4
Q 78.3,-67.2,78.0,-65.1
Q 76.8,-57.7,74.7,-53.4
Q 74.2,-52.5,73.8,-51.6
 " /> 
<path  
style="fill:rgb(97,247,248)" 
d="M 74.0 -123.0
Q 73.7,-121.8,74.1,-121.8
Q 75.3,-121.8,76.0,-127.0
Q 76.8,-133.7,75.4,-133.2
Q 75.0,-133.1,75.1,-130.4
Q 75.2,-127.8,74.7,-126.0
Q 74.3,-124.2,74.0,-123.0
 " /> 
<path  
style="fill:rgb(97,247,248)" 
d="M 66.2 -133.0
Q 66.2,-132.0,66.6,-132.0
Q 67.0,-132.0,67.3,-132.8
Q 68.5,-137.2,67.5,-136.8
Q 66.2,-136.3,66.2,-133.0
 " /> 
<path  
style="fill:rgb(97,247,248)" 
d="M 73.8 -51.6
Q 73.8,-51.4,73.8,-51.1
Q 75.2,-51.2,78.7,-52.3
Q 90.6,-55.9,92.8,-59.4
Q 93.6,-60.7,89.9,-58.5
Q 84.3,-55.2,78.5,-53.4
Q 75.6,-52.5,73.8,-51.6
 " /> 
<path  
style="fill:rgb(97,247,248)" 
d="M 78.7 -69.4
Q 84.5,-71.0,87.9,-72.7
Q 99.7,-78.5,106.5,-91.2
Q 106.7,-91.6,106.1,-91.6
Q 105.6,-91.6,103.6,-88.6
Q 94.5,-74.6,81.3,-71.4
Q 80.0,-71.0,78.7,-70.7
Q 78.7,-70.0,78.7,-69.4
 " /> 
<path  
style="fill:rgb(14,103,171)" 
d="M 78.7 -71.1
Q 79.1,-71.3,79.1,-73.4
Q 78.7,-73.2,78.7,-72.2
Q 78.7,-71.7,78.7,-71.1
 " /> 
<path  
style="fill:rgb(14,103,171)" 
d="M 79.1 -84.0
Q 79.1,-84.7,79.1,-85.4
Q 78.9,-85.3,78.7,-85.3
Q 78.8,-83.9,78.9,-84.0
Q 79.0,-84.0,79.1,-84.0
 " /> 
<path  
style="fill:rgb(97,247,248)" 
d="M 79.1 -84.0
Q 80.5,-85.0,81.8,-86.0
Q 96.5,-96.6,107.1,-117.8
Q 111.7,-127.0,111.5,-129.1
Q 111.3,-130.6,109.0,-124.6
Q 102.9,-108.9,87.5,-92.2
Q 84.9,-89.4,82.0,-87.4
Q 80.6,-86.4,79.1,-85.4
Q 79.1,-84.7,79.1,-84.0
 " /> 
<path  
style="fill:rgb(14,103,171)" 
d="M 79.1 -85.4
Q 79.1,-86.4,79.1,-87.4
Q 79.1,-89.5,78.9,-89.4
Q 78.8,-89.4,78.7,-89.4
Q 78.7,-86.7,78.7,-85.3
Q 78.9,-85.3,79.1,-85.4
 " /> 
<path  
style="fill:rgb(14,103,171)" 
d="M 78.7 -91.1
Q 78.7,-94.4,78.5,-94.3
Q 78.3,-94.3,78.2,-94.2
Q 78.2,-91.5,78.3,-91.3
Q 78.3,-91.0,78.7,-91.1
 " /> 
<path  
style="fill:rgb(97,247,248)" 
d="M 77.3 -102.2
Q 78.3,-103.0,79.2,-103.8
Q 89.0,-112.0,88.9,-133.7
Q 88.9,-142.2,88.7,-142.2
Q 88.4,-142.2,88.4,-139.0
Q 88.5,-118.4,82.7,-109.6
Q 81.3,-107.6,77.3,-102.7
Q 77.3,-102.5,77.3,-102.2
 " /> 
<path  
style="fill:rgb(14,103,171)" 
d="M 72.0 -140.9
Q 72.5,-142.7,72.2,-143.6
Q 72.1,-144.0,72.0,-144.5
Q 72.0,-142.7,72.0,-140.9
 " /> 
<path  
style="fill:rgb(14,103,171)" 
d="M 72.0 -148.0
Q 73.8,-145.8,76.0,-144.0
Q 75.5,-144.6,75.1,-145.1
Q 74.2,-146.2,73.1,-147.1
Q 72.5,-147.6,72.0,-148.0
 " /> 
<path  
style="fill:rgb(14,103,171)" 
d="M 82.7 -149.8
Q 83.0,-149.9,83.1,-150.3
Q 83.1,-150.8,83.1,-154.2
Q 83.0,-154.2,82.9,-154.2
Q 82.7,-154.1,82.7,-149.8
 " /> 
<path  
style="fill:rgb(14,103,171)" 
d="M 87.1 -163.1
Q 88.0,-161.8,88.7,-161.4
Q 89.0,-161.1,89.3,-160.9
Q 88.4,-162.2,87.1,-163.1
 " /> 
<path  
style="fill:rgb(14,103,171)" 
d="M 119.6 -148.9
Q 119.6,-146.9,119.6,-144.9
Q 119.7,-145.5,119.8,-146.0
Q 120.0,-147.1,119.8,-148.0
Q 119.7,-148.5,119.6,-148.9
 " /> 
<path  
style="fill:rgb(14,103,171)" 
d="M 110.7 -103.1
Q 111.0,-103.4,111.3,-103.6
Q 112.0,-104.1,112.4,-104.7
Q 112.7,-105.0,112.9,-105.4
Q 111.6,-104.4,111.1,-103.8
Q 110.9,-103.5,110.7,-103.1
 " /> 
<path  
style="fill:rgb(14,103,171)" 
d="M 119.6 -96.5
Q 118.7,-95.6,118.2,-94.7
Q 118.0,-94.2,117.8,-93.8
Q 118.0,-94.0,118.2,-94.2
Q 118.7,-94.7,119.1,-95.6
Q 119.3,-96.0,119.6,-96.5
 " /> 
<path  
style="fill:rgb(14,103,171)" 
d="M 107.1 -59.1
Q 106.7,-58.8,106.2,-58.5
Q 105.4,-57.8,104.7,-56.9
Q 104.3,-56.5,104.0,-56.0
Q 105.8,-57.4,107.1,-59.1
 " /> 
<path  
style="fill:rgb(14,103,171)" 
d="M -15.1 -164.0
Q -14.4,-163.3,-13.8,-162.5
Q -12.4,-160.9,-11.1,-159.8
Q -10.4,-159.3,-9.8,-158.7
Q -12.0,-161.3,-15.1,-164.0
 " /> 
<path  
style="fill:rgb(7,193,201)" 
d="M -15.1 -164.0
Q -12.0,-161.3,-9.8,-158.7
Q -7.1,-155.1,-5.7,-152.9
Q -4.4,-150.7,-2.1,-150.7
Q 0.2,-150.7,2.3,-150.5
Q 4.5,-150.3,8.0,-155.1
Q 8.2,-155.4,8.3,-155.6
Q 8.7,-156.1,9.4,-156.7
Q 9.8,-157.0,10.2,-157.4
Q 11.6,-158.7,12.7,-159.8
Q 15.3,-162.3,16.6,-163.3
Q 19.1,-165.3,21.9,-172.5
Q 27.6,-187.3,27.0,-191.5
Q 26.9,-192.1,26.8,-192.7
Q 26.0,-191.4,25.2,-190.2
Q 22.5,-186.1,19.7,-179.4
Q 16.6,-172.0,16.0,-172.0
Q 14.4,-172.0,18.3,-180.8
Q 19.1,-182.7,18.6,-184.1
Q 16.9,-189.1,13.4,-188.2
Q 12.3,-187.9,9.4,-178.3
Q 8.7,-176.0,8.0,-176.2
Q 7.0,-176.5,8.9,-182.9
Q 10.3,-187.3,9.7,-187.6
Q 8.2,-188.6,10.0,-189.3
Q 12.1,-190.1,13.4,-205.1
Q 12.1,-203.8,11.3,-201.1
Q 10.6,-198.5,10.0,-196.5
Q 9.4,-194.5,8.5,-189.9
Q 7.7,-186.1,7.5,-185.7
Q 7.3,-185.4,6.2,-185.4
Q 6.1,-185.7,6.0,-186.0
Q 5.7,-186.7,6.0,-187.1
Q 6.1,-187.4,6.2,-187.6
Q 6.6,-189.5,6.9,-191.4
Q 7.8,-196.6,4.9,-203.1
Q 4.4,-203.5,4.0,-203.8
Q 3.1,-204.5,2.7,-205.1
Q 2.4,-205.5,2.2,-205.8
Q 2.1,-205.8,2.0,-205.7
Q 1.8,-205.6,1.8,-204.2
Q 1.8,-203.4,1.8,-202.7
Q 1.9,-202.7,2.0,-202.8
Q 2.3,-202.8,2.2,-200.5
Q 2.2,-197.1,2.2,-193.8
Q 2.3,-193.8,2.5,-193.9
Q 2.6,-193.9,2.7,-193.7
Q 2.7,-193.4,2.7,-187.6
Q 2.7,-186.0,2.7,-184.5
Q 0.9,-182.7,0.9,-186.7
Q 0.9,-188.8,0.9,-190.9
Q 0.9,-192.3,0.8,-193.8
Q 0.7,-196.7,0.4,-200.0
Q 0.3,-200.0,0.2,-199.9
Q 0.1,-199.9,0.0,-200.2
Q -0.0,-200.4,0.0,-202.7
Q -0.9,-210.7,-1.8,-215.5
Q -4.1,-227.2,-6.0,-221.7
Q -6.6,-220.1,-6.7,-216.0
Q -6.7,-210.9,-6.7,-205.8
Q -6.7,-204.0,-6.7,-202.2
Q -6.5,-202.3,-6.4,-202.3
Q -6.3,-202.4,-6.2,-202.1
Q -6.2,-201.9,-6.2,-199.1
Q -6.2,-198.2,-6.2,-197.4
Q -6.1,-197.4,-6.0,-197.4
Q -5.7,-197.5,-5.8,-194.2
Q -5.8,-193.4,-5.8,-192.5
Q -5.6,-192.5,-5.5,-192.6
Q -5.3,-192.6,-5.3,-190.8
Q -5.3,-189.8,-5.3,-188.9
Q -5.3,-188.3,-5.2,-187.6
Q -5.1,-186.3,-6.2,-185.8
Q -6.5,-185.9,-6.7,-186.0
Q -7.2,-186.2,-7.2,-187.5
Q -7.1,-188.2,-7.1,-188.9
Q -7.1,-189.8,-7.1,-190.7
Q -7.6,-190.5,-7.6,-191.9
Q -7.6,-191.9,-7.6,-191.9
Q -7.6,-192.7,-7.6,-193.4
Q -8.0,-195.6,-8.0,-199.6
Q -8.1,-199.5,-8.3,-199.5
Q -8.5,-199.4,-8.5,-201.3
Q -8.5,-202.2,-8.4,-203.1
Q -8.6,-203.7,-8.7,-204.2
Q -8.9,-205.4,-10.0,-204.2
Q -12.8,-201.0,-9.8,-190.9
Q -8.2,-185.7,-8.6,-185.1
Q -9.5,-183.8,-10.7,-187.8
Q -12.6,-194.1,-16.6,-204.7
Q -16.6,-204.3,-16.7,-204.0
Q -17.4,-201.2,-11.6,-178.8
Q -10.4,-173.8,-10.7,-173.3
Q -11.6,-171.8,-12.4,-175.2
Q -16.7,-191.7,-17.1,-192.0
Q -17.7,-192.4,-20.0,-190.8
Q -21.3,-189.8,-21.3,-188.5
Q -21.3,-186.4,-13.0,-173.5
Q -10.4,-169.4,-12.0,-169.4
Q -12.4,-169.4,-15.7,-174.4
Q -21.8,-183.8,-24.9,-189.3
Q -27.7,-194.2,-31.6,-200.0
Q -31.6,-198.2,-31.6,-196.5
Q -29.6,-183.1,-27.3,-176.3
Q -24.7,-168.8,-22.8,-168.2
Q -18.9,-166.9,-16.6,-165.2
Q -15.9,-164.6,-15.1,-164.0
 " /> 
<path  
style="fill:rgb(14,103,171)" 
d="M -31.6 -196.5
Q -31.6,-198.2,-31.6,-200.0
Q -31.7,-199.6,-31.8,-199.1
Q -32.0,-198.2,-31.6,-196.5
 " /> 
<path  
style="fill:rgb(14,103,171)" 
d="M -8.4 -203.1
Q -8.5,-202.2,-8.5,-201.3
Q -8.5,-199.4,-8.3,-199.5
Q -8.1,-199.5,-8.0,-199.6
Q -8.0,-201.3,-8.0,-202.2
Q -8.0,-203.0,-8.1,-203.1
Q -8.1,-203.3,-8.4,-203.1
 " /> 
<path  
style="fill:rgb(4,4,4)" 
d="M -8.0 -199.6
Q -7.3,-199.6,-6.6,-199.6
Q -6.7,-200.4,-6.7,-202.2
Q -7.3,-202.2,-8.0,-202.2
Q -8.0,-201.3,-8.0,-199.6
 " /> 
<path  
style="fill:rgb(4,4,4)" 
d="M -8.0 -199.6
Q -8.0,-195.6,-7.6,-193.4
Q -7.3,-193.5,-7.2,-193.4
Q -6.5,-193.8,-5.8,-194.2
Q -6.2,-194.0,-6.2,-195.7
Q -6.2,-196.5,-6.2,-197.4
Q -6.2,-198.2,-6.2,-199.1
Q -6.6,-199.0,-6.6,-199.2
Q -6.6,-199.3,-6.6,-199.6
Q -7.3,-199.6,-8.0,-199.6
 " /> 
<path  
style="fill:rgb(14,103,171)" 
d="M -7.6 -193.4
Q -7.6,-192.7,-7.6,-191.9
Q -7.3,-191.3,-7.1,-190.7
Q -7.1,-191.8,-7.1,-192.4
Q -7.1,-193.2,-7.2,-193.3
Q -7.2,-193.3,-7.2,-193.4
Q -7.3,-193.5,-7.6,-193.4
 " /> 
<path  
style="fill:rgb(4,4,4)" 
d="M -7.1 -190.7
Q -6.4,-190.7,-5.8,-190.7
Q -5.8,-191.4,-5.8,-192.5
Q -6.4,-192.5,-7.1,-192.4
Q -7.1,-191.8,-7.1,-190.7
 " /> 
<path  
style="fill:rgb(4,4,4)" 
d="M -7.1 -190.7
Q -7.1,-189.8,-7.1,-188.9
Q -6.4,-189.0,-5.7,-189.0
Q -5.8,-189.4,-5.8,-190.8
Q -6.4,-190.7,-7.1,-190.7
 " /> 
<path  
style="fill:rgb(14,103,171)" 
d="M -7.1 -190.7
Q -7.3,-191.3,-7.6,-191.9
Q -7.6,-191.9,-7.6,-191.9
Q -7.6,-190.5,-7.1,-190.7
 " /> 
<path  
style="fill:rgb(4,4,4)" 
d="M -7.1 -188.9
Q -7.0,-188.6,-6.9,-188.2
Q -6.7,-187.6,-6.5,-186.7
Q -6.3,-186.2,-6.2,-185.8
Q -5.1,-186.3,-5.2,-187.6
Q -5.3,-188.3,-5.3,-188.9
Q -5.7,-188.7,-5.7,-189.0
Q -5.7,-189.0,-5.7,-189.0
Q -6.4,-189.0,-7.1,-188.9
 " /> 
<path  
style="fill:rgb(14,103,171)" 
d="M -7.1 -188.9
Q -7.1,-188.2,-7.2,-187.5
Q -7.2,-186.2,-6.7,-186.0
Q -6.5,-185.9,-6.2,-185.8
Q -6.3,-186.2,-6.5,-186.7
Q -6.7,-187.6,-6.9,-188.2
Q -7.0,-188.6,-7.1,-188.9
 " /> 
<path  
style="fill:rgb(14,103,171)" 
d="M -5.3 -188.9
Q -5.3,-189.8,-5.3,-190.8
Q -5.3,-192.6,-5.5,-192.6
Q -5.6,-192.5,-5.8,-192.5
Q -5.8,-191.4,-5.8,-190.7
Q -5.8,-189.3,-5.7,-189.0
Q -5.7,-189.0,-5.7,-189.0
Q -5.7,-188.7,-5.3,-188.9
 " /> 
<path  
style="fill:rgb(4,4,4)" 
d="M -5.8 -192.5
Q -5.8,-193.4,-5.8,-194.2
Q -6.5,-193.8,-7.2,-193.4
Q -7.2,-193.3,-7.2,-193.3
Q -7.1,-193.2,-7.1,-192.4
Q -6.4,-192.5,-5.8,-192.5
 " /> 
<path  
style="fill:rgb(14,103,171)" 
d="M -5.8 -194.2
Q -5.7,-197.5,-6.0,-197.4
Q -6.1,-197.4,-6.2,-197.4
Q -6.2,-196.5,-6.2,-195.7
Q -6.2,-194.0,-5.8,-194.2
 " /> 
<path  
style="fill:rgb(14,103,171)" 
d="M -6.2 -199.1
Q -6.2,-201.9,-6.2,-202.1
Q -6.3,-202.4,-6.4,-202.3
Q -6.5,-202.3,-6.7,-202.2
Q -6.7,-200.4,-6.6,-199.6
Q -6.6,-199.3,-6.6,-199.2
Q -6.6,-199.0,-6.2,-199.1
 " /> 
<path  
style="fill:rgb(14,103,171)" 
d="M -6.7 -205.8
Q -6.7,-210.9,-6.7,-216.0
Q -7.1,-210.7,-6.7,-205.8
 " /> 
<path  
style="fill:rgb(14,103,171)" 
d="M 0.0 -202.7
Q -0.0,-200.4,0.0,-200.2
Q 0.1,-199.9,0.2,-199.9
Q 0.3,-200.0,0.4,-200.0
Q 0.4,-202.1,0.4,-202.5
Q 0.4,-202.6,0.4,-202.6
Q 0.3,-202.9,0.0,-202.7
 " /> 
<path  
style="fill:rgb(4,4,4)" 
d="M 0.4 -200.0
Q 1.1,-200.3,1.8,-200.5
Q 1.8,-200.5,1.8,-200.5
Q 1.8,-200.8,1.8,-202.7
Q 1.1,-202.6,0.4,-202.5
Q 0.4,-202.1,0.4,-200.0
 " /> 
<path  
style="fill:rgb(4,4,4)" 
d="M 0.4 -200.0
Q 0.7,-196.7,0.8,-193.8
Q 1.5,-193.8,2.2,-193.8
Q 2.2,-197.1,2.2,-200.5
Q 1.9,-200.3,1.8,-200.5
Q 1.1,-200.3,0.4,-200.0
 " /> 
<path  
style="fill:rgb(4,4,4)" 
d="M 0.9 -186.7
Q 1.6,-187.1,2.3,-187.6
Q 2.3,-187.6,2.3,-187.7
Q 2.2,-187.9,2.2,-193.8
Q 1.5,-193.8,0.8,-193.8
Q 0.9,-192.3,0.9,-190.9
Q 0.9,-188.8,0.9,-186.7
 " /> 
<path  
style="fill:rgb(4,4,4)" 
d="M 2.7 -184.5
Q 2.3,-184.3,1.9,-184.1
Q 1.2,-183.7,0.9,-186.7
Q 2.7,-186.0,2.7,-187.6
Q 2.4,-187.4,2.3,-187.6
Q 1.6,-187.1,0.9,-186.7
 " /> 
<path  
style="fill:rgb(255,255,255)" 
d="M 0.9 -186.7
Q 0.9,-182.7,2.7,-184.5
Q 1.2,-183.7,1.9,-184.1
Q 2.3,-184.3,2.7,-184.5
 " /> 
<path  
style="fill:rgb(14,103,171)" 
d="M 2.7 -187.6
Q 2.7,-193.4,2.7,-193.7
Q 2.6,-193.9,2.5,-193.9
Q 2.3,-193.8,2.2,-193.8
Q 2.2,-187.9,2.3,-187.7
Q 2.3,-187.6,2.3,-187.6
Q 2.4,-187.4,2.7,-187.6
 " /> 
<path  
style="fill:rgb(14,103,171)" 
d="M 2.2 -200.5
Q 2.3,-202.8,2.0,-202.8
Q 1.9,-202.7,1.8,-202.7
Q 1.8,-200.8,1.8,-200.5
Q 1.8,-200.5,1.8,-200.5
Q 1.9,-200.3,2.2,-200.5
 " /> 
<path  
style="fill:rgb(14,103,171)" 
d="M 2.2 -205.8
Q 2.4,-205.5,2.7,-205.1
Q 3.1,-204.5,4.0,-203.8
Q 4.4,-203.5,4.9,-203.1
Q 3.5,-204.9,2.2,-205.8
 " /> 
<path  
style="fill:rgb(14,103,171)" 
d="M 6.2 -187.6
Q 6.1,-187.4,6.0,-187.1
Q 5.7,-186.7,6.0,-186.0
Q 6.1,-185.7,6.2,-185.4
Q 6.2,-186.5,6.2,-187.6
 " /> 
<path  
style="fill:rgb(14,103,171)" 
d="M 10.2 -157.4
Q 9.8,-157.0,9.4,-156.7
Q 8.7,-156.1,8.3,-155.6
Q 8.2,-155.4,8.0,-155.1
Q 8.6,-155.6,9.2,-156.2
Q 9.7,-156.7,10.2,-157.4
 " /> 
</g> 
</svg> 
