<?xml version="1.0"?>
<!DOCTYPE svg PUBLIC "-//W3C//DTD SVG 1.1//EN" "http://www.w3.org/Graphics/SVG/1.1/DTD/svg11.dtd">
<svg xmlns="http://www.w3.org/2000/svg" version="1.1">
<g transform="translate(114.3,212.9)" stroke-width="0" fill="none" >
<path  
style="fill:rgb(4,4,4)" 
d="M -42.5 221.1
Q -41.1,222.3,-34.7,221.0
Q -27.9,219.7,-21.3,218.7
Q -14.3,217.7,1.1,213.0
Q 6.4,211.3,7.8,210.8
Q 9.1,210.2,10.9,209.5
Q 17.0,207.3,26.1,201.9
Q 40.3,193.6,43.1,187.5
Q 43.4,186.7,44.5,185.0
Q 53.8,170.3,44.1,143.9
Q 41.9,137.9,40.9,135.2
Q 39.9,132.6,39.6,131.6
Q 34.6,119.0,33.4,109.4
Q 33.0,106.3,32.3,103.9
Q 31.3,100.3,30.4,93.9
Q 29.7,94.0,28.9,94.1
Q 28.9,98.5,29.1,99.4
Q 29.2,99.9,29.3,100.3
Q 29.8,100.2,29.8,101.2
Q 29.9,102.8,30.1,104.4
Q 31.4,117.8,37.3,133.4
Q 42.3,146.6,44.7,154.7
Q 53.5,184.3,21.4,201.8
Q 18.9,203.1,17.1,204.1
Q 15.3,205.1,13.9,205.6
Q 12.5,206.0,11.0,206.7
Q 6.5,208.7,2.6,209.9
Q 2.1,210.0,1.6,210.2
Q 2.5,209.4,3.5,208.7
Q 20.6,195.0,22.3,154.6
Q 22.4,152.2,21.7,152.0
Q 21.0,151.8,20.7,155.5
Q 17.9,188.8,7.5,201.8
Q 0.1,211.1,-9.3,213.6
Q -15.2,215.2,-27.1,217.2
Q -31.8,218.1,-35.5,218.8
Q -35.8,218.8,-36.1,218.9
Q -40.0,219.6,-40.3,219.3
Q -40.6,219.0,-38.9,216.6
Q -34.4,209.7,-33.4,201.5
Q -33.0,198.1,-30.5,195.4
Q -25.2,189.7,-19.8,175.5
Q -11.8,154.7,-5.5,145.2
Q -3.1,141.6,-4.5,141.6
Q -5.1,141.6,-6.8,144.6
Q -8.6,147.6,-9.9,149.6
Q -14.8,157.2,-21.3,174.3
Q -27.4,190.3,-32.3,195.0
Q -33.3,196.0,-33.3,192.0
Q -33.3,188.5,-34.0,183.6
Q -35.2,175.2,-35.8,167.9
Q -38.0,143.5,-34.4,131.0
Q -31.3,120.3,-22.1,109.5
Q -19.8,106.8,-18.5,105.0
Q -17.2,103.2,-16.4,102.2
Q -15.6,101.3,-13.8,96.7
Q -13.6,96.1,-13.3,95.4
Q -13.3,95.2,-13.3,95.0
Q -13.3,94.6,-13.1,94.6
Q -13.0,94.6,-12.9,94.5
Q -12.4,93.1,-12.0,91.6
Q -11.1,88.7,-9.9,86.6
Q -8.6,84.5,-7.7,82.5
Q -6.8,80.5,-5.6,78.3
Q -1.4,70.0,-0.2,63.0
Q -0.1,62.3,0.0,61.6
Q -0.3,61.6,-0.7,61.6
Q -1.7,61.6,-2.6,65.4
Q -3.0,67.2,-3.9,69.4
Q -4.8,71.7,-6.0,74.8
Q -7.2,77.9,-8.4,79.4
Q -9.7,81.0,-11.0,83.7
Q -13.5,88.6,-14.2,87.5
Q -14.6,86.9,-14.4,77.1
Q -14.3,67.4,-14.9,67.4
Q -16.3,67.4,-15.9,86.4
Q -15.8,92.9,-21.6,95.5
Q -23.6,96.3,-28.0,96.3
Q -28.2,96.3,-28.4,96.3
Q -34.3,92.9,-36.4,86.6
Q -38.9,79.2,-30.4,70.0
Q -23.5,62.5,-24.4,61.9
Q -25.2,61.4,-34.3,72.3
Q -36.0,74.3,-36.9,76.1
Q -38.5,79.5,-37.8,72.8
Q -37.4,69.7,-36.7,67.0
Q -35.4,62.6,-33.1,59.0
Q -29.2,52.9,-27.3,52.5
Q -27.1,52.5,-26.8,52.4
Q -28.5,52.7,-25.8,49.5
Q -17.0,38.8,-15.8,22.1
Q -15.5,18.3,-14.6,15.0
Q -11.7,4.0,-10.1,3.6
Q -9.5,3.5,-4.9,3.9
Q 7.6,5.1,18.7,2.8
Q 22.9,1.9,23.6,2.2
Q 26.7,3.1,32.7,18.3
Q 35.8,26.3,43.2,39.3
Q 46.4,44.8,47.8,48.3
Q 49.3,51.9,51.1,58.1
Q 51.2,58.1,51.3,58.0
Q 51.6,58.0,51.6,59.4
Q 51.8,60.3,52.0,61.2
Q 52.5,63.0,52.7,65.4
Q 52.8,66.6,52.9,67.9
Q 52.9,68.3,52.9,68.8
Q 52.9,70.3,52.9,71.9
Q 52.9,71.8,52.8,71.8
Q 52.6,80.6,51.6,85.4
Q 51.5,85.1,51.4,84.8
Q 51.2,84.1,50.3,79.0
Q 47.7,64.5,45.7,64.6
Q 44.9,64.6,46.4,69.9
Q 47.5,73.4,48.4,78.1
Q 49.4,82.8,50.1,85.7
Q 51.3,90.5,46.5,94.0
Q 43.2,96.4,39.9,95.5
Q 38.9,95.2,38.4,93.4
Q 36.4,86.6,36.5,76.0
Q 36.6,67.9,36.3,67.6
Q 35.3,66.6,35.4,76.5
Q 35.5,85.0,36.2,88.8
Q 36.9,92.5,37.4,95.0
Q 32.9,92.3,31.8,90.8
Q 31.2,90.0,30.7,89.2
Q 30.2,87.9,30.0,87.4
Q 29.9,87.2,29.8,87.0
Q 29.3,86.2,28.9,85.4
Q 28.0,83.9,27.3,81.2
Q 26.7,78.5,25.3,66.5
Q 25.3,66.1,25.3,65.6
Q 25.2,64.2,25.1,62.8
Q 24.5,53.9,26.0,50.9
Q 28.2,46.6,28.9,42.3
Q 29.1,40.9,29.3,39.4
Q 28.9,37.2,29.3,34.5
Q 27.4,22.0,26.4,18.9
Q 25.7,16.7,25.8,14.5
Q 25.9,12.2,25.3,12.2
Q 24.7,12.2,24.4,15.9
Q 23.9,20.3,22.4,29.1
Q 22.1,30.5,23.0,30.5
Q 23.9,30.5,24.4,28.0
Q 24.9,25.4,25.4,24.2
Q 25.6,23.6,25.8,23.0
Q 26.4,27.6,27.1,32.3
Q 27.2,32.3,27.3,32.3
Q 27.6,32.2,27.6,34.5
Q 27.4,36.5,27.3,38.5
Q 26.8,46.7,23.8,52.1
Q 22.7,54.1,22.9,57.6
Q 23.0,59.4,23.1,61.2
Q 23.2,61.5,23.3,61.9
Q 23.6,62.5,23.1,64.3
Q 23.3,66.1,23.6,67.9
Q 24.0,71.4,24.4,75.5
Q 24.9,79.6,25.8,82.6
Q 26.7,85.6,28.4,90.1
Q 28.8,90.0,28.8,90.3
Q 28.9,90.6,28.9,94.1
Q 29.7,94.0,30.4,93.9
Q 30.3,93.3,30.3,92.7
Q 31.1,93.4,31.8,94.1
Q 35.6,97.4,40.9,97.9
Q 49.6,98.9,53.3,87.6
Q 60.9,64.5,43.4,34.8
Q 38.4,26.4,34.2,16.4
Q 31.9,10.9,32.1,10.7
Q 32.3,10.5,32.9,11.7
Q 34.1,14.3,36.2,13.9
Q 39.5,13.2,40.8,6.5
Q 41.9,1.0,41.4,-1.6
Q 40.8,-4.9,45.6,-8.0
Q 46.0,-8.3,46.6,-4.2
Q 47.7,4.3,51.6,4.3
Q 54.3,4.3,57.0,-3.7
Q 58.0,-6.4,58.4,-13.9
Q 58.5,-16.0,61.3,-18.9
Q 64.1,-21.8,65.3,-22.1
Q 70.6,-23.2,77.3,-25.7
Q 105.4,-36.1,112.1,-45.8
Q 114.9,-49.9,112.6,-50.8
Q 110.0,-51.8,104.4,-49.5
Q 100.4,-47.8,100.7,-48.5
Q 100.9,-49.0,108.8,-57.8
Q 122.6,-73.1,127.3,-90.9
Q 129.8,-100.4,126.6,-102.9
Q 124.2,-104.7,120.7,-100.3
Q 119.0,-98.2,117.8,-96.8
Q 116.6,-95.4,115.6,-94.1
Q 115.1,-93.4,114.7,-92.8
Q 118.1,-102.6,119.5,-106.3
Q 128.8,-131.0,123.8,-140.5
Q 118.5,-150.8,108.0,-125.5
Q 105.4,-119.4,104.6,-119.5
Q 104.0,-119.6,102.5,-126.4
Q 97.3,-149.6,90.8,-151.7
Q 85.5,-153.5,84.2,-138.8
Q 83.7,-132.9,82.1,-132.0
Q 80.6,-131.0,76.9,-136.0
Q 73.6,-140.3,72.2,-138.2
Q 71.5,-137.1,71.8,-135.8
Q 72.7,-131.3,72.8,-129.3
Q 72.9,-127.0,66.7,-133.0
Q 63.3,-136.3,61.9,-134.6
Q 61.6,-134.2,61.9,-129.8
Q 62.0,-128.1,59.2,-127.4
Q 55.0,-126.4,53.1,-130.9
Q 44.5,-152.2,25.6,-152.2
Q 22.0,-152.2,21.9,-152.3
Q 21.7,-152.5,25.3,-161.2
Q 31.5,-176.0,29.6,-179.6
Q 27.4,-183.8,20.7,-171.8
Q 20.4,-172.4,20.1,-173.0
Q 19.0,-175.1,16.6,-175.9
Q 16.3,-175.1,16.0,-174.3
Q 20.4,-170.6,18.7,-167.2
Q 15.1,-160.2,15.7,-158.6
Q 16.2,-157.2,18.6,-162.7
Q 23.6,-173.9,26.6,-177.0
Q 27.3,-177.8,28.1,-178.5
Q 27.2,-171.5,23.8,-163.0
Q 22.1,-159.0,21.3,-156.8
Q 19.5,-152.2,15.6,-149.0
Q 14.4,-148.1,13.3,-147.2
Q 12.0,-145.5,10.2,-144.1
Q 7.4,-140.9,6.1,-138.7
Q 4.9,-136.6,2.7,-136.8
Q 2.5,-136.8,2.4,-136.8
Q 2.3,-136.2,2.3,-135.6
Q 2.3,-135.5,2.3,-135.5
Q 2.3,-135.4,2.2,-135.2
Q 6.5,-135.6,7.4,-137.3
Q 12.6,-146.8,24.9,-150.3
Q 25.8,-150.9,27.1,-150.3
Q 28.0,-150.2,28.8,-150.1
Q 42.9,-147.8,50.0,-132.9
Q 51.5,-129.7,51.4,-129.6
Q 51.3,-129.4,49.5,-130.1
Q 45.6,-131.6,45.9,-129.9
Q 46.0,-129.0,50.3,-127.1
Q 73.5,-116.5,76.9,-86.2
Q 77.3,-82.3,77.8,-75.7
Q 78.1,-75.8,78.2,-75.5
Q 78.2,-75.3,78.2,-70.8
Q 78.2,-68.8,78.2,-66.8
Q 78.2,-65.7,78.2,-64.6
Q 78.2,-62.0,78.0,-62.0
Q 77.9,-61.9,77.8,-61.9
Q 76.2,-51.3,73.4,-43.7
Q 68.4,-30.3,60.6,-21.9
Q 58.1,-19.2,57.8,-19.6
Q 57.4,-19.9,56.7,-22.3
Q 54.8,-28.1,53.5,-28.1
Q 52.6,-28.1,54.7,-22.1
Q 57.1,-15.3,55.4,-6.7
Q 54.3,-1.1,52.2,1.4
Q 49.9,4.1,48.2,-6.1
Q 47.5,-10.6,46.8,-13.0
Q 46.2,-15.4,45.5,-18.2
Q 44.4,-22.5,43.5,-21.6
Q 43.0,-21.0,43.9,-16.9
Q 45.3,-11.2,45.0,-10.6
Q 43.7,-8.0,40.5,-6.9
Q 40.2,-6.8,39.4,-9.1
Q 36.6,-17.0,35.2,-17.0
Q 34.1,-17.0,36.3,-12.4
Q 41.8,-0.3,37.7,9.3
Q 35.2,15.1,32.4,3.6
Q 31.5,-0.3,30.9,-1.7
Q 30.3,-3.0,29.3,-5.9
Q 27.5,-11.4,26.6,-10.5
Q 26.3,-10.1,28.8,-2.1
Q 25.1,-1.5,21.4,-0.6
Q 17.8,0.3,15.1,0.8
Q 13.8,1.0,12.4,1.2
Q 11.5,1.7,10.9,1.5
Q 10.5,1.3,10.2,1.2
Q 8.3,1.7,6.6,1.7
Q 5.7,1.7,4.9,1.7
Q 4.3,1.8,3.8,1.9
Q 2.7,2.1,1.3,1.9
Q 0.7,1.8,0.0,1.7
Q -10.1,0.6,-16.8,-0.7
Q -14.1,-4.7,-13.5,-5.8
Q -12.9,-6.8,-13.8,-7.2
Q -14.0,-6.9,-14.2,-6.6
Q -14.7,-5.9,-16.0,-5.0
Q -20.9,0.2,-22.5,2.3
Q -30.9,13.6,-36.8,14.4
Q -41.0,15.0,-37.7,6.7
Q -35.0,0.2,-31.3,-5.0
Q -29.6,-7.4,-29.5,-8.1
Q -29.4,-8.8,-28.1,-11.8
Q -26.7,-14.7,-27.3,-15.2
Q -28.1,-15.9,-29.9,-12.0
Q -31.1,-9.5,-32.9,-10.4
Q -36.1,-12.0,-36.1,-12.9
Q -36.2,-13.4,-34.5,-15.7
Q -32.4,-18.5,-32.8,-18.9
Q -33.4,-19.5,-37.3,-14.4
Q -38.8,-12.4,-39.6,-11.2
Q -40.3,-10.1,-42.8,-6.6
Q -45.3,-3.2,-51.6,4.3
Q -51.0,4.9,-50.4,5.5
Q -48.8,3.9,-47.0,1.8
Q -43.4,-2.4,-41.4,-5.3
Q -38.6,-9.3,-37.8,-9.5
Q -35.9,-10.0,-32.9,-7.4
Q -32.1,-6.7,-34.3,-3.9
Q -35.5,-2.3,-37.2,0.8
Q -43.5,12.1,-40.2,15.8
Q -35.5,21.2,-20.5,3.8
Q -18.6,1.5,-13.4,3.2
Q -12.9,3.4,-13.7,5.8
Q -16.7,13.8,-18.2,25.2
Q -20.0,39.2,-31.9,53.9
Q -42.3,66.9,-39.5,83.0
Q -36.6,99.9,-25.2,98.9
Q -21.0,98.5,-14.5,92.6
Q -16.2,100.9,-23.2,107.9
Q -35.5,120.4,-38.0,138.5
Q -40.3,155.6,-36.8,179.2
Q -36.0,185.1,-35.9,195.4
Q -35.9,207.3,-40.7,214.9
Q -43.9,219.8,-42.5,221.1
 " /> 
<path  
style="fill:rgb(255,255,255)" 
d="M 30.5 7.6
Q 31.2,9.2,31.4,9.1
Q 31.6,8.9,30.6,4.9
Q 29.4,-0.5,26.0,0.9
Q 25.6,1.0,28.0,3.7
Q 29.9,5.9,30.5,7.6
 " /> 
<path  
style="fill:rgb(97,247,248)" 
d="M 73.8 -38.8
Q 73.7,-38.7,73.6,-38.6
Q 73.3,-38.3,73.3,-37.5
Q 73.6,-38.1,73.8,-38.8
 " /> 
<path  
style="fill:rgb(4,4,4)" 
d="M 73.8 -38.8
Q 75.1,-39.1,76.4,-39.5
Q 82.8,-41.0,88.8,-43.9
Q 92.1,-45.5,92.4,-45.2
Q 93.0,-44.6,88.2,-42.4
Q 82.5,-39.7,76.0,-38.1
Q 74.7,-37.8,73.3,-37.5
Q 72.3,-35.5,71.3,-33.5
Q 69.3,-29.5,67.5,-26.7
Q 66.6,-25.4,65.8,-24.1
Q 78.9,-27.7,90.1,-33.0
Q 104.7,-39.9,110.1,-46.8
Q 113.7,-51.3,105.1,-47.7
Q 96.5,-44.0,99.3,-49.9
Q 99.9,-51.3,105.3,-57.0
Q 105.8,-57.6,106.2,-58.1
Q 107.1,-59.2,108.9,-60.6
Q 110.4,-62.7,112.0,-64.8
Q 123.6,-80.6,125.8,-94.1
Q 126.0,-95.6,126.2,-97.0
Q 126.2,-98.3,126.2,-99.7
Q 126.2,-101.7,124.5,-101.0
Q 124.0,-100.8,123.6,-100.6
Q 122.6,-99.3,121.3,-98.3
Q 116.9,-92.1,115.1,-89.9
Q 111.7,-85.7,111.8,-89.5
Q 111.9,-91.2,118.7,-110.8
Q 125.0,-128.7,122.4,-137.9
Q 119.8,-147.0,111.5,-128.0
Q 110.1,-124.8,108.8,-121.7
Q 103.6,-110.1,100.6,-124.1
Q 96.5,-143.6,92.4,-147.7
Q 91.8,-148.3,91.1,-149.0
Q 90.7,-149.1,90.4,-149.2
Q 89.6,-149.4,88.9,-149.0
Q 88.5,-148.3,88.2,-147.7
Q 87.5,-146.4,87.1,-143.7
Q 87.1,-141.6,86.7,-141.5
Q 86.7,-140.6,86.7,-139.7
Q 86.7,-137.6,86.2,-137.5
Q 85.8,-133.5,84.8,-131.7
Q 83.0,-128.4,78.7,-130.8
Q 78.2,-131.1,77.8,-131.5
Q 76.9,-132.1,76.5,-132.8
Q 76.2,-133.1,76.0,-133.5
Q 75.3,-133.4,74.5,-133.3
Q 74.6,-132.2,74.7,-131.2
Q 75.1,-129.5,74.7,-128.1
Q 74.4,-127.7,74.2,-127.2
Q 73.0,-124.7,66.9,-129.9
Q 64.3,-132.1,64.2,-132.0
Q 64.0,-131.9,64.4,-130.1
Q 65.2,-126.7,60.8,-125.3
Q 60.0,-125.1,61.8,-123.5
Q 62.7,-122.7,63.6,-121.9
Q 64.0,-121.6,64.4,-121.2
Q 65.3,-120.5,65.8,-119.9
Q 66.0,-119.6,66.2,-119.2
Q 67.0,-118.3,67.8,-117.5
Q 69.3,-115.7,70.4,-113.7
Q 71.0,-112.7,71.6,-111.7
Q 72.5,-110.8,73.8,-108.1
Q 74.2,-107.0,74.7,-105.9
Q 77.1,-99.9,78.4,-92.6
Q 78.8,-90.8,79.1,-89.0
Q 85.3,-95.7,86.9,-98.7
Q 90.2,-105.3,91.3,-124.2
Q 91.6,-128.1,91.8,-128.1
Q 93.1,-128.1,91.6,-112.2
Q 90.1,-95.8,79.1,-88.6
Q 79.2,-88.1,79.3,-87.7
Q 79.5,-86.8,79.6,-83.7
Q 80.0,-83.8,80.0,-82.2
Q 80.0,-82.2,80.0,-82.2
Q 80.0,-81.4,80.0,-80.6
Q 80.0,-78.6,80.0,-76.6
Q 80.1,-76.6,80.2,-76.6
Q 80.5,-76.7,80.4,-73.9
Q 80.4,-72.6,80.4,-71.2
Q 88.1,-75.8,94.1,-82.6
Q 106.8,-97.3,111.3,-108.8
Q 113.5,-114.3,113.8,-114.6
Q 115.3,-115.5,113.2,-110.3
Q 106.3,-93.2,93.0,-79.8
Q 86.3,-73.0,82.3,-71.2
Q 81.4,-70.8,80.4,-70.3
Q 80.4,-69.5,80.4,-68.6
Q 80.4,-63.7,80.4,-63.3
Q 80.3,-62.9,80.0,-62.8
Q 80.0,-61.8,80.0,-60.8
Q 80.0,-58.8,79.6,-57.7
Q 79.3,-57.1,79.1,-56.6
Q 80.8,-57.0,82.4,-57.5
Q 98.3,-61.7,105.8,-73.1
Q 107.8,-76.1,108.4,-76.1
Q 109.1,-76.1,106.5,-72.1
Q 97.8,-58.8,79.1,-55.7
Q 78.8,-53.9,78.5,-52.1
Q 77.8,-48.6,75.8,-43.7
Q 74.8,-41.2,73.8,-38.8
 " /> 
<path  
style="fill:rgb(97,247,248)" 
d="M 76.2 -109.3
Q 75.9,-108.4,76.5,-108.7
Q 78.5,-109.4,78.3,-116.2
Q 78.2,-120.8,77.8,-119.3
Q 77.7,-119.0,77.5,-117.1
Q 77.0,-111.5,76.2,-109.3
 " /> 
<path  
style="fill:rgb(97,247,248)" 
d="M 68.6 -120.7
Q 68.4,-118.8,68.8,-118.8
Q 69.3,-118.8,69.5,-119.6
Q 70.7,-123.7,69.8,-123.7
Q 69.1,-123.7,68.6,-120.7
 " /> 
<path  
style="fill:rgb(97,247,248)" 
d="M 73.8 -38.8
Q 73.6,-38.1,73.3,-37.5
Q 74.7,-37.8,76.0,-38.1
Q 82.5,-39.7,88.2,-42.4
Q 93.0,-44.6,92.4,-45.2
Q 92.1,-45.5,88.8,-43.9
Q 82.8,-41.0,76.4,-39.5
Q 75.1,-39.1,73.8,-38.8
 " /> 
<path  
style="fill:rgb(97,247,248)" 
d="M 79.1 -55.7
Q 97.8,-58.8,106.5,-72.1
Q 109.1,-76.1,108.4,-76.1
Q 107.8,-76.1,105.8,-73.1
Q 98.3,-61.7,82.4,-57.5
Q 80.8,-57.0,79.1,-56.6
Q 79.1,-56.1,79.1,-55.7
 " /> 
<path  
style="fill:rgb(14,103,171)" 
d="M 80.0 -62.8
Q 80.3,-62.9,80.4,-63.3
Q 80.4,-63.7,80.4,-68.6
Q 80.3,-68.5,80.2,-68.5
Q 80.1,-68.5,80.1,-68.1
Q 80.0,-67.7,80.0,-62.8
 " /> 
<path  
style="fill:rgb(97,247,248)" 
d="M 80.4 -70.3
Q 81.4,-70.8,82.3,-71.2
Q 86.3,-73.0,93.0,-79.8
Q 106.3,-93.2,113.2,-110.3
Q 115.3,-115.5,113.8,-114.6
Q 113.5,-114.3,111.3,-108.8
Q 106.8,-97.3,94.1,-82.6
Q 88.1,-75.8,80.4,-71.2
Q 80.4,-70.8,80.4,-70.3
 " /> 
<path  
style="fill:rgb(14,103,171)" 
d="M 80.4 -73.9
Q 80.5,-76.7,80.2,-76.6
Q 80.1,-76.6,80.0,-76.6
Q 80.0,-73.8,80.2,-73.8
Q 80.3,-73.9,80.4,-73.9
 " /> 
<path  
style="fill:rgb(14,103,171)" 
d="M 80.0 -80.6
Q 80.0,-81.4,80.0,-82.2
Q 79.8,-82.9,79.6,-83.7
Q 79.6,-81.0,79.6,-80.7
Q 79.7,-80.5,80.0,-80.6
 " /> 
<path  
style="fill:rgb(14,103,171)" 
d="M 79.6 -83.7
Q 79.8,-82.9,80.0,-82.2
Q 80.0,-82.2,80.0,-82.2
Q 80.0,-83.8,79.6,-83.7
 " /> 
<path  
style="fill:rgb(97,247,248)" 
d="M 79.1 -88.6
Q 90.1,-95.8,91.6,-112.2
Q 93.1,-128.1,91.8,-128.1
Q 91.6,-128.1,91.3,-124.2
Q 90.2,-105.3,86.9,-98.7
Q 85.3,-95.7,79.1,-89.0
Q 79.1,-88.8,79.1,-88.6
 " /> 
<path  
style="fill:rgb(14,103,171)" 
d="M 73.8 -108.1
Q 72.5,-110.8,71.6,-111.7
Q 71.9,-111.0,72.2,-110.3
Q 72.9,-109.0,73.8,-108.1
 " /> 
<path  
style="fill:rgb(14,103,171)" 
d="M 66.2 -119.2
Q 66.0,-119.6,65.8,-119.9
Q 65.3,-120.5,64.4,-121.2
Q 64.0,-121.6,63.6,-121.9
Q 63.9,-121.5,64.2,-121.0
Q 64.9,-120.1,66.2,-119.2
 " /> 
<path  
style="fill:rgb(14,103,171)" 
d="M 74.7 -128.1
Q 75.1,-129.5,74.7,-131.2
Q 74.7,-129.7,74.7,-128.1
 " /> 
<path  
style="fill:rgb(14,103,171)" 
d="M 76.0 -133.5
Q 76.2,-133.1,76.5,-132.8
Q 76.9,-132.1,77.8,-131.5
Q 78.2,-131.1,78.7,-130.8
Q 78.3,-131.2,78.0,-131.7
Q 77.3,-132.5,76.0,-133.5
 " /> 
<path  
style="fill:rgb(7,193,201)" 
d="M 76.0 -133.5
Q 75.6,-133.9,75.2,-134.4
Q 74.8,-134.8,74.4,-135.3
Q 74.5,-134.3,74.5,-133.3
Q 74.5,-133.3,74.5,-133.3
Q 75.3,-133.4,76.0,-133.5
 " /> 
<path  
style="fill:rgb(14,103,171)" 
d="M 86.2 -137.5
Q 86.7,-137.6,86.7,-139.7
Q 86.3,-139.5,86.2,-138.5
Q 86.2,-138.0,86.2,-137.5
 " /> 
<path  
style="fill:rgb(14,103,171)" 
d="M 86.7 -141.5
Q 87.1,-141.6,87.1,-143.7
Q 87.0,-143.6,86.9,-143.6
Q 86.7,-143.5,86.7,-142.5
Q 86.7,-142.0,86.7,-141.5
 " /> 
<path  
style="fill:rgb(14,103,171)" 
d="M 88.9 -149.0
Q 89.6,-149.4,90.4,-149.2
Q 90.7,-149.1,91.1,-149.0
Q 90.9,-149.3,90.6,-149.6
Q 90.1,-150.2,89.5,-149.6
Q 89.2,-149.3,88.9,-149.0
 " /> 
<path  
style="fill:rgb(14,103,171)" 
d="M 121.3 -98.3
Q 122.6,-99.3,123.6,-100.6
Q 123.2,-100.3,122.9,-100.1
Q 122.2,-99.7,121.8,-99.0
Q 121.6,-98.7,121.3,-98.3
 " /> 
<path  
style="fill:rgb(14,103,171)" 
d="M 126.2 -99.7
Q 126.2,-98.3,126.2,-97.0
Q 126.7,-98.3,126.2,-99.7
 " /> 
<path  
style="fill:rgb(14,103,171)" 
d="M 108.9 -60.6
Q 107.1,-59.2,106.2,-58.1
Q 105.8,-57.6,105.3,-57.0
Q 107.5,-58.8,108.9,-60.6
 " /> 
<path  
style="fill:rgb(97,247,248)" 
d="M -12.4 96.8
Q -12.4,97.0,-12.4,97.2
Q -12.0,98.2,-11.6,99.2
Q -10.7,101.2,-9.9,103.5
Q -7.8,109.6,-3.8,103.8
Q -1.0,99.7,-0.2,100.3
Q 0.4,100.9,0.4,102.5
Q 1.1,102.8,1.0,104.0
Q 0.9,104.6,0.9,105.2
Q 1.0,105.2,1.1,105.2
Q 1.3,105.1,1.3,107.6
Q 1.3,108.9,1.3,110.1
Q 1.3,111.0,1.3,111.9
Q 1.3,112.6,1.4,113.4
Q 1.4,115.0,1.4,116.8
Q 1.3,117.6,1.3,118.5
Q 1.3,118.8,1.3,119.0
Q 2.4,121.6,4.5,119.6
Q 7.0,117.2,8.0,111.2
Q 8.7,106.9,10.6,105.5
Q 11.6,104.8,13.4,107.6
Q 17.1,112.9,19.8,107.9
Q 21.5,104.7,22.0,106.6
Q 23.1,112.1,23.1,115.8
Q 23.1,120.7,25.4,116.9
Q 26.7,114.8,27.3,104.4
Q 27.5,101.5,27.8,101.1
Q 28.0,100.6,29.3,100.3
Q 29.2,99.9,29.1,99.4
Q 28.9,98.5,28.9,94.1
Q 28.5,94.1,28.5,93.9
Q 28.4,93.6,28.4,92.1
Q 28.4,91.1,28.4,90.1
Q 26.7,85.6,25.8,82.6
Q 24.9,79.6,24.4,75.5
Q 24.0,71.4,23.6,67.9
Q 23.3,66.1,23.1,64.3
Q 23.1,62.8,23.1,61.2
Q 23.0,59.4,22.9,57.6
Q 22.7,54.1,23.8,52.1
Q 26.8,46.7,27.3,38.5
Q 27.4,36.5,27.6,34.5
Q 27.4,34.6,27.3,34.6
Q 27.1,34.6,27.1,33.5
Q 27.1,33.5,27.1,33.5
Q 27.1,32.9,27.1,32.3
Q 26.4,27.6,25.8,23.0
Q 25.6,23.6,25.4,24.2
Q 24.9,25.4,24.4,28.0
Q 23.9,30.5,23.0,30.5
Q 22.1,30.5,22.4,29.1
Q 23.9,20.3,24.4,15.9
Q 24.7,12.2,25.3,12.2
Q 25.9,12.2,25.8,14.5
Q 25.7,16.7,26.4,18.9
Q 27.4,22.0,29.3,34.5
Q 29.3,37.0,29.3,39.4
Q 29.1,40.9,28.9,42.3
Q 28.2,46.6,26.0,50.9
Q 24.5,53.9,25.1,62.8
Q 25.2,64.2,25.3,65.6
Q 26.3,64.9,27.3,64.1
Q 29.3,62.5,31.6,60.7
Q 33.9,58.8,35.1,58.1
Q 36.3,57.3,38.5,55.8
Q 44.4,51.9,47.3,54.3
Q 48.9,55.6,51.1,58.1
Q 49.3,51.9,47.8,48.3
Q 46.4,44.8,43.2,39.3
Q 35.8,26.3,32.7,18.3
Q 26.7,3.1,23.6,2.2
Q 22.9,1.9,18.7,2.8
Q 7.6,5.1,-4.9,3.9
Q -9.5,3.5,-10.1,3.6
Q -11.7,4.0,-14.6,15.0
Q -15.5,18.3,-15.8,22.1
Q -17.0,38.8,-25.8,49.5
Q -28.5,52.7,-26.8,52.4
Q -26.7,52.4,-26.5,52.4
Q -26.5,52.4,-26.2,52.3
Q -25.8,52.3,-25.3,52.3
Q -24.8,52.4,-24.2,52.5
Q -23.1,52.8,-21.6,53.4
Q -20.0,54.1,-17.8,53.7
Q -16.7,53.4,-15.6,53.2
Q -15.3,53.2,-15.1,53.2
Q -13.3,52.8,-11.6,54.4
Q -9.9,55.9,-8.0,56.2
Q -4.6,56.6,-2.7,58.6
Q -1.8,59.5,-1.3,59.9
Q -1.1,60.1,-0.9,60.3
Q -0.9,60.1,-0.9,59.9
Q -0.6,57.8,-0.2,55.6
Q 0.4,51.4,-0.9,48.7
Q -3.7,43.1,-4.2,36.0
Q -4.2,35.6,-4.2,35.2
Q -4.3,34.0,-4.3,32.8
Q -4.3,32.0,-4.4,31.2
Q -4.4,31.0,-4.4,29.6
Q -4.4,27.0,-4.4,24.3
Q -5.3,18.5,-5.4,17.6
Q -5.5,16.6,-4.9,16.6
Q -4.3,16.6,-3.5,19.9
Q -2.6,23.2,-1.6,27.2
Q -0.1,32.9,-1.1,33.0
Q -1.8,33.0,-2.2,32.4
Q -2.4,32.6,-2.7,32.8
Q -2.7,34.3,-2.7,35.9
Q -2.3,37.8,-2.0,39.6
Q -0.9,45.9,1.7,49.8
Q 3.9,53.3,2.6,53.1
Q 1.9,53.0,0.4,60.8
Q 0.4,61.0,0.4,61.2
Q 0.4,61.6,0.0,61.6
Q -0.1,62.3,-0.2,63.0
Q -1.4,70.0,-5.6,78.3
Q -6.8,80.5,-7.7,82.5
Q -8.6,84.5,-9.9,86.6
Q -11.1,88.7,-12.0,91.6
Q -12.4,93.1,-12.9,94.5
Q -12.8,94.8,-12.7,95.0
Q -12.6,95.1,-12.6,95.2
Q -12.4,95.7,-12.4,96.8
 " /> 
<path  
style="fill:rgb(14,103,171)" 
d="M -13.3 95.4
Q -13.3,95.4,-13.3,95.4
Q -13.6,96.1,-13.8,96.7
Q -13.1,96.9,-12.4,97.2
Q -12.4,97.0,-12.4,96.8
 " /> 
<path  
style="fill:rgb(7,193,201)" 
d="M -12.4 96.8
Q -12.4,95.7,-12.6,95.2
Q -13.0,95.3,-13.3,95.4
Q -12.6,96.5,-12.7,96.3
Q -13.0,95.9,-13.1,95.7
Q -13.2,95.5,-13.3,95.4
 " /> 
<path  
style="fill:rgb(7,193,201)" 
d="M -13.3 95.4
Q -13.1,95.0,-12.9,94.5
Q -13.0,94.6,-13.1,94.6
Q -13.3,94.6,-13.3,95.0
Q -13.3,95.2,-13.3,95.4
 " /> 
<path  
style="fill:rgb(7,193,201)" 
d="M -13.3 95.4
Q -13.0,95.3,-12.6,95.2
Q -12.6,95.1,-12.7,95.0
Q -12.8,94.8,-12.9,94.5
Q -13.1,95.0,-13.3,95.4
 " /> 
<path  
style="fill:rgb(7,193,201)" 
d="M -12.4 97.2
Q -12.1,98.2,-11.7,99.1
Q -11.0,101.0,-10.5,102.9
Q -9.5,107.0,-7.1,107.0
Q -5.8,107.0,-4.7,105.5
Q -0.8,100.2,-0.4,100.7
Q 0.0,101.2,0.4,102.5
Q 0.4,100.9,-0.2,100.3
Q -1.0,99.7,-3.8,103.8
Q -7.8,109.6,-9.9,103.5
Q -10.7,101.2,-11.6,99.2
Q -12.0,98.2,-12.4,97.2
 " /> 
<path  
style="fill:rgb(14,103,171)" 
d="M -12.4 97.2
Q -13.1,96.9,-13.8,96.7
Q -15.6,101.3,-16.4,102.2
Q -17.2,103.2,-18.5,105.0
Q -19.8,106.8,-22.1,109.5
Q -31.3,120.3,-34.4,131.0
Q -38.0,143.5,-35.8,167.9
Q -35.6,167.9,-35.4,167.9
Q -35.2,165.9,-30.9,157.4
Q -24.3,144.5,-21.8,141.4
Q -21.0,140.5,-19.8,138.8
Q -18.6,137.2,-18.2,137.2
Q -16.9,137.2,-19.6,141.0
Q -24.0,147.0,-30.9,160.8
Q -35.2,169.4,-35.6,169.9
Q -35.5,168.9,-35.4,167.9
Q -35.6,167.9,-35.8,167.9
Q -35.2,175.2,-34.0,183.6
Q -33.3,188.5,-33.3,192.0
Q -33.3,196.0,-32.3,195.0
Q -27.4,190.3,-21.3,174.3
Q -14.8,157.2,-9.9,149.6
Q -8.6,147.6,-6.8,144.6
Q -5.1,141.6,-4.5,141.6
Q -3.1,141.6,-5.5,145.2
Q -11.8,154.7,-19.8,175.5
Q -25.2,189.7,-30.5,195.4
Q -33.0,198.1,-33.4,201.5
Q -34.4,209.7,-38.9,216.6
Q -40.6,219.0,-40.3,219.3
Q -40.0,219.6,-36.1,218.9
Q -35.8,218.8,-35.5,218.8
Q -35.7,218.0,-35.8,217.1
Q -36.1,216.6,-35.5,216.3
Q -34.9,216.0,-30.8,213.6
Q -4.7,198.0,3.1,173.7
Q 4.6,169.1,5.2,170.8
Q 5.5,171.5,3.8,176.0
Q -5.8,201.8,-31.5,215.6
Q -34.9,217.3,-35.2,217.5
Q -35.5,217.7,-35.8,217.1
Q -35.7,218.0,-35.5,218.8
Q -31.8,218.1,-27.1,217.2
Q -15.2,215.2,-9.3,213.6
Q 0.1,211.1,7.5,201.8
Q 17.9,188.8,20.7,155.5
Q 21.0,151.8,21.7,152.0
Q 22.4,152.2,22.3,154.6
Q 20.6,195.0,3.5,208.7
Q 2.5,209.4,1.6,210.2
Q 2.1,210.0,2.6,209.9
Q 6.5,208.7,11.0,206.7
Q 12.5,206.0,13.9,205.6
Q 15.3,205.1,17.1,204.1
Q 18.9,203.1,21.4,201.8
Q 53.5,184.3,44.7,154.7
Q 42.3,146.6,37.3,133.4
Q 31.4,117.8,30.1,104.4
Q 29.9,102.8,29.8,101.2
Q 29.2,101.1,28.7,101.0
Q 27.6,100.8,27.4,107.1
Q 27.1,117.1,24.7,118.8
Q 22.9,120.0,22.5,115.4
Q 21.8,106.5,21.4,106.5
Q 21.1,106.5,20.2,108.1
Q 17.0,113.9,13.1,108.1
Q 11.5,105.6,11.0,105.8
Q 9.3,106.4,8.2,112.1
Q 6.9,119.1,3.2,121.3
Q 1.3,122.4,1.3,120.3
Q 1.3,119.6,1.3,119.0
Q 1.3,118.8,1.3,118.5
Q 0.9,115.0,1.1,113.4
Q 1.2,112.6,1.3,111.9
Q 1.3,111.0,1.3,110.1
Q 1.2,110.1,1.1,110.1
Q 0.9,110.2,0.9,107.7
Q 0.9,106.4,0.9,105.2
Q 0.9,104.6,1.0,104.0
Q 1.1,102.8,0.4,102.5
Q 0.0,101.2,-0.4,100.7
Q -0.8,100.2,-4.7,105.5
Q -5.8,107.0,-7.1,107.0
Q -9.5,107.0,-10.5,102.9
Q -11.0,101.0,-11.7,99.1
Q -12.1,98.2,-12.4,97.2
 " /> 
<path  
style="fill:rgb(7,193,201)" 
d="M 21.1 198.6
Q 21.7,199.5,24.7,195.2
Q 33.7,182.3,33.8,165.9
Q 33.8,159.0,33.0,158.7
Q 32.4,158.5,32.4,163.3
Q 32.4,181.0,23.5,194.2
Q 20.9,198.2,21.1,198.6
 " /> 
<path  
style="fill:rgb(7,193,201)" 
d="M 0.9 105.2
Q 0.9,106.4,0.9,107.7
Q 0.9,110.2,1.1,110.1
Q 1.2,110.1,1.3,110.1
Q 1.3,108.9,1.3,107.6
Q 1.3,105.1,1.1,105.2
Q 1.0,105.2,0.9,105.2
 " /> 
<path  
style="fill:rgb(7,193,201)" 
d="M 1.3 111.9
Q 1.2,112.6,1.1,113.4
Q 0.9,115.0,1.3,118.5
Q 1.3,117.6,1.4,116.8
Q 1.4,115.0,1.4,113.4
Q 1.3,112.6,1.3,111.9
 " /> 
<path  
style="fill:rgb(7,193,201)" 
d="M 1.3 119.0
Q 1.3,119.6,1.3,120.3
Q 1.3,122.4,3.2,121.3
Q 6.9,119.1,8.2,112.1
Q 9.3,106.4,11.0,105.8
Q 11.5,105.6,13.1,108.1
Q 17.0,113.9,20.2,108.1
Q 21.1,106.5,21.4,106.5
Q 21.8,106.5,22.5,115.4
Q 22.9,120.0,24.7,118.8
Q 27.1,117.1,27.4,107.1
Q 27.6,100.8,28.7,101.0
Q 29.2,101.1,29.8,101.2
Q 29.8,100.2,29.3,100.3
Q 28.0,100.6,27.8,101.1
Q 27.5,101.5,27.3,104.4
Q 26.7,114.8,25.4,116.9
Q 23.1,120.7,23.1,115.8
Q 23.1,112.1,22.0,106.6
Q 21.5,104.7,19.8,107.9
Q 17.1,112.9,13.4,107.6
Q 11.6,104.8,10.6,105.5
Q 8.7,106.9,8.0,111.2
Q 7.0,117.2,4.5,119.6
Q 2.4,121.6,1.3,119.0
 " /> 
<path  
style="fill:rgb(7,193,201)" 
d="M -35.8 217.1
Q -35.5,217.7,-35.2,217.5
Q -34.9,217.3,-31.5,215.6
Q -5.8,201.8,3.8,176.0
Q 5.5,171.5,5.2,170.8
Q 4.6,169.1,3.1,173.7
Q -4.7,198.0,-30.8,213.6
Q -34.9,216.0,-35.5,216.3
Q -36.1,216.6,-35.8,217.1
 " /> 
<path  
style="fill:rgb(7,193,201)" 
d="M -35.4 167.9
Q -35.5,168.9,-35.6,169.9
Q -35.2,169.4,-30.9,160.8
Q -24.0,147.0,-19.6,141.0
Q -16.9,137.2,-18.2,137.2
Q -18.6,137.2,-19.8,138.8
Q -21.0,140.5,-21.8,141.4
Q -24.3,144.5,-30.9,157.4
Q -35.2,165.9,-35.4,167.9
 " /> 
<path  
style="fill:rgb(14,103,171)" 
d="M 0.0 61.6
Q -0.4,61.0,-0.9,60.3
Q -1.8,60.3,-2.7,59.2
Q -4.7,56.8,-7.9,56.8
Q -9.8,56.8,-11.4,55.0
Q -12.9,53.2,-14.0,53.2
Q -14.5,53.2,-15.1,53.2
Q -15.3,53.2,-15.6,53.2
Q -19.4,55.5,-22.0,53.8
Q -23.1,53.1,-25.3,52.3
Q -25.8,52.3,-26.2,52.3
Q -26.5,52.4,-26.8,52.4
Q -26.8,52.4,-26.8,52.4
Q -26.8,52.4,-26.8,52.4
Q -27.1,52.5,-27.3,52.5
Q -29.2,52.9,-33.1,59.0
Q -35.4,62.6,-36.7,67.0
Q -36.0,67.1,-35.3,67.3
Q -34.7,65.4,-33.0,62.6
Q -32.4,61.6,-31.9,62.0
Q -31.5,62.4,-33.0,65.4
Q -34.4,68.3,-35.0,68.3
Q -35.6,68.3,-35.3,67.3
Q -36.0,67.1,-36.7,67.0
Q -37.4,69.7,-37.8,72.8
Q -38.5,79.5,-36.9,76.1
Q -36.0,74.3,-34.3,72.3
Q -25.2,61.4,-24.4,61.9
Q -23.5,62.5,-30.4,70.0
Q -38.9,79.2,-36.4,86.6
Q -34.3,92.9,-28.4,96.3
Q -28.4,83.4,-27.9,83.4
Q -27.4,83.3,-27.1,89.6
Q -26.9,96.0,-27.4,96.2
Q -27.7,96.2,-28.0,96.3
Q -23.6,96.3,-21.6,95.5
Q -15.8,92.9,-15.9,86.4
Q -16.3,67.4,-14.9,67.4
Q -14.3,67.4,-14.4,77.1
Q -14.6,86.9,-14.2,87.5
Q -13.5,88.6,-11.0,83.7
Q -9.7,81.0,-8.4,79.4
Q -7.2,77.9,-6.0,74.8
Q -4.8,71.7,-3.9,69.4
Q -3.0,67.2,-2.6,65.4
Q -1.7,61.6,-0.7,61.6
Q -0.3,61.6,0.0,61.6
 " /> 
<path  
style="fill:rgb(7,193,201)" 
d="M -10.0 76.9
Q -9.7,77.1,-9.2,76.9
Q -8.6,76.8,-8.7,72.3
Q -8.7,66.1,-10.0,67.7
Q -10.2,67.9,-10.2,72.0
Q -10.2,76.6,-10.0,76.9
 " /> 
<path  
style="fill:rgb(14,103,171)" 
d="M 0.0 61.6
Q -0.0,61.2,-0.1,60.8
Q -0.4,60.9,-0.6,60.4
Q -0.8,60.4,-0.9,60.3
Q -0.4,61.0,0.0,61.6
 " /> 
<path  
style="fill:rgb(14,103,171)" 
d="M 0.0 61.6
Q 0.2,61.2,0.4,60.8
Q 0.2,60.8,-0.0,60.8
Q -0.0,60.8,-0.1,60.8
Q -0.0,61.2,0.0,61.6
 " /> 
<path  
style="fill:rgb(14,103,171)" 
d="M 0.0 61.6
Q 0.4,61.6,0.4,61.2
Q 0.4,61.0,0.4,60.8
Q 0.2,61.2,0.0,61.6
 " /> 
<path  
style="fill:rgb(4,4,4)" 
d="M 0.4 60.8
Q -0.1,60.6,-0.6,60.4
Q -0.4,60.9,-0.0,60.8
Q -0.0,60.8,-0.0,60.8
Q 0.2,60.8,0.4,60.8
 " /> 
<path  
style="fill:rgb(4,4,4)" 
d="M 0.4 60.8
Q -0.2,60.3,-0.9,59.9
Q -0.8,60.1,-0.7,60.2
Q -0.6,60.4,-0.5,60.6
Q -0.1,60.6,0.4,60.8
 " /> 
<path  
style="fill:rgb(4,4,4)" 
d="M 0.4 60.8
Q 1.9,53.0,2.6,53.1
Q 3.9,53.3,1.7,49.8
Q -0.9,45.9,-2.0,39.6
Q -2.3,37.8,-2.7,35.9
Q -3.4,35.9,-4.2,36.0
Q -3.7,43.1,-0.9,48.7
Q 0.4,51.4,-0.2,55.6
Q -0.6,57.8,-0.9,59.9
Q -0.2,60.3,0.4,60.8
 " /> 
<path  
style="fill:rgb(4,4,4)" 
d="M -2.7 35.9
Q -2.8,35.4,-2.9,35.0
Q -3.1,34.1,-2.7,32.8
Q -3.5,32.8,-4.3,32.8
Q -4.3,34.0,-4.2,35.2
Q -4.2,35.6,-4.2,36.0
Q -3.4,35.9,-2.7,35.9
 " /> 
<path  
style="fill:rgb(14,103,171)" 
d="M -2.7 35.9
Q -2.7,34.3,-2.7,32.8
Q -3.1,34.1,-2.9,35.0
Q -2.8,35.4,-2.7,35.9
 " /> 
<path  
style="fill:rgb(4,4,4)" 
d="M -2.7 32.8
Q -2.7,32.5,-2.7,32.3
Q -3.5,32.4,-4.3,32.4
Q -4.3,33.2,-4.3,34.0
Q -3.5,32.8,-2.7,32.8
 " /> 
<path  
style="fill:rgb(97,247,248)" 
d="M -2.7 32.8
Q -2.4,32.6,-2.2,32.4
Q -2.3,32.3,-2.3,32.1
Q -2.5,32.2,-2.7,32.3
Q -2.7,32.5,-2.7,32.8
 " /> 
<path  
style="fill:rgb(97,247,248)" 
d="M -2.7 32.3
Q -2.5,32.2,-2.3,32.2
Q -2.3,32.1,-2.4,32.0
Q -2.5,31.5,-2.7,31.0
Q -2.7,31.6,-2.7,32.3
 " /> 
<path  
style="fill:rgb(4,4,4)" 
d="M -2.7 32.3
Q -2.9,31.0,-3.1,29.6
Q -3.8,29.6,-4.4,29.6
Q -4.4,31.0,-4.3,32.4
Q -3.5,32.4,-2.7,32.3
 " /> 
<path  
style="fill:rgb(14,103,171)" 
d="M -2.7 32.3
Q -2.7,31.6,-2.7,31.0
Q -2.5,30.9,-2.3,30.7
Q -2.0,30.5,-2.6,30.1
Q -2.8,29.9,-3.1,29.6
Q -3.1,29.6,-3.1,29.6
Q -2.9,31.0,-2.7,32.3
 " /> 
<path  
style="fill:rgb(4,4,4)" 
d="M -2.7 31.0
Q -2.5,31.5,-2.4,32.0
Q -2.3,32.1,-2.3,32.2
Q -2.2,32.4,-2.1,32.5
Q -1.8,33.0,-1.1,33.0
Q -0.1,32.9,-1.6,27.2
Q -2.6,23.2,-3.5,19.9
Q -4.3,16.6,-4.9,16.6
Q -5.5,16.6,-5.4,17.6
Q -5.3,18.5,-4.4,24.3
Q -4.0,27.0,-4.2,28.3
Q -4.3,29.0,-4.4,29.6
Q -3.8,29.6,-3.1,29.6
Q -3.1,29.6,-3.1,29.6
Q -2.8,29.9,-2.6,30.1
Q -2.0,30.5,-2.3,30.7
Q -2.5,30.9,-2.7,31.0
 " /> 
<path  
style="fill:rgb(14,103,171)" 
d="M -4.4 24.3
Q -4.4,27.0,-4.4,29.6
Q -4.3,29.0,-4.2,28.3
Q -4.0,27.0,-4.4,24.3
 " /> 
<path  
style="fill:rgb(7,193,201)" 
d="M -0.9 60.3
Q -1.1,60.1,-1.3,59.9
Q -1.8,59.5,-2.7,58.6
Q -4.6,56.6,-8.0,56.2
Q -9.9,55.9,-11.6,54.4
Q -13.3,52.8,-15.1,53.2
Q -14.5,53.2,-14.0,53.2
Q -12.9,53.2,-11.4,55.0
Q -9.8,56.8,-7.9,56.8
Q -4.7,56.8,-2.7,59.2
Q -1.8,60.3,-0.9,60.3
 " /> 
<path  
style="fill:rgb(7,193,201)" 
d="M -15.6 53.2
Q -16.7,53.4,-17.8,53.7
Q -20.0,54.1,-21.6,53.4
Q -23.1,52.8,-24.2,52.5
Q -24.8,52.4,-25.3,52.3
Q -23.1,53.1,-22.0,53.8
Q -19.4,55.5,-15.6,53.2
 " /> 
<path  
style="fill:rgb(7,193,201)" 
d="M 51.1 58.1
Q 51.3,58.8,51.6,59.4
Q 51.6,58.0,51.3,58.0
Q 51.2,58.1,51.1,58.1
 " /> 
<path  
style="fill:rgb(7,193,201)" 
d="M 51.1 58.1
Q 50.9,58.3,50.7,58.5
Q 51.1,58.9,51.6,59.4
Q 51.3,58.8,51.1,58.1
 " /> 
<path  
style="fill:rgb(7,193,201)" 
d="M 51.1 58.1
Q 48.9,55.6,47.3,54.3
Q 44.4,51.9,38.5,55.8
Q 36.3,57.3,35.1,58.1
Q 33.9,58.8,31.6,60.7
Q 29.3,62.5,27.3,64.1
Q 26.3,64.9,25.3,65.6
Q 25.3,66.1,25.3,66.5
Q 26.0,65.9,26.7,65.2
Q 28.0,63.9,29.7,62.8
Q 31.4,61.6,32.7,60.3
Q 34.0,58.9,36.0,57.8
Q 38.0,56.6,39.5,55.6
Q 43.1,53.4,45.6,53.8
Q 46.7,54.0,50.7,58.5
Q 50.9,58.3,51.1,58.1
 " /> 
<path  
style="fill:rgb(14,103,171)" 
d="M 29.3 39.4
Q 29.3,37.0,29.3,34.5
Q 28.9,37.2,29.3,39.4
 " /> 
<path  
style="fill:rgb(7,193,201)" 
d="M 27.1 32.3
Q 27.1,32.9,27.1,33.5
Q 27.3,34.0,27.6,34.5
Q 27.6,32.2,27.3,32.3
Q 27.2,32.3,27.1,32.3
 " /> 
<path  
style="fill:rgb(7,193,201)" 
d="M 27.6 34.5
Q 27.3,34.0,27.1,33.5
Q 27.1,33.5,27.1,33.5
Q 27.1,34.6,27.3,34.6
Q 27.4,34.6,27.6,34.5
 " /> 
<path  
style="fill:rgb(14,103,171)" 
d="M 23.1 61.2
Q 23.1,62.8,23.1,64.3
Q 23.6,62.5,23.3,61.9
Q 23.2,61.5,23.1,61.2
 " /> 
<path  
style="fill:rgb(7,193,201)" 
d="M 28.4 90.1
Q 28.4,91.1,28.4,92.1
Q 28.4,93.6,28.5,93.9
Q 28.5,94.1,28.9,94.1
Q 28.9,90.6,28.8,90.3
Q 28.8,90.0,28.4,90.1
 " /> 
<path  
style="fill:rgb(7,193,201)" 
d="M -28.4 96.3
Q -28.2,96.3,-28.0,96.3
Q -27.7,96.2,-27.4,96.2
Q -26.9,96.0,-27.1,89.6
Q -27.4,83.3,-27.9,83.4
Q -28.4,83.4,-28.4,96.3
 " /> 
<path  
style="fill:rgb(14,103,171)" 
d="M 29.8 87.0
Q 30.0,83.8,30.2,80.5
Q 30.8,71.7,31.8,73.5
Q 32.0,74.0,30.7,89.2
Q 31.2,90.0,31.8,90.8
Q 32.9,92.3,37.4,95.0
Q 36.9,92.5,36.2,88.8
Q 35.5,85.0,35.4,76.5
Q 35.3,66.6,36.3,67.6
Q 36.6,67.9,36.5,76.0
Q 36.4,86.6,38.4,93.4
Q 38.9,95.2,39.9,95.5
Q 43.2,96.4,46.5,94.0
Q 51.3,90.5,50.1,85.7
Q 49.4,82.8,48.4,78.1
Q 47.5,73.4,46.4,69.9
Q 44.9,64.6,45.7,64.6
Q 47.7,64.5,50.3,79.0
Q 51.2,84.1,51.4,84.8
Q 51.5,85.1,51.6,85.4
Q 52.6,80.6,52.8,71.8
Q 52.5,71.1,52.2,70.4
Q 51.5,69.0,50.8,67.9
Q 50.2,66.8,50.2,65.9
Q 50.2,64.5,52.9,67.9
Q 52.8,66.6,52.7,65.4
Q 52.5,63.0,52.0,61.2
Q 51.8,60.3,51.6,59.4
Q 51.1,58.9,50.7,58.5
Q 46.7,54.0,45.6,53.8
Q 43.1,53.4,39.5,55.6
Q 38.0,56.6,36.0,57.8
Q 34.0,58.9,32.7,60.3
Q 31.4,61.6,29.7,62.8
Q 28.0,63.9,26.7,65.2
Q 26.0,65.9,25.3,66.5
Q 26.7,78.5,27.3,81.2
Q 28.0,83.9,28.9,85.4
Q 29.3,86.2,29.8,87.0
 " /> 
<path  
style="fill:rgb(7,193,201)" 
d="M 43.6 89.8
Q 44.6,94.5,45.1,94.4
Q 45.8,94.1,44.7,88.5
Q 44.0,85.0,43.7,82.2
Q 43.4,79.4,42.8,79.4
Q 41.3,79.4,43.6,89.8
 " /> 
<path  
style="fill:rgb(7,193,201)" 
d="M 29.8 87.0
Q 29.9,87.2,30.0,87.4
Q 30.2,87.9,30.7,89.2
Q 32.0,74.0,31.8,73.5
Q 30.8,71.7,30.2,80.5
Q 30.0,83.8,29.8,87.0
 " /> 
<path  
style="fill:rgb(7,193,201)" 
d="M 52.9 67.9
Q 50.2,64.5,50.2,65.9
Q 50.2,66.8,50.8,67.9
Q 51.5,69.0,52.2,70.4
Q 52.5,71.1,52.8,71.8
Q 52.9,70.3,52.9,68.8
Q 52.9,68.3,52.9,67.9
 " /> 
<path  
style="fill:rgb(7,193,201)" 
d="M 52.8 71.8
Q 52.9,71.8,52.9,71.9
Q 52.9,70.3,52.9,68.8
Q 52.9,70.3,52.8,71.8
 " /> 
<path  
style="fill:rgb(7,193,201)" 
d="M -35.3 67.3
Q -35.6,68.3,-35.0,68.3
Q -34.4,68.3,-33.0,65.4
Q -31.5,62.4,-31.9,62.0
Q -32.4,61.6,-33.0,62.6
Q -34.7,65.4,-35.3,67.3
 " /> 
<path  
style="fill:rgb(4,4,4)" 
d="M -54.2 7.0
Q -53.8,7.6,-53.3,8.2
Q -51.1,6.5,-48.4,3.4
Q -51.0,4.9,-51.6,4.3
Q -51.8,4.7,-52.0,5.0
Q -52.5,5.6,-53.3,6.3
Q -53.8,6.7,-54.2,7.0
 " /> 
<path  
style="fill:rgb(4,4,4)" 
d="M -54.2 7.0
Q -55.1,7.3,-56.0,7.6
Q -61.0,9.5,-57.9,1.3
Q -55.3,-5.3,-49.0,-10.8
Q -46.6,-13.0,-41.8,-18.9
Q -37.9,-23.7,-39.4,-23.8
Q -39.9,-23.9,-41.2,-22.1
Q -42.5,-20.3,-43.7,-19.0
Q -44.2,-18.4,-44.8,-17.7
Q -45.4,-18.5,-46.0,-19.2
Q -47.3,-20.7,-49.6,-23.6
Q -60.2,-36.5,-66.2,-59.5
Q -68.6,-68.4,-69.8,-83.2
Q -69.8,-84.6,-69.8,-85.9
Q -69.8,-86.1,-69.8,-86.3
Q -69.7,-90.6,-69.5,-90.7
Q -69.4,-90.7,-69.3,-90.8
Q -68.3,-104.3,-63.2,-114.7
Q -58.8,-123.7,-55.2,-125.7
Q -53.3,-126.8,-53.3,-127.9
Q -53.3,-129.0,-51.6,-130.4
Q -49.8,-131.9,-49.3,-131.9
Q -47.1,-131.9,-47.1,-135.7
Q -47.1,-138.1,-43.7,-145.2
Q -40.4,-152.2,-32.4,-154.3
Q -32.0,-154.5,-31.5,-154.6
Q -30.7,-154.8,-29.5,-154.6
Q -29.0,-154.5,-28.4,-154.3
Q -27.2,-154.1,-26.0,-153.9
Q -14.0,-151.5,-6.5,-137.1
Q -6.3,-136.6,-5.5,-136.3
Q -5.2,-137.1,-4.9,-137.9
Q -5.5,-139.1,-6.2,-140.4
Q -7.5,-142.8,-9.8,-145.5
Q -10.9,-146.8,-12.0,-148.1
Q -13.3,-149.0,-13.8,-149.7
Q -14.0,-150.0,-14.2,-150.3
Q -15.1,-151.0,-15.9,-151.7
Q -17.7,-153.1,-20.6,-154.5
Q -24.3,-156.2,-25.9,-160.4
Q -29.3,-169.2,-30.4,-181.2
Q -30.6,-182.5,-30.7,-183.7
Q -30.8,-184.2,-31.0,-184.8
Q -31.3,-186.0,-31.0,-186.8
Q -30.7,-187.7,-30.0,-187.0
Q -29.7,-186.7,-29.3,-186.3
Q -25.7,-179.9,-23.7,-175.9
Q -21.7,-171.9,-20.8,-170.4
Q -19.9,-168.9,-18.9,-167.0
Q -13.4,-157.0,-11.8,-156.6
Q -10.4,-156.3,-13.8,-162.1
Q -21.1,-174.5,-20.7,-175.9
Q -20.1,-178.2,-16.9,-179.4
Q -16.2,-179.7,-13.7,-168.8
Q -11.8,-160.1,-10.8,-160.1
Q -9.7,-160.1,-11.3,-166.8
Q -13.0,-173.4,-15.1,-185.9
Q -15.6,-188.9,-15.2,-191.9
Q -13.1,-185.6,-10.2,-175.6
Q -9.2,-172.1,-8.5,-172.1
Q -7.9,-172.1,-8.2,-174.1
Q -8.4,-176.1,-10.2,-183.2
Q -10.3,-183.8,-10.5,-184.3
Q -10.7,-185.5,-10.5,-186.8
Q -10.3,-187.5,-10.2,-188.1
Q -9.9,-188.9,-9.6,-189.6
Q -9.0,-191.1,-8.1,-191.8
Q -7.6,-192.2,-7.1,-192.6
Q -7.1,-189.5,-7.1,-186.3
Q -6.8,-186.5,-6.7,-186.3
Q -6.7,-186.2,-6.7,-186.2
Q -6.0,-186.3,-5.3,-186.3
Q -5.3,-192.6,-5.3,-198.8
Q -5.3,-199.6,-5.3,-200.5
Q -5.3,-202.2,-5.1,-202.3
Q -5.0,-202.3,-4.9,-202.3
Q -4.2,-208.6,-3.0,-210.4
Q -1.2,-213.3,0.9,-194.3
Q 1.2,-194.5,1.3,-194.3
Q 1.3,-194.0,1.3,-191.2
Q 1.3,-189.2,1.3,-187.2
Q 1.6,-187.4,1.7,-187.2
Q 2.4,-187.4,3.1,-187.7
Q 3.2,-188.7,3.3,-189.8
Q 3.5,-192.3,4.0,-191.8
Q 10.1,-187.0,7.4,-176.6
Q 6.3,-172.4,6.7,-171.9
Q 7.9,-170.7,8.8,-175.0
Q 9.7,-179.0,12.2,-186.6
Q 13.4,-190.1,14.1,-190.8
Q 14.4,-191.1,14.8,-191.4
Q 14.3,-187.4,13.6,-184.5
Q 11.9,-176.7,10.6,-175.7
Q 9.8,-175.1,9.8,-174.5
Q 9.8,-173.9,10.4,-173.9
Q 10.9,-173.9,9.2,-168.5
Q 7.4,-163.2,8.0,-162.7
Q 9.1,-161.5,11.3,-169.0
Q 12.1,-171.7,12.9,-174.3
Q 13.2,-174.5,13.6,-174.6
Q 14.2,-174.8,16.0,-174.3
Q 16.3,-175.1,16.6,-175.9
Q 16.2,-176.1,15.7,-176.2
Q 13.8,-176.7,14.0,-177.4
Q 18.4,-193.1,15.2,-193.8
Q 13.0,-194.2,11.1,-189.1
Q 10.1,-186.3,9.8,-186.3
Q 9.6,-186.3,8.5,-188.6
Q 6.9,-192.0,3.6,-194.5
Q 2.7,-195.2,2.7,-197.3
Q 2.7,-199.5,2.0,-203.2
Q 1.3,-207.0,1.1,-208.4
Q 0.5,-212.2,-2.7,-212.9
Q -6.4,-213.6,-6.9,-200.9
Q -7.2,-194.3,-8.2,-193.9
Q -9.1,-193.5,-10.1,-192.5
Q -11.0,-191.4,-12.1,-188.8
Q -12.4,-189.9,-12.7,-190.9
Q -13.9,-194.8,-16.2,-194.8
Q -18.8,-194.8,-16.7,-182.9
Q -16.4,-181.5,-18.2,-180.7
Q -20.0,-180.0,-21.1,-178.9
Q -22.3,-177.8,-22.7,-178.4
Q -23.0,-178.9,-25.0,-182.7
Q -29.3,-190.9,-31.4,-189.6
Q -34.4,-187.7,-30.8,-169.9
Q -29.4,-162.9,-27.3,-158.7
Q -26.8,-157.6,-26.3,-156.6
Q -34.1,-156.6,-36.8,-155.2
Q -46.0,-150.4,-49.1,-135.7
Q -49.3,-134.6,-51.5,-132.8
Q -53.8,-131.1,-56.0,-128.7
Q -58.3,-126.4,-59.1,-125.9
Q -62.3,-124.2,-62.3,-133.1
Q -62.2,-137.7,-62.2,-146.2
Q -62.1,-162.5,-67.7,-158.2
Q -73.0,-154.1,-75.8,-136.7
Q -76.6,-131.7,-77.0,-131.7
Q -77.3,-131.7,-77.3,-134.0
Q -77.3,-138.3,-79.4,-140.8
Q -80.6,-142.1,-82.1,-140.5
Q -84.3,-138.0,-85.5,-128.6
Q -85.8,-126.3,-86.0,-124.0
Q -86.4,-125.6,-86.8,-127.3
Q -87.5,-130.6,-88.2,-133.9
Q -93.9,-160.2,-100.5,-156.8
Q -102.7,-155.6,-103.4,-151.0
Q -103.7,-148.6,-103.8,-145.9
Q -103.0,-145.9,-102.2,-145.9
Q -102.0,-147.5,-101.7,-149.1
Q -100.7,-155.9,-98.2,-154.5
Q -95.7,-153.2,-93.0,-144.2
Q -90.5,-135.4,-89.8,-131.2
Q -87.3,-116.8,-85.0,-119.6
Q -84.4,-120.4,-83.1,-128.8
Q -81.7,-138.3,-80.7,-138.3
Q -80.4,-138.3,-79.6,-135.7
Q -79.2,-135.8,-79.2,-135.6
Q -79.1,-135.4,-79.1,-131.2
Q -79.1,-128.8,-79.1,-126.3
Q -78.8,-126.5,-78.7,-126.3
Q -78.7,-126.0,-78.7,-122.3
Q -78.7,-122.0,-78.7,-121.6
Q -78.7,-120.9,-78.1,-120.3
Q -76.5,-118.7,-75.6,-124.9
Q -73.3,-141.8,-69.9,-150.2
Q -64.9,-163.0,-64.2,-150.1
Q -64.1,-148.0,-64.0,-145.9
Q -64.0,-144.6,-64.0,-143.3
Q -64.1,-140.7,-64.3,-140.6
Q -64.3,-140.6,-64.4,-140.6
Q -64.4,-137.0,-64.4,-133.5
Q -64.4,-132.1,-64.4,-130.8
Q -64.4,-129.7,-64.3,-128.5
Q -64.1,-124.6,-60.9,-123.6
Q -60.3,-123.4,-62.2,-120.7
Q -64.0,-117.9,-67.1,-111.7
Q -67.1,-111.4,-67.1,-111.1
Q -67.2,-110.5,-67.4,-110.4
Q -67.5,-110.4,-67.6,-110.3
Q -68.1,-108.6,-68.7,-106.8
Q -69.8,-103.2,-70.2,-100.8
Q -70.4,-99.6,-70.7,-98.3
Q -70.7,-97.5,-70.7,-97.0
Q -70.8,-95.8,-70.9,-95.7
Q -71.0,-95.7,-71.1,-95.7
Q -71.1,-95.5,-71.1,-95.2
Q -71.1,-94.7,-71.1,-94.2
Q -71.2,-93.2,-71.4,-93.1
Q -71.5,-93.0,-71.6,-93.0
Q -71.6,-89.7,-71.6,-86.3
Q -71.6,-85.6,-71.6,-84.9
Q -71.6,-83.4,-71.8,-83.3
Q -71.9,-83.3,-72.0,-83.2
Q -72.0,-82.1,-72.0,-81.0
Q -71.8,-80.3,-71.6,-79.7
Q -71.6,-79.5,-71.6,-79.2
Q -71.6,-77.9,-71.6,-76.6
Q -71.4,-75.1,-71.3,-73.7
Q -71.1,-70.8,-69.8,-64.1
Q -69.8,-63.7,-69.8,-63.2
Q -69.7,-62.7,-69.5,-62.1
Q -69.3,-61.0,-67.1,-53.9
Q -64.9,-46.8,-60.4,-35.7
Q -59.7,-34.6,-59.8,-34.8
Q -60.1,-35.2,-60.4,-35.7
Q -58.8,-32.8,-57.9,-31.3
Q -56.3,-28.4,-52.0,-22.4
Q -53.0,-22.5,-53.9,-22.6
Q -55.8,-22.8,-57.6,-23.2
Q -59.3,-23.6,-61.6,-24.1
Q -74.4,-26.6,-94.2,-40.1
Q -95.5,-41.0,-96.4,-42.3
Q -97.3,-43.2,-98.1,-44.1
Q -101.9,-48.1,-105.3,-53.7
Q -116.7,-72.3,-107.4,-67.1
Q -102.0,-64.0,-97.8,-61.9
Q -97.1,-61.6,-96.4,-61.2
Q -95.1,-60.5,-94.2,-60.1
Q -93.8,-59.9,-93.3,-59.7
Q -91.9,-59.6,-91.3,-60.1
Q -89.8,-61.3,-94.6,-68.3
Q -108.5,-88.6,-111.1,-105.7
Q -111.3,-107.1,-111.6,-108.6
Q -111.9,-108.4,-111.9,-108.6
Q -112.0,-108.9,-112.0,-110.8
Q -111.9,-113.8,-111.8,-116.8
Q -111.4,-125.0,-109.6,-126.9
Q -108.4,-128.2,-104.9,-119.6
Q -99.0,-105.3,-95.7,-104.0
Q -94.3,-103.5,-93.9,-103.8
Q -92.2,-105.6,-97.3,-121.7
Q -98.8,-126.1,-99.8,-130.7
Q -100.9,-135.2,-101.8,-141.9
Q -102.1,-141.7,-102.2,-142.0
Q -102.2,-142.2,-102.2,-145.9
Q -103.0,-145.9,-103.8,-145.9
Q -104.0,-133.8,-97.8,-115.7
Q -96.1,-110.5,-95.8,-108.6
Q -95.7,-107.6,-95.5,-106.6
Q -95.9,-107.0,-96.4,-107.5
Q -98.2,-109.4,-102.7,-119.9
Q -107.1,-130.3,-110.0,-129.1
Q -112.5,-128.1,-113.4,-123.7
Q -117.3,-104.4,-104.1,-79.6
Q -98.1,-68.4,-95.5,-65.0
Q -93.8,-62.6,-94.0,-62.5
Q -94.1,-62.3,-96.3,-63.6
Q -98.4,-64.9,-100.7,-66.0
Q -102.9,-67.1,-105.4,-68.5
Q -111.7,-72.0,-112.9,-69.3
Q -115.2,-64.4,-105.3,-49.5
Q -98.6,-39.3,-86.1,-31.9
Q -73.1,-24.4,-63.3,-22.1
Q -60.7,-21.5,-58.9,-21.0
Q -57.1,-20.6,-53.8,-20.6
Q -51.5,-20.6,-50.6,-20.2
Q -49.7,-19.8,-46.3,-15.8
Q -47.4,-14.9,-48.6,-13.9
Q -59.9,-4.2,-61.0,4.6
Q -61.4,8.0,-59.5,9.7
Q -57.5,11.4,-53.3,8.2
Q -53.8,7.6,-54.2,7.0
 " /> 
<path  
style="fill:rgb(97,247,248)" 
d="M -54.2 7.0
Q -53.9,6.6,-53.5,6.1
Q -52.9,5.3,-52.2,4.8
Q -51.9,4.6,-51.6,4.3
Q -45.3,-3.2,-42.8,-6.6
Q -40.3,-10.1,-39.6,-11.2
Q -38.8,-12.4,-37.3,-14.4
Q -33.4,-19.5,-32.8,-18.9
Q -32.4,-18.5,-34.5,-15.7
Q -36.2,-13.4,-36.1,-12.9
Q -36.1,-12.0,-32.9,-10.4
Q -31.1,-9.5,-29.9,-12.0
Q -28.1,-15.9,-27.3,-15.2
Q -26.7,-14.7,-28.1,-11.8
Q -29.4,-8.8,-29.5,-8.1
Q -29.6,-7.4,-31.3,-5.0
Q -35.0,0.2,-37.7,6.7
Q -41.0,15.0,-36.8,14.4
Q -30.9,13.6,-22.5,2.3
Q -20.9,0.2,-16.0,-5.0
Q -15.1,-6.3,-14.4,-6.8
Q -14.1,-7.0,-13.8,-7.2
Q -12.9,-6.8,-13.5,-5.8
Q -14.1,-4.7,-16.8,-0.7
Q -10.1,0.6,0.0,1.7
Q 2.4,1.7,4.9,1.7
Q 5.7,1.7,6.6,1.7
Q 8.3,1.7,10.2,1.2
Q 11.3,1.2,12.4,1.2
Q 13.8,1.0,15.1,0.8
Q 17.8,0.3,21.4,-0.6
Q 25.1,-1.5,28.8,-2.1
Q 26.3,-10.1,26.6,-10.5
Q 27.5,-11.4,29.3,-5.9
Q 30.3,-3.0,30.9,-1.7
Q 31.5,-0.3,32.4,3.6
Q 35.2,15.1,37.7,9.3
Q 41.8,-0.3,36.3,-12.4
Q 34.1,-17.0,35.2,-17.0
Q 36.6,-17.0,39.4,-9.1
Q 40.2,-6.8,40.5,-6.9
Q 43.7,-8.0,45.0,-10.6
Q 45.3,-11.2,43.9,-16.9
Q 43.0,-21.0,43.5,-21.6
Q 44.4,-22.5,45.5,-18.2
Q 46.2,-15.4,46.8,-13.0
Q 47.5,-10.6,48.2,-6.1
Q 49.9,4.1,52.2,1.4
Q 54.3,-1.1,55.4,-6.7
Q 57.1,-15.3,54.7,-22.1
Q 52.6,-28.1,53.5,-28.1
Q 54.8,-28.1,56.7,-22.3
Q 57.4,-19.9,57.8,-19.6
Q 58.1,-19.2,60.6,-21.9
Q 68.4,-30.3,73.4,-43.7
Q 76.2,-51.3,77.8,-61.9
Q 77.8,-63.2,77.8,-64.6
Q 77.8,-65.1,77.8,-65.6
Q 77.8,-66.6,78.0,-66.7
Q 78.1,-66.7,78.2,-66.8
Q 78.2,-68.8,78.2,-70.8
Q 78.1,-70.8,78.0,-70.7
Q 77.7,-70.7,77.8,-73.2
Q 77.8,-74.4,77.8,-75.7
Q 77.3,-82.3,76.9,-86.2
Q 73.5,-116.5,50.3,-127.1
Q 46.0,-129.0,45.9,-129.9
Q 45.6,-131.6,49.5,-130.1
Q 51.3,-129.4,51.4,-129.6
Q 51.5,-129.7,50.0,-132.9
Q 42.9,-147.8,28.8,-150.1
Q 28.0,-150.2,27.1,-150.3
Q 26.0,-150.3,24.9,-150.3
Q 12.6,-146.8,7.4,-137.3
Q 6.5,-135.6,2.2,-135.2
Q 0.3,-135.2,0.1,-135.3
Q -0.2,-135.3,0.0,-135.7
Q -3.9,-135.7,-5.5,-136.3
Q -6.3,-136.6,-6.5,-137.1
Q -14.0,-151.5,-26.0,-153.9
Q -27.2,-154.1,-28.4,-154.3
Q -30.4,-154.3,-32.4,-154.3
Q -40.4,-152.2,-43.7,-145.2
Q -47.1,-138.1,-47.1,-135.7
Q -47.1,-131.9,-49.3,-131.9
Q -49.8,-131.9,-51.6,-130.4
Q -53.3,-129.0,-53.3,-127.9
Q -53.3,-126.8,-55.2,-125.7
Q -58.8,-123.7,-63.2,-114.7
Q -68.3,-104.3,-69.3,-90.8
Q -69.3,-87.4,-69.4,-86.9
Q -69.4,-86.5,-69.8,-86.3
Q -69.8,-86.1,-69.8,-85.9
Q -69.3,-84.6,-69.5,-83.9
Q -69.6,-83.6,-69.8,-83.2
Q -68.6,-68.4,-66.2,-59.5
Q -60.2,-36.5,-49.6,-23.6
Q -47.3,-20.7,-46.0,-19.2
Q -45.4,-18.5,-44.8,-17.7
Q -44.2,-18.4,-43.7,-19.0
Q -42.5,-20.3,-41.2,-22.1
Q -39.9,-23.9,-39.4,-23.8
Q -37.9,-23.7,-41.8,-18.9
Q -46.6,-13.0,-49.0,-10.8
Q -55.3,-5.3,-57.9,1.3
Q -61.0,9.5,-56.0,7.6
Q -55.1,7.3,-54.2,7.0
 " /> 
<path  
style="fill:rgb(4,4,4)" 
d="M 16.3 -11.1
Q 21.6,-8.2,20.5,-10.1
Q 17.6,-15.4,7.5,-14.6
Q -5.5,-13.5,-3.3,-11.2
Q -2.8,-10.8,1.1,-11.7
Q 10.9,-14.0,16.3,-11.1
 " /> 
<path  
style="fill:rgb(4,4,4)" 
d="M 12.3 -36.6
Q 15.3,-30.5,15.9,-31.9
Q 16.1,-32.7,13.7,-37.6
Q 11.0,-43.1,10.3,-42.0
Q 10.0,-41.5,12.3,-36.6
 " /> 
<path  
style="fill:rgb(4,4,4)" 
d="M -1.5 -32.5
Q -0.9,-31.4,1.0,-34.6
Q 2.3,-36.8,3.9,-39.2
Q 6.5,-43.2,5.4,-43.2
Q 4.9,-43.2,3.1,-40.7
Q -2.2,-33.6,-1.5,-32.5
 " /> 
<path  
style="fill:rgb(14,103,171)" 
d="M 67.6 -77.0
Q 67.8,-77.0,68.0,-77.0
Q 68.0,-78.6,68.0,-80.1
Q 67.9,-80.1,67.8,-80.0
Q 67.6,-80.0,67.6,-77.0
 " /> 
<path  
style="fill:rgb(7,193,201)" 
d="M 67.6 -77.0
Q 67.6,-75.9,67.6,-74.8
Q 68.0,-74.9,68.0,-76.0
Q 68.0,-76.5,68.0,-77.0
Q 67.8,-77.0,67.6,-77.0
 " /> 
<path  
style="fill:rgb(4,4,4)" 
d="M 67.6 -77.0
Q 67.6,-80.0,67.8,-80.0
Q 67.9,-80.1,68.0,-80.1
Q 67.8,-81.5,67.6,-82.8
Q 65.0,-98.0,56.8,-106.4
Q 45.5,-117.9,34.3,-101.3
Q 27.1,-90.6,20.4,-72.1
Q 18.1,-65.7,17.5,-64.1
Q 16.8,-62.6,16.4,-61.2
Q 16.1,-59.9,15.1,-57.2
Q 13.8,-53.4,14.7,-53.2
Q 15.4,-53.0,17.4,-58.5
Q 17.9,-57.6,18.3,-56.6
Q 23.6,-44.5,30.1,-42.2
Q 31.9,-41.5,33.5,-41.0
Q 34.3,-40.8,35.1,-40.6
Q 36.9,-41.0,38.7,-40.6
Q 39.6,-40.8,40.4,-41.0
Q 46.1,-42.4,51.4,-46.7
Q 52.8,-47.9,54.2,-49.0
Q 54.6,-49.4,54.9,-49.9
Q 55.6,-50.8,56.5,-51.4
Q 56.9,-51.8,57.3,-52.1
Q 58.4,-53.5,59.6,-54.8
Q 66.3,-62.8,67.6,-74.8
Q 67.6,-75.9,67.6,-77.0
 " /> 
<path  
style="fill:rgb(31,181,0)" 
d="M 38.2 -43.7
Q 36.4,-43.7,34.7,-43.7
Q 36.4,-43.2,38.2,-43.7
 " /> 
<path  
style="fill:rgb(115,250,3)" 
d="M 38.2 -43.7
Q 44.9,-45.5,52.4,-50.8
Q 52.9,-51.3,53.3,-51.9
Q 54.2,-53.0,56.0,-54.3
Q 56.9,-55.6,57.8,-56.8
Q 63.2,-64.3,64.4,-71.9
Q 64.7,-73.3,64.9,-74.8
Q 64.9,-77.4,64.9,-77.8
Q 65.0,-78.2,65.3,-78.3
Q 64.9,-84.1,63.8,-87.7
Q 62.7,-91.2,59.6,-98.8
Q 59.3,-99.0,59.1,-99.2
Q 58.7,-99.7,57.8,-101.0
Q 57.5,-101.2,57.3,-101.4
Q 56.8,-101.9,56.9,-102.3
Q 56.9,-102.6,56.9,-102.8
Q 56.6,-103.0,56.2,-103.2
Q 55.6,-103.7,55.1,-104.4
Q 54.9,-104.7,54.7,-105.0
Q 53.9,-105.7,53.1,-106.4
Q 51.6,-107.7,50.0,-108.1
Q 49.2,-108.4,48.4,-108.6
Q 47.3,-108.6,46.2,-108.6
Q 45.1,-108.1,44.0,-107.7
Q 38.2,-105.3,29.6,-88.1
Q 23.8,-76.6,20.2,-65.6
Q 19.1,-62.3,20.7,-58.6
Q 21.4,-56.7,22.2,-54.8
Q 22.4,-54.6,22.7,-54.3
Q 23.1,-53.9,23.6,-52.6
Q 24.4,-51.2,24.9,-49.9
Q 27.1,-48.1,28.9,-45.9
Q 29.8,-45.4,30.6,-45.0
Q 32.4,-44.1,33.5,-43.9
Q 34.1,-43.8,34.7,-43.7
Q 36.4,-43.7,38.2,-43.7
 " /> 
<path  
style="fill:rgb(115,250,3)" 
d="M 45.3 -75.7
Q 45.0,-75.2,44.7,-74.8
Q 44.3,-74.3,44.0,-73.9
Q 49.2,-74.6,51.1,-70.8
Q 53.2,-66.6,54.7,-67.5
Q 55.1,-67.7,53.3,-69.9
Q 52.7,-71.1,52.0,-72.3
Q 50.6,-74.7,50.0,-75.5
Q 49.2,-76.5,46.4,-75.9
Q 45.9,-75.8,45.3,-75.7
 " /> 
<path  
style="fill:rgb(31,181,0)" 
d="M 45.3 -75.7
Q 44.2,-74.5,43.1,-73.2
Q 37.7,-67.3,34.7,-65.1
Q 33.9,-64.4,33.2,-64.1
Q 30.6,-62.8,27.6,-63.2
Q 27.2,-62.9,26.9,-62.6
Q 21.9,-57.6,27.4,-54.4
Q 47.8,-42.4,60.1,-67.4
Q 67.0,-81.3,60.9,-89.9
Q 58.8,-92.8,57.5,-90.8
Q 57.3,-90.4,56.4,-90.8
Q 56.9,-89.8,57.3,-88.8
Q 60.8,-81.1,58.2,-71.7
Q 57.1,-67.7,53.3,-69.9
Q 55.1,-67.7,54.7,-67.5
Q 53.2,-66.6,51.1,-70.8
Q 49.2,-74.6,44.0,-73.9
Q 44.3,-74.3,44.7,-74.8
Q 45.0,-75.2,45.3,-75.7
 " /> 
<path  
style="fill:rgb(4,4,4)" 
d="M 45.3 -75.7
Q 45.9,-75.8,46.4,-75.9
Q 49.2,-76.5,50.0,-75.5
Q 50.6,-74.7,52.0,-72.3
Q 52.7,-71.1,53.3,-69.9
Q 57.1,-67.7,58.2,-71.7
Q 60.8,-81.1,57.3,-88.8
Q 56.9,-89.8,56.4,-90.8
Q 55.7,-90.5,55.0,-90.2
Q 56.4,-86.5,56.9,-82.3
Q 57.4,-80.1,56.9,-78.3
Q 56.8,-76.8,56.7,-75.2
Q 56.4,-70.9,55.3,-71.1
Q 54.8,-71.2,52.4,-75.6
Q 49.9,-80.2,45.1,-77.6
Q 44.6,-77.3,44.0,-77.0
Q 43.5,-76.5,43.1,-75.9
Q 42.2,-74.8,41.3,-74.1
Q 40.9,-73.8,40.4,-73.5
Q 40.2,-73.0,40.0,-72.6
Q 39.8,-72.2,39.5,-71.9
Q 39.1,-71.3,38.4,-70.8
Q 38.1,-70.6,37.8,-70.3
Q 37.4,-69.7,36.9,-69.5
Q 36.5,-69.0,36.2,-68.6
Q 35.5,-67.7,34.6,-67.0
Q 34.2,-66.7,33.8,-66.3
Q 34.2,-65.7,34.7,-65.1
Q 37.7,-67.3,43.1,-73.2
Q 44.2,-74.5,45.3,-75.7
 " /> 
<path  
style="fill:rgb(4,4,4)" 
d="M 27.6 -63.2
Q 27.8,-64.0,28.1,-64.8
Q 27.8,-64.9,27.6,-65.0
Q 27.0,-65.2,26.4,-65.5
Q 24.5,-66.2,24.3,-64.6
Q 24.3,-63.8,27.6,-63.2
 " /> 
<path  
style="fill:rgb(4,4,4)" 
d="M 27.6 -63.2
Q 30.6,-62.8,33.2,-64.1
Q 33.9,-64.4,34.7,-65.1
Q 34.2,-65.7,33.8,-66.3
Q 33.3,-66.1,32.9,-65.9
Q 32.0,-65.4,31.3,-65.2
Q 31.0,-65.1,30.7,-65.0
Q 30.2,-64.9,29.8,-64.8
Q 28.9,-64.5,28.2,-64.8
Q 28.2,-64.8,28.1,-64.8
Q 27.8,-64.0,27.6,-63.2
 " /> 
<path  
style="fill:rgb(4,4,4)" 
d="M 56.4 -90.8
Q 55.6,-93.5,54.4,-95.2
Q 53.3,-97.0,52.8,-97.0
Q 51.8,-97.0,53.9,-92.8
Q 54.5,-91.5,55.0,-90.2
Q 55.7,-90.5,56.4,-90.8
 " /> 
<path  
style="fill:rgb(31,181,0)" 
d="M 27.6 -65.0
Q 27.8,-64.9,28.1,-64.8
Q 28.2,-64.8,28.2,-64.8
Q 28.9,-64.5,29.8,-64.8
Q 30.2,-64.9,30.7,-65.0
Q 29.1,-65.0,27.6,-65.0
 " /> 
<path  
style="fill:rgb(31,181,0)" 
d="M 33.8 -66.3
Q 34.2,-66.7,34.6,-67.0
Q 35.5,-67.7,36.2,-68.6
Q 36.5,-69.0,36.9,-69.5
Q 35.1,-68.1,33.8,-66.3
 " /> 
<path  
style="fill:rgb(31,181,0)" 
d="M 37.8 -70.3
Q 38.1,-70.6,38.4,-70.8
Q 39.1,-71.3,39.5,-71.9
Q 39.8,-72.2,40.0,-72.6
Q 39.7,-72.3,39.3,-72.1
Q 38.7,-71.7,38.2,-71.0
Q 38.0,-70.7,37.8,-70.3
 " /> 
<path  
style="fill:rgb(4,4,4)" 
d="M 40.0 -72.6
Q 40.2,-73.0,40.4,-73.5
Q 40.3,-73.3,40.2,-73.1
Q 39.9,-72.8,40.0,-72.6
 " /> 
<path  
style="fill:rgb(115,250,3)" 
d="M 40.4 -73.5
Q 41.8,-75.2,44.0,-77.0
Q 43.7,-77.4,43.4,-77.8
Q 41.2,-76.2,38.6,-74.0
Q 39.9,-74.1,40.4,-73.5
 " /> 
<path  
style="fill:rgb(31,181,0)" 
d="M 40.4 -73.5
Q 40.9,-73.8,41.3,-74.1
Q 42.2,-74.8,43.1,-75.9
Q 43.5,-76.5,44.0,-77.0
Q 41.8,-75.2,40.4,-73.5
 " /> 
<path  
style="fill:rgb(31,181,0)" 
d="M 56.9 -78.3
Q 57.4,-80.1,56.9,-82.3
Q 56.9,-80.3,56.9,-78.3
 " /> 
<path  
style="fill:rgb(209,251,185)" 
d="M 29.8 -70.2
Q 32.2,-68.3,37.8,-73.2
Q 38.6,-74.0,39.4,-74.7
Q 41.9,-76.8,44.1,-78.3
Q 45.8,-79.4,47.7,-80.4
Q 50.9,-82.0,51.9,-83.2
Q 53.8,-85.4,51.5,-91.2
Q 49.3,-97.1,46.7,-98.3
Q 45.4,-99.0,45.4,-99.6
Q 45.5,-100.2,45.0,-100.4
Q 44.5,-100.6,44.3,-99.8
Q 44.0,-98.9,43.0,-98.5
Q 40.9,-97.5,37.9,-92.3
Q 36.0,-89.2,36.4,-88.9
Q 36.8,-88.5,34.4,-84.8
Q 26.6,-72.8,29.8,-70.2
 " /> 
<path  
style="fill:rgb(31,181,0)" 
d="M 24.9 -49.9
Q 25.3,-49.3,25.8,-48.8
Q 26.7,-47.7,27.8,-46.8
Q 28.3,-46.3,28.9,-45.9
Q 27.1,-48.1,24.9,-49.9
 " /> 
<path  
style="fill:rgb(31,181,0)" 
d="M 23.6 -52.6
Q 23.1,-53.9,22.7,-54.3
Q 22.4,-54.6,22.2,-54.8
Q 22.3,-54.3,22.4,-53.9
Q 22.6,-53.0,23.6,-52.6
 " /> 
<path  
style="fill:rgb(31,181,0)" 
d="M 46.2 -108.6
Q 47.3,-108.6,48.4,-108.6
Q 48.1,-108.7,47.8,-108.8
Q 47.1,-109.1,46.7,-108.8
Q 46.4,-108.7,46.2,-108.6
 " /> 
<path  
style="fill:rgb(31,181,0)" 
d="M 54.7 -105.0
Q 54.9,-104.7,55.1,-104.4
Q 55.6,-103.7,56.2,-103.2
Q 56.6,-103.0,56.9,-102.8
Q 56.0,-104.1,54.7,-105.0
 " /> 
<path  
style="fill:rgb(31,181,0)" 
d="M 57.8 -101.0
Q 58.7,-99.7,59.1,-99.2
Q 59.3,-99.0,59.6,-98.8
Q 59.1,-100.1,57.8,-101.0
 " /> 
<path  
style="fill:rgb(31,181,0)" 
d="M 65.3 -78.3
Q 65.0,-78.2,64.9,-77.8
Q 64.9,-77.4,64.9,-74.8
Q 65.0,-74.8,65.1,-74.8
Q 65.3,-74.9,65.3,-76.6
Q 65.3,-77.5,65.3,-78.3
 " /> 
<path  
style="fill:rgb(31,181,0)" 
d="M 56.0 -54.3
Q 54.2,-53.0,53.3,-51.9
Q 52.9,-51.3,52.4,-50.8
Q 53.0,-51.2,53.5,-51.7
Q 54.6,-52.6,55.3,-53.5
Q 55.7,-53.9,56.0,-54.3
 " /> 
<path  
style="fill:rgb(14,103,171)" 
d="M 57.3 -52.1
Q 56.9,-51.8,56.5,-51.4
Q 55.6,-50.8,54.9,-49.9
Q 54.6,-49.4,54.2,-49.0
Q 54.7,-49.3,55.1,-49.7
Q 56.0,-50.4,57.3,-52.1
 " /> 
<path  
style="fill:rgb(14,103,171)" 
d="M 38.7 -40.6
Q 36.9,-41.0,35.1,-40.6
Q 36.9,-40.6,38.7,-40.6
 " /> 
<path  
style="fill:rgb(4,4,4)" 
d="M -40.9 -56.1
Q -38.2,-53.9,-36.4,-51.7
Q -33.3,-49.0,-30.8,-47.5
Q -19.9,-41.0,-10.4,-47.0
Q -9.9,-47.3,-9.3,-47.7
Q -9.0,-48.1,-8.6,-48.5
Q -8.0,-49.4,-7.1,-50.1
Q -6.7,-50.4,-6.2,-50.8
Q -3.6,-54.3,-1.7,-58.1
Q -1.3,-56.4,-0.9,-54.8
Q 0.2,-50.1,1.2,-51.5
Q 1.5,-51.9,-0.0,-60.3
Q -7.7,-102.4,-24.1,-113.5
Q -33.8,-120.1,-42.5,-114.4
Q -43.2,-113.9,-44.0,-113.5
Q -44.2,-113.2,-44.3,-113.0
Q -44.6,-112.5,-45.4,-111.9
Q -45.8,-111.5,-46.2,-111.2
Q -48.9,-107.7,-50.0,-105.1
Q -52.4,-99.9,-52.4,-93.4
Q -52.4,-91.7,-52.4,-89.9
Q -52.4,-88.1,-52.4,-86.3
Q -52.4,-76.3,-46.6,-64.9
Q -44.4,-60.6,-40.9,-56.1
 " /> 
<path  
style="fill:rgb(115,250,3)" 
d="M -39.6 -57.9
Q -38.8,-57.2,-38.0,-56.6
Q -36.5,-55.2,-35.3,-53.9
Q -34.8,-53.2,-34.2,-52.6
Q -32.6,-51.5,-30.9,-50.3
Q -19.9,-43.0,-11.3,-49.7
Q -10.3,-50.4,-9.3,-51.2
Q -9.1,-51.5,-8.9,-51.9
Q -8.4,-52.5,-7.8,-53.0
Q -7.4,-53.2,-7.1,-53.5
Q -6.7,-54.2,-6.2,-55.0
Q -3.0,-60.7,-3.0,-63.9
Q -3.1,-66.1,-4.7,-72.6
Q -12.1,-102.5,-25.5,-111.6
Q -35.7,-118.6,-43.5,-110.7
Q -48.8,-105.4,-50.2,-94.8
Q -50.2,-90.3,-50.2,-85.9
Q -49.0,-75.4,-45.5,-67.8
Q -44.0,-64.6,-39.6,-57.9
 " /> 
<path  
style="fill:rgb(255,255,255)" 
d="M -23.6 -73.5
Q -23.3,-73.5,-23.1,-73.5
Q -22.6,-73.8,-22.7,-74.0
Q -24.3,-76.0,-26.4,-74.6
Q -27.6,-73.9,-27.6,-73.5
Q -27.6,-73.1,-26.2,-73.5
Q -24.9,-73.9,-23.6,-73.5
 " /> 
<path  
style="fill:rgb(31,181,0)" 
d="M -23.6 -73.5
Q -24.6,-73.2,-25.6,-73.0
Q -27.6,-72.6,-29.7,-70.3
Q -37.0,-62.6,-41.5,-79.6
Q -42.6,-83.9,-43.1,-87.6
Q -43.5,-91.2,-43.1,-95.7
Q -44.0,-93.9,-44.5,-94.0
Q -44.9,-94.1,-45.6,-93.0
Q -47.2,-90.2,-45.4,-81.7
Q -41.6,-63.9,-33.0,-56.1
Q -23.8,-47.6,-13.5,-54.6
Q -6.2,-59.6,-7.6,-63.9
Q -7.8,-64.4,-8.0,-65.0
Q -11.4,-65.0,-15.2,-67.7
Q -16.1,-68.3,-17.1,-69.2
Q -20.0,-71.7,-23.1,-73.5
Q -23.3,-73.5,-23.6,-73.5
 " /> 
<path  
style="fill:rgb(4,4,4)" 
d="M -23.6 -73.5
Q -24.9,-73.9,-26.2,-73.5
Q -27.6,-73.1,-27.6,-73.5
Q -27.6,-73.9,-26.4,-74.6
Q -24.3,-76.0,-22.7,-74.0
Q -22.6,-73.8,-23.1,-73.5
Q -20.0,-71.7,-17.1,-69.2
Q -16.1,-68.3,-15.2,-67.7
Q -14.7,-68.3,-14.2,-69.0
Q -14.9,-69.6,-15.5,-70.1
Q -16.9,-71.2,-18.7,-73.5
Q -19.5,-74.3,-20.4,-75.1
Q -22.1,-76.7,-24.0,-77.0
Q -25.1,-77.0,-26.2,-77.0
Q -26.9,-76.6,-27.6,-76.1
Q -28.9,-75.2,-30.6,-73.0
Q -34.5,-67.7,-37.2,-73.7
Q -39.4,-78.7,-41.3,-90.8
Q -41.4,-91.5,-41.6,-92.1
Q -41.8,-93.5,-41.6,-94.6
Q -41.4,-95.1,-41.3,-95.7
Q -41.1,-97.0,-40.9,-98.3
Q -40.4,-101.0,-39.0,-103.0
Q -37.7,-105.1,-38.2,-105.6
Q -38.7,-106.1,-39.8,-104.8
Q -42.6,-101.5,-43.0,-97.2
Q -43.0,-96.5,-43.1,-95.7
Q -43.5,-91.2,-43.1,-87.6
Q -42.6,-83.9,-41.5,-79.6
Q -37.0,-62.6,-29.7,-70.3
Q -27.6,-72.6,-25.6,-73.0
Q -24.6,-73.2,-23.6,-73.5
 " /> 
<path  
style="fill:rgb(4,4,4)" 
d="M -8.0 -65.0
Q -7.1,-65.9,-7.2,-66.1
Q -7.4,-66.2,-8.8,-66.5
Q -10.2,-66.8,-14.2,-69.0
Q -14.7,-68.3,-15.2,-67.7
Q -11.4,-65.0,-8.0,-65.0
 " /> 
<path  
style="fill:rgb(31,181,0)" 
d="M -41.3 -95.7
Q -41.4,-95.1,-41.6,-94.6
Q -41.8,-93.5,-41.6,-92.1
Q -41.4,-91.5,-41.3,-90.8
Q -41.3,-93.2,-41.3,-95.7
 " /> 
<path  
style="fill:rgb(31,181,0)" 
d="M -26.2 -77.0
Q -25.1,-77.0,-24.0,-77.0
Q -24.3,-77.1,-24.7,-77.3
Q -25.3,-77.5,-25.8,-77.3
Q -26.0,-77.1,-26.2,-77.0
 " /> 
<path  
style="fill:rgb(31,181,0)" 
d="M -18.7 -73.5
Q -16.9,-71.2,-15.5,-70.1
Q -14.9,-69.6,-14.2,-69.0
Q -14.8,-69.7,-15.3,-70.3
Q -16.5,-71.7,-18.7,-73.5
 " /> 
<path  
style="fill:rgb(209,251,185)" 
d="M -12.7 -73.9
Q -9.7,-72.2,-9.9,-73.6
Q -10.0,-74.1,-13.0,-80.2
Q -22.9,-100.5,-28.5,-98.4
Q -29.6,-98.0,-31.2,-96.2
Q -36.5,-90.4,-32.0,-84.2
Q -30.0,-81.4,-23.9,-79.9
Q -20.9,-79.1,-17.9,-77.1
Q -14.9,-75.1,-12.7,-73.9
 " /> 
<path  
style="fill:rgb(31,181,0)" 
d="M -39.6 -57.9
Q -36.9,-54.8,-34.2,-52.6
Q -34.8,-53.2,-35.3,-53.9
Q -36.5,-55.2,-38.0,-56.6
Q -38.8,-57.2,-39.6,-57.9
 " /> 
<path  
style="fill:rgb(31,181,0)" 
d="M -50.2 -85.9
Q -50.2,-90.3,-50.2,-94.8
Q -50.3,-93.7,-50.4,-92.6
Q -50.7,-90.3,-50.2,-85.9
 " /> 
<path  
style="fill:rgb(31,181,0)" 
d="M -7.1 -53.5
Q -7.4,-53.2,-7.8,-53.0
Q -8.4,-52.5,-8.9,-51.9
Q -9.1,-51.5,-9.3,-51.2
Q -9.0,-51.5,-8.7,-51.7
Q -8.0,-52.1,-7.6,-52.8
Q -7.3,-53.1,-7.1,-53.5
 " /> 
<path  
style="fill:rgb(7,193,201)" 
d="M -40.9 -56.1
Q -40.3,-55.5,-39.8,-54.8
Q -38.6,-53.5,-36.4,-51.7
Q -38.2,-53.9,-40.9,-56.1
 " /> 
<path  
style="fill:rgb(7,193,201)" 
d="M -52.4 -86.3
Q -52.4,-88.1,-52.4,-89.9
Q -52.6,-89.5,-52.7,-89.0
Q -52.9,-88.1,-52.7,-87.2
Q -52.6,-86.8,-52.4,-86.3
 " /> 
<path  
style="fill:rgb(7,193,201)" 
d="M -46.2 -111.2
Q -45.8,-111.5,-45.4,-111.9
Q -44.6,-112.5,-44.3,-113.0
Q -44.2,-113.2,-44.0,-113.5
Q -45.3,-112.5,-45.8,-111.9
Q -46.0,-111.6,-46.2,-111.2
 " /> 
<path  
style="fill:rgb(7,193,201)" 
d="M -6.2 -50.8
Q -6.7,-50.4,-7.1,-50.1
Q -8.0,-49.4,-8.6,-48.5
Q -9.0,-48.1,-9.3,-47.7
Q -8.9,-48.0,-8.4,-48.4
Q -7.6,-49.0,-6.9,-49.9
Q -6.6,-50.3,-6.2,-50.8
 " /> 
<path  
style="fill:rgb(14,103,171)" 
d="M -54.2 7.0
Q -53.8,6.7,-53.3,6.3
Q -52.5,5.6,-52.0,5.0
Q -51.8,4.7,-51.6,4.3
Q -51.9,4.6,-52.2,4.8
Q -52.9,5.3,-53.5,6.1
Q -53.9,6.6,-54.2,7.0
 " /> 
<path  
style="fill:rgb(7,193,201)" 
d="M -69.8 -83.2
Q -69.6,-83.6,-69.5,-83.9
Q -69.3,-84.6,-69.8,-85.9
Q -69.8,-84.6,-69.8,-83.2
 " /> 
<path  
style="fill:rgb(7,193,201)" 
d="M -69.8 -86.3
Q -69.4,-86.5,-69.4,-86.9
Q -69.3,-87.4,-69.3,-90.8
Q -69.4,-90.7,-69.5,-90.7
Q -69.7,-90.6,-69.8,-86.3
 " /> 
<path  
style="fill:rgb(14,103,171)" 
d="M -32.4 -154.3
Q -30.4,-154.3,-28.4,-154.3
Q -29.0,-154.5,-29.5,-154.6
Q -30.7,-154.8,-31.5,-154.6
Q -32.0,-154.5,-32.4,-154.3
 " /> 
<path  
style="fill:rgb(4,4,4)" 
d="M 0.0 -135.7
Q 0.1,-136.3,0.2,-137.0
Q -0.0,-137.0,-0.2,-137.0
Q -0.0,-136.3,0.0,-135.7
 " /> 
<path  
style="fill:rgb(4,4,4)" 
d="M 0.0 -135.7
Q 0.2,-136.3,0.4,-137.0
Q 0.3,-137.0,0.2,-137.0
Q 0.1,-136.3,0.0,-135.7
 " /> 
<path  
style="fill:rgb(4,4,4)" 
d="M 0.0 -135.7
Q 2.0,-135.7,2.3,-135.6
Q 2.3,-136.2,2.4,-136.8
Q 1.4,-136.9,0.4,-137.0
Q 0.2,-136.3,0.0,-135.7
 " /> 
<path  
style="fill:rgb(7,193,201)" 
d="M 0.0 -135.7
Q -0.2,-135.3,0.1,-135.3
Q 0.3,-135.2,2.2,-135.2
Q 2.2,-135.4,2.3,-135.6
Q 2.0,-135.7,0.0,-135.7
 " /> 
<path  
style="fill:rgb(4,4,4)" 
d="M 0.0 -135.7
Q -0.0,-136.3,-0.0,-137.0
Q -1.0,-137.0,-2.0,-136.9
Q -4.5,-136.9,-4.7,-137.4
Q -4.8,-137.6,-4.9,-137.9
Q -5.2,-137.1,-5.5,-136.3
Q -3.9,-135.7,0.0,-135.7
 " /> 
<path  
style="fill:rgb(14,103,171)" 
d="M 24.9 -150.3
Q 26.0,-150.3,27.1,-150.3
Q 25.8,-150.9,24.9,-150.3
 " /> 
<path  
style="fill:rgb(7,193,201)" 
d="M 77.8 -75.7
Q 77.8,-74.4,77.8,-73.2
Q 77.7,-70.7,78.0,-70.7
Q 78.1,-70.8,78.2,-70.8
Q 78.2,-75.3,78.2,-75.5
Q 78.1,-75.8,77.8,-75.7
 " /> 
<path  
style="fill:rgb(7,193,201)" 
d="M 78.2 -66.8
Q 78.1,-66.7,78.0,-66.7
Q 77.8,-66.6,77.8,-65.6
Q 77.8,-65.1,77.8,-64.6
Q 78.0,-64.6,78.2,-64.6
Q 78.2,-65.7,78.2,-66.8
 " /> 
<path  
style="fill:rgb(14,103,171)" 
d="M 77.8 -64.6
Q 77.8,-63.2,77.8,-61.9
Q 77.9,-61.9,78.0,-62.0
Q 78.2,-62.0,78.2,-64.6
Q 78.0,-64.6,77.8,-64.6
 " /> 
<path  
style="fill:rgb(14,103,171)" 
d="M 12.4 1.2
Q 11.3,1.2,10.2,1.2
Q 10.5,1.3,10.9,1.5
Q 11.5,1.7,12.4,1.2
 " /> 
<path  
style="fill:rgb(14,103,171)" 
d="M 4.9 1.7
Q 2.4,1.7,0.0,1.7
Q 0.7,1.8,1.3,1.9
Q 2.7,2.1,3.8,1.9
Q 4.3,1.8,4.9,1.7
 " /> 
<path  
style="fill:rgb(14,103,171)" 
d="M -13.8 -7.2
Q -14.1,-7.0,-14.4,-6.8
Q -15.1,-6.3,-16.0,-5.0
Q -14.7,-5.9,-14.2,-6.6
Q -14.0,-6.9,-13.8,-7.2
 " /> 
<path  
style="fill:rgb(4,4,4)" 
d="M -96.4 -42.3
Q -96.1,-42.1,-95.8,-41.9
Q -95.1,-41.4,-94.7,-40.8
Q -94.4,-40.4,-94.2,-40.1
Q -74.4,-26.6,-61.6,-24.1
Q -59.3,-23.6,-57.6,-23.2
Q -55.8,-22.8,-53.9,-22.6
Q -53.0,-22.5,-52.0,-22.4
Q -56.3,-28.4,-57.9,-31.3
Q -58.8,-32.8,-59.6,-34.3
Q -69.8,-34.3,-85.7,-45.6
Q -93.3,-51.0,-93.3,-52.5
Q -93.3,-53.6,-90.6,-51.0
Q -88.6,-49.1,-85.1,-46.7
Q -71.4,-37.1,-63.1,-36.0
Q -61.8,-35.9,-60.4,-35.7
Q -64.9,-46.8,-67.1,-53.9
Q -69.3,-61.0,-69.5,-62.1
Q -69.7,-62.7,-69.8,-63.2
Q -74.6,-64.6,-79.1,-68.2
Q -85.6,-73.4,-89.3,-79.7
Q -92.3,-84.9,-91.2,-84.5
Q -90.7,-84.3,-89.1,-81.7
Q -82.4,-70.6,-69.8,-64.1
Q -71.1,-70.8,-71.3,-73.7
Q -71.4,-75.1,-71.6,-76.6
Q -71.7,-76.9,-71.8,-77.2
Q -72.0,-77.9,-71.6,-79.2
Q -71.6,-79.5,-71.6,-79.7
Q -76.6,-80.9,-82.5,-91.0
Q -87.2,-98.9,-86.5,-102.1
Q -86.2,-103.6,-85.0,-99.5
Q -82.3,-90.6,-73.1,-82.0
Q -72.6,-82.6,-72.0,-83.2
Q -72.0,-86.1,-71.8,-86.2
Q -71.7,-86.3,-71.6,-86.3
Q -71.6,-89.7,-71.6,-93.0
Q -71.6,-95.0,-71.1,-95.2
Q -71.1,-95.5,-71.1,-95.7
Q -72.4,-96.9,-73.8,-98.1
Q -76.4,-100.6,-78.6,-105.1
Q -81.5,-111.0,-81.3,-112.3
Q -81.0,-113.7,-79.4,-109.4
Q -76.6,-102.2,-73.3,-99.0
Q -72.2,-98.0,-71.1,-97.0
Q -71.1,-98.1,-70.9,-98.2
Q -70.8,-98.3,-70.7,-98.3
Q -70.4,-99.6,-70.2,-100.8
Q -69.8,-103.2,-68.7,-106.8
Q -68.1,-108.6,-67.6,-110.3
Q -68.1,-111.2,-68.7,-112.1
Q -71.1,-116.0,-71.1,-121.6
Q -71.1,-124.6,-70.7,-124.3
Q -70.2,-124.1,-70.2,-122.2
Q -70.2,-115.6,-68.0,-112.8
Q -67.5,-112.2,-67.1,-111.7
Q -64.0,-117.9,-62.2,-120.7
Q -60.3,-123.4,-60.9,-123.6
Q -64.1,-124.6,-64.3,-128.5
Q -64.4,-129.7,-64.4,-130.8
Q -64.6,-131.1,-64.7,-131.4
Q -64.9,-132.1,-64.4,-133.5
Q -64.4,-137.0,-64.4,-140.6
Q -64.4,-144.8,-64.4,-145.3
Q -64.3,-145.7,-64.0,-145.9
Q -64.1,-148.0,-64.2,-150.1
Q -64.9,-163.0,-69.9,-150.2
Q -73.3,-141.8,-75.6,-124.9
Q -76.5,-118.7,-78.1,-120.3
Q -78.7,-120.9,-78.7,-121.6
Q -78.7,-122.0,-78.7,-122.3
Q -78.8,-122.3,-78.9,-122.3
Q -79.2,-122.2,-79.1,-124.3
Q -79.1,-125.3,-79.1,-126.3
Q -79.1,-128.8,-79.1,-131.2
Q -79.5,-131.1,-79.6,-131.4
Q -79.6,-131.6,-79.6,-133.4
Q -79.6,-134.5,-79.6,-135.7
Q -80.4,-138.3,-80.7,-138.3
Q -81.7,-138.3,-83.1,-128.8
Q -84.4,-120.4,-85.0,-119.6
Q -87.3,-116.8,-89.8,-131.2
Q -90.5,-135.4,-93.0,-144.2
Q -95.7,-153.2,-98.2,-154.5
Q -100.7,-155.9,-101.7,-149.1
Q -102.0,-147.5,-102.2,-145.9
Q -102.1,-145.9,-102.0,-146.0
Q -101.8,-146.0,-101.8,-145.8
Q -101.7,-145.5,-101.8,-141.9
Q -100.9,-135.2,-99.8,-130.7
Q -98.8,-126.1,-97.3,-121.7
Q -92.2,-105.6,-93.9,-103.8
Q -94.3,-103.5,-95.7,-104.0
Q -99.0,-105.3,-104.9,-119.6
Q -108.4,-128.2,-109.6,-126.9
Q -111.4,-125.0,-111.8,-116.8
Q -111.9,-113.8,-112.0,-110.8
Q -111.9,-110.8,-111.7,-110.9
Q -111.5,-111.0,-111.6,-108.6
Q -111.3,-107.1,-111.1,-105.7
Q -108.5,-88.6,-94.6,-68.3
Q -89.8,-61.3,-91.3,-60.1
Q -91.9,-59.6,-93.3,-59.7
Q -93.9,-59.8,-94.4,-59.9
Q -95.6,-60.1,-97.8,-61.9
Q -102.0,-64.0,-107.4,-67.1
Q -116.7,-72.3,-105.3,-53.7
Q -101.9,-48.1,-98.1,-44.1
Q -97.3,-43.2,-96.4,-42.3
 " /> 
<path  
style="fill:rgb(14,103,171)" 
d="M -96.4 -42.3
Q -95.5,-41.0,-94.2,-40.1
Q -94.4,-40.4,-94.7,-40.8
Q -95.1,-41.4,-95.8,-41.9
Q -96.1,-42.1,-96.4,-42.3
 " /> 
<path  
style="fill:rgb(14,103,171)" 
d="M -97.8 -61.9
Q -95.6,-60.1,-94.4,-59.9
Q -93.9,-59.8,-93.3,-59.7
Q -93.8,-59.9,-94.2,-60.1
Q -95.1,-60.5,-96.4,-61.2
Q -97.1,-61.6,-97.8,-61.9
 " /> 
<path  
style="fill:rgb(14,103,171)" 
d="M -111.6 -108.6
Q -111.5,-111.0,-111.7,-110.9
Q -111.9,-110.8,-112.0,-110.8
Q -112.0,-108.9,-111.9,-108.6
Q -111.9,-108.4,-111.6,-108.6
 " /> 
<path  
style="fill:rgb(14,103,171)" 
d="M -101.8 -141.9
Q -101.7,-145.5,-101.8,-145.8
Q -101.8,-146.0,-102.0,-146.0
Q -102.1,-145.9,-102.2,-145.9
Q -102.2,-142.2,-102.2,-142.0
Q -102.1,-141.7,-101.8,-141.9
 " /> 
<path  
style="fill:rgb(14,103,171)" 
d="M -79.6 -135.7
Q -79.6,-134.5,-79.6,-133.4
Q -79.6,-131.6,-79.6,-131.4
Q -79.5,-131.1,-79.1,-131.2
Q -79.1,-135.4,-79.2,-135.6
Q -79.2,-135.8,-79.6,-135.7
 " /> 
<path  
style="fill:rgb(14,103,171)" 
d="M -79.1 -126.3
Q -79.1,-125.3,-79.1,-124.3
Q -79.2,-122.2,-78.9,-122.3
Q -78.8,-122.3,-78.7,-122.3
Q -78.7,-126.0,-78.7,-126.3
Q -78.8,-126.5,-79.1,-126.3
 " /> 
<path  
style="fill:rgb(14,103,171)" 
d="M -64.0 -145.9
Q -64.3,-145.7,-64.4,-145.3
Q -64.4,-144.8,-64.4,-140.6
Q -64.3,-140.6,-64.3,-140.6
Q -64.1,-140.7,-64.0,-143.3
Q -64.0,-144.6,-64.0,-145.9
 " /> 
<path  
style="fill:rgb(14,103,171)" 
d="M -64.4 -133.5
Q -64.9,-132.1,-64.7,-131.4
Q -64.6,-131.1,-64.4,-130.8
Q -64.4,-132.1,-64.4,-133.5
 " /> 
<path  
style="fill:rgb(97,247,248)" 
d="M -67.1 -111.7
Q -67.3,-111.0,-67.6,-110.3
Q -67.5,-110.4,-67.4,-110.4
Q -67.2,-110.5,-67.1,-111.1
Q -67.1,-111.4,-67.1,-111.7
 " /> 
<path  
style="fill:rgb(97,247,248)" 
d="M -67.1 -111.7
Q -67.5,-112.2,-68.0,-112.8
Q -70.2,-115.6,-70.2,-122.2
Q -70.2,-124.1,-70.7,-124.3
Q -71.1,-124.6,-71.1,-121.6
Q -71.1,-116.0,-68.7,-112.1
Q -68.1,-111.2,-67.6,-110.3
Q -67.3,-111.0,-67.1,-111.7
 " /> 
<path  
style="fill:rgb(14,103,171)" 
d="M -70.7 -98.3
Q -70.9,-97.7,-71.1,-97.0
Q -70.9,-97.0,-70.7,-97.0
Q -70.7,-97.5,-70.7,-98.3
 " /> 
<path  
style="fill:rgb(14,103,171)" 
d="M -70.7 -98.3
Q -70.8,-98.3,-70.9,-98.2
Q -71.1,-98.1,-71.1,-97.0
Q -70.9,-97.7,-70.7,-98.3
 " /> 
<path  
style="fill:rgb(14,103,171)" 
d="M -71.1 -97.0
Q -71.1,-96.3,-71.1,-95.7
Q -71.0,-95.7,-70.9,-95.7
Q -70.8,-95.8,-70.7,-97.0
Q -70.9,-97.0,-71.1,-97.0
 " /> 
<path  
style="fill:rgb(97,247,248)" 
d="M -71.1 -97.0
Q -72.2,-98.0,-73.3,-99.0
Q -76.6,-102.2,-79.4,-109.4
Q -81.0,-113.7,-81.3,-112.3
Q -81.5,-111.0,-78.6,-105.1
Q -76.4,-100.6,-73.8,-98.1
Q -72.4,-96.9,-71.1,-95.7
Q -71.1,-96.3,-71.1,-97.0
 " /> 
<path  
style="fill:rgb(14,103,171)" 
d="M -71.1 -95.2
Q -71.6,-95.0,-71.6,-93.0
Q -71.5,-93.0,-71.4,-93.1
Q -71.2,-93.2,-71.1,-94.2
Q -71.1,-94.7,-71.1,-95.2
 " /> 
<path  
style="fill:rgb(14,103,171)" 
d="M -71.6 -86.3
Q -71.7,-86.3,-71.8,-86.2
Q -72.0,-86.1,-72.0,-83.2
Q -71.9,-83.3,-71.8,-83.3
Q -71.6,-83.4,-71.6,-84.9
Q -71.6,-85.6,-71.6,-86.3
 " /> 
<path  
style="fill:rgb(7,193,201)" 
d="M -72.0 -83.2
Q -72.6,-82.6,-73.1,-82.0
Q -72.6,-81.5,-72.0,-81.0
Q -72.0,-82.1,-72.0,-83.2
 " /> 
<path  
style="fill:rgb(4,4,4)" 
d="M -72.0 -81.0
Q -72.0,-80.8,-72.0,-80.6
Q -72.1,-80.1,-71.8,-79.9
Q -71.7,-79.8,-71.6,-79.7
Q -71.8,-80.3,-72.0,-81.0
 " /> 
<path  
style="fill:rgb(97,247,248)" 
d="M -72.0 -81.0
Q -72.6,-81.5,-73.1,-82.0
Q -82.3,-90.6,-85.0,-99.5
Q -86.2,-103.6,-86.5,-102.1
Q -87.2,-98.9,-82.5,-91.0
Q -76.6,-80.9,-71.6,-79.7
Q -71.7,-79.8,-71.8,-79.9
Q -72.1,-80.1,-72.0,-80.6
Q -72.0,-80.8,-72.0,-81.0
 " /> 
<path  
style="fill:rgb(14,103,171)" 
d="M -71.6 -79.2
Q -72.0,-77.9,-71.8,-77.2
Q -71.7,-76.9,-71.6,-76.6
Q -71.6,-77.9,-71.6,-79.2
 " /> 
<path  
style="fill:rgb(97,247,248)" 
d="M -69.8 -64.1
Q -82.4,-70.6,-89.1,-81.7
Q -90.7,-84.3,-91.2,-84.5
Q -92.3,-84.9,-89.3,-79.7
Q -85.6,-73.4,-79.1,-68.2
Q -74.6,-64.6,-69.8,-63.2
Q -69.8,-63.7,-69.8,-64.1
 " /> 
<path  
style="fill:rgb(97,247,248)" 
d="M -60.4 -35.7
Q -61.8,-35.9,-63.1,-36.0
Q -71.4,-37.1,-85.1,-46.7
Q -88.6,-49.1,-90.6,-51.0
Q -93.3,-53.6,-93.3,-52.5
Q -93.3,-51.0,-85.7,-45.6
Q -69.8,-34.3,-59.6,-34.3
Q -60.0,-35.0,-60.4,-35.7
 " /> 
<path  
style="fill:rgb(7,193,201)" 
d="M -4.9 -137.9
Q -4.2,-137.8,-3.6,-137.7
Q -2.2,-137.4,-0.9,-137.2
Q -0.3,-137.1,0.2,-137.0
Q 0.3,-137.0,0.4,-137.0
Q 1.4,-136.9,2.4,-136.8
Q 2.5,-136.8,2.7,-136.8
Q 4.9,-136.6,6.1,-138.7
Q 7.4,-140.9,10.2,-144.1
Q 11.5,-145.7,12.4,-146.5
Q 12.9,-146.8,13.3,-147.2
Q 14.4,-148.1,15.6,-149.0
Q 19.5,-152.2,21.3,-156.8
Q 22.1,-159.0,23.8,-163.0
Q 27.2,-171.5,28.1,-178.5
Q 27.3,-177.8,26.6,-177.0
Q 23.6,-173.9,18.6,-162.7
Q 16.2,-157.2,15.7,-158.6
Q 15.1,-160.2,18.7,-167.2
Q 20.4,-170.6,16.0,-174.3
Q 14.4,-174.3,12.9,-174.3
Q 12.1,-171.7,11.3,-169.0
Q 9.1,-161.5,8.0,-162.7
Q 7.4,-163.2,9.2,-168.5
Q 10.9,-173.9,10.4,-173.9
Q 9.8,-173.9,9.8,-174.5
Q 9.8,-175.1,10.6,-175.7
Q 11.9,-176.7,13.6,-184.5
Q 14.3,-187.4,14.8,-191.4
Q 14.4,-191.1,14.1,-190.8
Q 13.4,-190.1,12.2,-186.6
Q 9.7,-179.0,8.8,-175.0
Q 7.9,-170.7,6.7,-171.9
Q 6.3,-172.4,7.4,-176.6
Q 10.1,-187.0,4.0,-191.8
Q 3.5,-192.3,3.3,-189.8
Q 3.2,-188.7,3.1,-187.7
Q 3.2,-187.0,3.3,-186.3
Q 3.6,-185.0,3.3,-183.9
Q 3.2,-183.3,3.1,-182.8
Q 3.1,-181.7,3.1,-180.6
Q 3.2,-180.1,3.3,-179.6
Q 3.3,-179.5,3.3,-179.5
Q 3.6,-178.3,3.1,-176.1
Q 3.1,-170.3,2.2,-170.5
Q 1.3,-170.7,1.6,-172.8
Q 1.7,-173.8,1.8,-174.8
Q 1.7,-175.3,1.6,-175.8
Q 1.6,-175.8,1.5,-175.9
Q 1.3,-177.0,1.5,-178.1
Q 1.7,-178.7,1.8,-179.2
Q 1.8,-179.9,1.8,-180.6
Q 1.8,-181.7,1.8,-182.8
Q 1.3,-182.6,1.3,-184.9
Q 1.3,-186.1,1.3,-187.2
Q 1.3,-189.2,1.3,-191.2
Q 1.2,-191.2,1.1,-191.1
Q 0.9,-191.1,0.9,-191.4
Q 0.8,-191.6,0.9,-194.3
Q -1.2,-213.3,-3.0,-210.4
Q -4.2,-208.6,-4.9,-202.3
Q -4.9,-199.0,-5.1,-198.9
Q -5.2,-198.8,-5.3,-198.8
Q -5.3,-192.6,-5.3,-186.3
Q -5.2,-186.4,-5.1,-186.4
Q -4.8,-186.5,-4.9,-181.9
Q -4.9,-180.3,-4.9,-178.8
Q -4.8,-178.8,-4.6,-178.9
Q -4.4,-178.9,-4.4,-176.4
Q -4.4,-175.2,-4.4,-173.9
Q -4.7,-173.6,-4.9,-173.2
Q -5.3,-172.6,-5.8,-172.8
Q -6.2,-173.0,-6.2,-176.1
Q -6.6,-176.0,-6.7,-176.3
Q -6.7,-176.5,-6.7,-180.1
Q -6.7,-181.7,-6.7,-183.2
Q -7.2,-183.1,-7.1,-184.7
Q -7.1,-184.7,-7.1,-184.7
Q -7.1,-185.5,-7.1,-186.3
Q -7.1,-189.5,-7.1,-192.6
Q -7.6,-192.2,-8.1,-191.8
Q -9.0,-191.1,-9.6,-189.6
Q -9.9,-188.9,-10.2,-188.1
Q -10.2,-185.7,-10.2,-183.2
Q -8.4,-176.1,-8.2,-174.1
Q -7.9,-172.1,-8.5,-172.1
Q -9.2,-172.1,-10.2,-175.6
Q -13.1,-185.6,-15.2,-191.9
Q -15.6,-188.9,-15.1,-185.9
Q -13.0,-173.4,-11.3,-166.8
Q -9.7,-160.1,-10.8,-160.1
Q -11.8,-160.1,-13.7,-168.8
Q -16.2,-179.7,-16.9,-179.4
Q -20.1,-178.2,-20.7,-175.9
Q -21.1,-174.5,-13.8,-162.1
Q -10.4,-156.3,-11.8,-156.6
Q -13.4,-157.0,-18.9,-167.0
Q -19.9,-168.9,-20.8,-170.4
Q -21.7,-171.9,-23.7,-175.9
Q -25.7,-179.9,-29.3,-186.3
Q -29.6,-186.5,-29.9,-186.6
Q -30.5,-186.9,-30.6,-185.3
Q -30.6,-184.5,-30.7,-183.7
Q -30.6,-182.5,-30.4,-181.2
Q -29.3,-169.2,-25.9,-160.4
Q -24.3,-156.2,-20.6,-154.5
Q -17.7,-153.1,-15.9,-151.7
Q -15.1,-151.0,-14.2,-150.3
Q -13.9,-150.1,-13.6,-149.9
Q -12.9,-149.4,-12.0,-148.1
Q -10.9,-146.8,-9.8,-145.5
Q -7.5,-142.8,-6.2,-140.4
Q -5.5,-139.1,-4.9,-137.9
 " /> 
<path  
style="fill:rgb(14,103,171)" 
d="M -4.9 -137.9
Q -4.8,-137.6,-4.7,-137.4
Q -4.5,-136.9,-2.0,-136.9
Q -1.0,-137.0,-0.0,-137.0
Q 0.2,-137.0,0.4,-137.0
Q 0.2,-137.0,0.2,-137.0
Q -0.3,-137.1,-0.9,-137.2
Q -2.2,-137.4,-3.6,-137.7
Q -4.2,-137.8,-4.9,-137.9
 " /> 
<path  
style="fill:rgb(14,103,171)" 
d="M -12.0 -148.1
Q -12.9,-149.4,-13.6,-149.9
Q -13.9,-150.1,-14.2,-150.3
Q -14.0,-150.0,-13.8,-149.7
Q -13.3,-149.0,-12.0,-148.1
 " /> 
<path  
style="fill:rgb(14,103,171)" 
d="M -30.7 -183.7
Q -30.6,-184.5,-30.6,-185.3
Q -30.5,-186.9,-29.9,-186.6
Q -29.6,-186.5,-29.3,-186.3
Q -29.7,-186.7,-30.0,-187.0
Q -30.7,-187.7,-31.0,-186.8
Q -31.3,-186.0,-31.0,-184.8
Q -30.8,-184.2,-30.7,-183.7
 " /> 
<path  
style="fill:rgb(14,103,171)" 
d="M -10.2 -183.2
Q -10.2,-185.7,-10.2,-188.1
Q -10.3,-187.5,-10.5,-186.8
Q -10.7,-185.5,-10.5,-184.3
Q -10.3,-183.8,-10.2,-183.2
 " /> 
<path  
style="fill:rgb(14,103,171)" 
d="M -7.1 -186.3
Q -7.1,-185.5,-7.1,-184.7
Q -6.9,-184.0,-6.7,-183.2
Q -6.7,-185.8,-6.7,-186.2
Q -6.7,-186.2,-6.7,-186.3
Q -6.8,-186.5,-7.1,-186.3
 " /> 
<path  
style="fill:rgb(4,4,4)" 
d="M -6.7 -183.2
Q -6.0,-183.2,-5.3,-183.2
Q -5.3,-184.3,-5.3,-186.3
Q -6.0,-186.3,-6.7,-186.2
Q -6.7,-185.8,-6.7,-183.2
 " /> 
<path  
style="fill:rgb(4,4,4)" 
d="M -6.7 -183.2
Q -6.7,-181.7,-6.7,-180.1
Q -6.3,-180.3,-6.3,-180.1
Q -6.2,-179.9,-6.2,-178.8
Q -5.6,-178.8,-4.9,-178.8
Q -4.9,-180.3,-4.9,-181.9
Q -5.2,-181.7,-5.3,-182.0
Q -5.3,-182.1,-5.3,-183.2
Q -6.0,-183.2,-6.7,-183.2
 " /> 
<path  
style="fill:rgb(14,103,171)" 
d="M -6.7 -183.2
Q -6.9,-184.0,-7.1,-184.7
Q -7.1,-184.7,-7.1,-184.7
Q -7.2,-183.1,-6.7,-183.2
 " /> 
<path  
style="fill:rgb(14,103,171)" 
d="M -6.7 -180.1
Q -6.7,-176.5,-6.7,-176.3
Q -6.6,-176.0,-6.2,-176.1
Q -6.2,-177.2,-6.2,-178.2
Q -6.2,-178.5,-6.2,-178.8
Q -6.2,-179.9,-6.3,-180.1
Q -6.3,-180.3,-6.7,-180.1
 " /> 
<path  
style="fill:rgb(4,4,4)" 
d="M -6.2 -176.1
Q -5.5,-176.1,-4.9,-176.1
Q -4.9,-177.2,-4.9,-178.8
Q -5.6,-178.8,-6.2,-178.8
Q -6.2,-178.5,-6.2,-178.2
Q -6.2,-177.2,-6.2,-176.1
 " /> 
<path  
style="fill:rgb(4,4,4)" 
d="M -6.2 -176.1
Q -6.2,-173.0,-5.8,-172.8
Q -5.3,-172.6,-4.9,-173.2
Q -4.7,-173.6,-4.4,-173.9
Q -4.8,-173.7,-4.8,-174.0
Q -4.9,-174.1,-4.9,-176.1
Q -5.5,-176.1,-6.2,-176.1
 " /> 
<path  
style="fill:rgb(14,103,171)" 
d="M -4.4 -173.9
Q -4.4,-175.2,-4.4,-176.4
Q -4.4,-178.9,-4.6,-178.9
Q -4.8,-178.8,-4.9,-178.8
Q -4.9,-177.2,-4.9,-176.1
Q -4.9,-174.1,-4.8,-174.0
Q -4.8,-173.7,-4.4,-173.9
 " /> 
<path  
style="fill:rgb(14,103,171)" 
d="M -4.9 -181.9
Q -4.8,-186.5,-5.1,-186.4
Q -5.2,-186.4,-5.3,-186.3
Q -5.3,-184.3,-5.3,-183.2
Q -5.3,-182.1,-5.3,-182.0
Q -5.2,-181.7,-4.9,-181.9
 " /> 
<path  
style="fill:rgb(14,103,171)" 
d="M -5.3 -198.8
Q -5.2,-198.8,-5.1,-198.9
Q -4.9,-199.0,-4.9,-202.3
Q -5.0,-202.3,-5.1,-202.3
Q -5.3,-202.2,-5.3,-200.5
Q -5.3,-199.6,-5.3,-198.8
 " /> 
<path  
style="fill:rgb(14,103,171)" 
d="M 0.9 -194.3
Q 0.8,-191.6,0.9,-191.4
Q 0.9,-191.1,1.1,-191.1
Q 1.2,-191.2,1.3,-191.2
Q 1.3,-194.0,1.3,-194.3
Q 1.2,-194.5,0.9,-194.3
 " /> 
<path  
style="fill:rgb(14,103,171)" 
d="M 1.3 -187.2
Q 1.3,-186.1,1.3,-184.9
Q 1.3,-182.6,1.8,-182.8
Q 1.8,-186.9,1.7,-187.2
Q 1.7,-187.2,1.7,-187.2
Q 1.6,-187.4,1.3,-187.2
 " /> 
<path  
style="fill:rgb(4,4,4)" 
d="M 1.8 -182.8
Q 2.4,-182.8,3.1,-182.8
Q 3.1,-185.2,3.1,-187.7
Q 2.4,-187.4,1.7,-187.2
Q 1.7,-187.2,1.7,-187.2
Q 1.8,-186.9,1.8,-182.8
 " /> 
<path  
style="fill:rgb(4,4,4)" 
d="M 1.8 -182.8
Q 1.8,-181.7,1.8,-180.6
Q 2.4,-180.6,3.1,-180.6
Q 3.1,-181.7,3.1,-182.8
Q 2.4,-182.8,1.8,-182.8
 " /> 
<path  
style="fill:rgb(4,4,4)" 
d="M 1.8 -179.2
Q 2.4,-179.2,3.1,-179.2
Q 3.1,-179.7,3.1,-180.2
Q 2.4,-179.4,1.8,-179.2
 " /> 
<path  
style="fill:rgb(4,4,4)" 
d="M 1.8 -179.2
Q 1.8,-177.7,1.8,-176.1
Q 2.4,-176.1,3.1,-176.1
Q 3.1,-177.7,3.1,-179.2
Q 2.4,-179.2,1.8,-179.2
 " /> 
<path  
style="fill:rgb(14,103,171)" 
d="M 1.8 -179.2
Q 1.7,-178.7,1.5,-178.1
Q 1.3,-177.0,1.5,-175.9
Q 1.6,-175.8,1.6,-175.8
Q 1.7,-175.8,1.8,-175.8
Q 1.8,-176.3,1.8,-176.8
Q 1.8,-177.7,1.8,-179.2
 " /> 
<path  
style="fill:rgb(4,4,4)" 
d="M 1.8 -179.2
Q 2.4,-179.4,3.1,-179.5
Q 3.1,-180.0,3.1,-180.6
Q 2.4,-180.6,1.8,-180.6
Q 1.8,-179.9,1.8,-179.2
 " /> 
<path  
style="fill:rgb(4,4,4)" 
d="M 1.8 -174.8
Q 1.7,-173.8,1.6,-172.8
Q 1.3,-170.7,2.2,-170.5
Q 3.1,-170.3,3.1,-176.1
Q 2.4,-176.0,1.8,-175.8
Q 1.8,-175.3,1.8,-174.8
 " /> 
<path  
style="fill:rgb(14,103,171)" 
d="M 1.8 -174.8
Q 1.8,-175.3,1.8,-175.8
Q 1.7,-175.8,1.6,-175.8
Q 1.7,-175.3,1.8,-174.8
 " /> 
<path  
style="fill:rgb(4,4,4)" 
d="M 3.1 -176.1
Q 2.4,-176.1,1.8,-176.1
Q 1.8,-175.6,1.8,-175.1
Q 2.4,-176.0,3.1,-176.1
 " /> 
<path  
style="fill:rgb(14,103,171)" 
d="M 3.1 -176.1
Q 3.6,-178.3,3.3,-179.5
Q 3.3,-179.5,3.3,-179.6
Q 3.2,-179.5,3.1,-179.5
Q 3.1,-179.0,3.1,-178.5
Q 3.1,-177.7,3.1,-176.1
 " /> 
<path  
style="fill:rgb(14,103,171)" 
d="M 3.1 -180.6
Q 3.1,-180.0,3.1,-179.5
Q 3.2,-179.5,3.3,-179.6
Q 3.2,-180.1,3.1,-180.6
 " /> 
<path  
style="fill:rgb(14,103,171)" 
d="M 3.1 -182.8
Q 3.2,-183.3,3.3,-183.9
Q 3.6,-185.0,3.3,-186.3
Q 3.2,-187.0,3.1,-187.7
Q 3.1,-185.2,3.1,-182.8
 " /> 
<path  
style="fill:rgb(14,103,171)" 
d="M 12.9 -174.3
Q 14.4,-174.3,16.0,-174.3
Q 14.2,-174.8,13.6,-174.6
Q 13.2,-174.5,12.9,-174.3
 " /> 
<path  
style="fill:rgb(14,103,171)" 
d="M 13.3 -147.2
Q 12.9,-146.8,12.4,-146.5
Q 11.5,-145.7,10.2,-144.1
Q 12.0,-145.5,13.3,-147.2
 " /> 
</g> 
</svg> 
