<?xml version="1.0"?>
<!DOCTYPE svg PUBLIC "-//W3C//DTD SVG 1.1//EN" "http://www.w3.org/Graphics/SVG/1.1/DTD/svg11.dtd">
<svg xmlns="http://www.w3.org/2000/svg" version="1.1">
<g transform="translate(112.1,227.3)" stroke-width="0" fill="none" >
<path  
style="fill:rgb(4,4,4)" 
d="M 24.6 220.8
Q 27.8,222.0,30.7,216.8
Q 31.3,215.8,33.9,212.7
Q 36.6,209.6,38.0,207.7
Q 39.4,205.9,41.1,203.9
Q 43.3,201.4,45.8,198.2
Q 48.3,194.9,50.3,192.6
Q 53.8,188.5,61.1,177.3
Q 78.1,151.0,70.8,132.9
Q 67.5,124.5,53.4,112.9
Q 44.5,105.7,40.8,98.6
Q 37.4,92.3,37.0,82.2
Q 36.9,79.3,36.8,76.3
Q 37.4,76.7,38.1,77.2
Q 41.8,79.8,49.2,80.3
Q 53.4,80.5,54.4,80.1
Q 55.4,79.6,56.9,78.9
Q 66.1,74.8,63.2,60.8
Q 61.6,53.3,48.4,29.9
Q 37.2,10.0,31.1,-6.8
Q 29.7,-10.7,28.6,-12.3
Q 27.5,-13.9,27.7,-14.1
Q 27.9,-14.4,30.3,-14.6
Q 32.7,-14.8,34.7,-10.7
Q 38.3,-3.2,40.8,-3.2
Q 44.1,-3.2,44.7,-8.1
Q 45.6,-15.4,44.4,-19.1
Q 43.9,-20.6,46.1,-22.8
Q 48.2,-24.9,48.5,-24.9
Q 48.8,-24.9,49.4,-23.3
Q 54.6,-10.6,58.6,-14.9
Q 62.2,-18.7,60.2,-31.2
Q 59.7,-34.0,62.2,-36.3
Q 64.7,-38.7,67.1,-38.9
Q 72.2,-39.5,79.8,-42.0
Q 86.7,-44.4,89.6,-46.4
Q 90.5,-47.0,93.6,-49.1
Q 103.9,-55.9,109.3,-66.3
Q 111.2,-70.0,111.5,-73.0
Q 112.0,-80.8,103.1,-72.1
Q 99.9,-69.0,100.1,-70.1
Q 101.6,-77.0,110.9,-91.4
Q 124.4,-112.2,121.2,-121.5
Q 119.0,-128.2,109.9,-116.0
Q 108.3,-113.9,108.1,-114.0
Q 108.0,-114.1,109.6,-118.7
Q 118.3,-144.4,114.9,-157.5
Q 112.1,-168.0,106.0,-160.9
Q 103.9,-158.4,100.2,-147.4
Q 97.1,-138.2,96.7,-138.1
Q 96.1,-138.0,94.7,-141.9
Q 86.0,-166.2,78.8,-168.0
Q 75.2,-168.9,74.4,-164.9
Q 74.1,-163.8,74.1,-156.0
Q 74.0,-148.1,73.5,-147.6
Q 72.6,-146.7,68.0,-150.7
Q 64.0,-154.1,63.3,-153.2
Q 62.1,-151.6,63.6,-148.2
Q 65.9,-143.0,64.7,-143.4
Q 62.9,-144.0,60.0,-146.7
Q 57.0,-149.6,55.1,-149.1
Q 53.1,-148.5,54.6,-145.4
Q 56.5,-141.7,52.6,-140.8
Q 50.5,-140.3,49.5,-144.9
Q 46.6,-158.9,36.0,-164.8
Q 29.8,-168.2,24.6,-168.0
Q 23.0,-167.9,21.5,-167.8
Q 21.8,-168.9,22.2,-170.0
Q 31.2,-195.4,26.6,-197.8
Q 23.5,-199.5,19.9,-189.7
Q 19.2,-187.9,18.1,-189.8
Q 16.4,-192.9,13.0,-192.9
Q 11.6,-192.9,11.9,-194.6
Q 14.3,-210.7,11.0,-210.7
Q 8.6,-210.7,7.5,-205.4
Q 6.7,-201.4,5.5,-203.8
Q 3.8,-207.6,0.3,-209.2
Q -1.1,-209.9,-2.1,-214.2
Q -4.6,-224.8,-6.7,-226.3
Q -12.0,-230.2,-12.0,-219.0
Q -12.0,-214.5,-11.6,-211.6
Q -11.2,-208.8,-11.9,-208.3
Q -14.4,-206.8,-15.4,-203.0
Q -16.0,-204.1,-16.5,-205.2
Q -18.6,-209.1,-20.6,-208.4
Q -22.5,-207.6,-19.9,-199.3
Q -18.6,-195.1,-20.6,-194.4
Q -22.2,-193.8,-23.3,-192.5
Q -24.0,-191.6,-24.3,-191.7
Q -24.7,-191.7,-29.9,-200.2
Q -31.1,-202.0,-33.4,-203.0
Q -34.2,-203.3,-34.9,-201.6
Q -36.1,-198.7,-34.2,-190.9
Q -33.7,-189.2,-33.5,-187.6
Q -33.3,-186.1,-32.9,-185.2
Q -32.5,-184.3,-32.0,-182.3
Q -30.7,-177.4,-28.8,-173.8
Q -27.1,-170.8,-27.4,-170.6
Q -27.6,-170.5,-30.5,-170.6
Q -43.9,-171.2,-47.7,-151.7
Q -48.3,-148.5,-50.8,-145.9
Q -53.2,-143.3,-54.7,-141.4
Q -59.8,-135.1,-57.6,-153.6
Q -55.4,-172.2,-59.4,-173.2
Q -63.1,-174.1,-66.8,-165.2
Q -69.4,-158.9,-70.3,-153.4
Q -70.7,-150.5,-71.4,-148.3
Q -71.7,-147.2,-72.0,-146.1
Q -72.0,-155.7,-74.5,-156.7
Q -78.1,-158.1,-80.8,-139.8
Q -81.0,-141.1,-81.3,-142.3
Q -81.7,-144.6,-81.9,-149.5
Q -82.7,-149.4,-83.6,-149.4
Q -83.6,-148.1,-83.6,-146.7
Q -83.8,-142.0,-82.0,-137.0
Q -80.0,-131.5,-77.8,-145.2
Q -76.4,-153.4,-75.1,-153.4
Q -74.3,-153.4,-74.3,-145.1
Q -74.2,-136.1,-73.6,-135.4
Q -72.1,-133.8,-70.7,-141.6
Q -70.2,-144.3,-69.5,-146.9
Q -68.9,-149.6,-68.2,-153.2
Q -66.9,-159.7,-64.0,-166.1
Q -61.5,-171.5,-60.1,-171.2
Q -59.8,-171.1,-59.1,-168.9
Q -58.8,-169.1,-58.7,-168.9
Q -58.7,-168.6,-58.7,-166.3
Q -58.7,-164.7,-58.7,-163.2
Q -58.7,-161.1,-59.1,-160.9
Q -59.1,-159.2,-59.1,-157.4
Q -59.2,-155.3,-59.4,-155.2
Q -59.5,-155.2,-59.6,-155.2
Q -59.7,-154.4,-59.8,-153.6
Q -60.0,-152.1,-60.0,-149.8
Q -60.0,-148.7,-60.0,-147.6
Q -60.0,-144.9,-60.0,-142.3
Q -60.0,-141.8,-60.1,-141.4
Q -60.2,-139.3,-57.8,-138.1
Q -56.9,-137.6,-58.4,-135.3
Q -60.0,-132.9,-63.6,-126.3
Q -63.6,-125.8,-63.6,-125.4
Q -66.3,-119.2,-66.9,-115.6
Q -67.2,-113.8,-67.6,-112.1
Q -67.6,-111.6,-67.6,-111.2
Q -68.4,-104.5,-68.9,-100.5
Q -69.1,-98.5,-69.3,-96.5
Q -69.3,-95.8,-69.3,-95.2
Q -69.3,-92.9,-69.3,-90.7
Q -69.3,-86.3,-68.9,-83.2
Q -68.7,-81.6,-68.4,-80.1
Q -68.4,-79.8,-68.4,-79.6
Q -68.0,-76.1,-67.1,-72.8
Q -64.5,-62.8,-62.0,-55.4
Q -61.2,-53.1,-60.4,-50.7
Q -59.6,-49.8,-59.6,-49.4
Q -59.6,-49.2,-59.6,-48.9
Q -56.3,-42.1,-54.4,-39.4
Q -52.5,-36.7,-52.6,-36.6
Q -52.7,-36.6,-57.3,-37.6
Q -72.8,-41.3,-89.1,-53.8
Q -90.6,-54.9,-92.0,-56.1
Q -92.9,-56.8,-93.8,-57.6
Q -95.5,-59.2,-98.7,-62.7
Q -99.6,-64.2,-100.6,-65.6
Q -105.3,-72.6,-108.1,-79.3
Q -111.2,-86.7,-108.5,-86.1
Q -107.1,-85.9,-101.9,-82.7
Q -91.5,-76.4,-90.4,-76.8
Q -88.1,-77.7,-91.6,-83.2
Q -93.4,-86.0,-94.7,-88.9
Q -96.1,-91.8,-97.6,-94.9
Q -104.5,-109.6,-105.5,-120.2
Q -105.8,-122.7,-106.2,-127.6
Q -106.2,-128.5,-106.2,-129.3
Q -106.1,-131.0,-106.0,-131.1
Q -105.9,-131.1,-105.8,-131.2
Q -105.8,-131.8,-105.8,-132.5
Q -105.8,-133.0,-105.7,-133.5
Q -105.7,-134.6,-105.5,-134.6
Q -105.4,-134.7,-105.3,-134.7
Q -105.2,-135.4,-105.1,-136.1
Q -103.6,-143.5,-101.7,-145.6
Q -100.3,-147.0,-99.2,-143.8
Q -98.7,-142.4,-96.4,-133.4
Q -94.0,-123.4,-91.2,-121.3
Q -89.5,-120.2,-88.9,-122.7
Q -88.9,-124.5,-88.9,-126.3
Q -90.7,-133.8,-92.0,-140.1
Q -92.7,-143.2,-93.3,-146.3
Q -93.7,-146.1,-93.7,-146.3
Q -93.8,-146.6,-93.8,-148.5
Q -93.8,-148.8,-93.8,-149.2
Q -93.7,-149.8,-93.8,-151.2
Q -94.1,-151.0,-94.2,-151.2
Q -94.2,-151.5,-94.2,-153.4
Q -94.2,-153.8,-94.2,-154.3
Q -94.2,-155.2,-94.2,-158.3
Q -94.2,-159.8,-94.2,-161.4
Q -94.2,-162.0,-94.2,-162.6
Q -94.1,-163.9,-94.0,-164.0
Q -93.9,-164.0,-93.8,-164.1
Q -93.3,-166.8,-92.5,-168.9
Q -90.0,-175.3,-87.3,-169.2
Q -85.3,-164.6,-84.2,-153.8
Q -84.1,-152.7,-84.0,-151.6
Q -83.7,-151.8,-83.6,-151.5
Q -83.6,-151.3,-83.6,-149.4
Q -82.7,-149.4,-81.9,-149.5
Q -82.0,-149.8,-82.0,-150.1
Q -82.7,-168.1,-87.4,-172.8
Q -91.8,-177.3,-94.8,-169.0
Q -99.1,-157.2,-92.0,-131.2
Q -91.2,-128.2,-90.9,-126.9
Q -90.7,-125.6,-90.9,-123.9
Q -91.3,-124.5,-91.7,-125.1
Q -93.5,-127.9,-95.4,-138.4
Q -96.6,-145.4,-98.9,-147.5
Q -103.4,-151.5,-106.6,-139.6
Q -110.8,-124.1,-104.0,-104.1
Q -99.3,-90.4,-94.3,-82.8
Q -92.8,-80.5,-92.9,-80.3
Q -93.1,-80.1,-96.2,-82.0
Q -109.5,-90.2,-111.3,-87.8
Q -113.1,-85.6,-110.7,-79.8
Q -100.6,-54.9,-74.4,-41.7
Q -61.8,-35.3,-53.3,-34.4
Q -50.7,-34.2,-48.3,-31.6
Q -45.9,-29.0,-47.1,-27.5
Q -54.4,-18.5,-55.6,-8.7
Q -56.3,-3.2,-54.2,-0.9
Q -49.0,4.6,-38.4,-20.0
Q -37.2,-22.9,-36.9,-23.3
Q -36.5,-23.7,-35.2,-22.8
Q -34.0,-21.9,-32.3,-21.2
Q -30.5,-20.3,-31.8,-17.2
Q -36.0,-7.1,-34.6,0.8
Q -33.5,6.9,-29.2,5.1
Q -24.8,3.3,-19.3,-7.6
Q -17.0,-12.2,-16.2,-12.5
Q -13.7,-13.2,-11.8,-11.8
Q -11.6,-11.6,-13.7,-7.1
Q -16.8,-0.6,-18.0,8.5
Q -19.8,22.2,-29.0,35.5
Q -40.1,51.6,-38.2,64.6
Q -35.2,85.1,-23.4,85.0
Q -18.7,84.9,-12.3,79.3
Q -12.5,79.8,-12.6,80.3
Q -14.9,87.5,-16.1,90.1
Q -17.0,92.1,-17.8,94.1
Q -18.6,96.2,-19.8,99.1
Q -29.9,123.3,-21.6,146.3
Q -15.5,163.0,-5.6,174.1
Q -4.6,175.3,-3.1,177.3
Q -0.5,180.6,3.1,184.6
Q 16.5,199.1,19.5,204.8
Q 22.4,210.3,23.2,216.8
Q 23.7,220.5,24.6,220.8
 " /> 
<path  
style="fill:rgb(7,193,201)" 
d="M -5.3 170.6
Q -4.8,171.5,-4.0,172.4
Q -4.0,171.8,-4.0,171.3
Q -4.1,171.0,-4.1,170.5
Q -4.7,170.5,-5.3,170.6
 " /> 
<path  
style="fill:rgb(14,103,171)" 
d="M -5.3 170.6
Q -7.9,155.8,-7.3,141.4
Q -6.9,130.6,-5.3,132.2
Q -4.9,132.7,-5.3,137.1
Q -6.8,150.3,-5.0,163.6
Q -4.3,168.7,-4.1,170.5
Q -4.1,171.0,-4.0,171.3
Q -4.0,171.8,-4.0,172.4
Q -3.0,173.7,-2.0,175.1
Q 0.4,178.2,8.0,186.4
Q 11.0,189.6,12.9,191.7
Q 15.3,194.5,15.6,194.0
Q 16.5,191.7,12.8,177.3
Q 6.1,150.9,7.6,136.6
Q 8.4,129.4,9.3,131.1
Q 9.7,131.7,9.3,134.4
Q 7.1,148.9,14.2,174.8
Q 17.6,187.2,17.2,193.4
Q 16.9,196.3,19.6,200.4
Q 25.8,209.6,25.8,216.7
Q 25.8,219.4,28.0,216.3
Q 30.9,212.3,33.7,209.1
Q 35.3,207.3,36.7,205.5
Q 38.1,203.7,40.0,201.5
Q 41.9,199.3,43.7,197.0
Q 45.4,194.6,46.7,193.2
Q 49.7,189.8,51.4,182.2
Q 54.4,168.0,43.3,145.7
Q 39.9,138.8,37.2,131.8
Q 36.4,129.6,37.2,129.5
Q 37.8,129.5,39.8,133.9
Q 41.8,138.4,43.9,142.6
Q 53.2,162.2,54.0,172.6
Q 54.4,176.7,52.8,185.0
Q 79.3,149.2,65.8,128.9
Q 62.6,124.1,53.5,116.6
Q 34.2,100.7,34.6,85.9
Q 34.6,84.7,34.7,83.5
Q 33.0,83.5,32.7,83.8
Q 32.3,84.3,31.6,92.6
Q 31.1,97.9,30.3,99.0
Q 28.3,101.6,27.8,99.4
Q 25.7,89.3,25.3,89.3
Q 25.0,89.3,24.3,91.0
Q 21.8,97.2,17.4,92.5
Q 15.8,90.9,15.5,90.5
Q 15.1,90.2,14.0,91.1
Q 13.4,91.5,12.9,91.9
Q 12.9,92.2,12.9,92.4
Q 12.8,93.3,12.6,94.2
Q 12.4,95.9,12.0,98.2
Q 12.0,98.8,12.0,99.4
Q 12.0,99.4,12.0,99.4
Q 12.0,99.4,12.0,99.5
Q 12.0,104.0,9.6,107.1
Q 8.7,108.4,7.9,108.4
Q 6.8,108.4,5.5,101.9
Q 5.1,100.2,4.9,96.8
Q 4.8,95.8,4.7,94.8
Q 4.5,92.8,4.0,91.5
Q 3.8,90.8,3.6,90.2
Q 2.2,87.5,2.0,87.5
Q 1.8,87.5,-0.9,90.6
Q -0.9,90.8,-0.9,91.1
Q -1.4,92.1,-2.0,93.1
Q -3.1,95.1,-4.3,95.2
Q -6.2,95.5,-7.1,94.1
Q -9.2,90.7,-11.1,82.6
Q -11.3,82.6,-11.4,82.5
Q -14.3,90.4,-16.0,94.7
Q -22.3,110.5,-23.2,120.0
Q -25.4,143.6,-5.3,170.6
 " /> 
<path  
style="fill:rgb(14,103,171)" 
d="M 27.9 213.4
Q 27.6,213.0,28.9,209.2
Q 33.9,194.7,33.8,178.8
Q 33.8,166.4,31.9,158.8
Q 30.5,153.3,30.8,152.7
Q 31.4,150.9,32.8,156.3
Q 39.6,182.0,30.6,208.6
Q 28.6,214.5,27.9,213.4
 " /> 
<path  
style="fill:rgb(7,193,201)" 
d="M 61.2 165.8
Q 61.4,166.2,61.9,166.0
Q 62.4,165.8,62.4,161.6
Q 62.1,147.7,53.0,133.0
Q 51.0,129.7,50.4,129.7
Q 49.4,129.7,51.6,133.5
Q 60.7,148.8,60.9,162.6
Q 61.0,165.5,61.2,165.8
 " /> 
<path  
style="fill:rgb(7,193,201)" 
d="M -5.3 170.6
Q -4.7,170.5,-4.1,170.5
Q -4.3,168.7,-5.0,163.6
Q -6.8,150.3,-5.3,137.1
Q -4.9,132.7,-5.3,132.2
Q -6.9,130.6,-7.3,141.4
Q -7.9,155.8,-5.3,170.6
 " /> 
<path  
style="fill:rgb(97,247,248)" 
d="M -11.1 81.7
Q -11.1,82.2,-11.1,82.6
Q -7.2,93.3,-6.3,94.3
Q -4.6,96.0,-0.9,91.1
Q -0.9,90.8,-0.9,90.6
Q -0.3,89.6,0.2,88.6
Q 1.9,85.6,2.9,86.9
Q 3.2,87.3,3.6,90.2
Q 3.8,90.8,4.0,91.5
Q 4.5,92.8,4.7,94.8
Q 4.8,95.8,4.9,96.8
Q 6.4,102.8,7.0,105.4
Q 7.6,107.9,8.0,107.9
Q 9.7,107.9,12.0,99.5
Q 12.0,99.4,12.0,99.4
Q 12.0,99.4,12.0,99.4
Q 12.0,99.3,12.0,98.7
Q 12.0,98.4,12.0,98.2
Q 12.0,96.9,12.0,95.7
Q 11.9,93.3,12.4,92.8
Q 12.6,92.6,12.9,92.4
Q 12.9,92.2,12.9,91.9
Q 13.4,91.3,14.0,90.6
Q 15.1,89.3,16.7,91.1
Q 18.3,92.9,19.4,93.6
Q 21.5,95.0,23.9,90.5
Q 24.9,88.6,25.4,88.6
Q 26.1,88.7,28.3,98.9
Q 28.7,101.1,30.0,98.6
Q 30.7,97.2,31.2,91.1
Q 31.7,82.9,32.9,83.2
Q 33.6,83.4,33.9,83.0
Q 34.0,82.8,34.0,82.6
Q 34.1,82.2,34.2,81.7
Q 34.3,79.7,34.4,77.7
Q 34.7,73.7,33.0,71.1
Q 26.5,61.2,24.0,47.3
Q 22.9,41.5,23.8,37.8
Q 24.0,36.7,24.4,35.9
Q 28.2,27.6,26.2,12.0
Q 25.7,8.4,25.6,8.2
Q 25.2,7.7,24.4,11.9
Q 23.7,15.2,22.9,15.4
Q 22.1,15.6,22.4,13.7
Q 23.9,4.2,24.4,0.4
Q 24.7,-2.9,25.3,-2.9
Q 25.9,-2.9,26.0,0.2
Q 26.2,3.3,27.0,6.6
Q 29.2,14.9,28.8,23.3
Q 28.3,32.1,26.2,36.4
Q 25.8,37.3,25.3,38.2
Q 25.3,40.2,25.3,42.2
Q 25.4,43.2,25.5,44.2
Q 25.8,46.2,26.2,48.6
Q 26.4,49.8,26.7,51.1
Q 38.9,40.1,41.9,38.4
Q 43.3,37.7,45.7,37.4
Q 46.2,37.3,46.7,37.3
Q 47.6,37.1,48.0,37.7
Q 48.6,38.1,49.1,38.4
Q 50.2,39.0,50.7,39.3
Q 50.9,39.4,51.1,39.5
Q 47.9,33.6,44.7,27.7
Q 34.5,9.1,31.6,0.4
Q 27.2,-12.6,24.8,-13.3
Q 24.1,-13.5,22.1,-12.9
Q 15.8,-11.1,10.2,-10.8
Q 9.1,-10.8,8.0,-10.7
Q 6.9,-10.7,5.8,-10.7
Q -6.2,-11.2,-7.8,-11.3
Q -9.4,-11.4,-11.6,-7.1
Q -14.9,-0.9,-15.6,5.1
Q -17.3,19.1,-21.3,27.1
Q -23.1,30.6,-27.6,37.3
Q -27.6,38.2,-26.0,37.9
Q -24.4,37.6,-22.2,38.6
Q -20.0,39.6,-15.6,38.2
Q -15.3,38.2,-15.1,38.2
Q -14.6,38.1,-14.0,37.9
Q -12.9,37.7,-11.4,39.3
Q -9.8,40.9,-7.7,41.2
Q -5.0,41.5,-1.8,44.2
Q -1.1,44.7,-0.4,45.3
Q -0.2,43.1,0.0,40.8
Q 0.4,36.4,-0.9,33.6
Q -3.6,28.2,-4.2,20.0
Q -4.2,19.0,-4.3,17.9
Q -4.5,10.4,-4.9,6.8
Q -5.6,1.6,-4.8,1.4
Q -4.1,1.2,-3.6,4.5
Q -3.0,7.7,-1.9,11.5
Q -0.0,18.1,-1.1,18.3
Q -2.0,18.4,-2.1,17.2
Q -2.2,16.6,-2.2,15.9
Q -2.3,16.0,-2.4,16.0
Q -2.6,16.0,-2.6,18.0
Q -2.7,19.0,-2.7,19.9
Q -1.3,29.8,1.4,34.4
Q 2.8,36.6,3.0,37.7
Q 3.2,38.8,2.6,38.4
Q 1.9,38.0,1.4,41.9
Q 1.1,43.8,0.9,45.7
Q 0.9,47.0,0.4,47.1
Q 0.2,48.3,0.0,49.5
Q -1.2,56.2,-3.8,62.8
Q -4.8,65.5,-5.5,67.5
Q -6.1,69.5,-7.5,72.3
Q -8.9,75.0,-11.1,81.7
 " /> 
<path  
style="fill:rgb(14,103,171)" 
d="M -11.1 81.7
Q -11.3,82.1,-11.4,82.5
Q -11.3,82.6,-11.1,82.6
Q -11.1,82.2,-11.1,81.7
 " /> 
<path  
style="fill:rgb(7,193,201)" 
d="M -11.1 82.6
Q -9.2,90.7,-7.1,94.1
Q -6.2,95.5,-4.3,95.2
Q -3.1,95.1,-2.0,93.1
Q -1.4,92.1,-0.9,91.1
Q -4.6,96.0,-6.3,94.3
Q -7.2,93.3,-11.1,82.6
 " /> 
<path  
style="fill:rgb(7,193,201)" 
d="M -0.9 90.6
Q 1.8,87.5,2.0,87.5
Q 2.2,87.5,3.6,90.2
Q 3.2,87.3,2.9,86.9
Q 1.9,85.6,0.2,88.6
Q -0.3,89.6,-0.9,90.6
 " /> 
<path  
style="fill:rgb(7,193,201)" 
d="M 4.9 96.8
Q 5.1,100.2,5.5,101.9
Q 6.8,108.4,7.9,108.4
Q 8.7,108.4,9.6,107.1
Q 12.0,104.0,12.0,99.5
Q 9.7,107.9,8.0,107.9
Q 7.6,107.9,7.0,105.4
Q 6.4,102.8,4.9,96.8
 " /> 
<path  
style="fill:rgb(7,193,201)" 
d="M 12.0 98.2
Q 12.4,95.9,12.6,94.2
Q 12.8,93.3,12.9,92.4
Q 12.6,92.6,12.4,92.8
Q 11.9,93.3,12.0,95.7
Q 12.0,96.9,12.0,98.2
 " /> 
<path  
style="fill:rgb(7,193,201)" 
d="M 12.9 91.9
Q 13.4,91.5,14.0,91.1
Q 15.1,90.2,15.5,90.5
Q 15.8,90.9,17.4,92.5
Q 21.8,97.2,24.3,91.0
Q 25.0,89.3,25.3,89.3
Q 25.7,89.3,27.8,99.4
Q 28.3,101.6,30.3,99.0
Q 31.1,97.9,31.6,92.6
Q 32.3,84.3,32.7,83.8
Q 33.0,83.5,34.7,83.5
Q 34.3,83.2,33.9,83.0
Q 33.6,83.4,32.9,83.2
Q 31.7,82.9,31.2,91.1
Q 30.7,97.2,30.0,98.6
Q 28.7,101.1,28.3,98.9
Q 26.1,88.7,25.4,88.6
Q 24.9,88.6,23.9,90.5
Q 21.5,95.0,19.4,93.6
Q 18.3,92.9,16.7,91.1
Q 15.1,89.3,14.0,90.6
Q 13.4,91.3,12.9,91.9
 " /> 
<path  
style="fill:rgb(7,193,201)" 
d="M 34.7 83.5
Q 34.7,81.6,34.2,81.7
Q 34.1,82.2,34.0,82.6
Q 34.0,82.8,33.9,83.0
Q 34.3,83.2,34.7,83.5
 " /> 
<path  
style="fill:rgb(14,103,171)" 
d="M 0.4 47.1
Q -0.2,46.4,-0.8,45.8
Q -1.0,46.1,-1.3,45.6
Q -4.1,41.7,-7.7,41.7
Q -9.4,41.7,-11.3,39.9
Q -13.3,38.1,-14.2,38.1
Q -14.6,38.1,-15.1,38.2
Q -15.3,38.2,-15.6,38.2
Q -17.8,39.5,-19.1,39.7
Q -20.4,40.0,-22.3,39.0
Q -24.2,38.1,-26.1,38.3
Q -28.0,38.6,-28.0,37.7
Q -33.3,46.6,-34.5,49.8
Q -35.0,51.3,-35.4,53.4
Q -34.7,53.5,-34.0,53.6
Q -32.3,47.8,-31.4,48.1
Q -30.5,48.5,-32.0,52.1
Q -33.0,54.6,-33.7,54.6
Q -34.3,54.6,-34.0,53.6
Q -34.7,53.5,-35.4,53.4
Q -36.1,56.8,-36.1,61.7
Q -36.1,63.7,-35.7,63.5
Q -35.6,63.5,-34.4,61.1
Q -32.9,58.4,-28.6,53.1
Q -22.5,45.4,-23.2,48.1
Q -23.4,48.7,-27.5,54.0
Q -36.6,65.6,-34.4,72.2
Q -32.2,78.9,-27.7,81.7
Q -27.0,82.1,-26.2,82.6
Q -26.3,79.4,-26.4,76.2
Q -26.8,67.2,-25.3,69.3
Q -25.1,69.7,-25.0,70.6
Q -25.0,71.4,-25.8,82.6
Q -19.2,82.6,-15.3,78.7
Q -13.5,77.0,-13.9,72.1
Q -15.2,53.4,-13.7,53.0
Q -13.0,52.8,-12.7,63.1
Q -12.4,74.5,-11.8,74.5
Q -10.4,74.3,-9.0,69.9
Q -8.3,67.3,-7.3,66.2
Q -5.8,64.4,-2.2,51.9
Q -1.1,48.1,-0.8,47.7
Q -0.6,47.2,0.4,47.1
 " /> 
<path  
style="fill:rgb(7,193,201)" 
d="M -8.6 60.1
Q -8.4,62.1,-8.3,62.3
Q -7.3,63.7,-7.5,57.6
Q -7.6,53.1,-8.0,52.6
Q -9.6,51.0,-8.6,60.1
 " /> 
<path  
style="fill:rgb(14,103,171)" 
d="M 0.4 47.1
Q 0.5,46.4,0.5,45.7
Q -0.1,45.7,-0.4,45.3
Q -0.6,45.5,-0.7,45.7
Q -0.7,45.8,-0.8,45.8
Q -0.2,46.4,0.4,47.1
 " /> 
<path  
style="fill:rgb(14,103,171)" 
d="M 0.4 47.1
Q 0.9,47.0,0.9,45.7
Q 0.7,45.7,0.5,45.7
Q 0.5,46.4,0.4,47.1
 " /> 
<path  
style="fill:rgb(4,4,4)" 
d="M 0.9 45.7
Q 1.1,43.8,1.4,41.9
Q 1.9,38.0,2.6,38.4
Q 3.2,38.8,3.0,37.7
Q 2.8,36.6,1.4,34.4
Q -1.3,29.8,-2.7,19.9
Q -3.4,20.0,-4.2,20.0
Q -3.6,28.2,-0.9,33.6
Q 0.4,36.4,0.0,40.8
Q -0.2,43.1,-0.4,45.3
Q -0.1,45.7,0.5,45.7
Q 0.7,45.7,0.9,45.7
 " /> 
<path  
style="fill:rgb(4,4,4)" 
d="M -2.7 19.9
Q -2.9,15.4,-2.6,15.7
Q -2.4,15.8,-2.2,15.9
Q -2.2,16.6,-2.1,17.2
Q -2.0,18.4,-1.1,18.3
Q -0.0,18.1,-1.9,11.5
Q -3.0,7.7,-3.6,4.5
Q -4.1,1.2,-4.8,1.4
Q -5.6,1.6,-4.9,6.8
Q -4.5,10.4,-4.3,17.9
Q -4.2,19.0,-4.2,20.0
Q -3.4,20.0,-2.7,19.9
 " /> 
<path  
style="fill:rgb(7,193,201)" 
d="M -2.7 19.9
Q -2.7,19.0,-2.6,18.0
Q -2.6,16.0,-2.4,16.0
Q -2.3,16.0,-2.2,15.9
Q -2.4,15.8,-2.6,15.7
Q -2.9,15.4,-2.7,19.9
 " /> 
<path  
style="fill:rgb(7,193,201)" 
d="M -0.4 45.3
Q -1.1,44.7,-1.8,44.2
Q -5.0,41.5,-7.7,41.2
Q -9.8,40.9,-11.4,39.3
Q -12.9,37.7,-14.0,37.9
Q -14.6,38.1,-15.1,38.2
Q -14.6,38.1,-14.2,38.1
Q -13.3,38.1,-11.3,39.9
Q -9.4,41.7,-7.7,41.7
Q -4.1,41.7,-1.3,45.6
Q -1.0,46.1,-0.8,45.8
Q -0.7,45.8,-0.7,45.7
Q -0.6,45.5,-0.4,45.3
 " /> 
<path  
style="fill:rgb(7,193,201)" 
d="M -15.6 38.2
Q -20.0,39.6,-22.2,38.6
Q -24.4,37.6,-26.0,37.9
Q -27.6,38.2,-27.6,37.3
Q -27.8,37.3,-28.0,37.7
Q -28.0,38.6,-26.1,38.3
Q -24.2,38.1,-22.3,39.0
Q -20.4,40.0,-19.1,39.7
Q -17.8,39.5,-15.6,38.2
 " /> 
<path  
style="fill:rgb(14,103,171)" 
d="M 5.8 -10.7
Q 6.9,-10.7,8.0,-10.7
Q 7.7,-10.8,7.4,-11.0
Q 6.7,-11.2,6.2,-11.0
Q 6.0,-10.8,5.8,-10.7
 " /> 
<path  
style="fill:rgb(7,193,201)" 
d="M 51.1 39.5
Q 50.9,39.8,50.8,40.2
Q 51.4,40.5,52.0,40.8
Q 51.6,40.2,51.1,39.5
 " /> 
<path  
style="fill:rgb(7,193,201)" 
d="M 51.1 39.5
Q 50.9,39.4,50.7,39.3
Q 50.2,39.0,49.1,38.4
Q 48.6,38.1,48.0,37.7
Q 49.3,39.5,50.7,40.2
Q 50.7,40.2,50.8,40.2
Q 50.9,39.8,51.1,39.5
 " /> 
<path  
style="fill:rgb(14,103,171)" 
d="M 48.0 37.7
Q 47.6,37.1,46.7,37.3
Q 46.2,37.3,45.7,37.4
Q 41.6,38.1,34.4,44.9
Q 31.1,48.0,27.1,51.5
Q 27.6,53.2,28.0,54.8
Q 28.9,58.2,31.3,63.3
Q 33.8,68.4,36.9,71.9
Q 36.7,70.9,36.4,69.9
Q 36.0,67.9,35.8,65.4
Q 35.6,62.8,35.2,60.7
Q 34.8,58.6,35.2,58.3
Q 36.2,57.7,37.1,63.3
Q 38.5,72.4,37.3,72.4
Q 37.1,72.4,36.9,72.4
Q 40.4,75.9,42.5,76.6
Q 44.6,77.3,48.1,77.8
Q 43.6,69.1,39.3,55.8
Q 38.2,52.2,39.1,52.2
Q 39.6,52.2,40.4,54.4
Q 42.8,61.4,43.8,63.7
Q 44.4,65.1,45.3,67.5
Q 49.0,78.2,51.5,78.2
Q 60.2,78.2,61.5,68.1
Q 61.8,65.9,58.2,61.7
Q 45.0,46.5,47.7,47.1
Q 48.7,47.3,57.6,58.3
Q 61.1,62.6,61.2,62.4
Q 61.8,61.8,56.4,49.7
Q 56.4,50.4,56.3,50.3
Q 56.1,50.3,54.6,49.1
Q 54.4,48.9,54.2,48.8
Q 52.4,47.3,52.3,47.0
Q 51.8,45.9,55.6,47.9
Q 55.1,47.1,54.7,46.2
Q 53.8,44.4,52.9,42.6
Q 52.4,41.7,52.0,40.8
Q 51.4,40.5,50.8,40.2
Q 50.7,40.2,50.7,40.2
Q 49.3,39.5,48.0,37.7
 " /> 
<path  
style="fill:rgb(7,193,201)" 
d="M 57.0 74.5
Q 57.4,75.1,57.9,75.1
Q 59.2,75.1,56.1,69.3
Q 51.3,60.3,50.7,61.5
Q 50.4,62.2,52.6,66.0
Q 54.1,68.6,55.3,71.3
Q 56.6,73.9,57.0,74.5
 " /> 
<path  
style="fill:rgb(7,193,201)" 
d="M 26.7 51.1
Q 26.7,51.6,27.1,51.5
Q 31.1,48.0,34.4,44.9
Q 41.6,38.1,45.7,37.4
Q 43.3,37.7,41.9,38.4
Q 38.9,40.1,26.7,51.1
 " /> 
<path  
style="fill:rgb(7,193,201)" 
d="M 25.3 42.2
Q 25.3,40.2,25.3,38.2
Q 25.2,38.7,25.1,39.3
Q 24.9,40.4,25.3,42.2
 " /> 
<path  
style="fill:rgb(4,4,4)" 
d="M 25.3 38.2
Q 25.8,37.3,26.2,36.4
Q 28.3,32.1,28.8,23.3
Q 29.2,14.9,27.0,6.6
Q 26.2,3.3,26.0,0.2
Q 25.9,-2.9,25.3,-2.9
Q 24.7,-2.9,24.4,0.4
Q 23.9,4.2,22.4,13.7
Q 22.1,15.6,22.9,15.4
Q 23.7,15.2,24.4,11.9
Q 25.2,7.7,25.6,8.2
Q 25.7,8.4,26.2,12.0
Q 28.2,27.6,24.4,35.9
Q 24.0,36.7,23.8,37.8
Q 24.5,38.0,25.3,38.2
 " /> 
<path  
style="fill:rgb(7,193,201)" 
d="M -25.8 82.6
Q -25.0,71.4,-25.0,70.6
Q -25.1,69.7,-25.3,69.3
Q -26.8,67.2,-26.4,76.2
Q -26.3,79.4,-26.2,82.6
Q -26.0,82.6,-25.8,82.6
 " /> 
<path  
style="fill:rgb(7,193,201)" 
d="M 36.9 71.9
Q 36.9,72.2,36.9,72.4
Q 37.1,72.4,37.3,72.4
Q 38.5,72.4,37.1,63.3
Q 36.2,57.7,35.2,58.3
Q 34.8,58.6,35.2,60.7
Q 35.6,62.8,35.8,65.4
Q 36.0,67.9,36.4,69.9
Q 36.7,70.9,36.9,71.9
 " /> 
<path  
style="fill:rgb(7,193,201)" 
d="M 55.6 47.9
Q 55.1,48.5,54.6,49.1
Q 56.1,50.3,56.3,50.3
Q 56.4,50.4,56.4,49.7
Q 56.3,49.5,56.2,49.3
Q 56.0,48.8,55.8,48.4
Q 55.7,48.2,55.6,47.9
 " /> 
<path  
style="fill:rgb(7,193,201)" 
d="M 55.6 47.9
Q 51.8,45.9,52.3,47.0
Q 52.4,47.3,54.2,48.8
Q 54.4,48.9,54.6,49.1
Q 55.1,48.5,55.6,47.9
 " /> 
<path  
style="fill:rgb(7,193,201)" 
d="M -34.0 53.6
Q -34.3,54.6,-33.7,54.6
Q -33.0,54.6,-32.0,52.1
Q -30.5,48.5,-31.4,48.1
Q -32.3,47.8,-34.0,53.6
 " /> 
<path  
style="fill:rgb(7,193,201)" 
d="M -67.1 -88.1
Q -67.1,-85.7,-67.1,-85.5
Q -67.0,-85.2,-66.7,-85.4
Q -66.6,-86.1,-66.6,-86.8
Q -66.9,-87.4,-67.1,-88.1
 " /> 
<path  
style="fill:rgb(97,247,248)" 
d="M -67.1 -88.1
Q -67.0,-88.1,-66.9,-88.1
Q -66.6,-88.2,-66.6,-86.8
Q -66.6,-86.8,-66.6,-86.8
Q -66.6,-86.1,-66.7,-85.4
Q -65.5,-75.7,-62.9,-66.3
Q -57.1,-45.5,-46.7,-33.7
Q -45.6,-32.4,-44.5,-31.2
Q -43.4,-32.8,-42.2,-34.4
Q -38.9,-39.0,-39.0,-36.9
Q -39.0,-36.2,-41.1,-33.2
Q -43.2,-30.1,-44.8,-27.6
Q -46.3,-25.2,-47.9,-23.0
Q -55.7,-11.7,-53.4,-4.0
Q -51.7,1.5,-45.9,-9.4
Q -40.8,-18.9,-38.5,-24.7
Q -37.9,-26.1,-35.4,-29.5
Q -32.9,-32.9,-32.4,-32.9
Q -31.2,-32.9,-33.9,-28.9
Q -35.5,-26.5,-35.0,-26.0
Q -30.1,-21.8,-29.4,-23.7
Q -29.0,-24.7,-28.2,-27.1
Q -27.5,-29.4,-26.7,-29.2
Q -25.6,-28.9,-27.1,-25.0
Q -28.1,-22.5,-28.2,-21.6
Q -28.4,-20.7,-29.1,-19.0
Q -33.6,-8.1,-32.7,-0.6
Q -31.3,10.4,-20.9,-9.2
Q -19.0,-12.7,-18.5,-14.1
Q -16.9,-18.0,-13.0,-21.9
Q -12.1,-22.7,-11.7,-21.6
Q -11.4,-20.9,-12.3,-19.9
Q -13.2,-18.9,-15.1,-15.7
Q -8.8,-14.4,0.9,-13.4
Q 2.2,-13.4,3.6,-13.4
Q 5.7,-13.5,7.8,-13.6
Q 16.1,-14.0,24.0,-16.0
Q 27.8,-17.0,29.6,-17.2
Q 30.6,-17.4,31.5,-17.5
Q 30.5,-19.5,29.5,-21.4
Q 27.5,-25.4,28.2,-25.7
Q 28.9,-25.9,29.3,-25.5
Q 29.7,-25.1,34.0,-16.7
Q 38.4,-8.3,41.2,-5.2
Q 41.6,-6.1,42.0,-6.9
Q 45.6,-14.6,36.1,-32.6
Q 35.9,-33.0,36.6,-32.9
Q 38.2,-32.5,41.6,-25.7
Q 42.7,-23.5,43.5,-24.2
Q 44.3,-24.8,46.0,-26.2
Q 47.1,-27.1,47.3,-27.7
Q 47.4,-28.3,45.8,-32.5
Q 44.0,-37.5,44.4,-38.0
Q 45.2,-38.8,46.9,-34.5
Q 48.1,-31.4,49.0,-29.4
Q 49.9,-27.4,50.7,-25.4
Q 56.4,-10.6,58.2,-20.0
Q 60.0,-29.7,54.7,-41.2
Q 53.3,-44.2,53.8,-44.7
Q 54.5,-45.4,57.1,-40.2
Q 58.5,-37.5,58.9,-37.4
Q 59.9,-37.1,63.4,-41.3
Q 72.5,-51.9,74.6,-62.1
Q 74.9,-63.3,75.1,-64.5
Q 75.1,-65.6,75.1,-66.7
Q 75.1,-69.3,75.6,-69.4
Q 75.6,-72.1,75.6,-74.7
Q 75.4,-74.7,75.3,-74.7
Q 75.1,-74.6,75.1,-76.7
Q 75.1,-77.7,75.1,-78.7
Q 73.8,-92.1,72.0,-101.2
Q 66.4,-130.1,47.0,-140.5
Q 42.1,-143.2,43.1,-144.3
Q 43.8,-145.0,48.1,-142.8
Q 47.9,-143.5,47.8,-144.3
Q 45.2,-158.2,33.5,-163.7
Q 21.0,-169.5,11.6,-158.4
Q 9.8,-156.2,5.3,-150.7
Q 5.0,-150.6,4.7,-150.5
Q 4.1,-150.3,3.1,-150.6
Q 2.9,-150.6,2.7,-150.7
Q 0.2,-150.7,-2.2,-150.7
Q -3.6,-150.7,-4.9,-150.7
Q -7.1,-152.5,-8.2,-154.5
Q -9.3,-156.5,-11.3,-158.7
Q -12.3,-159.8,-13.3,-160.9
Q -13.7,-161.2,-14.0,-161.4
Q -14.6,-161.8,-15.1,-162.5
Q -15.3,-162.8,-15.6,-163.2
Q -16.4,-163.7,-17.3,-164.3
Q -22.4,-167.4,-29.3,-168.5
Q -31.1,-168.5,-32.9,-168.5
Q -36.5,-167.7,-38.7,-166.3
Q -39.6,-165.0,-40.2,-164.5
Q -40.6,-164.3,-40.9,-164.1
Q -41.6,-162.9,-42.2,-161.8
Q -45.5,-156.3,-46.1,-150.7
Q -46.5,-145.8,-47.9,-145.8
Q -48.7,-145.8,-50.0,-144.2
Q -51.3,-142.6,-51.3,-141.7
Q -51.3,-140.9,-52.9,-139.5
Q -58.8,-134.2,-63.6,-119.9
Q -65.6,-113.8,-67.1,-92.9
Q -67.1,-91.6,-67.1,-90.3
Q -67.1,-89.2,-67.1,-88.1
 " /> 
<path  
style="fill:rgb(4,4,4)" 
d="M 18.6 -25.8
Q 21.8,-23.8,21.8,-25.2
Q 21.8,-25.5,21.4,-25.9
Q 16.3,-31.8,2.2,-28.5
Q -3.3,-27.2,-2.1,-26.0
Q -1.8,-25.7,0.8,-26.4
Q 12.8,-29.7,18.6,-25.8
 " /> 
<path  
style="fill:rgb(4,4,4)" 
d="M -1.0 -47.2
Q -0.5,-45.8,1.5,-49.4
Q 2.8,-51.8,4.4,-54.2
Q 6.8,-57.8,5.6,-57.8
Q 4.2,-57.8,0.3,-50.7
Q -1.2,-47.8,-1.0,-47.2
 " /> 
<path  
style="fill:rgb(4,4,4)" 
d="M 13.1 -50.8
Q 15.1,-46.7,15.8,-46.7
Q 16.9,-46.7,14.3,-51.9
Q 11.2,-58.1,10.4,-57.3
Q 10.0,-56.9,13.1,-50.8
 " /> 
<path  
style="fill:rgb(4,4,4)" 
d="M 34.2 -56.5
Q 36.6,-56.6,36.5,-56.3
Q 36.5,-56.2,36.4,-56.1
Q 44.0,-57.4,47.6,-59.8
Q 49.3,-61.0,53.8,-64.5
Q 54.0,-64.8,54.2,-65.1
Q 54.7,-65.8,55.3,-66.3
Q 55.7,-66.5,56.0,-66.7
Q 58.7,-69.8,60.0,-72.4
Q 63.0,-77.8,64.2,-86.7
Q 64.3,-87.6,64.4,-88.5
Q 64.3,-89.1,64.2,-89.6
Q 64.0,-90.7,64.4,-92.9
Q 63.1,-100.9,62.3,-103.3
Q 59.1,-111.9,52.9,-120.1
Q 51.6,-121.0,51.1,-121.6
Q 50.9,-121.9,50.7,-122.3
Q 44.8,-127.0,40.3,-124.7
Q 39.0,-124.1,36.9,-122.7
Q 36.7,-122.4,36.4,-122.1
Q 36.0,-121.5,35.3,-121.0
Q 35.0,-120.7,34.7,-120.5
Q 26.8,-109.1,21.6,-93.3
Q 19.2,-86.0,17.6,-81.4
Q 13.2,-68.1,14.4,-68.1
Q 15.1,-68.1,17.0,-73.5
Q 17.5,-72.4,18.0,-71.3
Q 23.6,-58.9,32.1,-57.0
Q 33.2,-56.7,34.2,-56.5
 " /> 
<path  
style="fill:rgb(31,181,0)" 
d="M 37.8 -59.2
Q 36.2,-59.2,34.7,-59.2
Q 35.1,-59.0,35.5,-58.9
Q 36.4,-58.7,37.1,-58.9
Q 37.4,-59.0,37.8,-59.2
 " /> 
<path  
style="fill:rgb(115,250,3)" 
d="M 37.8 -59.2
Q 40.9,-59.6,43.6,-60.8
Q 46.3,-62.1,53.3,-68.1
Q 53.6,-68.4,53.8,-68.7
Q 54.3,-69.3,54.9,-69.8
Q 55.2,-70.0,55.6,-70.3
Q 55.8,-70.7,56.0,-71.2
Q 56.4,-72.1,57.3,-73.4
Q 57.9,-74.7,58.7,-75.6
Q 59.1,-76.8,59.6,-78.1
Q 60.5,-80.5,61.3,-84.9
Q 61.3,-87.5,61.8,-87.6
Q 61.7,-89.9,61.6,-92.3
Q 61.2,-100.4,56.9,-109.2
Q 48.8,-125.7,40.6,-122.2
Q 39.6,-121.8,38.7,-121.4
Q 37.3,-119.7,36.0,-118.7
Q 29.4,-108.4,25.4,-98.0
Q 18.3,-79.1,19.3,-75.6
Q 19.7,-74.5,20.0,-73.4
Q 20.9,-72.1,22.2,-69.4
Q 22.7,-68.6,23.1,-67.8
Q 27.0,-60.9,32.7,-59.6
Q 33.7,-59.4,34.7,-59.2
Q 36.2,-59.2,37.8,-59.2
 " /> 
<path  
style="fill:rgb(115,250,3)" 
d="M 41.3 -88.5
Q 44.4,-89.3,46.0,-88.7
Q 47.5,-88.0,48.5,-86.5
Q 49.7,-84.4,50.8,-83.6
Q 51.2,-84.0,51.6,-84.5
Q 50.5,-85.9,49.5,-87.4
Q 45.2,-93.6,41.3,-88.5
 " /> 
<path  
style="fill:rgb(31,181,0)" 
d="M 41.3 -88.5
Q 36.9,-82.7,35.0,-81.1
Q 30.9,-77.6,26.7,-78.3
Q 26.1,-77.6,25.6,-76.9
Q 21.8,-72.5,26.7,-69.6
Q 45.8,-58.2,56.0,-78.2
Q 61.7,-89.6,59.4,-98.9
Q 57.5,-106.8,54.6,-106.0
Q 53.4,-105.7,52.9,-105.8
Q 52.7,-105.8,52.4,-105.8
Q 55.8,-99.2,55.8,-91.6
Q 55.8,-89.4,55.5,-87.1
Q 55.0,-82.8,52.3,-84.1
Q 51.9,-84.3,51.6,-84.5
Q 52.2,-83.6,52.9,-82.7
Q 52.4,-82.8,51.9,-82.9
Q 51.4,-83.0,50.8,-83.6
Q 49.7,-84.4,48.5,-86.5
Q 47.5,-88.0,46.0,-88.7
Q 44.4,-89.3,41.3,-88.5
 " /> 
<path  
style="fill:rgb(4,4,4)" 
d="M 41.3 -88.5
Q 45.2,-93.6,49.5,-87.4
Q 50.5,-85.9,51.6,-84.5
Q 51.9,-84.3,52.3,-84.1
Q 55.0,-82.8,55.5,-87.1
Q 55.8,-89.4,55.8,-91.6
Q 55.0,-91.6,54.2,-91.6
Q 54.0,-90.4,53.8,-89.2
Q 53.3,-86.7,52.9,-86.5
Q 52.5,-86.2,51.1,-88.7
Q 45.9,-97.8,39.1,-88.8
Q 38.0,-87.3,36.9,-85.8
Q 36.6,-85.5,36.4,-85.2
Q 36.0,-84.5,35.3,-84.1
Q 35.0,-83.8,34.7,-83.6
Q 33.6,-82.7,32.4,-81.8
Q 29.4,-79.4,25.0,-80.3
Q 23.6,-80.6,23.7,-79.8
Q 23.8,-79.0,26.7,-78.3
Q 30.9,-77.6,35.0,-81.1
Q 36.9,-82.7,41.3,-88.5
 " /> 
<path  
style="fill:rgb(115,250,3)" 
d="M 51.6 -84.5
Q 51.2,-84.0,50.8,-83.6
Q 51.4,-83.0,51.9,-82.9
Q 52.4,-82.8,52.9,-82.7
Q 52.2,-83.6,51.6,-84.5
 " /> 
<path  
style="fill:rgb(4,4,4)" 
d="M 52.4 -105.8
Q 47.9,-113.6,48.6,-110.7
Q 48.8,-109.6,50.1,-106.9
Q 50.6,-106.1,51.0,-105.2
Q 51.7,-105.5,52.4,-105.8
 " /> 
<path  
style="fill:rgb(4,4,4)" 
d="M 52.4 -105.8
Q 51.7,-105.5,51.0,-105.2
Q 53.3,-100.0,53.8,-94.3
Q 53.9,-94.3,54.0,-94.3
Q 54.1,-94.4,54.2,-94.1
Q 54.3,-93.8,54.2,-91.6
Q 55.0,-91.6,55.8,-91.6
Q 55.8,-99.2,52.4,-105.8
 " /> 
<path  
style="fill:rgb(31,181,0)" 
d="M 34.7 -83.6
Q 35.0,-83.8,35.3,-84.1
Q 36.0,-84.5,36.4,-85.2
Q 36.6,-85.5,36.9,-85.8
Q 36.6,-85.6,36.2,-85.4
Q 35.6,-84.9,34.7,-83.6
 " /> 
<path  
style="fill:rgb(31,181,0)" 
d="M 54.2 -91.6
Q 54.3,-93.8,54.2,-94.1
Q 54.1,-94.4,54.0,-94.3
Q 53.9,-94.3,53.8,-94.3
Q 53.8,-92.0,53.8,-91.7
Q 53.9,-91.5,54.2,-91.6
 " /> 
<path  
style="fill:rgb(209,251,185)" 
d="M 28.0 -85.2
Q 30.1,-82.5,38.3,-90.2
Q 41.6,-93.3,44.5,-95.0
Q 47.3,-96.6,48.3,-97.7
Q 50.4,-99.8,48.2,-104.9
Q 45.6,-111.1,43.2,-112.7
Q 41.8,-113.6,41.8,-114.2
Q 41.8,-114.9,41.1,-114.3
Q 34.0,-108.3,33.6,-103.6
Q 33.5,-102.4,30.5,-96.5
Q 26.1,-87.5,28.0,-85.2
 " /> 
<path  
style="fill:rgb(31,181,0)" 
d="M 20.0 -73.4
Q 20.9,-70.7,21.6,-70.1
Q 21.9,-69.7,22.2,-69.4
Q 20.9,-72.1,20.0,-73.4
 " /> 
<path  
style="fill:rgb(31,181,0)" 
d="M 36.0 -118.7
Q 37.3,-119.7,38.7,-121.4
Q 36.9,-120.0,36.0,-118.7
 " /> 
<path  
style="fill:rgb(31,181,0)" 
d="M 61.8 -87.6
Q 61.3,-87.5,61.3,-84.9
Q 61.4,-85.0,61.5,-85.0
Q 61.7,-85.1,61.8,-87.6
 " /> 
<path  
style="fill:rgb(31,181,0)" 
d="M 58.7 -75.6
Q 57.9,-74.7,57.3,-73.4
Q 57.5,-73.5,57.7,-73.6
Q 58.1,-73.8,58.7,-75.6
 " /> 
<path  
style="fill:rgb(31,181,0)" 
d="M 55.6 -70.3
Q 55.2,-70.0,54.9,-69.8
Q 54.3,-69.3,53.8,-68.7
Q 53.6,-68.4,53.3,-68.1
Q 53.7,-68.3,54.0,-68.5
Q 54.6,-69.0,55.1,-69.6
Q 55.3,-69.9,55.6,-70.3
 " /> 
<path  
style="fill:rgb(7,193,201)" 
d="M 34.2 -56.5
Q 34.2,-56.4,34.1,-56.2
Q 34.1,-56.1,34.3,-56.0
Q 34.6,-56.0,36.4,-56.1
Q 36.5,-56.2,36.5,-56.3
Q 36.6,-56.6,34.2,-56.5
 " /> 
<path  
style="fill:rgb(7,193,201)" 
d="M 34.7 -120.5
Q 35.0,-120.7,35.3,-121.0
Q 36.0,-121.5,36.4,-122.1
Q 36.7,-122.4,36.9,-122.7
Q 36.6,-122.5,36.2,-122.3
Q 35.6,-121.8,35.1,-121.2
Q 34.9,-120.8,34.7,-120.5
 " /> 
<path  
style="fill:rgb(7,193,201)" 
d="M 50.7 -122.3
Q 50.9,-121.9,51.1,-121.6
Q 51.6,-121.0,52.9,-120.1
Q 52.0,-121.4,50.7,-122.3
 " /> 
<path  
style="fill:rgb(14,103,171)" 
d="M 64.4 -92.9
Q 64.0,-90.7,64.2,-89.6
Q 64.3,-89.1,64.4,-88.5
Q 64.4,-90.7,64.4,-92.9
 " /> 
<path  
style="fill:rgb(7,193,201)" 
d="M 56.0 -66.7
Q 55.7,-66.5,55.3,-66.3
Q 54.7,-65.8,54.2,-65.1
Q 54.0,-64.8,53.8,-64.5
Q 55.1,-65.4,56.0,-66.7
 " /> 
<path  
style="fill:rgb(4,4,4)" 
d="M -38.7 -68.9
Q -36.9,-67.6,-35.6,-65.8
Q -34.3,-64.8,-33.1,-63.8
Q -28.1,-59.7,-23.1,-58.7
Q -22.0,-58.5,-20.9,-58.3
Q -20.6,-58.4,-20.2,-58.5
Q -19.6,-58.8,-18.9,-58.5
Q -18.6,-58.4,-18.2,-58.3
Q -17.2,-58.5,-16.2,-58.7
Q -8.4,-60.4,-3.3,-69.7
Q -2.4,-71.3,-1.5,-73.0
Q -1.1,-71.2,-0.7,-69.4
Q 0.4,-64.3,1.2,-66.1
Q 1.6,-66.9,-0.2,-76.3
Q -2.7,-88.4,-5.4,-97.7
Q -10.3,-114.5,-20.0,-125.4
Q -20.3,-125.6,-20.7,-125.8
Q -21.3,-126.3,-21.8,-126.9
Q -22.0,-127.3,-22.2,-127.6
Q -23.1,-128.2,-24.0,-128.7
Q -36.4,-136.5,-45.3,-123.4
Q -48.2,-119.2,-49.4,-113.2
Q -50.1,-110.2,-50.2,-102.7
Q -50.2,-101.6,-50.2,-100.5
Q -50.1,-98.4,-50.0,-96.3
Q -49.4,-85.4,-43.3,-75.4
Q -41.3,-72.1,-38.7,-68.9
 " /> 
<path  
style="fill:rgb(31,181,0)" 
d="M -17.8 -60.9
Q -19.6,-60.9,-21.3,-60.9
Q -20.9,-60.8,-20.4,-60.7
Q -19.6,-60.5,-17.8,-60.9
 " /> 
<path  
style="fill:rgb(115,250,3)" 
d="M -17.8 -60.9
Q -14.2,-61.8,-11.1,-63.6
Q -10.7,-64.2,-10.2,-64.7
Q -9.3,-65.8,-7.6,-67.2
Q -7.0,-68.1,-6.4,-68.9
Q -2.9,-74.5,-3.0,-77.8
Q -3.2,-88.7,-11.0,-106.7
Q -22.9,-134.4,-39.1,-127.6
Q -39.5,-127.1,-39.9,-126.6
Q -40.8,-125.7,-41.7,-124.9
Q -42.2,-124.5,-42.7,-124.1
Q -45.3,-119.2,-46.4,-115.8
Q -47.6,-112.5,-47.8,-110.1
Q -47.9,-108.8,-48.0,-107.6
Q -48.0,-102.5,-48.0,-97.4
Q -47.9,-96.3,-47.8,-95.2
Q -46.8,-84.9,-38.2,-71.6
Q -35.1,-68.9,-32.4,-65.8
Q -31.6,-65.3,-30.7,-64.7
Q -26.4,-62.1,-21.3,-60.9
Q -19.6,-60.9,-17.8,-60.9
 " /> 
<path  
style="fill:rgb(4,4,4)" 
d="M -41.3 -108.9
Q -40.6,-108.7,-39.8,-108.5
Q -39.7,-109.0,-39.6,-109.4
Q -38.9,-115.5,-36.8,-118.3
Q -35.8,-119.6,-36.2,-119.9
Q -36.5,-120.2,-37.2,-119.7
Q -39.7,-118.1,-40.9,-112.5
Q -40.9,-110.5,-41.3,-110.3
Q -41.3,-109.6,-41.3,-108.9
 " /> 
<path  
style="fill:rgb(4,4,4)" 
d="M -41.3 -108.9
Q -41.3,-107.0,-41.3,-105.0
Q -41.0,-91.0,-36.7,-84.9
Q -32.9,-79.5,-29.3,-84.5
Q -28.0,-86.3,-26.2,-87.1
Q -26.4,-87.5,-26.6,-87.9
Q -26.7,-88.0,-26.7,-88.1
Q -26.7,-88.5,-25.6,-89.2
Q -23.9,-90.3,-22.0,-88.4
Q -21.8,-88.2,-21.6,-87.9
Q -22.1,-88.1,-22.7,-88.2
Q -23.9,-88.5,-25.3,-88.1
Q -26.4,-87.7,-26.6,-87.9
Q -26.4,-87.5,-26.2,-87.1
Q -25.0,-87.6,-23.5,-87.6
Q -21.1,-87.6,-16.4,-83.4
Q -12.2,-79.6,-8.0,-79.6
Q -6.2,-81.4,-9.3,-81.4
Q -11.0,-81.4,-18.7,-88.1
Q -20.4,-89.6,-22.2,-91.2
Q -22.4,-91.3,-22.7,-91.4
Q -23.1,-91.6,-25.3,-91.6
Q -26.0,-91.3,-26.6,-90.9
Q -27.9,-90.2,-29.1,-88.2
Q -29.6,-87.3,-30.2,-86.3
Q -30.7,-85.7,-31.1,-85.2
Q -32.1,-84.2,-32.7,-84.3
Q -33.0,-84.4,-33.3,-84.5
Q -34.0,-85.2,-34.7,-85.8
Q -36.6,-87.8,-38.2,-96.3
Q -38.7,-98.6,-39.1,-100.9
Q -39.2,-100.9,-39.4,-100.9
Q -39.6,-100.8,-39.6,-102.0
Q -39.6,-102.0,-39.6,-102.0
Q -39.6,-102.6,-39.6,-103.2
Q -39.6,-104.5,-39.6,-105.8
Q -40.0,-107.6,-39.8,-108.5
Q -39.8,-108.5,-39.8,-108.5
Q -40.6,-108.7,-41.3,-108.9
 " /> 
<path  
style="fill:rgb(31,181,0)" 
d="M -41.3 -108.9
Q -41.9,-108.7,-42.4,-108.5
Q -44.8,-107.6,-44.2,-100.5
Q -43.6,-92.0,-40.3,-83.2
Q -34.5,-67.9,-24.3,-66.3
Q -16.6,-65.1,-9.6,-72.4
Q -6.6,-75.6,-8.0,-79.6
Q -12.2,-79.6,-16.4,-83.4
Q -21.1,-87.6,-23.5,-87.6
Q -25.0,-87.6,-26.2,-87.1
Q -28.0,-86.3,-29.3,-84.5
Q -32.9,-79.5,-36.7,-84.9
Q -41.0,-91.0,-41.3,-105.0
Q -41.3,-107.0,-41.3,-108.9
 " /> 
<path  
style="fill:rgb(31,181,0)" 
d="M -41.3 -110.3
Q -40.9,-110.5,-40.9,-112.5
Q -41.0,-112.5,-41.1,-112.4
Q -41.3,-112.3,-41.3,-110.3
 " /> 
<path  
style="fill:rgb(31,181,0)" 
d="M -39.6 -109.4
Q -39.7,-109.0,-39.8,-108.5
Q -39.8,-108.5,-39.8,-108.5
Q -40.0,-107.6,-39.6,-105.8
Q -39.6,-107.6,-39.6,-109.4
 " /> 
<path  
style="fill:rgb(31,181,0)" 
d="M -39.6 -103.2
Q -39.6,-102.6,-39.6,-102.0
Q -39.3,-101.5,-39.1,-100.9
Q -39.1,-102.8,-39.2,-103.1
Q -39.2,-103.3,-39.6,-103.2
 " /> 
<path  
style="fill:rgb(31,181,0)" 
d="M -39.1 -100.9
Q -39.3,-101.5,-39.6,-102.0
Q -39.6,-102.0,-39.6,-102.0
Q -39.6,-100.8,-39.4,-100.9
Q -39.2,-100.9,-39.1,-100.9
 " /> 
<path  
style="fill:rgb(31,181,0)" 
d="M -33.3 -84.5
Q -33.0,-84.4,-32.7,-84.3
Q -32.1,-84.2,-31.1,-85.2
Q -30.7,-85.7,-30.2,-86.3
Q -30.7,-85.9,-31.1,-85.6
Q -32.0,-84.9,-33.3,-84.5
 " /> 
<path  
style="fill:rgb(31,181,0)" 
d="M -25.3 -91.6
Q -23.1,-91.6,-22.7,-91.4
Q -22.4,-91.3,-22.2,-91.2
Q -22.5,-91.4,-22.9,-91.7
Q -23.5,-92.2,-24.4,-91.9
Q -24.9,-91.7,-25.3,-91.6
 " /> 
<path  
style="fill:rgb(255,255,255)" 
d="M -26.7 -88.1
Q -26.6,-88.0,-26.6,-87.9
Q -26.4,-87.7,-25.3,-88.1
Q -23.9,-88.5,-22.7,-88.2
Q -22.1,-88.1,-21.6,-87.9
Q -21.8,-88.2,-22.0,-88.4
Q -23.9,-90.3,-25.6,-89.2
Q -26.7,-88.5,-26.7,-88.1
 " /> 
<path  
style="fill:rgb(209,251,185)" 
d="M -12.2 -88.2
Q -9.5,-87.0,-9.9,-88.4
Q -10.1,-89.2,-12.6,-94.7
Q -21.5,-114.4,-26.7,-113.1
Q -29.5,-112.4,-31.6,-108.5
Q -34.5,-102.7,-30.5,-97.9
Q -28.9,-96.1,-22.9,-94.3
Q -19.8,-93.4,-16.7,-91.1
Q -13.6,-88.8,-12.2,-88.2
 " /> 
<path  
style="fill:rgb(31,181,0)" 
d="M -38.2 -71.6
Q -37.5,-70.8,-36.9,-70.1
Q -35.5,-68.5,-32.4,-65.8
Q -35.1,-68.9,-38.2,-71.6
 " /> 
<path  
style="fill:rgb(31,181,0)" 
d="M -48.0 -97.4
Q -48.0,-102.5,-48.0,-107.6
Q -48.1,-106.3,-48.2,-104.9
Q -48.4,-102.3,-48.0,-97.4
 " /> 
<path  
style="fill:rgb(31,181,0)" 
d="M -42.7 -124.1
Q -42.2,-124.5,-41.7,-124.9
Q -40.8,-125.7,-39.9,-126.6
Q -39.5,-127.1,-39.1,-127.6
Q -39.7,-127.2,-40.2,-126.7
Q -41.3,-125.8,-42.0,-124.9
Q -42.3,-124.5,-42.7,-124.1
 " /> 
<path  
style="fill:rgb(31,181,0)" 
d="M -7.6 -67.2
Q -9.3,-65.8,-10.2,-64.7
Q -10.7,-64.2,-11.1,-63.6
Q -8.9,-65.4,-7.6,-67.2
 " /> 
<path  
style="fill:rgb(14,103,171)" 
d="M -38.7 -68.9
Q -37.3,-67.2,-36.4,-66.5
Q -36.0,-66.2,-35.6,-65.8
Q -36.9,-67.6,-38.7,-68.9
 " /> 
<path  
style="fill:rgb(7,193,201)" 
d="M -50.2 -100.5
Q -50.2,-101.6,-50.2,-102.7
Q -50.7,-101.4,-50.2,-100.5
 " /> 
<path  
style="fill:rgb(7,193,201)" 
d="M -22.2 -127.6
Q -22.0,-127.3,-21.8,-126.9
Q -21.3,-126.3,-20.7,-125.8
Q -20.3,-125.6,-20.0,-125.4
Q -20.2,-125.7,-20.5,-126.0
Q -20.9,-126.7,-22.2,-127.6
 " /> 
<path  
style="fill:rgb(14,103,171)" 
d="M -18.2 -58.3
Q -18.6,-58.4,-18.9,-58.5
Q -19.6,-58.8,-20.2,-58.5
Q -20.6,-58.4,-20.9,-58.3
Q -19.6,-58.3,-18.2,-58.3
 " /> 
<path  
style="fill:rgb(7,193,201)" 
d="M -67.1 -88.1
Q -66.9,-87.4,-66.6,-86.8
Q -66.6,-86.8,-66.6,-86.8
Q -66.6,-88.2,-66.9,-88.1
Q -67.0,-88.1,-67.1,-88.1
 " /> 
<path  
style="fill:rgb(14,103,171)" 
d="M -67.1 -90.3
Q -67.1,-91.6,-67.1,-92.9
Q -67.2,-92.6,-67.4,-92.3
Q -67.6,-91.6,-67.1,-90.3
 " /> 
<path  
style="fill:rgb(7,193,201)" 
d="M -40.9 -164.1
Q -40.6,-164.3,-40.2,-164.5
Q -39.6,-165.0,-38.7,-166.3
Q -39.6,-165.7,-40.9,-164.1
 " /> 
<path  
style="fill:rgb(14,103,171)" 
d="M -32.9 -168.5
Q -31.1,-168.5,-29.3,-168.5
Q -29.8,-168.6,-30.2,-168.7
Q -31.1,-169.0,-32.9,-168.5
 " /> 
<path  
style="fill:rgb(7,193,201)" 
d="M -15.6 -163.2
Q -15.3,-162.8,-15.1,-162.5
Q -14.6,-161.8,-14.0,-161.4
Q -13.7,-161.2,-13.3,-160.9
Q -14.2,-162.3,-15.6,-163.2
 " /> 
<path  
style="fill:rgb(7,193,201)" 
d="M -4.9 -150.7
Q -3.6,-150.7,-2.2,-150.7
Q -2.5,-150.8,-2.9,-151.0
Q -3.5,-151.2,-4.9,-150.7
 " /> 
<path  
style="fill:rgb(4,4,4)" 
d="M 2.7 -150.7
Q 3.1,-151.4,3.6,-152.1
Q 3.1,-152.0,2.6,-152.0
Q 2.7,-151.4,2.7,-150.7
 " /> 
<path  
style="fill:rgb(4,4,4)" 
d="M 2.7 -150.7
Q 2.9,-150.7,3.2,-150.7
Q 3.4,-151.4,3.6,-152.1
Q 3.1,-151.4,2.7,-150.7
 " /> 
<path  
style="fill:rgb(7,193,201)" 
d="M 5.3 -150.7
Q 4.4,-150.7,3.6,-150.7
Q 3.2,-150.7,2.8,-150.7
Q 3.1,-150.6,3.1,-150.6
Q 4.1,-150.3,4.7,-150.5
Q 5.0,-150.6,5.3,-150.7
 " /> 
<path  
style="fill:rgb(7,193,201)" 
d="M 75.1 -78.7
Q 75.1,-77.7,75.1,-76.7
Q 75.1,-74.6,75.3,-74.7
Q 75.4,-74.7,75.6,-74.7
Q 75.6,-78.9,75.3,-78.8
Q 75.2,-78.8,75.1,-78.7
 " /> 
<path  
style="fill:rgb(7,193,201)" 
d="M 75.6 -69.4
Q 75.1,-69.3,75.1,-66.7
Q 75.3,-66.7,75.6,-66.7
Q 75.6,-68.1,75.6,-69.4
 " /> 
<path  
style="fill:rgb(14,103,171)" 
d="M 75.1 -66.7
Q 75.1,-65.6,75.1,-64.5
Q 75.5,-64.6,75.5,-65.7
Q 75.5,-66.2,75.6,-66.7
Q 75.3,-66.7,75.1,-66.7
 " /> 
<path  
style="fill:rgb(14,103,171)" 
d="M 3.6 -13.4
Q 2.2,-13.4,0.9,-13.4
Q 1.2,-13.3,1.5,-13.1
Q 2.2,-12.9,2.9,-13.1
Q 3.2,-13.3,3.6,-13.4
 " /> 
<path  
style="fill:rgb(97,247,248)" 
d="M 74.7 -54.3
Q 74.6,-54.2,74.4,-54.0
Q 74.2,-53.8,74.2,-52.9
Q 74.4,-53.6,74.7,-54.3
 " /> 
<path  
style="fill:rgb(4,4,4)" 
d="M 74.7 -54.3
Q 75.8,-54.6,76.9,-54.9
Q 83.1,-56.8,88.9,-61.4
Q 92.7,-64.4,93.2,-63.9
Q 93.9,-63.2,87.4,-58.8
Q 81.5,-54.8,74.2,-52.9
Q 73.4,-51.4,72.7,-49.8
Q 71.1,-46.7,68.9,-43.9
Q 67.0,-41.6,67.0,-41.3
Q 66.9,-40.7,70.9,-41.6
Q 83.2,-44.2,95.1,-52.8
Q 96.4,-53.7,97.8,-54.7
Q 98.2,-55.3,98.7,-55.8
Q 99.6,-56.9,101.8,-58.7
Q 102.9,-60.2,104.0,-61.6
Q 107.5,-66.1,109.1,-71.4
Q 110.8,-76.9,105.5,-71.7
Q 99.4,-65.8,98.2,-68.7
Q 97.9,-69.6,99.3,-73.9
Q 102.5,-83.1,107.3,-89.6
Q 117.7,-104.0,119.3,-117.1
Q 120.1,-123.1,117.6,-121.4
Q 114.8,-119.5,111.6,-114.9
Q 106.9,-108.2,105.8,-108.3
Q 103.8,-108.3,106.9,-117.1
Q 115.3,-141.0,113.4,-154.1
Q 112.5,-159.7,109.3,-161.4
Q 108.4,-160.1,107.1,-159.2
Q 104.4,-153.4,102.6,-147.7
Q 99.4,-137.8,98.0,-136.2
Q 95.2,-132.9,91.6,-143.4
Q 86.8,-157.8,81.2,-163.9
Q 79.4,-165.8,78.6,-165.8
Q 77.8,-165.8,76.0,-162.7
Q 76.0,-160.9,76.0,-159.2
Q 76.0,-157.6,76.0,-156.1
Q 76.5,-152.5,76.2,-150.7
Q 76.1,-149.8,76.0,-148.9
Q 75.9,-148.3,75.8,-147.6
Q 74.8,-141.9,68.3,-147.7
Q 64.9,-150.6,66.3,-147.5
Q 68.3,-143.4,67.0,-141.6
Q 65.1,-139.2,58.1,-145.3
Q 57.3,-146.1,56.5,-146.7
Q 58.4,-140.7,55.2,-139.5
Q 54.2,-139.2,54.3,-139.0
Q 54.4,-138.8,60.4,-132.9
Q 60.8,-132.7,61.1,-132.5
Q 61.8,-132.0,62.2,-131.4
Q 62.4,-131.0,62.7,-130.7
Q 63.6,-129.6,64.4,-128.5
Q 69.2,-122.6,73.8,-105.4
Q 74.7,-106.6,75.6,-107.8
Q 81.2,-115.7,82.6,-126.3
Q 83.9,-135.9,82.7,-142.5
Q 82.3,-144.7,82.7,-145.1
Q 83.3,-145.8,83.5,-144.5
Q 84.9,-135.8,83.8,-127.3
Q 82.1,-113.4,75.8,-107.0
Q 74.8,-106.0,73.8,-104.9
Q 74.1,-103.2,74.4,-101.4
Q 75.1,-97.8,75.8,-92.9
Q 76.1,-90.5,76.4,-88.1
Q 83.1,-94.7,85.1,-97.3
Q 100.1,-117.0,104.4,-130.3
Q 106.1,-135.3,106.6,-134.1
Q 106.8,-133.5,105.1,-128.5
Q 101.7,-118.7,93.3,-106.7
Q 83.1,-92.1,78.0,-88.3
Q 77.2,-87.7,76.4,-87.2
Q 76.4,-86.7,76.4,-86.3
Q 76.6,-86.3,76.7,-86.3
Q 76.9,-86.4,76.9,-84.1
Q 76.9,-83.2,76.9,-82.3
Q 77.0,-82.3,77.1,-82.3
Q 77.4,-82.4,77.3,-80.1
Q 77.3,-78.1,77.3,-76.1
Q 77.5,-75.7,77.6,-75.4
Q 77.8,-74.7,77.3,-73.4
Q 77.6,-73.0,77.8,-72.6
Q 77.8,-73.2,81.4,-74.9
Q 89.0,-78.6,92.0,-83.8
Q 95.3,-89.7,98.8,-93.7
Q 100.3,-95.4,101.0,-96.5
Q 101.7,-97.6,102.0,-97.3
Q 102.7,-96.6,97.1,-89.6
Q 95.0,-87.0,93.2,-83.9
Q 89.5,-77.7,82.7,-74.1
Q 77.8,-71.6,77.8,-72.6
Q 77.6,-73.0,77.3,-73.4
Q 77.4,-73.1,77.5,-72.7
Q 77.8,-72.1,77.8,-69.8
Q 77.8,-67.3,77.3,-67.2
Q 77.3,-61.0,75.5,-56.5
Q 75.1,-55.4,74.7,-54.3
 " /> 
<path  
style="fill:rgb(97,247,248)" 
d="M 69.7 -123.8
Q 70.3,-123.2,71.0,-126.1
Q 71.6,-128.0,71.6,-133.5
Q 71.6,-135.2,71.0,-135.1
Q 70.5,-134.9,70.6,-131.8
Q 70.7,-128.7,70.1,-126.4
Q 69.5,-124.1,69.7,-123.8
 " /> 
<path  
style="fill:rgb(97,247,248)" 
d="M 62.2 -135.1
Q 62.2,-133.4,62.7,-133.4
Q 63.1,-133.4,63.1,-134.6
Q 63.1,-135.8,63.6,-138.5
Q 62.2,-136.8,62.2,-135.1
 " /> 
<path  
style="fill:rgb(97,247,248)" 
d="M 74.7 -54.3
Q 74.4,-53.6,74.2,-52.9
Q 81.5,-54.8,87.4,-58.8
Q 93.9,-63.2,93.2,-63.9
Q 92.7,-64.4,88.9,-61.4
Q 83.1,-56.8,76.9,-54.9
Q 75.8,-54.6,74.7,-54.3
 " /> 
<path  
style="fill:rgb(14,103,171)" 
d="M 77.3 -67.2
Q 77.8,-67.3,77.8,-69.8
Q 77.7,-69.8,77.6,-69.8
Q 77.4,-69.7,77.3,-67.2
 " /> 
<path  
style="fill:rgb(14,103,171)" 
d="M 77.3 -73.4
Q 77.8,-74.7,77.6,-75.4
Q 77.5,-75.7,77.3,-76.1
Q 77.3,-74.7,77.3,-73.4
 " /> 
<path  
style="fill:rgb(14,103,171)" 
d="M 77.3 -80.1
Q 77.4,-82.4,77.1,-82.3
Q 77.0,-82.3,76.9,-82.3
Q 76.9,-80.5,76.9,-80.2
Q 77.0,-79.9,77.3,-80.1
 " /> 
<path  
style="fill:rgb(14,103,171)" 
d="M 76.9 -84.1
Q 76.9,-86.4,76.7,-86.3
Q 76.6,-86.3,76.4,-86.3
Q 76.4,-85.7,76.4,-85.1
Q 76.4,-83.9,76.7,-84.0
Q 76.8,-84.0,76.9,-84.1
 " /> 
<path  
style="fill:rgb(97,247,248)" 
d="M 76.4 -87.2
Q 77.2,-87.7,78.0,-88.3
Q 83.1,-92.1,93.3,-106.7
Q 101.7,-118.7,105.1,-128.5
Q 106.8,-133.5,106.6,-134.1
Q 106.1,-135.3,104.4,-130.3
Q 100.1,-117.0,85.1,-97.3
Q 83.1,-94.7,76.4,-88.1
Q 76.4,-87.6,76.4,-87.2
 " /> 
<path  
style="fill:rgb(97,247,248)" 
d="M 73.8 -104.9
Q 74.8,-106.0,75.8,-107.0
Q 82.1,-113.4,83.8,-127.3
Q 84.9,-135.8,83.5,-144.5
Q 83.3,-145.8,82.7,-145.1
Q 82.3,-144.7,82.7,-142.5
Q 83.9,-135.9,82.6,-126.3
Q 81.2,-115.7,75.6,-107.8
Q 74.7,-106.6,73.8,-105.4
Q 73.8,-105.2,73.8,-104.9
 " /> 
<path  
style="fill:rgb(14,103,171)" 
d="M 62.7 -130.7
Q 62.4,-131.0,62.2,-131.4
Q 61.8,-132.0,61.1,-132.5
Q 60.8,-132.7,60.4,-132.9
Q 60.7,-132.6,60.9,-132.3
Q 61.4,-131.6,62.7,-130.7
 " /> 
<path  
style="fill:rgb(14,103,171)" 
d="M 76.0 -148.9
Q 76.1,-149.8,76.2,-150.7
Q 76.5,-152.5,76.0,-156.1
Q 76.0,-152.5,76.0,-148.9
 " /> 
<path  
style="fill:rgb(14,103,171)" 
d="M 76.0 -159.2
Q 76.0,-160.9,76.0,-162.7
Q 75.5,-160.9,75.8,-160.1
Q 75.9,-159.6,76.0,-159.2
 " /> 
<path  
style="fill:rgb(14,103,171)" 
d="M 107.1 -159.2
Q 108.4,-160.1,109.3,-161.4
Q 108.0,-160.5,107.1,-159.2
 " /> 
<path  
style="fill:rgb(14,103,171)" 
d="M 101.8 -58.7
Q 99.6,-56.9,98.7,-55.8
Q 98.2,-55.3,97.8,-54.7
Q 98.3,-55.2,98.9,-55.6
Q 100.0,-56.5,100.9,-57.6
Q 101.3,-58.2,101.8,-58.7
 " /> 
<path  
style="fill:rgb(97,247,248)" 
d="M 77.8 -72.6
Q 77.8,-71.6,82.7,-74.1
Q 89.5,-77.7,93.2,-83.9
Q 95.0,-87.0,97.1,-89.6
Q 102.7,-96.6,102.0,-97.3
Q 101.7,-97.6,101.0,-96.5
Q 100.3,-95.4,98.8,-93.7
Q 95.3,-89.7,92.0,-83.8
Q 89.0,-78.6,81.4,-74.9
Q 77.8,-73.2,77.8,-72.6
 " /> 
<path  
style="fill:rgb(7,193,201)" 
d="M -0.4 -152.5
Q 0.6,-152.5,1.6,-152.5
Q 3.7,-152.6,3.6,-152.3
Q 3.6,-152.2,3.6,-152.1
Q 4.1,-152.5,4.7,-152.9
Q 5.8,-153.8,7.5,-156.4
Q 10.3,-160.6,16.5,-165.5
Q 19.4,-167.8,21.7,-175.4
Q 25.2,-186.8,25.8,-195.8
Q 21.9,-191.2,17.6,-177.9
Q 16.4,-174.3,15.7,-174.3
Q 14.3,-174.3,16.2,-179.4
Q 18.4,-185.4,17.2,-187.5
Q 16.3,-189.4,14.2,-190.7
Q 12.9,-190.7,11.6,-190.7
Q 8.6,-179.0,8.3,-178.6
Q 7.4,-177.7,6.8,-178.6
Q 6.7,-178.9,7.7,-183.7
Q 8.4,-186.7,8.4,-188.3
Q 8.4,-189.1,8.4,-189.8
Q 7.6,-190.0,6.8,-190.2
Q 6.2,-187.9,5.5,-187.9
Q 4.5,-187.9,5.4,-193.2
Q 6.6,-200.7,1.9,-205.8
Q 0.7,-207.1,-0.2,-207.4
Q -1.0,-207.7,-0.6,-206.7
Q -0.1,-205.6,-0.1,-203.5
Q -0.0,-202.4,0.0,-201.4
Q 0.1,-201.4,0.3,-201.5
Q 0.4,-201.5,0.4,-201.2
Q 0.5,-201.0,0.4,-199.2
Q 0.5,-198.6,0.7,-198.1
Q 0.9,-196.9,0.9,-193.8
Q 1.0,-193.9,1.1,-193.9
Q 1.4,-194.0,1.3,-190.7
Q 1.4,-189.7,1.6,-188.7
Q 1.8,-186.7,1.1,-186.0
Q 0.3,-185.0,-0.2,-189.6
Q -0.2,-190.1,-0.3,-190.6
Q -0.4,-191.3,-0.4,-192.1
Q -0.6,-192.0,-0.7,-192.0
Q -0.8,-191.9,-0.9,-192.2
Q -0.9,-192.4,-0.9,-195.2
Q -1.4,-198.7,-2.0,-202.3
Q -5.0,-221.7,-8.0,-224.7
Q -9.8,-226.5,-9.8,-217.0
Q -9.8,-214.1,-9.8,-211.2
Q -9.6,-211.2,-9.5,-211.2
Q -9.3,-211.3,-9.3,-208.9
Q -9.0,-206.5,-8.7,-204.1
Q -8.0,-199.2,-7.1,-193.9
Q -6.3,-188.7,-6.5,-187.9
Q -7.6,-184.1,-9.4,-196.3
Q -9.8,-199.3,-10.2,-202.3
Q -10.3,-202.2,-10.5,-202.2
Q -10.7,-202.1,-10.7,-204.5
Q -10.9,-205.1,-11.1,-205.6
Q -11.6,-206.7,-12.3,-205.6
Q -14.8,-201.6,-11.6,-193.4
Q -9.2,-187.5,-10.1,-186.6
Q -10.9,-185.9,-13.2,-192.5
Q -15.5,-198.7,-17.9,-203.1
Q -18.5,-204.4,-19.2,-205.6
Q -18.6,-201.6,-18.0,-199.6
Q -17.4,-197.6,-16.7,-195.2
Q -14.0,-185.2,-12.6,-180.9
Q -10.5,-174.7,-11.7,-174.7
Q -13.0,-174.7,-17.9,-191.7
Q -18.4,-193.4,-19.1,-193.1
Q -24.2,-191.1,-22.2,-187.8
Q -16.3,-178.1,-13.3,-174.4
Q -10.6,-171.2,-12.6,-171.2
Q -13.1,-171.2,-14.2,-172.8
Q -15.2,-174.4,-17.8,-177.6
Q -20.3,-180.8,-21.5,-182.9
Q -22.8,-185.1,-24.0,-186.7
Q -25.2,-188.3,-28.0,-193.2
Q -30.8,-198.0,-33.4,-200.7
Q -33.3,-199.2,-33.1,-197.6
Q -32.8,-193.9,-30.9,-186.3
Q -27.1,-170.7,-21.3,-168.8
Q -19.3,-168.2,-17.2,-166.8
Q -16.2,-166.1,-15.1,-165.4
Q -14.7,-165.0,-14.2,-164.7
Q -13.4,-164.0,-12.9,-163.4
Q -12.7,-163.0,-12.4,-162.7
Q -11.2,-161.5,-10.0,-160.3
Q -7.6,-157.8,-6.0,-155.2
Q -4.4,-152.5,-2.4,-152.5
Q -1.4,-152.5,-0.4,-152.5
 " /> 
<path  
style="fill:rgb(14,103,171)" 
d="M -0.4 -152.5
Q -0.5,-152.4,-0.5,-152.2
Q -0.6,-152.0,1.5,-152.0
Q 2.1,-152.0,2.6,-152.0
Q 3.1,-152.0,3.6,-152.1
Q 3.6,-152.2,3.6,-152.3
Q 3.7,-152.6,1.6,-152.5
Q 0.6,-152.5,-0.4,-152.5
 " /> 
<path  
style="fill:rgb(4,4,4)" 
d="M 3.6 -152.1
Q 3.4,-151.4,3.2,-150.7
Q 3.5,-150.7,3.9,-150.7
Q 3.6,-151.4,3.6,-152.1
 " /> 
<path  
style="fill:rgb(14,103,171)" 
d="M -12.4 -162.7
Q -12.7,-163.0,-12.9,-163.4
Q -13.4,-164.0,-14.2,-164.7
Q -14.7,-165.0,-15.1,-165.4
Q -14.8,-164.9,-14.4,-164.5
Q -13.8,-163.6,-12.4,-162.7
 " /> 
<path  
style="fill:rgb(14,103,171)" 
d="M -10.7 -204.5
Q -10.7,-202.1,-10.5,-202.2
Q -10.3,-202.2,-10.2,-202.3
Q -10.2,-204.2,-10.3,-204.4
Q -10.3,-204.7,-10.7,-204.5
 " /> 
<path  
style="fill:rgb(14,103,171)" 
d="M -9.3 -208.9
Q -9.3,-211.3,-9.5,-211.2
Q -9.6,-211.2,-9.8,-211.2
Q -9.8,-209.2,-9.7,-209.0
Q -9.7,-208.8,-9.3,-208.9
 " /> 
<path  
style="fill:rgb(14,103,171)" 
d="M -0.9 -195.2
Q -0.9,-192.4,-0.9,-192.2
Q -0.8,-191.9,-0.7,-192.0
Q -0.6,-192.0,-0.4,-192.1
Q -0.4,-192.9,-0.4,-193.7
Q -0.4,-193.8,-0.4,-193.8
Q -0.4,-194.9,-0.5,-195.1
Q -0.6,-195.3,-0.9,-195.2
 " /> 
<path  
style="fill:rgb(4,4,4)" 
d="M -0.4 -192.1
Q 0.2,-192.1,0.9,-192.1
Q 0.9,-192.8,0.9,-193.8
Q 0.2,-193.8,-0.4,-193.8
Q -0.4,-193.8,-0.4,-193.7
Q -0.4,-192.9,-0.4,-192.1
 " /> 
<path  
style="fill:rgb(4,4,4)" 
d="M -0.4 -192.1
Q -0.4,-191.3,-0.3,-190.6
Q 0.4,-190.6,1.0,-190.7
Q 1.0,-190.7,0.9,-190.8
Q 0.9,-190.9,0.9,-192.1
Q 0.2,-192.1,-0.4,-192.1
 " /> 
<path  
style="fill:rgb(14,103,171)" 
d="M 1.3 -190.7
Q 1.4,-194.0,1.1,-193.9
Q 1.0,-193.9,0.9,-193.8
Q 0.9,-192.8,0.9,-192.1
Q 0.9,-190.9,0.9,-190.8
Q 1.0,-190.7,1.0,-190.7
Q 1.2,-190.7,1.3,-190.7
 " /> 
<path  
style="fill:rgb(4,4,4)" 
d="M 1.3 -190.7
Q 1.1,-190.6,1.0,-190.7
Q 0.4,-190.6,-0.3,-190.6
Q -0.2,-190.1,-0.2,-189.6
Q 0.3,-185.0,1.1,-186.0
Q 1.8,-186.7,1.6,-188.7
Q 1.4,-189.7,1.3,-190.7
 " /> 
<path  
style="fill:rgb(14,103,171)" 
d="M 0.4 -199.2
Q 0.5,-201.0,0.4,-201.2
Q 0.4,-201.5,0.3,-201.5
Q 0.1,-201.4,0.0,-201.4
Q 0.0,-198.9,0.2,-199.1
Q 0.3,-199.1,0.4,-199.2
 " /> 
<path  
style="fill:rgb(14,103,171)" 
d="M 11.1 -204.9
Q 10.7,-204.7,10.7,-202.7
Q 10.8,-202.8,10.9,-202.8
Q 11.0,-202.9,11.1,-203.9
Q 11.1,-204.4,11.1,-204.9
 " /> 
<path  
style="fill:rgb(7,193,201)" 
d="M 11.1 -204.9
Q 10.7,-206.5,10.2,-208.1
Q 10.0,-207.2,9.8,-206.4
Q 8.2,-199.9,7.8,-196.3
Q 7.3,-192.3,6.8,-190.2
Q 7.6,-190.0,8.4,-189.8
Q 7.8,-190.6,7.9,-190.9
Q 8.1,-191.2,9.8,-192.5
Q 10.2,-197.8,10.4,-200.3
Q 10.5,-201.5,10.7,-202.7
Q 10.7,-204.7,11.1,-204.9
 " /> 
<path  
style="fill:rgb(14,103,171)" 
d="M 9.8 -192.5
Q 8.1,-191.2,7.9,-190.9
Q 7.8,-190.6,8.4,-189.8
Q 8.4,-190.2,8.5,-190.5
Q 8.5,-191.1,9.8,-192.5
 " /> 
<path  
style="fill:rgb(14,103,171)" 
d="M 11.6 -190.7
Q 12.9,-190.7,14.2,-190.7
Q 13.9,-190.8,13.6,-191.0
Q 12.9,-191.2,12.2,-191.0
Q 11.9,-190.8,11.6,-190.7
 " /> 
<path  
style="fill:rgb(4,4,4)" 
d="M -98.7 -62.7
Q -97.8,-61.9,-96.9,-61.2
Q -95.1,-59.6,-92.0,-56.1
Q -90.6,-54.9,-89.1,-53.8
Q -72.8,-41.3,-57.3,-37.6
Q -52.7,-36.6,-52.6,-36.6
Q -52.5,-36.7,-54.4,-39.4
Q -56.3,-42.1,-59.6,-48.9
Q -60.2,-49.1,-60.8,-49.2
Q -61.2,-49.3,-61.6,-49.4
Q -70.6,-51.4,-82.0,-60.1
Q -91.3,-67.2,-92.3,-69.7
Q -92.9,-71.3,-89.2,-67.8
Q -74.3,-53.6,-60.4,-50.7
Q -61.2,-53.1,-62.0,-55.4
Q -64.5,-62.8,-67.1,-72.8
Q -68.0,-76.1,-68.4,-79.6
Q -68.6,-79.4,-68.7,-79.2
Q -68.9,-78.7,-71.1,-79.9
Q -80.8,-85.0,-86.8,-97.2
Q -88.8,-101.2,-88.5,-101.5
Q -88.1,-101.9,-87.4,-100.6
Q -80.3,-86.6,-68.4,-80.1
Q -68.7,-81.6,-68.9,-83.2
Q -69.3,-86.3,-69.3,-90.7
Q -69.3,-92.9,-69.3,-95.2
Q -70.1,-95.7,-70.9,-96.3
Q -76.1,-100.0,-80.7,-111.5
Q -83.5,-118.7,-81.9,-118.7
Q -81.4,-118.7,-81.2,-117.0
Q -80.4,-112.0,-75.5,-104.3
Q -73.1,-100.6,-69.3,-96.5
Q -69.1,-98.5,-68.9,-100.5
Q -68.4,-104.5,-67.6,-111.2
Q -71.6,-114.7,-72.9,-117.1
Q -75.3,-121.4,-76.7,-126.8
Q -77.0,-128.1,-76.5,-128.1
Q -76.1,-128.1,-75.1,-125.1
Q -72.7,-117.5,-69.5,-114.1
Q -68.5,-113.1,-67.6,-112.1
Q -67.2,-113.8,-66.9,-115.6
Q -66.3,-119.2,-63.6,-125.4
Q -64.0,-125.7,-64.4,-126.1
Q -66.6,-127.6,-67.0,-134.4
Q -67.2,-138.3,-66.7,-138.8
Q -66.2,-139.3,-66.2,-136.3
Q -66.2,-133.2,-65.5,-130.6
Q -64.8,-128.1,-63.6,-126.3
Q -60.0,-132.9,-58.4,-135.3
Q -56.9,-137.6,-57.8,-138.1
Q -60.2,-139.3,-60.1,-141.4
Q -60.0,-141.8,-60.0,-142.3
Q -60.5,-144.9,-60.0,-147.6
Q -60.0,-148.7,-60.0,-149.8
Q -60.0,-152.1,-59.8,-153.6
Q -59.7,-154.4,-59.6,-155.2
Q -59.6,-155.7,-59.6,-156.2
Q -59.6,-157.2,-59.1,-157.4
Q -59.1,-159.2,-59.1,-160.9
Q -59.1,-162.9,-58.7,-163.2
Q -58.7,-164.7,-58.7,-166.3
Q -58.8,-166.2,-58.9,-166.2
Q -59.2,-166.1,-59.1,-167.5
Q -59.1,-167.5,-59.1,-167.5
Q -59.1,-168.2,-59.1,-168.9
Q -59.8,-171.1,-60.1,-171.2
Q -61.5,-171.5,-64.0,-166.1
Q -66.9,-159.7,-68.2,-153.2
Q -68.9,-149.6,-69.5,-146.9
Q -70.2,-144.3,-70.7,-141.6
Q -72.1,-133.8,-73.6,-135.4
Q -74.2,-136.1,-74.3,-145.1
Q -74.3,-153.4,-75.1,-153.4
Q -76.4,-153.4,-77.8,-145.2
Q -80.0,-131.5,-82.0,-137.0
Q -83.8,-142.0,-83.6,-146.7
Q -83.6,-148.1,-83.6,-149.4
Q -84.1,-149.2,-84.0,-150.4
Q -84.0,-150.4,-84.0,-150.4
Q -84.0,-151.0,-84.0,-151.6
Q -84.1,-152.7,-84.2,-153.8
Q -85.3,-164.6,-87.3,-169.2
Q -90.0,-175.3,-92.5,-168.9
Q -93.3,-166.8,-93.8,-164.1
Q -93.8,-161.6,-94.2,-161.4
Q -94.2,-159.8,-94.2,-158.3
Q -94.2,-155.2,-94.2,-154.3
Q -94.2,-153.8,-94.2,-153.4
Q -94.1,-153.4,-94.0,-153.5
Q -93.7,-153.6,-93.7,-152.4
Q -93.7,-152.4,-93.7,-152.4
Q -93.8,-151.8,-93.8,-151.2
Q -93.7,-149.8,-93.8,-149.2
Q -93.8,-148.8,-93.8,-148.5
Q -93.6,-148.5,-93.5,-148.6
Q -93.3,-148.7,-93.3,-147.5
Q -93.3,-147.5,-93.3,-147.5
Q -93.3,-146.9,-93.3,-146.3
Q -92.7,-143.2,-92.0,-140.1
Q -90.7,-133.8,-88.9,-126.3
Q -88.4,-124.5,-88.9,-122.7
Q -89.5,-120.2,-91.2,-121.3
Q -94.0,-123.4,-96.4,-133.4
Q -98.7,-142.4,-99.2,-143.8
Q -100.3,-147.0,-101.7,-145.6
Q -103.6,-143.5,-105.1,-136.1
Q -105.2,-135.4,-105.3,-134.7
Q -105.3,-132.7,-105.8,-132.5
Q -105.8,-131.8,-105.8,-131.2
Q -105.8,-127.8,-106.2,-127.6
Q -105.8,-122.7,-105.5,-120.2
Q -104.5,-109.6,-97.6,-94.9
Q -96.1,-91.8,-94.7,-88.9
Q -93.4,-86.0,-91.6,-83.2
Q -88.1,-77.7,-90.4,-76.8
Q -91.5,-76.4,-101.9,-82.7
Q -107.1,-85.9,-108.5,-86.1
Q -111.2,-86.7,-108.1,-79.3
Q -105.3,-72.6,-100.6,-65.6
Q -99.6,-64.2,-98.7,-62.7
 " /> 
<path  
style="fill:rgb(14,103,171)" 
d="M -98.7 -62.7
Q -95.5,-59.2,-93.8,-57.6
Q -92.9,-56.8,-92.0,-56.1
Q -95.1,-59.6,-96.9,-61.2
Q -97.8,-61.9,-98.7,-62.7
 " /> 
<path  
style="fill:rgb(14,103,171)" 
d="M -106.2 -127.6
Q -105.8,-127.8,-105.8,-131.2
Q -105.9,-131.1,-106.0,-131.1
Q -106.1,-131.0,-106.2,-129.3
Q -106.2,-128.5,-106.2,-127.6
 " /> 
<path  
style="fill:rgb(14,103,171)" 
d="M -105.8 -132.5
Q -105.3,-132.7,-105.3,-134.7
Q -105.4,-134.7,-105.5,-134.6
Q -105.7,-134.6,-105.7,-133.5
Q -105.8,-133.0,-105.8,-132.5
 " /> 
<path  
style="fill:rgb(14,103,171)" 
d="M -88.9 -122.7
Q -88.4,-124.5,-88.9,-126.3
Q -88.9,-124.5,-88.9,-122.7
 " /> 
<path  
style="fill:rgb(14,103,171)" 
d="M -93.3 -146.3
Q -93.3,-146.9,-93.3,-147.5
Q -93.5,-148.0,-93.8,-148.5
Q -93.8,-146.6,-93.7,-146.3
Q -93.7,-146.1,-93.3,-146.3
 " /> 
<path  
style="fill:rgb(14,103,171)" 
d="M -93.8 -148.5
Q -93.5,-148.0,-93.3,-147.5
Q -93.3,-147.5,-93.3,-147.5
Q -93.3,-148.7,-93.5,-148.6
Q -93.6,-148.5,-93.8,-148.5
 " /> 
<path  
style="fill:rgb(14,103,171)" 
d="M -93.8 -151.2
Q -93.8,-151.8,-93.7,-152.4
Q -94.0,-152.9,-94.2,-153.4
Q -94.2,-151.5,-94.2,-151.2
Q -94.1,-151.0,-93.8,-151.2
 " /> 
<path  
style="fill:rgb(14,103,171)" 
d="M -94.2 -153.4
Q -94.0,-152.9,-93.7,-152.4
Q -93.7,-152.4,-93.7,-152.4
Q -93.7,-153.6,-94.0,-153.5
Q -94.1,-153.4,-94.2,-153.4
 " /> 
<path  
style="fill:rgb(14,103,171)" 
d="M -94.2 -161.4
Q -93.8,-161.6,-93.8,-164.1
Q -93.9,-164.0,-94.0,-164.0
Q -94.1,-163.9,-94.2,-162.6
Q -94.2,-162.0,-94.2,-161.4
 " /> 
<path  
style="fill:rgb(14,103,171)" 
d="M -84.0 -151.6
Q -84.0,-151.0,-84.0,-150.4
Q -83.8,-149.9,-83.6,-149.4
Q -83.6,-151.3,-83.6,-151.5
Q -83.7,-151.8,-84.0,-151.6
 " /> 
<path  
style="fill:rgb(14,103,171)" 
d="M -83.6 -149.4
Q -83.8,-149.9,-84.0,-150.4
Q -84.0,-150.4,-84.0,-150.4
Q -84.1,-149.2,-83.6,-149.4
 " /> 
<path  
style="fill:rgb(14,103,171)" 
d="M -59.1 -168.9
Q -59.1,-168.2,-59.1,-167.5
Q -58.9,-166.9,-58.7,-166.3
Q -58.7,-168.6,-58.7,-168.9
Q -58.8,-169.1,-59.1,-168.9
 " /> 
<path  
style="fill:rgb(14,103,171)" 
d="M -58.7 -166.3
Q -58.9,-166.9,-59.1,-167.5
Q -59.1,-167.5,-59.1,-167.5
Q -59.2,-166.1,-58.9,-166.2
Q -58.8,-166.2,-58.7,-166.3
 " /> 
<path  
style="fill:rgb(14,103,171)" 
d="M -58.7 -163.2
Q -59.1,-162.9,-59.1,-160.9
Q -58.7,-161.1,-58.7,-163.2
 " /> 
<path  
style="fill:rgb(14,103,171)" 
d="M -59.1 -157.4
Q -59.6,-157.2,-59.6,-156.2
Q -59.6,-155.7,-59.6,-155.2
Q -59.5,-155.2,-59.4,-155.2
Q -59.2,-155.3,-59.1,-157.4
 " /> 
<path  
style="fill:rgb(14,103,171)" 
d="M -60.0 -147.6
Q -60.5,-144.9,-60.0,-142.3
Q -60.0,-144.9,-60.0,-147.6
 " /> 
<path  
style="fill:rgb(97,247,248)" 
d="M -63.6 -126.3
Q -64.8,-128.1,-65.5,-130.6
Q -66.2,-133.2,-66.2,-136.3
Q -66.2,-139.3,-66.7,-138.8
Q -67.2,-138.3,-67.0,-134.4
Q -66.6,-127.6,-64.4,-126.1
Q -64.0,-125.7,-63.6,-125.4
Q -63.6,-125.8,-63.6,-126.3
 " /> 
<path  
style="fill:rgb(97,247,248)" 
d="M -67.6 -112.1
Q -68.5,-113.1,-69.5,-114.1
Q -72.7,-117.5,-75.1,-125.1
Q -76.1,-128.1,-76.5,-128.1
Q -77.0,-128.1,-76.7,-126.8
Q -75.3,-121.4,-72.9,-117.1
Q -71.6,-114.7,-67.6,-111.2
Q -67.6,-111.6,-67.6,-112.1
 " /> 
<path  
style="fill:rgb(97,247,248)" 
d="M -69.3 -96.5
Q -73.1,-100.6,-75.5,-104.3
Q -80.4,-112.0,-81.2,-117.0
Q -81.4,-118.7,-81.9,-118.7
Q -83.5,-118.7,-80.7,-111.5
Q -76.1,-100.0,-70.9,-96.3
Q -70.1,-95.7,-69.3,-95.2
Q -69.3,-95.8,-69.3,-96.5
 " /> 
<path  
style="fill:rgb(97,247,248)" 
d="M -68.4 -80.1
Q -80.3,-86.6,-87.4,-100.6
Q -88.1,-101.9,-88.5,-101.5
Q -88.8,-101.2,-86.8,-97.2
Q -80.8,-85.0,-71.1,-79.9
Q -68.9,-78.7,-68.7,-79.2
Q -68.6,-79.4,-68.4,-79.6
Q -68.4,-79.8,-68.4,-80.1
 " /> 
<path  
style="fill:rgb(97,247,248)" 
d="M -60.4 -50.7
Q -60.6,-50.0,-60.8,-49.2
Q -60.2,-49.1,-59.6,-48.9
Q -59.6,-49.2,-59.6,-49.4
Q -59.6,-49.8,-60.4,-50.7
 " /> 
<path  
style="fill:rgb(97,247,248)" 
d="M -60.4 -50.7
Q -74.3,-53.6,-89.2,-67.8
Q -92.9,-71.3,-92.3,-69.7
Q -91.3,-67.2,-82.0,-60.1
Q -70.6,-51.4,-61.6,-49.4
Q -61.2,-49.3,-60.8,-49.2
Q -60.6,-50.0,-60.4,-50.7
 " /> 
</g> 
</svg> 
