<?xml version="1.0"?>
<!DOCTYPE svg PUBLIC "-//W3C//DTD SVG 1.1//EN" "http://www.w3.org/Graphics/SVG/1.1/DTD/svg11.dtd">
<svg xmlns="http://www.w3.org/2000/svg" version="1.1">
<g transform="translate(112.1,225.9)" stroke-width="0" fill="none" >
<path  
style="fill:rgb(4,4,4)" 
d="M 36.0 219.4
Q 36.3,220.5,36.7,220.9
Q 39.1,222.9,43.3,215.5
Q 45.4,211.7,47.3,208.8
Q 68.9,175.3,73.0,162.2
Q 73.9,159.3,74.2,158.4
Q 74.6,157.5,75.3,153.9
Q 79.4,134.7,68.1,123.0
Q 64.0,118.7,53.4,111.5
Q 37.1,100.4,36.1,82.6
Q 36.0,80.3,35.9,78.0
Q 42.5,82.6,49.6,82.6
Q 57.5,82.6,61.1,75.1
Q 66.3,64.6,49.9,34.3
Q 36.1,8.8,31.3,-4.5
Q 29.8,-8.7,28.4,-10.6
Q 27.1,-12.5,27.6,-12.5
Q 28.2,-12.5,30.2,-12.7
Q 32.3,-12.9,34.2,-8.6
Q 39.9,3.8,43.5,-4.1
Q 44.4,-6.1,44.4,-10.7
Q 44.4,-15.4,44.0,-17.0
Q 43.6,-18.5,45.7,-20.6
Q 47.7,-22.7,48.0,-22.7
Q 48.7,-22.7,50.2,-17.8
Q 50.6,-16.3,52.4,-14.1
Q 57.0,-8.3,59.3,-15.9
Q 61.2,-21.9,60.0,-28.6
Q 58.8,-35.6,68.0,-37.2
Q 88.7,-40.9,101.7,-53.4
Q 111.1,-62.6,111.9,-70.1
Q 112.1,-72.6,111.5,-73.0
Q 109.4,-74.4,103.8,-69.6
Q 100.5,-66.8,100.3,-67.4
Q 99.7,-69.4,105.5,-78.5
Q 107.0,-80.8,108.2,-82.9
Q 109.4,-85.1,110.6,-86.7
Q 117.8,-96.0,120.9,-107.2
Q 124.9,-121.4,119.4,-121.4
Q 116.2,-121.4,110.7,-113.2
Q 109.2,-111.1,109.1,-111.3
Q 108.9,-111.4,111.6,-119.2
Q 116.1,-132.3,116.9,-141.9
Q 118.1,-156.7,113.2,-160.6
Q 108.5,-164.4,101.5,-145.2
Q 99.5,-139.4,98.6,-137.4
Q 98.2,-136.4,97.7,-135.4
Q 97.0,-137.1,96.4,-138.7
Q 95.0,-142.1,93.8,-145.9
Q 87.5,-164.8,79.9,-166.5
Q 75.5,-167.5,75.4,-153.4
Q 75.3,-146.4,74.8,-145.9
Q 73.7,-144.7,69.1,-149.4
Q 64.0,-154.6,64.0,-149.8
Q 64.0,-148.5,64.6,-147.5
Q 66.0,-145.3,66.2,-142.6
Q 66.3,-140.8,60.9,-145.3
Q 58.1,-147.6,56.8,-147.6
Q 54.6,-147.6,55.5,-144.4
Q 56.6,-140.6,54.4,-139.8
Q 51.8,-138.8,50.9,-140.4
Q 50.5,-141.0,49.8,-143.9
Q 45.7,-160.5,31.3,-165.2
Q 27.8,-166.4,21.5,-166.0
Q 26.7,-181.6,27.6,-186.1
Q 29.5,-196.1,26.2,-196.1
Q 24.0,-196.1,19.4,-186.4
Q 19.0,-187.0,18.6,-187.7
Q 17.0,-190.3,13.5,-191.0
Q 12.5,-191.1,12.3,-191.5
Q 12.0,-191.9,13.1,-199.3
Q 14.7,-210.3,10.9,-208.6
Q 8.5,-207.5,7.8,-202.7
Q 7.2,-199.0,6.2,-201.5
Q 4.9,-204.9,1.4,-207.2
Q -0.8,-208.5,-1.1,-210.4
Q -3.5,-225.9,-8.2,-225.9
Q -12.1,-225.9,-11.1,-212.5
Q -10.8,-207.4,-12.3,-205.8
Q -13.9,-204.3,-15.0,-201.2
Q -15.4,-202.2,-15.8,-203.1
Q -17.4,-206.7,-19.6,-206.7
Q -20.9,-206.7,-20.7,-204.6
Q -20.2,-198.7,-19.5,-197.4
Q -17.7,-194.0,-20.0,-193.0
Q -21.4,-192.4,-22.9,-191.2
Q -23.8,-190.3,-24.2,-190.4
Q -24.6,-190.4,-26.6,-194.0
Q -32.1,-203.2,-34.1,-201.3
Q -36.1,-199.3,-33.1,-185.6
Q -31.6,-178.5,-28.7,-172.3
Q -27.9,-170.7,-27.2,-169.0
Q -34.8,-169.0,-37.4,-167.6
Q -46.5,-162.7,-48.1,-149.0
Q -48.3,-147.2,-51.2,-144.1
Q -54.1,-141.1,-55.2,-139.7
Q -55.8,-138.8,-56.3,-138.6
Q -59.9,-136.8,-58.2,-152.7
Q -56.0,-173.4,-61.5,-171.9
Q -67.8,-170.2,-71.6,-149.2
Q -72.0,-146.5,-72.5,-143.9
Q -72.7,-145.9,-72.9,-147.9
Q -73.8,-157.7,-77.1,-154.2
Q -79.3,-151.9,-80.2,-146.1
Q -80.9,-142.1,-81.7,-138.1
Q -81.8,-139.0,-82.0,-139.9
Q -82.4,-142.6,-82.9,-149.2
Q -84.1,-165.7,-88.4,-170.4
Q -93.0,-175.3,-96.0,-167.3
Q -100.7,-154.8,-92.9,-129.6
Q -91.9,-126.5,-91.5,-122.1
Q -91.8,-122.4,-92.1,-122.8
Q -93.2,-123.8,-95.8,-133.6
Q -99.4,-147.4,-102.8,-146.0
Q -107.6,-144.0,-108.7,-131.0
Q -109.6,-121.3,-107.7,-112.7
Q -107.1,-109.6,-106.9,-108.7
Q -106.7,-107.8,-104.4,-101.6
Q -99.2,-87.4,-93.8,-79.2
Q -93.2,-78.4,-92.7,-77.7
Q -96.5,-80.2,-105.3,-84.8
Q -110.4,-87.4,-111.5,-85.5
Q -113.7,-81.8,-107.0,-69.4
Q -97.3,-51.4,-74.2,-39.9
Q -62.5,-34.0,-53.9,-33.0
Q -50.6,-32.6,-48.3,-30.1
Q -47.1,-28.9,-46.0,-27.7
Q -47.1,-26.3,-48.1,-24.9
Q -56.5,-14.1,-56.5,-4.9
Q -56.6,2.5,-51.9,0.8
Q -48.2,-0.4,-46.4,-4.1
Q -45.5,-5.9,-42.8,-10.5
Q -41.7,-12.3,-39.3,-17.3
Q -38.1,-19.8,-36.9,-22.2
Q -31.9,-19.2,-31.4,-19.1
Q -30.4,-18.7,-32.5,-15.2
Q -32.9,-14.5,-32.9,-13.6
Q -32.9,-12.7,-33.3,-12.1
Q -33.7,-11.4,-34.6,-8.1
Q -37.4,2.2,-34.0,5.9
Q -29.4,10.8,-18.1,-9.0
Q -16.9,-11.0,-15.9,-10.8
Q -12.6,-10.4,-12.3,-10.1
Q -11.9,-9.7,-13.7,-5.7
Q -16.8,1.0,-17.8,9.0
Q -19.6,24.0,-29.1,37.5
Q -33.4,43.5,-35.3,47.5
Q -40.2,57.2,-37.6,71.3
Q -34.9,85.5,-25.2,86.9
Q -20.7,87.5,-12.8,81.6
Q -15.4,90.1,-16.5,93.0
Q -21.5,105.5,-22.7,112.9
Q -23.1,115.4,-23.5,117.2
Q -23.9,119.0,-24.0,124.1
Q -24.4,157.4,11.6,188.0
Q 27.3,201.3,31.1,207.4
Q 34.1,212.4,36.0,219.4
 " /> 
<path  
style="fill:rgb(97,247,248)" 
d="M 0.9 89.2
Q 1.1,89.2,1.3,89.2
Q 1.6,89.2,1.8,89.1
Q 2.4,89.0,3.1,91.5
Q 3.1,91.7,3.1,91.9
Q 3.3,92.2,3.6,92.6
Q 4.0,93.2,4.0,94.6
Q 4.0,94.8,4.0,95.0
Q 7.6,109.3,8.1,109.8
Q 8.3,110.1,8.5,109.9
Q 8.9,109.7,11.1,107.0
Q 11.1,106.8,11.1,106.6
Q 11.3,105.6,11.6,104.6
Q 12.0,102.6,12.0,98.6
Q 12.0,91.7,14.8,91.7
Q 15.4,91.7,17.3,93.6
Q 21.4,97.7,23.7,92.0
Q 24.8,89.3,25.6,90.5
Q 25.8,90.8,27.1,95.7
Q 28.5,100.8,28.7,100.9
Q 31.0,101.5,31.1,89.9
Q 31.1,85.1,31.4,84.8
Q 31.7,84.7,32.7,84.7
Q 33.2,84.8,33.8,84.8
Q 33.8,74.6,32.1,72.2
Q 30.3,69.8,28.3,65.0
Q 24.4,55.6,23.6,43.9
Q 23.4,43.9,23.3,44.0
Q 23.1,44.0,23.1,41.2
Q 23.7,39.8,24.2,38.4
Q 26.6,32.3,26.9,28.1
Q 27.0,26.7,27.1,25.2
Q 27.1,23.5,27.1,21.7
Q 27.0,20.1,26.9,18.6
Q 26.7,15.5,25.4,9.5
Q 25.3,9.8,25.2,10.1
Q 25.0,10.8,24.3,13.9
Q 23.7,17.0,22.9,17.1
Q 22.1,17.3,22.4,15.5
Q 23.9,6.0,24.4,2.2
Q 24.7,-1.1,25.3,-1.1
Q 25.9,-1.1,25.8,1.3
Q 25.7,3.8,26.6,7.0
Q 27.6,10.1,28.0,13.5
Q 28.2,15.1,28.4,16.8
Q 28.6,16.8,28.7,16.8
Q 28.9,16.7,28.9,17.9
Q 28.9,17.9,28.9,17.9
Q 28.9,18.4,28.9,19.0
Q 28.8,20.5,28.8,21.8
Q 28.6,24.7,28.3,27.2
Q 27.7,34.8,25.7,38.8
Q 24.5,41.1,26.7,52.8
Q 27.8,51.8,28.9,50.8
Q 31.1,48.8,33.4,46.6
Q 42.6,38.1,46.0,39.1
Q 46.6,39.3,47.1,39.5
Q 47.3,39.5,47.6,39.5
Q 48.1,39.8,48.7,40.1
Q 49.8,40.8,50.4,41.2
Q 50.8,41.5,51.1,41.7
Q 47.1,33.7,44.9,29.7
Q 34.7,11.5,31.3,1.3
Q 27.4,-10.2,25.0,-11.3
Q 24.0,-11.8,19.0,-10.4
Q 15.9,-9.6,8.0,-9.0
Q 6.9,-9.0,5.8,-9.0
Q -1.8,-9.0,-5.6,-9.4
Q -9.5,-9.9,-10.1,-9.2
Q -14.7,-2.8,-16.0,9.8
Q -17.4,23.9,-27.6,39.0
Q -26.7,39.1,-25.8,39.2
Q -24.0,39.5,-22.0,40.3
Q -20.0,41.2,-15.6,39.9
Q -15.3,39.9,-15.1,39.9
Q -14.6,39.8,-14.0,39.7
Q -12.9,39.5,-11.4,41.0
Q -9.9,42.6,-8.2,42.9
Q -3.9,43.4,-2.2,45.6
Q -1.4,46.7,-0.4,46.6
Q -0.2,44.5,0.0,42.4
Q 0.4,38.1,-0.9,35.4
Q -3.6,30.0,-4.2,21.8
Q -4.2,20.8,-4.3,19.7
Q -4.5,12.1,-4.9,8.6
Q -5.6,3.4,-4.8,3.2
Q -4.2,3.0,-3.4,6.9
Q -2.6,10.8,-1.7,13.9
Q -0.0,19.9,-1.1,20.0
Q -2.0,20.1,-2.2,17.7
Q -2.3,17.7,-2.4,17.7
Q -2.6,17.8,-2.6,19.7
Q -2.7,20.7,-2.7,21.7
Q -1.3,31.6,1.4,36.1
Q 2.8,38.3,3.0,39.4
Q 3.2,40.5,2.6,40.1
Q 1.9,39.8,1.4,43.6
Q 1.1,45.6,0.9,47.5
Q 0.8,47.6,0.8,47.6
Q 0.7,47.8,0.7,47.9
Q 0.4,48.4,0.4,49.0
Q 0.4,49.4,0.4,49.7
Q -3.8,65.9,-8.3,75.3
Q -9.8,78.6,-11.1,83.9
Q -11.0,84.3,-11.0,84.7
Q -10.8,85.4,-10.7,86.1
Q -9.5,92.1,-6.8,96.2
Q -5.0,99.1,-0.9,92.2
Q 0.0,90.7,0.9,89.2
 " /> 
<path  
style="fill:rgb(14,103,171)" 
d="M 0.9 89.2
Q 0.2,90.8,-0.4,92.4
Q -3.5,99.5,-6.5,97.3
Q -8.2,96.1,-11.0,86.5
Q -11.3,85.7,-11.6,84.8
Q -12.2,86.7,-12.9,88.6
Q -14.2,92.4,-15.1,94.3
Q -28.8,125.1,-14.9,152.8
Q -9.7,163.2,1.7,175.1
Q 1.7,175.1,1.7,175.1
Q -1.7,171.0,-3.6,154.8
Q -5.5,137.7,-3.6,135.8
Q -2.2,134.4,-2.7,138.9
Q -4.2,151.6,1.7,172.0
Q 3.0,176.4,2.9,176.4
Q 2.8,176.4,2.8,176.3
Q 8.8,182.5,16.5,189.2
Q 23.8,195.6,24.1,195.5
Q 24.8,195.2,23.8,190.8
Q 22.9,186.5,16.5,170.6
Q 11.0,156.8,10.3,142.1
Q 9.9,132.9,11.2,133.4
Q 11.7,133.5,11.8,139.2
Q 12.2,155.5,20.4,175.2
Q 25.3,186.8,26.2,194.7
Q 26.6,198.2,28.5,200.3
Q 34.7,206.9,37.4,215.4
Q 37.9,217.0,38.4,218.7
Q 39.9,216.8,40.8,214.9
Q 41.7,213.0,43.0,211.2
Q 44.3,209.4,48.0,203.2
Q 51.7,197.1,54.4,192.6
Q 62.0,180.0,56.5,164.2
Q 54.2,157.6,46.8,145.0
Q 37.9,129.9,38.8,129.4
Q 39.3,129.1,39.8,130.0
Q 49.9,146.2,53.9,153.5
Q 61.3,167.0,60.7,178.3
Q 60.6,180.5,60.5,182.7
Q 61.1,181.7,61.6,180.8
Q 83.8,142.3,65.6,124.1
Q 62.0,120.6,52.5,114.2
Q 34.6,102.0,33.9,86.9
Q 33.8,86.1,33.8,85.2
Q 32.4,85.2,32.2,85.6
Q 32.0,85.9,31.8,89.4
Q 31.1,101.3,28.9,101.5
Q 28.0,101.6,26.7,96.3
Q 25.7,92.1,25.0,90.4
Q 24.6,91.3,24.2,92.2
Q 21.7,98.6,16.8,93.8
Q 15.0,92.1,14.6,92.1
Q 12.6,92.2,12.3,100.7
Q 12.2,104.9,11.1,106.6
Q 11.1,106.8,11.1,107.0
Q 10.7,107.9,10.2,108.8
Q 7.1,115.0,4.6,99.0
Q 4.3,97.0,4.0,95.0
Q 4.0,94.8,4.0,94.6
Q 3.1,93.2,3.1,92.6
Q 3.1,92.2,3.1,91.9
Q 3.1,91.7,3.1,91.5
Q 2.9,91.0,2.7,90.6
Q 2.3,89.6,1.8,89.4
Q 1.6,89.3,1.3,89.2
Q 1.1,89.2,0.9,89.2
 " /> 
<path  
style="fill:rgb(7,193,201)" 
d="M 39.3 213.1
Q 39.5,213.7,40.0,213.7
Q 40.4,213.7,40.7,212.5
Q 40.9,211.3,41.4,209.7
Q 41.8,208.1,42.7,201.5
Q 45.9,178.4,37.0,155.3
Q 36.0,152.5,35.2,153.0
Q 34.7,153.3,36.1,156.9
Q 43.9,178.3,41.1,201.8
Q 40.4,207.9,39.8,210.2
Q 39.1,212.6,39.3,213.1
 " /> 
<path  
style="fill:rgb(7,193,201)" 
d="M 66.4 161.4
Q 66.7,163.1,67.2,162.9
Q 68.6,162.4,66.9,155.5
Q 63.5,141.6,54.1,130.1
Q 52.5,128.1,52.0,128.6
Q 51.5,129.1,53.3,131.3
Q 63.8,144.7,66.4,161.4
 " /> 
<path  
style="fill:rgb(7,193,201)" 
d="M 0.9 89.2
Q 0.0,90.7,-0.9,92.2
Q -5.0,99.1,-6.8,96.2
Q -9.5,92.1,-10.7,86.1
Q -10.8,85.4,-11.0,84.7
Q -11.3,84.7,-11.6,84.8
Q -11.3,85.7,-11.0,86.5
Q -8.2,96.1,-6.5,97.3
Q -3.5,99.5,-0.4,92.4
Q 0.2,90.8,0.9,89.2
 " /> 
<path  
style="fill:rgb(7,193,201)" 
d="M -11.6 84.8
Q -11.3,84.4,-11.1,83.9
Q -11.2,83.9,-11.3,84.0
Q -11.5,84.0,-11.5,84.4
Q -11.5,84.6,-11.6,84.8
 " /> 
<path  
style="fill:rgb(7,193,201)" 
d="M -11.6 84.8
Q -11.3,84.7,-11.0,84.7
Q -11.0,84.3,-11.1,83.9
Q -11.3,84.4,-11.6,84.8
 " /> 
<path  
style="fill:rgb(7,193,201)" 
d="M 1.3 89.2
Q 1.6,89.3,1.8,89.4
Q 2.3,89.6,2.7,90.6
Q 2.9,91.0,3.1,91.5
Q 2.4,89.0,1.8,89.1
Q 1.6,89.2,1.3,89.2
 " /> 
<path  
style="fill:rgb(7,193,201)" 
d="M 3.1 91.9
Q 3.1,92.2,3.1,92.6
Q 3.1,93.2,4.0,94.6
Q 4.0,93.2,3.6,92.6
Q 3.3,92.2,3.1,91.9
 " /> 
<path  
style="fill:rgb(7,193,201)" 
d="M 11.1 106.6
Q 12.2,104.9,12.3,100.7
Q 12.6,92.2,14.6,92.1
Q 15.0,92.1,16.8,93.8
Q 21.7,98.6,24.2,92.2
Q 24.6,91.3,25.0,90.4
Q 25.7,92.1,26.7,96.3
Q 28.0,101.6,28.9,101.5
Q 31.1,101.3,31.8,89.4
Q 32.0,85.9,32.2,85.6
Q 32.4,85.2,33.8,85.2
Q 33.8,85.0,33.8,84.8
Q 33.2,84.8,32.7,84.7
Q 31.7,84.7,31.4,84.8
Q 31.1,85.1,31.1,89.9
Q 31.0,101.5,28.7,100.9
Q 28.5,100.8,27.1,95.7
Q 25.8,90.8,25.6,90.5
Q 24.8,89.3,23.7,92.0
Q 21.4,97.7,17.3,93.6
Q 15.4,91.7,14.8,91.7
Q 12.0,91.7,12.0,98.6
Q 12.0,102.6,11.6,104.6
Q 11.3,105.6,11.1,106.6
 " /> 
<path  
style="fill:rgb(7,193,201)" 
d="M 2.8 176.3
Q 2.8,176.4,2.9,176.4
Q 3.0,176.4,1.7,172.0
Q -4.2,151.6,-2.7,138.9
Q -2.2,134.4,-3.6,135.8
Q -5.5,137.7,-3.6,154.8
Q -1.7,171.0,1.7,175.1
Q 2.0,175.4,2.2,175.7
Q 6.4,180.0,11.4,184.6
 " /> 
<path  
style="fill:rgb(14,103,171)" 
d="M 0.4 49.7
Q 0.4,49.4,0.4,49.0
Q 0.4,48.4,0.7,47.9
Q 0.7,47.8,0.8,47.6
Q 0.8,47.6,0.8,47.6
Q 0.4,48.2,0.1,48.7
Q 0.2,48.8,0.3,49.1
Q 0.4,49.4,0.4,49.7
 " /> 
<path  
style="fill:rgb(4,4,4)" 
d="M 0.9 47.5
Q 0.2,47.2,-0.4,47.0
Q 0.1,47.3,0.7,47.6
Q 0.8,47.5,0.9,47.5
 " /> 
<path  
style="fill:rgb(4,4,4)" 
d="M 0.9 47.5
Q 0.2,47.0,-0.4,46.6
Q -0.4,46.8,-0.4,47.0
Q 0.2,47.2,0.9,47.5
 " /> 
<path  
style="fill:rgb(4,4,4)" 
d="M 0.9 47.5
Q 1.1,45.6,1.4,43.6
Q 1.9,39.8,2.6,40.1
Q 3.2,40.5,3.0,39.4
Q 2.8,38.3,1.4,36.1
Q -1.3,31.6,-2.7,21.7
Q -3.4,21.7,-4.2,21.8
Q -3.6,30.0,-0.9,35.4
Q 0.4,38.1,0.0,42.4
Q -0.2,44.5,-0.4,46.6
Q 0.2,47.0,0.9,47.5
 " /> 
<path  
style="fill:rgb(4,4,4)" 
d="M -2.7 21.7
Q -2.9,17.1,-2.6,17.4
Q -2.4,17.6,-2.2,17.7
Q -2.0,20.1,-1.1,20.0
Q -0.0,19.9,-1.7,13.9
Q -2.6,10.8,-3.4,6.9
Q -4.2,3.0,-4.8,3.2
Q -5.6,3.4,-4.9,8.6
Q -4.5,12.1,-4.3,19.7
Q -4.2,20.8,-4.2,21.8
Q -3.4,21.7,-2.7,21.7
 " /> 
<path  
style="fill:rgb(7,193,201)" 
d="M -2.7 21.7
Q -2.7,20.7,-2.6,19.7
Q -2.6,17.8,-2.4,17.7
Q -2.3,17.7,-2.2,17.7
Q -2.4,17.6,-2.6,17.4
Q -2.9,17.1,-2.7,21.7
 " /> 
<path  
style="fill:rgb(7,193,201)" 
d="M -0.4 46.6
Q -1.4,46.7,-2.2,45.6
Q -3.9,43.4,-8.2,42.9
Q -9.9,42.6,-11.4,41.0
Q -12.9,39.5,-14.0,39.7
Q -14.6,39.8,-15.1,39.9
Q -13.3,39.9,-11.3,41.7
Q -9.4,43.5,-7.7,43.5
Q -3.6,43.5,-1.9,46.7
Q -1.3,47.9,-0.4,47.0
Q -0.4,46.8,-0.4,46.6
 " /> 
<path  
style="fill:rgb(14,103,171)" 
d="M -15.1 39.9
Q -15.3,39.9,-15.6,39.9
Q -19.1,42.1,-22.3,40.7
Q -24.4,39.8,-28.0,39.5
Q -33.4,47.8,-35.3,54.9
Q -34.7,55.0,-34.1,55.2
Q -33.0,49.7,-31.3,49.7
Q -30.6,49.7,-30.8,50.3
Q -31.0,50.8,-32.1,53.4
Q -33.2,56.1,-33.8,56.3
Q -34.4,56.5,-34.1,55.2
Q -34.7,55.0,-35.3,54.9
Q -36.2,58.0,-36.3,60.9
Q -36.7,67.5,-35.1,63.5
Q -33.8,60.6,-27.6,53.2
Q -24.5,49.5,-23.7,49.3
Q -22.2,49.0,-27.9,56.0
Q -35.6,65.6,-35.6,69.5
Q -35.6,70.9,-34.6,73.9
Q -32.4,81.1,-27.9,83.7
Q -27.3,84.0,-26.7,84.4
Q -26.7,71.0,-26.2,70.5
Q -25.2,69.3,-25.8,78.1
Q -26.0,81.2,-26.2,84.4
Q -19.4,84.4,-15.4,80.6
Q -13.7,79.0,-14.0,75.3
Q -14.2,71.7,-14.5,63.1
Q -14.8,54.5,-14.0,54.7
Q -13.2,54.9,-13.0,60.8
Q -12.9,66.8,-12.6,71.9
Q -12.5,74.5,-12.3,77.0
Q -11.8,76.4,-11.3,75.7
Q -10.3,74.4,-9.4,72.2
Q -8.6,69.9,-7.0,67.0
Q -4.8,63.1,-2.1,52.4
Q -1.1,48.7,-0.5,48.6
Q -0.4,48.6,-0.3,48.6
Q -0.4,47.8,-0.4,47.0
Q -1.3,47.9,-1.9,46.7
Q -3.6,43.5,-7.7,43.5
Q -9.4,43.5,-11.3,41.7
Q -13.3,39.9,-15.1,39.9
 " /> 
<path  
style="fill:rgb(7,193,201)" 
d="M -9.0 59.6
Q -8.8,64.4,-8.1,64.4
Q -7.6,64.4,-7.6,59.8
Q -7.6,53.1,-8.9,54.4
Q -9.3,54.8,-9.0,59.6
 " /> 
<path  
style="fill:rgb(7,193,201)" 
d="M -15.6 39.9
Q -20.0,41.2,-22.0,40.3
Q -24.0,39.5,-25.8,39.2
Q -26.7,39.1,-27.6,39.0
Q -27.8,39.0,-28.0,39.5
Q -24.4,39.8,-22.3,40.7
Q -19.1,42.1,-15.6,39.9
 " /> 
<path  
style="fill:rgb(14,103,171)" 
d="M 5.8 -9.0
Q 6.9,-9.0,8.0,-9.0
Q 7.7,-9.1,7.4,-9.2
Q 6.7,-9.5,6.2,-9.2
Q 6.0,-9.1,5.8,-9.0
 " /> 
<path  
style="fill:rgb(7,193,201)" 
d="M 51.1 41.7
Q 50.9,42.0,50.7,42.3
Q 50.8,42.3,50.9,42.3
Q 51.4,42.7,52.0,43.0
Q 51.5,42.2,51.1,41.7
 " /> 
<path  
style="fill:rgb(7,193,201)" 
d="M 51.1 41.7
Q 50.8,41.5,50.4,41.2
Q 49.8,40.8,48.7,40.1
Q 48.1,39.8,47.6,39.5
Q 48.1,40.0,48.7,40.6
Q 49.7,41.6,50.7,42.3
Q 50.9,42.0,51.1,41.7
 " /> 
<path  
style="fill:rgb(14,103,171)" 
d="M 47.6 39.5
Q 47.3,39.5,47.1,39.5
Q 45.8,39.1,45.0,39.4
Q 41.7,40.3,36.5,44.5
Q 35.1,45.7,26.7,53.2
Q 27.2,55.1,27.8,57.0
Q 30.7,67.1,36.0,73.7
Q 35.8,72.6,35.6,71.5
Q 35.0,68.6,34.6,61.5
Q 34.5,60.2,35.1,60.2
Q 35.7,60.2,35.9,62.2
Q 36.1,64.1,36.5,65.9
Q 36.9,67.7,36.8,70.9
Q 36.8,74.2,36.0,74.1
Q 36.7,74.9,37.3,75.7
Q 39.6,78.4,46.3,80.0
Q 45.7,78.1,44.2,74.8
Q 42.6,71.4,39.1,58.7
Q 37.9,54.1,38.2,53.9
Q 39.0,53.4,40.4,57.9
Q 46.9,80.4,50.2,80.4
Q 57.6,80.4,59.8,72.2
Q 60.7,68.8,54.4,60.8
Q 45.4,49.2,47.6,49.2
Q 48.2,49.2,50.3,52.3
Q 52.5,55.6,59.4,64.6
Q 59.9,65.2,60.4,65.9
Q 58.4,58.9,57.2,55.7
Q 56.6,54.0,56.0,52.4
Q 56.2,53.0,56.4,53.7
Q 51.2,48.9,52.1,48.7
Q 52.4,48.7,54.0,49.9
Q 54.8,50.4,55.6,51.0
Q 55.1,50.0,54.7,49.0
Q 53.8,47.0,52.9,45.0
Q 52.4,44.0,52.0,43.0
Q 51.4,42.7,50.9,42.3
Q 50.8,42.3,50.7,42.3
Q 49.7,41.6,48.7,40.6
Q 48.1,40.0,47.6,39.5
 " /> 
<path  
style="fill:rgb(7,193,201)" 
d="M 54.5 75.2
Q 55.7,77.7,56.2,77.5
Q 57.1,77.2,53.5,69.8
Q 50.7,63.9,50.0,63.9
Q 48.9,63.9,51.5,69.0
Q 53.2,72.6,54.5,75.2
 " /> 
<path  
style="fill:rgb(7,193,201)" 
d="M 47.1 39.5
Q 46.6,39.3,46.0,39.1
Q 42.6,38.1,33.4,46.6
Q 31.1,48.8,28.9,50.8
Q 27.8,51.8,26.7,52.8
Q 26.7,53.0,26.7,53.2
Q 35.1,45.7,36.5,44.5
Q 41.7,40.3,45.0,39.4
Q 45.8,39.1,47.1,39.5
 " /> 
<path  
style="fill:rgb(4,4,4)" 
d="M 28.9 19.0
Q 28.6,19.1,28.5,18.8
Q 28.4,18.6,28.4,16.8
Q 28.2,15.1,28.0,13.5
Q 27.6,10.1,26.6,7.0
Q 25.7,3.8,25.8,1.3
Q 25.9,-1.1,25.3,-1.1
Q 24.7,-1.1,24.4,2.2
Q 23.9,6.0,22.4,15.5
Q 22.1,17.3,22.9,17.1
Q 23.7,17.0,24.3,13.9
Q 25.0,10.8,25.2,10.1
Q 25.3,9.8,25.4,9.5
Q 26.7,15.5,26.9,18.6
Q 27.0,20.1,27.1,21.7
Q 27.9,21.7,28.8,21.8
Q 28.8,20.5,28.9,19.0
 " /> 
<path  
style="fill:rgb(7,193,201)" 
d="M 28.9 19.0
Q 28.9,18.4,28.9,17.9
Q 28.7,17.3,28.4,16.8
Q 28.4,18.6,28.5,18.8
Q 28.6,19.1,28.9,19.0
 " /> 
<path  
style="fill:rgb(7,193,201)" 
d="M 28.4 16.8
Q 28.7,17.3,28.9,17.9
Q 28.9,17.9,28.9,17.9
Q 28.9,16.7,28.7,16.8
Q 28.6,16.8,28.4,16.8
 " /> 
<path  
style="fill:rgb(4,4,4)" 
d="M 27.1 21.7
Q 27.2,22.1,27.3,22.6
Q 27.6,23.5,27.1,25.2
Q 27.8,25.3,28.5,25.4
Q 28.7,22.7,28.9,19.7
Q 27.9,21.7,27.1,21.7
 " /> 
<path  
style="fill:rgb(14,103,171)" 
d="M 27.1 21.7
Q 27.1,23.5,27.1,25.2
Q 27.6,23.5,27.3,22.6
Q 27.2,22.1,27.1,21.7
 " /> 
<path  
style="fill:rgb(7,193,201)" 
d="M 23.1 41.2
Q 23.1,44.0,23.3,44.0
Q 23.4,43.9,23.6,43.9
Q 23.6,41.7,23.5,41.5
Q 23.4,41.2,23.1,41.2
 " /> 
<path  
style="fill:rgb(7,193,201)" 
d="M -26.7 84.4
Q -26.4,84.4,-26.2,84.4
Q -26.0,81.2,-25.8,78.1
Q -25.2,69.3,-26.2,70.5
Q -26.7,71.0,-26.7,84.4
 " /> 
<path  
style="fill:rgb(4,4,4)" 
d="M -0.4 47.0
Q -0.3,47.2,-0.2,47.5
Q -0.0,47.8,0.7,47.6
Q 0.1,47.3,-0.4,47.0
 " /> 
<path  
style="fill:rgb(14,103,171)" 
d="M -0.4 47.0
Q -0.4,47.8,-0.3,48.6
Q -0.1,48.6,0.1,48.7
Q 0.4,48.2,0.8,47.6
Q 0.7,47.6,0.6,47.6
Q -0.0,47.8,-0.2,47.5
Q -0.3,47.2,-0.4,47.0
 " /> 
<path  
style="fill:rgb(7,193,201)" 
d="M 36.0 73.7
Q 36.0,73.9,36.0,74.1
Q 36.8,74.2,36.8,70.9
Q 36.9,67.7,36.5,65.9
Q 36.1,64.1,35.9,62.2
Q 35.7,60.2,35.1,60.2
Q 34.5,60.2,34.6,61.5
Q 35.0,68.6,35.6,71.5
Q 35.8,72.6,36.0,73.7
 " /> 
<path  
style="fill:rgb(4,4,4)" 
d="M 55.6 51.0
Q 55.5,51.3,55.5,51.5
Q 55.5,51.9,56.0,52.4
Q 55.8,51.7,55.6,51.0
 " /> 
<path  
style="fill:rgb(7,193,201)" 
d="M 55.6 51.0
Q 54.8,50.4,54.0,49.9
Q 52.4,48.7,52.1,48.7
Q 51.2,48.9,56.4,53.7
Q 56.2,53.0,56.0,52.4
Q 55.5,51.9,55.5,51.5
Q 55.5,51.3,55.6,51.0
 " /> 
<path  
style="fill:rgb(7,193,201)" 
d="M -34.1 55.2
Q -34.4,56.5,-33.8,56.3
Q -33.2,56.1,-32.1,53.4
Q -31.0,50.8,-30.8,50.3
Q -30.6,49.7,-31.3,49.7
Q -33.0,49.7,-34.1,55.2
 " /> 
<path  
style="fill:rgb(97,247,248)" 
d="M -66.7 -103.6
Q -66.7,-103.1,-66.7,-102.6
Q -66.7,-101.6,-67.1,-101.4
Q -67.1,-79.9,-64.7,-70.5
Q -59.2,-49.6,-51.7,-38.7
Q -49.4,-35.2,-44.6,-29.6
Q -43.4,-31.2,-42.2,-32.8
Q -39.9,-36.1,-39.2,-36.1
Q -37.8,-36.1,-41.6,-31.0
Q -56.1,-11.0,-54.2,-2.8
Q -52.9,3.4,-44.9,-10.7
Q -40.2,-19.1,-38.5,-23.4
Q -37.9,-24.8,-35.6,-28.0
Q -33.3,-31.2,-32.6,-31.2
Q -31.5,-31.2,-34.0,-27.4
Q -35.8,-24.9,-34.7,-24.2
Q -30.9,-21.7,-30.3,-21.7
Q -29.6,-21.6,-28.6,-24.7
Q -27.1,-29.4,-26.4,-27.5
Q -25.7,-25.7,-29.3,-17.6
Q -31.3,-13.3,-32.9,-6.1
Q -34.4,0.6,-33.1,3.4
Q -30.3,9.6,-17.5,-14.8
Q -16.9,-16.0,-14.2,-18.7
Q -13.9,-19.1,-13.6,-19.4
Q -13.6,-19.4,-13.6,-19.4
Q -11.5,-21.4,-12.0,-19.2
Q -12.3,-18.6,-12.7,-18.1
Q -12.7,-18.0,-12.8,-17.9
Q -13.5,-16.7,-15.5,-13.9
Q -8.8,-12.7,-4.2,-12.1
Q -1.9,-11.9,0.4,-11.6
Q 1.8,-11.6,3.1,-11.6
Q 12.4,-12.1,16.4,-12.7
Q 20.4,-13.4,24.4,-14.3
Q 26.4,-14.7,28.4,-15.2
Q 28.5,-15.3,28.5,-15.4
Q 28.6,-15.5,30.7,-15.6
Q 30.6,-16.2,30.4,-16.7
Q 30.2,-17.9,29.1,-20.4
Q 27.4,-24.1,28.2,-24.1
Q 29.2,-24.1,35.0,-11.7
Q 39.5,-2.0,40.9,-4.2
Q 41.2,-4.6,41.6,-6.4
Q 41.9,-7.7,42.2,-9.0
Q 42.2,-11.1,42.7,-11.2
Q 41.8,-17.4,41.4,-18.2
Q 41.0,-19.0,40.3,-21.0
Q 39.7,-23.0,37.6,-26.9
Q 35.6,-30.7,36.1,-31.0
Q 37.2,-31.7,40.6,-25.0
Q 41.6,-23.2,42.5,-21.3
Q 47.3,-25.5,47.2,-26.0
Q 47.2,-26.5,45.6,-30.9
Q 44.0,-35.3,44.2,-36.0
Q 44.8,-37.6,46.9,-32.1
Q 48.1,-28.8,48.9,-27.0
Q 49.7,-25.2,50.6,-22.5
Q 51.4,-19.8,52.6,-17.5
Q 53.2,-16.3,53.8,-15.2
Q 54.7,-14.3,56.0,-13.9
Q 57.3,-16.5,57.8,-19.4
Q 59.4,-28.5,54.9,-38.6
Q 52.9,-42.9,53.9,-42.7
Q 56.3,-42.2,57.8,-36.3
Q 58.0,-35.5,58.2,-34.7
Q 58.5,-34.9,58.9,-35.0
Q 59.5,-35.2,60.4,-36.1
Q 65.3,-41.4,67.5,-44.7
Q 73.9,-54.2,75.1,-63.6
Q 75.3,-65.4,75.6,-67.2
Q 75.6,-69.0,75.6,-70.7
Q 75.6,-71.0,75.6,-71.2
Q 75.6,-74.3,75.6,-77.4
Q 74.7,-87.2,74.0,-92.0
Q 70.5,-116.6,59.6,-129.9
Q 59.2,-130.1,58.9,-130.3
Q 58.2,-130.8,57.8,-131.4
Q 57.6,-131.8,57.3,-132.1
Q 52.9,-135.6,50.1,-137.5
Q 47.4,-139.3,45.4,-140.4
Q 43.3,-141.4,43.4,-142.2
Q 43.5,-144.0,48.6,-141.3
Q 48.4,-142.0,48.3,-142.6
Q 47.1,-148.3,43.6,-153.6
Q 42.9,-154.6,42.2,-155.6
Q 41.8,-156.0,41.3,-156.3
Q 40.5,-157.0,39.8,-157.9
Q 39.4,-158.3,39.1,-158.7
Q 37.4,-159.7,35.8,-160.7
Q 20.7,-169.8,8.4,-152.7
Q 6.2,-149.6,5.5,-149.2
Q 5.0,-149.0,3.1,-148.9
Q 1.7,-148.9,-0.4,-149.0
Q -1.6,-149.0,-2.7,-149.0
Q -3.8,-149.0,-4.9,-149.0
Q -5.3,-149.3,-5.8,-149.6
Q -6.7,-150.3,-7.7,-152.0
Q -12.0,-159.0,-18.4,-163.3
Q -22.0,-165.8,-28.4,-166.7
Q -31.1,-166.7,-33.8,-166.7
Q -40.0,-164.7,-43.0,-158.9
Q -46.2,-152.7,-46.3,-148.3
Q -46.3,-144.3,-47.9,-144.3
Q -48.4,-144.3,-50.0,-142.8
Q -51.6,-141.2,-51.5,-140.4
Q -51.3,-139.6,-53.4,-137.7
Q -55.4,-135.8,-57.3,-132.9
Q -65.0,-120.2,-66.2,-108.1
Q -66.4,-105.9,-66.7,-103.6
 " /> 
<path  
style="fill:rgb(4,4,4)" 
d="M 17.8 -24.4
Q 21.8,-22.1,21.8,-23.4
Q 21.8,-24.0,20.1,-25.1
Q 12.4,-30.3,-1.2,-25.9
Q -3.1,-25.3,-2.4,-24.5
Q -1.9,-24.1,2.0,-25.0
Q 12.4,-27.4,17.8,-24.4
 " /> 
<path  
style="fill:rgb(4,4,4)" 
d="M -1.1 -45.4
Q -0.3,-44.2,1.2,-47.3
Q 2.1,-49.2,4.0,-52.1
Q 6.6,-56.1,5.6,-56.1
Q 3.8,-56.1,-0.1,-48.4
Q -1.4,-45.8,-1.1,-45.4
 " /> 
<path  
style="fill:rgb(4,4,4)" 
d="M 12.9 -49.5
Q 15.2,-44.9,15.7,-45.1
Q 16.6,-45.5,14.7,-49.4
Q 11.5,-55.6,10.6,-55.6
Q 9.7,-55.6,12.9,-49.5
 " /> 
<path  
style="fill:rgb(14,103,171)" 
d="M 16.9 -76.5
Q 16.7,-76.4,16.5,-76.3
Q 16.0,-76.0,16.0,-73.9
Q 16.1,-74.2,16.2,-74.5
Q 16.4,-75.2,16.6,-75.9
Q 16.8,-76.2,16.9,-76.5
 " /> 
<path  
style="fill:rgb(4,4,4)" 
d="M 16.9 -76.5
Q 16.8,-76.2,16.6,-75.9
Q 16.4,-75.2,16.2,-74.5
Q 16.1,-74.2,16.0,-73.9
Q 15.6,-72.5,15.1,-71.2
Q 13.7,-67.1,13.9,-66.6
Q 14.6,-64.9,16.1,-69.0
Q 16.5,-70.4,17.0,-71.7
Q 18.0,-70.0,18.9,-68.2
Q 24.5,-57.0,31.8,-55.0
Q 33.0,-54.6,34.2,-54.3
Q 34.7,-54.4,35.1,-54.5
Q 36.0,-54.8,37.8,-54.3
Q 39.1,-54.6,40.4,-55.0
Q 54.6,-58.5,61.2,-72.4
Q 70.7,-92.7,56.7,-114.2
Q 48.4,-127.1,37.8,-121.4
Q 37.4,-121.0,37.1,-120.5
Q 36.4,-119.7,35.5,-119.0
Q 35.1,-118.6,34.7,-118.3
Q 29.8,-110.7,28.0,-106.9
Q 23.7,-97.8,16.9,-76.5
 " /> 
<path  
style="fill:rgb(31,181,0)" 
d="M 38.2 -57.4
Q 36.2,-57.4,34.2,-57.4
Q 34.8,-57.3,35.3,-57.2
Q 36.4,-56.9,37.3,-57.2
Q 37.8,-57.3,38.2,-57.4
 " /> 
<path  
style="fill:rgb(115,250,3)" 
d="M 38.2 -57.4
Q 39.2,-57.6,40.2,-57.9
Q 44.4,-58.8,50.3,-63.5
Q 58.0,-69.6,60.6,-79.4
Q 61.2,-81.5,61.8,-83.6
Q 61.8,-84.2,61.8,-84.7
Q 61.8,-85.7,62.0,-85.8
Q 62.1,-85.8,62.2,-85.9
Q 62.2,-103.2,53.1,-115.0
Q 48.5,-121.0,44.6,-121.2
Q 42.6,-121.3,39.1,-119.6
Q 37.7,-117.9,36.9,-117.2
Q 36.4,-116.9,36.0,-116.5
Q 35.2,-115.3,34.4,-114.1
Q 32.9,-111.7,31.8,-109.4
Q 31.2,-108.3,30.7,-107.2
Q 30.1,-105.9,29.7,-105.4
Q 29.5,-105.2,29.3,-105.0
Q 28.6,-103.2,27.8,-101.4
Q 24.3,-93.4,20.4,-81.7
Q 18.6,-76.0,19.5,-73.7
Q 24.6,-60.3,34.2,-57.4
Q 36.2,-57.4,38.2,-57.4
 " /> 
<path  
style="fill:rgb(115,250,3)" 
d="M 41.8 -86.7
Q 42.5,-87.0,43.3,-87.2
Q 46.1,-87.9,49.3,-83.9
Q 50.1,-82.9,50.7,-82.3
Q 51.1,-82.8,51.6,-83.2
Q 49.8,-85.8,47.6,-89.0
Q 47.4,-89.1,47.2,-89.3
Q 46.9,-89.5,46.0,-89.5
Q 45.5,-89.4,44.9,-89.4
Q 43.3,-88.4,42.5,-87.6
Q 42.1,-87.2,41.8,-86.7
 " /> 
<path  
style="fill:rgb(31,181,0)" 
d="M 41.8 -86.7
Q 41.0,-85.9,40.2,-85.0
Q 32.1,-75.7,28.0,-76.3
Q 27.3,-76.4,26.7,-76.5
Q 26.1,-75.9,25.6,-75.2
Q 24.4,-73.9,24.4,-71.5
Q 24.4,-69.1,26.1,-68.2
Q 27.8,-67.3,29.8,-66.2
Q 45.1,-57.5,55.0,-74.2
Q 63.3,-88.2,59.6,-98.6
Q 57.5,-104.6,55.4,-104.4
Q 54.3,-104.4,53.3,-103.6
Q 55.1,-100.1,55.6,-96.9
Q 57.6,-83.8,54.0,-82.3
Q 53.2,-82.0,51.6,-83.2
Q 52.4,-82.1,53.3,-81.0
Q 52.9,-81.0,52.4,-81.1
Q 51.8,-81.2,50.7,-82.3
Q 50.1,-82.9,49.3,-83.9
Q 46.1,-87.9,43.3,-87.2
Q 42.5,-87.0,41.8,-86.7
 " /> 
<path  
style="fill:rgb(4,4,4)" 
d="M 41.8 -86.7
Q 42.1,-87.2,42.5,-87.6
Q 43.3,-88.4,44.9,-89.4
Q 45.3,-89.6,45.8,-89.7
Q 46.7,-90.0,47.1,-89.5
Q 47.2,-89.4,47.2,-89.3
Q 47.3,-89.3,47.4,-89.2
Q 47.5,-89.1,47.6,-89.0
Q 49.8,-85.8,51.6,-83.2
Q 53.2,-82.0,54.0,-82.3
Q 57.6,-83.8,55.6,-96.9
Q 55.1,-100.1,53.3,-103.6
Q 52.6,-103.3,51.8,-103.0
Q 53.7,-98.5,54.0,-95.0
Q 54.1,-93.7,54.2,-92.5
Q 54.3,-91.7,54.5,-91.0
Q 54.7,-89.4,54.2,-86.7
Q 54.1,-86.2,54.0,-85.6
Q 53.6,-83.4,51.7,-86.6
Q 49.2,-90.9,47.1,-91.5
Q 45.7,-92.0,42.7,-90.7
Q 42.3,-90.3,42.0,-89.9
Q 41.3,-89.0,39.6,-87.6
Q 38.1,-85.9,36.7,-84.1
Q 31.8,-78.0,28.5,-78.2
Q 26.9,-78.3,25.2,-78.6
Q 23.4,-78.9,23.6,-78.2
Q 23.9,-77.5,26.7,-76.5
Q 27.3,-76.4,28.0,-76.3
Q 32.1,-75.7,40.2,-85.0
Q 41.0,-85.9,41.8,-86.7
 " /> 
<path  
style="fill:rgb(115,250,3)" 
d="M 51.6 -83.2
Q 51.1,-82.8,50.7,-82.3
Q 51.8,-81.2,52.4,-81.1
Q 52.9,-81.0,53.3,-81.0
Q 52.4,-82.1,51.6,-83.2
 " /> 
<path  
style="fill:rgb(4,4,4)" 
d="M 53.3 -103.6
Q 53.0,-104.4,52.7,-105.2
Q 50.7,-109.9,49.4,-109.9
Q 48.4,-109.9,50.6,-105.6
Q 51.3,-104.2,51.8,-103.0
Q 52.6,-103.3,53.3,-103.6
 " /> 
<path  
style="fill:rgb(115,250,3)" 
d="M 39.6 -87.6
Q 40.9,-89.4,42.7,-90.7
Q 42.4,-91.2,42.1,-91.6
Q 40.5,-90.4,38.8,-88.8
Q 38.7,-88.7,38.6,-88.7
Q 39.1,-88.1,39.6,-87.6
 " /> 
<path  
style="fill:rgb(31,181,0)" 
d="M 39.6 -87.6
Q 41.3,-89.0,42.0,-89.9
Q 42.3,-90.3,42.7,-90.7
Q 40.9,-89.4,39.6,-87.6
 " /> 
<path  
style="fill:rgb(31,181,0)" 
d="M 54.2 -86.7
Q 54.7,-89.4,54.5,-91.0
Q 54.3,-91.7,54.2,-92.5
Q 54.2,-89.6,54.2,-86.7
 " /> 
<path  
style="fill:rgb(31,181,0)" 
d="M 44.9 -89.4
Q 45.5,-89.4,46.0,-89.5
Q 46.9,-89.5,47.2,-89.3
Q 47.2,-89.4,47.1,-89.5
Q 46.7,-90.0,45.8,-89.7
Q 45.3,-89.6,44.9,-89.4
 " /> 
<path  
style="fill:rgb(209,251,185)" 
d="M 28.2 -83.6
Q 30.4,-81.2,38.6,-88.7
Q 38.7,-88.7,38.8,-88.8
Q 40.5,-90.4,42.1,-91.6
Q 43.6,-92.7,44.9,-93.4
Q 51.5,-96.8,48.8,-103.3
Q 46.0,-110.0,43.6,-111.2
Q 42.2,-111.9,42.3,-112.5
Q 42.4,-113.0,41.9,-113.3
Q 41.4,-113.4,41.2,-112.6
Q 41.0,-111.8,39.5,-110.9
Q 38.0,-110.0,36.0,-106.5
Q 34.1,-103.0,34.0,-101.7
Q 33.9,-100.3,32.3,-97.6
Q 25.7,-86.4,28.2,-83.6
 " /> 
<path  
style="fill:rgb(31,181,0)" 
d="M 30.7 -107.2
Q 29.9,-106.7,29.3,-105.0
Q 29.5,-105.2,29.7,-105.4
Q 30.1,-105.9,30.7,-107.2
 " /> 
<path  
style="fill:rgb(31,181,0)" 
d="M 36.0 -116.5
Q 36.4,-116.9,36.9,-117.2
Q 37.7,-117.9,39.1,-119.6
Q 37.3,-118.3,36.7,-117.4
Q 36.3,-117.0,36.0,-116.5
 " /> 
<path  
style="fill:rgb(31,181,0)" 
d="M 62.2 -85.9
Q 62.1,-85.8,62.0,-85.8
Q 61.8,-85.7,61.8,-84.7
Q 61.8,-84.2,61.8,-83.6
Q 62.2,-83.8,62.2,-85.9
 " /> 
<path  
style="fill:rgb(7,193,201)" 
d="M 34.7 -118.3
Q 35.1,-118.6,35.5,-119.0
Q 36.4,-119.7,37.1,-120.5
Q 37.4,-121.0,37.8,-121.4
Q 36.0,-120.1,35.3,-119.2
Q 35.0,-118.7,34.7,-118.3
 " /> 
<path  
style="fill:rgb(14,103,171)" 
d="M 37.8 -54.3
Q 36.0,-54.8,35.1,-54.5
Q 34.7,-54.4,34.2,-54.3
Q 36.0,-54.3,37.8,-54.3
 " /> 
<path  
style="fill:rgb(7,193,201)" 
d="M -17.8 -57.0
Q -19.6,-57.0,-21.3,-57.0
Q -20.9,-56.8,-20.4,-56.7
Q -19.6,-56.5,-17.8,-57.0
 " /> 
<path  
style="fill:rgb(4,4,4)" 
d="M -17.8 -57.0
Q -16.7,-57.2,-15.6,-57.4
Q -7.9,-58.9,-1.5,-71.3
Q -1.2,-69.8,-0.9,-68.4
Q 0.1,-63.1,1.1,-64.2
Q 1.7,-64.8,-0.4,-75.5
Q -8.2,-114.2,-20.7,-124.4
Q -26.4,-129.0,-31.6,-129.9
Q -32.9,-129.9,-34.2,-129.9
Q -35.1,-129.7,-36.0,-129.6
Q -39.6,-129.2,-44.1,-123.8
Q -51.1,-115.4,-50.5,-99.2
Q -49.9,-80.8,-40.1,-69.0
Q -39.4,-68.1,-38.7,-67.2
Q -36.9,-65.8,-36.0,-64.5
Q -34.7,-63.4,-33.3,-62.3
Q -27.9,-57.8,-23.1,-57.2
Q -22.2,-57.1,-21.3,-57.0
Q -19.6,-57.0,-17.8,-57.0
 " /> 
<path  
style="fill:rgb(115,250,3)" 
d="M -38.2 -69.9
Q -35.1,-67.2,-34.0,-65.8
Q -33.4,-65.2,-32.9,-64.5
Q -27.1,-61.0,-25.4,-60.3
Q -20.9,-58.7,-13.3,-60.5
Q -13.1,-60.7,-12.9,-61.0
Q -12.4,-61.4,-11.1,-62.3
Q -8.0,-65.0,-6.2,-67.7
Q -2.0,-74.1,-3.5,-80.6
Q -10.3,-109.4,-21.8,-122.3
Q -22.1,-122.5,-22.4,-122.8
Q -23.1,-123.2,-24.0,-124.5
Q -25.0,-125.1,-26.0,-125.7
Q -28.0,-126.8,-31.6,-127.6
Q -33.1,-127.6,-34.7,-127.6
Q -35.2,-127.5,-35.8,-127.4
Q -36.9,-127.2,-38.2,-126.5
Q -38.9,-126.2,-39.6,-125.9
Q -39.8,-125.5,-40.1,-125.2
Q -40.7,-124.4,-41.7,-123.6
Q -42.2,-123.2,-42.7,-122.7
Q -43.3,-121.6,-44.0,-120.5
Q -46.7,-116.1,-47.6,-111.6
Q -47.8,-110.5,-48.0,-109.4
Q -48.0,-107.4,-48.4,-107.2
Q -48.4,-105.6,-48.4,-104.1
Q -48.4,-102.3,-48.4,-100.5
Q -48.4,-85.4,-40.0,-72.5
Q -39.1,-71.2,-38.2,-69.9
 " /> 
<path  
style="fill:rgb(255,255,255)" 
d="M -23.1 -86.3
Q -22.9,-86.3,-22.7,-86.3
Q -22.5,-86.4,-22.3,-86.6
Q -21.9,-86.9,-23.2,-87.5
Q -25.0,-88.4,-26.9,-86.3
Q -27.3,-85.9,-27.7,-85.4
Q -24.4,-86.7,-23.8,-86.5
Q -23.4,-86.4,-23.1,-86.3
 " /> 
<path  
style="fill:rgb(31,181,0)" 
d="M -23.1 -86.3
Q -24.1,-86.1,-25.1,-85.9
Q -27.1,-85.4,-29.7,-82.8
Q -32.3,-80.1,-33.3,-80.4
Q -40.5,-82.3,-41.8,-106.7
Q -42.1,-106.9,-42.4,-107.0
Q -43.1,-107.2,-43.8,-105.7
Q -46.2,-100.7,-42.0,-86.1
Q -37.3,-70.0,-27.9,-65.6
Q -19.4,-61.6,-10.7,-69.7
Q -6.3,-73.8,-7.6,-76.9
Q -7.8,-77.4,-8.0,-77.9
Q -9.1,-77.9,-10.2,-78.1
Q -13.4,-79.0,-17.0,-82.3
Q -20.0,-85.0,-21.3,-85.6
Q -22.0,-86.0,-22.7,-86.3
Q -22.9,-86.3,-23.1,-86.3
 " /> 
<path  
style="fill:rgb(4,4,4)" 
d="M -23.1 -86.3
Q -23.4,-86.4,-23.8,-86.5
Q -24.4,-86.7,-27.7,-85.4
Q -27.3,-85.9,-26.9,-86.3
Q -25.0,-88.4,-23.2,-87.5
Q -21.9,-86.9,-22.3,-86.6
Q -22.5,-86.4,-22.7,-86.3
Q -22.0,-86.0,-21.3,-85.6
Q -20.0,-85.0,-17.0,-82.3
Q -13.4,-79.0,-10.2,-78.1
Q -10.0,-78.9,-9.8,-79.6
Q -14.7,-82.3,-17.6,-85.4
Q -20.5,-88.5,-23.1,-89.9
Q -24.4,-89.9,-25.8,-89.9
Q -26.7,-89.1,-27.6,-88.3
Q -29.3,-86.7,-30.7,-84.7
Q -35.6,-77.3,-39.1,-97.9
Q -41.2,-110.0,-37.5,-115.8
Q -36.4,-117.5,-36.6,-118.2
Q -36.9,-118.9,-38.0,-117.8
Q -40.5,-115.1,-41.3,-109.7
Q -41.6,-108.2,-41.8,-106.7
Q -40.5,-82.3,-33.3,-80.4
Q -32.3,-80.1,-29.7,-82.8
Q -27.1,-85.4,-25.1,-85.9
Q -24.1,-86.1,-23.1,-86.3
 " /> 
<path  
style="fill:rgb(4,4,4)" 
d="M -8.0 -77.9
Q -7.3,-78.2,-7.2,-78.5
Q -7.2,-78.6,-7.1,-78.7
Q -7.6,-78.3,-8.0,-77.9
 " /> 
<path  
style="fill:rgb(4,4,4)" 
d="M -8.0 -77.9
Q -7.6,-78.3,-7.1,-78.7
Q -7.4,-78.9,-7.8,-79.0
Q -8.4,-79.3,-9.1,-79.5
Q -9.4,-79.5,-9.8,-79.6
Q -10.0,-78.9,-10.2,-78.1
Q -9.1,-77.9,-8.0,-77.9
 " /> 
<path  
style="fill:rgb(31,181,0)" 
d="M -25.8 -89.9
Q -24.4,-89.9,-23.1,-89.9
Q -24.4,-90.4,-25.8,-89.9
 " /> 
<path  
style="fill:rgb(31,181,0)" 
d="M -9.8 -79.6
Q -9.4,-79.5,-9.1,-79.5
Q -8.4,-79.3,-7.8,-79.0
Q -7.4,-78.9,-7.1,-78.7
Q -7.2,-79.0,-7.3,-79.3
Q -7.5,-79.8,-9.8,-79.6
 " /> 
<path  
style="fill:rgb(209,251,185)" 
d="M -12.2 -86.5
Q -9.5,-85.2,-9.9,-86.6
Q -10.1,-87.4,-12.7,-93.0
Q -25.2,-120.6,-31.8,-106.5
Q -36.5,-96.7,-23.5,-92.8
Q -19.8,-91.7,-16.7,-89.4
Q -13.6,-87.1,-12.2,-86.5
 " /> 
<path  
style="fill:rgb(31,181,0)" 
d="M -38.2 -69.9
Q -35.5,-66.8,-32.9,-64.5
Q -33.4,-65.2,-34.0,-65.8
Q -35.1,-67.2,-38.2,-69.9
 " /> 
<path  
style="fill:rgb(31,181,0)" 
d="M -48.4 -100.5
Q -48.4,-102.3,-48.4,-104.1
Q -48.9,-102.3,-48.4,-100.5
 " /> 
<path  
style="fill:rgb(31,181,0)" 
d="M -48.4 -107.2
Q -48.0,-107.4,-48.0,-109.4
Q -48.1,-109.4,-48.2,-109.3
Q -48.4,-109.3,-48.4,-108.2
Q -48.4,-107.7,-48.4,-107.2
 " /> 
<path  
style="fill:rgb(31,181,0)" 
d="M -42.7 -122.7
Q -42.2,-123.2,-41.7,-123.6
Q -40.7,-124.4,-40.1,-125.2
Q -39.8,-125.5,-39.6,-125.9
Q -39.9,-125.6,-40.3,-125.3
Q -41.0,-124.7,-41.8,-123.7
Q -42.2,-123.2,-42.7,-122.7
 " /> 
<path  
style="fill:rgb(31,181,0)" 
d="M -34.7 -127.6
Q -33.1,-127.6,-31.6,-127.6
Q -32.0,-127.8,-32.4,-127.9
Q -33.3,-128.1,-34.7,-127.6
 " /> 
<path  
style="fill:rgb(31,181,0)" 
d="M -24.0 -124.5
Q -23.1,-123.2,-22.4,-122.8
Q -22.1,-122.5,-21.8,-122.3
Q -22.0,-122.6,-22.2,-123.0
Q -22.7,-123.6,-23.3,-124.1
Q -23.7,-124.3,-24.0,-124.5
 " /> 
<path  
style="fill:rgb(31,181,0)" 
d="M -11.1 -62.3
Q -12.4,-61.4,-12.9,-61.0
Q -13.1,-60.7,-13.3,-60.5
Q -12.1,-61.1,-11.1,-62.3
 " /> 
<path  
style="fill:rgb(14,103,171)" 
d="M -38.7 -67.2
Q -38.3,-66.8,-38.0,-66.3
Q -37.3,-65.4,-36.6,-65.0
Q -36.3,-64.8,-36.0,-64.5
Q -36.9,-65.8,-38.7,-67.2
 " /> 
<path  
style="fill:rgb(7,193,201)" 
d="M -34.2 -129.9
Q -32.9,-129.9,-31.6,-129.9
Q -31.9,-130.0,-32.2,-130.1
Q -32.9,-130.4,-34.2,-129.9
 " /> 
<path  
style="fill:rgb(7,193,201)" 
d="M -66.7 -103.6
Q -66.8,-103.6,-66.9,-103.6
Q -67.0,-103.5,-67.1,-102.4
Q -67.1,-101.9,-67.1,-101.4
Q -66.7,-101.6,-66.7,-102.6
Q -66.7,-103.1,-66.7,-103.6
 " /> 
<path  
style="fill:rgb(7,193,201)" 
d="M -33.8 -166.7
Q -31.1,-166.7,-28.4,-166.7
Q -29.1,-166.9,-29.8,-167.0
Q -31.1,-167.2,-32.4,-167.0
Q -33.1,-166.9,-33.8,-166.7
 " /> 
<path  
style="fill:rgb(7,193,201)" 
d="M -4.9 -149.0
Q -3.8,-149.0,-2.7,-149.0
Q -2.7,-149.2,-2.7,-149.4
Q -4.7,-149.4,-4.9,-149.0
 " /> 
<path  
style="fill:rgb(14,103,171)" 
d="M -2.7 -149.0
Q -1.6,-149.0,-0.4,-149.0
Q -1.0,-149.2,-1.5,-149.4
Q -1.5,-149.4,-1.5,-149.4
Q -2.1,-149.4,-2.7,-149.4
Q -2.7,-149.2,-2.7,-149.0
 " /> 
<path  
style="fill:rgb(14,103,171)" 
d="M -0.4 -149.0
Q -0.4,-149.0,-0.4,-149.1
Q -0.4,-149.3,-0.8,-149.4
Q -1.0,-149.5,-1.5,-149.4
Q -1.0,-149.2,-0.4,-149.0
 " /> 
<path  
style="fill:rgb(4,4,4)" 
d="M -0.4 -149.0
Q 1.7,-148.9,3.1,-148.9
Q 3.1,-149.6,3.1,-150.3
Q 0.5,-150.3,-0.2,-150.4
Q -0.3,-149.7,-0.4,-149.1
Q -0.4,-149.0,-0.4,-149.0
 " /> 
<path  
style="fill:rgb(7,193,201)" 
d="M 39.1 -158.7
Q 39.4,-158.3,39.8,-157.9
Q 40.5,-157.0,41.3,-156.3
Q 41.8,-156.0,42.2,-155.6
Q 41.9,-156.1,41.5,-156.5
Q 40.9,-157.4,39.1,-158.7
 " /> 
<path  
style="fill:rgb(7,193,201)" 
d="M 57.3 -132.1
Q 57.6,-131.8,57.8,-131.4
Q 58.2,-130.8,58.9,-130.3
Q 59.2,-130.1,59.6,-129.9
Q 58.6,-131.2,57.3,-132.1
 " /> 
<path  
style="fill:rgb(14,103,171)" 
d="M 75.6 -77.4
Q 75.6,-74.3,75.6,-71.2
Q 75.7,-72.0,75.8,-72.7
Q 76.0,-74.3,75.6,-77.4
 " /> 
<path  
style="fill:rgb(14,103,171)" 
d="M 75.6 -70.7
Q 75.6,-69.0,75.6,-67.2
Q 75.7,-67.6,75.8,-68.1
Q 76.0,-69.0,75.6,-70.7
 " /> 
<path  
style="fill:rgb(14,103,171)" 
d="M 60.4 -36.1
Q 59.5,-35.2,58.9,-35.0
Q 58.5,-34.9,58.2,-34.7
Q 58.4,-34.7,58.7,-34.8
Q 59.1,-34.8,60.4,-36.1
 " /> 
<path  
style="fill:rgb(14,103,171)" 
d="M 56.0 -13.9
Q 54.7,-14.3,53.8,-15.2
Q 55.0,-13.7,55.5,-13.8
Q 55.7,-13.8,56.0,-13.9
 " /> 
<path  
style="fill:rgb(7,193,201)" 
d="M 42.7 -11.2
Q 42.2,-11.1,42.2,-9.0
Q 42.6,-9.1,42.7,-11.2
 " /> 
<path  
style="fill:rgb(14,103,171)" 
d="M 30.7 -15.6
Q 28.6,-15.5,28.5,-15.4
Q 28.5,-15.3,28.4,-15.2
Q 30.4,-15.2,30.7,-15.6
 " /> 
<path  
style="fill:rgb(14,103,171)" 
d="M 3.1 -11.6
Q 1.8,-11.6,0.4,-11.6
Q 0.8,-11.5,1.1,-11.4
Q 1.8,-11.1,3.1,-11.6
 " /> 
<path  
style="fill:rgb(4,4,4)" 
d="M -12.0 -19.2
Q -12.6,-19.3,-13.2,-19.4
Q -13.7,-19.1,-14.2,-18.7
Q -13.5,-18.3,-12.8,-17.9
Q -12.7,-18.0,-12.7,-18.1
Q -12.3,-18.6,-12.0,-19.2
 " /> 
<path  
style="fill:rgb(4,4,4)" 
d="M -12.0 -19.2
Q -12.1,-19.4,-12.2,-19.6
Q -12.3,-19.9,-13.2,-19.4
Q -12.6,-19.3,-12.0,-19.2
 " /> 
<path  
style="fill:rgb(14,103,171)" 
d="M -12.0 -19.2
Q -11.5,-21.4,-13.6,-19.4
Q -13.4,-19.4,-13.2,-19.4
Q -12.3,-19.9,-12.2,-19.6
Q -12.1,-19.4,-12.0,-19.2
 " /> 
<path  
style="fill:rgb(14,103,171)" 
d="M -14.2 -18.7
Q -13.7,-19.1,-13.2,-19.4
Q -13.4,-19.4,-13.6,-19.4
Q -13.6,-19.4,-13.6,-19.4
Q -13.9,-19.1,-14.2,-18.7
 " /> 
<path  
style="fill:rgb(4,4,4)" 
d="M -99.1 -61.0
Q -98.2,-60.2,-97.3,-59.4
Q -95.6,-57.8,-92.4,-54.3
Q -73.2,-39.9,-57.8,-36.1
Q -52.7,-34.8,-52.6,-34.9
Q -52.4,-35.0,-54.6,-38.1
Q -56.8,-41.2,-59.6,-47.6
Q -68.9,-48.7,-78.6,-55.5
Q -91.0,-64.2,-92.3,-67.5
Q -92.9,-69.1,-89.4,-65.8
Q -74.5,-51.7,-63.4,-49.5
Q -61.9,-49.3,-60.4,-49.0
Q -61.7,-52.5,-62.9,-56.1
Q -65.3,-63.2,-66.9,-69.9
Q -67.7,-73.2,-68.4,-76.5
Q -81.1,-82.9,-87.4,-95.3
Q -89.3,-99.2,-88.6,-99.4
Q -88.2,-99.6,-87.0,-97.2
Q -81.1,-85.1,-68.4,-77.9
Q -68.8,-79.7,-69.1,-81.6
Q -69.8,-85.4,-69.6,-89.9
Q -69.4,-92.1,-69.3,-94.3
Q -69.6,-94.3,-69.8,-94.3
Q -70.1,-93.6,-70.4,-93.7
Q -71.9,-94.2,-76.0,-100.3
Q -81.8,-109.0,-82.9,-115.2
Q -83.2,-117.0,-82.7,-117.0
Q -82.3,-117.0,-81.8,-115.1
Q -79.1,-104.8,-69.8,-94.7
Q -69.8,-96.8,-69.6,-96.9
Q -69.4,-96.9,-69.3,-97.0
Q -69.2,-98.7,-69.1,-100.5
Q -68.9,-104.1,-68.0,-109.4
Q -71.1,-111.6,-72.7,-114.2
Q -76.3,-119.7,-77.4,-126.5
Q -76.5,-125.6,-75.6,-122.8
Q -73.2,-115.9,-69.9,-112.3
Q -68.9,-111.3,-68.0,-110.3
Q -67.7,-112.3,-67.3,-114.3
Q -66.7,-118.3,-64.0,-123.6
Q -64.4,-124.0,-64.9,-124.3
Q -67.0,-125.9,-67.4,-133.1
Q -67.7,-137.4,-67.2,-137.4
Q -66.8,-137.4,-66.5,-133.0
Q -66.2,-128.5,-65.1,-126.7
Q -64.5,-125.9,-64.0,-125.0
Q -61.3,-129.9,-59.4,-132.9
Q -57.4,-136.0,-58.4,-136.4
Q -61.1,-137.7,-60.7,-145.8
Q -60.6,-148.7,-60.4,-151.6
Q -60.4,-153.6,-60.2,-153.7
Q -60.1,-153.8,-60.0,-153.9
Q -60.0,-155.4,-60.0,-157.0
Q -60.0,-159.4,-59.6,-159.6
Q -59.6,-167.2,-60.2,-168.6
Q -60.6,-169.4,-60.9,-170.1
Q -61.7,-169.3,-62.4,-168.5
Q -66.8,-163.7,-69.8,-148.0
Q -72.4,-133.7,-73.5,-133.6
Q -74.3,-133.6,-74.5,-134.4
Q -74.6,-134.8,-74.7,-135.2
Q -75.0,-135.1,-75.1,-135.3
Q -75.2,-135.6,-75.1,-142.2
Q -75.1,-145.8,-75.1,-149.4
Q -75.6,-150.7,-76.0,-152.1
Q -76.3,-151.5,-76.7,-151.0
Q -77.9,-149.2,-79.1,-140.3
Q -79.9,-134.3,-80.6,-133.7
Q -83.2,-131.4,-84.6,-145.9
Q -85.5,-154.3,-86.4,-158.7
Q -88.9,-170.3,-91.3,-170.3
Q -93.6,-170.3,-95.1,-160.8
Q -95.3,-159.3,-95.6,-157.9
Q -95.0,-156.5,-95.3,-156.1
Q -95.4,-155.9,-95.6,-155.6
Q -95.6,-155.4,-95.6,-155.2
Q -95.0,-155.4,-95.1,-154.2
Q -95.1,-154.2,-95.1,-154.2
Q -95.1,-153.6,-95.1,-153.0
Q -95.1,-152.1,-95.1,-151.2
Q -95.1,-149.4,-94.7,-146.3
Q -94.1,-146.5,-94.2,-145.3
Q -94.2,-145.3,-94.2,-145.3
Q -94.2,-144.7,-94.2,-144.1
Q -93.9,-142.4,-93.6,-140.7
Q -92.7,-136.5,-90.0,-127.0
Q -89.3,-124.7,-89.3,-122.5
Q -89.3,-116.6,-93.2,-120.5
Q -94.9,-122.2,-98.9,-136.3
Q -101.1,-144.3,-102.4,-143.8
Q -105.2,-142.8,-106.7,-127.2
Q -106.7,-123.9,-106.7,-120.5
Q -105.8,-114.3,-105.4,-112.6
Q -101.8,-98.3,-92.2,-81.8
Q -88.2,-75.0,-91.6,-75.0
Q -93.2,-75.1,-95.4,-76.5
Q -97.5,-78.0,-100.6,-79.7
Q -103.7,-81.5,-106.0,-82.8
Q -111.9,-86.2,-109.3,-79.6
Q -106.2,-71.9,-101.3,-64.3
Q -100.2,-62.6,-99.1,-61.0
 " /> 
<path  
style="fill:rgb(14,103,171)" 
d="M -99.1 -61.0
Q -96.0,-57.4,-94.2,-55.9
Q -93.3,-55.1,-92.4,-54.3
Q -95.6,-57.8,-97.3,-59.4
Q -98.2,-60.2,-99.1,-61.0
 " /> 
<path  
style="fill:rgb(14,103,171)" 
d="M -106.7 -120.5
Q -106.7,-123.9,-106.7,-127.2
Q -106.8,-126.3,-106.9,-125.4
Q -107.1,-123.6,-106.7,-120.5
 " /> 
<path  
style="fill:rgb(14,103,171)" 
d="M -94.2 -144.1
Q -94.2,-144.7,-94.2,-145.3
Q -94.4,-145.8,-94.7,-146.3
Q -94.7,-144.4,-94.6,-144.1
Q -94.6,-143.9,-94.2,-144.1
 " /> 
<path  
style="fill:rgb(14,103,171)" 
d="M -94.7 -146.3
Q -94.4,-145.8,-94.2,-145.3
Q -94.2,-145.3,-94.2,-145.3
Q -94.1,-146.5,-94.7,-146.3
 " /> 
<path  
style="fill:rgb(14,103,171)" 
d="M -95.1 -153.0
Q -95.1,-153.6,-95.1,-154.2
Q -95.3,-154.7,-95.6,-155.2
Q -95.6,-153.3,-95.5,-153.0
Q -95.4,-152.8,-95.1,-153.0
 " /> 
<path  
style="fill:rgb(14,103,171)" 
d="M -95.6 -155.2
Q -95.3,-154.7,-95.1,-154.2
Q -95.1,-154.2,-95.1,-154.2
Q -95.0,-155.4,-95.6,-155.2
 " /> 
<path  
style="fill:rgb(14,103,171)" 
d="M -95.6 -155.6
Q -95.4,-155.9,-95.3,-156.1
Q -95.0,-156.5,-95.6,-157.9
Q -95.6,-156.7,-95.6,-155.6
 " /> 
<path  
style="fill:rgb(14,103,171)" 
d="M -75.1 -149.4
Q -75.1,-145.8,-75.1,-142.2
Q -75.2,-135.6,-75.1,-135.3
Q -75.0,-135.1,-74.7,-135.2
Q -74.7,-149.1,-74.7,-149.3
Q -74.8,-149.6,-75.1,-149.4
 " /> 
<path  
style="fill:rgb(14,103,171)" 
d="M -59.6 -159.6
Q -60.0,-159.4,-60.0,-157.0
Q -59.9,-157.0,-59.8,-157.0
Q -59.6,-157.1,-59.6,-159.6
 " /> 
<path  
style="fill:rgb(14,103,171)" 
d="M -60.0 -153.9
Q -60.1,-153.8,-60.2,-153.7
Q -60.4,-153.6,-60.4,-151.6
Q -60.1,-151.8,-60.0,-153.9
 " /> 
<path  
style="fill:rgb(97,247,248)" 
d="M -64.0 -125.0
Q -64.5,-125.9,-65.1,-126.7
Q -66.2,-128.5,-66.5,-133.0
Q -66.8,-137.4,-67.2,-137.4
Q -67.7,-137.4,-67.4,-133.1
Q -67.0,-125.9,-64.9,-124.3
Q -64.4,-124.0,-64.0,-123.6
Q -64.0,-124.3,-64.0,-125.0
 " /> 
<path  
style="fill:rgb(97,247,248)" 
d="M -68.0 -110.3
Q -68.9,-111.3,-69.9,-112.3
Q -73.2,-115.9,-75.6,-122.8
Q -76.5,-125.6,-77.4,-126.5
Q -76.3,-119.7,-72.7,-114.2
Q -71.1,-111.6,-68.0,-109.4
Q -68.0,-109.9,-68.0,-110.3
 " /> 
<path  
style="fill:rgb(14,103,171)" 
d="M -69.3 -97.0
Q -69.4,-96.9,-69.6,-96.9
Q -69.8,-96.8,-69.8,-94.7
Q -69.6,-94.5,-69.3,-94.3
Q -69.3,-95.6,-69.3,-97.0
 " /> 
<path  
style="fill:rgb(14,103,171)" 
d="M -69.8 -94.7
Q -69.8,-94.5,-69.8,-94.3
Q -69.6,-94.3,-69.3,-94.3
Q -69.6,-94.5,-69.8,-94.7
 " /> 
<path  
style="fill:rgb(97,247,248)" 
d="M -69.8 -94.7
Q -79.1,-104.8,-81.8,-115.1
Q -82.3,-117.0,-82.7,-117.0
Q -83.2,-117.0,-82.9,-115.2
Q -81.8,-109.0,-76.0,-100.3
Q -71.9,-94.2,-70.4,-93.7
Q -70.1,-93.6,-69.8,-94.3
Q -69.8,-94.5,-69.8,-94.7
 " /> 
<path  
style="fill:rgb(97,247,248)" 
d="M -68.4 -77.9
Q -81.1,-85.1,-87.0,-97.2
Q -88.2,-99.6,-88.6,-99.4
Q -89.3,-99.2,-87.4,-95.3
Q -81.1,-82.9,-68.4,-76.5
Q -68.4,-77.2,-68.4,-77.9
 " /> 
<path  
style="fill:rgb(97,247,248)" 
d="M -60.4 -49.0
Q -61.9,-49.3,-63.4,-49.5
Q -74.5,-51.7,-89.4,-65.8
Q -92.9,-69.1,-92.3,-67.5
Q -91.0,-64.2,-78.6,-55.5
Q -68.9,-48.7,-59.6,-47.6
Q -60.0,-48.3,-60.4,-49.0
 " /> 
<path  
style="fill:rgb(97,247,248)" 
d="M 74.7 -52.5
Q 74.1,-51.9,74.2,-51.8
Q 74.2,-51.7,74.2,-51.6
Q 74.4,-52.1,74.7,-52.5
 " /> 
<path  
style="fill:rgb(4,4,4)" 
d="M 74.7 -52.5
Q 79.6,-53.9,82.8,-55.5
Q 86.1,-57.2,89.1,-59.4
Q 93.3,-62.4,93.3,-61.5
Q 93.3,-60.3,86.0,-56.0
Q 78.3,-51.4,75.1,-51.6
Q 74.7,-51.6,74.2,-51.6
Q 70.7,-44.5,68.6,-41.8
Q 66.6,-39.1,66.8,-39.0
Q 66.9,-38.8,70.7,-39.7
Q 83.6,-42.7,90.3,-47.5
Q 92.4,-49.1,94.9,-50.6
Q 96.1,-51.3,97.3,-52.1
Q 97.8,-52.6,98.2,-53.2
Q 99.1,-54.3,100.0,-55.0
Q 100.4,-55.3,100.9,-55.6
Q 101.8,-56.6,102.7,-57.6
Q 108.8,-64.6,109.6,-69.5
Q 109.9,-71.3,109.1,-71.0
Q 107.2,-70.3,105.1,-68.3
Q 101.5,-64.8,100.0,-65.0
Q 94.1,-66.0,110.0,-89.4
Q 115.2,-97.1,118.5,-106.7
Q 121.1,-114.5,120.4,-118.4
Q 120.1,-119.9,117.8,-118.7
Q 116.8,-117.5,116.2,-117.0
Q 115.9,-116.8,115.6,-116.5
Q 112.0,-111.6,109.9,-108.9
Q 106.8,-104.9,105.8,-106.6
Q 105.4,-107.4,108.0,-115.2
Q 114.7,-135.4,114.7,-146.3
Q 114.8,-158.0,111.7,-158.9
Q 109.0,-159.8,103.8,-145.0
Q 102.6,-141.6,101.5,-138.4
Q 98.8,-130.7,96.0,-134.0
Q 94.8,-135.5,92.7,-142.0
Q 86.7,-160.2,81.0,-163.7
Q 79.8,-164.5,78.6,-162.4
Q 78.2,-161.7,77.8,-161.0
Q 77.8,-157.4,77.8,-153.9
Q 77.7,-151.9,77.6,-149.9
Q 77.2,-144.1,75.1,-143.4
Q 72.8,-142.7,66.6,-148.7
Q 67.4,-146.6,67.5,-146.0
Q 67.5,-145.7,67.6,-145.4
Q 67.8,-145.2,68.0,-145.0
Q 68.5,-144.5,68.4,-143.2
Q 68.4,-140.1,67.8,-139.6
Q 66.1,-138.3,57.6,-145.1
Q 58.5,-142.6,58.6,-141.5
Q 58.6,-141.0,58.7,-140.5
Q 58.6,-140.3,58.6,-140.0
Q 58.4,-139.5,57.7,-138.9
Q 57.3,-138.6,56.9,-138.3
Q 56.3,-138.1,55.8,-137.9
Q 54.7,-137.4,56.9,-135.6
Q 69.5,-125.4,73.5,-107.2
Q 73.9,-105.6,74.2,-104.1
Q 80.7,-110.6,82.6,-118.7
Q 84.9,-128.2,84.1,-137.8
Q 83.6,-142.9,84.0,-143.4
Q 84.8,-144.2,84.9,-141.1
Q 86.3,-113.7,77.1,-105.4
Q 75.4,-103.9,74.8,-103.8
Q 74.5,-103.7,74.2,-103.6
Q 75.9,-96.2,76.9,-85.9
Q 82.7,-91.2,85.5,-94.7
Q 101.0,-113.7,105.9,-128.8
Q 107.2,-132.9,107.5,-131.3
Q 107.7,-130.0,105.6,-124.7
Q 98.9,-108.3,84.9,-92.5
Q 81.1,-88.1,76.9,-85.0
Q 77.0,-84.9,77.1,-84.8
Q 77.4,-84.6,77.4,-82.5
Q 77.4,-81.5,77.3,-80.5
Q 77.4,-80.5,77.6,-80.6
Q 77.8,-80.6,77.8,-77.9
Q 77.8,-76.5,77.8,-75.2
Q 77.9,-72.5,77.8,-71.2
Q 82.7,-73.0,85.2,-74.7
Q 90.1,-77.9,95.3,-85.2
Q 101.9,-94.4,102.8,-94.7
Q 104.7,-95.4,94.8,-82.3
Q 89.4,-75.3,83.9,-72.5
Q 81.3,-71.2,77.8,-70.3
Q 77.9,-68.1,77.8,-65.9
Q 77.8,-63.3,77.3,-63.2
Q 77.2,-62.1,77.1,-61.0
Q 76.9,-58.7,75.8,-55.6
Q 75.2,-54.1,74.7,-52.5
 " /> 
<path  
style="fill:rgb(97,247,248)" 
d="M 70.9 -124.2
Q 70.6,-122.3,71.0,-122.3
Q 71.9,-122.3,72.7,-127.1
Q 73.3,-130.8,72.3,-133.1
Q 71.7,-134.6,71.4,-129.7
Q 71.2,-126.1,70.9,-124.2
 " /> 
<path  
style="fill:rgb(97,247,248)" 
d="M 63.3 -133.9
Q 63.0,-131.6,63.4,-131.6
Q 63.9,-131.6,64.2,-133.9
Q 64.5,-136.1,64.3,-136.4
Q 63.6,-137.0,63.3,-133.9
 " /> 
<path  
style="fill:rgb(97,247,248)" 
d="M 74.7 -52.5
Q 74.4,-52.1,74.2,-51.6
Q 74.7,-51.6,75.1,-51.6
Q 78.3,-51.4,86.0,-56.0
Q 93.3,-60.3,93.3,-61.5
Q 93.3,-62.4,89.1,-59.4
Q 86.1,-57.2,82.8,-55.5
Q 79.6,-53.9,74.7,-52.5
 " /> 
<path  
style="fill:rgb(14,103,171)" 
d="M 77.3 -63.2
Q 77.8,-63.3,77.8,-65.9
Q 77.7,-65.8,77.6,-65.8
Q 77.4,-65.7,77.3,-63.2
 " /> 
<path  
style="fill:rgb(97,247,248)" 
d="M 77.8 -70.3
Q 81.3,-71.2,83.9,-72.5
Q 89.4,-75.3,94.8,-82.3
Q 104.7,-95.4,102.8,-94.7
Q 101.9,-94.4,95.3,-85.2
Q 90.1,-77.9,85.2,-74.7
Q 82.7,-73.0,77.8,-71.2
Q 77.8,-70.7,77.8,-70.3
 " /> 
<path  
style="fill:rgb(14,103,171)" 
d="M 77.8 -77.9
Q 77.8,-80.6,77.6,-80.6
Q 77.4,-80.5,77.3,-80.5
Q 77.3,-78.3,77.4,-78.0
Q 77.4,-77.8,77.8,-77.9
 " /> 
<path  
style="fill:rgb(97,247,248)" 
d="M 76.9 -85.0
Q 81.1,-88.1,84.9,-92.5
Q 98.9,-108.3,105.6,-124.7
Q 107.7,-130.0,107.5,-131.3
Q 107.2,-132.9,105.9,-128.8
Q 101.0,-113.7,85.5,-94.7
Q 82.7,-91.2,76.9,-85.9
Q 76.9,-85.4,76.9,-85.0
 " /> 
<path  
style="fill:rgb(14,103,171)" 
d="M 56.9 -138.3
Q 57.3,-138.6,57.7,-138.9
Q 58.4,-139.5,58.6,-140.0
Q 58.6,-140.3,58.7,-140.5
Q 57.9,-139.6,57.4,-138.9
Q 57.1,-138.6,56.9,-138.3
 " /> 
<path  
style="fill:rgb(14,103,171)" 
d="M 68.4 -143.2
Q 68.5,-144.5,68.0,-145.0
Q 67.8,-145.2,67.6,-145.4
Q 67.7,-145.1,67.8,-144.8
Q 68.0,-144.1,68.2,-143.6
Q 68.3,-143.4,68.4,-143.2
 " /> 
<path  
style="fill:rgb(14,103,171)" 
d="M 77.8 -153.9
Q 77.8,-157.4,77.8,-161.0
Q 77.7,-160.1,77.5,-159.2
Q 77.3,-157.4,77.8,-153.9
 " /> 
<path  
style="fill:rgb(14,103,171)" 
d="M 115.6 -116.5
Q 115.9,-116.8,116.2,-117.0
Q 116.8,-117.5,117.8,-118.7
Q 116.5,-117.8,116.0,-117.2
Q 115.8,-116.9,115.6,-116.5
 " /> 
<path  
style="fill:rgb(14,103,171)" 
d="M 100.9 -55.6
Q 100.4,-55.3,100.0,-55.0
Q 99.1,-54.3,98.2,-53.2
Q 97.8,-52.6,97.3,-52.1
Q 99.5,-53.9,100.9,-55.6
 " /> 
<path  
style="fill:rgb(7,193,201)" 
d="M -0.4 -150.7
Q 2.7,-150.8,3.0,-150.7
Q 3.2,-150.7,3.2,-150.6
Q 3.1,-150.4,3.1,-150.3
Q 3.6,-150.5,4.0,-150.7
Q 4.9,-151.2,6.9,-153.9
Q 11.0,-159.4,14.3,-161.7
Q 15.4,-162.4,16.4,-163.2
Q 16.6,-163.4,16.8,-163.7
Q 17.1,-164.2,18.7,-165.4
Q 19.1,-166.4,19.6,-167.4
Q 23.4,-176.0,25.8,-189.0
Q 25.8,-189.5,25.8,-190.0
Q 25.8,-191.0,26.2,-191.2
Q 26.2,-193.7,25.4,-193.0
Q 24.1,-192.0,22.1,-187.4
Q 21.0,-184.7,20.3,-183.2
Q 19.6,-181.6,18.1,-177.2
Q 16.1,-171.4,15.2,-172.7
Q 14.8,-173.3,16.9,-179.4
Q 18.7,-184.6,16.5,-187.1
Q 14.3,-189.8,11.9,-188.8
Q 11.5,-188.6,9.9,-182.4
Q 8.1,-174.7,7.1,-176.6
Q 6.7,-177.2,7.3,-179.4
Q 7.9,-181.6,8.4,-183.9
Q 8.8,-186.1,9.1,-187.1
Q 9.4,-188.1,8.7,-188.1
Q 8.0,-188.1,8.1,-188.7
Q 8.2,-189.2,8.8,-189.5
Q 9.1,-189.7,9.3,-189.9
Q 9.5,-190.2,9.6,-190.5
Q 9.8,-191.2,10.2,-192.1
Q 11.1,-199.6,11.3,-201.8
Q 11.5,-204.0,10.7,-206.1
Q 10.4,-204.8,10.1,-203.6
Q 9.4,-201.2,8.8,-197.7
Q 8.1,-194.2,7.4,-190.3
Q 7.1,-188.8,6.9,-187.4
Q 6.8,-186.8,6.7,-186.3
Q 5.8,-185.4,5.3,-185.8
Q 4.9,-186.3,5.1,-186.9
Q 5.2,-187.3,5.3,-187.6
Q 5.4,-189.2,5.6,-190.7
Q 6.3,-201.5,0.6,-205.5
Q -0.2,-206.1,0.2,-202.6
Q 0.3,-201.1,0.4,-199.6
Q 1.0,-199.8,0.9,-198.6
Q 0.9,-198.6,0.9,-198.6
Q 0.9,-198.0,0.9,-197.4
Q 1.0,-196.1,1.1,-194.7
Q 1.4,-191.4,1.5,-189.1
Q 1.8,-184.4,1.5,-184.2
Q 1.0,-184.0,0.4,-184.5
Q -0.1,-184.4,-0.0,-185.6
Q -0.0,-185.6,-0.0,-185.6
Q -0.0,-186.2,0.0,-186.7
Q 0.0,-187.9,0.0,-189.0
Q -0.1,-188.9,-0.3,-188.9
Q -0.5,-188.8,-0.5,-190.7
Q -0.5,-191.6,-0.4,-192.5
Q -1.0,-196.5,-1.6,-200.5
Q -4.3,-220.1,-7.1,-222.9
Q -11.1,-226.9,-7.1,-193.4
Q -7.0,-193.4,-6.9,-193.5
Q -6.6,-193.6,-6.6,-192.4
Q -6.6,-192.4,-6.6,-192.4
Q -6.6,-191.8,-6.7,-191.2
Q -6.7,-190.5,-6.7,-189.9
Q -6.2,-190.0,-6.2,-188.8
Q -6.2,-188.8,-6.2,-188.8
Q -6.2,-188.2,-6.2,-187.6
Q -6.1,-187.3,-6.0,-187.0
Q -5.8,-186.3,-6.4,-185.8
Q -7.6,-185.0,-8.2,-187.3
Q -8.4,-188.1,-9.8,-201.0
Q -9.9,-200.9,-10.0,-200.9
Q -10.3,-200.8,-10.2,-203.2
Q -10.2,-206.4,-12.2,-203.2
Q -14.0,-200.1,-10.9,-190.5
Q -9.2,-185.5,-9.5,-185.2
Q -10.3,-183.9,-11.9,-188.1
Q -14.5,-195.0,-15.8,-198.1
Q -16.3,-199.4,-18.7,-204.3
Q -18.1,-200.3,-16.9,-195.4
Q -14.6,-186.6,-13.3,-182.5
Q -10.5,-173.4,-11.6,-173.1
Q -12.5,-172.9,-16.5,-186.7
Q -17.9,-191.4,-18.1,-191.6
Q -18.3,-191.8,-19.8,-191.0
Q -22.5,-189.5,-22.4,-187.9
Q -22.3,-186.2,-18.8,-181.2
Q -10.2,-169.1,-12.2,-169.5
Q -13.9,-169.8,-20.2,-179.9
Q -21.9,-182.5,-23.7,-185.2
Q -28.4,-192.2,-30.7,-196.5
Q -30.9,-197.0,-31.7,-197.9
Q -32.3,-197.4,-32.9,-197.0
Q -32.8,-195.9,-32.7,-194.7
Q -31.8,-185.8,-27.0,-173.5
Q -25.1,-168.5,-22.2,-167.4
Q -12.5,-163.9,-6.2,-153.6
Q -4.9,-151.5,-4.2,-151.1
Q -3.5,-150.8,-0.4,-150.7
 " /> 
<path  
style="fill:rgb(14,103,171)" 
d="M -0.4 -150.7
Q -0.5,-150.6,-0.5,-150.4
Q -0.4,-150.4,-0.1,-150.3
Q 0.5,-150.3,3.1,-150.3
Q 3.1,-150.4,3.2,-150.6
Q 3.2,-150.7,3.0,-150.7
Q 2.7,-150.8,-0.4,-150.7
 " /> 
<path  
style="fill:rgb(14,103,171)" 
d="M -32.9 -197.0
Q -32.9,-197.4,-32.9,-197.8
Q -32.8,-198.6,-32.6,-198.7
Q -32.8,-198.6,-32.9,-198.5
Q -33.3,-198.3,-33.1,-197.7
Q -33.0,-197.3,-32.9,-197.0
 " /> 
<path  
style="fill:rgb(7,193,201)" 
d="M -32.9 -197.0
Q -32.3,-197.4,-31.7,-197.9
Q -32.0,-198.3,-32.4,-198.7
Q -32.5,-198.7,-32.6,-198.7
Q -32.8,-198.6,-32.9,-197.8
Q -32.9,-197.4,-32.9,-197.0
 " /> 
<path  
style="fill:rgb(14,103,171)" 
d="M -10.2 -203.2
Q -10.3,-200.8,-10.0,-200.9
Q -9.9,-200.9,-9.8,-201.0
Q -9.8,-202.9,-9.8,-203.1
Q -9.9,-203.4,-10.2,-203.2
 " /> 
<path  
style="fill:rgb(14,103,171)" 
d="M -6.2 -187.6
Q -6.2,-188.2,-6.2,-188.8
Q -6.4,-189.3,-6.7,-189.9
Q -6.7,-187.9,-6.6,-187.7
Q -6.6,-187.5,-6.2,-187.6
 " /> 
<path  
style="fill:rgb(14,103,171)" 
d="M -6.7 -189.9
Q -6.4,-189.3,-6.2,-188.8
Q -6.2,-188.8,-6.2,-188.8
Q -6.2,-190.0,-6.7,-189.9
 " /> 
<path  
style="fill:rgb(14,103,171)" 
d="M -6.7 -191.2
Q -6.6,-191.8,-6.6,-192.4
Q -6.9,-192.9,-7.1,-193.4
Q -7.1,-191.5,-7.1,-191.3
Q -7.0,-191.0,-6.7,-191.2
 " /> 
<path  
style="fill:rgb(14,103,171)" 
d="M -7.1 -193.4
Q -6.9,-192.9,-6.6,-192.4
Q -6.6,-192.4,-6.6,-192.4
Q -6.6,-193.6,-6.9,-193.5
Q -7.0,-193.4,-7.1,-193.4
 " /> 
<path  
style="fill:rgb(14,103,171)" 
d="M -0.4 -192.5
Q -0.5,-191.6,-0.5,-190.7
Q -0.5,-188.8,-0.3,-188.9
Q -0.1,-188.9,0.0,-189.0
Q 0.0,-192.2,-0.1,-192.5
Q -0.1,-192.7,-0.4,-192.5
 " /> 
<path  
style="fill:rgb(4,4,4)" 
d="M 0.0 -189.0
Q 0.0,-187.9,0.0,-186.7
Q 0.3,-186.9,0.4,-186.7
Q 0.4,-186.4,0.4,-184.5
Q 1.0,-184.0,1.5,-184.2
Q 1.8,-184.4,1.5,-189.1
Q 0.8,-189.0,0.0,-189.0
 " /> 
<path  
style="fill:rgb(14,103,171)" 
d="M 0.0 -186.7
Q -0.0,-186.2,-0.0,-185.6
Q 0.2,-185.0,0.4,-184.5
Q 0.4,-186.4,0.4,-186.7
Q 0.3,-186.9,0.0,-186.7
 " /> 
<path  
style="fill:rgb(14,103,171)" 
d="M 0.4 -184.5
Q 0.2,-185.0,-0.0,-185.6
Q -0.0,-185.6,-0.0,-185.6
Q -0.1,-184.4,0.4,-184.5
 " /> 
<path  
style="fill:rgb(14,103,171)" 
d="M 0.9 -197.4
Q 0.9,-198.0,0.9,-198.6
Q 0.7,-199.1,0.4,-199.6
Q 0.4,-197.7,0.5,-197.5
Q 0.6,-197.2,0.9,-197.4
 " /> 
<path  
style="fill:rgb(14,103,171)" 
d="M 0.4 -199.6
Q 0.7,-199.1,0.9,-198.6
Q 0.9,-198.6,0.9,-198.6
Q 1.0,-199.8,0.4,-199.6
 " /> 
<path  
style="fill:rgb(4,4,4)" 
d="M 5.3 -187.6
Q 5.3,-187.1,5.3,-186.6
Q 6.0,-186.4,6.7,-186.3
Q 6.8,-186.8,6.9,-187.4
Q 6.1,-187.5,5.3,-187.6
 " /> 
<path  
style="fill:rgb(14,103,171)" 
d="M 5.3 -187.6
Q 5.2,-187.3,5.1,-186.9
Q 4.9,-186.3,5.3,-185.8
Q 5.8,-185.4,6.7,-186.3
Q 5.2,-185.6,5.3,-186.6
Q 5.3,-186.6,5.3,-186.6
Q 5.3,-187.1,5.3,-187.6
 " /> 
<path  
style="fill:rgb(4,4,4)" 
d="M 6.7 -186.3
Q 6.0,-186.4,5.3,-186.6
Q 5.3,-186.6,5.3,-186.6
Q 5.2,-185.6,6.7,-186.3
 " /> 
<path  
style="fill:rgb(14,103,171)" 
d="M 10.2 -192.1
Q 9.8,-191.2,9.6,-190.5
Q 9.5,-190.2,9.3,-189.9
Q 9.5,-190.0,9.7,-190.1
Q 10.1,-190.4,10.2,-192.1
 " /> 
<path  
style="fill:rgb(14,103,171)" 
d="M 26.2 -191.2
Q 25.8,-191.0,25.8,-190.0
Q 25.8,-189.5,25.8,-189.0
Q 25.9,-189.0,26.0,-189.0
Q 26.2,-189.1,26.2,-191.2
 " /> 
<path  
style="fill:rgb(14,103,171)" 
d="M 18.7 -165.4
Q 17.1,-164.2,16.8,-163.7
Q 16.6,-163.4,16.4,-163.2
Q 16.7,-163.4,17.0,-163.6
Q 17.6,-164.0,18.1,-164.7
Q 18.4,-165.1,18.7,-165.4
 " /> 
<path  
style="fill:rgb(4,4,4)" 
d="M -0.2 -150.4
Q -0.5,-150.4,-0.5,-150.5
Q -0.6,-149.9,-0.8,-149.4
Q -0.4,-149.3,-0.4,-149.0
Q -0.3,-149.7,-0.2,-150.4
 " /> 
</g> 
</svg> 
