<?xml version="1.0"?>
<!DOCTYPE svg PUBLIC "-//W3C//DTD SVG 1.1//EN" "http://www.w3.org/Graphics/SVG/1.1/DTD/svg11.dtd">
<svg xmlns="http://www.w3.org/2000/svg" version="1.1">
<g transform="translate(113.4,224.2)" stroke-width="0" fill="none" >
<path  
style="fill:rgb(4,4,4)" 
d="M -12.4 221.3
Q -10.3,222.5,-6.3,219.8
Q -3.7,218.1,1.8,215.1
Q 7.4,212.2,10.4,210.4
Q 13.5,208.5,16.2,206.9
Q 18.8,205.3,23.5,202.0
Q 28.9,198.2,30.4,197.3
Q 38.0,192.5,48.9,180.8
Q 63.3,165.2,60.0,147.3
Q 58.3,137.9,47.6,122.6
Q 38.7,109.9,35.9,99.7
Q 32.1,86.3,31.8,83.3
Q 31.6,82.0,31.5,80.8
Q 37.4,86.5,43.2,86.5
Q 59.1,86.4,55.5,55.5
Q 53.9,41.3,43.8,24.5
Q 37.7,14.2,33.3,2.8
Q 30.1,-5.6,27.9,-8.0
Q 25.9,-10.0,26.5,-10.4
Q 26.7,-10.5,28.1,-10.5
Q 30.1,-10.5,30.7,-8.2
Q 33.6,4.7,38.0,2.0
Q 40.1,0.7,41.1,-3.7
Q 42.5,-9.6,41.8,-13.1
Q 41.5,-14.9,43.5,-17.0
Q 46.0,-19.7,46.4,-19.1
Q 46.6,-18.8,47.2,-15.5
Q 48.3,-9.8,50.1,-8.1
Q 53.4,-4.7,56.6,-13.0
Q 58.7,-18.1,58.7,-24.3
Q 58.7,-31.6,68.2,-34.3
Q 97.4,-42.6,109.3,-55.1
Q 114.3,-60.5,113.6,-62.9
Q 112.6,-66.0,104.1,-61.7
Q 101.3,-60.3,100.8,-60.4
Q 99.8,-60.7,107.6,-69.7
Q 121.7,-85.6,126.3,-102.7
Q 128.9,-112.7,125.6,-115.1
Q 122.6,-117.4,115.9,-107.8
Q 114.1,-105.2,113.9,-105.3
Q 113.7,-105.5,119.1,-120.4
Q 124.6,-135.6,123.8,-146.5
Q 123.4,-152.1,121.4,-154.2
Q 115.8,-160.3,108.4,-141.1
Q 104.6,-131.4,103.8,-131.3
Q 103.1,-131.1,102.3,-134.2
Q 101.8,-136.1,100.9,-139.6
Q 99.9,-143.2,99.3,-145.8
Q 96.5,-156.7,92.0,-161.2
Q 84.6,-168.7,82.9,-151.6
Q 82.4,-145.8,81.7,-144.5
Q 80.0,-141.3,74.8,-148.4
Q 73.3,-150.5,72.4,-150.5
Q 69.7,-150.5,70.9,-145.6
Q 71.6,-142.7,71.6,-139.8
Q 70.9,-140.2,70.3,-140.6
Q 69.0,-141.4,66.2,-143.8
Q 63.5,-146.2,62.4,-146.4
Q 59.2,-147.0,60.6,-142.8
Q 61.7,-139.7,60.6,-139.2
Q 58.5,-138.2,55.8,-138.3
Q 54.1,-138.4,52.0,-143.5
Q 43.9,-163.4,26.0,-163.5
Q 23.7,-163.6,21.5,-163.6
Q 22.6,-165.9,24.4,-170.5
Q 33.1,-192.1,27.8,-192.0
Q 25.1,-192.0,22.0,-185.9
Q 20.7,-183.4,20.4,-183.4
Q 20.2,-183.4,19.7,-184.7
Q 18.5,-187.9,14.8,-187.9
Q 13.3,-187.9,13.6,-189.1
Q 13.8,-190.3,14.7,-193.4
Q 17.4,-203.1,15.4,-205.1
Q 12.7,-207.8,10.2,-199.5
Q 9.6,-197.6,9.4,-197.6
Q 9.1,-197.6,7.7,-200.4
Q 6.3,-203.2,4.3,-204.5
Q 2.2,-205.9,2.2,-207.4
Q 2.2,-209.0,1.8,-211.4
Q 1.3,-213.9,0.8,-216.5
Q 0.1,-220.9,-1.2,-222.5
Q -3.2,-224.8,-4.6,-224.0
Q -7.2,-222.4,-7.8,-209.9
Q -7.9,-205.5,-8.8,-205.2
Q -9.6,-204.8,-10.5,-203.8
Q -11.5,-202.7,-12.7,-199.9
Q -13.0,-200.8,-13.2,-201.8
Q -13.7,-203.7,-14.8,-204.9
Q -19.5,-210.0,-17.1,-194.3
Q -16.8,-192.5,-18.4,-191.9
Q -19.9,-191.4,-21.3,-190.1
Q -22.0,-189.5,-22.7,-188.8
Q -23.8,-191.0,-25.0,-193.1
Q -30.8,-204.0,-32.7,-199.6
Q -34.0,-196.4,-31.5,-183.0
Q -30.3,-176.5,-26.6,-167.5
Q -28.2,-167.5,-29.9,-167.5
Q -44.1,-167.6,-48.6,-148.6
Q -49.1,-146.4,-51.7,-143.5
Q -51.2,-143.0,-50.7,-142.5
Q -49.3,-143.2,-48.8,-143.2
Q -47.5,-143.3,-47.0,-147.2
Q -46.3,-152.8,-42.2,-158.9
Q -36.4,-167.6,-25.4,-165.0
Q -13.4,-162.1,-6.5,-148.4
Q -5.8,-147.0,-2.4,-147.0
Q -0.9,-147.0,0.4,-146.9
Q 0.4,-147.6,0.4,-148.3
Q -1.8,-148.2,-2.1,-148.3
Q -2.3,-148.4,-2.2,-148.7
Q -4.4,-148.8,-5.7,-150.9
Q -11.7,-160.7,-20.2,-165.3
Q -22.3,-166.5,-23.3,-167.5
Q -27.4,-171.2,-30.2,-188.3
Q -32.1,-199.8,-30.3,-197.7
Q -28.7,-195.9,-26.5,-191.6
Q -19.4,-177.4,-13.2,-168.9
Q -13.1,-168.9,-13.1,-168.8
Q -12.5,-169.2,-12.0,-169.6
Q -13.0,-171.4,-13.9,-173.2
Q -15.8,-176.8,-18.0,-180.4
Q -20.1,-184.0,-20.6,-185.2
Q -21.6,-187.9,-18.6,-189.6
Q -16.2,-190.9,-15.7,-187.9
Q -15.5,-186.3,-14.9,-184.1
Q -14.3,-181.8,-13.8,-179.6
Q -12.1,-172.2,-11.4,-171.5
Q -9.5,-169.6,-11.3,-176.8
Q -13.2,-184.1,-14.7,-192.5
Q -15.1,-194.8,-15.6,-197.3
Q -16.1,-199.8,-15.7,-203.1
Q -14.8,-200.3,-13.9,-197.5
Q -12.0,-191.9,-10.8,-187.7
Q -9.2,-181.9,-8.2,-183.7
Q -7.9,-184.1,-9.3,-189.1
Q -10.2,-192.3,-10.4,-193.6
Q -10.6,-194.3,-10.7,-195.0
Q -11.1,-197.2,-10.9,-198.3
Q -10.8,-198.9,-10.7,-199.4
Q -10.2,-200.7,-10.0,-201.4
Q -9.9,-201.7,-9.8,-202.1
Q -9.4,-202.5,-9.0,-202.9
Q -8.2,-203.8,-7.6,-203.4
Q -6.8,-203.5,-6.0,-203.6
Q -6.2,-205.0,-6.0,-205.9
Q -5.9,-206.4,-5.8,-207.0
Q -5.8,-207.4,-5.8,-207.9
Q -6.3,-209.2,-6.0,-209.9
Q -5.9,-210.2,-5.8,-210.5
Q -5.7,-212.4,-5.5,-214.3
Q -5.2,-219.8,-4.0,-221.3
Q -2.6,-223.1,-1.4,-217.0
Q -0.0,-210.3,0.2,-206.7
Q 0.3,-205.3,0.4,-203.9
Q 0.9,-204.1,0.9,-202.6
Q 0.9,-201.9,0.9,-201.2
Q 0.9,-199.4,0.9,-197.6
Q 1.2,-197.8,1.2,-197.6
Q 2.0,-198.1,2.7,-198.5
Q 2.9,-202.5,3.0,-202.8
Q 3.3,-203.6,5.0,-201.6
Q 9.4,-196.3,6.8,-186.9
Q 5.6,-182.6,7.3,-183.2
Q 7.9,-183.5,8.6,-186.7
Q 10.2,-193.9,12.5,-200.1
Q 13.0,-201.4,13.5,-202.7
Q 14.2,-200.8,13.5,-197.3
Q 11.7,-187.9,10.3,-187.3
Q 8.2,-186.3,10.0,-185.3
Q 10.6,-184.9,9.1,-180.3
Q 7.2,-174.4,8.2,-174.2
Q 9.1,-174.1,11.0,-180.1
Q 12.7,-185.4,13.1,-185.7
Q 14.3,-186.7,16.3,-185.5
Q 20.5,-183.2,18.0,-177.4
Q 15.3,-171.3,15.7,-170.2
Q 16.4,-168.6,18.7,-174.3
Q 23.1,-185.2,27.6,-190.3
Q 27.5,-188.9,27.3,-187.4
Q 26.8,-182.7,23.8,-174.7
Q 22.6,-171.7,21.5,-168.8
Q 20.4,-165.9,19.1,-163.8
Q 17.8,-161.6,13.3,-158.5
Q 12.9,-158.0,12.4,-157.4
Q 11.5,-156.3,10.2,-155.2
Q 9.5,-154.6,8.9,-154.1
Q 7.1,-151.9,5.3,-148.7
Q 5.8,-148.2,6.3,-147.6
Q 6.8,-148.1,7.4,-148.8
Q 13.4,-157.1,19.0,-159.7
Q 21.3,-160.7,24.9,-161.6
Q 25.8,-162.1,27.1,-161.6
Q 28.0,-161.5,28.8,-161.3
Q 41.6,-159.3,48.0,-147.3
Q 51.1,-141.5,50.5,-140.9
Q 50.3,-140.6,48.4,-141.4
Q 45.3,-142.6,45.3,-141.0
Q 45.3,-140.3,49.2,-138.5
Q 67.1,-130.1,73.0,-111.6
Q 75.5,-103.8,76.9,-91.4
Q 77.2,-91.5,77.3,-91.3
Q 77.3,-91.0,77.3,-88.7
Q 77.3,-87.0,77.3,-85.2
Q 77.3,-81.6,77.6,-80.1
Q 77.7,-79.3,77.8,-78.5
Q 77.8,-77.4,77.8,-76.4
Q 77.7,-74.2,77.3,-74.1
Q 77.1,-72.0,76.9,-69.9
Q 74.6,-49.5,61.2,-34.0
Q 58.6,-31.0,58.2,-31.0
Q 57.8,-31.0,57.1,-33.3
Q 55.1,-39.5,53.5,-39.7
Q 52.4,-39.8,54.2,-35.5
Q 55.6,-32.3,56.4,-27.4
Q 56.9,-26.5,56.7,-25.9
Q 56.6,-25.5,56.4,-25.2
Q 56.4,-24.7,56.4,-24.3
Q 56.9,-23.4,56.4,-22.1
Q 53.9,-9.3,52.0,-9.8
Q 50.1,-10.3,48.5,-18.5
Q 45.7,-32.6,43.8,-33.1
Q 42.9,-33.3,44.8,-26.4
Q 45.9,-22.4,44.0,-20.8
Q 42.1,-19.3,40.6,-18.1
Q 40.0,-19.7,39.4,-21.3
Q 36.8,-28.3,35.3,-28.3
Q 34.5,-28.3,36.4,-24.1
Q 41.7,-12.7,38.9,-3.7
Q 37.8,-0.1,36.8,-0.1
Q 35.1,-0.1,32.7,-9.0
Q 31.9,-11.6,31.1,-13.4
Q 30.3,-15.2,29.3,-18.0
Q 27.5,-23.0,26.6,-21.6
Q 26.3,-21.0,27.1,-19.2
Q 27.9,-17.4,28.6,-15.3
Q 28.9,-14.3,29.2,-13.3
Q 25.1,-12.8,21.7,-11.9
Q 18.2,-11.0,12.4,-10.1
Q 11.5,-9.6,10.9,-9.8
Q 10.5,-9.9,10.2,-10.1
Q 8.3,-9.6,6.4,-9.6
Q 5.4,-9.6,4.4,-9.6
Q 2.2,-9.2,1.1,-9.4
Q 0.6,-9.5,0.0,-9.6
Q -2.4,-9.9,-4.9,-10.1
Q -9.8,-10.5,-16.8,-12.0
Q -16.3,-12.8,-15.7,-13.6
Q -14.5,-15.1,-13.4,-16.4
Q -12.3,-17.6,-12.8,-18.2
Q -13.6,-19.0,-16.4,-15.6
Q -17.9,-13.9,-18.9,-12.9
Q -19.9,-11.9,-20.6,-10.8
Q -23.1,-6.6,-28.3,-1.6
Q -37.5,7.2,-38.1,2.2
Q -38.9,-4.3,-31.2,-15.8
Q -29.6,-18.2,-29.1,-19.8
Q -28.5,-21.4,-27.5,-23.8
Q -26.0,-27.5,-27.9,-26.3
Q -28.6,-25.8,-29.3,-24.0
Q -30.6,-21.1,-31.1,-21.0
Q -32.8,-20.8,-35.5,-23.2
Q -36.6,-24.3,-33.6,-27.8
Q -31.4,-30.4,-33.1,-30.0
Q -35.0,-29.6,-39.5,-22.3
Q -51.7,-2.5,-56.8,-2.5
Q -58.7,-2.5,-58.0,-6.5
Q -57.0,-12.6,-52.4,-17.9
Q -51.1,-19.4,-49.8,-21.0
Q -49.1,-21.7,-48.4,-22.5
Q -49.0,-23.1,-49.6,-23.7
Q -50.0,-23.3,-50.4,-22.9
Q -60.4,-12.8,-60.4,-5.0
Q -60.4,-0.3,-57.2,-0.3
Q -54.1,-0.3,-51.5,-3.3
Q -50.4,-4.6,-48.5,-6.6
Q -44.9,-10.6,-40.1,-17.7
Q -39.0,-19.4,-37.8,-21.1
Q -36.5,-20.4,-35.3,-19.8
Q -32.7,-18.5,-32.3,-18.3
Q -31.8,-18.2,-33.6,-15.4
Q -43.7,0.6,-39.2,5.2
Q -34.4,10.0,-19.9,-7.7
Q -18.8,-9.1,-15.8,-8.6
Q -13.4,-8.3,-13.2,-8.0
Q -12.8,-7.6,-14.8,-1.8
Q -16.4,2.8,-17.1,7.1
Q -19.1,19.1,-20.2,22.9
Q -22.2,29.8,-28.0,37.5
Q -36.2,48.2,-37.5,51.5
Q -41.8,62.6,-38.8,74.1
Q -36.3,84.2,-29.9,87.1
Q -23.4,90.1,-16.5,83.9
Q -15.3,82.8,-14.1,81.7
Q -14.2,82.2,-14.3,82.6
Q -16.5,90.2,-21.7,98.3
Q -27.0,106.5,-29.6,113.5
Q -39.3,139.2,-19.8,180.8
Q -9.2,203.4,-12.6,216.1
Q -13.8,220.5,-12.4,221.3
 " /> 
<path  
style="fill:rgb(7,193,201)" 
d="M -23.1 166.8
Q -23.0,166.9,-22.9,167.0
Q -22.6,167.2,-22.6,167.9
Q -22.6,168.2,-22.7,168.6
Q -22.1,167.9,-21.9,167.1
Q -22.5,166.9,-23.1,166.8
 " /> 
<path  
style="fill:rgb(14,103,171)" 
d="M -23.1 166.8
Q -22.7,161.0,-22.0,157.8
Q -21.4,154.6,-21.1,153.0
Q -20.9,151.5,-20.1,148.1
Q -15.9,132.3,-13.7,131.1
Q -12.3,130.4,-14.8,136.6
Q -18.3,145.4,-20.7,159.0
Q -21.7,165.3,-21.8,166.5
Q -21.9,166.8,-21.9,167.1
Q -22.1,167.9,-22.7,168.6
Q -21.7,170.9,-20.7,173.2
Q -18.7,177.9,-16.4,182.9
Q -14.1,187.9,-13.1,190.5
Q -12.1,193.2,-11.7,193.3
Q -11.3,193.5,-10.3,190.5
Q -7.8,182.3,-7.6,171.1
Q -7.3,157.6,-3.0,142.8
Q 0.3,131.4,1.3,133.0
Q 1.7,133.6,0.9,135.6
Q -1.6,142.1,-2.4,146.8
Q -2.6,147.9,-3.5,152.4
Q -4.7,158.4,-5.4,167.9
Q -6.7,187.1,-9.6,193.4
Q -10.9,196.3,-9.7,201.2
Q -8.3,207.1,-10.5,217.8
Q -10.8,219.3,-10.1,219.1
Q -9.5,218.9,-6.2,216.9
Q -2.9,214.9,2.2,212.1
Q 16.7,204.2,20.6,200.6
Q 34.2,188.0,30.9,158.1
Q 30.2,151.9,29.6,147.0
Q 28.3,137.5,29.1,137.5
Q 30.3,137.5,32.7,157.9
Q 34.9,177.5,30.4,189.0
Q 28.4,193.9,25.6,197.6
Q 26.8,196.8,28.0,195.9
Q 66.5,168.6,55.6,142.1
Q 53.1,135.9,48.5,128.9
Q 43.1,120.7,40.3,116.1
Q 34.1,105.7,31.7,93.9
Q 31.2,91.5,30.7,89.0
Q 29.3,88.7,29.1,88.9
Q 28.9,89.1,28.9,94.5
Q 28.9,103.5,26.7,105.6
Q 24.8,107.4,24.3,102.5
Q 23.7,97.6,22.7,95.1
Q 22.5,94.6,22.3,94.2
Q 18.0,102.7,13.8,95.9
Q 11.7,92.5,9.8,98.2
Q 9.6,98.9,9.3,99.7
Q 9.3,100.1,9.3,100.6
Q 8.9,105.5,8.0,107.2
Q 6.1,111.1,4.1,111.0
Q 2.6,111.0,2.3,102.7
Q 2.3,101.2,2.2,99.7
Q 2.2,99.5,2.2,99.2
Q 2.1,99.3,2.0,99.3
Q 1.8,99.3,1.8,97.7
Q 1.8,96.9,1.8,96.1
Q 0.7,89.7,-0.1,89.8
Q -0.5,89.9,-0.9,89.9
Q -3.8,95.7,-5.7,96.6
Q -6.2,96.8,-6.7,97.0
Q -6.9,97.0,-7.1,97.0
Q -10.1,95.5,-12.9,84.6
Q -13.3,85.7,-13.8,86.8
Q -16.5,93.7,-21.4,101.2
Q -27.6,110.7,-30.0,122.4
Q -33.1,138.0,-25.5,159.9
Q -24.3,163.4,-23.1,166.8
 " /> 
<path  
style="fill:rgb(7,193,201)" 
d="M -7.0 215.1
Q -7.2,215.7,-6.6,215.7
Q -5.4,215.7,1.9,205.9
Q 15.9,187.1,17.5,163.0
Q 17.8,159.5,17.3,159.1
Q 16.2,157.9,16.1,162.3
Q 15.1,188.0,-4.8,212.1
Q -6.8,214.5,-7.0,215.1
 " /> 
<path  
style="fill:rgb(7,193,201)" 
d="M 40.6 180.5
Q 40.3,181.5,41.0,181.5
Q 41.7,181.5,42.6,179.1
Q 47.3,166.6,44.7,150.8
Q 43.2,142.1,41.8,141.6
Q 40.9,141.3,42.4,147.0
Q 46.3,162.7,41.8,176.6
Q 40.8,179.5,40.6,180.5
 " /> 
<path  
style="fill:rgb(7,193,201)" 
d="M -23.1 166.8
Q -22.5,166.9,-21.9,167.1
Q -21.9,166.8,-21.8,166.5
Q -21.7,165.3,-20.7,159.0
Q -18.3,145.4,-14.8,136.6
Q -12.3,130.4,-13.7,131.1
Q -15.9,132.3,-20.1,148.1
Q -20.9,151.5,-21.1,153.0
Q -21.4,154.6,-22.0,157.8
Q -22.7,161.0,-23.1,166.8
 " /> 
<path  
style="fill:rgb(7,193,201)" 
d="M -12.9 84.6
Q -12.6,84.5,-12.3,84.5
Q -12.4,84.1,-12.4,83.7
Q -12.9,83.8,-12.9,84.6
 " /> 
<path  
style="fill:rgb(7,193,201)" 
d="M -12.9 84.6
Q -10.1,95.5,-7.1,97.0
Q -8.4,96.0,-8.9,95.1
Q -11.6,90.2,-12.2,85.5
Q -12.3,85.0,-12.3,84.5
Q -12.6,84.5,-12.9,84.6
 " /> 
<path  
style="fill:rgb(97,247,248)" 
d="M -7.1 97.0
Q -6.9,97.0,-6.7,97.0
Q -6.2,96.7,-5.7,96.4
Q -4.7,95.8,-2.8,92.9
Q -1.9,91.4,-0.9,89.9
Q -0.5,89.9,-0.1,89.8
Q 0.7,89.7,1.8,96.1
Q 1.9,96.1,2.0,96.1
Q 2.1,96.1,2.2,96.4
Q 2.2,96.7,2.2,99.2
Q 2.2,99.5,2.2,99.7
Q 2.5,102.2,2.9,104.6
Q 3.7,110.7,4.5,110.6
Q 7.4,110.4,9.3,100.6
Q 9.3,100.1,9.3,99.7
Q 9.3,97.0,10.0,96.0
Q 12.0,92.7,13.2,94.4
Q 18.2,101.7,21.0,95.6
Q 21.9,93.4,22.4,93.6
Q 23.3,93.9,24.6,101.4
Q 25.3,105.2,25.6,105.4
Q 25.8,105.6,26.7,104.8
Q 28.6,102.9,28.3,93.1
Q 28.3,89.1,28.6,88.8
Q 28.9,88.4,30.7,88.1
Q 30.4,87.4,30.2,86.6
Q 29.8,85.0,29.8,82.0
Q 29.8,78.9,27.2,72.7
Q 24.8,67.0,23.4,52.1
Q 22.8,46.0,23.4,42.5
Q 23.7,41.0,24.2,40.0
Q 25.5,37.5,26.3,33.7
Q 26.7,31.8,27.1,29.9
Q 27.1,25.9,27.1,21.9
Q 26.7,17.0,26.0,14.3
Q 25.7,12.9,25.4,11.5
Q 25.2,12.6,24.9,13.7
Q 24.5,15.9,24.2,17.6
Q 24.0,19.2,23.0,19.2
Q 22.1,19.2,23.3,11.9
Q 24.0,7.9,24.4,4.4
Q 24.7,0.9,25.3,0.9
Q 25.9,0.9,25.8,3.1
Q 25.7,5.3,26.6,8.4
Q 28.5,14.9,28.9,21.9
Q 29.0,21.9,29.1,21.9
Q 29.4,21.8,29.3,24.1
Q 29.3,25.7,29.3,27.2
Q 29.3,29.4,29.1,29.4
Q 29.0,29.4,28.9,29.5
Q 28.8,30.6,28.7,31.7
Q 28.4,34.0,25.8,40.6
Q 25.3,41.7,24.9,42.8
Q 24.9,43.9,24.9,45.0
Q 24.9,50.4,25.1,52.6
Q 25.2,53.7,25.3,54.8
Q 25.6,54.8,25.8,54.8
Q 26.8,53.8,27.8,52.8
Q 36.4,44.2,44.9,41.9
Q 45.1,41.9,45.3,41.9
Q 47.8,41.9,50.2,44.8
Q 50.7,45.4,51.1,45.9
Q 48.0,37.0,45.6,32.7
Q 34.3,12.1,31.0,2.8
Q 27.1,-8.3,23.6,-9.3
Q 22.9,-9.5,20.9,-8.9
Q 18.1,-8.1,13.3,-7.4
Q 12.2,-7.4,11.1,-7.4
Q 8.4,-7.3,5.8,-7.2
Q 0.4,-7.0,-5.0,-7.4
Q -10.4,-7.9,-10.7,-7.5
Q -11.1,-7.2,-12.4,-3.4
Q -15.3,4.6,-15.8,10.8
Q -16.7,23.1,-22.4,33.1
Q -24.4,36.6,-27.6,40.6
Q -24.4,41.0,-22.4,41.9
Q -20.4,42.8,-18.0,42.4
Q -16.8,42.1,-15.6,41.9
Q -15.3,41.9,-15.1,41.9
Q -13.3,41.5,-11.6,43.1
Q -9.9,44.7,-8.0,44.9
Q -4.3,45.3,-2.9,47.3
Q -2.4,47.9,-1.5,48.6
Q -1.2,48.4,-0.9,48.1
Q 0.2,41.6,0.0,40.2
Q -0.2,38.9,-0.9,37.4
Q -3.6,32.1,-4.1,25.1
Q -4.2,24.4,-4.2,23.7
Q -4.2,22.8,-4.3,22.0
Q -4.3,20.9,-4.4,19.8
Q -4.4,19.3,-4.4,17.9
Q -4.4,15.5,-4.4,13.0
Q -5.3,7.2,-5.4,6.3
Q -5.5,5.3,-4.9,5.3
Q -4.3,5.3,-3.5,8.6
Q -2.6,11.9,-1.6,15.9
Q -0.1,21.6,-1.1,21.7
Q -1.7,21.7,-2.0,21.3
Q -2.3,21.6,-2.7,21.9
Q -2.7,23.5,-2.7,25.0
Q -2.3,26.8,-2.0,28.6
Q -0.9,34.7,1.7,38.6
Q 3.8,41.9,2.5,41.9
Q 1.8,41.9,1.5,43.9
Q 1.2,45.9,0.8,47.9
Q 0.8,48.2,0.7,48.5
Q 0.6,49.2,0.4,49.9
Q 0.4,50.1,0.4,50.4
Q -1.3,56.6,-2.5,59.8
Q -4.7,65.9,-8.5,73.6
Q -10.7,77.9,-12.4,83.7
Q -12.4,84.1,-12.3,84.5
Q -12.3,85.0,-12.2,85.5
Q -11.6,90.2,-8.9,95.1
Q -8.4,96.0,-7.1,97.0
 " /> 
<path  
style="fill:rgb(7,193,201)" 
d="M 1.8 96.1
Q 1.8,96.9,1.8,97.7
Q 1.8,99.3,2.0,99.3
Q 2.1,99.3,2.2,99.2
Q 2.2,96.7,2.2,96.4
Q 2.1,96.1,2.0,96.1
Q 1.9,96.1,1.8,96.1
 " /> 
<path  
style="fill:rgb(7,193,201)" 
d="M 2.2 99.7
Q 2.3,101.2,2.3,102.7
Q 2.6,111.0,4.1,111.0
Q 6.1,111.1,8.0,107.2
Q 8.9,105.5,9.3,100.6
Q 7.4,110.4,4.5,110.6
Q 3.7,110.7,2.9,104.6
Q 2.5,102.2,2.2,99.7
 " /> 
<path  
style="fill:rgb(7,193,201)" 
d="M 9.3 99.7
Q 9.6,98.9,9.8,98.2
Q 11.7,92.5,13.8,95.9
Q 18.0,102.7,22.3,94.2
Q 22.5,94.6,22.7,95.1
Q 23.7,97.6,24.3,102.5
Q 24.8,107.4,26.7,105.6
Q 28.9,103.5,28.9,94.5
Q 28.9,89.1,29.1,88.9
Q 29.3,88.7,30.7,89.0
Q 30.7,88.6,30.7,88.1
Q 28.9,88.4,28.6,88.8
Q 28.3,89.1,28.3,93.1
Q 28.6,102.9,26.7,104.8
Q 25.8,105.6,25.6,105.4
Q 25.3,105.2,24.6,101.4
Q 23.3,93.9,22.4,93.6
Q 21.9,93.4,21.0,95.6
Q 18.2,101.7,13.2,94.4
Q 12.0,92.7,10.0,96.0
Q 9.3,97.0,9.3,99.7
 " /> 
<path  
style="fill:rgb(14,103,171)" 
d="M 0.4 50.4
Q -0.2,50.1,-0.9,49.9
Q -0.6,50.2,-0.3,50.4
Q 0.1,50.4,0.4,50.4
 " /> 
<path  
style="fill:rgb(14,103,171)" 
d="M 0.4 50.4
Q 0.4,50.1,0.4,49.9
Q -0.2,49.9,-0.9,49.9
Q -0.2,50.1,0.4,50.4
 " /> 
<path  
style="fill:rgb(4,4,4)" 
d="M 0.4 49.9
Q 0.6,49.2,0.7,48.5
Q -0.1,48.3,-0.9,48.1
Q -0.8,48.6,-0.6,48.9
Q -0.4,49.1,-0.2,49.3
Q -0.3,49.3,-0.1,49.5
Q -0.2,49.4,-0.1,49.5
Q 0.2,49.7,0.4,49.9
 " /> 
<path  
style="fill:rgb(4,4,4)" 
d="M -2.7 25.0
Q -2.8,24.6,-2.9,24.1
Q -3.1,23.3,-2.7,21.9
Q -3.5,21.9,-4.3,22.0
Q -4.2,22.8,-4.2,23.7
Q -4.2,24.4,-4.1,25.1
Q -3.4,25.1,-2.7,25.0
 " /> 
<path  
style="fill:rgb(14,103,171)" 
d="M -2.7 25.0
Q -2.7,23.5,-2.7,21.9
Q -3.1,23.3,-2.9,24.1
Q -2.8,24.6,-2.7,25.0
 " /> 
<path  
style="fill:rgb(4,4,4)" 
d="M -2.7 25.0
Q -3.4,25.1,-4.1,25.1
Q -3.6,32.1,-0.9,37.4
Q -0.2,38.9,0.0,40.2
Q 0.2,41.6,-0.9,48.1
Q -0.1,48.3,0.7,48.5
Q 0.8,48.2,0.8,47.9
Q 1.2,45.9,1.5,43.9
Q 1.8,41.9,2.5,41.9
Q 3.8,41.9,1.7,38.6
Q -0.9,34.7,-2.0,28.6
Q -2.3,26.8,-2.7,25.0
 " /> 
<path  
style="fill:rgb(4,4,4)" 
d="M -2.7 21.9
Q -2.7,21.2,-2.7,20.6
Q -3.5,20.6,-4.3,20.7
Q -4.3,21.7,-4.2,22.8
Q -3.5,21.9,-2.7,21.9
 " /> 
<path  
style="fill:rgb(97,247,248)" 
d="M -2.7 21.9
Q -2.3,21.6,-2.0,21.3
Q -2.2,21.1,-2.4,20.7
Q -2.4,20.6,-2.4,20.5
Q -2.5,20.5,-2.7,20.6
Q -2.7,21.2,-2.7,21.9
 " /> 
<path  
style="fill:rgb(4,4,4)" 
d="M -2.7 20.6
Q -2.9,19.5,-3.1,18.4
Q -3.1,18.4,-3.1,18.4
Q -3.8,18.1,-4.4,17.9
Q -4.4,19.3,-4.3,20.7
Q -3.5,20.6,-2.7,20.6
 " /> 
<path  
style="fill:rgb(14,103,171)" 
d="M -2.7 20.6
Q -2.7,20.1,-2.7,19.7
Q -2.1,19.1,-3.1,18.4
Q -3.1,18.4,-3.1,18.4
Q -2.9,19.5,-2.7,20.6
 " /> 
<path  
style="fill:rgb(97,247,248)" 
d="M -2.7 20.6
Q -2.5,20.5,-2.4,20.5
Q -2.5,20.1,-2.7,19.7
Q -2.7,20.1,-2.7,20.6
 " /> 
<path  
style="fill:rgb(4,4,4)" 
d="M -2.7 19.7
Q -2.5,20.1,-2.4,20.5
Q -2.4,20.6,-2.4,20.7
Q -2.2,21.1,-2.0,21.3
Q -1.7,21.7,-1.1,21.7
Q -0.1,21.6,-1.6,15.9
Q -2.6,11.9,-3.5,8.6
Q -4.3,5.3,-4.9,5.3
Q -5.5,5.3,-5.4,6.3
Q -5.3,7.2,-4.4,13.0
Q -4.3,13.7,-4.2,14.4
Q -4.0,15.7,-4.4,17.9
Q -3.8,18.1,-3.1,18.4
Q -2.1,19.1,-2.7,19.7
 " /> 
<path  
style="fill:rgb(14,103,171)" 
d="M -4.4 13.0
Q -4.4,15.5,-4.4,17.9
Q -4.0,15.7,-4.2,14.4
Q -4.3,13.7,-4.4,13.0
 " /> 
<path  
style="fill:rgb(14,103,171)" 
d="M -0.9 48.1
Q -0.9,48.6,-0.9,49.0
Q -0.7,48.9,-0.6,48.9
Q -0.8,48.6,-0.9,48.1
 " /> 
<path  
style="fill:rgb(97,247,248)" 
d="M -0.9 48.1
Q -1.2,48.4,-1.5,48.6
Q -1.2,48.8,-0.9,49.0
Q -0.9,48.6,-0.9,48.1
 " /> 
<path  
style="fill:rgb(14,103,171)" 
d="M -0.9 49.0
Q -0.7,49.2,-0.5,49.3
Q -0.4,49.2,-0.4,49.2
Q -0.5,49.0,-0.7,48.7
Q -0.7,48.9,-0.9,49.0
 " /> 
<path  
style="fill:rgb(14,103,171)" 
d="M -0.9 49.0
Q -0.9,49.3,-0.9,49.6
Q -0.7,49.4,-0.4,49.2
Q -0.7,49.2,-0.9,49.0
 " /> 
<path  
style="fill:rgb(7,193,201)" 
d="M -0.9 49.0
Q -1.1,49.5,-1.3,49.9
Q -1.1,49.7,-0.9,49.6
Q -0.9,49.3,-0.9,49.0
 " /> 
<path  
style="fill:rgb(7,193,201)" 
d="M -0.9 49.0
Q -1.2,48.8,-1.5,48.6
Q -1.8,48.7,-2.0,48.9
Q -1.7,49.4,-1.3,49.9
Q -1.1,49.5,-0.9,49.0
 " /> 
<path  
style="fill:rgb(7,193,201)" 
d="M -1.3 49.9
Q -1.1,49.9,-0.9,49.9
Q -0.9,49.7,-0.9,49.6
Q -1.1,49.7,-1.3,49.9
 " /> 
<path  
style="fill:rgb(14,103,171)" 
d="M -15.1 41.9
Q -15.3,41.9,-15.6,41.9
Q -19.5,44.3,-22.5,42.3
Q -24.0,41.4,-26.0,41.2
Q -27.0,41.1,-28.0,41.0
Q -31.1,45.0,-32.5,47.3
Q -33.9,49.7,-34.2,50.1
Q -36.9,53.9,-37.6,62.6
Q -37.9,66.4,-37.5,66.4
Q -37.1,66.4,-36.6,64.9
Q -35.7,62.6,-31.6,58.1
Q -29.9,56.3,-27.6,53.7
Q -23.5,49.2,-24.1,51.4
Q -24.2,52.0,-29.1,57.5
Q -31.5,60.4,-33.0,62.2
Q -40.7,72.3,-32.8,81.9
Q -31.4,83.6,-28.0,85.5
Q -28.1,82.4,-28.2,79.2
Q -28.5,70.7,-27.5,72.2
Q -27.0,72.9,-27.1,79.2
Q -27.1,82.3,-27.1,85.5
Q -21.0,85.5,-17.4,81.8
Q -15.5,79.8,-15.8,72.8
Q -16.3,56.7,-14.6,56.3
Q -14.0,56.1,-14.1,66.8
Q -14.3,77.6,-13.9,77.4
Q -11.5,76.6,-10.8,73.0
Q -10.6,71.9,-9.3,70.1
Q -5.2,64.8,-1.3,49.9
Q -1.7,49.4,-2.0,48.9
Q -2.1,48.7,-2.2,48.6
Q -4.3,45.5,-7.9,45.5
Q -9.8,45.5,-11.4,43.7
Q -12.9,41.9,-14.0,41.9
Q -14.5,41.9,-15.1,41.9
 " /> 
<path  
style="fill:rgb(7,193,201)" 
d="M -9.9 63.8
Q -9.7,65.2,-9.5,65.6
Q -8.4,67.5,-8.4,61.0
Q -8.4,56.1,-9.1,56.1
Q -10.9,56.1,-9.9,63.8
 " /> 
<path  
style="fill:rgb(7,193,201)" 
d="M -35.0 56.5
Q -35.2,57.5,-34.7,57.5
Q -34.2,57.5,-33.1,54.9
Q -31.2,50.8,-32.1,50.8
Q -33.8,50.8,-35.0,56.5
 " /> 
<path  
style="fill:rgb(7,193,201)" 
d="M -15.1 41.9
Q -14.5,41.9,-14.0,41.9
Q -12.9,41.9,-11.4,43.7
Q -9.8,45.5,-7.9,45.5
Q -4.3,45.5,-2.2,48.6
Q -2.1,48.7,-2.0,48.9
Q -1.8,48.7,-1.5,48.6
Q -2.4,47.9,-2.9,47.3
Q -4.3,45.3,-8.0,44.9
Q -9.9,44.7,-11.6,43.1
Q -13.3,41.5,-15.1,41.9
 " /> 
<path  
style="fill:rgb(7,193,201)" 
d="M -15.6 41.9
Q -16.8,42.1,-18.0,42.4
Q -20.4,42.8,-22.4,41.9
Q -24.4,41.0,-27.6,40.6
Q -27.8,40.6,-28.0,41.0
Q -27.0,41.1,-26.0,41.2
Q -24.0,41.4,-22.5,42.3
Q -19.5,44.3,-15.6,41.9
 " /> 
<path  
style="fill:rgb(14,103,171)" 
d="M 11.1 -7.4
Q 12.2,-7.4,13.3,-7.4
Q 13.0,-7.5,12.7,-7.7
Q 12.0,-7.9,11.1,-7.4
 " /> 
<path  
style="fill:rgb(7,193,201)" 
d="M 51.1 45.9
Q 50.9,46.1,50.7,46.3
Q 51.1,46.8,51.6,47.2
Q 51.6,45.8,51.1,45.9
 " /> 
<path  
style="fill:rgb(7,193,201)" 
d="M 51.1 45.9
Q 50.7,45.4,50.2,44.8
Q 47.8,41.9,45.3,41.9
Q 48.5,43.7,50.0,45.4
Q 50.4,45.9,50.7,46.3
Q 50.9,46.1,51.1,45.9
 " /> 
<path  
style="fill:rgb(14,103,171)" 
d="M 45.3 41.9
Q 45.1,41.9,44.9,41.9
Q 44.0,42.2,43.1,42.6
Q 38.7,44.2,32.5,49.4
Q 29.8,51.7,27.8,53.2
Q 26.8,54.0,25.8,54.8
Q 25.6,54.8,25.3,54.8
Q 27.1,65.9,28.0,69.0
Q 28.9,72.1,31.1,76.1
Q 31.2,72.7,31.3,69.2
Q 31.6,62.4,32.1,62.3
Q 32.6,62.2,32.6,66.6
Q 32.6,71.0,31.6,77.0
Q 31.6,77.0,31.6,77.0
Q 32.4,78.1,33.3,79.2
Q 35.5,82.0,39.1,83.3
Q 38.7,81.9,38.2,80.5
Q 36.5,74.4,36.2,67.3
Q 35.6,54.8,36.7,56.4
Q 37.2,57.1,37.5,65.2
Q 38.2,83.1,41.9,84.1
Q 45.1,85.1,48.6,82.2
Q 51.9,79.5,52.1,76.4
Q 52.2,74.1,47.3,59.3
Q 45.1,52.6,45.9,52.6
Q 47.1,52.6,50.8,65.0
Q 51.9,68.8,53.2,73.2
Q 54.2,66.6,53.9,64.6
Q 53.6,62.7,53.8,58.8
Q 53.1,59.1,52.9,58.9
Q 52.6,58.7,51.9,57.1
Q 50.3,53.4,51.2,53.6
Q 51.8,53.7,53.3,56.1
Q 52.9,51.7,51.6,47.2
Q 51.1,46.8,50.7,46.3
Q 50.4,45.9,50.0,45.4
Q 48.5,43.7,45.3,41.9
 " /> 
<path  
style="fill:rgb(7,193,201)" 
d="M 45.2 77.8
Q 46.4,82.8,47.1,82.8
Q 47.7,82.8,46.7,78.4
Q 45.8,74.1,44.6,68.7
Q 44.4,67.7,43.9,67.7
Q 42.7,67.7,45.2,77.8
 " /> 
<path  
style="fill:rgb(14,103,171)" 
d="M 24.9 45.0
Q 24.9,43.9,24.9,42.8
Q 24.4,44.1,24.6,44.6
Q 24.8,44.8,24.9,45.0
 " /> 
<path  
style="fill:rgb(4,4,4)" 
d="M 24.9 42.8
Q 25.3,41.7,25.8,40.6
Q 28.4,34.0,28.7,31.7
Q 28.8,30.6,28.9,29.5
Q 28.9,28.4,28.9,27.2
Q 28.1,27.2,27.4,27.2
Q 27.4,27.6,27.3,27.9
Q 27.2,28.9,27.1,29.9
Q 26.7,31.8,26.3,33.7
Q 25.5,37.5,24.2,40.0
Q 23.7,41.0,23.4,42.5
Q 24.2,42.7,24.9,42.8
 " /> 
<path  
style="fill:rgb(7,193,201)" 
d="M 28.9 29.5
Q 29.0,29.4,29.1,29.4
Q 29.3,29.4,29.3,27.2
Q 29.1,27.2,28.9,27.2
Q 28.9,28.4,28.9,29.5
 " /> 
<path  
style="fill:rgb(14,103,171)" 
d="M 29.3 27.2
Q 29.3,25.7,29.3,24.1
Q 29.1,24.1,28.9,24.1
Q 28.9,25.7,28.9,27.2
Q 29.1,27.2,29.3,27.2
 " /> 
<path  
style="fill:rgb(7,193,201)" 
d="M 29.3 24.1
Q 29.4,21.8,29.1,21.9
Q 29.0,21.9,28.9,21.9
Q 28.9,23.0,28.9,24.1
Q 29.1,24.1,29.3,24.1
 " /> 
<path  
style="fill:rgb(4,4,4)" 
d="M 28.9 21.9
Q 28.5,14.9,26.6,8.4
Q 25.7,5.3,25.8,3.1
Q 25.9,0.9,25.3,0.9
Q 24.7,0.9,24.4,4.4
Q 24.0,7.9,23.3,11.9
Q 22.1,19.2,23.0,19.2
Q 24.0,19.2,24.2,17.6
Q 24.5,15.9,24.9,13.7
Q 25.2,12.6,25.4,11.5
Q 25.7,12.9,26.0,14.3
Q 26.7,17.0,27.1,21.9
Q 27.3,23.2,27.3,24.2
Q 28.1,24.2,28.9,24.1
Q 28.9,23.0,28.9,21.9
 " /> 
<path  
style="fill:rgb(7,193,201)" 
d="M 27.1 21.9
Q 27.1,25.9,27.1,29.9
Q 27.2,28.9,27.3,27.9
Q 27.4,27.6,27.4,27.2
Q 27.5,25.8,27.3,23.9
Q 27.3,23.2,27.1,21.9
 " /> 
<path  
style="fill:rgb(7,193,201)" 
d="M -28.0 85.5
Q -27.6,85.5,-27.1,85.5
Q -27.1,82.3,-27.1,79.2
Q -27.0,72.9,-27.5,72.2
Q -28.5,70.7,-28.2,79.2
Q -28.1,82.4,-28.0,85.5
 " /> 
<path  
style="fill:rgb(7,193,201)" 
d="M 31.1 76.1
Q 31.6,76.8,31.6,77.0
Q 32.6,71.0,32.6,66.6
Q 32.6,62.2,32.1,62.3
Q 31.6,62.4,31.3,69.2
Q 31.2,72.7,31.1,76.1
 " /> 
<path  
style="fill:rgb(7,193,201)" 
d="M 53.3 56.1
Q 51.8,53.7,51.2,53.6
Q 50.3,53.4,51.9,57.1
Q 52.6,58.7,52.9,58.9
Q 53.1,59.1,53.8,58.8
Q 53.6,58.7,53.5,58.6
Q 53.3,58.4,53.3,56.1
 " /> 
<path  
style="fill:rgb(14,103,171)" 
d="M -0.9 49.9
Q -0.6,49.7,-0.3,49.4
Q -0.5,49.3,-0.7,49.1
Q -0.7,49.4,-0.9,49.6
Q -0.9,49.7,-0.9,49.9
 " /> 
<path  
style="fill:rgb(14,103,171)" 
d="M -0.9 49.9
Q -0.9,50.1,-1.0,50.2
Q -1.1,50.5,-0.3,50.4
Q -0.3,50.4,-0.3,50.4
Q -0.6,50.2,-0.9,49.9
 " /> 
<path  
style="fill:rgb(4,4,4)" 
d="M 28.9 27.2
Q 28.9,25.7,28.9,24.1
Q 28.1,24.2,27.3,24.2
Q 27.5,26.2,27.4,27.4
Q 28.1,27.2,28.9,27.2
 " /> 
<path  
style="fill:rgb(14,103,171)" 
d="M 72.4 -46.5
Q 72.1,-46.1,71.8,-45.6
Q 71.1,-44.8,70.4,-43.4
Q 70.1,-42.7,69.8,-42.1
Q 71.1,-43.9,72.4,-46.5
 " /> 
<path  
style="fill:rgb(97,247,248)" 
d="M 73.3 -48.7
Q 73.6,-49.4,73.8,-50.1
Q 73.7,-50.0,73.6,-49.8
Q 73.3,-49.6,73.3,-48.7
 " /> 
<path  
style="fill:rgb(97,247,248)" 
d="M 73.3 -48.7
Q 84.9,-52.1,88.1,-53.9
Q 91.4,-55.7,92.2,-56.2
Q 93.1,-56.7,92.8,-57.0
Q 92.5,-57.3,88.2,-55.3
Q 84.0,-53.2,73.8,-50.1
Q 73.6,-49.4,73.3,-48.7
 " /> 
<path  
style="fill:rgb(14,103,171)" 
d="M 78.7 -65.6
Q 79.1,-65.8,79.1,-67.4
Q 78.9,-67.4,78.7,-67.5
Q 78.7,-67.2,78.7,-66.9
Q 78.7,-66.3,78.7,-65.6
 " /> 
<path  
style="fill:rgb(97,247,248)" 
d="M 79.1 -67.4
Q 79.1,-67.9,79.1,-68.3
Q 79.1,-67.9,79.1,-67.4
Q 80.8,-67.7,82.5,-68.0
Q 97.0,-70.7,105.9,-84.7
Q 108.2,-88.3,107.5,-88.3
Q 106.9,-88.3,105.3,-85.7
Q 97.1,-72.8,81.8,-69.0
Q 80.4,-68.6,79.1,-68.3
Q 79.1,-67.9,79.1,-67.4
Q 79.1,-67.9,79.1,-68.3
Q 78.8,-68.2,78.7,-67.5
Q 78.9,-67.4,79.1,-67.4
 " /> 
<path  
style="fill:rgb(14,103,171)" 
d="M 79.1 -68.7
Q 79.2,-68.8,79.3,-68.8
Q 79.6,-68.9,79.6,-71.0
Q 79.4,-70.9,79.3,-70.9
Q 79.1,-70.9,79.1,-68.7
 " /> 
<path  
style="fill:rgb(14,103,171)" 
d="M 79.6 -73.2
Q 79.7,-74.2,79.8,-75.2
Q 80.0,-77.2,79.8,-79.4
Q 79.7,-80.5,79.6,-81.6
Q 79.6,-77.4,79.6,-73.2
 " /> 
<path  
style="fill:rgb(7,193,201)" 
d="M 79.6 -81.6
Q 79.8,-81.9,80.0,-82.1
Q 79.8,-82.6,79.6,-83.0
Q 79.6,-82.3,79.6,-81.6
 " /> 
<path  
style="fill:rgb(14,103,171)" 
d="M 79.6 -83.0
Q 80.0,-85.2,79.8,-86.3
Q 79.7,-86.9,79.6,-87.4
Q 79.6,-85.2,79.6,-83.0
 " /> 
<path  
style="fill:rgb(14,103,171)" 
d="M 78.2 -100.3
Q 78.2,-100.7,78.2,-101.2
Q 78.0,-101.2,77.8,-101.2
Q 77.8,-100.6,77.8,-100.4
Q 77.9,-100.2,78.2,-100.3
 " /> 
<path  
style="fill:rgb(97,247,248)" 
d="M 78.2 -100.3
Q 78.9,-100.7,79.7,-101.2
Q 92.2,-108.4,90.9,-135.1
Q 90.4,-145.1,90.0,-133.7
Q 89.2,-111.2,80.9,-103.6
Q 79.8,-102.6,78.6,-101.6
Q 78.4,-101.4,78.2,-101.2
Q 78.2,-100.7,78.2,-100.3
 " /> 
<path  
style="fill:rgb(14,103,171)" 
d="M 78.2 -101.2
Q 78.0,-101.9,77.8,-102.5
Q 77.8,-101.7,77.8,-101.2
Q 78.0,-101.2,78.2,-101.2
 " /> 
<path  
style="fill:rgb(14,103,171)" 
d="M 78.2 -101.2
Q 78.2,-101.6,78.2,-101.9
Q 78.0,-102.2,77.8,-102.5
Q 78.0,-101.9,78.2,-101.2
 " /> 
<path  
style="fill:rgb(7,193,201)" 
d="M 78.2 -101.2
Q 78.4,-101.4,78.6,-101.6
Q 78.4,-101.8,78.2,-102.0
Q 78.2,-102.0,78.2,-101.9
Q 78.2,-101.9,78.2,-101.9
Q 78.2,-101.6,78.2,-101.2
 " /> 
<path  
style="fill:rgb(14,103,171)" 
d="M 77.8 -102.5
Q 78.0,-102.3,78.2,-102.0
Q 78.2,-102.6,78.0,-102.6
Q 77.9,-102.6,77.8,-102.5
 " /> 
<path  
style="fill:rgb(14,103,171)" 
d="M 68.0 -127.4
Q 67.8,-127.7,67.5,-128.1
Q 67.1,-128.7,66.4,-129.2
Q 66.1,-129.4,65.8,-129.6
Q 66.0,-129.3,66.2,-129.0
Q 66.7,-128.3,68.0,-127.4
 " /> 
<path  
style="fill:rgb(14,103,171)" 
d="M 65.3 -130.5
Q 65.1,-130.8,64.9,-131.2
Q 64.4,-131.8,63.8,-132.3
Q 63.4,-132.5,63.1,-132.7
Q 63.3,-132.4,63.6,-132.1
Q 64.0,-131.4,64.7,-131.0
Q 65.0,-130.8,65.3,-130.5
 " /> 
<path  
style="fill:rgb(14,103,171)" 
d="M 63.6 -143.4
Q 63.8,-143.1,64.0,-142.8
Q 64.5,-142.1,65.1,-141.6
Q 65.4,-141.4,65.8,-141.2
Q 64.9,-142.5,64.2,-143.0
Q 63.9,-143.2,63.6,-143.4
 " /> 
<path  
style="fill:rgb(14,103,171)" 
d="M 84.9 -149.2
Q 85.3,-149.4,85.3,-152.3
Q 85.2,-152.3,85.1,-152.2
Q 84.9,-152.2,84.9,-149.2
 " /> 
<path  
style="fill:rgb(14,103,171)" 
d="M 115.1 -150.5
Q 116.4,-151.5,117.1,-152.3
Q 117.4,-152.8,117.8,-153.2
Q 117.3,-152.9,116.9,-152.5
Q 116.0,-151.8,115.1,-150.5
 " /> 
<path  
style="fill:rgb(14,103,171)" 
d="M 120.0 -110.1
Q 120.4,-110.4,120.9,-110.8
Q 121.8,-111.4,122.4,-112.3
Q 122.8,-112.8,123.1,-113.2
Q 122.7,-112.9,122.2,-112.5
Q 121.3,-111.8,120.0,-110.1
 " /> 
<path  
style="fill:rgb(14,103,171)" 
d="M 105.3 -69.6
Q 104.0,-68.7,103.6,-68.1
Q 103.3,-67.7,103.1,-67.4
Q 103.4,-67.6,103.8,-67.9
Q 104.4,-68.3,105.3,-69.6
 " /> 
<path  
style="fill:rgb(14,103,171)" 
d="M 109.8 -58.5
Q 109.4,-58.3,109.1,-58.1
Q 108.5,-57.6,108.0,-56.9
Q 107.8,-56.6,107.6,-56.3
Q 107.9,-56.5,108.2,-56.8
Q 108.9,-57.2,109.3,-57.9
Q 109.5,-58.2,109.8,-58.5
 " /> 
<path  
style="fill:rgb(97,247,248)" 
d="M 80.0 -82.1
Q 80.0,-80.9,86.2,-85.8
Q 91.3,-89.9,98.8,-99.4
Q 105.7,-108.3,109.2,-115.8
Q 113.6,-125.4,113.3,-126.3
Q 112.8,-127.5,111.1,-122.9
Q 107.3,-112.6,97.9,-100.2
Q 90.2,-90.0,82.8,-84.7
Q 80.0,-82.7,80.0,-82.1
 " /> 
<path  
style="fill:rgb(97,247,248)" 
d="M 75.3 -120.8
Q 75.0,-119.7,75.6,-119.9
Q 76.8,-120.4,77.5,-125.5
Q 78.1,-129.3,77.2,-131.1
Q 76.4,-132.7,76.4,-128.0
Q 76.4,-124.5,76.0,-123.2
Q 75.6,-121.8,75.3,-120.8
 " /> 
<path  
style="fill:rgb(97,247,248)" 
d="M 67.6 -131.1
Q 67.6,-130.1,68.0,-130.1
Q 68.4,-130.1,68.6,-130.9
Q 69.9,-135.2,68.9,-134.9
Q 67.6,-134.4,67.6,-131.1
 " /> 
<path  
style="fill:rgb(255,255,255)" 
d="M 0.4 49.9
Q 0.1,49.7,-0.3,49.4
Q -0.6,49.7,-0.9,49.9
Q -0.2,49.9,0.4,49.9
 " /> 
<path  
style="fill:rgb(4,4,4)" 
d="M -46.2 -24.7
Q -46.8,-25.3,-47.4,-25.9
Q -48.6,-24.7,-49.8,-23.4
Q -49.0,-23.1,-48.4,-22.5
Q -47.5,-23.8,-46.9,-24.3
Q -46.5,-24.5,-46.2,-24.7
 " /> 
<path  
style="fill:rgb(4,4,4)" 
d="M -46.2 -24.7
Q -44.3,-27.1,-42.4,-29.4
Q -38.6,-34.1,-39.1,-34.7
Q -39.6,-35.2,-41.0,-33.4
Q -42.4,-31.7,-44.8,-28.8
Q -54.9,-40.7,-58.9,-49.9
Q -65.6,-65.4,-67.8,-79.6
Q -68.3,-83.3,-68.9,-87.0
Q -69.2,-86.8,-69.3,-87.1
Q -69.3,-87.3,-69.3,-90.5
Q -69.3,-96.3,-69.3,-97.4
Q -69.3,-98.0,-69.3,-98.5
Q -69.3,-99.4,-69.3,-100.2
Q -69.3,-101.9,-69.1,-102.0
Q -69.0,-102.0,-68.9,-102.1
Q -68.4,-108.3,-67.6,-112.2
Q -63.8,-129.6,-55.2,-136.6
Q -53.3,-138.1,-53.1,-139.2
Q -53.0,-139.7,-52.9,-140.3
Q -53.4,-140.8,-53.8,-141.3
Q -55.5,-139.7,-57.7,-137.9
Q -60.9,-135.3,-61.6,-140.1
Q -61.9,-142.2,-61.6,-152.0
Q -60.9,-173.4,-66.4,-169.8
Q -71.8,-166.4,-75.3,-146.1
Q -75.7,-144.0,-76.1,-141.9
Q -77.3,-150.7,-78.4,-152.0
Q -80.1,-154.2,-82.4,-150.1
Q -84.9,-145.5,-84.9,-137.7
Q -84.9,-135.9,-85.3,-135.9
Q -85.6,-135.9,-86.6,-141.5
Q -90.7,-164.7,-96.6,-168.3
Q -99.0,-169.8,-101.1,-166.3
Q -106.4,-157.3,-97.2,-127.4
Q -95.2,-120.9,-94.6,-117.9
Q -95.1,-118.4,-95.7,-119.0
Q -97.3,-120.7,-101.0,-130.0
Q -105.1,-140.4,-107.6,-141.0
Q -111.7,-141.9,-112.9,-132.0
Q -115.4,-112.4,-103.1,-90.1
Q -100.8,-85.9,-99.7,-83.7
Q -97.8,-80.0,-93.6,-73.9
Q -95.3,-74.8,-96.9,-75.7
Q -107.8,-81.6,-109.9,-81.9
Q -115.8,-82.7,-111.6,-72.9
Q -103.9,-54.9,-87.9,-44.7
Q -69.6,-32.9,-53.4,-31.7
Q -50.5,-31.5,-46.2,-27.1
Q -46.8,-26.5,-47.4,-25.9
Q -46.8,-25.3,-46.2,-24.7
 " /> 
<path  
style="fill:rgb(14,103,171)" 
d="M -97.3 -55.0
Q -97.0,-54.5,-96.6,-54.1
Q -96.0,-53.2,-95.1,-52.5
Q -94.7,-52.2,-94.2,-51.9
Q -94.6,-52.3,-94.9,-52.7
Q -95.6,-53.6,-97.3,-55.0
 " /> 
<path  
style="fill:rgb(14,103,171)" 
d="M -92.9 -116.7
Q -92.4,-118.1,-92.6,-118.8
Q -92.8,-119.1,-92.9,-119.4
Q -92.9,-118.1,-92.9,-116.7
 " /> 
<path  
style="fill:rgb(14,103,171)" 
d="M -100.4 -151.0
Q -100.4,-152.8,-100.4,-153.1
Q -100.5,-153.3,-100.6,-153.3
Q -100.8,-153.2,-100.9,-153.2
Q -100.9,-151.3,-100.8,-151.0
Q -100.8,-150.8,-100.4,-151.0
 " /> 
<path  
style="fill:rgb(14,103,171)" 
d="M -78.7 -143.9
Q -78.7,-142.2,-78.7,-140.4
Q -78.7,-137.6,-78.7,-137.3
Q -78.6,-137.1,-78.2,-137.2
Q -78.2,-143.6,-78.3,-143.8
Q -78.3,-144.0,-78.7,-143.9
 " /> 
<path  
style="fill:rgb(14,103,171)" 
d="M -63.6 -163.9
Q -63.6,-160.5,-63.6,-157.2
Q -63.4,-158.1,-63.3,-159.0
Q -63.1,-160.7,-63.3,-162.3
Q -63.4,-163.1,-63.6,-163.9
 " /> 
<path  
style="fill:rgb(14,103,171)" 
d="M -63.6 -150.5
Q -64.0,-150.3,-64.0,-147.0
Q -63.9,-147.0,-63.8,-147.1
Q -63.6,-147.1,-63.6,-148.8
Q -63.6,-149.7,-63.6,-150.5
 " /> 
<path  
style="fill:rgb(14,103,171)" 
d="M -64.0 -141.6
Q -64.0,-139.8,-64.0,-139.5
Q -63.9,-139.3,-63.8,-139.3
Q -63.7,-139.4,-63.6,-139.4
Q -63.6,-141.3,-63.6,-141.6
Q -63.7,-141.8,-64.0,-141.6
 " /> 
<path  
style="fill:rgb(97,247,248)" 
d="M -66.7 -123.0
Q -66.9,-122.3,-67.1,-121.6
Q -67.0,-121.7,-66.9,-121.7
Q -66.7,-121.8,-66.7,-122.4
Q -66.7,-122.7,-66.7,-123.0
 " /> 
<path  
style="fill:rgb(97,247,248)" 
d="M -66.7 -123.0
Q -67.2,-123.9,-67.7,-124.7
Q -68.8,-126.5,-69.4,-131.0
Q -70.0,-135.4,-70.4,-135.4
Q -70.8,-135.4,-70.5,-131.7
Q -70.2,-126.2,-68.0,-123.0
Q -67.6,-122.3,-67.1,-121.6
Q -66.9,-122.3,-66.7,-123.0
 " /> 
<path  
style="fill:rgb(14,103,171)" 
d="M -70.7 -106.5
Q -70.8,-106.5,-70.9,-106.4
Q -71.1,-106.3,-71.1,-103.9
Q -71.0,-103.9,-70.9,-103.9
Q -70.7,-104.0,-70.7,-105.3
Q -70.7,-105.9,-70.7,-106.5
 " /> 
<path  
style="fill:rgb(14,103,171)" 
d="M -71.1 -97.6
Q -71.6,-97.4,-71.6,-95.4
Q -71.2,-95.6,-71.1,-96.6
Q -71.1,-97.1,-71.1,-97.6
 " /> 
<path  
style="fill:rgb(97,247,248)" 
d="M -71.6 -92.3
Q -78.2,-98.2,-81.7,-104.3
Q -83.1,-106.8,-85.1,-113.5
Q -85.3,-114.1,-85.7,-113.9
Q -86.1,-113.7,-85.5,-110.9
Q -83.0,-100.3,-73.4,-92.2
Q -72.0,-91.0,-71.6,-91.9
Q -71.6,-92.1,-71.6,-92.3
 " /> 
<path  
style="fill:rgb(14,103,171)" 
d="M -71.1 -91.0
Q -71.2,-90.5,-71.4,-90.1
Q -71.6,-89.2,-71.4,-88.3
Q -71.2,-87.9,-71.1,-87.4
Q -71.1,-89.2,-71.1,-91.0
 " /> 
<path  
style="fill:rgb(14,103,171)" 
d="M -71.1 -84.7
Q -71.1,-84.2,-71.1,-83.6
Q -70.9,-83.0,-70.7,-82.5
Q -70.7,-83.1,-70.7,-83.7
Q -70.7,-84.9,-70.9,-84.8
Q -71.0,-84.8,-71.1,-84.7
 " /> 
<path  
style="fill:rgb(14,103,171)" 
d="M -70.7 -82.5
Q -70.9,-83.0,-71.1,-83.6
Q -71.1,-83.6,-71.1,-83.6
Q -71.2,-82.4,-70.7,-82.5
 " /> 
<path  
style="fill:rgb(97,247,248)" 
d="M -69.8 -75.9
Q -70.1,-75.2,-70.4,-74.6
Q -69.9,-74.4,-69.3,-74.1
Q -69.4,-74.3,-69.5,-74.5
Q -69.8,-75.0,-69.8,-75.9
 " /> 
<path  
style="fill:rgb(97,247,248)" 
d="M -69.8 -75.9
Q -74.4,-77.8,-77.1,-79.9
Q -82.7,-84.2,-86.4,-89.7
Q -90.8,-96.5,-91.0,-96.0
Q -91.5,-94.7,-87.1,-88.5
Q -82.6,-82.3,-77.5,-78.7
Q -75.0,-76.9,-70.4,-74.6
Q -70.1,-75.2,-69.8,-75.9
 " /> 
<path  
style="fill:rgb(97,247,248)" 
d="M -60.4 -47.0
Q -62.1,-47.2,-63.8,-47.5
Q -70.0,-48.5,-78.2,-53.7
Q -86.8,-59.1,-90.3,-62.4
Q -92.8,-64.8,-93.1,-64.3
Q -93.9,-63.0,-85.3,-56.9
Q -71.7,-47.3,-59.6,-45.6
Q -60.0,-46.3,-60.4,-47.0
 " /> 
<path  
style="fill:rgb(97,247,248)" 
d="M -46.2 -24.7
Q -47.1,-23.5,-48.4,-22.5
Q -49.1,-21.7,-49.8,-21.0
Q -51.1,-19.4,-52.4,-17.9
Q -57.0,-12.6,-58.0,-6.5
Q -58.7,-2.5,-56.8,-2.5
Q -51.7,-2.5,-39.5,-22.3
Q -35.0,-29.6,-33.1,-30.0
Q -31.4,-30.4,-33.6,-27.8
Q -36.6,-24.3,-35.5,-23.2
Q -32.8,-20.8,-31.1,-21.0
Q -30.6,-21.1,-29.3,-24.0
Q -28.6,-25.8,-27.9,-26.3
Q -26.0,-27.5,-27.5,-23.8
Q -28.5,-21.4,-29.1,-19.8
Q -29.6,-18.2,-31.2,-15.8
Q -38.9,-4.3,-38.1,2.2
Q -37.5,7.2,-28.3,-1.6
Q -23.1,-6.6,-20.6,-10.8
Q -19.9,-11.9,-18.9,-12.9
Q -17.9,-13.9,-16.4,-15.6
Q -13.6,-19.0,-12.8,-18.2
Q -12.3,-17.6,-13.4,-16.4
Q -14.5,-15.1,-15.7,-13.6
Q -16.3,-12.8,-16.8,-12.0
Q -9.8,-10.5,-4.9,-10.1
Q -2.4,-9.9,-0.0,-9.6
Q 2.2,-9.6,4.4,-9.6
Q 5.4,-9.6,6.4,-9.6
Q 8.3,-9.6,10.2,-10.1
Q 11.3,-10.1,12.4,-10.1
Q 18.2,-11.0,21.7,-11.9
Q 25.1,-12.8,29.2,-13.3
Q 28.9,-14.3,28.6,-15.3
Q 27.9,-17.4,27.1,-19.2
Q 26.3,-21.0,26.6,-21.6
Q 27.5,-23.0,29.3,-18.0
Q 30.3,-15.2,31.1,-13.4
Q 31.9,-11.6,32.7,-9.0
Q 35.1,-0.1,36.8,-0.1
Q 37.8,-0.1,38.9,-3.7
Q 41.7,-12.7,36.4,-24.1
Q 34.5,-28.3,35.3,-28.3
Q 36.8,-28.3,39.4,-21.3
Q 40.0,-19.7,40.6,-18.1
Q 42.1,-19.3,44.0,-20.8
Q 45.9,-22.4,44.8,-26.4
Q 42.9,-33.3,43.8,-33.1
Q 45.7,-32.6,48.5,-18.5
Q 50.1,-10.3,52.0,-9.8
Q 53.9,-9.3,56.4,-22.1
Q 56.4,-23.2,56.4,-24.3
Q 56.4,-24.7,56.4,-25.2
Q 56.4,-26.3,56.4,-27.4
Q 55.6,-32.3,54.2,-35.5
Q 52.4,-39.8,53.5,-39.7
Q 55.1,-39.5,57.1,-33.3
Q 57.8,-31.0,58.2,-31.0
Q 58.6,-31.0,61.2,-34.0
Q 74.6,-49.5,76.9,-69.9
Q 77.1,-72.0,77.3,-74.1
Q 77.3,-78.4,77.6,-78.5
Q 77.7,-78.5,77.8,-78.5
Q 77.7,-79.3,77.6,-80.1
Q 77.3,-81.6,77.3,-85.2
Q 77.3,-87.0,77.3,-88.7
Q 77.0,-88.7,76.9,-88.9
Q 76.9,-89.2,76.9,-91.4
Q 75.5,-103.8,73.0,-111.6
Q 67.1,-130.1,49.2,-138.5
Q 45.3,-140.3,45.3,-141.0
Q 45.3,-142.6,48.4,-141.4
Q 50.3,-140.6,50.5,-140.9
Q 51.1,-141.5,48.0,-147.3
Q 41.6,-159.3,28.8,-161.3
Q 28.0,-161.5,27.1,-161.6
Q 26.0,-161.6,24.9,-161.6
Q 21.3,-160.7,19.0,-159.7
Q 13.4,-157.1,7.4,-148.8
Q 6.8,-148.1,6.3,-147.6
Q 5.0,-146.6,3.4,-146.7
Q 2.1,-146.9,0.4,-146.9
Q -0.9,-147.0,-2.4,-147.0
Q -5.8,-147.0,-6.5,-148.4
Q -13.4,-162.1,-25.4,-165.0
Q -36.4,-167.6,-42.2,-158.9
Q -46.3,-152.8,-47.0,-147.2
Q -47.5,-143.3,-48.8,-143.2
Q -49.3,-143.2,-50.7,-142.5
Q -50.9,-142.2,-51.1,-141.9
Q -51.6,-141.2,-52.2,-140.8
Q -52.6,-140.5,-52.9,-140.3
Q -53.0,-139.7,-53.1,-139.2
Q -53.3,-138.1,-55.2,-136.6
Q -63.8,-129.6,-67.6,-112.2
Q -68.4,-108.3,-68.9,-102.1
Q -68.9,-101.2,-68.9,-100.4
Q -68.9,-98.7,-69.3,-98.5
Q -69.3,-98.0,-69.3,-97.4
Q -69.3,-96.3,-69.3,-90.5
Q -69.0,-90.6,-68.9,-90.4
Q -68.8,-90.1,-68.9,-87.0
Q -68.3,-83.3,-67.8,-79.6
Q -65.6,-65.4,-58.9,-49.9
Q -54.9,-40.7,-44.8,-28.8
Q -42.4,-31.7,-41.0,-33.4
Q -39.6,-35.2,-39.1,-34.7
Q -38.6,-34.1,-42.4,-29.4
Q -44.3,-27.1,-46.2,-24.7
 " /> 
<path  
style="fill:rgb(4,4,4)" 
d="M 17.8 -21.9
Q 19.3,-20.7,20.1,-20.7
Q 21.8,-20.7,19.5,-22.7
Q 14.6,-26.8,6.0,-25.7
Q -3.1,-24.4,-3.1,-22.9
Q -3.1,-22.0,-1.9,-22.3
Q 12.4,-25.8,17.8,-21.9
 " /> 
<path  
style="fill:rgb(4,4,4)" 
d="M 12.7 -47.3
Q 14.9,-43.0,15.4,-43.0
Q 16.8,-43.0,13.7,-48.9
Q 10.8,-54.3,10.3,-53.4
Q 10.0,-52.8,12.7,-47.3
 " /> 
<path  
style="fill:rgb(4,4,4)" 
d="M -1.2 -44.4
Q -1.4,-43.4,-0.8,-43.4
Q -0.2,-43.4,1.3,-46.2
Q 2.8,-48.9,4.1,-50.7
Q 5.5,-52.4,5.7,-53.4
Q 6.2,-56.2,3.3,-52.2
Q -0.7,-46.7,-1.2,-44.4
 " /> 
<path  
style="fill:rgb(4,4,4)" 
d="M 23.6 -58.5
Q 24.0,-58.2,24.4,-57.8
Q 25.3,-57.2,26.0,-56.3
Q 26.3,-55.8,26.7,-55.4
Q 27.6,-54.9,28.4,-54.3
Q 38.6,-48.0,54.2,-60.3
Q 54.6,-60.7,54.9,-61.2
Q 55.6,-62.1,56.5,-62.7
Q 56.9,-63.1,57.3,-63.4
Q 63.6,-70.7,65.7,-78.5
Q 66.6,-81.7,67.1,-86.5
Q 67.1,-89.4,67.1,-92.3
Q 67.0,-93.4,66.9,-94.5
Q 65.7,-106.3,57.3,-116.3
Q 56.9,-116.6,56.5,-117.0
Q 55.6,-117.7,55.1,-118.3
Q 54.9,-118.6,54.7,-119.0
Q 52.0,-121.2,49.8,-121.8
Q 35.7,-125.9,20.9,-84.7
Q 18.6,-78.3,17.7,-76.3
Q 16.8,-74.3,16.4,-72.7
Q 16.1,-71.2,15.1,-68.8
Q 13.6,-64.9,14.5,-64.5
Q 15.2,-64.2,16.9,-68.5
Q 17.1,-69.2,17.4,-69.8
Q 20.6,-63.0,22.1,-60.7
Q 22.8,-59.6,23.6,-58.5
 " /> 
<path  
style="fill:rgb(31,181,0)" 
d="M 37.8 -55.0
Q 36.4,-55.0,35.1,-55.0
Q 36.4,-54.5,37.1,-54.7
Q 37.4,-54.8,37.8,-55.0
 " /> 
<path  
style="fill:rgb(115,250,3)" 
d="M 37.8 -55.0
Q 38.9,-55.2,40.0,-55.4
Q 43.1,-56.0,48.0,-59.1
Q 49.3,-59.9,50.7,-60.7
Q 50.9,-61.1,51.1,-61.4
Q 51.6,-62.0,52.9,-63.0
Q 54.2,-63.9,55.1,-65.2
Q 55.3,-65.5,55.6,-65.8
Q 56.0,-66.5,56.7,-66.9
Q 57.0,-67.2,57.3,-67.4
Q 58.0,-68.5,58.7,-69.6
Q 62.7,-76.4,64.4,-86.1
Q 64.4,-89.9,64.4,-93.6
Q 63.7,-93.6,62.9,-93.5
Q 63.6,-86.4,58.8,-76.9
Q 47.4,-54.0,27.0,-65.9
Q 24.9,-67.1,24.9,-69.5
Q 24.9,-71.9,26.2,-73.2
Q 26.9,-73.9,27.6,-74.5
Q 27.0,-74.7,26.6,-74.8
Q 24.6,-75.5,24.5,-76.3
Q 24.4,-78.1,26.4,-76.7
Q 26.8,-76.5,27.1,-76.3
Q 28.9,-76.3,30.7,-76.3
Q 32.4,-77.2,34.7,-78.5
Q 36.0,-80.3,37.1,-81.2
Q 37.7,-81.6,38.2,-82.1
Q 39.5,-83.9,41.3,-86.1
Q 40.9,-86.5,40.5,-87.0
Q 40.3,-86.9,40.1,-86.7
Q 31.7,-79.3,29.3,-81.6
Q 26.4,-84.6,34.5,-96.7
Q 36.4,-99.6,36.0,-100.1
Q 35.6,-100.5,37.4,-103.6
Q 40.5,-108.9,42.5,-109.7
Q 43.5,-110.0,43.8,-110.9
Q 44.1,-111.9,44.5,-111.9
Q 44.9,-111.9,44.9,-111.1
Q 44.9,-110.3,46.3,-109.6
Q 47.7,-108.9,49.8,-104.8
Q 53.3,-98.1,51.8,-95.2
Q 51.1,-93.7,47.6,-91.9
Q 45.4,-90.8,43.0,-89.0
Q 43.3,-88.7,43.6,-88.3
Q 45.7,-89.4,46.9,-89.7
Q 49.9,-90.6,52.8,-85.6
Q 54.6,-82.8,55.1,-82.9
Q 55.6,-83.0,56.0,-85.4
Q 56.2,-86.6,56.4,-87.9
Q 56.4,-90.7,56.4,-93.6
Q 55.7,-98.0,54.4,-101.5
Q 53.6,-103.6,52.7,-105.4
Q 51.5,-107.6,52.0,-108.1
Q 52.5,-108.5,53.1,-107.7
Q 53.8,-107.0,56.0,-102.1
Q 56.8,-101.7,57.0,-102.2
Q 57.1,-102.6,58.4,-102.4
Q 59.7,-102.2,61.3,-99.2
Q 62.6,-96.6,62.9,-93.5
Q 63.7,-93.6,64.4,-93.6
Q 64.0,-95.6,63.6,-97.6
Q 61.9,-105.0,57.2,-112.2
Q 46.7,-128.4,36.0,-111.2
Q 34.3,-108.5,30.2,-101.2
Q 29.3,-99.4,28.4,-98.1
Q 27.6,-96.1,26.7,-94.1
Q 23.3,-86.4,20.1,-77.2
Q 19.0,-73.8,20.7,-70.0
Q 22.3,-66.1,24.9,-61.2
Q 27.1,-59.4,28.9,-57.2
Q 29.8,-56.7,30.6,-56.3
Q 32.4,-55.4,35.1,-55.0
Q 36.4,-55.0,37.8,-55.0
 " /> 
<path  
style="fill:rgb(31,181,0)" 
d="M 24.9 -61.2
Q 25.3,-60.6,25.8,-60.1
Q 26.7,-59.0,27.8,-58.1
Q 28.3,-57.6,28.9,-57.2
Q 27.1,-59.4,24.9,-61.2
 " /> 
<path  
style="fill:rgb(31,181,0)" 
d="M 28.4 -98.1
Q 29.3,-99.4,30.2,-101.2
Q 28.9,-99.9,28.7,-99.0
Q 28.6,-98.5,28.4,-98.1
 " /> 
<path  
style="fill:rgb(31,181,0)" 
d="M 64.4 -93.6
Q 64.4,-89.9,64.4,-86.1
Q 64.6,-87.1,64.7,-88.1
Q 64.9,-90.1,64.4,-93.6
 " /> 
<path  
style="fill:rgb(31,181,0)" 
d="M 57.3 -67.4
Q 57.0,-67.2,56.7,-66.9
Q 56.0,-66.5,55.6,-65.8
Q 55.3,-65.5,55.1,-65.2
Q 56.4,-66.1,56.9,-66.8
Q 57.1,-67.1,57.3,-67.4
 " /> 
<path  
style="fill:rgb(31,181,0)" 
d="M 52.9 -63.0
Q 51.6,-62.0,51.1,-61.4
Q 50.9,-61.1,50.7,-60.7
Q 51.0,-61.0,51.3,-61.2
Q 52.0,-61.7,52.9,-63.0
 " /> 
<path  
style="fill:rgb(115,250,3)" 
d="M 44.4 -86.5
Q 44.9,-86.0,45.3,-85.4
Q 45.3,-85.4,45.3,-85.4
Q 48.3,-85.9,50.5,-82.4
Q 53.2,-78.2,54.3,-78.7
Q 54.7,-79.0,54.2,-79.6
Q 54.0,-80.0,53.8,-80.3
Q 53.2,-81.1,52.6,-81.8
Q 51.5,-83.4,50.6,-85.2
Q 49.7,-87.0,48.6,-87.4
Q 47.6,-87.9,44.4,-86.5
 " /> 
<path  
style="fill:rgb(115,250,3)" 
d="M 44.4 -86.5
Q 44.2,-86.2,44.0,-85.8
Q 43.5,-85.1,45.3,-85.4
Q 44.9,-86.0,44.4,-86.5
 " /> 
<path  
style="fill:rgb(31,181,0)" 
d="M 44.4 -86.5
Q 41.7,-83.3,39.4,-80.9
Q 36.2,-77.7,33.7,-76.1
Q 32.5,-75.0,30.3,-74.6
Q 30.3,-74.6,29.5,-74.5
Q 28.5,-74.5,27.6,-74.5
Q 26.9,-73.9,26.2,-73.2
Q 24.9,-71.9,24.9,-69.5
Q 24.9,-67.1,27.0,-65.9
Q 47.4,-54.0,58.8,-76.9
Q 63.6,-86.4,62.9,-93.5
Q 62.6,-96.6,61.3,-99.2
Q 59.7,-102.2,58.4,-102.4
Q 57.1,-102.6,57.0,-102.2
Q 56.8,-101.7,56.0,-102.1
Q 56.4,-101.1,56.9,-100.1
Q 59.0,-95.2,58.5,-88.1
Q 57.9,-78.9,54.5,-80.0
Q 54.2,-80.2,53.8,-80.3
Q 54.0,-80.0,54.2,-79.6
Q 54.7,-79.0,54.3,-78.7
Q 53.2,-78.2,50.5,-82.4
Q 48.3,-85.9,45.3,-85.4
Q 45.3,-85.4,45.3,-85.4
Q 43.5,-85.1,44.0,-85.8
Q 44.2,-86.2,44.4,-86.5
 " /> 
<path  
style="fill:rgb(4,4,4)" 
d="M 44.4 -86.5
Q 47.6,-87.9,48.6,-87.4
Q 49.7,-87.0,50.6,-85.2
Q 51.5,-83.4,52.6,-81.8
Q 53.2,-81.1,53.8,-80.3
Q 54.2,-80.2,54.5,-80.0
Q 57.9,-78.9,58.5,-88.1
Q 59.0,-95.2,56.9,-100.1
Q 56.4,-101.1,56.0,-102.1
Q 55.2,-101.8,54.4,-101.5
Q 55.7,-98.0,56.4,-93.6
Q 56.6,-92.9,56.7,-92.1
Q 56.9,-90.5,56.4,-87.9
Q 56.2,-86.6,56.0,-85.4
Q 55.6,-83.0,55.1,-82.9
Q 54.6,-82.8,52.8,-85.6
Q 49.9,-90.6,46.9,-89.7
Q 45.7,-89.4,43.6,-88.3
Q 43.3,-88.0,43.1,-87.7
Q 42.6,-87.0,42.0,-86.6
Q 41.6,-86.3,41.3,-86.1
Q 39.5,-83.9,38.2,-82.1
Q 38.8,-81.5,39.4,-80.9
Q 41.7,-83.3,44.4,-86.5
 " /> 
<path  
style="fill:rgb(4,4,4)" 
d="M 27.6 -74.5
Q 27.7,-75.3,27.9,-76.1
Q 27.5,-76.2,27.1,-76.3
Q 26.9,-75.6,26.6,-74.8
Q 27.0,-74.7,27.6,-74.5
 " /> 
<path  
style="fill:rgb(4,4,4)" 
d="M 27.6 -74.5
Q 28.5,-74.5,29.5,-74.5
Q 30.3,-74.6,31.1,-74.8
Q 30.9,-75.6,30.7,-76.3
Q 30.2,-76.2,29.8,-76.1
Q 29.1,-75.9,27.9,-76.1
Q 27.7,-75.3,27.6,-74.5
 " /> 
<path  
style="fill:rgb(4,4,4)" 
d="M 56.0 -102.1
Q 53.8,-107.0,53.1,-107.7
Q 52.5,-108.5,52.0,-108.1
Q 51.5,-107.6,52.7,-105.4
Q 53.6,-103.6,54.4,-101.5
Q 55.2,-101.8,56.0,-102.1
 " /> 
<path  
style="fill:rgb(4,4,4)" 
d="M 27.1 -76.3
Q 26.8,-76.5,26.4,-76.7
Q 24.4,-78.1,24.5,-76.3
Q 24.6,-75.5,26.6,-74.8
Q 26.9,-75.6,27.1,-76.3
 " /> 
<path  
style="fill:rgb(31,181,0)" 
d="M 27.1 -76.3
Q 27.5,-76.2,27.9,-76.1
Q 29.1,-75.9,29.8,-76.1
Q 30.2,-76.2,30.7,-76.3
Q 28.9,-76.3,27.1,-76.3
 " /> 
<path  
style="fill:rgb(4,4,4)" 
d="M 30.7 -76.3
Q 30.9,-75.6,31.1,-74.8
Q 33.5,-75.6,36.7,-78.4
Q 35.1,-78.0,34.7,-78.5
Q 32.4,-77.2,30.7,-76.3
 " /> 
<path  
style="fill:rgb(31,181,0)" 
d="M 34.7 -78.5
Q 35.1,-78.9,35.5,-79.2
Q 36.4,-79.9,37.3,-81.0
Q 37.8,-81.5,38.2,-82.1
Q 37.7,-81.6,37.1,-81.2
Q 36.0,-80.3,34.7,-78.5
 " /> 
<path  
style="fill:rgb(4,4,4)" 
d="M 34.7 -78.5
Q 35.1,-78.0,35.5,-77.4
Q 38.3,-79.6,41.8,-83.4
Q 38.8,-81.5,38.2,-82.1
Q 37.8,-81.5,37.3,-81.0
Q 36.4,-79.9,35.5,-79.2
Q 35.1,-78.9,34.7,-78.5
 " /> 
<path  
style="fill:rgb(115,250,3)" 
d="M 41.3 -86.1
Q 42.2,-87.4,43.6,-88.3
Q 43.3,-88.7,43.0,-89.0
Q 41.7,-88.0,40.3,-86.8
Q 40.9,-86.5,41.3,-86.1
 " /> 
<path  
style="fill:rgb(31,181,0)" 
d="M 41.3 -86.1
Q 41.6,-86.3,42.0,-86.6
Q 42.6,-87.0,43.1,-87.7
Q 43.3,-88.0,43.6,-88.3
Q 42.2,-87.4,41.3,-86.1
 " /> 
<path  
style="fill:rgb(31,181,0)" 
d="M 56.4 -87.9
Q 56.9,-90.5,56.7,-92.1
Q 56.6,-92.9,56.4,-93.6
Q 56.4,-90.7,56.4,-87.9
 " /> 
<path  
style="fill:rgb(209,251,185)" 
d="M 29.3 -81.6
Q 31.7,-79.3,40.1,-86.7
Q 40.3,-86.9,40.5,-87.0
Q 41.9,-88.2,43.3,-89.2
Q 45.4,-90.8,47.6,-91.9
Q 51.1,-93.7,51.8,-95.2
Q 53.3,-98.1,49.8,-104.8
Q 47.7,-108.9,46.3,-109.6
Q 44.9,-110.3,44.9,-111.1
Q 44.9,-111.9,44.5,-111.9
Q 44.1,-111.9,43.8,-110.9
Q 43.5,-110.0,42.5,-109.7
Q 40.5,-108.9,37.4,-103.6
Q 35.6,-100.5,36.0,-100.1
Q 36.4,-99.6,34.5,-96.7
Q 26.4,-84.6,29.3,-81.6
 " /> 
<path  
style="fill:rgb(7,193,201)" 
d="M 23.6 -58.5
Q 23.9,-58.1,24.2,-57.6
Q 24.9,-56.8,25.8,-56.1
Q 26.2,-55.8,26.7,-55.4
Q 26.3,-55.8,26.0,-56.3
Q 25.3,-57.2,24.4,-57.8
Q 24.0,-58.2,23.6,-58.5
 " /> 
<path  
style="fill:rgb(14,103,171)" 
d="M 54.7 -119.0
Q 54.9,-118.6,55.1,-118.3
Q 55.6,-117.7,56.5,-117.0
Q 56.9,-116.6,57.3,-116.3
Q 57.0,-116.7,56.6,-117.2
Q 56.0,-118.1,55.3,-118.5
Q 55.0,-118.7,54.7,-119.0
 " /> 
<path  
style="fill:rgb(7,193,201)" 
d="M 67.1 -92.3
Q 67.1,-89.4,67.1,-86.5
Q 67.2,-87.3,67.3,-88.1
Q 67.6,-89.6,67.1,-92.3
 " /> 
<path  
style="fill:rgb(7,193,201)" 
d="M 57.3 -63.4
Q 56.9,-63.1,56.5,-62.7
Q 55.6,-62.1,54.9,-61.2
Q 54.6,-60.7,54.2,-60.3
Q 54.7,-60.6,55.1,-61.0
Q 56.0,-61.7,57.3,-63.4
 " /> 
<path  
style="fill:rgb(7,193,201)" 
d="M -18.2 -55.4
Q -19.6,-55.4,-20.9,-55.4
Q -19.6,-54.9,-18.2,-55.4
 " /> 
<path  
style="fill:rgb(4,4,4)" 
d="M -18.2 -55.4
Q -17.3,-55.5,-16.4,-55.6
Q -12.1,-56.2,-7.5,-60.7
Q -4.6,-63.7,-1.6,-69.4
Q -1.3,-67.7,-0.9,-66.1
Q 0.2,-61.3,1.2,-62.7
Q 1.5,-63.1,0.0,-71.4
Q -8.4,-117.7,-26.9,-126.5
Q -37.0,-131.4,-44.6,-123.6
Q -51.8,-116.4,-52.0,-105.2
Q -52.0,-103.9,-52.0,-102.5
Q -52.0,-99.1,-52.1,-98.7
Q -52.1,-98.2,-52.4,-98.1
Q -52.1,-95.5,-51.8,-93.0
Q -50.0,-79.2,-39.6,-66.1
Q -39.1,-65.7,-38.7,-65.4
Q -37.8,-64.7,-36.9,-63.4
Q -35.6,-62.3,-34.2,-61.2
Q -28.3,-56.2,-20.9,-55.4
Q -19.6,-55.4,-18.2,-55.4
 " /> 
<path  
style="fill:rgb(115,250,3)" 
d="M -39.1 -68.7
Q -38.3,-68.1,-37.6,-67.4
Q -36.0,-66.1,-34.9,-64.7
Q -34.3,-64.1,-33.8,-63.4
Q -28.9,-60.3,-26.3,-59.2
Q -18.1,-55.7,-11.6,-60.6
Q -8.9,-62.6,-5.3,-67.9
Q -4.4,-69.6,-4.0,-70.3
Q -3.8,-70.6,-3.6,-71.0
Q -3.3,-72.0,-3.1,-73.0
Q -2.7,-75.0,-4.0,-81.1
Q -11.3,-113.3,-25.0,-122.6
Q -37.4,-131.0,-45.5,-119.3
Q -48.6,-114.8,-49.5,-108.8
Q -49.6,-107.9,-49.8,-107.0
Q -49.8,-103.1,-49.8,-102.7
Q -49.9,-102.2,-50.2,-102.1
Q -50.2,-99.6,-50.2,-97.2
Q -49.7,-97.3,-49.8,-95.9
Q -49.8,-95.9,-49.8,-95.9
Q -49.8,-95.2,-49.8,-94.5
Q -47.8,-83.7,-44.4,-77.1
Q -43.1,-74.5,-39.1,-68.7
 " /> 
<path  
style="fill:rgb(4,4,4)" 
d="M -43.1 -105.2
Q -43.0,-103.7,-42.9,-102.4
Q -42.1,-102.4,-41.3,-102.5
Q -41.2,-104.1,-41.1,-105.6
Q -40.7,-111.0,-38.7,-114.2
Q -37.3,-116.3,-38.1,-116.6
Q -38.8,-116.9,-39.8,-115.8
Q -42.5,-112.7,-43.1,-105.2
 " /> 
<path  
style="fill:rgb(31,181,0)" 
d="M -43.1 -105.2
Q -45.9,-104.5,-46.0,-100.6
Q -46.3,-96.7,-44.0,-88.5
Q -38.9,-69.8,-29.2,-64.5
Q -20.0,-59.5,-10.1,-68.7
Q -6.7,-71.9,-7.6,-74.9
Q -7.8,-75.6,-8.0,-76.3
Q -12.0,-76.7,-13.7,-77.8
Q -15.4,-78.8,-17.5,-80.8
Q -19.7,-82.7,-21.0,-83.5
Q -23.5,-85.2,-26.6,-83.8
Q -28.5,-82.8,-30.8,-80.6
Q -32.8,-78.5,-34.5,-79.2
Q -41.1,-82.0,-42.9,-102.4
Q -43.0,-103.7,-43.1,-105.2
 " /> 
<path  
style="fill:rgb(4,4,4)" 
d="M -8.0 -76.3
Q -7.1,-76.3,-7.1,-76.9
Q -7.1,-77.5,-8.7,-77.8
Q -10.2,-78.0,-12.2,-79.2
Q -13.2,-79.7,-14.2,-80.3
Q -14.8,-80.8,-15.3,-81.2
Q -16.4,-82.1,-18.2,-84.3
Q -19.3,-85.3,-20.4,-86.3
Q -23.8,-89.3,-26.3,-88.3
Q -27.7,-87.8,-32.1,-82.2
Q -36.3,-76.8,-40.1,-96.2
Q -40.5,-98.0,-40.9,-99.9
Q -41.0,-99.8,-41.1,-99.8
Q -41.4,-99.7,-41.3,-102.5
Q -42.1,-102.4,-42.9,-102.4
Q -41.1,-82.0,-34.5,-79.2
Q -32.8,-78.5,-30.8,-80.6
Q -28.5,-82.8,-26.6,-83.8
Q -26.7,-84.1,-26.9,-84.4
Q -27.3,-84.3,-27.7,-84.2
Q -27.4,-84.6,-27.1,-85.0
Q -25.5,-86.9,-23.5,-85.8
Q -22.7,-85.4,-22.0,-85.1
Q -22.2,-85.0,-22.5,-84.9
Q -22.9,-84.8,-24.0,-84.8
Q -24.9,-84.8,-26.9,-84.4
Q -26.7,-84.1,-26.6,-83.8
Q -23.5,-85.2,-21.0,-83.5
Q -19.7,-82.7,-17.5,-80.8
Q -15.4,-78.8,-13.7,-77.8
Q -12.0,-76.7,-8.0,-76.3
 " /> 
<path  
style="fill:rgb(31,181,0)" 
d="M -41.3 -102.5
Q -41.4,-99.7,-41.1,-99.8
Q -41.0,-99.8,-40.9,-99.9
Q -40.9,-102.2,-40.9,-102.4
Q -41.0,-102.7,-41.3,-102.5
 " /> 
<path  
style="fill:rgb(31,181,0)" 
d="M -18.2 -84.3
Q -16.4,-82.1,-15.3,-81.2
Q -14.8,-80.8,-14.2,-80.3
Q -16.0,-82.5,-18.2,-84.3
 " /> 
<path  
style="fill:rgb(209,251,185)" 
d="M -12.7 -85.2
Q -10.4,-83.9,-10.1,-84.3
Q -9.7,-84.6,-12.4,-90.2
Q -22.8,-112.3,-29.0,-109.2
Q -33.8,-106.8,-33.8,-101.0
Q -33.8,-94.1,-24.7,-91.4
Q -20.2,-90.0,-17.6,-88.2
Q -14.9,-86.4,-12.7,-85.2
 " /> 
<path  
style="fill:rgb(255,255,255)" 
d="M -27.1 -85.0
Q -27.0,-84.7,-26.9,-84.4
Q -24.9,-84.8,-24.0,-84.8
Q -22.9,-84.8,-22.5,-84.9
Q -22.2,-85.0,-22.0,-85.1
Q -22.7,-85.4,-23.5,-85.8
Q -25.5,-86.9,-27.1,-85.0
 " /> 
<path  
style="fill:rgb(255,255,255)" 
d="M -27.1 -85.0
Q -27.4,-84.6,-27.7,-84.2
Q -27.3,-84.3,-26.9,-84.4
Q -27.0,-84.7,-27.1,-85.0
 " /> 
<path  
style="fill:rgb(31,181,0)" 
d="M -39.1 -68.7
Q -36.4,-65.7,-35.1,-64.5
Q -34.4,-64.0,-33.8,-63.4
Q -34.3,-64.1,-34.9,-64.7
Q -36.0,-66.1,-37.6,-67.4
Q -38.3,-68.1,-39.1,-68.7
 " /> 
<path  
style="fill:rgb(31,181,0)" 
d="M -49.8 -94.5
Q -49.8,-95.2,-49.8,-95.9
Q -50.0,-96.6,-50.2,-97.2
Q -50.2,-94.3,-50.0,-94.4
Q -49.9,-94.5,-49.8,-94.5
 " /> 
<path  
style="fill:rgb(31,181,0)" 
d="M -50.2 -97.2
Q -50.0,-96.6,-49.8,-95.9
Q -49.8,-95.9,-49.8,-95.9
Q -49.7,-97.3,-50.2,-97.2
 " /> 
<path  
style="fill:rgb(31,181,0)" 
d="M -50.2 -102.1
Q -49.9,-102.2,-49.8,-102.7
Q -49.8,-103.1,-49.8,-107.0
Q -50.1,-106.9,-50.1,-106.4
Q -50.2,-106.0,-50.2,-102.1
 " /> 
<path  
style="fill:rgb(31,181,0)" 
d="M -3.6 -71.0
Q -3.8,-70.6,-4.0,-70.3
Q -4.4,-69.6,-5.3,-67.9
Q -4.0,-69.2,-3.6,-71.0
 " /> 
<path  
style="fill:rgb(14,103,171)" 
d="M -39.6 -66.1
Q -39.2,-65.6,-38.9,-65.2
Q -38.2,-64.3,-36.9,-63.4
Q -37.8,-64.7,-38.7,-65.4
Q -39.1,-65.7,-39.6,-66.1
 " /> 
<path  
style="fill:rgb(14,103,171)" 
d="M -52.4 -98.1
Q -52.1,-98.2,-52.1,-98.7
Q -52.0,-99.1,-52.0,-102.5
Q -52.2,-102.5,-52.4,-102.5
Q -52.4,-100.3,-52.4,-98.1
 " /> 
<path  
style="fill:rgb(7,193,201)" 
d="M -52.0 -102.5
Q -52.0,-103.9,-52.0,-105.2
Q -52.1,-105.2,-52.2,-105.1
Q -52.4,-105.0,-52.4,-102.5
Q -52.2,-102.5,-52.0,-102.5
 " /> 
<path  
style="fill:rgb(7,193,201)" 
d="M -46.2 -24.7
Q -46.5,-24.5,-46.9,-24.3
Q -47.5,-23.8,-48.4,-22.5
Q -47.1,-23.5,-46.2,-24.7
 " /> 
<path  
style="fill:rgb(7,193,201)" 
d="M -68.9 -87.0
Q -68.8,-90.1,-68.9,-90.4
Q -69.0,-90.6,-69.3,-90.5
Q -69.3,-87.3,-69.3,-87.1
Q -69.2,-86.8,-68.9,-87.0
 " /> 
<path  
style="fill:rgb(7,193,201)" 
d="M -69.3 -98.5
Q -68.9,-98.7,-68.9,-100.4
Q -68.9,-101.2,-68.9,-102.1
Q -69.0,-102.0,-69.1,-102.0
Q -69.3,-101.9,-69.3,-100.2
Q -69.3,-99.4,-69.3,-98.5
 " /> 
<path  
style="fill:rgb(4,4,4)" 
d="M -52.9 -140.3
Q -52.6,-140.7,-52.3,-141.1
Q -51.6,-141.9,-51.2,-142.2
Q -50.9,-142.4,-50.7,-142.5
Q -51.2,-143.0,-51.7,-143.5
Q -53.4,-141.6,-55.8,-139.5
Q -53.4,-140.8,-52.9,-140.3
 " /> 
<path  
style="fill:rgb(14,103,171)" 
d="M -52.9 -140.3
Q -52.6,-140.5,-52.2,-140.8
Q -51.6,-141.2,-51.1,-141.9
Q -50.9,-142.2,-50.7,-142.5
Q -50.9,-142.4,-51.2,-142.2
Q -51.6,-141.9,-52.3,-141.1
Q -52.6,-140.7,-52.9,-140.3
 " /> 
<path  
style="fill:rgb(7,193,201)" 
d="M 24.9 -161.6
Q 26.0,-161.6,27.1,-161.6
Q 25.8,-162.1,24.9,-161.6
 " /> 
<path  
style="fill:rgb(7,193,201)" 
d="M 76.9 -91.4
Q 76.9,-89.2,76.9,-88.9
Q 77.0,-88.7,77.3,-88.7
Q 77.3,-91.0,77.3,-91.3
Q 77.2,-91.5,76.9,-91.4
 " /> 
<path  
style="fill:rgb(7,193,201)" 
d="M 77.8 -78.5
Q 77.7,-78.5,77.6,-78.5
Q 77.3,-78.4,77.3,-74.1
Q 77.7,-74.2,77.8,-76.4
Q 77.8,-77.4,77.8,-78.5
 " /> 
<path  
style="fill:rgb(14,103,171)" 
d="M 56.4 -27.4
Q 56.4,-26.3,56.4,-25.2
Q 56.6,-25.5,56.7,-25.9
Q 56.9,-26.5,56.4,-27.4
 " /> 
<path  
style="fill:rgb(14,103,171)" 
d="M 56.4 -24.3
Q 56.4,-23.2,56.4,-22.1
Q 56.9,-23.4,56.4,-24.3
 " /> 
<path  
style="fill:rgb(14,103,171)" 
d="M 12.4 -10.1
Q 11.3,-10.1,10.2,-10.1
Q 10.5,-9.9,10.9,-9.8
Q 11.5,-9.6,12.4,-10.1
 " /> 
<path  
style="fill:rgb(14,103,171)" 
d="M 4.4 -9.6
Q 2.2,-9.6,0.0,-9.6
Q 0.6,-9.5,1.1,-9.4
Q 2.2,-9.2,4.4,-9.6
 " /> 
<path  
style="fill:rgb(4,4,4)" 
d="M 5.3 -148.7
Q 4.3,-147.7,3.1,-148.3
Q 1.8,-148.3,0.4,-148.3
Q 0.4,-147.6,0.4,-146.9
Q 2.1,-146.9,3.4,-146.7
Q 5.0,-146.6,6.3,-147.6
Q 5.8,-148.2,5.3,-148.7
 " /> 
<path  
style="fill:rgb(14,103,171)" 
d="M 5.3 -148.7
Q 4.8,-148.4,3.1,-148.3
Q 4.3,-147.7,5.3,-148.7
 " /> 
<path  
style="fill:rgb(7,193,201)" 
d="M 5.3 -148.7
Q 7.1,-151.9,8.9,-154.1
Q 9.5,-154.7,10.0,-155.4
Q 11.1,-156.7,12.2,-157.6
Q 12.8,-158.1,13.3,-158.5
Q 17.8,-161.6,19.1,-163.8
Q 20.4,-165.9,21.5,-168.8
Q 22.6,-171.7,23.8,-174.7
Q 26.8,-182.7,27.3,-187.4
Q 27.5,-188.9,27.6,-190.3
Q 23.1,-185.2,18.7,-174.3
Q 16.4,-168.6,15.7,-170.2
Q 15.3,-171.3,18.0,-177.4
Q 20.5,-183.2,16.3,-185.5
Q 14.3,-186.7,13.1,-185.7
Q 12.7,-185.4,11.0,-180.1
Q 9.1,-174.1,8.2,-174.2
Q 7.2,-174.4,9.1,-180.3
Q 10.6,-184.9,10.0,-185.3
Q 8.2,-186.3,10.3,-187.3
Q 11.7,-187.9,13.5,-197.3
Q 14.2,-200.8,13.5,-202.7
Q 13.0,-201.4,12.5,-200.1
Q 10.2,-193.9,8.6,-186.7
Q 7.9,-183.5,7.3,-183.2
Q 5.6,-182.6,6.8,-186.9
Q 9.4,-196.3,5.0,-201.6
Q 3.3,-203.6,3.0,-202.8
Q 2.9,-202.5,2.7,-198.5
Q 2.8,-198.6,2.9,-198.6
Q 3.0,-198.6,3.1,-198.4
Q 3.2,-198.1,3.1,-191.0
Q 3.1,-190.3,3.1,-189.6
Q 3.1,-187.8,3.2,-186.0
Q 3.3,-182.4,2.2,-181.6
Q 1.5,-181.9,1.3,-182.3
Q 1.2,-182.7,1.3,-195.0
Q 1.2,-194.9,1.1,-194.9
Q 0.8,-194.8,0.9,-197.6
Q 0.9,-199.4,0.9,-201.2
Q 0.5,-201.1,0.4,-201.3
Q 0.4,-201.6,0.4,-202.4
Q 0.4,-202.4,0.4,-202.4
Q 0.4,-203.2,0.4,-203.9
Q 0.3,-205.3,0.2,-206.7
Q -0.0,-210.3,-1.4,-217.0
Q -2.6,-223.1,-4.0,-221.3
Q -5.2,-219.8,-5.5,-214.3
Q -5.7,-212.4,-5.8,-210.5
Q -5.8,-209.2,-5.8,-207.9
Q -5.8,-207.4,-5.8,-207.0
Q -5.8,-204.7,-5.8,-202.5
Q -5.8,-200.1,-5.8,-197.6
Q -5.3,-197.8,-5.3,-195.9
Q -5.3,-195.0,-5.3,-194.1
Q -5.3,-192.7,-5.3,-191.4
Q -5.2,-191.4,-5.1,-191.5
Q -4.8,-191.6,-4.9,-189.3
Q -4.9,-188.1,-4.9,-187.0
Q -4.8,-186.3,-4.8,-185.7
Q -4.7,-184.4,-5.8,-183.9
Q -6.0,-183.9,-6.3,-184.0
Q -6.8,-184.2,-6.7,-185.6
Q -6.7,-186.3,-6.7,-187.0
Q -6.7,-188.1,-6.7,-189.2
Q -6.8,-189.2,-6.9,-189.1
Q -7.0,-189.1,-7.1,-189.3
Q -7.2,-189.6,-7.1,-192.3
Q -7.1,-193.6,-7.1,-195.0
Q -7.2,-194.9,-7.4,-194.9
Q -7.6,-194.8,-7.6,-196.2
Q -7.6,-196.2,-7.6,-196.2
Q -7.6,-196.9,-7.6,-197.6
Q -7.6,-200.5,-7.6,-203.4
Q -8.8,-202.9,-9.3,-202.5
Q -9.5,-202.3,-9.8,-202.1
Q -9.9,-201.7,-10.0,-201.4
Q -10.2,-200.7,-10.7,-199.4
Q -10.7,-197.2,-10.7,-195.0
Q -10.6,-194.3,-10.4,-193.6
Q -10.2,-192.3,-9.3,-189.1
Q -7.9,-184.1,-8.2,-183.7
Q -9.2,-181.9,-10.8,-187.7
Q -12.0,-191.9,-13.9,-197.5
Q -14.8,-200.3,-15.7,-203.1
Q -16.1,-199.8,-15.6,-197.3
Q -15.1,-194.8,-14.7,-192.5
Q -13.2,-184.1,-11.3,-176.8
Q -9.5,-169.6,-11.4,-171.5
Q -12.1,-172.2,-13.8,-179.6
Q -14.3,-181.8,-14.9,-184.1
Q -15.5,-186.3,-15.7,-187.9
Q -16.2,-190.9,-18.6,-189.6
Q -21.6,-187.9,-20.6,-185.2
Q -20.1,-184.0,-18.0,-180.4
Q -15.8,-176.8,-13.9,-173.2
Q -13.0,-171.4,-12.0,-169.6
Q -10.8,-168.5,-11.4,-168.2
Q -11.7,-168.0,-12.0,-167.9
Q -12.6,-168.2,-13.1,-168.8
Q -13.1,-168.9,-13.2,-168.9
Q -19.4,-177.4,-26.5,-191.6
Q -28.7,-195.9,-30.3,-197.7
Q -32.1,-199.8,-30.2,-188.3
Q -27.4,-171.2,-23.3,-167.5
Q -22.3,-166.5,-20.2,-165.3
Q -11.7,-160.7,-5.7,-150.9
Q -4.4,-148.8,-2.2,-148.7
Q -1.5,-148.8,-0.8,-148.8
Q -0.8,-148.8,-0.8,-148.8
Q 0.6,-148.8,0.4,-148.3
Q 1.8,-148.3,3.1,-148.3
Q 4.8,-148.4,5.3,-148.7
 " /> 
<path  
style="fill:rgb(14,103,171)" 
d="M -2.2 -148.7
Q -2.3,-148.4,-2.1,-148.3
Q -1.8,-148.2,0.4,-148.3
Q -0.2,-148.5,-0.8,-148.8
Q -1.5,-148.8,-2.2,-148.7
 " /> 
<path  
style="fill:rgb(14,103,171)" 
d="M 0.4 -148.3
Q 0.6,-148.8,-0.8,-148.8
Q -0.8,-148.8,-0.8,-148.8
Q -0.2,-148.5,0.4,-148.3
 " /> 
<path  
style="fill:rgb(4,4,4)" 
d="M -12.0 -167.9
Q -11.9,-168.1,-11.7,-168.3
Q -11.4,-168.8,-11.7,-169.2
Q -11.9,-169.4,-12.0,-169.6
Q -12.5,-169.2,-13.1,-168.8
Q -12.6,-168.2,-12.0,-167.9
 " /> 
<path  
style="fill:rgb(14,103,171)" 
d="M -12.0 -167.9
Q -11.7,-168.0,-11.4,-168.2
Q -10.8,-168.5,-12.0,-169.6
Q -11.9,-169.4,-11.7,-169.2
Q -11.4,-168.8,-11.7,-168.3
Q -11.9,-168.1,-12.0,-167.9
 " /> 
<path  
style="fill:rgb(14,103,171)" 
d="M -10.7 -195.0
Q -10.7,-197.2,-10.7,-199.4
Q -10.8,-198.9,-10.9,-198.3
Q -11.1,-197.2,-10.7,-195.0
 " /> 
<path  
style="fill:rgb(14,103,171)" 
d="M -9.8 -202.1
Q -9.5,-202.3,-9.3,-202.5
Q -8.8,-202.9,-7.6,-203.4
Q -8.2,-203.8,-9.0,-202.9
Q -9.4,-202.5,-9.8,-202.1
 " /> 
<path  
style="fill:rgb(4,4,4)" 
d="M -7.6 -203.4
Q -7.6,-200.5,-7.6,-197.6
Q -7.2,-197.8,-7.2,-197.6
Q -7.2,-197.5,-7.2,-197.5
Q -6.5,-197.6,-5.8,-197.6
Q -5.8,-200.1,-5.8,-202.5
Q -5.9,-203.1,-6.0,-203.6
Q -6.8,-203.5,-7.6,-203.4
 " /> 
<path  
style="fill:rgb(14,103,171)" 
d="M -7.6 -197.6
Q -7.6,-196.9,-7.6,-196.2
Q -7.3,-195.6,-7.1,-195.0
Q -7.1,-197.1,-7.2,-197.5
Q -7.2,-197.5,-7.2,-197.6
Q -7.2,-197.8,-7.6,-197.6
 " /> 
<path  
style="fill:rgb(4,4,4)" 
d="M -7.1 -195.0
Q -6.4,-195.0,-5.8,-195.0
Q -5.8,-195.9,-5.8,-197.6
Q -6.5,-197.6,-7.2,-197.5
Q -7.1,-197.1,-7.1,-195.0
 " /> 
<path  
style="fill:rgb(4,4,4)" 
d="M -7.1 -195.0
Q -7.1,-193.6,-7.1,-192.3
Q -6.8,-192.5,-6.7,-192.2
Q -6.7,-192.1,-6.7,-191.4
Q -6.0,-191.4,-5.3,-191.4
Q -5.3,-192.7,-5.3,-194.1
Q -5.7,-193.9,-5.7,-194.1
Q -5.7,-194.3,-5.8,-195.0
Q -6.4,-195.0,-7.1,-195.0
 " /> 
<path  
style="fill:rgb(14,103,171)" 
d="M -7.1 -195.0
Q -7.3,-195.6,-7.6,-196.2
Q -7.6,-196.2,-7.6,-196.2
Q -7.6,-194.8,-7.4,-194.9
Q -7.2,-194.9,-7.1,-195.0
 " /> 
<path  
style="fill:rgb(14,103,171)" 
d="M -7.1 -192.3
Q -7.2,-189.6,-7.1,-189.3
Q -7.0,-189.1,-6.9,-189.1
Q -6.8,-189.2,-6.7,-189.2
Q -6.7,-190.6,-6.7,-191.4
Q -6.7,-192.1,-6.7,-192.2
Q -6.8,-192.5,-7.1,-192.3
 " /> 
<path  
style="fill:rgb(4,4,4)" 
d="M -6.7 -189.2
Q -6.0,-189.2,-5.3,-189.2
Q -5.3,-190.1,-5.3,-191.4
Q -6.0,-191.4,-6.7,-191.4
Q -6.7,-190.6,-6.7,-189.2
 " /> 
<path  
style="fill:rgb(4,4,4)" 
d="M -6.7 -189.2
Q -6.7,-188.1,-6.7,-187.0
Q -6.0,-187.0,-5.3,-187.1
Q -5.3,-187.4,-5.3,-189.3
Q -6.0,-189.2,-6.7,-189.2
 " /> 
<path  
style="fill:rgb(4,4,4)" 
d="M -6.7 -187.0
Q -6.3,-185.6,-6.0,-184.7
Q -5.9,-184.3,-5.8,-183.9
Q -4.7,-184.4,-4.8,-185.7
Q -4.8,-186.3,-4.9,-187.0
Q -5.2,-186.8,-5.3,-187.0
Q -5.3,-187.1,-5.3,-187.1
Q -6.0,-187.0,-6.7,-187.0
 " /> 
<path  
style="fill:rgb(14,103,171)" 
d="M -6.7 -187.0
Q -6.7,-186.3,-6.7,-185.6
Q -6.8,-184.2,-6.3,-184.0
Q -6.0,-183.9,-5.8,-183.9
Q -5.9,-184.3,-6.0,-184.7
Q -6.3,-185.6,-6.7,-187.0
 " /> 
<path  
style="fill:rgb(14,103,171)" 
d="M -4.9 -187.0
Q -4.9,-188.1,-4.9,-189.3
Q -4.8,-191.6,-5.1,-191.5
Q -5.2,-191.4,-5.3,-191.4
Q -5.3,-190.1,-5.3,-189.2
Q -5.3,-187.4,-5.3,-187.1
Q -5.3,-187.1,-5.3,-187.0
Q -5.2,-186.8,-4.9,-187.0
 " /> 
<path  
style="fill:rgb(14,103,171)" 
d="M -5.3 -194.1
Q -5.3,-195.0,-5.3,-195.9
Q -5.3,-197.8,-5.8,-197.6
Q -5.8,-195.9,-5.8,-195.0
Q -5.7,-194.3,-5.7,-194.1
Q -5.7,-193.9,-5.3,-194.1
 " /> 
<path  
style="fill:rgb(14,103,171)" 
d="M -5.8 -202.5
Q -5.8,-204.7,-5.8,-207.0
Q -5.9,-206.4,-6.0,-205.9
Q -6.2,-205.0,-6.0,-203.6
Q -5.9,-203.1,-5.8,-202.5
 " /> 
<path  
style="fill:rgb(14,103,171)" 
d="M -5.8 -207.9
Q -5.8,-209.2,-5.8,-210.5
Q -5.9,-210.2,-6.0,-209.9
Q -6.3,-209.2,-5.8,-207.9
 " /> 
<path  
style="fill:rgb(14,103,171)" 
d="M 0.4 -203.9
Q 0.4,-203.2,0.4,-202.4
Q 0.6,-201.8,0.9,-201.2
Q 0.9,-201.9,0.9,-202.6
Q 0.9,-204.1,0.4,-203.9
 " /> 
<path  
style="fill:rgb(14,103,171)" 
d="M 0.9 -201.2
Q 0.6,-201.8,0.4,-202.4
Q 0.4,-202.4,0.4,-202.4
Q 0.4,-201.6,0.4,-201.3
Q 0.5,-201.1,0.9,-201.2
 " /> 
<path  
style="fill:rgb(14,103,171)" 
d="M 0.9 -197.6
Q 0.8,-194.8,1.1,-194.9
Q 1.2,-194.9,1.3,-195.0
Q 1.3,-197.3,1.3,-197.6
Q 1.3,-197.6,1.2,-197.6
Q 1.2,-197.8,0.9,-197.6
 " /> 
<path  
style="fill:rgb(4,4,4)" 
d="M 1.3 -195.0
Q 2.0,-195.0,2.7,-195.0
Q 2.7,-196.7,2.7,-198.5
Q 2.0,-198.1,1.2,-197.6
Q 1.3,-197.6,1.3,-197.6
Q 1.3,-197.3,1.3,-195.0
 " /> 
<path  
style="fill:rgb(4,4,4)" 
d="M 1.3 -195.0
Q 1.2,-182.7,1.3,-182.3
Q 1.5,-181.9,2.2,-181.6
Q 2.3,-182.6,2.4,-183.6
Q 2.7,-185.6,2.9,-187.6
Q 3.0,-188.6,3.1,-189.6
Q 3.1,-190.3,3.1,-191.0
Q 3.0,-190.9,2.9,-190.9
Q 2.7,-190.7,2.7,-194.6
Q 2.7,-194.8,2.7,-195.0
Q 2.0,-195.0,1.3,-195.0
 " /> 
<path  
style="fill:rgb(14,103,171)" 
d="M 2.2 -181.6
Q 3.3,-182.4,3.2,-186.0
Q 3.1,-187.8,3.1,-189.6
Q 3.0,-188.6,2.9,-187.6
Q 2.7,-185.6,2.4,-183.6
Q 2.3,-182.6,2.2,-181.6
 " /> 
<path  
style="fill:rgb(14,103,171)" 
d="M 3.1 -191.0
Q 3.2,-198.1,3.1,-198.4
Q 3.0,-198.6,2.9,-198.6
Q 2.8,-198.6,2.7,-198.5
Q 2.7,-196.7,2.7,-195.0
Q 2.7,-194.8,2.7,-194.6
Q 2.7,-190.7,2.9,-190.9
Q 3.0,-190.9,3.1,-191.0
 " /> 
<path  
style="fill:rgb(14,103,171)" 
d="M 13.3 -158.5
Q 12.8,-158.1,12.2,-157.6
Q 11.1,-156.7,10.0,-155.4
Q 9.5,-154.7,8.9,-154.1
Q 9.5,-154.6,10.2,-155.2
Q 11.5,-156.3,12.4,-157.4
Q 12.9,-158.0,13.3,-158.5
 " /> 
</g> 
</svg> 
