<?xml version="1.0"?>
<!DOCTYPE svg PUBLIC "-//W3C//DTD SVG 1.1//EN" "http://www.w3.org/Graphics/SVG/1.1/DTD/svg11.dtd">
<svg xmlns="http://www.w3.org/2000/svg" version="1.1">
<g transform="translate(113.1,220.2)" stroke-width="0" fill="none" >
<path  
style="fill:rgb(4,4,4)" 
d="M -26.4 220.9
Q -24.6,222.5,-20.6,220.6
Q -18.6,219.6,-10.7,216.7
Q 22.3,204.9,40.4,189.0
Q 60.3,171.6,54.9,150.7
Q 53.1,143.5,44.6,127.0
Q 36.4,110.9,35.3,102.1
Q 35.1,99.9,34.4,96.9
Q 33.8,94.0,33.6,91.6
Q 33.3,89.2,32.8,84.8
Q 35.8,87.5,38.2,88.5
Q 46.0,91.8,51.4,88.7
Q 62.3,82.4,55.8,56.1
Q 52.8,44.3,44.0,29.0
Q 38.1,18.8,34.0,8.3
Q 30.1,-1.5,28.3,-4.0
Q 26.6,-6.4,26.9,-6.5
Q 30.5,-8.0,32.0,-3.4
Q 35.0,6.5,38.5,5.6
Q 41.8,4.7,42.7,-2.7
Q 43.2,-7.0,42.8,-9.4
Q 42.3,-11.7,44.5,-13.9
Q 46.3,-15.7,46.6,-15.8
Q 47.4,-15.9,47.8,-13.7
Q 49.8,-4.1,53.6,-4.4
Q 59.1,-5.0,59.1,-19.6
Q 59.1,-28.7,67.0,-30.4
Q 95.4,-36.5,109.1,-53.1
Q 115.8,-61.2,112.2,-62.8
Q 109.8,-63.9,106.2,-61.5
Q 100.9,-58.0,100.6,-58.3
Q 99.8,-59.1,106.7,-67.9
Q 122.7,-88.5,125.3,-105.1
Q 126.3,-111.3,123.9,-112.8
Q 120.4,-114.8,114.1,-105.6
Q 112.4,-103.0,112.2,-103.2
Q 111.9,-103.4,113.5,-107.5
Q 120.6,-126.4,121.1,-138.0
Q 121.7,-148.9,118.2,-152.1
Q 112.6,-157.2,104.0,-133.5
Q 101.8,-127.4,100.9,-128.7
Q 100.6,-129.3,97.8,-138.4
Q 91.9,-158.2,85.9,-159.9
Q 80.6,-161.3,80.2,-148.6
Q 79.8,-139.6,77.7,-139.7
Q 76.7,-139.8,73.5,-143.3
Q 69.4,-147.7,68.3,-145.4
Q 67.7,-144.4,69.1,-139.1
Q 69.9,-136.3,69.6,-136.0
Q 68.8,-135.3,64.2,-139.7
Q 59.3,-144.4,58.4,-141.1
Q 58.2,-140.1,58.9,-138.6
Q 60.0,-136.0,59.2,-135.2
Q 57.8,-133.9,54.9,-133.9
Q 52.9,-134.0,51.4,-138.4
Q 46.5,-152.1,37.3,-156.8
Q 28.7,-161.2,23.3,-160.0
Q 22.4,-159.8,21.5,-159.6
Q 26.3,-172.5,27.2,-175.5
Q 30.0,-185.5,28.7,-187.8
Q 26.8,-191.5,22.5,-184.3
Q 21.2,-182.4,20.8,-181.1
Q 19.9,-178.8,19.4,-181.0
Q 18.5,-184.4,14.3,-184.4
Q 13.4,-184.4,13.2,-184.6
Q 12.9,-184.9,14.2,-191.0
Q 16.4,-201.5,13.5,-202.0
Q 11.1,-202.4,9.5,-196.8
Q 8.7,-194.1,8.4,-194.1
Q 8.1,-194.1,7.3,-196.0
Q 5.5,-200.0,2.6,-201.3
Q 1.3,-201.9,1.1,-203.5
Q -1.3,-218.9,-5.2,-220.1
Q -9.1,-221.3,-8.9,-206.7
Q -8.9,-201.8,-10.5,-200.6
Q -12.1,-199.3,-13.6,-196.0
Q -15.7,-200.9,-16.7,-201.3
Q -21.1,-203.3,-18.6,-193.9
Q -17.2,-188.3,-19.1,-187.6
Q -20.6,-187.0,-21.9,-185.8
Q -23.4,-184.3,-25.6,-188.6
Q -31.0,-198.9,-33.2,-195.7
Q -35.0,-192.9,-33.0,-183.6
Q -32.5,-181.5,-32.0,-178.8
Q -30.5,-171.1,-27.7,-165.6
Q -27.2,-164.5,-26.7,-163.5
Q -34.6,-163.5,-37.2,-162.1
Q -45.6,-157.6,-48.2,-144.8
Q -48.7,-142.4,-51.9,-138.8
Q -51.3,-138.2,-50.7,-137.7
Q -50.3,-138.1,-49.8,-138.4
Q -49.0,-139.2,-48.4,-139.1
Q -46.8,-138.9,-46.7,-142.8
Q -46.7,-144.1,-45.8,-146.9
Q -43.1,-155.2,-38.8,-158.7
Q -37.3,-159.9,-32.9,-161.2
Q -31.1,-161.7,-30.0,-161.5
Q -29.4,-161.4,-28.9,-161.2
Q -28.1,-161.2,-27.3,-161.2
Q -23.9,-161.2,-15.6,-155.9
Q -15.1,-155.6,-14.7,-155.2
Q -13.8,-154.6,-13.1,-153.7
Q -12.8,-153.2,-12.4,-152.8
Q -8.4,-147.5,-7.6,-145.9
Q -6.7,-144.4,-5.8,-143.7
Q -5.3,-143.4,-4.9,-143.0
Q -4.4,-143.1,-4.0,-143.3
Q -3.1,-143.5,-1.3,-143.0
Q 0.4,-142.9,2.2,-142.9
Q 5.7,-142.7,7.7,-145.8
Q 8.8,-147.3,9.8,-148.8
Q 9.2,-149.3,8.5,-149.8
Q 7.5,-148.5,6.6,-147.2
Q 4.7,-144.3,2.4,-144.6
Q 0.2,-144.8,-2.1,-144.8
Q -4.4,-144.8,-5.7,-147.0
Q -7.1,-149.2,-8.7,-151.2
Q -9.4,-152.2,-10.2,-153.2
Q -12.4,-155.0,-13.5,-156.4
Q -14.1,-157.0,-14.7,-157.7
Q -18.1,-160.5,-20.5,-161.4
Q -25.7,-163.3,-28.7,-174.5
Q -30.4,-180.9,-31.6,-188.8
Q -31.9,-188.6,-31.9,-188.9
Q -32.0,-189.1,-32.0,-191.0
Q -31.9,-191.7,-31.8,-192.3
Q -31.6,-193.6,-31.3,-193.7
Q -30.6,-193.7,-27.0,-186.7
Q -25.4,-183.7,-23.7,-180.8
Q -21.9,-177.9,-19.4,-173.9
Q -13.5,-164.2,-12.0,-163.6
Q -10.0,-162.8,-17.7,-174.8
Q -21.5,-180.8,-21.5,-182.4
Q -21.6,-184.2,-17.0,-186.5
Q -16.4,-184.0,-15.8,-181.5
Q -11.8,-165.3,-10.7,-167.2
Q -10.2,-168.1,-11.5,-172.6
Q -13.3,-178.3,-14.4,-184.1
Q -15.1,-187.2,-15.8,-190.4
Q -16.5,-193.5,-16.8,-196.2
Q -17.0,-197.6,-17.2,-199.0
Q -17.0,-198.8,-16.9,-198.7
Q -15.9,-197.5,-11.5,-184.1
Q -10.1,-179.7,-9.7,-179.3
Q -9.3,-178.8,-8.9,-179.3
Q -8.4,-179.8,-9.3,-183.0
Q -10.2,-186.1,-10.9,-189.0
Q -11.2,-190.5,-11.6,-191.9
Q -12.0,-193.7,-11.6,-195.5
Q -10.6,-198.1,-8.9,-199.5
Q -8.6,-199.6,-8.5,-199.4
Q -8.4,-199.2,-8.4,-198.0
Q -8.4,-197.2,-8.4,-196.4
Q -8.4,-195.2,-8.4,-194.1
Q -8.4,-191.9,-8.2,-191.0
Q -8.1,-190.6,-8.0,-190.1
Q -7.6,-190.3,-7.6,-189.6
Q -6.9,-189.6,-6.2,-189.7
Q -6.2,-190.6,-6.2,-191.5
Q -6.6,-191.3,-6.6,-191.5
Q -6.7,-191.8,-6.7,-193.7
Q -6.8,-198.8,-6.9,-203.9
Q -7.2,-217.7,-5.1,-217.7
Q -3.8,-217.7,-1.8,-208.0
Q -1.3,-205.7,0.0,-194.1
Q 0.3,-194.3,0.4,-194.1
Q 1.1,-194.3,1.8,-194.6
Q 1.7,-199.7,1.9,-199.8
Q 2.1,-199.9,3.2,-198.7
Q 4.3,-197.4,5.3,-195.8
Q 6.2,-194.1,7.1,-190.6
Q 7.6,-189.2,7.3,-188.4
Q 7.2,-187.9,7.1,-187.5
Q 6.3,-183.4,6.0,-181.4
Q 5.7,-179.9,5.9,-179.7
Q 7.1,-177.9,9.4,-189.0
Q 9.8,-191.2,10.7,-194.0
Q 11.1,-195.3,11.6,-196.5
Q 12.2,-197.8,12.9,-199.0
Q 13.0,-198.7,13.1,-198.4
Q 13.4,-197.7,13.1,-196.8
Q 13.0,-196.4,12.9,-195.9
Q 11.0,-184.4,9.8,-183.5
Q 8.9,-182.9,8.9,-182.3
Q 8.9,-181.7,9.5,-181.7
Q 10.2,-181.7,8.4,-175.5
Q 7.0,-170.6,8.1,-170.3
Q 8.8,-170.1,10.2,-175.1
Q 11.6,-180.1,12.2,-181.2
Q 13.6,-183.9,16.6,-181.3
Q 19.5,-178.7,17.3,-173.0
Q 15.1,-167.3,15.6,-166.3
Q 16.2,-165.3,18.4,-170.6
Q 23.4,-182.8,27.2,-186.8
Q 26.6,-181.5,25.5,-177.6
Q 20.8,-160.7,16.7,-157.6
Q 11.8,-153.8,8.5,-149.8
Q 9.2,-149.3,9.8,-148.8
Q 10.1,-149.1,10.3,-149.5
Q 10.9,-150.2,11.5,-150.6
Q 11.7,-150.8,12.0,-151.0
Q 15.2,-153.5,16.8,-154.7
Q 26.8,-161.7,38.0,-153.9
Q 39.4,-152.9,40.9,-151.9
Q 42.2,-151.0,42.6,-150.3
Q 42.9,-150.0,43.1,-149.7
Q 47.4,-143.7,49.2,-138.9
Q 50.0,-136.8,49.7,-136.6
Q 49.4,-136.3,47.7,-137.0
Q 44.7,-138.3,44.7,-136.7
Q 44.7,-136.0,49.2,-133.7
Q 53.8,-131.5,56.7,-129.2
Q 58.1,-128.1,59.6,-127.0
Q 60.9,-126.1,61.5,-125.2
Q 61.9,-124.8,62.2,-124.4
Q 69.2,-114.5,71.5,-107.7
Q 75.5,-95.8,76.2,-82.6
Q 76.3,-80.6,76.4,-78.6
Q 76.6,-78.6,76.7,-78.6
Q 76.9,-78.7,76.9,-75.5
Q 76.9,-69.7,76.4,-68.4
Q 76.6,-68.1,76.7,-67.9
Q 76.9,-67.5,76.7,-66.8
Q 76.6,-66.5,76.4,-66.1
Q 76.3,-64.7,76.2,-63.3
Q 74.7,-46.1,61.4,-30.7
Q 59.0,-27.9,58.5,-27.9
Q 57.9,-27.9,57.5,-29.4
Q 57.0,-30.8,55.8,-33.2
Q 53.9,-36.9,53.3,-35.8
Q 53.0,-35.3,53.8,-33.7
Q 54.6,-32.1,55.5,-29.1
Q 56.4,-26.1,56.9,-22.1
Q 57.4,-19.9,57.1,-18.8
Q 57.0,-18.2,56.9,-17.7
Q 55.7,-6.8,53.5,-6.8
Q 51.6,-6.8,49.6,-14.6
Q 45.6,-29.7,44.1,-29.7
Q 43.0,-29.7,44.9,-24.0
Q 46.4,-19.9,45.9,-18.8
Q 45.6,-18.2,43.9,-16.7
Q 42.7,-15.7,41.5,-14.7
Q 37.4,-23.3,36.7,-24.1
Q 36.0,-25.0,35.6,-24.6
Q 35.1,-24.1,36.7,-21.1
Q 42.5,-9.5,40.0,0.2
Q 38.0,7.7,33.8,-4.8
Q 32.8,-7.7,31.8,-9.9
Q 30.8,-12.1,29.4,-15.1
Q 27.5,-19.2,27.2,-17.9
Q 26.9,-16.9,28.4,-13.7
Q 30.3,-9.4,28.6,-9.4
Q 27.3,-9.3,22.8,-8.2
Q 18.2,-7.0,12.0,-6.1
Q 11.1,-5.6,10.4,-5.9
Q 10.1,-6.0,9.8,-6.1
Q 9.5,-6.1,9.3,-6.0
Q 8.8,-5.8,6.2,-5.8
Q 4.9,-5.7,3.6,-5.7
Q 1.8,-5.2,0.0,-5.7
Q -9.3,-6.4,-12.9,-7.2
Q -16.5,-8.0,-16.1,-8.3
Q -15.7,-8.6,-14.9,-9.9
Q -14.1,-11.2,-13.0,-12.4
Q -11.8,-13.7,-12.3,-14.2
Q -13.1,-15.0,-16.5,-11.0
Q -18.8,-8.2,-19.6,-6.8
Q -20.4,-5.4,-23.1,-2.0
Q -25.8,1.4,-28.0,4.5
Q -28.2,4.9,-28.5,5.2
Q -28.9,5.8,-30.7,7.2
Q -33.7,8.8,-34.6,8.9
Q -36.8,9.1,-36.3,4.3
Q -35.5,-2.5,-30.5,-11.4
Q -29.2,-13.9,-29.1,-14.6
Q -28.9,-15.3,-27.8,-18.3
Q -26.6,-21.3,-26.9,-22.0
Q -27.5,-23.6,-29.4,-18.9
Q -30.4,-16.3,-30.9,-16.5
Q -34.5,-17.8,-35.7,-19.1
Q -36.1,-19.6,-34.2,-22.3
Q -31.9,-25.7,-33.0,-25.7
Q -34.4,-25.7,-39.1,-17.7
Q -53.2,6.2,-56.3,2.0
Q -57.0,1.2,-56.7,-1.1
Q -56.2,-7.1,-49.6,-15.9
Q -48.6,-17.2,-47.6,-18.6
Q -48.1,-19.1,-48.7,-19.7
Q -49.9,-18.4,-50.6,-17.7
Q -55.9,-12.1,-58.0,-5.1
Q -59.8,1.1,-57.8,3.6
Q -54.0,8.6,-43.8,-6.8
Q -40.5,-11.7,-39.9,-12.8
Q -37.6,-16.8,-37.3,-16.6
Q -37.1,-16.5,-34.3,-15.1
Q -33.0,-14.4,-31.6,-13.7
Q -38.1,-0.5,-38.4,4.9
Q -38.8,12.1,-33.7,11.0
Q -28.9,10.1,-22.2,0.5
Q -18.3,-5.0,-17.4,-4.9
Q -13.1,-4.4,-12.7,-4.1
Q -12.4,-3.8,-14.4,1.4
Q -16.7,7.4,-18.0,16.4
Q -20.0,30.9,-27.8,41.2
Q -37.4,53.9,-38.7,61.2
Q -41.6,77.9,-33.4,88.0
Q -26.2,97.0,-16.0,87.8
Q -14.8,86.8,-13.6,85.7
Q -13.8,86.1,-13.9,86.6
Q -15.8,93.2,-17.1,95.0
Q -18.1,96.4,-19.1,98.0
Q -20.0,99.6,-22.1,102.2
Q -36.8,120.2,-34.3,148.1
Q -32.9,162.4,-27.1,182.1
Q -22.2,198.5,-23.2,206.3
Q -23.9,212.0,-26.4,217.4
Q -27.5,219.9,-26.4,220.9
 " /> 
<path  
style="fill:rgb(7,193,201)" 
d="M -28.9 165.9
Q -28.9,166.2,-28.9,166.5
Q -29.0,167.2,-28.7,167.7
Q -28.6,167.9,-28.4,168.1
Q -28.1,167.1,-27.8,166.2
Q -28.3,166.0,-28.9,165.9
 " /> 
<path  
style="fill:rgb(14,103,171)" 
d="M -28.9 165.9
Q -28.4,164.2,-28.0,162.5
Q -25.5,153.1,-22.0,145.2
Q -16.3,132.5,-15.0,132.5
Q -13.9,132.5,-16.6,137.3
Q -20.2,143.6,-27.8,166.2
Q -28.1,167.1,-28.4,168.1
Q -24.0,184.5,-22.8,189.2
Q -21.4,194.3,-20.9,193.5
Q -17.1,187.7,-14.2,173.2
Q -10.3,153.7,-3.5,139.7
Q -1.6,135.6,-0.9,135.6
Q -0.0,135.6,-2.1,140.2
Q -8.5,154.0,-12.5,174.1
Q -15.1,187.7,-19.4,194.0
Q -21.0,196.3,-20.6,200.9
Q -20.1,209.0,-23.8,217.6
Q -24.1,218.5,-24.5,219.3
Q -24.0,219.2,-23.5,219.1
Q -22.4,218.8,-20.0,217.7
Q -19.7,217.6,-19.4,217.5
Q -19.7,216.8,-20.0,216.0
Q -20.7,215.6,-18.9,214.2
Q 4.4,195.5,11.0,165.2
Q 11.4,163.5,12.0,163.3
Q 13.2,162.9,10.9,171.6
Q 4.5,197.0,-16.2,213.9
Q -19.4,216.4,-20.0,216.0
Q -19.7,216.8,-19.4,217.5
Q -17.0,216.4,-13.0,215.0
Q 7.2,208.0,12.8,202.6
Q 22.8,193.1,24.9,176.2
Q 25.4,172.3,25.6,157.9
Q 25.8,143.5,25.9,143.0
Q 26.1,142.5,26.6,143.0
Q 27.1,143.5,27.4,156.1
Q 27.6,168.7,27.2,173.9
Q 25.6,190.7,17.4,200.5
Q 16.4,201.7,15.4,202.9
Q 54.5,181.6,53.2,157.5
Q 52.8,149.5,44.6,133.0
Q 32.8,109.2,31.7,95.2
Q 31.6,94.3,31.6,93.4
Q 30.7,93.0,29.3,93.0
Q 29.3,93.2,29.3,93.4
Q 29.3,110.3,25.8,110.9
Q 24.6,111.1,24.3,107.6
Q 23.4,99.0,22.8,99.0
Q 22.6,99.0,21.7,100.5
Q 18.3,106.4,14.6,100.6
Q 13.3,98.5,13.1,98.4
Q 12.9,98.3,10.7,99.6
Q 10.7,99.9,10.7,100.1
Q 9.8,103.2,9.5,105.5
Q 9.0,110.3,6.1,113.3
Q 4.0,115.5,3.4,114.4
Q 3.0,113.9,2.5,104.8
Q 2.4,102.2,2.2,99.6
Q 2.2,99.1,2.2,98.5
Q 2.2,97.4,1.3,94.7
Q 1.0,94.4,0.7,94.1
Q -0.2,93.2,-2.2,96.7
Q -7.0,104.9,-9.7,96.3
Q -10.5,93.7,-12.4,89.0
Q -14.7,93.4,-15.4,94.6
Q -16.1,95.8,-17.2,98.1
Q -18.3,100.3,-20.2,102.8
Q -22.2,105.3,-26.7,113.2
Q -36.1,129.7,-30.8,157.7
Q -30.1,161.4,-28.9,165.9
 " /> 
<path  
style="fill:rgb(7,193,201)" 
d="M 32.6 187.7
Q 32.4,188.5,33.0,188.5
Q 33.7,188.5,35.2,185.3
Q 42.1,171.2,40.0,154.0
Q 39.2,147.0,38.0,148.1
Q 37.8,148.4,38.3,152.8
Q 40.4,171.7,34.0,184.7
Q 32.9,186.9,32.6,187.7
 " /> 
<path  
style="fill:rgb(7,193,201)" 
d="M -28.9 165.9
Q -28.3,166.0,-27.8,166.2
Q -20.2,143.6,-16.6,137.3
Q -13.9,132.5,-15.0,132.5
Q -16.3,132.5,-22.0,145.2
Q -25.5,153.1,-28.0,162.5
Q -28.4,164.2,-28.9,165.9
 " /> 
<path  
style="fill:rgb(7,193,201)" 
d="M -12.4 89.0
Q -12.2,88.3,-12.0,87.6
Q -12.1,87.7,-12.2,87.7
Q -12.4,87.7,-12.4,88.3
Q -12.4,88.7,-12.4,89.0
 " /> 
<path  
style="fill:rgb(7,193,201)" 
d="M -12.4 89.0
Q -12.1,88.9,-11.7,88.8
Q -11.9,88.2,-12.0,87.6
Q -12.2,88.3,-12.4,89.0
 " /> 
<path  
style="fill:rgb(7,193,201)" 
d="M -12.4 89.0
Q -10.5,93.7,-9.7,96.3
Q -7.0,104.9,-2.2,96.7
Q -0.2,93.2,0.7,94.1
Q 1.0,94.4,1.3,94.7
Q 0.0,92.1,-0.9,94.0
Q -5.8,103.2,-8.3,98.7
Q -10.0,95.6,-11.3,90.3
Q -11.5,89.5,-11.7,88.8
Q -12.1,88.9,-12.4,89.0
 " /> 
<path  
style="fill:rgb(97,247,248)" 
d="M 1.3 94.7
Q 2.2,97.4,2.2,98.5
Q 2.2,99.1,2.2,99.6
Q 2.4,100.4,2.5,101.1
Q 2.9,102.5,3.0,106.5
Q 3.3,114.3,4.0,114.3
Q 4.3,114.3,5.9,112.8
Q 8.4,110.5,9.3,104.2
Q 9.8,101.0,10.7,100.1
Q 10.7,99.9,10.7,99.6
Q 11.2,99.1,11.8,98.5
Q 12.9,97.4,14.1,99.1
Q 16.6,102.6,17.9,102.8
Q 19.7,103.1,21.4,100.0
Q 22.9,97.5,23.4,98.1
Q 23.9,98.9,24.8,107.0
Q 25.3,110.9,26.4,109.6
Q 27.9,108.0,28.4,102.9
Q 28.7,99.0,29.0,96.2
Q 29.2,94.8,29.3,93.4
Q 29.3,93.2,29.3,93.0
Q 29.5,92.9,29.8,92.7
Q 30.2,92.5,30.9,92.7
Q 31.2,92.9,31.6,93.0
Q 31.4,90.4,31.3,87.9
Q 31.1,82.7,29.6,79.5
Q 26.7,73.3,24.2,59.5
Q 23.7,56.9,23.3,54.1
Q 23.6,56.2,23.1,53.0
Q 23.1,50.1,23.1,47.2
Q 23.8,45.4,24.5,43.6
Q 25.8,40.1,26.5,37.0
Q 26.8,35.4,27.1,33.9
Q 27.1,32.7,27.1,31.6
Q 27.1,29.6,27.1,27.6
Q 27.1,26.3,27.1,25.0
Q 26.4,20.3,25.8,15.6
Q 24.9,17.2,24.4,20.2
Q 23.9,23.2,23.0,23.2
Q 22.1,23.2,23.3,15.9
Q 24.0,11.9,24.4,8.3
Q 24.7,4.8,25.3,4.8
Q 25.9,4.8,25.8,7.1
Q 25.7,9.3,26.6,12.4
Q 28.4,18.4,28.8,24.8
Q 28.8,24.9,28.8,24.9
Q 28.8,25.6,28.9,26.3
Q 29.0,26.9,29.0,27.5
Q 29.3,30.1,29.1,31.4
Q 29.1,31.6,29.0,31.9
Q 29.0,32.4,28.9,33.0
Q 28.8,33.5,28.8,34.0
Q 28.7,34.6,28.7,35.2
Q 28.2,40.2,25.7,44.4
Q 24.4,46.7,25.4,55.0
Q 25.6,56.9,25.8,58.7
Q 30.7,54.7,33.0,52.6
Q 43.4,43.1,47.1,46.0
Q 48.4,47.0,49.8,48.0
Q 50.4,48.5,51.1,49.0
Q 46.2,37.4,42.4,30.7
Q 34.8,17.2,31.7,8.7
Q 27.0,-4.5,24.1,-5.4
Q 23.4,-5.6,20.0,-4.7
Q 15.9,-3.7,8.0,-3.0
Q 6.9,-3.0,5.8,-3.0
Q -4.9,-3.5,-7.6,-3.7
Q -10.2,-4.0,-11.4,-1.4
Q -14.9,6.5,-15.6,13.4
Q -17.4,31.0,-25.6,41.9
Q -26.6,43.2,-27.6,44.5
Q -27.6,44.7,-27.6,45.0
Q -24.4,45.0,-22.5,45.9
Q -20.5,46.8,-15.6,45.9
Q -15.3,45.9,-15.1,45.9
Q -14.6,45.7,-14.0,45.6
Q -12.9,45.4,-11.4,47.0
Q -9.9,48.6,-8.0,48.8
Q -5.1,49.2,-0.9,52.5
Q -0.6,50.4,-0.2,48.3
Q 0.4,44.1,-0.9,41.3
Q -3.0,37.3,-3.9,29.1
Q -4.2,26.2,-4.4,22.7
Q -4.3,24.1,-4.4,21.6
Q -4.4,22.6,-4.4,21.0
Q -4.4,19.2,-4.4,17.4
Q -5.3,10.7,-5.4,10.0
Q -5.5,9.3,-4.9,9.3
Q -4.3,9.2,-1.5,20.3
Q -0.2,25.5,-1.1,25.6
Q -1.7,25.6,-2.0,25.4
Q -2.3,25.9,-2.7,26.3
Q -2.7,26.9,-2.7,27.5
Q -2.7,28.7,-2.7,28.9
Q -2.7,28.9,-2.7,29.0
Q -2.4,30.3,-2.2,31.6
Q -1.2,37.7,1.4,42.1
Q 3.7,45.9,2.5,45.9
Q 1.8,45.9,1.6,48.4
Q 0.1,61.4,-8.1,77.5
Q -10.3,81.8,-11.1,84.7
Q -11.6,86.2,-12.0,87.6
Q -11.9,88.2,-11.7,88.8
Q -11.5,89.5,-11.3,90.3
Q -10.0,95.6,-8.3,98.7
Q -5.8,103.2,-0.9,94.0
Q 0.0,92.1,1.3,94.7
 " /> 
<path  
style="fill:rgb(7,193,201)" 
d="M 2.2 99.6
Q 2.4,102.2,2.5,104.8
Q 3.0,113.9,3.4,114.4
Q 4.0,115.5,6.1,113.3
Q 9.0,110.3,9.5,105.5
Q 9.8,103.2,10.7,100.1
Q 9.8,101.0,9.3,104.2
Q 8.4,110.5,5.9,112.8
Q 4.3,114.3,4.0,114.3
Q 3.3,114.3,3.0,106.5
Q 2.9,102.5,2.5,101.1
Q 2.4,100.4,2.2,99.6
 " /> 
<path  
style="fill:rgb(7,193,201)" 
d="M 29.3 93.0
Q 30.7,93.0,31.6,93.4
Q 31.6,93.2,31.6,93.0
Q 31.2,92.9,30.9,92.7
Q 30.2,92.5,29.8,92.7
Q 29.5,92.9,29.3,93.0
 " /> 
<path  
style="fill:rgb(7,193,201)" 
d="M -20.0 216.0
Q -19.4,216.4,-16.2,213.9
Q 4.5,197.0,10.9,171.6
Q 13.2,162.9,12.0,163.3
Q 11.4,163.5,11.0,165.2
Q 4.4,195.5,-18.9,214.2
Q -20.7,215.6,-20.0,216.0
 " /> 
<path  
style="fill:rgb(14,103,171)" 
d="M -2.7 29.0
Q -2.7,28.9,-2.7,28.9
Q -2.7,28.7,-2.7,27.5
Q -2.7,26.9,-2.7,26.3
Q -2.9,26.3,-3.1,26.3
Q -3.1,28.5,-3.1,28.8
Q -3.0,29.0,-2.8,29.0
Q -2.7,29.0,-2.7,29.0
 " /> 
<path  
style="fill:rgb(7,193,201)" 
d="M -2.7 26.3
Q -2.7,26.1,-2.7,25.9
Q -2.9,26.1,-3.1,26.3
Q -2.9,26.3,-2.7,26.3
 " /> 
<path  
style="fill:rgb(97,247,248)" 
d="M -2.7 26.3
Q -2.3,25.9,-2.0,25.4
Q -2.1,25.3,-2.2,25.1
Q -2.4,25.6,-2.7,25.9
Q -2.7,26.1,-2.7,26.3
 " /> 
<path  
style="fill:rgb(4,4,4)" 
d="M -2.7 24.1
Q -3.5,24.1,-4.3,24.2
Q -4.1,26.6,-3.9,28.7
Q -3.6,26.3,-3.1,26.3
Q -3.1,25.8,-3.1,25.2
Q -3.1,24.2,-2.9,24.1
Q -2.8,24.1,-2.7,24.1
 " /> 
<path  
style="fill:rgb(4,4,4)" 
d="M -2.7 24.1
Q -2.5,24.5,-2.3,24.9
Q -2.2,25.1,-2.1,25.3
Q -1.9,25.5,-1.7,25.5
Q -1.7,25.6,-1.1,25.6
Q -0.2,25.5,-1.5,20.3
Q -4.3,9.2,-4.9,9.3
Q -5.5,9.3,-5.4,10.0
Q -5.3,10.7,-4.4,17.4
Q -4.3,17.9,-4.2,18.3
Q -4.0,19.2,-4.4,21.0
Q -4.4,22.6,-4.3,24.2
Q -3.5,24.1,-2.7,24.1
 " /> 
<path  
style="fill:rgb(97,247,248)" 
d="M -2.7 24.1
Q -2.7,25.0,-2.7,25.9
Q -2.4,25.6,-2.1,25.3
Q -2.2,25.1,-2.3,24.9
Q -2.5,24.5,-2.7,24.1
 " /> 
<path  
style="fill:rgb(7,193,201)" 
d="M -2.7 24.1
Q -2.8,24.1,-2.9,24.1
Q -3.1,24.2,-3.1,25.2
Q -3.1,25.8,-3.1,26.3
Q -2.9,26.1,-2.7,25.9
Q -2.7,25.0,-2.7,24.1
 " /> 
<path  
style="fill:rgb(14,103,171)" 
d="M -4.4 17.4
Q -4.4,19.2,-4.4,21.0
Q -4.0,19.2,-4.2,18.3
Q -4.3,17.9,-4.4,17.4
 " /> 
<path  
style="fill:rgb(7,193,201)" 
d="M -0.9 52.5
Q -1.1,53.2,-1.3,53.9
Q -1.2,53.6,-1.1,53.4
Q -0.9,53.0,-0.9,52.7
Q -0.9,52.6,-0.9,52.5
 " /> 
<path  
style="fill:rgb(7,193,201)" 
d="M -0.9 52.5
Q -5.1,49.2,-8.0,48.8
Q -9.9,48.6,-11.4,47.0
Q -12.9,45.4,-14.0,45.6
Q -14.6,45.7,-15.1,45.9
Q -14.6,45.8,-14.2,45.8
Q -13.3,45.8,-11.3,47.6
Q -9.4,49.4,-7.7,49.4
Q -4.3,49.4,-2.2,52.5
Q -1.8,53.2,-1.3,53.9
Q -1.1,53.2,-0.9,52.5
 " /> 
<path  
style="fill:rgb(14,103,171)" 
d="M -15.1 45.9
Q -15.3,45.9,-15.6,45.9
Q -17.8,47.2,-19.5,47.2
Q -21.3,47.2,-22.8,46.3
Q -24.4,45.4,-26.0,45.2
Q -26.8,45.1,-27.6,45.0
Q -27.6,44.7,-27.6,44.5
Q -34.5,54.2,-35.7,58.3
Q -36.1,59.7,-36.4,60.9
Q -35.6,61.1,-34.8,61.3
Q -35.0,60.7,-33.8,57.9
Q -32.7,55.2,-31.8,55.2
Q -31.0,55.2,-32.7,59.1
Q -34.3,62.6,-34.8,61.3
Q -35.6,61.1,-36.4,60.9
Q -38.1,67.4,-37.2,70.4
Q -37.0,71.4,-35.7,68.6
Q -34.6,66.3,-29.6,60.6
Q -23.0,52.9,-23.6,55.3
Q -23.8,55.9,-28.6,61.7
Q -36.8,71.4,-36.3,76.1
Q -35.3,84.9,-27.6,89.4
Q -27.7,86.9,-27.8,84.3
Q -28.1,76.0,-26.8,76.2
Q -26.1,76.3,-26.2,89.4
Q -22.2,89.4,-20.5,88.6
Q -14.8,85.7,-15.0,81.1
Q -15.1,78.5,-15.3,73.6
Q -15.9,60.4,-14.3,60.3
Q -13.8,60.3,-13.7,70.3
Q -13.7,78.5,-13.6,79.5
Q -13.2,84.2,-10.0,76.1
Q -9.2,74.2,-8.2,73.0
Q -4.9,69.1,-1.3,53.9
Q -1.8,53.2,-2.2,52.5
Q -4.3,49.4,-7.7,49.4
Q -9.4,49.4,-11.3,47.6
Q -13.3,45.8,-14.2,45.8
Q -14.6,45.8,-15.1,45.9
 " /> 
<path  
style="fill:rgb(7,193,201)" 
d="M -9.5 68.4
Q -9.3,69.9,-8.8,69.7
Q -8.2,69.5,-8.2,64.9
Q -8.3,58.7,-9.6,60.4
Q -10.7,61.7,-9.5,68.4
 " /> 
<path  
style="fill:rgb(7,193,201)" 
d="M -15.6 45.9
Q -20.5,46.8,-22.5,45.9
Q -24.4,45.0,-27.6,45.0
Q -26.8,45.1,-26.0,45.2
Q -24.4,45.4,-22.8,46.3
Q -21.3,47.2,-19.5,47.2
Q -17.8,47.2,-15.6,45.9
 " /> 
<path  
style="fill:rgb(14,103,171)" 
d="M 5.8 -3.0
Q 6.9,-3.0,8.0,-3.0
Q 7.7,-3.1,7.4,-3.3
Q 6.7,-3.5,6.2,-3.3
Q 6.0,-3.1,5.8,-3.0
 " /> 
<path  
style="fill:rgb(7,193,201)" 
d="M 51.1 49.0
Q 51.0,49.1,50.9,49.3
Q 51.2,49.6,51.6,49.9
Q 51.6,48.9,51.1,49.0
 " /> 
<path  
style="fill:rgb(4,4,4)" 
d="M 25.8 58.7
Q 24.9,58.9,24.1,59.0
Q 24.6,61.6,25.0,63.9
Q 25.0,59.3,25.8,59.2
Q 25.8,59.0,25.8,58.7
 " /> 
<path  
style="fill:rgb(4,4,4)" 
d="M 25.8 58.7
Q 25.6,56.9,25.4,55.0
Q 24.4,46.7,25.7,44.4
Q 28.2,40.2,28.7,35.2
Q 28.7,34.6,28.8,34.0
Q 27.9,33.9,27.1,33.9
Q 26.8,35.4,26.5,37.0
Q 25.8,40.1,24.5,43.6
Q 23.8,45.4,23.1,47.2
Q 23.6,49.9,23.1,53.0
Q 23.6,56.2,24.1,59.0
Q 24.9,58.9,25.8,58.7
 " /> 
<path  
style="fill:rgb(4,4,4)" 
d="M 28.9 33.0
Q 28.9,32.4,28.9,31.8
Q 28.2,31.7,27.6,31.6
Q 27.5,32.2,27.5,32.7
Q 27.5,32.8,27.5,32.9
Q 28.2,33.0,28.9,33.0
 " /> 
<path  
style="fill:rgb(7,193,201)" 
d="M 28.9 33.0
Q 29.0,32.4,29.0,31.9
Q 29.0,31.9,28.9,31.8
Q 28.9,32.4,28.9,33.0
 " /> 
<path  
style="fill:rgb(4,4,4)" 
d="M 28.9 33.0
Q 28.2,33.0,27.5,32.9
Q 27.5,33.8,27.3,33.8
Q 27.2,33.8,27.1,33.9
Q 27.9,33.9,28.8,34.0
Q 28.8,33.5,28.9,33.0
 " /> 
<path  
style="fill:rgb(4,4,4)" 
d="M 28.9 26.3
Q 28.2,26.3,27.6,26.3
Q 27.6,27.0,27.6,27.6
Q 28.2,27.6,28.9,27.5
Q 28.9,26.9,28.9,26.3
 " /> 
<path  
style="fill:rgb(4,4,4)" 
d="M 28.9 26.3
Q 28.8,25.6,28.8,24.9
Q 28.1,24.9,27.4,25.0
Q 27.6,25.1,27.6,26.2
Q 27.6,26.3,27.6,26.3
Q 28.2,26.3,28.9,26.3
 " /> 
<path  
style="fill:rgb(7,193,201)" 
d="M 28.9 26.3
Q 28.9,26.9,28.9,27.5
Q 29.0,27.5,29.0,27.5
Q 29.0,26.9,28.9,26.3
 " /> 
<path  
style="fill:rgb(14,103,171)" 
d="M 27.1 25.0
Q 27.1,26.3,27.1,27.6
Q 27.3,27.6,27.6,27.6
Q 27.6,27.0,27.6,26.3
Q 27.6,26.3,27.6,26.2
Q 27.6,25.1,27.4,25.0
Q 27.3,25.0,27.1,25.0
 " /> 
<path  
style="fill:rgb(4,4,4)" 
d="M 27.1 25.0
Q 27.2,24.9,27.3,24.9
Q 27.4,24.9,27.4,25.0
Q 28.1,24.9,28.8,24.9
Q 28.8,24.9,28.8,24.8
Q 28.4,18.4,26.6,12.4
Q 25.7,9.3,25.8,7.1
Q 25.9,4.8,25.3,4.8
Q 24.7,4.8,24.4,8.3
Q 24.0,11.9,23.3,15.9
Q 22.1,23.2,23.0,23.2
Q 23.9,23.2,24.4,20.2
Q 24.9,17.2,25.8,15.6
Q 26.4,20.3,27.1,25.0
 " /> 
<path  
style="fill:rgb(7,193,201)" 
d="M 27.1 27.6
Q 27.1,29.6,27.1,31.6
Q 27.3,31.6,27.6,31.6
Q 27.6,29.6,27.6,27.6
Q 27.3,27.6,27.1,27.6
 " /> 
<path  
style="fill:rgb(14,103,171)" 
d="M 27.1 31.6
Q 27.1,32.7,27.1,33.9
Q 27.2,33.8,27.3,33.8
Q 27.5,33.8,27.5,32.9
Q 27.5,32.8,27.5,32.7
Q 27.5,32.2,27.6,31.6
Q 27.3,31.6,27.1,31.6
 " /> 
<path  
style="fill:rgb(14,103,171)" 
d="M 23.1 47.2
Q 23.1,50.1,23.1,53.0
Q 23.6,49.9,23.1,47.2
 " /> 
<path  
style="fill:rgb(7,193,201)" 
d="M -27.6 89.4
Q -26.9,89.4,-26.2,89.4
Q -26.1,76.3,-26.8,76.2
Q -28.1,76.0,-27.8,84.3
Q -27.7,86.9,-27.6,89.4
 " /> 
<path  
style="fill:rgb(7,193,201)" 
d="M 32.4 79.6
Q 32.8,80.6,33.1,81.0
Q 33.2,81.2,33.3,81.4
Q 33.4,80.6,33.5,79.7
Q 33.0,79.7,32.4,79.6
 " /> 
<path  
style="fill:rgb(14,103,171)" 
d="M 32.4 79.6
Q 32.6,76.3,32.7,73.0
Q 32.9,65.1,33.3,66.6
Q 34.3,70.6,33.7,77.8
Q 33.6,78.8,33.5,79.7
Q 33.4,80.6,33.3,81.4
Q 34.1,82.3,34.9,83.2
Q 37.3,86.0,42.2,87.3
Q 41.7,86.0,41.1,84.7
Q 39.1,79.6,38.3,73.2
Q 37.8,69.6,37.1,65.2
Q 36.4,60.8,36.9,60.4
Q 37.3,59.9,37.5,60.1
Q 37.7,60.3,38.4,65.0
Q 41.5,85.0,43.8,87.2
Q 45.3,88.6,48.4,87.5
Q 54.4,85.4,55.3,79.7
Q 55.6,78.0,53.0,72.3
Q 45.7,56.5,46.0,56.2
Q 46.9,55.3,51.6,65.5
Q 53.6,70.0,55.7,74.5
Q 55.7,73.0,55.8,71.4
Q 55.8,68.4,55.2,65.1
Q 55.0,63.5,54.7,61.9
Q 53.9,60.9,53.2,60.0
Q 53.2,59.9,53.1,59.9
Q 51.6,57.9,51.0,56.0
Q 52.2,56.8,53.2,58.0
Q 53.7,58.6,54.2,59.2
Q 54.0,58.1,53.8,57.0
Q 53.3,54.7,52.4,52.3
Q 52.0,51.1,51.6,49.9
Q 51.2,49.6,50.9,49.3
Q 50.6,49.1,50.4,49.0
Q 46.8,46.1,45.7,45.9
Q 42.7,45.5,39.6,48.3
Q 38.4,49.4,37.3,49.8
Q 36.2,50.2,33.2,53.0
Q 30.3,55.7,28.0,57.5
Q 26.9,58.3,25.8,59.2
Q 28.8,73.5,31.1,77.4
Q 31.8,78.5,32.4,79.6
 " /> 
<path  
style="fill:rgb(7,193,201)" 
d="M 48.3 80.0
Q 50.4,85.9,50.8,85.7
Q 51.4,85.5,49.0,78.0
Q 46.4,69.8,45.9,71.5
Q 45.6,72.2,48.3,80.0
 " /> 
<path  
style="fill:rgb(7,193,201)" 
d="M 32.4 79.6
Q 33.0,79.7,33.5,79.7
Q 33.6,78.8,33.7,77.8
Q 34.3,70.6,33.3,66.6
Q 32.9,65.1,32.7,73.0
Q 32.6,76.3,32.4,79.6
 " /> 
<path  
style="fill:rgb(7,193,201)" 
d="M 54.2 59.2
Q 53.7,59.6,53.2,60.0
Q 53.9,60.9,54.7,61.9
Q 54.6,61.5,54.5,61.2
Q 54.2,60.5,54.2,59.2
 " /> 
<path  
style="fill:rgb(7,193,201)" 
d="M 54.2 59.2
Q 53.7,58.6,53.2,58.0
Q 52.2,56.8,51.0,56.0
Q 51.6,57.9,53.1,59.9
Q 53.2,59.9,53.2,60.0
Q 53.7,59.6,54.2,59.2
 " /> 
<path  
style="fill:rgb(7,193,201)" 
d="M -34.8 61.3
Q -34.3,62.6,-32.7,59.1
Q -31.0,55.2,-31.8,55.2
Q -32.7,55.2,-33.8,57.9
Q -35.0,60.7,-34.8,61.3
 " /> 
<path  
style="fill:rgb(4,4,4)" 
d="M 27.6 31.6
Q 28.2,31.6,28.9,31.6
Q 28.9,29.5,28.9,27.4
Q 28.2,27.6,27.6,27.6
Q 27.6,29.6,27.6,31.6
 " /> 
<path  
style="fill:rgb(4,4,4)" 
d="M 27.6 31.6
Q 28.2,31.7,28.9,31.8
Q 28.9,31.3,28.9,30.7
Q 28.2,31.6,27.6,31.6
 " /> 
<path  
style="fill:rgb(4,4,4)" 
d="M 27.6 27.6
Q 28.2,27.6,28.9,27.6
Q 28.9,27.1,28.9,26.5
Q 28.2,27.6,27.6,27.6
 " /> 
<path  
style="fill:rgb(4,4,4)" 
d="M -3.1 26.3
Q -3.6,26.3,-4.1,26.4
Q -3.9,29.5,-3.5,32.2
Q -3.3,29.0,-2.8,29.0
Q -3.0,29.0,-3.1,28.8
Q -3.1,28.5,-3.1,26.3
 " /> 
<path  
style="fill:rgb(4,4,4)" 
d="M 73.8 -45.7
Q 75.6,-46.6,78.3,-47.5
Q 84.6,-49.5,89.5,-52.5
Q 92.9,-54.5,92.9,-53.8
Q 92.9,-52.8,86.4,-49.6
Q 80.2,-46.4,76.0,-45.6
Q 74.9,-45.4,73.8,-45.2
Q 70.7,-39.0,68.4,-35.6
Q 67.2,-33.9,66.1,-32.2
Q 78.3,-34.7,87.9,-39.7
Q 91.6,-41.6,99.6,-46.6
Q 99.8,-46.9,100.0,-47.2
Q 100.5,-47.9,101.1,-48.3
Q 101.4,-48.6,101.8,-48.8
Q 102.4,-49.2,103.1,-49.7
Q 104.9,-51.9,107.1,-53.7
Q 107.4,-54.2,107.8,-54.8
Q 108.4,-55.9,110.2,-58.6
Q 110.4,-59.2,110.6,-59.8
Q 110.0,-60.3,109.3,-60.8
Q 105.8,-59.0,103.7,-57.7
Q 101.6,-56.3,100.3,-56.5
Q 95.7,-57.0,106.7,-71.2
Q 118.4,-86.4,122.5,-101.6
Q 123.7,-105.9,123.4,-108.5
Q 123.2,-111.1,122.9,-111.2
Q 122.6,-111.4,120.9,-110.6
Q 120.5,-110.1,120.2,-109.7
Q 119.5,-108.8,118.9,-108.4
Q 118.5,-108.1,118.2,-107.9
Q 112.9,-100.4,111.4,-98.8
Q 108.8,-95.9,108.8,-99.1
Q 108.8,-100.1,111.5,-108.1
Q 120.9,-135.5,118.7,-146.3
Q 117.0,-154.2,112.8,-148.1
Q 111.3,-145.9,107.5,-136.4
Q 103.9,-127.4,103.2,-126.5
Q 102.5,-125.7,100.9,-125.7
Q 99.0,-126.5,98.7,-128.4
Q 98.2,-129.7,97.8,-131.0
Q 96.9,-133.7,96.0,-137.0
Q 91.2,-154.9,85.9,-157.4
Q 84.1,-158.2,82.7,-152.4
Q 82.7,-148.4,82.6,-148.0
Q 82.6,-147.6,82.2,-147.5
Q 82.2,-137.7,78.6,-137.1
Q 76.6,-136.7,72.9,-140.8
Q 72.1,-140.6,71.4,-140.4
Q 71.6,-139.8,71.6,-139.5
Q 71.6,-139.0,71.6,-138.6
Q 71.7,-138.1,71.8,-137.7
Q 72.0,-136.8,71.8,-136.1
Q 71.7,-135.8,71.6,-135.5
Q 71.2,-134.1,70.8,-133.9
Q 68.5,-132.8,62.4,-138.3
Q 61.5,-139.1,60.6,-139.9
Q 60.9,-138.9,61.2,-137.9
Q 62.5,-134.1,58.7,-132.9
Q 57.8,-132.6,56.9,-132.3
Q 58.0,-131.4,59.0,-130.6
Q 71.7,-120.6,75.8,-102.1
Q 76.3,-99.7,76.9,-97.2
Q 82.7,-103.7,84.6,-108.1
Q 87.1,-114.1,87.8,-132.0
Q 88.0,-137.7,88.4,-136.0
Q 88.5,-135.7,88.7,-130.9
Q 89.7,-106.0,76.9,-96.8
Q 77.2,-94.5,77.6,-92.1
Q 78.2,-87.5,78.4,-83.5
Q 78.6,-81.5,78.7,-79.5
Q 85.4,-84.2,92.0,-92.1
Q 104.4,-107.1,109.1,-120.5
Q 110.3,-123.9,110.8,-123.9
Q 111.7,-123.9,109.4,-118.0
Q 105.5,-108.0,96.0,-95.3
Q 85.9,-81.7,80.1,-79.2
Q 79.4,-78.9,78.7,-78.6
Q 78.7,-78.1,78.7,-77.7
Q 78.8,-76.2,78.9,-74.8
Q 79.1,-71.9,78.7,-66.1
Q 78.7,-65.5,78.7,-64.8
Q 94.2,-69.6,103.6,-83.6
Q 105.4,-86.1,105.8,-86.1
Q 106.8,-86.1,103.7,-81.8
Q 93.8,-68.0,81.4,-64.3
Q 80.0,-63.9,78.7,-63.5
Q 78.3,-61.4,78.0,-59.2
Q 76.8,-51.8,74.7,-47.5
Q 74.2,-46.6,73.8,-45.7
 " /> 
<path  
style="fill:rgb(97,247,248)" 
d="M 73.7 -116.2
Q 73.9,-115.8,74.5,-116.9
Q 76.4,-120.5,75.7,-125.7
Q 75.4,-127.5,75.0,-127.3
Q 74.5,-127.2,74.6,-124.3
Q 74.7,-121.5,74.0,-119.0
Q 73.4,-116.6,73.7,-116.2
 " /> 
<path  
style="fill:rgb(97,247,248)" 
d="M 66.0 -127.8
Q 65.7,-126.1,66.2,-126.1
Q 66.9,-126.1,67.3,-129.1
Q 67.6,-131.0,67.2,-131.0
Q 66.5,-131.0,66.0,-127.8
 " /> 
<path  
style="fill:rgb(97,247,248)" 
d="M 73.8 -45.7
Q 73.8,-45.5,73.8,-45.2
Q 74.9,-45.4,76.0,-45.6
Q 80.2,-46.4,86.4,-49.6
Q 92.9,-52.8,92.9,-53.8
Q 92.9,-54.5,89.5,-52.5
Q 84.6,-49.5,78.3,-47.5
Q 75.6,-46.6,73.8,-45.7
 " /> 
<path  
style="fill:rgb(97,247,248)" 
d="M 78.7 -63.5
Q 80.0,-63.9,81.4,-64.3
Q 93.8,-68.0,103.7,-81.8
Q 106.8,-86.1,105.8,-86.1
Q 105.4,-86.1,103.6,-83.6
Q 94.2,-69.6,78.7,-64.8
Q 78.7,-64.1,78.7,-63.5
 " /> 
<path  
style="fill:rgb(14,103,171)" 
d="M 78.7 -66.1
Q 79.1,-71.9,78.9,-74.8
Q 78.8,-76.2,78.7,-77.7
Q 78.7,-71.9,78.7,-66.1
 " /> 
<path  
style="fill:rgb(97,247,248)" 
d="M 78.7 -78.6
Q 79.4,-78.9,80.1,-79.2
Q 85.9,-81.7,96.0,-95.3
Q 105.5,-108.0,109.4,-118.0
Q 111.7,-123.9,110.8,-123.9
Q 110.3,-123.9,109.1,-120.5
Q 104.4,-107.1,92.0,-92.1
Q 85.4,-84.2,78.7,-79.5
Q 78.7,-79.0,78.7,-78.6
 " /> 
<path  
style="fill:rgb(14,103,171)" 
d="M 71.6 -135.5
Q 71.7,-135.8,71.8,-136.1
Q 72.0,-136.8,71.8,-137.7
Q 71.7,-138.1,71.6,-138.6
Q 71.6,-137.0,71.6,-135.5
 " /> 
<path  
style="fill:rgb(14,103,171)" 
d="M 70.7 -142.6
Q 71.5,-141.7,72.2,-141.2
Q 72.5,-141.0,72.9,-140.8
Q 71.6,-142.0,70.4,-143.1
Q 70.5,-142.9,70.7,-142.6
 " /> 
<path  
style="fill:rgb(7,193,201)" 
d="M 70.7 -142.6
Q 71.2,-141.3,71.4,-140.4
Q 72.1,-140.6,72.9,-140.8
Q 72.5,-141.0,72.2,-141.2
Q 71.5,-141.7,70.7,-142.6
 " /> 
<path  
style="fill:rgb(14,103,171)" 
d="M 82.2 -147.5
Q 82.6,-147.6,82.6,-148.0
Q 82.7,-148.4,82.7,-152.4
Q 82.6,-152.3,82.5,-152.3
Q 82.3,-152.2,82.2,-149.8
Q 82.2,-148.6,82.2,-147.5
 " /> 
<path  
style="fill:rgb(14,103,171)" 
d="M 98.7 -128.4
Q 99.0,-126.5,100.9,-125.7
Q 100.5,-126.0,100.2,-126.3
Q 99.5,-126.9,98.7,-128.4
 " /> 
<path  
style="fill:rgb(14,103,171)" 
d="M 118.2 -107.9
Q 118.5,-108.1,118.9,-108.4
Q 119.5,-108.8,120.2,-109.7
Q 120.5,-110.1,120.9,-110.6
Q 120.4,-110.2,120.0,-109.9
Q 119.1,-109.2,118.7,-108.6
Q 118.4,-108.2,118.2,-107.9
 " /> 
<path  
style="fill:rgb(14,103,171)" 
d="M 109.3 -60.8
Q 109.7,-60.8,110.1,-60.9
Q 111.0,-61.0,110.6,-59.8
Q 110.6,-59.8,110.6,-59.8
Q 110.4,-59.2,110.2,-58.6
Q 111.1,-59.5,111.1,-60.4
Q 111.1,-61.2,109.3,-60.8
 " /> 
<path  
style="fill:rgb(7,193,201)" 
d="M 109.3 -60.8
Q 110.0,-60.3,110.6,-59.8
Q 110.6,-59.8,110.6,-59.8
Q 111.0,-61.0,110.1,-60.9
Q 109.7,-60.8,109.3,-60.8
 " /> 
<path  
style="fill:rgb(14,103,171)" 
d="M 107.1 -53.7
Q 104.9,-51.9,103.1,-49.7
Q 105.3,-51.5,107.1,-53.7
 " /> 
<path  
style="fill:rgb(14,103,171)" 
d="M 101.8 -48.8
Q 101.4,-48.6,101.1,-48.3
Q 100.5,-47.9,100.0,-47.2
Q 99.8,-46.9,99.6,-46.6
Q 100.9,-47.5,101.8,-48.8
 " /> 
<path  
style="fill:rgb(7,193,201)" 
d="M 29.0 31.9
Q 29.1,31.6,29.1,31.4
Q 29.3,30.1,29.0,27.5
Q 29.0,27.5,28.9,27.5
Q 28.9,28.0,28.9,28.6
Q 28.9,29.8,28.9,31.9
Q 28.9,32.2,28.9,32.7
Q 29.0,31.9,29.0,31.9
 " /> 
<path  
style="fill:rgb(4,4,4)" 
d="M -45.3 -20.8
Q -43.7,-23.0,-42.0,-25.2
Q -38.7,-29.7,-38.9,-30.3
Q -39.3,-31.9,-42.4,-27.5
Q -43.5,-25.9,-44.6,-24.3
Q -45.5,-25.4,-46.4,-26.4
Q -63.0,-46.2,-67.3,-74.7
Q -68.0,-79.0,-68.4,-87.9
Q -68.6,-88.2,-68.7,-88.6
Q -68.9,-89.3,-68.7,-89.9
Q -68.6,-90.2,-68.4,-90.6
Q -68.4,-93.2,-68.4,-95.9
Q -68.4,-98.0,-68.2,-98.1
Q -68.1,-98.1,-68.0,-98.1
Q -67.8,-100.2,-67.5,-102.3
Q -66.1,-115.6,-58.9,-127.0
Q -56.3,-131.1,-54.6,-132.4
Q -52.9,-133.7,-52.4,-135.5
Q -52.3,-135.8,-52.2,-136.1
Q -52.0,-136.8,-51.3,-137.2
Q -51.0,-137.5,-50.7,-137.7
Q -51.3,-138.2,-51.9,-138.8
Q -52.5,-138.1,-53.3,-137.3
Q -57.2,-133.3,-57.8,-133.1
Q -61.5,-131.5,-60.5,-145.6
Q -59.4,-159.5,-61.1,-164.0
Q -61.9,-163.8,-62.7,-163.5
Q -61.8,-158.6,-61.8,-155.9
Q -61.8,-154.8,-61.8,-153.8
Q -61.8,-151.6,-62.0,-151.5
Q -62.1,-151.5,-62.2,-151.5
Q -62.2,-149.2,-62.2,-147.0
Q -62.3,-144.5,-62.5,-144.4
Q -62.6,-144.4,-62.7,-144.4
Q -62.7,-142.1,-62.7,-139.9
Q -62.7,-138.8,-62.7,-137.7
Q -62.7,-136.8,-62.7,-135.9
Q -62.7,-134.1,-62.0,-133.0
Q -61.7,-132.5,-61.3,-131.9
Q -59.5,-131.1,-59.3,-130.6
Q -59.2,-130.4,-59.1,-130.1
Q -62.7,-124.8,-64.2,-121.7
Q -65.0,-120.1,-65.8,-118.6
Q -65.8,-118.1,-65.8,-117.7
Q -68.4,-111.7,-69.3,-105.0
Q -69.6,-103.4,-69.8,-101.7
Q -69.8,-101.2,-69.8,-100.6
Q -69.8,-99.6,-70.0,-99.5
Q -70.1,-99.5,-70.2,-99.5
Q -70.7,-91.5,-70.7,-89.9
Q -70.7,-89.1,-70.7,-88.4
Q -70.7,-87.7,-70.7,-87.0
Q -70.7,-85.4,-70.7,-83.7
Q -70.7,-80.4,-70.4,-79.0
Q -70.3,-78.4,-70.2,-77.7
Q -69.9,-77.8,-69.8,-77.6
Q -69.8,-77.4,-69.8,-75.5
Q -69.8,-74.9,-69.8,-74.4
Q -69.8,-73.2,-69.5,-72.6
Q -69.4,-72.2,-69.3,-71.9
Q -69.1,-71.2,-68.9,-70.6
Q -66.4,-59.4,-62.2,-47.9
Q -61.3,-45.5,-60.4,-43.0
Q -59.7,-41.9,-59.8,-42.1
Q -60.1,-42.5,-60.4,-43.0
Q -57.6,-37.5,-55.0,-33.6
Q -52.2,-29.4,-53.1,-29.5
Q -63.5,-30.8,-75.5,-36.8
Q -94.7,-46.4,-102.0,-57.7
Q -108.0,-66.9,-110.7,-75.0
Q -110.6,-76.7,-110.7,-75.0
Q -99.2,-71.7,-96.1,-69.8
Q -90.3,-66.1,-90.6,-69.7
Q -90.7,-71.6,-96.0,-79.9
Q -96.2,-80.1,-96.4,-80.4
Q -96.8,-80.8,-97.3,-82.1
Q -98.3,-84.1,-99.3,-86.1
Q -109.4,-107.3,-109.3,-121.3
Q -109.1,-133.6,-106.2,-136.0
Q -104.8,-137.2,-100.9,-125.7
Q -96.5,-112.6,-93.2,-112.1
Q -92.0,-111.9,-91.6,-113.7
Q -91.6,-114.8,-91.6,-115.9
Q -92.0,-119.9,-92.8,-122.3
Q -94.1,-125.8,-96.3,-134.2
Q -97.9,-140.5,-98.7,-149.7
Q -99.1,-150.6,-98.7,-151.9
Q -98.7,-152.6,-98.7,-153.2
Q -99.1,-154.1,-98.7,-155.5
Q -98.1,-158.2,-97.7,-159.9
Q -96.7,-164.3,-94.5,-162.9
Q -89.9,-159.8,-87.1,-137.7
Q -85.8,-127.5,-83.6,-127.1
Q -82.2,-126.9,-81.5,-133.0
Q -80.7,-141.3,-79.3,-144.8
Q -78.0,-147.8,-77.6,-143.0
Q -77.4,-141.9,-77.3,-140.8
Q -77.0,-141.0,-76.9,-140.7
Q -76.9,-140.5,-76.9,-132.8
Q -76.8,-131.6,-76.7,-130.5
Q -76.6,-128.1,-75.6,-127.8
Q -74.7,-127.4,-74.5,-128.4
Q -73.1,-135.0,-71.8,-143.0
Q -70.2,-152.1,-66.9,-159.2
Q -66.1,-160.9,-65.3,-162.6
Q -63.8,-164.3,-63.5,-164.4
Q -63.3,-164.4,-63.1,-164.1
Q -62.9,-163.8,-62.7,-163.5
Q -61.9,-163.8,-61.1,-164.0
Q -62.3,-167.3,-64.9,-165.7
Q -70.5,-162.3,-73.8,-143.5
Q -74.2,-140.7,-74.7,-137.9
Q -74.8,-139.0,-74.9,-140.1
Q -75.8,-149.4,-78.8,-148.6
Q -81.9,-147.9,-83.5,-135.0
Q -83.7,-133.4,-83.9,-131.7
Q -84.2,-132.9,-84.4,-134.1
Q -84.8,-136.6,-85.3,-139.9
Q -89.1,-165.4,-95.6,-165.4
Q -100.2,-165.4,-100.8,-154.2
Q -101.4,-142.1,-95.2,-122.1
Q -93.9,-117.9,-93.3,-114.8
Q -95.6,-117.3,-98.9,-126.6
Q -102.0,-135.3,-103.5,-136.9
Q -108.5,-142.4,-110.9,-129.6
Q -114.4,-110.5,-102.6,-87.3
Q -100.8,-83.7,-99.2,-80.6
Q -97.7,-77.5,-95.9,-74.9
Q -94.2,-72.3,-93.6,-70.9
Q -97.5,-73.3,-100.0,-74.6
Q -102.5,-75.8,-105.2,-77.2
Q -118.0,-84.0,-110.0,-67.2
Q -102.0,-50.4,-87.7,-41.1
Q -69.3,-29.2,-54.3,-27.5
Q -50.5,-27.1,-48.3,-24.8
Q -47.1,-23.7,-46.0,-22.6
Q -47.6,-20.9,-48.7,-19.7
Q -48.1,-19.1,-47.6,-18.6
Q -46.6,-19.9,-46.0,-20.3
Q -45.7,-20.6,-45.3,-20.8
 " /> 
<path  
style="fill:rgb(97,247,248)" 
d="M -45.3 -20.8
Q -45.6,-20.5,-45.8,-20.2
Q -46.3,-19.5,-46.9,-19.0
Q -47.2,-18.8,-47.6,-18.6
Q -48.6,-17.2,-49.6,-15.9
Q -56.2,-7.1,-56.7,-1.1
Q -57.0,1.2,-56.3,2.0
Q -53.2,6.2,-39.1,-17.7
Q -34.4,-25.7,-33.0,-25.7
Q -31.9,-25.7,-34.2,-22.3
Q -36.1,-19.6,-35.7,-19.1
Q -34.5,-17.8,-30.9,-16.5
Q -30.4,-16.3,-29.4,-18.9
Q -27.5,-23.6,-26.9,-22.0
Q -26.6,-21.3,-27.8,-18.3
Q -28.9,-15.3,-29.1,-14.6
Q -29.2,-13.9,-30.5,-11.4
Q -35.5,-2.5,-36.3,4.3
Q -36.8,9.1,-34.6,8.9
Q -33.7,8.8,-30.7,7.2
Q -29.3,5.5,-28.0,4.5
Q -25.8,1.4,-23.1,-2.0
Q -20.4,-5.4,-19.6,-6.8
Q -18.8,-8.2,-16.5,-11.0
Q -13.1,-15.0,-12.3,-14.2
Q -11.8,-13.7,-13.0,-12.4
Q -14.1,-11.2,-14.9,-9.9
Q -15.7,-8.6,-16.1,-8.3
Q -16.5,-8.0,-12.9,-7.2
Q -9.3,-6.4,0.0,-5.7
Q 1.8,-5.7,3.6,-5.7
Q 4.9,-5.7,6.2,-5.8
Q 8.8,-5.8,9.3,-6.0
Q 9.5,-6.1,9.8,-6.1
Q 10.9,-6.1,12.0,-6.1
Q 18.2,-7.0,22.8,-8.2
Q 27.3,-9.3,28.6,-9.4
Q 30.3,-9.4,28.4,-13.7
Q 26.9,-16.9,27.2,-17.9
Q 27.5,-19.2,29.4,-15.1
Q 30.8,-12.1,31.8,-9.9
Q 32.8,-7.7,33.8,-4.8
Q 38.0,7.7,40.0,0.2
Q 42.5,-9.5,36.7,-21.1
Q 35.1,-24.1,35.6,-24.6
Q 36.0,-25.0,36.7,-24.1
Q 37.4,-23.3,41.5,-14.7
Q 42.7,-15.7,43.9,-16.7
Q 45.6,-18.2,45.9,-18.8
Q 46.4,-19.9,44.9,-24.0
Q 43.0,-29.7,44.1,-29.7
Q 45.6,-29.7,49.6,-14.6
Q 51.6,-6.8,53.5,-6.8
Q 55.7,-6.8,56.9,-17.7
Q 56.9,-19.9,56.9,-22.1
Q 56.4,-26.1,55.5,-29.1
Q 54.6,-32.1,53.8,-33.7
Q 53.0,-35.3,53.3,-35.8
Q 53.9,-36.9,55.8,-33.2
Q 57.0,-30.8,57.5,-29.4
Q 57.9,-27.9,58.5,-27.9
Q 59.0,-27.9,61.4,-30.7
Q 74.7,-46.1,76.2,-63.3
Q 76.3,-64.7,76.4,-66.1
Q 76.4,-67.2,76.4,-68.4
Q 76.9,-69.7,76.9,-75.5
Q 76.4,-75.3,76.4,-77.0
Q 76.4,-77.0,76.4,-77.0
Q 76.4,-77.8,76.4,-78.6
Q 76.3,-80.6,76.2,-82.6
Q 75.5,-95.8,71.5,-107.7
Q 69.2,-114.5,62.2,-124.4
Q 61.8,-124.7,61.3,-125.0
Q 60.5,-125.7,59.6,-127.0
Q 58.1,-128.1,56.7,-129.2
Q 53.8,-131.5,49.2,-133.7
Q 44.7,-136.0,44.7,-136.7
Q 44.7,-138.3,47.7,-137.0
Q 49.4,-136.3,49.7,-136.6
Q 50.0,-136.8,49.2,-138.9
Q 47.4,-143.7,43.1,-149.7
Q 41.8,-150.6,41.3,-151.3
Q 41.1,-151.6,40.9,-151.9
Q 39.4,-152.9,38.0,-153.9
Q 26.8,-161.7,16.8,-154.7
Q 15.2,-153.5,12.0,-151.0
Q 11.3,-150.1,10.6,-149.4
Q 10.2,-149.1,9.8,-148.8
Q 8.8,-147.3,7.7,-145.8
Q 5.7,-142.7,2.2,-142.9
Q 0.4,-142.9,-1.3,-143.0
Q -3.1,-143.0,-4.9,-143.0
Q -5.3,-143.4,-5.8,-143.7
Q -6.7,-144.4,-7.6,-145.9
Q -8.4,-147.5,-12.4,-152.8
Q -14.2,-154.1,-14.9,-155.0
Q -15.2,-155.5,-15.6,-155.9
Q -23.9,-161.2,-27.3,-161.2
Q -28.1,-161.2,-28.9,-161.2
Q -30.9,-161.2,-32.9,-161.2
Q -37.3,-159.9,-38.8,-158.7
Q -43.1,-155.2,-45.8,-146.9
Q -46.7,-144.1,-46.7,-142.8
Q -46.8,-138.9,-48.4,-139.1
Q -49.0,-139.2,-49.8,-138.4
Q -50.3,-138.1,-50.7,-137.7
Q -51.6,-136.4,-52.0,-135.9
Q -52.2,-135.7,-52.4,-135.5
Q -52.9,-133.7,-54.6,-132.4
Q -56.3,-131.1,-58.9,-127.0
Q -66.1,-115.6,-67.5,-102.3
Q -67.8,-100.2,-68.0,-98.1
Q -68.0,-96.1,-68.2,-96.0
Q -68.3,-96.0,-68.4,-95.9
Q -68.4,-93.2,-68.4,-90.6
Q -68.4,-89.2,-68.4,-87.9
Q -68.0,-79.0,-67.3,-74.7
Q -63.0,-46.2,-46.4,-26.4
Q -45.5,-25.4,-44.6,-24.3
Q -43.5,-25.9,-42.4,-27.5
Q -39.3,-31.9,-38.9,-30.3
Q -38.7,-29.7,-42.0,-25.2
Q -43.7,-23.0,-45.3,-20.8
 " /> 
<path  
style="fill:rgb(4,4,4)" 
d="M 17.8 -18.1
Q 19.8,-16.8,20.6,-16.8
Q 22.3,-16.8,19.9,-18.8
Q 13.1,-24.5,-0.3,-20.4
Q -2.9,-19.6,-2.8,-19.0
Q -2.8,-18.0,2.2,-19.2
Q 12.6,-21.6,17.8,-18.1
 " /> 
<path  
style="fill:rgb(4,4,4)" 
d="M 12.9 -43.3
Q 15.2,-39.0,15.6,-39.0
Q 16.8,-39.0,13.7,-44.9
Q 11.3,-49.3,10.7,-49.6
Q 9.3,-50.1,12.9,-43.3
 " /> 
<path  
style="fill:rgb(4,4,4)" 
d="M -1.2 -40.3
Q -1.4,-39.5,-0.7,-39.5
Q -0.0,-39.5,1.2,-41.8
Q 2.3,-44.1,4.1,-46.6
Q 5.9,-49.1,5.7,-49.9
Q 5.5,-50.7,4.8,-49.9
Q -0.5,-43.2,-1.2,-40.3
 " /> 
<path  
style="fill:rgb(4,4,4)" 
d="M 24.0 -54.1
Q 24.3,-53.9,24.7,-53.7
Q 25.3,-53.2,25.8,-52.6
Q 26.0,-52.2,26.2,-51.9
Q 26.9,-51.5,27.6,-51.0
Q 38.6,-43.6,52.6,-55.2
Q 65.9,-66.3,65.9,-84.8
Q 65.9,-98.3,58.2,-109.6
Q 49.7,-122.1,41.2,-116.9
Q 40.4,-116.4,39.6,-115.9
Q 39.2,-115.5,38.9,-115.0
Q 38.2,-114.2,37.3,-113.5
Q 36.9,-113.1,36.4,-112.8
Q 32.0,-107.0,29.5,-102.2
Q 24.4,-92.1,20.2,-79.9
Q 17.7,-72.6,17.0,-71.3
Q 16.4,-69.9,16.2,-68.8
Q 16.0,-67.7,14.9,-64.4
Q 13.8,-61.1,14.2,-60.6
Q 15.1,-59.7,16.4,-63.4
Q 16.8,-64.6,17.2,-65.8
Q 20.6,-58.6,22.3,-56.4
Q 23.1,-55.2,24.0,-54.1
 " /> 
<path  
style="fill:rgb(115,250,3)" 
d="M 41.3 -114.6
Q 40.8,-113.9,40.2,-113.3
Q 39.1,-111.9,38.0,-111.0
Q 37.4,-110.6,36.9,-110.1
Q 28.9,-97.7,22.7,-80.8
Q 19.5,-72.1,19.2,-70.7
Q 19.0,-69.3,20.7,-65.4
Q 29.9,-43.6,47.8,-55.2
Q 57.8,-61.8,61.4,-72.6
Q 62.6,-76.3,63.6,-81.7
Q 63.6,-84.6,63.6,-87.5
Q 62.8,-87.4,62.0,-87.4
Q 62.1,-80.5,57.9,-72.1
Q 46.9,-50.3,28.9,-60.8
Q 26.5,-62.2,25.7,-62.4
Q 24.9,-62.6,24.6,-64.2
Q 24.1,-67.0,26.0,-69.2
Q 26.6,-69.9,27.1,-70.6
Q 22.8,-71.5,24.4,-72.8
Q 24.9,-73.2,26.7,-72.4
Q 28.4,-72.4,30.2,-72.4
Q 30.6,-72.5,30.9,-72.6
Q 31.6,-72.8,32.7,-73.5
Q 33.2,-73.8,33.8,-74.1
Q 34.2,-74.7,34.7,-75.2
Q 35.6,-76.3,37.8,-78.1
Q 39.1,-80.3,39.8,-81.0
Q 40.1,-81.4,40.4,-81.7
Q 40.0,-82.2,39.5,-82.7
Q 39.5,-82.7,39.4,-82.6
Q 31.3,-75.3,28.8,-77.7
Q 26.4,-80.1,33.5,-92.1
Q 35.3,-95.2,35.4,-96.3
Q 35.6,-100.1,39.8,-104.2
Q 44.0,-108.3,44.0,-106.8
Q 44.0,-106.1,45.0,-105.7
Q 49.2,-104.1,51.2,-94.7
Q 52.1,-90.7,46.7,-87.9
Q 44.8,-86.9,43.0,-85.6
Q 43.3,-85.2,43.6,-84.8
Q 44.4,-85.1,45.3,-85.5
Q 49.4,-87.0,52.7,-80.9
Q 53.9,-78.6,54.3,-78.8
Q 54.7,-79.0,55.6,-82.6
Q 55.6,-85.9,55.6,-89.2
Q 55.3,-90.4,55.1,-91.5
Q 54.7,-93.7,53.3,-98.1
Q 52.8,-98.8,52.3,-99.6
Q 52.1,-100.0,52.0,-100.4
Q 49.8,-104.4,51.1,-104.4
Q 51.3,-104.4,51.7,-104.0
Q 52.0,-103.6,53.8,-100.4
Q 54.2,-99.6,54.6,-98.8
Q 54.7,-98.4,54.9,-98.0
Q 55.3,-98.1,56.6,-98.3
Q 58.6,-98.7,60.0,-95.8
Q 61.9,-91.9,62.0,-87.4
Q 62.8,-87.4,63.6,-87.5
Q 62.7,-93.2,61.5,-96.7
Q 57.6,-108.4,51.4,-113.3
Q 47.6,-116.4,41.3,-114.6
 " /> 
<path  
style="fill:rgb(31,181,0)" 
d="M 41.3 -114.6
Q 40.7,-114.0,40.0,-113.5
Q 38.7,-112.3,37.8,-111.2
Q 37.3,-110.7,36.9,-110.1
Q 37.4,-110.6,38.0,-111.0
Q 39.1,-111.9,40.2,-113.3
Q 40.8,-113.9,41.3,-114.6
 " /> 
<path  
style="fill:rgb(31,181,0)" 
d="M 63.6 -87.5
Q 63.6,-84.6,63.6,-81.7
Q 63.7,-82.5,63.8,-83.2
Q 64.0,-84.8,63.8,-86.1
Q 63.7,-86.8,63.6,-87.5
 " /> 
<path  
style="fill:rgb(115,250,3)" 
d="M 44.4 -83.0
Q 43.8,-82.1,43.1,-81.1
Q 46.0,-81.6,46.8,-81.4
Q 48.8,-80.7,51.3,-76.9
Q 51.8,-77.1,52.4,-77.2
Q 52.0,-77.9,51.5,-78.6
Q 50.6,-79.9,49.8,-82.1
Q 48.5,-83.2,47.1,-83.9
Q 46.6,-83.7,45.5,-83.4
Q 45.0,-83.2,44.4,-83.0
 " /> 
<path  
style="fill:rgb(31,181,0)" 
d="M 44.4 -83.0
Q 39.1,-76.8,36.8,-74.5
Q 34.6,-72.3,32.2,-71.2
Q 29.8,-70.2,27.1,-70.6
Q 26.6,-69.9,26.0,-69.2
Q 24.1,-67.0,24.6,-64.2
Q 24.9,-62.6,25.7,-62.4
Q 26.5,-62.2,28.9,-60.8
Q 46.9,-50.3,57.9,-72.1
Q 62.1,-80.5,62.0,-87.4
Q 61.9,-91.9,60.0,-95.8
Q 58.6,-98.7,56.6,-98.3
Q 55.3,-98.1,54.7,-98.6
Q 54.9,-98.1,55.1,-97.7
Q 58.0,-91.8,57.7,-83.8
Q 57.2,-73.7,52.4,-77.2
Q 54.2,-75.0,53.3,-75.0
Q 52.4,-75.0,51.3,-76.9
Q 51.3,-76.9,51.3,-76.9
Q 48.8,-80.7,46.8,-81.4
Q 46.0,-81.6,43.1,-81.1
Q 43.8,-82.1,44.4,-83.0
 " /> 
<path  
style="fill:rgb(4,4,4)" 
d="M 44.4 -83.0
Q 45.0,-83.2,45.5,-83.4
Q 46.6,-83.7,47.1,-83.9
Q 47.4,-83.9,47.8,-83.9
Q 48.5,-84.0,49.1,-83.1
Q 49.4,-82.6,49.8,-82.1
Q 50.6,-79.9,51.5,-78.6
Q 52.0,-77.9,52.4,-77.2
Q 57.2,-73.7,57.7,-83.8
Q 58.0,-91.8,55.1,-97.7
Q 54.9,-98.1,54.7,-98.6
Q 54.4,-98.7,54.3,-99.0
Q 53.9,-98.4,53.3,-98.1
Q 54.7,-93.7,55.1,-91.5
Q 55.3,-90.4,55.6,-89.2
Q 55.7,-88.4,55.8,-87.5
Q 56.0,-85.7,55.6,-82.6
Q 54.7,-79.0,54.3,-78.8
Q 53.9,-78.6,52.7,-80.9
Q 49.4,-87.0,45.3,-85.5
Q 44.4,-85.1,43.6,-84.8
Q 42.2,-83.0,41.3,-82.4
Q 40.9,-82.0,40.4,-81.7
Q 40.1,-81.4,39.8,-81.0
Q 39.1,-80.3,37.8,-78.1
Q 37.3,-77.6,36.9,-77.0
Q 36.0,-75.9,34.9,-75.0
Q 34.3,-74.6,33.8,-74.1
Q 33.2,-73.8,32.7,-73.5
Q 31.6,-72.8,30.9,-72.6
Q 30.6,-72.5,30.2,-72.4
Q 29.8,-72.2,29.3,-72.1
Q 28.4,-71.9,27.6,-72.1
Q 27.5,-72.1,27.5,-72.1
Q 27.3,-71.3,27.1,-70.6
Q 29.8,-70.2,32.2,-71.2
Q 34.6,-72.3,36.8,-74.5
Q 39.1,-76.8,44.4,-83.0
 " /> 
<path  
style="fill:rgb(4,4,4)" 
d="M 27.1 -70.6
Q 27.3,-71.3,27.5,-72.1
Q 27.1,-72.2,26.7,-72.4
Q 24.9,-73.2,24.4,-72.8
Q 22.8,-71.5,27.1,-70.6
 " /> 
<path  
style="fill:rgb(115,250,3)" 
d="M 52.4 -77.2
Q 51.8,-77.1,51.3,-76.9
Q 51.3,-76.9,51.3,-76.9
Q 52.4,-75.0,53.3,-75.0
Q 54.2,-75.0,52.4,-77.2
 " /> 
<path  
style="fill:rgb(4,4,4)" 
d="M 53.8 -100.4
Q 52.0,-103.6,51.7,-104.0
Q 51.3,-104.4,51.1,-104.4
Q 49.8,-104.4,52.0,-100.4
Q 52.2,-100.3,52.5,-100.1
Q 52.7,-100.1,52.8,-99.9
Q 53.3,-100.1,53.8,-100.4
 " /> 
<path  
style="fill:rgb(115,250,3)" 
d="M 53.8 -100.4
Q 54.0,-99.8,54.3,-99.1
Q 54.3,-99.0,54.4,-98.9
Q 54.5,-98.7,54.7,-98.6
Q 54.5,-98.7,54.6,-98.8
Q 54.2,-99.6,53.8,-100.4
 " /> 
<path  
style="fill:rgb(4,4,4)" 
d="M 53.8 -100.4
Q 53.3,-100.1,52.8,-99.8
Q 53.0,-99.5,53.1,-99.0
Q 53.2,-98.6,53.3,-98.1
Q 53.9,-98.5,54.4,-98.9
Q 54.3,-99.0,54.3,-99.1
Q 54.0,-99.8,53.8,-100.4
 " /> 
<path  
style="fill:rgb(31,181,0)" 
d="M 26.7 -72.4
Q 27.1,-72.2,27.5,-72.1
Q 27.5,-72.1,27.6,-72.1
Q 28.4,-71.9,29.3,-72.1
Q 29.8,-72.2,30.2,-72.4
Q 28.4,-72.4,26.7,-72.4
 " /> 
<path  
style="fill:rgb(31,181,0)" 
d="M 33.8 -74.1
Q 34.3,-74.6,34.9,-75.0
Q 36.0,-75.9,36.9,-77.0
Q 37.3,-77.6,37.8,-78.1
Q 35.6,-76.3,34.7,-75.2
Q 34.2,-74.7,33.8,-74.1
 " /> 
<path  
style="fill:rgb(115,250,3)" 
d="M 40.4 -81.7
Q 40.8,-82.1,41.1,-82.6
Q 41.8,-83.4,42.7,-84.1
Q 43.1,-84.5,43.6,-84.8
Q 43.3,-85.2,43.0,-85.6
Q 41.2,-84.3,39.5,-82.7
Q 40.0,-82.2,40.4,-81.7
 " /> 
<path  
style="fill:rgb(31,181,0)" 
d="M 40.4 -81.7
Q 40.9,-82.0,41.3,-82.4
Q 42.2,-83.0,43.6,-84.8
Q 43.1,-84.5,42.7,-84.1
Q 41.8,-83.4,41.1,-82.6
Q 40.8,-82.1,40.4,-81.7
 " /> 
<path  
style="fill:rgb(31,181,0)" 
d="M 55.6 -82.6
Q 56.0,-85.7,55.8,-87.5
Q 55.7,-88.4,55.6,-89.2
Q 55.6,-85.9,55.6,-82.6
 " /> 
<path  
style="fill:rgb(31,181,0)" 
d="M 53.3 -98.1
Q 53.2,-98.6,53.1,-99.0
Q 53.0,-99.5,52.8,-99.8
Q 52.8,-99.9,52.6,-100.0
Q 52.6,-99.7,52.3,-99.6
Q 52.8,-98.8,53.3,-98.1
 " /> 
<path  
style="fill:rgb(31,181,0)" 
d="M 53.3 -98.1
Q 53.9,-98.4,54.5,-98.7
Q 54.4,-98.9,54.3,-99.1
Q 53.9,-98.5,53.3,-98.1
 " /> 
<path  
style="fill:rgb(31,181,0)" 
d="M 52.0 -100.4
Q 52.1,-100.0,52.3,-99.6
Q 52.6,-99.7,52.8,-99.9
Q 52.7,-100.1,52.5,-100.1
Q 52.2,-100.3,52.0,-100.4
 " /> 
<path  
style="fill:rgb(31,181,0)" 
d="M 49.8 -82.1
Q 49.4,-82.6,49.1,-83.1
Q 48.5,-84.0,47.8,-83.9
Q 47.4,-83.9,47.1,-83.9
Q 48.5,-83.2,49.8,-82.1
 " /> 
<path  
style="fill:rgb(209,251,185)" 
d="M 28.8 -77.7
Q 31.3,-75.3,39.4,-82.6
Q 39.5,-82.7,39.5,-82.7
Q 41.3,-84.3,43.0,-85.6
Q 44.8,-86.9,46.7,-87.9
Q 52.1,-90.7,51.2,-94.7
Q 49.2,-104.1,45.0,-105.7
Q 44.0,-106.1,44.0,-106.8
Q 44.0,-108.3,39.8,-104.2
Q 35.6,-100.1,35.4,-96.3
Q 35.3,-95.2,33.5,-92.1
Q 26.4,-80.1,28.8,-77.7
 " /> 
<path  
style="fill:rgb(7,193,201)" 
d="M 24.0 -54.1
Q 24.2,-53.8,24.5,-53.5
Q 24.9,-52.8,25.6,-52.4
Q 25.9,-52.1,26.2,-51.9
Q 26.0,-52.2,25.8,-52.6
Q 25.3,-53.2,24.7,-53.7
Q 24.3,-53.9,24.0,-54.1
 " /> 
<path  
style="fill:rgb(14,103,171)" 
d="M 36.4 -112.8
Q 36.9,-113.1,37.3,-113.5
Q 38.2,-114.2,38.9,-115.0
Q 39.2,-115.5,39.6,-115.9
Q 39.1,-115.6,38.7,-115.2
Q 37.8,-114.6,36.4,-112.8
 " /> 
<path  
style="fill:rgb(4,4,4)" 
d="M -38.7 -61.2
Q -38.3,-61.0,-38.0,-60.8
Q -37.4,-60.3,-36.9,-59.7
Q -36.7,-59.3,-36.4,-59.0
Q -35.4,-58.1,-34.4,-57.2
Q -26.8,-50.5,-18.6,-51.2
Q -8.0,-52.0,-1.7,-65.4
Q -0.4,-59.7,0.0,-59.1
Q 2.8,-55.4,-2.5,-79.2
Q -8.8,-107.9,-21.4,-118.9
Q -31.1,-127.3,-39.8,-122.9
Q -52.0,-116.7,-51.4,-94.8
Q -50.8,-74.5,-38.7,-61.2
 " /> 
<path  
style="fill:rgb(115,250,3)" 
d="M -38.7 -64.4
Q -35.6,-61.7,-34.5,-60.3
Q -33.9,-59.7,-33.3,-59.0
Q -31.9,-58.1,-30.4,-57.2
Q -22.1,-52.1,-16.0,-54.1
Q -14.2,-54.7,-10.7,-56.8
Q -8.8,-59.0,-7.6,-60.4
Q -3.1,-66.7,-3.0,-70.9
Q -3.0,-72.5,-4.2,-77.9
Q -8.3,-95.7,-14.7,-106.7
Q -16.5,-109.7,-19.1,-113.7
Q -21.3,-115.5,-23.1,-117.7
Q -28.0,-120.8,-30.5,-121.5
Q -35.1,-122.8,-41.3,-119.5
Q -42.0,-118.5,-43.6,-117.2
Q -48.2,-109.5,-48.9,-103.9
Q -49.1,-102.1,-49.3,-100.4
Q -49.3,-96.1,-49.3,-91.9
Q -49.1,-90.1,-48.9,-88.4
Q -47.6,-77.8,-40.4,-67.0
Q -39.5,-65.7,-38.7,-64.4
 " /> 
<path  
style="fill:rgb(4,4,4)" 
d="M -42.2 -103.0
Q -42.2,-99.0,-42.0,-95.8
Q -41.2,-95.9,-40.4,-95.9
Q -40.6,-96.9,-40.7,-97.9
Q -40.9,-99.9,-40.4,-103.5
Q -40.0,-106.6,-39.2,-108.5
Q -38.3,-110.4,-37.5,-111.4
Q -36.8,-112.3,-37.5,-112.6
Q -38.8,-113.1,-40.7,-108.9
Q -41.8,-106.6,-42.2,-103.0
 " /> 
<path  
style="fill:rgb(31,181,0)" 
d="M -42.2 -103.0
Q -42.7,-101.2,-43.5,-101.2
Q -44.9,-101.2,-45.2,-98.5
Q -45.8,-93.1,-43.8,-85.2
Q -39.1,-66.2,-29.6,-60.8
Q -20.2,-55.4,-11.1,-63.7
Q -6.4,-68.0,-7.6,-70.8
Q -8.1,-72.1,-7.1,-72.8
Q -10.4,-71.1,-14.4,-74.2
Q -16.2,-75.6,-17.9,-77.2
Q -22.4,-81.2,-26.5,-79.4
Q -28.4,-78.6,-30.3,-76.6
Q -32.3,-74.5,-33.7,-74.8
Q -36.0,-75.3,-37.9,-78.7
Q -39.7,-82.1,-41.0,-88.3
Q -41.6,-91.3,-42.0,-95.8
Q -42.2,-99.0,-42.2,-103.0
 " /> 
<path  
style="fill:rgb(4,4,4)" 
d="M -7.1 -72.8
Q -7.6,-73.7,-9.0,-73.9
Q -12.0,-74.4,-17.5,-79.5
Q -22.8,-84.4,-24.6,-84.4
Q -27.2,-84.4,-30.7,-79.0
Q -30.9,-78.7,-31.1,-78.4
Q -31.5,-77.9,-32.9,-76.8
Q -33.1,-76.8,-33.3,-76.8
Q -35.1,-77.7,-36.4,-79.5
Q -37.2,-79.1,-37.9,-78.7
Q -36.0,-75.3,-33.7,-74.8
Q -32.3,-74.5,-30.3,-76.6
Q -28.4,-78.6,-26.5,-79.4
Q -26.7,-79.8,-26.8,-80.2
Q -27.2,-80.1,-27.6,-79.9
Q -27.3,-80.4,-27.1,-80.8
Q -26.6,-81.7,-25.6,-82.1
Q -24.7,-82.5,-22.0,-81.1
Q -24.9,-80.8,-26.8,-80.2
Q -26.7,-79.8,-26.5,-79.4
Q -22.4,-81.2,-17.9,-77.2
Q -16.2,-75.6,-14.4,-74.2
Q -10.4,-71.1,-7.1,-72.8
 " /> 
<path  
style="fill:rgb(31,181,0)" 
d="M -40.4 -103.5
Q -40.9,-99.9,-40.7,-97.9
Q -40.6,-96.9,-40.4,-95.9
Q -40.4,-99.7,-40.4,-103.5
 " /> 
<path  
style="fill:rgb(4,4,4)" 
d="M -40.4 -95.9
Q -41.2,-95.9,-42.0,-95.8
Q -41.6,-91.3,-41.0,-88.3
Q -39.7,-82.1,-37.9,-78.7
Q -37.2,-79.1,-36.4,-79.5
Q -36.9,-80.9,-37.3,-82.4
Q -39.2,-88.4,-40.4,-95.9
 " /> 
<path  
style="fill:rgb(31,181,0)" 
d="M -36.4 -79.5
Q -35.1,-77.7,-33.3,-76.8
Q -33.7,-77.1,-34.0,-77.4
Q -34.7,-78.1,-36.4,-79.5
 " /> 
<path  
style="fill:rgb(31,181,0)" 
d="M -32.9 -76.8
Q -31.5,-77.9,-31.1,-78.4
Q -30.9,-78.7,-30.7,-79.0
Q -32.0,-78.1,-32.9,-76.8
 " /> 
<path  
style="fill:rgb(255,255,255)" 
d="M -27.1 -80.8
Q -27.0,-80.5,-26.8,-80.2
Q -24.9,-80.8,-22.0,-81.1
Q -24.7,-82.5,-25.6,-82.1
Q -26.6,-81.7,-27.1,-80.8
 " /> 
<path  
style="fill:rgb(255,255,255)" 
d="M -27.1 -80.8
Q -27.3,-80.4,-27.6,-79.9
Q -27.2,-80.1,-26.8,-80.2
Q -27.0,-80.5,-27.1,-80.8
 " /> 
<path  
style="fill:rgb(209,251,185)" 
d="M -12.5 -81.0
Q -9.8,-79.5,-10.0,-80.9
Q -10.6,-84.9,-18.3,-97.6
Q -25.5,-109.3,-30.8,-103.3
Q -35.3,-98.4,-32.5,-93.0
Q -30.5,-88.9,-25.9,-87.7
Q -20.3,-86.1,-17.1,-83.8
Q -14.5,-82.0,-12.5,-81.0
 " /> 
<path  
style="fill:rgb(31,181,0)" 
d="M -38.7 -64.4
Q -38.0,-63.6,-37.3,-62.8
Q -36.0,-61.3,-34.7,-60.1
Q -34.0,-59.6,-33.3,-59.0
Q -33.9,-59.7,-34.5,-60.3
Q -35.6,-61.7,-38.7,-64.4
 " /> 
<path  
style="fill:rgb(31,181,0)" 
d="M -49.3 -91.9
Q -49.3,-96.1,-49.3,-100.4
Q -49.4,-99.2,-49.6,-98.1
Q -49.8,-95.9,-49.3,-91.9
 " /> 
<path  
style="fill:rgb(31,181,0)" 
d="M -43.6 -117.2
Q -42.0,-118.5,-41.3,-119.5
Q -41.6,-119.2,-42.0,-119.0
Q -42.6,-118.5,-43.6,-117.2
 " /> 
<path  
style="fill:rgb(31,181,0)" 
d="M -23.1 -117.7
Q -21.3,-115.5,-19.1,-113.7
Q -20.9,-115.9,-23.1,-117.7
 " /> 
<path  
style="fill:rgb(31,181,0)" 
d="M -7.6 -60.4
Q -8.8,-59.0,-10.7,-56.8
Q -10.1,-57.2,-9.6,-57.7
Q -8.4,-58.6,-7.6,-60.4
 " /> 
<path  
style="fill:rgb(14,103,171)" 
d="M -38.7 -61.2
Q -38.4,-60.9,-38.2,-60.6
Q -37.8,-59.9,-37.1,-59.5
Q -36.8,-59.2,-36.4,-59.0
Q -36.7,-59.3,-36.9,-59.7
Q -37.4,-60.3,-38.0,-60.8
Q -38.3,-61.0,-38.7,-61.2
 " /> 
<path  
style="fill:rgb(7,193,201)" 
d="M -45.3 -20.8
Q -45.7,-20.6,-46.0,-20.3
Q -46.6,-19.9,-47.6,-18.6
Q -47.2,-18.8,-46.9,-19.0
Q -46.3,-19.5,-45.8,-20.2
Q -45.6,-20.5,-45.3,-20.8
 " /> 
<path  
style="fill:rgb(14,103,171)" 
d="M -68.4 -87.9
Q -68.4,-89.2,-68.4,-90.6
Q -68.6,-90.2,-68.7,-89.9
Q -68.9,-89.3,-68.7,-88.6
Q -68.6,-88.2,-68.4,-87.9
 " /> 
<path  
style="fill:rgb(7,193,201)" 
d="M -68.4 -95.9
Q -68.3,-96.0,-68.2,-96.0
Q -68.0,-96.1,-68.0,-98.1
Q -68.1,-98.1,-68.2,-98.1
Q -68.4,-98.0,-68.4,-95.9
 " /> 
<path  
style="fill:rgb(14,103,171)" 
d="M -52.4 -135.5
Q -52.2,-135.7,-52.0,-135.9
Q -51.6,-136.4,-50.7,-137.7
Q -51.0,-137.5,-51.3,-137.2
Q -52.0,-136.8,-52.2,-136.1
Q -52.3,-135.8,-52.4,-135.5
 " /> 
<path  
style="fill:rgb(7,193,201)" 
d="M -32.9 -161.2
Q -30.9,-161.2,-28.9,-161.2
Q -29.4,-161.4,-30.0,-161.5
Q -31.1,-161.7,-32.9,-161.2
 " /> 
<path  
style="fill:rgb(7,193,201)" 
d="M -15.6 -155.9
Q -15.2,-155.5,-14.9,-155.0
Q -14.2,-154.1,-12.4,-152.8
Q -12.8,-153.2,-13.1,-153.7
Q -13.8,-154.6,-14.7,-155.2
Q -15.1,-155.6,-15.6,-155.9
 " /> 
<path  
style="fill:rgb(14,103,171)" 
d="M -4.9 -143.0
Q -3.1,-143.0,-1.3,-143.0
Q -3.1,-143.5,-4.0,-143.3
Q -4.4,-143.1,-4.9,-143.0
 " /> 
<path  
style="fill:rgb(14,103,171)" 
d="M 9.8 -148.8
Q 10.2,-149.1,10.6,-149.4
Q 11.3,-150.1,12.0,-151.0
Q 11.7,-150.8,11.5,-150.6
Q 10.9,-150.2,10.3,-149.5
Q 10.1,-149.1,9.8,-148.8
 " /> 
<path  
style="fill:rgb(7,193,201)" 
d="M 40.9 -151.9
Q 41.1,-151.6,41.3,-151.3
Q 41.8,-150.6,43.1,-149.7
Q 42.9,-150.0,42.6,-150.3
Q 42.2,-151.0,40.9,-151.9
 " /> 
<path  
style="fill:rgb(14,103,171)" 
d="M 59.6 -127.0
Q 60.5,-125.7,61.3,-125.0
Q 61.8,-124.7,62.2,-124.4
Q 61.9,-124.8,61.5,-125.2
Q 60.9,-126.1,59.6,-127.0
 " /> 
<path  
style="fill:rgb(7,193,201)" 
d="M 76.4 -78.6
Q 76.4,-77.8,76.4,-77.0
Q 76.7,-76.2,76.9,-75.5
Q 76.9,-78.7,76.7,-78.6
Q 76.6,-78.6,76.4,-78.6
 " /> 
<path  
style="fill:rgb(7,193,201)" 
d="M 76.9 -75.5
Q 76.7,-76.2,76.4,-77.0
Q 76.4,-77.0,76.4,-77.0
Q 76.4,-75.3,76.9,-75.5
 " /> 
<path  
style="fill:rgb(14,103,171)" 
d="M 76.4 -68.4
Q 76.4,-67.2,76.4,-66.1
Q 76.6,-66.5,76.7,-66.8
Q 76.9,-67.5,76.7,-67.9
Q 76.6,-68.1,76.4,-68.4
 " /> 
<path  
style="fill:rgb(7,193,201)" 
d="M 56.9 -22.1
Q 56.9,-19.9,56.9,-17.7
Q 57.0,-18.2,57.1,-18.8
Q 57.4,-19.9,56.9,-22.1
 " /> 
<path  
style="fill:rgb(14,103,171)" 
d="M 12.0 -6.1
Q 10.9,-6.1,9.8,-6.1
Q 10.1,-6.0,10.4,-5.9
Q 11.1,-5.6,12.0,-6.1
 " /> 
<path  
style="fill:rgb(14,103,171)" 
d="M 3.6 -5.7
Q 1.8,-5.7,0.0,-5.7
Q 1.8,-5.2,3.6,-5.7
 " /> 
<path  
style="fill:rgb(14,103,171)" 
d="M -28.0 4.5
Q -29.3,5.5,-30.7,7.2
Q -28.9,5.8,-28.5,5.2
Q -28.2,4.9,-28.0,4.5
 " /> 
<path  
style="fill:rgb(4,4,4)" 
d="M -109.3 -76.8
Q -110.5,-76.6,-110.7,-75.0
Q -108.0,-66.9,-102.0,-57.7
Q -94.7,-46.4,-75.5,-36.8
Q -63.5,-30.8,-53.1,-29.5
Q -52.2,-29.4,-55.0,-33.6
Q -57.6,-37.5,-59.6,-41.7
Q -60.7,-41.8,-61.8,-41.9
Q -71.1,-42.8,-85.9,-54.0
Q -92.9,-59.3,-92.9,-60.7
Q -92.9,-61.8,-89.9,-59.0
Q -85.4,-54.8,-77.0,-49.5
Q -68.5,-44.1,-62.9,-43.4
Q -61.7,-43.2,-60.4,-43.0
Q -61.3,-45.5,-62.2,-47.9
Q -66.4,-59.4,-68.9,-70.6
Q -77.5,-74.3,-83.8,-81.6
Q -90.7,-89.8,-90.1,-92.3
Q -90.0,-92.6,-89.9,-93.0
Q -89.3,-91.9,-88.6,-90.8
Q -81.8,-78.6,-69.3,-71.9
Q -69.4,-72.2,-69.5,-72.6
Q -69.8,-73.2,-69.8,-74.4
Q -69.8,-74.9,-69.8,-75.5
Q -70.3,-75.3,-70.3,-76.5
Q -70.3,-76.5,-70.3,-76.5
Q -70.2,-77.1,-70.2,-77.7
Q -70.3,-78.4,-70.4,-79.0
Q -70.7,-80.4,-70.7,-83.7
Q -70.7,-85.4,-70.7,-87.0
Q -75.1,-90.6,-77.6,-94.0
Q -83.7,-102.2,-84.7,-108.9
Q -85.0,-110.6,-84.6,-110.6
Q -84.1,-110.6,-83.4,-107.8
Q -81.6,-101.3,-77.3,-95.6
Q -74.9,-92.4,-70.7,-88.4
Q -70.7,-89.1,-70.7,-89.9
Q -70.7,-91.5,-70.2,-99.5
Q -70.2,-101.5,-69.8,-101.7
Q -69.6,-103.4,-69.3,-105.0
Q -68.4,-111.7,-65.8,-117.7
Q -66.6,-118.8,-67.3,-119.9
Q -68.9,-122.1,-69.1,-124.5
Q -69.7,-131.1,-69.0,-131.3
Q -68.6,-131.5,-68.3,-127.3
Q -68.0,-123.0,-66.9,-120.8
Q -66.3,-119.7,-65.8,-118.6
Q -65.0,-120.1,-64.2,-121.7
Q -62.7,-124.8,-59.1,-130.1
Q -60.4,-131.0,-61.3,-131.9
Q -61.7,-132.5,-62.0,-133.0
Q -62.7,-134.1,-62.7,-135.9
Q -62.7,-136.8,-62.7,-137.7
Q -62.8,-138.0,-62.9,-138.3
Q -63.2,-139.0,-62.7,-139.9
Q -62.7,-142.1,-62.7,-144.4
Q -62.7,-146.8,-62.2,-147.0
Q -62.2,-149.2,-62.2,-151.5
Q -62.2,-154.8,-62.2,-155.3
Q -62.1,-155.7,-61.8,-155.9
Q -61.8,-158.6,-62.7,-163.5
Q -63.6,-164.2,-64.4,-163.4
Q -64.9,-163.0,-65.3,-162.6
Q -66.1,-160.9,-66.9,-159.2
Q -70.2,-152.1,-71.8,-143.0
Q -73.1,-135.0,-74.5,-128.4
Q -74.7,-127.4,-75.6,-127.8
Q -76.6,-128.1,-76.7,-130.5
Q -76.8,-131.6,-76.9,-132.8
Q -77.3,-132.7,-77.3,-132.9
Q -77.4,-133.2,-77.3,-140.8
Q -77.4,-141.9,-77.6,-143.0
Q -78.0,-147.8,-79.3,-144.8
Q -80.7,-141.3,-81.5,-133.0
Q -82.2,-126.9,-83.6,-127.1
Q -85.8,-127.5,-87.1,-137.7
Q -89.9,-159.8,-94.5,-162.9
Q -96.7,-164.3,-97.7,-159.9
Q -98.1,-158.2,-98.7,-155.5
Q -98.7,-154.4,-98.7,-153.2
Q -98.7,-152.6,-98.7,-151.9
Q -98.7,-150.8,-98.7,-149.7
Q -97.9,-140.5,-96.3,-134.2
Q -94.1,-125.8,-92.8,-122.3
Q -92.0,-119.9,-91.6,-115.9
Q -91.4,-115.6,-91.3,-115.3
Q -91.0,-114.6,-91.6,-113.7
Q -92.0,-111.9,-93.2,-112.1
Q -96.5,-112.6,-100.9,-125.7
Q -104.8,-137.2,-106.2,-136.0
Q -109.1,-133.6,-109.3,-121.3
Q -109.4,-107.3,-99.3,-86.1
Q -98.3,-84.1,-97.3,-82.1
Q -97.1,-82.0,-96.9,-81.9
Q -96.4,-81.7,-96.2,-80.8
Q -96.1,-80.4,-96.0,-79.9
Q -90.7,-71.6,-90.6,-69.7
Q -90.3,-66.1,-96.1,-69.8
Q -99.2,-71.7,-109.3,-76.8
 " /> 
<path  
style="fill:rgb(97,247,248)" 
d="M -71.9 -105.0
Q -70.0,-102.9,-69.9,-103.7
Q -69.7,-104.5,-71.5,-106.3
Q -75.1,-110.1,-77.3,-116.2
Q -78.6,-119.6,-79.1,-119.8
Q -80.1,-120.2,-77.7,-114.3
Q -75.5,-108.8,-71.9,-105.0
 " /> 
<path  
style="fill:rgb(14,103,171)" 
d="M -96.0 -79.9
Q -96.1,-80.4,-96.2,-80.8
Q -96.4,-81.7,-96.9,-81.9
Q -97.1,-82.0,-97.3,-82.1
Q -96.8,-80.8,-96.4,-80.4
Q -96.2,-80.1,-96.0,-79.9
 " /> 
<path  
style="fill:rgb(14,103,171)" 
d="M -91.6 -113.7
Q -91.0,-114.6,-91.3,-115.3
Q -91.4,-115.6,-91.6,-115.9
Q -91.6,-114.8,-91.6,-113.7
 " /> 
<path  
style="fill:rgb(14,103,171)" 
d="M -98.7 -149.7
Q -98.7,-150.8,-98.7,-151.9
Q -99.1,-150.6,-98.7,-149.7
 " /> 
<path  
style="fill:rgb(14,103,171)" 
d="M -98.7 -153.2
Q -98.7,-154.4,-98.7,-155.5
Q -99.1,-154.1,-98.7,-153.2
 " /> 
<path  
style="fill:rgb(14,103,171)" 
d="M -77.3 -140.8
Q -77.4,-133.2,-77.3,-132.9
Q -77.3,-132.7,-76.9,-132.8
Q -76.9,-140.5,-76.9,-140.7
Q -77.0,-141.0,-77.3,-140.8
 " /> 
<path  
style="fill:rgb(14,103,171)" 
d="M -65.3 -162.6
Q -64.9,-163.0,-64.4,-163.4
Q -63.6,-164.2,-62.7,-163.5
Q -62.9,-163.8,-63.1,-164.1
Q -63.3,-164.4,-63.5,-164.4
Q -63.8,-164.3,-65.3,-162.6
 " /> 
<path  
style="fill:rgb(14,103,171)" 
d="M -61.8 -155.9
Q -62.1,-155.7,-62.2,-155.3
Q -62.2,-154.8,-62.2,-151.5
Q -62.1,-151.5,-62.0,-151.5
Q -61.8,-151.6,-61.8,-153.8
Q -61.8,-154.8,-61.8,-155.9
 " /> 
<path  
style="fill:rgb(14,103,171)" 
d="M -62.2 -147.0
Q -62.7,-146.8,-62.7,-144.4
Q -62.6,-144.4,-62.5,-144.4
Q -62.3,-144.5,-62.2,-147.0
 " /> 
<path  
style="fill:rgb(14,103,171)" 
d="M -62.7 -139.9
Q -63.2,-139.0,-62.9,-138.3
Q -62.8,-138.0,-62.7,-137.7
Q -62.7,-138.8,-62.7,-139.9
 " /> 
<path  
style="fill:rgb(14,103,171)" 
d="M -61.3 -131.9
Q -60.4,-131.0,-59.1,-130.1
Q -59.2,-130.4,-59.3,-130.6
Q -59.5,-131.1,-61.3,-131.9
 " /> 
<path  
style="fill:rgb(97,247,248)" 
d="M -65.8 -118.6
Q -66.3,-119.7,-66.9,-120.8
Q -68.0,-123.0,-68.3,-127.3
Q -68.6,-131.5,-69.0,-131.3
Q -69.7,-131.1,-69.1,-124.5
Q -68.9,-122.1,-67.3,-119.9
Q -66.6,-118.8,-65.8,-117.7
Q -65.8,-118.1,-65.8,-118.6
 " /> 
<path  
style="fill:rgb(14,103,171)" 
d="M -69.8 -101.7
Q -70.2,-101.5,-70.2,-99.5
Q -70.1,-99.5,-70.0,-99.5
Q -69.8,-99.6,-69.8,-100.6
Q -69.8,-101.2,-69.8,-101.7
 " /> 
<path  
style="fill:rgb(97,247,248)" 
d="M -70.7 -88.4
Q -74.9,-92.4,-77.3,-95.6
Q -81.6,-101.3,-83.4,-107.8
Q -84.1,-110.6,-84.6,-110.6
Q -85.0,-110.6,-84.7,-108.9
Q -83.7,-102.2,-77.6,-94.0
Q -75.1,-90.6,-70.7,-87.0
Q -70.7,-87.7,-70.7,-88.4
 " /> 
<path  
style="fill:rgb(14,103,171)" 
d="M -70.2 -77.7
Q -70.2,-77.1,-70.3,-76.5
Q -70.0,-76.0,-69.8,-75.5
Q -69.8,-77.4,-69.8,-77.6
Q -69.9,-77.8,-70.2,-77.7
 " /> 
<path  
style="fill:rgb(14,103,171)" 
d="M -69.8 -75.5
Q -70.0,-76.0,-70.3,-76.5
Q -70.3,-76.5,-70.3,-76.5
Q -70.3,-75.3,-69.8,-75.5
 " /> 
<path  
style="fill:rgb(4,4,4)" 
d="M -69.3 -71.9
Q -69.3,-71.7,-69.4,-71.5
Q -69.4,-71.0,-69.1,-70.8
Q -69.0,-70.7,-68.9,-70.6
Q -69.1,-71.2,-69.3,-71.9
 " /> 
<path  
style="fill:rgb(97,247,248)" 
d="M -69.3 -71.9
Q -81.8,-78.6,-88.6,-90.8
Q -89.3,-91.9,-89.9,-93.0
Q -90.0,-92.6,-90.1,-92.3
Q -90.7,-89.8,-83.8,-81.6
Q -77.5,-74.3,-68.9,-70.6
Q -69.0,-70.7,-69.1,-70.8
Q -69.4,-71.0,-69.4,-71.5
Q -69.3,-71.7,-69.3,-71.9
 " /> 
<path  
style="fill:rgb(97,247,248)" 
d="M -60.4 -43.0
Q -61.7,-43.2,-62.9,-43.4
Q -68.5,-44.1,-77.0,-49.5
Q -85.4,-54.8,-89.9,-59.0
Q -92.9,-61.8,-92.9,-60.7
Q -92.9,-59.3,-85.9,-54.0
Q -71.1,-42.8,-61.8,-41.9
Q -60.7,-41.8,-59.6,-41.7
Q -60.0,-42.4,-60.4,-43.0
 " /> 
<path  
style="fill:rgb(14,103,171)" 
d="M -14.7 -157.7
Q -14.1,-157.0,-13.5,-156.4
Q -12.4,-155.0,-10.2,-153.2
Q -10.7,-153.8,-11.1,-154.3
Q -12.0,-155.4,-13.3,-156.6
Q -14.0,-157.1,-14.7,-157.7
 " /> 
<path  
style="fill:rgb(7,193,201)" 
d="M -14.7 -157.7
Q -14.0,-157.1,-13.3,-156.6
Q -12.0,-155.4,-11.1,-154.3
Q -10.7,-153.8,-10.2,-153.2
Q -9.4,-152.2,-8.7,-151.2
Q -7.1,-149.2,-5.7,-147.0
Q -4.4,-144.8,-2.1,-144.8
Q 0.2,-144.8,2.4,-144.6
Q 4.7,-144.3,6.6,-147.2
Q 7.5,-148.5,8.5,-149.8
Q 11.8,-153.8,16.7,-157.6
Q 20.8,-160.7,25.5,-177.6
Q 26.6,-181.5,27.2,-186.8
Q 23.4,-182.8,18.4,-170.6
Q 16.2,-165.3,15.6,-166.3
Q 15.1,-167.3,17.3,-173.0
Q 19.5,-178.7,16.6,-181.3
Q 13.6,-183.9,12.2,-181.2
Q 11.6,-180.1,10.2,-175.1
Q 8.8,-170.1,8.1,-170.3
Q 7.0,-170.6,8.4,-175.5
Q 10.2,-181.7,9.5,-181.7
Q 8.9,-181.7,8.9,-182.3
Q 8.9,-182.9,9.8,-183.5
Q 11.0,-184.4,12.9,-195.9
Q 12.2,-196.2,11.6,-196.5
Q 11.1,-195.3,10.7,-194.0
Q 9.8,-191.2,9.4,-189.0
Q 7.1,-177.9,5.9,-179.7
Q 5.7,-179.9,6.0,-181.4
Q 6.3,-183.4,7.1,-187.5
Q 7.1,-189.0,7.1,-190.6
Q 6.2,-194.1,5.3,-195.8
Q 4.3,-197.4,3.2,-198.7
Q 2.1,-199.9,1.9,-199.8
Q 1.7,-199.7,1.8,-194.6
Q 2.2,-194.7,2.2,-194.4
Q 2.3,-194.2,2.2,-190.1
Q 2.2,-188.1,2.2,-186.1
Q 2.3,-185.8,2.5,-185.5
Q 2.7,-184.8,2.2,-183.5
Q 2.2,-183.2,2.2,-183.0
Q 2.2,-182.4,2.2,-181.7
Q 2.3,-180.9,2.4,-180.1
Q 2.7,-178.6,2.4,-178.3
Q 2.1,-178.0,0.9,-178.6
Q 0.9,-180.1,0.9,-181.7
Q 0.9,-182.4,0.9,-183.0
Q 0.8,-183.0,0.6,-182.9
Q 0.4,-182.9,0.4,-188.8
Q 0.4,-190.4,0.4,-191.9
Q 0.1,-191.8,0.0,-192.0
Q -0.0,-192.3,0.0,-194.1
Q -1.3,-205.7,-1.8,-208.0
Q -3.8,-217.7,-5.1,-217.7
Q -7.2,-217.7,-6.9,-203.9
Q -6.8,-198.8,-6.7,-193.7
Q -6.3,-193.8,-6.2,-193.6
Q -6.2,-193.3,-6.2,-191.5
Q -6.2,-190.6,-6.2,-189.7
Q -6.1,-189.7,-6.0,-189.8
Q -5.7,-189.8,-5.8,-186.6
Q -5.8,-185.7,-5.8,-184.8
Q -5.3,-185.0,-5.3,-183.3
Q -5.3,-183.3,-5.3,-183.3
Q -5.3,-182.5,-5.3,-181.7
Q -5.3,-179.9,-6.0,-180.1
Q -6.7,-180.2,-7.1,-183.5
Q -7.2,-183.4,-7.4,-183.4
Q -7.6,-183.3,-7.6,-184.7
Q -7.6,-184.7,-7.6,-184.7
Q -7.6,-185.4,-7.6,-186.1
Q -7.6,-187.0,-7.6,-187.9
Q -7.7,-187.9,-7.8,-187.8
Q -7.9,-187.8,-8.0,-188.0
Q -8.0,-188.3,-8.0,-190.1
Q -8.1,-190.6,-8.2,-191.0
Q -8.4,-191.9,-8.4,-194.1
Q -8.4,-195.2,-8.4,-196.4
Q -8.8,-196.2,-8.9,-196.5
Q -8.9,-196.7,-8.9,-199.5
Q -10.6,-198.1,-11.6,-195.5
Q -11.6,-193.7,-11.6,-191.9
Q -11.2,-190.5,-10.9,-189.0
Q -10.2,-186.1,-9.3,-183.0
Q -8.4,-179.8,-8.9,-179.3
Q -9.3,-178.8,-9.7,-179.3
Q -10.1,-179.7,-11.5,-184.1
Q -15.9,-197.5,-16.9,-198.7
Q -17.0,-198.8,-17.2,-199.0
Q -17.0,-197.6,-16.8,-196.2
Q -16.5,-193.5,-15.8,-190.4
Q -15.1,-187.2,-14.4,-184.1
Q -13.3,-178.3,-11.5,-172.6
Q -10.2,-168.1,-10.7,-167.2
Q -11.8,-165.3,-15.8,-181.5
Q -16.4,-184.0,-17.0,-186.5
Q -21.6,-184.2,-21.5,-182.4
Q -21.5,-180.8,-17.7,-174.8
Q -10.0,-162.8,-12.0,-163.6
Q -13.5,-164.2,-19.4,-173.9
Q -21.9,-177.9,-23.7,-180.8
Q -25.4,-183.7,-27.0,-186.7
Q -30.6,-193.7,-31.3,-193.7
Q -31.6,-193.6,-31.8,-192.3
Q -31.9,-191.7,-32.0,-191.0
Q -31.9,-191.1,-31.7,-191.1
Q -31.5,-191.2,-31.5,-190.0
Q -31.5,-190.0,-31.5,-190.0
Q -31.5,-189.4,-31.6,-188.8
Q -30.4,-180.9,-28.7,-174.5
Q -25.7,-163.3,-20.5,-161.4
Q -18.1,-160.5,-14.7,-157.7
 " /> 
<path  
style="fill:rgb(14,103,171)" 
d="M -31.6 -188.8
Q -31.5,-189.4,-31.5,-190.0
Q -31.8,-190.5,-32.0,-191.0
Q -32.0,-189.1,-31.9,-188.9
Q -31.9,-188.6,-31.6,-188.8
 " /> 
<path  
style="fill:rgb(14,103,171)" 
d="M -32.0 -191.0
Q -31.8,-190.5,-31.5,-190.0
Q -31.5,-190.0,-31.5,-190.0
Q -31.5,-191.2,-31.7,-191.1
Q -31.9,-191.1,-32.0,-191.0
 " /> 
<path  
style="fill:rgb(14,103,171)" 
d="M -11.6 -191.9
Q -11.6,-193.7,-11.6,-195.5
Q -12.0,-193.7,-11.6,-191.9
 " /> 
<path  
style="fill:rgb(14,103,171)" 
d="M -8.9 -199.5
Q -8.9,-196.7,-8.9,-196.5
Q -8.8,-196.2,-8.4,-196.4
Q -8.4,-197.2,-8.4,-198.0
Q -8.4,-199.2,-8.5,-199.4
Q -8.6,-199.6,-8.9,-199.5
 " /> 
<path  
style="fill:rgb(14,103,171)" 
d="M -8.0 -190.1
Q -8.0,-188.3,-8.0,-188.0
Q -7.9,-187.8,-7.8,-187.8
Q -7.7,-187.9,-7.6,-187.9
Q -7.6,-188.5,-7.6,-189.1
Q -7.6,-189.4,-7.6,-189.6
Q -7.6,-190.3,-8.0,-190.1
 " /> 
<path  
style="fill:rgb(4,4,4)" 
d="M -7.6 -187.9
Q -6.9,-187.9,-6.2,-187.9
Q -6.2,-188.0,-6.2,-188.0
Q -6.2,-188.9,-6.2,-189.7
Q -6.9,-189.6,-7.6,-189.6
Q -7.6,-189.4,-7.6,-189.1
Q -7.6,-188.5,-7.6,-187.9
 " /> 
<path  
style="fill:rgb(4,4,4)" 
d="M -7.6 -187.9
Q -7.6,-187.0,-7.6,-186.1
Q -7.5,-186.1,-7.5,-186.2
Q -6.8,-186.4,-6.1,-186.7
Q -6.2,-187.1,-6.2,-188.0
Q -6.9,-187.9,-7.6,-187.9
 " /> 
<path  
style="fill:rgb(14,103,171)" 
d="M -7.6 -186.1
Q -7.6,-185.4,-7.6,-184.7
Q -7.3,-184.1,-7.1,-183.5
Q -7.1,-184.1,-7.1,-184.8
Q -7.1,-184.9,-7.1,-184.9
Q -7.1,-185.7,-7.2,-186.0
Q -7.3,-186.2,-7.5,-186.1
Q -7.5,-186.1,-7.6,-186.1
 " /> 
<path  
style="fill:rgb(4,4,4)" 
d="M -7.1 -183.5
Q -6.4,-183.5,-5.8,-183.5
Q -5.8,-184.0,-5.8,-184.8
Q -6.4,-184.8,-7.1,-184.8
Q -7.1,-184.1,-7.1,-183.5
 " /> 
<path  
style="fill:rgb(4,4,4)" 
d="M -7.1 -183.5
Q -6.7,-180.2,-6.0,-180.1
Q -5.3,-179.9,-5.3,-181.7
Q -5.7,-181.5,-5.7,-181.8
Q -5.8,-181.9,-5.8,-183.5
Q -6.4,-183.5,-7.1,-183.5
 " /> 
<path  
style="fill:rgb(14,103,171)" 
d="M -7.1 -183.5
Q -7.3,-184.1,-7.6,-184.7
Q -7.6,-184.7,-7.6,-184.7
Q -7.6,-183.3,-7.4,-183.4
Q -7.2,-183.4,-7.1,-183.5
 " /> 
<path  
style="fill:rgb(14,103,171)" 
d="M -5.3 -181.7
Q -5.3,-182.5,-5.3,-183.3
Q -5.5,-184.1,-5.8,-184.8
Q -5.8,-184.0,-5.8,-183.5
Q -5.8,-181.9,-5.7,-181.8
Q -5.7,-181.5,-5.3,-181.7
 " /> 
<path  
style="fill:rgb(4,4,4)" 
d="M -5.8 -184.8
Q -5.8,-185.7,-5.8,-186.6
Q -5.8,-186.6,-5.8,-186.6
Q -6.5,-186.3,-7.2,-186.0
Q -7.1,-185.7,-7.1,-184.9
Q -7.1,-184.9,-7.1,-184.8
Q -6.4,-184.8,-5.8,-184.8
 " /> 
<path  
style="fill:rgb(14,103,171)" 
d="M -5.8 -184.8
Q -5.5,-184.1,-5.3,-183.3
Q -5.3,-183.3,-5.3,-183.3
Q -5.3,-185.0,-5.8,-184.8
 " /> 
<path  
style="fill:rgb(14,103,171)" 
d="M -5.8 -186.6
Q -5.7,-189.8,-6.0,-189.8
Q -6.1,-189.7,-6.2,-189.7
Q -6.2,-188.9,-6.2,-188.0
Q -6.2,-188.0,-6.2,-187.9
Q -6.2,-187.0,-6.1,-186.7
Q -6.0,-186.5,-5.8,-186.6
Q -5.8,-186.6,-5.8,-186.6
 " /> 
<path  
style="fill:rgb(14,103,171)" 
d="M -6.2 -191.5
Q -6.2,-193.3,-6.2,-193.6
Q -6.3,-193.8,-6.7,-193.7
Q -6.7,-191.8,-6.6,-191.5
Q -6.6,-191.3,-6.2,-191.5
 " /> 
<path  
style="fill:rgb(14,103,171)" 
d="M 0.0 -194.1
Q -0.0,-192.3,0.0,-192.0
Q 0.1,-191.8,0.4,-191.9
Q 0.4,-193.8,0.4,-194.1
Q 0.4,-194.1,0.4,-194.1
Q 0.3,-194.3,0.0,-194.1
 " /> 
<path  
style="fill:rgb(4,4,4)" 
d="M 0.4 -191.9
Q 1.1,-191.9,1.8,-191.9
Q 1.8,-192.9,1.8,-194.6
Q 1.1,-194.3,0.4,-194.1
Q 0.4,-194.1,0.4,-194.1
Q 0.4,-193.8,0.4,-191.9
 " /> 
<path  
style="fill:rgb(4,4,4)" 
d="M 0.4 -191.9
Q 0.4,-190.4,0.4,-188.8
Q 0.8,-189.0,0.8,-188.7
Q 0.9,-188.5,0.9,-186.1
Q 1.6,-186.1,2.2,-186.1
Q 2.2,-188.1,2.2,-190.1
Q 1.9,-190.0,1.8,-190.2
Q 1.8,-190.3,1.8,-191.9
Q 1.1,-191.9,0.4,-191.9
 " /> 
<path  
style="fill:rgb(14,103,171)" 
d="M 0.4 -188.8
Q 0.4,-182.9,0.6,-182.9
Q 0.8,-183.0,0.9,-183.0
Q 0.9,-184.5,0.9,-186.0
Q 0.9,-186.1,0.9,-186.1
Q 0.9,-188.5,0.8,-188.7
Q 0.8,-189.0,0.4,-188.8
 " /> 
<path  
style="fill:rgb(4,4,4)" 
d="M 0.9 -183.0
Q 1.6,-183.2,2.2,-183.5
Q 2.2,-184.8,2.2,-186.1
Q 1.6,-186.1,0.9,-186.1
Q 0.9,-186.1,0.9,-186.0
Q 0.9,-184.5,0.9,-183.0
 " /> 
<path  
style="fill:rgb(4,4,4)" 
d="M 0.9 -183.0
Q 1.6,-183.0,2.2,-183.0
Q 2.2,-183.2,2.2,-183.5
Q 1.6,-183.2,0.9,-183.0
 " /> 
<path  
style="fill:rgb(4,4,4)" 
d="M 0.9 -183.0
Q 0.9,-182.4,0.9,-181.7
Q 1.6,-181.7,2.2,-181.7
Q 2.2,-182.4,2.2,-183.0
Q 1.6,-183.0,0.9,-183.0
 " /> 
<path  
style="fill:rgb(4,4,4)" 
d="M 0.9 -178.6
Q 2.0,-178.4,2.1,-180.0
Q 2.2,-180.9,2.2,-181.7
Q 1.6,-181.7,0.9,-181.7
Q 0.9,-180.1,0.9,-178.6
 " /> 
<path  
style="fill:rgb(14,103,171)" 
d="M 0.9 -178.6
Q 2.1,-178.0,2.4,-178.3
Q 2.7,-178.6,2.4,-180.1
Q 2.3,-180.9,2.2,-181.7
Q 2.2,-180.9,2.1,-180.0
Q 2.0,-178.4,0.9,-178.6
 " /> 
<path  
style="fill:rgb(14,103,171)" 
d="M 2.2 -183.5
Q 2.7,-184.8,2.5,-185.5
Q 2.3,-185.8,2.2,-186.1
Q 2.2,-184.8,2.2,-183.5
 " /> 
<path  
style="fill:rgb(14,103,171)" 
d="M 2.2 -190.1
Q 2.3,-194.2,2.2,-194.4
Q 2.2,-194.7,1.8,-194.6
Q 1.8,-192.9,1.8,-191.9
Q 1.8,-190.3,1.8,-190.2
Q 1.9,-190.0,2.2,-190.1
 " /> 
<path  
style="fill:rgb(14,103,171)" 
d="M 7.1 -190.6
Q 7.1,-189.0,7.1,-187.5
Q 7.2,-187.9,7.3,-188.4
Q 7.6,-189.2,7.1,-190.6
 " /> 
<path  
style="fill:rgb(14,103,171)" 
d="M 12.9 -199.0
Q 12.9,-197.5,12.9,-195.9
Q 13.0,-196.4,13.1,-196.8
Q 13.4,-197.7,13.1,-198.4
Q 13.0,-198.7,12.9,-199.0
 " /> 
<path  
style="fill:rgb(7,193,201)" 
d="M 12.9 -199.0
Q 12.2,-197.8,11.6,-196.5
Q 12.2,-196.2,12.9,-195.9
Q 12.9,-197.5,12.9,-199.0
 " /> 
<path  
style="fill:rgb(4,4,4)" 
d="M -6.1 -186.7
Q -6.8,-186.4,-7.5,-186.2
Q -7.3,-186.2,-7.2,-185.9
Q -6.5,-186.3,-5.8,-186.6
Q -6.0,-186.5,-6.1,-186.8
 " /> 
</g> 
</svg> 
