<?xml version="1.0"?>
<!DOCTYPE svg PUBLIC "-//W3C//DTD SVG 1.1//EN" "http://www.w3.org/Graphics/SVG/1.1/DTD/svg11.dtd">
<svg xmlns="http://www.w3.org/2000/svg" version="1.1">
<g transform="translate(112.0,227.1)" stroke-width="0" fill="none" >
<path  
style="fill:rgb(4,4,4)" 
d="M 6.4 220.3
Q 6.6,221.1,8.1,221.1
Q 10.2,221.1,12.9,218.5
Q 16.9,214.5,22.9,209.8
Q 25.0,208.1,26.8,206.5
Q 28.6,205.0,30.2,203.6
Q 34.8,199.6,42.4,192.0
Q 51.2,183.3,53.9,179.6
Q 55.2,177.8,56.0,176.9
Q 57.9,174.5,62.0,167.4
Q 71.0,151.7,65.8,136.9
Q 63.2,129.5,52.0,117.3
Q 43.6,108.2,40.5,101.3
Q 36.8,93.3,36.3,80.9
Q 36.1,78.7,36.0,76.6
Q 36.5,77.0,37.0,77.4
Q 41.1,81.1,49.9,81.1
Q 53.3,81.1,53.6,80.7
Q 53.8,80.2,54.8,80.2
Q 55.8,80.2,57.7,78.6
Q 65.9,71.6,61.3,57.1
Q 58.5,48.3,48.2,29.8
Q 37.3,10.1,31.5,-5.5
Q 29.7,-10.2,28.5,-12.1
Q 27.2,-13.9,27.9,-14.1
Q 30.6,-14.9,32.0,-14.1
Q 32.6,-13.7,34.2,-10.4
Q 39.4,0.5,43.1,-4.2
Q 45.8,-7.7,44.3,-16.5
Q 43.7,-20.2,46.0,-22.5
Q 47.2,-23.6,48.3,-24.7
Q 48.8,-23.4,49.3,-22.1
Q 52.7,-13.6,56.0,-13.6
Q 58.6,-13.6,59.6,-17.1
Q 61.3,-23.6,60.0,-30.3
Q 59.5,-33.3,62.0,-35.8
Q 64.6,-38.4,67.5,-38.7
Q 70.4,-39.0,73.5,-39.8
Q 87.6,-43.8,93.1,-48.2
Q 94.1,-48.9,97.2,-51.3
Q 105.5,-57.4,109.5,-65.4
Q 114.5,-75.3,109.8,-75.3
Q 107.5,-75.3,104.5,-72.3
Q 99.7,-67.4,100.2,-69.3
Q 100.7,-71.3,103.4,-77.1
Q 104.7,-80.0,108.8,-86.0
Q 122.7,-106.9,122.1,-118.6
Q 122.0,-121.7,120.7,-122.6
Q 117.5,-125.1,110.6,-115.3
Q 108.7,-112.7,108.6,-112.8
Q 108.5,-112.9,110.7,-119.3
Q 115.0,-131.7,116.0,-139.6
Q 118.4,-157.8,112.4,-162.5
Q 107.9,-166.0,101.9,-149.1
Q 97.8,-137.6,97.3,-137.6
Q 96.6,-137.6,93.6,-146.6
Q 87.5,-164.8,80.3,-167.6
Q 74.5,-169.7,74.8,-155.0
Q 74.9,-147.9,74.3,-147.3
Q 73.5,-146.4,68.5,-151.0
Q 65.7,-153.6,65.0,-153.4
Q 62.4,-152.8,63.8,-149.6
Q 66.4,-143.5,65.8,-143.1
Q 65.2,-142.7,59.4,-147.6
Q 57.6,-149.1,56.4,-149.1
Q 53.9,-149.1,55.4,-145.1
Q 56.4,-142.3,55.2,-141.6
Q 52.5,-140.1,51.1,-141.0
Q 50.5,-141.4,49.9,-144.2
Q 46.3,-161.6,31.3,-166.6
Q 27.7,-167.8,21.5,-167.5
Q 22.2,-169.6,22.9,-171.8
Q 29.8,-191.9,27.7,-196.2
Q 26.2,-199.2,23.6,-195.9
Q 21.0,-192.4,19.8,-188.9
Q 19.5,-188.0,18.0,-189.8
Q 16.4,-191.7,14.2,-192.2
Q 11.9,-192.8,12.2,-194.6
Q 14.8,-212.6,10.8,-210.2
Q 8.8,-208.9,6.8,-201.1
Q 6.4,-202.0,6.0,-203.0
Q 5.5,-204.1,4.9,-205.1
Q 4.2,-204.6,3.6,-204.2
Q 6.4,-198.3,5.3,-191.2
Q 4.6,-186.3,6.1,-187.2
Q 6.6,-187.6,7.7,-194.4
Q 10.1,-208.4,11.0,-207.0
Q 11.1,-206.8,11.1,-201.1
Q 11.1,-200.6,11.1,-200.1
Q 11.0,-199.0,10.7,-198.9
Q 10.0,-193.2,9.7,-192.5
Q 9.4,-191.8,8.9,-191.5
Q 8.0,-190.8,8.0,-190.2
Q 8.0,-189.6,8.7,-189.6
Q 9.5,-189.6,7.9,-183.8
Q 6.5,-178.4,7.6,-178.2
Q 8.4,-177.9,10.0,-184.2
Q 11.6,-190.4,13.1,-190.4
Q 15.9,-190.4,17.5,-187.0
Q 18.3,-185.3,16.9,-181.1
Q 14.8,-174.8,15.2,-174.2
Q 16.1,-172.9,18.0,-178.5
Q 21.8,-189.5,23.8,-192.7
Q 24.3,-193.6,24.9,-194.4
Q 25.1,-194.6,25.4,-194.8
Q 26.3,-195.7,26.0,-193.1
Q 25.9,-192.2,25.8,-191.3
Q 25.7,-190.3,25.5,-189.3
Q 25.3,-187.3,24.6,-184.8
Q 21.7,-173.6,19.6,-168.9
Q 19.1,-167.9,18.7,-166.9
Q 18.4,-166.5,18.1,-166.2
Q 17.6,-165.5,17.0,-165.1
Q 16.7,-164.9,16.4,-164.7
Q 15.4,-163.9,14.3,-163.2
Q 13.2,-162.4,12.2,-161.5
Q 12.8,-160.8,13.3,-160.2
Q 21.7,-165.6,24.9,-165.6
Q 32.7,-165.6,38.9,-160.2
Q 39.7,-159.6,40.4,-158.9
Q 41.8,-158.0,42.7,-156.7
Q 43.1,-155.9,43.6,-155.1
Q 47.5,-148.3,48.3,-143.6
Q 48.4,-142.6,46.6,-143.6
Q 43.5,-145.2,43.4,-143.7
Q 43.3,-142.9,47.0,-140.7
Q 50.7,-138.4,53.6,-136.2
Q 55.0,-135.1,56.4,-134.0
Q 56.9,-133.7,57.3,-133.3
Q 58.2,-132.6,60.0,-130.4
Q 64.8,-123.8,66.1,-121.2
Q 72.0,-109.8,74.2,-90.0
Q 74.7,-85.8,75.1,-82.8
Q 75.6,-79.8,75.6,-73.1
Q 75.7,-72.8,75.8,-72.4
Q 76.0,-71.8,75.8,-70.9
Q 75.7,-70.4,75.6,-70.0
Q 75.3,-67.9,75.1,-65.8
Q 73.9,-54.6,64.0,-41.1
Q 63.8,-40.8,63.5,-40.4
Q 63.1,-39.8,62.2,-39.1
Q 61.8,-38.8,61.3,-38.4
Q 59.0,-36.6,58.7,-36.7
Q 58.4,-36.7,56.8,-40.0
Q 54.5,-45.1,53.5,-44.1
Q 53.2,-43.8,54.7,-40.6
Q 56.1,-37.4,56.7,-35.2
Q 57.3,-33.1,58.2,-28.2
Q 58.3,-27.6,58.5,-26.9
Q 58.7,-25.5,58.2,-22.9
Q 57.7,-16.6,56.3,-15.7
Q 54.6,-14.5,49.1,-28.2
Q 45.2,-38.0,44.7,-37.8
Q 43.8,-37.4,45.8,-32.2
Q 47.1,-28.4,47.2,-27.7
Q 47.3,-27.0,44.9,-24.9
Q 43.7,-23.8,42.5,-22.8
Q 41.9,-24.0,41.3,-25.2
Q 37.7,-32.7,36.5,-32.7
Q 35.5,-32.7,37.9,-28.2
Q 39.5,-25.3,40.2,-23.1
Q 41.0,-20.9,41.6,-19.3
Q 42.3,-17.8,42.3,-12.9
Q 42.3,2.3,35.6,-12.7
Q 34.1,-16.0,33.7,-16.6
Q 33.2,-17.3,31.2,-21.3
Q 29.0,-25.7,28.3,-25.4
Q 27.6,-25.1,29.2,-21.7
Q 30.8,-18.2,31.0,-17.7
Q 31.2,-17.2,29.5,-17.0
Q 27.8,-16.7,24.0,-15.8
Q 16.0,-13.8,3.1,-13.1
Q 1.8,-12.6,1.1,-12.8
Q 0.8,-13.0,0.4,-13.1
Q -10.3,-14.1,-13.3,-15.0
Q -14.2,-15.3,-15.2,-15.6
Q -14.3,-17.0,-13.3,-18.4
Q -11.4,-21.2,-12.0,-21.7
Q -12.8,-22.5,-16.6,-17.1
Q -18.3,-14.7,-18.9,-13.6
Q -23.8,-3.3,-27.9,1.1
Q -33.2,7.0,-33.0,-2.2
Q -32.9,-11.3,-29.5,-18.2
Q -28.4,-20.4,-28.2,-21.5
Q -28.0,-22.7,-27.1,-25.3
Q -25.9,-28.7,-26.7,-28.9
Q -27.4,-29.1,-28.4,-26.4
Q -29.4,-23.6,-29.8,-23.2
Q -30.5,-22.3,-34.6,-25.5
Q -35.7,-26.3,-34.0,-28.7
Q -31.2,-32.7,-32.3,-32.7
Q -33.3,-32.7,-36.4,-28.0
Q -37.9,-25.8,-38.5,-24.7
Q -51.6,2.8,-53.9,-4.1
Q -56.7,-12.6,-41.0,-33.2
Q -37.7,-37.6,-39.2,-37.6
Q -39.9,-37.6,-42.2,-34.3
Q -43.4,-32.6,-44.6,-31.0
Q -51.4,-39.0,-55.0,-45.5
Q -59.1,-52.6,-63.8,-68.9
Q -66.4,-78.2,-67.1,-88.7
Q -67.4,-88.5,-67.5,-88.7
Q -67.6,-89.0,-67.6,-90.9
Q -67.1,-97.5,-66.9,-101.0
Q -66.0,-114.4,-62.9,-122.5
Q -57.9,-135.8,-53.0,-139.4
Q -51.3,-140.7,-51.2,-141.6
Q -51.1,-142.4,-50.9,-143.1
Q -50.8,-143.4,-50.7,-143.8
Q -51.2,-144.3,-51.8,-144.8
Q -52.8,-143.7,-53.8,-142.5
Q -60.4,-134.5,-58.1,-153.7
Q -55.9,-172.0,-60.4,-173.3
Q -61.7,-173.7,-64.1,-170.8
Q -69.2,-164.5,-72.1,-145.8
Q -72.3,-146.4,-72.5,-147.1
Q -72.9,-148.4,-72.9,-150.9
Q -72.9,-153.3,-73.6,-154.7
Q -74.7,-156.9,-75.9,-156.4
Q -79.5,-154.6,-80.7,-143.2
Q -81.1,-139.1,-81.6,-140.5
Q -81.8,-140.9,-81.9,-143.0
Q -83.3,-158.0,-84.2,-162.5
Q -86.9,-175.0,-91.8,-173.8
Q -95.7,-172.8,-96.8,-162.4
Q -98.3,-149.6,-92.0,-128.7
Q -91.1,-125.9,-91.1,-123.1
Q -91.5,-123.8,-92.0,-124.4
Q -92.8,-125.8,-93.7,-128.9
Q -96.0,-136.8,-96.7,-140.0
Q -98.0,-146.5,-100.7,-147.7
Q -104.5,-149.4,-107.1,-139.8
Q -111.3,-123.9,-104.9,-105.0
Q -99.9,-90.4,-94.6,-82.5
Q -93.2,-80.5,-92.8,-79.3
Q -96.7,-81.9,-99.6,-83.4
Q -102.5,-85.0,-104.9,-86.3
Q -112.0,-90.3,-112.0,-84.3
Q -112.0,-79.6,-105.6,-68.8
Q -94.5,-49.8,-69.7,-39.2
Q -60.5,-35.3,-54.3,-34.5
Q -50.8,-34.0,-45.9,-29.1
Q -46.7,-28.0,-47.5,-27.0
Q -54.3,-18.0,-55.8,-10.7
Q -57.6,-2.0,-53.6,-0.5
Q -49.6,1.0,-45.5,-6.7
Q -44.4,-8.9,-43.3,-10.7
Q -42.2,-12.6,-38.4,-20.3
Q -36.7,-23.7,-36.0,-23.1
Q -35.3,-22.5,-33.4,-21.6
Q -30.6,-20.2,-31.7,-17.9
Q -32.4,-16.4,-33.7,-11.9
Q -37.3,0.2,-33.9,4.2
Q -28.8,10.3,-17.7,-11.0
Q -16.6,-13.0,-12.9,-11.8
Q -11.6,-11.3,-13.5,-7.5
Q -16.7,-1.0,-17.8,7.8
Q -18.8,16.4,-22.2,24.2
Q -24.2,29.0,-31.9,40.2
Q -42.3,55.3,-36.7,73.0
Q -32.9,84.9,-24.0,84.8
Q -20.6,84.8,-18.9,84.0
Q -17.3,83.2,-12.4,78.8
Q -12.5,79.3,-12.7,79.9
Q -13.6,83.7,-19.5,96.0
Q -28.8,115.2,-28.2,129.1
Q -27.4,149.9,-15.9,168.9
Q -14.6,171.1,-13.4,173.1
Q -12.2,175.3,-3.6,188.5
Q 4.7,201.2,5.6,208.0
Q 5.8,209.8,6.0,214.6
Q 6.2,219.5,6.4,220.3
 " /> 
<path  
style="fill:rgb(7,193,201)" 
d="M -14.2 166.9
Q -14.0,167.2,-13.8,167.6
Q -13.4,168.2,-12.9,169.6
Q -12.9,168.2,-12.8,166.9
Q -13.5,166.9,-14.2,166.9
 " /> 
<path  
style="fill:rgb(14,103,171)" 
d="M -14.2 166.9
Q -14.1,163.2,-14.0,159.6
Q -13.6,146.0,-11.8,138.4
Q -9.5,129.2,-8.5,130.2
Q -8.0,130.7,-8.9,133.4
Q -12.4,144.1,-12.8,163.5
Q -12.8,165.2,-12.8,166.9
Q -12.9,168.2,-12.9,169.6
Q -8.9,176.2,-5.3,181.7
Q -1.7,187.1,0.2,190.1
Q 2.3,193.6,2.6,192.8
Q 4.5,187.7,2.4,170.7
Q 0.1,151.3,3.8,135.1
Q 4.8,130.6,5.4,130.2
Q 6.5,129.4,5.4,134.9
Q 1.8,151.9,4.3,169.6
Q 6.0,182.3,4.9,189.7
Q 4.0,196.4,6.0,201.1
Q 9.1,208.1,8.7,215.7
Q 8.5,217.9,8.7,218.2
Q 9.0,218.8,11.7,216.4
Q 16.0,212.4,20.4,208.7
Q 26.4,203.7,34.0,196.6
Q 47.8,183.7,36.9,146.0
Q 33.0,132.6,33.4,132.0
Q 34.5,130.0,41.5,155.6
Q 47.0,175.3,41.8,187.6
Q 40.9,189.7,41.0,189.8
Q 41.2,190.0,43.6,187.4
Q 50.1,180.5,52.0,177.9
Q 53.3,176.2,54.1,175.0
Q 70.8,152.3,62.1,135.2
Q 59.1,129.2,52.2,121.6
Q 46.6,115.4,44.4,112.7
Q 38.1,104.8,35.5,95.4
Q 34.5,91.8,34.2,84.2
Q 33.7,84.3,33.1,84.4
Q 31.9,84.7,31.3,91.3
Q 30.5,101.6,28.1,101.6
Q 27.3,101.6,26.2,95.8
Q 25.2,90.0,24.9,90.0
Q 24.6,90.0,23.7,92.0
Q 20.7,98.0,16.5,92.6
Q 15.0,90.7,14.6,90.7
Q 14.2,90.8,12.4,92.2
Q 12.4,92.4,12.4,92.7
Q 12.3,93.1,12.2,93.6
Q 11.9,94.4,11.6,95.8
Q 11.6,96.2,11.6,96.7
Q 11.6,103.6,8.5,107.0
Q 6.0,109.8,5.5,106.1
Q 5.4,105.4,5.3,104.7
Q 5.3,104.4,5.3,104.2
Q 4.4,102.4,4.4,100.2
Q 4.4,99.1,4.4,98.0
Q 4.4,97.8,4.4,97.6
Q 4.3,97.6,4.2,97.6
Q 4.0,97.6,4.0,96.0
Q 4.0,96.0,4.0,96.0
Q 4.0,95.2,4.0,94.4
Q 4.1,93.7,4.1,93.0
Q 4.2,91.6,3.6,91.3
Q 3.3,91.0,3.1,90.7
Q 2.6,90.0,2.7,89.1
Q 2.7,88.7,2.7,88.2
Q 2.7,88.0,2.7,87.8
Q 2.2,87.3,1.9,87.1
Q 1.0,87.0,-0.2,89.2
Q -5.8,99.3,-8.8,90.2
Q -9.6,87.6,-10.6,85.0
Q -11.1,83.7,-11.6,82.4
Q -14.3,88.9,-18.3,97.5
Q -22.3,105.9,-24.2,112.5
Q -29.6,131.1,-20.4,154.3
Q -18.6,158.9,-14.2,166.9
 " /> 
<path  
style="fill:rgb(7,193,201)" 
d="M 11.3 214.0
Q 12.1,215.2,15.9,208.0
Q 25.0,190.8,26.0,175.3
Q 27.4,154.7,24.9,154.7
Q 24.3,154.7,24.4,157.4
Q 25.1,178.5,22.2,188.4
Q 18.2,202.2,12.4,211.4
Q 11.0,213.5,11.3,214.0
 " /> 
<path  
style="fill:rgb(7,193,201)" 
d="M 52.3 172.3
Q 52.5,172.6,53.1,172.4
Q 53.8,172.1,54.5,163.4
Q 55.2,154.4,51.0,142.2
Q 48.2,134.0,46.8,134.0
Q 45.9,134.0,47.7,138.0
Q 53.2,150.0,52.9,166.4
Q 52.8,168.9,52.4,170.4
Q 52.0,171.9,52.3,172.3
 " /> 
<path  
style="fill:rgb(7,193,201)" 
d="M -14.2 166.9
Q -13.5,166.9,-12.8,166.9
Q -12.8,165.2,-12.8,163.5
Q -12.4,144.1,-8.9,133.4
Q -8.0,130.7,-8.5,130.2
Q -9.5,129.2,-11.8,138.4
Q -13.6,146.0,-14.0,159.6
Q -14.1,163.2,-14.2,166.9
 " /> 
<path  
style="fill:rgb(7,193,201)" 
d="M -11.6 82.4
Q -11.1,83.7,-10.6,85.0
Q -9.6,87.6,-8.8,90.2
Q -5.8,99.3,-0.2,89.2
Q 1.0,87.0,1.9,87.1
Q 1.2,86.5,0.9,86.7
Q 0.5,86.8,-1.3,90.2
Q -5.6,97.9,-8.6,89.7
Q -9.8,86.4,-11.1,81.6
Q -11.5,81.6,-11.6,82.4
 " /> 
<path  
style="fill:rgb(97,247,248)" 
d="M 2.7 87.8
Q 2.7,88.0,2.7,88.2
Q 2.9,88.7,3.1,89.1
Q 3.5,90.0,3.6,91.3
Q 4.2,91.6,4.1,93.0
Q 4.1,93.7,4.0,94.4
Q 4.3,94.4,4.4,94.7
Q 4.4,95.0,4.4,97.6
Q 4.4,97.8,4.4,98.0
Q 5.3,101.1,5.3,104.2
Q 5.3,104.4,5.3,104.7
Q 6.1,107.6,6.6,107.7
Q 7.0,107.8,8.3,106.3
Q 10.7,103.6,11.3,98.4
Q 11.4,97.6,11.6,96.7
Q 11.6,96.2,11.6,95.8
Q 11.4,93.2,12.4,92.7
Q 12.4,92.4,12.4,92.2
Q 13.8,90.0,14.4,90.0
Q 15.0,90.0,16.8,92.2
Q 18.7,94.4,20.0,94.4
Q 22.1,94.4,25.0,88.9
Q 26.1,91.6,27.1,97.8
Q 27.6,100.9,27.8,101.1
Q 28.0,101.3,28.9,100.5
Q 30.4,99.1,30.9,90.7
Q 31.3,83.9,32.6,84.2
Q 33.3,84.3,33.6,83.6
Q 33.7,83.2,33.8,82.9
Q 33.8,82.0,33.8,81.1
Q 33.8,77.3,33.8,73.6
Q 32.8,71.9,31.8,70.2
Q 27.7,63.4,25.1,53.2
Q 24.0,49.1,23.6,42.4
Q 23.4,42.5,23.3,42.5
Q 23.1,42.5,23.1,39.8
Q 23.6,38.7,24.0,37.6
Q 26.5,31.2,26.9,26.4
Q 27.0,24.9,27.1,23.3
Q 27.1,21.8,27.1,20.2
Q 27.0,18.7,26.9,17.1
Q 26.7,14.0,25.4,8.0
Q 25.3,8.3,25.2,8.7
Q 25.0,9.3,24.3,12.4
Q 23.7,15.5,22.9,15.7
Q 22.1,15.9,22.4,14.0
Q 23.9,4.5,24.4,0.7
Q 24.7,-2.6,25.3,-2.6
Q 25.9,-2.6,25.8,-0.1
Q 25.7,2.3,26.6,5.5
Q 27.6,8.7,28.0,12.0
Q 28.2,13.7,28.4,15.3
Q 28.6,15.3,28.7,15.3
Q 28.9,15.2,28.9,16.4
Q 28.9,16.4,28.9,16.4
Q 28.9,17.0,28.9,17.6
Q 28.8,19.0,28.8,20.3
Q 28.6,22.9,28.5,24.9
Q 28.2,29.8,27.7,31.7
Q 27.0,34.2,25.9,36.8
Q 24.6,39.8,26.0,47.8
Q 26.4,49.6,26.7,51.3
Q 38.1,40.9,43.0,38.2
Q 45.7,36.7,49.6,39.2
Q 50.3,39.7,51.1,40.2
Q 44.0,26.4,40.8,20.8
Q 34.5,9.5,31.6,0.7
Q 27.2,-12.2,24.8,-13.0
Q 24.1,-13.2,21.9,-12.6
Q 18.9,-11.8,15.6,-11.3
Q 12.4,-10.7,8.0,-10.4
Q 6.9,-10.4,5.8,-10.4
Q -6.7,-10.9,-8.2,-11.0
Q -9.8,-11.1,-11.8,-6.7
Q -15.2,0.8,-16.0,8.3
Q -17.0,18.1,-20.9,26.3
Q -23.1,30.9,-27.6,37.6
Q -24.4,38.0,-22.2,38.9
Q -20.0,39.8,-15.6,38.4
Q -15.3,38.4,-15.1,38.4
Q -14.6,38.3,-14.0,38.2
Q -12.9,38.0,-11.4,39.6
Q -9.8,41.2,-7.9,41.4
Q -3.9,41.9,-2.2,44.1
Q -1.4,45.2,-0.4,45.1
Q -0.2,43.0,0.0,40.9
Q 0.4,36.7,-1.1,33.7
Q -3.6,28.5,-4.2,20.3
Q -4.2,19.2,-4.3,18.0
Q -4.5,10.7,-4.9,7.1
Q -5.6,1.9,-4.8,1.7
Q -4.2,1.5,-3.4,5.4
Q -2.6,9.3,-1.7,12.4
Q -0.0,18.4,-1.1,18.6
Q -2.0,18.7,-2.1,17.4
Q -2.2,16.8,-2.2,16.2
Q -2.3,16.2,-2.4,16.3
Q -2.6,16.3,-2.6,18.3
Q -2.7,19.2,-2.7,20.2
Q -1.3,30.1,1.4,34.6
Q 2.8,36.9,3.0,37.9
Q 3.2,39.0,2.6,38.7
Q 1.9,38.3,1.4,42.2
Q 1.1,44.1,0.9,46.0
Q 0.8,46.2,0.8,46.4
Q 0.7,46.9,0.4,47.3
Q 0.0,49.3,-0.4,51.3
Q -3.4,64.6,-8.1,73.0
Q -9.4,75.3,-11.1,81.6
Q -9.8,86.4,-8.6,89.7
Q -5.6,97.9,-1.3,90.2
Q 0.5,86.8,0.9,86.7
Q 1.2,86.5,1.9,87.1
Q 2.3,87.1,2.7,87.8
 " /> 
<path  
style="fill:rgb(7,193,201)" 
d="M 2.7 88.2
Q 2.7,88.7,2.7,89.1
Q 2.6,90.0,3.1,90.7
Q 3.3,91.0,3.6,91.3
Q 3.5,90.0,3.1,89.1
Q 2.9,88.7,2.7,88.2
 " /> 
<path  
style="fill:rgb(7,193,201)" 
d="M 4.0 94.4
Q 4.0,95.2,4.0,96.0
Q 4.2,96.8,4.4,97.6
Q 4.4,95.0,4.4,94.7
Q 4.3,94.4,4.0,94.4
 " /> 
<path  
style="fill:rgb(7,193,201)" 
d="M 4.4 97.6
Q 4.2,96.8,4.0,96.0
Q 4.0,96.0,4.0,96.0
Q 4.0,97.6,4.2,97.6
Q 4.3,97.6,4.4,97.6
 " /> 
<path  
style="fill:rgb(7,193,201)" 
d="M 4.4 98.0
Q 4.4,99.1,4.4,100.2
Q 4.4,102.4,5.3,104.2
Q 5.3,101.1,4.4,98.0
 " /> 
<path  
style="fill:rgb(7,193,201)" 
d="M 11.6 95.8
Q 11.9,94.4,12.2,93.6
Q 12.3,93.1,12.4,92.7
Q 11.4,93.2,11.6,95.8
 " /> 
<path  
style="fill:rgb(7,193,201)" 
d="M 12.4 92.2
Q 14.2,90.8,14.6,90.7
Q 15.0,90.7,16.5,92.6
Q 20.7,98.0,23.7,92.0
Q 24.6,90.0,24.9,90.0
Q 25.2,90.0,26.2,95.8
Q 27.3,101.6,28.1,101.6
Q 30.5,101.6,31.3,91.3
Q 31.9,84.7,33.1,84.4
Q 33.7,84.3,34.2,84.2
Q 34.2,82.8,33.8,82.9
Q 33.7,83.2,33.6,83.6
Q 33.3,84.3,32.6,84.2
Q 31.3,83.9,30.9,90.7
Q 30.4,99.1,28.9,100.5
Q 28.0,101.3,27.8,101.1
Q 27.6,100.9,27.1,97.8
Q 26.1,91.6,25.0,88.9
Q 22.1,94.4,20.0,94.4
Q 18.7,94.4,16.8,92.2
Q 15.0,90.0,14.4,90.0
Q 13.8,90.0,12.4,92.2
 " /> 
<path  
style="fill:rgb(14,103,171)" 
d="M 0.4 47.3
Q 0.4,46.8,0.3,46.2
Q -0.1,46.2,-0.2,46.0
Q -0.3,45.8,-0.4,45.6
Q -1.3,46.4,-2.0,45.1
Q -3.6,42.0,-7.8,42.0
Q -9.4,42.0,-11.3,40.2
Q -13.3,38.4,-15.1,38.4
Q -15.3,38.4,-15.6,38.4
Q -19.1,40.6,-22.2,39.3
Q -24.4,38.4,-26.2,38.2
Q -27.1,38.1,-28.0,38.0
Q -32.0,44.2,-33.3,46.8
Q -34.8,49.8,-35.6,53.6
Q -34.8,53.7,-34.1,53.9
Q -32.5,47.1,-31.1,48.5
Q -30.6,49.0,-31.3,50.1
Q -31.9,51.1,-32.2,52.4
Q -32.8,54.9,-33.9,54.9
Q -34.3,54.9,-34.1,53.9
Q -34.8,53.7,-35.6,53.6
Q -36.1,56.1,-36.3,58.9
Q -36.7,64.0,-35.9,63.9
Q -35.8,63.9,-34.7,61.7
Q -33.4,59.1,-28.9,53.4
Q -24.4,47.8,-23.7,47.8
Q -23.0,47.8,-23.3,48.4
Q -23.5,49.1,-27.6,54.3
Q -35.7,64.6,-35.3,69.2
Q -34.6,77.8,-28.6,81.3
Q -27.6,81.9,-26.7,82.4
Q -26.7,70.0,-26.4,69.3
Q -26.2,68.6,-25.8,68.9
Q -25.3,69.2,-25.4,75.6
Q -25.5,81.3,-25.6,81.7
Q -25.7,82.2,-26.2,82.4
Q -19.1,82.4,-15.4,78.5
Q -13.7,76.7,-14.2,70.1
Q -15.5,53.0,-13.8,53.0
Q -13.2,52.9,-13.0,57.8
Q -12.5,74.1,-12.2,74.4
Q -11.3,75.3,-9.3,70.0
Q -8.3,67.6,-7.3,66.0
Q -5.3,62.9,-2.2,51.4
Q -1.4,48.5,-1.1,48.0
Q -0.8,47.6,0.4,47.3
 " /> 
<path  
style="fill:rgb(7,193,201)" 
d="M -8.6 62.4
Q -8.4,63.0,-7.9,62.8
Q -7.4,62.6,-7.5,58.0
Q -7.6,53.3,-8.0,52.9
Q -9.4,51.5,-9.1,57.6
Q -8.8,61.8,-8.6,62.4
 " /> 
<path  
style="fill:rgb(14,103,171)" 
d="M 0.4 47.3
Q 0.7,46.7,0.9,46.0
Q 0.5,46.2,0.3,46.2
Q 0.4,46.8,0.4,47.3
 " /> 
<path  
style="fill:rgb(4,4,4)" 
d="M 0.9 46.0
Q 0.2,45.8,-0.4,45.6
Q -0.3,45.8,-0.2,46.0
Q -0.1,46.2,0.3,46.2
Q 0.5,46.2,0.9,46.0
 " /> 
<path  
style="fill:rgb(4,4,4)" 
d="M 0.9 46.0
Q 0.2,45.6,-0.4,45.1
Q -0.4,45.3,-0.4,45.6
Q 0.2,45.8,0.9,46.0
 " /> 
<path  
style="fill:rgb(4,4,4)" 
d="M 0.9 46.0
Q 1.1,44.1,1.4,42.2
Q 1.9,38.3,2.6,38.7
Q 3.2,39.0,3.0,37.9
Q 2.8,36.9,1.4,34.6
Q -1.3,30.1,-2.7,20.2
Q -3.4,20.3,-4.2,20.3
Q -3.6,28.5,-1.1,33.7
Q 0.4,36.7,0.0,40.9
Q -0.2,43.0,-0.4,45.1
Q 0.2,45.6,0.9,46.0
 " /> 
<path  
style="fill:rgb(4,4,4)" 
d="M -2.7 20.2
Q -2.9,15.7,-2.6,15.9
Q -2.4,16.1,-2.2,16.2
Q -2.2,16.8,-2.1,17.4
Q -2.0,18.7,-1.1,18.6
Q -0.0,18.4,-1.7,12.4
Q -2.6,9.3,-3.4,5.4
Q -4.2,1.5,-4.8,1.7
Q -5.6,1.9,-4.9,7.1
Q -4.5,10.7,-4.3,18.0
Q -4.2,19.2,-4.2,20.3
Q -3.4,20.3,-2.7,20.2
 " /> 
<path  
style="fill:rgb(7,193,201)" 
d="M -2.7 20.2
Q -2.7,19.2,-2.6,18.3
Q -2.6,16.3,-2.4,16.3
Q -2.3,16.2,-2.2,16.2
Q -2.4,16.1,-2.6,15.9
Q -2.9,15.7,-2.7,20.2
 " /> 
<path  
style="fill:rgb(7,193,201)" 
d="M -0.4 45.1
Q -1.4,45.2,-2.2,44.1
Q -3.9,41.9,-7.9,41.4
Q -9.8,41.2,-11.4,39.6
Q -12.9,38.0,-14.0,38.2
Q -14.6,38.3,-15.1,38.4
Q -13.3,38.4,-11.3,40.2
Q -9.4,42.0,-7.8,42.0
Q -3.6,42.0,-2.0,45.1
Q -1.3,46.4,-0.4,45.6
Q -0.4,45.3,-0.4,45.1
 " /> 
<path  
style="fill:rgb(7,193,201)" 
d="M -15.6 38.4
Q -20.0,39.8,-22.2,38.9
Q -24.4,38.0,-27.6,37.6
Q -27.8,37.6,-28.0,38.0
Q -27.1,38.1,-26.2,38.2
Q -24.4,38.4,-22.2,39.3
Q -19.1,40.6,-15.6,38.4
 " /> 
<path  
style="fill:rgb(14,103,171)" 
d="M 5.8 -10.4
Q 6.9,-10.4,8.0,-10.4
Q 7.7,-10.6,7.4,-10.7
Q 6.7,-11.0,6.2,-10.7
Q 6.0,-10.6,5.8,-10.4
 " /> 
<path  
style="fill:rgb(7,193,201)" 
d="M 51.1 40.2
Q 50.9,40.4,50.8,40.7
Q 51.4,41.1,52.0,41.6
Q 51.5,40.7,51.1,40.2
 " /> 
<path  
style="fill:rgb(7,193,201)" 
d="M 51.1 40.2
Q 50.3,39.7,49.6,39.2
Q 45.7,36.7,43.0,38.2
Q 38.1,40.9,26.7,51.3
Q 26.7,51.6,26.7,51.8
Q 27.9,50.8,29.1,49.8
Q 31.6,47.9,33.7,45.7
Q 35.7,43.6,37.1,42.7
Q 38.5,41.7,39.8,40.6
Q 44.4,36.8,47.1,38.2
Q 48.2,38.8,50.8,40.7
Q 50.9,40.4,51.1,40.2
 " /> 
<path  
style="fill:rgb(4,4,4)" 
d="M 28.9 17.6
Q 28.6,17.6,28.5,17.4
Q 28.4,17.1,28.4,15.3
Q 28.2,13.7,28.0,12.0
Q 27.6,8.7,26.6,5.5
Q 25.7,2.3,25.8,-0.1
Q 25.9,-2.6,25.3,-2.6
Q 24.7,-2.6,24.4,0.7
Q 23.9,4.5,22.4,14.0
Q 22.1,15.9,22.9,15.7
Q 23.7,15.5,24.3,12.4
Q 25.0,9.3,25.2,8.7
Q 25.3,8.3,25.4,8.0
Q 26.7,14.0,26.9,17.1
Q 27.0,18.7,27.1,20.2
Q 27.9,20.3,28.8,20.3
Q 28.8,19.0,28.9,17.6
 " /> 
<path  
style="fill:rgb(7,193,201)" 
d="M 28.9 17.6
Q 28.9,17.0,28.9,16.4
Q 28.7,15.9,28.4,15.3
Q 28.4,17.1,28.5,17.4
Q 28.6,17.6,28.9,17.6
 " /> 
<path  
style="fill:rgb(7,193,201)" 
d="M 28.4 15.3
Q 28.7,15.9,28.9,16.4
Q 28.9,16.4,28.9,16.4
Q 28.9,15.2,28.7,15.3
Q 28.6,15.3,28.4,15.3
 " /> 
<path  
style="fill:rgb(4,4,4)" 
d="M 27.1 20.2
Q 27.2,20.6,27.3,20.9
Q 27.6,21.6,27.1,23.3
Q 27.9,23.4,28.6,23.4
Q 28.7,21.2,28.9,18.4
Q 27.9,20.3,27.1,20.2
 " /> 
<path  
style="fill:rgb(14,103,171)" 
d="M 27.1 20.2
Q 27.1,21.8,27.1,23.3
Q 27.6,21.6,27.3,20.9
Q 27.2,20.6,27.1,20.2
 " /> 
<path  
style="fill:rgb(7,193,201)" 
d="M 23.1 39.8
Q 23.1,42.5,23.3,42.5
Q 23.4,42.5,23.6,42.4
Q 23.6,40.3,23.5,40.0
Q 23.4,39.7,23.1,39.8
 " /> 
<path  
style="fill:rgb(7,193,201)" 
d="M 33.8 73.6
Q 33.8,77.3,33.8,81.1
Q 34.2,77.1,34.0,75.3
Q 33.9,74.4,33.8,73.6
 " /> 
<path  
style="fill:rgb(7,193,201)" 
d="M -26.7 82.4
Q -26.4,82.4,-26.2,82.4
Q -25.7,82.2,-25.6,81.7
Q -25.5,81.3,-25.4,75.6
Q -25.3,69.2,-25.8,68.9
Q -26.2,68.6,-26.4,69.3
Q -26.7,70.0,-26.7,82.4
 " /> 
<path  
style="fill:rgb(14,103,171)" 
d="M 36.0 72.2
Q 35.8,70.3,35.6,68.4
Q 35.1,64.7,34.7,61.9
Q 34.3,59.1,34.7,58.7
Q 36.3,57.0,37.1,69.7
Q 37.3,73.1,36.8,73.1
Q 36.6,73.1,36.4,73.1
Q 39.1,76.2,41.7,77.1
Q 44.2,78.1,45.7,78.3
Q 46.4,78.4,47.2,78.6
Q 46.3,76.7,45.3,74.9
Q 43.4,71.1,42.4,67.6
Q 41.4,64.0,40.0,59.8
Q 38.4,54.8,38.7,53.0
Q 39.1,51.2,43.8,66.6
Q 47.6,78.9,50.6,78.9
Q 53.8,78.9,56.9,76.3
Q 60.0,73.7,60.6,69.0
Q 60.9,67.0,56.9,61.9
Q 46.9,49.0,47.3,47.9
Q 47.6,47.1,48.8,48.6
Q 52.9,54.2,59.6,62.4
Q 60.2,63.2,60.9,64.0
Q 60.5,62.9,60.2,61.8
Q 58.9,56.8,57.2,53.1
Q 56.8,52.2,56.4,51.3
Q 55.3,50.6,54.2,49.8
Q 52.0,48.2,52.0,47.5
Q 52.0,46.5,54.5,48.3
Q 55.0,48.7,55.6,49.1
Q 53.8,45.1,52.0,41.6
Q 51.4,41.1,50.8,40.7
Q 48.2,38.8,47.1,38.2
Q 44.4,36.8,39.8,40.6
Q 38.5,41.7,37.1,42.7
Q 35.7,43.6,33.7,45.7
Q 31.6,47.9,29.1,49.8
Q 27.9,50.8,26.7,51.8
Q 27.3,54.0,28.0,56.2
Q 30.8,65.5,36.0,72.2
 " /> 
<path  
style="fill:rgb(7,193,201)" 
d="M 54.9 73.0
Q 56.2,75.8,56.8,75.8
Q 57.9,75.8,54.0,68.1
Q 51.0,62.0,50.4,62.0
Q 49.2,62.0,51.9,66.9
Q 53.7,70.2,54.9,73.0
 " /> 
<path  
style="fill:rgb(7,193,201)" 
d="M 36.0 72.2
Q 36.5,72.9,36.4,73.1
Q 36.6,73.1,36.8,73.1
Q 37.3,73.1,37.1,69.7
Q 36.3,57.0,34.7,58.7
Q 34.3,59.1,34.7,61.9
Q 35.1,64.7,35.6,68.4
Q 35.8,70.3,36.0,72.2
 " /> 
<path  
style="fill:rgb(7,193,201)" 
d="M 55.6 49.1
Q 55.0,48.7,54.5,48.3
Q 52.0,46.5,52.0,47.5
Q 52.0,48.2,54.2,49.8
Q 55.3,50.6,56.4,51.3
Q 56.3,51.1,56.2,50.9
Q 56.0,50.4,55.8,49.8
Q 55.7,49.4,55.6,49.1
 " /> 
<path  
style="fill:rgb(7,193,201)" 
d="M -34.1 53.9
Q -34.3,54.9,-33.9,54.9
Q -32.8,54.9,-32.2,52.4
Q -31.9,51.1,-31.3,50.1
Q -30.6,49.0,-31.1,48.5
Q -32.5,47.1,-34.1,53.9
 " /> 
<path  
style="fill:rgb(14,103,171)" 
d="M -96.4 -59.8
Q -95.1,-58.0,-94.2,-57.3
Q -93.8,-57.0,-93.3,-56.7
Q -93.7,-57.1,-94.0,-57.5
Q -94.7,-58.4,-95.6,-59.1
Q -96.0,-59.4,-96.4,-59.8
 " /> 
<path  
style="fill:rgb(14,103,171)" 
d="M -92.0 -76.7
Q -91.6,-76.6,-91.3,-76.4
Q -90.5,-76.2,-89.8,-77.1
Q -89.9,-77.0,-90.0,-76.9
Q -90.3,-76.7,-92.0,-76.7
 " /> 
<path  
style="fill:rgb(14,103,171)" 
d="M -89.3 -122.0
Q -88.9,-123.8,-89.3,-126.0
Q -89.3,-124.0,-89.3,-122.0
 " /> 
<path  
style="fill:rgb(14,103,171)" 
d="M -94.7 -154.0
Q -94.6,-154.8,-94.6,-155.6
Q -94.9,-156.4,-95.1,-157.1
Q -95.1,-154.3,-95.1,-154.1
Q -95.0,-153.8,-94.7,-154.0
 " /> 
<path  
style="fill:rgb(14,103,171)" 
d="M -95.1 -157.1
Q -94.9,-156.4,-94.6,-155.6
Q -94.6,-155.6,-94.6,-155.6
Q -94.6,-157.3,-95.1,-157.1
 " /> 
<path  
style="fill:rgb(14,103,171)" 
d="M -84.4 -148.2
Q -84.5,-147.6,-84.5,-147.0
Q -84.2,-146.5,-84.0,-146.0
Q -84.0,-147.9,-84.1,-148.1
Q -84.1,-148.4,-84.4,-148.2
 " /> 
<path  
style="fill:rgb(14,103,171)" 
d="M -84.0 -146.0
Q -84.2,-146.5,-84.5,-147.0
Q -84.5,-147.0,-84.5,-147.0
Q -84.5,-145.8,-84.0,-146.0
 " /> 
<path  
style="fill:rgb(14,103,171)" 
d="M -59.6 -168.2
Q -59.6,-167.6,-59.6,-167.0
Q -59.3,-166.5,-59.1,-166.0
Q -59.1,-167.9,-59.2,-168.1
Q -59.2,-168.4,-59.6,-168.2
 " /> 
<path  
style="fill:rgb(14,103,171)" 
d="M -59.1 -166.0
Q -59.3,-166.5,-59.6,-167.0
Q -59.6,-167.0,-59.6,-167.0
Q -59.6,-165.8,-59.1,-166.0
 " /> 
<path  
style="fill:rgb(14,103,171)" 
d="M -59.1 -163.8
Q -59.6,-163.6,-59.6,-162.6
Q -59.6,-162.1,-59.6,-161.6
Q -59.5,-161.6,-59.4,-161.6
Q -59.2,-161.7,-59.1,-163.8
 " /> 
<path  
style="fill:rgb(14,103,171)" 
d="M -59.6 -157.6
Q -60.0,-157.3,-60.0,-156.3
Q -60.0,-155.8,-60.0,-155.3
Q -59.9,-155.4,-59.8,-155.4
Q -59.6,-155.5,-59.6,-157.6
 " /> 
<path  
style="fill:rgb(14,103,171)" 
d="M -60.4 -147.3
Q -60.9,-145.1,-60.7,-143.8
Q -60.6,-143.1,-60.4,-142.4
Q -60.4,-144.9,-60.4,-147.3
 " /> 
<path  
style="fill:rgb(97,247,248)" 
d="M -64.0 -125.6
Q -64.4,-126.6,-64.9,-127.6
Q -66.7,-131.6,-66.7,-136.6
Q -66.7,-138.9,-67.1,-138.7
Q -67.6,-138.4,-67.6,-135.9
Q -67.6,-129.4,-65.1,-126.4
Q -64.6,-125.8,-64.0,-125.1
Q -64.0,-125.3,-64.0,-125.6
 " /> 
<path  
style="fill:rgb(97,247,248)" 
d="M -68.0 -112.2
Q -73.0,-116.9,-75.5,-124.8
Q -76.5,-127.8,-77.0,-127.8
Q -77.4,-127.8,-77.2,-126.8
Q -74.7,-116.6,-68.0,-110.9
Q -68.0,-111.6,-68.0,-112.2
 " /> 
<path  
style="fill:rgb(14,103,171)" 
d="M -69.3 -94.4
Q -69.8,-91.3,-69.6,-89.8
Q -69.4,-89.0,-69.3,-88.2
Q -69.3,-91.3,-69.3,-94.4
 " /> 
<path  
style="fill:rgb(14,103,171)" 
d="M -69.3 -85.6
Q -69.4,-82.7,-69.1,-82.8
Q -69.0,-82.8,-68.9,-82.9
Q -68.9,-85.2,-68.9,-85.5
Q -69.0,-85.7,-69.3,-85.6
 " /> 
<path  
style="fill:rgb(14,103,171)" 
d="M -68.4 -78.0
Q -68.2,-77.3,-68.0,-76.7
Q -68.0,-77.3,-68.0,-77.9
Q -68.0,-77.9,-68.0,-78.0
Q -68.2,-78.0,-68.4,-78.0
 " /> 
<path  
style="fill:rgb(14,103,171)" 
d="M -68.4 -78.0
Q -68.5,-76.5,-68.2,-76.6
Q -68.1,-76.6,-68.0,-76.7
Q -68.2,-77.3,-68.4,-78.0
 " /> 
<path  
style="fill:rgb(97,247,248)" 
d="M -60.4 -50.4
Q -60.6,-49.7,-60.8,-48.9
Q -60.2,-48.8,-59.6,-48.7
Q -59.6,-48.9,-59.6,-49.1
Q -59.6,-49.6,-60.4,-50.4
 " /> 
<path  
style="fill:rgb(97,247,248)" 
d="M -60.4 -50.4
Q -69.6,-52.2,-78.0,-58.3
Q -86.4,-64.3,-89.4,-67.5
Q -91.1,-69.3,-91.8,-69.5
Q -93.0,-69.7,-90.4,-66.8
Q -87.0,-62.9,-78.2,-56.9
Q -69.7,-50.9,-61.6,-49.1
Q -61.2,-49.0,-60.8,-48.9
Q -60.6,-49.7,-60.4,-50.4
 " /> 
<path  
style="fill:rgb(4,4,4)" 
d="M 68.4 -40.7
Q 70.0,-41.0,71.6,-41.3
Q 90.1,-45.3,101.8,-58.4
Q 108.7,-66.2,109.7,-71.7
Q 110.2,-74.8,106.7,-71.6
Q 105.5,-70.6,104.3,-69.5
Q 103.0,-68.4,102.3,-67.7
Q 99.9,-65.6,98.7,-67.1
Q 95.8,-70.5,107.1,-87.3
Q 109.7,-91.1,112.4,-95.8
Q 118.3,-106.0,120.0,-117.1
Q 120.0,-118.4,120.0,-119.8
Q 120.0,-122.0,118.0,-120.7
Q 116.2,-119.5,111.8,-113.8
Q 107.4,-108.0,106.8,-107.7
Q 104.1,-106.3,107.5,-116.4
Q 116.6,-143.9,113.6,-156.4
Q 113.2,-157.9,112.9,-159.3
Q 112.7,-159.5,112.4,-159.8
Q 112.0,-160.2,111.3,-160.4
Q 111.0,-160.5,110.7,-160.7
Q 110.4,-160.7,110.2,-160.7
Q 110.0,-160.3,109.8,-160.0
Q 109.3,-159.4,108.6,-158.9
Q 108.3,-158.7,108.0,-158.4
Q 105.3,-152.7,103.1,-146.0
Q 100.9,-139.3,100.0,-137.6
Q 99.5,-136.7,99.1,-135.8
Q 98.9,-135.5,98.6,-135.2
Q 98.1,-134.6,96.9,-134.9
Q 94.5,-136.8,92.1,-144.0
Q 88.9,-153.4,84.9,-160.2
Q 84.2,-161.3,83.6,-162.4
Q 83.1,-162.8,82.7,-163.1
Q 81.8,-163.8,81.1,-164.7
Q 80.8,-165.1,80.4,-165.6
Q 78.7,-165.6,78.0,-164.4
Q 77.3,-163.3,76.9,-158.0
Q 77.0,-158.0,77.1,-158.1
Q 77.3,-158.1,77.3,-157.8
Q 77.4,-157.6,77.3,-152.7
Q 77.3,-152.0,77.3,-151.3
Q 77.3,-148.8,76.9,-148.7
Q 76.9,-146.9,75.8,-145.7
Q 73.4,-143.3,67.9,-148.4
Q 67.0,-149.3,66.1,-150.2
Q 66.3,-149.6,66.4,-149.1
Q 66.8,-148.0,67.4,-146.9
Q 68.0,-145.8,68.0,-143.8
Q 68.0,-138.1,60.0,-144.2
Q 58.1,-145.7,57.4,-146.0
Q 57.7,-145.1,58.0,-144.2
Q 58.7,-142.4,58.2,-141.4
Q 57.0,-139.3,55.4,-139.3
Q 54.1,-139.3,57.6,-136.3
Q 65.8,-129.0,70.1,-118.7
Q 71.7,-114.9,74.2,-105.1
Q 75.2,-106.3,76.2,-107.6
Q 85.3,-118.7,83.7,-138.7
Q 83.2,-144.4,83.6,-144.8
Q 84.3,-145.7,84.5,-142.5
Q 85.3,-125.9,82.6,-117.1
Q 80.6,-110.7,74.2,-104.7
Q 75.6,-97.6,76.2,-92.7
Q 76.6,-90.2,76.9,-87.8
Q 82.7,-93.1,85.9,-97.2
Q 100.7,-116.0,105.2,-129.6
Q 106.5,-133.7,107.0,-133.4
Q 108.3,-132.6,103.2,-121.9
Q 92.9,-100.4,79.6,-88.8
Q 78.2,-87.6,76.9,-86.4
Q 76.9,-86.2,76.9,-86.0
Q 77.4,-86.1,77.3,-84.3
Q 77.3,-83.4,77.3,-82.4
Q 77.3,-81.3,77.3,-80.2
Q 77.4,-80.2,77.6,-80.3
Q 77.8,-80.3,77.8,-78.9
Q 77.8,-78.9,77.8,-78.9
Q 77.8,-78.2,77.8,-77.6
Q 77.8,-75.1,77.8,-72.7
Q 79.4,-73.4,81.1,-74.2
Q 89.2,-78.0,94.4,-86.0
Q 96.6,-89.3,98.3,-91.3
Q 100.1,-93.3,101.0,-95.0
Q 102.7,-98.0,102.7,-96.1
Q 102.7,-95.5,97.7,-88.8
Q 95.7,-86.2,93.6,-82.9
Q 89.7,-77.0,83.2,-73.8
Q 80.9,-72.7,77.8,-71.8
Q 77.8,-69.8,77.8,-67.8
Q 77.8,-65.2,77.3,-65.1
Q 77.2,-63.9,77.1,-62.7
Q 76.9,-60.2,75.8,-57.1
Q 75.2,-55.5,74.7,-54.0
Q 78.2,-54.9,80.8,-56.1
Q 85.6,-58.3,90.1,-61.7
Q 93.5,-64.2,93.1,-62.9
Q 92.4,-60.5,82.1,-55.5
Q 78.7,-53.9,74.2,-52.7
Q 70.6,-46.1,67.3,-41.5
Q 67.9,-41.1,68.4,-40.7
 " /> 
<path  
style="fill:rgb(97,247,248)" 
d="M 70.4 -125.2
Q 70.1,-123.8,70.6,-123.8
Q 71.6,-123.8,72.3,-128.7
Q 72.8,-132.5,71.9,-134.5
Q 71.2,-136.1,70.9,-130.8
Q 70.7,-126.7,70.4,-125.2
 " /> 
<path  
style="fill:rgb(97,247,248)" 
d="M 62.7 -134.1
Q 62.7,-133.1,63.1,-133.1
Q 63.9,-133.1,64.0,-136.3
Q 64.0,-138.8,63.1,-136.3
Q 62.7,-135.1,62.7,-134.1
 " /> 
<path  
style="fill:rgb(14,103,171)" 
d="M 68.4 -40.7
Q 67.6,-40.7,66.7,-40.7
Q 66.9,-40.5,67.1,-40.4
Q 67.5,-40.1,68.4,-40.7
 " /> 
<path  
style="fill:rgb(7,193,201)" 
d="M 68.4 -40.7
Q 67.9,-41.1,67.3,-41.5
Q 67.0,-41.1,66.7,-40.7
Q 67.6,-40.7,68.4,-40.7
 " /> 
<path  
style="fill:rgb(97,247,248)" 
d="M 74.2 -52.7
Q 74.4,-53.3,74.7,-54.0
Q 74.6,-53.9,74.4,-53.8
Q 74.2,-53.5,74.2,-52.7
 " /> 
<path  
style="fill:rgb(97,247,248)" 
d="M 74.2 -52.7
Q 78.7,-53.9,82.1,-55.5
Q 92.4,-60.5,93.1,-62.9
Q 93.5,-64.2,90.1,-61.7
Q 85.6,-58.3,80.8,-56.1
Q 78.2,-54.9,74.7,-54.0
Q 74.4,-53.3,74.2,-52.7
 " /> 
<path  
style="fill:rgb(14,103,171)" 
d="M 77.3 -65.1
Q 77.8,-65.2,77.8,-67.8
Q 77.4,-67.7,77.3,-66.4
Q 77.3,-65.7,77.3,-65.1
 " /> 
<path  
style="fill:rgb(97,247,248)" 
d="M 77.8 -71.8
Q 80.9,-72.7,83.2,-73.8
Q 89.7,-77.0,93.6,-82.9
Q 95.7,-86.2,97.7,-88.8
Q 102.7,-95.5,102.7,-96.1
Q 102.7,-98.0,101.0,-95.0
Q 100.1,-93.3,98.3,-91.3
Q 96.6,-89.3,94.4,-86.0
Q 89.2,-78.0,81.1,-74.2
Q 79.4,-73.4,77.8,-72.7
Q 77.8,-72.2,77.8,-71.8
 " /> 
<path  
style="fill:rgb(14,103,171)" 
d="M 77.8 -77.6
Q 77.8,-78.2,77.8,-78.9
Q 77.6,-79.6,77.3,-80.2
Q 77.3,-77.4,77.6,-77.5
Q 77.7,-77.5,77.8,-77.6
 " /> 
<path  
style="fill:rgb(14,103,171)" 
d="M 77.3 -80.2
Q 77.6,-79.6,77.8,-78.9
Q 77.8,-78.9,77.8,-78.9
Q 77.8,-80.3,77.6,-80.3
Q 77.4,-80.2,77.3,-80.2
 " /> 
<path  
style="fill:rgb(14,103,171)" 
d="M 77.3 -82.4
Q 77.3,-83.4,77.3,-84.3
Q 77.4,-86.1,76.9,-86.0
Q 76.9,-82.8,76.9,-82.6
Q 77.0,-82.3,77.3,-82.4
 " /> 
<path  
style="fill:rgb(97,247,248)" 
d="M 76.9 -86.4
Q 78.2,-87.6,79.6,-88.8
Q 92.9,-100.4,103.2,-121.9
Q 108.3,-132.6,107.0,-133.4
Q 106.5,-133.7,105.2,-129.6
Q 100.7,-116.0,85.9,-97.2
Q 82.7,-93.1,76.9,-87.8
Q 76.9,-87.1,76.9,-86.4
 " /> 
<path  
style="fill:rgb(97,247,248)" 
d="M 74.2 -104.7
Q 80.6,-110.7,82.6,-117.1
Q 85.3,-125.9,84.5,-142.5
Q 84.3,-145.7,83.6,-144.8
Q 83.2,-144.4,83.7,-138.7
Q 85.3,-118.7,76.2,-107.6
Q 75.2,-106.3,74.2,-105.1
Q 74.2,-104.9,74.2,-104.7
 " /> 
<path  
style="fill:rgb(14,103,171)" 
d="M 76.9 -148.7
Q 77.3,-148.8,77.3,-151.3
Q 76.9,-151.2,76.9,-149.9
Q 76.9,-149.3,76.9,-148.7
 " /> 
<path  
style="fill:rgb(14,103,171)" 
d="M 77.3 -152.7
Q 77.4,-157.6,77.3,-157.8
Q 77.3,-158.1,77.1,-158.1
Q 77.0,-158.0,76.9,-158.0
Q 76.9,-156.6,76.9,-155.2
Q 76.9,-152.5,77.1,-152.6
Q 77.2,-152.6,77.3,-152.7
 " /> 
<path  
style="fill:rgb(14,103,171)" 
d="M 80.4 -165.6
Q 80.8,-165.1,81.1,-164.7
Q 81.8,-163.8,82.7,-163.1
Q 83.1,-162.8,83.6,-162.4
Q 82.2,-164.2,80.4,-165.6
 " /> 
<path  
style="fill:rgb(14,103,171)" 
d="M 96.9 -134.9
Q 98.1,-134.6,98.6,-135.2
Q 98.9,-135.5,99.1,-135.8
Q 98.9,-135.6,98.6,-135.4
Q 98.1,-135.0,97.5,-134.9
Q 97.2,-134.9,96.9,-134.9
 " /> 
<path  
style="fill:rgb(14,103,171)" 
d="M 108.0 -158.4
Q 108.3,-158.7,108.6,-158.9
Q 109.3,-159.4,109.8,-160.0
Q 110.0,-160.3,110.2,-160.7
Q 109.9,-160.4,109.6,-160.2
Q 108.9,-159.8,108.0,-158.4
 " /> 
<path  
style="fill:rgb(14,103,171)" 
d="M 120.0 -119.8
Q 120.0,-118.4,120.0,-117.1
Q 120.1,-117.4,120.2,-117.8
Q 120.5,-118.4,120.0,-119.8
 " /> 
<path  
style="fill:rgb(7,193,201)" 
d="M -67.6 -90.9
Q -67.6,-89.0,-67.5,-88.7
Q -67.4,-88.5,-67.1,-88.7
Q -67.1,-89.3,-67.1,-89.8
Q -67.3,-90.4,-67.6,-90.9
 " /> 
<path  
style="fill:rgb(97,247,248)" 
d="M -67.6 -90.9
Q -67.0,-91.0,-67.1,-89.8
Q -67.1,-89.8,-67.1,-89.8
Q -67.1,-89.3,-67.1,-88.7
Q -66.4,-78.2,-63.8,-68.9
Q -59.1,-52.6,-55.0,-45.5
Q -51.4,-39.0,-44.6,-31.0
Q -43.4,-32.6,-42.2,-34.3
Q -39.9,-37.6,-39.2,-37.6
Q -37.7,-37.6,-41.0,-33.2
Q -56.7,-12.6,-53.9,-4.1
Q -51.6,2.8,-38.5,-24.7
Q -37.9,-25.8,-36.4,-28.0
Q -33.3,-32.7,-32.3,-32.7
Q -31.2,-32.7,-34.0,-28.7
Q -35.7,-26.3,-34.6,-25.5
Q -30.5,-22.3,-29.8,-23.2
Q -29.4,-23.6,-28.4,-26.4
Q -27.4,-29.1,-26.7,-28.9
Q -25.9,-28.7,-27.1,-25.3
Q -28.0,-22.7,-28.2,-21.5
Q -28.4,-20.4,-29.5,-18.2
Q -32.9,-11.3,-33.0,-2.2
Q -33.2,7.0,-27.9,1.1
Q -23.8,-3.3,-18.9,-13.6
Q -18.3,-14.7,-16.6,-17.1
Q -12.8,-22.5,-12.0,-21.7
Q -11.4,-21.2,-13.3,-18.4
Q -14.3,-17.0,-15.2,-15.6
Q -14.2,-15.3,-13.3,-15.0
Q -10.3,-14.1,0.4,-13.1
Q 1.8,-13.1,3.1,-13.1
Q 16.0,-13.8,24.0,-15.8
Q 27.8,-16.7,29.5,-17.0
Q 31.2,-17.2,31.0,-17.7
Q 30.8,-18.2,29.2,-21.7
Q 27.6,-25.1,28.3,-25.4
Q 29.0,-25.7,31.2,-21.3
Q 33.2,-17.3,33.7,-16.6
Q 34.1,-16.0,35.6,-12.7
Q 42.3,2.3,42.3,-12.9
Q 42.3,-17.8,41.6,-19.3
Q 41.0,-20.9,40.2,-23.1
Q 39.5,-25.3,37.9,-28.2
Q 35.5,-32.7,36.5,-32.7
Q 37.7,-32.7,41.3,-25.2
Q 41.9,-24.0,42.5,-22.8
Q 43.7,-23.8,44.9,-24.9
Q 47.3,-27.0,47.2,-27.7
Q 47.1,-28.4,45.8,-32.2
Q 43.8,-37.4,44.7,-37.8
Q 45.2,-38.0,49.1,-28.2
Q 54.6,-14.5,56.3,-15.7
Q 57.7,-16.6,58.2,-22.9
Q 58.2,-25.6,58.2,-28.2
Q 57.3,-33.1,56.7,-35.2
Q 56.1,-37.4,54.7,-40.6
Q 53.2,-43.8,53.5,-44.1
Q 54.5,-45.1,56.8,-40.0
Q 58.4,-36.7,58.7,-36.7
Q 59.0,-36.6,61.3,-38.4
Q 61.7,-38.9,62.0,-39.3
Q 62.7,-40.2,63.3,-40.6
Q 63.7,-40.9,64.0,-41.1
Q 73.9,-54.6,75.1,-65.8
Q 75.3,-67.9,75.6,-70.0
Q 75.6,-71.6,75.6,-73.1
Q 75.6,-79.8,75.1,-82.8
Q 74.7,-85.8,74.2,-90.0
Q 72.0,-109.8,66.1,-121.2
Q 64.8,-123.8,60.0,-130.4
Q 59.4,-130.9,58.9,-131.3
Q 57.8,-132.2,57.1,-133.1
Q 56.8,-133.6,56.4,-134.0
Q 55.0,-135.1,53.6,-136.2
Q 50.7,-138.4,47.0,-140.7
Q 43.3,-142.9,43.4,-143.7
Q 43.5,-145.2,46.6,-143.6
Q 48.4,-142.6,48.3,-143.6
Q 47.5,-148.3,43.6,-155.1
Q 43.1,-155.9,42.7,-156.7
Q 42.3,-156.9,42.0,-157.1
Q 41.4,-157.6,40.4,-158.9
Q 39.7,-159.6,38.9,-160.2
Q 32.7,-165.6,24.9,-165.6
Q 21.7,-165.6,13.3,-160.2
Q 13.2,-160.0,13.0,-159.7
Q 12.7,-159.3,11.9,-158.6
Q 11.5,-158.3,11.1,-158.0
Q 10.2,-156.8,9.3,-155.6
Q 7.5,-153.1,6.4,-151.8
Q 5.9,-151.1,5.3,-150.4
Q 4.9,-150.3,4.4,-150.2
Q 4.0,-150.1,3.3,-150.1
Q 2.8,-150.2,2.2,-150.4
Q 0.9,-150.4,-0.4,-150.4
Q -1.6,-150.4,-2.7,-150.4
Q -3.8,-150.4,-4.9,-150.4
Q -5.3,-150.8,-5.8,-151.1
Q -6.7,-151.8,-7.7,-153.5
Q -15.8,-166.7,-27.1,-168.0
Q -28.2,-168.1,-29.3,-168.2
Q -31.1,-168.2,-32.9,-168.2
Q -33.6,-168.1,-34.2,-168.0
Q -35.6,-167.8,-38.2,-166.4
Q -38.6,-166.0,-38.9,-165.6
Q -39.6,-164.7,-40.2,-164.2
Q -40.6,-164.0,-40.9,-163.8
Q -41.4,-162.9,-42.0,-162.0
Q -46.2,-155.3,-46.3,-149.6
Q -46.4,-145.9,-47.9,-146.0
Q -48.2,-146.0,-48.4,-146.0
Q -48.7,-145.7,-48.9,-145.3
Q -49.4,-144.7,-50.7,-143.8
Q -50.8,-143.4,-50.9,-143.1
Q -51.1,-142.4,-51.2,-141.6
Q -51.3,-140.7,-53.0,-139.4
Q -57.9,-135.8,-62.9,-122.5
Q -66.0,-114.4,-66.9,-101.0
Q -67.1,-97.5,-67.6,-90.9
 " /> 
<path  
style="fill:rgb(4,4,4)" 
d="M 19.1 -25.3
Q 21.8,-23.5,21.8,-24.9
Q 21.8,-25.2,21.4,-25.6
Q 15.5,-32.0,0.9,-27.9
Q -3.2,-26.8,-2.3,-25.9
Q -1.9,-25.5,2.0,-26.5
Q 13.4,-29.1,19.1,-25.3
 " /> 
<path  
style="fill:rgb(4,4,4)" 
d="M -1.1 -46.9
Q -0.4,-45.8,1.6,-49.4
Q 3.2,-52.4,4.6,-54.4
Q 6.8,-57.6,5.6,-57.6
Q 4.2,-57.6,0.2,-50.3
Q -1.4,-47.3,-1.1,-46.9
 " /> 
<path  
style="fill:rgb(4,4,4)" 
d="M 12.9 -50.9
Q 15.2,-46.4,15.7,-46.6
Q 16.6,-47.0,14.7,-50.9
Q 11.5,-57.1,10.6,-57.1
Q 9.7,-57.1,12.9,-50.9
 " /> 
<path  
style="fill:rgb(14,103,171)" 
d="M 16.9 -78.0
Q 16.7,-77.9,16.5,-77.7
Q 16.0,-77.5,16.0,-75.3
Q 16.1,-75.7,16.2,-76.0
Q 16.4,-76.7,16.6,-77.3
Q 16.8,-77.7,16.9,-78.0
 " /> 
<path  
style="fill:rgb(4,4,4)" 
d="M 16.9 -78.0
Q 16.8,-77.7,16.6,-77.3
Q 16.4,-76.7,16.2,-76.0
Q 16.1,-75.7,16.0,-75.3
Q 15.6,-74.0,15.1,-72.7
Q 13.7,-68.5,13.9,-68.0
Q 14.6,-66.4,17.0,-73.2
Q 24.9,-57.7,32.7,-56.2
Q 33.9,-56.0,35.1,-55.8
Q 35.4,-55.9,35.8,-56.0
Q 36.4,-56.3,36.9,-56.0
Q 37.1,-55.9,37.3,-55.8
Q 45.8,-57.7,51.9,-62.6
Q 62.8,-71.2,64.2,-85.4
Q 64.3,-86.8,64.4,-88.2
Q 64.4,-90.2,64.4,-92.2
Q 64.4,-100.2,60.1,-109.0
Q 49.6,-130.2,39.3,-123.7
Q 38.3,-123.1,37.3,-122.4
Q 37.1,-122.1,36.9,-121.8
Q 36.4,-121.2,35.1,-120.2
Q 29.3,-113.0,24.3,-100.1
Q 22.2,-94.9,16.9,-78.0
 " /> 
<path  
style="fill:rgb(31,181,0)" 
d="M 38.2 -58.9
Q 36.2,-58.9,34.2,-58.9
Q 34.8,-58.8,35.3,-58.6
Q 36.4,-58.4,37.3,-58.6
Q 37.8,-58.8,38.2,-58.9
 " /> 
<path  
style="fill:rgb(115,250,3)" 
d="M 38.2 -58.9
Q 43.1,-60.2,45.4,-61.5
Q 60.4,-69.8,61.9,-88.5
Q 62.1,-90.1,62.2,-91.8
Q 61.9,-91.7,61.8,-91.9
Q 61.7,-92.2,61.8,-93.3
Q 61.8,-93.3,61.8,-93.3
Q 61.8,-94.1,61.8,-94.9
Q 61.1,-94.8,60.4,-94.8
Q 60.9,-87.3,56.2,-78.0
Q 46.0,-57.8,26.7,-69.3
Q 23.3,-71.3,24.4,-74.5
Q 24.9,-75.8,26.7,-78.0
Q 25.9,-78.2,25.2,-78.4
Q 23.7,-78.8,23.6,-79.6
Q 23.6,-80.3,25.0,-80.0
Q 31.1,-78.8,35.5,-84.2
Q 40.9,-90.8,42.6,-92.1
Q 44.0,-93.1,48.0,-92.7
Q 49.3,-91.7,49.8,-91.1
Q 50.0,-90.8,50.2,-90.4
Q 53.0,-85.3,53.8,-86.4
Q 54.2,-87.1,54.2,-91.3
Q 54.2,-98.2,51.4,-104.9
Q 50.8,-106.2,50.2,-107.4
Q 48.5,-110.8,49.0,-111.1
Q 50.1,-111.8,52.0,-107.6
Q 52.4,-106.6,52.9,-105.6
Q 53.5,-105.4,54.3,-105.7
Q 56.1,-106.5,57.9,-103.4
Q 60.2,-99.4,60.4,-94.8
Q 61.1,-94.8,61.8,-94.9
Q 61.4,-98.4,59.6,-104.7
Q 59.3,-104.9,59.1,-105.1
Q 58.7,-105.6,58.2,-107.3
Q 57.6,-108.7,56.9,-110.0
Q 55.6,-112.7,52.0,-118.0
Q 51.6,-118.3,51.1,-118.7
Q 50.2,-119.3,49.8,-120.0
Q 49.6,-120.3,49.3,-120.7
Q 48.3,-121.2,47.3,-121.8
Q 37.6,-127.2,26.1,-98.9
Q 18.1,-79.4,19.4,-75.4
Q 23.4,-62.5,34.2,-58.9
Q 36.2,-58.9,38.2,-58.9
 " /> 
<path  
style="fill:rgb(209,251,185)" 
d="M 28.2 -85.1
Q 30.5,-82.6,38.2,-89.7
Q 42.4,-93.6,45.0,-95.0
Q 49.1,-97.1,49.6,-98.8
Q 50.3,-101.2,47.3,-107.1
Q 45.1,-111.4,43.7,-112.3
Q 42.2,-113.3,42.0,-114.2
Q 41.9,-114.7,41.8,-115.1
Q 40.7,-113.2,39.2,-112.1
Q 37.7,-111.1,35.7,-107.6
Q 33.8,-104.1,33.9,-103.4
Q 33.9,-102.6,30.9,-96.6
Q 26.2,-87.3,28.2,-85.1
 " /> 
<path  
style="fill:rgb(31,181,0)" 
d="M 52.0 -118.0
Q 51.7,-118.4,51.3,-118.9
Q 50.6,-119.7,50.0,-120.2
Q 49.7,-120.4,49.3,-120.7
Q 49.6,-120.3,49.8,-120.0
Q 50.2,-119.3,51.1,-118.7
Q 51.6,-118.3,52.0,-118.0
 " /> 
<path  
style="fill:rgb(31,181,0)" 
d="M 58.2 -107.3
Q 58.7,-105.6,59.1,-105.1
Q 59.3,-104.9,59.6,-104.7
Q 59.4,-105.1,59.3,-105.5
Q 59.1,-106.4,58.2,-107.3
 " /> 
<path  
style="fill:rgb(31,181,0)" 
d="M 61.8 -94.9
Q 61.8,-94.1,61.8,-93.3
Q 62.0,-92.5,62.2,-91.8
Q 62.2,-94.5,62.2,-94.7
Q 62.1,-95.0,61.8,-94.9
 " /> 
<path  
style="fill:rgb(31,181,0)" 
d="M 62.2 -91.8
Q 62.0,-92.5,61.8,-93.3
Q 61.8,-93.3,61.8,-93.3
Q 61.7,-92.2,61.8,-91.9
Q 61.9,-91.7,62.2,-91.8
 " /> 
<path  
style="fill:rgb(115,250,3)" 
d="M 42.2 -89.1
Q 42.7,-88.9,43.1,-88.6
Q 43.1,-88.6,43.1,-88.6
Q 46.1,-89.9,48.3,-86.6
Q 50.9,-82.4,52.5,-82.4
Q 53.3,-82.4,52.9,-83.3
Q 50.6,-85.5,49.7,-87.2
Q 47.6,-90.9,45.7,-90.9
Q 44.4,-90.9,42.2,-89.1
 " /> 
<path  
style="fill:rgb(115,250,3)" 
d="M 42.2 -89.1
Q 42.0,-88.6,41.8,-88.1
Q 42.5,-88.3,43.1,-88.6
Q 42.7,-88.9,42.2,-89.1
 " /> 
<path  
style="fill:rgb(31,181,0)" 
d="M 42.2 -89.1
Q 41.3,-88.0,40.4,-86.9
Q 32.6,-77.1,26.7,-78.0
Q 24.9,-75.8,24.4,-74.5
Q 23.3,-71.3,26.7,-69.3
Q 46.0,-57.8,56.2,-78.0
Q 60.9,-87.3,60.4,-94.8
Q 60.2,-99.4,57.9,-103.4
Q 56.1,-106.5,54.3,-105.7
Q 53.5,-105.4,52.9,-105.6
Q 53.3,-104.7,53.8,-103.8
Q 56.0,-99.3,56.1,-91.5
Q 56.2,-84.8,53.8,-83.8
Q 53.4,-83.5,52.9,-83.3
Q 53.3,-82.4,52.5,-82.4
Q 50.9,-82.4,48.3,-86.6
Q 46.1,-89.9,43.1,-88.6
Q 43.1,-88.6,43.1,-88.6
Q 42.5,-88.3,41.8,-88.1
Q 42.0,-88.6,42.2,-89.1
 " /> 
<path  
style="fill:rgb(4,4,4)" 
d="M 42.2 -89.1
Q 44.4,-90.9,45.7,-90.9
Q 47.6,-90.9,49.7,-87.2
Q 50.6,-85.5,52.9,-83.3
Q 53.4,-83.5,53.8,-83.8
Q 56.2,-84.8,56.1,-91.5
Q 56.0,-99.3,53.8,-103.8
Q 53.3,-104.7,52.9,-105.6
Q 52.1,-105.2,51.4,-104.9
Q 54.2,-98.2,54.2,-91.3
Q 54.2,-87.1,53.8,-86.4
Q 53.0,-85.3,50.2,-90.4
Q 49.9,-90.7,49.6,-90.9
Q 48.9,-91.3,48.5,-92.0
Q 48.2,-92.3,48.0,-92.7
Q 44.0,-93.1,42.6,-92.1
Q 40.9,-90.8,35.5,-84.2
Q 31.1,-78.8,25.0,-80.0
Q 23.6,-80.3,23.6,-79.6
Q 23.7,-78.8,25.2,-78.4
Q 25.9,-78.2,26.7,-78.0
Q 32.6,-77.1,40.4,-86.9
Q 41.3,-88.0,42.2,-89.1
 " /> 
<path  
style="fill:rgb(4,4,4)" 
d="M 52.9 -105.6
Q 52.4,-106.6,52.0,-107.6
Q 50.1,-111.8,49.0,-111.1
Q 48.5,-110.8,50.2,-107.4
Q 50.8,-106.2,51.4,-104.9
Q 52.1,-105.2,52.9,-105.6
 " /> 
<path  
style="fill:rgb(31,181,0)" 
d="M 48.0 -92.7
Q 48.2,-92.3,48.5,-92.0
Q 48.9,-91.3,49.6,-90.9
Q 49.9,-90.7,50.2,-90.4
Q 50.0,-90.8,49.8,-91.1
Q 49.3,-91.7,48.0,-92.7
 " /> 
<path  
style="fill:rgb(14,103,171)" 
d="M 35.1 -120.2
Q 36.4,-121.2,36.9,-121.8
Q 37.1,-122.1,37.3,-122.4
Q 36.0,-121.5,35.1,-120.2
 " /> 
<path  
style="fill:rgb(7,193,201)" 
d="M 64.4 -92.2
Q 64.4,-90.2,64.4,-88.2
Q 64.6,-88.8,64.7,-89.3
Q 64.9,-90.4,64.7,-91.3
Q 64.6,-91.8,64.4,-92.2
 " /> 
<path  
style="fill:rgb(14,103,171)" 
d="M 37.3 -55.8
Q 37.1,-55.9,36.9,-56.0
Q 36.4,-56.3,35.8,-56.0
Q 35.4,-55.9,35.1,-55.8
Q 36.2,-55.8,37.3,-55.8
 " /> 
<path  
style="fill:rgb(4,4,4)" 
d="M -21.8 -58.4
Q -19.4,-58.5,-19.5,-58.3
Q -19.5,-58.1,-19.6,-58.0
Q -18.2,-58.2,-16.9,-58.4
Q -8.2,-59.9,-1.5,-72.8
Q 0.1,-64.6,1.1,-65.7
Q 2.0,-66.5,-2.5,-86.5
Q -10.2,-120.7,-26.3,-129.7
Q -32.3,-133.1,-39.0,-129.6
Q -39.9,-129.2,-40.9,-128.7
Q -41.0,-128.4,-41.2,-128.2
Q -41.5,-127.7,-42.3,-127.1
Q -42.7,-126.7,-43.1,-126.4
Q -44.0,-125.3,-44.9,-124.2
Q -49.9,-117.9,-50.4,-105.3
Q -50.5,-102.5,-50.7,-99.8
Q -50.5,-99.8,-50.4,-99.8
Q -50.2,-99.9,-50.2,-96.2
Q -50.0,-94.4,-49.8,-92.7
Q -48.2,-80.2,-40.9,-71.3
Q -39.8,-70.0,-38.7,-68.7
Q -36.9,-67.3,-35.6,-65.6
Q -34.6,-64.7,-33.6,-63.8
Q -29.2,-59.9,-24.0,-58.9
Q -22.9,-58.7,-21.8,-58.4
 " /> 
<path  
style="fill:rgb(115,250,3)" 
d="M -38.2 -71.3
Q -35.1,-68.6,-34.0,-67.3
Q -33.4,-66.7,-32.9,-66.0
Q -31.4,-65.1,-30.0,-64.2
Q -20.9,-58.6,-13.3,-62.4
Q -12.0,-63.1,-10.7,-63.8
Q -9.3,-65.5,-8.0,-66.4
Q -7.1,-67.8,-6.2,-69.1
Q -3.1,-73.8,-3.0,-77.9
Q -3.0,-79.4,-4.4,-85.6
Q -13.5,-124.1,-29.4,-128.4
Q -30.7,-128.8,-32.0,-129.1
Q -33.1,-129.1,-34.2,-129.1
Q -35.2,-128.9,-36.2,-128.7
Q -38.2,-128.2,-40.9,-125.6
Q -47.0,-119.6,-48.0,-109.6
Q -48.0,-106.6,-48.4,-106.4
Q -48.0,-94.4,-47.4,-91.4
Q -45.4,-82.2,-40.0,-74.0
Q -39.1,-72.7,-38.2,-71.3
 " /> 
<path  
style="fill:rgb(4,4,4)" 
d="M -41.3 -110.0
Q -41.8,-98.6,-38.9,-89.2
Q -35.5,-78.4,-30.3,-83.4
Q -28.3,-85.3,-27.0,-86.4
Q -26.6,-86.7,-26.1,-87.0
Q -26.3,-87.2,-26.4,-87.5
Q -26.8,-87.4,-27.3,-87.3
Q -27.0,-87.6,-26.7,-88.0
Q -25.1,-89.9,-23.0,-88.8
Q -22.3,-88.5,-21.6,-88.1
Q -21.8,-88.0,-22.0,-88.0
Q -22.4,-87.8,-23.6,-87.8
Q -24.5,-87.9,-26.4,-87.5
Q -26.3,-87.2,-26.1,-87.0
Q -22.6,-88.7,-16.6,-83.3
Q -13.3,-80.3,-10.1,-79.6
Q -10.0,-80.3,-9.8,-81.1
Q -11.1,-81.9,-12.4,-82.7
Q -15.1,-84.2,-17.8,-87.1
Q -20.5,-90.0,-21.8,-90.7
Q -22.4,-91.0,-23.1,-91.3
Q -24.2,-91.3,-25.3,-91.3
Q -25.6,-91.3,-25.8,-91.3
Q -26.0,-91.1,-26.2,-90.9
Q -26.7,-90.5,-28.4,-89.1
Q -29.3,-87.9,-30.2,-86.7
Q -32.0,-84.2,-32.8,-84.2
Q -36.5,-84.2,-39.6,-102.9
Q -39.7,-103.8,-39.8,-104.7
Q -40.0,-106.4,-39.6,-110.0
Q -39.4,-111.0,-39.3,-112.0
Q -39.1,-114.0,-37.8,-116.5
Q -36.4,-119.0,-36.7,-119.7
Q -36.9,-120.4,-38.2,-118.9
Q -40.5,-116.2,-41.1,-111.6
Q -41.2,-110.8,-41.3,-110.0
 " /> 
<path  
style="fill:rgb(31,181,0)" 
d="M -41.3 -110.0
Q -42.2,-108.2,-42.8,-108.2
Q -46.5,-107.9,-43.6,-94.2
Q -38.9,-72.2,-27.9,-67.1
Q -18.5,-62.7,-9.4,-72.3
Q -6.5,-75.4,-7.5,-78.1
Q -7.8,-78.7,-8.0,-79.3
Q -9.1,-79.3,-10.1,-79.6
Q -13.3,-80.3,-16.6,-83.3
Q -22.6,-88.7,-26.1,-87.0
Q -26.6,-86.7,-27.0,-86.4
Q -28.3,-85.3,-30.3,-83.4
Q -35.5,-78.4,-38.9,-89.2
Q -41.8,-98.6,-41.3,-110.0
 " /> 
<path  
style="fill:rgb(4,4,4)" 
d="M -8.0 -79.3
Q -7.3,-79.7,-7.2,-79.9
Q -7.2,-80.1,-7.1,-80.2
Q -7.6,-79.8,-8.0,-79.3
 " /> 
<path  
style="fill:rgb(4,4,4)" 
d="M -8.0 -79.3
Q -7.6,-79.8,-7.1,-80.2
Q -7.4,-80.3,-7.8,-80.5
Q -8.4,-80.7,-9.1,-80.9
Q -9.4,-81.0,-9.8,-81.1
Q -10.0,-80.3,-10.1,-79.6
Q -9.1,-79.3,-8.0,-79.3
 " /> 
<path  
style="fill:rgb(31,181,0)" 
d="M -39.6 -110.0
Q -40.0,-106.4,-39.8,-104.7
Q -39.7,-103.8,-39.6,-102.9
Q -39.6,-106.4,-39.6,-110.0
 " /> 
<path  
style="fill:rgb(31,181,0)" 
d="M -28.4 -89.1
Q -26.7,-90.5,-26.2,-90.9
Q -26.0,-91.1,-25.8,-91.3
Q -26.1,-91.2,-26.4,-91.1
Q -27.0,-90.8,-28.4,-89.1
 " /> 
<path  
style="fill:rgb(31,181,0)" 
d="M -25.3 -91.3
Q -24.2,-91.3,-23.1,-91.3
Q -23.4,-91.5,-23.8,-91.6
Q -24.4,-91.8,-24.9,-91.6
Q -25.1,-91.5,-25.3,-91.3
 " /> 
<path  
style="fill:rgb(31,181,0)" 
d="M -9.8 -81.1
Q -9.4,-81.0,-9.1,-80.9
Q -8.4,-80.7,-7.8,-80.5
Q -7.4,-80.3,-7.1,-80.2
Q -7.2,-80.5,-7.3,-80.7
Q -7.5,-81.2,-9.8,-81.1
 " /> 
<path  
style="fill:rgb(255,255,255)" 
d="M -26.7 -88.0
Q -26.5,-87.7,-26.4,-87.5
Q -24.5,-87.9,-23.6,-87.8
Q -22.4,-87.8,-22.0,-88.0
Q -21.8,-88.0,-21.6,-88.1
Q -22.3,-88.5,-23.0,-88.8
Q -25.1,-89.9,-26.7,-88.0
 " /> 
<path  
style="fill:rgb(255,255,255)" 
d="M -26.7 -88.0
Q -27.0,-87.6,-27.3,-87.3
Q -26.8,-87.4,-26.4,-87.5
Q -26.5,-87.7,-26.7,-88.0
 " /> 
<path  
style="fill:rgb(209,251,185)" 
d="M -12.2 -87.9
Q -9.5,-86.7,-9.9,-88.1
Q -10.1,-88.9,-12.6,-94.4
Q -22.1,-115.3,-27.8,-112.5
Q -31.3,-110.9,-32.5,-106.3
Q -34.8,-97.7,-23.5,-94.3
Q -19.8,-93.1,-16.7,-90.9
Q -13.6,-88.6,-12.2,-87.9
 " /> 
<path  
style="fill:rgb(31,181,0)" 
d="M -38.2 -71.3
Q -35.5,-68.2,-32.9,-66.0
Q -33.4,-66.7,-34.0,-67.3
Q -35.1,-68.6,-38.2,-71.3
 " /> 
<path  
style="fill:rgb(31,181,0)" 
d="M -48.4 -106.4
Q -48.0,-106.6,-48.0,-109.6
Q -48.1,-109.5,-48.2,-109.5
Q -48.4,-109.4,-48.4,-107.9
Q -48.4,-107.2,-48.4,-106.4
 " /> 
<path  
style="fill:rgb(31,181,0)" 
d="M -34.2 -129.1
Q -33.1,-129.1,-32.0,-129.1
Q -33.3,-129.6,-34.2,-129.1
 " /> 
<path  
style="fill:rgb(31,181,0)" 
d="M -8.0 -66.4
Q -9.3,-65.5,-10.7,-63.8
Q -8.9,-65.1,-8.0,-66.4
 " /> 
<path  
style="fill:rgb(7,193,201)" 
d="M -21.8 -58.4
Q -21.9,-58.0,-21.7,-58.0
Q -21.4,-57.9,-19.6,-58.0
Q -19.5,-58.1,-19.5,-58.3
Q -19.4,-58.5,-21.8,-58.4
 " /> 
<path  
style="fill:rgb(14,103,171)" 
d="M -35.6 -65.6
Q -36.9,-67.3,-38.7,-68.7
Q -37.3,-66.9,-36.4,-66.2
Q -36.0,-65.9,-35.6,-65.6
 " /> 
<path  
style="fill:rgb(7,193,201)" 
d="M -50.2 -96.2
Q -50.2,-99.9,-50.4,-99.8
Q -50.5,-99.8,-50.7,-99.8
Q -50.7,-96.6,-50.6,-96.3
Q -50.6,-96.1,-50.2,-96.2
 " /> 
<path  
style="fill:rgb(14,103,171)" 
d="M -43.1 -126.4
Q -42.7,-126.7,-42.3,-127.1
Q -41.5,-127.7,-41.2,-128.2
Q -41.0,-128.4,-40.9,-128.7
Q -41.2,-128.4,-41.5,-128.2
Q -42.2,-127.7,-43.1,-126.4
 " /> 
<path  
style="fill:rgb(7,193,201)" 
d="M -67.6 -90.9
Q -67.3,-90.4,-67.1,-89.8
Q -67.1,-89.8,-67.1,-89.8
Q -67.0,-91.0,-67.6,-90.9
 " /> 
<path  
style="fill:rgb(4,4,4)" 
d="M -50.7 -143.8
Q -50.4,-144.2,-50.0,-144.6
Q -49.4,-145.4,-48.4,-146.0
Q -49.0,-146.5,-49.6,-147.0
Q -49.8,-146.8,-50.1,-146.5
Q -50.9,-145.7,-51.8,-144.8
Q -51.2,-144.3,-50.7,-143.8
 " /> 
<path  
style="fill:rgb(14,103,171)" 
d="M -50.7 -143.8
Q -49.4,-144.7,-48.9,-145.3
Q -48.7,-145.7,-48.4,-146.0
Q -49.4,-145.4,-50.0,-144.6
Q -50.4,-144.2,-50.7,-143.8
 " /> 
<path  
style="fill:rgb(4,4,4)" 
d="M -48.4 -146.0
Q -48.2,-146.0,-47.9,-146.0
Q -46.4,-145.9,-46.3,-149.6
Q -46.2,-155.3,-42.0,-162.0
Q -41.4,-162.9,-40.9,-163.8
Q -40.6,-164.2,-40.3,-164.6
Q -39.6,-165.4,-38.9,-165.9
Q -38.6,-166.2,-38.2,-166.4
Q -35.6,-167.8,-34.2,-168.0
Q -33.6,-168.1,-32.9,-168.2
Q -31.1,-168.7,-30.2,-168.5
Q -29.8,-168.3,-29.3,-168.2
Q -28.2,-168.1,-27.1,-168.0
Q -15.8,-166.7,-7.7,-153.5
Q -6.7,-151.8,-5.8,-151.1
Q -5.3,-150.8,-4.9,-150.4
Q -4.7,-150.9,-2.7,-150.9
Q -2.1,-150.9,-1.5,-150.9
Q -1.5,-150.9,-1.5,-150.9
Q -1.0,-150.9,-0.8,-150.9
Q -0.6,-151.4,-0.5,-151.9
Q -0.5,-151.9,-0.5,-152.0
Q -0.5,-152.1,-0.4,-152.2
Q -3.4,-152.2,-4.1,-152.6
Q -4.8,-153.0,-6.2,-155.2
Q -12.6,-165.4,-22.2,-168.9
Q -27.3,-170.8,-31.4,-188.7
Q -33.1,-196.4,-33.1,-199.1
Q -33.0,-202.5,-27.9,-193.1
Q -25.5,-188.7,-20.1,-181.1
Q -17.5,-177.3,-15.3,-174.1
Q -13.1,-170.9,-12.5,-171.1
Q -11.8,-171.2,-11.9,-171.8
Q -12.1,-172.4,-16.3,-178.8
Q -23.1,-189.0,-22.1,-190.6
Q -20.8,-192.6,-18.8,-192.9
Q -18.0,-193.1,-17.1,-189.8
Q -15.8,-185.1,-13.6,-178.1
Q -12.4,-174.4,-11.7,-174.4
Q -10.4,-174.4,-12.4,-180.4
Q -14.5,-186.8,-15.6,-191.3
Q -16.5,-195.2,-17.8,-199.6
Q -18.2,-200.9,-18.5,-203.1
Q -18.6,-204.2,-18.7,-205.3
Q -18.2,-204.3,-17.8,-203.3
Q -14.3,-196.3,-11.7,-188.8
Q -10.9,-186.4,-10.1,-186.4
Q -9.0,-186.4,-11.0,-192.0
Q -13.5,-199.1,-13.1,-202.3
Q -12.9,-204.2,-10.7,-206.4
Q -10.2,-206.7,-10.2,-205.4
Q -10.2,-204.8,-10.2,-204.2
Q -9.7,-200.1,-9.1,-196.0
Q -7.8,-185.9,-6.7,-187.6
Q -6.4,-187.9,-6.2,-188.2
Q -6.6,-188.1,-6.6,-188.3
Q -6.7,-188.5,-6.7,-190.4
Q -6.7,-191.1,-6.7,-191.8
Q -7.0,-191.6,-7.1,-191.8
Q -7.1,-192.1,-7.1,-194.0
Q -8.0,-201.6,-8.9,-207.8
Q -9.2,-207.6,-9.3,-207.8
Q -9.3,-208.1,-9.3,-210.4
Q -9.3,-213.5,-9.3,-216.5
Q -9.2,-229.4,-6.5,-223.0
Q -3.0,-214.3,-1.2,-200.0
Q -0.4,-200.1,0.4,-200.2
Q -0.3,-206.2,-0.2,-206.6
Q -0.2,-207.0,0.0,-207.1
Q 0.2,-207.2,0.4,-207.3
Q 0.8,-208.0,1.2,-208.7
Q 0.9,-208.8,0.7,-209.0
Q -0.7,-209.6,-1.7,-213.9
Q -5.4,-229.4,-9.3,-226.7
Q -11.3,-225.3,-11.2,-216.2
Q -11.2,-208.7,-12.9,-207.0
Q -14.7,-205.2,-14.7,-204.0
Q -14.7,-202.9,-15.0,-202.9
Q -15.4,-202.9,-15.9,-204.4
Q -17.3,-208.2,-19.6,-208.2
Q -21.0,-208.2,-20.8,-204.7
Q -20.5,-201.2,-19.8,-199.3
Q -18.5,-195.1,-20.3,-194.2
Q -22.0,-193.5,-23.2,-192.3
Q -24.0,-191.6,-24.3,-191.7
Q -24.8,-191.7,-27.2,-196.1
Q -30.5,-202.2,-32.8,-202.7
Q -36.6,-203.7,-34.5,-193.3
Q -33.8,-190.2,-33.3,-187.8
Q -32.3,-182.7,-31.1,-179.5
Q -30.8,-178.6,-30.0,-176.7
Q -29.2,-174.7,-27.1,-170.4
Q -34.4,-170.4,-36.7,-169.4
Q -45.9,-165.1,-47.9,-150.5
Q -48.2,-148.5,-49.6,-147.0
Q -49.0,-146.5,-48.4,-146.0
 " /> 
<path  
style="fill:rgb(7,193,201)" 
d="M -40.9 -163.8
Q -40.6,-164.0,-40.2,-164.2
Q -39.6,-164.7,-38.9,-165.6
Q -38.6,-166.0,-38.2,-166.4
Q -38.6,-166.2,-38.9,-165.9
Q -39.6,-165.4,-40.3,-164.6
Q -40.6,-164.2,-40.9,-163.8
 " /> 
<path  
style="fill:rgb(7,193,201)" 
d="M -32.9 -168.2
Q -31.1,-168.2,-29.3,-168.2
Q -29.8,-168.3,-30.2,-168.5
Q -31.1,-168.7,-32.9,-168.2
 " /> 
<path  
style="fill:rgb(7,193,201)" 
d="M -4.9 -150.4
Q -3.8,-150.4,-2.7,-150.4
Q -2.7,-150.7,-2.7,-150.9
Q -4.7,-150.9,-4.9,-150.4
 " /> 
<path  
style="fill:rgb(14,103,171)" 
d="M -2.7 -150.4
Q -1.6,-150.4,-0.4,-150.4
Q -1.0,-150.7,-1.5,-150.9
Q -1.5,-150.9,-1.5,-150.9
Q -2.1,-150.9,-2.7,-150.9
Q -2.7,-150.7,-2.7,-150.4
 " /> 
<path  
style="fill:rgb(14,103,171)" 
d="M -0.4 -150.4
Q -0.4,-150.5,-0.4,-150.6
Q -0.4,-150.8,-0.8,-150.9
Q -1.0,-150.9,-1.5,-150.9
Q -1.0,-150.7,-0.4,-150.4
 " /> 
<path  
style="fill:rgb(4,4,4)" 
d="M -0.4 -150.4
Q 0.9,-150.4,2.2,-150.4
Q 2.2,-151.1,2.2,-151.7
Q 1.8,-151.7,1.5,-151.7
Q 0.3,-151.7,-0.2,-151.8
Q -0.3,-151.2,-0.4,-150.6
Q -0.4,-150.5,-0.4,-150.4
 " /> 
<path  
style="fill:rgb(4,4,4)" 
d="M 2.2 -150.4
Q 2.8,-150.4,3.4,-150.4
Q 3.5,-151.1,3.6,-151.8
Q 2.9,-151.8,2.2,-151.7
Q 2.2,-151.1,2.2,-150.4
 " /> 
<path  
style="fill:rgb(7,193,201)" 
d="M 2.2 -150.4
Q 2.8,-150.2,3.3,-150.1
Q 3.4,-150.3,3.4,-150.4
Q 2.8,-150.4,2.2,-150.4
 " /> 
<path  
style="fill:rgb(7,193,201)" 
d="M 5.3 -150.4
Q 4.4,-150.4,3.6,-150.4
Q 3.1,-150.4,2.7,-150.4
Q 3.4,-150.3,3.3,-150.1
Q 4.0,-150.1,4.4,-150.2
Q 4.9,-150.3,5.3,-150.4
 " /> 
<path  
style="fill:rgb(4,4,4)" 
d="M 5.3 -150.4
Q 5.9,-151.1,6.4,-151.8
Q 7.5,-153.1,9.3,-155.6
Q 10.2,-156.8,11.1,-158.0
Q 10.5,-158.5,9.9,-159.1
Q 8.4,-157.5,7.0,-155.4
Q 5.3,-153.1,4.4,-152.4
Q 4.0,-152.1,3.6,-151.8
Q 3.6,-151.1,3.6,-150.4
Q 4.4,-150.4,5.3,-150.4
 " /> 
<path  
style="fill:rgb(4,4,4)" 
d="M 11.1 -158.0
Q 12.2,-159.4,13.3,-160.2
Q 12.8,-160.8,12.2,-161.5
Q 10.6,-160.0,9.0,-158.1
Q 10.5,-158.5,11.1,-158.0
 " /> 
<path  
style="fill:rgb(14,103,171)" 
d="M 11.1 -158.0
Q 11.5,-158.3,11.9,-158.6
Q 12.7,-159.3,13.0,-159.7
Q 13.2,-160.0,13.3,-160.2
Q 12.2,-159.4,11.1,-158.0
 " /> 
<path  
style="fill:rgb(14,103,171)" 
d="M 40.4 -158.9
Q 41.4,-157.6,42.0,-157.1
Q 42.3,-156.9,42.7,-156.7
Q 41.8,-158.0,40.4,-158.9
 " /> 
<path  
style="fill:rgb(7,193,201)" 
d="M 56.4 -134.0
Q 56.8,-133.6,57.1,-133.1
Q 57.8,-132.2,58.9,-131.3
Q 59.4,-130.9,60.0,-130.4
Q 58.2,-132.6,57.3,-133.3
Q 56.9,-133.7,56.4,-134.0
 " /> 
<path  
style="fill:rgb(14,103,171)" 
d="M 75.6 -73.1
Q 75.6,-71.6,75.6,-70.0
Q 75.7,-70.4,75.8,-70.9
Q 76.0,-71.8,75.8,-72.4
Q 75.7,-72.8,75.6,-73.1
 " /> 
<path  
style="fill:rgb(14,103,171)" 
d="M 64.0 -41.1
Q 63.7,-40.9,63.3,-40.6
Q 62.7,-40.2,62.0,-39.3
Q 61.7,-38.9,61.3,-38.4
Q 61.8,-38.8,62.2,-39.1
Q 63.1,-39.8,63.5,-40.4
Q 63.8,-40.8,64.0,-41.1
 " /> 
<path  
style="fill:rgb(14,103,171)" 
d="M 58.2 -28.2
Q 58.2,-25.6,58.2,-22.9
Q 58.7,-25.5,58.5,-26.9
Q 58.3,-27.6,58.2,-28.2
 " /> 
<path  
style="fill:rgb(14,103,171)" 
d="M 3.1 -13.1
Q 1.8,-13.1,0.4,-13.1
Q 0.8,-13.0,1.1,-12.8
Q 1.8,-12.6,3.1,-13.1
 " /> 
<path  
style="fill:rgb(7,193,201)" 
d="M -0.4 -152.2
Q 0.6,-152.2,1.6,-152.3
Q 3.7,-152.3,3.6,-152.0
Q 3.6,-151.9,3.6,-151.8
Q 4.0,-152.1,4.4,-152.4
Q 5.3,-153.1,7.0,-155.4
Q 8.4,-157.5,9.9,-159.1
Q 11.4,-160.9,13.0,-162.2
Q 13.2,-162.4,14.3,-163.2
Q 15.4,-163.9,16.4,-164.7
Q 16.6,-164.9,16.8,-165.1
Q 17.1,-165.6,18.7,-166.9
Q 19.1,-167.9,19.6,-168.9
Q 21.7,-173.6,24.6,-184.8
Q 25.3,-187.3,25.5,-189.3
Q 25.7,-190.3,25.8,-191.3
Q 25.7,-192.2,25.7,-193.1
Q 25.6,-194.9,24.9,-194.4
Q 24.3,-193.6,23.8,-192.7
Q 21.8,-189.5,18.0,-178.5
Q 16.1,-172.9,15.2,-174.2
Q 14.8,-174.8,16.9,-181.1
Q 18.3,-185.3,17.5,-187.0
Q 15.9,-190.4,13.1,-190.4
Q 11.6,-190.4,10.0,-184.2
Q 8.4,-177.9,7.6,-178.2
Q 6.5,-178.4,7.9,-183.8
Q 9.5,-189.6,8.7,-189.6
Q 8.0,-189.6,8.0,-190.2
Q 8.0,-190.8,8.9,-191.5
Q 9.4,-191.8,9.7,-192.5
Q 10.0,-193.2,10.7,-198.9
Q 10.7,-200.9,10.9,-201.0
Q 11.0,-201.1,11.1,-201.1
Q 11.1,-206.8,11.0,-207.0
Q 10.1,-208.4,7.7,-194.4
Q 6.6,-187.6,6.1,-187.2
Q 4.6,-186.3,5.3,-191.2
Q 6.4,-198.3,3.6,-204.2
Q 3.1,-204.6,2.7,-204.9
Q 1.8,-205.6,0.4,-207.3
Q 0.2,-207.2,0.0,-207.1
Q -0.2,-207.0,-0.2,-206.6
Q -0.3,-206.2,0.4,-200.2
Q 0.8,-200.3,0.9,-200.1
Q 0.9,-199.8,0.9,-197.6
Q 1.1,-194.7,1.3,-191.8
Q 1.9,-183.8,0.5,-185.4
Q 0.1,-185.8,-0.4,-191.8
Q -0.7,-196.1,-1.2,-200.0
Q -3.0,-214.3,-6.5,-223.0
Q -9.2,-229.4,-9.3,-216.5
Q -9.3,-213.5,-9.3,-210.4
Q -9.2,-210.5,-9.1,-210.5
Q -8.8,-210.6,-8.9,-207.8
Q -8.0,-201.6,-7.1,-194.0
Q -7.0,-194.0,-6.9,-194.1
Q -6.6,-194.2,-6.6,-193.0
Q -6.6,-193.0,-6.6,-193.0
Q -6.6,-192.4,-6.7,-191.8
Q -6.7,-191.1,-6.7,-190.4
Q -6.2,-190.6,-6.2,-189.4
Q -6.2,-189.4,-6.2,-189.4
Q -6.2,-188.8,-6.2,-188.2
Q -6.4,-187.9,-6.7,-187.6
Q -7.8,-185.9,-9.1,-196.0
Q -9.7,-200.1,-10.2,-204.2
Q -10.6,-204.1,-10.7,-204.3
Q -10.7,-204.6,-10.7,-206.4
Q -12.9,-204.2,-13.1,-202.3
Q -13.5,-199.1,-11.0,-192.0
Q -9.0,-186.4,-10.1,-186.4
Q -10.9,-186.4,-11.7,-188.8
Q -14.3,-196.3,-17.8,-203.3
Q -18.2,-204.3,-18.7,-205.3
Q -18.6,-204.2,-18.5,-203.1
Q -18.2,-200.9,-17.8,-199.6
Q -16.5,-195.2,-15.6,-191.3
Q -14.5,-186.8,-12.4,-180.4
Q -10.4,-174.4,-11.7,-174.4
Q -12.4,-174.4,-13.6,-178.1
Q -15.8,-185.1,-17.1,-189.8
Q -18.0,-193.1,-18.8,-192.9
Q -20.8,-192.6,-22.1,-190.6
Q -23.1,-189.0,-16.3,-178.8
Q -12.1,-172.4,-11.9,-171.8
Q -11.8,-171.2,-12.5,-171.1
Q -13.1,-170.9,-15.3,-174.1
Q -17.5,-177.3,-20.1,-181.1
Q -25.5,-188.7,-27.9,-193.1
Q -33.0,-202.5,-33.1,-199.1
Q -33.1,-196.4,-31.4,-188.7
Q -27.3,-170.8,-22.2,-168.9
Q -12.6,-165.4,-6.2,-155.2
Q -4.8,-153.0,-4.1,-152.6
Q -3.4,-152.2,-0.4,-152.2
 " /> 
<path  
style="fill:rgb(14,103,171)" 
d="M -0.4 -152.2
Q -0.5,-152.1,-0.5,-151.9
Q -0.5,-151.8,-0.1,-151.8
Q 0.3,-151.7,1.5,-151.7
Q 1.8,-151.7,2.2,-151.7
Q 2.9,-151.8,3.6,-151.8
Q 3.6,-151.9,3.6,-152.0
Q 3.7,-152.3,1.6,-152.3
Q 0.6,-152.2,-0.4,-152.2
 " /> 
<path  
style="fill:rgb(4,4,4)" 
d="M 3.6 -151.8
Q 3.5,-151.1,3.4,-150.4
Q 3.8,-150.4,4.2,-150.4
Q 3.6,-151.1,3.6,-151.8
 " /> 
<path  
style="fill:rgb(14,103,171)" 
d="M -10.7 -206.4
Q -10.7,-204.6,-10.7,-204.3
Q -10.6,-204.1,-10.2,-204.2
Q -10.2,-204.8,-10.2,-205.4
Q -10.2,-206.7,-10.7,-206.4
 " /> 
<path  
style="fill:rgb(14,103,171)" 
d="M -6.2 -188.2
Q -6.2,-188.8,-6.2,-189.4
Q -6.4,-189.9,-6.7,-190.4
Q -6.7,-188.5,-6.6,-188.3
Q -6.6,-188.1,-6.2,-188.2
 " /> 
<path  
style="fill:rgb(14,103,171)" 
d="M -6.7 -190.4
Q -6.4,-189.9,-6.2,-189.4
Q -6.2,-189.4,-6.2,-189.4
Q -6.2,-190.6,-6.7,-190.4
 " /> 
<path  
style="fill:rgb(14,103,171)" 
d="M -6.7 -191.8
Q -6.6,-192.4,-6.6,-193.0
Q -6.9,-193.5,-7.1,-194.0
Q -7.1,-192.1,-7.1,-191.8
Q -7.0,-191.6,-6.7,-191.8
 " /> 
<path  
style="fill:rgb(14,103,171)" 
d="M -7.1 -194.0
Q -6.9,-193.5,-6.6,-193.0
Q -6.6,-193.0,-6.6,-193.0
Q -6.6,-194.2,-6.9,-194.1
Q -7.0,-194.0,-7.1,-194.0
 " /> 
<path  
style="fill:rgb(14,103,171)" 
d="M -8.9 -207.8
Q -8.8,-210.6,-9.1,-210.5
Q -9.2,-210.5,-9.3,-210.4
Q -9.3,-208.1,-9.3,-207.8
Q -9.2,-207.6,-8.9,-207.8
 " /> 
<path  
style="fill:rgb(14,103,171)" 
d="M 0.9 -197.6
Q 0.9,-199.8,0.9,-200.1
Q 0.8,-200.3,0.4,-200.2
Q 0.4,-199.5,0.4,-198.8
Q 0.4,-197.3,0.9,-197.6
 " /> 
<path  
style="fill:rgb(4,4,4)" 
d="M 0.9 -197.6
Q 0.4,-197.3,0.4,-198.8
Q 0.4,-199.5,0.4,-200.2
Q -0.4,-200.1,-1.2,-200.0
Q -0.7,-196.1,-0.4,-191.8
Q 0.1,-185.8,0.5,-185.4
Q 1.9,-183.8,1.3,-191.8
Q 1.1,-194.7,0.9,-197.6
 " /> 
<path  
style="fill:rgb(4,4,4)" 
d="M 0.4 -207.3
Q 0.9,-207.0,1.3,-206.6
Q 2.2,-206.0,2.9,-205.1
Q 3.2,-204.7,3.6,-204.2
Q 4.2,-204.6,4.9,-205.1
Q 3.3,-207.6,1.1,-208.8
Q 0.8,-208.0,0.4,-207.3
 " /> 
<path  
style="fill:rgb(14,103,171)" 
d="M 0.4 -207.3
Q 1.8,-205.6,2.7,-204.9
Q 3.1,-204.6,3.6,-204.2
Q 3.2,-204.7,2.9,-205.1
Q 2.2,-206.0,1.3,-206.6
Q 0.9,-207.0,0.4,-207.3
 " /> 
<path  
style="fill:rgb(14,103,171)" 
d="M 11.1 -201.1
Q 11.0,-201.1,10.9,-201.0
Q 10.7,-200.9,10.7,-198.9
Q 11.0,-199.0,11.1,-200.1
Q 11.1,-200.6,11.1,-201.1
 " /> 
<path  
style="fill:rgb(14,103,171)" 
d="M 24.9 -194.4
Q 25.6,-194.9,25.7,-193.1
Q 25.7,-192.2,25.8,-191.3
Q 25.9,-192.2,26.0,-193.1
Q 26.3,-195.7,25.4,-194.8
Q 25.1,-194.6,24.9,-194.4
 " /> 
<path  
style="fill:rgb(14,103,171)" 
d="M 18.7 -166.9
Q 17.1,-165.6,16.8,-165.1
Q 16.6,-164.9,16.4,-164.7
Q 16.7,-164.9,17.0,-165.1
Q 17.6,-165.5,18.1,-166.2
Q 18.4,-166.5,18.7,-166.9
 " /> 
<path  
style="fill:rgb(4,4,4)" 
d="M -0.2 -151.8
Q -0.5,-151.8,-0.5,-151.9
Q -0.6,-151.4,-0.8,-150.9
Q -0.4,-150.8,-0.4,-150.5
Q -0.3,-151.2,-0.2,-151.8
 " /> 
</g> 
</svg> 
