<?xml version="1.0"?>
<!DOCTYPE svg PUBLIC "-//W3C//DTD SVG 1.1//EN" "http://www.w3.org/Graphics/SVG/1.1/DTD/svg11.dtd">
<svg xmlns="http://www.w3.org/2000/svg" version="1.1">
<g transform="translate(112.0,226.8)" stroke-width="0" fill="none" >
<path  
style="fill:rgb(4,4,4)" 
d="M 29.9 219.0
Q 30.2,220.1,30.6,220.5
Q 33.1,222.5,37.3,215.6
Q 39.4,212.1,42.8,207.7
Q 44.8,205.0,47.0,201.9
Q 49.2,198.8,51.3,196.0
Q 53.5,193.1,55.7,189.8
Q 57.9,186.4,58.2,185.9
Q 79.3,154.5,73.4,134.4
Q 71.7,128.5,66.4,122.7
Q 63.5,119.5,50.2,109.2
Q 36.4,98.5,36.4,80.7
Q 36.4,78.8,36.4,76.8
Q 37.1,77.2,37.7,77.7
Q 45.3,82.9,53.1,80.8
Q 62.9,78.2,62.8,66.4
Q 62.8,56.2,48.1,29.7
Q 36.4,8.5,31.5,-5.4
Q 30.1,-9.1,28.8,-11.3
Q 27.5,-13.5,28.0,-13.8
Q 28.4,-14.1,30.3,-14.1
Q 32.3,-14.2,34.2,-10.2
Q 37.9,-2.7,40.4,-2.7
Q 43.3,-2.7,44.3,-7.0
Q 45.5,-12.4,44.3,-17.4
Q 43.7,-20.0,45.8,-22.1
Q 48.0,-24.3,48.4,-24.4
Q 48.7,-24.5,49.2,-22.6
Q 51.7,-13.4,56.0,-13.4
Q 58.8,-13.4,59.8,-18.3
Q 61.1,-24.7,60.0,-30.4
Q 59.5,-33.1,62.0,-35.6
Q 64.6,-38.2,67.3,-38.5
Q 70.0,-38.8,73.3,-39.7
Q 87.0,-43.3,93.1,-48.0
Q 94.1,-48.7,96.7,-50.7
Q 106.7,-58.2,110.5,-67.6
Q 114.0,-76.3,109.0,-75.1
Q 108.1,-74.9,106.6,-73.8
Q 107.1,-73.1,107.6,-72.5
Q 107.9,-72.7,108.3,-73.0
Q 109.1,-73.5,109.4,-73.2
Q 109.6,-73.1,109.8,-72.9
Q 108.8,-69.0,107.8,-66.8
Q 104.1,-59.0,96.3,-53.1
Q 82.7,-42.7,68.5,-40.6
Q 67.5,-40.5,66.6,-40.4
Q 67.7,-42.0,68.8,-43.5
Q 71.1,-46.7,74.2,-52.5
Q 74.2,-53.3,74.4,-53.6
Q 74.6,-53.7,74.7,-53.8
Q 77.8,-62.5,77.8,-71.6
Q 77.8,-72.0,77.8,-72.5
Q 77.8,-74.3,77.8,-76.0
Q 77.7,-76.0,77.6,-76.0
Q 77.3,-75.9,77.3,-79.6
Q 77.3,-80.5,77.3,-81.4
Q 77.2,-81.3,77.1,-81.3
Q 76.9,-81.2,76.9,-84.5
Q 76.9,-85.4,76.9,-86.3
Q 76.9,-86.5,76.9,-86.7
Q 76.0,-93.4,75.1,-98.9
Q 74.7,-101.7,74.2,-104.5
Q 74.2,-104.7,74.2,-104.9
Q 73.7,-107.0,73.1,-109.2
Q 69.3,-124.1,59.9,-133.5
Q 55.0,-138.4,54.8,-138.8
Q 54.6,-139.1,55.5,-139.1
Q 56.4,-139.1,57.3,-140.4
Q 58.9,-142.4,57.2,-145.6
Q 57.0,-146.0,56.8,-146.4
Q 57.3,-146.0,57.9,-145.5
Q 65.0,-139.6,66.9,-140.9
Q 67.2,-141.1,67.6,-141.4
Q 67.6,-143.1,67.6,-144.9
Q 67.3,-145.7,67.1,-146.5
Q 66.7,-148.0,66.2,-148.9
Q 66.0,-149.4,65.8,-149.8
Q 65.7,-150.0,65.6,-150.1
Q 65.6,-150.2,65.5,-150.4
Q 66.4,-149.6,67.2,-148.8
Q 68.0,-148.0,68.9,-147.1
Q 70.6,-146.0,72.2,-145.2
Q 76.9,-143.0,76.9,-150.7
Q 76.9,-152.3,76.9,-153.8
Q 76.9,-155.8,76.9,-157.8
Q 76.4,-160.0,76.9,-162.3
Q 78.6,-165.2,79.6,-165.1
Q 84.5,-164.7,91.6,-144.7
Q 94.4,-136.9,95.6,-135.2
Q 96.8,-133.7,98.2,-135.1
Q 98.5,-135.5,98.7,-135.8
Q 99.1,-136.4,99.6,-137.1
Q 99.8,-137.5,100.0,-137.8
Q 100.8,-139.9,101.5,-142.0
Q 103.1,-146.3,104.4,-150.3
Q 105.1,-152.3,105.8,-154.3
Q 105.9,-154.7,106.0,-155.1
Q 106.2,-156.0,106.9,-156.7
Q 107.2,-157.0,107.6,-157.4
Q 110.5,-160.2,111.0,-160.3
Q 112.1,-160.6,113.1,-157.4
Q 113.4,-156.3,113.8,-155.1
Q 114.1,-155.3,114.2,-155.0
Q 114.2,-154.8,114.2,-152.9
Q 114.2,-151.8,114.2,-150.7
Q 114.3,-150.4,114.5,-150.0
Q 114.7,-149.4,114.2,-148.0
Q 114.2,-145.6,114.2,-143.1
Q 114.2,-141.1,114.0,-141.0
Q 113.9,-141.0,113.8,-140.9
Q 112.4,-132.5,110.6,-126.4
Q 108.8,-120.4,106.9,-114.8
Q 104.1,-107.2,106.3,-107.8
Q 107.1,-108.0,115.1,-118.3
Q 116.0,-119.6,117.3,-120.5
Q 119.4,-120.9,119.7,-120.1
Q 120.6,-117.6,118.9,-111.4
Q 115.2,-98.7,107.5,-88.3
Q 105.9,-86.0,103.4,-81.5
Q 95.8,-67.4,99.8,-66.8
Q 101.1,-66.7,102.6,-68.0
Q 104.0,-69.4,107.6,-72.5
Q 107.1,-73.1,106.6,-73.8
Q 105.1,-72.7,102.9,-70.7
Q 100.0,-68.0,100.2,-69.1
Q 101.4,-75.4,109.8,-87.8
Q 119.5,-102.3,121.6,-113.7
Q 122.9,-121.1,120.3,-122.7
Q 117.6,-124.3,112.8,-118.3
Q 110.4,-115.3,108.4,-112.7
Q 109.0,-114.9,111.0,-120.5
Q 117.6,-139.0,116.2,-153.6
Q 115.7,-159.2,113.5,-161.4
Q 107.4,-167.5,100.4,-145.6
Q 99.0,-141.2,97.0,-136.8
Q 96.6,-137.9,96.1,-139.0
Q 95.2,-141.2,94.1,-144.5
Q 87.2,-165.0,79.8,-167.5
Q 74.5,-169.2,74.6,-158.3
Q 74.7,-154.5,74.8,-151.3
Q 74.9,-146.2,72.6,-147.1
Q 71.7,-147.5,68.6,-150.3
Q 65.6,-153.1,65.0,-153.1
Q 64.3,-153.1,63.7,-151.9
Q 63.0,-150.7,64.2,-148.2
Q 65.3,-145.8,65.6,-144.2
Q 65.7,-143.4,65.9,-142.6
Q 65.2,-143.0,64.6,-143.3
Q 63.3,-143.9,60.4,-146.4
Q 57.6,-148.9,56.3,-148.9
Q 53.5,-148.9,55.2,-145.0
Q 56.4,-142.1,55.2,-141.5
Q 50.9,-139.1,50.1,-143.0
Q 47.4,-155.4,41.1,-160.8
Q 33.0,-168.0,24.6,-167.5
Q 23.0,-167.4,21.5,-167.3
Q 22.3,-169.9,23.2,-172.4
Q 31.7,-197.4,26.0,-197.4
Q 22.7,-197.4,19.8,-188.7
Q 19.5,-187.9,17.9,-189.7
Q 16.2,-191.6,14.1,-192.1
Q 12.5,-192.4,12.3,-192.8
Q 11.9,-193.3,12.7,-198.5
Q 14.2,-210.0,11.2,-210.0
Q 8.4,-210.0,7.0,-200.8
Q 6.4,-201.9,5.9,-203.0
Q 5.2,-204.3,4.4,-205.4
Q 3.7,-204.9,3.1,-204.5
Q 3.7,-203.4,4.3,-202.3
Q 6.5,-198.4,5.5,-191.7
Q 4.8,-187.5,5.2,-187.1
Q 6.4,-185.9,6.9,-189.8
Q 7.3,-192.8,8.9,-201.1
Q 9.9,-206.0,10.5,-206.7
Q 10.9,-207.0,11.2,-207.4
Q 10.2,-192.3,8.8,-191.3
Q 8.0,-190.7,8.0,-190.0
Q 8.0,-189.4,8.6,-189.4
Q 9.5,-189.4,7.7,-182.7
Q 6.5,-178.3,7.6,-178.0
Q 8.4,-177.7,10.0,-184.0
Q 11.4,-189.5,11.9,-189.9
Q 13.4,-191.1,15.6,-189.4
Q 18.9,-186.9,16.9,-181.1
Q 14.4,-173.8,15.7,-173.8
Q 16.3,-173.8,17.2,-176.4
Q 19.6,-183.0,21.3,-187.3
Q 22.7,-190.7,25.8,-195.1
Q 26.3,-193.4,26.0,-192.5
Q 25.9,-192.0,25.8,-191.6
Q 25.0,-184.5,20.8,-171.8
Q 19.3,-167.0,15.2,-163.9
Q 13.9,-162.9,12.6,-161.7
Q 13.2,-161.1,13.8,-160.5
Q 22.1,-165.6,26.3,-165.2
Q 31.8,-164.7,39.1,-160.0
Q 40.9,-158.7,41.5,-157.8
Q 41.9,-157.4,42.2,-156.9
Q 46.5,-149.8,47.7,-145.4
Q 48.4,-142.9,48.2,-142.8
Q 48.1,-142.7,46.0,-143.6
Q 43.9,-144.6,43.4,-144.1
Q 42.3,-142.9,45.7,-141.2
Q 47.8,-140.1,50.3,-138.3
Q 52.9,-136.5,56.4,-133.8
Q 57.0,-133.4,57.5,-132.9
Q 58.6,-132.0,59.5,-130.9
Q 60.0,-130.4,60.4,-129.8
Q 61.4,-128.4,62.4,-126.9
Q 75.1,-108.3,75.1,-66.3
Q 75.6,-65.4,75.4,-64.7
Q 75.2,-64.4,75.1,-64.0
Q 73.3,-56.5,71.1,-52.0
Q 68.9,-47.6,64.0,-40.9
Q 62.2,-38.7,59.6,-36.5
Q 59.3,-36.4,59.1,-36.3
Q 58.7,-36.0,56.9,-39.8
Q 54.5,-44.9,53.5,-43.9
Q 53.2,-43.6,54.7,-40.4
Q 56.8,-35.8,57.8,-30.7
Q 58.0,-29.6,58.2,-28.5
Q 58.7,-26.7,58.2,-24.5
Q 58.2,-23.5,58.1,-22.6
Q 57.8,-15.2,55.8,-15.4
Q 54.0,-15.7,47.4,-32.5
Q 45.4,-37.6,44.8,-37.5
Q 43.7,-37.5,46.0,-31.3
Q 47.3,-27.8,47.2,-27.2
Q 47.0,-26.6,45.5,-25.3
Q 43.4,-23.4,42.9,-23.3
Q 42.4,-23.1,41.3,-25.5
Q 38.0,-32.1,36.6,-32.4
Q 35.3,-32.7,37.9,-28.2
Q 39.5,-25.6,40.6,-22.4
Q 41.8,-19.1,42.7,-14.3
Q 43.1,-12.9,42.9,-12.3
Q 42.8,-11.9,42.7,-11.6
Q 42.1,-6.9,41.7,-5.9
Q 40.2,-2.2,35.6,-12.5
Q 34.1,-15.8,33.7,-16.5
Q 33.2,-17.1,31.2,-21.1
Q 29.0,-25.5,28.3,-25.2
Q 27.6,-25.0,29.2,-21.5
Q 30.8,-18.1,31.0,-17.6
Q 31.2,-17.1,29.5,-16.8
Q 27.8,-16.5,24.0,-15.6
Q 16.0,-13.6,3.1,-12.9
Q 1.8,-12.4,1.1,-12.7
Q 0.8,-12.8,0.4,-12.9
Q -10.3,-13.9,-13.3,-14.8
Q -14.2,-15.1,-15.2,-15.4
Q -14.3,-16.8,-13.3,-18.2
Q -10.6,-22.3,-12.6,-21.7
Q -15.0,-20.9,-19.8,-11.6
Q -29.9,8.4,-32.7,1.9
Q -34.0,-1.1,-32.2,-8.7
Q -30.6,-15.8,-29.0,-18.9
Q -28.4,-20.2,-28.2,-21.4
Q -28.1,-22.5,-27.1,-24.9
Q -25.8,-28.5,-26.7,-28.8
Q -27.4,-29.0,-28.4,-26.2
Q -29.4,-23.4,-29.8,-23.0
Q -30.5,-22.2,-34.6,-25.3
Q -35.7,-26.2,-34.0,-28.5
Q -31.2,-32.5,-32.3,-32.5
Q -33.3,-32.5,-36.4,-27.8
Q -37.9,-25.6,-38.5,-24.3
Q -39.0,-22.9,-42.4,-16.2
Q -52.8,4.3,-54.0,-4.9
Q -55.1,-13.1,-48.1,-22.5
Q -46.8,-24.3,-44.7,-27.6
Q -42.5,-30.9,-40.8,-33.2
Q -37.7,-37.4,-39.2,-37.4
Q -39.9,-37.4,-42.2,-34.1
Q -43.4,-32.4,-44.6,-30.8
Q -51.7,-39.3,-54.8,-44.8
Q -58.9,-52.2,-63.3,-67.3
Q -65.8,-75.6,-67.1,-87.6
Q -67.6,-88.5,-67.4,-89.2
Q -67.2,-89.5,-67.1,-89.8
Q -67.1,-90.1,-67.1,-90.5
Q -67.1,-91.1,-67.6,-92.5
Q -67.5,-95.1,-67.5,-95.5
Q -67.4,-95.9,-67.1,-96.0
Q -67.1,-98.0,-67.1,-100.0
Q -67.0,-102.1,-66.9,-102.2
Q -66.8,-102.2,-66.7,-102.3
Q -66.2,-108.9,-65.3,-113.5
Q -63.1,-124.5,-56.4,-135.3
Q -54.8,-137.9,-52.5,-139.6
Q -51.1,-140.6,-51.2,-141.4
Q -51.3,-142.2,-49.9,-144.0
Q -48.4,-145.8,-47.9,-145.7
Q -46.4,-145.4,-46.3,-149.3
Q -46.2,-155.2,-42.0,-161.8
Q -41.4,-162.7,-40.9,-163.6
Q -40.6,-164.0,-40.3,-164.4
Q -39.6,-165.2,-38.9,-165.7
Q -38.6,-166.0,-38.2,-166.3
Q -36.5,-167.2,-35.1,-167.6
Q -34.4,-167.8,-33.8,-168.0
Q -32.9,-168.5,-32.2,-168.3
Q -31.9,-168.2,-31.6,-168.0
Q -22.9,-167.5,-17.8,-164.3
Q -16.9,-163.7,-16.0,-163.1
Q -14.7,-162.2,-14.2,-161.6
Q -14.0,-161.3,-13.8,-160.9
Q -12.7,-159.7,-11.6,-158.5
Q -9.3,-156.0,-8.2,-154.0
Q -7.1,-152.0,-6.0,-151.1
Q -5.4,-150.7,-4.9,-150.3
Q -4.7,-150.7,-2.7,-150.7
Q -2.1,-150.7,-1.5,-150.7
Q -1.5,-150.7,-1.5,-150.7
Q -1.0,-150.8,-0.8,-150.7
Q -0.6,-151.2,-0.5,-151.7
Q -0.5,-151.7,-0.5,-151.8
Q -0.5,-151.9,-0.4,-152.0
Q -4.3,-152.1,-6.1,-154.9
Q -12.2,-164.6,-21.2,-168.3
Q -27.5,-170.9,-31.4,-188.4
Q -34.1,-200.7,-32.4,-199.8
Q -31.9,-199.5,-25.9,-189.6
Q -23.2,-185.1,-20.3,-181.1
Q -17.5,-177.1,-15.3,-173.9
Q -13.1,-170.7,-12.5,-170.9
Q -11.3,-171.2,-14.7,-176.1
Q -22.9,-188.3,-22.4,-189.7
Q -21.4,-192.4,-18.9,-192.6
Q -18.1,-192.7,-16.8,-188.5
Q -12.4,-174.3,-11.7,-174.3
Q -10.4,-174.3,-12.9,-181.8
Q -14.3,-186.0,-14.7,-187.7
Q -15.9,-192.4,-16.9,-196.0
Q -18.6,-202.1,-18.9,-204.7
Q -19.1,-206.2,-17.8,-203.3
Q -16.8,-201.2,-15.8,-198.9
Q -14.8,-196.7,-12.8,-191.5
Q -10.9,-186.3,-10.1,-186.3
Q -9.0,-186.3,-11.1,-192.0
Q -15.0,-202.6,-10.7,-205.8
Q -10.3,-206.0,-10.3,-205.7
Q -10.2,-205.5,-10.2,-203.6
Q -10.0,-201.9,-9.8,-200.3
Q -9.2,-196.0,-8.8,-193.1
Q -7.9,-193.3,-7.1,-193.4
Q -8.0,-200.9,-8.4,-204.0
Q -8.7,-205.6,-8.9,-207.1
Q -9.2,-207.0,-9.3,-207.2
Q -9.3,-207.5,-9.3,-209.8
Q -9.3,-210.9,-9.3,-212.0
Q -9.7,-211.9,-9.7,-212.1
Q -9.8,-212.3,-9.8,-214.7
Q -10.6,-214.7,-11.4,-214.6
Q -11.4,-213.6,-11.3,-212.6
Q -11.1,-208.5,-12.5,-207.3
Q -13.9,-206.1,-15.4,-202.7
Q -17.3,-208.0,-19.8,-208.0
Q -21.0,-208.0,-20.8,-204.4
Q -20.5,-200.7,-19.8,-198.9
Q -18.4,-195.0,-20.3,-194.1
Q -22.0,-193.3,-23.2,-192.2
Q -24.0,-191.4,-24.3,-191.5
Q -24.9,-191.5,-28.1,-197.1
Q -31.4,-202.7,-33.4,-202.7
Q -36.4,-202.7,-34.5,-192.9
Q -33.8,-189.6,-33.4,-187.4
Q -31.6,-178.1,-28.1,-172.2
Q -27.6,-171.2,-27.0,-170.3
Q -28.9,-170.3,-30.7,-170.3
Q -41.2,-170.3,-45.7,-158.9
Q -48.0,-153.1,-48.0,-149.9
Q -48.0,-148.5,-49.7,-146.7
Q -51.4,-145.0,-54.0,-142.1
Q -56.1,-139.6,-56.5,-139.6
Q -59.4,-139.4,-58.0,-152.5
Q -57.1,-161.3,-57.4,-166.4
Q -58.3,-166.3,-59.1,-166.3
Q -59.1,-164.0,-59.1,-161.8
Q -59.1,-161.3,-59.1,-160.8
Q -59.2,-159.8,-59.4,-159.7
Q -59.5,-159.6,-59.6,-159.6
Q -59.6,-157.8,-59.6,-156.0
Q -59.6,-155.5,-59.6,-155.0
Q -59.6,-154.0,-59.8,-153.9
Q -59.9,-153.9,-60.0,-153.8
Q -60.2,-151.6,-60.5,-149.4
Q -61.4,-140.6,-58.7,-138.2
Q -57.3,-136.9,-59.1,-134.4
Q -62.0,-130.0,-64.0,-125.6
Q -66.7,-119.6,-67.3,-113.6
Q -67.4,-112.6,-67.6,-111.6
Q -67.6,-111.4,-67.6,-111.1
Q -67.8,-110.7,-68.0,-110.3
Q -68.5,-109.4,-68.4,-106.4
Q -68.4,-103.4,-68.9,-101.3
Q -69.3,-99.1,-69.3,-95.6
Q -69.3,-95.1,-69.3,-94.7
Q -69.3,-94.3,-69.3,-93.8
Q -69.3,-92.5,-69.3,-91.1
Q -69.3,-90.9,-69.3,-90.7
Q -69.3,-89.4,-69.3,-88.0
Q -69.3,-86.9,-69.3,-85.8
Q -69.0,-86.0,-68.9,-85.7
Q -68.9,-85.5,-68.9,-83.1
Q -68.9,-82.5,-68.9,-81.8
Q -68.9,-80.5,-68.7,-79.8
Q -68.6,-79.5,-68.4,-79.1
Q -68.1,-79.3,-68.1,-79.1
Q -68.0,-78.9,-68.0,-77.8
Q -68.0,-77.4,-68.0,-76.9
Q -67.7,-75.3,-67.3,-73.6
Q -66.7,-70.3,-65.3,-65.4
Q -64.0,-60.5,-60.4,-50.3
Q -59.6,-49.4,-59.6,-48.9
Q -59.6,-48.7,-59.6,-48.5
Q -58.7,-46.8,-57.9,-45.1
Q -56.3,-41.6,-55.0,-39.8
Q -53.7,-38.1,-53.0,-37.1
Q -52.7,-36.6,-52.4,-36.1
Q -53.8,-36.4,-55.2,-36.8
Q -72.7,-40.9,-86.8,-51.4
Q -89.3,-53.4,-93.8,-56.9
Q -95.1,-57.8,-96.0,-59.1
Q -101.3,-65.2,-105.0,-72.2
Q -106.7,-75.1,-108.2,-78.9
Q -109.0,-80.8,-109.8,-82.7
Q -110.3,-84.0,-110.0,-84.9
Q -109.9,-85.4,-109.8,-85.8
Q -108.3,-85.2,-106.9,-84.5
Q -104.0,-83.2,-99.3,-80.5
Q -97.0,-79.2,-94.7,-77.8
Q -93.3,-77.4,-92.9,-76.9
Q -92.7,-76.7,-92.4,-76.5
Q -92.2,-76.5,-92.0,-76.5
Q -90.3,-76.5,-90.0,-76.7
Q -89.9,-76.8,-89.8,-76.9
Q -90.0,-77.9,-90.2,-78.9
Q -90.6,-80.9,-92.3,-83.7
Q -103.3,-102.0,-106.2,-122.3
Q -106.6,-122.1,-106.6,-122.3
Q -106.7,-122.6,-106.7,-124.5
Q -106.6,-124.6,-106.5,-124.8
Q -106.3,-125.1,-106.5,-125.9
Q -106.6,-126.3,-106.7,-126.7
Q -106.6,-127.2,-106.6,-127.7
Q -106.6,-128.8,-106.2,-128.9
Q -104.8,-143.0,-102.1,-145.1
Q -100.5,-146.3,-98.2,-137.5
Q -93.7,-119.9,-90.6,-120.3
Q -87.7,-120.7,-90.7,-132.3
Q -92.8,-140.6,-93.6,-145.6
Q -93.9,-147.9,-94.2,-150.3
Q -94.6,-150.1,-94.6,-150.3
Q -94.7,-150.6,-94.7,-152.5
Q -93.9,-167.4,-92.4,-170.0
Q -88.7,-176.4,-85.6,-158.9
Q -84.5,-152.7,-84.2,-148.5
Q -83.4,-134.9,-81.1,-135.0
Q -79.7,-135.0,-78.2,-144.3
Q -76.6,-154.1,-75.2,-153.0
Q -75.0,-152.9,-74.9,-151.6
Q -74.8,-150.7,-74.7,-149.8
Q -74.5,-149.1,-74.4,-148.5
Q -74.2,-147.1,-74.4,-145.8
Q -74.5,-145.1,-74.7,-144.5
Q -74.7,-142.9,-74.7,-141.4
Q -74.2,-140.5,-74.7,-139.1
Q -74.7,-138.6,-74.7,-138.0
Q -74.8,-134.7,-73.1,-134.7
Q -72.5,-134.7,-72.3,-135.7
Q -72.0,-136.7,-71.4,-139.6
Q -70.7,-142.5,-69.6,-148.3
Q -66.2,-165.2,-61.9,-169.6
Q -60.4,-171.1,-60.0,-170.0
Q -59.8,-169.5,-59.6,-168.9
Q -59.2,-169.1,-59.2,-168.9
Q -59.1,-168.6,-59.1,-166.3
Q -58.3,-166.3,-57.4,-166.4
Q -57.8,-171.8,-59.7,-172.9
Q -61.7,-174.1,-64.6,-169.8
Q -68.7,-163.9,-72.1,-145.6
Q -73.4,-158.5,-76.5,-155.8
Q -78.7,-153.8,-79.8,-147.7
Q -80.5,-143.8,-81.3,-139.4
Q -82.2,-144.3,-82.4,-149.1
Q -83.5,-173.8,-90.9,-173.8
Q -94.8,-173.8,-96.4,-164.9
Q -98.7,-152.2,-92.7,-131.4
Q -91.5,-127.4,-91.0,-123.4
Q -92.6,-125.0,-94.9,-133.6
Q -98.9,-148.9,-101.7,-147.8
Q -107.3,-145.6,-108.6,-126.9
Q -109.6,-114.0,-99.5,-92.1
Q -96.2,-85.0,-92.4,-79.1
Q -92.6,-79.2,-92.8,-79.3
Q -93.1,-79.5,-95.6,-81.0
Q -109.1,-89.7,-111.1,-87.2
Q -113.1,-84.8,-110.5,-78.4
Q -102.7,-59.3,-85.5,-47.8
Q -67.7,-36.0,-54.3,-34.3
Q -50.8,-33.9,-48.3,-31.3
Q -45.8,-28.8,-46.8,-27.6
Q -55.5,-18.0,-56.2,-6.9
Q -56.5,-1.7,-53.7,-0.2
Q -49.1,2.1,-40.0,-16.8
Q -36.7,-23.6,-36.0,-23.0
Q -35.3,-22.4,-33.4,-21.4
Q -30.6,-20.0,-31.7,-17.7
Q -36.4,-7.7,-35.0,1.0
Q -33.7,9.8,-26.6,3.2
Q -24.3,1.1,-24.1,0.4
Q -23.9,-0.2,-23.4,-0.7
Q -22.8,-1.2,-21.8,-3.2
Q -17.3,-11.6,-16.5,-12.0
Q -15.7,-12.5,-12.9,-11.6
Q -11.8,-11.2,-11.9,-10.8
Q -11.9,-10.5,-13.7,-6.7
Q -16.8,-0.2,-18.0,9.0
Q -19.9,23.2,-28.2,34.7
Q -32.0,40.1,-35.3,46.4
Q -38.3,52.1,-38.3,61.5
Q -38.3,75.5,-31.6,82.2
Q -24.1,89.7,-14.5,81.5
Q -12.4,79.7,-12.6,80.6
Q -13.7,85.4,-16.7,92.2
Q -17.3,93.5,-18.0,95.5
Q -18.8,97.5,-19.5,99.3
Q -20.3,101.1,-21.1,103.7
Q -21.8,106.4,-22.4,108.4
Q -28.7,129.4,-18.3,152.0
Q -10.7,168.5,11.1,189.5
Q 24.0,202.0,27.2,209.9
Q 28.3,212.8,29.9,219.0
 " /> 
<path  
style="fill:rgb(14,103,171)" 
d="M -2.2 172.4
Q -2.6,171.1,-2.9,169.7
Q -5.9,157.6,-5.8,143.7
Q -5.7,131.9,-4.0,133.6
Q -3.5,134.0,-4.0,136.9
Q -5.6,147.3,-2.4,164.0
Q -1.8,167.3,-1.6,168.6
Q -1.2,170.6,-0.8,172.5
Q -0.6,173.3,-1.8,172.8
Q -0.1,174.7,1.6,176.6
Q 4.9,180.4,8.7,184.1
Q 12.5,187.7,15.9,191.2
Q 19.8,195.1,20.0,194.3
Q 20.9,190.7,16.0,176.6
Q 8.9,156.2,8.9,140.4
Q 8.9,132.1,10.1,131.7
Q 10.6,131.5,10.6,138.3
Q 10.6,154.6,17.1,173.9
Q 21.2,186.2,21.6,192.8
Q 21.9,197.0,23.2,198.6
Q 29.2,205.4,31.4,214.8
Q 32.2,218.2,32.5,218.1
Q 32.9,218.0,35.3,214.4
Q 41.1,205.6,44.4,201.3
Q 56.0,186.5,55.4,174.4
Q 54.9,164.3,42.7,140.2
Q 37.3,129.5,37.8,129.1
Q 38.4,128.4,41.2,134.0
Q 43.5,138.4,46.4,143.7
Q 59.7,167.3,57.0,180.9
Q 56.5,183.3,56.6,183.4
Q 56.7,183.5,58.5,180.7
Q 83.5,141.7,62.2,122.4
Q 58.2,118.8,51.6,113.7
Q 35.2,101.3,34.4,86.6
Q 34.3,85.3,34.2,84.0
Q 32.6,84.0,32.3,84.3
Q 32.0,84.6,31.6,90.8
Q 31.0,99.9,29.0,100.3
Q 28.0,100.5,27.8,99.2
Q 27.3,96.8,25.2,89.1
Q 23.0,93.8,22.0,94.5
Q 19.9,95.8,16.9,92.5
Q 15.0,90.6,14.4,90.8
Q 14.2,90.9,14.0,91.1
Q 13.4,91.7,12.9,92.4
Q 12.9,92.6,12.9,92.8
Q 12.4,96.4,12.0,99.5
Q 12.0,99.7,12.0,100.0
Q 12.0,102.6,11.3,104.7
Q 8.7,112.3,7.0,107.3
Q 6.3,105.4,4.9,97.7
Q 4.9,97.5,4.9,97.3
Q 4.8,97.3,4.7,97.3
Q 4.4,97.4,4.4,95.1
Q 4.4,94.8,4.4,94.6
Q 3.6,92.8,3.6,92.2
Q 3.6,91.8,3.6,91.5
Q 3.6,91.3,3.6,91.1
Q 3.2,90.2,2.9,89.3
Q 2.2,87.5,1.4,87.8
Q 0.5,88.2,-0.4,90.2
Q -0.4,90.4,-0.4,90.6
Q -1.9,95.0,-4.0,95.7
Q -4.4,95.8,-4.9,96.0
Q -5.1,96.0,-5.3,96.0
Q -5.8,95.8,-6.2,95.7
Q -7.8,95.3,-10.0,88.0
Q -10.3,86.8,-10.7,85.7
Q -11.4,85.5,-12.2,85.2
Q -13.5,88.9,-14.5,91.2
Q -25.0,116.5,-21.8,135.3
Q -18.9,152.1,-2.2,172.4
 " /> 
<path  
style="fill:rgb(7,193,201)" 
d="M 33.6 213.0
Q 34.9,215.1,37.6,202.2
Q 42.2,179.4,35.7,157.7
Q 34.1,152.4,33.7,152.2
Q 32.3,151.4,34.0,156.9
Q 36.5,165.5,37.1,171.1
Q 37.4,173.5,37.7,176.4
Q 39.7,191.1,34.4,209.0
Q 33.4,212.6,33.6,213.0
 " /> 
<path  
style="fill:rgb(7,193,201)" 
d="M 63.8 162.5
Q 64.0,164.0,64.7,164.0
Q 65.4,164.0,65.1,160.7
Q 63.9,146.3,55.1,133.1
Q 51.7,128.1,51.0,128.8
Q 50.6,129.2,53.1,132.9
Q 62.2,146.2,63.3,158.3
Q 63.6,161.1,63.8,162.5
 " /> 
<path  
style="fill:rgb(7,193,201)" 
d="M -2.2 172.4
Q -2.2,172.9,-1.8,172.8
Q -0.6,173.3,-0.8,172.5
Q -1.2,170.6,-1.6,168.6
Q -1.8,167.3,-2.4,164.0
Q -5.6,147.3,-4.0,136.9
Q -3.5,134.0,-4.0,133.6
Q -5.7,131.9,-5.8,143.7
Q -5.9,157.6,-2.9,169.7
Q -2.6,171.1,-2.2,172.4
 " /> 
<path  
style="fill:rgb(7,193,201)" 
d="M -11.6 83.5
Q -11.3,83.1,-11.1,82.6
Q -11.2,82.6,-11.3,82.7
Q -11.5,82.7,-11.5,83.1
Q -11.5,83.3,-11.6,83.5
 " /> 
<path  
style="fill:rgb(7,193,201)" 
d="M -11.6 83.5
Q -11.0,84.4,-10.9,84.8
Q -10.8,85.1,-10.7,85.3
Q -10.7,84.0,-11.1,82.6
Q -11.3,83.1,-11.6,83.5
 " /> 
<path  
style="fill:rgb(14,103,171)" 
d="M -11.6 83.5
Q -11.8,84.2,-12.0,84.8
Q -11.3,85.0,-10.7,85.3
Q -10.8,85.1,-10.9,84.8
Q -11.0,84.4,-11.6,83.5
 " /> 
<path  
style="fill:rgb(97,247,248)" 
d="M -10.7 85.3
Q -10.7,85.5,-10.7,85.7
Q -8.0,92.4,-7.4,93.5
Q -6.7,94.7,-5.3,96.0
Q -5.1,96.0,-4.9,96.0
Q -2.5,94.3,-1.5,92.4
Q -1.0,91.5,-0.4,90.6
Q -0.4,90.4,-0.4,90.2
Q -0.2,89.6,0.0,89.1
Q 0.4,88.0,1.3,87.5
Q 2.2,87.1,2.6,88.1
Q 3.0,89.1,3.6,91.1
Q 3.6,91.3,3.6,91.5
Q 4.5,92.8,4.5,93.7
Q 4.4,94.2,4.4,94.6
Q 4.4,94.8,4.4,95.1
Q 4.9,95.0,4.9,97.3
Q 4.9,97.5,4.9,97.7
Q 5.3,99.1,5.6,100.5
Q 6.4,103.3,7.0,105.7
Q 7.8,109.0,8.4,108.6
Q 10.6,107.4,12.0,100.0
Q 12.0,99.7,12.0,99.5
Q 12.0,98.1,12.0,96.6
Q 11.9,93.7,12.4,93.3
Q 12.6,93.1,12.9,92.8
Q 12.9,92.6,12.9,92.4
Q 13.5,91.5,14.0,91.1
Q 14.0,91.1,14.0,91.1
Q 15.1,89.7,17.2,92.0
Q 21.1,96.3,24.0,90.7
Q 24.9,88.8,25.3,88.8
Q 26.0,88.8,27.4,95.6
Q 28.3,100.0,29.0,99.8
Q 30.9,99.4,31.2,88.2
Q 31.4,84.5,31.7,84.1
Q 32.1,83.7,34.2,83.5
Q 34.2,73.7,32.7,71.6
Q 24.9,60.2,23.6,42.6
Q 23.4,42.6,23.3,42.7
Q 23.1,42.7,23.1,40.0
Q 23.6,38.8,24.0,37.7
Q 26.5,31.4,26.9,26.6
Q 27.0,25.1,27.1,23.5
Q 27.1,22.2,27.1,20.8
Q 26.7,14.2,26.0,11.2
Q 25.7,9.7,25.4,8.2
Q 25.3,8.5,25.2,8.9
Q 25.0,9.5,24.3,12.6
Q 23.7,15.7,22.9,15.9
Q 22.1,16.0,22.4,14.2
Q 23.9,4.7,24.4,0.9
Q 24.7,-2.4,25.3,-2.4
Q 25.9,-2.4,26.0,0.7
Q 26.2,3.7,27.0,7.1
Q 31.5,24.1,25.9,36.9
Q 24.6,40.0,26.2,49.1
Q 26.4,50.3,26.7,51.5
Q 29.2,49.2,31.8,46.8
Q 43.4,36.2,46.7,37.7
Q 48.0,38.4,51.6,40.8
Q 49.6,37.2,47.6,33.5
Q 34.4,9.5,29.0,-6.1
Q 26.9,-12.1,24.8,-12.9
Q 24.1,-13.1,21.9,-12.5
Q 15.2,-10.6,10.2,-10.4
Q 9.1,-10.3,8.0,-10.3
Q 6.9,-10.3,5.8,-10.3
Q -1.8,-10.3,-5.6,-10.7
Q -9.5,-11.2,-9.9,-10.4
Q -15.0,-0.9,-16.0,8.6
Q -17.5,22.7,-27.6,37.7
Q -24.4,38.2,-22.2,39.1
Q -20.0,40.0,-15.6,38.6
Q -15.3,38.6,-15.1,38.6
Q -14.6,38.5,-14.0,38.4
Q -12.9,38.2,-11.4,39.8
Q -9.8,41.4,-7.7,41.6
Q -5.0,41.9,-1.8,44.6
Q -1.1,45.2,-0.4,45.7
Q -0.2,43.5,0.0,41.3
Q 0.4,36.8,-0.9,34.1
Q -3.6,28.7,-4.2,20.5
Q -4.2,19.5,-4.3,18.4
Q -4.5,10.8,-4.9,7.3
Q -5.6,2.1,-4.8,1.9
Q -4.2,1.7,-3.4,5.6
Q -2.6,9.5,-1.7,12.6
Q -0.0,18.6,-1.1,18.7
Q -2.0,18.8,-2.1,17.6
Q -2.2,17.0,-2.2,16.4
Q -2.3,16.4,-2.4,16.4
Q -2.6,16.5,-2.6,18.4
Q -2.7,19.4,-2.7,20.4
Q -1.3,30.3,1.4,34.8
Q 2.8,37.0,3.0,38.1
Q 3.2,39.2,2.6,38.9
Q 1.9,38.5,1.4,42.3
Q 1.1,44.3,0.9,46.2
Q 0.8,46.4,0.8,46.6
Q 0.7,47.1,0.4,47.5
Q -0.2,50.4,-0.9,53.3
Q -3.6,65.0,-8.5,74.7
Q -9.8,77.3,-10.4,80.0
Q -10.8,81.3,-11.1,82.6
Q -10.7,84.0,-10.7,85.3
 " /> 
<path  
style="fill:rgb(14,103,171)" 
d="M -10.7 85.3
Q -11.3,85.0,-12.0,84.8
Q -12.3,85.5,-12.5,86.2
Q -11.4,85.5,-10.7,85.7
Q -10.7,85.5,-10.7,85.3
 " /> 
<path  
style="fill:rgb(7,193,201)" 
d="M -10.7 85.7
Q -10.3,86.8,-10.0,88.0
Q -7.8,95.3,-6.2,95.7
Q -5.8,95.8,-5.3,96.0
Q -6.7,94.7,-7.4,93.5
Q -8.0,92.4,-10.7,85.7
 " /> 
<path  
style="fill:rgb(7,193,201)" 
d="M -4.9 96.0
Q -4.4,95.8,-4.0,95.7
Q -1.9,95.0,-0.4,90.6
Q -1.0,91.5,-1.5,92.4
Q -2.5,94.3,-4.9,96.0
 " /> 
<path  
style="fill:rgb(7,193,201)" 
d="M -0.4 90.2
Q 0.5,88.2,1.4,87.8
Q 2.2,87.5,2.9,89.3
Q 3.2,90.2,3.6,91.1
Q 3.0,89.1,2.6,88.1
Q 2.2,87.1,1.3,87.5
Q 0.4,88.0,0.0,89.1
Q -0.2,89.6,-0.4,90.2
 " /> 
<path  
style="fill:rgb(7,193,201)" 
d="M 3.6 91.5
Q 3.6,91.8,3.6,92.2
Q 3.6,92.8,4.4,94.6
Q 4.4,94.2,4.5,93.7
Q 4.5,92.8,3.6,91.5
 " /> 
<path  
style="fill:rgb(7,193,201)" 
d="M 4.4 95.1
Q 4.4,97.4,4.7,97.3
Q 4.8,97.3,4.9,97.3
Q 4.9,95.0,4.4,95.1
 " /> 
<path  
style="fill:rgb(7,193,201)" 
d="M 4.9 97.7
Q 6.3,105.4,7.0,107.3
Q 8.7,112.3,11.3,104.7
Q 12.0,102.6,12.0,100.0
Q 10.6,107.4,8.4,108.6
Q 7.8,109.0,7.0,105.7
Q 6.4,103.3,5.6,100.5
Q 5.3,99.1,4.9,97.7
 " /> 
<path  
style="fill:rgb(7,193,201)" 
d="M 12.0 99.5
Q 12.4,96.4,12.9,92.8
Q 12.6,93.1,12.4,93.3
Q 11.9,93.7,12.0,96.6
Q 12.0,98.1,12.0,99.5
 " /> 
<path  
style="fill:rgb(7,193,201)" 
d="M 34.2 84.0
Q 34.2,83.7,34.2,83.5
Q 32.1,83.7,31.7,84.1
Q 31.4,84.5,31.2,88.2
Q 30.9,99.4,29.0,99.8
Q 28.3,100.0,27.4,95.6
Q 26.0,88.8,25.3,88.8
Q 24.9,88.8,24.0,90.7
Q 21.1,96.3,17.2,92.0
Q 15.1,89.7,14.0,91.1
Q 14.0,91.1,14.0,91.1
Q 14.2,90.9,14.4,90.8
Q 15.0,90.6,16.9,92.5
Q 19.9,95.8,22.0,94.5
Q 23.0,93.8,25.2,89.1
Q 27.3,96.8,27.8,99.2
Q 28.0,100.5,29.0,100.3
Q 31.0,99.9,31.6,90.8
Q 32.0,84.6,32.3,84.3
Q 32.6,84.0,34.2,84.0
 " /> 
<path  
style="fill:rgb(14,103,171)" 
d="M 0.4 47.5
Q 0.4,46.9,0.3,46.4
Q -0.1,46.4,-0.2,46.2
Q -0.3,45.9,-0.4,45.7
Q -0.9,46.6,-1.8,45.4
Q -4.1,42.2,-7.7,42.2
Q -9.4,42.2,-11.3,40.4
Q -13.3,38.6,-14.2,38.6
Q -14.6,38.6,-15.1,38.6
Q -15.3,38.6,-15.6,38.6
Q -19.1,40.8,-22.2,39.5
Q -24.4,38.6,-26.2,38.4
Q -27.1,38.3,-28.0,38.2
Q -29.4,40.5,-30.9,42.8
Q -34.1,48.0,-35.3,53.7
Q -34.7,53.8,-34.0,53.9
Q -32.7,48.8,-31.3,48.5
Q -30.1,48.2,-31.7,51.3
Q -32.3,52.6,-32.6,53.9
Q -32.9,55.1,-33.6,55.1
Q -34.3,55.1,-34.0,53.9
Q -34.7,53.8,-35.3,53.7
Q -35.8,55.8,-36.0,57.9
Q -36.5,62.4,-36.2,63.4
Q -36.1,64.0,-36.0,64.5
Q -35.3,63.2,-34.7,61.9
Q -33.4,59.3,-28.9,53.7
Q -24.5,48.2,-23.7,48.0
Q -22.3,47.7,-25.8,52.2
Q -35.2,64.4,-35.2,69.1
Q -35.2,76.7,-27.1,82.6
Q -26.9,79.3,-26.7,76.0
Q -26.2,69.3,-26.1,69.4
Q -25.9,69.4,-25.9,76.3
Q -25.8,79.7,-25.8,83.1
Q -19.5,83.1,-15.4,79.3
Q -13.7,77.7,-14.0,72.7
Q -15.0,53.8,-13.6,53.4
Q -12.9,53.2,-12.9,61.4
Q -12.9,75.1,-12.0,75.1
Q -10.8,75.1,-8.8,69.5
Q -8.1,67.7,-7.0,65.9
Q -5.1,63.1,-2.1,51.6
Q -1.3,48.7,-1.0,48.2
Q -0.7,47.8,0.4,47.5
 " /> 
<path  
style="fill:rgb(7,193,201)" 
d="M -9.0 58.3
Q -8.8,62.5,-8.6,62.8
Q -7.4,64.5,-7.5,58.2
Q -7.6,53.5,-8.0,53.1
Q -9.4,51.7,-9.0,58.3
 " /> 
<path  
style="fill:rgb(14,103,171)" 
d="M 0.4 47.5
Q 0.7,46.8,0.9,46.2
Q 0.5,46.3,0.3,46.4
Q 0.4,46.9,0.4,47.5
 " /> 
<path  
style="fill:rgb(4,4,4)" 
d="M 0.9 46.2
Q 0.2,46.0,-0.4,45.7
Q -0.3,45.9,-0.2,46.2
Q -0.1,46.4,0.3,46.4
Q 0.5,46.3,0.9,46.2
 " /> 
<path  
style="fill:rgb(4,4,4)" 
d="M 0.9 46.2
Q 1.1,44.3,1.4,42.3
Q 1.9,38.5,2.6,38.9
Q 3.2,39.2,3.0,38.1
Q 2.8,37.0,1.4,34.8
Q -1.3,30.3,-2.7,20.4
Q -3.4,20.4,-4.2,20.5
Q -3.6,28.7,-0.9,34.1
Q 0.4,36.8,0.0,41.3
Q -0.2,43.5,-0.4,45.7
Q 0.2,46.0,0.9,46.2
 " /> 
<path  
style="fill:rgb(4,4,4)" 
d="M -2.7 20.4
Q -2.9,15.8,-2.6,16.1
Q -2.4,16.3,-2.2,16.4
Q -2.2,17.0,-2.1,17.6
Q -2.0,18.8,-1.1,18.7
Q -0.0,18.6,-1.7,12.6
Q -2.6,9.5,-3.4,5.6
Q -4.2,1.7,-4.8,1.9
Q -5.6,2.1,-4.9,7.3
Q -4.5,10.8,-4.3,18.4
Q -4.2,19.5,-4.2,20.5
Q -3.4,20.4,-2.7,20.4
 " /> 
<path  
style="fill:rgb(7,193,201)" 
d="M -2.7 20.4
Q -2.7,19.4,-2.6,18.4
Q -2.6,16.5,-2.4,16.4
Q -2.3,16.4,-2.2,16.4
Q -2.4,16.3,-2.6,16.1
Q -2.9,15.8,-2.7,20.4
 " /> 
<path  
style="fill:rgb(7,193,201)" 
d="M -0.4 45.7
Q -1.1,45.2,-1.8,44.6
Q -5.0,41.9,-7.7,41.6
Q -9.8,41.4,-11.4,39.8
Q -12.9,38.2,-14.0,38.4
Q -14.6,38.5,-15.1,38.6
Q -14.6,38.6,-14.2,38.6
Q -13.3,38.6,-11.3,40.4
Q -9.4,42.2,-7.7,42.2
Q -4.1,42.2,-1.8,45.4
Q -0.9,46.6,-0.4,45.7
 " /> 
<path  
style="fill:rgb(7,193,201)" 
d="M -15.6 38.6
Q -20.0,40.0,-22.2,39.1
Q -24.4,38.2,-27.6,37.7
Q -27.8,37.7,-28.0,38.2
Q -27.1,38.3,-26.2,38.4
Q -24.4,38.6,-22.2,39.5
Q -19.1,40.8,-15.6,38.6
 " /> 
<path  
style="fill:rgb(14,103,171)" 
d="M 5.8 -10.3
Q 6.9,-10.3,8.0,-10.3
Q 7.7,-10.4,7.4,-10.5
Q 6.7,-10.8,6.2,-10.5
Q 6.0,-10.4,5.8,-10.3
 " /> 
<path  
style="fill:rgb(7,193,201)" 
d="M 51.6 40.8
Q 51.4,41.0,51.3,41.2
Q 51.6,41.5,52.0,41.7
Q 51.9,41.6,51.8,41.4
Q 51.5,41.1,51.6,40.8
 " /> 
<path  
style="fill:rgb(14,103,171)" 
d="M 27.1 20.8
Q 27.1,22.2,27.1,23.5
Q 27.2,23.2,27.4,22.8
Q 27.6,22.2,27.1,20.8
 " /> 
<path  
style="fill:rgb(7,193,201)" 
d="M 23.1 40.0
Q 23.1,42.7,23.3,42.7
Q 23.4,42.6,23.6,42.6
Q 23.6,40.4,23.5,40.2
Q 23.4,39.9,23.1,40.0
 " /> 
<path  
style="fill:rgb(4,4,4)" 
d="M -27.1 82.6
Q -26.4,82.8,-25.8,83.1
Q -25.9,82.9,-26.0,82.8
Q -26.2,82.5,-27.1,82.6
 " /> 
<path  
style="fill:rgb(7,193,201)" 
d="M -27.1 82.6
Q -26.2,82.5,-26.0,82.8
Q -25.9,82.9,-25.8,83.1
Q -25.8,79.7,-25.9,76.3
Q -25.9,69.4,-26.1,69.4
Q -26.2,69.3,-26.7,76.0
Q -26.9,79.3,-27.1,82.6
 " /> 
<path  
style="fill:rgb(14,103,171)" 
d="M 36.4 72.4
Q 36.2,71.1,36.0,69.7
Q 35.6,67.1,35.1,63.6
Q 34.7,60.1,34.6,59.5
Q 34.5,59.0,35.2,58.8
Q 35.9,58.6,36.2,60.7
Q 36.5,62.8,36.9,65.1
Q 38.4,72.9,36.8,72.9
Q 36.6,72.8,36.4,72.8
Q 40.0,76.4,42.3,77.2
Q 44.7,78.1,47.2,78.7
Q 46.6,77.1,45.1,74.0
Q 43.5,70.8,42.2,66.4
Q 40.8,62.0,39.7,58.4
Q 38.1,53.1,38.3,52.6
Q 38.9,51.5,42.6,62.2
Q 48.1,78.4,50.1,78.8
Q 53.7,79.4,57.3,76.1
Q 60.9,72.9,60.9,68.3
Q 60.9,66.5,54.8,59.0
Q 45.5,47.5,47.5,47.5
Q 47.9,47.5,52.3,53.2
Q 60.6,64.0,60.7,63.8
Q 60.9,63.7,60.1,60.9
Q 59.3,58.1,58.1,55.0
Q 57.5,53.5,56.9,52.0
Q 56.0,51.2,55.3,50.5
Q 52.4,47.9,52.3,47.6
Q 52.1,47.4,52.3,47.2
Q 52.6,47.0,54.3,48.3
Q 55.1,49.0,56.0,49.7
Q 55.4,48.6,54.9,47.5
Q 53.8,45.3,52.0,41.7
Q 51.6,41.5,51.3,41.2
Q 50.6,40.7,50.0,40.2
Q 46.8,37.7,45.3,37.9
Q 42.8,38.3,39.5,41.1
Q 38.4,42.0,37.1,42.9
Q 35.7,43.8,33.7,45.9
Q 31.6,48.0,29.1,50.0
Q 27.9,51.0,26.7,52.0
Q 31.2,66.3,36.4,72.4
 " /> 
<path  
style="fill:rgb(7,193,201)" 
d="M 53.4 69.5
Q 56.5,76.0,57.0,76.0
Q 58.1,76.0,55.6,70.6
Q 51.8,62.2,50.7,62.5
Q 50.2,62.6,50.2,62.8
Q 50.2,63.1,53.4,69.5
 " /> 
<path  
style="fill:rgb(7,193,201)" 
d="M 36.4 72.4
Q 36.4,72.6,36.4,72.8
Q 36.6,72.8,36.8,72.9
Q 38.4,72.9,36.9,65.1
Q 36.5,62.8,36.2,60.7
Q 35.9,58.6,35.2,58.8
Q 34.5,59.0,34.6,59.5
Q 34.7,60.1,35.1,63.6
Q 35.6,67.1,36.0,69.7
Q 36.2,71.1,36.4,72.4
 " /> 
<path  
style="fill:rgb(7,193,201)" 
d="M 56.0 49.7
Q 55.6,50.1,55.3,50.5
Q 56.0,51.2,56.9,52.0
Q 56.4,51.1,56.2,50.4
Q 56.1,50.1,56.0,49.7
 " /> 
<path  
style="fill:rgb(7,193,201)" 
d="M 56.0 49.7
Q 55.1,49.0,54.3,48.3
Q 52.6,47.0,52.3,47.2
Q 52.1,47.4,52.3,47.6
Q 52.4,47.9,55.3,50.5
Q 55.6,50.1,56.0,49.7
 " /> 
<path  
style="fill:rgb(7,193,201)" 
d="M -34.0 53.9
Q -34.3,55.1,-33.6,55.1
Q -32.9,55.1,-32.6,53.9
Q -32.3,52.6,-31.7,51.3
Q -30.1,48.2,-31.3,48.5
Q -32.7,48.8,-34.0,53.9
 " /> 
<path  
style="fill:rgb(14,103,171)" 
d="M -67.1 -89.8
Q -67.2,-89.5,-67.4,-89.2
Q -67.6,-88.5,-67.1,-87.6
Q -67.1,-88.7,-67.1,-89.8
 " /> 
<path  
style="fill:rgb(97,247,248)" 
d="M -67.1 -89.8
Q -67.1,-88.7,-67.1,-87.6
Q -65.8,-75.6,-63.3,-67.3
Q -58.9,-52.2,-54.8,-44.8
Q -51.7,-39.3,-44.6,-30.8
Q -43.4,-32.4,-42.2,-34.1
Q -39.9,-37.4,-39.2,-37.4
Q -37.7,-37.4,-40.8,-33.2
Q -42.5,-30.9,-44.7,-27.6
Q -46.8,-24.3,-48.1,-22.5
Q -55.1,-13.1,-54.0,-4.9
Q -52.8,4.3,-42.4,-16.2
Q -39.0,-22.9,-38.5,-24.3
Q -37.9,-25.6,-36.4,-27.8
Q -33.3,-32.5,-32.3,-32.5
Q -31.2,-32.5,-34.0,-28.5
Q -35.7,-26.2,-34.6,-25.3
Q -30.5,-22.2,-29.8,-23.0
Q -29.4,-23.4,-28.4,-26.2
Q -27.4,-29.0,-26.7,-28.8
Q -25.8,-28.5,-27.1,-24.9
Q -28.1,-22.5,-28.2,-21.4
Q -28.4,-20.2,-29.0,-18.9
Q -30.6,-15.8,-32.2,-8.7
Q -34.0,-1.1,-32.7,1.9
Q -29.9,8.4,-19.8,-11.6
Q -15.0,-20.9,-12.6,-21.7
Q -10.6,-22.3,-13.3,-18.2
Q -14.3,-16.8,-15.2,-15.4
Q -14.2,-15.1,-13.3,-14.8
Q -10.3,-13.9,0.4,-12.9
Q 1.8,-12.9,3.1,-12.9
Q 16.0,-13.6,24.0,-15.6
Q 27.8,-16.5,29.5,-16.8
Q 31.2,-17.1,31.0,-17.6
Q 30.8,-18.1,29.2,-21.5
Q 27.6,-25.0,28.3,-25.2
Q 29.0,-25.5,31.2,-21.1
Q 33.2,-17.1,33.7,-16.5
Q 34.1,-15.8,35.6,-12.5
Q 40.2,-2.2,41.7,-5.9
Q 42.1,-6.9,42.7,-11.6
Q 42.7,-12.9,42.7,-14.3
Q 41.8,-19.1,40.6,-22.4
Q 39.5,-25.6,37.9,-28.2
Q 35.3,-32.7,36.6,-32.4
Q 38.0,-32.1,41.3,-25.5
Q 42.4,-23.1,42.9,-23.3
Q 43.4,-23.4,45.5,-25.3
Q 47.0,-26.6,47.2,-27.2
Q 47.3,-27.8,46.0,-31.3
Q 43.7,-37.5,44.8,-37.5
Q 45.4,-37.6,47.4,-32.5
Q 54.0,-15.7,55.8,-15.4
Q 57.8,-15.2,58.1,-22.6
Q 58.2,-23.5,58.2,-24.5
Q 58.2,-26.5,58.2,-28.5
Q 58.0,-29.6,57.8,-30.7
Q 56.8,-35.8,54.7,-40.4
Q 53.2,-43.6,53.5,-43.9
Q 54.5,-44.9,56.9,-39.8
Q 58.7,-36.0,59.1,-36.3
Q 59.3,-36.4,59.6,-36.5
Q 60.1,-37.1,60.7,-37.8
Q 61.8,-39.1,64.0,-40.9
Q 68.9,-47.6,71.1,-52.0
Q 73.3,-56.5,75.1,-64.0
Q 75.1,-65.1,75.1,-66.3
Q 75.1,-108.3,62.4,-126.9
Q 61.4,-128.4,60.4,-129.8
Q 59.9,-130.3,59.3,-130.7
Q 58.2,-131.6,57.3,-132.7
Q 56.9,-133.3,56.4,-133.8
Q 52.9,-136.5,50.3,-138.3
Q 47.8,-140.1,45.7,-141.2
Q 42.3,-142.9,43.4,-144.1
Q 43.9,-144.6,46.0,-143.6
Q 48.1,-142.7,48.2,-142.8
Q 48.4,-142.9,47.7,-145.4
Q 46.5,-149.8,42.2,-156.9
Q 41.8,-157.3,41.3,-157.6
Q 40.5,-158.3,39.8,-159.2
Q 39.4,-159.6,39.1,-160.0
Q 31.8,-164.7,26.3,-165.2
Q 22.1,-165.6,13.8,-160.5
Q 13.5,-160.1,13.2,-159.7
Q 12.6,-159.0,11.1,-157.8
Q 10.2,-156.6,9.3,-155.4
Q 7.5,-152.9,6.4,-151.6
Q 5.9,-150.9,5.3,-150.3
Q 4.9,-150.1,4.4,-150.0
Q 4.0,-149.9,3.3,-150.0
Q 2.8,-150.0,2.2,-150.3
Q 0.9,-150.3,-0.4,-150.3
Q -1.6,-150.3,-2.7,-150.3
Q -3.8,-150.3,-4.9,-150.3
Q -5.4,-150.7,-6.0,-151.1
Q -7.1,-152.0,-8.2,-154.0
Q -9.3,-156.0,-11.6,-158.5
Q -12.7,-159.7,-13.8,-160.9
Q -15.1,-161.8,-15.5,-162.5
Q -15.8,-162.8,-16.0,-163.1
Q -16.9,-163.7,-17.8,-164.3
Q -22.9,-167.5,-31.6,-168.0
Q -32.7,-168.0,-33.8,-168.0
Q -34.4,-167.8,-35.1,-167.6
Q -36.5,-167.2,-38.2,-166.3
Q -38.6,-165.8,-38.9,-165.4
Q -39.6,-164.5,-40.2,-164.1
Q -40.6,-163.8,-40.9,-163.6
Q -41.4,-162.7,-42.0,-161.8
Q -46.2,-155.2,-46.3,-149.3
Q -46.4,-145.4,-47.9,-145.7
Q -48.4,-145.8,-49.9,-144.0
Q -51.3,-142.2,-51.2,-141.4
Q -51.1,-140.6,-52.5,-139.6
Q -54.8,-137.9,-56.4,-135.3
Q -63.1,-124.5,-65.3,-113.5
Q -66.2,-108.9,-66.7,-102.3
Q -66.7,-101.8,-66.7,-101.2
Q -66.7,-100.2,-66.9,-100.1
Q -67.0,-100.1,-67.1,-100.0
Q -67.1,-98.0,-67.1,-96.0
Q -67.1,-92.7,-67.3,-92.6
Q -67.4,-92.5,-67.6,-92.5
Q -67.1,-91.1,-67.1,-90.5
Q -67.1,-90.1,-67.1,-89.8
 " /> 
<path  
style="fill:rgb(4,4,4)" 
d="M 19.1 -25.1
Q 21.8,-23.3,21.8,-24.7
Q 21.8,-25.3,19.9,-26.6
Q 12.6,-31.7,-0.2,-27.4
Q -2.0,-26.8,-2.1,-26.0
Q -2.3,-25.2,-1.3,-25.5
Q 13.1,-29.1,19.1,-25.1
 " /> 
<path  
style="fill:rgb(4,4,4)" 
d="M -1.0 -46.9
Q -0.5,-45.5,1.4,-48.8
Q 2.8,-51.3,4.4,-53.8
Q 6.7,-57.4,5.6,-57.4
Q 4.2,-57.4,0.3,-50.3
Q -1.2,-47.5,-1.0,-46.9
 " /> 
<path  
style="fill:rgb(4,4,4)" 
d="M 12.8 -50.8
Q 15.1,-46.3,15.8,-46.3
Q 16.9,-46.3,14.7,-50.7
Q 11.5,-56.9,10.6,-56.9
Q 9.7,-56.9,12.8,-50.8
 " /> 
<path  
style="fill:rgb(4,4,4)" 
d="M 37.8 -122.7
Q 37.4,-122.3,37.1,-121.8
Q 36.4,-121.0,35.5,-120.3
Q 35.1,-119.9,34.7,-119.6
Q 33.9,-118.6,33.1,-117.6
Q 27.2,-110.0,19.8,-87.1
Q 17.2,-79.4,16.7,-78.0
Q 16.1,-76.7,15.8,-75.4
Q 15.6,-74.0,14.9,-71.8
Q 13.5,-67.6,14.4,-67.6
Q 15.1,-67.6,17.0,-73.0
Q 23.9,-59.7,29.2,-57.5
Q 31.3,-56.6,35.1,-55.6
Q 35.4,-55.7,35.8,-55.8
Q 36.4,-56.1,36.9,-55.8
Q 37.1,-55.7,37.3,-55.6
Q 38.4,-55.8,39.6,-56.0
Q 44.2,-57.0,48.7,-60.1
Q 63.0,-69.8,64.2,-85.8
Q 65.5,-102.0,55.9,-116.1
Q 47.2,-129.0,39.1,-123.6
Q 38.4,-123.1,37.8,-122.7
 " /> 
<path  
style="fill:rgb(31,181,0)" 
d="M 38.2 -58.7
Q 36.2,-58.7,34.2,-58.7
Q 34.8,-58.6,35.3,-58.5
Q 36.4,-58.2,37.3,-58.5
Q 37.8,-58.6,38.2,-58.7
 " /> 
<path  
style="fill:rgb(115,250,3)" 
d="M 38.2 -58.7
Q 39.6,-59.0,40.9,-59.4
Q 44.4,-60.3,50.1,-64.7
Q 58.9,-71.5,61.5,-85.2
Q 61.9,-87.1,62.2,-88.9
Q 62.1,-88.9,62.0,-88.9
Q 61.7,-88.8,61.8,-94.3
Q 61.1,-94.2,60.4,-94.2
Q 60.7,-87.4,56.8,-79.2
Q 46.7,-57.2,26.7,-69.1
Q 22.0,-71.9,26.7,-77.8
Q 23.7,-78.6,23.6,-79.4
Q 23.6,-80.1,25.0,-79.8
Q 31.1,-78.6,35.5,-84.0
Q 40.9,-90.6,42.6,-91.9
Q 44.0,-92.9,46.7,-92.9
Q 48.5,-92.5,49.8,-90.7
Q 53.5,-84.4,53.9,-86.8
Q 55.3,-96.2,50.5,-106.5
Q 48.5,-110.7,49.0,-111.0
Q 49.5,-111.3,50.3,-110.3
Q 51.1,-109.4,53.3,-104.9
Q 53.6,-105.1,53.8,-105.3
Q 55.7,-106.7,57.7,-103.5
Q 60.2,-99.3,60.4,-94.2
Q 61.1,-94.2,61.8,-94.3
Q 61.6,-95.6,61.3,-96.9
Q 59.6,-107.2,52.9,-116.1
Q 45.8,-125.6,39.8,-121.3
Q 30.8,-114.8,20.4,-82.8
Q 18.6,-77.3,19.2,-75.4
Q 20.9,-70.7,24.4,-65.5
Q 27.3,-61.0,34.2,-58.7
Q 36.2,-58.7,38.2,-58.7
 " /> 
<path  
style="fill:rgb(209,251,185)" 
d="M 28.2 -84.9
Q 30.5,-82.4,38.2,-89.5
Q 42.4,-93.4,45.6,-95.2
Q 48.9,-97.0,49.4,-98.2
Q 50.2,-100.3,48.0,-105.5
Q 45.6,-111.2,43.2,-112.5
Q 41.9,-113.2,42.1,-113.8
Q 42.4,-114.7,40.6,-113.3
Q 34.5,-108.7,34.0,-103.4
Q 33.8,-102.0,30.9,-96.4
Q 26.1,-87.2,28.2,-84.9
 " /> 
<path  
style="fill:rgb(31,181,0)" 
d="M 62.2 -88.9
Q 62.2,-94.4,62.0,-94.3
Q 61.9,-94.3,61.8,-94.3
Q 61.7,-88.8,62.0,-88.9
Q 62.1,-88.9,62.2,-88.9
 " /> 
<path  
style="fill:rgb(115,250,3)" 
d="M 42.2 -88.9
Q 42.7,-88.7,43.1,-88.5
Q 43.1,-88.5,43.1,-88.5
Q 46.0,-89.7,48.5,-86.2
Q 51.2,-82.3,52.5,-82.3
Q 53.3,-82.3,52.9,-83.1
Q 52.2,-83.9,51.5,-84.7
Q 50.2,-86.2,48.7,-88.3
Q 46.4,-91.7,43.6,-89.8
Q 42.9,-89.4,42.2,-88.9
 " /> 
<path  
style="fill:rgb(115,250,3)" 
d="M 42.2 -88.9
Q 42.0,-88.4,41.8,-87.9
Q 42.5,-88.2,43.1,-88.5
Q 42.7,-88.7,42.2,-88.9
 " /> 
<path  
style="fill:rgb(31,181,0)" 
d="M 42.2 -88.9
Q 41.2,-87.7,40.2,-86.5
Q 32.4,-76.9,28.0,-77.6
Q 27.3,-77.7,26.7,-77.8
Q 22.0,-71.9,26.7,-69.1
Q 46.7,-57.2,56.8,-79.2
Q 60.7,-87.4,60.4,-94.2
Q 60.2,-99.3,57.7,-103.5
Q 55.7,-106.7,53.8,-105.3
Q 53.6,-105.1,53.3,-104.9
Q 53.8,-103.6,54.2,-102.3
Q 56.9,-94.4,55.9,-87.1
Q 55.5,-84.4,53.8,-83.6
Q 53.4,-83.4,52.9,-83.1
Q 53.3,-82.3,52.5,-82.3
Q 51.2,-82.3,48.5,-86.2
Q 46.0,-89.7,43.1,-88.5
Q 43.1,-88.5,43.1,-88.5
Q 42.5,-88.2,41.8,-87.9
Q 42.0,-88.4,42.2,-88.9
 " /> 
<path  
style="fill:rgb(4,4,4)" 
d="M 42.2 -88.9
Q 42.9,-89.4,43.6,-89.8
Q 46.4,-91.7,48.7,-88.3
Q 50.2,-86.2,51.5,-84.7
Q 52.2,-83.9,52.9,-83.1
Q 53.4,-83.4,53.8,-83.6
Q 55.5,-84.4,55.9,-87.1
Q 56.9,-94.4,54.2,-102.3
Q 53.8,-103.6,53.3,-104.9
Q 51.1,-109.4,50.3,-110.3
Q 49.5,-111.3,49.0,-111.0
Q 48.5,-110.7,50.5,-106.5
Q 55.3,-96.2,53.9,-86.8
Q 53.5,-84.4,49.8,-90.7
Q 48.1,-92.1,46.7,-92.9
Q 44.0,-92.9,42.6,-91.9
Q 40.9,-90.6,35.5,-84.0
Q 31.1,-78.6,25.0,-79.8
Q 23.6,-80.1,23.6,-79.4
Q 23.7,-78.6,26.7,-77.8
Q 27.3,-77.7,28.0,-77.6
Q 32.4,-76.9,40.2,-86.5
Q 41.2,-87.7,42.2,-88.9
 " /> 
<path  
style="fill:rgb(31,181,0)" 
d="M 46.7 -92.9
Q 48.1,-92.1,49.8,-90.7
Q 48.5,-92.5,46.7,-92.9
 " /> 
<path  
style="fill:rgb(14,103,171)" 
d="M 37.8 -122.7
Q 36.0,-121.3,35.3,-120.5
Q 35.0,-120.0,34.7,-119.6
Q 35.1,-119.9,35.5,-120.3
Q 36.4,-121.0,37.1,-121.8
Q 37.4,-122.3,37.8,-122.7
 " /> 
<path  
style="fill:rgb(14,103,171)" 
d="M 37.3 -55.6
Q 37.1,-55.7,36.9,-55.8
Q 36.4,-56.1,35.8,-55.8
Q 35.4,-55.7,35.1,-55.6
Q 36.2,-55.6,37.3,-55.6
 " /> 
<path  
style="fill:rgb(4,4,4)" 
d="M -22.2 -58.3
Q -19.4,-58.3,-19.5,-58.1
Q -19.5,-58.0,-19.6,-57.8
Q -18.4,-57.9,-17.3,-58.0
Q -8.6,-58.9,-3.0,-69.6
Q -2.2,-71.1,-1.5,-72.6
Q 0.1,-64.4,1.1,-65.5
Q 2.0,-66.3,-2.4,-86.1
Q -10.2,-120.8,-26.3,-129.6
Q -32.1,-132.8,-38.8,-129.7
Q -39.6,-129.3,-40.4,-128.9
Q -41.5,-127.5,-43.6,-125.8
Q -49.8,-116.9,-50.4,-107.4
Q -50.5,-105.7,-50.7,-104.0
Q -50.2,-104.2,-50.2,-102.1
Q -50.2,-101.1,-50.2,-100.0
Q -50.2,-98.3,-50.2,-96.5
Q -49.0,-81.0,-40.9,-71.2
Q -39.8,-69.8,-38.7,-68.5
Q -36.9,-67.1,-35.6,-65.4
Q -34.6,-64.5,-33.6,-63.6
Q -29.3,-59.8,-22.2,-58.3
 " /> 
<path  
style="fill:rgb(31,181,0)" 
d="M -18.2 -60.5
Q -19.6,-60.5,-20.9,-60.5
Q -19.6,-60.0,-18.9,-60.2
Q -18.6,-60.4,-18.2,-60.5
 " /> 
<path  
style="fill:rgb(115,250,3)" 
d="M -18.2 -60.5
Q -14.6,-61.3,-10.7,-63.6
Q -9.3,-65.3,-8.4,-66.0
Q -8.0,-66.4,-7.6,-66.7
Q -4.4,-71.6,-3.5,-74.6
Q -1.9,-79.7,-7.6,-97.4
Q -16.6,-125.4,-29.8,-128.4
Q -30.9,-128.7,-32.0,-128.9
Q -33.1,-128.9,-34.2,-128.9
Q -35.2,-128.7,-36.2,-128.5
Q -38.2,-128.0,-40.9,-125.4
Q -46.4,-119.9,-47.5,-112.6
Q -47.7,-111.0,-48.0,-109.4
Q -48.0,-106.4,-48.1,-106.0
Q -48.1,-105.5,-48.4,-105.4
Q -48.4,-101.8,-48.4,-98.3
Q -48.3,-98.3,-48.2,-98.3
Q -47.9,-98.4,-48.0,-95.6
Q -46.8,-87.2,-43.5,-80.2
Q -42.2,-77.4,-38.2,-71.1
Q -35.1,-68.5,-34.0,-67.1
Q -33.4,-66.5,-32.9,-65.8
Q -25.6,-61.2,-22.4,-60.7
Q -21.7,-60.6,-20.9,-60.5
Q -19.6,-60.5,-18.2,-60.5
 " /> 
<path  
style="fill:rgb(4,4,4)" 
d="M -41.3 -109.4
Q -41.8,-98.7,-38.9,-89.2
Q -35.6,-78.2,-30.3,-83.2
Q -28.3,-85.1,-27.0,-86.2
Q -26.6,-86.5,-26.1,-86.8
Q -26.3,-87.0,-26.4,-87.3
Q -26.8,-87.2,-27.3,-87.1
Q -27.0,-87.5,-26.7,-87.8
Q -25.1,-89.7,-23.0,-88.7
Q -22.3,-88.3,-21.6,-87.9
Q -21.8,-87.8,-22.0,-87.8
Q -22.4,-87.6,-23.6,-87.7
Q -24.5,-87.7,-26.4,-87.3
Q -26.3,-87.0,-26.1,-86.8
Q -22.6,-88.6,-16.6,-83.2
Q -13.3,-80.2,-10.1,-79.4
Q -10.0,-80.2,-9.8,-80.9
Q -11.1,-81.7,-12.4,-82.5
Q -15.1,-84.0,-17.8,-86.9
Q -20.5,-89.8,-21.8,-90.5
Q -22.4,-90.8,-23.1,-91.1
Q -24.2,-91.1,-25.3,-91.1
Q -25.9,-90.9,-26.4,-90.7
Q -27.6,-90.3,-29.0,-88.2
Q -31.7,-84.0,-32.9,-84.0
Q -36.0,-84.0,-39.6,-102.7
Q -39.7,-103.6,-39.8,-104.5
Q -40.0,-106.3,-39.6,-109.8
Q -39.3,-111.1,-39.1,-112.5
Q -38.7,-115.1,-37.4,-117.1
Q -36.1,-119.1,-36.7,-119.6
Q -38.0,-120.7,-40.5,-114.3
Q -41.4,-112.0,-41.4,-110.7
Q -41.4,-110.0,-41.3,-109.4
 " /> 
<path  
style="fill:rgb(31,181,0)" 
d="M -41.3 -109.4
Q -41.6,-109.0,-41.8,-108.7
Q -42.2,-108.0,-42.4,-108.0
Q -46.1,-108.0,-43.8,-95.5
Q -38.7,-67.0,-23.3,-65.9
Q -17.3,-65.5,-13.0,-68.9
Q -8.2,-72.6,-7.6,-75.2
Q -7.2,-76.8,-8.0,-79.1
Q -9.1,-79.1,-10.1,-79.4
Q -13.3,-80.2,-16.6,-83.2
Q -22.6,-88.6,-26.1,-86.8
Q -26.6,-86.5,-27.0,-86.2
Q -28.3,-85.1,-30.3,-83.2
Q -35.6,-78.2,-38.9,-89.2
Q -41.8,-98.7,-41.3,-109.4
 " /> 
<path  
style="fill:rgb(4,4,4)" 
d="M -8.0 -79.1
Q -7.3,-79.5,-7.2,-79.8
Q -7.2,-79.9,-7.1,-80.0
Q -7.6,-79.6,-8.0,-79.1
 " /> 
<path  
style="fill:rgb(4,4,4)" 
d="M -8.0 -79.1
Q -7.6,-79.6,-7.1,-80.0
Q -7.4,-80.2,-7.8,-80.3
Q -8.4,-80.6,-9.1,-80.7
Q -9.4,-80.8,-9.8,-80.9
Q -10.0,-80.2,-10.1,-79.4
Q -9.1,-79.1,-8.0,-79.1
 " /> 
<path  
style="fill:rgb(31,181,0)" 
d="M -39.6 -109.8
Q -40.0,-106.3,-39.8,-104.5
Q -39.7,-103.6,-39.6,-102.7
Q -39.6,-106.3,-39.6,-109.8
 " /> 
<path  
style="fill:rgb(31,181,0)" 
d="M -25.3 -91.1
Q -24.2,-91.1,-23.1,-91.1
Q -23.4,-91.3,-23.8,-91.4
Q -24.4,-91.7,-24.9,-91.4
Q -25.1,-91.3,-25.3,-91.1
 " /> 
<path  
style="fill:rgb(31,181,0)" 
d="M -9.8 -80.9
Q -9.4,-80.8,-9.1,-80.7
Q -8.4,-80.6,-7.8,-80.3
Q -7.4,-80.2,-7.1,-80.0
Q -7.2,-80.3,-7.3,-80.6
Q -7.5,-81.1,-9.8,-80.9
 " /> 
<path  
style="fill:rgb(255,255,255)" 
d="M -26.7 -87.8
Q -26.5,-87.5,-26.4,-87.3
Q -24.5,-87.7,-23.6,-87.7
Q -22.4,-87.6,-22.0,-87.8
Q -21.8,-87.8,-21.6,-87.9
Q -22.3,-88.3,-23.0,-88.7
Q -25.1,-89.7,-26.7,-87.8
 " /> 
<path  
style="fill:rgb(255,255,255)" 
d="M -26.7 -87.8
Q -27.0,-87.5,-27.3,-87.1
Q -26.8,-87.2,-26.4,-87.3
Q -26.5,-87.5,-26.7,-87.8
 " /> 
<path  
style="fill:rgb(209,251,185)" 
d="M -12.2 -87.8
Q -9.5,-86.5,-9.9,-87.9
Q -10.1,-88.7,-12.6,-94.3
Q -22.0,-115.1,-27.8,-112.4
Q -32.6,-110.0,-32.6,-104.1
Q -32.6,-96.8,-23.5,-94.1
Q -19.8,-93.0,-16.7,-90.7
Q -13.6,-88.4,-12.2,-87.8
 " /> 
<path  
style="fill:rgb(31,181,0)" 
d="M -38.2 -71.1
Q -35.5,-68.1,-32.9,-65.8
Q -33.4,-66.5,-34.0,-67.1
Q -35.1,-68.5,-38.2,-71.1
 " /> 
<path  
style="fill:rgb(31,181,0)" 
d="M -48.0 -95.6
Q -47.9,-98.4,-48.2,-98.3
Q -48.3,-98.3,-48.4,-98.3
Q -48.4,-95.9,-48.4,-95.7
Q -48.3,-95.4,-48.0,-95.6
 " /> 
<path  
style="fill:rgb(31,181,0)" 
d="M -48.4 -105.4
Q -48.1,-105.5,-48.1,-106.0
Q -48.0,-106.4,-48.0,-109.4
Q -48.1,-109.3,-48.2,-109.3
Q -48.4,-109.2,-48.4,-105.4
 " /> 
<path  
style="fill:rgb(31,181,0)" 
d="M -34.2 -128.9
Q -33.1,-128.9,-32.0,-128.9
Q -33.3,-129.4,-34.2,-128.9
 " /> 
<path  
style="fill:rgb(31,181,0)" 
d="M -7.6 -66.7
Q -8.0,-66.4,-8.4,-66.0
Q -9.3,-65.3,-10.7,-63.6
Q -8.9,-64.9,-7.6,-66.7
 " /> 
<path  
style="fill:rgb(7,193,201)" 
d="M -22.2 -58.3
Q -21.6,-58.0,-21.0,-57.8
Q -20.3,-57.8,-19.6,-57.8
Q -19.5,-58.0,-19.5,-58.1
Q -19.4,-58.3,-22.2,-58.3
 " /> 
<path  
style="fill:rgb(7,193,201)" 
d="M -22.2 -58.3
Q -22.4,-57.7,-21.0,-57.8
Q -21.0,-57.8,-21.0,-57.8
Q -21.6,-58.0,-22.2,-58.3
 " /> 
<path  
style="fill:rgb(14,103,171)" 
d="M -35.6 -65.4
Q -36.9,-67.1,-38.7,-68.5
Q -37.3,-66.7,-36.4,-66.0
Q -36.0,-65.7,-35.6,-65.4
 " /> 
<path  
style="fill:rgb(7,193,201)" 
d="M -50.2 -96.5
Q -50.2,-98.3,-50.2,-100.0
Q -50.4,-100.0,-50.7,-100.0
Q -50.7,-96.3,-50.4,-96.4
Q -50.3,-96.4,-50.2,-96.5
 " /> 
<path  
style="fill:rgb(14,103,171)" 
d="M -50.2 -100.0
Q -50.2,-101.1,-50.2,-102.1
Q -50.2,-104.2,-50.7,-104.0
Q -50.7,-102.0,-50.7,-100.0
Q -50.4,-100.0,-50.2,-100.0
 " /> 
<path  
style="fill:rgb(7,193,201)" 
d="M -43.6 -125.8
Q -41.5,-127.5,-40.4,-128.9
Q -40.8,-128.6,-41.1,-128.3
Q -41.9,-127.8,-42.7,-126.8
Q -43.1,-126.3,-43.6,-125.8
 " /> 
<path  
style="fill:rgb(7,193,201)" 
d="M -67.6 -92.5
Q -67.4,-92.5,-67.3,-92.6
Q -67.1,-92.7,-67.1,-96.0
Q -67.4,-95.9,-67.5,-95.5
Q -67.5,-95.1,-67.6,-92.5
 " /> 
<path  
style="fill:rgb(7,193,201)" 
d="M -67.1 -100.0
Q -67.0,-100.1,-66.9,-100.1
Q -66.7,-100.2,-66.7,-101.2
Q -66.7,-101.8,-66.7,-102.3
Q -66.8,-102.2,-66.9,-102.2
Q -67.0,-102.1,-67.1,-100.0
 " /> 
<path  
style="fill:rgb(7,193,201)" 
d="M -40.9 -163.6
Q -40.6,-163.8,-40.2,-164.1
Q -39.6,-164.5,-38.9,-165.4
Q -38.6,-165.8,-38.2,-166.3
Q -38.6,-166.0,-38.9,-165.7
Q -39.6,-165.2,-40.3,-164.4
Q -40.6,-164.0,-40.9,-163.6
 " /> 
<path  
style="fill:rgb(14,103,171)" 
d="M -33.8 -168.0
Q -32.7,-168.0,-31.6,-168.0
Q -31.9,-168.2,-32.2,-168.3
Q -32.9,-168.5,-33.8,-168.0
 " /> 
<path  
style="fill:rgb(7,193,201)" 
d="M -16.0 -163.1
Q -15.8,-162.8,-15.5,-162.5
Q -15.1,-161.8,-13.8,-160.9
Q -14.0,-161.3,-14.2,-161.6
Q -14.7,-162.2,-16.0,-163.1
 " /> 
<path  
style="fill:rgb(7,193,201)" 
d="M -4.9 -150.3
Q -3.8,-150.3,-2.7,-150.3
Q -2.7,-150.5,-2.7,-150.7
Q -4.7,-150.7,-4.9,-150.3
 " /> 
<path  
style="fill:rgb(14,103,171)" 
d="M -2.7 -150.3
Q -1.6,-150.3,-0.4,-150.3
Q -1.0,-150.5,-1.5,-150.7
Q -1.5,-150.7,-1.5,-150.7
Q -2.1,-150.7,-2.7,-150.7
Q -2.7,-150.5,-2.7,-150.3
 " /> 
<path  
style="fill:rgb(14,103,171)" 
d="M -0.4 -150.3
Q -0.4,-150.3,-0.4,-150.4
Q -0.4,-150.6,-0.8,-150.7
Q -1.0,-150.8,-1.5,-150.7
Q -1.0,-150.5,-0.4,-150.3
 " /> 
<path  
style="fill:rgb(4,4,4)" 
d="M -0.4 -150.3
Q 0.9,-150.3,2.2,-150.3
Q 2.2,-150.9,2.2,-151.6
Q 1.8,-151.6,1.5,-151.6
Q 0.3,-151.5,-0.2,-151.6
Q -0.3,-151.0,-0.4,-150.4
Q -0.4,-150.3,-0.4,-150.3
 " /> 
<path  
style="fill:rgb(4,4,4)" 
d="M 2.2 -150.3
Q 2.8,-150.3,3.4,-150.3
Q 3.5,-150.9,3.6,-151.6
Q 2.9,-151.6,2.2,-151.6
Q 2.2,-150.9,2.2,-150.3
 " /> 
<path  
style="fill:rgb(7,193,201)" 
d="M 2.2 -150.3
Q 2.8,-150.0,3.3,-150.0
Q 3.4,-150.1,3.4,-150.3
Q 2.8,-150.3,2.2,-150.3
 " /> 
<path  
style="fill:rgb(7,193,201)" 
d="M 5.3 -150.3
Q 4.4,-150.3,3.6,-150.3
Q 3.1,-150.3,2.7,-150.3
Q 3.4,-150.1,3.3,-150.0
Q 4.0,-149.9,4.4,-150.0
Q 4.9,-150.1,5.3,-150.3
 " /> 
<path  
style="fill:rgb(4,4,4)" 
d="M 5.3 -150.3
Q 5.9,-150.9,6.4,-151.6
Q 7.5,-152.9,9.3,-155.4
Q 10.2,-156.6,11.1,-157.8
Q 10.5,-158.4,9.9,-158.9
Q 8.3,-157.2,7.0,-155.2
Q 5.3,-152.9,4.4,-152.3
Q 4.0,-151.9,3.6,-151.6
Q 3.6,-150.9,3.6,-150.3
Q 4.4,-150.3,5.3,-150.3
 " /> 
<path  
style="fill:rgb(4,4,4)" 
d="M 11.1 -157.8
Q 11.3,-158.1,11.6,-158.5
Q 12.0,-159.1,12.9,-159.8
Q 13.3,-160.1,13.8,-160.5
Q 13.2,-161.1,12.6,-161.7
Q 10.7,-160.0,9.0,-157.9
Q 10.5,-158.4,11.1,-157.8
 " /> 
<path  
style="fill:rgb(14,103,171)" 
d="M 11.1 -157.8
Q 12.6,-159.0,13.2,-159.7
Q 13.5,-160.1,13.8,-160.5
Q 13.3,-160.1,12.9,-159.8
Q 12.0,-159.1,11.6,-158.5
Q 11.3,-158.1,11.1,-157.8
 " /> 
<path  
style="fill:rgb(14,103,171)" 
d="M 39.1 -160.0
Q 39.4,-159.6,39.8,-159.2
Q 40.5,-158.3,41.3,-157.6
Q 41.8,-157.3,42.2,-156.9
Q 41.9,-157.4,41.5,-157.8
Q 40.9,-158.7,39.1,-160.0
 " /> 
<path  
style="fill:rgb(14,103,171)" 
d="M 56.4 -133.8
Q 56.9,-133.3,57.3,-132.7
Q 58.2,-131.6,59.3,-130.7
Q 59.9,-130.3,60.4,-129.8
Q 60.0,-130.4,59.5,-130.9
Q 58.6,-132.0,57.5,-132.9
Q 57.0,-133.4,56.4,-133.8
 " /> 
<path  
style="fill:rgb(14,103,171)" 
d="M 75.1 -66.3
Q 75.1,-65.1,75.1,-64.0
Q 75.2,-64.4,75.4,-64.7
Q 75.6,-65.4,75.1,-66.3
 " /> 
<path  
style="fill:rgb(14,103,171)" 
d="M 64.0 -40.9
Q 61.8,-39.1,60.7,-37.8
Q 60.1,-37.1,59.6,-36.5
Q 62.2,-38.7,64.0,-40.9
 " /> 
<path  
style="fill:rgb(14,103,171)" 
d="M 58.2 -28.5
Q 58.2,-26.5,58.2,-24.5
Q 58.7,-26.7,58.2,-28.5
 " /> 
<path  
style="fill:rgb(14,103,171)" 
d="M 42.7 -14.3
Q 42.7,-12.9,42.7,-11.6
Q 42.8,-11.9,42.9,-12.3
Q 43.1,-12.9,42.7,-14.3
 " /> 
<path  
style="fill:rgb(14,103,171)" 
d="M 3.1 -12.9
Q 1.8,-12.9,0.4,-12.9
Q 0.8,-12.8,1.1,-12.7
Q 1.8,-12.4,3.1,-12.9
 " /> 
<path  
style="fill:rgb(4,4,4)" 
d="M -96.0 -59.1
Q -95.7,-58.9,-95.3,-58.7
Q -94.7,-58.2,-94.2,-57.6
Q -94.0,-57.3,-93.8,-56.9
Q -89.3,-53.4,-86.8,-51.4
Q -72.7,-40.9,-55.2,-36.8
Q -53.8,-36.4,-52.4,-36.1
Q -52.7,-36.6,-53.0,-37.1
Q -53.7,-38.1,-55.0,-39.8
Q -56.3,-41.6,-57.9,-45.1
Q -58.7,-46.8,-59.6,-48.5
Q -60.2,-48.6,-60.8,-48.8
Q -61.2,-48.8,-61.6,-48.9
Q -72.1,-51.3,-85.1,-61.9
Q -93.1,-68.4,-92.1,-69.4
Q -91.7,-69.9,-89.9,-67.9
Q -86.7,-64.3,-78.0,-58.1
Q -69.6,-52.0,-60.4,-50.3
Q -64.0,-60.5,-65.3,-65.4
Q -66.7,-70.3,-67.3,-73.6
Q -67.7,-75.3,-68.0,-76.9
Q -68.1,-76.9,-68.2,-76.8
Q -68.5,-76.8,-68.4,-77.8
Q -70.0,-78.7,-71.6,-79.6
Q -83.1,-86.2,-88.7,-100.2
Q -89.0,-100.9,-88.5,-100.9
Q -88.0,-100.9,-86.5,-97.9
Q -83.0,-91.0,-77.5,-85.7
Q -74.4,-82.8,-68.4,-79.1
Q -68.6,-79.5,-68.7,-79.8
Q -68.9,-80.5,-68.9,-81.8
Q -68.9,-82.5,-68.9,-83.1
Q -69.0,-83.1,-69.1,-83.1
Q -69.4,-83.0,-69.4,-84.4
Q -69.4,-84.4,-69.4,-84.4
Q -69.3,-85.1,-69.3,-85.8
Q -69.3,-86.9,-69.3,-88.0
Q -69.5,-88.4,-69.6,-88.7
Q -69.8,-89.4,-69.3,-90.7
Q -69.3,-90.9,-69.3,-91.1
Q -69.5,-91.5,-69.6,-91.8
Q -69.8,-92.5,-69.3,-93.8
Q -69.3,-94.3,-69.3,-94.7
Q -70.3,-95.5,-71.3,-96.3
Q -76.7,-100.4,-80.7,-110.5
Q -83.9,-118.3,-82.3,-118.3
Q -81.8,-118.3,-81.4,-116.1
Q -79.2,-106.2,-71.0,-97.4
Q -70.2,-96.5,-69.3,-95.6
Q -69.3,-99.1,-68.9,-101.3
Q -68.4,-103.4,-68.4,-106.4
Q -68.5,-109.4,-68.0,-110.3
Q -67.8,-110.7,-67.6,-111.1
Q -69.8,-111.1,-73.1,-116.5
Q -76.2,-121.4,-76.8,-126.0
Q -76.9,-126.9,-77.0,-127.8
Q -76.8,-127.6,-76.5,-127.3
Q -76.1,-126.9,-75.1,-123.8
Q -72.9,-116.7,-69.4,-113.4
Q -68.5,-112.5,-67.6,-111.6
Q -67.4,-112.6,-67.3,-113.6
Q -66.7,-119.6,-64.0,-125.6
Q -64.0,-125.7,-64.1,-125.7
Q -64.1,-125.5,-64.2,-125.4
Q -64.3,-124.7,-65.2,-126.2
Q -67.3,-129.6,-67.2,-135.0
Q -67.1,-138.3,-66.9,-138.3
Q -66.7,-138.3,-66.6,-136.8
Q -66.6,-131.4,-64.9,-127.8
Q -64.2,-126.4,-64.1,-125.7
Q -64.0,-125.7,-64.0,-125.6
Q -62.0,-130.0,-59.1,-134.4
Q -57.3,-136.9,-58.7,-138.2
Q -61.4,-140.6,-60.5,-149.4
Q -60.2,-151.6,-60.0,-153.8
Q -60.0,-154.3,-60.0,-154.8
Q -60.0,-155.8,-59.6,-156.0
Q -59.6,-157.8,-59.6,-159.6
Q -59.6,-161.6,-59.1,-161.8
Q -59.1,-164.0,-59.1,-166.3
Q -59.6,-166.1,-59.6,-167.5
Q -59.6,-167.5,-59.6,-167.5
Q -59.6,-168.2,-59.6,-168.9
Q -59.8,-169.5,-60.0,-170.0
Q -60.4,-171.1,-61.9,-169.6
Q -66.2,-165.2,-69.6,-148.3
Q -70.7,-142.5,-71.4,-139.6
Q -72.0,-136.7,-72.3,-135.7
Q -72.5,-134.7,-73.1,-134.7
Q -74.8,-134.7,-74.7,-138.0
Q -74.7,-138.6,-74.7,-139.1
Q -74.7,-140.3,-74.7,-141.4
Q -74.7,-142.9,-74.7,-144.5
Q -74.7,-147.1,-74.7,-149.8
Q -74.8,-150.7,-74.9,-151.6
Q -75.0,-152.9,-75.2,-153.0
Q -76.6,-154.1,-78.2,-144.3
Q -79.7,-135.0,-81.1,-135.0
Q -83.4,-134.9,-84.2,-148.5
Q -84.5,-152.7,-85.6,-158.9
Q -88.7,-176.4,-92.4,-170.0
Q -93.9,-167.4,-94.7,-152.5
Q -94.3,-152.6,-94.2,-152.4
Q -94.2,-152.1,-94.2,-150.3
Q -93.9,-147.9,-93.6,-145.6
Q -92.8,-140.6,-90.7,-132.3
Q -87.7,-120.7,-90.6,-120.3
Q -93.7,-119.9,-98.2,-137.5
Q -100.5,-146.3,-102.1,-145.1
Q -104.8,-143.0,-106.2,-128.9
Q -106.2,-126.9,-106.7,-126.7
Q -106.6,-126.3,-106.5,-125.9
Q -106.3,-125.1,-106.5,-124.8
Q -106.6,-124.6,-106.7,-124.5
Q -106.5,-124.5,-106.4,-124.6
Q -106.1,-124.6,-106.2,-123.5
Q -106.2,-123.5,-106.2,-123.5
Q -106.2,-122.9,-106.2,-122.3
Q -103.3,-102.0,-92.3,-83.7
Q -90.6,-80.9,-90.2,-78.9
Q -90.0,-77.9,-89.8,-76.9
Q -90.5,-76.0,-91.3,-76.3
Q -91.6,-76.4,-92.0,-76.5
Q -92.2,-76.5,-92.4,-76.5
Q -94.2,-76.9,-94.5,-77.3
Q -94.6,-77.6,-94.7,-77.8
Q -97.0,-79.2,-99.3,-80.5
Q -104.0,-83.2,-106.9,-84.5
Q -108.3,-85.2,-109.8,-85.8
Q -109.8,-84.3,-109.8,-82.7
Q -109.0,-80.8,-108.2,-78.9
Q -106.7,-75.1,-105.0,-72.2
Q -101.3,-65.2,-96.0,-59.1
 " /> 
<path  
style="fill:rgb(14,103,171)" 
d="M -96.0 -59.1
Q -95.1,-57.8,-93.8,-56.9
Q -94.0,-57.3,-94.2,-57.6
Q -94.7,-58.2,-95.3,-58.7
Q -95.7,-58.9,-96.0,-59.1
 " /> 
<path  
style="fill:rgb(14,103,171)" 
d="M -109.8 -82.7
Q -109.8,-84.3,-109.8,-85.8
Q -109.9,-85.4,-110.0,-84.9
Q -110.3,-84.0,-109.8,-82.7
 " /> 
<path  
style="fill:rgb(14,103,171)" 
d="M -94.7 -77.8
Q -94.6,-77.6,-94.5,-77.3
Q -94.2,-76.9,-92.4,-76.5
Q -92.7,-76.7,-92.9,-76.9
Q -93.3,-77.4,-94.7,-77.8
 " /> 
<path  
style="fill:rgb(14,103,171)" 
d="M -92.0 -76.5
Q -91.6,-76.4,-91.3,-76.3
Q -90.5,-76.0,-89.8,-76.9
Q -89.9,-76.8,-90.0,-76.7
Q -90.3,-76.5,-92.0,-76.5
 " /> 
<path  
style="fill:rgb(14,103,171)" 
d="M -106.2 -122.3
Q -106.2,-122.9,-106.2,-123.5
Q -106.4,-124.0,-106.7,-124.5
Q -106.7,-122.6,-106.6,-122.3
Q -106.6,-122.1,-106.2,-122.3
 " /> 
<path  
style="fill:rgb(14,103,171)" 
d="M -106.7 -124.5
Q -106.4,-124.0,-106.2,-123.5
Q -106.2,-123.5,-106.2,-123.5
Q -106.1,-124.6,-106.4,-124.6
Q -106.5,-124.5,-106.7,-124.5
 " /> 
<path  
style="fill:rgb(14,103,171)" 
d="M -106.7 -126.7
Q -106.2,-126.9,-106.2,-128.9
Q -106.6,-128.8,-106.6,-127.7
Q -106.6,-127.2,-106.7,-126.7
 " /> 
<path  
style="fill:rgb(14,103,171)" 
d="M -94.2 -150.3
Q -94.2,-152.1,-94.2,-152.4
Q -94.3,-152.6,-94.7,-152.5
Q -94.7,-150.6,-94.6,-150.3
Q -94.6,-150.1,-94.2,-150.3
 " /> 
<path  
style="fill:rgb(14,103,171)" 
d="M -74.7 -149.8
Q -74.7,-147.1,-74.7,-144.5
Q -74.5,-145.1,-74.4,-145.8
Q -74.2,-147.1,-74.4,-148.5
Q -74.5,-149.1,-74.7,-149.8
 " /> 
<path  
style="fill:rgb(14,103,171)" 
d="M -74.7 -141.4
Q -74.7,-140.3,-74.7,-139.1
Q -74.2,-140.5,-74.7,-141.4
 " /> 
<path  
style="fill:rgb(14,103,171)" 
d="M -59.6 -168.9
Q -59.6,-168.2,-59.6,-167.5
Q -59.3,-166.9,-59.1,-166.3
Q -59.1,-168.6,-59.2,-168.9
Q -59.2,-169.1,-59.6,-168.9
 " /> 
<path  
style="fill:rgb(14,103,171)" 
d="M -59.1 -166.3
Q -59.3,-166.9,-59.6,-167.5
Q -59.6,-167.5,-59.6,-167.5
Q -59.6,-166.1,-59.1,-166.3
 " /> 
<path  
style="fill:rgb(14,103,171)" 
d="M -59.1 -161.8
Q -59.6,-161.6,-59.6,-159.6
Q -59.5,-159.6,-59.4,-159.7
Q -59.2,-159.8,-59.1,-160.8
Q -59.1,-161.3,-59.1,-161.8
 " /> 
<path  
style="fill:rgb(14,103,171)" 
d="M -59.6 -156.0
Q -60.0,-155.8,-60.0,-154.8
Q -60.0,-154.3,-60.0,-153.8
Q -59.9,-153.9,-59.8,-153.9
Q -59.6,-154.0,-59.6,-155.0
Q -59.6,-155.5,-59.6,-156.0
 " /> 
<path  
style="fill:rgb(97,247,248)" 
d="M -67.6 -111.6
Q -68.5,-112.5,-69.4,-113.4
Q -72.9,-116.7,-75.1,-123.8
Q -76.1,-126.9,-76.5,-127.3
Q -76.8,-127.6,-77.0,-127.8
Q -76.9,-126.9,-76.8,-126.0
Q -76.2,-121.4,-73.1,-116.5
Q -69.8,-111.1,-67.6,-111.1
Q -67.6,-111.4,-67.6,-111.6
 " /> 
<path  
style="fill:rgb(97,247,248)" 
d="M -69.3 -95.6
Q -70.2,-96.5,-71.0,-97.4
Q -79.2,-106.2,-81.4,-116.1
Q -81.8,-118.3,-82.3,-118.3
Q -83.9,-118.3,-80.7,-110.5
Q -76.7,-100.4,-71.3,-96.3
Q -70.3,-95.5,-69.3,-94.7
Q -69.3,-95.1,-69.3,-95.6
 " /> 
<path  
style="fill:rgb(14,103,171)" 
d="M -69.3 -93.8
Q -69.8,-92.5,-69.6,-91.8
Q -69.5,-91.5,-69.3,-91.1
Q -69.3,-92.5,-69.3,-93.8
 " /> 
<path  
style="fill:rgb(14,103,171)" 
d="M -69.3 -90.7
Q -69.8,-89.4,-69.6,-88.7
Q -69.5,-88.4,-69.3,-88.0
Q -69.3,-89.4,-69.3,-90.7
 " /> 
<path  
style="fill:rgb(14,103,171)" 
d="M -69.3 -85.8
Q -69.3,-85.1,-69.4,-84.4
Q -69.1,-83.8,-68.9,-83.1
Q -68.9,-85.5,-68.9,-85.7
Q -69.0,-86.0,-69.3,-85.8
 " /> 
<path  
style="fill:rgb(14,103,171)" 
d="M -68.9 -83.1
Q -69.1,-83.8,-69.4,-84.4
Q -69.4,-84.4,-69.4,-84.4
Q -69.4,-83.0,-69.1,-83.1
Q -69.0,-83.1,-68.9,-83.1
 " /> 
<path  
style="fill:rgb(14,103,171)" 
d="M -68.4 -79.1
Q -68.4,-78.5,-68.4,-77.8
Q -68.2,-77.8,-68.0,-77.8
Q -68.0,-78.9,-68.1,-79.1
Q -68.1,-79.3,-68.4,-79.1
 " /> 
<path  
style="fill:rgb(97,247,248)" 
d="M -68.4 -79.1
Q -74.4,-82.8,-77.5,-85.7
Q -83.0,-91.0,-86.5,-97.9
Q -88.0,-100.9,-88.5,-100.9
Q -89.0,-100.9,-88.7,-100.2
Q -83.1,-86.2,-71.6,-79.6
Q -70.0,-78.7,-68.4,-77.8
Q -68.4,-78.5,-68.4,-79.1
 " /> 
<path  
style="fill:rgb(14,103,171)" 
d="M -68.4 -77.8
Q -68.2,-77.4,-68.0,-76.9
Q -68.0,-77.4,-68.0,-77.8
Q -68.2,-77.8,-68.4,-77.8
 " /> 
<path  
style="fill:rgb(14,103,171)" 
d="M -68.4 -77.8
Q -68.5,-76.8,-68.2,-76.8
Q -68.1,-76.9,-68.0,-76.9
Q -68.2,-77.4,-68.4,-77.8
 " /> 
<path  
style="fill:rgb(97,247,248)" 
d="M -60.4 -50.3
Q -60.6,-49.5,-60.8,-48.8
Q -60.2,-48.6,-59.6,-48.5
Q -59.6,-48.7,-59.6,-48.9
Q -59.6,-49.4,-60.4,-50.3
 " /> 
<path  
style="fill:rgb(97,247,248)" 
d="M -60.4 -50.3
Q -69.6,-52.0,-78.0,-58.1
Q -86.7,-64.3,-89.9,-67.9
Q -91.7,-69.9,-92.1,-69.4
Q -93.1,-68.4,-85.1,-61.9
Q -72.1,-51.3,-61.6,-48.9
Q -61.2,-48.8,-60.8,-48.8
Q -60.6,-49.5,-60.4,-50.3
 " /> 
<path  
style="fill:rgb(97,247,248)" 
d="M 74.7 -53.8
Q 74.6,-53.7,74.4,-53.6
Q 74.2,-53.3,74.2,-52.5
Q 74.4,-53.1,74.7,-53.8
 " /> 
<path  
style="fill:rgb(4,4,4)" 
d="M 74.7 -53.8
Q 78.2,-54.7,80.8,-56.0
Q 87.3,-59.2,90.4,-61.7
Q 92.6,-63.6,93.0,-63.2
Q 93.4,-62.8,91.5,-61.2
Q 84.7,-55.3,74.2,-52.5
Q 71.1,-46.7,68.8,-43.5
Q 67.7,-42.0,66.6,-40.4
Q 67.5,-40.5,68.5,-40.6
Q 82.7,-42.7,96.3,-53.1
Q 104.1,-59.0,107.8,-66.8
Q 108.8,-69.0,109.8,-72.9
Q 108.5,-72.8,107.6,-72.5
Q 104.0,-69.4,102.6,-68.0
Q 101.1,-66.7,99.8,-66.8
Q 95.8,-67.4,103.4,-81.5
Q 105.9,-86.0,107.5,-88.3
Q 115.2,-98.7,118.9,-111.4
Q 120.6,-117.6,119.7,-120.1
Q 119.4,-120.9,117.3,-120.5
Q 117.1,-120.2,116.9,-119.8
Q 116.4,-119.2,115.1,-118.3
Q 107.1,-108.0,106.3,-107.8
Q 104.1,-107.2,106.9,-114.8
Q 108.8,-120.4,110.6,-126.4
Q 112.4,-132.5,113.8,-140.9
Q 113.8,-143.0,114.2,-143.1
Q 114.2,-145.6,114.2,-148.0
Q 114.2,-149.4,114.2,-150.7
Q 114.2,-151.8,114.2,-152.9
Q 114.1,-152.9,114.0,-152.9
Q 113.7,-152.8,113.8,-154.0
Q 113.8,-154.0,113.8,-154.0
Q 113.8,-154.6,113.8,-155.1
Q 113.4,-156.3,113.1,-157.4
Q 112.1,-160.6,111.0,-160.3
Q 110.5,-160.2,107.6,-157.4
Q 107.3,-156.9,107.1,-156.5
Q 106.6,-155.6,106.2,-154.9
Q 106.0,-154.6,105.8,-154.3
Q 105.1,-152.3,104.4,-150.3
Q 103.1,-146.3,101.5,-142.0
Q 100.8,-139.9,100.0,-137.8
Q 99.9,-137.4,99.8,-137.0
Q 99.6,-136.2,98.9,-135.7
Q 98.6,-135.4,98.2,-135.1
Q 96.8,-133.7,95.6,-135.2
Q 94.4,-136.9,91.6,-144.7
Q 84.5,-164.7,79.6,-165.1
Q 78.6,-165.2,76.9,-162.3
Q 76.9,-160.0,76.9,-157.8
Q 76.9,-155.8,76.9,-153.8
Q 77.0,-153.4,77.1,-152.9
Q 77.4,-152.0,77.1,-151.4
Q 77.0,-151.0,76.9,-150.7
Q 76.9,-143.0,72.2,-145.2
Q 70.6,-146.0,68.9,-147.1
Q 68.4,-147.5,68.0,-147.8
Q 67.1,-148.5,65.8,-149.8
Q 66.0,-149.4,66.2,-148.9
Q 66.7,-148.0,67.1,-146.5
Q 67.3,-145.7,67.6,-144.9
Q 67.7,-144.5,67.8,-144.0
Q 68.0,-143.2,67.6,-141.4
Q 67.2,-141.1,66.9,-140.9
Q 65.0,-139.6,57.9,-145.5
Q 57.3,-146.0,56.8,-146.4
Q 57.0,-146.0,57.2,-145.6
Q 58.9,-142.4,57.3,-140.4
Q 56.4,-139.1,55.5,-139.1
Q 54.6,-139.1,54.8,-138.8
Q 55.0,-138.4,59.9,-133.5
Q 69.3,-124.1,73.1,-109.2
Q 73.7,-107.0,74.2,-104.9
Q 80.5,-112.8,82.2,-121.1
Q 83.2,-125.6,83.3,-135.0
Q 83.5,-147.7,84.2,-143.5
Q 85.4,-136.4,84.5,-127.5
Q 82.9,-113.1,76.5,-106.8
Q 75.4,-105.6,74.2,-104.5
Q 74.7,-101.7,75.1,-98.9
Q 76.0,-93.4,76.9,-86.7
Q 78.2,-88.3,79.6,-89.8
Q 82.2,-92.9,84.8,-96.0
Q 99.4,-113.0,105.0,-129.5
Q 106.7,-134.6,107.0,-133.1
Q 107.5,-130.6,102.1,-119.8
Q 93.0,-101.4,76.9,-86.3
Q 76.9,-85.4,76.9,-84.5
Q 77.4,-84.6,77.3,-83.0
Q 77.3,-83.0,77.3,-83.0
Q 77.3,-82.2,77.3,-81.4
Q 77.3,-80.5,77.3,-79.6
Q 77.4,-79.6,77.6,-79.7
Q 77.7,-79.7,77.7,-79.4
Q 77.8,-79.1,77.8,-76.0
Q 77.8,-74.3,77.8,-72.5
Q 79.2,-73.1,80.7,-73.8
Q 88.9,-77.6,94.7,-86.5
Q 97.6,-91.0,99.2,-92.7
Q 100.7,-94.5,101.4,-95.6
Q 102.1,-96.7,102.5,-96.4
Q 103.1,-95.7,96.9,-87.8
Q 94.1,-84.3,93.3,-82.7
Q 92.5,-81.1,89.6,-78.3
Q 84.7,-73.7,80.0,-72.3
Q 78.9,-71.9,77.8,-71.6
Q 77.8,-62.5,74.7,-53.8
 " /> 
<path  
style="fill:rgb(97,247,248)" 
d="M 70.4 -125.2
Q 70.3,-124.1,70.1,-122.9
Q 70.3,-123.2,70.6,-123.4
Q 71.6,-124.4,72.2,-128.8
Q 72.7,-132.3,71.8,-134.4
Q 71.2,-135.8,70.9,-131.0
Q 70.7,-127.4,70.4,-125.2
 " /> 
<path  
style="fill:rgb(97,247,248)" 
d="M 62.8 -135.2
Q 62.5,-132.9,63.0,-132.9
Q 63.5,-132.9,63.8,-135.2
Q 64.1,-137.4,63.8,-137.7
Q 63.1,-138.4,62.8,-135.2
 " /> 
<path  
style="fill:rgb(97,247,248)" 
d="M 74.7 -53.8
Q 74.4,-53.1,74.2,-52.5
Q 84.7,-55.3,91.5,-61.2
Q 93.4,-62.8,93.0,-63.2
Q 92.6,-63.6,90.4,-61.7
Q 87.3,-59.2,80.8,-56.0
Q 78.2,-54.7,74.7,-53.8
 " /> 
<path  
style="fill:rgb(97,247,248)" 
d="M 77.8 -71.6
Q 78.9,-71.9,80.0,-72.3
Q 84.7,-73.7,89.6,-78.3
Q 92.5,-81.1,93.3,-82.7
Q 94.1,-84.3,96.9,-87.8
Q 103.1,-95.7,102.5,-96.4
Q 102.1,-96.7,101.4,-95.6
Q 100.7,-94.5,99.2,-92.7
Q 97.6,-91.0,94.7,-86.5
Q 88.9,-77.6,80.7,-73.8
Q 79.2,-73.1,77.8,-72.5
Q 77.8,-72.0,77.8,-71.6
 " /> 
<path  
style="fill:rgb(14,103,171)" 
d="M 77.8 -76.0
Q 77.8,-79.1,77.7,-79.4
Q 77.7,-79.7,77.6,-79.7
Q 77.4,-79.6,77.3,-79.6
Q 77.3,-75.9,77.6,-76.0
Q 77.7,-76.0,77.8,-76.0
 " /> 
<path  
style="fill:rgb(14,103,171)" 
d="M 77.3 -81.4
Q 77.3,-82.2,77.3,-83.0
Q 77.1,-83.7,76.9,-84.5
Q 76.9,-81.2,77.1,-81.3
Q 77.2,-81.3,77.3,-81.4
 " /> 
<path  
style="fill:rgb(14,103,171)" 
d="M 76.9 -84.5
Q 77.1,-83.7,77.3,-83.0
Q 77.3,-83.0,77.3,-83.0
Q 77.4,-84.6,76.9,-84.5
 " /> 
<path  
style="fill:rgb(97,247,248)" 
d="M 76.9 -86.3
Q 93.0,-101.4,102.1,-119.8
Q 107.5,-130.6,107.0,-133.1
Q 106.7,-134.6,105.0,-129.5
Q 99.4,-113.0,84.8,-96.0
Q 82.2,-92.9,79.6,-89.8
Q 78.2,-88.3,76.9,-86.7
Q 76.9,-86.5,76.9,-86.3
 " /> 
<path  
style="fill:rgb(97,247,248)" 
d="M 74.2 -104.5
Q 75.4,-105.6,76.5,-106.8
Q 82.9,-113.1,84.5,-127.5
Q 85.4,-136.4,84.2,-143.5
Q 83.5,-147.7,83.3,-135.0
Q 83.2,-125.6,82.2,-121.1
Q 80.5,-112.8,74.2,-104.9
Q 74.2,-104.7,74.2,-104.5
 " /> 
<path  
style="fill:rgb(14,103,171)" 
d="M 67.6 -141.4
Q 68.0,-143.2,67.8,-144.0
Q 67.7,-144.5,67.6,-144.9
Q 67.6,-143.1,67.6,-141.4
 " /> 
<path  
style="fill:rgb(14,103,171)" 
d="M 65.8 -149.8
Q 67.1,-148.5,68.0,-147.8
Q 68.4,-147.5,68.9,-147.1
Q 68.0,-148.0,67.2,-148.8
Q 66.4,-149.6,65.5,-150.4
Q 65.6,-150.2,65.6,-150.1
Q 65.7,-150.0,65.8,-149.8
 " /> 
<path  
style="fill:rgb(14,103,171)" 
d="M 76.9 -150.7
Q 77.0,-151.0,77.1,-151.4
Q 77.4,-152.0,77.1,-152.9
Q 77.0,-153.4,76.9,-153.8
Q 76.9,-152.3,76.9,-150.7
 " /> 
<path  
style="fill:rgb(14,103,171)" 
d="M 76.9 -157.8
Q 76.9,-160.0,76.9,-162.3
Q 76.4,-160.0,76.9,-157.8
 " /> 
<path  
style="fill:rgb(14,103,171)" 
d="M 98.2 -135.1
Q 98.6,-135.4,98.9,-135.7
Q 99.6,-136.2,99.8,-137.0
Q 99.9,-137.4,100.0,-137.8
Q 99.8,-137.5,99.6,-137.1
Q 99.1,-136.4,98.7,-135.8
Q 98.5,-135.5,98.2,-135.1
 " /> 
<path  
style="fill:rgb(14,103,171)" 
d="M 105.8 -154.3
Q 106.0,-154.6,106.2,-154.9
Q 106.6,-155.6,107.1,-156.5
Q 107.3,-156.9,107.6,-157.4
Q 107.2,-157.0,106.9,-156.7
Q 106.2,-156.0,106.0,-155.1
Q 105.9,-154.7,105.8,-154.3
 " /> 
<path  
style="fill:rgb(14,103,171)" 
d="M 113.8 -155.1
Q 113.8,-154.6,113.8,-154.0
Q 114.0,-153.5,114.2,-152.9
Q 114.2,-154.8,114.2,-155.0
Q 114.1,-155.3,113.8,-155.1
 " /> 
<path  
style="fill:rgb(14,103,171)" 
d="M 114.2 -152.9
Q 114.0,-153.5,113.8,-154.0
Q 113.8,-154.0,113.8,-154.0
Q 113.7,-152.8,114.0,-152.9
Q 114.1,-152.9,114.2,-152.9
 " /> 
<path  
style="fill:rgb(14,103,171)" 
d="M 114.2 -150.7
Q 114.2,-149.4,114.2,-148.0
Q 114.7,-149.4,114.5,-150.0
Q 114.3,-150.4,114.2,-150.7
 " /> 
<path  
style="fill:rgb(14,103,171)" 
d="M 114.2 -143.1
Q 113.8,-143.0,113.8,-140.9
Q 113.9,-141.0,114.0,-141.0
Q 114.2,-141.1,114.2,-143.1
 " /> 
<path  
style="fill:rgb(14,103,171)" 
d="M 115.1 -118.3
Q 116.4,-119.2,116.9,-119.8
Q 117.1,-120.2,117.3,-120.5
Q 116.0,-119.6,115.1,-118.3
 " /> 
<path  
style="fill:rgb(14,103,171)" 
d="M 107.6 -72.5
Q 108.5,-72.8,109.8,-72.9
Q 109.6,-73.1,109.4,-73.2
Q 109.1,-73.5,108.3,-73.0
Q 107.9,-72.7,107.6,-72.5
 " /> 
<path  
style="fill:rgb(97,247,248)" 
d="M -65.2 -126.2
Q -64.7,-126.0,-64.1,-125.7
Q -64.2,-126.4,-64.9,-127.8
Q -66.6,-131.4,-66.6,-136.8
Q -66.7,-138.3,-66.9,-138.3
Q -67.1,-138.3,-67.2,-135.0
Q -67.3,-129.6,-65.2,-126.2
 " /> 
<path  
style="fill:rgb(97,247,248)" 
d="M -65.2 -126.2
Q -64.3,-124.7,-64.2,-125.4
Q -64.1,-125.5,-64.1,-125.7
Q -64.7,-126.0,-65.2,-126.2
 " /> 
<path  
style="fill:rgb(7,193,201)" 
d="M -0.4 -152.0
Q 0.6,-152.1,1.6,-152.1
Q 3.7,-152.1,3.6,-151.8
Q 3.6,-151.7,3.6,-151.6
Q 4.0,-151.9,4.4,-152.3
Q 5.3,-152.9,7.0,-155.2
Q 8.3,-157.2,9.9,-158.9
Q 11.6,-160.9,13.6,-162.6
Q 13.9,-162.9,15.2,-163.9
Q 19.3,-167.0,20.8,-171.8
Q 25.0,-184.5,25.8,-191.6
Q 25.8,-193.4,25.8,-195.1
Q 22.7,-190.7,21.3,-187.3
Q 19.6,-183.0,17.2,-176.4
Q 16.3,-173.8,15.7,-173.8
Q 14.4,-173.8,16.9,-181.1
Q 18.9,-186.9,15.6,-189.4
Q 13.4,-191.1,11.9,-189.9
Q 11.4,-189.5,10.0,-184.0
Q 8.4,-177.7,7.6,-178.0
Q 6.5,-178.3,7.7,-182.7
Q 9.5,-189.4,8.6,-189.4
Q 8.0,-189.4,8.0,-190.0
Q 8.0,-190.7,8.8,-191.3
Q 10.2,-192.3,11.2,-207.4
Q 10.9,-207.0,10.5,-206.7
Q 9.9,-206.0,8.9,-201.1
Q 7.3,-192.8,6.9,-189.8
Q 6.4,-185.9,5.2,-187.1
Q 4.8,-187.5,5.5,-191.7
Q 6.5,-198.4,4.3,-202.3
Q 3.7,-203.4,3.1,-204.5
Q 2.8,-204.7,2.5,-204.9
Q 1.8,-205.4,0.9,-206.7
Q 0.3,-206.1,-0.2,-205.6
Q 0.4,-199.6,0.4,-199.6
Q 0.8,-199.7,0.9,-199.5
Q 0.9,-199.2,0.9,-196.9
Q 1.3,-194.7,1.3,-188.5
Q 1.4,-187.8,1.6,-187.1
Q 1.8,-185.4,1.0,-185.6
Q 0.9,-185.4,0.7,-185.4
Q 0.0,-185.4,0.0,-186.3
Q -0.1,-187.3,-0.2,-188.4
Q -0.3,-190.1,-0.4,-191.8
Q -1.5,-204.9,-5.7,-220.2
Q -6.4,-222.9,-8.4,-225.1
Q -8.6,-224.4,-8.9,-223.7
Q -9.4,-222.3,-9.8,-214.7
Q -9.3,-214.9,-9.3,-213.5
Q -9.3,-213.5,-9.3,-213.5
Q -9.3,-212.7,-9.3,-212.0
Q -9.3,-210.9,-9.3,-209.8
Q -8.9,-209.9,-8.9,-209.7
Q -8.8,-209.4,-8.9,-208.6
Q -8.9,-208.6,-8.9,-208.6
Q -8.9,-207.9,-8.9,-207.1
Q -8.7,-205.6,-8.4,-204.0
Q -8.0,-200.9,-7.1,-193.4
Q -7.0,-193.4,-6.9,-193.5
Q -6.6,-193.5,-6.6,-192.3
Q -6.6,-192.3,-6.6,-192.3
Q -6.6,-191.7,-6.7,-191.1
Q -6.7,-190.7,-6.7,-190.3
Q -6.2,-190.4,-6.2,-189.2
Q -6.2,-189.2,-6.2,-189.2
Q -6.2,-188.6,-6.2,-188.0
Q -6.4,-187.7,-6.7,-187.4
Q -7.5,-186.2,-7.9,-187.9
Q -8.1,-188.5,-8.8,-193.1
Q -9.2,-196.0,-9.8,-200.3
Q -10.0,-201.9,-10.2,-203.6
Q -10.6,-203.5,-10.7,-203.7
Q -10.7,-204.0,-10.7,-205.8
Q -15.0,-202.6,-11.1,-192.0
Q -9.0,-186.3,-10.1,-186.3
Q -10.9,-186.3,-12.8,-191.5
Q -14.8,-196.7,-15.8,-198.9
Q -16.8,-201.2,-17.8,-203.3
Q -19.1,-206.2,-18.9,-204.7
Q -18.6,-202.1,-16.9,-196.0
Q -15.9,-192.4,-14.7,-187.7
Q -14.3,-186.0,-12.9,-181.8
Q -10.4,-174.3,-11.7,-174.3
Q -12.4,-174.3,-16.8,-188.5
Q -18.1,-192.7,-18.9,-192.6
Q -21.4,-192.4,-22.4,-189.7
Q -22.9,-188.3,-14.7,-176.1
Q -11.3,-171.2,-12.5,-170.9
Q -13.1,-170.7,-15.3,-173.9
Q -17.5,-177.1,-20.3,-181.1
Q -23.2,-185.1,-25.9,-189.6
Q -31.9,-199.5,-32.4,-199.8
Q -34.1,-200.7,-31.4,-188.4
Q -27.5,-170.9,-21.2,-168.3
Q -12.2,-164.6,-6.1,-154.9
Q -4.3,-152.1,-0.4,-152.0
 " /> 
<path  
style="fill:rgb(14,103,171)" 
d="M -0.4 -152.0
Q -0.5,-151.9,-0.5,-151.7
Q -0.5,-151.6,-0.1,-151.6
Q 0.3,-151.5,1.5,-151.6
Q 1.8,-151.6,2.2,-151.6
Q 2.9,-151.6,3.6,-151.6
Q 3.6,-151.7,3.6,-151.8
Q 3.7,-152.1,1.6,-152.1
Q 0.6,-152.1,-0.4,-152.0
 " /> 
<path  
style="fill:rgb(4,4,4)" 
d="M 3.6 -151.6
Q 3.5,-150.9,3.4,-150.3
Q 3.8,-150.3,4.2,-150.3
Q 3.6,-150.9,3.6,-151.6
 " /> 
<path  
style="fill:rgb(14,103,171)" 
d="M -10.7 -205.8
Q -10.7,-204.0,-10.7,-203.7
Q -10.6,-203.5,-10.2,-203.6
Q -10.2,-205.5,-10.3,-205.7
Q -10.3,-206.0,-10.7,-205.8
 " /> 
<path  
style="fill:rgb(4,4,4)" 
d="M -6.2 -188.0
Q -6.6,-187.9,-6.6,-188.1
Q -6.7,-188.3,-6.7,-190.3
Q -6.7,-190.7,-6.7,-191.1
Q -7.0,-191.0,-7.1,-191.2
Q -7.1,-191.5,-7.1,-193.4
Q -7.9,-193.3,-8.8,-193.1
Q -8.1,-188.5,-7.9,-187.9
Q -7.5,-186.2,-6.7,-187.4
Q -6.4,-187.7,-6.2,-188.0
 " /> 
<path  
style="fill:rgb(14,103,171)" 
d="M -6.2 -188.0
Q -6.2,-188.6,-6.2,-189.2
Q -6.4,-189.7,-6.7,-190.3
Q -6.7,-188.3,-6.6,-188.1
Q -6.6,-187.9,-6.2,-188.0
 " /> 
<path  
style="fill:rgb(14,103,171)" 
d="M -6.7 -190.3
Q -6.4,-189.7,-6.2,-189.2
Q -6.2,-189.2,-6.2,-189.2
Q -6.2,-190.4,-6.7,-190.3
 " /> 
<path  
style="fill:rgb(14,103,171)" 
d="M -6.7 -191.1
Q -6.6,-191.7,-6.6,-192.3
Q -6.9,-192.9,-7.1,-193.4
Q -7.1,-191.5,-7.1,-191.2
Q -7.0,-191.0,-6.7,-191.1
 " /> 
<path  
style="fill:rgb(14,103,171)" 
d="M -7.1 -193.4
Q -6.9,-192.9,-6.6,-192.3
Q -6.6,-192.3,-6.6,-192.3
Q -6.6,-193.5,-6.9,-193.5
Q -7.0,-193.4,-7.1,-193.4
 " /> 
<path  
style="fill:rgb(14,103,171)" 
d="M -8.9 -207.1
Q -8.9,-207.9,-8.9,-208.6
Q -9.1,-209.2,-9.3,-209.8
Q -9.3,-207.5,-9.3,-207.2
Q -9.2,-207.0,-8.9,-207.1
 " /> 
<path  
style="fill:rgb(14,103,171)" 
d="M -9.3 -209.8
Q -9.1,-209.2,-8.9,-208.6
Q -8.9,-208.6,-8.9,-208.6
Q -8.8,-209.4,-8.9,-209.7
Q -8.9,-209.9,-9.3,-209.8
 " /> 
<path  
style="fill:rgb(14,103,171)" 
d="M -9.3 -212.0
Q -9.3,-212.7,-9.3,-213.5
Q -9.5,-214.1,-9.8,-214.7
Q -9.8,-212.3,-9.7,-212.1
Q -9.7,-211.9,-9.3,-212.0
 " /> 
<path  
style="fill:rgb(4,4,4)" 
d="M -9.8 -214.7
Q -9.4,-222.3,-8.9,-223.7
Q -8.6,-224.4,-8.4,-225.1
Q -6.4,-222.9,-5.7,-220.2
Q -1.5,-204.9,-0.4,-191.8
Q -0.3,-190.1,-0.2,-188.4
Q 0.6,-188.4,1.3,-188.5
Q 1.3,-194.7,0.9,-196.9
Q 0.6,-196.8,0.5,-197.0
Q 0.4,-197.2,0.4,-199.6
Q 0.0,-204.0,-0.2,-205.6
Q -0.2,-205.6,-0.2,-205.6
Q -0.4,-207.1,0.9,-206.7
Q 1.4,-207.3,1.8,-208.0
Q 1.3,-208.4,0.7,-208.7
Q -0.8,-209.5,-2.0,-214.4
Q -4.4,-224.6,-6.3,-225.9
Q -12.1,-230.0,-11.4,-214.6
Q -10.6,-214.7,-9.8,-214.7
 " /> 
<path  
style="fill:rgb(14,103,171)" 
d="M -9.8 -214.7
Q -9.5,-214.1,-9.3,-213.5
Q -9.3,-213.5,-9.3,-213.5
Q -9.3,-214.9,-9.8,-214.7
 " /> 
<path  
style="fill:rgb(14,103,171)" 
d="M 0.0 -186.3
Q 0.6,-185.7,1.0,-185.6
Q 1.3,-186.3,1.3,-188.5
Q 0.6,-188.4,-0.2,-188.4
Q -0.1,-187.3,0.0,-186.3
 " /> 
<path  
style="fill:rgb(4,4,4)" 
d="M 0.0 -186.3
Q 0.0,-185.4,0.7,-185.4
Q 0.9,-185.4,1.0,-185.6
Q 0.6,-185.7,0.0,-186.3
 " /> 
<path  
style="fill:rgb(14,103,171)" 
d="M 1.3 -188.5
Q 1.3,-186.3,1.0,-185.6
Q 1.8,-185.4,1.6,-187.1
Q 1.4,-187.8,1.3,-188.5
 " /> 
<path  
style="fill:rgb(14,103,171)" 
d="M 0.9 -196.9
Q 0.9,-199.2,0.9,-199.5
Q 0.8,-199.7,0.4,-199.6
Q 0.4,-197.2,0.5,-197.0
Q 0.6,-196.8,0.9,-196.9
 " /> 
<path  
style="fill:rgb(4,4,4)" 
d="M 0.9 -206.7
Q 1.2,-206.5,1.5,-206.2
Q 2.2,-205.8,2.6,-205.1
Q 2.9,-204.8,3.1,-204.5
Q 3.7,-204.9,4.4,-205.4
Q 3.1,-207.2,1.5,-208.3
Q 1.4,-207.3,0.9,-206.7
 " /> 
<path  
style="fill:rgb(14,103,171)" 
d="M 0.9 -206.7
Q 1.8,-205.4,2.5,-204.9
Q 2.8,-204.7,3.1,-204.5
Q 2.9,-204.8,2.6,-205.1
Q 2.2,-205.8,1.5,-206.2
Q 1.2,-206.5,0.9,-206.7
 " /> 
<path  
style="fill:rgb(7,193,201)" 
d="M 0.9 -206.7
Q -0.4,-207.1,-0.2,-205.6
Q 0.0,-204.0,0.4,-199.6
Q 0.3,-206.1,0.9,-206.7
 " /> 
<path  
style="fill:rgb(14,103,171)" 
d="M 25.8 -195.1
Q 25.8,-193.4,25.8,-191.6
Q 25.9,-192.0,26.0,-192.5
Q 26.3,-193.4,25.8,-195.1
 " /> 
<path  
style="fill:rgb(4,4,4)" 
d="M -0.2 -151.6
Q -0.5,-151.7,-0.5,-151.8
Q -0.6,-151.2,-0.8,-150.7
Q -0.4,-150.6,-0.4,-150.3
Q -0.3,-151.0,-0.2,-151.6
 " /> 
</g> 
</svg> 
