<?xml version="1.0"?>
<!DOCTYPE svg PUBLIC "-//W3C//DTD SVG 1.1//EN" "http://www.w3.org/Graphics/SVG/1.1/DTD/svg11.dtd">
<svg xmlns="http://www.w3.org/2000/svg" version="1.1">
<g transform="translate(112.6,223.4)" stroke-width="0" fill="none" >
<path  
style="fill:rgb(4,4,4)" 
d="M -15.8 221.0
Q -13.8,222.5,-7.7,219.1
Q -3.8,216.9,2.1,213.9
Q 68.0,180.9,59.1,146.7
Q 56.9,138.3,46.9,122.8
Q 40.7,113.2,38.1,105.1
Q 35.1,96.2,34.1,81.4
Q 38.3,85.8,46.1,86.4
Q 57.6,87.2,59.6,74.5
Q 62.1,58.0,43.0,23.9
Q 36.1,11.6,31.9,-0.1
Q 30.0,-5.5,28.1,-7.8
Q 26.9,-9.2,26.8,-9.5
Q 26.6,-9.9,29.0,-9.9
Q 31.4,-9.9,32.0,-8.5
Q 36.0,2.1,38.6,2.1
Q 42.8,2.1,43.4,-6.8
Q 43.7,-10.7,43.2,-13.0
Q 42.8,-15.2,45.0,-17.6
Q 46.8,-19.5,47.1,-19.5
Q 47.6,-19.6,48.9,-15.4
Q 50.3,-10.5,52.8,-8.8
Q 57.0,-5.7,59.1,-16.4
Q 59.7,-19.1,59.4,-23.8
Q 59.2,-28.5,61.7,-30.9
Q 64.2,-33.4,66.7,-33.9
Q 94.5,-39.9,107.8,-56.0
Q 114.8,-64.6,112.4,-67.5
Q 110.6,-69.6,104.7,-65.2
Q 103.0,-64.0,101.6,-63.1
Q 101.0,-62.7,100.3,-62.3
Q 100.5,-62.7,100.6,-63.1
Q 102.3,-67.3,105.5,-71.9
Q 119.6,-92.0,122.9,-103.6
Q 127.0,-117.5,121.2,-117.5
Q 118.6,-117.5,113.6,-110.6
Q 111.4,-107.7,111.3,-107.8
Q 111.1,-108.0,113.6,-115.3
Q 121.8,-139.5,119.1,-151.5
Q 117.8,-157.5,114.5,-157.5
Q 110.3,-157.5,107.1,-149.2
Q 106.1,-146.6,105.1,-144.3
Q 104.1,-142.1,103.3,-139.7
Q 100.6,-130.8,99.6,-132.5
Q 99.4,-132.8,98.2,-136.7
Q 89.5,-164.8,82.4,-163.4
Q 78.7,-162.8,78.4,-152.0
Q 78.1,-143.8,77.1,-143.1
Q 76.2,-142.4,72.1,-146.4
Q 68.8,-149.7,68.1,-149.7
Q 65.4,-149.6,67.1,-144.8
Q 69.0,-139.2,68.1,-139.2
Q 67.7,-139.2,63.9,-142.3
Q 60.0,-145.5,59.0,-145.5
Q 56.3,-145.5,57.6,-141.7
Q 58.6,-138.7,57.4,-138.1
Q 53.3,-135.9,51.8,-138.7
Q 51.4,-139.5,50.5,-142.4
Q 48.2,-150.2,42.7,-155.7
Q 35.1,-163.4,25.1,-163.4
Q 21.4,-163.4,21.8,-164.1
Q 22.1,-164.8,23.3,-168.1
Q 31.8,-191.8,27.1,-192.8
Q 24.6,-193.3,21.1,-186.0
Q 20.5,-184.6,19.8,-183.3
Q 17.3,-187.4,14.2,-187.9
Q 12.4,-188.2,12.7,-189.2
Q 13.1,-191.2,14.0,-196.6
Q 14.9,-202.0,13.8,-204.9
Q 13.0,-206.8,11.0,-204.7
Q 8.4,-201.9,8.4,-198.2
Q 8.4,-197.4,8.0,-197.5
Q 7.5,-197.7,6.7,-199.5
Q 5.9,-201.4,4.0,-203.2
Q 2.1,-205.0,1.3,-205.0
Q 0.6,-205.0,0.3,-207.3
Q -1.1,-217.2,-3.5,-221.0
Q -4.2,-220.6,-4.9,-220.1
Q -3.2,-214.1,-2.2,-209.6
Q -1.8,-207.2,-0.9,-201.0
Q -0.6,-201.2,-0.5,-201.0
Q -0.4,-200.7,-0.4,-198.8
Q -0.4,-197.9,-0.4,-197.0
Q -0.4,-195.2,0.0,-192.8
Q 0.2,-191.6,0.4,-190.3
Q 1.1,-190.3,1.8,-190.3
Q 1.8,-191.9,1.8,-193.5
Q 1.4,-193.3,1.4,-193.5
Q 1.3,-193.8,1.3,-195.1
Q 1.3,-196.1,1.3,-197.0
Q 1.3,-198.5,1.2,-200.0
Q 1.2,-201.4,1.2,-202.9
Q 1.8,-202.5,2.4,-202.0
Q 3.7,-201.2,5.0,-198.8
Q 7.4,-194.0,6.4,-189.0
Q 5.2,-183.2,6.3,-182.9
Q 7.1,-182.7,8.4,-189.9
Q 10.4,-200.8,11.8,-202.3
Q 12.1,-202.7,12.4,-203.0
Q 12.4,-198.6,12.0,-196.6
Q 11.6,-194.6,11.1,-191.3
Q 10.6,-187.9,9.4,-186.9
Q 8.2,-185.9,9.0,-185.3
Q 9.8,-184.7,8.7,-180.5
Q 6.9,-174.3,7.3,-173.7
Q 8.3,-171.9,10.1,-178.9
Q 11.6,-184.3,11.9,-185.2
Q 12.1,-186.0,14.1,-185.8
Q 20.2,-185.1,16.9,-175.7
Q 14.7,-169.5,16.0,-169.5
Q 16.6,-169.5,19.0,-176.2
Q 22.4,-185.8,25.5,-189.2
Q 26.1,-189.9,26.7,-190.6
Q 26.1,-183.6,24.7,-179.0
Q 20.1,-163.1,15.6,-159.9
Q 14.4,-159.1,13.3,-158.3
Q 12.4,-157.0,10.7,-155.7
Q 9.9,-154.8,9.1,-154.0
Q 7.5,-152.3,5.9,-150.0
Q 4.4,-147.6,2.3,-147.9
Q 0.2,-148.1,-2.1,-148.1
Q -4.4,-148.1,-5.7,-150.3
Q -7.1,-152.6,-8.7,-154.6
Q -9.4,-155.6,-10.2,-156.6
Q -12.0,-157.9,-13.8,-160.1
Q -17.6,-163.4,-20.5,-164.5
Q -24.5,-166.1,-26.1,-169.7
Q -29.2,-177.1,-31.3,-187.9
Q -32.7,-195.6,-32.4,-196.4
Q -31.6,-197.7,-25.8,-187.0
Q -23.9,-183.7,-21.7,-180.2
Q -20.6,-178.5,-18.6,-175.4
Q -16.6,-172.3,-15.1,-170.3
Q -13.7,-168.4,-13.4,-167.8
Q -13.1,-167.3,-12.3,-167.0
Q -10.1,-166.1,-13.8,-171.6
Q -15.6,-174.4,-17.4,-177.4
Q -19.2,-180.3,-20.5,-182.3
Q -22.7,-185.8,-20.8,-187.6
Q -18.1,-190.0,-17.6,-189.4
Q -17.3,-189.0,-15.6,-182.8
Q -12.2,-170.2,-11.4,-170.5
Q -10.4,-171.0,-12.4,-177.9
Q -13.7,-182.6,-14.9,-187.7
Q -16.0,-192.8,-16.7,-195.2
Q -17.3,-197.7,-17.6,-199.9
Q -17.7,-201.0,-17.8,-202.1
Q -17.0,-201.2,-16.2,-199.0
Q -15.5,-196.8,-14.8,-195.5
Q -14.2,-194.1,-13.9,-193.1
Q -13.6,-192.0,-13.1,-190.8
Q -12.5,-189.7,-11.8,-187.2
Q -10.3,-182.3,-9.4,-182.3
Q -8.3,-182.3,-10.4,-188.8
Q -13.5,-198.3,-10.6,-201.8
Q -9.8,-202.8,-9.3,-201.9
Q -9.0,-202.1,-8.9,-201.8
Q -8.9,-201.7,-8.9,-200.6
Q -8.2,-200.6,-7.6,-200.6
Q -7.6,-201.9,-7.6,-203.2
Q -7.9,-203.1,-7.9,-203.3
Q -8.0,-203.5,-8.0,-207.2
Q -8.0,-209.8,-8.0,-212.4
Q -8.0,-217.5,-7.6,-219.0
Q -7.3,-219.8,-7.1,-220.6
Q -6.8,-220.9,-6.6,-221.2
Q -6.0,-221.8,-5.5,-221.0
Q -5.2,-220.5,-4.9,-220.1
Q -4.2,-220.6,-3.5,-221.0
Q -4.3,-222.4,-5.3,-223.0
Q -9.8,-225.6,-9.8,-211.9
Q -9.8,-204.7,-11.1,-203.7
Q -12.5,-202.7,-13.3,-201.0
Q -14.0,-199.3,-14.6,-200.1
Q -15.1,-200.8,-15.1,-201.5
Q -15.1,-204.6,-18.2,-204.6
Q -20.2,-204.6,-19.5,-199.3
Q -19.1,-196.4,-18.6,-195.2
Q -17.3,-191.7,-20.1,-190.3
Q -22.0,-189.4,-22.8,-188.4
Q -23.6,-187.5,-24.0,-188.0
Q -24.3,-188.4,-25.8,-191.2
Q -31.2,-201.7,-33.5,-199.2
Q -35.8,-196.8,-31.9,-180.6
Q -30.3,-173.5,-26.7,-166.4
Q -28.3,-166.5,-29.9,-166.6
Q -43.9,-167.6,-48.0,-148.1
Q -48.7,-144.8,-53.6,-139.8
Q -57.1,-136.2,-57.5,-136.0
Q -60.3,-134.7,-59.8,-145.8
Q -59.5,-152.8,-59.5,-159.7
Q -60.2,-159.7,-60.9,-159.7
Q -60.9,-159.0,-60.9,-158.2
Q -61.0,-156.7,-61.1,-156.7
Q -61.2,-156.6,-61.3,-156.6
Q -61.3,-154.3,-61.3,-152.1
Q -61.4,-149.2,-61.6,-149.1
Q -61.7,-149.1,-61.8,-149.0
Q -61.8,-147.2,-61.8,-145.5
Q -61.8,-143.0,-62.0,-142.9
Q -62.1,-142.8,-62.2,-142.8
Q -62.2,-142.1,-62.2,-141.5
Q -61.9,-141.6,-61.8,-141.4
Q -61.8,-141.2,-61.8,-138.3
Q -61.5,-136.1,-60.9,-135.2
Q -60.2,-134.3,-59.2,-134.1
Q -58.2,-133.8,-60.0,-131.2
Q -61.8,-128.6,-64.9,-121.9
Q -64.9,-121.7,-64.9,-121.5
Q -64.9,-121.7,-64.9,-121.9
Q -68.0,-127.1,-68.0,-132.9
Q -68.0,-134.8,-68.4,-134.8
Q -68.9,-134.8,-68.9,-132.0
Q -68.9,-129.2,-68.2,-126.6
Q -67.1,-122.4,-65.8,-121.4
Q -65.6,-121.1,-64.9,-121.5
Q -64.9,-121.7,-64.9,-121.9
Q -64.9,-121.7,-64.9,-121.5
Q -64.9,-121.2,-64.9,-121.0
Q -64.9,-121.2,-64.9,-121.5
Q -65.6,-121.1,-65.8,-121.4
Q -67.1,-122.4,-68.2,-126.6
Q -68.9,-129.2,-68.9,-132.0
Q -68.9,-134.8,-68.4,-134.8
Q -68.0,-134.8,-68.0,-132.9
Q -68.0,-127.1,-64.9,-121.9
Q -61.8,-128.6,-60.0,-131.2
Q -58.2,-133.8,-59.2,-134.1
Q -60.2,-134.3,-60.9,-135.2
Q -61.5,-136.1,-61.8,-138.3
Q -61.9,-138.3,-62.0,-138.3
Q -62.3,-138.2,-62.3,-139.8
Q -62.3,-139.8,-62.3,-139.8
Q -62.2,-140.6,-62.2,-141.5
Q -62.2,-142.1,-62.2,-142.8
Q -62.2,-143.4,-62.2,-144.0
Q -62.2,-145.2,-61.8,-145.5
Q -61.8,-147.2,-61.8,-149.0
Q -61.8,-151.9,-61.3,-152.1
Q -61.3,-154.3,-61.3,-156.6
Q -61.3,-159.5,-60.9,-159.7
Q -61.0,-160.8,-61.1,-161.9
Q -61.7,-167.5,-62.8,-167.1
Q -67.5,-165.2,-71.1,-145.5
Q -73.8,-131.0,-74.9,-131.2
Q -75.7,-131.4,-75.8,-132.2
Q -75.9,-132.6,-76.0,-133.0
Q -76.1,-133.3,-76.3,-133.7
Q -76.5,-134.3,-76.3,-134.8
Q -76.1,-135.0,-76.0,-135.2
Q -76.0,-135.5,-76.0,-135.7
Q -76.1,-135.6,-76.3,-135.6
Q -76.5,-135.5,-76.4,-143.2
Q -77.0,-149.7,-77.7,-149.2
Q -79.1,-148.6,-80.5,-137.9
Q -81.3,-131.9,-81.9,-131.1
Q -84.4,-127.7,-86.7,-144.6
Q -89.0,-162.1,-92.2,-165.7
Q -95.2,-169.3,-96.9,-161.5
Q -97.1,-160.4,-97.3,-159.2
Q -97.3,-155.9,-97.4,-155.4
Q -97.4,-155.0,-97.8,-154.8
Q -97.8,-154.6,-97.8,-154.3
Q -97.4,-154.5,-97.3,-154.2
Q -97.3,-154.0,-97.3,-151.7
Q -97.3,-150.8,-97.3,-149.9
Q -97.2,-150.0,-97.1,-150.0
Q -96.8,-150.1,-96.9,-147.2
Q -96.6,-145.1,-96.2,-143.0
Q -95.1,-135.7,-92.8,-128.6
Q -89.2,-117.5,-91.4,-116.0
Q -94.7,-113.7,-99.1,-127.5
Q -103.3,-140.8,-104.7,-139.9
Q -106.7,-138.6,-107.5,-133.6
Q -107.8,-132.2,-108.0,-130.8
Q -108.0,-128.8,-108.4,-128.6
Q -108.4,-128.1,-108.4,-127.7
Q -108.4,-126.8,-108.4,-122.8
Q -108.4,-120.8,-108.4,-118.8
Q -108.1,-118.9,-108.0,-118.7
Q -107.9,-118.4,-108.0,-116.6
Q -107.6,-114.3,-107.1,-112.1
Q -104.3,-98.0,-93.3,-79.7
Q -88.4,-71.4,-91.7,-71.4
Q -92.7,-71.4,-103.0,-77.4
Q -109.5,-81.2,-110.1,-80.4
Q -112.3,-77.8,-100.8,-59.9
Q -100.2,-58.9,-99.6,-57.9
Q -97.8,-56.6,-96.4,-54.8
Q -95.1,-53.6,-93.8,-52.3
Q -88.6,-47.6,-81.8,-43.7
Q -80.2,-42.8,-78.7,-41.9
Q -78.0,-41.6,-77.3,-41.2
Q -76.0,-40.6,-75.1,-39.9
Q -74.7,-39.6,-74.2,-39.2
Q -72.0,-38.3,-69.8,-37.5
Q -59.1,-33.2,-53.1,-32.8
Q -52.1,-32.7,-53.7,-34.7
Q -57.5,-39.7,-59.6,-45.0
Q -60.7,-45.1,-61.8,-45.2
Q -69.8,-46.0,-82.4,-55.1
Q -93.5,-63.1,-92.7,-64.6
Q -92.3,-65.1,-90.0,-62.9
Q -75.7,-49.3,-63.4,-46.9
Q -61.9,-46.6,-60.4,-46.3
Q -61.3,-48.8,-62.2,-51.2
Q -66.0,-61.7,-68.4,-72.6
Q -68.9,-72.4,-68.9,-73.9
Q -81.6,-80.3,-88.2,-92.3
Q -89.8,-95.3,-89.6,-96.0
Q -89.5,-96.8,-88.8,-95.6
Q -79.8,-80.9,-71.6,-76.6
Q -70.3,-75.9,-68.9,-75.2
Q -69.1,-76.1,-69.3,-77.0
Q -69.8,-78.8,-69.8,-80.1
Q -69.8,-80.8,-69.8,-81.5
Q -70.3,-81.3,-70.3,-82.7
Q -70.3,-82.7,-70.3,-82.7
Q -70.2,-83.4,-70.2,-84.1
Q -70.3,-87.2,-70.3,-88.8
Q -70.2,-89.6,-70.2,-90.3
Q -71.2,-91.1,-72.2,-91.9
Q -78.1,-96.5,-82.1,-106.2
Q -85.2,-113.9,-83.6,-113.9
Q -83.2,-113.9,-82.9,-112.1
Q -81.2,-102.1,-72.1,-93.5
Q -71.2,-92.6,-70.2,-91.7
Q -70.2,-94.8,-69.3,-106.3
Q -70.0,-107.0,-70.7,-107.7
Q -75.3,-112.4,-77.7,-119.7
Q -78.7,-122.6,-78.3,-123.9
Q -78.0,-123.1,-77.6,-122.3
Q -77.0,-120.8,-76.0,-118.1
Q -73.9,-112.4,-70.6,-109.3
Q -69.7,-108.5,-68.9,-107.7
Q -68.8,-108.6,-68.7,-109.5
Q -68.4,-111.2,-68.0,-113.2
Q -67.5,-115.2,-66.2,-118.8
Q -66.1,-119.1,-66.1,-119.5
Q -65.9,-120.2,-64.9,-121.0
Q -64.9,-121.2,-64.9,-121.5
Q -64.9,-121.2,-64.9,-121.0
Q -65.4,-119.7,-65.8,-119.2
Q -66.0,-119.0,-66.2,-118.8
Q -67.5,-115.2,-68.0,-113.2
Q -68.4,-111.2,-68.7,-109.5
Q -68.8,-108.6,-68.9,-107.7
Q -68.9,-106.5,-69.1,-106.4
Q -69.2,-106.4,-69.3,-106.3
Q -70.2,-94.8,-70.2,-91.7
Q -70.2,-91.0,-70.2,-90.3
Q -70.2,-89.6,-70.3,-88.8
Q -70.3,-87.2,-70.2,-84.1
Q -69.9,-84.3,-69.8,-84.0
Q -69.8,-83.8,-69.8,-81.5
Q -69.8,-80.8,-69.8,-80.1
Q -69.8,-78.8,-69.3,-77.0
Q -69.1,-76.1,-68.9,-75.2
Q -68.9,-75.0,-68.9,-74.8
Q -68.9,-75.0,-68.9,-75.2
Q -70.3,-75.9,-71.6,-76.6
Q -79.8,-80.9,-88.8,-95.6
Q -89.5,-96.8,-89.6,-96.0
Q -89.8,-95.3,-88.2,-92.3
Q -81.6,-80.3,-68.9,-73.9
Q -68.9,-74.3,-68.9,-74.8
Q -68.9,-74.3,-68.9,-73.9
Q -68.7,-73.9,-68.4,-73.9
Q -68.5,-74.6,-68.5,-74.7
Q -68.6,-74.9,-68.9,-74.8
Q -68.9,-74.3,-68.9,-73.9
Q -68.9,-74.3,-68.9,-74.8
Q -68.9,-75.0,-68.9,-75.2
Q -68.9,-75.0,-68.9,-74.8
Q -68.6,-74.9,-68.5,-74.7
Q -68.5,-74.6,-68.4,-73.9
Q -68.4,-73.4,-68.4,-72.6
Q -66.0,-61.7,-62.2,-51.2
Q -61.3,-48.8,-60.4,-46.3
Q -59.7,-45.2,-59.8,-45.4
Q -60.1,-45.9,-60.4,-46.3
Q -57.5,-39.7,-53.7,-34.7
Q -52.1,-32.7,-53.1,-32.8
Q -59.1,-33.2,-69.8,-37.5
Q -72.0,-38.3,-74.2,-39.2
Q -74.9,-39.6,-75.6,-39.9
Q -76.9,-40.6,-77.8,-41.2
Q -78.2,-41.6,-78.7,-41.9
Q -80.2,-42.8,-81.8,-43.7
Q -88.6,-47.6,-93.8,-52.3
Q -95.1,-53.6,-96.4,-54.8
Q -96.9,-55.1,-97.3,-55.5
Q -98.2,-56.2,-98.9,-57.0
Q -99.2,-57.5,-99.6,-57.9
Q -100.2,-58.9,-100.8,-59.9
Q -112.3,-77.8,-110.1,-80.4
Q -109.5,-81.2,-103.0,-77.4
Q -92.7,-71.4,-91.7,-71.4
Q -88.4,-71.4,-93.3,-79.7
Q -104.3,-98.0,-107.1,-112.1
Q -107.6,-114.3,-108.0,-116.6
Q -108.3,-116.4,-108.4,-116.6
Q -108.4,-116.9,-108.4,-118.8
Q -108.4,-120.8,-108.4,-122.8
Q -108.4,-126.8,-108.4,-127.7
Q -108.4,-128.1,-108.4,-128.6
Q -108.4,-129.1,-108.4,-129.6
Q -108.4,-130.6,-108.0,-130.8
Q -107.8,-132.2,-107.5,-133.6
Q -106.7,-138.6,-104.7,-139.9
Q -103.3,-140.8,-99.1,-127.5
Q -94.7,-113.7,-91.4,-116.0
Q -89.2,-117.5,-92.8,-128.6
Q -95.1,-135.7,-96.2,-143.0
Q -96.6,-145.1,-96.9,-147.2
Q -97.2,-147.1,-97.3,-147.3
Q -97.3,-147.5,-97.3,-149.9
Q -97.3,-150.8,-97.3,-151.7
Q -97.7,-151.5,-97.7,-151.8
Q -97.8,-152.0,-97.8,-154.3
Q -97.8,-154.6,-97.8,-154.8
Q -97.8,-155.9,-97.7,-156.9
Q -97.7,-159.1,-97.3,-159.2
Q -97.1,-160.4,-96.9,-161.5
Q -95.2,-169.3,-92.2,-165.7
Q -89.0,-162.1,-86.7,-144.6
Q -84.4,-127.7,-81.9,-131.1
Q -81.3,-131.9,-80.5,-137.9
Q -79.1,-148.6,-77.7,-149.2
Q -77.0,-149.7,-76.4,-143.2
Q -76.1,-143.4,-76.1,-143.2
Q -76.0,-142.9,-76.0,-135.7
Q -76.0,-135.5,-76.0,-135.2
Q -76.0,-134.1,-76.0,-133.0
Q -75.9,-132.6,-75.8,-132.2
Q -75.7,-131.4,-74.9,-131.2
Q -73.8,-131.0,-71.1,-145.5
Q -67.5,-165.2,-62.8,-167.1
Q -61.7,-167.5,-61.1,-161.9
Q -61.0,-160.8,-60.9,-159.7
Q -60.2,-159.7,-59.5,-159.7
Q -59.5,-159.7,-59.5,-159.7
Q -59.3,-173.7,-65.3,-167.8
Q -70.0,-163.0,-73.9,-141.7
Q -74.6,-144.8,-74.4,-145.7
Q -74.2,-146.6,-74.9,-148.8
Q -76.2,-153.4,-78.4,-152.0
Q -81.6,-149.9,-82.8,-135.1
Q -83.0,-135.5,-83.1,-135.9
Q -83.5,-136.8,-84.2,-142.1
Q -88.3,-173.1,-95.3,-168.7
Q -101.1,-165.1,-99.1,-147.3
Q -98.3,-139.8,-93.8,-124.2
Q -92.8,-120.9,-93.0,-119.8
Q -93.1,-119.2,-93.3,-118.6
Q -93.9,-120.0,-94.6,-121.5
Q -95.9,-124.4,-98.0,-130.8
Q -102.3,-144.3,-105.5,-142.2
Q -110.0,-139.3,-110.5,-125.0
Q -111.0,-112.1,-104.9,-97.2
Q -99.5,-84.3,-94.9,-77.3
Q -93.4,-75.0,-93.5,-74.9
Q -93.6,-74.8,-96.7,-76.5
Q -109.3,-83.6,-111.3,-82.6
Q -114.7,-80.9,-109.3,-70.0
Q -102.4,-56.1,-93.8,-49.4
Q -71.9,-32.2,-53.1,-30.5
Q -50.4,-30.3,-48.5,-28.0
Q -46.5,-25.8,-46.5,-25.4
Q -46.5,-25.1,-48.6,-22.8
Q -55.7,-14.8,-57.6,-6.3
Q -59.0,0.0,-56.1,1.9
Q -53.6,3.5,-50.0,-0.1
Q -48.3,-1.8,-47.8,-2.6
Q -47.4,-3.4,-47.1,-3.7
Q -45.4,-5.3,-39.3,-16.2
Q -37.1,-20.1,-36.0,-19.2
Q -34.9,-18.4,-33.2,-17.7
Q -31.4,-17.0,-31.7,-16.2
Q -31.9,-15.5,-33.0,-13.0
Q -38.8,-0.6,-37.2,5.1
Q -36.5,7.8,-34.9,8.2
Q -30.3,9.2,-24.0,0.7
Q -20.3,-4.2,-18.0,-7.8
Q -17.2,-9.1,-12.5,-7.5
Q -12.0,-7.3,-13.1,-4.9
Q -16.5,2.7,-18.0,13.0
Q -20.2,28.5,-27.3,37.4
Q -29.5,40.0,-31.5,43.2
Q -33.5,46.3,-34.5,47.8
Q -35.6,49.4,-36.1,50.5
Q -36.5,51.6,-37.0,52.5
Q -39.1,57.2,-39.1,64.5
Q -39.1,77.2,-33.9,83.6
Q -25.5,93.8,-15.7,84.6
Q -13.3,82.4,-13.5,83.6
Q -14.4,88.5,-17.2,92.9
Q -18.3,94.7,-19.0,96.0
Q -19.7,97.4,-20.6,98.4
Q -24.0,102.3,-28.2,112.3
Q -34.3,126.6,-31.3,147.0
Q -29.5,159.8,-22.2,178.4
Q -15.4,195.4,-14.8,199.4
Q -14.6,201.0,-14.2,203.6
Q -13.3,209.6,-15.9,218.0
Q -16.6,220.4,-15.8,221.0
 " /> 
<path  
style="fill:rgb(7,193,201)" 
d="M -24.4 165.2
Q -24.3,165.3,-24.2,165.4
Q -23.9,165.6,-24.0,166.3
Q -24.0,166.6,-24.0,167.0
Q -23.1,167.4,-22.9,166.0
Q -22.8,165.7,-22.8,165.5
Q -23.6,165.3,-24.4,165.2
 " /> 
<path  
style="fill:rgb(14,103,171)" 
d="M -24.4 165.2
Q -22.7,157.6,-21.7,153.5
Q -19.5,143.4,-14.6,132.9
Q -13.7,131.0,-13.0,131.0
Q -12.0,131.0,-13.7,134.3
Q -19.4,145.9,-22.8,165.5
Q -22.8,165.7,-22.9,166.0
Q -23.1,167.4,-24.0,167.0
Q -21.3,174.5,-19.4,179.1
Q -17.4,183.7,-15.7,188.4
Q -13.8,193.7,-13.1,192.5
Q -10.3,187.3,-8.9,172.3
Q -7.0,152.1,-0.7,136.2
Q 0.5,133.2,1.2,133.2
Q 2.2,133.2,0.5,137.4
Q -4.8,150.7,-6.7,169.9
Q -7.9,182.3,-9.4,187.4
Q -10.2,190.4,-11.6,193.2
Q -13.0,195.9,-12.3,199.7
Q -10.5,209.0,-13.1,217.1
Q -13.6,218.5,-13.5,218.7
Q -13.2,219.2,-9.3,217.1
Q -6.4,215.5,0.2,212.1
Q 13.3,205.3,16.9,202.7
Q 30.4,192.7,30.3,169.0
Q 30.2,157.6,29.1,147.9
Q 28.0,138.5,28.8,138.7
Q 29.5,138.8,30.8,148.1
Q 33.2,166.2,32.0,177.6
Q 30.8,189.6,23.8,198.7
Q 52.1,179.1,56.8,161.5
Q 60.1,148.9,48.6,130.8
Q 38.7,115.0,35.5,106.2
Q 34.0,102.0,32.4,89.6
Q 31.1,89.6,30.9,90.0
Q 30.6,90.3,30.2,95.1
Q 29.3,105.5,27.3,106.5
Q 26.2,107.1,25.8,106.7
Q 25.4,106.3,25.2,103.5
Q 24.3,95.0,23.6,95.0
Q 23.3,95.0,22.2,97.0
Q 18.8,103.6,13.7,95.0
Q 13.3,94.3,12.3,95.6
Q 11.2,96.9,10.2,100.3
Q 10.2,100.5,10.2,100.8
Q 10.2,106.5,7.4,109.8
Q 5.3,112.2,4.5,111.3
Q 3.4,110.0,3.1,100.3
Q 3.1,100.1,3.1,99.9
Q 3.0,99.9,2.9,99.9
Q 2.6,99.9,2.7,97.9
Q 2.7,96.9,2.7,95.9
Q 2.7,95.4,2.7,95.0
Q 2.6,94.1,2.2,92.8
Q 2.0,92.1,1.8,91.4
Q 1.5,91.1,1.1,90.9
Q 0.9,90.6,0.7,90.5
Q 0.1,90.5,-1.4,93.1
Q -4.0,97.7,-6.0,97.6
Q -7.1,97.5,-8.4,95.9
Q -8.4,95.6,-8.4,95.4
Q -8.8,94.8,-9.1,94.1
Q -9.8,92.7,-10.4,90.7
Q -10.8,89.8,-11.1,88.8
Q -11.1,88.5,-11.1,88.3
Q -11.3,88.0,-11.6,87.6
Q -12.0,87.0,-12.0,86.1
Q -12.0,85.6,-12.0,85.2
Q -15.3,92.9,-20.0,100.8
Q -25.1,109.3,-26.7,113.4
Q -34.8,134.8,-25.5,162.1
Q -25.0,163.6,-24.4,165.2
 " /> 
<path  
style="fill:rgb(7,193,201)" 
d="M -9.7 215.0
Q -10.4,218.6,-1.0,206.9
Q 6.9,197.1,10.3,188.5
Q 11.2,186.3,11.8,185.0
Q 13.8,180.7,15.7,170.3
Q 17.3,161.7,16.7,160.0
Q 15.9,157.8,15.1,164.3
Q 12.0,191.4,-7.0,211.6
Q -9.5,214.2,-9.7,215.0
 " /> 
<path  
style="fill:rgb(7,193,201)" 
d="M 39.5 182.8
Q 40.3,183.5,41.9,179.2
Q 47.1,164.9,43.3,147.2
Q 42.0,141.7,41.1,142.7
Q 40.7,143.0,41.4,146.0
Q 45.6,163.4,40.7,178.1
Q 39.2,182.5,39.5,182.8
 " /> 
<path  
style="fill:rgb(7,193,201)" 
d="M -24.4 165.2
Q -23.6,165.3,-22.8,165.5
Q -19.4,145.9,-13.7,134.3
Q -12.0,131.0,-13.0,131.0
Q -13.7,131.0,-14.6,132.9
Q -19.5,143.4,-21.7,153.5
Q -22.7,157.6,-24.4,165.2
 " /> 
<path  
style="fill:rgb(7,193,201)" 
d="M -12.0 85.2
Q -11.8,85.2,-11.6,85.2
Q -11.6,84.8,-11.6,84.3
Q -12.0,84.4,-12.0,85.2
 " /> 
<path  
style="fill:rgb(7,193,201)" 
d="M -12.0 85.2
Q -12.0,85.6,-12.0,86.1
Q -12.0,87.0,-11.6,87.6
Q -11.3,88.0,-11.1,88.3
Q -11.6,87.0,-11.6,85.6
Q -11.6,85.4,-11.6,85.2
Q -11.8,85.2,-12.0,85.2
 " /> 
<path  
style="fill:rgb(97,247,248)" 
d="M -11.1 88.3
Q -11.1,88.5,-11.1,88.8
Q -10.8,89.3,-10.4,89.9
Q -9.8,91.0,-8.4,95.4
Q -8.4,95.6,-8.4,95.9
Q -8.1,96.2,-7.8,96.5
Q -5.3,99.0,-1.8,93.0
Q -0.3,90.5,0.1,90.4
Q 0.3,90.3,0.7,90.5
Q 0.7,90.5,0.7,90.5
Q 1.3,90.5,1.8,91.4
Q 2.0,92.1,2.2,92.8
Q 2.6,94.1,2.7,95.0
Q 2.7,95.4,2.7,95.9
Q 2.8,95.8,2.9,95.8
Q 3.1,95.8,3.1,97.8
Q 3.1,98.8,3.1,99.9
Q 3.1,100.1,3.1,100.3
Q 3.3,101.0,3.4,101.7
Q 3.7,103.2,3.9,105.6
Q 4.2,111.6,4.9,111.3
Q 8.1,110.1,9.8,102.8
Q 10.0,101.8,10.2,100.8
Q 10.2,100.5,10.2,100.3
Q 10.3,99.4,10.4,98.5
Q 11.0,94.3,13.3,94.3
Q 14.0,94.3,16.0,97.1
Q 19.3,102.0,22.2,96.1
Q 22.9,94.6,23.2,94.4
Q 24.7,93.0,25.6,103.0
Q 25.9,106.7,26.7,106.4
Q 29.0,105.4,29.6,94.1
Q 29.8,89.4,31.1,89.3
Q 31.8,89.3,32.4,89.2
Q 32.3,88.9,32.2,88.5
Q 32.0,87.9,32.0,86.1
Q 32.0,84.8,32.0,83.4
Q 32.0,81.0,32.0,78.5
Q 27.5,70.2,25.8,62.8
Q 21.8,45.8,24.5,40.2
Q 25.9,37.2,26.5,33.4
Q 26.8,31.5,27.1,29.6
Q 27.1,28.1,27.1,26.5
Q 27.1,26.3,27.1,26.1
Q 27.1,24.1,27.1,22.1
Q 26.9,20.6,26.7,19.2
Q 26.2,16.3,25.9,14.2
Q 25.8,13.2,25.7,12.1
Q 25.5,12.6,25.3,13.0
Q 24.9,13.9,24.4,16.9
Q 23.9,19.9,23.0,19.9
Q 22.1,19.9,23.3,12.3
Q 24.0,8.5,24.4,5.0
Q 24.7,1.5,25.3,1.5
Q 25.9,1.5,25.8,4.0
Q 25.7,6.5,26.6,9.3
Q 28.5,15.2,28.8,21.9
Q 28.8,22.0,28.8,22.0
Q 28.8,22.9,28.9,23.9
Q 29.0,24.4,29.1,25.0
Q 29.4,26.1,29.1,27.2
Q 29.0,27.8,28.9,28.3
Q 28.9,34.3,26.2,40.1
Q 24.5,44.0,25.6,51.2
Q 25.9,53.3,26.2,55.4
Q 30.2,51.9,32.6,49.7
Q 39.1,43.7,44.6,42.1
Q 45.8,41.7,47.1,42.5
Q 47.3,42.5,47.6,42.5
Q 49.8,43.8,51.6,45.6
Q 45.8,33.6,42.7,28.1
Q 34.9,14.4,31.5,4.7
Q 27.0,-7.9,24.4,-8.8
Q 23.7,-9.0,20.0,-8.1
Q 15.5,-7.0,11.7,-6.7
Q 9.9,-6.5,8.0,-6.3
Q 6.9,-6.3,5.8,-6.3
Q -4.9,-6.8,-7.5,-7.1
Q -10.1,-7.3,-11.4,-4.3
Q -14.9,3.4,-15.6,9.9
Q -17.4,26.8,-25.2,38.0
Q -27.2,40.9,-27.4,41.5
Q -27.6,42.1,-26.2,42.1
Q -26.0,42.1,-25.8,42.1
Q -23.6,42.1,-22.3,42.8
Q -20.1,44.0,-15.6,42.5
Q -15.3,42.5,-15.1,42.5
Q -14.6,42.4,-14.0,42.3
Q -12.9,42.1,-11.4,43.7
Q -9.9,45.3,-8.0,45.5
Q -3.5,46.0,-2.1,48.4
Q -1.8,49.0,-1.4,48.8
Q -1.2,48.6,-1.0,48.4
Q -0.7,47.9,-0.4,47.4
Q -0.2,45.8,0.0,44.1
Q 0.4,40.8,-0.9,38.0
Q -3.0,34.0,-3.8,25.8
Q -4.2,22.8,-4.3,19.3
Q -4.3,21.3,-4.4,18.7
Q -4.3,20.6,-4.4,17.2
Q -4.4,15.6,-4.4,14.1
Q -5.3,7.4,-5.4,6.7
Q -5.5,6.0,-4.9,5.8
Q -4.2,5.6,-3.4,9.5
Q -2.6,13.4,-1.5,17.2
Q -0.1,22.2,-1.1,22.3
Q -1.4,22.3,-1.6,22.1
Q -2.1,22.8,-2.7,23.4
Q -2.7,24.5,-2.7,25.6
Q -2.4,27.0,-2.2,28.3
Q -1.2,34.4,1.4,38.7
Q 3.7,42.5,2.5,42.5
Q 1.8,42.5,1.5,45.0
Q 1.4,46.3,1.1,47.7
Q 0.8,49.0,0.4,50.5
Q 0.4,51.0,0.4,51.4
Q -1.3,58.5,-2.6,62.2
Q -5.9,71.4,-8.7,76.6
Q -10.2,79.4,-10.9,81.9
Q -11.2,83.1,-11.6,84.3
Q -11.6,84.8,-11.6,85.2
Q -11.6,85.4,-11.6,85.6
Q -11.6,87.0,-11.1,88.3
 " /> 
<path  
style="fill:rgb(7,193,201)" 
d="M -11.1 88.8
Q -10.8,89.8,-10.4,90.7
Q -9.8,92.7,-9.1,94.1
Q -8.8,94.8,-8.4,95.4
Q -9.8,91.0,-10.4,89.9
Q -10.8,89.3,-11.1,88.8
 " /> 
<path  
style="fill:rgb(7,193,201)" 
d="M -8.4 95.9
Q -7.1,97.5,-6.0,97.6
Q -4.0,97.7,-1.4,93.1
Q 0.1,90.5,0.7,90.5
Q 0.3,90.3,0.1,90.4
Q -0.3,90.5,-1.8,93.0
Q -5.3,99.0,-7.8,96.5
Q -8.1,96.2,-8.4,95.9
 " /> 
<path  
style="fill:rgb(7,193,201)" 
d="M 2.7 95.9
Q 2.7,96.9,2.7,97.9
Q 2.6,99.9,2.9,99.9
Q 3.0,99.9,3.1,99.9
Q 3.1,98.8,3.1,97.8
Q 3.1,95.8,2.9,95.8
Q 2.8,95.8,2.7,95.9
 " /> 
<path  
style="fill:rgb(7,193,201)" 
d="M 3.1 100.3
Q 3.4,110.0,4.5,111.3
Q 5.3,112.2,7.4,109.8
Q 10.2,106.5,10.2,100.8
Q 10.0,101.8,9.8,102.8
Q 8.1,110.1,4.9,111.3
Q 4.2,111.6,3.9,105.6
Q 3.7,103.2,3.4,101.7
Q 3.3,101.0,3.1,100.3
 " /> 
<path  
style="fill:rgb(7,193,201)" 
d="M 10.2 100.3
Q 11.2,96.9,12.3,95.6
Q 13.3,94.3,13.7,95.0
Q 18.8,103.6,22.2,97.0
Q 23.3,95.0,23.6,95.0
Q 24.3,95.0,25.2,103.5
Q 25.4,106.3,25.8,106.7
Q 26.2,107.1,27.3,106.5
Q 29.3,105.5,30.2,95.1
Q 30.6,90.3,30.9,90.0
Q 31.1,89.6,32.4,89.6
Q 32.4,89.4,32.4,89.2
Q 31.8,89.3,31.1,89.3
Q 29.8,89.4,29.6,94.1
Q 29.0,105.4,26.7,106.4
Q 25.9,106.7,25.6,103.0
Q 24.7,93.0,23.2,94.4
Q 22.9,94.6,22.2,96.1
Q 19.3,102.0,16.0,97.1
Q 14.0,94.3,13.3,94.3
Q 11.0,94.3,10.4,98.5
Q 10.3,99.4,10.2,100.3
 " /> 
<path  
style="fill:rgb(14,103,171)" 
d="M 0.4 51.4
Q 0.0,50.7,-0.4,50.1
Q -0.4,50.8,-0.3,51.4
Q 0.0,51.4,0.4,51.4
 " /> 
<path  
style="fill:rgb(14,103,171)" 
d="M 0.4 51.4
Q 0.4,51.0,0.4,50.5
Q -0.2,50.1,-0.4,50.1
Q 0.0,50.7,0.4,51.4
 " /> 
<path  
style="fill:rgb(4,4,4)" 
d="M 0.4 50.5
Q 0.8,49.0,1.1,47.7
Q 0.3,47.6,-0.4,47.4
Q -0.4,48.8,-0.4,50.1
Q -0.2,50.1,0.4,50.5
 " /> 
<path  
style="fill:rgb(14,103,171)" 
d="M -2.7 25.6
Q -2.9,25.1,-3.1,24.6
Q -3.1,24.6,-3.1,24.6
Q -3.1,25.6,-3.0,25.7
Q -2.8,25.7,-2.7,25.6
 " /> 
<path  
style="fill:rgb(14,103,171)" 
d="M -2.7 25.6
Q -2.7,24.5,-2.7,23.4
Q -2.9,23.4,-3.1,23.5
Q -3.1,24.0,-3.1,24.6
Q -2.9,25.1,-2.7,25.6
 " /> 
<path  
style="fill:rgb(4,4,4)" 
d="M -2.7 25.6
Q -2.8,25.7,-2.9,25.7
Q -2.9,25.7,-3.0,25.7
Q -3.4,25.7,-3.8,25.8
Q -3.0,34.0,-0.9,38.0
Q 0.4,40.8,0.0,44.1
Q -0.2,45.8,-0.4,47.4
Q 0.3,47.6,1.1,47.7
Q 1.4,46.3,1.5,45.0
Q 1.8,42.5,2.5,42.5
Q 3.7,42.5,1.4,38.7
Q -1.2,34.4,-2.2,28.3
Q -2.4,27.0,-2.7,25.6
 " /> 
<path  
style="fill:rgb(7,193,201)" 
d="M -2.7 23.4
Q -2.7,22.7,-2.6,21.9
Q -2.6,20.4,-2.4,20.4
Q -3.0,20.5,-3.1,20.8
Q -3.3,21.2,-3.1,23.4
Q -2.9,23.4,-2.7,23.4
 " /> 
<path  
style="fill:rgb(97,247,248)" 
d="M -2.7 23.4
Q -2.1,22.8,-1.6,22.1
Q -2.1,21.7,-2.2,20.3
Q -2.3,20.3,-2.4,20.3
Q -2.5,20.4,-2.6,20.4
Q -2.6,20.4,-2.6,21.9
Q -2.7,22.7,-2.7,23.4
 " /> 
<path  
style="fill:rgb(4,4,4)" 
d="M -2.2 20.3
Q -2.1,21.7,-1.6,22.1
Q -1.4,22.3,-1.1,22.3
Q -0.1,22.2,-1.5,17.2
Q -2.6,13.4,-3.4,9.5
Q -4.2,5.6,-4.9,5.8
Q -5.5,6.0,-5.4,6.7
Q -5.3,7.4,-4.4,14.1
Q -4.3,14.5,-4.2,15.0
Q -4.0,15.9,-4.4,17.2
Q -4.3,20.6,-4.1,23.5
Q -3.6,23.5,-3.1,23.4
Q -3.3,21.2,-3.1,20.8
Q -3.0,20.5,-2.4,20.4
Q -2.4,20.4,-2.4,20.4
Q -2.4,20.4,-2.4,20.3
Q -2.3,20.3,-2.2,20.3
 " /> 
<path  
style="fill:rgb(14,103,171)" 
d="M -4.4 14.1
Q -4.4,15.6,-4.4,17.2
Q -4.0,15.9,-4.2,15.0
Q -4.3,14.5,-4.4,14.1
 " /> 
<path  
style="fill:rgb(7,193,201)" 
d="M -0.4 47.4
Q -0.7,47.9,-1.0,48.4
Q -1.2,48.6,-1.4,48.8
Q -0.9,49.4,-0.4,50.1
Q -0.4,48.8,-0.4,47.4
 " /> 
<path  
style="fill:rgb(14,103,171)" 
d="M -15.1 42.5
Q -15.3,42.5,-15.6,42.5
Q -20.0,45.2,-22.3,43.2
Q -23.1,42.5,-24.4,42.3
Q -25.1,42.2,-25.8,42.1
Q -26.0,42.1,-26.2,42.1
Q -26.8,42.2,-27.3,42.3
Q -28.6,42.6,-32.6,48.9
Q -34.9,52.6,-36.0,57.2
Q -35.2,57.4,-34.5,57.5
Q -33.3,51.9,-31.7,51.9
Q -30.6,51.9,-32.1,54.8
Q -32.8,56.1,-33.1,57.3
Q -33.3,58.5,-34.1,58.5
Q -34.8,58.5,-34.5,57.5
Q -35.2,57.4,-36.0,57.2
Q -36.6,60.0,-36.7,63.2
Q -36.8,65.6,-36.9,68.1
Q -36.3,66.9,-35.6,65.6
Q -34.3,63.2,-31.1,59.4
Q -27.9,55.7,-26.3,53.5
Q -24.7,51.4,-24.1,51.4
Q -22.6,51.4,-28.4,58.5
Q -32.9,64.1,-34.5,67.2
Q -38.3,74.8,-31.9,82.5
Q -30.5,84.3,-27.6,86.1
Q -27.4,82.9,-27.3,79.6
Q -27.1,73.2,-26.6,73.1
Q -26.0,73.1,-26.1,79.4
Q -26.1,85.8,-26.6,85.9
Q -26.9,86.0,-27.1,86.1
Q -26.2,86.2,-25.3,86.3
Q -21.0,86.9,-17.1,83.0
Q -15.7,81.6,-15.3,80.6
Q -14.9,79.6,-14.9,68.9
Q -14.9,57.1,-14.2,57.1
Q -13.6,57.0,-13.5,67.4
Q -13.4,78.4,-12.7,78.0
Q -10.8,76.8,-9.9,73.7
Q -9.4,72.1,-7.9,69.7
Q -5.7,66.4,-3.0,57.2
Q -1.8,53.4,-1.7,52.4
Q -1.6,51.6,-0.3,51.4
Q -0.4,50.8,-0.4,50.1
Q -0.7,50.2,-0.9,50.3
Q -1.3,50.5,-2.1,49.2
Q -3.9,46.1,-7.7,46.1
Q -9.4,46.1,-11.3,44.3
Q -13.3,42.5,-15.1,42.5
 " /> 
<path  
style="fill:rgb(7,193,201)" 
d="M -9.3 62.9
Q -9.3,66.6,-8.6,66.4
Q -7.9,66.3,-8.0,61.9
Q -8.1,55.8,-9.1,56.8
Q -9.3,57.0,-9.3,62.9
 " /> 
<path  
style="fill:rgb(7,193,201)" 
d="M -15.1 42.5
Q -13.3,42.5,-11.3,44.3
Q -9.4,46.1,-7.7,46.1
Q -3.9,46.1,-2.1,49.2
Q -1.3,50.5,-0.9,50.3
Q -0.7,50.2,-0.4,50.1
Q -0.9,49.4,-1.4,48.8
Q -1.8,49.0,-2.1,48.4
Q -3.5,46.0,-8.0,45.5
Q -9.9,45.3,-11.4,43.7
Q -12.9,42.1,-14.0,42.3
Q -14.6,42.4,-15.1,42.5
 " /> 
<path  
style="fill:rgb(7,193,201)" 
d="M -15.6 42.5
Q -20.1,44.0,-22.3,42.8
Q -23.6,42.1,-25.8,42.1
Q -25.1,42.2,-24.4,42.3
Q -23.1,42.5,-22.3,43.2
Q -20.0,45.2,-15.6,42.5
 " /> 
<path  
style="fill:rgb(14,103,171)" 
d="M 5.8 -6.3
Q 6.9,-6.3,8.0,-6.3
Q 7.7,-6.5,7.4,-6.6
Q 6.7,-6.9,6.2,-6.6
Q 6.0,-6.5,5.8,-6.3
 " /> 
<path  
style="fill:rgb(7,193,201)" 
d="M 51.6 45.6
Q 51.4,45.9,51.3,46.1
Q 51.6,46.3,52.0,46.5
Q 51.5,45.9,51.6,45.6
 " /> 
<path  
style="fill:rgb(7,193,201)" 
d="M 51.6 45.6
Q 49.8,43.8,47.6,42.5
Q 48.1,43.2,48.7,43.9
Q 49.8,45.2,50.9,45.9
Q 51.1,46.0,51.3,46.1
Q 51.4,45.9,51.6,45.6
 " /> 
<path  
style="fill:rgb(14,103,171)" 
d="M 47.6 42.5
Q 47.3,42.5,47.1,42.5
Q 45.3,42.1,43.0,43.0
Q 40.7,43.9,39.3,44.9
Q 35.2,48.0,26.2,55.9
Q 28.9,67.0,30.4,70.5
Q 32.0,74.1,33.1,75.6
Q 33.7,76.4,34.2,77.2
Q 34.0,75.6,33.8,74.1
Q 32.4,64.2,33.7,62.9
Q 34.2,62.4,34.4,63.0
Q 34.6,63.6,34.9,70.7
Q 35.1,77.7,34.6,77.7
Q 34.4,77.7,34.2,77.6
Q 34.9,78.4,35.6,79.2
Q 37.3,81.2,43.7,83.9
Q 43.5,83.5,43.4,83.1
Q 43.2,82.3,41.8,78.5
Q 40.5,74.8,38.9,67.4
Q 36.8,57.0,37.8,57.0
Q 38.4,57.0,40.0,65.4
Q 43.5,83.4,46.7,84.0
Q 50.6,84.8,54.3,80.8
Q 58.9,75.9,56.5,72.0
Q 55.4,70.3,53.0,65.7
Q 50.6,61.0,48.6,57.4
Q 45.6,52.1,46.8,52.4
Q 47.6,52.5,49.4,55.8
Q 51.2,59.2,52.9,62.1
Q 54.6,65.0,57.8,70.8
Q 57.1,64.7,55.6,58.1
Q 54.6,57.0,53.6,55.9
Q 53.6,55.9,53.6,55.9
Q 50.2,52.1,52.3,52.4
Q 53.0,52.5,53.8,53.7
Q 54.3,54.4,54.7,55.0
Q 54.4,54.1,54.2,53.2
Q 53.8,51.4,52.9,49.0
Q 52.4,47.8,52.0,46.5
Q 51.6,46.3,51.3,46.1
Q 51.1,46.0,50.9,45.9
Q 49.8,45.2,48.7,43.9
Q 48.1,43.2,47.6,42.5
 " /> 
<path  
style="fill:rgb(7,193,201)" 
d="M 51.6 79.7
Q 52.4,81.6,52.9,81.6
Q 53.9,81.6,50.6,73.4
Q 47.7,66.1,47.2,67.7
Q 46.9,68.9,51.6,79.7
 " /> 
<path  
style="fill:rgb(7,193,201)" 
d="M 47.1 42.5
Q 45.8,41.7,44.6,42.1
Q 39.1,43.7,32.6,49.7
Q 30.2,51.9,26.2,55.4
Q 26.2,55.6,26.2,55.9
Q 35.2,48.0,39.3,44.9
Q 40.7,43.9,43.0,43.0
Q 45.3,42.1,47.1,42.5
 " /> 
<path  
style="fill:rgb(4,4,4)" 
d="M 28.9 28.3
Q 28.9,26.1,28.9,23.9
Q 28.1,23.9,27.4,23.9
Q 27.4,24.5,27.3,25.0
Q 27.2,25.5,27.1,26.1
Q 27.1,26.3,27.1,26.5
Q 27.2,26.9,27.3,27.2
Q 27.5,27.5,27.4,28.2
Q 28.1,28.2,28.9,28.3
 " /> 
<path  
style="fill:rgb(7,193,201)" 
d="M 28.9 28.3
Q 29.0,27.8,29.1,27.2
Q 29.4,26.1,29.1,25.0
Q 29.0,24.4,28.9,23.9
Q 28.9,26.1,28.9,28.3
 " /> 
<path  
style="fill:rgb(4,4,4)" 
d="M 28.9 23.9
Q 28.8,22.9,28.8,22.0
Q 28.0,22.0,27.1,22.1
Q 27.4,23.1,27.4,23.9
Q 28.1,23.9,28.9,23.9
 " /> 
<path  
style="fill:rgb(14,103,171)" 
d="M 27.1 22.1
Q 27.1,24.1,27.1,26.1
Q 27.2,25.5,27.3,25.0
Q 27.4,24.5,27.4,23.9
Q 27.4,23.1,27.1,22.1
 " /> 
<path  
style="fill:rgb(4,4,4)" 
d="M 27.1 22.1
Q 28.0,22.0,28.8,22.0
Q 28.8,22.0,28.8,21.9
Q 28.5,15.2,26.6,9.3
Q 25.7,6.5,25.8,4.0
Q 25.9,1.5,25.3,1.5
Q 24.7,1.5,24.4,5.0
Q 24.0,8.5,23.3,12.3
Q 22.1,19.9,23.0,19.9
Q 23.9,19.9,24.4,16.9
Q 24.9,13.9,25.3,13.0
Q 25.5,12.6,25.7,12.1
Q 25.8,13.2,25.9,14.2
Q 26.2,16.3,26.7,19.2
Q 26.9,20.6,27.1,22.1
 " /> 
<path  
style="fill:rgb(14,103,171)" 
d="M 27.1 26.5
Q 27.1,28.1,27.1,29.6
Q 27.3,28.8,27.4,28.2
Q 27.5,27.5,27.3,27.2
Q 27.2,26.9,27.1,26.5
 " /> 
<path  
style="fill:rgb(14,103,171)" 
d="M 32.0 78.5
Q 32.0,81.0,32.0,83.4
Q 32.2,83.4,32.4,83.4
Q 32.4,79.0,32.4,78.8
Q 32.3,78.5,32.0,78.5
 " /> 
<path  
style="fill:rgb(7,193,201)" 
d="M 32.0 83.4
Q 32.0,84.8,32.0,86.1
Q 32.4,86.0,32.4,84.7
Q 32.4,84.1,32.4,83.4
Q 32.2,83.4,32.0,83.4
 " /> 
<path  
style="fill:rgb(7,193,201)" 
d="M -27.6 86.1
Q -27.3,86.1,-27.1,86.1
Q -26.9,86.0,-26.6,85.9
Q -26.1,85.8,-26.1,79.4
Q -26.0,73.1,-26.6,73.1
Q -27.1,73.2,-27.3,79.6
Q -27.4,82.9,-27.6,86.1
 " /> 
<path  
style="fill:rgb(7,193,201)" 
d="M 34.2 77.2
Q 34.2,77.4,34.2,77.6
Q 34.4,77.7,34.6,77.7
Q 35.1,77.7,34.9,70.7
Q 34.6,63.6,34.4,63.0
Q 34.2,62.4,33.7,62.9
Q 32.4,64.2,33.8,74.1
Q 34.0,75.6,34.2,77.2
 " /> 
<path  
style="fill:rgb(7,193,201)" 
d="M 54.7 55.0
Q 54.1,55.4,53.6,55.9
Q 54.6,57.0,55.6,58.1
Q 55.4,57.8,55.3,57.4
Q 55.1,56.8,54.9,55.9
Q 54.8,55.4,54.7,55.0
 " /> 
<path  
style="fill:rgb(7,193,201)" 
d="M 54.7 55.0
Q 54.3,54.4,53.8,53.7
Q 53.0,52.5,52.3,52.4
Q 50.2,52.1,53.6,55.9
Q 53.6,55.9,53.6,55.9
Q 54.1,55.4,54.7,55.0
 " /> 
<path  
style="fill:rgb(7,193,201)" 
d="M -34.5 57.5
Q -34.8,58.5,-34.1,58.5
Q -33.3,58.5,-33.1,57.3
Q -32.8,56.1,-32.1,54.8
Q -30.6,51.9,-31.7,51.9
Q -33.3,51.9,-34.5,57.5
 " /> 
<path  
style="fill:rgb(14,103,171)" 
d="M -68.0 -85.9
Q -68.0,-87.9,-68.0,-89.9
Q -68.2,-89.9,-68.4,-89.9
Q -68.4,-86.2,-68.4,-86.0
Q -68.3,-85.8,-68.0,-85.9
 " /> 
<path  
style="fill:rgb(97,247,248)" 
d="M -68.0 -85.9
Q -65.8,-67.4,-59.1,-49.9
Q -55.3,-40.1,-46.9,-30.1
Q -45.8,-28.8,-44.6,-27.4
Q -43.9,-28.4,-43.1,-29.4
Q -40.2,-33.6,-39.6,-33.8
Q -36.5,-34.8,-46.1,-22.9
Q -47.7,-21.0,-48.7,-19.5
Q -49.6,-18.1,-51.1,-16.1
Q -56.0,-9.4,-56.0,-2.8
Q -56.0,1.2,-53.1,-0.4
Q -49.5,-2.4,-44.1,-11.9
Q -40.4,-18.4,-39.7,-19.3
Q -39.1,-20.0,-38.7,-21.1
Q -38.4,-22.2,-35.8,-25.6
Q -33.2,-29.0,-32.8,-29.0
Q -31.7,-29.0,-34.2,-25.3
Q -35.7,-23.1,-35.2,-22.4
Q -33.7,-20.1,-30.8,-19.5
Q -30.1,-19.3,-29.1,-22.1
Q -27.7,-26.2,-26.6,-25.2
Q -26.1,-24.7,-27.1,-22.5
Q -28.1,-20.2,-28.6,-18.5
Q -29.2,-16.8,-30.6,-13.9
Q -36.6,-1.1,-35.1,4.3
Q -33.5,10.4,-23.7,-3.3
Q -20.9,-7.1,-19.8,-9.4
Q -18.7,-11.6,-14.2,-16.6
Q -14.0,-16.8,-13.8,-17.0
Q -13.8,-17.0,-13.8,-17.0
Q -12.2,-18.6,-12.4,-17.1
Q -12.4,-16.9,-12.4,-16.6
Q -12.7,-16.2,-12.9,-15.8
Q -14.0,-14.1,-14.8,-12.9
Q -15.4,-12.1,-15.9,-11.4
Q -14.2,-11.0,-12.6,-10.7
Q -9.3,-10.0,0.4,-9.0
Q 1.8,-9.0,3.1,-9.0
Q 4.5,-9.1,6.0,-9.1
Q 8.8,-9.2,9.3,-9.3
Q 9.5,-9.4,9.8,-9.5
Q 10.9,-9.5,12.0,-9.5
Q 13.6,-9.7,15.1,-9.9
Q 18.2,-10.3,28.0,-12.6
Q 28.0,-12.7,28.1,-12.7
Q 28.2,-12.9,30.2,-13.0
Q 28.9,-17.0,28.0,-18.8
Q 27.0,-20.7,27.5,-21.2
Q 28.4,-22.0,30.7,-16.7
Q 32.1,-13.3,32.7,-12.6
Q 33.2,-11.9,33.7,-10.1
Q 36.1,-1.3,39.0,-0.3
Q 39.8,-0.0,40.6,-3.1
Q 41.2,-5.4,41.3,-8.6
Q 41.3,-9.7,41.3,-10.8
Q 41.3,-15.6,36.8,-24.7
Q 35.4,-27.7,35.7,-28.0
Q 36.6,-28.9,39.5,-23.1
Q 40.7,-20.7,41.8,-18.4
Q 43.0,-19.3,44.3,-20.3
Q 46.7,-22.1,46.5,-23.2
Q 46.3,-24.4,44.9,-28.5
Q 43.5,-32.7,44.0,-33.2
Q 44.4,-33.6,44.8,-33.2
Q 45.2,-32.8,48.2,-23.9
Q 51.2,-15.0,51.9,-13.4
Q 54.3,-7.5,56.1,-13.7
Q 56.7,-15.8,57.3,-23.2
Q 57.3,-24.6,57.3,-25.9
Q 57.1,-26.9,56.9,-27.9
Q 56.4,-29.9,56.2,-31.2
Q 56.0,-32.4,54.9,-35.1
Q 52.8,-39.7,53.8,-39.7
Q 55.4,-39.7,57.5,-33.3
Q 58.1,-31.6,58.3,-31.4
Q 58.5,-31.2,59.1,-31.7
Q 59.3,-32.0,59.6,-32.3
Q 60.0,-33.0,60.7,-33.5
Q 61.0,-33.7,61.3,-33.9
Q 62.2,-34.9,63.1,-35.9
Q 67.0,-40.3,70.8,-47.7
Q 74.6,-55.2,76.0,-67.7
Q 76.0,-71.7,76.1,-72.1
Q 76.1,-72.5,76.4,-72.6
Q 76.4,-74.3,76.4,-76.1
Q 76.3,-76.1,76.2,-76.1
Q 76.1,-76.0,76.0,-76.3
Q 76.0,-76.6,76.0,-79.2
Q 76.0,-80.6,76.0,-81.9
Q 75.8,-84.0,75.6,-86.1
Q 72.9,-111.0,64.0,-123.7
Q 62.9,-125.2,61.8,-126.8
Q 59.6,-128.6,57.8,-130.8
Q 51.6,-135.2,47.9,-137.2
Q 44.2,-139.2,44.3,-140.0
Q 44.3,-141.4,49.4,-139.2
Q 49.3,-139.9,49.2,-140.5
Q 48.9,-141.8,47.6,-145.0
Q 46.2,-148.1,43.1,-152.6
Q 42.6,-153.0,42.0,-153.5
Q 40.9,-154.4,40.2,-155.3
Q 39.9,-155.7,39.6,-156.1
Q 38.7,-156.7,37.8,-157.2
Q 26.4,-164.3,16.2,-157.9
Q 15.2,-157.2,14.2,-156.6
Q 13.8,-156.0,13.3,-155.5
Q 12.4,-154.4,11.3,-153.5
Q 10.8,-153.0,10.2,-152.6
Q 6.2,-146.8,5.5,-146.5
Q 4.8,-146.1,2.4,-146.2
Q 0.8,-146.3,-0.9,-146.3
Q -2.9,-146.3,-4.9,-146.3
Q -6.7,-147.7,-7.8,-149.5
Q -8.9,-151.2,-12.0,-155.7
Q -14.2,-157.5,-15.6,-159.2
Q -16.4,-159.8,-17.3,-160.3
Q -28.5,-167.3,-38.7,-162.3
Q -39.6,-161.1,-40.9,-160.1
Q -43.6,-155.7,-44.4,-153.6
Q -46.7,-147.9,-46.7,-145.7
Q -46.7,-141.9,-48.3,-142.2
Q -48.8,-142.3,-50.5,-140.5
Q -52.2,-138.8,-52.2,-137.9
Q -52.2,-137.0,-54.0,-135.7
Q -55.8,-134.3,-57.7,-131.3
Q -65.6,-119.3,-67.1,-105.0
Q -67.3,-102.8,-67.6,-100.6
Q -67.6,-98.6,-68.0,-98.3
Q -67.9,-96.2,-68.0,-94.3
Q -68.0,-93.2,-68.0,-92.1
Q -68.0,-91.0,-68.0,-89.9
Q -68.0,-87.9,-68.0,-85.9
 " /> 
<path  
style="fill:rgb(4,4,4)" 
d="M 17.4 -21.8
Q 21.3,-19.5,21.3,-20.8
Q 21.3,-21.4,19.4,-22.7
Q 12.3,-27.6,0.1,-23.7
Q -2.4,-22.9,-2.6,-22.1
Q -2.8,-21.3,-1.7,-21.6
Q 11.8,-25.0,17.4,-21.8
 " /> 
<path  
style="fill:rgb(4,4,4)" 
d="M -1.1 -42.7
Q -0.6,-41.9,1.7,-45.9
Q 3.0,-48.4,4.6,-50.6
Q 6.2,-52.8,5.7,-53.2
Q 4.4,-54.5,0.4,-46.7
Q -1.4,-43.2,-1.1,-42.7
 " /> 
<path  
style="fill:rgb(4,4,4)" 
d="M 12.9 -46.7
Q 15.2,-42.3,15.6,-42.3
Q 16.6,-42.3,14.5,-46.8
Q 11.9,-52.5,10.7,-52.9
Q 9.3,-53.4,12.9,-46.7
 " /> 
<path  
style="fill:rgb(4,4,4)" 
d="M 38.7 -118.8
Q 37.3,-117.1,35.6,-115.7
Q 34.4,-114.1,33.3,-112.6
Q 26.5,-103.0,19.1,-80.4
Q 17.2,-74.6,16.6,-73.9
Q 16.0,-73.3,16.0,-72.1
Q 16.0,-70.9,15.1,-68.3
Q 13.6,-64.0,14.6,-64.0
Q 15.2,-63.9,16.2,-66.5
Q 16.7,-67.9,17.2,-69.2
Q 17.9,-67.6,18.6,-66.1
Q 26.5,-49.3,41.0,-52.4
Q 51.6,-54.7,59.0,-65.6
Q 69.8,-81.3,63.7,-99.9
Q 59.0,-114.5,50.6,-119.7
Q 48.5,-121.0,45.3,-121.5
Q 45.0,-121.3,44.7,-121.2
Q 44.0,-121.0,43.1,-121.5
Q 42.5,-121.2,42.0,-121.0
Q 40.9,-120.6,39.8,-119.7
Q 39.2,-119.2,38.7,-118.8
 " /> 
<path  
style="fill:rgb(115,250,3)" 
d="M 33.3 -54.8
Q 33.9,-54.8,34.5,-54.8
Q 34.5,-54.8,34.5,-54.8
Q 35.7,-54.9,35.6,-54.6
Q 35.6,-54.5,35.6,-54.3
Q 36.4,-54.3,37.3,-54.3
Q 37.4,-54.4,37.4,-54.5
Q 37.5,-54.7,38.5,-54.7
Q 39.0,-54.8,39.6,-54.8
Q 40.0,-55.0,40.4,-55.2
Q 41.3,-55.7,42.0,-55.7
Q 42.3,-55.7,42.7,-55.7
Q 43.0,-55.9,43.3,-56.1
Q 44.0,-56.6,44.9,-57.0
Q 45.3,-57.2,45.8,-57.5
Q 47.0,-58.2,48.2,-59.0
Q 50.7,-60.6,52.4,-62.4
Q 53.3,-63.2,54.2,-64.1
Q 55.1,-65.4,56.4,-66.3
Q 57.3,-67.8,58.2,-69.2
Q 61.7,-74.8,62.7,-82.8
Q 62.9,-84.6,63.1,-86.3
Q 63.1,-88.1,63.1,-89.9
Q 62.4,-89.9,61.7,-89.9
Q 61.6,-83.0,57.1,-74.4
Q 46.8,-55.4,30.0,-63.7
Q 25.2,-66.1,24.8,-66.5
Q 22.6,-69.4,26.4,-73.2
Q 26.8,-73.6,27.1,-73.9
Q 24.8,-74.5,24.5,-74.8
Q 24.2,-75.1,24.2,-75.5
Q 24.3,-76.4,26.9,-75.7
Q 27.2,-75.6,27.4,-75.6
Q 30.7,-74.9,34.8,-79.0
Q 36.9,-81.0,40.4,-85.5
Q 40.1,-85.9,39.7,-86.3
Q 30.9,-78.5,28.7,-81.0
Q 26.0,-84.0,33.0,-95.2
Q 34.8,-98.1,34.9,-99.5
Q 35.0,-100.8,36.7,-103.7
Q 39.8,-109.1,43.3,-110.7
Q 43.5,-110.8,43.7,-110.9
Q 43.1,-109.4,44.2,-109.0
Q 46.4,-108.2,49.0,-102.4
Q 52.0,-95.9,49.9,-93.6
Q 49.1,-92.7,46.3,-91.2
Q 44.3,-90.2,42.1,-88.4
Q 42.4,-88.0,42.7,-87.7
Q 43.2,-88.0,43.8,-88.3
Q 48.6,-91.0,51.0,-86.2
Q 53.6,-80.9,54.6,-82.2
Q 54.7,-82.5,55.1,-85.9
Q 55.1,-87.7,55.1,-89.5
Q 55.0,-90.9,54.9,-92.4
Q 54.6,-96.6,52.8,-100.9
Q 52.2,-102.4,51.3,-103.9
Q 49.2,-107.8,50.6,-107.4
Q 51.7,-107.1,53.3,-103.5
Q 53.8,-102.5,54.2,-101.5
Q 54.4,-101.4,54.5,-101.4
Q 54.8,-101.3,55.6,-101.6
Q 57.4,-102.5,59.4,-99.0
Q 61.7,-94.8,61.7,-89.9
Q 62.4,-89.9,63.1,-89.9
Q 62.1,-101.1,55.1,-111.7
Q 54.2,-113.0,53.3,-114.3
Q 53.0,-114.6,52.7,-114.8
Q 52.0,-115.3,51.1,-116.6
Q 50.6,-116.9,50.0,-117.2
Q 48.9,-117.9,47.8,-118.4
Q 47.2,-118.6,46.7,-118.8
Q 45.1,-118.8,43.6,-118.8
Q 43.2,-118.6,42.8,-118.5
Q 42.0,-118.2,40.4,-117.5
Q 40.0,-116.9,39.5,-116.4
Q 38.6,-115.3,36.4,-113.5
Q 35.1,-111.2,33.8,-109.0
Q 27.6,-98.8,20.4,-78.7
Q 18.6,-73.5,19.9,-70.1
Q 24.4,-59.1,31.0,-55.9
Q 32.1,-55.4,33.3,-54.8
 " /> 
<path  
style="fill:rgb(31,181,0)" 
d="M 33.3 -54.8
Q 33.3,-54.7,33.2,-54.5
Q 33.1,-54.2,35.6,-54.3
Q 35.0,-54.6,34.5,-54.8
Q 33.9,-54.8,33.3,-54.8
 " /> 
<path  
style="fill:rgb(31,181,0)" 
d="M 35.6 -54.3
Q 35.6,-54.5,35.6,-54.6
Q 35.7,-54.9,34.5,-54.8
Q 34.5,-54.8,34.5,-54.8
Q 35.0,-54.6,35.6,-54.3
 " /> 
<path  
style="fill:rgb(31,181,0)" 
d="M 36.4 -113.5
Q 38.6,-115.3,39.5,-116.4
Q 40.0,-116.9,40.4,-117.5
Q 38.2,-115.7,36.4,-113.5
 " /> 
<path  
style="fill:rgb(31,181,0)" 
d="M 43.6 -118.8
Q 45.1,-118.8,46.7,-118.8
Q 46.2,-118.9,45.8,-119.0
Q 44.9,-119.3,43.6,-118.8
 " /> 
<path  
style="fill:rgb(31,181,0)" 
d="M 51.1 -116.6
Q 52.0,-115.3,52.7,-114.8
Q 53.0,-114.6,53.3,-114.3
Q 53.1,-114.7,52.9,-115.0
Q 52.4,-115.7,51.1,-116.6
 " /> 
<path  
style="fill:rgb(31,181,0)" 
d="M 63.1 -89.9
Q 63.1,-88.1,63.1,-86.3
Q 63.6,-88.1,63.1,-89.9
 " /> 
<path  
style="fill:rgb(31,181,0)" 
d="M 56.4 -66.3
Q 55.1,-65.4,54.2,-64.1
Q 55.5,-65.0,56.0,-65.7
Q 56.2,-66.0,56.4,-66.3
 " /> 
<path  
style="fill:rgb(31,181,0)" 
d="M 45.8 -57.5
Q 45.3,-57.2,44.9,-57.0
Q 44.0,-56.6,43.3,-56.1
Q 43.0,-55.9,42.7,-55.7
Q 43.0,-55.8,43.3,-55.8
Q 44.0,-56.0,44.9,-56.7
Q 45.3,-57.1,45.8,-57.5
 " /> 
<path  
style="fill:rgb(31,181,0)" 
d="M 39.6 -54.8
Q 39.0,-54.8,38.5,-54.7
Q 37.5,-54.7,37.4,-54.5
Q 37.4,-54.4,37.3,-54.3
Q 39.3,-54.3,39.6,-54.8
 " /> 
<path  
style="fill:rgb(115,250,3)" 
d="M 43.6 -85.9
Q 44.0,-85.3,44.4,-84.8
Q 44.4,-84.8,44.4,-84.8
Q 47.4,-85.4,49.6,-81.8
Q 51.9,-78.3,53.1,-78.3
Q 53.8,-78.3,53.3,-79.0
Q 53.1,-79.3,52.9,-79.7
Q 51.1,-81.9,50.2,-83.7
Q 49.8,-84.6,49.3,-85.5
Q 48.7,-86.2,48.1,-86.6
Q 47.5,-86.9,46.7,-86.9
Q 46.0,-86.8,45.3,-86.8
Q 45.2,-86.8,45.1,-86.7
Q 44.8,-86.6,44.2,-86.3
Q 43.9,-86.1,43.6,-85.9
 " /> 
<path  
style="fill:rgb(115,250,3)" 
d="M 43.6 -85.9
Q 43.3,-85.5,43.1,-85.2
Q 42.6,-84.4,44.4,-84.8
Q 44.0,-85.3,43.6,-85.9
 " /> 
<path  
style="fill:rgb(31,181,0)" 
d="M 43.6 -85.9
Q 39.6,-81.0,37.2,-78.5
Q 33.0,-74.0,29.1,-73.9
Q 28.1,-73.9,27.1,-73.9
Q 26.8,-73.6,26.4,-73.2
Q 22.6,-69.4,24.8,-66.5
Q 25.2,-66.1,30.0,-63.7
Q 46.8,-55.4,57.1,-74.4
Q 61.6,-83.0,61.7,-89.9
Q 61.7,-94.8,59.4,-99.0
Q 57.4,-102.5,55.6,-101.6
Q 54.8,-101.3,54.5,-101.4
Q 54.4,-101.4,54.2,-101.5
Q 54.7,-100.5,55.1,-99.5
Q 56.9,-95.3,57.0,-87.4
Q 57.1,-80.4,52.9,-79.7
Q 53.1,-79.3,53.3,-79.0
Q 53.8,-78.3,53.1,-78.3
Q 51.9,-78.3,49.6,-81.8
Q 47.4,-85.4,44.4,-84.8
Q 44.4,-84.8,44.4,-84.8
Q 42.6,-84.4,43.1,-85.2
Q 43.3,-85.5,43.6,-85.9
 " /> 
<path  
style="fill:rgb(4,4,4)" 
d="M 43.6 -85.9
Q 43.9,-86.1,44.2,-86.3
Q 44.8,-86.6,45.1,-86.7
Q 45.2,-86.8,45.3,-86.8
Q 45.9,-87.0,46.5,-87.1
Q 47.2,-87.3,48.1,-86.6
Q 48.4,-86.5,48.7,-86.2
Q 49.0,-85.8,49.3,-85.5
Q 49.8,-84.6,50.2,-83.7
Q 51.1,-81.9,52.9,-79.7
Q 57.1,-80.4,57.0,-87.4
Q 56.9,-95.3,55.1,-99.5
Q 54.7,-100.5,54.2,-101.5
Q 53.5,-101.2,52.8,-100.9
Q 54.6,-96.6,54.9,-92.4
Q 55.0,-90.9,55.1,-89.5
Q 55.2,-89.0,55.4,-88.6
Q 55.6,-87.7,55.1,-85.9
Q 54.7,-82.5,54.6,-82.2
Q 53.6,-80.9,51.0,-86.2
Q 48.6,-91.0,43.8,-88.3
Q 43.2,-88.0,42.7,-87.7
Q 41.7,-86.4,40.4,-85.5
Q 36.9,-81.0,34.8,-79.0
Q 30.7,-74.9,27.4,-75.6
Q 27.3,-74.7,27.1,-73.9
Q 28.1,-73.9,29.1,-73.9
Q 33.0,-74.0,37.2,-78.5
Q 39.6,-81.0,43.6,-85.9
 " /> 
<path  
style="fill:rgb(4,4,4)" 
d="M 27.1 -73.9
Q 27.3,-74.7,27.4,-75.6
Q 27.2,-75.6,26.9,-75.7
Q 24.3,-76.4,24.2,-75.5
Q 24.2,-75.1,24.5,-74.8
Q 24.8,-74.5,27.1,-73.9
 " /> 
<path  
style="fill:rgb(4,4,4)" 
d="M 54.2 -101.5
Q 53.8,-102.5,53.3,-103.5
Q 51.7,-107.1,50.6,-107.4
Q 49.2,-107.8,51.3,-103.9
Q 52.2,-102.4,52.8,-100.9
Q 53.5,-101.2,54.2,-101.5
 " /> 
<path  
style="fill:rgb(115,250,3)" 
d="M 40.4 -85.5
Q 41.3,-86.8,42.7,-87.7
Q 42.4,-88.0,42.1,-88.4
Q 41.2,-87.7,40.4,-86.9
Q 40.0,-86.6,39.7,-86.3
Q 40.1,-85.9,40.4,-85.5
 " /> 
<path  
style="fill:rgb(31,181,0)" 
d="M 40.4 -85.5
Q 41.7,-86.4,42.7,-87.7
Q 41.3,-86.8,40.4,-85.5
 " /> 
<path  
style="fill:rgb(31,181,0)" 
d="M 55.1 -85.9
Q 55.6,-87.7,55.4,-88.6
Q 55.2,-89.0,55.1,-89.5
Q 55.1,-87.7,55.1,-85.9
 " /> 
<path  
style="fill:rgb(31,181,0)" 
d="M 45.3 -86.8
Q 46.0,-86.8,46.7,-86.9
Q 47.5,-86.9,48.1,-86.6
Q 47.2,-87.3,46.5,-87.1
Q 45.9,-87.0,45.3,-86.8
 " /> 
<path  
style="fill:rgb(209,251,185)" 
d="M 28.7 -81.0
Q 30.9,-78.5,39.7,-86.3
Q 40.0,-86.6,40.4,-86.9
Q 41.2,-87.7,42.1,-88.4
Q 44.3,-90.2,46.3,-91.2
Q 49.1,-92.7,49.9,-93.6
Q 52.0,-95.9,49.0,-102.4
Q 46.4,-108.2,44.2,-109.0
Q 43.1,-109.4,43.7,-110.9
Q 43.5,-110.8,43.3,-110.7
Q 39.8,-109.1,36.7,-103.7
Q 35.0,-100.8,34.9,-99.5
Q 34.8,-98.1,33.0,-95.2
Q 26.0,-84.0,28.7,-81.0
 " /> 
<path  
style="fill:rgb(14,103,171)" 
d="M 38.7 -118.8
Q 38.2,-118.5,37.8,-118.1
Q 36.9,-117.4,35.6,-115.7
Q 37.3,-117.1,38.7,-118.8
 " /> 
<path  
style="fill:rgb(14,103,171)" 
d="M 43.1 -121.5
Q 44.0,-121.0,44.7,-121.2
Q 45.0,-121.3,45.3,-121.5
Q 44.2,-121.5,43.1,-121.5
 " /> 
<path  
style="fill:rgb(4,4,4)" 
d="M -51.1 -100.1
Q -51.1,-99.2,-51.1,-98.2
Q -51.1,-96.3,-51.1,-96.2
Q -51.1,-96.2,-51.1,-96.1
Q -50.4,-84.9,-46.7,-76.7
Q -41.1,-64.7,-31.6,-58.5
Q -20.3,-51.0,-11.1,-56.9
Q -10.0,-57.6,-8.9,-58.3
Q -8.5,-58.8,-8.2,-59.2
Q -7.5,-60.1,-6.9,-60.6
Q -6.5,-60.8,-6.2,-61.0
Q -3.6,-64.6,-2.6,-66.7
Q -2.1,-67.7,-1.7,-68.8
Q -1.3,-67.3,-1.0,-65.9
Q -0.4,-63.0,0.0,-62.5
Q 2.3,-59.4,-0.7,-74.1
Q -6.7,-104.4,-17.4,-117.6
Q -18.0,-117.1,-18.7,-116.6
Q -17.6,-114.8,-16.5,-113.0
Q -8.6,-100.2,-3.8,-79.2
Q -2.6,-74.1,-3.1,-72.2
Q -3.8,-69.2,-6.4,-65.0
Q -7.0,-64.1,-7.6,-63.2
Q -7.8,-62.9,-8.0,-62.6
Q -8.5,-61.9,-9.8,-61.0
Q -10.5,-60.4,-11.3,-59.9
Q -20.0,-53.4,-31.3,-61.0
Q -32.3,-61.7,-33.3,-62.3
Q -34.0,-62.9,-34.7,-63.5
Q -36.0,-64.6,-37.3,-66.1
Q -38.0,-66.9,-38.7,-67.7
Q -39.5,-69.0,-40.4,-70.4
Q -47.1,-80.4,-48.4,-90.6
Q -48.7,-92.2,-48.9,-93.9
Q -49.0,-95.2,-49.1,-96.6
Q -49.3,-99.2,-48.9,-105.0
Q -47.3,-115.9,-41.9,-121.6
Q -36.0,-127.7,-27.1,-123.2
Q -25.3,-122.3,-23.6,-121.5
Q -22.9,-120.9,-22.2,-120.3
Q -20.9,-119.2,-19.8,-117.9
Q -19.2,-117.2,-18.7,-116.6
Q -18.0,-117.1,-17.4,-117.6
Q -22.8,-124.4,-29.4,-126.8
Q -30.7,-127.2,-32.0,-127.7
Q -32.4,-127.6,-32.9,-127.4
Q -33.8,-127.2,-35.1,-127.7
Q -38.7,-126.8,-41.8,-124.6
Q -42.0,-124.2,-42.3,-123.9
Q -42.9,-123.2,-43.6,-122.5
Q -44.0,-122.2,-44.4,-121.9
Q -48.4,-116.6,-49.6,-113.0
Q -50.7,-109.5,-51.1,-100.1
 " /> 
<path  
style="fill:rgb(7,193,201)" 
d="M -51.1 -100.1
Q -51.2,-99.6,-51.3,-99.0
Q -51.6,-97.9,-51.3,-97.0
Q -51.2,-96.6,-51.1,-96.1
Q -51.1,-96.2,-51.1,-96.2
Q -51.1,-96.3,-51.1,-98.2
Q -51.1,-99.2,-51.1,-100.1
 " /> 
<path  
style="fill:rgb(14,103,171)" 
d="M -44.4 -121.9
Q -44.0,-122.2,-43.6,-122.5
Q -42.9,-123.2,-42.3,-123.9
Q -42.0,-124.2,-41.8,-124.6
Q -42.2,-124.2,-42.6,-123.9
Q -43.4,-123.2,-44.4,-121.9
 " /> 
<path  
style="fill:rgb(14,103,171)" 
d="M -35.1 -127.7
Q -33.8,-127.2,-32.9,-127.4
Q -32.4,-127.6,-32.0,-127.7
Q -33.6,-127.7,-35.1,-127.7
 " /> 
<path  
style="fill:rgb(7,193,201)" 
d="M -6.2 -61.0
Q -6.5,-60.8,-6.9,-60.6
Q -7.5,-60.1,-8.2,-59.2
Q -8.5,-58.8,-8.9,-58.3
Q -7.1,-59.7,-6.2,-61.0
 " /> 
<path  
style="fill:rgb(115,250,3)" 
d="M -38.7 -67.7
Q -35.6,-65.0,-34.5,-63.7
Q -33.9,-63.0,-33.3,-62.3
Q -32.3,-61.7,-31.3,-61.0
Q -20.0,-53.4,-11.3,-59.9
Q -10.5,-60.4,-9.8,-61.0
Q -9.5,-61.3,-9.3,-61.7
Q -8.8,-62.3,-7.6,-63.2
Q -7.0,-64.1,-6.4,-65.0
Q -3.8,-69.2,-3.1,-72.2
Q -2.6,-74.1,-3.8,-79.2
Q -8.6,-100.2,-16.5,-113.0
Q -17.6,-114.8,-18.7,-116.6
Q -19.3,-117.1,-20.0,-117.7
Q -21.3,-118.8,-23.6,-121.5
Q -25.3,-122.3,-27.1,-123.2
Q -36.0,-127.7,-41.9,-121.6
Q -47.3,-115.9,-48.9,-105.0
Q -48.9,-99.5,-48.9,-93.9
Q -48.7,-92.2,-48.4,-90.6
Q -47.1,-80.4,-40.4,-70.4
Q -39.5,-69.0,-38.7,-67.7
 " /> 
<path  
style="fill:rgb(255,255,255)" 
d="M -25.8 -83.7
Q -25.9,-84.3,-25.9,-85.0
Q -25.9,-85.0,-25.9,-85.0
Q -27.1,-84.1,-27.1,-83.7
Q -27.1,-83.2,-25.8,-83.7
 " /> 
<path  
style="fill:rgb(255,255,255)" 
d="M -25.8 -83.7
Q -25.6,-83.7,-25.3,-83.7
Q -24.0,-84.2,-23.3,-83.9
Q -23.0,-83.8,-22.7,-83.7
Q -22.4,-83.7,-22.2,-83.7
Q -24.3,-86.3,-25.9,-85.0
Q -25.9,-84.3,-25.8,-83.7
 " /> 
<path  
style="fill:rgb(31,181,0)" 
d="M -25.8 -83.7
Q -28.4,-81.5,-30.4,-79.6
Q -35.9,-74.5,-39.5,-86.2
Q -42.1,-94.6,-42.2,-101.5
Q -42.2,-103.0,-42.2,-104.6
Q -46.4,-104.6,-44.6,-93.5
Q -41.9,-76.2,-33.6,-67.3
Q -24.2,-57.4,-13.0,-65.3
Q -5.5,-70.7,-7.6,-74.3
Q -8.2,-75.3,-7.1,-76.1
Q -11.9,-73.7,-18.1,-80.8
Q -19.5,-82.4,-22.2,-83.7
Q -22.4,-83.7,-22.7,-83.7
Q -24.0,-83.7,-25.3,-83.7
Q -25.6,-83.7,-25.8,-83.7
 " /> 
<path  
style="fill:rgb(4,4,4)" 
d="M -25.8 -83.7
Q -27.1,-83.2,-27.1,-83.7
Q -27.1,-84.1,-25.9,-85.0
Q -25.9,-85.0,-25.9,-85.0
Q -24.3,-86.3,-22.2,-83.7
Q -19.5,-82.4,-18.1,-80.8
Q -11.9,-73.7,-7.1,-76.1
Q -8.0,-77.0,-9.4,-77.2
Q -12.8,-77.8,-18.0,-83.3
Q -20.6,-86.0,-21.9,-86.8
Q -23.1,-87.7,-26.7,-87.2
Q -27.5,-86.1,-28.2,-85.6
Q -28.5,-85.3,-28.9,-85.0
Q -32.1,-80.7,-32.9,-80.4
Q -33.3,-80.3,-33.8,-80.1
Q -34.1,-80.4,-34.4,-80.6
Q -35.1,-81.0,-35.5,-81.7
Q -35.8,-82.0,-36.0,-82.3
Q -36.6,-84.0,-37.1,-85.7
Q -40.4,-95.6,-40.4,-102.8
Q -40.4,-104.3,-40.4,-105.9
Q -41.2,-106.1,-41.9,-106.2
Q -41.9,-106.0,-42.0,-106.0
Q -42.1,-106.0,-42.2,-105.9
Q -42.2,-105.2,-42.2,-104.6
Q -42.2,-103.0,-42.2,-101.5
Q -42.1,-94.6,-39.5,-86.2
Q -35.9,-74.5,-30.4,-79.6
Q -28.4,-81.5,-25.8,-83.7
 " /> 
<path  
style="fill:rgb(4,4,4)" 
d="M -25.3 -83.7
Q -24.0,-83.7,-22.7,-83.7
Q -23.0,-83.8,-23.3,-83.9
Q -24.0,-84.2,-25.3,-83.7
 " /> 
<path  
style="fill:rgb(31,181,0)" 
d="M -42.2 -105.9
Q -42.1,-106.0,-42.0,-106.0
Q -41.9,-106.0,-41.9,-106.2
Q -41.8,-106.7,-41.8,-108.1
Q -41.9,-108.1,-42.0,-108.1
Q -42.2,-108.0,-42.2,-106.9
Q -42.2,-106.4,-42.2,-105.9
 " /> 
<path  
style="fill:rgb(4,4,4)" 
d="M -41.8 -108.1
Q -41.0,-108.0,-40.3,-107.9
Q -40.2,-108.5,-40.0,-108.6
Q -40.8,-108.7,-41.6,-108.9
Q -41.7,-108.5,-41.8,-108.1
 " /> 
<path  
style="fill:rgb(4,4,4)" 
d="M -41.8 -108.1
Q -41.8,-106.7,-41.9,-106.2
Q -41.2,-106.1,-40.4,-105.9
Q -40.4,-107.2,-40.3,-107.9
Q -41.0,-108.0,-41.8,-108.1
 " /> 
<path  
style="fill:rgb(31,181,0)" 
d="M -40.0 -108.6
Q -40.2,-108.5,-40.3,-107.9
Q -40.4,-107.2,-40.4,-105.9
Q -40.1,-106.1,-40.0,-107.3
Q -40.0,-107.9,-40.0,-108.6
 " /> 
<path  
style="fill:rgb(4,4,4)" 
d="M -40.0 -108.6
Q -38.7,-112.6,-37.9,-113.8
Q -36.3,-116.3,-37.5,-116.1
Q -38.2,-115.9,-39.6,-113.8
Q -41.0,-111.7,-41.4,-109.9
Q -41.5,-109.4,-41.6,-108.9
Q -40.8,-108.7,-40.0,-108.6
 " /> 
<path  
style="fill:rgb(31,181,0)" 
d="M -36.0 -82.3
Q -35.8,-82.0,-35.5,-81.7
Q -35.1,-81.0,-34.4,-80.6
Q -34.1,-80.4,-33.8,-80.1
Q -34.0,-80.5,-34.2,-80.8
Q -34.7,-81.4,-35.3,-81.9
Q -35.7,-82.1,-36.0,-82.3
 " /> 
<path  
style="fill:rgb(31,181,0)" 
d="M -28.9 -85.0
Q -28.5,-85.3,-28.2,-85.6
Q -27.5,-86.1,-26.7,-87.2
Q -27.0,-87.0,-27.3,-86.8
Q -28.0,-86.3,-28.9,-85.0
 " /> 
<path  
style="fill:rgb(209,251,185)" 
d="M -13.4 -84.7
Q -9.4,-82.3,-9.9,-84.0
Q -10.1,-84.8,-13.5,-91.9
Q -19.8,-104.9,-23.7,-107.8
Q -27.1,-110.3,-30.3,-106.8
Q -33.9,-102.8,-33.0,-98.4
Q -31.8,-92.8,-23.6,-90.3
Q -20.3,-89.3,-18.0,-87.8
Q -15.8,-86.2,-13.4,-84.7
 " /> 
<path  
style="fill:rgb(31,181,0)" 
d="M -38.7 -67.7
Q -38.0,-66.9,-37.3,-66.1
Q -36.0,-64.6,-34.7,-63.5
Q -34.0,-62.9,-33.3,-62.3
Q -33.9,-63.0,-34.5,-63.7
Q -35.6,-65.0,-38.7,-67.7
 " /> 
<path  
style="fill:rgb(31,181,0)" 
d="M -48.9 -93.9
Q -48.9,-99.5,-48.9,-105.0
Q -49.3,-99.2,-49.1,-96.6
Q -49.0,-95.2,-48.9,-93.9
 " /> 
<path  
style="fill:rgb(31,181,0)" 
d="M -23.6 -121.5
Q -21.3,-118.8,-20.0,-117.7
Q -19.3,-117.1,-18.7,-116.6
Q -19.2,-117.2,-19.8,-117.9
Q -20.9,-119.2,-22.2,-120.3
Q -22.9,-120.9,-23.6,-121.5
 " /> 
<path  
style="fill:rgb(31,181,0)" 
d="M -7.6 -63.2
Q -8.8,-62.3,-9.3,-61.7
Q -9.5,-61.3,-9.8,-61.0
Q -8.5,-61.9,-8.0,-62.6
Q -7.8,-62.9,-7.6,-63.2
 " /> 
<path  
style="fill:rgb(7,193,201)" 
d="M -68.0 -89.9
Q -68.0,-91.0,-68.0,-92.1
Q -68.2,-92.1,-68.4,-92.1
Q -68.4,-91.0,-68.4,-89.9
Q -68.2,-89.9,-68.0,-89.9
 " /> 
<path  
style="fill:rgb(14,103,171)" 
d="M -68.0 -92.1
Q -68.0,-93.2,-68.0,-94.3
Q -68.1,-94.3,-68.2,-94.3
Q -68.4,-94.2,-68.4,-92.1
Q -68.2,-92.1,-68.0,-92.1
 " /> 
<path  
style="fill:rgb(7,193,201)" 
d="M -68.0 -98.3
Q -67.6,-98.6,-67.6,-100.6
Q -67.6,-100.5,-67.7,-100.5
Q -67.9,-100.4,-68.0,-99.4
Q -68.0,-98.9,-68.0,-98.3
 " /> 
<path  
style="fill:rgb(14,103,171)" 
d="M -40.9 -160.1
Q -39.6,-161.1,-38.7,-162.3
Q -38.9,-162.2,-39.2,-162.0
Q -39.6,-161.7,-40.9,-160.1
 " /> 
<path  
style="fill:rgb(14,103,171)" 
d="M -15.6 -159.2
Q -14.2,-157.5,-12.0,-155.7
Q -12.4,-156.2,-12.9,-156.8
Q -13.8,-157.9,-14.7,-158.6
Q -15.1,-158.9,-15.6,-159.2
 " /> 
<path  
style="fill:rgb(14,103,171)" 
d="M -4.9 -146.3
Q -2.9,-146.3,-0.9,-146.3
Q -3.1,-146.8,-4.0,-146.6
Q -4.4,-146.5,-4.9,-146.3
 " /> 
<path  
style="fill:rgb(7,193,201)" 
d="M 10.2 -152.6
Q 10.8,-153.0,11.3,-153.5
Q 12.4,-154.4,13.3,-155.5
Q 13.8,-156.0,14.2,-156.6
Q 13.7,-156.1,13.1,-155.7
Q 12.0,-154.8,10.2,-152.6
 " /> 
<path  
style="fill:rgb(7,193,201)" 
d="M 39.6 -156.1
Q 39.9,-155.7,40.2,-155.3
Q 40.9,-154.4,42.0,-153.5
Q 42.6,-153.0,43.1,-152.6
Q 42.7,-153.1,42.2,-153.7
Q 41.3,-154.8,39.6,-156.1
 " /> 
<path  
style="fill:rgb(7,193,201)" 
d="M 57.8 -130.8
Q 59.6,-128.6,61.8,-126.8
Q 61.3,-127.3,60.9,-127.9
Q 60.0,-129.0,58.9,-129.9
Q 58.3,-130.3,57.8,-130.8
 " /> 
<path  
style="fill:rgb(14,103,171)" 
d="M 76.0 -81.9
Q 76.0,-80.6,76.0,-79.2
Q 76.2,-79.2,76.4,-79.2
Q 76.4,-81.5,76.4,-81.8
Q 76.3,-82.0,76.0,-81.9
 " /> 
<path  
style="fill:rgb(7,193,201)" 
d="M 76.0 -79.2
Q 76.0,-76.6,76.0,-76.3
Q 76.1,-76.0,76.2,-76.1
Q 76.3,-76.1,76.4,-76.1
Q 76.4,-77.7,76.4,-79.2
Q 76.2,-79.2,76.0,-79.2
 " /> 
<path  
style="fill:rgb(7,193,201)" 
d="M 76.4 -72.6
Q 76.1,-72.5,76.1,-72.1
Q 76.0,-71.7,76.0,-67.7
Q 76.1,-67.7,76.2,-67.7
Q 76.4,-67.8,76.4,-72.6
 " /> 
<path  
style="fill:rgb(7,193,201)" 
d="M 61.3 -33.9
Q 61.0,-33.7,60.7,-33.5
Q 60.0,-33.0,59.6,-32.3
Q 59.3,-32.0,59.1,-31.7
Q 59.4,-31.9,59.8,-32.1
Q 60.4,-32.6,61.3,-33.9
 " /> 
<path  
style="fill:rgb(14,103,171)" 
d="M 57.3 -25.9
Q 57.3,-24.6,57.3,-23.2
Q 57.5,-23.6,57.6,-23.9
Q 57.8,-24.6,57.3,-25.9
 " /> 
<path  
style="fill:rgb(7,193,201)" 
d="M 41.3 -10.8
Q 41.3,-9.7,41.3,-8.6
Q 41.8,-9.9,41.3,-10.8
 " /> 
<path  
style="fill:rgb(7,193,201)" 
d="M 30.2 -13.0
Q 28.2,-12.9,28.1,-12.7
Q 28.0,-12.7,28.0,-12.6
Q 30.0,-12.6,30.2,-13.0
 " /> 
<path  
style="fill:rgb(14,103,171)" 
d="M 12.0 -9.5
Q 10.9,-9.5,9.8,-9.5
Q 10.1,-9.3,10.4,-9.2
Q 11.1,-8.9,12.0,-9.5
 " /> 
<path  
style="fill:rgb(14,103,171)" 
d="M 3.1 -9.0
Q 1.8,-9.0,0.4,-9.0
Q 0.8,-8.9,1.1,-8.8
Q 1.8,-8.5,3.1,-9.0
 " /> 
<path  
style="fill:rgb(4,4,4)" 
d="M -12.4 -16.6
Q -13.0,-16.8,-13.6,-17.0
Q -13.9,-16.8,-14.2,-16.6
Q -13.6,-16.2,-12.9,-15.8
Q -12.7,-16.2,-12.4,-16.6
 " /> 
<path  
style="fill:rgb(4,4,4)" 
d="M -12.4 -16.6
Q -12.5,-16.8,-12.7,-17.0
Q -12.9,-17.4,-13.5,-17.0
Q -13.6,-17.0,-13.6,-17.0
Q -13.0,-16.8,-12.4,-16.6
 " /> 
<path  
style="fill:rgb(14,103,171)" 
d="M -12.4 -16.6
Q -12.4,-16.9,-12.4,-17.1
Q -12.2,-18.6,-13.8,-17.0
Q -13.7,-17.0,-13.6,-17.0
Q -13.6,-17.0,-13.5,-17.0
Q -12.9,-17.4,-12.7,-17.0
Q -12.5,-16.8,-12.4,-16.6
 " /> 
<path  
style="fill:rgb(97,247,248)" 
d="M 73.8 -49.0
Q 73.8,-48.8,73.8,-48.6
Q 83.1,-50.6,90.4,-55.5
Q 92.7,-57.0,92.8,-57.5
Q 93.1,-58.5,89.5,-56.2
Q 82.6,-52.1,77.9,-50.8
Q 76.4,-50.3,75.1,-49.7
Q 74.4,-49.3,73.8,-49.0
 " /> 
<path  
style="fill:rgb(14,103,171)" 
d="M 77.8 -62.8
Q 78.2,-62.9,78.2,-65.0
Q 77.8,-64.9,77.8,-63.8
Q 77.8,-63.3,77.8,-62.8
 " /> 
<path  
style="fill:rgb(14,103,171)" 
d="M 78.2 -68.6
Q 78.3,-69.9,78.4,-71.2
Q 78.7,-73.9,78.4,-76.6
Q 78.3,-77.9,78.2,-79.2
Q 78.2,-73.9,78.2,-68.6
 " /> 
<path  
style="fill:rgb(14,103,171)" 
d="M 78.2 -81.9
Q 78.2,-82.6,78.2,-83.2
Q 78.0,-83.2,77.8,-83.2
Q 77.9,-81.8,78.0,-81.8
Q 78.1,-81.9,78.2,-81.9
 " /> 
<path  
style="fill:rgb(97,247,248)" 
d="M 78.2 -81.9
Q 85.7,-87.5,90.7,-93.7
Q 103.8,-110.1,108.4,-123.0
Q 110.3,-128.1,109.5,-128.1
Q 109.1,-128.1,107.8,-124.5
Q 103.9,-113.3,93.9,-99.8
Q 85.8,-88.9,80.9,-85.2
Q 79.6,-84.2,78.2,-83.2
Q 78.2,-82.6,78.2,-81.9
 " /> 
<path  
style="fill:rgb(14,103,171)" 
d="M 78.2 -83.2
Q 78.2,-83.8,78.2,-84.4
Q 78.0,-84.9,77.8,-85.5
Q 77.8,-84.1,77.8,-83.2
Q 78.0,-83.2,78.2,-83.2
 " /> 
<path  
style="fill:rgb(14,103,171)" 
d="M 77.8 -85.5
Q 78.0,-84.9,78.2,-84.4
Q 78.2,-84.4,78.2,-84.4
Q 78.3,-85.6,78.0,-85.5
Q 77.9,-85.5,77.8,-85.5
 " /> 
<path  
style="fill:rgb(97,247,248)" 
d="M 76.0 -100.1
Q 77.0,-100.9,77.9,-101.7
Q 87.6,-109.6,87.6,-131.7
Q 87.6,-140.1,86.6,-140.1
Q 86.1,-140.1,86.4,-136.2
Q 87.8,-114.7,78.2,-103.2
Q 77.1,-101.9,76.0,-100.6
Q 76.0,-100.3,76.0,-100.1
 " /> 
<path  
style="fill:rgb(14,103,171)" 
d="M 64.4 -127.7
Q 63.9,-128.3,63.3,-129.0
Q 62.2,-130.3,60.7,-131.7
Q 59.9,-132.3,59.1,-133.0
Q 59.8,-132.2,60.5,-131.5
Q 61.8,-129.9,64.4,-127.7
 " /> 
<path  
style="fill:rgb(14,103,171)" 
d="M 60.0 -141.9
Q 60.5,-141.9,61.1,-141.5
Q 61.5,-141.2,61.8,-141.0
Q 61.4,-141.5,61.1,-141.9
Q 60.0,-143.4,60.0,-141.9
 " /> 
<path  
style="fill:rgb(7,193,201)" 
d="M 60.0 -141.9
Q 60.2,-141.3,60.3,-140.7
Q 61.0,-140.9,61.8,-141.0
Q 61.5,-141.2,61.1,-141.5
Q 60.5,-141.9,60.0,-141.9
 " /> 
<path  
style="fill:rgb(14,103,171)" 
d="M 80.4 -147.2
Q 80.6,-147.3,80.7,-147.3
Q 80.9,-147.4,80.9,-156.6
Q 80.6,-156.5,80.5,-156.1
Q 80.5,-155.7,80.4,-147.2
 " /> 
<path  
style="fill:rgb(14,103,171)" 
d="M 84.4 -161.0
Q 84.7,-160.7,84.9,-160.4
Q 85.4,-159.7,86.2,-159.0
Q 86.7,-158.7,87.1,-158.3
Q 85.8,-160.1,84.4,-161.0
 " /> 
<path  
style="fill:rgb(14,103,171)" 
d="M 111.6 -153.0
Q 112.8,-154.0,113.8,-155.2
Q 113.4,-155.0,113.1,-154.8
Q 112.5,-154.3,112.0,-153.7
Q 111.8,-153.3,111.6,-153.0
 " /> 
<path  
style="fill:rgb(14,103,171)" 
d="M 117.8 -143.7
Q 117.7,-143.6,117.6,-143.6
Q 117.3,-143.5,117.3,-139.7
Q 117.4,-139.7,117.5,-139.7
Q 117.7,-139.8,117.8,-141.7
Q 117.8,-142.7,117.8,-143.7
 " /> 
<path  
style="fill:rgb(14,103,171)" 
d="M 122.7 -112.6
Q 122.6,-112.5,122.4,-112.5
Q 122.2,-112.4,122.2,-111.4
Q 122.2,-110.9,122.2,-110.3
Q 122.3,-110.4,122.4,-110.4
Q 122.6,-110.5,122.6,-111.5
Q 122.7,-112.1,122.7,-112.6
 " /> 
<path  
style="fill:rgb(14,103,171)" 
d="M 104.9 -55.7
Q 104.4,-55.3,104.0,-55.0
Q 103.1,-54.3,101.3,-52.1
Q 101.9,-52.6,102.4,-53.0
Q 103.5,-53.9,104.2,-54.8
Q 104.5,-55.2,104.9,-55.7
 " /> 
<path  
style="fill:rgb(97,247,248)" 
d="M 72.6 -121.0
Q 72.5,-120.0,72.4,-119.0
Q 72.7,-119.4,73.0,-119.9
Q 74.7,-121.8,74.7,-127.2
Q 74.7,-131.8,73.6,-130.8
Q 73.4,-130.6,73.2,-126.8
Q 72.9,-123.0,72.6,-121.0
 " /> 
<path  
style="fill:rgb(97,247,248)" 
d="M 65.0 -131.5
Q 64.8,-129.5,65.2,-129.5
Q 65.7,-129.5,66.0,-131.5
Q 66.3,-133.5,66.0,-133.8
Q 65.4,-134.4,65.0,-131.5
 " /> 
<path  
style="fill:rgb(4,4,4)" 
d="M -3.8 25.8
Q -3.4,25.7,-3.0,25.7
Q -3.1,25.6,-3.1,24.6
Q -3.1,24.6,-3.1,24.6
Q -3.1,24.0,-3.1,23.5
Q -3.6,23.5,-4.1,23.5
Q -3.8,26.7,-3.4,29.3
 " /> 
<path  
style="fill:rgb(14,103,171)" 
d="M -78.7 -41.9
Q -78.2,-41.6,-77.8,-41.2
Q -76.9,-40.6,-75.6,-39.9
Q -74.9,-39.6,-74.2,-39.2
Q -74.7,-39.6,-75.1,-39.9
Q -76.0,-40.6,-77.3,-41.2
Q -78.0,-41.6,-78.7,-41.9
 " /> 
<path  
style="fill:rgb(14,103,171)" 
d="M -96.4 -54.8
Q -97.8,-56.6,-99.6,-57.9
Q -99.2,-57.5,-98.9,-57.0
Q -98.2,-56.2,-97.3,-55.5
Q -96.9,-55.1,-96.4,-54.8
 " /> 
<path  
style="fill:rgb(14,103,171)" 
d="M -108.0 -116.6
Q -107.9,-118.4,-108.0,-118.7
Q -108.1,-118.9,-108.4,-118.8
Q -108.4,-116.9,-108.4,-116.6
Q -108.3,-116.4,-108.0,-116.6
 " /> 
<path  
style="fill:rgb(14,103,171)" 
d="M -108.4 -128.6
Q -108.0,-128.8,-108.0,-130.8
Q -108.4,-130.6,-108.4,-129.6
Q -108.4,-129.1,-108.4,-128.6
 " /> 
<path  
style="fill:rgb(14,103,171)" 
d="M -96.9 -147.2
Q -96.8,-150.1,-97.1,-150.0
Q -97.2,-150.0,-97.3,-149.9
Q -97.3,-147.5,-97.3,-147.3
Q -97.2,-147.1,-96.9,-147.2
 " /> 
<path  
style="fill:rgb(14,103,171)" 
d="M -97.3 -151.7
Q -97.3,-154.0,-97.3,-154.2
Q -97.4,-154.5,-97.8,-154.3
Q -97.8,-152.0,-97.7,-151.8
Q -97.7,-151.5,-97.3,-151.7
 " /> 
<path  
style="fill:rgb(14,103,171)" 
d="M -97.8 -154.8
Q -97.4,-155.0,-97.4,-155.4
Q -97.3,-155.9,-97.3,-159.2
Q -97.7,-159.1,-97.7,-156.9
Q -97.8,-155.9,-97.8,-154.8
 " /> 
<path  
style="fill:rgb(14,103,171)" 
d="M -76.4 -143.2
Q -76.5,-135.5,-76.3,-135.6
Q -76.1,-135.6,-76.0,-135.7
Q -76.0,-142.9,-76.1,-143.2
Q -76.1,-143.4,-76.4,-143.2
 " /> 
<path  
style="fill:rgb(14,103,171)" 
d="M -76.0 -135.2
Q -76.1,-135.0,-76.3,-134.8
Q -76.5,-134.3,-76.3,-133.7
Q -76.1,-133.3,-76.0,-133.0
Q -76.0,-134.1,-76.0,-135.2
 " /> 
<path  
style="fill:rgb(14,103,171)" 
d="M -60.9 -159.7
Q -61.3,-159.5,-61.3,-156.6
Q -61.2,-156.6,-61.1,-156.7
Q -61.0,-156.7,-60.9,-158.2
Q -60.9,-159.0,-60.9,-159.7
 " /> 
<path  
style="fill:rgb(14,103,171)" 
d="M -61.3 -152.1
Q -61.8,-151.9,-61.8,-149.0
Q -61.7,-149.1,-61.6,-149.1
Q -61.4,-149.2,-61.3,-152.1
 " /> 
<path  
style="fill:rgb(14,103,171)" 
d="M -61.8 -145.5
Q -62.2,-145.2,-62.2,-144.0
Q -62.2,-143.4,-62.2,-142.8
Q -62.1,-142.8,-62.0,-142.9
Q -61.8,-143.0,-61.8,-145.5
 " /> 
<path  
style="fill:rgb(14,103,171)" 
d="M -62.2 -141.5
Q -62.2,-140.6,-62.3,-139.8
Q -62.0,-139.1,-61.8,-138.3
Q -61.8,-141.2,-61.8,-141.4
Q -61.9,-141.6,-62.2,-141.5
 " /> 
<path  
style="fill:rgb(14,103,171)" 
d="M -61.8 -138.3
Q -62.0,-139.1,-62.3,-139.8
Q -62.3,-139.8,-62.3,-139.8
Q -62.3,-138.2,-62.0,-138.3
Q -61.9,-138.3,-61.8,-138.3
 " /> 
<path  
style="fill:rgb(14,103,171)" 
d="M -64.9 -121.0
Q -65.9,-120.2,-66.1,-119.5
Q -66.1,-119.1,-66.2,-118.8
Q -66.0,-119.0,-65.8,-119.2
Q -65.4,-119.7,-64.9,-121.0
 " /> 
<path  
style="fill:rgb(97,247,248)" 
d="M -68.9 -107.7
Q -69.1,-107.0,-69.3,-106.3
Q -69.2,-106.4,-69.1,-106.4
Q -68.9,-106.5,-68.9,-107.7
 " /> 
<path  
style="fill:rgb(97,247,248)" 
d="M -68.9 -107.7
Q -69.7,-108.5,-70.6,-109.3
Q -73.9,-112.4,-76.0,-118.1
Q -77.0,-120.8,-77.6,-122.3
Q -78.0,-123.1,-78.3,-123.9
Q -78.7,-122.6,-77.7,-119.7
Q -75.3,-112.4,-70.7,-107.7
Q -70.0,-107.0,-69.3,-106.3
Q -69.1,-107.0,-68.9,-107.7
 " /> 
<path  
style="fill:rgb(97,247,248)" 
d="M -70.2 -91.7
Q -71.2,-92.6,-72.1,-93.5
Q -81.2,-102.1,-82.9,-112.1
Q -83.2,-113.9,-83.6,-113.9
Q -85.2,-113.9,-82.1,-106.2
Q -78.1,-96.5,-72.2,-91.9
Q -71.2,-91.1,-70.2,-90.3
Q -70.2,-91.0,-70.2,-91.7
 " /> 
<path  
style="fill:rgb(14,103,171)" 
d="M -70.2 -84.1
Q -70.2,-83.4,-70.3,-82.7
Q -70.0,-82.1,-69.8,-81.5
Q -69.8,-83.8,-69.8,-84.0
Q -69.9,-84.3,-70.2,-84.1
 " /> 
<path  
style="fill:rgb(14,103,171)" 
d="M -69.8 -81.5
Q -70.0,-82.1,-70.3,-82.7
Q -70.3,-82.7,-70.3,-82.7
Q -70.3,-81.3,-69.8,-81.5
 " /> 
<path  
style="fill:rgb(14,103,171)" 
d="M -68.9 -73.9
Q -68.9,-72.4,-68.4,-72.6
Q -68.4,-73.4,-68.4,-73.9
Q -68.7,-73.9,-68.9,-73.9
 " /> 
<path  
style="fill:rgb(97,247,248)" 
d="M -60.4 -46.3
Q -61.9,-46.6,-63.4,-46.9
Q -75.7,-49.3,-90.0,-62.9
Q -92.3,-65.1,-92.7,-64.6
Q -93.5,-63.1,-82.4,-55.1
Q -69.8,-46.0,-61.8,-45.2
Q -60.7,-45.1,-59.6,-45.0
Q -60.0,-45.7,-60.4,-46.3
 " /> 
<path  
style="fill:rgb(7,193,201)" 
d="M -13.8 -160.1
Q -13.2,-159.7,-12.7,-159.2
Q -11.6,-158.3,-10.9,-157.5
Q -10.6,-157.0,-10.2,-156.6
Q -9.4,-155.6,-8.7,-154.6
Q -7.1,-152.6,-5.7,-150.3
Q -4.4,-148.1,-2.1,-148.1
Q 0.2,-148.1,2.3,-147.9
Q 4.4,-147.6,5.9,-150.0
Q 7.5,-152.3,9.1,-154.0
Q 9.9,-154.8,10.7,-155.7
Q 11.0,-156.0,11.2,-156.4
Q 11.8,-157.1,12.6,-157.7
Q 13.0,-158.0,13.3,-158.3
Q 14.4,-159.1,15.6,-159.9
Q 20.1,-163.1,24.7,-179.0
Q 26.1,-183.6,26.7,-190.6
Q 26.1,-189.9,25.5,-189.2
Q 22.4,-185.8,19.0,-176.2
Q 16.6,-169.5,16.0,-169.5
Q 14.7,-169.5,16.9,-175.7
Q 20.2,-185.1,14.1,-185.8
Q 12.1,-186.0,11.9,-185.2
Q 11.6,-184.3,10.1,-178.9
Q 8.3,-171.9,7.3,-173.7
Q 6.9,-174.3,8.7,-180.5
Q 9.8,-184.7,9.0,-185.3
Q 8.2,-185.9,9.4,-186.9
Q 10.6,-187.9,11.1,-191.3
Q 11.6,-194.6,12.0,-196.6
Q 12.4,-198.6,12.4,-203.0
Q 12.1,-202.7,11.8,-202.3
Q 10.4,-200.8,8.4,-189.9
Q 7.1,-182.7,6.3,-182.9
Q 5.2,-183.2,6.4,-189.0
Q 7.4,-194.0,5.0,-198.8
Q 3.7,-201.2,2.4,-202.0
Q 1.8,-202.5,1.2,-202.9
Q 1.2,-201.4,1.2,-200.0
Q 1.3,-198.5,1.3,-197.0
Q 1.8,-197.2,1.8,-195.3
Q 1.8,-194.4,1.8,-193.5
Q 1.8,-191.9,1.8,-190.3
Q 1.9,-190.4,2.0,-190.4
Q 2.2,-190.5,2.2,-190.2
Q 2.3,-190.0,2.2,-185.5
Q 2.2,-183.7,2.2,-181.9
Q 1.3,-181.0,0.9,-181.2
Q 0.4,-181.5,0.4,-184.6
Q 0.4,-186.1,0.4,-187.7
Q 0.3,-188.0,0.2,-188.3
Q -0.0,-189.0,0.4,-190.3
Q 0.2,-191.6,0.0,-192.8
Q -0.4,-195.2,-0.4,-197.0
Q -0.4,-197.9,-0.4,-198.8
Q -0.6,-198.8,-0.7,-198.7
Q -1.0,-198.6,-0.9,-199.8
Q -0.9,-199.8,-0.9,-199.8
Q -0.9,-200.4,-0.9,-201.0
Q -1.8,-207.2,-2.2,-209.6
Q -3.2,-214.1,-4.9,-220.1
Q -6.1,-221.3,-7.1,-220.6
Q -7.3,-219.8,-7.6,-219.0
Q -8.0,-217.5,-8.0,-212.4
Q -8.0,-209.8,-8.0,-207.2
Q -7.6,-207.4,-7.6,-207.1
Q -7.5,-206.9,-7.6,-203.2
Q -7.6,-201.9,-7.6,-200.6
Q -7.4,-200.6,-7.3,-200.7
Q -7.2,-200.7,-7.1,-200.4
Q -7.1,-200.2,-7.1,-198.3
Q -7.1,-197.5,-7.1,-196.6
Q -7.0,-196.6,-6.9,-196.7
Q -6.6,-196.7,-6.7,-194.3
Q -6.7,-193.7,-6.7,-193.0
Q -6.5,-193.1,-6.4,-193.1
Q -6.1,-193.2,-6.2,-191.8
Q -6.2,-191.8,-6.2,-191.8
Q -6.2,-191.1,-6.2,-190.3
Q -6.2,-189.7,-6.2,-189.0
Q -5.7,-189.2,-5.7,-187.5
Q -5.7,-187.5,-5.7,-187.5
Q -5.8,-186.7,-5.8,-185.9
Q -5.7,-185.4,-5.7,-184.8
Q -5.6,-183.8,-6.1,-183.5
Q -6.4,-183.4,-6.7,-183.2
Q -7.7,-183.6,-7.6,-184.8
Q -7.6,-185.3,-7.6,-185.9
Q -7.6,-186.8,-7.6,-187.7
Q -7.7,-187.6,-7.8,-187.6
Q -8.1,-187.5,-8.0,-188.7
Q -8.0,-188.7,-8.0,-188.7
Q -8.0,-189.3,-8.0,-189.9
Q -8.2,-191.2,-8.4,-192.6
Q -8.9,-195.2,-8.9,-196.8
Q -8.9,-197.6,-8.9,-198.3
Q -9.3,-198.2,-9.3,-198.5
Q -9.4,-198.7,-9.3,-201.9
Q -9.8,-202.8,-10.6,-201.8
Q -13.5,-198.3,-10.4,-188.8
Q -8.3,-182.3,-9.4,-182.3
Q -10.3,-182.3,-11.8,-187.2
Q -12.5,-189.7,-13.1,-190.8
Q -13.6,-192.0,-13.9,-193.1
Q -14.2,-194.1,-14.8,-195.5
Q -15.5,-196.8,-16.2,-199.0
Q -17.0,-201.2,-17.8,-202.1
Q -17.7,-201.0,-17.6,-199.9
Q -17.3,-197.7,-16.7,-195.2
Q -16.0,-192.8,-14.9,-187.7
Q -13.7,-182.6,-12.4,-177.9
Q -10.4,-171.0,-11.4,-170.5
Q -12.2,-170.2,-15.6,-182.8
Q -17.3,-189.0,-17.6,-189.4
Q -18.1,-190.0,-20.8,-187.6
Q -22.7,-185.8,-20.5,-182.3
Q -19.2,-180.3,-17.4,-177.4
Q -15.6,-174.4,-13.8,-171.6
Q -10.1,-166.1,-12.3,-167.0
Q -13.1,-167.3,-13.4,-167.8
Q -13.7,-168.4,-15.1,-170.3
Q -16.6,-172.3,-18.6,-175.4
Q -20.6,-178.5,-21.7,-180.2
Q -23.9,-183.7,-25.8,-187.0
Q -31.6,-197.7,-32.4,-196.4
Q -32.7,-195.6,-31.3,-187.9
Q -29.2,-177.1,-26.1,-169.7
Q -24.5,-166.1,-20.5,-164.5
Q -17.6,-163.4,-13.8,-160.1
 " /> 
<path  
style="fill:rgb(14,103,171)" 
d="M -13.8 -160.1
Q -12.0,-157.9,-10.2,-156.6
Q -10.6,-157.0,-10.9,-157.5
Q -11.6,-158.3,-12.7,-159.2
Q -13.2,-159.7,-13.8,-160.1
 " /> 
<path  
style="fill:rgb(14,103,171)" 
d="M -9.3 -201.9
Q -9.4,-198.7,-9.3,-198.5
Q -9.3,-198.2,-8.9,-198.3
Q -8.9,-199.7,-8.9,-200.6
Q -8.9,-201.7,-8.9,-201.8
Q -9.0,-202.1,-9.3,-201.9
 " /> 
<path  
style="fill:rgb(4,4,4)" 
d="M -8.9 -198.3
Q -8.2,-198.5,-7.5,-198.7
Q -7.6,-198.9,-7.6,-199.3
Q -7.6,-200.0,-7.6,-200.6
Q -8.2,-200.6,-8.9,-200.6
Q -8.9,-199.7,-8.9,-198.3
 " /> 
<path  
style="fill:rgb(4,4,4)" 
d="M -8.9 -198.3
Q -8.9,-197.6,-8.9,-196.8
Q -8.9,-195.2,-8.4,-192.6
Q -8.2,-191.2,-8.0,-189.9
Q -7.9,-190.0,-7.8,-190.0
Q -7.2,-190.2,-6.6,-190.4
Q -6.6,-190.4,-6.6,-190.4
Q -6.7,-190.7,-6.7,-193.0
Q -6.7,-193.7,-6.7,-194.3
Q -7.0,-194.2,-7.1,-194.4
Q -7.1,-194.7,-7.1,-196.6
Q -7.1,-197.5,-7.1,-198.3
Q -7.4,-198.2,-7.5,-198.7
Q -8.2,-198.5,-8.9,-198.3
 " /> 
<path  
style="fill:rgb(14,103,171)" 
d="M -8.0 -189.9
Q -8.0,-189.3,-8.0,-188.7
Q -7.8,-188.2,-7.6,-187.7
Q -7.6,-188.5,-7.6,-189.0
Q -7.6,-189.7,-7.6,-189.8
Q -7.6,-189.9,-7.6,-189.9
Q -7.7,-190.0,-7.8,-190.0
Q -7.9,-189.9,-8.0,-189.9
 " /> 
<path  
style="fill:rgb(4,4,4)" 
d="M -7.6 -187.7
Q -6.9,-187.7,-6.2,-187.7
Q -6.2,-188.3,-6.2,-189.0
Q -6.9,-189.0,-7.6,-189.0
Q -7.6,-188.5,-7.6,-187.7
 " /> 
<path  
style="fill:rgb(4,4,4)" 
d="M -7.6 -187.7
Q -7.6,-186.8,-7.6,-185.9
Q -6.9,-186.0,-6.2,-186.0
Q -6.2,-186.4,-6.2,-187.8
Q -6.9,-187.7,-7.6,-187.7
 " /> 
<path  
style="fill:rgb(14,103,171)" 
d="M -7.6 -187.7
Q -7.8,-188.2,-8.0,-188.7
Q -8.0,-188.7,-8.0,-188.7
Q -8.1,-187.5,-7.8,-187.6
Q -7.7,-187.6,-7.6,-187.7
 " /> 
<path  
style="fill:rgb(4,4,4)" 
d="M -7.6 -185.9
Q -7.2,-184.5,-6.9,-183.9
Q -6.8,-183.6,-6.7,-183.2
Q -6.4,-183.4,-6.1,-183.5
Q -5.6,-183.8,-5.7,-184.8
Q -5.7,-185.4,-5.8,-185.9
Q -6.1,-185.7,-6.2,-186.0
Q -6.2,-186.0,-6.2,-186.0
Q -6.9,-186.0,-7.6,-185.9
 " /> 
<path  
style="fill:rgb(14,103,171)" 
d="M -7.6 -185.9
Q -7.6,-185.3,-7.6,-184.8
Q -7.7,-183.6,-6.7,-183.2
Q -6.8,-183.6,-6.9,-183.9
Q -7.2,-184.5,-7.6,-185.9
 " /> 
<path  
style="fill:rgb(14,103,171)" 
d="M -5.8 -185.9
Q -5.8,-186.7,-5.7,-187.5
Q -6.0,-188.3,-6.2,-189.0
Q -6.2,-188.3,-6.2,-187.7
Q -6.2,-186.3,-6.2,-186.0
Q -6.2,-186.0,-6.2,-186.0
Q -6.1,-185.7,-5.8,-185.9
 " /> 
<path  
style="fill:rgb(4,4,4)" 
d="M -6.2 -189.0
Q -6.2,-189.7,-6.2,-190.3
Q -6.3,-190.3,-6.4,-190.3
Q -7.0,-190.1,-7.6,-189.9
Q -7.6,-189.9,-7.6,-189.8
Q -7.6,-189.7,-7.6,-189.0
Q -6.9,-189.0,-6.2,-189.0
 " /> 
<path  
style="fill:rgb(14,103,171)" 
d="M -6.2 -189.0
Q -6.0,-188.3,-5.7,-187.5
Q -5.7,-187.5,-5.7,-187.5
Q -5.7,-189.2,-6.2,-189.0
 " /> 
<path  
style="fill:rgb(14,103,171)" 
d="M -6.2 -190.3
Q -6.2,-191.1,-6.2,-191.8
Q -6.4,-192.4,-6.7,-193.0
Q -6.7,-190.7,-6.6,-190.4
Q -6.6,-190.4,-6.6,-190.4
Q -6.6,-190.3,-6.4,-190.3
Q -6.3,-190.3,-6.2,-190.3
 " /> 
<path  
style="fill:rgb(14,103,171)" 
d="M -6.7 -193.0
Q -6.4,-192.4,-6.2,-191.8
Q -6.2,-191.8,-6.2,-191.8
Q -6.1,-193.2,-6.4,-193.1
Q -6.5,-193.1,-6.7,-193.0
 " /> 
<path  
style="fill:rgb(14,103,171)" 
d="M -6.7 -194.3
Q -6.6,-196.7,-6.9,-196.7
Q -7.0,-196.6,-7.1,-196.6
Q -7.1,-194.7,-7.1,-194.4
Q -7.0,-194.2,-6.7,-194.3
 " /> 
<path  
style="fill:rgb(14,103,171)" 
d="M -7.1 -198.3
Q -7.1,-200.2,-7.1,-200.4
Q -7.2,-200.7,-7.3,-200.7
Q -7.4,-200.6,-7.6,-200.6
Q -7.6,-200.0,-7.6,-199.3
Q -7.6,-198.9,-7.5,-198.7
Q -7.4,-198.2,-7.1,-198.3
 " /> 
<path  
style="fill:rgb(14,103,171)" 
d="M -7.6 -203.2
Q -7.5,-206.9,-7.6,-207.1
Q -7.6,-207.4,-8.0,-207.2
Q -8.0,-203.5,-7.9,-203.3
Q -7.9,-203.1,-7.6,-203.2
 " /> 
<path  
style="fill:rgb(14,103,171)" 
d="M -7.1 -220.6
Q -6.1,-221.3,-4.9,-220.1
Q -5.2,-220.5,-5.5,-221.0
Q -6.0,-221.8,-6.6,-221.2
Q -6.8,-220.9,-7.1,-220.6
 " /> 
<path  
style="fill:rgb(14,103,171)" 
d="M -0.9 -201.0
Q -0.9,-200.4,-0.9,-199.8
Q -0.7,-199.3,-0.4,-198.8
Q -0.4,-200.7,-0.5,-201.0
Q -0.6,-201.2,-0.9,-201.0
 " /> 
<path  
style="fill:rgb(14,103,171)" 
d="M -0.4 -198.8
Q -0.7,-199.3,-0.9,-199.8
Q -0.9,-199.8,-0.9,-199.8
Q -1.0,-198.6,-0.7,-198.7
Q -0.6,-198.8,-0.4,-198.8
 " /> 
<path  
style="fill:rgb(4,4,4)" 
d="M 0.4 -190.3
Q 0.4,-189.0,0.4,-187.7
Q 1.1,-187.7,1.8,-187.7
Q 1.8,-188.8,1.8,-190.3
Q 1.1,-190.3,0.4,-190.3
 " /> 
<path  
style="fill:rgb(14,103,171)" 
d="M 0.4 -190.3
Q -0.0,-189.0,0.2,-188.3
Q 0.3,-188.0,0.4,-187.7
Q 0.4,-189.0,0.4,-190.3
 " /> 
<path  
style="fill:rgb(4,4,4)" 
d="M 0.4 -187.7
Q 0.4,-186.1,0.4,-184.6
Q 0.8,-181.2,1.5,-181.5
Q 1.9,-181.7,2.2,-181.9
Q 2.2,-183.7,2.2,-185.5
Q 2.1,-185.4,2.0,-185.4
Q 1.8,-185.3,1.8,-187.7
Q 1.1,-187.7,0.4,-187.7
 " /> 
<path  
style="fill:rgb(14,103,171)" 
d="M 0.4 -184.6
Q 0.4,-181.5,0.9,-181.2
Q 1.3,-181.0,2.2,-181.9
Q 1.9,-181.7,1.5,-181.5
Q 0.8,-181.2,0.4,-184.6
 " /> 
<path  
style="fill:rgb(14,103,171)" 
d="M 2.2 -185.5
Q 2.3,-190.0,2.2,-190.2
Q 2.2,-190.5,2.0,-190.4
Q 1.9,-190.4,1.8,-190.3
Q 1.8,-188.8,1.8,-187.7
Q 1.8,-185.3,2.0,-185.4
Q 2.1,-185.4,2.2,-185.5
 " /> 
<path  
style="fill:rgb(14,103,171)" 
d="M 1.8 -193.5
Q 1.8,-194.4,1.8,-195.3
Q 1.8,-197.2,1.3,-197.0
Q 1.3,-196.1,1.3,-195.1
Q 1.3,-193.8,1.4,-193.5
Q 1.4,-193.3,1.8,-193.5
 " /> 
<path  
style="fill:rgb(14,103,171)" 
d="M 13.3 -158.3
Q 13.0,-158.0,12.6,-157.7
Q 11.8,-157.1,11.2,-156.4
Q 11.0,-156.0,10.7,-155.7
Q 12.4,-157.0,13.3,-158.3
 " /> 
<path  
style="fill:rgb(4,4,4)" 
d="M -6.6 -190.4
Q -7.2,-190.2,-7.8,-190.0
Q -7.7,-190.0,-7.6,-189.9
Q -7.0,-190.1,-6.4,-190.3
Q -6.6,-190.3,-6.6,-190.4
 " /> 
</g> 
</svg> 
