<?xml version="1.0"?>
<!DOCTYPE svg PUBLIC "-//W3C//DTD SVG 1.1//EN" "http://www.w3.org/Graphics/SVG/1.1/DTD/svg11.dtd">
<svg xmlns="http://www.w3.org/2000/svg" version="1.1">
<g transform="translate(113.1,227.5)" stroke-width="0" fill="none" >
<path  
style="fill:rgb(4,4,4)" 
d="M 19.1 220.6
Q 19.6,221.7,21.2,221.5
Q 22.8,221.3,24.8,218.9
Q 30.4,212.2,34.3,208.0
Q 36.7,205.3,39.2,202.4
Q 55.1,183.8,55.1,182.6
Q 55.1,182.2,55.9,181.5
Q 57.0,180.6,62.1,172.2
Q 76.2,149.3,67.8,132.0
Q 65.3,126.8,52.1,113.7
Q 43.7,105.3,41.9,102.7
Q 34.3,91.4,32.6,78.8
Q 32.5,77.7,32.3,76.6
Q 41.5,85.8,49.2,81.8
Q 58.2,77.3,57.1,61.0
Q 55.9,41.5,44.8,22.9
Q 38.4,12.2,33.5,-0.2
Q 30.1,-9.1,27.9,-11.6
Q 26.1,-13.7,26.5,-13.9
Q 30.2,-15.5,31.3,-11.4
Q 34.7,0.3,38.5,-1.7
Q 41.3,-3.1,42.2,-10.3
Q 42.7,-14.5,42.3,-16.6
Q 41.9,-18.7,43.9,-20.8
Q 46.9,-24.0,47.0,-22.5
Q 47.6,-16.9,49.8,-13.2
Q 52.3,-9.2,54.9,-12.1
Q 58.6,-16.2,58.9,-26.6
Q 59.0,-31.8,61.5,-34.3
Q 64.1,-36.9,68.4,-38.0
Q 93.2,-44.3,106.3,-56.6
Q 115.2,-64.9,113.0,-68.1
Q 111.4,-70.3,104.7,-66.7
Q 100.8,-64.6,100.5,-64.8
Q 99.7,-65.7,107.6,-75.0
Q 116.9,-85.8,122.5,-99.0
Q 127.6,-111.0,126.4,-116.7
Q 124.5,-125.3,115.1,-112.3
Q 113.1,-109.6,113.0,-109.7
Q 112.9,-109.8,115.6,-117.3
Q 124.2,-141.4,122.2,-152.9
Q 120.6,-161.7,115.8,-159.3
Q 112.8,-157.8,110.0,-152.0
Q 108.2,-148.0,104.7,-139.5
Q 102.7,-134.8,102.3,-135.1
Q 102.1,-135.2,101.2,-138.5
Q 94.6,-160.4,90.9,-164.6
Q 85.7,-170.3,83.0,-163.8
Q 81.3,-160.0,81.3,-153.5
Q 81.3,-142.3,74.2,-151.1
Q 71.8,-154.0,70.9,-153.9
Q 68.1,-153.3,69.5,-149.7
Q 70.2,-148.0,70.8,-143.2
Q 70.1,-143.6,69.5,-143.9
Q 68.2,-144.5,66.2,-146.4
Q 62.4,-150.1,60.7,-149.9
Q 58.5,-149.5,59.7,-146.0
Q 60.8,-143.1,59.7,-142.6
Q 56.6,-141.0,54.3,-141.9
Q 53.1,-142.4,51.8,-145.8
Q 46.6,-160.0,36.6,-164.8
Q 29.9,-168.1,21.4,-166.9
Q 21.7,-167.6,22.0,-168.3
Q 22.6,-169.8,23.8,-172.9
Q 31.9,-193.8,28.3,-195.9
Q 25.8,-197.3,21.8,-189.8
Q 21.0,-188.4,20.3,-187.0
Q 18.4,-190.6,15.2,-191.4
Q 13.9,-191.7,13.6,-192.1
Q 13.3,-192.7,14.6,-198.4
Q 17.3,-209.3,14.1,-209.3
Q 11.9,-209.3,10.4,-205.1
Q 9.7,-203.1,8.8,-200.9
Q 8.2,-202.2,7.6,-203.6
Q 5.6,-207.9,2.2,-209.2
Q 1.8,-209.3,1.4,-212.4
Q -0.3,-223.6,-1.7,-225.5
Q -3.5,-227.8,-5.0,-227.4
Q -7.8,-226.8,-8.3,-216.7
Q -7.5,-216.7,-6.7,-216.6
Q -6.6,-219.7,-6.6,-220.1
Q -6.5,-220.5,-6.2,-220.6
Q -4.6,-224.5,-4.1,-224.8
Q -3.1,-225.5,-1.6,-217.6
Q -0.9,-214.0,0.0,-206.4
Q 0.4,-206.6,0.4,-205.4
Q 0.4,-204.8,0.4,-204.2
Q 0.4,-202.6,0.4,-201.1
Q 0.8,-201.2,0.8,-201.0
Q 1.5,-201.3,2.2,-201.5
Q 2.2,-202.9,2.2,-204.4
Q 2.2,-207.6,2.8,-207.0
Q 9.2,-200.8,6.9,-192.3
Q 5.6,-187.3,6.7,-187.0
Q 7.4,-186.8,8.8,-192.6
Q 10.2,-198.4,11.6,-202.4
Q 11.7,-202.9,11.9,-203.3
Q 12.4,-204.9,12.9,-206.4
Q 13.2,-206.6,13.3,-206.3
Q 13.3,-206.3,13.3,-206.3
Q 13.3,-206.2,13.4,-206.2
Q 14.0,-206.0,13.6,-204.4
Q 13.5,-203.7,13.3,-202.9
Q 13.1,-201.6,12.9,-200.4
Q 11.4,-191.8,9.9,-190.5
Q 8.7,-189.5,9.6,-189.3
Q 10.6,-189.0,8.5,-182.5
Q 7.0,-177.9,8.1,-177.7
Q 8.8,-177.5,10.4,-182.4
Q 12.0,-187.3,12.4,-188.4
Q 12.7,-189.0,12.9,-189.5
Q 13.8,-190.0,14.4,-189.8
Q 14.8,-189.7,15.1,-189.5
Q 17.4,-188.9,18.3,-186.7
Q 19.2,-184.5,18.5,-182.9
Q 15.1,-174.6,15.6,-173.7
Q 16.3,-172.5,19.3,-179.8
Q 22.4,-187.4,26.2,-193.1
Q 27.7,-194.4,27.3,-192.2
Q 27.3,-192.2,27.3,-192.2
Q 27.2,-191.5,27.1,-190.9
Q 26.9,-189.7,26.7,-188.6
Q 25.7,-184.1,23.5,-178.0
Q 22.6,-175.5,21.7,-173.2
Q 20.9,-170.9,18.7,-166.4
Q 17.8,-165.1,16.9,-164.4
Q 16.4,-164.1,16.0,-163.7
Q 12.9,-161.9,11.8,-160.6
Q 11.2,-160.0,10.7,-159.3
Q 10.4,-159.0,10.1,-158.6
Q 9.5,-157.9,9.0,-157.5
Q 8.7,-157.3,8.4,-157.1
Q 5.1,-152.7,4.4,-152.4
Q 3.6,-152.0,2.4,-152.1
Q 0.2,-152.2,-2.1,-152.2
Q -4.4,-152.2,-5.7,-154.4
Q -12.3,-165.1,-21.1,-169.1
Q -24.8,-170.8,-26.8,-176.7
Q -29.4,-184.0,-30.3,-190.0
Q -30.7,-192.9,-31.1,-195.1
Q -31.6,-197.3,-31.6,-201.7
Q -29.4,-199.3,-26.9,-194.5
Q -23.6,-188.5,-21.1,-184.6
Q -20.1,-183.1,-19.2,-181.5
Q -15.0,-174.0,-12.5,-171.2
Q -11.6,-170.2,-11.6,-171.9
Q -11.6,-172.9,-12.8,-174.7
Q -15.3,-178.2,-20.0,-186.8
Q -22.9,-192.1,-17.5,-193.7
Q -16.5,-194.0,-16.1,-191.7
Q -15.3,-188.0,-13.1,-179.5
Q -11.6,-173.8,-10.7,-174.7
Q -10.2,-175.1,-11.6,-180.4
Q -13.4,-187.6,-14.7,-194.2
Q -15.1,-196.4,-15.6,-198.5
Q -16.0,-200.6,-16.4,-204.6
Q -16.5,-205.1,-16.6,-205.6
Q -16.6,-205.6,-16.6,-205.6
Q -16.8,-206.5,-16.0,-206.0
Q -15.9,-205.3,-15.7,-204.8
Q -15.4,-203.5,-15.1,-203.0
Q -13.1,-198.9,-10.7,-189.7
Q -9.6,-185.6,-8.6,-186.5
Q -8.0,-187.2,-10.0,-193.9
Q -10.7,-196.2,-10.9,-197.5
Q -11.0,-198.2,-11.1,-198.9
Q -11.4,-198.7,-11.5,-198.9
Q -11.6,-199.2,-11.6,-201.5
Q -11.3,-202.3,-11.1,-203.1
Q -10.7,-204.7,-8.4,-206.9
Q -8.0,-206.9,-7.9,-206.6
Q -7.9,-206.3,-8.0,-204.2
Q -8.0,-202.6,-8.0,-201.1
Q -7.7,-201.2,-7.6,-200.8
Q -6.9,-200.9,-6.2,-201.1
Q -6.2,-202.4,-6.2,-203.7
Q -6.2,-206.4,-6.7,-208.6
Q -6.7,-209.7,-6.7,-210.9
Q -6.7,-212.0,-6.7,-213.1
Q -6.7,-214.4,-6.7,-215.7
Q -6.7,-216.2,-6.7,-216.6
Q -7.5,-216.7,-8.3,-216.7
Q -8.3,-216.2,-8.3,-215.6
Q -8.5,-209.3,-10.1,-208.0
Q -11.7,-206.7,-12.4,-205.0
Q -12.8,-204.2,-13.2,-203.3
Q -14.2,-206.7,-15.1,-207.9
Q -16.1,-209.1,-17.4,-209.1
Q -20.2,-209.1,-18.2,-201.3
Q -16.8,-195.9,-18.9,-195.0
Q -20.6,-194.3,-21.8,-193.2
Q -23.2,-192.0,-25.0,-195.6
Q -30.0,-205.5,-32.3,-203.9
Q -34.5,-202.5,-32.6,-191.1
Q -30.7,-179.6,-27.7,-173.3
Q -27.2,-172.2,-26.6,-171.1
Q -35.4,-170.5,-37.5,-169.5
Q -44.5,-166.1,-48.1,-153.1
Q -49.2,-149.3,-53.7,-144.7
Q -57.6,-140.7,-58.2,-140.5
Q -61.8,-138.9,-61.2,-151.8
Q -60.7,-162.5,-61.0,-167.4
Q -61.8,-167.4,-62.7,-167.3
Q -62.7,-162.9,-62.7,-158.4
Q -62.7,-157.6,-62.7,-156.7
Q -62.7,-155.0,-62.9,-154.9
Q -63.0,-154.9,-63.1,-154.9
Q -63.1,-152.2,-63.1,-149.5
Q -63.1,-147.1,-63.1,-144.6
Q -62.9,-140.5,-61.3,-139.1
Q -59.6,-137.7,-61.1,-135.4
Q -62.7,-133.1,-66.2,-126.0
Q -66.3,-125.2,-66.7,-125.1
Q -68.4,-119.3,-68.9,-117.3
Q -69.3,-115.3,-70.2,-109.5
Q -70.2,-108.9,-70.3,-108.3
Q -70.3,-107.0,-70.5,-106.9
Q -70.6,-106.9,-70.7,-106.9
Q -70.7,-104.2,-70.7,-101.5
Q -70.7,-99.5,-71.1,-99.3
Q -71.1,-97.5,-71.1,-95.7
Q -71.1,-95.1,-71.1,-94.4
Q -71.1,-93.1,-71.1,-91.7
Q -71.0,-91.8,-70.9,-91.8
Q -70.7,-92.0,-70.7,-88.2
Q -70.6,-87.0,-70.4,-85.7
Q -70.2,-83.3,-69.8,-81.1
Q -69.6,-80.0,-69.3,-78.9
Q -69.0,-79.0,-68.9,-78.8
Q -68.9,-78.6,-68.9,-78.0
Q -68.9,-77.5,-68.9,-76.6
Q -67.5,-69.9,-62.2,-55.3
Q -61.3,-52.9,-60.4,-50.4
Q -59.7,-49.3,-59.8,-49.5
Q -60.1,-49.9,-60.4,-50.4
Q -59.1,-48.0,-58.6,-47.0
Q -57.2,-43.7,-53.7,-39.2
Q -52.3,-37.5,-52.6,-37.2
Q -52.8,-37.0,-55.6,-37.5
Q -72.7,-40.3,-90.7,-53.1
Q -92.2,-54.2,-93.8,-55.3
Q -96.0,-57.1,-97.1,-58.4
Q -97.7,-59.1,-98.2,-59.7
Q -99.2,-61.0,-100.2,-62.2
Q -109.6,-74.2,-111.0,-82.4
Q -111.1,-83.1,-111.2,-83.9
Q -110.5,-83.8,-109.7,-83.6
Q -107.7,-83.3,-98.4,-77.7
Q -85.9,-70.3,-93.4,-82.5
Q -113.5,-115.1,-109.8,-136.4
Q -109.3,-138.9,-108.7,-140.6
Q -108.3,-141.5,-108.0,-142.4
Q -106.6,-143.6,-105.9,-142.8
Q -105.6,-142.4,-105.3,-142.0
Q -104.7,-142.4,-104.0,-142.7
Q -105.1,-144.5,-105.8,-144.9
Q -110.5,-147.3,-112.0,-135.2
Q -114.5,-116.1,-103.3,-95.1
Q -101.4,-91.5,-99.5,-87.8
Q -97.6,-84.0,-95.7,-81.2
Q -93.7,-78.3,-93.9,-78.2
Q -94.0,-78.0,-96.9,-79.7
Q -110.2,-87.5,-112.3,-85.4
Q -115.1,-82.6,-107.5,-69.1
Q -97.0,-50.2,-71.7,-39.7
Q -59.9,-34.9,-52.7,-34.9
Q -50.4,-34.9,-46.3,-30.2
Q -56.3,-19.6,-58.4,-13.5
Q -60.7,-6.8,-58.3,-4.1
Q -53.8,0.9,-40.1,-20.5
Q -37.5,-24.5,-36.4,-23.8
Q -35.3,-23.0,-33.6,-22.2
Q -31.9,-21.5,-32.1,-21.0
Q -32.4,-20.4,-34.7,-16.0
Q -41.1,-3.8,-38.9,1.2
Q -35.5,8.5,-21.8,-8.2
Q -19.4,-11.0,-18.9,-11.8
Q -18.4,-12.6,-15.6,-12.0
Q -12.7,-11.4,-12.8,-11.0
Q -12.8,-10.6,-14.6,-5.7
Q -16.4,-0.7,-17.1,3.7
Q -19.1,15.9,-20.5,20.0
Q -22.9,27.8,-31.4,38.9
Q -38.3,47.9,-39.4,56.8
Q -41.3,73.2,-32.9,81.6
Q -25.4,89.1,-16.2,81.1
Q -13.8,79.0,-14.0,80.0
Q -15.3,86.0,-20.9,97.6
Q -21.6,99.2,-22.4,101.4
Q -23.2,103.6,-23.8,104.9
Q -27.7,113.5,-27.4,126.9
Q -27.2,134.3,-26.7,136.7
Q -26.2,139.1,-26.0,140.2
Q -24.7,146.2,-20.7,154.3
Q -16.2,163.6,-14.0,166.5
Q -13.5,167.2,-11.0,170.7
Q -6.7,176.9,-0.5,184.0
Q 11.6,197.8,15.2,204.9
Q 17.9,210.2,18.5,216.9
Q 18.7,219.6,19.1,220.6
 " /> 
<path  
style="fill:rgb(14,103,171)" 
d="M -8.0 170.9
Q -8.2,169.9,-8.4,168.9
Q -9.8,162.7,-9.9,149.8
Q -9.9,134.4,-8.0,132.6
Q -6.7,131.2,-7.7,136.6
Q -10.0,148.6,-7.8,163.1
Q -6.6,170.6,-6.9,171.5
Q -6.9,171.8,-7.6,171.8
Q -5.6,174.2,-3.6,176.7
Q 11.6,195.2,12.0,194.3
Q 13.4,191.3,8.3,171.0
Q 5.2,159.1,5.3,145.8
Q 5.3,131.7,7.1,131.0
Q 7.7,130.8,7.4,134.1
Q 5.7,152.7,10.2,170.9
Q 13.4,183.6,13.5,191.4
Q 13.6,197.5,15.3,200.1
Q 20.5,208.0,20.9,215.7
Q 21.1,219.8,22.3,218.2
Q 23.0,217.3,24.7,215.4
Q 26.4,213.4,28.2,211.1
Q 30.1,208.9,32.0,206.9
Q 33.9,205.0,35.8,202.7
Q 37.6,200.4,40.8,196.7
Q 55.6,179.3,40.9,146.2
Q 38.5,140.9,35.9,133.5
Q 34.9,130.5,35.3,130.2
Q 36.0,129.5,38.5,135.9
Q 40.4,140.5,42.4,145.4
Q 53.0,170.1,49.6,183.2
Q 48.9,186.2,49.0,186.3
Q 49.2,186.5,55.6,177.8
Q 76.5,149.0,63.0,129.2
Q 59.9,124.7,49.9,115.3
Q 37.8,103.8,33.7,92.5
Q 32.7,90.0,31.6,84.2
Q 29.9,84.2,29.6,84.5
Q 29.4,84.9,29.6,90.9
Q 29.9,100.8,27.3,100.9
Q 26.5,100.9,24.8,94.3
Q 24.4,92.5,23.8,91.2
Q 23.5,90.5,23.2,89.8
Q 21.2,94.1,20.2,94.7
Q 17.8,96.3,14.9,92.4
Q 13.7,90.6,12.4,91.6
Q 11.8,92.2,11.1,92.7
Q 11.1,92.9,11.1,93.1
Q 9.8,108.6,6.3,109.0
Q 5.0,109.1,3.7,101.3
Q 3.3,99.1,3.1,96.2
Q 3.1,96.0,3.1,95.8
Q 3.0,95.8,2.9,95.8
Q 2.6,95.9,2.7,94.7
Q 2.7,94.7,2.7,94.7
Q 2.7,94.2,2.7,93.6
Q 2.7,93.1,2.7,92.7
Q 2.4,92.4,2.2,92.0
Q 1.7,91.4,1.3,88.7
Q 1.2,86.8,0.4,87.1
Q -0.0,87.2,-0.4,87.4
Q -0.9,88.5,-1.3,89.6
Q -3.6,95.4,-6.5,95.4
Q -8.7,95.4,-11.3,86.8
Q -11.9,84.9,-12.4,82.9
Q -12.5,82.9,-12.6,82.8
Q -13.8,85.3,-14.5,87.4
Q -15.2,89.8,-16.1,91.3
Q -16.9,92.8,-17.6,94.6
Q -18.2,96.5,-19.0,98.3
Q -21.3,102.9,-23.1,109.1
Q -28.8,128.9,-20.7,149.1
Q -17.2,157.9,-8.0,170.9
 " /> 
<path  
style="fill:rgb(7,193,201)" 
d="M 23.2 213.3
Q 23.0,214.1,23.7,214.0
Q 25.1,213.7,28.4,203.1
Q 34.5,183.1,31.7,165.6
Q 29.6,152.2,28.5,153.4
Q 28.1,153.8,28.7,156.7
Q 34.7,183.3,24.8,209.0
Q 23.5,212.5,23.2,213.3
 " /> 
<path  
style="fill:rgb(7,193,201)" 
d="M 57.6 161.7
Q 57.9,168.2,58.5,168.2
Q 59.1,168.2,59.1,160.5
Q 59.0,150.0,52.6,136.8
Q 49.5,130.5,48.6,131.0
Q 48.1,131.3,51.2,137.4
Q 57.1,149.6,57.6,161.7
 " /> 
<path  
style="fill:rgb(7,193,201)" 
d="M -8.0 170.9
Q -7.9,171.1,-7.7,171.2
Q -7.5,171.6,-7.6,171.8
Q -6.9,171.8,-6.9,171.5
Q -6.6,170.6,-7.8,163.1
Q -10.0,148.6,-7.7,136.6
Q -6.7,131.2,-8.0,132.6
Q -9.9,134.4,-9.9,149.8
Q -9.8,162.7,-8.4,168.9
Q -8.2,169.9,-8.0,170.9
 " /> 
<path  
style="fill:rgb(97,247,248)" 
d="M -12.4 82.5
Q -12.4,82.7,-12.4,82.9
Q -11.8,84.8,-11.1,86.7
Q -8.3,94.5,-6.5,94.8
Q -5.2,95.0,-2.0,89.9
Q -1.2,88.6,-0.4,87.4
Q -0.0,87.2,0.4,87.1
Q 1.2,86.8,1.3,88.7
Q 2.2,90.5,2.4,91.6
Q 2.5,92.1,2.7,92.7
Q 2.7,93.1,2.7,93.6
Q 3.1,93.5,3.1,94.7
Q 3.1,94.7,3.1,94.7
Q 3.1,95.2,3.1,95.8
Q 3.1,96.0,3.1,96.2
Q 4.5,102.1,4.9,104.7
Q 5.8,109.9,7.9,106.9
Q 10.2,103.4,10.2,97.5
Q 10.2,94.0,11.1,93.1
Q 11.1,92.9,11.1,92.7
Q 12.1,88.6,15.3,92.1
Q 20.0,97.3,22.2,90.6
Q 22.8,89.1,23.3,89.3
Q 24.0,89.6,26.2,97.2
Q 27.2,100.6,27.7,99.9
Q 29.5,97.5,29.2,90.6
Q 28.9,82.9,30.3,83.6
Q 30.7,83.8,31.1,82.9
Q 31.0,82.6,30.9,82.2
Q 30.6,81.6,30.7,79.4
Q 30.7,78.2,30.7,77.1
Q 30.5,77.2,30.4,77.2
Q 30.2,77.2,30.2,75.4
Q 30.2,74.5,30.2,73.6
Q 29.7,72.6,29.1,71.6
Q 25.5,65.0,23.5,48.7
Q 23.2,46.1,23.2,43.8
Q 23.2,41.1,23.7,38.8
Q 23.7,37.7,24.7,35.5
Q 25.9,32.7,27.1,25.6
Q 27.1,22.2,27.1,18.9
Q 26.4,13.6,25.8,8.2
Q 25.6,8.6,25.4,9.0
Q 24.9,9.8,24.7,11.6
Q 24.0,15.8,23.0,15.8
Q 22.1,15.8,23.3,8.5
Q 24.0,4.5,24.4,0.9
Q 24.7,-2.6,25.3,-2.6
Q 25.9,-2.6,25.8,-0.3
Q 25.7,1.9,26.6,5.0
Q 28.4,11.1,28.8,17.0
Q 28.8,17.7,28.9,18.5
Q 29.2,18.4,29.3,18.7
Q 29.3,18.9,29.3,21.6
Q 29.3,22.2,29.3,22.9
Q 29.3,25.5,28.9,25.6
Q 28.8,26.8,28.7,28.0
Q 28.3,31.7,25.8,36.7
Q 24.9,38.5,24.9,39.6
Q 24.9,40.1,24.9,40.7
Q 24.9,42.2,24.9,43.8
Q 25.0,44.8,25.1,45.8
Q 25.3,47.8,25.8,50.9
Q 26.8,50.1,27.8,49.4
Q 29.8,47.8,32.5,45.4
Q 38.9,39.6,44.2,38.5
Q 46.2,38.1,46.9,38.7
Q 47.2,39.0,47.6,39.4
Q 47.8,39.4,48.0,39.4
Q 48.5,39.8,49.1,40.2
Q 50.2,41.1,50.9,41.8
Q 51.2,42.1,51.6,42.5
Q 46.6,31.0,39.1,17.2
Q 34.0,7.9,31.1,-0.4
Q 27.1,-11.9,24.0,-12.8
Q 23.3,-13.0,21.1,-12.4
Q 18.1,-11.5,15.7,-11.2
Q 14.5,-11.0,13.3,-10.9
Q 12.2,-10.9,11.1,-10.9
Q 0.4,-10.4,-4.7,-10.9
Q -9.9,-11.3,-10.5,-10.7
Q -11.0,-10.2,-12.4,-6.6
Q -15.3,1.2,-15.8,7.4
Q -16.9,23.0,-25.5,34.5
Q -26.5,35.8,-27.6,37.1
Q -27.1,37.3,-26.7,37.4
Q -25.8,37.6,-24.0,38.0
Q -23.8,38.0,-23.6,38.0
Q -22.8,38.4,-22.0,38.8
Q -20.5,39.5,-15.6,38.5
Q -15.3,38.5,-15.1,38.5
Q -13.3,38.0,-11.6,39.6
Q -9.9,41.2,-7.7,41.5
Q -4.1,42.1,-1.9,44.7
Q -1.4,44.2,-0.9,43.8
Q -0.6,42.1,-0.2,40.5
Q 0.4,37.1,-0.9,34.1
Q -3.0,29.7,-3.9,21.7
Q -4.2,18.9,-4.4,15.6
Q -4.3,16.9,-4.4,14.6
Q -4.4,15.4,-4.4,14.0
Q -4.4,12.0,-4.4,10.0
Q -5.3,3.4,-5.4,2.6
Q -5.5,1.9,-4.9,1.9
Q -4.3,1.8,-1.5,12.9
Q -0.2,18.1,-1.1,18.2
Q -1.7,18.3,-2.0,18.0
Q -2.3,18.5,-2.7,18.9
Q -2.7,19.5,-2.7,20.1
Q -2.7,21.4,-2.7,21.5
Q -2.7,21.5,-2.7,21.6
Q -2.4,22.9,-2.2,24.2
Q -1.2,30.3,1.4,34.7
Q 3.7,38.5,2.5,38.5
Q 1.9,38.5,1.5,40.7
Q 1.2,42.9,0.8,44.7
Q 0.6,45.6,0.4,46.5
Q 0.4,46.7,0.4,46.9
Q 0.0,48.6,-0.4,50.2
Q -2.5,57.9,-4.7,62.7
Q -5.7,64.9,-6.8,67.6
Q -7.9,70.3,-9.7,74.1
Q -11.6,78.0,-12.4,82.5
 " /> 
<path  
style="fill:rgb(7,193,201)" 
d="M -12.4 82.9
Q -11.9,84.9,-11.3,86.8
Q -8.7,95.4,-6.5,95.4
Q -3.6,95.4,-1.3,89.6
Q -0.9,88.5,-0.4,87.4
Q -1.2,88.6,-2.0,89.9
Q -5.2,95.0,-6.5,94.8
Q -8.3,94.5,-11.1,86.7
Q -11.8,84.8,-12.4,82.9
 " /> 
<path  
style="fill:rgb(7,193,201)" 
d="M 1.3 88.7
Q 1.7,91.4,2.2,92.0
Q 2.4,92.4,2.7,92.7
Q 2.5,92.1,2.4,91.6
Q 2.2,90.5,1.3,88.7
 " /> 
<path  
style="fill:rgb(7,193,201)" 
d="M 2.7 93.6
Q 2.9,94.1,3.1,94.7
Q 3.1,94.7,3.1,94.7
Q 3.1,93.5,2.7,93.6
 " /> 
<path  
style="fill:rgb(7,193,201)" 
d="M 2.7 93.6
Q 2.7,94.2,2.7,94.7
Q 2.9,95.3,3.1,95.8
Q 3.1,95.2,3.1,94.7
Q 2.9,94.1,2.7,93.6
 " /> 
<path  
style="fill:rgb(7,193,201)" 
d="M 3.1 95.8
Q 2.9,95.3,2.7,94.7
Q 2.7,94.7,2.7,94.7
Q 2.6,95.9,2.9,95.8
Q 3.0,95.8,3.1,95.8
 " /> 
<path  
style="fill:rgb(7,193,201)" 
d="M 11.1 92.7
Q 11.8,92.2,12.4,91.6
Q 13.7,90.6,14.9,92.4
Q 17.8,96.3,20.2,94.7
Q 21.2,94.1,23.2,89.8
Q 23.5,90.5,23.8,91.2
Q 24.4,92.5,24.8,94.3
Q 26.5,100.9,27.3,100.9
Q 29.9,100.8,29.6,90.9
Q 29.4,84.9,29.6,84.5
Q 29.9,84.2,31.6,84.2
Q 31.6,82.8,31.1,82.9
Q 30.7,83.8,30.3,83.6
Q 28.9,82.9,29.2,90.6
Q 29.5,97.5,27.7,99.9
Q 27.2,100.6,26.2,97.2
Q 24.0,89.6,23.3,89.3
Q 22.8,89.1,22.2,90.6
Q 20.0,97.3,15.3,92.1
Q 12.1,88.6,11.1,92.7
 " /> 
<path  
style="fill:rgb(14,103,171)" 
d="M 0.4 46.9
Q -0.2,46.7,-0.9,46.5
Q -0.6,46.7,-0.3,47.0
Q 0.1,46.9,0.4,46.9
 " /> 
<path  
style="fill:rgb(14,103,171)" 
d="M 0.4 46.9
Q 0.4,46.7,0.4,46.5
Q 0.1,46.5,-0.2,46.5
Q 0.1,46.7,0.4,46.9
 " /> 
<path  
style="fill:rgb(14,103,171)" 
d="M 0.4 46.5
Q 0.2,46.3,-0.1,46.1
Q -0.1,46.0,-0.2,45.9
Q -0.3,46.0,-0.5,46.2
Q -0.0,46.3,0.4,46.5
 " /> 
<path  
style="fill:rgb(4,4,4)" 
d="M 0.4 46.5
Q 0.6,45.6,0.8,44.7
Q 1.2,42.9,1.5,40.7
Q 1.9,38.5,2.5,38.5
Q 3.7,38.5,1.4,34.7
Q -1.2,30.3,-2.2,24.2
Q -2.4,22.9,-2.7,21.6
Q -2.8,21.6,-2.9,21.6
Q -2.9,21.6,-3.0,21.6
Q -3.4,21.7,-3.9,21.7
Q -3.0,29.7,-0.9,34.1
Q 0.4,37.1,-0.2,40.5
Q -0.6,42.1,-0.9,43.8
Q -0.7,45.1,-0.3,45.7
Q -0.2,45.9,-0.1,46.0
Q -0.2,45.9,-0.1,46.0
Q -0.1,46.0,-0.1,46.1
Q 0.2,46.3,0.4,46.5
 " /> 
<path  
style="fill:rgb(14,103,171)" 
d="M -2.7 21.6
Q -2.7,21.5,-2.7,21.5
Q -2.7,21.4,-2.7,20.1
Q -2.7,19.5,-2.7,18.9
Q -2.9,18.9,-3.1,18.9
Q -3.1,21.1,-3.1,21.4
Q -3.0,21.6,-3.0,21.6
Q -2.8,21.6,-2.7,21.6
 " /> 
<path  
style="fill:rgb(7,193,201)" 
d="M -2.7 18.9
Q -2.7,18.7,-2.7,18.5
Q -2.9,18.7,-3.1,18.9
Q -2.9,18.9,-2.7,18.9
 " /> 
<path  
style="fill:rgb(97,247,248)" 
d="M -2.7 18.9
Q -2.3,18.5,-2.0,18.0
Q -2.1,17.9,-2.2,17.7
Q -2.4,18.2,-2.7,18.5
Q -2.7,18.7,-2.7,18.9
 " /> 
<path  
style="fill:rgb(4,4,4)" 
d="M -2.7 16.7
Q -3.5,16.7,-4.3,16.8
Q -4.2,19.0,-4.0,21.0
Q -3.6,19.0,-3.1,18.9
Q -3.1,18.4,-3.1,17.9
Q -3.1,16.8,-2.9,16.7
Q -2.8,16.7,-2.7,16.7
 " /> 
<path  
style="fill:rgb(4,4,4)" 
d="M -2.7 16.7
Q -2.5,17.1,-2.3,17.5
Q -2.2,17.7,-2.1,17.9
Q -1.9,18.1,-1.7,18.1
Q -1.7,18.3,-1.1,18.2
Q -0.2,18.1,-1.5,12.9
Q -4.3,1.8,-4.9,1.9
Q -5.5,1.9,-5.4,2.6
Q -5.3,3.4,-4.4,10.0
Q -4.0,12.2,-4.4,14.0
Q -4.4,15.4,-4.3,16.8
Q -3.5,16.7,-2.7,16.7
 " /> 
<path  
style="fill:rgb(97,247,248)" 
d="M -2.7 16.7
Q -2.7,17.6,-2.7,18.5
Q -2.4,18.2,-2.1,17.9
Q -2.2,17.7,-2.3,17.5
Q -2.5,17.1,-2.7,16.7
 " /> 
<path  
style="fill:rgb(7,193,201)" 
d="M -2.7 16.7
Q -2.8,16.7,-2.9,16.7
Q -3.1,16.8,-3.1,17.9
Q -3.1,18.4,-3.1,18.9
Q -2.9,18.7,-2.7,18.5
Q -2.7,17.6,-2.7,16.7
 " /> 
<path  
style="fill:rgb(14,103,171)" 
d="M -4.4 10.0
Q -4.4,12.0,-4.4,14.0
Q -4.0,12.2,-4.4,10.0
 " /> 
<path  
style="fill:rgb(14,103,171)" 
d="M -0.9 43.8
Q -0.9,44.9,-0.9,46.0
Q -0.6,45.9,-0.3,45.7
Q -0.7,45.1,-0.9,43.8
 " /> 
<path  
style="fill:rgb(97,247,248)" 
d="M -0.9 43.8
Q -1.4,44.2,-1.9,44.7
Q -1.9,44.8,-1.8,44.9
Q -1.3,45.5,-0.9,46.0
Q -0.9,44.9,-0.9,43.8
 " /> 
<path  
style="fill:rgb(14,103,171)" 
d="M -0.9 46.0
Q -0.8,46.0,-0.7,46.1
Q -0.5,45.9,-0.3,45.8
Q -0.4,45.6,-0.5,45.4
Q -0.6,45.9,-0.9,46.0
 " /> 
<path  
style="fill:rgb(7,193,201)" 
d="M -0.9 46.0
Q -1.3,45.5,-1.8,44.9
Q -1.9,44.8,-1.9,44.7
Q -4.1,42.1,-7.7,41.5
Q -9.9,41.2,-11.6,39.6
Q -13.3,38.0,-15.1,38.5
Q -14.5,38.5,-14.0,38.5
Q -12.9,38.4,-11.4,40.2
Q -9.8,42.0,-7.9,42.0
Q -4.3,42.0,-2.2,45.1
Q -1.8,45.8,-1.3,46.5
Q -1.1,46.2,-0.9,46.0
 " /> 
<path  
style="fill:rgb(7,193,201)" 
d="M -1.3 46.5
Q -1.1,46.5,-0.9,46.5
Q -0.9,46.3,-0.9,46.2
Q -1.1,46.3,-1.3,46.5
 " /> 
<path  
style="fill:rgb(14,103,171)" 
d="M -15.1 38.5
Q -15.3,38.5,-15.6,38.5
Q -17.8,39.8,-19.6,39.8
Q -21.3,39.8,-23.6,38.0
Q -23.8,38.0,-24.0,38.0
Q -26.0,38.0,-28.0,38.0
Q -29.2,39.6,-30.4,41.1
Q -39.2,52.3,-37.1,63.4
Q -34.8,58.7,-29.8,53.0
Q -24.8,47.4,-24.1,47.4
Q -22.8,47.4,-27.8,53.0
Q -37.8,64.2,-36.5,70.1
Q -34.6,78.6,-29.7,81.3
Q -29.1,81.7,-28.4,82.0
Q -28.2,78.7,-28.0,75.4
Q -27.6,68.7,-27.4,68.8
Q -27.3,68.8,-27.2,75.7
Q -27.1,79.1,-27.1,82.5
Q -20.8,82.5,-16.6,78.6
Q -15.0,77.1,-15.3,72.1
Q -16.4,53.6,-14.3,52.8
Q -13.7,52.6,-14.0,58.8
Q -14.6,74.8,-13.3,74.4
Q -11.8,73.9,-10.1,69.3
Q -9.4,67.5,-8.1,65.5
Q -6.6,63.3,-3.8,55.5
Q -2.7,52.2,-1.3,46.5
Q -1.8,45.8,-2.2,45.1
Q -4.3,42.0,-7.9,42.0
Q -9.8,42.0,-11.4,40.2
Q -12.9,38.4,-14.0,38.5
Q -14.5,38.5,-15.1,38.5
 " /> 
<path  
style="fill:rgb(7,193,201)" 
d="M -9.5 62.6
Q -7.9,64.2,-8.3,59.8
Q -8.4,57.8,-8.4,55.2
Q -8.4,52.7,-9.1,52.7
Q -9.8,52.7,-9.8,57.5
Q -9.8,62.3,-9.5,62.6
 " /> 
<path  
style="fill:rgb(7,193,201)" 
d="M -34.9 53.0
Q -35.2,54.0,-34.5,54.0
Q -33.9,54.0,-32.7,51.3
Q -31.2,47.8,-31.9,47.5
Q -33.1,47.0,-34.9,53.0
 " /> 
<path  
style="fill:rgb(7,193,201)" 
d="M -15.6 38.5
Q -20.5,39.5,-22.0,38.8
Q -22.8,38.4,-23.6,38.0
Q -21.3,39.8,-19.6,39.8
Q -17.8,39.8,-15.6,38.5
 " /> 
<path  
style="fill:rgb(7,193,201)" 
d="M -24.0 38.0
Q -25.8,37.6,-26.7,37.4
Q -27.1,37.3,-27.6,37.1
Q -27.8,37.6,-28.0,38.0
Q -26.0,38.0,-24.0,38.0
 " /> 
<path  
style="fill:rgb(7,193,201)" 
d="M -27.6 37.1
Q -27.7,37.2,-27.8,37.2
Q -28.0,37.2,-28.0,37.6
Q -28.0,37.8,-28.0,38.0
Q -27.8,37.6,-27.6,37.1
 " /> 
<path  
style="fill:rgb(14,103,171)" 
d="M 11.1 -10.9
Q 12.2,-10.9,13.3,-10.9
Q 13.0,-11.0,12.7,-11.1
Q 12.0,-11.4,11.1,-10.9
 " /> 
<path  
style="fill:rgb(7,193,201)" 
d="M 51.6 42.5
Q 51.2,42.1,50.9,41.8
Q 50.2,41.1,49.1,40.2
Q 48.5,39.8,48.0,39.4
Q 50.2,42.0,50.9,42.5
Q 51.2,42.7,51.6,42.9
Q 51.6,42.7,51.6,42.5
 " /> 
<path  
style="fill:rgb(14,103,171)" 
d="M 48.0 39.4
Q 47.8,39.4,47.6,39.4
Q 44.3,37.7,40.2,40.5
Q 38.6,41.6,37.0,42.4
Q 35.3,43.3,33.8,44.8
Q 32.3,46.4,30.4,47.8
Q 28.5,49.2,25.8,51.8
Q 26.0,53.1,26.2,54.5
Q 26.7,57.1,27.1,59.0
Q 27.5,60.9,28.0,63.2
Q 28.4,65.6,32.4,72.7
Q 32.4,58.9,32.9,58.7
Q 33.3,58.4,33.2,64.3
Q 33.1,70.2,32.8,71.7
Q 32.6,72.4,32.4,73.1
Q 33.6,74.4,34.7,75.6
Q 36.9,78.0,38.7,79.0
Q 39.6,79.4,40.5,79.9
Q 37.9,71.7,37.5,66.7
Q 37.3,64.0,36.9,60.7
Q 35.9,53.0,36.9,52.9
Q 37.5,52.9,38.0,58.7
Q 39.7,79.8,43.2,80.5
Q 46.6,81.1,49.0,79.8
Q 48.7,79.3,48.4,78.7
Q 48.3,78.6,48.2,78.3
Q 48.1,77.8,47.1,74.8
Q 44.2,65.8,44.8,64.4
Q 45.4,62.7,47.4,70.3
Q 49.7,78.9,48.9,78.9
Q 48.6,78.9,48.4,78.7
Q 48.7,79.3,49.0,79.8
Q 51.8,78.3,53.3,74.3
Q 54.1,72.0,49.9,60.7
Q 45.7,49.5,46.2,49.0
Q 47.4,47.8,53.2,64.8
Q 54.3,68.2,54.6,68.2
Q 54.9,68.2,54.9,64.6
Q 54.9,61.0,54.2,55.4
Q 49.5,49.1,51.6,49.6
Q 52.3,49.8,53.0,50.8
Q 53.4,51.3,53.8,51.8
Q 52.9,46.9,51.6,42.9
Q 51.2,42.7,50.9,42.5
Q 50.2,42.0,48.0,39.4
 " /> 
<path  
style="fill:rgb(7,193,201)" 
d="M 47.6 39.4
Q 47.2,39.0,46.9,38.7
Q 46.2,38.1,44.2,38.5
Q 38.9,39.6,32.5,45.4
Q 29.8,47.8,27.8,49.4
Q 26.8,50.1,25.8,50.9
Q 25.8,51.4,25.8,51.8
Q 28.5,49.2,30.4,47.8
Q 32.3,46.4,33.8,44.8
Q 35.3,43.3,37.0,42.4
Q 38.6,41.6,40.2,40.5
Q 44.3,37.7,47.6,39.4
 " /> 
<path  
style="fill:rgb(4,4,4)" 
d="M 24.9 43.8
Q 24.4,42.5,24.6,41.6
Q 24.8,41.1,24.9,40.7
Q 24.1,40.6,23.4,40.5
Q 23.1,43.0,23.3,45.9
Q 24.1,43.8,24.9,43.8
 " /> 
<path  
style="fill:rgb(14,103,171)" 
d="M 24.9 43.8
Q 24.9,42.2,24.9,40.7
Q 24.8,41.1,24.6,41.6
Q 24.4,42.5,24.9,43.8
 " /> 
<path  
style="fill:rgb(4,4,4)" 
d="M 24.9 40.7
Q 24.9,40.1,24.9,39.6
Q 24.9,38.5,25.8,36.7
Q 28.3,31.7,28.7,28.0
Q 28.8,26.8,28.9,25.6
Q 28.9,24.9,28.9,24.3
Q 28.9,23.0,29.3,22.9
Q 29.3,22.2,29.3,21.6
Q 29.0,21.7,28.9,21.4
Q 28.9,21.1,28.9,18.5
Q 28.8,17.7,28.8,17.0
Q 28.4,11.1,26.6,5.0
Q 25.7,1.9,25.8,-0.3
Q 25.9,-2.6,25.3,-2.6
Q 24.7,-2.6,24.4,0.9
Q 24.0,4.5,23.3,8.5
Q 22.1,15.8,23.0,15.8
Q 24.0,15.8,24.7,11.6
Q 24.9,9.8,25.4,9.0
Q 25.6,8.6,25.8,8.2
Q 26.4,13.6,27.1,18.9
Q 27.6,22.0,27.3,23.8
Q 27.2,24.7,27.1,25.6
Q 25.9,32.7,24.7,35.5
Q 23.7,37.7,23.4,40.5
Q 24.1,40.6,24.9,40.7
 " /> 
<path  
style="fill:rgb(7,193,201)" 
d="M 28.9 25.6
Q 29.3,25.5,29.3,22.9
Q 28.9,23.0,28.9,24.3
Q 28.9,24.9,28.9,25.6
 " /> 
<path  
style="fill:rgb(7,193,201)" 
d="M 29.3 21.6
Q 29.3,18.9,29.3,18.7
Q 29.2,18.4,28.9,18.5
Q 28.9,21.1,28.9,21.4
Q 29.0,21.7,29.3,21.6
 " /> 
<path  
style="fill:rgb(7,193,201)" 
d="M 27.1 18.9
Q 27.1,22.2,27.1,25.6
Q 27.2,24.7,27.3,23.8
Q 27.6,22.0,27.1,18.9
 " /> 
<path  
style="fill:rgb(7,193,201)" 
d="M 30.2 73.6
Q 30.2,74.5,30.2,75.4
Q 30.2,77.2,30.4,77.2
Q 30.5,77.2,30.7,77.1
Q 30.7,74.1,30.6,73.8
Q 30.6,73.5,30.2,73.6
 " /> 
<path  
style="fill:rgb(4,4,4)" 
d="M -28.4 82.0
Q -27.8,82.2,-27.1,82.5
Q -27.2,82.3,-27.3,82.2
Q -27.5,81.9,-28.0,82.0
Q -28.2,82.0,-28.4,82.0
 " /> 
<path  
style="fill:rgb(7,193,201)" 
d="M -28.4 82.0
Q -28.2,82.0,-28.0,82.0
Q -27.5,81.9,-27.3,82.2
Q -27.2,82.3,-27.1,82.5
Q -27.1,79.1,-27.2,75.7
Q -27.3,68.8,-27.4,68.8
Q -27.6,68.7,-28.0,75.4
Q -28.2,78.7,-28.4,82.0
 " /> 
<path  
style="fill:rgb(7,193,201)" 
d="M 32.4 72.7
Q 32.4,72.9,32.4,73.1
Q 32.6,72.4,32.8,71.7
Q 33.1,70.2,33.2,64.3
Q 33.3,58.4,32.9,58.7
Q 32.4,58.9,32.4,72.7
 " /> 
<path  
style="fill:rgb(7,193,201)" 
d="M 53.8 51.8
Q 53.4,51.3,53.0,50.8
Q 52.3,49.8,51.6,49.6
Q 49.5,49.1,54.2,55.4
Q 54.1,54.9,54.0,54.5
Q 53.8,53.6,53.8,51.8
 " /> 
<path  
style="fill:rgb(7,193,201)" 
d="M 48.2 78.3
Q 48.3,78.5,48.4,78.7
Q 48.6,78.9,48.9,78.9
Q 49.7,78.9,47.4,70.3
Q 45.4,62.7,44.8,64.4
Q 44.2,65.8,47.1,74.8
Q 48.1,77.8,48.2,78.3
 " /> 
<path  
style="fill:rgb(14,103,171)" 
d="M -0.9 46.5
Q -0.7,46.3,-0.6,46.2
Q -0.7,46.1,-0.9,46.0
Q -0.9,46.2,-1.1,46.3
Q -0.9,46.3,-0.9,46.5
 " /> 
<path  
style="fill:rgb(14,103,171)" 
d="M -0.9 46.5
Q -0.9,46.6,-1.0,46.8
Q -1.1,47.0,-0.3,47.0
Q -0.3,47.0,-0.3,47.0
Q -0.6,46.7,-0.9,46.5
 " /> 
<path  
style="fill:rgb(4,4,4)" 
d="M -3.1 18.9
Q -3.6,19.0,-4.1,19.0
Q -3.9,22.0,-3.5,24.6
Q -3.4,21.7,-3.0,21.6
Q -3.0,21.6,-3.1,21.4
Q -3.1,21.1,-3.1,18.9
 " /> 
<path  
style="fill:rgb(97,247,248)" 
d="M -68.4 -105.5
Q -68.4,-102.6,-68.9,-102.4
Q -68.9,-74.3,-57.8,-51.1
Q -53.0,-41.2,-44.6,-32.1
Q -43.5,-33.6,-42.3,-35.1
Q -39.0,-39.3,-38.9,-37.6
Q -38.8,-35.6,-46.4,-27.3
Q -58.9,-13.7,-57.2,-6.5
Q -56.0,-1.9,-46.1,-15.1
Q -41.1,-21.8,-39.2,-25.7
Q -38.6,-27.1,-37.8,-27.8
Q -37.0,-28.6,-36.1,-30.1
Q -33.5,-34.3,-32.6,-33.4
Q -32.2,-33.0,-32.9,-32.0
Q -35.8,-28.0,-35.7,-27.3
Q -35.7,-26.3,-30.7,-23.8
Q -30.0,-25.3,-29.3,-26.9
Q -27.9,-30.0,-27.4,-29.8
Q -26.1,-29.2,-28.0,-25.5
Q -29.0,-23.6,-29.1,-22.6
Q -29.2,-21.6,-29.6,-21.0
Q -32.5,-17.2,-35.5,-9.3
Q -38.1,-2.4,-36.9,0.1
Q -36.3,1.6,-32.8,-0.1
Q -32.2,-0.3,-31.6,-0.6
Q -31.1,-1.2,-30.6,-1.7
Q -29.8,-2.8,-28.0,-4.2
Q -27.1,-5.5,-25.8,-6.4
Q -24.5,-8.1,-23.3,-9.7
Q -20.8,-13.1,-20.4,-14.0
Q -20.2,-14.4,-20.0,-14.9
Q -18.6,-16.6,-17.3,-17.5
Q -16.4,-18.6,-15.6,-19.7
Q -13.8,-22.0,-13.1,-22.0
Q -11.9,-22.0,-14.6,-18.1
Q -15.5,-16.8,-16.4,-15.5
Q -9.6,-14.1,-4.8,-13.6
Q -2.4,-13.3,0.0,-13.1
Q 1.8,-13.1,3.6,-13.1
Q 8.1,-13.0,9.0,-13.3
Q 9.4,-13.4,9.8,-13.5
Q 10.9,-13.5,12.0,-13.5
Q 18.2,-14.4,22.5,-15.5
Q 26.9,-16.7,28.1,-16.7
Q 29.7,-16.7,27.8,-21.7
Q 26.7,-24.8,27.1,-25.2
Q 28.1,-26.2,29.5,-21.9
Q 30.3,-19.5,31.3,-17.3
Q 32.4,-15.1,33.8,-10.7
Q 36.8,-1.2,38.5,-4.8
Q 43.2,-14.6,36.5,-28.0
Q 34.3,-32.6,35.9,-31.9
Q 36.6,-31.7,39.2,-26.0
Q 40.2,-23.9,41.1,-21.9
Q 45.3,-25.4,45.8,-25.6
Q 46.3,-25.8,44.7,-31.1
Q 43.2,-36.4,43.7,-36.7
Q 44.5,-37.2,45.1,-35.5
Q 47.2,-29.8,48.7,-23.5
Q 51.2,-12.5,53.2,-13.8
Q 55.4,-15.3,56.5,-23.2
Q 57.5,-31.0,54.6,-38.4
Q 52.8,-43.0,53.7,-43.0
Q 55.0,-43.2,57.2,-37.0
Q 58.0,-34.9,58.3,-34.9
Q 58.5,-34.9,60.8,-37.2
Q 74.8,-52.2,76.9,-76.2
Q 76.9,-81.3,76.9,-86.4
Q 76.0,-98.0,75.1,-103.2
Q 70.2,-131.4,49.7,-141.2
Q 44.9,-143.5,44.9,-144.3
Q 44.9,-146.0,50.7,-143.6
Q 50.3,-144.7,49.9,-145.8
Q 43.7,-162.0,29.7,-164.6
Q 28.4,-164.8,27.1,-165.1
Q 25.8,-165.1,24.4,-165.1
Q 20.9,-164.2,18.1,-162.8
Q 12.8,-160.0,8.5,-153.7
Q 6.6,-151.1,5.9,-150.7
Q 5.1,-150.3,2.1,-150.4
Q 0.2,-150.4,-1.8,-150.4
Q -3.3,-150.4,-4.9,-150.4
Q -6.7,-151.7,-7.5,-153.3
Q -8.4,-154.9,-10.2,-157.3
Q -11.1,-158.5,-12.0,-159.7
Q -14.2,-161.6,-15.6,-163.3
Q -33.1,-175.0,-41.8,-162.9
Q -46.3,-156.6,-46.9,-150.4
Q -47.2,-146.8,-49.8,-146.4
Q -52.0,-144.0,-52.3,-143.4
Q -52.6,-142.9,-52.4,-142.0
Q -58.3,-137.3,-62.2,-129.6
Q -66.7,-120.7,-68.0,-109.5
Q -68.2,-107.5,-68.4,-105.5
 " /> 
<path  
style="fill:rgb(4,4,4)" 
d="M 17.5 -25.5
Q 21.1,-23.4,20.8,-24.8
Q 20.7,-25.5,18.5,-27.1
Q 12.8,-31.2,0.9,-28.1
Q -3.8,-26.9,-2.8,-25.9
Q -2.3,-25.4,0.1,-26.1
Q 11.1,-29.3,17.5,-25.5
 " /> 
<path  
style="fill:rgb(4,4,4)" 
d="M 14.5 -47.6
Q 15.1,-46.4,15.5,-46.4
Q 16.8,-46.4,13.7,-52.3
Q 11.3,-56.7,10.7,-57.0
Q 9.2,-57.5,12.2,-52.0
Q 13.9,-48.9,14.5,-47.6
 " /> 
<path  
style="fill:rgb(4,4,4)" 
d="M -1.2 -47.7
Q -1.4,-46.9,-0.8,-46.9
Q -0.1,-46.9,1.1,-49.2
Q 2.3,-51.5,3.9,-53.7
Q 6.1,-56.8,5.7,-57.8
Q 5.5,-58.5,3.1,-55.3
Q -0.3,-50.8,-1.2,-47.7
 " /> 
<path  
style="fill:rgb(4,4,4)" 
d="M 24.0 -61.5
Q 25.8,-60.2,26.7,-58.9
Q 27.6,-58.3,28.4,-57.7
Q 40.3,-50.3,54.9,-64.8
Q 73.4,-83.3,63.7,-107.7
Q 56.5,-125.5,46.3,-125.5
Q 33.7,-125.5,19.3,-84.6
Q 17.7,-80.0,17.1,-78.6
Q 16.5,-77.3,15.3,-73.3
Q 13.7,-68.1,14.6,-68.0
Q 15.2,-68.0,16.2,-70.3
Q 17.1,-72.6,17.4,-72.6
Q 17.6,-72.6,19.1,-69.1
Q 20.7,-65.6,24.0,-61.5
 " /> 
<path  
style="fill:rgb(115,250,3)" 
d="M 24.9 -64.6
Q 27.1,-62.8,28.9,-60.6
Q 29.9,-60.2,30.9,-59.7
Q 35.7,-57.6,40.7,-59.1
Q 44.0,-60.0,51.6,-65.1
Q 52.1,-65.7,52.7,-66.4
Q 53.8,-67.7,56.0,-69.5
Q 57.0,-71.0,58.0,-72.4
Q 62.0,-78.2,63.3,-85.7
Q 63.7,-87.6,64.0,-89.5
Q 64.0,-92.6,64.0,-95.7
Q 63.3,-95.7,62.5,-95.7
Q 62.8,-88.8,58.1,-79.6
Q 47.1,-57.6,28.9,-68.2
Q 26.5,-69.6,25.7,-69.8
Q 25.0,-70.0,24.7,-71.7
Q 24.4,-73.3,24.9,-74.5
Q 25.3,-75.7,27.1,-78.0
Q 26.8,-78.1,26.6,-78.2
Q 26.5,-78.2,26.4,-78.2
Q 26.3,-78.2,26.1,-78.3
Q 25.7,-78.5,25.3,-78.6
Q 25.1,-78.7,24.9,-78.9
Q 24.7,-79.1,24.5,-79.3
Q 24.0,-79.7,24.5,-80.2
Q 24.9,-80.6,26.7,-79.7
Q 26.9,-79.7,27.1,-79.7
Q 28.7,-79.7,30.2,-79.7
Q 31.5,-80.2,32.4,-80.6
Q 32.9,-80.9,33.3,-81.1
Q 34.2,-82.4,35.1,-83.1
Q 35.6,-83.4,36.0,-83.7
Q 36.9,-84.7,37.8,-85.7
Q 39.6,-87.7,41.7,-89.9
Q 45.7,-94.3,49.0,-92.9
Q 50.7,-92.2,51.3,-90.9
Q 51.7,-90.2,52.0,-89.5
Q 52.2,-89.3,52.4,-89.1
Q 52.9,-88.6,53.3,-87.7
Q 53.6,-87.3,53.8,-86.9
Q 54.1,-86.7,54.4,-86.6
Q 55.5,-86.1,56.0,-90.9
Q 56.0,-93.7,56.0,-96.6
Q 55.8,-97.9,55.6,-99.1
Q 54.8,-103.5,52.2,-108.6
Q 51.0,-111.0,51.5,-111.5
Q 52.4,-112.4,55.6,-105.5
Q 56.4,-105.6,57.2,-105.8
Q 60.3,-106.2,62.0,-99.3
Q 62.5,-97.6,62.5,-95.7
Q 63.3,-95.7,64.0,-95.7
Q 61.2,-108.2,56.9,-115.3
Q 56.2,-116.4,55.6,-117.5
Q 55.0,-118.0,54.5,-118.4
Q 53.4,-119.3,51.6,-121.5
Q 50.6,-122.0,49.6,-122.4
Q 37.6,-127.7,22.2,-86.4
Q 19.4,-79.0,19.4,-77.8
Q 19.4,-75.5,23.0,-68.4
Q 23.9,-66.5,24.9,-64.6
 " /> 
<path  
style="fill:rgb(209,251,185)" 
d="M 29.4 -84.9
Q 32.0,-83.0,41.3,-91.4
Q 43.5,-93.4,47.1,-95.3
Q 52.6,-98.1,51.6,-102.5
Q 50.0,-110.1,45.9,-112.8
Q 44.4,-113.7,44.4,-114.3
Q 44.4,-115.7,40.3,-111.6
Q 36.1,-107.5,35.7,-103.7
Q 35.6,-102.4,33.8,-99.5
Q 26.1,-87.3,29.4,-84.9
 " /> 
<path  
style="fill:rgb(31,181,0)" 
d="M 24.9 -64.6
Q 25.3,-64.1,25.8,-63.5
Q 26.7,-62.4,27.8,-61.5
Q 28.3,-61.1,28.9,-60.6
Q 27.1,-62.8,24.9,-64.6
 " /> 
<path  
style="fill:rgb(31,181,0)" 
d="M 51.6 -121.5
Q 53.4,-119.3,54.5,-118.4
Q 55.0,-118.0,55.6,-117.5
Q 53.8,-119.7,51.6,-121.5
 " /> 
<path  
style="fill:rgb(31,181,0)" 
d="M 64.0 -95.7
Q 64.0,-92.6,64.0,-89.5
Q 64.1,-90.3,64.2,-91.1
Q 64.5,-92.6,64.2,-94.2
Q 64.1,-95.0,64.0,-95.7
 " /> 
<path  
style="fill:rgb(31,181,0)" 
d="M 56.0 -69.5
Q 53.8,-67.7,52.7,-66.4
Q 52.1,-65.7,51.6,-65.1
Q 52.2,-65.6,52.9,-66.2
Q 54.2,-67.3,55.1,-68.4
Q 55.5,-69.0,56.0,-69.5
 " /> 
<path  
style="fill:rgb(115,250,3)" 
d="M 43.6 -89.1
Q 46.2,-89.1,47.1,-88.7
Q 49.0,-87.8,51.7,-84.1
Q 52.9,-82.4,53.8,-82.4
Q 54.7,-82.4,54.2,-83.3
Q 53.6,-83.8,53.1,-84.4
Q 51.9,-85.5,51.0,-87.3
Q 49.0,-91.6,46.9,-91.1
Q 45.8,-90.9,43.6,-89.1
 " /> 
<path  
style="fill:rgb(31,181,0)" 
d="M 43.6 -89.1
Q 42.3,-87.6,41.1,-86.2
Q 37.4,-81.8,34.2,-79.7
Q 31.8,-78.3,29.8,-78.0
Q 29.8,-78.0,29.1,-78.0
Q 28.1,-78.0,27.1,-78.0
Q 25.3,-75.7,24.9,-74.5
Q 24.4,-73.3,24.7,-71.7
Q 25.0,-70.0,25.7,-69.8
Q 26.5,-69.6,28.9,-68.2
Q 47.1,-57.6,58.1,-79.6
Q 62.8,-88.8,62.5,-95.7
Q 62.5,-97.6,62.0,-99.3
Q 60.3,-106.2,57.2,-105.8
Q 56.4,-105.6,55.6,-105.5
Q 56.0,-104.5,56.4,-103.5
Q 59.6,-96.3,57.6,-87.3
Q 57.1,-85.0,54.2,-83.3
Q 54.7,-82.4,53.8,-82.4
Q 52.9,-82.4,51.7,-84.1
Q 49.0,-87.8,47.1,-88.7
Q 46.2,-89.1,43.6,-89.1
 " /> 
<path  
style="fill:rgb(4,4,4)" 
d="M 43.6 -89.1
Q 45.8,-90.9,46.9,-91.1
Q 49.0,-91.6,51.0,-87.3
Q 51.9,-85.5,53.1,-84.4
Q 53.6,-83.8,54.2,-83.3
Q 57.1,-85.0,57.6,-87.3
Q 59.6,-96.3,56.4,-103.5
Q 56.0,-104.5,55.6,-105.5
Q 52.4,-112.4,51.5,-111.5
Q 51.0,-111.0,52.2,-108.6
Q 54.8,-103.5,55.6,-99.1
Q 55.8,-97.9,56.0,-96.6
Q 56.1,-95.9,56.2,-95.1
Q 56.5,-93.5,56.0,-90.9
Q 55.5,-86.1,54.4,-86.6
Q 54.1,-86.7,53.8,-86.9
Q 53.5,-87.1,53.3,-87.3
Q 52.8,-87.7,52.0,-89.5
Q 51.7,-90.2,51.3,-90.9
Q 50.7,-92.2,49.0,-92.9
Q 45.7,-94.3,41.7,-89.9
Q 39.6,-87.7,37.8,-85.7
Q 36.9,-84.7,36.0,-83.7
Q 35.7,-83.3,35.3,-82.9
Q 34.6,-82.0,34.0,-81.5
Q 33.7,-81.3,33.3,-81.1
Q 33.8,-80.4,34.2,-79.7
Q 37.4,-81.8,41.1,-86.2
Q 42.3,-87.6,43.6,-89.1
 " /> 
<path  
style="fill:rgb(4,4,4)" 
d="M 27.1 -78.0
Q 27.4,-78.8,27.7,-79.6
Q 27.4,-79.6,27.1,-79.7
Q 26.8,-78.9,26.6,-78.2
Q 26.8,-78.1,27.1,-78.0
 " /> 
<path  
style="fill:rgb(4,4,4)" 
d="M 27.1 -78.0
Q 28.1,-78.0,29.1,-78.0
Q 29.8,-78.0,30.6,-78.2
Q 30.4,-79.0,30.2,-79.7
Q 29.8,-79.6,29.3,-79.5
Q 28.4,-79.3,27.8,-79.5
Q 27.7,-79.5,27.7,-79.6
Q 27.4,-78.8,27.1,-78.0
 " /> 
<path  
style="fill:rgb(31,181,0)" 
d="M 24.9 -78.9
Q 24.7,-79.9,26.7,-79.7
Q 24.9,-80.6,24.5,-80.2
Q 24.0,-79.7,24.5,-79.3
Q 24.7,-79.1,24.9,-78.9
 " /> 
<path  
style="fill:rgb(4,4,4)" 
d="M 24.9 -78.9
Q 25.1,-78.7,25.3,-78.6
Q 25.7,-78.5,26.1,-78.3
Q 26.4,-79.0,26.7,-79.7
Q 24.7,-79.9,24.9,-78.9
 " /> 
<path  
style="fill:rgb(4,4,4)" 
d="M 26.7 -79.7
Q 26.4,-79.0,26.1,-78.3
Q 26.3,-78.2,26.4,-78.2
Q 26.5,-78.2,26.6,-78.2
Q 26.8,-78.9,27.1,-79.7
Q 26.9,-79.7,26.7,-79.7
 " /> 
<path  
style="fill:rgb(31,181,0)" 
d="M 27.1 -79.7
Q 27.4,-79.6,27.7,-79.6
Q 27.7,-79.5,27.8,-79.5
Q 28.4,-79.3,29.3,-79.5
Q 29.8,-79.6,30.2,-79.7
Q 28.7,-79.7,27.1,-79.7
 " /> 
<path  
style="fill:rgb(4,4,4)" 
d="M 30.2 -79.7
Q 30.4,-79.0,30.6,-78.2
Q 32.7,-78.6,35.1,-80.4
Q 33.8,-80.4,33.3,-81.1
Q 32.9,-80.9,32.4,-80.6
Q 31.5,-80.2,30.2,-79.7
 " /> 
<path  
style="fill:rgb(31,181,0)" 
d="M 33.3 -81.1
Q 33.7,-81.3,34.0,-81.5
Q 34.6,-82.0,35.3,-82.9
Q 35.7,-83.3,36.0,-83.7
Q 35.6,-83.4,35.1,-83.1
Q 34.2,-82.4,33.3,-81.1
 " /> 
<path  
style="fill:rgb(31,181,0)" 
d="M 52.0 -89.5
Q 52.8,-87.7,53.3,-87.3
Q 53.5,-87.1,53.8,-86.9
Q 53.6,-87.3,53.3,-87.7
Q 52.9,-88.6,52.4,-89.1
Q 52.2,-89.3,52.0,-89.5
 " /> 
<path  
style="fill:rgb(31,181,0)" 
d="M 56.0 -90.9
Q 56.5,-93.5,56.2,-95.1
Q 56.1,-95.9,56.0,-96.6
Q 56.0,-93.7,56.0,-90.9
 " /> 
<path  
style="fill:rgb(7,193,201)" 
d="M 24.0 -61.5
Q 24.3,-61.1,24.7,-60.6
Q 25.4,-59.8,26.0,-59.3
Q 26.3,-59.1,26.7,-58.9
Q 25.8,-60.2,24.0,-61.5
 " /> 
<path  
style="fill:rgb(4,4,4)" 
d="M -39.6 -69.5
Q -37.8,-68.2,-37.1,-67.3
Q -36.8,-66.9,-36.4,-66.4
Q -35.1,-65.3,-33.8,-64.2
Q -28.6,-59.9,-22.9,-58.9
Q -21.7,-58.6,-20.4,-58.4
Q -20.1,-58.5,-19.8,-58.7
Q -19.1,-58.9,-18.2,-58.4
Q -13.3,-59.7,-11.0,-61.2
Q -5.9,-64.5,-3.0,-70.2
Q -2.3,-71.5,-1.7,-72.8
Q -1.5,-72.1,-1.3,-71.3
Q -0.9,-69.7,-0.5,-68.0
Q -0.1,-66.2,0.7,-66.1
Q 2.2,-65.7,-2.5,-86.6
Q -8.4,-113.6,-19.9,-124.8
Q -30.8,-135.4,-40.4,-130.2
Q -48.9,-125.6,-51.5,-111.5
Q -51.8,-110.3,-52.0,-109.1
Q -51.9,-108.7,-51.8,-108.4
Q -51.5,-107.8,-52.0,-106.4
Q -52.0,-103.3,-52.0,-100.2
Q -51.5,-100.3,-51.5,-98.7
Q -51.5,-98.7,-51.5,-98.7
Q -51.5,-97.9,-51.6,-97.1
Q -51.4,-96.0,-51.3,-94.9
Q -50.0,-81.7,-41.1,-71.3
Q -40.3,-70.4,-39.6,-69.5
 " /> 
<path  
style="fill:rgb(31,181,0)" 
d="M -18.2 -61.1
Q -19.8,-61.1,-21.3,-61.1
Q -19.6,-60.6,-18.9,-60.8
Q -18.6,-61.0,-18.2,-61.1
 " /> 
<path  
style="fill:rgb(115,250,3)" 
d="M -18.2 -61.1
Q -17.2,-61.3,-16.2,-61.5
Q -12.2,-62.4,-8.3,-66.9
Q -2.9,-73.2,-3.0,-78.4
Q -3.0,-79.9,-4.2,-85.3
Q -8.8,-105.5,-18.1,-119.3
Q -18.8,-120.4,-19.6,-121.5
Q -20.0,-121.9,-20.4,-122.2
Q -21.3,-122.9,-21.8,-123.5
Q -22.0,-123.9,-22.2,-124.2
Q -23.7,-125.2,-25.1,-126.2
Q -33.2,-131.8,-39.8,-128.0
Q -46.0,-124.3,-48.6,-114.1
Q -49.0,-112.7,-49.3,-111.3
Q -49.3,-109.3,-49.8,-109.1
Q -49.8,-99.7,-49.1,-95.6
Q -47.6,-85.5,-41.1,-75.3
Q -40.1,-73.7,-39.1,-72.2
Q -38.3,-71.5,-37.6,-70.8
Q -36.0,-69.5,-34.9,-68.2
Q -34.3,-67.5,-33.8,-66.9
Q -33.1,-66.4,-32.4,-66.0
Q -31.1,-65.1,-30.0,-64.4
Q -29.4,-64.1,-28.9,-63.7
Q -28.6,-63.6,-28.2,-63.5
Q -27.6,-63.2,-27.1,-62.8
Q -26.9,-62.6,-26.7,-62.4
Q -26.0,-62.2,-25.3,-62.0
Q -24.0,-61.5,-22.7,-61.3
Q -22.0,-61.2,-21.3,-61.1
Q -19.8,-61.1,-18.2,-61.1
 " /> 
<path  
style="fill:rgb(4,4,4)" 
d="M -42.7 -110.0
Q -42.6,-107.8,-42.5,-105.9
Q -41.7,-105.9,-40.9,-106.0
Q -41.0,-106.5,-41.1,-107.1
Q -41.4,-108.2,-40.9,-110.0
Q -40.8,-110.9,-40.7,-111.7
Q -40.3,-115.0,-38.4,-118.0
Q -36.9,-120.2,-37.9,-120.2
Q -38.6,-120.2,-39.8,-118.7
Q -42.5,-115.1,-42.6,-111.3
Q -42.6,-110.7,-42.7,-110.0
 " /> 
<path  
style="fill:rgb(31,181,0)" 
d="M -42.7 -110.0
Q -43.1,-108.6,-44.1,-108.3
Q -47.6,-106.9,-44.1,-92.9
Q -39.2,-73.0,-28.8,-67.8
Q -19.7,-63.2,-10.3,-71.9
Q -6.4,-75.5,-7.6,-78.1
Q -8.1,-79.5,-7.6,-79.8
Q -7.4,-80.0,-7.1,-80.2
Q -8.1,-80.1,-9.1,-80.0
Q -12.4,-79.6,-16.9,-83.6
Q -19.3,-85.7,-20.6,-86.7
Q -23.0,-88.6,-26.4,-87.0
Q -28.4,-86.0,-30.7,-83.8
Q -36.4,-78.3,-40.6,-92.9
Q -42.1,-97.8,-42.5,-105.9
Q -42.6,-107.8,-42.7,-110.0
 " /> 
<path  
style="fill:rgb(4,4,4)" 
d="M -7.1 -80.2
Q -7.6,-81.1,-8.9,-81.3
Q -10.2,-81.5,-13.8,-83.3
Q -15.1,-84.2,-16.0,-85.5
Q -17.1,-86.5,-18.2,-87.5
Q -22.9,-91.7,-25.0,-91.7
Q -26.9,-91.7,-30.8,-86.9
Q -36.7,-79.4,-40.4,-102.7
Q -40.6,-104.3,-40.9,-106.0
Q -41.7,-105.9,-42.5,-105.9
Q -42.1,-97.8,-40.6,-92.9
Q -36.4,-78.3,-30.7,-83.8
Q -28.4,-86.0,-26.4,-87.0
Q -26.6,-87.4,-26.8,-87.9
Q -27.3,-87.8,-27.7,-87.7
Q -27.4,-88.1,-27.1,-88.4
Q -25.5,-90.3,-23.5,-89.3
Q -22.7,-88.9,-22.0,-88.5
Q -22.2,-88.5,-22.5,-88.4
Q -22.9,-88.2,-24.0,-88.3
Q -24.9,-88.3,-26.8,-87.9
Q -26.6,-87.4,-26.4,-87.0
Q -23.0,-88.6,-20.6,-86.7
Q -19.3,-85.7,-16.9,-83.6
Q -12.4,-79.6,-9.1,-80.0
Q -8.1,-80.1,-7.1,-80.2
 " /> 
<path  
style="fill:rgb(31,181,0)" 
d="M -40.9 -110.0
Q -41.4,-108.2,-41.1,-107.1
Q -41.0,-106.5,-40.9,-106.0
Q -40.9,-108.0,-40.9,-110.0
 " /> 
<path  
style="fill:rgb(31,181,0)" 
d="M -16.0 -85.5
Q -15.1,-84.2,-13.8,-83.3
Q -14.0,-83.6,-14.2,-84.0
Q -14.7,-84.6,-15.3,-85.1
Q -15.7,-85.3,-16.0,-85.5
 " /> 
<path  
style="fill:rgb(209,251,185)" 
d="M -12.1 -88.2
Q -9.7,-87.0,-9.9,-88.3
Q -10.5,-91.5,-17.6,-103.5
Q -27.5,-120.3,-32.9,-107.6
Q -34.6,-103.6,-32.0,-99.2
Q -30.2,-96.2,-24.4,-94.6
Q -20.0,-93.5,-16.0,-90.6
Q -13.8,-89.0,-12.1,-88.2
 " /> 
<path  
style="fill:rgb(255,255,255)" 
d="M -27.1 -88.4
Q -27.0,-88.1,-26.8,-87.9
Q -24.9,-88.3,-24.0,-88.3
Q -22.9,-88.2,-22.5,-88.4
Q -22.2,-88.5,-22.0,-88.5
Q -22.7,-88.9,-23.5,-89.3
Q -25.5,-90.3,-27.1,-88.4
 " /> 
<path  
style="fill:rgb(255,255,255)" 
d="M -27.1 -88.4
Q -27.4,-88.1,-27.7,-87.7
Q -27.3,-87.8,-26.8,-87.9
Q -27.0,-88.1,-27.1,-88.4
 " /> 
<path  
style="fill:rgb(31,181,0)" 
d="M -28.9 -63.7
Q -28.8,-63.5,-28.7,-63.3
Q -28.5,-62.8,-26.7,-62.4
Q -26.9,-62.6,-27.1,-62.8
Q -27.6,-63.2,-28.2,-63.5
Q -28.6,-63.6,-28.9,-63.7
 " /> 
<path  
style="fill:rgb(31,181,0)" 
d="M -33.8 -66.9
Q -34.3,-67.5,-34.9,-68.2
Q -36.0,-69.5,-37.6,-70.8
Q -38.3,-71.5,-39.1,-72.2
Q -36.4,-69.1,-35.1,-68.0
Q -34.4,-67.4,-33.8,-66.9
 " /> 
<path  
style="fill:rgb(31,181,0)" 
d="M -49.8 -109.1
Q -49.3,-109.3,-49.3,-111.3
Q -49.7,-111.2,-49.8,-109.1
 " /> 
<path  
style="fill:rgb(31,181,0)" 
d="M -22.2 -124.2
Q -22.0,-123.9,-21.8,-123.5
Q -21.3,-122.9,-20.4,-122.2
Q -20.0,-121.9,-19.6,-121.5
Q -19.9,-122.0,-20.2,-122.4
Q -20.9,-123.3,-22.2,-124.2
 " /> 
<path  
style="fill:rgb(14,103,171)" 
d="M -39.6 -69.5
Q -39.2,-69.1,-38.9,-68.6
Q -38.2,-67.8,-36.4,-66.4
Q -36.8,-66.9,-37.1,-67.3
Q -37.8,-68.2,-39.6,-69.5
 " /> 
<path  
style="fill:rgb(7,193,201)" 
d="M -51.6 -97.1
Q -51.5,-97.9,-51.5,-98.7
Q -51.8,-99.5,-52.0,-100.2
Q -52.0,-96.9,-51.8,-97.0
Q -51.7,-97.0,-51.6,-97.1
 " /> 
<path  
style="fill:rgb(7,193,201)" 
d="M -52.0 -100.2
Q -51.8,-99.5,-51.5,-98.7
Q -51.5,-98.7,-51.5,-98.7
Q -51.5,-100.3,-52.0,-100.2
 " /> 
<path  
style="fill:rgb(14,103,171)" 
d="M -52.0 -106.4
Q -51.5,-107.8,-51.8,-108.4
Q -51.9,-108.7,-52.0,-109.1
Q -52.0,-107.7,-52.0,-106.4
 " /> 
<path  
style="fill:rgb(14,103,171)" 
d="M -18.2 -58.4
Q -19.1,-58.9,-19.8,-58.7
Q -20.1,-58.5,-20.4,-58.4
Q -19.3,-58.4,-18.2,-58.4
 " /> 
<path  
style="fill:rgb(7,193,201)" 
d="M -68.4 -105.5
Q -68.5,-105.5,-68.6,-105.5
Q -68.8,-105.4,-68.9,-102.4
Q -68.4,-102.6,-68.4,-105.5
 " /> 
<path  
style="fill:rgb(14,103,171)" 
d="M -52.4 -142.0
Q -52.6,-142.9,-52.3,-143.4
Q -52.0,-144.0,-49.8,-146.4
Q -50.7,-145.6,-51.6,-144.7
Q -53.4,-143.0,-52.9,-142.5
Q -52.7,-142.2,-52.4,-142.0
 " /> 
<path  
style="fill:rgb(7,193,201)" 
d="M -15.6 -163.3
Q -14.2,-161.6,-12.0,-159.7
Q -12.4,-160.3,-12.9,-160.8
Q -13.8,-162.0,-14.7,-162.6
Q -15.1,-163.0,-15.6,-163.3
 " /> 
<path  
style="fill:rgb(14,103,171)" 
d="M -4.9 -150.4
Q -3.3,-150.4,-1.8,-150.4
Q -2.2,-150.5,-2.7,-150.7
Q -3.5,-150.9,-4.2,-150.7
Q -4.5,-150.5,-4.9,-150.4
 " /> 
<path  
style="fill:rgb(7,193,201)" 
d="M 24.4 -165.1
Q 25.8,-165.1,27.1,-165.1
Q 26.8,-165.2,26.4,-165.3
Q 25.8,-165.6,24.4,-165.1
 " /> 
<path  
style="fill:rgb(7,193,201)" 
d="M 76.9 -86.4
Q 76.9,-81.3,76.9,-76.2
Q 77.0,-77.5,77.1,-78.9
Q 77.3,-81.5,77.1,-84.0
Q 77.0,-85.2,76.9,-86.4
 " /> 
<path  
style="fill:rgb(14,103,171)" 
d="M 12.0 -13.5
Q 10.9,-13.5,9.8,-13.5
Q 10.1,-13.4,10.4,-13.3
Q 11.1,-13.0,12.0,-13.5
 " /> 
<path  
style="fill:rgb(14,103,171)" 
d="M 3.6 -13.1
Q 1.8,-13.1,0.0,-13.1
Q 1.8,-12.6,3.6,-13.1
 " /> 
<path  
style="fill:rgb(7,193,201)" 
d="M -17.3 -17.5
Q -18.6,-16.6,-20.0,-14.9
Q -19.6,-15.2,-19.1,-15.5
Q -18.2,-16.2,-17.3,-17.5
 " /> 
<path  
style="fill:rgb(14,103,171)" 
d="M -25.8 -6.4
Q -27.1,-5.5,-28.0,-4.2
Q -27.7,-4.4,-27.3,-4.7
Q -26.7,-5.1,-25.8,-6.4
 " /> 
<path  
style="fill:rgb(7,193,201)" 
d="M -28.0 -4.2
Q -29.8,-2.8,-30.6,-1.7
Q -31.1,-1.2,-31.6,-0.6
Q -31.0,-1.1,-30.5,-1.5
Q -29.4,-2.4,-28.0,-4.2
 " /> 
<path  
style="fill:rgb(97,247,248)" 
d="M 73.8 -53.1
Q 73.8,-52.9,73.8,-52.6
Q 74.1,-52.6,74.5,-52.6
Q 75.1,-52.5,79.4,-53.9
Q 83.6,-55.3,87.5,-57.3
Q 93.3,-60.3,92.7,-60.9
Q 92.4,-61.3,90.1,-60.0
Q 85.0,-57.2,73.8,-53.1
 " /> 
<path  
style="fill:rgb(97,247,248)" 
d="M 78.7 -70.9
Q 84.0,-72.0,88.4,-74.1
Q 100.2,-79.7,107.0,-92.3
Q 107.2,-92.6,106.6,-92.6
Q 106.0,-92.6,104.4,-90.1
Q 96.3,-77.3,78.7,-71.7
Q 78.7,-71.3,78.7,-70.9
 " /> 
<path  
style="fill:rgb(14,103,171)" 
d="M 79.1 -76.6
Q 79.6,-80.6,79.3,-82.9
Q 79.2,-84.0,79.1,-85.1
Q 79.1,-80.9,79.1,-76.6
 " /> 
<path  
style="fill:rgb(14,103,171)" 
d="M 78.7 -95.7
Q 78.7,-98.5,78.5,-98.5
Q 78.3,-98.4,78.2,-98.4
Q 78.2,-95.6,78.4,-95.7
Q 78.6,-95.7,78.7,-95.7
 " /> 
<path  
style="fill:rgb(14,103,171)" 
d="M 78.2 -99.7
Q 78.2,-100.3,78.2,-100.9
Q 78.0,-101.4,77.8,-102.0
Q 77.8,-99.6,78.0,-99.7
Q 78.1,-99.7,78.2,-99.7
 " /> 
<path  
style="fill:rgb(14,103,171)" 
d="M 77.8 -102.0
Q 78.0,-101.4,78.2,-100.9
Q 78.2,-100.9,78.2,-100.9
Q 78.3,-102.1,78.0,-102.0
Q 77.9,-102.0,77.8,-102.0
 " /> 
<path  
style="fill:rgb(97,247,248)" 
d="M 77.3 -104.2
Q 78.5,-104.1,81.2,-106.7
Q 89.7,-115.1,89.8,-134.0
Q 89.8,-143.7,89.3,-143.7
Q 88.9,-143.7,88.9,-138.5
Q 88.9,-116.2,80.2,-107.5
Q 78.8,-106.1,77.3,-104.6
Q 77.3,-104.4,77.3,-104.2
 " /> 
<path  
style="fill:rgb(14,103,171)" 
d="M 73.8 -148.2
Q 74.0,-147.9,74.2,-147.5
Q 74.7,-146.9,76.4,-145.5
Q 76.1,-146.0,75.8,-146.4
Q 75.1,-147.3,74.4,-147.7
Q 74.1,-148.0,73.8,-148.2
 " /> 
<path  
style="fill:rgb(7,193,201)" 
d="M 73.8 -148.2
Q 72.9,-149.1,72.0,-150.0
Q 72.1,-149.1,72.2,-148.3
Q 72.3,-148.1,72.3,-148.0
Q 73.0,-148.1,73.8,-148.2
 " /> 
<path  
style="fill:rgb(14,103,171)" 
d="M 83.6 -154.0
Q 83.9,-154.1,83.9,-154.5
Q 84.0,-154.9,84.0,-158.0
Q 83.7,-157.9,83.6,-157.5
Q 83.6,-157.1,83.6,-154.0
 " /> 
<path  
style="fill:rgb(14,103,171)" 
d="M 100.4 -133.5
Q 100.8,-133.2,101.1,-132.8
Q 101.8,-132.1,103.1,-132.6
Q 102.8,-132.6,102.4,-132.6
Q 101.8,-132.6,101.1,-133.1
Q 100.8,-133.3,100.4,-133.5
 " /> 
<path  
style="fill:rgb(14,103,171)" 
d="M 114.2 -155.3
Q 114.5,-155.5,114.9,-155.8
Q 115.5,-156.3,116.4,-157.5
Q 115.1,-156.6,114.7,-156.0
Q 114.4,-155.6,114.2,-155.3
 " /> 
<path  
style="fill:rgb(14,103,171)" 
d="M 120.0 -152.6
Q 120.0,-151.8,120.0,-151.0
Q 120.2,-150.3,120.4,-149.5
Q 120.4,-150.3,120.4,-151.2
Q 120.4,-152.8,120.0,-152.6
 " /> 
<path  
style="fill:rgb(14,103,171)" 
d="M 120.4 -149.5
Q 120.2,-150.3,120.0,-151.0
Q 120.0,-151.0,120.0,-151.0
Q 120.0,-149.4,120.4,-149.5
 " /> 
<path  
style="fill:rgb(14,103,171)" 
d="M 120.4 -145.1
Q 120.3,-145.0,120.2,-145.0
Q 120.0,-144.9,120.0,-142.9
Q 120.4,-143.0,120.4,-145.1
 " /> 
<path  
style="fill:rgb(14,103,171)" 
d="M 111.1 -104.2
Q 111.4,-104.4,111.8,-104.7
Q 112.4,-105.1,112.9,-105.8
Q 113.1,-106.1,113.3,-106.4
Q 113.0,-106.2,112.7,-106.0
Q 112.0,-105.5,111.1,-104.2
 " /> 
<path  
style="fill:rgb(14,103,171)" 
d="M 118.2 -94.0
Q 118.0,-93.7,117.8,-93.5
Q 117.3,-93.1,116.9,-92.2
Q 116.7,-91.7,116.4,-91.3
Q 116.7,-91.5,116.9,-91.7
Q 117.4,-92.2,117.8,-93.1
Q 118.0,-93.5,118.2,-94.0
 " /> 
<path  
style="fill:rgb(14,103,171)" 
d="M 109.3 -66.9
Q 110.6,-66.9,111.0,-66.8
Q 111.0,-66.9,111.0,-67.0
Q 110.8,-67.5,110.1,-67.2
Q 109.7,-67.0,109.3,-66.9
 " /> 
<path  
style="fill:rgb(14,103,171)" 
d="M 107.6 -60.6
Q 107.2,-60.4,106.9,-60.2
Q 106.3,-59.7,105.3,-58.4
Q 105.7,-58.6,106.0,-58.9
Q 106.6,-59.3,107.1,-60.0
Q 107.3,-60.3,107.6,-60.6
 " /> 
<path  
style="fill:rgb(97,247,248)" 
d="M 74.4 -124.5
Q 74.1,-123.3,74.6,-123.3
Q 76.0,-123.3,76.6,-129.1
Q 77.3,-135.2,75.9,-134.7
Q 75.4,-134.6,75.5,-131.9
Q 75.6,-129.3,75.2,-127.5
Q 74.7,-125.7,74.4,-124.5
 " /> 
<path  
style="fill:rgb(97,247,248)" 
d="M 66.7 -134.5
Q 66.7,-133.5,67.1,-133.5
Q 67.5,-133.5,67.7,-134.3
Q 69.0,-138.7,68.0,-138.3
Q 66.7,-137.8,66.7,-134.5
 " /> 
<path  
style="fill:rgb(14,103,171)" 
d="M -0.3 45.8
Q -0.5,45.9,-0.7,46.1
Q -0.5,46.1,-0.4,46.2
Q -0.3,46.0,-0.2,45.9
Q -0.3,45.8,-0.4,45.6
 " /> 
<path  
style="fill:rgb(255,255,255)" 
d="M 0.4 46.9
Q 0.1,46.7,-0.2,46.5
Q -0.6,46.5,-0.9,46.5
Q -0.2,46.7,0.4,46.9
 " /> 
<path  
style="fill:rgb(255,255,255)" 
d="M 0.4 46.5
Q -0.0,46.3,-0.5,46.2
Q -0.6,46.2,-0.7,46.3
Q -0.3,46.4,-0.1,46.6
Q 0.1,46.5,0.4,46.5
 " /> 
<path  
style="fill:rgb(255,255,255)" 
d="M -0.9 46.5
Q -0.6,46.5,-0.2,46.5
Q -0.5,46.3,-0.7,46.1
Q -0.7,46.3,-0.9,46.5
 " /> 
<path  
style="fill:rgb(4,4,4)" 
d="M -98.2 -59.7
Q -95.6,-57.5,-93.8,-55.3
Q -92.2,-54.2,-90.7,-53.1
Q -72.7,-40.3,-55.6,-37.5
Q -52.8,-37.0,-52.6,-37.2
Q -52.3,-37.5,-53.7,-39.2
Q -57.2,-43.7,-58.6,-47.0
Q -59.1,-48.0,-59.6,-49.1
Q -60.7,-49.2,-61.8,-49.3
Q -70.6,-50.2,-84.0,-59.7
Q -94.8,-67.4,-92.9,-68.1
Q -92.4,-68.3,-90.3,-66.3
Q -80.8,-57.4,-68.8,-52.5
Q -65.4,-51.1,-60.4,-50.4
Q -61.3,-52.9,-62.2,-55.3
Q -67.5,-69.9,-68.9,-76.6
Q -69.4,-76.5,-69.4,-77.2
Q -69.4,-77.2,-69.4,-77.2
Q -69.3,-77.6,-69.3,-78.0
Q -74.7,-80.2,-77.5,-82.4
Q -84.0,-87.4,-88.2,-94.5
Q -91.6,-100.1,-90.3,-99.7
Q -89.8,-99.5,-87.5,-95.7
Q -81.0,-85.3,-71.9,-80.2
Q -70.6,-79.6,-69.3,-78.9
Q -69.6,-80.0,-69.8,-81.1
Q -70.2,-83.3,-70.4,-85.7
Q -70.6,-87.0,-70.7,-88.2
Q -70.8,-88.2,-70.9,-88.1
Q -71.0,-88.1,-71.1,-88.3
Q -71.2,-88.6,-71.1,-91.7
Q -71.1,-93.1,-71.1,-94.4
Q -72.3,-95.4,-73.6,-96.4
Q -80.9,-102.4,-84.0,-111.6
Q -85.5,-116.0,-85.3,-117.2
Q -85.0,-118.7,-83.6,-114.1
Q -80.3,-103.7,-71.1,-95.7
Q -71.1,-97.5,-71.1,-99.3
Q -71.1,-101.3,-70.9,-101.4
Q -70.8,-101.5,-70.7,-101.5
Q -70.7,-104.2,-70.7,-106.9
Q -70.7,-107.5,-70.7,-108.1
Q -70.7,-109.3,-70.4,-109.4
Q -70.3,-109.5,-70.2,-109.5
Q -70.3,-110.1,-70.4,-110.7
Q -70.8,-110.7,-72.8,-112.8
Q -76.5,-116.9,-78.6,-122.2
Q -80.6,-127.3,-79.6,-127.3
Q -79.2,-127.3,-78.3,-124.6
Q -76.2,-118.5,-72.1,-113.6
Q -70.1,-111.3,-70.3,-110.8
Q -70.3,-110.7,-70.4,-110.7
Q -70.3,-110.1,-70.2,-109.5
Q -69.3,-115.3,-68.9,-117.3
Q -68.4,-119.3,-66.7,-125.1
Q -69.3,-130.0,-69.8,-132.5
Q -70.9,-138.9,-69.6,-138.9
Q -69.0,-138.9,-68.7,-134.6
Q -68.5,-130.4,-67.3,-128.2
Q -66.8,-127.1,-66.2,-126.0
Q -62.7,-133.1,-61.1,-135.4
Q -59.6,-137.7,-61.3,-139.1
Q -62.9,-140.5,-63.1,-144.6
Q -63.6,-147.3,-63.1,-149.5
Q -63.1,-152.2,-63.1,-154.9
Q -63.1,-155.7,-63.1,-156.5
Q -63.1,-158.2,-62.7,-158.4
Q -62.7,-162.9,-62.7,-167.3
Q -62.8,-167.3,-62.9,-167.2
Q -63.2,-167.1,-63.1,-168.3
Q -63.1,-168.3,-63.1,-168.3
Q -63.1,-168.9,-63.1,-169.5
Q -63.3,-170.1,-63.6,-170.6
Q -64.4,-172.8,-67.0,-168.0
Q -71.1,-160.2,-74.0,-141.3
Q -75.3,-133.0,-76.9,-135.9
Q -77.1,-136.2,-77.3,-136.6
Q -77.7,-136.5,-77.8,-136.8
Q -77.8,-137.0,-77.8,-141.5
Q -77.7,-150.4,-78.7,-153.1
Q -78.9,-153.0,-79.1,-152.8
Q -79.5,-152.6,-80.0,-152.0
Q -80.2,-151.6,-80.4,-151.3
Q -81.8,-144.6,-82.0,-141.7
Q -82.6,-134.8,-84.3,-134.5
Q -86.1,-134.2,-88.0,-145.7
Q -89.3,-153.5,-90.0,-156.1
Q -90.7,-158.4,-91.3,-160.8
Q -95.0,-174.6,-98.2,-168.7
Q -99.1,-167.0,-99.5,-164.2
Q -99.8,-162.9,-100.0,-161.5
Q -99.9,-161.2,-99.8,-160.9
Q -99.5,-160.2,-99.8,-159.5
Q -99.9,-159.2,-100.0,-158.9
Q -99.8,-157.1,-99.6,-155.3
Q -98.1,-144.1,-94.0,-130.9
Q -91.3,-122.1,-92.4,-120.2
Q -92.8,-119.3,-94.7,-119.3
Q -95.1,-119.6,-95.5,-120.0
Q -96.4,-120.7,-97.3,-122.0
Q -98.2,-124.0,-99.1,-126.0
Q -100.9,-130.0,-103.1,-136.0
Q -104.2,-139.0,-105.3,-142.0
Q -105.6,-142.2,-106.0,-142.5
Q -106.6,-143.1,-108.0,-142.4
Q -108.3,-141.5,-108.7,-140.6
Q -109.3,-138.9,-109.8,-136.4
Q -113.5,-115.1,-93.4,-82.5
Q -85.9,-70.3,-98.4,-77.7
Q -107.7,-83.3,-109.7,-83.6
Q -110.5,-83.8,-111.2,-83.9
Q -111.1,-83.1,-111.0,-82.4
Q -109.6,-74.2,-100.2,-62.2
Q -99.2,-61.0,-98.2,-59.7
 " /> 
<path  
style="fill:rgb(14,103,171)" 
d="M -98.2 -59.7
Q -97.7,-59.1,-97.1,-58.4
Q -96.0,-57.1,-93.8,-55.3
Q -95.6,-57.5,-98.2,-59.7
 " /> 
<path  
style="fill:rgb(14,103,171)" 
d="M -108.0 -142.4
Q -106.6,-143.1,-106.0,-142.5
Q -105.6,-142.2,-105.3,-142.0
Q -105.6,-142.4,-105.9,-142.8
Q -106.6,-143.6,-108.0,-142.4
 " /> 
<path  
style="fill:rgb(4,4,4)" 
d="M -105.3 -142.0
Q -104.2,-139.0,-103.1,-136.0
Q -100.9,-130.0,-99.1,-126.0
Q -98.2,-124.0,-97.3,-122.0
Q -96.0,-121.1,-94.7,-119.3
Q -92.8,-119.3,-92.4,-120.2
Q -91.3,-122.1,-94.0,-130.9
Q -98.1,-144.1,-99.6,-155.3
Q -99.8,-157.1,-100.0,-158.9
Q -100.0,-160.2,-100.0,-161.5
Q -99.8,-162.9,-99.5,-164.2
Q -99.1,-167.0,-98.2,-168.7
Q -95.0,-174.6,-91.3,-160.8
Q -90.7,-158.4,-90.0,-156.1
Q -89.3,-153.5,-88.0,-145.7
Q -86.1,-134.2,-84.3,-134.5
Q -82.6,-134.8,-82.0,-141.7
Q -81.8,-144.6,-80.4,-151.3
Q -80.2,-151.8,-79.9,-152.3
Q -79.5,-153.3,-79.1,-153.2
Q -78.9,-153.1,-78.7,-153.1
Q -77.7,-150.4,-77.8,-141.5
Q -77.3,-141.7,-77.3,-139.2
Q -77.3,-137.9,-77.3,-136.6
Q -77.1,-136.2,-76.9,-135.9
Q -75.3,-133.0,-74.0,-141.3
Q -71.1,-160.2,-67.0,-168.0
Q -64.4,-172.8,-63.6,-170.6
Q -63.3,-170.1,-63.1,-169.5
Q -62.8,-169.7,-62.7,-169.5
Q -62.7,-169.2,-62.7,-167.3
Q -61.8,-167.4,-61.0,-167.4
Q -61.1,-169.9,-61.5,-170.9
Q -63.7,-177.0,-68.3,-170.2
Q -71.8,-164.9,-74.4,-151.5
Q -75.0,-148.9,-75.5,-146.2
Q -76.0,-149.7,-76.5,-152.1
Q -77.2,-156.4,-79.3,-156.1
Q -82.2,-155.6,-84.1,-142.9
Q -84.3,-141.0,-84.6,-139.2
Q -84.9,-140.3,-85.2,-141.3
Q -85.7,-143.5,-86.2,-147.1
Q -87.6,-157.3,-91.0,-166.1
Q -93.8,-173.4,-97.5,-172.5
Q -99.9,-171.9,-101.0,-167.8
Q -104.2,-154.8,-96.2,-130.4
Q -94.6,-125.8,-94.1,-121.8
Q -94.7,-122.5,-95.3,-123.3
Q -96.4,-124.8,-98.9,-131.3
Q -102.1,-139.4,-104.0,-142.7
Q -104.7,-142.4,-105.3,-142.0
 " /> 
<path  
style="fill:rgb(14,103,171)" 
d="M -97.3 -122.0
Q -96.4,-120.7,-95.5,-120.0
Q -95.1,-119.6,-94.7,-119.3
Q -96.0,-121.1,-97.3,-122.0
 " /> 
<path  
style="fill:rgb(14,103,171)" 
d="M -100.0 -158.9
Q -99.9,-159.2,-99.8,-159.5
Q -99.5,-160.2,-99.8,-160.9
Q -99.9,-161.2,-100.0,-161.5
Q -100.0,-160.2,-100.0,-158.9
 " /> 
<path  
style="fill:rgb(14,103,171)" 
d="M -80.4 -151.3
Q -80.2,-151.6,-80.0,-152.0
Q -79.5,-152.6,-79.1,-152.8
Q -78.9,-153.0,-78.7,-153.1
Q -78.9,-153.1,-79.1,-153.2
Q -79.5,-153.3,-79.9,-152.3
Q -80.2,-151.8,-80.4,-151.3
 " /> 
<path  
style="fill:rgb(14,103,171)" 
d="M -77.8 -141.5
Q -77.8,-137.0,-77.8,-136.8
Q -77.7,-136.5,-77.3,-136.6
Q -77.3,-137.9,-77.3,-139.2
Q -77.3,-141.7,-77.8,-141.5
 " /> 
<path  
style="fill:rgb(14,103,171)" 
d="M -63.1 -169.5
Q -63.1,-168.9,-63.1,-168.3
Q -62.9,-167.8,-62.7,-167.3
Q -62.7,-169.2,-62.7,-169.5
Q -62.8,-169.7,-63.1,-169.5
 " /> 
<path  
style="fill:rgb(14,103,171)" 
d="M -62.7 -167.3
Q -62.9,-167.8,-63.1,-168.3
Q -63.1,-168.3,-63.1,-168.3
Q -63.2,-167.1,-62.9,-167.2
Q -62.8,-167.3,-62.7,-167.3
 " /> 
<path  
style="fill:rgb(14,103,171)" 
d="M -62.7 -158.4
Q -63.1,-158.2,-63.1,-156.5
Q -63.1,-155.7,-63.1,-154.9
Q -63.0,-154.9,-62.9,-154.9
Q -62.7,-155.0,-62.7,-156.7
Q -62.7,-157.6,-62.7,-158.4
 " /> 
<path  
style="fill:rgb(14,103,171)" 
d="M -63.1 -149.5
Q -63.6,-147.3,-63.1,-144.6
Q -63.1,-147.1,-63.1,-149.5
 " /> 
<path  
style="fill:rgb(97,247,248)" 
d="M -66.2 -126.0
Q -66.8,-127.1,-67.3,-128.2
Q -68.5,-130.4,-68.7,-134.6
Q -69.0,-138.9,-69.6,-138.9
Q -70.9,-138.9,-69.8,-132.5
Q -69.3,-130.0,-66.7,-125.1
Q -66.3,-125.2,-66.2,-126.0
 " /> 
<path  
style="fill:rgb(14,103,171)" 
d="M -70.2 -109.5
Q -70.3,-109.5,-70.4,-109.4
Q -70.7,-109.3,-70.7,-108.1
Q -70.7,-107.5,-70.7,-106.9
Q -70.6,-106.9,-70.5,-106.9
Q -70.3,-107.0,-70.3,-108.3
Q -70.2,-108.9,-70.2,-109.5
 " /> 
<path  
style="fill:rgb(14,103,171)" 
d="M -70.7 -101.5
Q -70.8,-101.5,-70.9,-101.4
Q -71.1,-101.3,-71.1,-99.3
Q -70.7,-99.5,-70.7,-101.5
 " /> 
<path  
style="fill:rgb(97,247,248)" 
d="M -71.1 -95.7
Q -80.3,-103.7,-83.6,-114.1
Q -85.0,-118.7,-85.3,-117.2
Q -85.5,-116.0,-84.0,-111.6
Q -80.9,-102.4,-73.6,-96.4
Q -72.3,-95.4,-71.1,-94.4
Q -71.1,-95.1,-71.1,-95.7
 " /> 
<path  
style="fill:rgb(14,103,171)" 
d="M -71.1 -91.7
Q -71.2,-88.6,-71.1,-88.3
Q -71.0,-88.1,-70.9,-88.1
Q -70.8,-88.2,-70.7,-88.2
Q -70.7,-92.0,-70.9,-91.8
Q -71.0,-91.8,-71.1,-91.7
 " /> 
<path  
style="fill:rgb(14,103,171)" 
d="M -69.3 -78.9
Q -69.3,-78.4,-69.3,-78.0
Q -69.1,-78.0,-68.9,-78.0
Q -68.9,-78.6,-68.9,-78.8
Q -69.0,-79.0,-69.3,-78.9
 " /> 
<path  
style="fill:rgb(97,247,248)" 
d="M -69.3 -78.9
Q -70.6,-79.6,-71.9,-80.2
Q -81.0,-85.3,-87.5,-95.7
Q -89.8,-99.5,-90.3,-99.7
Q -91.6,-100.1,-88.2,-94.5
Q -84.0,-87.4,-77.5,-82.4
Q -74.7,-80.2,-69.3,-78.0
Q -69.3,-78.4,-69.3,-78.9
 " /> 
<path  
style="fill:rgb(14,103,171)" 
d="M -69.3 -78.0
Q -69.1,-77.3,-68.9,-76.6
Q -68.9,-77.5,-68.9,-78.0
Q -69.1,-78.0,-69.3,-78.0
 " /> 
<path  
style="fill:rgb(14,103,171)" 
d="M -69.3 -78.0
Q -69.3,-77.6,-69.4,-77.2
Q -69.1,-76.9,-68.9,-76.6
Q -69.1,-77.3,-69.3,-78.0
 " /> 
<path  
style="fill:rgb(14,103,171)" 
d="M -68.9 -76.6
Q -69.1,-76.9,-69.4,-77.2
Q -69.4,-77.2,-69.4,-77.2
Q -69.4,-76.5,-68.9,-76.6
 " /> 
<path  
style="fill:rgb(97,247,248)" 
d="M -60.4 -50.4
Q -65.4,-51.1,-68.8,-52.5
Q -80.8,-57.4,-90.3,-66.3
Q -92.4,-68.3,-92.9,-68.1
Q -94.8,-67.4,-84.0,-59.7
Q -70.6,-50.2,-61.8,-49.3
Q -60.7,-49.2,-59.6,-49.1
Q -60.0,-49.7,-60.4,-50.4
 " /> 
<path  
style="fill:rgb(97,247,248)" 
d="M -72.8 -112.8
Q -70.8,-110.7,-70.4,-110.7
Q -70.3,-110.7,-70.3,-110.8
Q -70.1,-111.3,-72.1,-113.6
Q -76.2,-118.5,-78.3,-124.6
Q -79.2,-127.3,-79.6,-127.3
Q -80.6,-127.3,-78.6,-122.2
Q -76.5,-116.9,-72.8,-112.8
 " /> 
<path  
style="fill:rgb(7,193,201)" 
d="M -16.0 -206.0
Q -16.2,-205.3,-16.4,-204.6
Q -16.1,-204.7,-15.7,-204.8
Q -15.9,-205.3,-16.0,-206.0
 " /> 
<path  
style="fill:rgb(7,193,201)" 
d="M -16.0 -206.0
Q -16.1,-205.9,-16.3,-205.8
Q -16.4,-205.6,-16.4,-205.2
Q -16.4,-204.9,-16.4,-204.6
Q -16.2,-205.3,-16.0,-206.0
 " /> 
<path  
style="fill:rgb(14,103,171)" 
d="M -16.0 -206.0
Q -16.8,-206.5,-16.6,-205.6
Q -16.4,-205.7,-16.3,-205.8
Q -16.2,-205.9,-16.2,-205.9
Q -16.1,-205.9,-16.0,-206.0
 " /> 
<path  
style="fill:rgb(14,103,171)" 
d="M -16.4 -204.6
Q -16.4,-204.9,-16.4,-205.2
Q -16.4,-205.6,-16.3,-205.8
Q -16.4,-205.7,-16.6,-205.6
Q -16.6,-205.6,-16.6,-205.6
Q -16.5,-205.1,-16.4,-204.6
 " /> 
<path  
style="fill:rgb(7,193,201)" 
d="M -16.4 -204.6
Q -16.0,-200.6,-15.6,-198.5
Q -15.1,-196.4,-14.7,-194.2
Q -13.4,-187.6,-11.6,-180.4
Q -10.2,-175.1,-10.7,-174.7
Q -11.6,-173.8,-13.1,-179.5
Q -15.3,-188.0,-16.1,-191.7
Q -16.5,-194.0,-17.5,-193.7
Q -22.9,-192.1,-20.0,-186.8
Q -15.3,-178.2,-12.8,-174.7
Q -11.6,-172.9,-11.6,-171.9
Q -11.6,-170.2,-12.5,-171.2
Q -15.0,-174.0,-19.2,-181.5
Q -20.1,-183.1,-21.1,-184.6
Q -23.6,-188.5,-26.9,-194.5
Q -29.4,-199.3,-31.6,-201.7
Q -31.6,-197.3,-31.1,-195.1
Q -30.7,-192.9,-30.3,-190.0
Q -29.4,-184.0,-26.8,-176.7
Q -24.8,-170.8,-21.1,-169.1
Q -12.3,-165.1,-5.7,-154.4
Q -4.4,-152.2,-2.1,-152.2
Q 0.2,-152.2,2.4,-152.1
Q 3.6,-152.0,4.4,-152.4
Q 5.1,-152.7,8.4,-157.1
Q 9.1,-158.0,9.9,-158.7
Q 10.3,-159.0,10.7,-159.3
Q 11.2,-160.0,11.8,-160.6
Q 12.9,-161.9,16.0,-163.7
Q 16.3,-164.1,16.6,-164.5
Q 17.2,-165.2,18.7,-166.4
Q 20.9,-170.9,21.7,-173.2
Q 22.6,-175.5,23.5,-178.0
Q 25.7,-184.1,26.7,-188.6
Q 26.9,-189.7,27.1,-190.9
Q 27.1,-191.9,27.0,-192.5
Q 26.6,-192.8,26.2,-193.1
Q 22.4,-187.4,19.3,-179.8
Q 16.3,-172.5,15.6,-173.7
Q 15.1,-174.6,18.5,-182.9
Q 19.2,-184.5,18.3,-186.7
Q 17.4,-188.9,15.1,-189.5
Q 14.0,-189.5,12.9,-189.5
Q 12.7,-189.0,12.4,-188.4
Q 12.0,-187.3,10.4,-182.4
Q 8.8,-177.5,8.1,-177.7
Q 7.0,-177.9,8.5,-182.5
Q 10.6,-189.0,9.6,-189.3
Q 8.7,-189.5,9.9,-190.5
Q 11.4,-191.8,12.9,-200.4
Q 13.1,-201.6,13.3,-202.9
Q 12.6,-203.1,11.9,-203.3
Q 11.7,-202.9,11.6,-202.4
Q 10.2,-198.4,8.8,-192.6
Q 7.4,-186.8,6.7,-187.0
Q 5.6,-187.3,6.9,-192.3
Q 9.2,-200.8,2.8,-207.0
Q 2.2,-207.6,2.2,-204.4
Q 2.2,-202.9,2.2,-201.5
Q 2.6,-201.6,2.7,-201.4
Q 2.7,-201.1,2.7,-196.2
Q 2.7,-192.2,2.7,-188.2
Q 2.7,-187.1,2.7,-186.0
Q 2.7,-186.4,2.7,-185.5
Q 2.3,-185.5,1.9,-185.4
Q 1.1,-185.3,1.2,-186.3
Q 1.2,-186.3,1.2,-186.3
Q 1.3,-186.8,1.3,-187.3
Q 1.3,-187.7,1.3,-188.2
Q 1.2,-188.2,1.1,-188.1
Q 0.8,-188.0,0.9,-190.4
Q 0.9,-191.3,0.9,-192.2
Q 0.9,-193.3,0.9,-194.4
Q 0.9,-196.6,0.9,-198.9
Q 0.8,-198.8,0.6,-198.8
Q 0.4,-198.7,0.4,-201.1
Q 0.4,-202.6,0.4,-204.2
Q 0.3,-204.2,0.2,-204.1
Q -0.1,-204.0,0.0,-206.4
Q -0.9,-214.0,-1.6,-217.6
Q -3.1,-225.5,-4.1,-224.8
Q -4.6,-224.5,-6.2,-220.6
Q -6.2,-219.7,-6.2,-218.7
Q -6.2,-216.9,-6.7,-216.6
Q -6.7,-216.2,-6.7,-215.7
Q -6.5,-215.4,-6.4,-215.1
Q -6.2,-214.4,-6.7,-213.1
Q -6.7,-212.0,-6.7,-210.9
Q -6.5,-210.5,-6.4,-210.2
Q -6.1,-209.5,-6.4,-209.1
Q -6.5,-208.9,-6.7,-208.6
Q -6.2,-206.4,-6.2,-203.7
Q -6.2,-202.4,-6.2,-201.1
Q -6.1,-201.1,-6.0,-201.2
Q -5.7,-201.2,-5.7,-199.6
Q -5.7,-199.6,-5.7,-199.6
Q -5.8,-198.8,-5.8,-198.0
Q -5.8,-197.1,-5.8,-196.2
Q -5.6,-196.2,-5.5,-196.3
Q -5.4,-196.3,-5.3,-196.1
Q -5.3,-195.8,-5.3,-192.6
Q -5.3,-191.5,-5.3,-190.4
Q -5.2,-190.0,-5.0,-189.5
Q -4.8,-188.6,-5.8,-187.3
Q -6.0,-187.4,-6.3,-187.5
Q -6.8,-187.7,-6.7,-188.4
Q -6.7,-188.7,-6.7,-189.1
Q -7.2,-188.9,-7.1,-190.3
Q -7.1,-190.3,-7.1,-190.3
Q -7.1,-191.0,-7.1,-191.7
Q -7.1,-192.9,-7.1,-194.0
Q -7.2,-193.9,-7.4,-193.9
Q -7.6,-193.8,-7.6,-195.2
Q -7.6,-195.2,-7.6,-195.2
Q -7.6,-195.9,-7.6,-196.6
Q -7.6,-197.7,-7.6,-198.9
Q -7.7,-198.8,-7.8,-198.8
Q -7.9,-198.7,-8.0,-199.0
Q -8.0,-199.2,-8.0,-201.1
Q -8.0,-202.6,-8.0,-204.2
Q -8.5,-204.0,-8.5,-205.4
Q -8.5,-205.4,-8.5,-205.4
Q -8.5,-206.2,-8.4,-206.9
Q -10.7,-204.7,-11.1,-203.1
Q -11.3,-202.3,-11.6,-201.5
Q -11.4,-201.6,-11.3,-201.6
Q -11.0,-201.7,-11.1,-200.3
Q -11.1,-200.3,-11.1,-200.3
Q -11.1,-199.6,-11.1,-198.9
Q -11.0,-198.2,-10.9,-197.5
Q -10.7,-196.2,-10.0,-193.9
Q -8.0,-187.2,-8.6,-186.5
Q -9.6,-185.6,-10.7,-189.7
Q -13.1,-198.9,-15.1,-203.0
Q -15.4,-203.5,-15.7,-204.8
Q -16.1,-204.7,-16.4,-204.6
 " /> 
<path  
style="fill:rgb(14,103,171)" 
d="M -11.1 -198.9
Q -11.1,-199.6,-11.1,-200.3
Q -11.3,-200.9,-11.6,-201.5
Q -11.6,-199.2,-11.5,-198.9
Q -11.4,-198.7,-11.1,-198.9
 " /> 
<path  
style="fill:rgb(14,103,171)" 
d="M -11.6 -201.5
Q -11.3,-200.9,-11.1,-200.3
Q -11.1,-200.3,-11.1,-200.3
Q -11.0,-201.7,-11.3,-201.6
Q -11.4,-201.6,-11.6,-201.5
 " /> 
<path  
style="fill:rgb(14,103,171)" 
d="M -8.4 -206.9
Q -8.5,-206.2,-8.5,-205.4
Q -8.2,-204.8,-8.0,-204.2
Q -7.9,-206.3,-7.9,-206.6
Q -8.0,-206.9,-8.4,-206.9
 " /> 
<path  
style="fill:rgb(14,103,171)" 
d="M -8.0 -204.2
Q -8.2,-204.8,-8.5,-205.4
Q -8.5,-205.4,-8.5,-205.4
Q -8.5,-204.0,-8.0,-204.2
 " /> 
<path  
style="fill:rgb(14,103,171)" 
d="M -8.0 -201.1
Q -8.0,-199.2,-8.0,-199.0
Q -7.9,-198.7,-7.8,-198.8
Q -7.7,-198.8,-7.6,-198.9
Q -7.6,-199.5,-7.6,-200.1
Q -7.6,-200.5,-7.6,-200.8
Q -7.7,-201.2,-8.0,-201.1
 " /> 
<path  
style="fill:rgb(4,4,4)" 
d="M -7.6 -198.9
Q -6.9,-198.9,-6.2,-198.9
Q -6.2,-199.1,-6.2,-199.4
Q -6.2,-200.2,-6.2,-201.1
Q -6.9,-200.9,-7.6,-200.8
Q -7.6,-200.5,-7.6,-200.1
Q -7.6,-199.5,-7.6,-198.9
 " /> 
<path  
style="fill:rgb(4,4,4)" 
d="M -7.6 -198.9
Q -7.6,-197.7,-7.6,-196.6
Q -7.2,-196.8,-7.1,-196.0
Q -6.5,-196.1,-5.8,-196.2
Q -5.8,-197.1,-5.8,-198.0
Q -6.1,-197.8,-6.2,-198.9
Q -6.9,-198.9,-7.6,-198.9
 " /> 
<path  
style="fill:rgb(14,103,171)" 
d="M -7.6 -196.6
Q -7.6,-195.9,-7.6,-195.2
Q -7.3,-194.6,-7.1,-194.0
Q -7.1,-194.7,-7.1,-195.4
Q -7.1,-195.8,-7.1,-196.0
Q -7.2,-196.8,-7.6,-196.6
 " /> 
<path  
style="fill:rgb(4,4,4)" 
d="M -7.1 -194.0
Q -6.4,-194.0,-5.8,-194.0
Q -5.8,-194.1,-5.8,-194.3
Q -5.8,-195.2,-5.8,-196.2
Q -6.5,-196.1,-7.1,-196.0
Q -7.1,-195.8,-7.1,-195.4
Q -7.1,-194.7,-7.1,-194.0
 " /> 
<path  
style="fill:rgb(4,4,4)" 
d="M -7.1 -194.0
Q -7.1,-192.9,-7.1,-191.7
Q -6.8,-191.9,-6.7,-191.7
Q -6.0,-192.2,-5.3,-192.6
Q -5.7,-192.5,-5.7,-192.7
Q -5.8,-192.9,-5.8,-194.0
Q -6.4,-194.0,-7.1,-194.0
 " /> 
<path  
style="fill:rgb(14,103,171)" 
d="M -7.1 -194.0
Q -7.3,-194.6,-7.6,-195.2
Q -7.6,-195.2,-7.6,-195.2
Q -7.6,-193.8,-7.4,-193.9
Q -7.2,-193.9,-7.1,-194.0
 " /> 
<path  
style="fill:rgb(14,103,171)" 
d="M -7.1 -191.7
Q -7.1,-191.0,-7.1,-190.3
Q -6.9,-189.7,-6.7,-189.1
Q -6.7,-189.9,-6.7,-190.4
Q -6.7,-191.5,-6.7,-191.7
Q -6.7,-191.7,-6.7,-191.7
Q -6.8,-191.9,-7.1,-191.7
 " /> 
<path  
style="fill:rgb(4,4,4)" 
d="M -6.7 -189.1
Q -6.1,-189.0,-5.5,-189.0
Q -5.4,-189.1,-5.4,-189.1
Q -5.4,-189.8,-5.3,-190.4
Q -6.0,-190.4,-6.7,-190.4
Q -6.7,-189.9,-6.7,-189.1
 " /> 
<path  
style="fill:rgb(4,4,4)" 
d="M -6.7 -189.1
Q -6.7,-188.7,-6.7,-188.4
Q -6.8,-187.7,-6.3,-187.5
Q -6.0,-187.4,-5.8,-187.3
Q -5.7,-187.4,-5.7,-187.6
Q -5.6,-187.9,-5.5,-189.0
Q -6.1,-189.0,-6.7,-189.1
 " /> 
<path  
style="fill:rgb(14,103,171)" 
d="M -6.7 -189.1
Q -6.9,-189.7,-7.1,-190.3
Q -7.1,-190.3,-7.1,-190.3
Q -7.2,-188.9,-6.7,-189.1
 " /> 
<path  
style="fill:rgb(14,103,171)" 
d="M -5.8 -187.3
Q -4.8,-188.6,-5.0,-189.5
Q -5.2,-190.0,-5.3,-190.4
Q -5.4,-189.8,-5.4,-189.1
Q -5.4,-189.1,-5.5,-189.0
Q -5.6,-187.9,-5.7,-187.6
Q -5.7,-187.4,-5.8,-187.3
 " /> 
<path  
style="fill:rgb(4,4,4)" 
d="M -5.3 -190.4
Q -5.3,-191.5,-5.3,-192.6
Q -6.0,-192.2,-6.7,-191.7
Q -6.7,-191.7,-6.7,-191.7
Q -6.7,-191.5,-6.7,-190.4
Q -6.0,-190.4,-5.3,-190.4
 " /> 
<path  
style="fill:rgb(14,103,171)" 
d="M -5.3 -192.6
Q -5.3,-195.8,-5.3,-196.1
Q -5.4,-196.3,-5.5,-196.3
Q -5.6,-196.2,-5.8,-196.2
Q -5.8,-195.2,-5.8,-194.3
Q -5.8,-194.1,-5.8,-194.0
Q -5.8,-192.9,-5.7,-192.7
Q -5.7,-192.5,-5.3,-192.6
 " /> 
<path  
style="fill:rgb(14,103,171)" 
d="M -5.8 -198.0
Q -5.8,-198.8,-5.7,-199.6
Q -6.0,-200.3,-6.2,-201.1
Q -6.2,-200.2,-6.2,-199.4
Q -6.2,-199.1,-6.2,-198.9
Q -6.1,-197.8,-5.8,-198.0
 " /> 
<path  
style="fill:rgb(14,103,171)" 
d="M -6.2 -201.1
Q -6.0,-200.3,-5.7,-199.6
Q -5.7,-199.6,-5.7,-199.6
Q -5.7,-201.2,-6.0,-201.2
Q -6.1,-201.1,-6.2,-201.1
 " /> 
<path  
style="fill:rgb(14,103,171)" 
d="M -6.7 -208.6
Q -6.5,-208.9,-6.4,-209.1
Q -6.1,-209.5,-6.4,-210.2
Q -6.5,-210.5,-6.7,-210.9
Q -6.7,-209.7,-6.7,-208.6
 " /> 
<path  
style="fill:rgb(14,103,171)" 
d="M -6.7 -213.1
Q -6.2,-214.4,-6.4,-215.1
Q -6.5,-215.4,-6.7,-215.7
Q -6.7,-214.4,-6.7,-213.1
 " /> 
<path  
style="fill:rgb(14,103,171)" 
d="M -6.7 -216.6
Q -6.2,-216.9,-6.2,-218.7
Q -6.2,-219.7,-6.2,-220.6
Q -6.5,-220.5,-6.6,-220.1
Q -6.6,-219.7,-6.7,-216.6
 " /> 
<path  
style="fill:rgb(14,103,171)" 
d="M 0.0 -206.4
Q -0.1,-204.0,0.2,-204.1
Q 0.3,-204.2,0.4,-204.2
Q 0.4,-204.8,0.4,-205.4
Q 0.4,-206.6,0.0,-206.4
 " /> 
<path  
style="fill:rgb(14,103,171)" 
d="M 0.4 -201.1
Q 0.4,-198.7,0.6,-198.8
Q 0.8,-198.8,0.9,-198.9
Q 0.9,-200.8,0.8,-201.0
Q 0.8,-201.0,0.8,-201.0
Q 0.8,-201.2,0.4,-201.1
 " /> 
<path  
style="fill:rgb(4,4,4)" 
d="M 0.9 -198.9
Q 1.6,-198.9,2.2,-198.9
Q 2.2,-200.0,2.2,-201.5
Q 1.5,-201.3,0.8,-201.0
Q 0.8,-201.0,0.8,-201.0
Q 0.9,-200.8,0.9,-198.9
 " /> 
<path  
style="fill:rgb(4,4,4)" 
d="M 0.9 -198.9
Q 0.9,-196.6,0.9,-194.4
Q 1.4,-193.5,1.1,-192.9
Q 1.0,-192.5,0.9,-192.2
Q 0.9,-191.3,0.9,-190.4
Q 1.2,-190.6,1.3,-190.3
Q 1.3,-190.1,1.3,-188.2
Q 2.0,-188.2,2.7,-188.2
Q 2.7,-192.2,2.7,-196.2
Q 2.3,-196.0,2.3,-196.3
Q 2.2,-196.4,2.2,-198.9
Q 1.6,-198.9,0.9,-198.9
 " /> 
<path  
style="fill:rgb(14,103,171)" 
d="M 0.9 -194.4
Q 0.9,-193.3,0.9,-192.2
Q 1.0,-192.5,1.1,-192.9
Q 1.4,-193.5,0.9,-194.4
 " /> 
<path  
style="fill:rgb(14,103,171)" 
d="M 0.9 -190.4
Q 0.8,-188.0,1.1,-188.1
Q 1.2,-188.2,1.3,-188.2
Q 1.3,-190.1,1.3,-190.3
Q 1.2,-190.6,0.9,-190.4
 " /> 
<path  
style="fill:rgb(4,4,4)" 
d="M 1.3 -188.2
Q 1.3,-187.7,1.3,-187.3
Q 2.0,-187.3,2.7,-187.3
Q 2.7,-188.4,2.7,-189.5
Q 2.0,-188.2,1.3,-188.2
 " /> 
<path  
style="fill:rgb(4,4,4)" 
d="M 1.3 -187.3
Q 1.3,-186.6,1.4,-186.2
Q 2.0,-185.9,2.7,-185.5
Q 2.7,-186.4,2.7,-187.3
Q 2.0,-187.3,1.3,-187.3
 " /> 
<path  
style="fill:rgb(14,103,171)" 
d="M 1.3 -187.3
Q 1.3,-186.8,1.2,-186.3
Q 1.3,-186.2,1.4,-186.2
Q 1.3,-186.6,1.3,-187.3
 " /> 
<path  
style="fill:rgb(14,103,171)" 
d="M 2.7 -185.5
Q 1.7,-185.4,1.4,-186.2
Q 1.3,-186.2,1.2,-186.3
Q 1.2,-186.3,1.2,-186.3
Q 1.1,-185.3,1.9,-185.4
Q 2.3,-185.5,2.7,-185.5
 " /> 
<path  
style="fill:rgb(4,4,4)" 
d="M 2.7 -185.5
Q 2.0,-185.9,1.4,-186.2
Q 1.7,-185.4,2.7,-185.5
 " /> 
<path  
style="fill:rgb(14,103,171)" 
d="M 2.7 -196.2
Q 2.7,-201.1,2.7,-201.4
Q 2.6,-201.6,2.2,-201.5
Q 2.2,-200.0,2.2,-198.9
Q 2.2,-196.4,2.3,-196.3
Q 2.3,-196.0,2.7,-196.2
 " /> 
<path  
style="fill:rgb(7,193,201)" 
d="M 12.9 -206.4
Q 12.4,-204.9,11.9,-203.3
Q 12.6,-203.1,13.3,-202.9
Q 13.3,-205.8,13.3,-206.3
Q 13.1,-206.3,12.9,-206.4
 " /> 
<path  
style="fill:rgb(14,103,171)" 
d="M 13.3 -202.9
Q 13.5,-203.7,13.6,-204.4
Q 14.0,-206.0,13.4,-206.2
Q 13.3,-206.2,13.3,-206.3
Q 13.3,-205.8,13.3,-202.9
 " /> 
<path  
style="fill:rgb(14,103,171)" 
d="M 12.9 -189.5
Q 14.0,-189.5,15.1,-189.5
Q 14.8,-189.7,14.4,-189.8
Q 13.8,-190.0,12.9,-189.5
 " /> 
<path  
style="fill:rgb(14,103,171)" 
d="M 26.2 -193.1
Q 26.4,-193.2,26.6,-193.3
Q 26.8,-193.5,27.0,-192.5
Q 27.1,-192.3,27.3,-192.2
Q 27.3,-192.2,27.3,-192.2
Q 27.7,-194.4,26.2,-193.1
 " /> 
<path  
style="fill:rgb(7,193,201)" 
d="M 26.2 -193.1
Q 26.6,-192.8,27.0,-192.5
Q 26.8,-193.5,26.6,-193.3
Q 26.4,-193.2,26.2,-193.1
 " /> 
<path  
style="fill:rgb(14,103,171)" 
d="M 27.1 -190.9
Q 27.2,-191.5,27.3,-192.2
Q 27.1,-192.3,27.0,-192.5
Q 27.1,-191.9,27.1,-190.9
 " /> 
<path  
style="fill:rgb(14,103,171)" 
d="M 18.7 -166.4
Q 17.2,-165.2,16.6,-164.5
Q 16.3,-164.1,16.0,-163.7
Q 16.4,-164.1,16.9,-164.4
Q 17.8,-165.1,18.7,-166.4
 " /> 
<path  
style="fill:rgb(14,103,171)" 
d="M 10.7 -159.3
Q 10.3,-159.0,9.9,-158.7
Q 9.1,-158.0,8.4,-157.1
Q 8.7,-157.3,9.0,-157.5
Q 9.5,-157.9,10.1,-158.6
Q 10.4,-159.0,10.7,-159.3
 " /> 
</g> 
</svg> 
