<?xml version="1.0"?>
<!DOCTYPE svg PUBLIC "-//W3C//DTD SVG 1.1//EN" "http://www.w3.org/Graphics/SVG/1.1/DTD/svg11.dtd">
<svg xmlns="http://www.w3.org/2000/svg" version="1.1">
<g transform="translate(112.9,216.5)" stroke-width="0" fill="none" >
<path  
style="fill:rgb(4,4,4)" 
d="M 65.8 219.7
Q 67.5,221.8,68.5,221.4
Q 70.9,220.5,71.6,216.0
Q 72.3,210.5,73.6,205.8
Q 74.7,201.3,76.2,194.9
Q 76.9,191.8,77.8,188.3
Q 80.9,176.0,81.6,171.8
Q 81.8,170.5,82.7,165.4
Q 87.3,138.7,75.2,125.7
Q 70.7,120.9,59.1,116.5
Q 49.7,112.9,45.8,110.3
Q 35.3,103.2,33.6,87.0
Q 40.1,92.1,44.5,92.9
Q 52.5,94.5,56.7,87.4
Q 65.9,71.7,43.1,30.9
Q 37.5,20.9,33.8,11.3
Q 29.8,1.0,27.9,-1.2
Q 26.5,-2.7,26.8,-2.9
Q 27.0,-3.1,29.1,-3.0
Q 31.2,-2.8,32.1,-0.4
Q 35.4,8.5,38.0,9.2
Q 42.7,10.4,42.9,-2.6
Q 43.0,-8.7,45.0,-10.9
Q 47.0,-13.1,47.3,-12.8
Q 47.5,-12.6,48.4,-9.0
Q 50.4,-1.7,53.3,-1.1
Q 55.9,-0.6,57.3,-4.2
Q 59.7,-10.2,59.4,-17.0
Q 59.2,-21.3,61.7,-23.8
Q 64.2,-26.3,65.8,-26.7
Q 93.1,-33.0,105.6,-46.2
Q 113.3,-54.3,112.7,-58.6
Q 112.3,-62.8,104.5,-57.6
Q 100.2,-54.7,100.6,-55.7
Q 102.0,-59.7,110.4,-70.9
Q 124.0,-88.7,124.8,-103.7
Q 125.0,-108.6,124.0,-109.4
Q 121.5,-111.4,118.0,-107.8
Q 115.7,-105.5,111.4,-99.8
Q 111.6,-100.2,111.7,-100.6
Q 112.5,-103.8,115.0,-110.4
Q 118.6,-119.9,119.5,-126.5
Q 122.2,-144.6,117.3,-149.0
Q 112.2,-153.7,105.3,-135.8
Q 101.5,-125.8,100.9,-125.1
Q 100.5,-124.7,98.9,-130.0
Q 90.3,-157.9,83.6,-156.5
Q 79.6,-155.7,79.3,-145.2
Q 79.0,-137.6,78.3,-136.4
Q 77.1,-134.6,72.2,-140.1
Q 69.7,-143.1,69.1,-143.1
Q 66.4,-143.1,68.0,-138.0
Q 69.4,-133.2,68.7,-132.8
Q 68.2,-132.5,64.4,-135.5
Q 59.8,-139.3,58.6,-138.6
Q 57.0,-137.7,58.4,-134.1
Q 59.4,-131.5,56.1,-130.6
Q 52.7,-129.7,51.2,-134.7
Q 46.9,-148.8,35.8,-154.0
Q 29.0,-157.2,24.3,-156.7
Q 22.3,-156.4,22.1,-156.7
Q 21.7,-157.1,23.3,-161.2
Q 30.9,-180.1,28.6,-184.5
Q 26.3,-189.1,21.3,-179.1
Q 19.9,-176.2,19.5,-177.1
Q 18.3,-180.3,14.4,-181.0
Q 12.8,-181.3,13.0,-182.5
Q 16.9,-201.0,12.3,-198.6
Q 10.0,-197.3,8.9,-192.3
Q 8.6,-191.0,8.3,-189.8
Q 7.8,-190.8,7.3,-191.9
Q 6.6,-193.5,5.8,-194.7
Q 5.1,-194.2,4.4,-193.7
Q 7.7,-186.6,6.0,-179.4
Q 5.5,-177.1,5.6,-176.7
Q 5.7,-176.3,6.7,-176.0
Q 6.8,-176.3,6.9,-176.6
Q 7.1,-177.3,7.3,-177.7
Q 7.4,-178.0,7.6,-178.2
Q 9.5,-185.9,10.3,-189.7
Q 11.6,-195.3,12.1,-195.3
Q 13.3,-195.3,11.1,-183.2
Q 10.6,-180.4,9.7,-180.2
Q 8.9,-179.9,8.9,-179.1
Q 8.9,-178.8,8.9,-178.6
Q 9.0,-178.2,9.4,-178.1
Q 10.1,-177.9,8.2,-171.5
Q 6.9,-167.1,8.1,-166.8
Q 8.8,-166.6,10.2,-171.6
Q 11.6,-176.6,11.9,-177.8
Q 12.1,-179.1,13.6,-179.1
Q 17.1,-179.1,18.2,-175.1
Q 18.8,-173.2,16.0,-166.1
Q 14.3,-162.1,16.1,-162.8
Q 16.6,-163.0,18.4,-167.3
Q 21.6,-175.7,24.4,-180.6
Q 24.9,-181.4,25.3,-182.2
Q 26.7,-183.5,26.9,-183.3
Q 27.1,-183.1,26.9,-181.7
Q 26.9,-181.7,26.9,-181.7
Q 26.8,-181.1,26.7,-180.4
Q 24.9,-171.1,20.6,-160.1
Q 18.9,-155.6,15.8,-153.3
Q 10.3,-149.4,6.5,-143.6
Q 4.7,-140.8,2.4,-141.1
Q 0.2,-141.3,-2.1,-141.3
Q -4.4,-141.3,-5.7,-143.5
Q -7.1,-145.7,-8.7,-147.7
Q -9.4,-148.7,-10.2,-149.7
Q -10.8,-150.2,-11.3,-150.6
Q -12.4,-151.5,-13.3,-152.6
Q -13.8,-153.2,-14.2,-153.7
Q -15.1,-154.4,-15.9,-155.1
Q -17.7,-156.5,-19.6,-157.3
Q -24.0,-159.1,-25.4,-161.8
Q -29.8,-170.0,-31.6,-184.4
Q -31.8,-186.2,-32.0,-188.0
Q -32.2,-188.2,-32.3,-188.4
Q -32.7,-188.9,-32.3,-189.8
Q -32.0,-190.6,-31.3,-190.0
Q -31.0,-189.6,-30.7,-189.3
Q -28.8,-186.5,-27.7,-184.2
Q -26.5,-182.0,-25.4,-180.2
Q -24.3,-178.4,-23.3,-176.4
Q -22.3,-174.4,-20.8,-172.2
Q -19.2,-169.9,-17.2,-166.8
Q -12.8,-160.0,-11.9,-160.0
Q -10.6,-160.0,-15.1,-167.1
Q -18.3,-172.1,-19.6,-174.4
Q -20.8,-176.7,-21.4,-177.4
Q -22.8,-179.2,-20.0,-181.4
Q -17.2,-183.5,-16.5,-180.3
Q -12.5,-162.4,-11.0,-163.9
Q -10.5,-164.4,-11.0,-166.3
Q -15.0,-181.8,-15.6,-184.6
Q -16.1,-186.8,-16.4,-188.4
Q -16.8,-190.0,-17.4,-195.3
Q -14.4,-189.2,-11.5,-180.1
Q -10.1,-175.5,-9.4,-175.5
Q -8.2,-175.5,-10.0,-181.3
Q -10.8,-183.7,-11.2,-184.7
Q -11.7,-185.7,-11.7,-189.4
Q -11.7,-195.5,-9.4,-195.5
Q -8.9,-195.5,-8.9,-192.4
Q -8.6,-192.6,-8.5,-192.3
Q -8.5,-192.3,-8.5,-191.9
Q -7.8,-191.9,-7.1,-192.0
Q -7.1,-193.1,-7.1,-194.2
Q -7.1,-196.4,-7.3,-196.8
Q -7.4,-197.1,-7.6,-197.3
Q -7.6,-198.4,-7.6,-199.5
Q -7.6,-208.2,-7.4,-209.9
Q -7.3,-211.5,-6.9,-212.4
Q -6.6,-213.3,-6.2,-214.2
Q -5.3,-214.8,-4.4,-213.4
Q -4.0,-212.7,-3.6,-212.0
Q -2.8,-212.3,-2.0,-212.5
Q -3.0,-215.2,-5.0,-216.2
Q -9.3,-218.5,-9.3,-205.2
Q -9.3,-198.2,-11.1,-196.6
Q -12.9,-194.9,-13.2,-193.7
Q -13.7,-190.9,-14.4,-193.6
Q -15.8,-198.9,-18.7,-198.0
Q -20.9,-197.3,-18.7,-189.3
Q -17.5,-184.7,-19.0,-184.1
Q -20.3,-183.6,-23.5,-180.8
Q -26.1,-185.5,-27.2,-187.5
Q -30.0,-192.3,-32.1,-192.7
Q -35.5,-193.4,-33.1,-180.0
Q -31.1,-168.8,-27.7,-162.1
Q -27.2,-161.0,-26.7,-160.0
Q -34.1,-160.0,-37.3,-158.3
Q -45.9,-153.8,-48.4,-140.4
Q -48.8,-138.1,-52.9,-133.9
Q -58.4,-128.3,-59.7,-130.4
Q -60.2,-131.2,-60.1,-138.4
Q -60.0,-147.2,-60.0,-152.4
Q -60.6,-152.4,-61.3,-152.4
Q -61.4,-149.8,-61.4,-149.4
Q -61.5,-149.0,-61.8,-148.8
Q -61.8,-146.6,-61.8,-144.4
Q -61.8,-141.5,-62.2,-141.3
Q -62.2,-139.5,-62.2,-137.7
Q -62.2,-135.7,-62.2,-133.7
Q -62.3,-132.8,-62.3,-132.0
Q -62.4,-128.8,-59.8,-127.4
Q -58.7,-126.8,-60.2,-124.5
Q -61.8,-122.2,-65.3,-115.5
Q -65.4,-114.3,-65.8,-114.2
Q -68.5,-106.2,-68.9,-103.5
Q -69.1,-102.2,-69.3,-100.8
Q -69.3,-100.2,-69.3,-99.5
Q -69.5,-97.6,-69.8,-95.7
Q -70.2,-92.0,-70.4,-88.6
Q -70.5,-87.0,-70.7,-85.3
Q -70.7,-85.1,-70.7,-84.8
Q -70.7,-83.9,-70.7,-81.7
Q -70.6,-81.8,-70.4,-81.8
Q -70.2,-81.9,-70.2,-77.3
Q -70.1,-75.7,-70.0,-74.2
Q -69.8,-71.1,-69.3,-69.5
Q -69.1,-68.7,-68.9,-68.0
Q -68.9,-67.5,-68.9,-67.1
Q -68.4,-65.2,-68.0,-63.3
Q -67.1,-59.5,-65.6,-54.4
Q -64.0,-49.3,-60.4,-39.5
Q -59.7,-38.4,-59.8,-38.6
Q -60.1,-39.0,-60.4,-39.5
Q -57.6,-34.1,-56.1,-31.6
Q -54.5,-29.1,-53.3,-27.5
Q -52.6,-26.6,-52.0,-25.8
Q -52.9,-25.9,-53.9,-26.0
Q -59.9,-26.7,-68.1,-30.0
Q -94.2,-40.3,-105.1,-59.5
Q -112.2,-72.0,-110.5,-73.5
Q -109.5,-74.4,-99.7,-68.3
Q -92.9,-64.2,-91.3,-64.6
Q -88.8,-65.2,-92.3,-70.6
Q -98.9,-80.9,-104.5,-95.1
Q -108.9,-106.1,-108.9,-121.7
Q -108.8,-124.2,-108.4,-124.4
Q -108.2,-125.7,-108.0,-127.1
Q -107.6,-129.8,-106.9,-131.1
Q -106.6,-131.7,-106.2,-132.4
Q -104.8,-133.6,-103.6,-132.0
Q -103.0,-132.3,-102.4,-132.6
Q -104.4,-135.9,-106.0,-135.1
Q -108.8,-133.9,-110.2,-126.9
Q -113.3,-110.6,-106.4,-93.1
Q -100.3,-77.8,-95.6,-71.1
Q -94.6,-69.5,-93.2,-67.4
Q -94.0,-67.9,-94.9,-68.4
Q -96.6,-69.4,-99.5,-71.0
Q -102.4,-72.5,-105.2,-74.0
Q -115.7,-79.8,-111.8,-68.6
Q -105.0,-48.8,-85.8,-36.5
Q -68.7,-25.5,-54.5,-24.0
Q -50.5,-23.6,-48.4,-21.3
Q -46.7,-19.5,-46.7,-18.9
Q -46.6,-17.9,-50.1,-14.3
Q -55.6,-8.6,-57.8,-0.7
Q -59.4,5.3,-57.1,7.9
Q -52.4,12.9,-41.3,-6.6
Q -37.4,-13.4,-36.0,-12.5
Q -34.9,-11.6,-33.2,-10.9
Q -31.5,-10.2,-31.7,-9.6
Q -31.9,-9.1,-32.8,-7.3
Q -37.5,2.2,-38.0,8.6
Q -38.6,17.3,-31.3,14.0
Q -28.4,12.7,-25.1,8.2
Q -22.9,5.2,-20.8,2.7
Q -19.9,1.6,-18.8,0.0
Q -17.8,-1.6,-15.1,-1.2
Q -13.0,-0.8,-12.7,-0.5
Q -12.3,0.0,-13.5,2.8
Q -16.8,10.6,-17.8,18.5
Q -19.2,30.0,-23.7,38.5
Q -25.3,41.4,-33.0,52.4
Q -41.8,65.0,-38.2,81.3
Q -34.6,97.8,-23.0,96.3
Q -18.0,95.6,-14.7,92.8
Q -14.0,92.1,-13.2,91.4
Q -15.2,98.2,-17.8,108.7
Q -32.8,168.7,35.3,198.8
Q 47.0,203.9,50.4,205.8
Q 59.1,210.5,62.7,215.6
Q 64.1,217.5,65.8,219.7
 " /> 
<path  
style="fill:rgb(4,4,4)" 
d="M 18.2 187.6
Q 18.9,187.8,19.6,188.0
Q 19.4,187.9,19.3,187.8
Q 19.1,187.5,18.2,187.6
 " /> 
<path  
style="fill:rgb(14,103,171)" 
d="M 18.2 187.6
Q 13.1,181.2,8.8,171.3
Q 3.6,159.5,2.8,151.4
Q 2.5,148.4,3.1,148.6
Q 3.7,148.8,4.3,152.1
Q 6.8,167.8,15.8,181.5
Q 17.4,184.0,19.6,188.0
Q 28.4,193.4,33.0,195.3
Q 37.6,197.3,41.8,199.1
Q 46.0,201.0,47.7,201.5
Q 47.0,200.2,46.3,198.9
Q 43.9,194.3,34.9,183.4
Q 21.5,167.1,17.8,152.3
Q 15.7,144.1,16.8,143.7
Q 17.3,143.5,17.6,144.8
Q 21.6,163.8,36.8,182.9
Q 45.8,194.2,49.2,201.1
Q 50.0,202.8,54.2,205.4
Q 62.2,210.4,66.2,215.9
Q 68.2,218.7,68.5,218.3
Q 68.9,218.0,69.3,214.7
Q 69.8,211.4,70.9,206.7
Q 72.0,202.0,73.2,197.2
Q 74.3,192.3,75.2,188.5
Q 77.6,178.7,72.2,168.6
Q 67.8,160.5,54.9,148.0
Q 42.0,135.6,43.0,134.6
Q 43.4,134.2,55.4,146.1
Q 67.4,158.1,70.2,161.8
Q 74.9,168.2,77.7,178.5
Q 77.9,177.1,78.2,175.8
Q 78.7,173.2,79.5,169.3
Q 86.1,138.3,71.4,125.9
Q 67.4,122.5,58.7,119.2
Q 36.6,110.8,33.0,96.3
Q 32.7,95.0,32.4,93.8
Q 30.8,93.8,30.5,94.1
Q 30.3,94.4,30.6,99.7
Q 31.3,109.1,29.1,109.1
Q 28.3,109.1,26.7,105.0
Q 25.0,100.8,24.1,99.4
Q 23.8,100.3,23.5,101.3
Q 21.5,108.2,16.6,103.4
Q 14.6,101.4,13.5,102.7
Q 13.0,103.4,12.4,104.0
Q 12.4,104.3,12.4,104.5
Q 12.4,107.6,12.4,110.7
Q 12.4,110.9,12.4,111.1
Q 12.4,118.8,10.5,121.0
Q 8.7,123.1,4.0,105.8
Q 4.0,105.5,4.0,105.1
Q 4.0,104.5,3.6,103.6
Q 3.3,103.1,3.1,102.7
Q 2.7,101.8,2.2,100.9
Q 1.9,100.2,1.6,99.8
Q 1.4,99.7,1.2,99.8
Q 0.7,99.9,-0.9,103.8
Q -6.5,117.6,-11.5,97.3
Q -11.7,96.2,-12.0,95.1
Q -12.1,95.1,-12.2,95.1
Q -12.8,97.0,-13.3,98.9
Q -22.3,130.3,-15.5,149.7
Q -8.7,169.0,14.9,185.3
Q 16.6,186.5,18.2,187.6
 " /> 
<path  
style="fill:rgb(7,193,201)" 
d="M 66.9 211.3
Q 67.2,213.4,67.8,213.4
Q 69.2,213.4,66.8,202.3
Q 65.8,197.1,65.1,195.0
Q 64.4,192.9,63.7,190.6
Q 59.7,177.3,48.3,161.0
Q 45.7,157.4,45.0,157.4
Q 43.7,157.4,46.5,160.9
Q 63.2,181.9,66.9,211.3
 " /> 
<path  
style="fill:rgb(7,193,201)" 
d="M 76.5 155.9
Q 77.8,158.8,78.3,158.5
Q 79.1,158.2,76.9,153.6
Q 71.6,142.4,59.2,132.7
Q 55.6,129.8,55.6,131.1
Q 55.6,131.5,59.2,134.6
Q 71.5,144.8,76.5,155.9
 " /> 
<path  
style="fill:rgb(7,193,201)" 
d="M 18.2 187.6
Q 19.1,187.5,19.3,187.8
Q 19.4,187.9,19.6,188.0
Q 17.4,184.0,15.8,181.5
Q 6.8,167.8,4.3,152.1
Q 3.7,148.8,3.1,148.6
Q 2.5,148.4,2.8,151.4
Q 3.6,159.5,8.8,171.3
Q 13.1,181.2,18.2,187.6
 " /> 
<path  
style="fill:rgb(97,247,248)" 
d="M -12.0 94.3
Q -12.0,94.7,-12.0,95.1
Q -11.4,96.7,-10.9,98.3
Q -7.5,107.8,-6.1,108.5
Q -3.6,109.9,-1.8,104.8
Q 0.0,99.7,1.0,99.3
Q 1.2,99.3,1.6,99.8
Q 2.0,100.1,2.4,101.1
Q 2.8,101.9,3.1,102.7
Q 3.3,103.1,3.6,103.6
Q 4.0,104.5,4.0,105.1
Q 4.0,105.5,4.0,105.8
Q 4.4,106.8,4.7,107.8
Q 5.5,109.7,6.3,112.5
Q 8.8,120.8,10.1,120.7
Q 11.8,120.5,12.2,114.3
Q 12.3,112.7,12.4,111.1
Q 12.4,110.9,12.4,110.7
Q 12.0,107.6,12.4,104.5
Q 12.4,104.3,12.4,104.0
Q 13.8,101.4,14.1,101.1
Q 14.5,100.9,16.6,102.7
Q 21.4,106.9,23.1,101.0
Q 23.9,98.3,24.8,99.1
Q 25.0,99.3,26.7,103.8
Q 28.8,109.4,29.4,108.5
Q 30.8,106.5,30.5,102.8
Q 29.8,94.6,30.2,94.2
Q 30.5,93.8,32.4,93.4
Q 32.3,92.8,32.2,92.3
Q 32.0,91.1,31.6,88.0
Q 31.6,86.0,31.6,84.0
Q 31.0,83.1,30.4,82.3
Q 27.0,76.7,24.7,65.2
Q 24.5,64.0,24.2,62.5
Q 24.1,61.4,23.9,60.1
Q 23.8,59.6,23.6,56.5
Q 23.2,56.5,23.1,56.3
Q 23.1,56.0,23.1,54.3
Q 23.1,52.9,23.1,51.6
Q 23.2,50.9,23.3,50.3
Q 23.6,48.9,24.7,46.3
Q 25.8,43.6,26.4,40.3
Q 26.8,38.6,27.1,36.9
Q 27.1,35.4,27.1,33.8
Q 27.1,33.1,27.1,32.5
Q 27.1,30.7,27.1,28.9
Q 26.9,27.5,26.7,26.0
Q 26.2,23.1,25.9,21.0
Q 25.8,20.0,25.7,19.0
Q 25.5,19.4,25.3,19.8
Q 24.9,20.7,24.4,23.7
Q 23.9,26.7,23.0,26.7
Q 22.1,26.7,23.3,19.1
Q 24.0,15.4,24.4,11.8
Q 24.7,8.3,25.3,8.3
Q 25.9,8.3,25.8,10.7
Q 25.7,13.2,26.6,16.0
Q 28.5,22.2,28.8,28.8
Q 28.8,28.8,28.8,28.8
Q 28.8,29.8,28.9,30.7
Q 29.4,33.4,28.9,35.6
Q 28.8,36.4,28.7,37.1
Q 28.0,42.9,25.9,47.5
Q 24.8,49.9,25.1,53.2
Q 25.4,56.5,25.6,59.1
Q 25.7,60.5,25.8,61.8
Q 27.1,60.8,28.4,59.8
Q 31.1,57.8,33.2,55.9
Q 38.4,51.2,43.2,49.3
Q 45.4,48.5,47.6,49.8
Q 47.8,49.8,48.0,49.8
Q 48.4,50.1,48.9,50.5
Q 49.8,51.1,50.7,52.0
Q 51.1,52.5,51.6,52.9
Q 45.8,40.5,42.4,34.5
Q 34.8,20.8,31.5,11.5
Q 27.0,-1.1,24.3,-1.9
Q 23.6,-2.1,20.0,-1.3
Q 15.5,-0.2,11.7,0.2
Q 9.9,0.3,8.0,0.5
Q 6.9,0.5,5.8,0.5
Q -4.9,0.0,-7.5,-0.2
Q -10.2,-0.5,-11.4,2.1
Q -14.9,9.9,-15.6,16.7
Q -17.4,33.6,-25.2,44.9
Q -27.2,47.8,-27.4,48.3
Q -27.6,48.9,-26.2,48.9
Q -26.0,48.9,-25.8,48.9
Q -24.0,48.5,-22.6,49.4
Q -21.1,50.3,-19.6,50.2
Q -18.2,50.2,-15.6,49.4
Q -15.3,49.4,-15.1,49.4
Q -14.6,49.3,-14.0,49.1
Q -12.9,48.9,-11.1,50.7
Q -9.4,52.5,-7.7,52.5
Q -4.0,52.5,-1.2,56.6
Q -1.2,56.6,-1.2,56.6
Q -0.8,55.4,-0.4,54.3
Q -0.2,52.6,0.0,50.9
Q 0.4,47.6,-0.9,44.8
Q -3.5,39.7,-4.1,32.6
Q -4.2,31.6,-4.2,30.5
Q -4.2,30.4,-4.2,30.3
Q -4.2,30.2,-4.2,30.1
Q -4.3,27.2,-4.4,24.0
Q -4.4,22.5,-4.4,20.9
Q -5.3,14.3,-5.4,13.5
Q -5.5,12.8,-4.9,12.6
Q -4.2,12.4,-3.4,16.3
Q -2.6,20.2,-1.5,24.0
Q -0.1,29.0,-1.1,29.1
Q -1.4,29.1,-1.6,29.0
Q -2.1,29.6,-2.7,30.3
Q -2.7,31.4,-2.7,32.5
Q -2.4,33.8,-2.2,35.1
Q -1.2,41.4,1.6,46.1
Q 4.0,50.2,2.5,49.7
Q 1.8,49.4,1.5,51.8
Q 1.4,53.1,1.1,54.6
Q 0.8,55.9,0.4,57.4
Q 0.4,57.8,0.4,58.3
Q -2.8,72.4,-8.2,83.7
Q -9.8,87.1,-12.0,94.3
 " /> 
<path  
style="fill:rgb(14,103,171)" 
d="M -12.0 94.3
Q -12.1,94.7,-12.2,95.1
Q -12.1,95.1,-12.0,95.1
Q -12.0,94.7,-12.0,94.3
 " /> 
<path  
style="fill:rgb(14,103,171)" 
d="M 3.1 102.7
Q 2.8,101.9,2.4,101.1
Q 2.0,100.1,1.6,99.8
Q 1.9,100.2,2.2,100.9
Q 2.7,101.8,3.1,102.7
 " /> 
<path  
style="fill:rgb(7,193,201)" 
d="M 12.4 110.7
Q 12.4,107.6,12.4,104.5
Q 12.0,107.6,12.4,110.7
 " /> 
<path  
style="fill:rgb(7,193,201)" 
d="M 12.4 104.0
Q 13.0,103.4,13.5,102.7
Q 14.6,101.4,16.6,103.4
Q 21.5,108.2,23.5,101.3
Q 23.8,100.3,24.1,99.4
Q 25.0,100.8,26.7,105.0
Q 28.3,109.1,29.1,109.1
Q 31.3,109.1,30.6,99.7
Q 30.3,94.4,30.5,94.1
Q 30.8,93.8,32.4,93.8
Q 32.4,93.6,32.4,93.4
Q 30.5,93.8,30.2,94.2
Q 29.8,94.6,30.5,102.8
Q 30.8,106.5,29.4,108.5
Q 28.8,109.4,26.7,103.8
Q 25.0,99.3,24.8,99.1
Q 23.9,98.3,23.1,101.0
Q 21.4,106.9,16.6,102.7
Q 14.5,100.9,14.1,101.1
Q 13.8,101.4,12.4,104.0
 " /> 
<path  
style="fill:rgb(14,103,171)" 
d="M 0.4 58.3
Q 0.0,57.6,-0.4,56.9
Q -0.5,57.5,-0.6,58.1
Q -0.6,58.1,-0.6,58.1
Q -0.1,58.2,0.4,58.3
 " /> 
<path  
style="fill:rgb(14,103,171)" 
d="M 0.4 58.3
Q 0.4,57.8,0.4,57.4
Q -0.2,56.9,-0.4,56.9
Q 0.0,57.6,0.4,58.3
 " /> 
<path  
style="fill:rgb(4,4,4)" 
d="M 0.4 57.4
Q 0.8,55.9,1.1,54.6
Q 0.3,54.4,-0.4,54.3
Q -0.4,55.6,-0.4,56.9
Q -0.2,56.9,0.4,57.4
 " /> 
<path  
style="fill:rgb(14,103,171)" 
d="M -2.7 32.5
Q -2.9,31.9,-3.1,31.4
Q -3.1,31.4,-3.1,31.4
Q -3.1,32.4,-3.0,32.5
Q -2.8,32.5,-2.7,32.5
 " /> 
<path  
style="fill:rgb(14,103,171)" 
d="M -2.7 32.5
Q -2.7,31.4,-2.7,30.3
Q -2.9,30.3,-3.1,30.3
Q -3.1,30.8,-3.1,31.4
Q -2.9,31.9,-2.7,32.5
 " /> 
<path  
style="fill:rgb(4,4,4)" 
d="M -2.7 32.5
Q -2.8,32.5,-2.9,32.5
Q -2.9,32.5,-3.0,32.5
Q -3.5,32.5,-4.1,32.6
Q -3.5,39.7,-0.9,44.8
Q 0.4,47.6,0.0,50.9
Q -0.2,52.6,-0.4,54.3
Q 0.3,54.4,1.1,54.6
Q 1.4,53.1,1.5,51.8
Q 1.8,49.4,2.5,49.7
Q 4.0,50.2,1.6,46.1
Q -1.2,41.4,-2.2,35.1
Q -2.4,33.8,-2.7,32.5
 " /> 
<path  
style="fill:rgb(7,193,201)" 
d="M -2.7 30.3
Q -2.7,29.5,-2.6,28.7
Q -2.6,27.3,-2.4,27.2
Q -3.0,27.4,-3.1,27.7
Q -3.3,28.0,-3.1,30.3
Q -2.9,30.3,-2.7,30.3
 " /> 
<path  
style="fill:rgb(97,247,248)" 
d="M -2.7 30.3
Q -2.1,29.6,-1.6,29.0
Q -2.1,28.6,-2.2,27.1
Q -2.3,27.2,-2.4,27.2
Q -2.5,27.2,-2.6,27.2
Q -2.6,27.3,-2.6,28.7
Q -2.7,29.5,-2.7,30.3
 " /> 
<path  
style="fill:rgb(4,4,4)" 
d="M -2.2 27.1
Q -2.1,28.6,-1.6,29.0
Q -1.4,29.1,-1.1,29.1
Q -0.1,29.0,-1.5,24.0
Q -2.6,20.2,-3.4,16.3
Q -4.2,12.4,-4.9,12.6
Q -5.5,12.8,-5.4,13.5
Q -5.3,14.3,-4.4,20.9
Q -4.3,21.4,-4.2,21.8
Q -4.0,22.7,-4.4,24.0
Q -4.3,27.2,-4.2,30.3
Q -3.7,30.3,-3.1,30.3
Q -3.3,28.0,-3.1,27.7
Q -3.0,27.4,-2.4,27.2
Q -2.4,27.2,-2.4,27.2
Q -2.4,27.2,-2.4,27.2
Q -2.3,27.2,-2.2,27.1
 " /> 
<path  
style="fill:rgb(14,103,171)" 
d="M -4.4 20.9
Q -4.4,22.5,-4.4,24.0
Q -4.0,22.7,-4.2,21.8
Q -4.3,21.4,-4.4,20.9
 " /> 
<path  
style="fill:rgb(7,193,201)" 
d="M -0.4 54.3
Q -0.8,55.4,-1.2,56.6
Q -0.8,56.8,-0.4,56.9
Q -0.4,55.6,-0.4,54.3
 " /> 
<path  
style="fill:rgb(14,103,171)" 
d="M -15.1 49.4
Q -15.3,49.4,-15.6,49.4
Q -17.8,50.7,-19.7,50.7
Q -21.6,50.7,-22.8,49.8
Q -24.0,48.9,-24.9,48.9
Q -25.3,48.9,-25.8,48.9
Q -26.0,48.9,-26.2,48.9
Q -28.0,48.9,-29.3,50.6
Q -37.4,61.4,-36.8,71.8
Q -36.7,73.1,-36.6,74.4
Q -33.9,69.1,-30.9,65.8
Q -27.9,62.5,-26.3,60.4
Q -24.7,58.3,-24.1,58.3
Q -22.4,58.3,-27.8,64.6
Q -37.5,75.8,-35.8,82.1
Q -33.4,91.2,-28.5,93.4
Q -28.3,93.1,-28.2,92.8
Q -28.4,92.3,-28.2,90.5
Q -28.0,88.7,-27.7,84.1
Q -27.4,79.6,-26.9,79.8
Q -26.4,80.0,-26.6,83.1
Q -26.7,86.3,-26.7,89.8
Q -26.7,93.4,-27.3,93.4
Q -28.0,93.4,-28.2,92.8
Q -28.3,93.1,-28.5,93.4
Q -24.5,95.2,-18.9,92.5
Q -15.6,90.9,-14.9,88.7
Q -14.6,87.9,-14.9,84.1
Q -16.1,65.7,-14.4,64.1
Q -13.8,63.4,-13.6,64.1
Q -13.4,64.7,-13.4,75.3
Q -13.4,86.9,-12.5,86.4
Q -10.9,85.5,-9.8,81.5
Q -9.3,79.7,-7.8,77.1
Q -6.2,74.5,-4.4,68.9
Q -1.8,60.9,-1.7,58.9
Q -1.6,58.0,-0.6,58.1
Q -0.5,57.5,-0.4,56.9
Q -0.7,57.0,-0.9,57.1
Q -1.3,57.4,-2.3,56.0
Q -4.4,52.9,-7.9,52.9
Q -9.7,52.9,-11.3,51.1
Q -12.9,49.4,-15.1,49.4
 " /> 
<path  
style="fill:rgb(7,193,201)" 
d="M -9.1 73.7
Q -8.9,74.3,-8.4,74.0
Q -8.0,73.8,-8.0,68.9
Q -8.0,64.1,-8.4,63.8
Q -9.8,63.0,-9.5,68.9
Q -9.3,73.1,-9.1,73.7
 " /> 
<path  
style="fill:rgb(7,193,201)" 
d="M -34.4 64.8
Q -34.0,66.0,-32.5,62.5
Q -30.8,58.7,-31.7,58.7
Q -32.3,58.7,-33.5,61.4
Q -34.7,64.2,-34.4,64.8
 " /> 
<path  
style="fill:rgb(7,193,201)" 
d="M -15.1 49.4
Q -12.9,49.4,-11.3,51.1
Q -9.7,52.9,-7.9,52.9
Q -4.4,52.9,-2.3,56.0
Q -1.3,57.4,-0.9,57.1
Q -0.7,57.0,-0.4,56.9
Q -0.8,56.8,-1.2,56.6
Q -1.2,56.6,-1.2,56.6
Q -4.0,52.5,-7.7,52.5
Q -9.4,52.5,-11.1,50.7
Q -12.9,48.9,-14.0,49.1
Q -14.6,49.3,-15.1,49.4
 " /> 
<path  
style="fill:rgb(7,193,201)" 
d="M -15.6 49.4
Q -18.2,50.2,-19.6,50.2
Q -21.1,50.3,-22.6,49.4
Q -24.0,48.5,-25.8,48.9
Q -25.3,48.9,-24.9,48.9
Q -24.0,48.9,-22.8,49.8
Q -21.6,50.7,-19.7,50.7
Q -17.8,50.7,-15.6,49.4
 " /> 
<path  
style="fill:rgb(14,103,171)" 
d="M 5.8 0.5
Q 6.9,0.5,8.0,0.5
Q 7.7,0.4,7.4,0.2
Q 6.7,-0.0,6.2,0.2
Q 6.0,0.4,5.8,0.5
 " /> 
<path  
style="fill:rgb(7,193,201)" 
d="M 51.6 52.9
Q 51.4,53.1,51.3,53.2
Q 51.6,53.5,52.0,53.8
Q 51.9,53.7,51.8,53.5
Q 51.5,53.2,51.6,52.9
 " /> 
<path  
style="fill:rgb(7,193,201)" 
d="M 51.6 52.9
Q 51.1,52.5,50.7,52.0
Q 49.8,51.1,48.9,50.5
Q 48.4,50.1,48.0,49.8
Q 49.5,51.7,51.3,53.2
Q 51.4,53.1,51.6,52.9
 " /> 
<path  
style="fill:rgb(14,103,171)" 
d="M 48.0 49.8
Q 47.8,49.8,47.6,49.8
Q 47.0,49.6,46.4,49.4
Q 43.2,48.1,32.2,57.1
Q 29.6,59.3,28.1,60.9
Q 26.6,62.4,26.2,62.3
Q 26.0,62.3,25.8,62.3
Q 26.1,63.5,26.4,64.7
Q 27.1,67.1,28.0,70.8
Q 29.6,77.0,32.2,80.7
Q 32.8,81.5,33.3,82.3
Q 33.2,79.0,33.1,75.8
Q 32.9,69.4,33.5,69.4
Q 34.2,69.4,34.4,72.6
Q 35.2,83.4,34.1,83.0
Q 33.7,82.8,33.3,82.7
Q 34.6,84.0,35.8,85.4
Q 39.0,88.9,41.8,89.7
Q 42.6,89.9,41.3,85.9
Q 39.2,79.3,37.0,65.3
Q 36.8,63.6,37.5,63.6
Q 38.1,63.6,38.6,66.6
Q 42.2,87.8,44.5,90.0
Q 47.1,92.6,51.9,89.2
Q 55.6,86.6,56.3,82.8
Q 56.6,81.2,52.2,72.5
Q 45.9,59.8,46.4,59.3
Q 47.4,58.3,56.6,78.0
Q 56.6,76.6,56.6,75.2
Q 56.7,72.4,55.1,64.9
Q 54.3,64.1,53.6,63.2
Q 53.3,63.0,53.1,62.7
Q 51.1,60.5,51.3,59.9
Q 51.7,58.7,54.7,62.3
Q 54.3,61.0,54.0,59.8
Q 53.3,57.4,52.7,55.6
Q 52.3,54.7,52.0,53.8
Q 51.6,53.5,51.3,53.2
Q 49.5,51.7,48.0,49.8
 " /> 
<path  
style="fill:rgb(7,193,201)" 
d="M 50.7 87.9
Q 51.1,88.9,51.6,88.9
Q 52.3,88.9,49.8,81.1
Q 47.4,73.6,46.7,74.7
Q 46.3,75.3,48.3,81.1
Q 50.3,86.9,50.7,87.9
 " /> 
<path  
style="fill:rgb(7,193,201)" 
d="M 47.6 49.8
Q 45.4,48.5,43.2,49.3
Q 38.4,51.2,33.2,55.9
Q 31.1,57.8,28.4,59.8
Q 27.1,60.8,25.8,61.8
Q 25.8,62.0,25.8,62.3
Q 26.0,62.3,26.2,62.3
Q 26.6,62.4,28.1,60.9
Q 29.6,59.3,32.2,57.1
Q 43.2,48.1,46.4,49.4
Q 47.0,49.6,47.6,49.8
 " /> 
<path  
style="fill:rgb(4,4,4)" 
d="M 25.8 61.8
Q 25.0,61.9,24.2,62.0
Q 24.3,63.2,24.5,64.1
Q 25.0,62.4,25.8,62.3
Q 25.8,62.0,25.8,61.8
 " /> 
<path  
style="fill:rgb(4,4,4)" 
d="M 25.8 61.8
Q 25.7,60.5,25.6,59.1
Q 25.4,56.5,25.1,53.2
Q 24.8,49.9,25.9,47.5
Q 28.0,42.9,28.7,37.1
Q 27.9,37.0,27.1,36.9
Q 26.8,38.6,26.4,40.3
Q 25.8,43.6,24.7,46.3
Q 23.6,48.9,23.3,50.3
Q 23.2,50.9,23.1,51.6
Q 23.2,51.6,23.3,51.5
Q 23.6,51.5,23.6,52.9
Q 23.6,53.6,23.6,54.3
Q 23.6,55.4,23.6,56.5
Q 23.8,59.6,24.2,62.0
Q 25.0,61.9,25.8,61.8
 " /> 
<path  
style="fill:rgb(4,4,4)" 
d="M 28.9 35.6
Q 28.9,33.1,28.9,30.7
Q 28.2,30.7,27.4,30.7
Q 27.4,31.2,27.3,31.6
Q 27.2,32.0,27.1,32.5
Q 27.1,33.1,27.1,33.8
Q 27.2,34.1,27.3,34.5
Q 27.5,34.9,27.5,35.5
Q 28.2,35.5,28.9,35.6
 " /> 
<path  
style="fill:rgb(7,193,201)" 
d="M 28.9 35.6
Q 29.4,33.4,28.9,30.7
Q 28.9,33.1,28.9,35.6
 " /> 
<path  
style="fill:rgb(4,4,4)" 
d="M 28.9 35.6
Q 28.2,35.5,27.5,35.5
Q 27.4,35.7,27.3,36.0
Q 27.2,36.5,27.1,36.9
Q 27.9,37.0,28.7,37.1
Q 28.8,36.4,28.9,35.6
 " /> 
<path  
style="fill:rgb(4,4,4)" 
d="M 28.9 30.7
Q 28.8,29.8,28.8,28.8
Q 28.0,28.9,27.1,28.9
Q 27.4,30.0,27.4,30.7
Q 28.2,30.7,28.9,30.7
 " /> 
<path  
style="fill:rgb(14,103,171)" 
d="M 27.1 28.9
Q 27.1,30.7,27.1,32.5
Q 27.2,32.0,27.3,31.6
Q 27.4,31.2,27.4,30.7
Q 27.4,30.0,27.1,28.9
 " /> 
<path  
style="fill:rgb(4,4,4)" 
d="M 27.1 28.9
Q 28.0,28.9,28.8,28.8
Q 28.8,28.8,28.8,28.8
Q 28.5,22.2,26.6,16.0
Q 25.7,13.2,25.8,10.7
Q 25.9,8.3,25.3,8.3
Q 24.7,8.3,24.4,11.8
Q 24.0,15.4,23.3,19.1
Q 22.1,26.7,23.0,26.7
Q 23.9,26.7,24.4,23.7
Q 24.9,20.7,25.3,19.8
Q 25.5,19.4,25.7,19.0
Q 25.8,20.0,25.9,21.0
Q 26.2,23.1,26.7,26.0
Q 26.9,27.5,27.1,28.9
 " /> 
<path  
style="fill:rgb(14,103,171)" 
d="M 27.1 33.8
Q 27.1,35.4,27.1,36.9
Q 27.2,36.5,27.3,36.0
Q 27.4,35.7,27.5,35.5
Q 27.5,34.9,27.3,34.5
Q 27.2,34.1,27.1,33.8
 " /> 
<path  
style="fill:rgb(14,103,171)" 
d="M 23.1 51.6
Q 23.1,52.9,23.1,54.3
Q 23.3,54.3,23.6,54.3
Q 23.6,53.6,23.6,52.9
Q 23.6,51.5,23.3,51.5
Q 23.2,51.6,23.1,51.6
 " /> 
<path  
style="fill:rgb(7,193,201)" 
d="M 23.1 54.3
Q 23.1,56.0,23.1,56.3
Q 23.2,56.5,23.6,56.5
Q 23.6,55.4,23.6,54.3
Q 23.3,54.3,23.1,54.3
 " /> 
<path  
style="fill:rgb(14,103,171)" 
d="M 31.6 84.0
Q 31.6,86.0,31.6,88.0
Q 32.0,85.8,31.8,84.9
Q 31.7,84.5,31.6,84.0
 " /> 
<path  
style="fill:rgb(7,193,201)" 
d="M -28.2 92.8
Q -28.0,93.4,-27.3,93.4
Q -26.7,93.4,-26.7,89.8
Q -26.7,86.3,-26.6,83.1
Q -26.4,80.0,-26.9,79.8
Q -27.4,79.6,-27.7,84.1
Q -28.0,88.7,-28.2,90.5
Q -28.4,92.3,-28.2,92.8
 " /> 
<path  
style="fill:rgb(7,193,201)" 
d="M 33.3 82.3
Q 33.3,82.5,33.3,82.7
Q 33.7,82.8,34.1,83.0
Q 35.2,83.4,34.4,72.6
Q 34.2,69.4,33.5,69.4
Q 32.9,69.4,33.1,75.8
Q 33.2,79.0,33.3,82.3
 " /> 
<path  
style="fill:rgb(7,193,201)" 
d="M 54.7 62.3
Q 54.1,62.7,53.6,63.2
Q 54.3,64.1,55.1,64.9
Q 55.0,64.6,54.9,64.3
Q 54.7,63.6,54.7,62.3
 " /> 
<path  
style="fill:rgb(7,193,201)" 
d="M 54.7 62.3
Q 51.7,58.7,51.3,59.9
Q 51.1,60.5,53.1,62.7
Q 53.3,63.0,53.6,63.2
Q 54.1,62.7,54.7,62.3
 " /> 
<path  
style="fill:rgb(97,247,248)" 
d="M -68.0 -89.3
Q -68.0,-87.3,-68.4,-87.1
Q -68.4,-74.0,-65.3,-61.9
Q -58.5,-35.8,-46.8,-23.1
Q -45.7,-21.9,-44.6,-20.7
Q -39.9,-27.5,-39.1,-26.8
Q -38.5,-26.2,-40.3,-23.8
Q -42.1,-21.5,-43.9,-19.0
Q -45.6,-16.6,-47.3,-14.6
Q -54.5,-6.3,-56.1,1.3
Q -57.1,6.6,-54.4,6.4
Q -51.7,6.2,-46.4,-2.2
Q -39.2,-13.4,-38.7,-14.9
Q -38.4,-15.8,-37.7,-16.7
Q -33.5,-22.2,-32.8,-22.2
Q -31.6,-22.2,-34.4,-18.3
Q -36.1,-15.9,-35.3,-15.3
Q -31.2,-12.0,-30.1,-13.5
Q -29.5,-14.2,-28.7,-16.5
Q -27.9,-18.7,-27.2,-18.5
Q -25.5,-18.0,-30.7,-7.3
Q -37.2,5.9,-35.6,11.2
Q -34.2,15.7,-26.7,6.7
Q -23.4,2.8,-20.0,-2.7
Q -18.2,-5.7,-14.4,-9.7
Q -12.9,-11.3,-12.4,-10.8
Q -11.9,-10.2,-14.0,-7.4
Q -15.0,-6.0,-16.1,-4.6
Q -15.2,-4.4,-14.3,-4.1
Q -11.3,-3.2,-2.8,-2.5
Q -1.2,-2.3,0.4,-2.2
Q 1.8,-2.2,3.1,-2.2
Q 4.5,-2.2,6.0,-2.3
Q 8.8,-2.3,9.3,-2.5
Q 9.5,-2.6,9.8,-2.6
Q 10.9,-2.6,12.0,-2.6
Q 18.2,-3.5,22.8,-4.6
Q 27.3,-5.8,28.8,-5.9
Q 30.2,-6.0,30.0,-6.4
Q 29.9,-6.9,28.7,-9.7
Q 26.9,-13.9,27.2,-14.4
Q 27.9,-15.6,29.6,-11.7
Q 30.8,-9.1,31.8,-6.8
Q 32.8,-4.6,34.2,-0.9
Q 37.6,7.9,39.2,6.1
Q 40.9,4.1,41.0,-1.7
Q 41.0,-9.2,37.1,-16.9
Q 35.1,-20.8,35.6,-21.1
Q 37.2,-22.1,41.4,-11.1
Q 42.2,-11.7,42.9,-12.3
Q 44.3,-13.6,45.5,-14.5
Q 46.8,-15.5,45.9,-18.1
Q 43.2,-25.5,43.7,-26.1
Q 45.2,-27.5,49.4,-12.8
Q 52.5,-1.6,54.4,-3.5
Q 56.5,-5.7,57.1,-13.3
Q 57.7,-21.2,54.8,-28.1
Q 52.7,-33.1,53.8,-32.7
Q 54.4,-32.5,55.4,-30.7
Q 56.4,-29.0,57.8,-24.8
Q 58.6,-24.9,60.0,-25.7
Q 64.9,-31.1,66.9,-34.1
Q 74.3,-45.5,75.8,-58.6
Q 76.1,-61.7,76.4,-64.8
Q 76.4,-67.3,76.4,-69.7
Q 76.2,-73.2,76.0,-76.6
Q 74.5,-99.4,67.8,-111.8
Q 61.3,-123.6,49.4,-129.8
Q 44.4,-132.5,44.3,-133.0
Q 43.8,-134.7,49.8,-132.5
Q 49.7,-133.0,49.5,-133.4
Q 47.9,-139.0,44.4,-144.2
Q 43.8,-145.2,43.1,-146.2
Q 42.7,-146.5,42.2,-146.9
Q 41.4,-147.5,40.4,-148.8
Q 39.1,-149.7,37.8,-150.6
Q 23.7,-160.0,11.3,-146.5
Q 9.0,-144.1,7.6,-141.7
Q 6.6,-140.1,5.9,-139.7
Q 5.2,-139.4,-0.9,-139.5
Q -2.9,-139.5,-4.9,-139.5
Q -7.1,-141.3,-8.2,-143.3
Q -9.3,-145.3,-12.9,-149.7
Q -13.3,-150.1,-13.8,-150.4
Q -14.6,-151.1,-15.6,-152.4
Q -16.4,-153.0,-17.3,-153.5
Q -22.4,-156.7,-26.2,-157.3
Q -27.5,-157.5,-28.9,-157.7
Q -30.9,-157.7,-32.9,-157.7
Q -33.8,-157.5,-34.7,-157.3
Q -41.4,-155.6,-45.5,-144.0
Q -46.7,-140.8,-46.7,-139.2
Q -46.7,-135.5,-48.7,-135.2
Q -49.5,-135.1,-50.9,-133.5
Q -52.2,-131.8,-52.2,-131.2
Q -52.2,-130.5,-54.1,-129.1
Q -57.2,-126.9,-61.6,-118.1
Q -66.5,-108.3,-67.5,-95.5
Q -67.8,-92.4,-68.0,-89.3
 " /> 
<path  
style="fill:rgb(4,4,4)" 
d="M 17.2 -15.0
Q 21.3,-12.7,21.3,-13.9
Q 21.3,-15.0,16.9,-17.3
Q 13.3,-19.1,6.4,-18.2
Q -2.7,-16.9,-2.7,-15.4
Q -2.7,-14.5,-1.4,-14.8
Q 11.5,-18.1,17.2,-15.0
 " /> 
<path  
style="fill:rgb(4,4,4)" 
d="M -1.1 -36.0
Q -0.7,-34.9,1.4,-38.7
Q 2.5,-40.7,4.0,-42.9
Q 6.6,-46.6,5.3,-46.6
Q 4.2,-46.6,0.1,-39.3
Q -1.3,-36.6,-1.1,-36.0
 " /> 
<path  
style="fill:rgb(4,4,4)" 
d="M 12.9 -39.8
Q 15.2,-35.5,15.6,-35.5
Q 16.8,-35.5,13.7,-41.4
Q 11.3,-45.8,10.7,-46.1
Q 9.3,-46.6,12.9,-39.8
 " /> 
<path  
style="fill:rgb(4,4,4)" 
d="M 24.0 -50.6
Q 24.3,-50.4,24.7,-50.2
Q 25.3,-49.7,25.8,-49.1
Q 26.0,-48.7,26.2,-48.4
Q 26.7,-48.1,27.1,-47.7
Q 35.9,-41.2,47.6,-48.2
Q 62.7,-57.3,65.7,-75.6
Q 66.0,-77.1,66.2,-78.6
Q 65.7,-80.8,66.0,-82.0
Q 66.1,-82.5,66.2,-83.1
Q 64.8,-92.4,61.7,-99.0
Q 51.9,-120.2,38.7,-112.0
Q 37.8,-110.7,36.4,-109.7
Q 27.7,-98.8,19.3,-74.0
Q 17.7,-69.1,17.0,-67.8
Q 16.4,-66.4,16.0,-64.6
Q 15.6,-62.8,14.9,-60.8
Q 13.6,-57.2,14.6,-57.1
Q 15.2,-57.1,17.2,-62.3
Q 18.0,-60.5,18.9,-58.7
Q 20.6,-55.1,24.0,-50.6
 " /> 
<path  
style="fill:rgb(115,250,3)" 
d="M 40.0 -110.2
Q 39.8,-109.9,39.5,-109.6
Q 39.1,-109.0,37.8,-108.0
Q 30.7,-97.7,25.2,-84.2
Q 19.1,-69.2,19.1,-66.6
Q 19.2,-62.8,23.5,-56.0
Q 33.6,-40.5,50.6,-54.0
Q 60.3,-61.7,62.6,-74.0
Q 63.4,-78.1,63.6,-83.5
Q 63.5,-83.5,63.4,-83.5
Q 62.6,-83.5,61.9,-83.5
Q 61.9,-76.0,56.6,-66.4
Q 46.8,-48.6,30.0,-56.8
Q 24.9,-59.3,24.6,-61.0
Q 24.1,-64.1,26.0,-66.0
Q 26.6,-66.5,27.1,-67.1
Q 24.2,-67.8,24.2,-68.6
Q 24.3,-69.6,27.0,-68.9
Q 28.9,-68.4,31.6,-69.7
Q 32.9,-70.4,34.2,-71.1
Q 34.6,-71.5,34.9,-72.0
Q 35.6,-72.8,36.4,-73.5
Q 36.9,-73.8,37.3,-74.2
Q 40.0,-78.2,41.8,-79.9
Q 47.7,-85.5,52.0,-78.1
Q 54.4,-74.0,54.9,-76.3
Q 57.1,-86.2,51.7,-96.9
Q 49.6,-101.2,51.1,-100.6
Q 52.2,-100.1,53.8,-96.6
Q 54.2,-95.6,54.7,-94.6
Q 55.4,-94.2,55.6,-94.7
Q 55.8,-95.1,57.1,-95.0
Q 58.3,-94.8,59.9,-91.9
Q 61.4,-89.0,61.8,-85.6
Q 62.4,-85.7,63.1,-85.7
Q 62.9,-86.8,62.7,-88.0
Q 60.9,-96.9,55.7,-104.4
Q 50.3,-112.3,45.4,-111.9
Q 43.5,-111.8,40.0,-110.2
 " /> 
<path  
style="fill:rgb(209,251,185)" 
d="M 28.9 -74.1
Q 31.3,-71.8,39.8,-79.5
Q 43.3,-82.7,46.2,-84.2
Q 50.3,-86.2,50.6,-87.5
Q 51.6,-90.7,49.3,-95.9
Q 46.9,-101.3,44.6,-102.2
Q 43.6,-102.6,43.6,-103.3
Q 43.6,-104.3,41.9,-102.7
Q 40.6,-101.5,39.4,-100.5
Q 38.2,-99.4,36.4,-96.1
Q 34.5,-92.8,35.0,-92.5
Q 35.5,-92.2,33.5,-88.9
Q 26.2,-76.9,28.9,-74.1
 " /> 
<path  
style="fill:rgb(31,181,0)" 
d="M 40.0 -110.2
Q 38.7,-109.3,38.2,-108.6
Q 38.0,-108.3,37.8,-108.0
Q 39.1,-109.0,39.5,-109.6
Q 39.8,-109.9,40.0,-110.2
 " /> 
<path  
style="fill:rgb(31,181,0)" 
d="M 63.1 -85.7
Q 63.1,-85.2,63.1,-84.6
Q 63.3,-84.0,63.6,-83.5
Q 63.6,-85.9,63.3,-85.8
Q 63.2,-85.8,63.1,-85.7
 " /> 
<path  
style="fill:rgb(115,250,3)" 
d="M 63.1 -85.7
Q 62.4,-85.7,61.8,-85.6
Q 62.1,-82.5,61.4,-79.0
Q 62.6,-83.5,63.4,-83.5
Q 63.1,-83.6,63.1,-84.6
Q 63.1,-84.6,63.1,-84.6
Q 63.1,-85.2,63.1,-85.7
 " /> 
<path  
style="fill:rgb(31,181,0)" 
d="M 63.6 -83.5
Q 63.3,-84.0,63.1,-84.6
Q 63.1,-84.6,63.1,-84.6
Q 63.1,-83.6,63.4,-83.5
Q 63.5,-83.5,63.6,-83.5
 " /> 
<path  
style="fill:rgb(115,250,3)" 
d="M 43.1 -78.2
Q 43.6,-78.6,44.0,-79.1
Q 43.9,-79.0,43.7,-79.0
Q 43.5,-78.9,43.3,-78.5
Q 43.2,-78.4,43.1,-78.2
 " /> 
<path  
style="fill:rgb(115,250,3)" 
d="M 43.1 -78.2
Q 45.8,-78.2,46.6,-77.8
Q 48.5,-76.9,51.3,-73.2
Q 52.5,-71.5,53.4,-71.5
Q 54.2,-71.5,53.8,-72.4
Q 50.7,-76.0,48.0,-80.0
Q 45.7,-80.1,44.0,-79.1
Q 43.6,-78.6,43.1,-78.2
 " /> 
<path  
style="fill:rgb(31,181,0)" 
d="M 43.1 -78.2
Q 40.6,-75.3,38.5,-73.1
Q 37.7,-72.2,37.0,-71.5
Q 36.1,-70.5,35.3,-69.8
Q 31.3,-66.4,27.1,-67.1
Q 26.6,-66.5,26.0,-66.0
Q 24.1,-64.1,24.6,-61.0
Q 24.9,-59.3,30.0,-56.8
Q 46.8,-48.6,56.6,-66.4
Q 61.9,-76.0,61.9,-83.5
Q 61.9,-86.8,60.9,-89.6
Q 61.4,-89.0,59.9,-91.9
Q 58.3,-94.8,57.1,-95.0
Q 55.8,-95.1,55.6,-94.7
Q 55.4,-94.2,54.7,-94.6
Q 55.1,-93.6,55.6,-92.6
Q 58.2,-86.7,57.2,-77.3
Q 56.8,-73.8,54.7,-72.8
Q 54.3,-72.6,53.8,-72.4
Q 54.2,-71.5,53.4,-71.5
Q 52.5,-71.5,51.3,-73.2
Q 48.5,-76.9,46.6,-77.8
Q 45.8,-78.2,43.1,-78.2
 " /> 
<path  
style="fill:rgb(4,4,4)" 
d="M 43.1 -78.2
Q 43.2,-78.4,43.3,-78.5
Q 43.5,-78.9,43.7,-79.0
Q 43.9,-79.0,44.0,-79.1
Q 45.8,-80.5,48.0,-80.0
Q 50.7,-76.0,53.8,-72.4
Q 54.3,-72.6,54.7,-72.8
Q 56.8,-73.8,57.2,-77.3
Q 58.2,-86.7,55.6,-92.6
Q 55.1,-93.6,54.7,-94.6
Q 54.2,-95.6,53.8,-96.6
Q 52.2,-100.1,51.1,-100.6
Q 49.6,-101.2,51.7,-96.9
Q 57.1,-86.2,54.9,-76.3
Q 54.4,-74.0,52.0,-78.1
Q 47.7,-85.5,41.8,-79.9
Q 40.0,-78.2,37.3,-74.2
Q 37.9,-73.6,38.5,-73.1
Q 40.6,-75.3,43.1,-78.2
 " /> 
<path  
style="fill:rgb(4,4,4)" 
d="M 27.1 -67.1
Q 31.3,-66.4,35.3,-69.8
Q 34.8,-70.4,34.2,-71.1
Q 32.9,-70.4,31.6,-69.7
Q 28.9,-68.4,27.0,-68.9
Q 24.3,-69.6,24.2,-68.6
Q 24.2,-67.8,27.1,-67.1
 " /> 
<path  
style="fill:rgb(31,181,0)" 
d="M 34.2 -71.1
Q 34.7,-71.4,35.1,-71.8
Q 36.0,-72.4,37.3,-74.2
Q 36.9,-73.8,36.4,-73.5
Q 35.6,-72.8,34.9,-72.0
Q 34.6,-71.5,34.2,-71.1
 " /> 
<path  
style="fill:rgb(4,4,4)" 
d="M 34.2 -71.1
Q 34.8,-70.4,35.3,-69.8
Q 36.1,-70.5,37.0,-71.5
Q 37.7,-72.2,38.5,-73.1
Q 37.9,-73.6,37.3,-74.2
Q 36.0,-72.4,35.1,-71.8
Q 34.7,-71.4,34.2,-71.1
 " /> 
<path  
style="fill:rgb(31,181,0)" 
d="M 48.0 -80.0
Q 45.8,-80.5,44.0,-79.1
Q 45.7,-80.1,48.0,-80.0
 " /> 
<path  
style="fill:rgb(7,193,201)" 
d="M 24.0 -50.6
Q 24.2,-50.3,24.5,-50.0
Q 24.9,-49.3,25.6,-48.9
Q 25.9,-48.6,26.2,-48.4
Q 26.0,-48.7,25.8,-49.1
Q 25.3,-49.7,24.7,-50.2
Q 24.3,-50.4,24.0,-50.6
 " /> 
<path  
style="fill:rgb(7,193,201)" 
d="M 36.4 -109.7
Q 37.8,-110.7,38.7,-112.0
Q 38.3,-111.7,38.0,-111.5
Q 37.3,-111.1,36.4,-109.7
 " /> 
<path  
style="fill:rgb(14,103,171)" 
d="M 66.2 -83.1
Q 66.1,-82.5,66.0,-82.0
Q 65.7,-80.8,66.2,-78.6
Q 66.2,-80.8,66.2,-83.1
 " /> 
<path  
style="fill:rgb(4,4,4)" 
d="M -51.6 -89.3
Q -51.4,-89.3,-51.3,-89.4
Q -51.1,-89.4,-51.1,-86.2
Q -51.0,-85.1,-50.9,-84.0
Q -49.3,-68.2,-37.6,-56.6
Q -23.4,-42.6,-8.9,-51.5
Q -8.0,-52.8,-7.3,-53.3
Q -7.0,-53.5,-6.7,-53.7
Q -5.9,-54.7,-5.1,-55.7
Q -3.6,-57.7,-2.6,-59.8
Q -2.1,-60.9,-1.7,-61.9
Q -1.3,-60.5,-1.0,-59.1
Q -0.4,-56.2,0.0,-55.6
Q 2.9,-51.7,-2.7,-76.6
Q -7.7,-98.8,-16.5,-110.2
Q -17.4,-111.3,-18.2,-112.4
Q -18.5,-112.6,-18.9,-112.9
Q -19.5,-113.3,-20.4,-114.6
Q -25.4,-118.9,-29.8,-120.1
Q -34.6,-121.6,-37.9,-120.1
Q -39.5,-119.4,-42.2,-117.7
Q -42.4,-117.5,-42.5,-117.2
Q -42.9,-116.8,-43.6,-116.1
Q -44.0,-115.8,-44.4,-115.5
Q -47.1,-112.0,-48.3,-109.7
Q -50.4,-105.6,-51.1,-98.6
Q -51.1,-97.5,-51.1,-96.4
Q -51.1,-94.4,-51.3,-94.3
Q -51.4,-94.2,-51.6,-94.2
Q -51.6,-91.7,-51.6,-89.3
 " /> 
<path  
style="fill:rgb(115,250,3)" 
d="M -38.7 -60.8
Q -38.0,-60.3,-37.3,-59.7
Q -36.0,-58.6,-34.9,-57.3
Q -34.3,-56.6,-33.8,-56.0
Q -32.3,-55.0,-30.9,-54.0
Q -25.3,-50.1,-19.7,-50.1
Q -16.4,-50.2,-11.1,-52.8
Q -10.7,-53.4,-10.2,-53.9
Q -9.3,-55.0,-8.4,-55.7
Q -8.0,-56.1,-7.6,-56.4
Q -6.7,-57.8,-5.8,-59.3
Q -2.9,-64.0,-2.9,-67.2
Q -2.9,-68.6,-4.2,-74.2
Q -8.6,-93.8,-16.7,-106.4
Q -17.9,-108.3,-19.1,-110.2
Q -21.8,-112.4,-23.6,-114.6
Q -28.4,-117.3,-30.5,-118.0
Q -34.3,-119.2,-38.4,-117.5
Q -39.2,-117.2,-40.0,-116.8
Q -40.4,-116.4,-40.8,-115.9
Q -41.6,-115.0,-43.6,-113.3
Q -48.0,-106.2,-48.9,-99.5
Q -48.9,-97.1,-49.3,-96.8
Q -49.3,-92.4,-49.3,-88.0
Q -48.8,-88.1,-48.9,-86.7
Q -48.9,-86.7,-48.9,-86.7
Q -48.9,-86.0,-48.9,-85.3
Q -48.7,-84.0,-48.4,-82.6
Q -46.9,-73.2,-40.9,-64.2
Q -39.8,-62.5,-38.7,-60.8
 " /> 
<path  
style="fill:rgb(4,4,4)" 
d="M -42.2 -99.1
Q -42.3,-98.1,-42.4,-97.1
Q -42.8,-91.4,-40.6,-83.0
Q -36.5,-66.5,-30.3,-73.1
Q -28.5,-75.0,-26.7,-75.9
Q -26.8,-76.3,-27.0,-76.7
Q -27.1,-76.7,-27.1,-76.8
Q -27.1,-77.2,-26.0,-78.1
Q -24.8,-79.0,-23.4,-78.3
Q -22.7,-78.0,-22.0,-77.6
Q -25.1,-77.3,-26.1,-76.8
Q -26.8,-76.5,-27.0,-76.7
Q -26.8,-76.3,-26.7,-75.9
Q -22.5,-77.9,-18.4,-74.1
Q -13.1,-69.2,-10.0,-68.7
Q -9.9,-69.4,-9.8,-70.2
Q -11.5,-70.6,-12.2,-71.3
Q -12.6,-71.6,-12.9,-72.0
Q -14.8,-73.6,-16.7,-75.3
Q -20.4,-78.6,-21.8,-79.7
Q -26.1,-83.1,-29.9,-76.8
Q -31.0,-74.9,-32.2,-74.1
Q -32.8,-73.7,-33.3,-73.3
Q -33.7,-73.4,-34.0,-73.5
Q -34.7,-73.7,-36.0,-75.5
Q -36.4,-76.7,-36.9,-78.0
Q -39.2,-84.4,-40.0,-90.8
Q -40.2,-92.7,-40.4,-94.6
Q -40.6,-95.2,-40.7,-95.7
Q -40.9,-96.8,-40.4,-99.1
Q -40.4,-103.6,-37.7,-107.2
Q -36.8,-108.5,-37.3,-109.0
Q -37.8,-109.5,-39.1,-108.0
Q -42.0,-104.6,-42.2,-100.2
Q -42.2,-99.6,-42.2,-99.1
 " /> 
<path  
style="fill:rgb(31,181,0)" 
d="M -42.2 -99.1
Q -42.7,-97.3,-43.3,-97.6
Q -44.0,-97.8,-44.7,-96.3
Q -46.5,-92.5,-43.6,-81.1
Q -36.0,-51.9,-18.2,-56.0
Q -15.8,-56.5,-14.3,-57.6
Q -6.0,-63.7,-7.5,-67.2
Q -8.1,-68.6,-7.1,-69.3
Q -7.7,-69.1,-8.2,-68.8
Q -9.0,-68.5,-10.0,-68.7
Q -13.1,-69.2,-18.4,-74.1
Q -22.5,-77.9,-26.7,-75.9
Q -28.5,-75.0,-30.3,-73.1
Q -36.5,-66.5,-40.6,-83.0
Q -42.8,-91.4,-42.4,-97.1
Q -42.3,-98.1,-42.2,-99.1
 " /> 
<path  
style="fill:rgb(4,4,4)" 
d="M -7.1 -69.3
Q -7.2,-69.6,-7.3,-69.8
Q -7.5,-70.3,-9.8,-70.2
Q -9.9,-69.4,-10.0,-68.7
Q -9.0,-68.5,-8.2,-68.8
Q -7.7,-69.1,-7.1,-69.3
 " /> 
<path  
style="fill:rgb(31,181,0)" 
d="M -40.4 -99.1
Q -40.9,-96.8,-40.7,-95.7
Q -40.6,-95.2,-40.4,-94.6
Q -40.4,-96.8,-40.4,-99.1
 " /> 
<path  
style="fill:rgb(31,181,0)" 
d="M -36.0 -75.5
Q -34.7,-73.7,-34.0,-73.5
Q -33.7,-73.4,-33.3,-73.3
Q -34.3,-74.1,-35.1,-74.8
Q -35.6,-75.2,-36.0,-75.5
 " /> 
<path  
style="fill:rgb(31,181,0)" 
d="M -12.9 -72.0
Q -12.6,-71.6,-12.2,-71.3
Q -11.5,-70.6,-9.8,-70.2
Q -10.1,-70.4,-10.4,-70.6
Q -11.1,-71.1,-12.9,-72.0
 " /> 
<path  
style="fill:rgb(255,255,255)" 
d="M -27.1 -76.8
Q -27.1,-76.7,-27.0,-76.7
Q -26.8,-76.5,-26.1,-76.8
Q -25.1,-77.3,-22.0,-77.6
Q -22.7,-78.0,-23.4,-78.3
Q -24.8,-79.0,-26.0,-78.1
Q -27.1,-77.2,-27.1,-76.8
 " /> 
<path  
style="fill:rgb(209,251,185)" 
d="M -12.8 -77.5
Q -9.5,-75.6,-9.9,-77.3
Q -10.1,-78.1,-13.5,-85.1
Q -21.8,-102.2,-26.7,-102.2
Q -28.0,-102.2,-29.7,-100.6
Q -35.3,-95.6,-32.5,-89.5
Q -30.7,-85.6,-25.9,-84.2
Q -20.1,-82.5,-16.9,-80.2
Q -14.8,-78.7,-12.8,-77.5
 " /> 
<path  
style="fill:rgb(31,181,0)" 
d="M -38.7 -60.8
Q -36.4,-58.2,-35.1,-57.1
Q -34.4,-56.5,-33.8,-56.0
Q -34.3,-56.6,-34.9,-57.3
Q -36.0,-58.6,-37.3,-59.7
Q -38.0,-60.3,-38.7,-60.8
 " /> 
<path  
style="fill:rgb(31,181,0)" 
d="M -48.9 -85.3
Q -48.9,-86.0,-48.9,-86.7
Q -49.1,-87.3,-49.3,-88.0
Q -49.3,-87.2,-49.3,-86.5
Q -49.3,-85.6,-49.3,-85.4
Q -49.2,-85.1,-48.9,-85.3
 " /> 
<path  
style="fill:rgb(31,181,0)" 
d="M -49.3 -88.0
Q -49.1,-87.3,-48.9,-86.7
Q -48.9,-86.7,-48.9,-86.7
Q -48.8,-88.1,-49.3,-88.0
 " /> 
<path  
style="fill:rgb(31,181,0)" 
d="M -49.3 -96.8
Q -48.9,-97.1,-48.9,-99.5
Q -49.0,-99.5,-49.1,-99.4
Q -49.3,-99.4,-49.3,-96.8
 " /> 
<path  
style="fill:rgb(31,181,0)" 
d="M -43.6 -113.3
Q -41.6,-115.0,-40.8,-115.9
Q -40.4,-116.4,-40.0,-116.8
Q -40.5,-116.4,-41.1,-116.0
Q -42.2,-115.1,-43.6,-113.3
 " /> 
<path  
style="fill:rgb(31,181,0)" 
d="M -23.6 -114.6
Q -21.8,-112.4,-19.1,-110.2
Q -21.4,-112.8,-23.6,-114.6
 " /> 
<path  
style="fill:rgb(31,181,0)" 
d="M -7.6 -56.4
Q -8.0,-56.1,-8.4,-55.7
Q -9.3,-55.0,-10.2,-53.9
Q -10.7,-53.4,-11.1,-52.8
Q -10.6,-53.3,-10.0,-53.7
Q -8.9,-54.6,-8.2,-55.5
Q -7.9,-56.0,-7.6,-56.4
 " /> 
<path  
style="fill:rgb(7,193,201)" 
d="M -51.6 -89.3
Q -51.6,-86.5,-51.5,-86.3
Q -51.4,-86.0,-51.1,-86.2
Q -51.1,-89.4,-51.3,-89.4
Q -51.4,-89.3,-51.6,-89.3
 " /> 
<path  
style="fill:rgb(14,103,171)" 
d="M -51.6 -94.2
Q -51.4,-94.2,-51.3,-94.3
Q -51.1,-94.4,-51.1,-96.4
Q -51.3,-96.4,-51.6,-96.4
Q -51.6,-95.3,-51.6,-94.2
 " /> 
<path  
style="fill:rgb(7,193,201)" 
d="M -51.1 -96.4
Q -51.1,-97.5,-51.1,-98.6
Q -51.5,-98.5,-51.6,-96.4
Q -51.3,-96.4,-51.1,-96.4
 " /> 
<path  
style="fill:rgb(7,193,201)" 
d="M -44.4 -115.5
Q -44.0,-115.8,-43.6,-116.1
Q -42.9,-116.8,-42.5,-117.2
Q -42.4,-117.5,-42.2,-117.7
Q -42.5,-117.5,-42.9,-117.3
Q -43.5,-116.8,-44.0,-116.2
Q -44.2,-115.8,-44.4,-115.5
 " /> 
<path  
style="fill:rgb(7,193,201)" 
d="M -20.4 -114.6
Q -19.5,-113.3,-18.9,-112.9
Q -18.5,-112.6,-18.2,-112.4
Q -18.4,-112.7,-18.7,-113.1
Q -19.1,-113.7,-20.4,-114.6
 " /> 
<path  
style="fill:rgb(7,193,201)" 
d="M -6.7 -53.7
Q -7.0,-53.5,-7.3,-53.3
Q -8.0,-52.8,-8.9,-51.5
Q -8.6,-51.7,-8.2,-52.0
Q -7.6,-52.4,-6.7,-53.7
 " /> 
<path  
style="fill:rgb(7,193,201)" 
d="M -68.0 -89.3
Q -68.4,-89.1,-68.4,-87.1
Q -68.0,-87.3,-68.0,-89.3
 " /> 
<path  
style="fill:rgb(14,103,171)" 
d="M -32.9 -157.7
Q -30.9,-157.7,-28.9,-157.7
Q -29.4,-157.9,-30.0,-158.0
Q -31.1,-158.2,-32.9,-157.7
 " /> 
<path  
style="fill:rgb(14,103,171)" 
d="M -15.6 -152.4
Q -14.6,-151.1,-13.8,-150.4
Q -13.3,-150.1,-12.9,-149.7
Q -13.2,-150.2,-13.6,-150.6
Q -14.2,-151.5,-14.9,-152.0
Q -15.2,-152.2,-15.6,-152.4
 " /> 
<path  
style="fill:rgb(14,103,171)" 
d="M -4.9 -139.5
Q -2.9,-139.5,-0.9,-139.5
Q -3.1,-140.0,-4.0,-139.8
Q -4.4,-139.6,-4.9,-139.5
 " /> 
<path  
style="fill:rgb(14,103,171)" 
d="M 40.4 -148.8
Q 41.4,-147.5,42.2,-146.9
Q 42.7,-146.5,43.1,-146.2
Q 42.8,-146.6,42.4,-147.1
Q 41.8,-147.9,41.1,-148.4
Q 40.8,-148.6,40.4,-148.8
 " /> 
<path  
style="fill:rgb(14,103,171)" 
d="M 76.4 -69.7
Q 76.4,-67.3,76.4,-64.8
Q 76.6,-65.5,76.7,-66.2
Q 76.9,-67.5,76.4,-69.7
 " /> 
<path  
style="fill:rgb(7,193,201)" 
d="M 60.0 -25.7
Q 58.6,-24.9,57.8,-24.8
Q 58.0,-24.7,58.2,-24.5
Q 58.6,-24.2,60.0,-25.7
 " /> 
<path  
style="fill:rgb(14,103,171)" 
d="M 12.0 -2.6
Q 10.9,-2.6,9.8,-2.6
Q 10.1,-2.5,10.4,-2.4
Q 11.1,-2.1,12.0,-2.6
 " /> 
<path  
style="fill:rgb(14,103,171)" 
d="M 3.1 -2.2
Q 1.8,-2.2,0.4,-2.2
Q 0.8,-2.1,1.1,-1.9
Q 1.8,-1.7,3.1,-2.2
 " /> 
<path  
style="fill:rgb(4,4,4)" 
d="M 73.8 -42.2
Q 74.4,-42.5,75.1,-42.8
Q 76.4,-43.5,78.8,-44.2
Q 84.5,-46.0,90.0,-49.5
Q 93.6,-51.8,92.8,-50.4
Q 92.1,-49.3,87.9,-46.9
Q 81.0,-43.1,73.8,-41.7
Q 70.2,-34.6,68.2,-31.8
Q 66.2,-29.1,66.6,-28.9
Q 67.0,-28.8,70.5,-29.8
Q 88.7,-34.6,99.8,-43.8
Q 101.2,-45.0,102.7,-46.2
Q 103.0,-46.6,103.3,-47.1
Q 104.0,-47.9,105.3,-48.8
Q 106.2,-50.0,107.1,-51.1
Q 108.9,-53.3,109.8,-55.5
Q 110.2,-56.6,110.7,-57.7
Q 110.4,-57.8,110.1,-57.9
Q 109.6,-58.1,108.4,-57.7
Q 106.7,-56.6,104.9,-55.5
Q 99.1,-51.9,98.8,-54.9
Q 98.5,-57.5,106.0,-68.0
Q 119.7,-87.2,122.4,-100.8
Q 123.8,-107.6,121.9,-108.3
Q 120.8,-108.7,113.6,-99.2
Q 109.0,-93.1,108.2,-95.5
Q 108.0,-96.3,109.8,-101.6
Q 118.2,-125.7,118.2,-136.0
Q 118.2,-138.2,118.2,-140.4
Q 118.0,-141.7,117.8,-143.1
Q 116.3,-151.7,111.7,-144.5
Q 110.2,-142.2,105.9,-131.1
Q 101.5,-119.6,98.9,-123.4
Q 98.0,-124.8,95.5,-132.8
Q 92.4,-143.2,89.8,-148.1
Q 88.9,-149.8,88.0,-151.5
Q 87.6,-151.9,87.1,-152.2
Q 86.2,-152.9,85.8,-153.5
Q 85.6,-153.9,85.3,-154.2
Q 82.5,-154.2,82.0,-150.6
Q 81.9,-150.0,81.8,-149.3
Q 81.8,-143.1,81.7,-142.7
Q 81.7,-142.3,81.3,-142.2
Q 81.3,-136.0,78.9,-134.2
Q 78.1,-133.6,75.9,-134.6
Q 74.8,-135.0,73.8,-135.5
Q 72.5,-136.4,71.6,-137.7
Q 70.7,-138.6,69.8,-139.5
Q 70.3,-137.1,70.7,-136.2
Q 71.1,-135.3,71.1,-133.3
Q 71.1,-128.1,65.5,-131.9
Q 64.7,-132.3,64.0,-132.8
Q 63.7,-133.1,63.3,-133.3
Q 62.7,-133.8,62.2,-134.4
Q 62.0,-134.7,61.8,-135.1
Q 61.2,-134.9,60.6,-134.7
Q 61.3,-132.1,61.0,-131.5
Q 60.0,-128.8,56.3,-128.8
Q 57.5,-128.0,58.7,-127.1
Q 61.0,-125.4,63.6,-122.2
Q 63.9,-122.0,64.2,-121.7
Q 64.9,-121.3,65.3,-120.6
Q 65.5,-120.3,65.8,-120.0
Q 66.8,-118.5,67.8,-117.1
Q 72.6,-110.2,75.5,-97.5
Q 76.0,-95.6,76.4,-93.7
Q 77.3,-94.7,78.2,-95.7
Q 87.3,-105.9,87.1,-126.1
Q 87.0,-134.5,87.8,-133.0
Q 89.0,-130.6,88.0,-118.8
Q 86.5,-101.5,78.5,-95.0
Q 77.5,-94.1,76.4,-93.3
Q 76.8,-91.1,77.1,-88.8
Q 77.8,-84.4,78.2,-76.0
Q 83.1,-79.5,86.6,-83.2
Q 101.9,-99.4,108.4,-117.3
Q 110.1,-121.8,110.6,-120.7
Q 110.8,-120.1,108.9,-115.3
Q 102.6,-99.7,89.3,-84.4
Q 81.3,-75.3,79.0,-75.5
Q 78.6,-75.5,78.2,-75.5
Q 78.7,-68.0,78.2,-60.8
Q 78.9,-61.2,79.6,-61.5
Q 80.9,-62.2,82.9,-62.8
Q 93.2,-66.2,102.9,-80.5
Q 104.7,-83.1,105.3,-83.1
Q 106.4,-83.1,101.9,-77.1
Q 90.9,-62.7,78.2,-60.4
Q 78.2,-51.2,74.7,-44.0
Q 74.2,-43.1,73.8,-42.2
 " /> 
<path  
style="fill:rgb(97,247,248)" 
d="M 73.1 -113.8
Q 72.8,-112.7,73.4,-113.0
Q 75.1,-113.6,75.1,-120.3
Q 75.1,-124.0,74.5,-124.0
Q 73.8,-124.0,74.1,-121.8
Q 74.4,-118.5,73.1,-113.8
 " /> 
<path  
style="fill:rgb(97,247,248)" 
d="M 65.3 -123.6
Q 65.3,-122.6,65.8,-122.6
Q 66.6,-122.6,66.6,-125.8
Q 66.7,-128.3,65.8,-125.8
Q 65.3,-124.6,65.3,-123.6
 " /> 
<path  
style="fill:rgb(97,247,248)" 
d="M 73.8 -42.2
Q 73.8,-42.0,73.8,-41.7
Q 81.0,-43.1,87.9,-46.9
Q 92.1,-49.3,92.8,-50.4
Q 93.6,-51.8,90.0,-49.5
Q 84.5,-46.0,78.8,-44.2
Q 76.4,-43.5,75.1,-42.8
Q 74.4,-42.5,73.8,-42.2
 " /> 
<path  
style="fill:rgb(97,247,248)" 
d="M 78.2 -60.4
Q 90.9,-62.7,101.9,-77.1
Q 106.4,-83.1,105.3,-83.1
Q 104.7,-83.1,102.9,-80.5
Q 93.2,-66.2,82.9,-62.8
Q 80.9,-62.2,79.6,-61.5
Q 78.9,-61.2,78.2,-60.8
Q 78.2,-60.6,78.2,-60.4
 " /> 
<path  
style="fill:rgb(97,247,248)" 
d="M 78.2 -75.5
Q 78.6,-75.5,79.0,-75.5
Q 81.3,-75.3,89.3,-84.4
Q 102.6,-99.7,108.9,-115.3
Q 110.8,-120.1,110.6,-120.7
Q 110.1,-121.8,108.4,-117.3
Q 101.9,-99.4,86.6,-83.2
Q 83.1,-79.5,78.2,-76.0
Q 78.2,-75.7,78.2,-75.5
 " /> 
<path  
style="fill:rgb(97,247,248)" 
d="M 76.4 -93.3
Q 77.5,-94.1,78.5,-95.0
Q 86.5,-101.5,88.0,-118.8
Q 89.0,-130.6,87.8,-133.0
Q 87.0,-134.5,87.1,-126.1
Q 87.3,-105.9,78.2,-95.7
Q 77.3,-94.7,76.4,-93.7
Q 76.4,-93.5,76.4,-93.3
 " /> 
<path  
style="fill:rgb(14,103,171)" 
d="M 65.8 -120.0
Q 65.5,-120.3,65.3,-120.6
Q 64.9,-121.3,64.2,-121.7
Q 63.9,-122.0,63.6,-122.2
Q 63.8,-121.9,64.0,-121.5
Q 64.5,-120.9,65.8,-120.0
 " /> 
<path  
style="fill:rgb(14,103,171)" 
d="M 61.8 -135.1
Q 62.0,-134.7,62.2,-134.4
Q 62.7,-133.8,63.3,-133.3
Q 63.7,-133.1,64.0,-132.8
Q 63.8,-133.2,63.5,-133.5
Q 63.1,-134.2,61.8,-135.1
 " /> 
<path  
style="fill:rgb(7,193,201)" 
d="M 61.8 -135.1
Q 60.4,-135.5,60.6,-134.7
Q 60.6,-134.7,60.6,-134.7
Q 61.2,-134.9,61.8,-135.1
 " /> 
<path  
style="fill:rgb(14,103,171)" 
d="M 71.6 -137.7
Q 72.5,-136.4,73.8,-135.5
Q 73.5,-135.8,73.3,-136.2
Q 72.9,-136.8,71.6,-137.7
 " /> 
<path  
style="fill:rgb(14,103,171)" 
d="M 81.3 -142.2
Q 81.7,-142.3,81.7,-142.7
Q 81.8,-143.1,81.8,-149.3
Q 81.7,-149.3,81.6,-149.2
Q 81.4,-149.2,81.4,-145.7
Q 81.3,-143.9,81.3,-142.2
 " /> 
<path  
style="fill:rgb(14,103,171)" 
d="M 85.3 -154.2
Q 85.6,-153.9,85.8,-153.5
Q 86.2,-152.9,87.1,-152.2
Q 87.6,-151.9,88.0,-151.5
Q 87.7,-152.0,87.3,-152.4
Q 86.6,-153.3,85.3,-154.2
 " /> 
<path  
style="fill:rgb(14,103,171)" 
d="M 118.2 -140.4
Q 118.2,-138.2,118.2,-136.0
Q 118.7,-138.2,118.2,-140.4
 " /> 
<path  
style="fill:rgb(14,103,171)" 
d="M 108.4 -57.7
Q 109.6,-58.1,110.1,-57.9
Q 110.4,-57.8,110.7,-57.7
Q 110.6,-58.0,110.5,-58.3
Q 110.4,-58.9,109.4,-58.3
Q 108.9,-58.0,108.4,-57.7
 " /> 
<path  
style="fill:rgb(14,103,171)" 
d="M 105.3 -48.8
Q 104.0,-47.9,103.3,-47.1
Q 103.0,-46.6,102.7,-46.2
Q 103.1,-46.5,103.5,-46.9
Q 104.4,-47.5,104.9,-48.2
Q 105.1,-48.5,105.3,-48.8
 " /> 
<path  
style="fill:rgb(4,4,4)" 
d="M -4.1 32.6
Q -3.5,32.5,-3.0,32.5
Q -3.1,32.4,-3.1,31.4
Q -3.1,31.4,-3.1,31.4
Q -3.1,30.8,-3.1,30.3
Q -3.7,30.3,-4.2,30.3
Q -4.2,30.4,-4.2,30.5
Q -4.2,31.6,-4.1,32.6
 " /> 
<path  
style="fill:rgb(4,4,4)" 
d="M -108.4 -124.4
Q -108.4,-122.0,-108.9,-121.7
Q -108.9,-106.1,-104.5,-95.1
Q -98.9,-80.9,-92.3,-70.6
Q -88.8,-65.2,-91.3,-64.6
Q -92.9,-64.2,-99.7,-68.3
Q -109.5,-74.4,-110.5,-73.5
Q -112.2,-72.0,-105.1,-59.5
Q -94.2,-40.3,-68.1,-30.0
Q -59.9,-26.7,-53.9,-26.0
Q -52.9,-25.9,-52.0,-25.8
Q -52.6,-26.6,-53.3,-27.5
Q -54.5,-29.1,-56.1,-31.6
Q -57.6,-34.1,-59.6,-38.2
Q -60.7,-38.3,-61.8,-38.4
Q -70.7,-39.3,-86.0,-50.8
Q -91.7,-55.1,-92.8,-57.4
Q -93.0,-57.8,-92.3,-57.7
Q -91.6,-57.5,-89.9,-55.7
Q -85.7,-51.3,-75.8,-45.3
Q -69.0,-41.2,-60.4,-39.5
Q -64.0,-49.3,-65.6,-54.4
Q -67.1,-59.5,-68.0,-63.3
Q -68.4,-65.2,-68.9,-67.1
Q -74.7,-69.7,-77.9,-72.4
Q -84.4,-77.8,-88.4,-85.3
Q -90.3,-88.9,-90.0,-89.2
Q -89.3,-89.9,-86.7,-85.0
Q -81.5,-75.4,-68.9,-68.0
Q -69.1,-68.7,-69.3,-69.5
Q -69.8,-71.1,-70.0,-74.2
Q -70.1,-75.7,-70.2,-77.3
Q -70.3,-77.3,-70.5,-77.2
Q -70.6,-77.2,-70.7,-77.4
Q -70.7,-77.7,-70.7,-81.7
Q -70.7,-83.9,-70.7,-84.8
Q -71.4,-83.3,-75.2,-87.8
Q -81.1,-94.8,-83.1,-101.1
Q -85.1,-107.1,-84.1,-107.1
Q -83.6,-107.1,-83.2,-105.0
Q -81.9,-99.1,-76.4,-91.4
Q -74.0,-88.0,-70.7,-85.3
Q -70.5,-87.0,-70.4,-88.6
Q -70.2,-92.0,-69.8,-95.7
Q -69.5,-97.6,-69.3,-99.5
Q -70.7,-100.8,-72.0,-102.2
Q -76.9,-107.1,-79.0,-115.5
Q -79.2,-116.5,-78.7,-116.3
Q -78.1,-116.1,-77.1,-113.2
Q -74.6,-105.7,-71.3,-102.6
Q -70.3,-101.7,-69.3,-100.8
Q -69.1,-102.2,-68.9,-103.5
Q -68.5,-106.2,-65.8,-114.2
Q -66.4,-115.4,-67.1,-116.6
Q -69.7,-121.4,-69.1,-125.7
Q -68.6,-129.5,-68.3,-125.4
Q -68.1,-123.3,-67.8,-121.0
Q -67.5,-118.6,-65.3,-115.5
Q -61.8,-122.2,-60.2,-124.5
Q -58.7,-126.8,-59.8,-127.4
Q -62.4,-128.8,-62.3,-132.0
Q -62.3,-132.8,-62.2,-133.7
Q -62.7,-136.0,-62.5,-136.8
Q -62.3,-137.3,-62.2,-137.7
Q -62.2,-139.5,-62.2,-141.3
Q -62.2,-144.2,-61.8,-144.4
Q -61.8,-146.6,-61.8,-148.8
Q -61.8,-149.7,-61.8,-150.5
Q -61.8,-152.2,-61.3,-152.4
Q -61.3,-153.2,-61.3,-154.0
Q -61.3,-155.5,-61.8,-158.2
Q -61.9,-158.4,-62.0,-158.6
Q -62.2,-159.1,-62.7,-159.7
Q -62.9,-160.1,-63.1,-160.4
Q -63.8,-159.7,-64.4,-159.1
Q -68.8,-154.7,-73.2,-129.4
Q -74.2,-123.4,-75.8,-124.3
Q -76.6,-124.7,-76.5,-127.0
Q -76.5,-128.1,-76.4,-129.3
Q -77.0,-129.1,-76.9,-133.0
Q -76.9,-134.9,-76.9,-136.8
Q -77.3,-141.7,-77.8,-142.3
Q -79.3,-144.1,-80.9,-131.2
Q -81.3,-128.0,-82.2,-124.4
Q -83.5,-123.3,-84.0,-124.1
Q -84.2,-124.5,-84.4,-124.8
Q -84.9,-126.4,-85.3,-128.0
Q -86.2,-131.1,-87.1,-137.2
Q -88.1,-144.3,-89.1,-148.4
Q -92.6,-162.4,-95.5,-159.6
Q -99.6,-155.6,-97.6,-141.5
Q -96.9,-137.1,-96.7,-135.3
Q -96.5,-133.5,-95.8,-131.1
Q -95.2,-128.6,-94.5,-126.2
Q -93.9,-123.7,-92.9,-120.6
Q -90.8,-113.8,-90.9,-111.8
Q -90.9,-110.8,-92.0,-108.8
Q -92.3,-108.7,-92.7,-108.6
Q -93.3,-108.3,-94.2,-109.7
Q -94.7,-110.1,-95.1,-110.4
Q -96.8,-111.6,-99.7,-120.5
Q -101.3,-125.3,-103.6,-132.0
Q -104.8,-133.1,-106.2,-132.4
Q -106.6,-131.7,-106.9,-131.1
Q -107.6,-129.8,-108.0,-127.1
Q -108.2,-125.7,-108.4,-124.4
 " /> 
<path  
style="fill:rgb(14,103,171)" 
d="M -108.4 -124.4
Q -108.8,-124.2,-108.9,-121.7
Q -108.4,-122.0,-108.4,-124.4
 " /> 
<path  
style="fill:rgb(14,103,171)" 
d="M -106.2 -132.4
Q -104.8,-133.1,-103.6,-132.0
Q -104.8,-133.6,-106.2,-132.4
 " /> 
<path  
style="fill:rgb(4,4,4)" 
d="M -103.6 -132.0
Q -101.3,-125.3,-99.7,-120.5
Q -96.8,-111.6,-95.1,-110.4
Q -94.7,-110.1,-94.2,-109.7
Q -93.4,-108.7,-92.0,-108.8
Q -90.9,-110.8,-90.9,-111.8
Q -90.8,-113.8,-92.9,-120.6
Q -93.9,-123.7,-94.5,-126.2
Q -95.2,-128.6,-95.8,-131.1
Q -96.5,-133.5,-96.7,-135.3
Q -96.9,-137.1,-97.6,-141.5
Q -99.6,-155.6,-95.5,-159.6
Q -92.6,-162.4,-89.1,-148.4
Q -88.1,-144.3,-87.1,-137.2
Q -86.2,-131.1,-85.3,-128.0
Q -84.9,-126.4,-84.4,-124.8
Q -83.7,-123.7,-83.0,-124.0
Q -82.6,-124.2,-82.2,-124.4
Q -81.3,-128.0,-80.9,-131.2
Q -79.3,-144.1,-77.8,-142.3
Q -77.3,-141.7,-76.9,-136.8
Q -76.6,-137.0,-76.5,-136.8
Q -76.4,-136.6,-76.4,-129.3
Q -76.5,-128.1,-76.5,-127.0
Q -76.6,-124.7,-75.8,-124.3
Q -74.2,-123.4,-73.2,-129.4
Q -68.8,-154.7,-64.4,-159.1
Q -63.8,-159.7,-63.1,-160.4
Q -62.8,-160.2,-62.4,-160.0
Q -61.7,-159.5,-61.7,-158.9
Q -61.8,-158.5,-61.8,-158.2
Q -61.3,-155.5,-61.3,-154.0
Q -61.3,-153.2,-61.3,-152.4
Q -60.6,-152.4,-60.0,-152.4
Q -60.0,-158.7,-60.1,-159.4
Q -61.3,-164.9,-65.4,-161.3
Q -69.8,-157.5,-72.4,-144.4
Q -73.4,-139.7,-74.7,-134.8
Q -74.7,-143.1,-76.9,-145.0
Q -79.6,-147.2,-82.0,-137.9
Q -82.7,-135.1,-83.0,-131.7
Q -83.1,-130.0,-83.2,-128.2
Q -83.9,-130.0,-84.9,-136.4
Q -88.2,-159.1,-93.3,-161.7
Q -97.5,-163.8,-99.5,-155.9
Q -102.6,-144.3,-95.8,-122.6
Q -92.6,-112.6,-93.3,-112.2
Q -94.3,-111.6,-98.4,-123.5
Q -100.6,-129.7,-102.4,-132.6
Q -103.0,-132.3,-103.6,-132.0
 " /> 
<path  
style="fill:rgb(14,103,171)" 
d="M -94.2 -109.7
Q -93.3,-108.3,-92.7,-108.6
Q -92.3,-108.7,-92.0,-108.8
Q -93.4,-108.7,-94.2,-109.7
 " /> 
<path  
style="fill:rgb(14,103,171)" 
d="M -84.4 -124.8
Q -84.2,-124.5,-84.0,-124.1
Q -83.5,-123.3,-82.2,-124.4
Q -82.6,-124.2,-83.0,-124.0
Q -83.7,-123.7,-84.4,-124.8
 " /> 
<path  
style="fill:rgb(14,103,171)" 
d="M -76.9 -136.8
Q -76.9,-134.9,-76.9,-133.0
Q -77.0,-129.1,-76.4,-129.3
Q -76.4,-136.6,-76.5,-136.8
Q -76.6,-137.0,-76.9,-136.8
 " /> 
<path  
style="fill:rgb(14,103,171)" 
d="M -63.1 -160.4
Q -62.9,-160.1,-62.7,-159.7
Q -62.2,-159.1,-62.0,-158.6
Q -61.9,-158.4,-61.8,-158.2
Q -61.8,-158.5,-61.7,-158.9
Q -61.7,-159.5,-62.4,-160.0
Q -62.8,-160.2,-63.1,-160.4
 " /> 
<path  
style="fill:rgb(14,103,171)" 
d="M -61.3 -152.4
Q -61.8,-152.2,-61.8,-150.5
Q -61.8,-149.7,-61.8,-148.8
Q -61.5,-149.0,-61.4,-149.4
Q -61.4,-149.8,-61.3,-152.4
 " /> 
<path  
style="fill:rgb(14,103,171)" 
d="M -61.8 -144.4
Q -62.2,-144.2,-62.2,-141.3
Q -61.8,-141.5,-61.8,-144.4
 " /> 
<path  
style="fill:rgb(14,103,171)" 
d="M -62.2 -137.7
Q -62.3,-137.3,-62.5,-136.8
Q -62.7,-136.0,-62.2,-133.7
Q -62.2,-135.7,-62.2,-137.7
 " /> 
<path  
style="fill:rgb(97,247,248)" 
d="M -65.3 -115.5
Q -67.5,-118.6,-67.8,-121.0
Q -68.1,-123.3,-68.3,-125.4
Q -68.6,-129.5,-69.1,-125.7
Q -69.7,-121.4,-67.1,-116.6
Q -66.4,-115.4,-65.8,-114.2
Q -65.4,-114.3,-65.3,-115.5
 " /> 
<path  
style="fill:rgb(97,247,248)" 
d="M -69.3 -100.8
Q -70.3,-101.7,-71.3,-102.6
Q -74.6,-105.7,-77.1,-113.2
Q -78.1,-116.1,-78.7,-116.3
Q -79.2,-116.5,-79.0,-115.5
Q -76.9,-107.1,-72.0,-102.2
Q -70.7,-100.8,-69.3,-99.5
Q -69.3,-100.2,-69.3,-100.8
 " /> 
<path  
style="fill:rgb(97,247,248)" 
d="M -70.7 -85.3
Q -74.0,-88.0,-76.4,-91.4
Q -81.9,-99.1,-83.2,-105.0
Q -83.6,-107.1,-84.1,-107.1
Q -85.1,-107.1,-83.1,-101.1
Q -81.1,-94.8,-75.2,-87.8
Q -71.4,-83.3,-70.7,-84.8
Q -70.7,-85.1,-70.7,-85.3
 " /> 
<path  
style="fill:rgb(14,103,171)" 
d="M -70.7 -81.7
Q -70.7,-77.7,-70.7,-77.4
Q -70.6,-77.2,-70.5,-77.2
Q -70.3,-77.3,-70.2,-77.3
Q -70.2,-81.9,-70.4,-81.8
Q -70.6,-81.8,-70.7,-81.7
 " /> 
<path  
style="fill:rgb(97,247,248)" 
d="M -68.9 -68.0
Q -81.5,-75.4,-86.7,-85.0
Q -89.3,-89.9,-90.0,-89.2
Q -90.3,-88.9,-88.4,-85.3
Q -84.4,-77.8,-77.9,-72.4
Q -74.7,-69.7,-68.9,-67.1
Q -68.9,-67.5,-68.9,-68.0
 " /> 
<path  
style="fill:rgb(97,247,248)" 
d="M -60.4 -39.5
Q -69.0,-41.2,-75.8,-45.3
Q -85.7,-51.3,-89.9,-55.7
Q -91.6,-57.5,-92.3,-57.7
Q -93.0,-57.8,-92.8,-57.4
Q -91.7,-55.1,-86.0,-50.8
Q -70.7,-39.3,-61.8,-38.4
Q -60.7,-38.3,-59.6,-38.2
Q -60.0,-38.8,-60.4,-39.5
 " /> 
<path  
style="fill:rgb(14,103,171)" 
d="M -14.2 -153.7
Q -13.8,-153.2,-13.3,-152.6
Q -12.4,-151.5,-11.3,-150.6
Q -10.8,-150.2,-10.2,-149.7
Q -10.7,-150.3,-11.1,-150.8
Q -12.0,-151.9,-13.1,-152.8
Q -13.7,-153.3,-14.2,-153.7
 " /> 
<path  
style="fill:rgb(7,193,201)" 
d="M -14.2 -153.7
Q -13.7,-153.3,-13.1,-152.8
Q -12.0,-151.9,-11.1,-150.8
Q -10.7,-150.3,-10.2,-149.7
Q -9.4,-148.7,-8.7,-147.7
Q -7.1,-145.7,-5.7,-143.5
Q -4.4,-141.3,-2.1,-141.3
Q 0.2,-141.3,2.4,-141.1
Q 4.7,-140.8,6.5,-143.6
Q 10.3,-149.4,15.8,-153.3
Q 18.9,-155.6,20.6,-160.1
Q 24.9,-171.1,26.7,-180.4
Q 26.6,-181.1,26.6,-181.8
Q 26.6,-181.8,26.6,-181.8
Q 26.0,-182.0,25.3,-182.2
Q 24.9,-181.4,24.4,-180.6
Q 21.6,-175.7,18.4,-167.3
Q 16.6,-163.0,16.1,-162.8
Q 14.3,-162.1,16.0,-166.1
Q 18.8,-173.2,18.2,-175.1
Q 17.1,-179.1,13.6,-179.1
Q 12.1,-179.1,11.9,-177.8
Q 11.6,-176.6,10.2,-171.6
Q 8.8,-166.6,8.1,-166.8
Q 6.9,-167.1,8.2,-171.5
Q 10.1,-177.9,9.4,-178.1
Q 9.0,-178.2,8.9,-178.6
Q 8.2,-178.4,7.6,-178.2
Q 7.7,-176.8,7.2,-176.4
Q 6.9,-176.2,6.7,-176.0
Q 5.7,-176.3,5.6,-176.7
Q 5.5,-177.1,6.0,-179.4
Q 7.7,-186.6,4.4,-193.7
Q 3.1,-194.6,2.2,-196.0
Q 1.6,-196.1,1.5,-195.8
Q 1.4,-195.5,1.4,-194.5
Q 1.4,-193.7,1.3,-192.8
Q 1.5,-192.9,1.6,-192.9
Q 1.7,-193.0,1.8,-192.7
Q 1.8,-192.5,1.8,-190.6
Q 1.9,-188.2,2.0,-185.7
Q 2.2,-180.8,2.4,-178.1
Q 2.8,-173.0,1.3,-174.5
Q 0.7,-175.0,0.6,-178.4
Q 0.5,-181.7,0.2,-186.2
Q 0.1,-188.4,0.0,-190.6
Q -0.5,-190.5,-0.5,-191.7
Q -0.5,-191.7,-0.5,-191.7
Q -0.5,-192.3,-0.4,-192.8
Q -1.8,-202.6,-2.4,-205.5
Q -3.1,-208.4,-3.6,-212.0
Q -3.9,-212.3,-4.2,-212.7
Q -4.8,-213.3,-6.2,-214.2
Q -6.6,-213.3,-6.9,-212.4
Q -7.3,-211.5,-7.4,-209.9
Q -7.6,-208.2,-7.6,-199.5
Q -7.0,-198.2,-7.6,-197.3
Q -7.4,-197.1,-7.3,-196.8
Q -7.1,-196.4,-7.1,-194.2
Q -7.1,-193.1,-7.1,-192.0
Q -6.6,-192.1,-6.6,-190.9
Q -6.6,-190.9,-6.6,-190.9
Q -6.6,-190.3,-6.7,-189.7
Q -6.7,-188.8,-6.7,-188.0
Q -6.3,-188.1,-6.2,-187.8
Q -6.2,-187.6,-6.2,-185.7
Q -6.2,-184.8,-6.2,-184.0
Q -5.7,-184.1,-5.7,-182.5
Q -5.7,-182.5,-5.7,-182.5
Q -5.8,-181.7,-5.8,-180.8
Q -5.8,-180.2,-5.8,-179.5
Q -5.6,-179.6,-5.5,-179.6
Q -5.4,-179.6,-5.3,-179.4
Q -5.3,-179.1,-5.3,-177.3
Q -6.2,-176.4,-6.7,-176.6
Q -7.1,-176.9,-7.1,-177.5
Q -7.1,-177.8,-7.1,-178.2
Q -7.2,-178.1,-7.4,-178.1
Q -7.6,-178.0,-7.6,-179.4
Q -7.6,-179.4,-7.6,-179.4
Q -7.6,-180.1,-7.6,-180.8
Q -7.6,-181.7,-7.6,-182.6
Q -7.7,-182.6,-7.8,-182.5
Q -8.1,-182.5,-8.0,-184.8
Q -8.1,-185.3,-8.2,-185.7
Q -8.4,-186.6,-8.4,-188.4
Q -8.4,-189.3,-8.4,-190.2
Q -8.6,-190.1,-8.7,-190.1
Q -9.0,-190.0,-8.9,-191.2
Q -8.9,-191.2,-8.9,-191.2
Q -8.9,-191.8,-8.9,-192.4
Q -8.9,-195.5,-9.4,-195.5
Q -11.7,-195.5,-11.7,-189.4
Q -11.7,-185.7,-11.2,-184.7
Q -10.8,-183.7,-10.0,-181.3
Q -8.2,-175.5,-9.4,-175.5
Q -10.1,-175.5,-11.5,-180.1
Q -14.4,-189.2,-17.4,-195.3
Q -16.8,-190.0,-16.4,-188.4
Q -16.1,-186.8,-15.6,-184.6
Q -15.0,-181.8,-11.0,-166.3
Q -10.5,-164.4,-11.0,-163.9
Q -12.5,-162.4,-16.5,-180.3
Q -17.2,-183.5,-20.0,-181.4
Q -22.8,-179.2,-21.4,-177.4
Q -20.8,-176.7,-19.6,-174.4
Q -18.3,-172.1,-15.1,-167.1
Q -10.6,-160.0,-11.9,-160.0
Q -12.8,-160.0,-17.2,-166.8
Q -19.2,-169.9,-20.8,-172.2
Q -22.3,-174.4,-23.3,-176.4
Q -24.3,-178.4,-25.4,-180.2
Q -26.5,-182.0,-27.7,-184.2
Q -28.8,-186.5,-30.7,-189.3
Q -31.0,-189.4,-31.3,-189.6
Q -31.9,-189.8,-32.0,-188.0
Q -31.8,-186.2,-31.6,-184.4
Q -29.8,-170.0,-25.4,-161.8
Q -24.0,-159.1,-19.6,-157.3
Q -17.7,-156.5,-15.9,-155.1
Q -15.1,-154.4,-14.2,-153.7
 " /> 
<path  
style="fill:rgb(14,103,171)" 
d="M -32.0 -188.0
Q -31.9,-189.8,-31.3,-189.6
Q -31.0,-189.4,-30.7,-189.3
Q -31.0,-189.6,-31.3,-190.0
Q -32.0,-190.6,-32.3,-189.8
Q -32.7,-188.9,-32.3,-188.4
Q -32.2,-188.2,-32.0,-188.0
 " /> 
<path  
style="fill:rgb(14,103,171)" 
d="M -8.9 -192.4
Q -8.9,-191.8,-8.9,-191.2
Q -8.7,-190.7,-8.4,-190.2
Q -8.4,-191.4,-8.5,-191.9
Q -8.5,-192.3,-8.5,-192.3
Q -8.6,-192.6,-8.9,-192.4
 " /> 
<path  
style="fill:rgb(4,4,4)" 
d="M -8.4 -190.2
Q -7.8,-190.2,-7.1,-190.2
Q -7.1,-190.8,-7.1,-192.0
Q -7.8,-191.9,-8.5,-191.9
Q -8.4,-191.4,-8.4,-190.2
 " /> 
<path  
style="fill:rgb(4,4,4)" 
d="M -8.4 -190.2
Q -8.4,-189.3,-8.4,-188.4
Q -8.4,-186.6,-8.2,-185.7
Q -8.1,-185.3,-8.0,-184.8
Q -7.3,-185.3,-6.6,-185.7
Q -6.6,-185.8,-6.6,-185.8
Q -6.7,-186.0,-6.7,-188.0
Q -6.7,-188.8,-6.7,-189.7
Q -7.0,-189.6,-7.1,-189.8
Q -7.1,-189.9,-7.1,-190.2
Q -7.8,-190.2,-8.4,-190.2
 " /> 
<path  
style="fill:rgb(14,103,171)" 
d="M -8.4 -190.2
Q -8.7,-190.7,-8.9,-191.2
Q -8.9,-191.2,-8.9,-191.2
Q -9.0,-190.0,-8.7,-190.1
Q -8.6,-190.1,-8.4,-190.2
 " /> 
<path  
style="fill:rgb(4,4,4)" 
d="M -8.0 -184.8
Q -7.6,-185.1,-7.6,-183.9
Q -6.9,-183.9,-6.2,-184.0
Q -6.2,-184.8,-6.2,-185.7
Q -6.5,-185.6,-6.6,-185.7
Q -7.3,-185.3,-8.0,-184.8
 " /> 
<path  
style="fill:rgb(14,103,171)" 
d="M -8.0 -184.8
Q -8.1,-182.5,-7.8,-182.5
Q -7.7,-182.6,-7.6,-182.6
Q -7.6,-183.2,-7.6,-183.8
Q -7.6,-183.9,-7.6,-183.9
Q -7.6,-185.1,-8.0,-184.8
 " /> 
<path  
style="fill:rgb(4,4,4)" 
d="M -7.6 -182.6
Q -6.9,-182.6,-6.2,-182.6
Q -6.2,-183.3,-6.2,-184.0
Q -6.9,-183.9,-7.6,-183.9
Q -7.6,-183.9,-7.6,-183.8
Q -7.6,-183.2,-7.6,-182.6
 " /> 
<path  
style="fill:rgb(4,4,4)" 
d="M -7.6 -182.6
Q -7.6,-181.7,-7.6,-180.8
Q -7.4,-180.9,-7.3,-180.9
Q -6.7,-181.1,-6.1,-181.2
Q -6.2,-181.6,-6.2,-182.3
Q -6.2,-182.5,-6.2,-182.6
Q -6.9,-182.6,-7.6,-182.6
 " /> 
<path  
style="fill:rgb(14,103,171)" 
d="M -7.6 -180.8
Q -7.6,-180.1,-7.6,-179.4
Q -7.3,-178.8,-7.1,-178.2
Q -7.1,-179.0,-7.1,-179.5
Q -7.1,-180.5,-7.2,-180.7
Q -7.2,-180.8,-7.2,-180.8
Q -7.2,-180.9,-7.3,-180.9
Q -7.4,-180.9,-7.6,-180.8
 " /> 
<path  
style="fill:rgb(4,4,4)" 
d="M -7.1 -178.2
Q -6.4,-178.2,-5.8,-178.2
Q -5.8,-178.7,-5.8,-179.5
Q -6.4,-179.5,-7.1,-179.5
Q -7.1,-179.0,-7.1,-178.2
 " /> 
<path  
style="fill:rgb(4,4,4)" 
d="M -7.1 -178.2
Q -7.1,-177.8,-7.1,-177.5
Q -7.1,-176.9,-6.7,-176.6
Q -6.2,-176.4,-5.3,-177.3
Q -5.7,-177.1,-5.7,-177.4
Q -5.8,-177.5,-5.8,-178.2
Q -6.4,-178.2,-7.1,-178.2
 " /> 
<path  
style="fill:rgb(14,103,171)" 
d="M -7.1 -178.2
Q -7.3,-178.8,-7.6,-179.4
Q -7.6,-179.4,-7.6,-179.4
Q -7.6,-178.0,-7.4,-178.1
Q -7.2,-178.1,-7.1,-178.2
 " /> 
<path  
style="fill:rgb(14,103,171)" 
d="M -5.3 -177.3
Q -5.3,-179.1,-5.3,-179.4
Q -5.4,-179.6,-5.5,-179.6
Q -5.6,-179.6,-5.8,-179.5
Q -5.8,-178.7,-5.8,-178.2
Q -5.8,-177.5,-5.7,-177.4
Q -5.7,-177.1,-5.3,-177.3
 " /> 
<path  
style="fill:rgb(4,4,4)" 
d="M -5.8 -179.5
Q -5.8,-180.2,-5.8,-180.8
Q -5.9,-180.8,-5.9,-180.8
Q -6.5,-180.8,-7.2,-180.7
Q -7.1,-180.4,-7.1,-179.4
Q -6.4,-179.5,-5.8,-179.5
 " /> 
<path  
style="fill:rgb(14,103,171)" 
d="M -5.8 -180.8
Q -5.8,-181.7,-5.7,-182.5
Q -6.0,-183.2,-6.2,-184.0
Q -6.2,-183.3,-6.2,-182.6
Q -6.2,-182.5,-6.2,-182.3
Q -6.2,-181.6,-6.1,-181.2
Q -6.0,-180.8,-5.9,-180.8
Q -5.8,-180.8,-5.8,-180.8
 " /> 
<path  
style="fill:rgb(14,103,171)" 
d="M -6.2 -184.0
Q -6.0,-183.2,-5.7,-182.5
Q -5.7,-182.5,-5.7,-182.5
Q -5.7,-184.1,-6.2,-184.0
 " /> 
<path  
style="fill:rgb(14,103,171)" 
d="M -6.2 -185.7
Q -6.2,-187.6,-6.2,-187.8
Q -6.3,-188.1,-6.7,-188.0
Q -6.7,-186.0,-6.6,-185.8
Q -6.6,-185.8,-6.6,-185.7
Q -6.5,-185.6,-6.2,-185.7
 " /> 
<path  
style="fill:rgb(14,103,171)" 
d="M -6.7 -189.7
Q -6.6,-190.3,-6.6,-190.9
Q -6.9,-191.4,-7.1,-192.0
Q -7.1,-190.8,-7.1,-190.2
Q -7.1,-189.9,-7.1,-189.8
Q -7.0,-189.6,-6.7,-189.7
 " /> 
<path  
style="fill:rgb(14,103,171)" 
d="M -7.1 -192.0
Q -6.9,-191.4,-6.6,-190.9
Q -6.6,-190.9,-6.6,-190.9
Q -6.6,-192.1,-7.1,-192.0
 " /> 
<path  
style="fill:rgb(14,103,171)" 
d="M -7.6 -197.3
Q -7.0,-198.2,-7.6,-199.5
Q -7.6,-198.4,-7.6,-197.3
 " /> 
<path  
style="fill:rgb(14,103,171)" 
d="M -6.2 -214.2
Q -4.8,-213.3,-4.2,-212.7
Q -3.9,-212.3,-3.6,-212.0
Q -4.0,-212.7,-4.4,-213.4
Q -5.2,-214.8,-6.2,-214.2
 " /> 
<path  
style="fill:rgb(4,4,4)" 
d="M -3.6 -212.0
Q -3.1,-208.4,-2.4,-205.5
Q -1.8,-202.6,-0.4,-192.8
Q -0.1,-193.0,-0.1,-192.8
Q -0.0,-192.8,-0.0,-192.7
Q 0.6,-192.8,1.3,-192.8
Q 1.4,-193.7,1.4,-194.5
Q 1.4,-195.5,1.5,-195.8
Q 1.6,-196.1,2.2,-196.0
Q 3.5,-195.1,4.0,-194.4
Q 4.2,-194.1,4.4,-193.7
Q 5.1,-194.2,5.8,-194.7
Q 4.1,-197.1,2.1,-197.9
Q 0.9,-198.4,0.6,-200.4
Q 0.4,-202.4,-0.3,-205.3
Q -0.9,-208.2,-1.4,-210.5
Q -1.7,-211.6,-2.0,-212.5
Q -2.8,-212.3,-3.6,-212.0
 " /> 
<path  
style="fill:rgb(14,103,171)" 
d="M -0.4 -192.8
Q -0.5,-192.3,-0.5,-191.7
Q -0.2,-191.1,0.0,-190.6
Q 0.0,-192.3,-0.0,-192.7
Q -0.0,-192.8,-0.1,-192.8
Q -0.1,-193.0,-0.4,-192.8
 " /> 
<path  
style="fill:rgb(4,4,4)" 
d="M 0.0 -190.6
Q 0.7,-190.7,1.4,-190.8
Q 1.3,-191.2,1.3,-192.8
Q 0.6,-192.8,-0.0,-192.7
Q 0.0,-192.3,0.0,-190.6
 " /> 
<path  
style="fill:rgb(4,4,4)" 
d="M 0.0 -190.6
Q 0.1,-188.4,0.2,-186.2
Q 0.5,-181.7,0.6,-178.4
Q 0.7,-175.0,1.3,-174.5
Q 2.8,-173.0,2.4,-178.1
Q 2.2,-180.8,2.0,-185.7
Q 1.9,-188.2,1.8,-190.6
Q 1.4,-190.5,1.4,-190.7
Q 1.4,-190.7,1.4,-190.8
Q 0.7,-190.7,0.0,-190.6
 " /> 
<path  
style="fill:rgb(14,103,171)" 
d="M 0.0 -190.6
Q -0.2,-191.1,-0.5,-191.7
Q -0.5,-191.7,-0.5,-191.7
Q -0.5,-190.5,0.0,-190.6
 " /> 
<path  
style="fill:rgb(14,103,171)" 
d="M 1.8 -190.6
Q 1.8,-192.5,1.8,-192.7
Q 1.7,-193.0,1.6,-192.9
Q 1.5,-192.9,1.3,-192.8
Q 1.3,-191.2,1.4,-190.8
Q 1.4,-190.7,1.4,-190.7
Q 1.4,-190.5,1.8,-190.6
 " /> 
<path  
style="fill:rgb(14,103,171)" 
d="M 2.2 -196.0
Q 3.1,-194.6,4.4,-193.7
Q 4.2,-194.1,4.0,-194.4
Q 3.5,-195.1,2.2,-196.0
 " /> 
<path  
style="fill:rgb(14,103,171)" 
d="M 6.7 -176.0
Q 6.9,-176.2,7.2,-176.4
Q 7.7,-176.8,7.6,-178.2
Q 7.4,-178.0,7.3,-177.7
Q 7.1,-177.3,6.9,-176.6
Q 6.8,-176.3,6.7,-176.0
 " /> 
<path  
style="fill:rgb(7,193,201)" 
d="M 7.6 -178.2
Q 8.2,-178.4,8.9,-178.6
Q 8.9,-178.8,8.9,-179.1
Q 8.9,-179.9,9.7,-180.2
Q 10.6,-180.4,11.1,-183.2
Q 13.3,-195.3,12.1,-195.3
Q 11.6,-195.3,10.3,-189.7
Q 9.5,-185.9,7.6,-178.2
 " /> 
<path  
style="fill:rgb(14,103,171)" 
d="M 25.3 -182.2
Q 26.2,-182.9,26.4,-182.7
Q 26.5,-182.6,26.6,-181.8
Q 26.7,-181.8,26.9,-181.7
Q 26.9,-181.7,26.9,-181.7
Q 27.1,-183.1,26.9,-183.3
Q 26.7,-183.5,25.3,-182.2
 " /> 
<path  
style="fill:rgb(7,193,201)" 
d="M 25.3 -182.2
Q 26.0,-182.0,26.6,-181.8
Q 26.5,-182.6,26.4,-182.7
Q 26.2,-182.9,25.3,-182.2
 " /> 
<path  
style="fill:rgb(14,103,171)" 
d="M 26.7 -180.4
Q 26.8,-181.1,26.9,-181.7
Q 26.7,-181.8,26.6,-181.8
Q 26.6,-181.8,26.6,-181.8
Q 26.6,-181.1,26.7,-180.4
 " /> 
<path  
style="fill:rgb(4,4,4)" 
d="M -6.1 -181.2
Q -6.7,-181.1,-7.3,-180.9
Q -7.2,-180.9,-7.2,-180.8
Q -7.2,-180.8,-7.2,-180.7
Q -6.5,-180.8,-5.9,-180.8
Q -6.1,-180.9,-6.2,-181.3
 " /> 
</g> 
</svg> 
