<?xml version="1.0"?>
<!DOCTYPE svg PUBLIC "-//W3C//DTD SVG 1.1//EN" "http://www.w3.org/Graphics/SVG/1.1/DTD/svg11.dtd">
<svg xmlns="http://www.w3.org/2000/svg" version="1.1">
<g transform="translate(113.5,210.8)" stroke-width="0" fill="none" >
<path  
style="fill:rgb(4,4,4)" 
d="M -45.8 221.2
Q -44.4,221.9,-39.8,220.9
Q -38.0,220.6,-36.0,220.5
Q -34.0,220.5,-31.3,220.0
Q -28.7,219.6,-26.4,219.4
Q -16.6,218.4,-5.1,215.4
Q 15.6,209.9,27.3,202.2
Q 28.6,201.3,30.9,199.8
Q 44.8,191.0,47.5,174.5
Q 49.2,164.3,41.1,140.5
Q 34.4,120.9,33.5,112.3
Q 33.3,109.9,32.4,105.8
Q 31.5,101.6,31.2,98.3
Q 31.1,96.9,31.0,95.5
Q 30.2,95.5,29.3,95.6
Q 29.3,96.9,29.3,98.3
Q 29.8,99.2,29.6,99.8
Q 29.5,100.2,29.3,100.5
Q 29.5,100.7,29.6,100.9
Q 29.9,101.3,29.8,103.2
Q 29.9,104.8,30.1,106.5
Q 31.6,120.8,39.3,143.6
Q 46.2,164.2,44.9,173.5
Q 41.3,199.1,-2.0,212.1
Q 4.2,207.4,7.9,202.5
Q 15.9,191.8,19.5,169.4
Q 21.8,155.0,21.0,154.2
Q 20.3,153.5,18.9,162.5
Q 16.6,177.5,14.4,184.5
Q 7.7,206.0,-7.7,213.1
Q -13.5,215.8,-27.1,217.1
Q -33.8,217.8,-39.5,218.6
Q -40.1,218.7,-40.8,218.8
Q -44.0,219.3,-44.3,219.0
Q -44.5,218.8,-42.6,216.2
Q -37.8,209.4,-36.5,201.3
Q -36.0,198.3,-33.0,195.2
Q -27.6,189.8,-20.2,173.2
Q -15.2,161.8,-11.2,155.0
Q -9.7,152.3,-8.9,150.9
Q -8.0,149.4,-6.2,146.7
Q -4.3,144.0,-4.7,143.6
Q -5.5,142.8,-8.5,147.6
Q -17.0,160.8,-23.2,175.1
Q -30.7,192.3,-35.4,195.5
Q -35.9,195.9,-36.2,188.9
Q -36.4,182.5,-36.6,179.7
Q -36.9,176.9,-37.3,169.8
Q -37.3,168.5,-37.3,167.2
Q -37.4,164.2,-37.5,161.2
Q -38.2,138.8,-32.1,125.8
Q -28.7,118.5,-21.1,110.3
Q -16.5,105.3,-14.0,99.2
Q -13.5,98.0,-13.0,96.9
Q -13.0,96.7,-12.9,96.5
Q -12.6,95.4,-12.3,94.3
Q -11.6,92.0,-9.4,87.9
Q -2.2,74.5,0.5,62.6
Q 0.1,62.5,-0.2,62.4
Q -0.1,62.6,-0.1,62.9
Q 0.1,63.8,-0.6,63.5
Q -1.3,63.2,-2.0,65.7
Q -5.5,78.0,-8.9,82.3
Q -10.3,84.1,-10.8,85.5
Q -11.6,88.4,-13.6,89.7
Q -14.5,90.4,-14.1,74.1
Q -14.0,69.3,-14.6,69.5
Q -16.3,69.9,-15.8,85.5
Q -15.6,92.5,-17.7,94.5
Q -22.2,99.0,-26.2,98.5
Q -27.1,98.4,-28.0,98.3
Q -28.2,98.3,-28.4,98.3
Q -40.2,89.0,-35.5,79.5
Q -33.6,75.4,-26.2,67.5
Q -22.8,63.8,-24.6,63.8
Q -25.2,63.8,-31.6,71.2
Q -34.4,74.4,-37.5,79.7
Q -37.9,74.8,-36.5,69.8
Q -34.3,62.2,-28.0,54.3
Q -27.8,53.8,-27.6,53.8
Q -24.0,49.4,-22.0,45.7
Q -16.6,35.5,-15.8,24.0
Q -15.3,17.9,-12.4,9.8
Q -11.1,6.1,-10.7,5.7
Q -10.4,5.4,-5.0,5.8
Q 0.4,6.3,5.8,6.0
Q 8.4,5.9,11.1,5.8
Q 12.0,5.3,12.7,5.6
Q 13.0,5.7,13.3,5.8
Q 15.9,5.3,18.4,4.7
Q 22.6,3.8,23.4,4.0
Q 27.3,5.2,31.3,16.9
Q 34.4,25.8,43.4,41.8
Q 46.3,46.9,47.8,50.4
Q 49.3,53.8,51.1,59.6
Q 51.6,59.5,51.6,60.9
Q 52.9,65.4,53.1,67.8
Q 53.2,69.0,53.3,70.3
Q 53.3,71.6,53.3,72.9
Q 53.4,74.4,53.5,75.8
Q 53.6,78.6,53.2,82.7
Q 53.0,84.8,52.7,86.9
Q 52.1,85.1,51.1,80.9
Q 47.4,64.5,45.7,66.2
Q 45.2,66.7,46.6,71.0
Q 51.5,86.8,51.6,89.6
Q 51.7,92.5,48.2,95.4
Q 44.8,98.2,41.4,97.5
Q 37.5,96.8,37.1,77.8
Q 36.8,68.8,36.0,69.7
Q 35.5,70.1,35.8,76.7
Q 36.2,88.3,37.5,93.0
Q 38.6,96.7,38.5,96.8
Q 38.3,97.0,36.1,95.8
Q 33.8,94.7,32.4,92.9
Q 31.8,92.0,31.1,91.2
Q 30.9,90.5,30.7,89.8
Q 30.2,89.0,29.8,88.3
Q 27.7,84.6,26.7,78.2
Q 26.2,75.2,25.3,68.5
Q 24.5,68.5,23.7,68.6
Q 23.7,69.2,23.8,69.8
Q 24.6,82.1,27.8,89.2
Q 28.3,90.4,28.9,91.6
Q 29.2,91.5,29.3,91.8
Q 29.3,92.1,29.3,95.6
Q 30.2,95.5,31.0,95.5
Q 31.0,95.3,31.0,95.1
Q 35.2,98.3,37.7,99.0
Q 51.1,102.8,54.9,87.2
Q 56.0,82.6,55.3,69.4
Q 54.7,56.2,43.8,37.6
Q 38.5,28.5,34.4,18.7
Q 29.5,6.6,26.8,4.3
Q 24.6,2.4,28.4,2.8
Q 29.9,3.0,30.5,5.4
Q 34.3,19.6,38.8,14.3
Q 42.1,10.3,41.7,1.2
Q 41.4,-3.9,45.8,-6.1
Q 46.3,-6.3,46.9,-2.4
Q 48.4,7.9,52.8,5.9
Q 57.8,3.6,58.5,-9.5
Q 59.0,-18.4,68.4,-21.1
Q 77.4,-23.6,85.8,-27.0
Q 104.9,-35.0,111.8,-44.4
Q 116.1,-50.2,110.8,-50.2
Q 109.0,-50.3,106.9,-49.3
Q 104.7,-48.3,100.4,-46.6
Q 101.9,-49.2,104.7,-52.3
Q 108.1,-56.1,111.0,-59.9
Q 110.4,-60.3,109.8,-60.8
Q 109.5,-60.5,109.3,-60.2
Q 108.9,-59.5,108.2,-59.1
Q 107.9,-58.8,107.6,-58.6
Q 107.4,-58.4,107.3,-58.2
Q 107.1,-57.8,106.6,-57.3
Q 106.4,-57.1,106.2,-56.8
Q 106.0,-56.5,105.8,-56.2
Q 105.3,-55.5,104.7,-55.1
Q 104.3,-54.8,104.0,-54.6
Q 101.7,-51.6,100.7,-50.3
Q 98.5,-47.5,98.8,-46.0
Q 99.3,-44.0,103.6,-45.9
Q 110.4,-48.9,110.9,-48.2
Q 111.1,-48.0,109.8,-44.8
Q 109.5,-44.5,109.3,-44.2
Q 108.9,-43.5,108.0,-42.8
Q 107.5,-42.5,107.1,-42.2
Q 94.3,-32.4,80.1,-26.9
Q 66.2,-21.6,66.5,-23.0
Q 66.6,-23.3,68.0,-25.6
Q 69.8,-28.4,73.3,-35.5
Q 73.3,-36.4,73.6,-36.6
Q 73.7,-36.7,73.8,-36.8
Q 77.4,-45.7,78.2,-49.7
Q 78.7,-51.7,79.1,-53.7
Q 79.1,-54.4,79.1,-55.1
Q 79.2,-55.2,79.2,-55.3
Q 79.3,-55.5,79.4,-57.5
Q 79.5,-58.5,79.6,-59.5
Q 79.6,-60.4,79.6,-61.2
Q 79.6,-62.9,79.8,-63.0
Q 79.9,-63.0,80.0,-63.1
Q 80.0,-65.7,80.0,-68.4
Q 80.0,-68.8,80.0,-69.3
Q 80.0,-70.7,80.0,-72.2
Q 80.0,-75.1,79.6,-79.1
Q 79.2,-79.0,79.2,-79.2
Q 79.1,-79.5,79.1,-81.7
Q 79.1,-85.3,78.7,-86.6
Q 78.7,-86.8,78.7,-87.1
Q 75.6,-103.2,70.0,-111.6
Q 68.0,-114.6,63.6,-119.1
Q 62.2,-120.0,61.8,-120.6
Q 61.6,-121.0,61.3,-121.3
Q 59.5,-123.7,60.3,-123.6
Q 61.1,-123.5,62.3,-124.2
Q 64.7,-125.5,63.6,-128.7
Q 63.6,-128.7,63.6,-128.7
Q 63.3,-129.7,63.4,-129.9
Q 63.4,-130.1,64.4,-129.7
Q 65.8,-128.8,66.2,-128.2
Q 66.4,-127.8,66.7,-127.5
Q 67.2,-127.1,67.8,-126.7
Q 73.0,-122.9,74.0,-125.0
Q 75.2,-127.7,73.8,-132.1
Q 73.2,-134.1,73.8,-133.5
Q 74.0,-133.3,75.4,-131.5
Q 77.1,-129.2,78.8,-128.3
Q 84.1,-125.6,85.1,-133.7
Q 85.2,-134.6,85.3,-135.5
Q 85.3,-136.1,85.4,-136.8
Q 85.4,-138.0,85.6,-138.1
Q 85.7,-138.1,85.8,-138.2
Q 85.8,-139.3,85.8,-140.4
Q 85.8,-140.9,85.8,-141.4
Q 85.8,-142.5,86.0,-142.6
Q 86.1,-142.6,86.2,-142.6
Q 86.3,-143.1,86.5,-143.6
Q 87.9,-149.1,89.9,-147.5
Q 94.6,-143.7,99.3,-124.8
Q 102.0,-114.0,105.1,-115.2
Q 106.3,-115.7,109.6,-123.6
Q 110.7,-126.2,112.0,-130.2
Q 112.1,-130.5,112.2,-130.8
Q 112.5,-131.5,112.9,-131.9
Q 113.1,-132.2,113.3,-132.4
Q 118.8,-142.0,120.7,-138.6
Q 125.7,-129.9,117.1,-106.4
Q 110.5,-88.4,111.1,-87.1
Q 111.9,-85.3,113.9,-87.8
Q 114.8,-89.0,117.3,-92.4
Q 123.6,-100.8,125.1,-99.7
Q 125.4,-99.5,125.6,-97.9
Q 126.4,-92.2,121.4,-80.7
Q 117.7,-72.3,109.8,-60.8
Q 110.4,-60.3,111.0,-59.9
Q 125.0,-77.7,127.4,-93.1
Q 128.1,-97.5,127.6,-99.3
Q 125.6,-106.6,116.7,-94.7
Q 114.5,-91.9,114.4,-92.1
Q 114.2,-92.3,115.3,-95.1
Q 130.0,-132.7,121.4,-141.3
Q 116.6,-146.1,109.6,-129.3
Q 104.7,-117.7,104.0,-117.7
Q 103.4,-117.7,101.6,-125.3
Q 100.9,-128.2,100.1,-131.1
Q 99.2,-134.0,98.3,-136.9
Q 94.8,-148.3,89.6,-149.8
Q 84.6,-151.3,83.2,-136.6
Q 82.5,-129.9,80.7,-130.0
Q 78.9,-130.2,75.2,-135.2
Q 73.7,-137.3,72.9,-137.3
Q 70.1,-137.3,71.3,-132.3
Q 72.0,-129.5,72.0,-126.5
Q 71.4,-127.0,70.7,-127.4
Q 69.4,-128.2,66.7,-130.6
Q 62.5,-134.2,61.0,-132.7
Q 60.3,-132.0,60.8,-130.3
Q 62.1,-126.3,60.2,-125.8
Q 54.3,-124.1,52.7,-128.8
Q 52.1,-130.9,50.9,-133.2
Q 42.5,-150.2,26.0,-150.3
Q 23.7,-150.3,21.5,-150.3
Q 22.6,-152.6,23.7,-155.3
Q 32.6,-176.5,28.7,-178.8
Q 26.0,-180.3,22.6,-173.4
Q 20.8,-169.6,19.8,-171.4
Q 18.2,-174.6,14.9,-174.6
Q 13.4,-174.6,14.8,-180.0
Q 16.7,-186.7,16.1,-189.9
Q 15.4,-193.9,13.0,-191.4
Q 10.7,-188.9,9.9,-184.9
Q 9.8,-184.1,9.6,-183.4
Q 9.2,-184.5,8.8,-185.6
Q 8.1,-187.5,6.5,-189.4
Q 5.9,-188.9,5.3,-188.4
Q 7.6,-183.5,7.8,-182.2
Q 7.9,-181.5,8.0,-180.8
Q 8.5,-179.5,8.2,-178.8
Q 8.1,-178.5,8.0,-178.2
Q 7.1,-174.6,6.9,-173.3
Q 6.8,-172.6,6.7,-172.0
Q 7.5,-171.7,8.2,-171.5
Q 8.7,-173.2,9.2,-175.0
Q 12.6,-187.6,13.6,-189.0
Q 14.0,-189.5,14.3,-189.9
Q 14.2,-188.4,14.0,-186.9
Q 13.8,-184.0,12.7,-179.3
Q 12.1,-177.0,11.6,-174.6
Q 9.9,-172.9,10.3,-172.2
Q 10.5,-171.9,10.7,-171.5
Q 7.4,-162.3,7.4,-161.8
Q 7.4,-161.3,7.7,-161.0
Q 8.8,-159.9,11.1,-167.0
Q 13.0,-172.8,14.2,-172.8
Q 16.5,-172.8,18.0,-170.8
Q 19.8,-168.1,18.2,-164.6
Q 15.1,-157.6,15.6,-156.6
Q 16.3,-155.3,19.7,-163.4
Q 21.4,-167.6,26.2,-175.5
Q 26.4,-175.6,26.5,-175.8
Q 26.7,-176.0,26.9,-176.1
Q 28.2,-177.3,27.8,-175.5
Q 27.7,-175.3,27.7,-175.1
Q 27.6,-174.9,27.6,-174.6
Q 27.3,-173.4,27.1,-172.2
Q 26.2,-167.6,23.6,-161.0
Q 22.7,-158.8,21.6,-155.7
Q 19.1,-149.3,15.6,-146.8
Q 14.4,-146.1,13.3,-145.3
Q 11.5,-143.1,10.4,-142.2
Q 9.9,-141.7,9.3,-141.3
Q 8.8,-140.6,8.2,-140.0
Q 7.1,-138.6,6.2,-137.1
Q 5.8,-136.3,5.3,-135.5
Q 6.0,-135.1,6.6,-134.6
Q 7.6,-136.0,10.2,-139.5
Q 10.7,-140.1,11.1,-140.6
Q 12.0,-141.7,13.1,-142.6
Q 13.7,-143.1,14.2,-143.5
Q 15.2,-144.1,16.2,-144.7
Q 27.7,-151.8,39.2,-144.1
Q 46.7,-139.1,51.1,-127.4
Q 50.6,-127.5,50.0,-127.7
Q 48.9,-128.0,47.7,-128.4
Q 45.0,-129.4,45.4,-127.7
Q 45.6,-127.0,48.2,-125.9
Q 53.3,-123.8,58.0,-120.4
Q 59.2,-119.5,60.4,-118.6
Q 60.8,-118.4,61.1,-118.2
Q 61.8,-117.7,62.7,-116.4
Q 68.6,-109.4,71.1,-104.2
Q 77.3,-91.0,77.4,-66.4
Q 77.5,-43.0,63.6,-23.5
Q 62.4,-22.0,61.3,-20.4
Q 61.1,-20.1,60.9,-19.7
Q 60.4,-19.1,59.5,-18.4
Q 59.1,-18.1,58.7,-17.7
Q 58.4,-17.6,58.1,-17.5
Q 57.6,-17.2,57.1,-19.4
Q 55.4,-26.2,53.5,-26.2
Q 52.4,-26.2,54.4,-21.5
Q 57.6,-13.7,55.8,-5.1
Q 54.4,1.3,52.5,3.3
Q 50.4,5.5,48.4,-5.1
Q 47.1,-12.2,45.0,-18.4
Q 44.3,-20.4,43.5,-19.6
Q 43.0,-19.1,45.1,-11.5
Q 45.5,-9.9,45.3,-9.2
Q 45.1,-8.5,41.3,-5.4
Q 40.6,-4.8,39.6,-7.4
Q 36.6,-15.1,35.3,-15.1
Q 34.5,-15.1,36.4,-10.6
Q 40.6,-1.0,39.5,6.0
Q 38.8,10.8,37.0,12.8
Q 35.3,14.7,32.5,4.9
Q 28.0,-10.6,26.6,-8.3
Q 26.3,-7.8,26.9,-6.4
Q 29.2,-1.0,28.6,-0.3
Q 28.4,0.0,27.0,0.2
Q 25.1,0.4,21.7,1.4
Q 18.2,2.3,12.4,3.2
Q 11.5,3.7,10.9,3.4
Q 10.5,3.3,10.2,3.2
Q 8.3,3.6,6.4,3.6
Q 5.4,3.6,4.4,3.6
Q 2.2,4.1,1.1,3.8
Q 0.6,3.7,0.0,3.6
Q -10.0,2.5,-13.4,1.9
Q -15.1,1.6,-16.8,1.3
Q -14.8,-1.7,-13.6,-3.0
Q -12.4,-4.4,-13.1,-4.8
Q -13.4,-5.1,-13.8,-5.3
Q -14.0,-5.0,-14.2,-4.6
Q -14.7,-4.0,-16.0,-3.1
Q -16.2,-2.8,-16.4,-2.6
Q -16.9,-2.2,-17.3,-1.5
Q -17.6,-1.2,-17.8,-0.8
Q -18.0,-0.5,-18.2,-0.2
Q -18.7,0.5,-19.6,1.2
Q -20.0,1.5,-20.4,1.8
Q -21.7,4.1,-24.9,8.0
Q -26.7,10.3,-28.0,11.4
Q -28.7,11.9,-29.3,12.5
Q -30.3,13.1,-31.3,13.8
Q -33.2,15.1,-34.3,16.0
Q -35.3,16.9,-36.8,16.9
Q -39.4,16.9,-38.0,11.6
Q -36.5,5.4,-31.5,-2.2
Q -29.7,-5.0,-29.5,-5.7
Q -29.4,-6.4,-28.2,-9.1
Q -26.3,-13.3,-27.4,-13.3
Q -28.3,-13.3,-29.3,-11.0
Q -30.5,-7.7,-31.2,-7.8
Q -31.6,-7.8,-33.7,-8.9
Q -36.4,-10.3,-36.4,-10.6
Q -36.4,-10.8,-34.6,-13.2
Q -31.9,-16.8,-33.0,-16.8
Q -33.7,-16.8,-35.1,-15.0
Q -36.6,-13.1,-37.7,-11.8
Q -38.9,-10.5,-39.1,-9.8
Q -40.0,-7.3,-47.7,2.2
Q -58.6,15.6,-58.3,7.8
Q -58.2,2.9,-53.1,-4.2
Q -52.6,-5.0,-52.0,-5.7
Q -51.1,-7.0,-50.4,-7.5
Q -50.1,-7.7,-49.8,-8.0
Q -48.6,-9.2,-47.4,-10.4
Q -37.8,-20.2,-39.1,-21.4
Q -39.8,-22.1,-44.7,-15.5
Q -56.8,-30.0,-61.5,-43.3
Q -73.1,-76.3,-67.5,-99.7
Q -63.4,-117.2,-55.0,-123.7
Q -52.8,-125.4,-53.0,-125.9
Q -53.3,-126.5,-51.5,-128.2
Q -49.7,-129.9,-49.1,-130.0
Q -47.1,-130.0,-47.1,-133.3
Q -47.1,-136.4,-43.8,-142.9
Q -36.5,-157.5,-21.1,-150.2
Q -11.9,-145.9,-6.6,-135.2
Q -6.1,-134.3,-3.4,-133.9
Q -3.2,-134.7,-3.1,-135.4
Q -3.1,-135.5,-3.1,-135.5
Q -4.1,-135.8,-4.7,-136.4
Q -5.2,-137.0,-6.6,-139.2
Q -12.4,-147.9,-20.9,-152.5
Q -27.6,-156.2,-30.2,-175.7
Q -30.4,-177.4,-30.7,-179.1
Q -31.0,-178.9,-31.1,-179.1
Q -31.1,-179.4,-31.1,-181.3
Q -31.0,-182.2,-30.9,-183.1
Q -30.7,-184.8,-30.4,-184.7
Q -29.6,-184.3,-26.0,-177.5
Q -12.5,-151.7,-11.3,-154.8
Q -11.0,-155.4,-13.4,-159.3
Q -20.5,-171.4,-20.8,-173.0
Q -21.2,-175.4,-17.7,-176.9
Q -16.4,-177.4,-16.2,-177.2
Q -16.1,-177.0,-15.6,-174.4
Q -15.1,-171.7,-14.2,-168.2
Q -13.3,-164.6,-12.6,-161.7
Q -11.3,-155.9,-10.4,-158.3
Q -10.1,-159.1,-10.8,-162.0
Q -12.5,-168.7,-13.3,-173.1
Q -13.8,-175.7,-14.7,-180.2
Q -15.5,-184.6,-15.8,-187.3
Q -15.9,-188.6,-16.1,-189.9
Q -15.4,-189.3,-15.0,-188.2
Q -14.4,-186.6,-10.7,-174.4
Q -9.0,-169.1,-8.1,-170.4
Q -7.7,-171.0,-9.5,-177.3
Q -12.4,-186.9,-8.9,-189.5
Q -8.4,-189.8,-8.0,-190.2
Q -7.2,-190.2,-7.1,-190.0
Q -6.9,-189.7,-7.0,-187.1
Q -7.0,-187.1,-7.0,-187.1
Q -6.4,-187.1,-5.8,-187.1
Q -5.8,-191.7,-5.8,-196.4
Q -5.7,-199.9,-5.7,-200.3
Q -5.6,-200.7,-5.3,-200.8
Q -4.9,-205.3,-4.2,-207.2
Q -3.7,-208.5,-3.4,-208.6
Q -1.3,-209.0,0.2,-195.3
Q 0.3,-194.3,0.4,-193.3
Q 0.8,-193.5,0.8,-193.2
Q 0.9,-193.0,0.9,-190.6
Q 0.9,-189.3,0.9,-188.0
Q 1.2,-188.1,1.3,-187.9
Q 1.3,-187.9,1.3,-187.8
Q 2.0,-187.9,2.7,-188.0
Q 2.7,-188.6,2.7,-189.2
Q 2.7,-190.5,2.9,-190.5
Q 3.0,-190.6,3.1,-190.6
Q 3.6,-191.2,4.1,-191.8
Q 3.5,-192.4,3.2,-192.5
Q 2.7,-192.6,2.2,-195.7
Q 0.4,-209.1,-2.5,-210.5
Q -7.6,-212.9,-7.6,-196.3
Q -7.6,-192.5,-9.1,-191.6
Q -10.7,-190.6,-11.5,-188.8
Q -12.7,-186.2,-13.5,-189.9
Q -14.2,-192.8,-16.7,-192.8
Q -18.3,-192.8,-17.1,-181.7
Q -16.8,-179.3,-18.4,-178.7
Q -19.9,-178.1,-22.6,-175.4
Q -23.7,-177.7,-24.9,-180.0
Q -28.1,-186.2,-30.6,-187.6
Q -34.5,-189.9,-32.0,-173.1
Q -30.3,-161.8,-27.3,-156.2
Q -26.8,-155.2,-26.3,-154.3
Q -27.9,-154.4,-29.5,-154.5
Q -43.4,-155.4,-48.7,-135.1
Q -49.3,-132.8,-53.6,-128.7
Q -57.9,-124.7,-58.8,-124.1
Q -62.6,-121.8,-62.1,-135.6
Q -61.4,-152.2,-62.6,-154.8
Q -64.1,-157.8,-66.0,-157.0
Q -71.9,-154.5,-76.8,-126.4
Q -76.9,-128.7,-77.0,-131.1
Q -77.3,-139.0,-79.9,-139.4
Q -83.0,-139.9,-85.3,-125.1
Q -85.5,-123.7,-85.7,-122.4
Q -86.0,-124.0,-86.4,-125.5
Q -87.1,-128.6,-88.0,-133.3
Q -92.2,-153.9,-98.1,-155.3
Q -99.3,-155.6,-100.8,-153.9
Q -107.6,-146.0,-97.5,-114.6
Q -95.6,-108.6,-95.3,-106.6
Q -95.2,-105.6,-95.0,-104.6
Q -95.5,-105.2,-96.0,-105.7
Q -97.0,-106.8,-98.1,-109.3
Q -99.2,-111.7,-100.2,-114.0
Q -101.2,-116.2,-103.1,-120.6
Q -108.2,-132.6,-112.0,-124.2
Q -114.2,-119.3,-113.1,-105.3
Q -112.2,-93.0,-103.6,-77.5
Q -101.4,-73.5,-99.5,-70.0
Q -97.7,-66.4,-93.6,-60.7
Q -93.8,-60.8,-94.0,-60.9
Q -94.5,-61.2,-96.9,-62.5
Q -108.4,-68.8,-110.9,-68.8
Q -116.1,-68.8,-110.8,-57.7
Q -102.0,-39.2,-85.8,-29.8
Q -68.0,-19.5,-53.0,-18.4
Q -51.5,-18.3,-50.5,-17.8
Q -49.5,-17.3,-46.3,-14.0
Q -54.1,-6.3,-55.6,-4.3
Q -60.4,2.2,-60.4,9.3
Q -60.4,10.7,-59.3,11.8
Q -54.9,16.2,-40.9,-3.5
Q -38.6,-6.8,-38.3,-7.4
Q -38.0,-7.9,-35.0,-6.5
Q -33.5,-5.8,-32.0,-5.1
Q -40.1,7.9,-40.6,13.3
Q -41.1,19.7,-36.3,19.0
Q -31.3,18.4,-20.8,6.4
Q -18.9,4.1,-15.8,4.6
Q -13.4,5.0,-13.2,5.2
Q -12.9,5.5,-14.7,10.7
Q -16.6,16.7,-18.0,25.8
Q -20.1,40.0,-27.7,50.2
Q -37.6,63.6,-38.9,69.1
Q -42.1,81.9,-36.9,92.7
Q -32.7,101.4,-25.1,100.8
Q -20.9,100.5,-14.1,94.1
Q -14.2,94.5,-14.4,94.9
Q -16.4,102.5,-23.5,110.0
Q -32.6,119.6,-36.4,131.1
Q -41.1,145.1,-39.1,176.0
Q -38.0,193.6,-38.6,198.7
Q -39.9,208.5,-45.3,215.6
Q -46.5,217.2,-47.2,218.2
Q -48.2,219.9,-45.8,221.2
 " /> 
<path  
style="fill:rgb(4,4,4)" 
d="M -111.1 -66.6
Q -111.1,-65.5,-111.1,-64.4
Q -106.6,-50.9,-97.1,-41.5
Q -85.9,-30.3,-67.7,-23.9
Q -60.4,-21.4,-52.1,-20.5
Q -57.2,-27.8,-59.6,-32.4
Q -60.8,-32.5,-62.0,-32.6
Q -70.0,-33.3,-83.6,-42.4
Q -92.3,-48.2,-93.3,-50.7
Q -94.0,-52.6,-90.1,-49.0
Q -82.9,-42.3,-72.7,-37.5
Q -65.5,-34.0,-62.3,-33.8
Q -61.4,-33.8,-60.4,-33.7
Q -61.4,-36.3,-62.4,-38.8
Q -66.7,-49.8,-68.4,-57.1
Q -68.9,-59.0,-69.3,-60.8
Q -69.9,-61.1,-70.4,-61.3
Q -75.4,-63.7,-77.9,-65.6
Q -85.0,-70.9,-89.9,-79.4
Q -91.5,-82.1,-91.0,-82.5
Q -90.5,-82.8,-90.4,-82.3
Q -90.2,-81.9,-87.6,-78.0
Q -82.9,-70.8,-76.6,-66.3
Q -73.5,-64.1,-69.8,-62.6
Q -70.7,-65.7,-70.7,-67.1
Q -70.7,-67.7,-70.7,-68.4
Q -71.2,-68.2,-71.1,-69.4
Q -71.1,-69.4,-71.1,-69.4
Q -71.1,-70.0,-71.1,-70.6
Q -71.1,-71.3,-71.1,-72.0
Q -71.5,-71.8,-71.5,-72.1
Q -71.6,-72.3,-71.6,-75.1
Q -71.6,-76.4,-71.6,-77.7
Q -72.3,-78.2,-73.1,-78.6
Q -76.1,-80.3,-80.9,-87.2
Q -83.1,-90.2,-84.4,-93.8
Q -87.1,-100.8,-85.9,-100.8
Q -85.5,-100.8,-84.7,-98.1
Q -83.0,-92.0,-78.6,-86.1
Q -75.8,-82.2,-71.6,-79.1
Q -71.6,-80.4,-71.6,-85.3
Q -71.6,-87.3,-71.1,-87.5
Q -71.1,-88.9,-71.0,-90.3
Q -70.9,-93.2,-70.8,-93.4
Q -70.7,-93.6,-70.7,-93.7
Q -71.4,-94.3,-72.2,-94.8
Q -76.2,-97.7,-79.2,-105.0
Q -81.5,-110.6,-80.6,-110.6
Q -80.1,-110.6,-78.9,-107.4
Q -76.5,-100.6,-72.8,-97.1
Q -71.7,-96.1,-70.7,-95.1
Q -70.2,-97.3,-69.8,-99.5
Q -68.9,-104.0,-66.7,-108.8
Q -67.0,-108.5,-67.2,-108.7
Q -69.9,-110.9,-70.6,-117.8
Q -71.0,-121.5,-70.6,-122.2
Q -70.0,-123.4,-69.5,-117.8
Q -69.2,-114.2,-68.0,-112.0
Q -67.3,-110.8,-66.7,-109.7
Q -64.0,-115.1,-62.1,-118.0
Q -60.3,-121.0,-60.1,-121.3
Q -60.0,-121.6,-61.1,-121.9
Q -63.6,-122.5,-64.0,-128.4
Q -64.1,-129.0,-64.2,-129.5
Q -64.5,-130.6,-64.0,-132.4
Q -64.0,-135.5,-64.0,-138.6
Q -64.0,-142.4,-63.9,-142.9
Q -63.9,-143.3,-63.6,-143.5
Q -63.5,-149.7,-64.4,-154.2
Q -64.7,-154.3,-65.0,-154.4
Q -65.6,-154.6,-67.6,-152.8
Q -67.9,-152.1,-68.2,-151.3
Q -72.4,-141.5,-74.9,-124.6
Q -76.1,-116.8,-77.6,-118.3
Q -78.3,-119.0,-78.3,-119.5
Q -78.2,-119.7,-78.2,-120.0
Q -78.3,-119.9,-78.5,-119.9
Q -78.6,-119.8,-78.7,-120.1
Q -78.7,-120.3,-78.7,-124.4
Q -78.7,-127.1,-78.7,-129.7
Q -79.2,-129.6,-79.1,-131.6
Q -79.1,-132.7,-79.1,-133.7
Q -80.0,-136.4,-80.2,-136.4
Q -81.3,-136.4,-82.7,-126.8
Q -83.9,-118.5,-84.6,-117.6
Q -86.4,-115.2,-90.1,-133.3
Q -94.1,-153.3,-98.3,-153.3
Q -101.1,-153.3,-101.3,-144.0
Q -101.3,-142.2,-101.3,-140.4
Q -101.2,-140.4,-101.1,-140.5
Q -100.8,-140.6,-100.9,-138.2
Q -100.7,-136.6,-100.4,-135.1
Q -99.4,-127.7,-94.2,-111.2
Q -92.0,-104.4,-93.5,-102.4
Q -96.3,-98.5,-103.1,-115.3
Q -107.1,-125.3,-108.4,-125.3
Q -112.2,-125.3,-110.9,-106.4
Q -110.0,-92.6,-99.8,-75.5
Q -98.3,-73.0,-96.9,-70.5
Q -95.5,-68.0,-93.5,-65.1
Q -89.8,-59.7,-91.3,-58.2
Q -92.6,-57.0,-98.5,-60.5
Q -107.0,-65.5,-111.1,-66.6
 " /> 
<path  
style="fill:rgb(14,103,171)" 
d="M -111.1 -66.6
Q -111.2,-66.3,-111.4,-66.0
Q -111.6,-65.3,-111.1,-64.4
Q -111.1,-65.5,-111.1,-66.6
 " /> 
<path  
style="fill:rgb(14,103,171)" 
d="M -100.9 -138.2
Q -100.8,-140.6,-101.1,-140.5
Q -101.2,-140.4,-101.3,-140.4
Q -101.3,-139.8,-101.3,-139.2
Q -101.3,-138.0,-100.9,-138.2
 " /> 
<path  
style="fill:rgb(14,103,171)" 
d="M -79.1 -133.7
Q -79.1,-132.7,-79.1,-131.6
Q -79.2,-129.6,-78.7,-129.7
Q -78.7,-133.4,-78.7,-133.7
Q -78.8,-133.9,-79.1,-133.7
 " /> 
<path  
style="fill:rgb(14,103,171)" 
d="M -78.7 -124.4
Q -78.7,-120.3,-78.7,-120.1
Q -78.6,-119.8,-78.5,-119.9
Q -78.3,-119.9,-78.2,-120.0
Q -78.2,-124.1,-78.3,-124.3
Q -78.3,-124.6,-78.7,-124.4
 " /> 
<path  
style="fill:rgb(14,103,171)" 
d="M -67.6 -152.8
Q -65.6,-154.6,-65.0,-154.4
Q -64.7,-154.3,-64.4,-154.2
Q -65.2,-155.4,-66.4,-154.1
Q -67.0,-153.5,-67.6,-152.8
 " /> 
<path  
style="fill:rgb(14,103,171)" 
d="M -63.6 -143.5
Q -63.9,-143.3,-63.9,-142.9
Q -64.0,-142.4,-64.0,-138.6
Q -63.9,-138.7,-63.8,-138.7
Q -63.6,-138.8,-63.6,-141.1
Q -63.6,-142.3,-63.6,-143.5
 " /> 
<path  
style="fill:rgb(14,103,171)" 
d="M -64.0 -132.4
Q -64.5,-130.6,-64.2,-129.5
Q -64.1,-129.0,-64.0,-128.4
Q -64.0,-130.4,-64.0,-132.4
 " /> 
<path  
style="fill:rgb(97,247,248)" 
d="M -66.7 -109.7
Q -67.3,-110.8,-68.0,-112.0
Q -69.2,-114.2,-69.5,-117.8
Q -70.0,-123.4,-70.6,-122.2
Q -71.0,-121.5,-70.6,-117.8
Q -69.9,-110.9,-67.2,-108.7
Q -67.0,-108.5,-66.7,-108.8
Q -66.7,-109.3,-66.7,-109.7
 " /> 
<path  
style="fill:rgb(97,247,248)" 
d="M -70.7 -95.1
Q -71.7,-96.1,-72.8,-97.1
Q -76.5,-100.6,-78.9,-107.4
Q -80.1,-110.6,-80.6,-110.6
Q -81.5,-110.6,-79.2,-105.0
Q -76.2,-97.7,-72.2,-94.8
Q -71.4,-94.3,-70.7,-93.7
Q -70.7,-94.4,-70.7,-95.1
 " /> 
<path  
style="fill:rgb(14,103,171)" 
d="M -71.1 -87.5
Q -71.6,-87.3,-71.6,-85.3
Q -71.5,-85.3,-71.4,-85.4
Q -71.2,-85.4,-71.1,-87.5
 " /> 
<path  
style="fill:rgb(97,247,248)" 
d="M -71.6 -79.1
Q -75.8,-82.2,-78.6,-86.1
Q -83.0,-92.0,-84.7,-98.1
Q -85.5,-100.8,-85.9,-100.8
Q -87.1,-100.8,-84.4,-93.8
Q -83.1,-90.2,-80.9,-87.2
Q -76.1,-80.3,-73.1,-78.6
Q -72.3,-78.2,-71.6,-77.7
Q -71.6,-78.4,-71.6,-79.1
 " /> 
<path  
style="fill:rgb(14,103,171)" 
d="M -71.6 -75.1
Q -71.6,-72.3,-71.5,-72.1
Q -71.5,-71.8,-71.1,-72.0
Q -71.1,-74.7,-71.2,-75.0
Q -71.2,-75.2,-71.6,-75.1
 " /> 
<path  
style="fill:rgb(14,103,171)" 
d="M -71.1 -70.6
Q -71.1,-70.0,-71.1,-69.4
Q -70.9,-68.9,-70.7,-68.4
Q -70.7,-70.3,-70.7,-70.5
Q -70.8,-70.8,-71.1,-70.6
 " /> 
<path  
style="fill:rgb(14,103,171)" 
d="M -70.7 -68.4
Q -70.9,-68.9,-71.1,-69.4
Q -71.1,-69.4,-71.1,-69.4
Q -71.2,-68.2,-70.7,-68.4
 " /> 
<path  
style="fill:rgb(97,247,248)" 
d="M -69.8 -62.6
Q -70.1,-62.0,-70.4,-61.3
Q -69.9,-61.1,-69.3,-60.8
Q -69.4,-61.1,-69.5,-61.3
Q -69.8,-61.7,-69.8,-62.6
 " /> 
<path  
style="fill:rgb(97,247,248)" 
d="M -69.8 -62.6
Q -73.5,-64.1,-76.6,-66.3
Q -82.9,-70.8,-87.6,-78.0
Q -90.2,-81.9,-90.4,-82.3
Q -90.5,-82.8,-91.0,-82.5
Q -91.5,-82.1,-89.9,-79.4
Q -85.0,-70.9,-77.9,-65.6
Q -75.4,-63.7,-70.4,-61.3
Q -70.1,-62.0,-69.8,-62.6
 " /> 
<path  
style="fill:rgb(97,247,248)" 
d="M -60.4 -33.7
Q -61.4,-33.8,-62.3,-33.8
Q -65.5,-34.0,-72.7,-37.5
Q -82.9,-42.3,-90.1,-49.0
Q -94.0,-52.6,-93.3,-50.7
Q -92.3,-48.2,-83.6,-42.4
Q -70.0,-33.3,-62.0,-32.6
Q -60.8,-32.5,-59.6,-32.4
Q -60.0,-33.1,-60.4,-33.7
 " /> 
<path  
style="fill:rgb(7,193,201)" 
d="M -37.3 167.2
Q -37.3,168.5,-37.3,169.8
Q -36.9,169.3,-36.5,168.7
Q -36.3,168.4,-36.0,168.0
Q -36.7,167.6,-37.3,167.2
 " /> 
<path  
style="fill:rgb(14,103,171)" 
d="M -37.3 167.2
Q -36.0,164.8,-34.7,162.5
Q -21.5,139.4,-18.8,138.8
Q -17.5,138.5,-20.5,142.5
Q -25.1,148.7,-33.1,163.0
Q -35.1,166.5,-36.0,168.0
Q -36.3,168.4,-36.5,168.7
Q -36.9,169.3,-37.3,169.8
Q -36.9,176.9,-36.6,179.7
Q -36.4,182.5,-36.2,188.9
Q -35.9,195.9,-35.4,195.5
Q -30.7,192.3,-23.2,175.1
Q -17.0,160.8,-8.5,147.6
Q -5.5,142.8,-4.7,143.6
Q -4.3,144.0,-6.2,146.7
Q -8.0,149.4,-8.9,150.9
Q -9.7,152.3,-11.2,155.0
Q -15.2,161.8,-20.2,173.2
Q -27.6,189.8,-33.0,195.2
Q -36.0,198.3,-36.5,201.3
Q -37.8,209.4,-42.6,216.2
Q -44.5,218.8,-44.3,219.0
Q -44.0,219.3,-40.8,218.8
Q -40.1,218.7,-39.5,218.6
Q -39.6,217.8,-39.7,217.0
Q -40.2,216.3,-34.5,213.7
Q -9.2,201.8,1.2,175.7
Q 2.9,171.2,3.5,172.8
Q 3.8,173.9,0.4,180.8
Q -9.1,200.2,-25.5,210.4
Q -38.8,218.6,-39.7,217.0
Q -39.6,217.8,-39.5,218.6
Q -33.8,217.8,-27.1,217.1
Q -13.5,215.8,-7.7,213.1
Q 7.7,206.0,14.4,184.5
Q 16.6,177.5,18.9,162.5
Q 20.3,153.5,21.0,154.2
Q 21.8,155.0,19.5,169.4
Q 15.9,191.8,7.9,202.5
Q 4.2,207.4,-2.0,212.1
Q 41.3,199.1,44.9,173.5
Q 46.2,164.2,39.3,143.6
Q 31.6,120.8,30.1,106.5
Q 29.9,104.8,29.8,103.2
Q 28.4,103.2,28.2,103.5
Q 28.0,103.8,28.0,105.7
Q 28.0,120.2,24.2,121.2
Q 23.1,121.5,22.9,121.3
Q 22.8,121.1,22.5,116.7
Q 22.2,112.3,21.8,110.3
Q 21.6,109.3,21.4,108.3
Q 21.3,108.3,21.0,108.5
Q 20.9,109.3,20.5,110.2
Q 17.4,116.3,13.6,110.6
Q 12.0,108.3,11.8,107.8
Q 11.6,107.4,10.5,108.5
Q 8.9,110.0,8.2,114.0
Q 7.2,120.4,3.4,122.9
Q 1.3,124.3,1.3,120.9
Q 1.3,120.7,1.3,120.5
Q 1.2,119.7,1.1,118.9
Q 0.8,117.4,1.1,114.3
Q 1.2,112.7,1.3,111.2
Q 1.3,109.9,1.3,108.7
Q 1.3,106.3,0.4,103.6
Q 0.0,102.3,-0.5,102.4
Q -1.1,102.6,-2.4,104.5
Q -4.9,108.2,-6.5,108.4
Q -7.0,108.4,-7.6,108.5
Q -7.8,108.5,-8.0,108.5
Q -8.5,108.1,-8.9,107.6
Q -9.8,106.8,-10.9,103.4
Q -11.5,101.7,-12.0,100.0
Q -12.0,99.8,-12.0,99.6
Q -12.2,99.3,-12.4,98.9
Q -12.9,98.3,-12.9,97.6
Q -12.9,97.3,-12.9,96.9
Q -13.0,96.9,-13.0,96.9
Q -13.5,98.0,-14.0,99.2
Q -16.5,105.3,-21.1,110.3
Q -28.7,118.5,-32.1,125.8
Q -38.2,138.8,-37.5,161.2
Q -37.4,164.2,-37.3,167.2
 " /> 
<path  
style="fill:rgb(7,193,201)" 
d="M 18.2 200.8
Q 18.2,202.3,21.0,199.0
Q 29.4,189.1,31.8,173.6
Q 33.6,161.4,31.8,161.4
Q 31.1,161.4,31.1,164.6
Q 31.1,184.7,19.9,198.2
Q 18.2,200.3,18.2,200.8
 " /> 
<path  
style="fill:rgb(7,193,201)" 
d="M -37.3 167.2
Q -36.7,167.6,-36.0,168.0
Q -35.1,166.5,-33.1,163.0
Q -25.1,148.7,-20.5,142.5
Q -17.5,138.5,-18.8,138.8
Q -21.5,139.4,-34.7,162.5
Q -36.0,164.8,-37.3,167.2
 " /> 
<path  
style="fill:rgb(97,247,248)" 
d="M -12.9 96.9
Q -12.9,96.7,-12.9,96.5
Q -12.7,97.3,-12.4,97.6
Q -12.0,98.3,-12.0,99.6
Q -12.0,99.8,-12.0,100.0
Q -11.7,100.6,-11.3,101.2
Q -10.7,102.3,-10.0,104.5
Q -9.3,106.7,-8.7,107.6
Q -8.3,108.0,-8.0,108.5
Q -7.8,108.5,-7.6,108.5
Q -4.9,107.6,-3.9,106.0
Q -0.4,100.0,0.4,103.6
Q 1.3,106.3,1.3,108.7
Q 1.3,109.9,1.3,111.2
Q 1.4,112.2,1.5,113.2
Q 1.8,115.2,1.5,117.8
Q 1.4,119.2,1.3,120.5
Q 1.3,120.7,1.3,120.9
Q 1.4,121.3,1.6,121.7
Q 2.1,123.4,3.8,122.0
Q 7.1,119.5,7.8,114.1
Q 8.1,111.8,9.0,109.9
Q 11.2,105.2,13.5,109.6
Q 16.5,115.7,19.9,110.0
Q 20.8,108.3,21.4,108.3
Q 21.4,108.3,21.4,108.3
Q 21.4,108.3,21.4,108.3
Q 21.7,108.4,21.9,108.7
Q 23.1,111.0,23.1,117.9
Q 23.1,120.9,23.5,120.9
Q 25.6,120.9,27.1,111.6
Q 27.6,108.7,27.6,105.7
Q 27.6,102.7,28.7,102.9
Q 29.2,103.0,29.8,103.2
Q 29.9,101.3,29.6,100.9
Q 29.5,100.7,29.3,100.5
Q 29.3,99.4,29.3,98.3
Q 29.3,96.9,29.3,95.6
Q 29.2,95.6,29.1,95.6
Q 28.9,95.7,28.9,93.6
Q 28.9,92.6,28.9,91.6
Q 28.3,90.4,27.8,89.2
Q 24.6,82.1,23.8,69.8
Q 23.7,69.2,23.7,68.6
Q 23.7,68.0,23.6,67.5
Q 23.6,67.2,23.6,66.3
Q 23.4,66.3,23.3,66.3
Q 23.1,66.4,23.1,64.0
Q 23.1,60.3,23.3,57.7
Q 23.5,56.3,23.6,55.2
Q 23.5,55.5,23.9,54.2
Q 23.9,54.0,24.2,53.2
Q 25.3,50.7,27.1,43.2
Q 27.1,40.6,27.3,40.5
Q 27.4,40.5,27.6,40.5
Q 27.6,39.4,27.6,38.3
Q 27.1,38.4,27.1,36.5
Q 27.1,35.6,27.1,34.7
Q 26.4,29.8,25.8,24.9
Q 25.6,25.5,25.4,26.2
Q 24.9,27.4,24.4,29.9
Q 23.9,32.5,23.0,32.5
Q 22.1,32.5,22.4,31.0
Q 23.7,23.8,24.4,17.6
Q 24.7,14.1,25.3,14.1
Q 25.9,14.1,25.8,16.4
Q 25.7,18.7,26.4,20.8
Q 27.5,24.2,28.8,33.3
Q 29.1,35.1,29.3,36.9
Q 29.3,38.9,29.3,40.9
Q 28.4,47.2,27.6,49.4
Q 26.7,51.6,24.9,55.6
Q 24.9,56.7,24.9,57.8
Q 24.9,59.4,24.9,60.9
Q 24.9,62.3,24.9,63.6
Q 25.0,63.6,25.1,63.6
Q 25.3,63.5,25.3,64.7
Q 25.3,64.7,25.3,64.7
Q 25.3,65.2,25.3,65.8
Q 25.3,66.9,25.3,68.0
Q 26.4,67.0,27.6,66.0
Q 39.3,55.5,45.4,55.4
Q 46.1,55.4,46.5,55.6
Q 46.8,55.8,47.1,56.0
Q 47.8,56.0,47.6,56.5
Q 49.4,57.3,51.1,59.6
Q 49.3,53.8,47.8,50.4
Q 46.3,46.9,43.4,41.8
Q 34.4,25.8,31.3,16.9
Q 27.3,5.2,23.4,4.0
Q 22.6,3.8,18.4,4.7
Q 15.9,5.3,13.3,5.8
Q 12.2,5.8,11.1,5.8
Q 8.4,5.9,5.8,6.0
Q 0.4,6.3,-5.0,5.8
Q -10.4,5.4,-10.7,5.7
Q -11.1,6.1,-12.4,9.8
Q -15.3,17.9,-15.8,24.0
Q -16.6,35.5,-22.0,45.7
Q -24.0,49.4,-27.6,53.8
Q -24.4,54.3,-22.2,55.2
Q -20.0,56.1,-17.8,55.6
Q -16.7,55.4,-15.6,55.2
Q -15.3,55.2,-15.1,55.2
Q -13.3,54.7,-11.6,56.3
Q -9.9,57.9,-8.0,58.1
Q -4.6,58.5,-2.7,60.5
Q -1.8,61.4,-1.3,61.8
Q -1.1,62.1,-0.9,62.3
Q -0.9,61.8,-0.9,61.4
Q 0.2,54.8,0.0,53.4
Q -0.2,52.1,-0.9,50.6
Q -3.6,45.3,-4.1,38.4
Q -4.2,37.7,-4.2,36.9
Q -4.2,36.1,-4.3,35.2
Q -4.4,33.2,-4.4,31.2
Q -4.4,28.7,-4.4,26.3
Q -5.3,20.5,-5.4,19.5
Q -5.5,18.6,-4.9,18.5
Q -4.3,18.5,-3.5,21.8
Q -2.6,25.1,-1.6,29.2
Q -0.1,34.8,-1.1,34.9
Q -1.7,34.9,-2.0,34.6
Q -2.3,34.9,-2.7,35.2
Q -2.7,36.7,-2.7,38.3
Q -2.3,40.0,-2.0,41.8
Q -0.9,47.9,1.7,51.8
Q 3.8,55.2,2.6,55.2
Q 1.9,55.2,0.9,60.3
Q 0.8,61.0,0.7,61.7
Q 0.4,62.8,0.2,63.9
Q -2.2,74.5,-9.4,87.9
Q -11.6,92.0,-12.3,94.3
Q -12.6,95.4,-12.9,96.5
 " /> 
<path  
style="fill:rgb(7,193,201)" 
d="M -12.9 96.9
Q -12.9,97.3,-12.9,97.6
Q -12.9,98.3,-12.4,98.9
Q -12.2,99.3,-12.0,99.6
Q -12.0,98.3,-12.4,97.6
Q -12.7,97.3,-12.9,96.9
 " /> 
<path  
style="fill:rgb(7,193,201)" 
d="M -12.0 100.0
Q -11.5,101.7,-10.9,103.4
Q -9.8,106.8,-8.9,107.6
Q -8.5,108.1,-8.0,108.5
Q -8.3,108.0,-8.7,107.6
Q -9.3,106.7,-10.0,104.5
Q -10.7,102.3,-11.3,101.2
Q -11.7,100.6,-12.0,100.0
 " /> 
<path  
style="fill:rgb(7,193,201)" 
d="M 1.3 111.2
Q 1.2,112.7,1.1,114.3
Q 0.8,117.4,1.1,118.9
Q 1.2,119.7,1.3,120.5
Q 1.4,119.2,1.5,117.8
Q 1.8,115.2,1.5,113.2
Q 1.4,112.2,1.3,111.2
 " /> 
<path  
style="fill:rgb(7,193,201)" 
d="M 1.3 120.9
Q 1.3,124.3,3.4,122.9
Q 7.2,120.4,8.2,114.0
Q 8.9,110.0,10.5,108.5
Q 11.6,107.4,11.8,107.8
Q 12.0,108.3,13.6,110.6
Q 17.4,116.3,20.5,110.2
Q 20.9,109.3,21.4,108.3
Q 20.8,108.3,19.9,110.0
Q 16.5,115.7,13.5,109.6
Q 11.2,105.2,9.0,109.9
Q 8.1,111.8,7.8,114.1
Q 7.1,119.5,3.8,122.0
Q 2.1,123.4,1.6,121.7
Q 1.4,121.3,1.3,120.9
 " /> 
<path  
style="fill:rgb(7,193,201)" 
d="M 29.8 103.2
Q 29.2,103.0,28.7,102.9
Q 27.6,102.7,27.6,105.7
Q 27.6,108.7,27.1,111.6
Q 25.6,120.9,23.5,120.9
Q 23.1,120.9,23.1,117.9
Q 23.1,111.0,21.9,108.7
Q 21.7,108.4,21.4,108.3
Q 21.6,109.3,21.8,110.3
Q 22.2,112.3,22.5,116.7
Q 22.8,121.1,22.9,121.3
Q 23.1,121.5,24.2,121.2
Q 28.0,120.2,28.0,105.7
Q 28.0,103.8,28.2,103.5
Q 28.4,103.2,29.8,103.2
 " /> 
<path  
style="fill:rgb(7,193,201)" 
d="M -39.7 217.0
Q -38.8,218.6,-25.5,210.4
Q -9.1,200.2,0.4,180.8
Q 3.8,173.9,3.5,172.8
Q 2.9,171.2,1.2,175.7
Q -9.2,201.8,-34.5,213.7
Q -40.2,216.3,-39.7,217.0
 " /> 
<path  
style="fill:rgb(4,4,4)" 
d="M -2.7 38.3
Q -2.8,37.9,-2.9,37.6
Q -3.1,36.9,-2.9,36.0
Q -2.8,35.6,-2.7,35.2
Q -3.5,35.2,-4.3,35.2
Q -4.2,36.1,-4.2,36.9
Q -4.2,37.7,-4.1,38.4
Q -3.4,38.3,-2.7,38.3
 " /> 
<path  
style="fill:rgb(14,103,171)" 
d="M -2.7 38.3
Q -2.7,36.7,-2.7,35.2
Q -2.8,35.6,-2.9,36.0
Q -3.1,36.9,-2.9,37.6
Q -2.8,37.9,-2.7,38.3
 " /> 
<path  
style="fill:rgb(4,4,4)" 
d="M -2.7 38.3
Q -3.4,38.3,-4.1,38.4
Q -3.6,45.3,-0.9,50.6
Q -0.2,52.1,0.0,53.4
Q 0.2,54.8,-0.9,61.4
Q -0.1,61.5,0.7,61.7
Q 0.8,61.0,0.9,60.3
Q 1.9,55.2,2.6,55.2
Q 3.8,55.2,1.7,51.8
Q -0.9,47.9,-2.0,41.8
Q -2.3,40.0,-2.7,38.3
 " /> 
<path  
style="fill:rgb(4,4,4)" 
d="M -2.7 35.2
Q -2.7,34.5,-2.7,33.8
Q -2.2,32.0,-2.5,31.9
Q -2.7,31.8,-2.7,33.8
Q -2.5,33.3,-2.4,33.7
Q -2.4,33.9,-2.4,34.0
Q -2.2,34.3,-2.0,34.6
Q -1.7,34.9,-1.1,34.9
Q -0.1,34.8,-1.6,29.2
Q -2.6,25.1,-3.5,21.8
Q -4.3,18.5,-4.9,18.5
Q -5.5,18.6,-5.4,19.5
Q -5.3,20.5,-4.4,26.3
Q -4.0,28.5,-4.2,29.8
Q -4.3,30.5,-4.4,31.2
Q -4.4,33.2,-4.3,35.2
Q -3.5,35.2,-2.7,35.2
 " /> 
<path  
style="fill:rgb(97,247,248)" 
d="M -2.7 35.2
Q -2.3,34.9,-2.0,34.6
Q -2.2,34.3,-2.4,34.0
Q -2.4,33.9,-2.4,33.7
Q -2.5,33.8,-2.7,33.8
Q -2.7,34.5,-2.7,35.2
 " /> 
<path  
style="fill:rgb(255,255,255)" 
d="M -2.7 33.8
Q -2.7,33.4,-2.7,32.9
Q -2.7,31.8,-2.5,31.9
Q -2.2,32.0,-2.7,32.9
 " /> 
<path  
style="fill:rgb(97,247,248)" 
d="M -2.7 33.8
Q -2.5,33.8,-2.4,33.7
Q -2.5,33.3,-2.7,32.9
Q -2.7,33.4,-2.7,33.8
 " /> 
<path  
style="fill:rgb(14,103,171)" 
d="M -4.4 26.3
Q -4.4,28.7,-4.4,31.2
Q -4.3,30.5,-4.2,29.8
Q -4.0,28.5,-4.4,26.3
 " /> 
<path  
style="fill:rgb(4,4,4)" 
d="M -0.9 61.4
Q -0.5,61.8,-0.2,62.4
Q 0.1,62.5,0.5,62.6
Q 0.7,61.5,0.9,60.4
Q -0.1,61.5,-0.9,61.4
 " /> 
<path  
style="fill:rgb(14,103,171)" 
d="M -0.9 61.4
Q -0.9,61.8,-0.9,62.3
Q -0.6,62.3,-0.2,62.4
Q -0.5,61.8,-0.9,61.4
 " /> 
<path  
style="fill:rgb(14,103,171)" 
d="M -0.9 62.3
Q -1.8,62.3,-2.9,61.0
Q -4.6,59.0,-8.4,58.5
Q -10.3,58.3,-11.6,56.7
Q -12.9,55.1,-14.0,55.1
Q -14.5,55.1,-15.1,55.2
Q -15.3,55.2,-15.6,55.2
Q -19.5,57.5,-22.5,55.6
Q -24.0,54.6,-26.0,54.5
Q -27.0,54.4,-28.0,54.3
Q -34.3,62.2,-36.5,69.8
Q -35.8,70.0,-35.2,70.2
Q -35.5,69.6,-34.1,66.8
Q -32.8,64.0,-32.1,64.0
Q -31.1,64.0,-32.9,67.6
Q -34.8,71.4,-35.2,70.2
Q -35.8,70.0,-36.5,69.8
Q -37.9,74.8,-37.5,79.7
Q -34.4,74.4,-31.6,71.2
Q -25.2,63.8,-24.6,63.8
Q -22.8,63.8,-26.2,67.5
Q -33.6,75.4,-35.5,79.5
Q -40.2,89.0,-28.4,98.3
Q -28.3,95.0,-28.2,91.8
Q -28.0,85.4,-27.8,85.4
Q -27.6,85.4,-27.4,91.7
Q -27.3,97.2,-27.4,97.6
Q -27.5,98.0,-28.0,98.3
Q -27.1,98.4,-26.2,98.5
Q -22.2,99.0,-17.7,94.5
Q -15.6,92.5,-15.8,85.5
Q -16.3,69.9,-14.6,69.5
Q -14.0,69.3,-14.1,74.1
Q -14.5,90.4,-13.6,89.7
Q -11.6,88.4,-10.8,85.5
Q -10.3,84.1,-8.9,82.3
Q -5.5,78.0,-2.0,65.7
Q -1.3,63.2,-0.6,63.5
Q 0.1,63.8,-0.1,62.9
Q -0.1,62.6,-0.2,62.4
Q -0.6,62.3,-0.9,62.3
 " /> 
<path  
style="fill:rgb(7,193,201)" 
d="M -9.6 78.8
Q -8.4,79.6,-8.4,74.0
Q -8.4,69.9,-8.6,69.6
Q -10.0,68.1,-10.0,74.1
Q -10.1,78.4,-9.6,78.8
 " /> 
<path  
style="fill:rgb(7,193,201)" 
d="M -0.9 62.3
Q -1.1,62.1,-1.3,61.8
Q -1.8,61.4,-2.7,60.5
Q -4.6,58.5,-8.0,58.1
Q -9.9,57.9,-11.6,56.3
Q -13.3,54.7,-15.1,55.2
Q -14.5,55.1,-14.0,55.1
Q -12.9,55.1,-11.6,56.7
Q -10.3,58.3,-8.4,58.5
Q -4.6,59.0,-2.9,61.0
Q -1.8,62.3,-0.9,62.3
 " /> 
<path  
style="fill:rgb(7,193,201)" 
d="M -15.6 55.2
Q -16.7,55.4,-17.8,55.6
Q -20.0,56.1,-22.2,55.2
Q -24.4,54.3,-27.6,53.8
Q -27.8,53.8,-28.0,54.3
Q -27.0,54.4,-26.0,54.5
Q -24.0,54.6,-22.5,55.6
Q -19.5,57.5,-15.6,55.2
 " /> 
<path  
style="fill:rgb(14,103,171)" 
d="M 11.1 5.8
Q 12.2,5.8,13.3,5.8
Q 13.0,5.7,12.7,5.6
Q 12.0,5.3,11.1,5.8
 " /> 
<path  
style="fill:rgb(7,193,201)" 
d="M 51.1 59.6
Q 50.9,59.7,50.7,59.9
Q 51.1,60.4,51.6,60.9
Q 51.6,59.5,51.1,59.6
 " /> 
<path  
style="fill:rgb(7,193,201)" 
d="M 51.1 59.6
Q 49.4,57.3,47.6,56.5
Q 48.1,57.0,48.7,57.6
Q 49.8,58.7,50.7,59.8
Q 50.7,59.8,50.7,59.9
Q 50.9,59.7,51.1,59.6
 " /> 
<path  
style="fill:rgb(14,103,171)" 
d="M 47.6 56.5
Q 47.8,56.0,47.1,56.0
Q 41.6,56.0,37.5,58.8
Q 31.2,63.1,27.4,66.6
Q 26.4,67.5,25.3,68.5
Q 26.2,75.2,26.7,78.2
Q 27.7,84.6,29.8,88.3
Q 30.2,89.0,30.7,89.8
Q 30.7,75.6,31.8,75.6
Q 32.7,75.6,31.4,87.8
Q 31.3,89.5,31.1,91.2
Q 31.8,92.0,32.4,92.9
Q 33.8,94.7,36.1,95.8
Q 38.3,97.0,38.5,96.8
Q 38.6,96.7,37.5,93.0
Q 36.2,88.3,35.8,76.7
Q 35.5,70.1,36.0,69.7
Q 36.8,68.8,37.1,77.8
Q 37.5,96.8,41.4,97.5
Q 44.8,98.2,48.2,95.4
Q 51.7,92.5,51.6,89.6
Q 51.5,86.8,46.6,71.0
Q 45.2,66.7,45.7,66.2
Q 47.4,64.5,51.1,80.9
Q 52.1,85.1,52.7,86.9
Q 53.0,84.8,53.2,82.7
Q 53.6,78.6,53.5,75.8
Q 53.4,74.4,53.3,72.9
Q 52.7,72.0,52.2,71.0
Q 52.1,70.8,52.0,70.7
Q 49.6,66.8,51.1,67.2
Q 51.8,67.4,52.5,68.8
Q 52.9,69.5,53.3,70.3
Q 53.2,69.0,53.1,67.8
Q 52.9,65.4,51.6,60.9
Q 51.1,60.4,50.7,59.9
Q 50.7,59.8,50.7,59.8
Q 49.8,58.7,48.7,57.6
Q 48.1,57.0,47.6,56.5
 " /> 
<path  
style="fill:rgb(7,193,201)" 
d="M 45.0 92.4
Q 45.9,96.0,46.6,96.0
Q 47.2,96.0,46.9,94.8
Q 46.5,93.3,44.2,81.9
Q 44.0,80.9,43.6,80.9
Q 42.1,80.9,45.0,92.4
 " /> 
<path  
style="fill:rgb(4,4,4)" 
d="M 25.3 68.0
Q 24.5,68.1,23.7,68.1
Q 23.7,68.7,23.7,69.2
Q 24.5,68.5,25.3,68.5
Q 25.3,68.3,25.3,68.5
 " /> 
<path  
style="fill:rgb(4,4,4)" 
d="M 25.3 68.0
Q 25.3,66.9,25.3,65.8
Q 25.0,65.9,25.0,65.7
Q 24.3,66.0,23.6,66.3
Q 23.6,67.2,23.7,68.1
Q 24.5,68.1,25.3,68.0
 " /> 
<path  
style="fill:rgb(7,193,201)" 
d="M 25.3 65.8
Q 25.3,65.2,25.3,64.7
Q 25.1,64.1,24.9,63.6
Q 24.9,65.3,24.9,65.6
Q 24.9,65.7,25.0,65.7
Q 25.0,65.9,25.3,65.8
 " /> 
<path  
style="fill:rgb(4,4,4)" 
d="M 24.9 63.6
Q 24.9,62.3,24.9,60.9
Q 24.8,61.0,24.7,61.0
Q 24.4,61.0,24.4,57.8
Q 23.9,57.8,23.3,57.7
Q 23.1,60.3,23.1,64.0
Q 23.4,64.0,23.5,64.2
Q 23.6,64.5,23.6,66.3
Q 24.3,66.0,25.0,65.7
Q 24.9,65.7,24.9,65.6
Q 24.9,65.3,24.9,63.6
 " /> 
<path  
style="fill:rgb(7,193,201)" 
d="M 24.9 63.6
Q 25.1,64.1,25.3,64.7
Q 25.3,64.7,25.3,64.7
Q 25.3,63.5,25.1,63.6
Q 25.0,63.6,24.9,63.6
 " /> 
<path  
style="fill:rgb(7,193,201)" 
d="M 24.9 60.9
Q 24.9,59.4,24.9,57.8
Q 24.7,57.8,24.4,57.8
Q 24.4,61.0,24.7,61.0
Q 24.8,61.0,24.9,60.9
 " /> 
<path  
style="fill:rgb(14,103,171)" 
d="M 24.9 57.8
Q 24.9,56.7,24.9,55.6
Q 24.8,55.6,24.7,55.6
Q 24.5,55.7,24.4,57.8
Q 24.7,57.8,24.9,57.8
 " /> 
<path  
style="fill:rgb(4,4,4)" 
d="M 24.9 55.6
Q 24.2,55.5,23.6,55.4
Q 23.3,57.0,23.2,59.5
Q 23.9,57.7,24.4,57.8
Q 24.5,55.7,24.7,55.6
Q 24.8,55.6,24.9,55.6
 " /> 
<path  
style="fill:rgb(4,4,4)" 
d="M 24.9 55.6
Q 26.7,51.6,27.6,49.4
Q 28.4,47.2,29.3,40.9
Q 29.0,39.8,29.1,38.4
Q 28.3,38.3,27.6,38.3
Q 27.6,39.4,27.6,40.5
Q 27.5,43.1,27.3,43.1
Q 27.2,43.1,27.1,43.2
Q 25.3,50.7,24.2,53.2
Q 23.9,54.0,23.6,55.4
Q 24.2,55.5,24.9,55.6
 " /> 
<path  
style="fill:rgb(14,103,171)" 
d="M 29.3 40.9
Q 29.3,38.9,29.3,36.9
Q 29.2,37.7,29.1,38.4
Q 29.0,39.8,29.3,40.9
 " /> 
<path  
style="fill:rgb(4,4,4)" 
d="M 29.3 36.9
Q 29.1,35.1,28.8,33.3
Q 27.5,24.2,26.4,20.8
Q 25.7,18.7,25.8,16.4
Q 25.9,14.1,25.3,14.1
Q 24.7,14.1,24.4,17.6
Q 23.7,23.8,22.4,31.0
Q 22.1,32.5,23.0,32.5
Q 23.9,32.5,24.4,29.9
Q 24.9,27.4,25.4,26.2
Q 25.6,25.5,25.8,24.9
Q 26.4,29.8,27.1,34.7
Q 27.4,34.6,27.5,34.9
Q 27.6,35.2,27.6,38.3
Q 28.3,38.3,29.1,38.4
Q 29.2,37.7,29.3,36.9
 " /> 
<path  
style="fill:rgb(7,193,201)" 
d="M 27.1 34.7
Q 27.1,35.6,27.1,36.5
Q 27.1,38.4,27.6,38.3
Q 27.6,35.2,27.5,34.9
Q 27.4,34.6,27.1,34.7
 " /> 
<path  
style="fill:rgb(7,193,201)" 
d="M 27.6 40.5
Q 27.4,40.5,27.3,40.5
Q 27.1,40.6,27.1,43.2
Q 27.2,43.1,27.3,43.1
Q 27.5,43.1,27.6,40.5
 " /> 
<path  
style="fill:rgb(7,193,201)" 
d="M 23.1 64.0
Q 23.1,66.4,23.3,66.3
Q 23.4,66.3,23.6,66.3
Q 23.6,64.5,23.5,64.2
Q 23.4,64.0,23.1,64.0
 " /> 
<path  
style="fill:rgb(7,193,201)" 
d="M 28.9 91.6
Q 28.9,92.6,28.9,93.6
Q 28.9,95.7,29.1,95.6
Q 29.2,95.6,29.3,95.6
Q 29.3,92.1,29.3,91.8
Q 29.2,91.5,28.9,91.6
 " /> 
<path  
style="fill:rgb(14,103,171)" 
d="M 29.3 98.3
Q 29.3,99.4,29.3,100.5
Q 29.5,100.2,29.6,99.8
Q 29.8,99.2,29.3,98.3
 " /> 
<path  
style="fill:rgb(7,193,201)" 
d="M -28.4 98.3
Q -28.2,98.3,-28.0,98.3
Q -27.5,98.0,-27.4,97.6
Q -27.3,97.2,-27.4,91.7
Q -27.6,85.4,-27.8,85.4
Q -28.0,85.4,-28.2,91.8
Q -28.3,95.0,-28.4,98.3
 " /> 
<path  
style="fill:rgb(4,4,4)" 
d="M 30.7 89.8
Q 30.9,90.5,31.1,91.2
Q 31.2,90.2,30.9,90.0
Q 30.8,89.9,30.7,89.8
 " /> 
<path  
style="fill:rgb(7,193,201)" 
d="M 30.7 89.8
Q 30.8,89.9,30.9,90.0
Q 31.2,90.2,31.1,91.2
Q 31.3,89.5,31.4,87.8
Q 32.7,75.6,31.8,75.6
Q 30.7,75.6,30.7,89.8
 " /> 
<path  
style="fill:rgb(7,193,201)" 
d="M 53.3 70.3
Q 52.7,70.6,52.2,71.0
Q 52.7,72.0,53.3,72.9
Q 53.3,71.6,53.3,70.3
 " /> 
<path  
style="fill:rgb(7,193,201)" 
d="M 53.3 70.3
Q 52.9,69.5,52.5,68.8
Q 51.8,67.4,51.1,67.2
Q 49.6,66.8,52.0,70.7
Q 52.1,70.8,52.2,71.0
Q 52.7,70.6,53.3,70.3
 " /> 
<path  
style="fill:rgb(7,193,201)" 
d="M -35.2 70.2
Q -34.8,71.4,-32.9,67.6
Q -31.1,64.0,-32.1,64.0
Q -32.8,64.0,-34.1,66.8
Q -35.5,69.6,-35.2,70.2
 " /> 
<path  
style="fill:rgb(97,247,248)" 
d="M -49.8 -8.0
Q -50.0,-7.6,-50.2,-7.3
Q -50.7,-6.7,-52.0,-5.7
Q -52.6,-5.0,-53.1,-4.2
Q -58.2,2.9,-58.3,7.8
Q -58.6,15.6,-47.7,2.2
Q -40.0,-7.3,-39.1,-9.8
Q -38.9,-10.5,-37.7,-11.8
Q -36.6,-13.1,-35.1,-15.0
Q -33.7,-16.8,-33.0,-16.8
Q -31.9,-16.8,-34.6,-13.2
Q -36.4,-10.8,-36.4,-10.6
Q -36.4,-10.3,-33.7,-8.9
Q -31.6,-7.8,-31.2,-7.8
Q -30.5,-7.7,-29.3,-11.0
Q -28.3,-13.3,-27.4,-13.3
Q -26.3,-13.3,-28.2,-9.1
Q -29.4,-6.4,-29.5,-5.7
Q -29.7,-5.0,-31.5,-2.2
Q -36.5,5.4,-38.0,11.6
Q -39.4,16.9,-36.8,16.9
Q -35.3,16.9,-34.3,16.0
Q -33.2,15.1,-31.3,13.8
Q -30.3,13.1,-29.3,12.5
Q -27.1,9.9,-24.9,8.0
Q -21.7,4.1,-20.4,1.8
Q -19.1,0.1,-17.8,-0.8
Q -17.6,-1.2,-17.3,-1.5
Q -16.9,-2.2,-16.4,-2.6
Q -16.2,-2.8,-16.0,-3.1
Q -15.1,-4.4,-14.4,-4.8
Q -14.1,-5.1,-13.8,-5.3
Q -13.4,-5.1,-13.1,-4.8
Q -12.4,-4.4,-13.6,-3.0
Q -14.8,-1.7,-16.8,1.3
Q -15.1,1.6,-13.4,1.9
Q -10.0,2.5,-0.0,3.6
Q 2.2,3.6,4.4,3.6
Q 5.4,3.6,6.4,3.6
Q 8.3,3.6,10.2,3.2
Q 11.3,3.2,12.4,3.2
Q 18.2,2.3,21.7,1.4
Q 25.1,0.4,27.0,0.2
Q 28.4,0.0,28.6,-0.3
Q 29.2,-1.0,26.9,-6.4
Q 26.3,-7.8,26.6,-8.3
Q 28.0,-10.6,32.5,4.9
Q 35.3,14.7,37.0,12.8
Q 38.8,10.8,39.5,6.0
Q 40.6,-1.0,36.4,-10.6
Q 34.5,-15.1,35.3,-15.1
Q 36.6,-15.1,39.6,-7.4
Q 40.6,-4.8,41.3,-5.4
Q 45.1,-8.5,45.3,-9.2
Q 45.5,-9.9,45.1,-11.5
Q 43.0,-19.1,43.5,-19.6
Q 44.3,-20.4,45.0,-18.4
Q 47.1,-12.2,48.4,-5.1
Q 50.4,5.5,52.5,3.3
Q 54.4,1.3,55.8,-5.1
Q 57.6,-13.7,54.4,-21.5
Q 52.4,-26.2,53.5,-26.2
Q 55.4,-26.2,57.1,-19.4
Q 57.6,-17.2,58.1,-17.5
Q 58.4,-17.6,58.7,-17.7
Q 59.0,-18.2,59.3,-18.6
Q 60.0,-19.5,60.7,-19.9
Q 61.0,-20.2,61.3,-20.4
Q 62.4,-22.0,63.6,-23.5
Q 77.5,-43.0,77.4,-66.4
Q 77.3,-91.0,71.1,-104.2
Q 68.6,-109.4,62.7,-116.4
Q 61.4,-117.3,60.9,-118.0
Q 60.7,-118.3,60.4,-118.6
Q 59.2,-119.5,58.0,-120.4
Q 53.3,-123.8,48.2,-125.9
Q 45.6,-127.0,45.4,-127.7
Q 45.0,-129.4,47.7,-128.4
Q 48.9,-128.0,50.0,-127.7
Q 50.6,-127.5,51.1,-127.4
Q 46.7,-139.1,39.2,-144.1
Q 27.7,-151.8,16.2,-144.7
Q 15.2,-144.1,14.2,-143.5
Q 12.4,-141.3,10.2,-139.5
Q 7.6,-136.0,6.6,-134.6
Q 6.1,-133.9,6.1,-133.7
Q 6.0,-133.3,0.4,-133.5
Q 0.2,-133.5,0.0,-133.6
Q -2.0,-133.7,-3.4,-133.9
Q -6.1,-134.3,-6.6,-135.2
Q -11.9,-145.9,-21.1,-150.2
Q -36.5,-157.5,-43.8,-142.9
Q -47.1,-136.4,-47.1,-133.3
Q -47.1,-130.0,-49.1,-130.0
Q -49.7,-129.9,-51.5,-128.2
Q -53.3,-126.5,-53.0,-125.9
Q -52.8,-125.4,-55.0,-123.7
Q -63.4,-117.2,-67.5,-99.7
Q -73.1,-76.3,-61.5,-43.3
Q -56.8,-30.0,-44.7,-15.5
Q -39.8,-22.1,-39.1,-21.4
Q -37.8,-20.2,-47.4,-10.4
Q -48.6,-9.2,-49.8,-8.0
 " /> 
<path  
style="fill:rgb(4,4,4)" 
d="M 17.9 -8.5
Q 19.3,-7.5,20.1,-7.5
Q 21.8,-7.5,19.5,-9.5
Q 14.6,-13.6,6.0,-12.4
Q -3.1,-11.2,-3.1,-9.6
Q -3.1,-8.7,-1.9,-9.0
Q 12.3,-12.6,17.9,-8.5
 " /> 
<path  
style="fill:rgb(4,4,4)" 
d="M 12.7 -34.1
Q 14.8,-29.7,15.4,-29.7
Q 16.8,-29.7,13.7,-35.7
Q 10.8,-41.1,10.3,-40.2
Q 10.0,-39.6,12.7,-34.1
 " /> 
<path  
style="fill:rgb(4,4,4)" 
d="M -1.5 -30.5
Q -0.7,-29.7,1.0,-32.6
Q 2.3,-34.8,3.9,-37.2
Q 6.6,-41.3,5.4,-41.3
Q 4.1,-41.3,-0.2,-33.7
Q -1.8,-30.8,-1.5,-30.5
 " /> 
<path  
style="fill:rgb(4,4,4)" 
d="M 23.6 -45.3
Q 24.0,-44.9,24.4,-44.6
Q 25.3,-43.9,26.0,-43.1
Q 26.3,-42.6,26.7,-42.2
Q 27.4,-41.6,28.2,-41.1
Q 31.1,-39.0,37.3,-39.0
Q 46.1,-39.0,56.0,-48.9
Q 65.0,-57.8,66.8,-70.1
Q 69.0,-84.5,61.3,-97.7
Q 56.0,-106.8,50.3,-108.3
Q 49.4,-108.6,48.4,-108.8
Q 47.3,-108.8,46.2,-108.8
Q 44.0,-108.9,40.0,-106.2
Q 39.6,-105.7,39.3,-105.3
Q 38.6,-104.5,38.0,-104.0
Q 37.6,-103.7,37.3,-103.5
Q 33.8,-99.1,32.0,-96.0
Q 25.4,-84.4,20.0,-69.1
Q 18.1,-63.7,17.3,-62.0
Q 12.8,-51.7,14.7,-51.2
Q 15.5,-51.0,16.0,-52.7
Q 16.5,-54.4,17.0,-55.5
Q 17.2,-56.1,17.4,-56.6
Q 18.2,-54.9,19.0,-53.2
Q 20.6,-49.7,23.6,-45.3
 " /> 
<path  
style="fill:rgb(31,181,0)" 
d="M 37.8 -41.7
Q 36.4,-41.7,35.1,-41.7
Q 36.4,-41.2,37.1,-41.5
Q 37.4,-41.6,37.8,-41.7
 " /> 
<path  
style="fill:rgb(115,250,3)" 
d="M 37.8 -41.7
Q 38.9,-42.0,40.0,-42.2
Q 42.2,-42.6,44.2,-43.6
Q 46.3,-44.6,50.2,-47.1
Q 50.5,-47.4,50.7,-47.7
Q 51.1,-48.4,51.8,-48.8
Q 52.1,-49.1,52.4,-49.3
Q 53.7,-50.5,54.9,-51.7
Q 61.1,-58.0,63.5,-67.5
Q 64.0,-69.3,64.4,-71.1
Q 64.4,-73.1,64.7,-73.2
Q 64.8,-73.2,64.9,-73.3
Q 64.9,-86.9,58.3,-97.7
Q 50.3,-110.7,42.0,-104.8
Q 35.9,-100.4,27.4,-81.9
Q 18.6,-62.7,19.9,-58.8
Q 20.5,-56.8,24.9,-48.0
Q 27.1,-46.2,28.9,-44.0
Q 29.8,-43.5,30.6,-43.0
Q 32.4,-42.1,33.8,-41.9
Q 34.4,-41.8,35.1,-41.7
Q 36.4,-41.7,37.8,-41.7
 " /> 
<path  
style="fill:rgb(115,250,3)" 
d="M 43.6 -72.0
Q 44.6,-72.1,45.6,-72.2
Q 49.0,-72.6,50.9,-68.7
Q 52.1,-66.4,53.8,-65.6
Q 54.7,-65.1,54.7,-66.6
Q 54.1,-67.1,53.5,-67.5
Q 52.4,-68.4,51.8,-70.2
Q 51.4,-71.1,51.1,-72.0
Q 50.9,-72.2,50.7,-72.4
Q 50.2,-72.8,49.3,-74.2
Q 48.6,-74.2,47.8,-74.2
Q 46.2,-74.2,43.6,-72.0
 " /> 
<path  
style="fill:rgb(31,181,0)" 
d="M 43.6 -72.0
Q 42.6,-70.8,41.6,-69.7
Q 38.0,-65.7,35.1,-63.6
Q 32.4,-61.7,30.3,-61.4
Q 30.3,-61.3,29.5,-61.3
Q 28.5,-61.3,27.6,-61.3
Q 27.2,-61.0,26.9,-60.6
Q 24.9,-58.6,24.9,-55.9
Q 24.9,-53.8,27.0,-52.6
Q 46.3,-41.4,57.7,-61.2
Q 66.4,-76.2,61.3,-86.5
Q 59.3,-90.6,56.9,-88.8
Q 56.7,-88.6,56.4,-88.4
Q 58.2,-83.5,58.5,-78.5
Q 59.2,-66.4,54.7,-66.6
Q 54.7,-65.1,53.8,-65.6
Q 52.1,-66.4,50.9,-68.7
Q 49.0,-72.6,45.6,-72.2
Q 44.6,-72.1,43.6,-72.0
 " /> 
<path  
style="fill:rgb(4,4,4)" 
d="M 43.6 -72.0
Q 46.2,-74.2,47.8,-74.2
Q 48.6,-74.2,49.3,-74.2
Q 50.2,-73.6,50.7,-72.9
Q 51.3,-73.3,52.0,-73.7
Q 50.1,-77.0,47.4,-76.5
Q 44.1,-76.0,38.7,-69.3
Q 36.4,-66.6,34.2,-64.8
Q 34.7,-64.2,35.1,-63.6
Q 38.0,-65.7,41.6,-69.7
Q 42.6,-70.8,43.6,-72.0
 " /> 
<path  
style="fill:rgb(4,4,4)" 
d="M 27.6 -61.3
Q 27.7,-62.1,27.9,-62.9
Q 27.5,-63.0,27.1,-63.1
Q 26.9,-62.3,26.6,-61.6
Q 27.0,-61.4,27.6,-61.3
 " /> 
<path  
style="fill:rgb(4,4,4)" 
d="M 27.6 -61.3
Q 28.5,-61.3,29.5,-61.3
Q 30.3,-61.3,31.1,-61.5
Q 30.9,-62.3,30.7,-63.1
Q 30.2,-62.9,29.8,-62.8
Q 29.1,-62.6,27.9,-62.9
Q 27.7,-62.1,27.6,-61.3
 " /> 
<path  
style="fill:rgb(4,4,4)" 
d="M 54.7 -66.6
Q 59.2,-66.4,58.5,-78.5
Q 58.2,-83.5,56.4,-88.4
Q 55.1,-91.5,54.1,-93.3
Q 53.2,-95.1,52.5,-95.1
Q 51.3,-95.1,53.5,-90.8
Q 56.3,-85.1,56.7,-79.5
Q 56.8,-78.0,56.9,-76.4
Q 56.9,-73.4,56.4,-73.3
Q 55.9,-69.4,54.8,-69.9
Q 54.5,-70.0,54.2,-70.2
Q 54.0,-70.4,53.8,-70.6
Q 53.3,-71.0,52.6,-72.4
Q 52.6,-72.5,52.5,-72.6
Q 51.8,-72.3,51.1,-72.0
Q 51.4,-71.1,51.8,-70.2
Q 52.4,-68.4,53.5,-67.5
Q 54.1,-67.1,54.7,-66.6
 " /> 
<path  
style="fill:rgb(4,4,4)" 
d="M 27.1 -63.1
Q 26.8,-63.3,26.4,-63.5
Q 24.4,-64.9,24.5,-63.0
Q 24.6,-62.2,26.6,-61.6
Q 26.9,-62.3,27.1,-63.1
 " /> 
<path  
style="fill:rgb(31,181,0)" 
d="M 27.1 -63.1
Q 27.5,-63.0,27.9,-62.9
Q 29.1,-62.6,29.8,-62.8
Q 30.2,-62.9,30.7,-63.1
Q 28.9,-63.1,27.1,-63.1
 " /> 
<path  
style="fill:rgb(4,4,4)" 
d="M 30.7 -63.1
Q 30.9,-62.3,31.1,-61.5
Q 33.3,-62.2,36.1,-64.4
Q 34.7,-64.2,34.2,-64.8
Q 33.8,-64.6,33.3,-64.4
Q 32.4,-64.0,30.7,-63.1
 " /> 
<path  
style="fill:rgb(31,181,0)" 
d="M 34.2 -64.8
Q 36.4,-66.6,38.7,-69.3
Q 38.0,-68.7,37.3,-68.2
Q 36.0,-67.0,35.1,-65.9
Q 34.7,-65.4,34.2,-64.8
 " /> 
<path  
style="fill:rgb(31,181,0)" 
d="M 52.0 -73.7
Q 52.3,-73.2,52.5,-72.6
Q 52.6,-72.5,52.6,-72.4
Q 53.3,-71.0,53.8,-70.6
Q 54.0,-70.4,54.2,-70.2
Q 53.9,-70.8,53.6,-71.5
Q 52.9,-72.8,52.4,-73.3
Q 52.2,-73.5,52.0,-73.7
 " /> 
<path  
style="fill:rgb(4,4,4)" 
d="M 52.0 -73.7
Q 51.3,-73.3,50.7,-72.9
Q 51.0,-72.5,51.1,-72.0
Q 51.8,-72.3,52.5,-72.6
Q 52.3,-73.2,52.0,-73.7
 " /> 
<path  
style="fill:rgb(31,181,0)" 
d="M 56.4 -73.3
Q 56.9,-73.4,56.9,-76.4
Q 56.8,-76.4,56.7,-76.3
Q 56.5,-76.3,56.4,-73.3
 " /> 
<path  
style="fill:rgb(31,181,0)" 
d="M 51.1 -72.0
Q 51.0,-72.5,50.7,-72.9
Q 50.2,-73.6,49.3,-74.2
Q 50.2,-72.8,50.7,-72.4
Q 50.9,-72.2,51.1,-72.0
 " /> 
<path  
style="fill:rgb(209,251,185)" 
d="M 29.3 -68.4
Q 31.7,-66.1,40.5,-73.7
Q 44.0,-76.7,47.2,-78.4
Q 50.4,-80.1,51.4,-81.1
Q 53.6,-83.5,50.8,-90.0
Q 48.2,-96.1,45.9,-96.7
Q 44.9,-96.9,44.9,-97.6
Q 44.9,-99.0,40.8,-95.0
Q 36.5,-90.8,36.3,-87.0
Q 36.2,-85.9,34.4,-83.0
Q 26.8,-71.0,29.3,-68.4
 " /> 
<path  
style="fill:rgb(31,181,0)" 
d="M 24.9 -48.0
Q 25.3,-47.4,25.8,-46.8
Q 26.7,-45.7,27.8,-44.8
Q 28.3,-44.4,28.9,-44.0
Q 27.1,-46.2,24.9,-48.0
 " /> 
<path  
style="fill:rgb(31,181,0)" 
d="M 64.9 -73.3
Q 64.8,-73.2,64.7,-73.2
Q 64.4,-73.1,64.4,-71.1
Q 64.5,-71.1,64.6,-71.1
Q 64.9,-71.2,64.9,-73.3
 " /> 
<path  
style="fill:rgb(31,181,0)" 
d="M 52.4 -49.3
Q 52.1,-49.1,51.8,-48.8
Q 51.1,-48.4,50.7,-47.7
Q 50.5,-47.4,50.2,-47.1
Q 51.5,-48.0,52.4,-49.3
 " /> 
<path  
style="fill:rgb(7,193,201)" 
d="M 23.6 -45.3
Q 23.9,-44.8,24.2,-44.4
Q 24.9,-43.5,25.8,-42.8
Q 26.2,-42.5,26.7,-42.2
Q 26.3,-42.6,26.0,-43.1
Q 25.3,-43.9,24.4,-44.6
Q 24.0,-44.9,23.6,-45.3
 " /> 
<path  
style="fill:rgb(14,103,171)" 
d="M 37.3 -103.5
Q 37.6,-103.7,38.0,-104.0
Q 38.6,-104.5,39.3,-105.3
Q 39.6,-105.7,40.0,-106.2
Q 39.6,-105.8,39.1,-105.5
Q 38.2,-104.8,37.8,-104.2
Q 37.6,-103.8,37.3,-103.5
 " /> 
<path  
style="fill:rgb(7,193,201)" 
d="M 46.2 -108.8
Q 47.3,-108.8,48.4,-108.8
Q 47.1,-109.4,46.2,-108.8
 " /> 
<path  
style="fill:rgb(7,193,201)" 
d="M -18.2 -42.2
Q -19.3,-42.2,-20.4,-42.2
Q -20.1,-42.0,-19.8,-41.9
Q -19.1,-41.7,-18.2,-42.2
 " /> 
<path  
style="fill:rgb(4,4,4)" 
d="M -18.2 -42.2
Q -17.3,-42.3,-16.4,-42.4
Q -12.5,-42.9,-7.6,-47.5
Q -7.3,-47.8,-7.1,-48.1
Q -6.6,-48.8,-6.0,-49.3
Q -5.6,-49.5,-5.3,-49.7
Q -4.9,-50.4,-4.4,-51.1
Q -3.6,-52.4,-1.7,-56.1
Q -1.3,-54.5,-0.9,-52.8
Q 0.2,-48.1,1.2,-49.5
Q 1.5,-49.9,0.0,-58.2
Q -8.9,-107.0,-29.3,-114.3
Q -38.4,-117.5,-45.3,-110.0
Q -50.0,-104.8,-52.4,-92.8
Q -52.3,-92.5,-52.2,-92.2
Q -51.9,-91.5,-52.2,-90.8
Q -52.3,-90.5,-52.4,-90.2
Q -52.4,-69.3,-41.9,-55.6
Q -32.8,-43.7,-22.6,-42.4
Q -21.5,-42.3,-20.4,-42.2
Q -19.3,-42.2,-18.2,-42.2
 " /> 
<path  
style="fill:rgb(115,250,3)" 
d="M -39.6 -56.0
Q -36.5,-53.3,-33.8,-50.2
Q -32.6,-49.4,-31.3,-48.6
Q -18.2,-40.2,-9.2,-49.4
Q -2.8,-55.9,-2.9,-61.8
Q -3.2,-71.4,-10.6,-89.1
Q -21.1,-113.8,-35.3,-112.7
Q -45.9,-111.9,-49.1,-97.5
Q -49.5,-96.1,-49.8,-94.6
Q -49.8,-94.1,-49.8,-93.6
Q -49.8,-92.6,-50.2,-92.4
Q -50.2,-72.1,-41.3,-58.6
Q -40.4,-57.3,-39.6,-56.0
 " /> 
<path  
style="fill:rgb(4,4,4)" 
d="M -43.1 -93.3
Q -42.8,-78.0,-38.8,-70.3
Q -34.8,-62.7,-30.4,-67.6
Q -28.5,-69.8,-26.6,-70.7
Q -26.8,-70.9,-26.9,-71.2
Q -27.3,-71.1,-27.7,-70.9
Q -27.4,-71.3,-27.1,-71.7
Q -25.5,-73.6,-23.5,-72.6
Q -22.7,-72.2,-22.0,-71.8
Q -22.2,-71.8,-22.5,-71.7
Q -22.9,-71.6,-24.2,-71.6
Q -25.6,-71.6,-26.7,-71.3
Q -26.8,-71.2,-26.9,-71.2
Q -26.8,-70.9,-26.6,-70.7
Q -23.6,-72.1,-21.0,-70.3
Q -19.7,-69.4,-17.5,-67.5
Q -13.1,-63.6,-10.0,-63.3
Q -9.0,-63.2,-8.0,-63.1
Q -7.1,-63.1,-7.1,-63.7
Q -7.1,-64.3,-8.7,-64.5
Q -10.2,-64.8,-14.2,-67.1
Q -14.9,-67.6,-15.5,-68.2
Q -16.9,-69.3,-18.7,-71.5
Q -19.5,-72.3,-20.4,-73.1
Q -22.1,-74.7,-24.0,-75.1
Q -24.6,-75.0,-25.1,-75.0
Q -26.3,-74.9,-26.7,-74.8
Q -26.9,-74.7,-27.1,-74.6
Q -27.7,-74.2,-28.2,-73.7
Q -29.3,-72.9,-30.7,-70.2
Q -31.2,-69.5,-31.8,-68.9
Q -33.0,-67.6,-33.8,-68.0
Q -34.6,-68.6,-35.3,-69.3
Q -36.9,-70.6,-38.2,-74.7
Q -41.3,-84.5,-41.3,-90.8
Q -41.3,-92.5,-41.3,-94.2
Q -41.3,-94.7,-41.3,-95.2
Q -41.3,-96.2,-41.1,-96.3
Q -41.0,-96.3,-40.9,-96.4
Q -40.6,-97.3,-40.2,-98.2
Q -39.6,-100.0,-38.6,-101.3
Q -37.7,-102.6,-38.0,-103.4
Q -38.3,-104.2,-39.8,-102.4
Q -42.9,-98.9,-43.1,-93.3
 " /> 
<path  
style="fill:rgb(31,181,0)" 
d="M -43.1 -93.3
Q -43.3,-93.0,-43.6,-92.6
Q -44.0,-92.0,-44.2,-92.0
Q -47.3,-92.0,-45.6,-81.9
Q -41.4,-57.3,-29.0,-51.2
Q -19.6,-46.6,-10.1,-55.4
Q -6.7,-58.6,-8.0,-63.1
Q -9.0,-63.2,-10.0,-63.3
Q -13.1,-63.6,-17.5,-67.5
Q -19.7,-69.4,-21.0,-70.3
Q -23.6,-72.1,-26.6,-70.7
Q -28.5,-69.8,-30.4,-67.6
Q -34.8,-62.7,-38.8,-70.3
Q -42.8,-78.0,-43.1,-93.3
 " /> 
<path  
style="fill:rgb(31,181,0)" 
d="M -40.9 -96.4
Q -41.0,-96.3,-41.1,-96.3
Q -41.3,-96.2,-41.3,-95.2
Q -41.3,-94.7,-41.3,-94.2
Q -41.2,-94.2,-41.1,-94.2
Q -40.9,-94.3,-40.9,-95.4
Q -40.9,-95.9,-40.9,-96.4
 " /> 
<path  
style="fill:rgb(31,181,0)" 
d="M -33.8 -68.0
Q -33.0,-67.6,-31.8,-68.9
Q -31.2,-69.5,-30.7,-70.2
Q -31.0,-69.9,-31.3,-69.6
Q -32.0,-69.0,-32.9,-68.5
Q -33.3,-68.2,-33.8,-68.0
 " /> 
<path  
style="fill:rgb(31,181,0)" 
d="M -27.1 -74.6
Q -26.9,-74.7,-26.7,-74.8
Q -26.3,-74.9,-25.1,-75.0
Q -24.6,-75.0,-24.0,-75.1
Q -24.4,-75.2,-24.9,-75.4
Q -25.7,-75.7,-26.4,-75.1
Q -26.8,-74.9,-27.1,-74.6
 " /> 
<path  
style="fill:rgb(31,181,0)" 
d="M -18.7 -71.5
Q -16.9,-69.3,-15.5,-68.2
Q -14.9,-67.6,-14.2,-67.1
Q -14.8,-67.7,-15.3,-68.4
Q -16.5,-69.7,-18.7,-71.5
 " /> 
<path  
style="fill:rgb(209,251,185)" 
d="M -12.7 -71.9
Q -10.4,-70.7,-10.1,-71.0
Q -9.7,-71.4,-12.4,-77.0
Q -23.6,-100.7,-30.2,-95.3
Q -33.1,-92.8,-33.8,-89.2
Q -35.2,-81.4,-24.8,-78.2
Q -20.2,-76.7,-17.6,-75.0
Q -14.9,-73.2,-12.7,-71.9
 " /> 
<path  
style="fill:rgb(255,255,255)" 
d="M -27.1 -71.7
Q -27.0,-71.4,-26.9,-71.2
Q -26.8,-71.2,-26.7,-71.3
Q -25.6,-71.6,-24.2,-71.6
Q -22.9,-71.6,-22.5,-71.7
Q -22.2,-71.8,-22.0,-71.8
Q -22.7,-72.2,-23.5,-72.6
Q -25.5,-73.6,-27.1,-71.7
 " /> 
<path  
style="fill:rgb(255,255,255)" 
d="M -27.1 -71.7
Q -27.4,-71.3,-27.7,-70.9
Q -27.3,-71.1,-26.9,-71.2
Q -27.0,-71.4,-27.1,-71.7
 " /> 
<path  
style="fill:rgb(31,181,0)" 
d="M -39.6 -56.0
Q -38.9,-55.2,-38.2,-54.4
Q -36.9,-52.9,-33.8,-50.2
Q -36.5,-53.3,-39.6,-56.0
 " /> 
<path  
style="fill:rgb(31,181,0)" 
d="M -50.2 -92.4
Q -49.8,-92.6,-49.8,-93.6
Q -49.8,-94.1,-49.8,-94.6
Q -49.9,-94.6,-50.0,-94.5
Q -50.2,-94.5,-50.2,-93.4
Q -50.2,-92.9,-50.2,-92.4
 " /> 
<path  
style="fill:rgb(14,103,171)" 
d="M -52.4 -92.8
Q -52.4,-91.5,-52.4,-90.2
Q -52.3,-90.5,-52.2,-90.8
Q -51.9,-91.5,-52.2,-92.2
Q -52.3,-92.5,-52.4,-92.8
 " /> 
<path  
style="fill:rgb(7,193,201)" 
d="M -5.3 -49.7
Q -5.6,-49.5,-6.0,-49.3
Q -6.6,-48.8,-7.1,-48.1
Q -7.3,-47.8,-7.6,-47.5
Q -7.2,-47.7,-6.9,-48.0
Q -6.2,-48.4,-5.8,-49.1
Q -5.6,-49.4,-5.3,-49.7
 " /> 
<path  
style="fill:rgb(14,103,171)" 
d="M -49.8 -8.0
Q -50.1,-7.7,-50.4,-7.5
Q -51.1,-7.0,-52.0,-5.7
Q -50.7,-6.7,-50.2,-7.3
Q -50.0,-7.6,-49.8,-8.0
 " /> 
<path  
style="fill:rgb(7,193,201)" 
d="M 10.2 -139.5
Q 12.4,-141.3,14.2,-143.5
Q 13.7,-143.1,13.1,-142.6
Q 12.0,-141.7,11.1,-140.6
Q 10.7,-140.1,10.2,-139.5
 " /> 
<path  
style="fill:rgb(7,193,201)" 
d="M 60.4 -118.6
Q 60.7,-118.3,60.9,-118.0
Q 61.4,-117.3,62.7,-116.4
Q 61.8,-117.7,61.1,-118.2
Q 60.8,-118.4,60.4,-118.6
 " /> 
<path  
style="fill:rgb(14,103,171)" 
d="M 61.3 -20.4
Q 61.0,-20.2,60.7,-19.9
Q 60.0,-19.5,59.3,-18.6
Q 59.0,-18.2,58.7,-17.7
Q 59.1,-18.1,59.5,-18.4
Q 60.4,-19.1,60.9,-19.7
Q 61.1,-20.1,61.3,-20.4
 " /> 
<path  
style="fill:rgb(14,103,171)" 
d="M 12.4 3.2
Q 11.3,3.2,10.2,3.2
Q 10.5,3.3,10.9,3.4
Q 11.5,3.7,12.4,3.2
 " /> 
<path  
style="fill:rgb(14,103,171)" 
d="M 4.4 3.6
Q 2.2,3.6,0.0,3.6
Q 0.6,3.7,1.1,3.8
Q 2.2,4.1,4.4,3.6
 " /> 
<path  
style="fill:rgb(7,193,201)" 
d="M -13.8 -5.3
Q -14.1,-5.1,-14.4,-4.8
Q -15.1,-4.4,-16.0,-3.1
Q -14.7,-4.0,-14.2,-4.6
Q -14.0,-5.0,-13.8,-5.3
 " /> 
<path  
style="fill:rgb(7,193,201)" 
d="M -17.8 -0.8
Q -19.1,0.1,-20.4,1.8
Q -20.0,1.5,-19.6,1.2
Q -18.7,0.5,-18.2,-0.2
Q -18.0,-0.5,-17.8,-0.8
 " /> 
<path  
style="fill:rgb(14,103,171)" 
d="M -24.9 8.0
Q -27.1,9.9,-29.3,12.5
Q -28.7,11.9,-28.0,11.4
Q -26.7,10.3,-24.9,8.0
 " /> 
<path  
style="fill:rgb(97,247,248)" 
d="M 73.8 -36.8
Q 73.7,-36.7,73.6,-36.6
Q 73.3,-36.4,73.3,-35.5
Q 73.6,-36.2,73.8,-36.8
 " /> 
<path  
style="fill:rgb(4,4,4)" 
d="M 73.8 -36.8
Q 83.1,-39.5,87.8,-41.7
Q 92.4,-43.9,92.7,-43.5
Q 93.2,-42.6,85.1,-39.2
Q 81.4,-37.6,73.3,-35.5
Q 69.8,-28.4,68.0,-25.6
Q 66.6,-23.3,66.5,-23.0
Q 66.2,-21.6,80.1,-26.9
Q 94.3,-32.4,107.1,-42.2
Q 107.4,-42.6,107.8,-43.0
Q 108.5,-43.9,109.1,-44.4
Q 109.4,-44.6,109.8,-44.8
Q 111.1,-48.0,110.9,-48.2
Q 110.4,-48.9,103.6,-45.9
Q 99.3,-44.0,98.8,-46.0
Q 98.5,-47.5,100.7,-50.3
Q 101.7,-51.6,104.0,-54.6
Q 104.2,-54.9,104.5,-55.3
Q 104.9,-55.9,105.6,-56.4
Q 105.9,-56.6,106.2,-56.8
Q 106.4,-57.1,106.6,-57.3
Q 107.1,-57.8,107.3,-58.2
Q 107.4,-58.4,107.6,-58.6
Q 108.5,-59.9,109.1,-60.4
Q 109.4,-60.6,109.8,-60.8
Q 117.7,-72.3,121.4,-80.7
Q 126.4,-92.2,125.6,-97.9
Q 125.4,-99.5,125.1,-99.7
Q 123.6,-100.8,117.3,-92.4
Q 114.8,-89.0,113.9,-87.8
Q 111.9,-85.3,111.1,-87.1
Q 110.5,-88.4,117.1,-106.4
Q 125.7,-129.9,120.7,-138.6
Q 118.8,-142.0,113.3,-132.4
Q 113.3,-132.0,113.2,-131.6
Q 113.0,-130.8,112.0,-130.2
Q 110.7,-126.2,109.6,-123.6
Q 106.3,-115.7,105.1,-115.2
Q 102.0,-114.0,99.3,-124.8
Q 94.6,-143.7,89.9,-147.5
Q 87.9,-149.1,86.5,-143.6
Q 86.3,-143.1,86.2,-142.6
Q 86.2,-140.6,85.8,-140.4
Q 85.8,-139.3,85.8,-138.2
Q 85.8,-135.7,85.3,-135.5
Q 85.2,-134.6,85.1,-133.7
Q 84.1,-125.6,78.8,-128.3
Q 77.1,-129.2,75.4,-131.5
Q 74.0,-133.3,73.8,-133.5
Q 73.2,-134.1,73.8,-132.1
Q 75.2,-127.7,74.0,-125.0
Q 73.0,-122.9,67.8,-126.7
Q 67.2,-127.1,66.7,-127.5
Q 66.3,-127.7,66.0,-128.0
Q 65.4,-128.4,64.9,-129.1
Q 64.7,-129.4,64.4,-129.7
Q 64.0,-129.2,63.6,-128.7
Q 63.6,-128.7,63.6,-128.7
Q 64.7,-125.5,62.3,-124.2
Q 61.1,-123.5,60.3,-123.6
Q 59.5,-123.7,61.3,-121.3
Q 61.7,-121.1,62.0,-120.8
Q 62.6,-120.4,63.6,-119.1
Q 68.0,-114.6,70.0,-111.6
Q 75.6,-103.2,78.7,-87.1
Q 83.6,-92.8,85.3,-95.6
Q 90.0,-102.8,90.3,-119.9
Q 90.5,-126.3,91.0,-126.5
Q 91.6,-126.7,91.6,-121.2
Q 91.6,-105.0,87.2,-96.3
Q 85.5,-93.0,78.7,-86.6
Q 79.1,-85.3,79.1,-81.7
Q 79.2,-81.8,79.3,-81.8
Q 79.6,-81.8,79.6,-80.5
Q 79.6,-80.5,79.6,-80.5
Q 79.6,-79.8,79.6,-79.1
Q 80.0,-75.1,80.0,-72.2
Q 80.0,-70.7,80.0,-69.3
Q 82.0,-70.7,84.0,-72.2
Q 90.9,-77.2,98.6,-87.2
Q 107.5,-98.8,111.8,-110.1
Q 113.1,-113.3,113.4,-112.9
Q 114.2,-112.1,110.1,-103.4
Q 103.2,-88.8,91.3,-77.1
Q 86.8,-72.7,80.0,-68.4
Q 80.0,-65.7,80.0,-63.1
Q 80.0,-59.6,79.8,-59.6
Q 79.7,-59.5,79.6,-59.5
Q 79.5,-58.5,79.4,-57.5
Q 79.3,-55.5,79.2,-55.3
Q 79.2,-55.2,79.1,-55.1
Q 97.1,-59.6,105.8,-72.4
Q 107.4,-74.8,107.6,-74.8
Q 108.9,-75.0,106.2,-71.0
Q 97.0,-57.5,79.1,-53.7
Q 78.7,-51.7,78.2,-49.7
Q 77.4,-45.7,73.8,-36.8
 " /> 
<path  
style="fill:rgb(97,247,248)" 
d="M 75.7 -107.6
Q 75.4,-106.6,75.9,-106.6
Q 76.9,-106.6,77.8,-111.7
Q 78.9,-118.6,77.2,-118.0
Q 76.7,-117.9,76.8,-115.2
Q 76.9,-112.6,75.7,-107.6
 " /> 
<path  
style="fill:rgb(97,247,248)" 
d="M 68.2 -118.9
Q 67.9,-116.8,68.3,-116.8
Q 68.8,-116.8,69.3,-119.1
Q 70.1,-122.6,68.9,-121.5
Q 68.4,-121.0,68.2,-118.9
 " /> 
<path  
style="fill:rgb(97,247,248)" 
d="M 73.8 -36.8
Q 73.6,-36.2,73.3,-35.5
Q 81.4,-37.6,85.1,-39.2
Q 93.2,-42.6,92.7,-43.5
Q 92.4,-43.9,87.8,-41.7
Q 83.1,-39.5,73.8,-36.8
 " /> 
<path  
style="fill:rgb(97,247,248)" 
d="M 79.1 -53.7
Q 97.0,-57.5,106.2,-71.0
Q 108.9,-75.0,107.6,-74.8
Q 107.4,-74.8,105.8,-72.4
Q 97.1,-59.6,79.1,-55.1
Q 79.1,-54.4,79.1,-53.7
 " /> 
<path  
style="fill:rgb(14,103,171)" 
d="M 79.6 -59.5
Q 79.7,-59.5,79.8,-59.6
Q 80.0,-59.6,80.0,-63.1
Q 79.9,-63.0,79.8,-63.0
Q 79.6,-62.9,79.6,-61.2
Q 79.6,-60.4,79.6,-59.5
 " /> 
<path  
style="fill:rgb(97,247,248)" 
d="M 80.0 -68.4
Q 86.8,-72.7,91.3,-77.1
Q 103.2,-88.8,110.1,-103.4
Q 114.2,-112.1,113.4,-112.9
Q 113.1,-113.3,111.8,-110.1
Q 107.5,-98.8,98.6,-87.2
Q 90.9,-77.2,84.0,-72.2
Q 82.0,-70.7,80.0,-69.3
Q 80.0,-68.8,80.0,-68.4
 " /> 
<path  
style="fill:rgb(14,103,171)" 
d="M 79.6 -79.1
Q 79.6,-79.8,79.6,-80.5
Q 79.3,-81.1,79.1,-81.7
Q 79.1,-79.5,79.2,-79.2
Q 79.2,-79.0,79.6,-79.1
 " /> 
<path  
style="fill:rgb(14,103,171)" 
d="M 79.1 -81.7
Q 79.3,-81.1,79.6,-80.5
Q 79.6,-80.5,79.6,-80.5
Q 79.6,-81.8,79.3,-81.8
Q 79.2,-81.8,79.1,-81.7
 " /> 
<path  
style="fill:rgb(97,247,248)" 
d="M 78.7 -86.6
Q 85.5,-93.0,87.2,-96.3
Q 91.6,-105.0,91.6,-121.2
Q 91.6,-126.7,91.0,-126.5
Q 90.5,-126.3,90.3,-119.9
Q 90.0,-102.8,85.3,-95.6
Q 83.6,-92.8,78.7,-87.1
Q 78.7,-86.8,78.7,-86.6
 " /> 
<path  
style="fill:rgb(14,103,171)" 
d="M 63.6 -119.1
Q 62.6,-120.4,62.0,-120.8
Q 61.7,-121.1,61.3,-121.3
Q 61.6,-121.0,61.8,-120.6
Q 62.2,-120.0,63.6,-119.1
 " /> 
<path  
style="fill:rgb(14,103,171)" 
d="M 64.4 -129.7
Q 64.7,-129.4,64.9,-129.1
Q 65.4,-128.4,66.0,-128.0
Q 66.3,-127.7,66.7,-127.5
Q 66.4,-127.8,66.2,-128.2
Q 65.8,-128.8,64.4,-129.7
 " /> 
<path  
style="fill:rgb(7,193,201)" 
d="M 64.4 -129.7
Q 63.4,-130.1,63.4,-129.9
Q 63.3,-129.7,63.6,-128.7
Q 64.0,-129.2,64.4,-129.7
 " /> 
<path  
style="fill:rgb(14,103,171)" 
d="M 85.3 -135.5
Q 85.8,-135.7,85.8,-138.2
Q 85.7,-138.1,85.6,-138.1
Q 85.4,-138.0,85.4,-136.8
Q 85.3,-136.1,85.3,-135.5
 " /> 
<path  
style="fill:rgb(14,103,171)" 
d="M 85.8 -140.4
Q 86.2,-140.6,86.2,-142.6
Q 86.1,-142.6,86.0,-142.6
Q 85.8,-142.5,85.8,-141.4
Q 85.8,-140.9,85.8,-140.4
 " /> 
<path  
style="fill:rgb(14,103,171)" 
d="M 112.0 -130.2
Q 113.0,-130.8,113.2,-131.6
Q 113.3,-132.0,113.3,-132.4
Q 113.1,-132.2,112.9,-131.9
Q 112.5,-131.5,112.2,-130.8
Q 112.1,-130.5,112.0,-130.2
 " /> 
<path  
style="fill:rgb(14,103,171)" 
d="M 109.8 -60.8
Q 109.4,-60.6,109.1,-60.4
Q 108.5,-59.9,107.6,-58.6
Q 107.9,-58.8,108.2,-59.1
Q 108.9,-59.5,109.3,-60.2
Q 109.5,-60.5,109.8,-60.8
 " /> 
<path  
style="fill:rgb(14,103,171)" 
d="M 106.2 -56.8
Q 105.9,-56.6,105.6,-56.4
Q 104.9,-55.9,104.5,-55.3
Q 104.2,-54.9,104.0,-54.6
Q 104.3,-54.8,104.7,-55.1
Q 105.3,-55.5,105.8,-56.2
Q 106.0,-56.5,106.2,-56.8
 " /> 
<path  
style="fill:rgb(14,103,171)" 
d="M 109.8 -44.8
Q 109.4,-44.6,109.1,-44.4
Q 108.5,-43.9,107.8,-43.0
Q 107.4,-42.6,107.1,-42.2
Q 107.5,-42.5,108.0,-42.8
Q 108.9,-43.5,109.3,-44.2
Q 109.5,-44.5,109.8,-44.8
 " /> 
<path  
style="fill:rgb(4,4,4)" 
d="M 5.3 -135.5
Q 4.3,-134.4,3.1,-135.1
Q 1.8,-135.1,0.4,-135.1
Q 0.4,-134.3,0.4,-133.5
Q 6.0,-133.3,6.1,-133.7
Q 6.1,-133.9,6.6,-134.6
Q 6.0,-135.1,5.3,-135.5
 " /> 
<path  
style="fill:rgb(14,103,171)" 
d="M 5.3 -135.5
Q 4.8,-135.1,3.1,-135.1
Q 4.3,-134.4,5.3,-135.5
 " /> 
<path  
style="fill:rgb(7,193,201)" 
d="M 5.3 -135.5
Q 5.8,-136.3,6.2,-137.1
Q 7.1,-138.6,8.2,-140.0
Q 8.8,-140.6,9.3,-141.3
Q 9.8,-141.8,10.2,-142.4
Q 11.1,-143.5,13.3,-145.3
Q 14.4,-146.1,15.6,-146.8
Q 19.1,-149.3,21.6,-155.7
Q 22.7,-158.8,23.6,-161.0
Q 26.2,-167.6,27.1,-172.2
Q 27.3,-173.4,27.6,-174.6
Q 27.2,-175.0,26.9,-175.3
Q 26.6,-175.4,26.2,-175.5
Q 21.4,-167.6,19.7,-163.4
Q 16.3,-155.3,15.6,-156.6
Q 15.1,-157.6,18.2,-164.6
Q 19.8,-168.1,18.0,-170.8
Q 16.5,-172.8,14.2,-172.8
Q 13.0,-172.8,11.1,-167.0
Q 8.8,-159.9,7.7,-161.0
Q 7.4,-161.3,7.4,-161.8
Q 7.4,-162.3,10.7,-171.5
Q 9.7,-172.5,9.7,-172.9
Q 9.8,-173.2,11.6,-174.6
Q 12.1,-177.0,12.7,-179.3
Q 13.8,-184.0,14.0,-186.9
Q 14.2,-188.4,14.3,-189.9
Q 14.0,-189.5,13.6,-189.0
Q 12.6,-187.6,9.2,-175.0
Q 8.7,-173.2,8.2,-171.5
Q 8.1,-171.1,8.0,-170.6
Q 7.1,-169.7,6.6,-170.2
Q 6.2,-170.6,6.7,-172.0
Q 6.8,-172.6,6.9,-173.3
Q 7.1,-174.6,8.0,-178.2
Q 8.0,-179.5,8.0,-180.8
Q 7.9,-181.5,7.8,-182.2
Q 7.6,-183.5,5.3,-188.4
Q 5.0,-188.6,4.7,-188.8
Q 4.0,-189.3,3.6,-190.0
Q 3.3,-190.3,3.1,-190.6
Q 3.0,-190.6,2.9,-190.5
Q 2.7,-190.5,2.7,-189.2
Q 2.7,-188.6,2.7,-188.0
Q 2.8,-188.0,2.9,-188.0
Q 3.0,-188.1,3.1,-187.8
Q 3.2,-187.6,3.1,-180.8
Q 3.1,-179.7,3.0,-178.5
Q 2.9,-176.9,2.9,-175.2
Q 2.9,-175.2,2.8,-174.9
Q 2.8,-173.4,2.7,-172.3
Q 2.6,-169.5,2.5,-169.3
Q 2.4,-168.9,1.8,-168.8
Q 1.6,-168.8,1.5,-168.8
Q 1.3,-168.7,1.3,-172.4
Q 1.3,-174.0,1.3,-175.5
Q 1.3,-177.1,1.3,-178.6
Q 1.3,-181.3,1.3,-184.0
Q 0.8,-183.8,0.9,-185.9
Q 0.9,-186.9,0.9,-188.0
Q 0.9,-189.3,0.9,-190.6
Q 0.5,-190.5,0.4,-190.7
Q 0.4,-191.0,0.4,-193.3
Q 0.3,-194.3,0.2,-195.3
Q -1.3,-209.0,-3.4,-208.6
Q -3.7,-208.5,-4.2,-207.2
Q -4.9,-205.3,-5.3,-200.8
Q -5.3,-197.5,-5.4,-197.0
Q -5.4,-196.6,-5.8,-196.4
Q -5.8,-191.7,-5.8,-187.1
Q -5.3,-187.2,-5.3,-185.1
Q -5.3,-184.1,-5.3,-183.1
Q -5.3,-181.7,-5.3,-180.4
Q -4.9,-180.5,-4.9,-180.3
Q -4.8,-180.0,-4.9,-178.0
Q -4.9,-176.8,-4.9,-175.5
Q -4.9,-174.4,-4.9,-173.3
Q -4.7,-172.9,-4.6,-172.4
Q -4.3,-171.6,-4.8,-171.1
Q -5.1,-170.9,-5.3,-170.6
Q -6.3,-171.2,-6.3,-171.3
Q -6.2,-171.4,-6.2,-171.5
Q -6.3,-171.5,-6.5,-171.4
Q -6.7,-171.3,-6.7,-175.1
Q -6.7,-176.4,-6.7,-177.7
Q -7.2,-177.6,-7.1,-179.2
Q -7.1,-179.2,-7.1,-179.2
Q -7.1,-180.0,-7.1,-180.8
Q -7.1,-182.4,-7.1,-184.0
Q -7.2,-184.7,-7.3,-185.5
Q -7.6,-187.1,-7.8,-188.6
Q -7.9,-189.4,-8.0,-190.2
Q -8.4,-189.8,-8.9,-189.5
Q -12.4,-186.9,-9.5,-177.3
Q -7.7,-171.0,-8.1,-170.4
Q -9.0,-169.1,-10.7,-174.4
Q -14.4,-186.6,-15.0,-188.2
Q -15.4,-189.3,-16.1,-189.9
Q -15.9,-188.6,-15.8,-187.3
Q -15.5,-184.6,-14.7,-180.2
Q -13.8,-175.7,-13.3,-173.1
Q -12.5,-168.7,-10.8,-162.0
Q -10.1,-159.1,-10.4,-158.3
Q -11.3,-155.9,-12.6,-161.7
Q -13.3,-164.6,-14.2,-168.2
Q -15.1,-171.7,-15.6,-174.4
Q -16.1,-177.0,-16.2,-177.2
Q -16.4,-177.4,-17.7,-176.9
Q -21.2,-175.4,-20.8,-173.0
Q -20.5,-171.4,-13.4,-159.3
Q -11.0,-155.4,-11.3,-154.8
Q -12.5,-151.7,-26.0,-177.5
Q -29.6,-184.3,-30.4,-184.7
Q -30.7,-184.8,-30.9,-183.1
Q -31.0,-182.2,-31.1,-181.3
Q -31.0,-181.3,-30.9,-181.4
Q -30.6,-181.4,-30.6,-180.3
Q -30.6,-180.3,-30.6,-180.3
Q -30.6,-179.7,-30.7,-179.1
Q -30.4,-177.4,-30.2,-175.7
Q -27.6,-156.2,-20.9,-152.5
Q -12.4,-147.9,-6.6,-139.2
Q -5.2,-137.0,-4.7,-136.4
Q -4.1,-135.8,-3.1,-135.5
Q -2.2,-135.5,-1.3,-135.5
Q 0.6,-135.6,0.4,-135.1
Q 1.8,-135.1,3.1,-135.1
Q 4.8,-135.1,5.3,-135.5
 " /> 
<path  
style="fill:rgb(14,103,171)" 
d="M -3.1 -135.5
Q -3.1,-135.5,-3.1,-135.4
Q -3.1,-135.0,-1.4,-135.0
Q -0.5,-135.0,0.4,-135.1
Q 0.6,-135.6,-1.3,-135.5
Q -2.2,-135.5,-3.1,-135.5
 " /> 
<path  
style="fill:rgb(4,4,4)" 
d="M 0.4 -135.1
Q -0.5,-135.0,-1.4,-135.0
Q -3.1,-135.0,-3.1,-135.4
Q -3.2,-134.7,-3.4,-133.9
Q -2.0,-133.7,0.0,-133.6
Q 0.2,-133.5,0.4,-133.5
Q 0.4,-134.3,0.4,-135.1
 " /> 
<path  
style="fill:rgb(14,103,171)" 
d="M -30.7 -179.1
Q -30.6,-179.7,-30.6,-180.3
Q -30.9,-180.8,-31.1,-181.3
Q -31.1,-179.4,-31.1,-179.1
Q -31.0,-178.9,-30.7,-179.1
 " /> 
<path  
style="fill:rgb(14,103,171)" 
d="M -31.1 -181.3
Q -30.9,-180.8,-30.6,-180.3
Q -30.6,-180.3,-30.6,-180.3
Q -30.6,-181.4,-30.9,-181.4
Q -31.0,-181.3,-31.1,-181.3
 " /> 
<path  
style="fill:rgb(14,103,171)" 
d="M -8.0 -190.2
Q -7.9,-189.4,-7.8,-188.6
Q -7.6,-187.1,-7.3,-185.5
Q -7.2,-184.7,-7.1,-184.0
Q -7.1,-185.5,-7.0,-187.1
Q -7.0,-187.1,-7.0,-187.1
Q -6.9,-189.7,-7.1,-190.0
Q -7.2,-190.2,-8.0,-190.2
 " /> 
<path  
style="fill:rgb(4,4,4)" 
d="M -7.1 -184.0
Q -6.4,-184.0,-5.8,-184.0
Q -5.8,-185.0,-5.8,-187.1
Q -6.4,-187.1,-7.0,-187.1
Q -7.1,-185.5,-7.1,-184.0
 " /> 
<path  
style="fill:rgb(4,4,4)" 
d="M -7.1 -184.0
Q -7.1,-182.4,-7.1,-180.8
Q -6.8,-181.0,-6.7,-180.8
Q -6.7,-180.7,-6.7,-180.3
Q -6.0,-180.4,-5.3,-180.4
Q -5.3,-181.7,-5.3,-183.1
Q -5.7,-182.9,-5.7,-183.1
Q -5.7,-183.2,-5.8,-184.0
Q -6.4,-184.0,-7.1,-184.0
 " /> 
<path  
style="fill:rgb(14,103,171)" 
d="M -7.1 -180.8
Q -7.1,-180.0,-7.1,-179.2
Q -6.9,-178.5,-6.7,-177.7
Q -6.7,-179.6,-6.7,-180.3
Q -6.7,-180.7,-6.7,-180.8
Q -6.8,-181.0,-7.1,-180.8
 " /> 
<path  
style="fill:rgb(4,4,4)" 
d="M -6.7 -177.7
Q -6.0,-177.7,-5.3,-177.7
Q -5.3,-178.8,-5.3,-180.4
Q -6.0,-180.4,-6.7,-180.3
Q -6.7,-179.6,-6.7,-177.7
 " /> 
<path  
style="fill:rgb(4,4,4)" 
d="M -6.7 -177.7
Q -6.7,-176.4,-6.7,-175.1
Q -6.6,-175.1,-6.5,-175.1
Q -5.9,-175.3,-5.3,-175.5
Q -5.3,-175.6,-5.3,-175.6
Q -5.3,-175.7,-5.3,-177.7
Q -6.0,-177.7,-6.7,-177.7
 " /> 
<path  
style="fill:rgb(14,103,171)" 
d="M -6.7 -177.7
Q -6.9,-178.5,-7.1,-179.2
Q -7.1,-179.2,-7.1,-179.2
Q -7.2,-177.6,-6.7,-177.7
 " /> 
<path  
style="fill:rgb(14,103,171)" 
d="M -6.7 -175.1
Q -6.7,-171.3,-6.5,-171.4
Q -6.3,-171.5,-6.2,-171.5
Q -6.2,-172.5,-6.2,-173.3
Q -6.2,-174.8,-6.3,-175.0
Q -6.3,-175.0,-6.3,-175.0
Q -6.3,-175.2,-6.5,-175.1
Q -6.6,-175.1,-6.7,-175.1
 " /> 
<path  
style="fill:rgb(4,4,4)" 
d="M -6.2 -171.5
Q -5.8,-171.1,-5.3,-170.6
Q -5.1,-171.2,-5.0,-172.2
Q -4.9,-172.8,-4.9,-173.3
Q -5.6,-173.3,-6.2,-173.3
Q -6.2,-172.5,-6.2,-171.5
 " /> 
<path  
style="fill:rgb(4,4,4)" 
d="M -6.2 -171.5
Q -6.2,-171.4,-6.3,-171.3
Q -6.3,-171.2,-5.3,-170.6
Q -5.8,-171.1,-6.2,-171.5
 " /> 
<path  
style="fill:rgb(14,103,171)" 
d="M -5.3 -170.6
Q -5.1,-170.9,-4.8,-171.1
Q -4.3,-171.6,-4.6,-172.4
Q -4.7,-172.9,-4.9,-173.3
Q -4.9,-172.8,-5.0,-172.2
Q -5.1,-171.2,-5.3,-170.6
 " /> 
<path  
style="fill:rgb(4,4,4)" 
d="M -4.9 -173.3
Q -4.9,-174.4,-4.9,-175.5
Q -5.0,-175.5,-5.1,-175.4
Q -5.7,-175.2,-6.3,-175.0
Q -6.3,-175.0,-6.3,-175.0
Q -6.2,-174.8,-6.2,-173.3
Q -5.6,-173.3,-4.9,-173.3
 " /> 
<path  
style="fill:rgb(14,103,171)" 
d="M -4.9 -175.5
Q -4.9,-176.8,-4.9,-178.0
Q -4.8,-180.0,-4.9,-180.3
Q -4.9,-180.5,-5.3,-180.4
Q -5.3,-178.8,-5.3,-177.7
Q -5.3,-175.7,-5.3,-175.6
Q -5.3,-175.6,-5.3,-175.5
Q -5.2,-175.4,-5.1,-175.4
Q -5.0,-175.5,-4.9,-175.5
 " /> 
<path  
style="fill:rgb(14,103,171)" 
d="M -5.3 -183.1
Q -5.3,-184.1,-5.3,-185.1
Q -5.3,-187.2,-5.8,-187.1
Q -5.8,-185.0,-5.8,-184.0
Q -5.7,-183.2,-5.7,-183.1
Q -5.7,-182.9,-5.3,-183.1
 " /> 
<path  
style="fill:rgb(14,103,171)" 
d="M -5.8 -196.4
Q -5.4,-196.6,-5.4,-197.0
Q -5.3,-197.5,-5.3,-200.8
Q -5.6,-200.7,-5.7,-200.3
Q -5.7,-199.9,-5.8,-196.4
 " /> 
<path  
style="fill:rgb(14,103,171)" 
d="M 0.4 -193.3
Q 0.4,-191.0,0.4,-190.7
Q 0.5,-190.5,0.9,-190.6
Q 0.9,-193.0,0.8,-193.2
Q 0.8,-193.5,0.4,-193.3
 " /> 
<path  
style="fill:rgb(14,103,171)" 
d="M 0.9 -188.0
Q 0.9,-186.9,0.9,-185.9
Q 0.8,-183.8,1.3,-184.0
Q 1.3,-187.3,1.3,-187.8
Q 1.3,-187.9,1.3,-187.9
Q 1.2,-188.1,0.9,-188.0
 " /> 
<path  
style="fill:rgb(4,4,4)" 
d="M 1.3 -184.0
Q 2.0,-184.0,2.7,-184.0
Q 2.7,-185.5,2.7,-188.0
Q 2.0,-187.9,1.3,-187.8
Q 1.3,-187.3,1.3,-184.0
 " /> 
<path  
style="fill:rgb(4,4,4)" 
d="M 1.3 -184.0
Q 1.3,-181.3,1.3,-178.6
Q 2.2,-178.6,3.0,-178.5
Q 3.1,-179.7,3.1,-180.8
Q 2.8,-180.7,2.7,-180.9
Q 2.7,-181.1,2.7,-184.0
Q 2.0,-184.0,1.3,-184.0
 " /> 
<path  
style="fill:rgb(4,4,4)" 
d="M 1.3 -178.6
Q 1.8,-177.3,1.6,-176.4
Q 1.4,-176.0,1.3,-175.5
Q 2.1,-175.5,2.9,-175.4
Q 2.9,-177.1,3.0,-178.8
Q 2.2,-178.6,1.3,-178.6
 " /> 
<path  
style="fill:rgb(14,103,171)" 
d="M 1.3 -178.6
Q 1.3,-177.1,1.3,-175.5
Q 1.4,-176.0,1.6,-176.4
Q 1.8,-177.3,1.3,-178.6
 " /> 
<path  
style="fill:rgb(4,4,4)" 
d="M 1.3 -175.5
Q 1.3,-174.0,1.3,-172.4
Q 1.4,-172.5,1.6,-172.5
Q 1.6,-172.5,1.6,-172.4
Q 2.2,-172.4,2.7,-172.3
Q 2.8,-173.4,2.8,-174.9
Q 2.9,-175.2,2.9,-175.4
Q 2.1,-175.5,1.3,-175.5
 " /> 
<path  
style="fill:rgb(14,103,171)" 
d="M 1.3 -172.4
Q 1.3,-168.7,1.5,-168.8
Q 1.6,-168.8,1.8,-168.8
Q 1.8,-171.8,1.6,-172.4
Q 1.5,-172.4,1.3,-172.4
 " /> 
<path  
style="fill:rgb(4,4,4)" 
d="M 1.8 -168.8
Q 2.4,-168.9,2.5,-169.3
Q 2.6,-169.5,2.7,-172.3
Q 2.2,-172.4,1.6,-172.4
Q 1.8,-171.8,1.8,-168.8
 " /> 
<path  
style="fill:rgb(14,103,171)" 
d="M 3.1 -180.8
Q 3.2,-187.6,3.1,-187.8
Q 3.0,-188.1,2.9,-188.0
Q 2.8,-188.0,2.7,-188.0
Q 2.7,-185.5,2.7,-184.0
Q 2.7,-181.1,2.7,-180.9
Q 2.8,-180.7,3.1,-180.8
 " /> 
<path  
style="fill:rgb(4,4,4)" 
d="M 3.1 -190.6
Q 3.4,-190.4,3.8,-190.2
Q 4.4,-189.7,4.9,-189.1
Q 5.1,-188.7,5.3,-188.4
Q 5.9,-188.9,6.5,-189.4
Q 6.2,-189.7,5.9,-190.1
Q 4.8,-191.2,4.1,-191.8
Q 3.6,-191.2,3.1,-190.6
 " /> 
<path  
style="fill:rgb(14,103,171)" 
d="M 3.1 -190.6
Q 3.3,-190.3,3.6,-190.0
Q 4.0,-189.3,4.7,-188.8
Q 5.0,-188.6,5.3,-188.4
Q 5.1,-188.7,4.9,-189.1
Q 4.4,-189.7,3.8,-190.2
Q 3.4,-190.4,3.1,-190.6
 " /> 
<path  
style="fill:rgb(14,103,171)" 
d="M 8.0 -180.8
Q 8.0,-179.5,8.0,-178.2
Q 8.1,-178.5,8.2,-178.8
Q 8.5,-179.5,8.0,-180.8
 " /> 
<path  
style="fill:rgb(4,4,4)" 
d="M 6.7 -172.0
Q 6.6,-169.9,7.3,-170.2
Q 7.6,-170.4,8.0,-170.6
Q 8.1,-171.1,8.2,-171.5
Q 7.5,-171.7,6.7,-172.0
 " /> 
<path  
style="fill:rgb(14,103,171)" 
d="M 6.7 -172.0
Q 6.2,-170.6,6.6,-170.2
Q 7.1,-169.7,8.0,-170.6
Q 7.6,-170.4,7.3,-170.2
Q 6.6,-169.9,6.7,-172.0
 " /> 
<path  
style="fill:rgb(14,103,171)" 
d="M 11.6 -174.6
Q 9.8,-173.2,9.7,-172.9
Q 9.7,-172.5,10.7,-171.5
Q 10.5,-171.9,10.3,-172.2
Q 9.9,-172.9,11.6,-174.6
 " /> 
<path  
style="fill:rgb(7,193,201)" 
d="M 26.2 -175.5
Q 26.6,-175.4,26.9,-175.3
Q 26.7,-175.5,26.5,-175.7
Q 26.4,-175.6,26.2,-175.5
 " /> 
<path  
style="fill:rgb(7,193,201)" 
d="M 27.6 -174.6
Q 27.5,-175.0,27.5,-175.2
Q 27.1,-175.3,26.8,-175.4
Q 27.2,-175.0,27.6,-174.6
 " /> 
<path  
style="fill:rgb(14,103,171)" 
d="M 27.6 -174.6
Q 27.6,-174.9,27.7,-175.1
Q 27.6,-175.2,27.5,-175.2
Q 27.5,-175.0,27.6,-174.6
 " /> 
<path  
style="fill:rgb(14,103,171)" 
d="M 13.3 -145.3
Q 11.1,-143.5,10.2,-142.4
Q 9.8,-141.8,9.3,-141.3
Q 9.9,-141.7,10.4,-142.2
Q 11.5,-143.1,13.3,-145.3
 " /> 
<path  
style="fill:rgb(4,4,4)" 
d="M -5.3 -175.5
Q -5.9,-175.3,-6.5,-175.1
Q -6.3,-175.1,-6.3,-175.0
Q -5.7,-175.2,-5.1,-175.4
Q -5.2,-175.4,-5.3,-175.6
 " /> 
<path  
style="fill:rgb(14,103,171)" 
d="M 27.7 -175.1
Q 27.7,-175.3,27.8,-175.5
Q 28.2,-177.3,26.9,-176.1
Q 26.7,-176.0,26.5,-175.8
Q 26.5,-175.7,26.6,-175.7
Q 27.3,-176.1,27.5,-175.1
Q 27.6,-175.2,27.7,-175.1
 " /> 
<path  
style="fill:rgb(7,193,201)" 
d="M 26.9 -175.3
Q 27.2,-175.3,27.6,-175.2
Q 27.2,-176.1,26.5,-175.7
Q 26.7,-175.5,26.9,-175.3
 " /> 
</g> 
</svg> 
