<?xml version="1.0"?>
<!DOCTYPE svg PUBLIC "-//W3C//DTD SVG 1.1//EN" "http://www.w3.org/Graphics/SVG/1.1/DTD/svg11.dtd">
<svg xmlns="http://www.w3.org/2000/svg" version="1.1">
<g transform="translate(112.4,225.0)" stroke-width="0" fill="none" >
<path  
style="fill:rgb(4,4,4)" 
d="M 43.0 220.6
Q 45.5,223.2,48.6,216.3
Q 50.2,212.6,64.0,186.8
Q 83.4,150.6,75.8,131.9
Q 71.5,121.2,54.3,111.6
Q 37.0,101.9,35.7,82.9
Q 35.6,80.9,35.4,79.0
Q 40.7,82.1,43.8,83.0
Q 52.4,85.5,57.7,80.2
Q 63.3,74.6,61.1,63.0
Q 58.9,51.4,43.7,23.6
Q 35.4,8.4,30.9,-4.7
Q 29.6,-8.2,28.3,-9.7
Q 27.0,-11.2,27.2,-11.4
Q 27.4,-11.7,29.7,-11.8
Q 31.9,-12.0,33.8,-7.8
Q 38.5,2.6,42.3,-1.4
Q 45.8,-5.2,43.9,-14.4
Q 43.3,-17.4,45.3,-19.5
Q 47.3,-21.5,47.8,-21.7
Q 48.3,-21.9,48.9,-20.0
Q 51.6,-10.7,55.6,-10.7
Q 57.3,-10.7,58.2,-12.6
Q 61.4,-19.6,59.6,-28.8
Q 59.2,-30.7,61.7,-33.0
Q 64.5,-35.6,70.5,-36.7
Q 80.9,-38.7,87.1,-42.4
Q 88.2,-43.1,90.5,-44.2
Q 96.4,-47.1,102.9,-53.6
Q 109.1,-59.9,111.4,-65.8
Q 113.2,-70.4,111.6,-71.4
Q 108.9,-73.0,102.8,-67.2
Q 98.6,-63.3,102.8,-71.6
Q 104.6,-75.3,107.0,-78.9
Q 118.9,-96.5,121.8,-107.5
Q 124.4,-117.3,121.2,-119.8
Q 118.1,-122.1,111.1,-111.9
Q 109.7,-109.8,109.5,-110.0
Q 109.3,-110.2,110.6,-113.7
Q 122.6,-145.6,115.8,-157.2
Q 110.0,-167.2,102.2,-144.1
Q 100.4,-138.5,98.3,-134.1
Q 98.0,-134.9,97.6,-135.6
Q 97.0,-137.2,95.9,-140.8
Q 88.7,-163.7,81.2,-165.4
Q 77.4,-166.2,76.5,-158.0
Q 77.4,-157.9,78.2,-157.8
Q 79.2,-161.6,79.8,-162.5
Q 80.3,-163.4,81.4,-162.9
Q 84.0,-161.7,86.2,-157.6
Q 86.9,-156.4,87.6,-155.2
Q 88.9,-153.8,89.3,-152.1
Q 89.9,-150.6,90.4,-149.2
Q 91.6,-146.3,92.9,-142.0
Q 95.5,-133.7,96.9,-132.7
Q 97.3,-132.4,97.8,-132.1
Q 99.0,-132.2,99.7,-132.8
Q 100.1,-133.1,100.4,-133.4
Q 102.0,-137.5,103.5,-141.6
Q 106.6,-149.9,109.3,-155.6
Q 110.2,-156.9,111.6,-157.8
Q 112.0,-157.7,112.4,-157.6
Q 114.3,-157.1,115.6,-149.0
Q 116.0,-147.2,115.8,-146.3
Q 115.7,-145.8,115.6,-145.4
Q 115.4,-143.5,115.3,-141.6
Q 114.9,-133.3,111.1,-121.8
Q 106.6,-108.2,106.5,-106.3
Q 106.4,-102.6,110.3,-107.5
Q 112.4,-110.3,116.0,-115.2
Q 116.9,-116.5,117.6,-116.9
Q 117.9,-117.2,118.2,-117.4
Q 118.7,-117.6,119.2,-117.8
Q 120.9,-118.6,120.9,-116.5
Q 121.4,-115.6,121.1,-115.0
Q 121.0,-114.6,120.9,-114.3
Q 120.6,-112.7,120.4,-111.2
Q 118.7,-100.2,110.4,-88.1
Q 93.8,-63.6,100.2,-63.6
Q 101.1,-63.6,104.6,-66.4
Q 110.8,-71.2,110.0,-68.3
Q 108.7,-63.0,101.4,-55.0
Q 91.1,-43.8,71.0,-38.7
Q 67.1,-37.7,66.8,-38.0
Q 66.6,-38.2,68.7,-41.0
Q 70.8,-43.9,73.6,-49.4
Q 73.9,-50.1,74.2,-50.7
Q 74.2,-51.0,74.2,-51.2
Q 74.5,-51.8,74.9,-52.5
Q 77.3,-57.4,77.3,-62.3
Q 77.4,-64.4,77.6,-64.5
Q 77.7,-64.5,77.8,-64.5
Q 77.8,-65.6,77.8,-66.7
Q 77.8,-67.8,77.8,-69.0
Q 77.8,-69.2,77.8,-69.4
Q 77.8,-69.2,77.8,-69.0
Q 77.9,-68.6,78.0,-68.3
Q 78.3,-67.6,78.0,-67.2
Q 77.9,-67.0,77.8,-66.7
Q 77.8,-65.6,77.8,-64.5
Q 77.8,-62.4,77.3,-62.3
Q 77.3,-57.4,74.9,-52.5
Q 74.5,-51.8,74.2,-51.2
Q 76.0,-51.8,77.8,-52.5
Q 84.3,-55.0,89.8,-58.8
Q 93.5,-61.4,93.2,-60.1
Q 92.7,-58.5,85.3,-54.5
Q 77.5,-50.4,74.2,-50.7
Q 73.9,-50.1,73.6,-49.4
Q 70.8,-43.9,68.7,-41.0
Q 66.6,-38.2,66.8,-38.0
Q 67.1,-37.7,71.0,-38.7
Q 91.1,-43.8,101.4,-55.0
Q 108.7,-63.0,110.0,-68.3
Q 110.8,-71.2,104.6,-66.4
Q 101.1,-63.6,100.2,-63.6
Q 93.8,-63.6,110.4,-88.1
Q 118.7,-100.2,120.4,-111.2
Q 120.6,-112.7,120.9,-114.3
Q 120.9,-115.4,120.9,-116.5
Q 120.9,-118.6,119.2,-117.8
Q 118.7,-117.6,118.2,-117.4
Q 117.3,-116.1,116.0,-115.2
Q 112.4,-110.3,110.3,-107.5
Q 106.4,-102.6,106.5,-106.3
Q 106.6,-108.2,111.1,-121.8
Q 114.9,-133.3,115.3,-141.6
Q 115.4,-143.5,115.6,-145.4
Q 115.6,-147.2,115.6,-149.0
Q 114.3,-157.1,112.4,-157.6
Q 112.0,-157.7,111.6,-157.8
Q 111.3,-157.5,111.1,-157.2
Q 110.6,-156.6,110.0,-156.1
Q 109.7,-155.9,109.3,-155.6
Q 106.6,-149.9,103.5,-141.6
Q 102.0,-137.5,100.4,-133.4
Q 100.1,-133.0,99.7,-132.6
Q 99.0,-131.7,97.8,-132.1
Q 97.3,-132.4,96.9,-132.7
Q 95.5,-133.7,92.9,-142.0
Q 91.6,-146.3,90.4,-149.2
Q 89.9,-150.6,89.3,-152.1
Q 89.1,-152.4,88.9,-152.7
Q 88.4,-153.4,88.0,-154.3
Q 87.8,-154.7,87.6,-155.2
Q 86.9,-156.4,86.2,-157.6
Q 84.0,-161.7,81.4,-162.9
Q 80.3,-163.4,79.8,-162.5
Q 79.2,-161.6,78.2,-157.8
Q 78.3,-156.6,78.4,-155.4
Q 78.7,-153.0,78.2,-148.5
Q 78.2,-145.0,77.7,-144.1
Q 75.9,-141.0,71.3,-144.2
Q 70.8,-144.6,70.2,-145.0
Q 69.8,-145.3,69.3,-145.6
Q 68.4,-146.3,67.1,-147.6
Q 67.6,-146.6,68.0,-145.6
Q 68.9,-143.6,68.9,-141.5
Q 68.9,-135.5,61.2,-141.8
Q 58.5,-144.0,58.4,-143.9
Q 58.3,-143.8,58.9,-142.1
Q 59.5,-140.3,59.1,-139.4
Q 58.7,-138.5,55.1,-136.7
Q 56.5,-135.5,57.8,-134.3
Q 70.8,-123.2,74.7,-103.2
Q 79.1,-107.6,80.9,-111.3
Q 85.5,-121.0,84.7,-136.2
Q 84.4,-142.3,84.9,-142.3
Q 85.9,-142.3,85.8,-133.8
Q 85.7,-111.9,77.5,-104.5
Q 75.9,-103.0,75.3,-102.9
Q 75.0,-102.8,74.7,-102.7
Q 74.9,-101.8,75.1,-101.0
Q 76.2,-96.6,76.7,-90.5
Q 76.8,-89.1,76.9,-87.6
Q 77.0,-87.6,77.1,-87.7
Q 77.4,-87.7,77.3,-86.6
Q 77.3,-86.6,77.3,-86.6
Q 77.3,-86.0,77.3,-85.4
Q 87.6,-95.2,91.9,-101.3
Q 102.6,-116.5,106.2,-126.9
Q 107.4,-130.5,108.0,-130.7
Q 108.6,-130.9,108.3,-129.6
Q 105.1,-117.1,90.9,-98.1
Q 83.7,-88.4,77.3,-84.1
Q 77.3,-83.8,77.3,-83.6
Q 77.4,-83.6,77.6,-83.7
Q 77.8,-83.7,77.8,-81.7
Q 77.8,-80.6,77.8,-79.6
Q 77.8,-78.3,77.8,-77.0
Q 77.9,-76.2,78.0,-75.4
Q 78.2,-73.8,77.8,-70.7
Q 77.8,-69.7,77.8,-69.5
Q 77.8,-70.3,77.8,-69.8
Q 77.8,-73.8,77.8,-77.0
Q 77.8,-78.3,77.8,-79.6
Q 77.7,-79.6,77.6,-79.6
Q 77.3,-79.5,77.3,-83.6
Q 77.3,-83.8,77.3,-84.1
Q 77.3,-84.7,77.3,-85.4
Q 77.2,-85.4,77.1,-85.3
Q 76.9,-85.3,76.9,-87.6
Q 76.8,-89.1,76.7,-90.5
Q 76.2,-96.6,75.1,-101.0
Q 74.9,-101.8,74.7,-102.7
Q 74.7,-103.0,74.7,-103.2
Q 70.8,-123.2,57.8,-134.3
Q 56.5,-135.5,55.1,-136.7
Q 58.7,-138.5,59.1,-139.4
Q 59.5,-140.3,58.9,-142.1
Q 58.3,-143.8,58.4,-143.9
Q 58.5,-144.0,61.2,-141.8
Q 68.9,-135.5,68.9,-141.5
Q 68.9,-143.6,68.0,-145.6
Q 67.6,-146.6,67.1,-147.6
Q 67.0,-147.9,66.8,-148.2
Q 68.5,-146.6,70.2,-145.0
Q 70.8,-144.6,71.3,-144.2
Q 75.9,-141.0,77.7,-144.1
Q 78.2,-145.0,78.2,-148.5
Q 78.2,-153.2,78.2,-157.8
Q 77.4,-157.9,76.5,-158.0
Q 76.3,-155.7,76.3,-152.7
Q 76.2,-145.9,75.5,-145.1
Q 74.2,-143.8,68.9,-149.2
Q 66.4,-151.7,65.4,-150.5
Q 64.2,-149.1,66.0,-144.3
Q 66.8,-142.0,66.9,-141.6
Q 67.3,-139.5,61.6,-144.2
Q 57.8,-147.3,56.6,-146.9
Q 54.9,-146.2,56.2,-143.0
Q 57.6,-139.8,54.7,-138.9
Q 51.0,-137.8,50.5,-141.3
Q 49.2,-150.6,42.1,-157.9
Q 36.6,-163.5,26.9,-164.8
Q 26.8,-164.0,26.7,-163.2
Q 36.2,-160.8,40.7,-156.3
Q 46.8,-150.1,48.6,-141.8
Q 48.8,-141.1,48.9,-140.6
Q 43.6,-142.8,43.6,-141.5
Q 43.6,-140.5,46.6,-139.0
Q 68.8,-127.8,73.5,-96.7
Q 74.5,-90.4,75.6,-79.6
Q 75.8,-77.4,76.0,-75.2
Q 76.0,-73.4,76.0,-71.6
Q 76.0,-71.0,76.0,-70.3
Q 76.0,-69.4,76.0,-68.6
Q 76.0,-66.9,75.8,-66.8
Q 75.7,-66.8,75.6,-66.7
Q 74.3,-53.1,65.3,-40.7
Q 64.4,-39.5,63.6,-38.3
Q 61.3,-35.6,60.0,-34.5
Q 59.3,-34.0,58.7,-33.4
Q 54.8,-41.8,53.9,-41.8
Q 52.8,-41.8,55.1,-36.9
Q 56.8,-33.0,57.8,-27.0
Q 58.0,-25.5,58.2,-24.1
Q 58.2,-23.3,58.2,-22.6
Q 58.2,-21.1,58.0,-21.0
Q 57.9,-21.0,57.8,-21.0
Q 57.3,-14.7,55.7,-13.0
Q 54.1,-11.3,50.8,-20.5
Q 49.9,-23.0,48.8,-25.9
Q 47.7,-28.8,46.5,-32.0
Q 44.8,-36.5,44.1,-34.9
Q 43.9,-34.3,45.8,-28.6
Q 47.3,-24.5,46.0,-23.3
Q 43.1,-20.8,42.4,-20.9
Q 42.0,-21.0,40.2,-24.4
Q 36.9,-30.9,36.0,-30.0
Q 35.5,-29.5,36.8,-27.3
Q 42.7,-17.6,42.1,-9.0
Q 41.8,-4.4,40.5,-2.7
Q 39.0,-0.6,34.9,-10.5
Q 33.7,-13.6,33.2,-14.3
Q 32.8,-14.9,30.9,-19.1
Q 28.9,-23.2,28.2,-23.2
Q 27.3,-23.2,29.1,-18.7
Q 30.6,-15.2,30.4,-15.0
Q 30.1,-14.8,27.9,-14.4
Q 25.1,-13.8,22.0,-13.0
Q 16.3,-11.4,7.3,-11.0
Q 5.2,-10.8,3.1,-10.7
Q 1.8,-10.2,1.1,-10.5
Q 0.8,-10.6,0.4,-10.7
Q -10.9,-11.8,-15.6,-13.2
Q -14.6,-14.6,-13.5,-16.0
Q -10.5,-20.1,-12.6,-19.5
Q -15.2,-18.8,-19.8,-10.0
Q -24.9,-0.5,-28.8,3.3
Q -33.7,8.0,-34.0,1.4
Q -34.5,-5.9,-29.9,-15.6
Q -28.8,-18.0,-28.4,-19.3
Q -28.1,-20.7,-27.3,-22.7
Q -25.9,-26.6,-27.0,-27.0
Q -27.5,-27.2,-27.9,-26.0
Q -28.4,-24.7,-30.2,-20.5
Q -31.5,-21.3,-32.8,-22.1
Q -35.3,-23.6,-35.3,-24.2
Q -35.3,-24.8,-33.8,-27.0
Q -31.5,-30.3,-32.6,-30.3
Q -34.7,-30.3,-40.0,-19.6
Q -50.9,2.1,-54.1,-1.1
Q -54.8,-1.8,-54.8,-3.9
Q -54.8,-11.7,-48.3,-20.5
Q -45.9,-23.9,-42.9,-28.3
Q -39.9,-32.7,-39.2,-33.7
Q -38.5,-34.7,-39.0,-35.2
Q -39.5,-35.7,-44.6,-28.8
Q -45.5,-29.8,-46.4,-30.8
Q -55.7,-41.0,-61.0,-57.6
Q -65.7,-72.0,-66.6,-78.8
Q -67.1,-82.3,-67.6,-89.4
Q -68.0,-91.6,-67.8,-93.0
Q -67.7,-93.6,-67.6,-94.3
Q -66.0,-113.5,-62.7,-121.9
Q -58.2,-133.3,-53.5,-137.2
Q -51.6,-138.8,-51.6,-139.5
Q -51.6,-140.3,-50.2,-142.0
Q -48.8,-143.6,-48.1,-143.6
Q -46.3,-143.6,-46.3,-147.9
Q -46.3,-149.6,-45.4,-152.3
Q -41.1,-166.0,-30.9,-166.0
Q -16.0,-166.0,-7.0,-150.1
Q -5.8,-148.1,-3.1,-148.1
Q -1.8,-148.6,-1.1,-148.3
Q -1.1,-148.3,-1.0,-148.3
Q -0.7,-149.1,-0.4,-149.8
Q -1.4,-149.8,-2.4,-149.8
Q -4.4,-149.9,-5.8,-152.1
Q -7.1,-154.3,-8.7,-156.3
Q -9.4,-157.3,-10.2,-158.3
Q -11.5,-159.2,-12.0,-159.9
Q -12.2,-160.2,-12.4,-160.5
Q -13.3,-161.3,-14.1,-162.1
Q -16.8,-164.7,-22.1,-166.7
Q -26.6,-168.5,-30.4,-183.4
Q -34.1,-198.4,-32.4,-197.7
Q -31.1,-197.3,-25.7,-187.6
Q -22.8,-182.5,-20.3,-179.1
Q -17.9,-175.8,-15.4,-172.2
Q -12.8,-168.5,-12.2,-168.5
Q -11.5,-168.5,-11.6,-169.1
Q -12.0,-170.7,-21.4,-184.6
Q -23.8,-188.1,-19.2,-190.5
Q -17.8,-191.2,-16.3,-185.4
Q -15.6,-182.9,-14.7,-180.3
Q -13.8,-177.6,-13.3,-175.4
Q -12.2,-171.3,-11.2,-172.3
Q -10.7,-172.8,-13.5,-182.7
Q -18.4,-200.1,-18.1,-201.8
Q -18.0,-202.4,-17.9,-202.9
Q -14.6,-195.0,-13.0,-190.8
Q -10.6,-184.1,-9.9,-184.1
Q -8.4,-184.1,-11.1,-191.0
Q -12.3,-193.9,-12.6,-197.3
Q -12.9,-199.6,-12.0,-202.7
Q -10.3,-204.5,-10.0,-204.5
Q -9.8,-204.5,-9.8,-201.8
Q -9.3,-196.5,-8.9,-193.8
Q -8.7,-192.5,-8.4,-191.2
Q -8.3,-191.2,-8.3,-191.2
Q -7.7,-191.5,-7.0,-191.7
Q -7.1,-191.7,-7.1,-191.7
Q -7.1,-191.9,-7.1,-193.8
Q -7.2,-195.1,-7.3,-196.3
Q -7.6,-198.7,-8.0,-202.3
Q -8.2,-204.1,-8.4,-205.8
Q -8.8,-205.7,-8.8,-205.9
Q -8.9,-206.1,-8.9,-209.0
Q -8.9,-212.5,-8.9,-216.1
Q -9.4,-217.0,-9.1,-217.6
Q -9.0,-218.0,-8.9,-218.3
Q -8.8,-220.1,-8.3,-221.4
Q -6.8,-225.6,-4.3,-215.7
Q -3.1,-211.2,-1.3,-201.0
Q -0.9,-201.2,-0.9,-200.0
Q -0.9,-199.3,-0.9,-198.7
Q -0.1,-198.8,0.7,-198.9
Q 0.7,-199.2,0.7,-199.6
Q 0.5,-202.3,0.2,-203.6
Q 0.2,-203.6,0.2,-203.6
Q 0.0,-205.0,0.7,-204.7
Q 1.0,-204.6,1.3,-204.5
Q 1.8,-205.1,2.4,-205.8
Q 1.7,-206.3,1.1,-206.6
Q -0.3,-207.3,-0.6,-209.1
Q -0.9,-211.0,-1.6,-213.6
Q -2.3,-216.3,-2.7,-218.1
Q -4.5,-225.0,-7.8,-225.0
Q -12.0,-225.0,-10.7,-210.0
Q -10.4,-206.3,-11.7,-205.4
Q -14.1,-203.6,-14.4,-201.7
Q -14.7,-199.4,-15.3,-201.6
Q -16.1,-204.8,-18.1,-205.9
Q -22.2,-208.1,-19.8,-198.5
Q -18.3,-192.8,-20.0,-192.2
Q -21.3,-191.7,-22.6,-190.4
Q -23.3,-189.7,-24.0,-189.0
Q -24.7,-190.3,-25.4,-191.5
Q -32.5,-204.3,-34.4,-199.2
Q -35.3,-196.8,-33.5,-187.4
Q -31.0,-174.5,-27.3,-168.4
Q -27.0,-168.1,-31.0,-168.1
Q -44.6,-168.1,-48.0,-149.2
Q -48.6,-146.1,-50.4,-144.3
Q -52.3,-142.4,-54.4,-139.9
Q -58.4,-135.2,-59.0,-140.4
Q -59.4,-143.2,-58.2,-156.7
Q -57.0,-171.0,-61.6,-170.9
Q -65.5,-170.9,-69.7,-157.8
Q -71.1,-153.6,-71.8,-149.4
Q -72.5,-145.2,-73.3,-142.5
Q -73.3,-156.1,-77.1,-153.7
Q -79.6,-152.0,-81.0,-143.0
Q -81.5,-140.1,-82.0,-137.3
Q -82.1,-137.9,-82.3,-138.6
Q -82.7,-140.0,-83.3,-147.6
Q -85.3,-169.8,-91.7,-171.3
Q -93.9,-171.8,-95.9,-167.8
Q -99.2,-161.2,-97.3,-146.1
Q -96.4,-139.1,-93.2,-128.1
Q -91.1,-121.0,-91.9,-121.0
Q -93.2,-121.0,-96.7,-133.8
Q -98.4,-139.8,-100.0,-142.6
Q -100.7,-142.2,-101.3,-141.8
Q -98.7,-133.4,-97.5,-129.1
Q -94.7,-118.6,-91.5,-118.0
Q -87.7,-117.3,-91.6,-130.1
Q -94.3,-139.1,-95.1,-147.0
Q -95.3,-149.1,-95.6,-151.2
Q -95.9,-151.0,-95.9,-151.2
Q -96.0,-151.5,-96.0,-154.3
Q -96.0,-156.3,-96.0,-158.3
Q -95.9,-161.2,-95.7,-161.3
Q -95.6,-161.4,-95.6,-161.4
Q -93.6,-170.0,-91.8,-169.0
Q -88.3,-167.3,-86.2,-153.2
Q -85.8,-150.2,-85.3,-147.2
Q -85.0,-147.3,-84.9,-147.1
Q -84.9,-146.9,-84.9,-145.0
Q -84.9,-144.0,-84.8,-143.1
Q -84.5,-135.1,-82.5,-132.9
Q -80.6,-130.7,-79.8,-137.0
Q -79.6,-139.0,-78.9,-143.2
Q -78.2,-147.4,-76.4,-151.6
Q -76.0,-150.1,-75.6,-148.5
Q -75.2,-148.7,-75.2,-148.4
Q -75.1,-148.2,-75.1,-143.6
Q -75.1,-142.5,-75.1,-141.4
Q -75.1,-139.6,-75.1,-137.8
Q -75.2,-134.1,-75.0,-133.6
Q -74.4,-131.7,-73.3,-132.8
Q -72.7,-133.4,-70.2,-146.5
Q -67.2,-162.9,-62.8,-167.6
Q -62.1,-168.4,-61.4,-169.2
Q -60.3,-167.0,-60.2,-165.6
Q -60.0,-164.3,-60.0,-157.8
Q -60.1,-155.3,-60.4,-155.2
Q -60.4,-153.4,-60.4,-151.6
Q -60.5,-151.1,-60.5,-150.6
Q -60.5,-149.6,-60.7,-149.5
Q -60.8,-149.4,-60.9,-149.4
Q -60.9,-147.8,-60.9,-146.3
Q -60.9,-145.8,-60.9,-145.3
Q -61.0,-144.2,-61.1,-144.1
Q -61.2,-144.1,-61.3,-144.1
Q -61.3,-143.6,-61.3,-143.2
Q -61.0,-143.3,-60.9,-143.1
Q -60.9,-142.9,-60.9,-140.1
Q -61.1,-137.8,-59.5,-136.3
Q -57.8,-134.9,-59.6,-132.3
Q -61.4,-129.6,-62.5,-127.3
Q -63.6,-125.0,-64.4,-123.2
Q -64.4,-123.0,-64.4,-122.7
Q -65.0,-121.4,-65.6,-120.1
Q -66.7,-117.4,-67.6,-113.6
Q -68.0,-111.7,-68.4,-109.8
Q -68.4,-109.6,-68.4,-109.4
Q -68.6,-108.0,-68.9,-104.3
Q -69.3,-100.5,-69.8,-93.8
Q -69.8,-93.2,-69.8,-92.5
Q -69.8,-89.4,-69.8,-87.4
Q -69.8,-86.4,-69.8,-85.4
Q -69.4,-85.5,-69.4,-85.3
Q -69.3,-85.1,-69.3,-83.2
Q -69.3,-82.1,-69.3,-81.0
Q -69.0,-81.1,-68.9,-80.9
Q -68.9,-80.6,-68.9,-78.7
Q -68.9,-78.1,-68.9,-77.4
Q -68.9,-76.5,-68.4,-75.6
Q -67.1,-68.5,-65.8,-64.1
Q -64.4,-59.6,-60.4,-48.1
Q -59.7,-46.9,-59.8,-47.2
Q -60.1,-47.6,-60.4,-48.1
Q -56.8,-40.3,-54.6,-37.2
Q -53.5,-35.7,-52.4,-34.2
Q -73.1,-37.5,-91.8,-52.7
Q -93.0,-53.7,-94.2,-54.7
Q -94.5,-55.0,-94.9,-55.2
Q -95.5,-55.6,-96.2,-56.5
Q -96.5,-57.0,-96.9,-57.4
Q -101.8,-63.7,-105.3,-69.8
Q -111.9,-81.2,-110.1,-83.0
Q -109.0,-84.0,-98.4,-77.1
Q -96.0,-75.6,-93.8,-74.7
Q -92.7,-74.3,-91.6,-73.8
Q -90.4,-74.4,-90.3,-75.0
Q -90.3,-75.3,-90.2,-75.6
Q -91.1,-78.8,-92.8,-81.8
Q -100.8,-95.6,-104.9,-108.6
Q -105.8,-111.6,-107.1,-121.0
Q -107.2,-121.5,-107.3,-122.1
Q -107.6,-123.2,-107.3,-124.5
Q -107.2,-125.2,-107.1,-125.8
Q -107.0,-127.7,-106.9,-129.6
Q -106.5,-136.2,-104.9,-139.8
Q -104.4,-140.8,-104.0,-141.8
Q -102.5,-143.5,-103.3,-142.7
Q -103.6,-142.3,-104.0,-141.8
Q -100.7,-142.2,-100.0,-142.6
Q -101.9,-145.9,-103.8,-144.7
Q -108.2,-141.8,-109.2,-129.9
Q -110.6,-113.1,-103.5,-97.5
Q -97.6,-84.3,-95.2,-80.5
Q -93.7,-78.1,-93.2,-76.9
Q -94.4,-77.6,-95.6,-78.3
Q -98.0,-79.7,-100.2,-80.9
Q -102.5,-82.2,-105.0,-83.6
Q -116.4,-90.0,-110.3,-75.1
Q -102.0,-54.9,-82.9,-43.6
Q -66.8,-34.1,-54.8,-32.3
Q -50.5,-31.7,-48.3,-29.2
Q -46.0,-26.8,-47.1,-25.5
Q -54.5,-17.3,-56.6,-7.5
Q -57.8,-1.8,-55.5,0.7
Q -50.7,5.7,-40.6,-14.4
Q -37.0,-21.6,-35.6,-20.6
Q -34.4,-19.7,-32.7,-19.0
Q -31.0,-18.3,-31.3,-17.5
Q -31.5,-16.7,-32.6,-14.1
Q -36.0,-5.7,-36.1,0.0
Q -36.2,6.6,-33.5,7.3
Q -27.6,8.8,-18.4,-8.0
Q -17.1,-10.3,-16.4,-10.1
Q -15.8,-9.9,-13.9,-9.6
Q -11.9,-9.3,-12.1,-8.6
Q -12.4,-7.8,-14.0,-4.2
Q -16.8,2.3,-17.8,9.9
Q -19.7,25.6,-28.8,37.8
Q -37.1,49.0,-38.0,57.2
Q -40.3,76.5,-31.8,84.7
Q -24.5,91.6,-12.9,82.5
Q -13.0,83.1,-13.1,83.6
Q -14.3,88.2,-18.0,98.4
Q -28.1,126.2,-18.7,148.4
Q -9.0,170.9,14.7,188.4
Q 24.3,195.5,30.9,201.5
Q 38.1,208.1,41.4,217.2
Q 42.4,220.0,43.0,220.6
 " /> 
<path  
style="fill:rgb(7,193,201)" 
d="M 4.0 175.9
Q 4.5,176.8,4.9,177.0
Q 5.1,177.1,5.3,177.3
Q 5.5,177.3,5.7,177.3
Q 6.0,177.3,5.4,175.5
Q 4.7,175.7,4.0,175.9
 " /> 
<path  
style="fill:rgb(14,103,171)" 
d="M 4.0 175.9
Q 0.9,166.6,-0.2,162.3
Q -2.4,154.0,-2.8,146.4
Q -3.4,137.3,-1.9,137.3
Q -1.3,137.3,-1.3,142.5
Q -1.3,156.2,4.6,173.0
Q 5.1,174.5,5.4,175.5
Q 6.0,177.3,5.7,177.3
Q 5.5,177.3,5.3,177.3
Q 6.6,178.5,7.8,179.7
Q 10.2,182.1,13.9,184.9
Q 17.5,187.6,21.5,190.8
Q 28.1,196.0,28.7,196.2
Q 29.3,196.5,29.2,195.6
Q 28.6,190.2,22.0,176.8
Q 10.8,154.0,11.8,138.5
Q 12.2,131.7,12.7,137.1
Q 14.4,156.1,22.9,174.4
Q 27.6,184.4,28.7,187.5
Q 30.2,191.4,31.0,196.7
Q 31.2,198.5,34.3,201.5
Q 40.2,207.2,44.0,217.0
Q 44.7,219.0,47.0,214.1
Q 48.3,211.2,54.4,199.7
Q 60.6,188.2,61.4,185.3
Q 65.7,170.4,48.5,144.6
Q 38.2,129.3,39.9,129.3
Q 40.4,129.3,48.6,141.6
Q 59.0,157.2,61.7,163.9
Q 64.1,170.0,64.1,177.1
Q 64.2,179.0,64.2,180.8
Q 64.5,180.2,64.9,179.6
Q 65.7,178.4,68.0,173.2
Q 83.0,139.8,67.3,124.1
Q 62.9,119.7,51.6,112.8
Q 41.2,106.5,36.8,97.6
Q 34.2,92.4,33.8,85.7
Q 32.1,85.7,31.8,86.0
Q 31.6,86.3,31.6,88.7
Q 31.6,102.1,28.6,102.1
Q 28.1,102.1,27.4,99.6
Q 25.2,91.5,24.9,91.5
Q 24.6,91.5,24.1,93.0
Q 21.6,99.7,16.7,94.7
Q 15.0,93.0,14.6,93.0
Q 12.6,93.1,12.3,101.8
Q 12.1,108.3,9.5,111.2
Q 9.1,111.8,8.6,111.6
Q 8.5,111.7,8.5,111.7
Q 8.5,111.6,8.4,111.6
Q 6.7,110.6,4.9,100.4
Q 4.9,100.1,4.9,99.9
Q 4.7,99.5,4.4,99.0
Q 4.0,98.1,4.0,96.4
Q 4.0,96.1,4.0,95.9
Q 3.1,94.6,3.1,93.9
Q 3.1,93.6,3.1,93.3
Q 3.1,93.0,3.1,92.8
Q 2.8,92.1,2.4,91.5
Q 1.4,89.3,-1.1,94.7
Q -5.0,103.3,-8.2,95.9
Q -10.8,89.9,-11.3,87.2
Q -11.4,86.5,-11.6,85.7
Q -11.6,85.7,-11.7,85.7
Q -12.4,87.8,-13.1,89.9
Q -14.7,94.6,-16.0,98.3
Q -25.2,124.5,-18.4,143.1
Q -13.8,155.9,-4.9,166.7
Q -2.1,170.1,4.0,175.9
 " /> 
<path  
style="fill:rgb(7,193,201)" 
d="M 45.1 212.9
Q 47.0,215.9,47.8,198.1
Q 48.8,177.2,39.5,156.1
Q 38.1,152.8,37.4,152.8
Q 36.6,152.8,38.8,158.2
Q 49.2,183.4,45.5,208.1
Q 44.9,212.5,45.1,212.9
 " /> 
<path  
style="fill:rgb(7,193,201)" 
d="M 68.7 159.1
Q 68.9,161.3,69.6,161.3
Q 71.4,161.3,68.7,152.7
Q 65.2,141.5,56.4,130.8
Q 54.0,127.9,53.2,127.9
Q 52.0,127.9,54.4,130.8
Q 66.9,145.9,68.7,159.1
 " /> 
<path  
style="fill:rgb(7,193,201)" 
d="M 4.0 175.9
Q 4.7,175.7,5.4,175.5
Q 5.1,174.5,4.6,173.0
Q -1.3,156.2,-1.3,142.5
Q -1.3,137.3,-1.9,137.3
Q -3.4,137.3,-2.8,146.4
Q -2.4,154.0,-0.2,162.3
Q 0.9,166.6,4.0,175.9
 " /> 
<path  
style="fill:rgb(97,247,248)" 
d="M -11.6 85.3
Q -11.6,85.5,-11.6,85.7
Q -7.3,98.6,-5.3,98.6
Q -3.2,98.6,-1.2,93.9
Q 1.2,88.4,2.4,91.3
Q 2.8,92.1,3.1,92.8
Q 3.1,93.0,3.1,93.3
Q 4.0,94.6,4.0,95.9
Q 4.0,96.1,4.0,96.4
Q 4.9,98.1,4.9,99.9
Q 4.9,100.1,4.9,100.4
Q 5.5,102.3,6.0,104.2
Q 7.2,108.0,7.8,109.9
Q 8.1,110.7,8.4,111.6
Q 8.9,111.8,9.3,111.5
Q 11.6,107.8,11.9,101.3
Q 12.1,94.2,14.2,92.8
Q 14.9,92.3,17.0,94.3
Q 21.4,98.5,23.5,92.9
Q 24.5,90.5,25.2,90.9
Q 25.7,91.2,27.8,98.9
Q 28.6,101.7,29.0,101.6
Q 30.7,101.0,30.7,95.5
Q 30.7,85.5,32.4,85.6
Q 32.9,85.7,33.1,85.3
Q 33.3,85.0,33.3,84.4
Q 33.3,83.3,33.3,82.1
Q 33.3,81.0,33.3,79.9
Q 33.3,75.9,31.6,73.0
Q 24.7,61.5,23.8,48.6
Q 23.7,46.9,23.6,45.3
Q 23.4,45.3,23.3,45.3
Q 23.1,45.4,23.1,42.1
Q 23.7,40.7,24.2,39.3
Q 26.5,33.2,26.9,29.3
Q 27.0,27.9,27.1,26.6
Q 27.1,24.4,27.1,22.1
Q 26.8,19.3,26.4,16.4
Q 25.8,11.1,25.7,10.9
Q 25.3,10.2,24.4,14.5
Q 23.7,17.8,22.9,18.0
Q 22.1,18.2,22.4,16.4
Q 23.9,6.9,24.4,3.1
Q 24.7,-0.2,25.3,-0.2
Q 25.9,-0.2,25.8,2.2
Q 25.7,4.7,26.6,7.7
Q 31.7,25.2,26.4,37.8
Q 24.7,42.0,26.2,53.3
Q 26.7,53.7,28.6,51.8
Q 33.2,47.2,38.5,43.4
Q 40.9,41.7,44.9,39.9
Q 45.1,39.9,45.3,39.9
Q 46.7,39.8,47.1,40.3
Q 47.3,40.6,47.6,40.8
Q 47.8,40.8,48.0,40.8
Q 49.4,41.6,50.5,42.6
Q 51.0,43.0,51.6,43.5
Q 50.6,41.5,49.6,39.5
Q 47.6,35.5,45.2,31.1
Q 34.5,11.9,31.5,2.9
Q 27.4,-9.3,25.0,-10.4
Q 23.9,-10.9,19.0,-9.5
Q 15.9,-8.7,12.0,-8.4
Q 10.0,-8.2,8.0,-8.1
Q 6.9,-8.1,5.8,-8.1
Q 3.1,-8.2,0.4,-8.3
Q -4.9,-8.5,-7.3,-8.8
Q -9.8,-9.1,-11.4,-5.7
Q -14.9,1.7,-15.8,9.7
Q -17.6,25.1,-25.3,36.6
Q -26.4,38.3,-27.6,39.9
Q -27.0,40.0,-26.4,40.2
Q -25.3,40.4,-24.4,40.6
Q -24.0,40.7,-23.6,40.8
Q -23.3,40.8,-23.1,40.8
Q -22.3,41.2,-21.6,41.5
Q -20.0,42.3,-17.8,41.5
Q -16.7,41.2,-15.6,40.8
Q -15.3,40.8,-15.1,40.8
Q -14.6,40.7,-14.0,40.6
Q -12.9,40.4,-11.4,42.0
Q -9.9,43.5,-8.0,43.8
Q -3.5,44.3,-2.1,46.7
Q -1.7,47.5,-1.1,47.2
Q -1.1,47.1,-1.0,47.1
Q -0.7,46.8,-0.4,46.6
Q -0.2,44.7,0.0,42.8
Q 0.4,39.0,-0.9,36.3
Q -3.7,30.7,-4.2,22.2
Q -4.2,21.4,-4.3,20.6
Q -4.5,13.0,-4.9,9.5
Q -5.6,4.3,-4.8,4.1
Q -4.2,3.9,-3.6,6.9
Q -3.0,9.9,-1.9,13.9
Q -0.0,20.8,-1.1,20.9
Q -2.0,21.0,-2.1,19.8
Q -2.2,19.2,-2.2,18.6
Q -2.3,18.6,-2.4,18.6
Q -2.5,18.7,-2.6,19.0
Q -2.6,19.4,-2.7,22.1
Q -2.4,23.9,-2.2,25.7
Q -1.4,32.4,1.4,37.0
Q 2.8,39.2,3.0,40.3
Q 3.2,41.4,2.6,41.0
Q 1.9,40.7,1.4,44.3
Q 1.2,45.6,1.0,46.8
Q 1.0,47.4,0.9,47.9
Q 0.8,48.3,0.7,48.6
Q 0.5,49.3,0.5,49.9
Q 0.4,50.3,0.4,50.6
Q -0.1,52.7,-0.7,54.8
Q -1.8,59.0,-3.1,62.9
Q -4.5,66.8,-5.5,69.7
Q -6.6,72.6,-8.0,75.4
Q -9.4,78.1,-11.6,85.3
 " /> 
<path  
style="fill:rgb(7,193,201)" 
d="M -11.6 85.7
Q -11.4,86.5,-11.3,87.2
Q -10.8,89.9,-8.2,95.9
Q -5.0,103.3,-1.1,94.7
Q 1.4,89.3,2.4,91.5
Q 2.8,92.1,3.1,92.8
Q 2.8,92.1,2.4,91.3
Q 1.2,88.4,-1.2,93.9
Q -3.2,98.6,-5.3,98.6
Q -7.3,98.6,-11.6,85.7
 " /> 
<path  
style="fill:rgb(7,193,201)" 
d="M 3.1 93.3
Q 3.1,93.6,3.1,93.9
Q 3.1,94.6,4.0,95.9
Q 4.0,94.6,3.1,93.3
 " /> 
<path  
style="fill:rgb(7,193,201)" 
d="M 4.0 96.4
Q 4.0,98.1,4.4,99.0
Q 4.7,99.5,4.9,99.9
Q 4.9,98.1,4.0,96.4
 " /> 
<path  
style="fill:rgb(7,193,201)" 
d="M 4.9 100.4
Q 6.7,110.6,8.4,111.6
Q 8.1,110.7,7.8,109.9
Q 7.2,108.0,6.0,104.2
Q 5.5,102.3,4.9,100.4
 " /> 
<path  
style="fill:rgb(7,193,201)" 
d="M 33.8 85.7
Q 33.8,84.3,33.3,84.4
Q 33.3,85.0,33.1,85.3
Q 33.5,85.5,33.8,85.7
 " /> 
<path  
style="fill:rgb(7,193,201)" 
d="M 33.8 85.7
Q 33.5,85.5,33.1,85.3
Q 32.9,85.7,32.4,85.6
Q 30.7,85.5,30.7,95.5
Q 30.7,101.0,29.0,101.6
Q 28.6,101.7,27.8,98.9
Q 25.7,91.2,25.2,90.9
Q 24.5,90.5,23.5,92.9
Q 21.4,98.5,17.0,94.3
Q 14.9,92.3,14.2,92.8
Q 12.1,94.2,11.9,101.3
Q 11.6,107.8,8.6,111.6
Q 9.1,111.8,9.5,111.2
Q 12.1,108.3,12.3,101.8
Q 12.6,93.1,14.6,93.0
Q 15.0,93.0,16.7,94.7
Q 21.6,99.7,24.1,93.0
Q 24.6,91.5,24.9,91.5
Q 25.2,91.5,27.4,99.6
Q 28.1,102.1,28.6,102.1
Q 31.6,102.1,31.6,88.7
Q 31.6,86.3,31.8,86.0
Q 32.1,85.7,33.8,85.7
 " /> 
<path  
style="fill:rgb(14,103,171)" 
d="M 0.4 50.6
Q 0.4,50.3,0.5,49.9
Q 0.5,49.3,0.7,48.6
Q 0.8,48.3,0.9,47.9
Q 0.3,48.6,-0.1,48.5
Q -0.3,48.4,-0.4,48.4
Q -0.4,48.9,-0.4,49.5
Q 0.2,49.5,0.4,50.6
 " /> 
<path  
style="fill:rgb(4,4,4)" 
d="M 0.9 47.9
Q 0.2,48.1,-0.4,48.4
Q -0.3,48.4,-0.1,48.5
Q 0.3,48.6,0.9,47.9
 " /> 
<path  
style="fill:rgb(4,4,4)" 
d="M 0.9 47.9
Q 0.2,47.9,-0.4,47.9
Q -0.4,48.1,-0.4,48.4
Q 0.2,48.1,0.9,47.9
 " /> 
<path  
style="fill:rgb(4,4,4)" 
d="M 0.9 47.9
Q 1.0,47.4,1.0,46.8
Q 0.3,46.7,-0.4,46.6
Q -0.4,47.3,-0.4,47.9
Q 0.2,47.9,0.9,47.9
 " /> 
<path  
style="fill:rgb(4,4,4)" 
d="M -2.7 22.1
Q -2.7,21.2,-2.8,20.3
Q -2.9,18.4,-2.2,18.6
Q -2.2,19.2,-2.1,19.8
Q -2.0,21.0,-1.1,20.9
Q -0.0,20.8,-1.9,13.9
Q -3.0,9.9,-3.6,6.9
Q -4.2,3.9,-4.8,4.1
Q -5.6,4.3,-4.9,9.5
Q -4.5,13.0,-4.3,20.6
Q -4.2,21.4,-4.2,22.2
Q -3.4,22.2,-2.7,22.1
 " /> 
<path  
style="fill:rgb(4,4,4)" 
d="M -2.7 22.1
Q -3.4,22.2,-4.2,22.2
Q -3.7,30.7,-0.9,36.3
Q 0.4,39.0,0.0,42.8
Q -0.2,44.7,-0.4,46.6
Q 0.3,46.7,1.0,46.8
Q 1.2,45.6,1.4,44.3
Q 1.9,40.7,2.6,41.0
Q 3.2,41.4,3.0,40.3
Q 2.8,39.2,1.4,37.0
Q -1.4,32.4,-2.2,25.7
Q -2.4,23.9,-2.7,22.1
 " /> 
<path  
style="fill:rgb(7,193,201)" 
d="M -0.4 46.6
Q -0.7,46.8,-1.0,47.1
Q -1.1,47.1,-1.1,47.2
Q -0.8,47.8,-0.4,48.4
Q -0.4,48.1,-0.4,47.9
Q -0.4,47.3,-0.4,46.6
 " /> 
<path  
style="fill:rgb(14,103,171)" 
d="M -15.1 40.8
Q -15.3,40.8,-15.6,40.8
Q -19.5,43.2,-21.8,41.7
Q -22.4,41.3,-23.1,40.8
Q -23.3,40.8,-23.6,40.8
Q -27.7,40.8,-27.9,40.8
Q -28.2,40.7,-28.0,40.4
Q -29.6,42.9,-31.1,45.5
Q -34.0,50.3,-35.3,55.6
Q -34.7,55.7,-34.1,55.9
Q -33.2,50.6,-31.4,50.6
Q -30.6,50.6,-30.8,50.9
Q -31.3,51.7,-32.6,55.4
Q -33.1,56.9,-33.8,57.2
Q -34.4,57.4,-34.1,55.9
Q -34.7,55.7,-35.3,55.6
Q -36.5,60.7,-36.1,66.3
Q -33.4,60.9,-30.4,57.4
Q -27.4,54.0,-25.7,52.0
Q -24.1,49.9,-23.6,50.4
Q -23.1,50.8,-27.8,56.6
Q -35.7,66.4,-35.6,71.0
Q -35.6,75.3,-32.2,80.3
Q -30.6,82.6,-27.6,84.8
Q -27.4,81.6,-27.3,78.4
Q -27.0,69.6,-25.8,71.6
Q -25.3,72.2,-26.2,85.3
Q -19.0,85.3,-15.4,81.3
Q -13.9,79.6,-14.3,76.6
Q -14.7,73.5,-14.7,64.5
Q -14.7,55.5,-14.2,55.3
Q -13.8,55.0,-13.6,55.6
Q -13.4,56.2,-13.1,65.9
Q -12.9,75.7,-12.4,77.9
Q -11.8,77.2,-11.3,76.6
Q -10.2,75.3,-9.5,73.1
Q -8.9,70.9,-7.6,68.8
Q -5.0,64.8,-2.4,54.4
Q -1.2,49.6,-0.5,49.5
Q -0.4,49.5,-0.4,49.5
Q -0.4,48.9,-0.4,48.4
Q -0.7,48.5,-0.9,48.6
Q -1.3,48.8,-2.1,47.5
Q -3.9,44.4,-7.7,44.4
Q -9.4,44.4,-11.3,42.6
Q -13.3,40.8,-15.1,40.8
 " /> 
<path  
style="fill:rgb(7,193,201)" 
d="M -9.1 63.8
Q -8.8,65.3,-8.2,65.3
Q -7.5,65.3,-7.7,60.7
Q -7.9,54.7,-8.9,55.3
Q -10.4,56.2,-9.1,63.8
 " /> 
<path  
style="fill:rgb(7,193,201)" 
d="M -15.1 40.8
Q -13.3,40.8,-11.3,42.6
Q -9.4,44.4,-7.7,44.4
Q -3.9,44.4,-2.1,47.5
Q -1.3,48.8,-0.9,48.6
Q -0.7,48.5,-0.4,48.4
Q -0.8,47.8,-1.1,47.2
Q -1.7,47.5,-2.1,46.7
Q -3.5,44.3,-8.0,43.8
Q -9.9,43.5,-11.4,42.0
Q -12.9,40.4,-14.0,40.6
Q -14.6,40.7,-15.1,40.8
 " /> 
<path  
style="fill:rgb(7,193,201)" 
d="M -23.6 40.8
Q -24.0,40.7,-24.4,40.6
Q -25.3,40.4,-26.4,40.2
Q -27.0,40.0,-27.6,39.9
Q -27.8,39.9,-28.0,40.4
Q -28.2,40.7,-27.9,40.8
Q -27.7,40.8,-23.6,40.8
 " /> 
<path  
style="fill:rgb(14,103,171)" 
d="M 5.8 -8.1
Q 6.9,-8.1,8.0,-8.1
Q 7.7,-8.2,7.4,-8.3
Q 6.7,-8.6,6.2,-8.3
Q 6.0,-8.2,5.8,-8.1
 " /> 
<path  
style="fill:rgb(4,4,4)" 
d="M 51.6 43.5
Q 51.5,43.5,51.5,43.6
Q 51.5,43.7,51.8,44.0
Q 51.9,44.2,52.0,44.4
Q 51.8,43.9,51.6,43.5
 " /> 
<path  
style="fill:rgb(7,193,201)" 
d="M 51.6 43.5
Q 51.4,43.6,51.3,43.8
Q 51.6,44.1,52.0,44.4
Q 51.9,44.2,51.8,44.0
Q 51.5,43.7,51.5,43.6
Q 51.5,43.5,51.6,43.5
 " /> 
<path  
style="fill:rgb(7,193,201)" 
d="M 51.6 43.5
Q 51.0,43.0,50.5,42.6
Q 49.4,41.6,48.0,40.8
Q 48.5,41.2,48.9,41.7
Q 49.8,42.5,50.9,43.5
Q 51.1,43.6,51.3,43.8
Q 51.4,43.6,51.6,43.5
 " /> 
<path  
style="fill:rgb(14,103,171)" 
d="M 48.0 40.8
Q 47.8,40.8,47.6,40.8
Q 47.3,40.7,47.1,40.6
Q 46.7,40.4,45.3,39.9
Q 45.1,39.9,44.9,39.9
Q 43.9,40.5,42.9,41.0
Q 40.9,42.1,39.6,43.2
Q 38.4,44.2,37.0,45.1
Q 35.7,46.0,33.3,48.2
Q 27.3,53.7,26.6,53.7
Q 26.4,53.7,26.2,53.7
Q 26.8,55.6,27.3,57.5
Q 30.6,68.7,34.7,73.5
Q 35.3,74.3,36.0,75.0
Q 34.5,72.0,34.1,62.8
Q 34.1,61.1,34.7,61.1
Q 36.0,61.1,36.0,71.5
Q 36.0,73.5,36.0,75.5
Q 37.8,77.7,39.6,78.6
Q 45.3,81.5,45.6,81.1
Q 45.8,81.0,44.3,77.6
Q 42.8,74.3,41.6,69.9
Q 40.4,65.5,39.3,61.7
Q 37.9,57.1,38.3,55.4
Q 38.7,53.1,42.5,67.5
Q 45.9,80.4,48.4,81.3
Q 52.1,82.7,56.3,78.4
Q 60.7,73.9,59.2,70.1
Q 58.8,69.0,55.5,64.4
Q 45.4,49.8,47.3,50.2
Q 48.0,50.4,59.6,67.3
Q 58.9,62.9,57.7,59.0
Q 57.0,57.0,56.4,55.0
Q 55.3,54.0,54.2,53.0
Q 52.0,51.0,52.0,50.4
Q 52.0,48.9,54.3,51.1
Q 54.9,51.8,55.6,52.4
Q 55.1,51.3,54.7,50.1
Q 53.8,47.9,52.9,46.1
Q 52.4,45.3,52.0,44.4
Q 51.6,44.1,51.3,43.8
Q 51.1,43.6,50.9,43.5
Q 49.8,42.5,48.9,41.7
Q 48.5,41.2,48.0,40.8
 " /> 
<path  
style="fill:rgb(7,193,201)" 
d="M 53.6 76.3
Q 54.8,79.1,55.3,78.9
Q 56.1,78.5,54.7,75.3
Q 53.9,73.5,52.9,71.0
Q 50.5,65.3,49.4,64.9
Q 48.0,64.4,50.8,70.2
Q 52.3,73.5,53.6,76.3
 " /> 
<path  
style="fill:rgb(7,193,201)" 
d="M 47.6 40.8
Q 47.3,40.6,47.1,40.3
Q 46.7,39.8,45.3,39.9
Q 46.7,40.4,47.1,40.6
Q 47.3,40.7,47.6,40.8
 " /> 
<path  
style="fill:rgb(7,193,201)" 
d="M 44.9 39.9
Q 40.9,41.7,38.5,43.4
Q 33.2,47.2,28.6,51.8
Q 26.7,53.7,26.2,53.3
Q 26.2,53.5,26.2,53.7
Q 26.4,53.7,26.6,53.7
Q 27.3,53.7,33.3,48.2
Q 35.7,46.0,37.0,45.1
Q 38.4,44.2,39.6,43.2
Q 40.9,42.1,42.9,41.0
Q 43.9,40.5,44.9,39.9
 " /> 
<path  
style="fill:rgb(14,103,171)" 
d="M 27.1 22.1
Q 27.1,24.4,27.1,26.6
Q 27.2,26.0,27.3,25.5
Q 27.6,24.4,27.3,23.3
Q 27.2,22.7,27.1,22.1
 " /> 
<path  
style="fill:rgb(7,193,201)" 
d="M 23.1 42.1
Q 23.1,45.4,23.3,45.3
Q 23.4,45.3,23.6,45.3
Q 23.6,42.6,23.5,42.4
Q 23.4,42.1,23.1,42.1
 " /> 
<path  
style="fill:rgb(14,103,171)" 
d="M 33.3 79.9
Q 33.3,81.0,33.3,82.1
Q 33.5,81.8,33.6,81.5
Q 33.8,80.8,33.6,80.4
Q 33.5,80.1,33.3,79.9
 " /> 
<path  
style="fill:rgb(4,4,4)" 
d="M -27.6 84.8
Q -26.9,85.0,-26.2,85.3
Q -26.3,85.1,-26.4,85.0
Q -26.6,84.7,-27.6,84.8
 " /> 
<path  
style="fill:rgb(7,193,201)" 
d="M -27.6 84.8
Q -26.6,84.7,-26.4,85.0
Q -26.3,85.1,-26.2,85.3
Q -25.3,72.2,-25.8,71.6
Q -27.0,69.6,-27.3,78.4
Q -27.4,81.6,-27.6,84.8
 " /> 
<path  
style="fill:rgb(7,193,201)" 
d="M 36.0 75.0
Q 36.0,75.3,36.0,75.5
Q 36.0,73.5,36.0,71.5
Q 36.0,61.1,34.7,61.1
Q 34.1,61.1,34.1,62.8
Q 34.5,72.0,36.0,75.0
 " /> 
<path  
style="fill:rgb(7,193,201)" 
d="M 55.6 52.4
Q 54.9,51.8,54.3,51.1
Q 52.0,48.9,52.0,50.4
Q 52.0,51.0,54.2,53.0
Q 55.3,54.0,56.4,55.0
Q 56.3,54.8,56.2,54.6
Q 56.0,54.2,55.8,53.3
Q 55.7,52.8,55.6,52.4
 " /> 
<path  
style="fill:rgb(7,193,201)" 
d="M -34.1 55.9
Q -34.4,57.4,-33.8,57.2
Q -33.1,56.9,-32.6,55.4
Q -31.3,51.7,-30.8,50.9
Q -30.6,50.6,-31.4,50.6
Q -33.2,50.6,-34.1,55.9
 " /> 
<path  
style="fill:rgb(97,247,248)" 
d="M 71.3 -123.1
Q 71.0,-121.4,71.5,-121.4
Q 72.4,-121.4,73.1,-126.4
Q 73.7,-130.2,72.8,-132.2
Q 72.1,-133.7,71.8,-128.6
Q 71.6,-124.7,71.3,-123.1
 " /> 
<path  
style="fill:rgb(97,247,248)" 
d="M 63.6 -132.2
Q 63.6,-130.7,64.0,-130.7
Q 64.9,-130.7,64.9,-134.2
Q 64.9,-135.6,64.5,-135.6
Q 63.6,-135.6,63.6,-132.2
 " /> 
<path  
style="fill:rgb(97,247,248)" 
d="M -67.6 -94.3
Q -67.6,-91.8,-67.6,-89.4
Q -67.1,-82.3,-66.6,-78.8
Q -65.7,-72.0,-61.0,-57.6
Q -55.7,-41.0,-46.4,-30.8
Q -45.5,-29.8,-44.6,-28.8
Q -39.5,-35.7,-39.0,-35.2
Q -38.5,-34.7,-39.2,-33.7
Q -39.9,-32.7,-42.9,-28.3
Q -45.9,-23.9,-48.3,-20.5
Q -54.8,-11.7,-54.8,-3.9
Q -54.8,-1.8,-54.1,-1.1
Q -50.9,2.1,-40.0,-19.6
Q -34.7,-30.3,-32.6,-30.3
Q -31.5,-30.3,-33.8,-27.0
Q -35.3,-24.8,-35.3,-24.2
Q -35.3,-23.6,-32.8,-22.1
Q -31.5,-21.3,-30.2,-20.5
Q -28.4,-24.7,-27.9,-26.0
Q -27.5,-27.2,-27.0,-27.0
Q -25.9,-26.6,-27.3,-22.7
Q -28.1,-20.7,-28.4,-19.3
Q -28.8,-18.0,-29.9,-15.6
Q -34.5,-5.9,-34.0,1.4
Q -33.7,8.0,-28.8,3.3
Q -24.9,-0.5,-19.8,-10.0
Q -15.2,-18.8,-12.6,-19.5
Q -10.5,-20.1,-13.5,-16.0
Q -14.6,-14.6,-15.6,-13.2
Q -10.9,-11.8,0.4,-10.7
Q 1.8,-10.7,3.1,-10.7
Q 5.2,-10.8,7.3,-11.0
Q 16.3,-11.4,22.0,-13.0
Q 25.1,-13.8,27.9,-14.4
Q 30.1,-14.8,30.4,-15.0
Q 30.6,-15.2,29.1,-18.7
Q 27.3,-23.2,28.2,-23.2
Q 28.9,-23.2,30.9,-19.1
Q 32.8,-14.9,33.2,-14.3
Q 33.7,-13.6,34.9,-10.5
Q 39.0,-0.6,40.5,-2.7
Q 41.8,-4.4,42.1,-9.0
Q 42.7,-17.6,36.8,-27.3
Q 35.5,-29.5,36.0,-30.0
Q 36.9,-30.9,40.2,-24.4
Q 42.0,-21.0,42.4,-20.9
Q 43.1,-20.8,46.0,-23.3
Q 47.3,-24.5,45.8,-28.6
Q 43.9,-34.3,44.1,-34.9
Q 44.8,-36.5,46.5,-32.0
Q 47.7,-28.8,48.8,-25.9
Q 49.9,-23.0,50.8,-20.5
Q 54.1,-11.3,55.7,-13.0
Q 57.3,-14.7,57.8,-21.0
Q 57.8,-23.2,57.8,-23.6
Q 57.9,-24.0,58.2,-24.1
Q 58.0,-25.5,57.8,-27.0
Q 56.8,-33.0,55.1,-36.9
Q 52.8,-41.8,53.9,-41.8
Q 54.8,-41.8,58.7,-33.4
Q 59.2,-34.1,59.8,-34.7
Q 60.9,-36.0,62.2,-37.2
Q 62.9,-37.7,63.6,-38.3
Q 64.4,-39.5,65.3,-40.7
Q 74.3,-53.1,75.6,-66.7
Q 75.6,-69.4,75.6,-69.8
Q 75.7,-70.2,76.0,-70.3
Q 76.0,-71.0,76.0,-71.6
Q 75.9,-72.1,75.8,-72.5
Q 75.5,-73.4,76.0,-75.2
Q 75.8,-77.4,75.6,-79.6
Q 74.5,-90.4,73.5,-96.7
Q 68.8,-127.8,46.6,-139.0
Q 43.6,-140.5,43.6,-141.5
Q 43.6,-142.8,48.9,-140.6
Q 48.8,-141.1,48.6,-141.8
Q 46.8,-150.1,40.7,-156.3
Q 36.2,-160.8,26.7,-163.2
Q 25.6,-163.2,24.4,-163.2
Q 23.0,-162.7,21.6,-162.3
Q 13.5,-159.8,7.7,-150.6
Q 6.1,-148.1,3.1,-148.0
Q 3.0,-148.0,2.8,-148.0
Q 1.2,-148.0,-0.4,-148.1
Q -1.8,-148.1,-3.1,-148.1
Q -5.8,-148.1,-7.0,-150.1
Q -16.0,-166.0,-30.9,-166.0
Q -41.1,-166.0,-45.4,-152.3
Q -46.3,-149.6,-46.3,-147.9
Q -46.3,-143.6,-48.1,-143.6
Q -48.8,-143.6,-50.2,-142.0
Q -51.6,-140.3,-51.6,-139.5
Q -51.6,-138.8,-53.5,-137.2
Q -58.2,-133.3,-62.7,-121.9
Q -66.0,-113.5,-67.6,-94.3
 " /> 
<path  
style="fill:rgb(4,4,4)" 
d="M 17.6 -23.5
Q 20.7,-21.9,21.1,-22.0
Q 22.2,-22.5,20.3,-24.1
Q 14.9,-28.7,2.2,-25.9
Q -3.4,-24.6,-2.4,-23.6
Q -1.9,-23.2,2.0,-24.1
Q 12.1,-26.5,17.6,-23.5
 " /> 
<path  
style="fill:rgb(4,4,4)" 
d="M -1.1 -44.4
Q -0.4,-43.3,1.8,-47.6
Q 2.7,-49.5,4.2,-51.6
Q 6.8,-55.2,5.6,-55.2
Q 3.8,-55.2,0.0,-47.7
Q -1.4,-44.9,-1.1,-44.4
 " /> 
<path  
style="fill:rgb(4,4,4)" 
d="M 12.9 -48.6
Q 15.2,-44.0,15.7,-44.2
Q 16.6,-44.6,14.8,-48.3
Q 11.8,-54.2,10.7,-54.6
Q 9.6,-55.0,12.9,-48.6
 " /> 
<path  
style="fill:rgb(4,4,4)" 
d="M 64.9 -85.8
Q 64.9,-87.8,64.9,-89.8
Q 64.3,-99.1,60.7,-107.0
Q 55.4,-118.5,48.6,-121.8
Q 33.4,-129.4,19.3,-83.2
Q 17.7,-78.1,16.9,-76.3
Q 16.1,-74.5,15.8,-72.9
Q 15.6,-71.4,14.6,-68.6
Q 13.7,-65.8,13.9,-65.5
Q 15.0,-64.5,16.2,-68.4
Q 16.6,-69.8,17.0,-71.1
Q 24.2,-56.4,31.9,-54.1
Q 33.1,-53.7,34.2,-53.4
Q 34.8,-53.5,35.3,-53.6
Q 36.4,-53.9,38.2,-53.4
Q 39.2,-53.6,40.2,-53.8
Q 45.3,-55.0,53.8,-61.8
Q 54.1,-62.3,54.5,-62.7
Q 55.1,-63.6,55.8,-64.0
Q 56.1,-64.3,56.4,-64.5
Q 61.3,-71.2,62.7,-74.7
Q 64.0,-78.3,64.9,-85.8
 " /> 
<path  
style="fill:rgb(31,181,0)" 
d="M 38.7 -56.5
Q 36.4,-56.5,34.2,-56.5
Q 34.8,-56.4,35.3,-56.3
Q 36.4,-56.0,38.7,-56.5
 " /> 
<path  
style="fill:rgb(115,250,3)" 
d="M 38.7 -56.5
Q 44.5,-58.1,52.0,-63.6
Q 52.9,-64.9,54.2,-65.8
Q 55.1,-67.1,56.0,-68.3
Q 59.6,-73.3,61.3,-80.0
Q 62.2,-83.6,62.7,-89.0
Q 62.2,-88.8,62.2,-90.7
Q 62.2,-91.6,62.2,-92.5
Q 61.5,-92.5,60.8,-92.5
Q 60.9,-88.1,59.3,-83.0
Q 56.6,-74.0,50.9,-68.3
Q 41.4,-58.7,30.0,-65.2
Q 28.2,-66.2,26.7,-67.0
Q 24.4,-68.2,24.4,-70.8
Q 24.4,-73.0,25.6,-74.3
Q 26.1,-75.0,26.7,-75.6
Q 24.3,-76.7,23.9,-77.4
Q 23.6,-77.7,23.4,-78.0
Q 26.0,-77.4,27.7,-77.2
Q 29.3,-77.0,33.3,-79.2
Q 33.7,-79.6,34.0,-80.1
Q 34.7,-80.9,35.8,-81.8
Q 36.3,-82.3,36.9,-82.7
Q 39.6,-86.7,41.1,-88.1
Q 41.9,-88.7,42.7,-89.4
Q 42.3,-89.9,41.9,-90.3
Q 40.7,-89.3,39.4,-88.1
Q 30.3,-79.7,28.2,-83.0
Q 26.2,-86.0,32.6,-96.9
Q 34.3,-99.8,34.4,-101.2
Q 34.8,-105.9,42.0,-112.1
Q 42.7,-112.7,42.7,-111.7
Q 42.7,-110.8,43.5,-110.6
Q 45.4,-110.1,48.2,-104.1
Q 50.8,-98.5,49.9,-96.0
Q 49.4,-94.9,46.2,-93.2
Q 45.2,-92.6,44.1,-91.9
Q 44.5,-91.3,44.9,-90.7
Q 45.6,-90.7,46.2,-90.7
Q 49.1,-90.8,52.0,-85.0
Q 53.3,-83.9,53.8,-84.0
Q 54.0,-84.0,54.2,-84.1
Q 54.2,-84.3,54.2,-84.5
Q 54.3,-86.6,54.5,-86.7
Q 54.6,-86.7,54.7,-86.7
Q 54.7,-88.2,54.7,-89.6
Q 54.7,-96.4,51.9,-102.6
Q 51.2,-104.3,50.3,-105.9
Q 48.2,-109.5,49.9,-108.8
Q 51.0,-108.4,53.3,-103.2
Q 54.2,-102.8,54.4,-103.2
Q 55.8,-105.2,58.1,-101.5
Q 60.7,-97.6,60.8,-92.5
Q 61.5,-92.5,62.2,-92.5
Q 60.3,-105.3,53.3,-114.4
Q 44.6,-125.9,36.3,-115.4
Q 29.2,-106.3,20.9,-81.9
Q 18.6,-75.1,19.5,-72.8
Q 23.6,-62.1,28.9,-58.8
Q 31.0,-57.5,34.2,-56.5
Q 36.4,-56.5,38.7,-56.5
 " /> 
<path  
style="fill:rgb(31,181,0)" 
d="M 62.7 -89.0
Q 62.7,-92.1,62.6,-92.4
Q 62.6,-92.6,62.2,-92.5
Q 62.2,-91.6,62.2,-90.7
Q 62.2,-88.8,62.7,-89.0
 " /> 
<path  
style="fill:rgb(31,181,0)" 
d="M 54.2 -65.8
Q 52.9,-64.9,52.0,-63.6
Q 53.3,-64.5,54.2,-65.8
 " /> 
<path  
style="fill:rgb(115,250,3)" 
d="M 41.8 -85.8
Q 46.7,-87.3,49.5,-83.1
Q 52.3,-79.0,53.3,-81.0
Q 51.1,-82.7,50.0,-84.7
Q 48.9,-86.7,47.1,-88.5
Q 46.0,-88.5,44.9,-88.5
Q 42.8,-87.1,41.8,-85.8
 " /> 
<path  
style="fill:rgb(31,181,0)" 
d="M 41.8 -85.8
Q 40.8,-84.6,39.8,-83.4
Q 36.9,-79.8,34.4,-77.9
Q 30.7,-75.0,28.0,-75.4
Q 27.3,-75.5,26.7,-75.6
Q 26.1,-75.0,25.6,-74.3
Q 24.4,-73.0,24.4,-70.8
Q 24.4,-68.2,26.7,-67.0
Q 28.2,-66.2,30.0,-65.2
Q 41.4,-58.7,50.9,-68.3
Q 56.6,-74.0,59.3,-83.0
Q 60.9,-88.1,60.8,-92.5
Q 60.7,-97.6,58.1,-101.5
Q 55.8,-105.2,54.4,-103.2
Q 54.2,-102.8,53.3,-103.2
Q 55.1,-99.6,55.8,-96.9
Q 56.5,-94.2,56.5,-89.2
Q 56.5,-84.3,55.8,-83.1
Q 55.2,-81.8,53.3,-81.0
Q 52.3,-79.0,49.5,-83.1
Q 46.7,-87.3,41.8,-85.8
 " /> 
<path  
style="fill:rgb(4,4,4)" 
d="M 41.8 -85.8
Q 42.8,-87.1,44.9,-88.5
Q 46.2,-89.0,46.7,-88.8
Q 46.9,-88.6,47.1,-88.5
Q 48.9,-86.7,50.0,-84.7
Q 51.1,-82.7,53.3,-81.0
Q 55.2,-81.8,55.8,-83.1
Q 56.5,-84.3,56.5,-89.2
Q 56.5,-94.2,55.8,-96.9
Q 55.1,-99.6,53.3,-103.2
Q 52.6,-102.9,51.9,-102.6
Q 54.7,-96.4,54.7,-89.6
Q 54.7,-88.2,54.7,-86.7
Q 54.7,-84.7,54.2,-84.5
Q 54.2,-84.3,54.2,-84.1
Q 54.0,-83.9,53.8,-83.7
Q 53.4,-83.3,52.7,-84.1
Q 52.4,-84.5,52.0,-85.0
Q 49.1,-90.8,46.2,-90.7
Q 45.6,-90.7,44.9,-90.7
Q 44.6,-90.5,44.4,-90.3
Q 43.8,-89.9,42.7,-89.4
Q 41.9,-88.7,41.1,-88.1
Q 39.6,-86.7,36.9,-82.7
Q 36.4,-82.2,36.0,-81.6
Q 35.1,-80.5,33.3,-79.2
Q 33.8,-78.5,34.4,-77.9
Q 36.9,-79.8,39.8,-83.4
Q 40.8,-84.6,41.8,-85.8
 " /> 
<path  
style="fill:rgb(4,4,4)" 
d="M 26.7 -75.6
Q 27.3,-75.5,28.0,-75.4
Q 30.7,-75.0,34.4,-77.9
Q 33.8,-78.5,33.3,-79.2
Q 29.3,-77.0,27.7,-77.2
Q 26.0,-77.4,23.4,-78.0
Q 23.6,-77.7,23.9,-77.4
Q 24.3,-76.7,26.7,-75.6
 " /> 
<path  
style="fill:rgb(4,4,4)" 
d="M 53.3 -103.2
Q 51.0,-108.4,49.9,-108.8
Q 48.2,-109.5,50.3,-105.9
Q 51.2,-104.3,51.9,-102.6
Q 52.6,-102.9,53.3,-103.2
 " /> 
<path  
style="fill:rgb(31,181,0)" 
d="M 33.3 -79.2
Q 35.1,-80.5,36.0,-81.6
Q 36.4,-82.2,36.9,-82.7
Q 36.3,-82.3,35.8,-81.8
Q 34.7,-80.9,34.0,-80.1
Q 33.7,-79.6,33.3,-79.2
 " /> 
<path  
style="fill:rgb(115,250,3)" 
d="M 42.7 -89.4
Q 42.8,-89.6,42.9,-89.8
Q 43.2,-90.2,44.0,-90.5
Q 44.5,-90.6,44.9,-90.7
Q 44.5,-91.3,44.1,-91.9
Q 42.6,-90.9,41.1,-89.7
Q 42.3,-89.9,42.7,-89.4
 " /> 
<path  
style="fill:rgb(31,181,0)" 
d="M 42.7 -89.4
Q 43.8,-89.9,44.4,-90.3
Q 44.6,-90.5,44.9,-90.7
Q 44.5,-90.6,44.0,-90.5
Q 43.2,-90.2,42.9,-89.8
Q 42.8,-89.6,42.7,-89.4
 " /> 
<path  
style="fill:rgb(31,181,0)" 
d="M 52.0 -85.0
Q 52.4,-84.5,52.7,-84.1
Q 53.4,-83.3,53.8,-83.7
Q 54.0,-83.9,54.2,-84.1
Q 54.0,-84.0,53.8,-84.0
Q 53.3,-83.9,52.0,-85.0
 " /> 
<path  
style="fill:rgb(31,181,0)" 
d="M 54.2 -84.5
Q 54.7,-84.7,54.7,-86.7
Q 54.6,-86.7,54.5,-86.7
Q 54.3,-86.6,54.2,-84.5
 " /> 
<path  
style="fill:rgb(31,181,0)" 
d="M 47.1 -88.5
Q 46.9,-88.6,46.7,-88.8
Q 46.2,-89.0,44.9,-88.5
Q 46.0,-88.5,47.1,-88.5
 " /> 
<path  
style="fill:rgb(209,251,185)" 
d="M 28.2 -83.0
Q 30.3,-79.7,39.4,-88.1
Q 40.7,-89.3,41.9,-90.3
Q 43.4,-91.5,44.9,-92.4
Q 45.2,-92.6,46.2,-93.2
Q 49.4,-94.9,49.9,-96.0
Q 50.8,-98.5,48.2,-104.1
Q 45.4,-110.1,43.5,-110.6
Q 42.7,-110.8,42.7,-111.7
Q 42.7,-112.7,42.0,-112.1
Q 34.8,-105.9,34.4,-101.2
Q 34.3,-99.8,32.6,-96.9
Q 26.2,-86.0,28.2,-83.0
 " /> 
<path  
style="fill:rgb(7,193,201)" 
d="M 64.9 -85.8
Q 65.0,-86.4,65.1,-87.0
Q 65.4,-88.1,65.1,-89.0
Q 65.0,-89.4,64.9,-89.8
Q 64.9,-87.8,64.9,-85.8
 " /> 
<path  
style="fill:rgb(14,103,171)" 
d="M 56.4 -64.5
Q 56.1,-64.3,55.8,-64.0
Q 55.1,-63.6,54.5,-62.7
Q 54.1,-62.3,53.8,-61.8
Q 54.2,-62.2,54.7,-62.5
Q 55.5,-63.2,56.0,-63.9
Q 56.2,-64.2,56.4,-64.5
 " /> 
<path  
style="fill:rgb(14,103,171)" 
d="M 38.2 -53.4
Q 36.4,-53.9,35.3,-53.6
Q 34.8,-53.5,34.2,-53.4
Q 36.2,-53.4,38.2,-53.4
 " /> 
<path  
style="fill:rgb(4,4,4)" 
d="M -38.2 -65.8
Q -36.9,-64.9,-36.5,-64.3
Q -36.2,-63.9,-36.0,-63.6
Q -32.4,-60.5,-30.2,-59.2
Q -19.0,-52.5,-8.9,-60.1
Q -8.0,-61.3,-7.3,-61.8
Q -7.0,-62.1,-6.7,-62.3
Q -4.0,-65.4,-2.7,-67.9
Q -2.1,-69.2,-1.5,-70.4
Q -1.2,-68.9,-0.9,-67.4
Q 0.0,-62.2,1.2,-63.3
Q 1.7,-63.9,-0.4,-74.6
Q -10.2,-123.1,-28.9,-128.2
Q -30.3,-128.6,-31.6,-129.0
Q -33.1,-129.0,-34.7,-129.0
Q -35.2,-129.0,-35.8,-129.0
Q -36.9,-129.0,-39.1,-127.7
Q -40.2,-127.0,-41.3,-126.3
Q -41.5,-126.0,-41.6,-125.8
Q -42.0,-125.3,-43.6,-124.1
Q -46.2,-120.5,-47.6,-117.8
Q -50.6,-111.8,-50.6,-105.0
Q -50.7,-103.2,-50.7,-101.4
Q -50.7,-99.6,-50.7,-97.8
Q -50.7,-92.5,-49.8,-88.5
Q -47.0,-75.6,-38.2,-65.8
 " /> 
<path  
style="fill:rgb(115,250,3)" 
d="M -38.2 -69.0
Q -35.6,-66.7,-34.5,-65.4
Q -33.9,-64.7,-33.3,-64.1
Q -29.3,-61.4,-27.1,-60.3
Q -24.9,-59.1,-22.2,-58.7
Q -19.5,-58.3,-14.7,-59.2
Q -13.6,-60.0,-12.4,-60.5
Q -11.4,-61.3,-10.4,-62.1
Q -6.4,-65.2,-3.8,-71.8
Q -2.5,-75.0,-4.4,-83.6
Q -9.9,-107.9,-21.3,-121.0
Q -21.7,-121.2,-22.0,-121.4
Q -22.6,-121.9,-23.1,-122.5
Q -23.3,-122.9,-23.6,-123.2
Q -24.4,-123.7,-25.3,-124.3
Q -27.1,-125.4,-29.1,-126.1
Q -30.1,-126.4,-31.1,-126.7
Q -33.1,-126.7,-35.1,-126.7
Q -41.6,-124.4,-44.6,-118.9
Q -47.2,-114.3,-48.4,-106.3
Q -48.4,-98.5,-48.7,-98.4
Q -48.8,-98.3,-48.9,-98.3
Q -48.9,-97.8,-48.9,-97.4
Q -48.8,-97.4,-48.6,-97.5
Q -48.4,-97.5,-48.4,-96.4
Q -48.4,-96.4,-48.4,-96.4
Q -48.4,-95.8,-48.4,-95.2
Q -48.4,-94.3,-48.4,-93.4
Q -48.1,-93.5,-48.0,-93.3
Q -48.0,-93.0,-48.0,-91.2
Q -47.4,-89.0,-46.9,-86.7
Q -45.1,-79.7,-38.2,-69.0
 " /> 
<path  
style="fill:rgb(255,255,255)" 
d="M -25.3 -85.4
Q -25.8,-85.9,-26.3,-86.5
Q -26.7,-86.1,-27.1,-85.4
Q -27.3,-85.0,-27.6,-84.5
Q -26.4,-85.0,-25.3,-85.4
 " /> 
<path  
style="fill:rgb(255,255,255)" 
d="M -25.3 -85.4
Q -23.8,-85.4,-22.2,-85.4
Q -22.6,-86.6,-23.7,-86.9
Q -25.3,-87.4,-26.3,-86.5
Q -25.8,-85.9,-25.3,-85.4
 " /> 
<path  
style="fill:rgb(31,181,0)" 
d="M -25.3 -85.4
Q -28.4,-83.2,-30.0,-81.4
Q -31.7,-79.6,-32.6,-79.6
Q -37.3,-79.6,-39.8,-89.7
Q -41.6,-96.9,-41.8,-106.3
Q -43.1,-105.8,-44.1,-104.2
Q -46.7,-99.8,-41.7,-84.1
Q -34.0,-60.0,-17.1,-64.5
Q -15.3,-65.0,-12.3,-67.5
Q -7.3,-71.8,-7.5,-74.5
Q -7.7,-76.4,-7.6,-76.9
Q -7.6,-77.2,-7.6,-77.4
Q -8.2,-77.3,-8.9,-77.2
Q -9.0,-77.2,-9.2,-77.1
Q -12.1,-76.9,-16.8,-81.1
Q -19.5,-83.6,-22.2,-85.4
Q -23.8,-85.4,-25.3,-85.4
 " /> 
<path  
style="fill:rgb(4,4,4)" 
d="M -25.3 -85.4
Q -26.4,-85.0,-27.6,-84.5
Q -27.3,-85.0,-27.1,-85.4
Q -26.7,-86.1,-26.3,-86.5
Q -25.3,-87.4,-23.7,-86.9
Q -22.6,-86.6,-22.2,-85.4
Q -19.5,-83.6,-16.8,-81.1
Q -12.1,-76.9,-9.2,-77.1
Q -9.3,-77.9,-9.3,-78.7
Q -10.3,-79.2,-11.3,-79.6
Q -13.3,-80.5,-17.0,-83.9
Q -22.8,-89.4,-24.6,-89.4
Q -26.9,-89.4,-30.6,-83.9
Q -33.5,-79.5,-36.0,-85.3
Q -38.1,-90.2,-40.0,-103.6
Q -40.1,-104.0,-40.3,-104.3
Q -40.5,-104.9,-40.0,-105.8
Q -39.9,-107.1,-39.8,-108.3
Q -39.4,-112.8,-37.3,-115.7
Q -36.3,-117.0,-36.8,-117.5
Q -37.4,-118.0,-38.5,-116.7
Q -41.1,-113.6,-41.6,-108.5
Q -41.7,-107.4,-41.8,-106.3
Q -41.6,-96.9,-39.8,-89.7
Q -37.3,-79.6,-32.6,-79.6
Q -31.7,-79.6,-30.0,-81.4
Q -28.4,-83.2,-25.3,-85.4
 " /> 
<path  
style="fill:rgb(4,4,4)" 
d="M -7.6 -77.4
Q -7.3,-77.6,-7.1,-77.8
Q -7.4,-78.0,-7.8,-78.1
Q -8.4,-78.4,-8.9,-78.6
Q -9.1,-78.6,-9.3,-78.7
Q -9.3,-77.9,-9.2,-77.1
Q -9.0,-77.2,-8.9,-77.2
Q -8.2,-77.3,-7.6,-77.4
 " /> 
<path  
style="fill:rgb(31,181,0)" 
d="M -40.0 -105.8
Q -40.5,-104.9,-40.3,-104.3
Q -40.1,-104.0,-40.0,-103.6
Q -40.0,-104.7,-40.0,-105.8
 " /> 
<path  
style="fill:rgb(31,181,0)" 
d="M -9.3 -78.7
Q -9.1,-78.6,-8.9,-78.6
Q -8.4,-78.4,-7.8,-78.1
Q -7.4,-78.0,-7.1,-77.8
Q -7.5,-78.9,-8.4,-78.8
Q -8.9,-78.8,-9.3,-78.7
 " /> 
<path  
style="fill:rgb(209,251,185)" 
d="M -12.2 -85.6
Q -9.5,-84.3,-9.9,-85.7
Q -10.1,-86.5,-12.7,-92.1
Q -23.4,-115.5,-29.6,-108.8
Q -34.8,-103.3,-31.9,-97.5
Q -30.0,-93.6,-25.2,-92.5
Q -20.2,-91.4,-16.0,-88.1
Q -13.6,-86.2,-12.2,-85.6
 " /> 
<path  
style="fill:rgb(31,181,0)" 
d="M -38.2 -69.0
Q -36.0,-66.3,-33.3,-64.1
Q -33.9,-64.7,-34.5,-65.4
Q -35.6,-66.7,-38.2,-69.0
 " /> 
<path  
style="fill:rgb(31,181,0)" 
d="M -48.0 -91.2
Q -48.0,-93.0,-48.0,-93.3
Q -48.1,-93.5,-48.4,-93.4
Q -48.4,-91.5,-48.4,-91.3
Q -48.3,-91.0,-48.0,-91.2
 " /> 
<path  
style="fill:rgb(31,181,0)" 
d="M -48.4 -95.2
Q -48.4,-95.8,-48.4,-96.4
Q -48.6,-96.9,-48.9,-97.4
Q -48.9,-95.5,-48.8,-95.3
Q -48.8,-95.0,-48.4,-95.2
 " /> 
<path  
style="fill:rgb(31,181,0)" 
d="M -48.9 -97.4
Q -48.6,-96.9,-48.4,-96.4
Q -48.4,-96.4,-48.4,-96.4
Q -48.4,-97.5,-48.6,-97.5
Q -48.8,-97.4,-48.9,-97.4
 " /> 
<path  
style="fill:rgb(31,181,0)" 
d="M -48.9 -98.3
Q -48.8,-98.3,-48.7,-98.4
Q -48.4,-98.5,-48.4,-106.3
Q -48.5,-106.3,-48.6,-106.2
Q -48.8,-106.1,-48.9,-102.2
Q -48.9,-100.3,-48.9,-98.3
 " /> 
<path  
style="fill:rgb(31,181,0)" 
d="M -35.1 -126.7
Q -33.1,-126.7,-31.1,-126.7
Q -31.7,-126.9,-32.2,-127.0
Q -33.3,-127.2,-35.1,-126.7
 " /> 
<path  
style="fill:rgb(31,181,0)" 
d="M -23.6 -123.2
Q -23.3,-122.9,-23.1,-122.5
Q -22.6,-121.9,-22.0,-121.4
Q -21.7,-121.2,-21.3,-121.0
Q -21.6,-121.3,-21.8,-121.6
Q -22.2,-122.3,-22.9,-122.7
Q -23.2,-123.0,-23.6,-123.2
 " /> 
<path  
style="fill:rgb(31,181,0)" 
d="M -12.4 -60.5
Q -13.6,-60.0,-14.7,-59.2
Q -14.2,-59.3,-13.8,-59.5
Q -12.9,-59.7,-12.4,-60.5
 " /> 
<path  
style="fill:rgb(14,103,171)" 
d="M -38.2 -65.8
Q -38.0,-65.5,-37.8,-65.2
Q -37.3,-64.5,-36.0,-63.6
Q -36.2,-63.9,-36.5,-64.3
Q -36.9,-64.9,-38.2,-65.8
 " /> 
<path  
style="fill:rgb(7,193,201)" 
d="M -50.7 -97.8
Q -50.7,-99.6,-50.7,-101.4
Q -50.8,-101.0,-50.9,-100.5
Q -51.1,-99.6,-50.7,-97.8
 " /> 
<path  
style="fill:rgb(7,193,201)" 
d="M -43.6 -124.1
Q -42.0,-125.3,-41.6,-125.8
Q -41.5,-126.0,-41.3,-126.3
Q -41.6,-126.1,-42.0,-125.8
Q -42.6,-125.3,-43.1,-124.7
Q -43.3,-124.4,-43.6,-124.1
 " /> 
<path  
style="fill:rgb(7,193,201)" 
d="M -34.7 -129.0
Q -33.1,-129.0,-31.6,-129.0
Q -32.0,-129.1,-32.4,-129.2
Q -33.3,-129.4,-34.7,-129.0
 " /> 
<path  
style="fill:rgb(14,103,171)" 
d="M -6.7 -62.3
Q -7.0,-62.1,-7.3,-61.8
Q -8.0,-61.3,-8.9,-60.1
Q -8.6,-60.3,-8.2,-60.5
Q -7.6,-61.0,-6.7,-62.3
 " /> 
<path  
style="fill:rgb(14,103,171)" 
d="M -67.6 -94.3
Q -67.7,-93.6,-67.8,-93.0
Q -68.0,-91.6,-67.6,-89.4
Q -67.6,-91.8,-67.6,-94.3
 " /> 
<path  
style="fill:rgb(14,103,171)" 
d="M -3.1 -148.1
Q -1.8,-148.1,-0.4,-148.1
Q -0.7,-148.2,-1.0,-148.3
Q -1.1,-148.3,-1.1,-148.3
Q -1.8,-148.6,-3.1,-148.1
 " /> 
<path  
style="fill:rgb(4,4,4)" 
d="M -0.4 -148.1
Q -0.3,-148.8,-0.2,-149.5
Q -0.5,-149.5,-0.5,-149.6
Q -0.5,-149.7,-0.4,-149.8
Q -0.7,-149.1,-1.0,-148.3
Q -0.7,-148.2,-0.4,-148.1
 " /> 
<path  
style="fill:rgb(4,4,4)" 
d="M -0.4 -148.1
Q 1.2,-148.0,2.8,-148.0
Q 3.0,-148.0,3.1,-148.0
Q 3.1,-148.7,3.1,-149.4
Q 0.5,-149.4,-0.2,-149.5
Q -0.3,-148.8,-0.4,-148.1
 " /> 
<path  
style="fill:rgb(14,103,171)" 
d="M 24.4 -163.2
Q 25.6,-163.2,26.7,-163.2
Q 25.3,-163.7,24.9,-163.4
Q 24.7,-163.3,24.4,-163.2
 " /> 
<path  
style="fill:rgb(4,4,4)" 
d="M 24.4 -163.2
Q 24.7,-163.3,24.9,-163.4
Q 25.3,-163.7,26.7,-163.2
Q 26.8,-164.0,26.9,-164.8
Q 24.3,-165.1,21.5,-165.1
Q 30.9,-190.3,27.6,-194.3
Q 25.0,-197.5,20.6,-187.8
Q 20.0,-186.6,19.5,-185.4
Q 16.4,-189.9,13.3,-189.9
Q 12.0,-190.0,12.2,-191.1
Q 15.5,-207.7,12.0,-207.9
Q 9.2,-208.0,7.4,-198.3
Q 6.1,-201.2,4.7,-203.1
Q 4.1,-202.7,3.6,-202.3
Q 5.4,-198.7,6.2,-195.2
Q 6.3,-195.0,6.5,-194.7
Q 6.7,-194.3,6.5,-193.6
Q 6.3,-193.3,6.2,-193.0
Q 4.9,-185.4,5.3,-184.9
Q 6.7,-183.0,7.5,-189.4
Q 8.0,-193.2,8.9,-197.2
Q 9.8,-201.2,11.2,-205.2
Q 11.3,-203.9,11.4,-202.7
Q 11.8,-198.2,10.0,-190.0
Q 9.8,-189.0,8.9,-188.7
Q 8.0,-188.5,8.0,-188.0
Q 8.0,-187.5,8.8,-187.3
Q 9.6,-187.1,8.2,-181.6
Q 6.8,-176.1,7.1,-175.6
Q 8.3,-173.7,9.3,-178.3
Q 11.4,-187.9,13.6,-187.8
Q 17.2,-187.7,18.0,-183.5
Q 18.3,-182.1,16.9,-178.1
Q 14.9,-172.3,15.2,-171.8
Q 16.1,-170.6,17.9,-175.4
Q 22.0,-186.5,24.3,-190.3
Q 25.1,-191.5,25.9,-192.7
Q 26.3,-189.1,25.5,-185.6
Q 24.8,-182.0,22.0,-172.9
Q 20.9,-169.4,18.7,-164.5
Q 18.4,-164.2,18.2,-163.9
Q 17.8,-163.2,16.0,-161.8
Q 15.4,-161.7,13.8,-160.5
Q 12.0,-158.3,10.9,-157.4
Q 10.3,-157.0,9.8,-156.5
Q 9.1,-155.7,8.4,-155.0
Q 7.1,-153.4,6.0,-151.6
Q 4.9,-149.8,3.1,-149.4
Q 3.1,-148.7,3.1,-148.0
Q 6.1,-148.1,7.7,-150.6
Q 13.5,-159.8,21.6,-162.3
Q 23.0,-162.7,24.4,-163.2
 " /> 
<path  
style="fill:rgb(7,193,201)" 
d="M 76.0 -75.2
Q 75.5,-73.4,75.8,-72.5
Q 75.9,-72.1,76.0,-71.6
Q 76.0,-73.4,76.0,-75.2
 " /> 
<path  
style="fill:rgb(7,193,201)" 
d="M 76.0 -70.3
Q 75.7,-70.2,75.6,-69.8
Q 75.6,-69.4,75.6,-66.7
Q 75.7,-66.8,75.8,-66.8
Q 76.0,-66.9,76.0,-68.6
Q 76.0,-69.4,76.0,-70.3
 " /> 
<path  
style="fill:rgb(7,193,201)" 
d="M 63.6 -38.3
Q 62.9,-37.7,62.2,-37.2
Q 60.9,-36.0,59.8,-34.7
Q 59.2,-34.1,58.7,-33.4
Q 59.3,-34.0,60.0,-34.5
Q 61.3,-35.6,63.6,-38.3
 " /> 
<path  
style="fill:rgb(7,193,201)" 
d="M 58.2 -24.1
Q 57.9,-24.0,57.8,-23.6
Q 57.8,-23.2,57.8,-21.0
Q 57.9,-21.0,58.0,-21.0
Q 58.2,-21.1,58.2,-22.6
Q 58.2,-23.3,58.2,-24.1
 " /> 
<path  
style="fill:rgb(14,103,171)" 
d="M 3.1 -10.7
Q 1.8,-10.7,0.4,-10.7
Q 0.8,-10.6,1.1,-10.5
Q 1.8,-10.2,3.1,-10.7
 " /> 
<path  
style="fill:rgb(4,4,4)" 
d="M -96.9 -57.4
Q -96.4,-57.1,-96.0,-56.7
Q -95.1,-56.0,-94.2,-54.7
Q -93.0,-53.7,-91.8,-52.7
Q -73.1,-37.5,-52.4,-34.2
Q -53.5,-35.7,-54.6,-37.2
Q -56.8,-40.3,-59.6,-46.7
Q -60.7,-46.8,-61.8,-47.0
Q -69.2,-47.7,-80.5,-55.9
Q -91.6,-63.9,-92.3,-66.6
Q -92.8,-68.1,-89.7,-64.9
Q -86.1,-61.2,-77.3,-55.3
Q -69.9,-50.3,-63.8,-48.8
Q -62.1,-48.5,-60.4,-48.1
Q -64.4,-59.6,-65.8,-64.1
Q -67.1,-68.5,-68.4,-75.6
Q -69.0,-75.9,-69.5,-76.2
Q -81.7,-82.6,-87.6,-94.4
Q -89.4,-97.9,-89.1,-98.2
Q -88.6,-98.8,-86.0,-94.1
Q -82.9,-88.3,-77.2,-82.8
Q -73.9,-79.7,-68.9,-77.4
Q -68.9,-78.1,-68.9,-78.7
Q -69.0,-78.7,-69.1,-78.7
Q -69.4,-78.6,-69.4,-79.8
Q -69.4,-79.8,-69.4,-79.8
Q -69.3,-80.4,-69.3,-81.0
Q -69.3,-82.1,-69.3,-83.2
Q -69.8,-83.0,-69.8,-84.2
Q -69.8,-84.2,-69.8,-84.2
Q -69.8,-84.8,-69.8,-85.4
Q -69.8,-86.4,-69.8,-87.4
Q -69.8,-89.4,-69.8,-92.5
Q -77.7,-98.9,-81.6,-108.9
Q -83.3,-113.5,-83.0,-115.3
Q -82.9,-116.3,-81.9,-113.0
Q -78.4,-102.0,-71.7,-95.6
Q -70.7,-94.7,-69.8,-93.8
Q -69.3,-100.5,-68.9,-104.3
Q -68.6,-108.0,-68.4,-109.4
Q -68.9,-108.5,-70.3,-109.9
Q -74.5,-114.2,-76.6,-120.7
Q -78.2,-125.4,-77.4,-125.4
Q -76.9,-125.4,-76.2,-122.9
Q -75.5,-120.3,-73.8,-116.9
Q -72.2,-113.5,-68.4,-109.8
Q -68.0,-111.7,-67.6,-113.6
Q -66.7,-117.4,-65.6,-120.1
Q -65.0,-121.4,-64.4,-122.7
Q -67.5,-125.8,-67.9,-132.4
Q -68.1,-136.5,-67.7,-136.5
Q -67.2,-136.5,-66.9,-132.3
Q -66.6,-128.1,-64.4,-123.2
Q -63.6,-125.0,-62.5,-127.3
Q -61.4,-129.6,-59.6,-132.3
Q -57.8,-134.9,-59.5,-136.3
Q -61.1,-137.8,-60.9,-140.1
Q -61.0,-140.0,-61.1,-140.0
Q -61.4,-139.9,-61.3,-143.2
Q -61.3,-143.6,-61.3,-144.1
Q -61.3,-144.6,-61.3,-145.1
Q -61.3,-146.1,-60.9,-146.3
Q -60.9,-147.8,-60.9,-149.4
Q -60.9,-151.4,-60.4,-151.6
Q -60.4,-153.4,-60.4,-155.2
Q -60.4,-157.6,-60.0,-157.8
Q -60.0,-164.3,-60.2,-165.6
Q -60.3,-167.0,-61.4,-169.2
Q -62.1,-168.4,-62.8,-167.6
Q -67.2,-162.9,-70.2,-146.5
Q -72.7,-133.4,-73.3,-132.8
Q -74.4,-131.7,-75.0,-133.6
Q -75.2,-134.1,-75.1,-137.8
Q -75.2,-138.3,-75.4,-138.7
Q -75.6,-139.6,-75.4,-140.5
Q -75.2,-141.0,-75.1,-141.4
Q -75.1,-142.5,-75.1,-143.6
Q -75.2,-143.6,-75.4,-143.5
Q -75.6,-143.5,-75.6,-148.5
Q -76.0,-150.1,-76.4,-151.6
Q -78.2,-147.4,-78.9,-143.2
Q -79.6,-139.0,-79.8,-137.0
Q -80.6,-130.7,-82.5,-132.9
Q -84.5,-135.1,-84.8,-143.1
Q -84.9,-144.0,-84.9,-145.0
Q -85.3,-144.8,-85.3,-145.1
Q -85.4,-145.3,-85.3,-147.2
Q -85.8,-150.2,-86.2,-153.2
Q -88.3,-167.3,-91.8,-169.0
Q -93.6,-170.0,-95.6,-161.4
Q -95.6,-158.5,-96.0,-158.3
Q -96.0,-156.3,-96.0,-154.3
Q -95.6,-154.4,-95.5,-154.2
Q -95.5,-153.9,-95.6,-151.2
Q -95.3,-149.1,-95.1,-147.0
Q -94.3,-139.1,-91.6,-130.1
Q -87.7,-117.3,-91.5,-118.0
Q -94.7,-118.6,-97.5,-129.1
Q -98.7,-133.4,-101.3,-141.8
Q -101.6,-142.2,-102.0,-142.5
Q -102.6,-143.1,-103.3,-142.5
Q -103.6,-142.2,-104.0,-141.8
Q -104.4,-140.8,-104.9,-139.8
Q -106.5,-136.2,-106.9,-129.6
Q -107.0,-127.7,-107.1,-125.8
Q -107.1,-123.4,-107.1,-121.0
Q -105.8,-111.6,-104.9,-108.6
Q -100.8,-95.6,-92.8,-81.8
Q -91.1,-78.8,-90.2,-75.6
Q -89.8,-74.7,-90.1,-74.5
Q -90.4,-74.2,-91.6,-73.8
Q -92.7,-74.3,-93.8,-74.7
Q -96.0,-75.6,-98.4,-77.1
Q -109.0,-84.0,-110.1,-83.0
Q -111.9,-81.2,-105.3,-69.8
Q -101.8,-63.7,-96.9,-57.4
 " /> 
<path  
style="fill:rgb(14,103,171)" 
d="M -96.9 -57.4
Q -96.5,-57.0,-96.2,-56.5
Q -95.5,-55.6,-94.9,-55.2
Q -94.5,-55.0,-94.2,-54.7
Q -95.1,-56.0,-96.0,-56.7
Q -96.4,-57.1,-96.9,-57.4
 " /> 
<path  
style="fill:rgb(14,103,171)" 
d="M -91.6 -73.8
Q -90.4,-74.2,-90.1,-74.5
Q -89.8,-74.7,-90.2,-75.6
Q -90.3,-75.3,-90.3,-75.0
Q -90.4,-74.4,-91.6,-73.8
 " /> 
<path  
style="fill:rgb(14,103,171)" 
d="M -107.1 -121.0
Q -107.1,-123.4,-107.1,-125.8
Q -107.2,-125.2,-107.3,-124.5
Q -107.6,-123.2,-107.3,-122.1
Q -107.2,-121.5,-107.1,-121.0
 " /> 
<path  
style="fill:rgb(14,103,171)" 
d="M -95.6 -151.2
Q -95.5,-153.9,-95.5,-154.2
Q -95.6,-154.4,-96.0,-154.3
Q -96.0,-151.5,-95.9,-151.2
Q -95.9,-151.0,-95.6,-151.2
 " /> 
<path  
style="fill:rgb(14,103,171)" 
d="M -96.0 -158.3
Q -95.6,-158.5,-95.6,-161.4
Q -95.6,-161.4,-95.7,-161.3
Q -95.9,-161.2,-96.0,-158.3
 " /> 
<path  
style="fill:rgb(14,103,171)" 
d="M -85.3 -147.2
Q -85.4,-145.3,-85.3,-145.1
Q -85.3,-144.8,-84.9,-145.0
Q -84.9,-146.9,-84.9,-147.1
Q -85.0,-147.3,-85.3,-147.2
 " /> 
<path  
style="fill:rgb(14,103,171)" 
d="M -75.6 -148.5
Q -75.6,-143.5,-75.4,-143.5
Q -75.2,-143.6,-75.1,-143.6
Q -75.1,-148.2,-75.2,-148.4
Q -75.2,-148.7,-75.6,-148.5
 " /> 
<path  
style="fill:rgb(14,103,171)" 
d="M -75.1 -141.4
Q -75.2,-141.0,-75.4,-140.5
Q -75.6,-139.6,-75.4,-138.7
Q -75.2,-138.3,-75.1,-137.8
Q -75.1,-139.6,-75.1,-141.4
 " /> 
<path  
style="fill:rgb(14,103,171)" 
d="M -60.0 -157.8
Q -60.4,-157.6,-60.4,-155.2
Q -60.1,-155.3,-60.0,-157.8
 " /> 
<path  
style="fill:rgb(14,103,171)" 
d="M -60.4 -151.6
Q -60.9,-151.4,-60.9,-149.4
Q -60.8,-149.4,-60.7,-149.5
Q -60.5,-149.6,-60.5,-150.6
Q -60.5,-151.1,-60.4,-151.6
 " /> 
<path  
style="fill:rgb(14,103,171)" 
d="M -60.9 -146.3
Q -61.3,-146.1,-61.3,-145.1
Q -61.3,-144.6,-61.3,-144.1
Q -61.2,-144.1,-61.1,-144.1
Q -61.0,-144.2,-60.9,-145.3
Q -60.9,-145.8,-60.9,-146.3
 " /> 
<path  
style="fill:rgb(14,103,171)" 
d="M -61.3 -143.2
Q -61.4,-139.9,-61.1,-140.0
Q -61.0,-140.0,-60.9,-140.1
Q -60.9,-142.9,-60.9,-143.1
Q -61.0,-143.3,-61.3,-143.2
 " /> 
<path  
style="fill:rgb(97,247,248)" 
d="M -64.4 -123.2
Q -66.6,-128.1,-66.9,-132.3
Q -67.2,-136.5,-67.7,-136.5
Q -68.1,-136.5,-67.9,-132.4
Q -67.5,-125.8,-64.4,-122.7
Q -64.4,-123.0,-64.4,-123.2
 " /> 
<path  
style="fill:rgb(97,247,248)" 
d="M -68.4 -109.8
Q -72.2,-113.5,-73.8,-116.9
Q -75.5,-120.3,-76.2,-122.9
Q -76.9,-125.4,-77.4,-125.4
Q -78.2,-125.4,-76.6,-120.7
Q -74.5,-114.2,-70.3,-109.9
Q -68.9,-108.5,-68.4,-109.4
Q -68.4,-109.6,-68.4,-109.8
 " /> 
<path  
style="fill:rgb(97,247,248)" 
d="M -69.8 -93.8
Q -70.7,-94.7,-71.7,-95.6
Q -78.4,-102.0,-81.9,-113.0
Q -82.9,-116.3,-83.0,-115.3
Q -83.3,-113.5,-81.6,-108.9
Q -77.7,-98.9,-69.8,-92.5
Q -69.8,-93.2,-69.8,-93.8
 " /> 
<path  
style="fill:rgb(14,103,171)" 
d="M -69.8 -85.4
Q -69.8,-84.8,-69.8,-84.2
Q -69.6,-83.7,-69.3,-83.2
Q -69.3,-85.1,-69.4,-85.3
Q -69.4,-85.5,-69.8,-85.4
 " /> 
<path  
style="fill:rgb(14,103,171)" 
d="M -69.3 -83.2
Q -69.6,-83.7,-69.8,-84.2
Q -69.8,-84.2,-69.8,-84.2
Q -69.8,-83.0,-69.3,-83.2
 " /> 
<path  
style="fill:rgb(14,103,171)" 
d="M -69.3 -81.0
Q -69.3,-80.4,-69.4,-79.8
Q -69.1,-79.3,-68.9,-78.7
Q -68.9,-80.6,-68.9,-80.9
Q -69.0,-81.1,-69.3,-81.0
 " /> 
<path  
style="fill:rgb(14,103,171)" 
d="M -68.9 -78.7
Q -69.1,-79.3,-69.4,-79.8
Q -69.4,-79.8,-69.4,-79.8
Q -69.4,-78.6,-69.1,-78.7
Q -69.0,-78.7,-68.9,-78.7
 " /> 
<path  
style="fill:rgb(97,247,248)" 
d="M -68.9 -77.4
Q -69.2,-76.8,-69.5,-76.2
Q -69.0,-75.9,-68.4,-75.6
Q -68.9,-76.5,-68.9,-77.4
 " /> 
<path  
style="fill:rgb(97,247,248)" 
d="M -68.9 -77.4
Q -73.9,-79.7,-77.2,-82.8
Q -82.9,-88.3,-86.0,-94.1
Q -88.6,-98.8,-89.1,-98.2
Q -89.4,-97.9,-87.6,-94.4
Q -81.7,-82.6,-69.5,-76.2
Q -69.2,-76.8,-68.9,-77.4
 " /> 
<path  
style="fill:rgb(97,247,248)" 
d="M -60.4 -48.1
Q -62.1,-48.5,-63.8,-48.8
Q -69.9,-50.3,-77.3,-55.3
Q -86.1,-61.2,-89.7,-64.9
Q -92.8,-68.1,-92.3,-66.6
Q -91.6,-63.9,-80.5,-55.9
Q -69.2,-47.7,-61.8,-47.0
Q -60.7,-46.8,-59.6,-46.7
Q -60.0,-47.4,-60.4,-48.1
 " /> 
<path  
style="fill:rgb(97,247,248)" 
d="M 74.2 -51.2
Q 74.2,-51.0,74.2,-50.7
Q 77.5,-50.4,85.3,-54.5
Q 92.7,-58.5,93.2,-60.1
Q 93.5,-61.4,89.8,-58.8
Q 84.3,-55.0,77.8,-52.5
Q 76.0,-51.8,74.2,-51.2
 " /> 
<path  
style="fill:rgb(14,103,171)" 
d="M 77.3 -62.3
Q 77.8,-62.4,77.8,-64.5
Q 77.7,-64.5,77.6,-64.5
Q 77.4,-64.4,77.3,-62.3
 " /> 
<path  
style="fill:rgb(14,103,171)" 
d="M 77.8 -66.7
Q 77.9,-67.0,78.0,-67.2
Q 78.3,-67.6,78.0,-68.3
Q 77.9,-68.6,77.8,-69.0
Q 77.8,-67.8,77.8,-66.7
 " /> 
<path  
style="fill:rgb(14,103,171)" 
d="M 77.8 -70.7
Q 78.2,-73.8,78.0,-75.4
Q 77.9,-76.2,77.8,-77.0
Q 77.8,-73.8,77.8,-70.7
 " /> 
<path  
style="fill:rgb(14,103,171)" 
d="M 77.8 -79.6
Q 77.8,-80.6,77.8,-81.7
Q 77.8,-83.7,77.6,-83.7
Q 77.4,-83.6,77.3,-83.6
Q 77.3,-79.5,77.6,-79.6
Q 77.7,-79.6,77.8,-79.6
 " /> 
<path  
style="fill:rgb(4,4,4)" 
d="M 77.3 -84.1
Q 83.7,-88.4,90.9,-98.1
Q 105.1,-117.1,108.3,-129.6
Q 108.6,-130.9,108.0,-130.7
Q 107.4,-130.5,106.2,-126.9
Q 102.6,-116.5,91.9,-101.3
Q 87.6,-95.2,77.3,-85.4
Q 77.3,-84.7,77.3,-84.1
 " /> 
<path  
style="fill:rgb(14,103,171)" 
d="M 77.3 -85.4
Q 77.3,-86.0,77.3,-86.6
Q 77.1,-87.1,76.9,-87.6
Q 76.9,-85.3,77.1,-85.3
Q 77.2,-85.4,77.3,-85.4
 " /> 
<path  
style="fill:rgb(14,103,171)" 
d="M 76.9 -87.6
Q 77.1,-87.1,77.3,-86.6
Q 77.3,-86.6,77.3,-86.6
Q 77.4,-87.7,77.1,-87.7
Q 77.0,-87.6,76.9,-87.6
 " /> 
<path  
style="fill:rgb(97,247,248)" 
d="M 74.7 -102.7
Q 75.0,-102.8,75.3,-102.9
Q 75.9,-103.0,77.5,-104.5
Q 85.7,-111.9,85.8,-133.8
Q 85.9,-142.3,84.9,-142.3
Q 84.4,-142.3,84.7,-136.2
Q 85.5,-121.0,80.9,-111.3
Q 79.1,-107.6,74.7,-103.2
Q 74.7,-103.0,74.7,-102.7
 " /> 
<path  
style="fill:rgb(14,103,171)" 
d="M 67.1 -147.6
Q 68.4,-146.3,69.3,-145.6
Q 69.8,-145.3,70.2,-145.0
Q 68.5,-146.6,66.8,-148.2
Q 67.0,-147.9,67.1,-147.6
 " /> 
<path  
style="fill:rgb(14,103,171)" 
d="M 78.2 -148.5
Q 78.7,-153.0,78.4,-155.4
Q 78.3,-156.6,78.2,-157.8
Q 78.2,-153.2,78.2,-148.5
 " /> 
<path  
style="fill:rgb(14,103,171)" 
d="M 87.6 -155.2
Q 87.8,-154.7,88.0,-154.3
Q 88.4,-153.4,88.9,-152.7
Q 89.1,-152.4,89.3,-152.1
Q 88.9,-153.8,87.6,-155.2
 " /> 
<path  
style="fill:rgb(14,103,171)" 
d="M 97.8 -132.1
Q 99.0,-131.7,99.7,-132.6
Q 100.1,-133.0,100.4,-133.4
Q 100.1,-133.1,99.7,-132.8
Q 99.0,-132.2,97.8,-132.1
 " /> 
<path  
style="fill:rgb(14,103,171)" 
d="M 109.3 -155.6
Q 109.7,-155.9,110.0,-156.1
Q 110.6,-156.6,111.1,-157.2
Q 111.3,-157.5,111.6,-157.8
Q 110.2,-156.9,109.3,-155.6
 " /> 
<path  
style="fill:rgb(14,103,171)" 
d="M 115.6 -149.0
Q 115.6,-147.2,115.6,-145.4
Q 115.7,-145.8,115.8,-146.3
Q 116.0,-147.2,115.6,-149.0
 " /> 
<path  
style="fill:rgb(14,103,171)" 
d="M 116.0 -115.2
Q 117.3,-116.1,118.2,-117.4
Q 117.9,-117.2,117.6,-116.9
Q 116.9,-116.5,116.0,-115.2
 " /> 
<path  
style="fill:rgb(14,103,171)" 
d="M 120.9 -116.5
Q 120.9,-115.4,120.9,-114.3
Q 121.0,-114.6,121.1,-115.0
Q 121.4,-115.6,120.9,-116.5
 " /> 
<path  
style="fill:rgb(7,193,201)" 
d="M -0.4 -149.8
Q 2.7,-149.9,3.0,-149.8
Q 3.2,-149.8,3.2,-149.7
Q 3.1,-149.5,3.1,-149.4
Q 4.9,-149.8,6.0,-151.6
Q 7.1,-153.4,8.4,-155.0
Q 9.1,-155.7,9.8,-156.5
Q 10.2,-157.1,10.7,-157.6
Q 11.6,-158.7,12.7,-159.6
Q 13.2,-160.1,13.8,-160.5
Q 15.4,-161.7,16.0,-161.8
Q 16.3,-162.2,16.6,-162.6
Q 17.2,-163.3,18.7,-164.5
Q 20.9,-169.4,22.0,-172.9
Q 24.8,-182.0,25.5,-185.6
Q 26.3,-189.1,25.9,-192.7
Q 25.1,-191.5,24.3,-190.3
Q 22.0,-186.5,17.9,-175.4
Q 16.1,-170.6,15.2,-171.8
Q 14.9,-172.3,16.9,-178.1
Q 18.3,-182.1,18.0,-183.5
Q 17.2,-187.7,13.6,-187.8
Q 11.4,-187.9,9.3,-178.3
Q 8.3,-173.7,7.1,-175.6
Q 6.8,-176.1,8.2,-181.6
Q 9.6,-187.1,8.8,-187.3
Q 8.0,-187.5,8.0,-188.0
Q 8.0,-188.5,8.9,-188.7
Q 9.8,-189.0,10.0,-190.0
Q 11.8,-198.2,11.4,-202.7
Q 11.3,-203.9,11.2,-205.2
Q 9.8,-201.2,8.9,-197.2
Q 8.0,-193.2,7.5,-189.4
Q 6.7,-183.0,5.3,-184.9
Q 4.9,-185.4,6.2,-193.0
Q 6.2,-194.1,6.2,-195.2
Q 5.4,-198.7,3.6,-202.3
Q 3.2,-202.5,2.9,-202.7
Q 2.2,-203.2,1.8,-203.9
Q 1.6,-204.2,1.3,-204.5
Q 0.8,-204.1,0.2,-203.6
Q 0.2,-203.6,0.2,-203.6
Q 0.5,-202.3,0.7,-199.6
Q 0.7,-199.2,0.7,-198.9
Q 0.8,-197.9,0.9,-197.0
Q 1.4,-197.1,1.4,-195.7
Q 1.4,-195.7,1.4,-195.7
Q 1.3,-195.0,1.3,-194.3
Q 1.3,-193.0,1.3,-191.6
Q 1.8,-191.8,1.8,-189.7
Q 1.8,-188.7,1.8,-187.6
Q 1.9,-186.6,2.0,-185.6
Q 2.2,-183.6,1.6,-183.2
Q -0.4,-181.6,-0.1,-186.7
Q -0.1,-188.1,0.0,-189.4
Q -0.1,-189.4,-0.3,-189.3
Q -0.5,-189.2,-0.5,-191.3
Q -0.5,-192.4,-0.4,-193.4
Q -0.9,-195.6,-0.9,-197.2
Q -0.9,-198.0,-0.9,-198.7
Q -1.0,-198.7,-1.1,-198.7
Q -1.4,-198.6,-1.3,-201.0
Q -3.1,-211.2,-4.3,-215.7
Q -6.8,-225.6,-8.3,-221.4
Q -8.8,-220.1,-8.9,-218.3
Q -8.9,-217.2,-8.9,-216.1
Q -8.9,-212.5,-8.9,-209.0
Q -8.8,-209.0,-8.6,-209.0
Q -8.5,-209.1,-8.4,-208.8
Q -8.4,-208.6,-8.4,-205.8
Q -8.2,-204.1,-8.0,-202.3
Q -7.6,-198.7,-7.3,-196.3
Q -7.2,-195.1,-7.1,-193.8
Q -7.0,-193.9,-6.9,-193.9
Q -6.7,-194.0,-6.7,-193.7
Q -6.6,-193.5,-6.7,-191.6
Q -6.7,-191.0,-6.7,-190.3
Q -6.2,-190.4,-6.2,-189.3
Q -6.2,-189.3,-6.2,-189.3
Q -6.2,-188.7,-6.2,-188.1
Q -6.1,-187.5,-6.0,-187.0
Q -5.8,-185.8,-6.3,-185.1
Q -6.8,-184.4,-7.6,-185.1
Q -8.3,-185.9,-8.0,-189.0
Q -8.1,-188.9,-8.3,-188.9
Q -8.5,-188.8,-8.5,-190.0
Q -8.5,-190.0,-8.5,-190.0
Q -8.5,-190.6,-8.4,-191.2
Q -8.7,-192.5,-8.9,-193.8
Q -9.3,-196.5,-9.8,-201.8
Q -10.1,-204.4,-11.1,-203.6
Q -11.5,-203.2,-12.0,-202.7
Q -12.9,-199.6,-12.6,-197.3
Q -12.3,-193.9,-11.1,-191.0
Q -8.4,-184.1,-9.9,-184.1
Q -10.6,-184.1,-13.0,-190.8
Q -14.6,-195.0,-17.9,-202.9
Q -18.0,-202.4,-18.1,-201.8
Q -18.4,-200.1,-13.5,-182.7
Q -10.7,-172.8,-11.2,-172.3
Q -12.2,-171.3,-13.3,-175.4
Q -13.8,-177.6,-14.7,-180.3
Q -15.6,-182.9,-16.3,-185.4
Q -17.8,-191.2,-19.2,-190.5
Q -23.8,-188.1,-21.4,-184.6
Q -12.0,-170.7,-11.6,-169.1
Q -11.5,-168.5,-12.2,-168.5
Q -12.8,-168.5,-15.4,-172.2
Q -17.9,-175.8,-20.3,-179.1
Q -22.8,-182.5,-25.7,-187.6
Q -31.1,-197.3,-32.4,-197.7
Q -34.1,-198.4,-30.4,-183.4
Q -26.6,-168.5,-22.1,-166.7
Q -16.8,-164.7,-14.1,-162.1
Q -13.3,-161.3,-12.4,-160.5
Q -11.1,-159.6,-10.2,-158.3
Q -9.4,-157.3,-8.7,-156.3
Q -7.1,-154.3,-5.8,-152.1
Q -4.4,-149.9,-2.4,-149.8
Q -1.4,-149.8,-0.4,-149.8
 " /> 
<path  
style="fill:rgb(14,103,171)" 
d="M -0.4 -149.8
Q -0.5,-149.7,-0.5,-149.6
Q -0.5,-149.5,-0.2,-149.5
Q 0.5,-149.4,3.1,-149.4
Q 3.1,-149.5,3.2,-149.7
Q 3.2,-149.8,3.0,-149.8
Q 2.7,-149.9,-0.4,-149.8
 " /> 
<path  
style="fill:rgb(14,103,171)" 
d="M -10.2 -158.3
Q -11.1,-159.6,-12.4,-160.5
Q -12.2,-160.2,-12.0,-159.9
Q -11.5,-159.2,-10.2,-158.3
 " /> 
<path  
style="fill:rgb(14,103,171)" 
d="M -12.0 -202.7
Q -11.5,-203.2,-11.1,-203.6
Q -10.1,-204.4,-9.8,-201.8
Q -9.8,-204.5,-10.0,-204.5
Q -10.3,-204.5,-12.0,-202.7
 " /> 
<path  
style="fill:rgb(14,103,171)" 
d="M -8.4 -191.2
Q -8.5,-190.6,-8.5,-190.0
Q -8.2,-189.5,-8.0,-189.0
Q -8.0,-189.8,-8.0,-190.3
Q -8.0,-191.0,-8.1,-191.1
Q -8.1,-191.3,-8.3,-191.2
Q -8.3,-191.2,-8.4,-191.2
 " /> 
<path  
style="fill:rgb(4,4,4)" 
d="M -8.0 -189.0
Q -7.3,-189.0,-6.7,-189.0
Q -6.7,-189.5,-6.7,-190.3
Q -7.3,-190.3,-8.0,-190.3
Q -8.0,-189.8,-8.0,-189.0
 " /> 
<path  
style="fill:rgb(4,4,4)" 
d="M -8.0 -189.0
Q -8.3,-185.9,-7.6,-185.1
Q -6.8,-184.4,-6.3,-185.1
Q -5.8,-185.8,-6.0,-187.0
Q -6.1,-187.5,-6.2,-188.1
Q -6.6,-187.9,-6.6,-188.1
Q -6.6,-188.3,-6.7,-189.0
Q -7.3,-189.0,-8.0,-189.0
 " /> 
<path  
style="fill:rgb(14,103,171)" 
d="M -8.0 -189.0
Q -8.2,-189.5,-8.5,-190.0
Q -8.5,-190.0,-8.5,-190.0
Q -8.5,-188.8,-8.3,-188.9
Q -8.1,-188.9,-8.0,-189.0
 " /> 
<path  
style="fill:rgb(14,103,171)" 
d="M -6.2 -188.1
Q -6.2,-188.7,-6.2,-189.3
Q -6.4,-189.8,-6.7,-190.3
Q -6.7,-189.5,-6.7,-189.0
Q -6.6,-188.3,-6.6,-188.1
Q -6.6,-187.9,-6.2,-188.1
 " /> 
<path  
style="fill:rgb(4,4,4)" 
d="M -6.7 -190.3
Q -6.7,-191.0,-6.7,-191.6
Q -7.0,-191.5,-7.0,-191.7
Q -7.7,-191.5,-8.3,-191.2
Q -8.1,-191.3,-8.1,-191.1
Q -8.0,-191.0,-8.0,-190.3
Q -7.3,-190.3,-6.7,-190.3
 " /> 
<path  
style="fill:rgb(14,103,171)" 
d="M -6.7 -190.3
Q -6.4,-189.8,-6.2,-189.3
Q -6.2,-189.3,-6.2,-189.3
Q -6.2,-190.4,-6.7,-190.3
 " /> 
<path  
style="fill:rgb(14,103,171)" 
d="M -6.7 -191.6
Q -6.6,-193.5,-6.7,-193.7
Q -6.7,-194.0,-6.9,-193.9
Q -7.0,-193.9,-7.1,-193.8
Q -7.1,-191.9,-7.1,-191.7
Q -7.1,-191.7,-7.0,-191.7
Q -7.0,-191.5,-6.7,-191.6
 " /> 
<path  
style="fill:rgb(14,103,171)" 
d="M -8.4 -205.8
Q -8.4,-208.6,-8.4,-208.8
Q -8.5,-209.1,-8.6,-209.0
Q -8.8,-209.0,-8.9,-209.0
Q -8.9,-206.1,-8.8,-205.9
Q -8.8,-205.7,-8.4,-205.8
 " /> 
<path  
style="fill:rgb(14,103,171)" 
d="M -8.9 -216.1
Q -8.9,-217.2,-8.9,-218.3
Q -9.0,-218.0,-9.1,-217.6
Q -9.4,-217.0,-8.9,-216.1
 " /> 
<path  
style="fill:rgb(14,103,171)" 
d="M -1.3 -201.0
Q -1.4,-198.6,-1.1,-198.7
Q -1.0,-198.7,-0.9,-198.7
Q -0.9,-199.3,-0.9,-200.0
Q -0.9,-201.2,-1.3,-201.0
 " /> 
<path  
style="fill:rgb(4,4,4)" 
d="M -0.9 -198.7
Q -0.9,-198.0,-0.9,-197.2
Q -0.9,-195.6,-0.4,-193.4
Q -0.1,-193.6,-0.1,-193.3
Q -0.0,-193.2,-0.0,-191.6
Q 0.7,-191.6,1.3,-191.6
Q 1.3,-193.0,1.3,-194.3
Q 0.9,-194.1,0.9,-195.5
Q 0.9,-196.2,0.9,-197.0
Q 0.8,-197.9,0.7,-198.9
Q -0.1,-198.8,-0.9,-198.7
 " /> 
<path  
style="fill:rgb(14,103,171)" 
d="M -0.4 -193.4
Q -0.5,-192.4,-0.5,-191.3
Q -0.5,-189.2,-0.3,-189.3
Q -0.1,-189.4,0.0,-189.4
Q 0.0,-190.7,-0.0,-191.6
Q -0.0,-193.2,-0.1,-193.3
Q -0.1,-193.6,-0.4,-193.4
 " /> 
<path  
style="fill:rgb(4,4,4)" 
d="M 0.0 -189.4
Q 0.7,-189.4,1.3,-189.4
Q 1.3,-190.3,1.3,-191.6
Q 0.7,-191.6,-0.0,-191.6
Q 0.0,-190.7,0.0,-189.4
 " /> 
<path  
style="fill:rgb(4,4,4)" 
d="M 0.0 -189.4
Q -0.1,-188.1,-0.1,-186.7
Q -0.4,-181.6,1.6,-183.2
Q 2.2,-183.6,2.0,-185.6
Q 1.9,-186.6,1.8,-187.6
Q 1.7,-187.6,1.6,-187.5
Q 1.4,-187.4,1.3,-189.4
Q 0.7,-189.4,0.0,-189.4
 " /> 
<path  
style="fill:rgb(14,103,171)" 
d="M 1.8 -187.6
Q 1.8,-188.7,1.8,-189.7
Q 1.8,-191.8,1.3,-191.6
Q 1.3,-190.3,1.3,-189.4
Q 1.4,-187.4,1.6,-187.5
Q 1.7,-187.6,1.8,-187.6
 " /> 
<path  
style="fill:rgb(14,103,171)" 
d="M 1.3 -194.3
Q 1.3,-195.0,1.4,-195.7
Q 1.1,-196.3,0.9,-197.0
Q 0.9,-196.2,0.9,-195.5
Q 0.9,-194.1,1.3,-194.3
 " /> 
<path  
style="fill:rgb(14,103,171)" 
d="M 0.9 -197.0
Q 1.1,-196.3,1.4,-195.7
Q 1.4,-195.7,1.4,-195.7
Q 1.4,-197.1,0.9,-197.0
 " /> 
<path  
style="fill:rgb(4,4,4)" 
d="M 1.3 -204.5
Q 1.7,-204.3,2.0,-204.1
Q 2.6,-203.6,3.6,-202.3
Q 4.1,-202.7,4.7,-203.1
Q 3.3,-205.2,1.8,-206.2
Q 1.8,-205.1,1.3,-204.5
 " /> 
<path  
style="fill:rgb(14,103,171)" 
d="M 1.3 -204.5
Q 1.6,-204.2,1.8,-203.9
Q 2.2,-203.2,2.9,-202.7
Q 3.2,-202.5,3.6,-202.3
Q 2.6,-203.6,2.0,-204.1
Q 1.7,-204.3,1.3,-204.5
 " /> 
<path  
style="fill:rgb(7,193,201)" 
d="M 1.3 -204.5
Q 1.0,-204.6,0.7,-204.7
Q 0.0,-205.0,0.2,-203.6
Q 0.8,-204.1,1.3,-204.5
 " /> 
<path  
style="fill:rgb(14,103,171)" 
d="M 6.2 -195.2
Q 6.2,-194.1,6.2,-193.0
Q 6.3,-193.3,6.5,-193.6
Q 6.7,-194.3,6.5,-194.7
Q 6.3,-195.0,6.2,-195.2
 " /> 
<path  
style="fill:rgb(14,103,171)" 
d="M 18.7 -164.5
Q 17.2,-163.3,16.6,-162.6
Q 16.3,-162.2,16.0,-161.8
Q 17.8,-163.2,18.2,-163.9
Q 18.4,-164.2,18.7,-164.5
 " /> 
<path  
style="fill:rgb(14,103,171)" 
d="M 13.8 -160.5
Q 13.2,-160.1,12.7,-159.6
Q 11.6,-158.7,10.7,-157.6
Q 10.2,-157.1,9.8,-156.5
Q 10.3,-157.0,10.9,-157.4
Q 12.0,-158.3,13.8,-160.5
 " /> 
</g> 
</svg> 
