<?xml version="1.0"?>
<!DOCTYPE svg PUBLIC "-//W3C//DTD SVG 1.1//EN" "http://www.w3.org/Graphics/SVG/1.1/DTD/svg11.dtd">
<svg xmlns="http://www.w3.org/2000/svg" version="1.1">
<g transform="translate(113.0,222.1)" stroke-width="0" fill="none" >
<path  
style="fill:rgb(4,4,4)" 
d="M 50.1 218.4
Q 53.1,224.3,56.0,219.0
Q 56.6,217.8,58.6,212.5
Q 61.3,205.4,63.8,199.4
Q 73.2,177.1,76.1,167.4
Q 86.7,132.7,66.2,119.4
Q 63.7,117.8,57.5,114.3
Q 47.9,109.0,44.4,105.8
Q 35.1,97.4,33.2,81.5
Q 36.3,84.2,38.1,85.4
Q 46.2,90.5,53.4,85.1
Q 61.9,78.7,56.0,54.5
Q 53.5,44.1,43.1,25.4
Q 37.3,15.0,33.8,5.9
Q 30.2,-3.4,28.3,-6.0
Q 26.6,-8.3,26.9,-8.5
Q 30.5,-10.0,32.0,-5.6
Q 34.8,2.9,37.3,3.6
Q 41.5,4.8,42.7,-4.4
Q 43.2,-8.5,42.8,-11.2
Q 42.4,-13.9,47.0,-18.5
Q 47.3,-17.5,47.5,-16.5
Q 49.8,-8.1,52.1,-6.7
Q 55.7,-4.6,58.0,-12.4
Q 59.2,-16.1,59.2,-21.4
Q 59.2,-26.6,61.8,-29.3
Q 64.4,-32.0,66.3,-32.3
Q 68.1,-32.6,71.5,-33.5
Q 97.3,-40.4,109.1,-55.2
Q 114.1,-61.5,112.9,-64.0
Q 111.5,-67.2,103.1,-61.7
Q 100.7,-60.1,100.5,-60.3
Q 99.9,-61.0,106.2,-69.4
Q 121.8,-90.1,124.7,-103.9
Q 127.1,-115.2,122.1,-115.2
Q 119.8,-115.2,114.2,-107.9
Q 113.1,-106.3,111.9,-104.8
Q 112.1,-105.3,112.2,-105.9
Q 112.5,-107.0,113.6,-110.1
Q 124.8,-141.5,119.7,-151.9
Q 117.6,-156.0,115.2,-155.2
Q 110.9,-153.7,105.8,-140.3
Q 101.9,-130.3,101.3,-130.3
Q 100.9,-130.3,99.5,-134.9
Q 91.8,-160.2,85.9,-161.9
Q 80.6,-163.3,80.1,-151.5
Q 79.8,-141.0,77.6,-141.6
Q 76.7,-141.9,73.6,-145.1
Q 70.5,-148.3,69.7,-148.3
Q 66.8,-148.3,68.4,-143.6
Q 70.6,-137.5,69.1,-138.1
Q 67.4,-138.7,63.4,-142.4
Q 60.2,-145.2,58.9,-143.8
Q 57.7,-142.7,58.9,-140.3
Q 60.0,-138.0,59.2,-137.2
Q 58.6,-136.6,55.6,-135.9
Q 52.9,-135.4,51.5,-139.6
Q 46.9,-153.9,36.6,-159.1
Q 29.1,-162.9,24.0,-162.0
Q 22.7,-161.8,21.5,-161.6
Q 22.1,-163.2,22.7,-164.8
Q 32.5,-190.2,27.2,-191.1
Q 24.8,-191.5,21.5,-184.6
Q 20.2,-181.9,19.9,-181.9
Q 19.6,-181.9,19.4,-183.0
Q 18.5,-186.3,14.3,-186.3
Q 12.7,-186.3,13.8,-191.0
Q 16.6,-203.4,13.5,-204.0
Q 11.1,-204.4,9.5,-198.7
Q 8.7,-196.1,8.4,-196.1
Q 8.0,-196.1,7.4,-197.7
Q 5.5,-202.0,2.6,-203.3
Q 1.2,-203.9,0.2,-209.9
Q -0.7,-215.5,-2.0,-218.5
Q -2.8,-218.2,-3.6,-217.9
Q -0.8,-205.7,0.4,-190.3
Q 0.9,-190.5,0.9,-187.8
Q 0.9,-187.7,0.9,-187.7
Q 1.6,-187.7,2.2,-187.7
Q 2.2,-189.7,2.2,-191.7
Q 1.8,-191.4,1.8,-193.8
Q 1.8,-194.9,1.8,-196.1
Q 1.8,-197.5,1.7,-198.9
Q 1.7,-202.2,2.4,-201.6
Q 5.5,-198.7,6.4,-194.8
Q 6.8,-193.4,7.1,-192.1
Q 7.2,-191.8,7.4,-191.4
Q 7.6,-190.8,7.4,-190.1
Q 7.2,-189.8,7.1,-189.4
Q 6.2,-185.5,5.9,-183.4
Q 5.7,-181.4,6.5,-181.5
Q 7.3,-181.7,8.1,-185.5
Q 10.6,-196.8,12.9,-201.7
Q 12.8,-199.9,12.7,-198.1
Q 12.0,-187.0,9.8,-185.5
Q 8.9,-184.9,8.9,-184.3
Q 8.9,-183.7,9.5,-183.7
Q 10.2,-183.7,8.4,-177.4
Q 7.0,-172.5,8.0,-172.3
Q 8.7,-172.1,9.7,-175.5
Q 12.1,-183.7,12.7,-184.2
Q 14.1,-185.4,16.6,-183.2
Q 19.5,-180.6,17.3,-175.0
Q 15.1,-169.2,15.6,-168.3
Q 16.2,-167.3,18.6,-173.3
Q 23.1,-184.6,25.9,-187.4
Q 26.5,-188.1,27.2,-188.8
Q 27.0,-187.6,26.9,-186.3
Q 26.1,-180.3,23.3,-172.8
Q 19.5,-162.2,17.3,-160.3
Q 13.4,-156.9,10.8,-154.1
Q 11.4,-153.6,12.0,-153.0
Q 12.7,-153.5,13.3,-154.0
Q 14.6,-154.9,16.9,-156.6
Q 23.4,-161.4,31.8,-158.9
Q 43.8,-155.2,49.2,-140.9
Q 50.0,-138.8,49.7,-138.6
Q 49.5,-138.3,48.0,-138.8
Q 44.8,-139.9,44.7,-138.7
Q 44.7,-137.9,48.3,-136.1
Q 73.9,-123.7,76.2,-84.3
Q 76.3,-82.4,76.4,-80.5
Q 76.6,-80.6,76.7,-80.6
Q 76.9,-80.7,76.9,-75.2
Q 76.5,-71.7,76.4,-68.8
Q 76.4,-67.3,76.4,-65.9
Q 76.4,-65.4,76.4,-64.8
Q 76.4,-63.8,76.2,-63.7
Q 76.1,-63.7,76.0,-63.7
Q 75.7,-61.8,75.3,-59.9
Q 73.2,-48.1,65.4,-37.5
Q 59.1,-28.9,58.3,-30.3
Q 57.9,-31.0,56.1,-34.7
Q 53.8,-39.4,53.4,-38.0
Q 53.2,-37.2,54.9,-32.9
Q 56.0,-29.9,56.7,-26.5
Q 57.0,-24.9,57.3,-23.2
Q 57.3,-22.1,57.3,-21.0
Q 55.4,-8.8,53.5,-8.8
Q 51.6,-8.8,49.6,-16.6
Q 45.6,-31.7,44.1,-31.7
Q 43.0,-31.7,44.9,-26.0
Q 46.4,-21.9,45.9,-20.8
Q 45.6,-20.1,43.9,-18.7
Q 42.7,-17.7,41.5,-16.6
Q 37.4,-25.2,36.8,-26.1
Q 36.1,-26.9,35.6,-26.6
Q 35.2,-26.3,36.9,-22.6
Q 39.1,-17.9,40.4,-11.9
Q 40.7,-10.9,40.9,-9.9
Q 41.4,-8.5,41.1,-7.9
Q 41.0,-7.5,40.9,-7.2
Q 40.3,-3.5,39.7,-1.1
Q 37.9,5.3,34.0,-6.1
Q 32.8,-9.6,32.0,-11.4
Q 31.2,-13.2,30.2,-15.4
Q 27.8,-21.1,27.2,-19.9
Q 26.9,-19.4,28.4,-15.8
Q 30.1,-11.4,28.6,-11.3
Q 27.3,-11.3,22.8,-10.1
Q 18.2,-9.0,12.0,-8.1
Q 11.1,-7.6,10.4,-7.8
Q 10.1,-8.0,9.8,-8.1
Q 9.5,-8.0,9.3,-8.0
Q 8.8,-7.8,6.2,-7.7
Q 4.9,-7.7,3.6,-7.7
Q 1.8,-7.2,0.0,-7.7
Q -2.3,-7.9,-4.6,-8.2
Q -17.2,-9.5,-16.1,-10.3
Q -15.7,-10.6,-14.9,-11.9
Q -14.1,-13.2,-13.0,-14.4
Q -11.8,-15.7,-12.3,-16.2
Q -13.1,-17.0,-16.5,-13.0
Q -18.8,-10.2,-19.6,-9.0
Q -27.4,3.2,-32.2,6.2
Q -37.1,9.1,-36.2,2.2
Q -35.3,-5.1,-30.3,-13.8
Q -29.2,-15.8,-29.1,-16.5
Q -29.0,-17.2,-27.6,-20.4
Q -26.3,-23.6,-26.9,-24.1
Q -27.8,-24.9,-29.0,-21.4
Q -30.3,-17.9,-32.0,-18.9
Q -33.3,-19.7,-34.7,-20.4
Q -36.0,-21.2,-35.9,-21.7
Q -35.7,-22.2,-34.2,-24.3
Q -31.9,-27.7,-33.0,-27.7
Q -34.5,-27.7,-39.1,-19.7
Q -51.4,1.2,-55.4,0.6
Q -57.8,0.3,-55.9,-6.5
Q -54.5,-12.0,-46.2,-21.9
Q -37.0,-32.9,-39.3,-32.8
Q -40.0,-32.8,-43.1,-28.4
Q -43.9,-27.3,-44.6,-26.3
Q -45.5,-27.2,-46.4,-28.2
Q -56.1,-38.8,-62.0,-56.2
Q -66.2,-68.9,-67.3,-77.2
Q -67.7,-79.8,-68.0,-82.3
Q -68.3,-82.2,-68.4,-82.4
Q -68.4,-82.7,-68.4,-84.5
Q -68.4,-86.3,-68.4,-88.1
Q -68.9,-89.9,-68.4,-91.7
Q -68.4,-94.8,-68.4,-95.9
Q -68.4,-96.4,-68.4,-97.0
Q -68.4,-100.0,-68.2,-100.0
Q -68.1,-100.1,-68.0,-100.1
Q -66.6,-112.2,-64.5,-117.7
Q -59.0,-131.5,-54.2,-134.6
Q -52.4,-135.7,-52.4,-137.4
Q -52.3,-137.8,-52.2,-138.1
Q -52.0,-138.7,-51.3,-139.2
Q -51.0,-139.4,-50.7,-139.7
Q -51.3,-140.2,-51.9,-140.8
Q -52.5,-140.1,-53.1,-139.5
Q -57.5,-135.1,-58.3,-135.0
Q -60.0,-135.0,-60.5,-138.0
Q -60.8,-140.3,-60.1,-154.2
Q -59.1,-171.0,-64.7,-167.7
Q -70.1,-164.4,-73.3,-147.8
Q -74.3,-143.0,-74.7,-141.2
Q -74.9,-140.3,-75.1,-139.4
Q -75.1,-151.5,-78.8,-150.6
Q -81.9,-149.8,-83.5,-136.6
Q -83.7,-134.9,-83.9,-133.2
Q -88.1,-160.5,-91.9,-165.3
Q -95.3,-169.5,-98.2,-165.8
Q -100.4,-163.0,-100.7,-156.4
Q -101.3,-145.8,-97.6,-133.0
Q -93.9,-120.3,-93.6,-118.5
Q -93.4,-117.6,-93.3,-116.8
Q -95.5,-119.4,-97.8,-125.6
Q -103.2,-140.5,-105.8,-140.5
Q -109.4,-140.5,-111.0,-130.5
Q -114.1,-112.0,-101.1,-86.3
Q -97.7,-79.5,-95.9,-76.9
Q -94.2,-74.3,-93.9,-73.6
Q -93.8,-73.2,-93.6,-72.9
Q -97.5,-75.3,-100.0,-76.5
Q -102.5,-77.8,-105.0,-79.2
Q -107.5,-80.6,-109.7,-80.9
Q -114.8,-81.4,-112.0,-73.9
Q -103.4,-50.0,-77.1,-36.9
Q -64.5,-30.6,-54.3,-29.5
Q -50.6,-29.1,-45.9,-24.6
Q -47.1,-23.4,-48.2,-22.2
Q -55.7,-14.4,-58.0,-6.6
Q -59.7,-0.8,-57.8,1.7
Q -54.0,6.5,-45.5,-6.1
Q -38.2,-16.9,-37.7,-18.4
Q -37.5,-18.8,-31.6,-15.6
Q -32.4,-14.1,-33.1,-12.6
Q -41.4,4.2,-37.0,8.6
Q -36.3,9.3,-34.4,9.1
Q -30.9,8.7,-26.8,4.2
Q -21.9,-1.3,-18.5,-6.4
Q -18.0,-7.1,-15.2,-6.7
Q -13.0,-6.3,-12.7,-6.1
Q -12.4,-5.8,-14.4,-0.7
Q -16.8,5.7,-18.0,14.4
Q -20.0,29.0,-27.1,38.3
Q -36.4,50.6,-38.2,57.6
Q -40.1,64.8,-38.8,73.3
Q -37.5,81.9,-33.5,86.5
Q -25.7,95.3,-13.6,85.9
Q -13.8,86.6,-13.9,87.2
Q -14.9,92.1,-17.5,99.2
Q -21.3,109.4,-22.6,121.7
Q -26.9,162.0,24.3,194.4
Q 37.1,202.5,41.6,206.7
Q 46.4,211.1,50.1,218.4
 " /> 
<path  
style="fill:rgb(14,103,171)" 
d="M 9.8 181.7
Q 7.6,178.6,5.9,174.7
Q -1.0,157.9,-1.3,145.5
Q -1.4,141.7,-0.7,141.7
Q 0.0,141.7,0.0,144.0
Q 0.0,146.3,0.2,147.7
Q 0.4,149.0,0.9,152.1
Q 2.4,163.3,9.8,180.1
Q 10.2,181.1,10.7,182.1
Q 12.7,183.7,14.7,185.2
Q 18.7,188.3,22.8,190.8
Q 26.9,193.3,31.0,196.0
Q 35.2,198.6,35.4,198.4
Q 36.8,197.0,26.2,179.2
Q 14.0,158.6,13.0,142.0
Q 12.8,138.1,12.9,137.9
Q 13.8,136.5,14.3,141.5
Q 16.1,158.4,28.4,179.2
Q 35.6,191.4,37.4,198.3
Q 37.9,200.4,39.9,202.0
Q 48.6,208.9,52.2,216.9
Q 53.1,219.0,53.4,219.0
Q 53.6,219.0,55.4,214.0
Q 57.2,209.0,61.7,198.1
Q 66.3,187.2,66.7,184.1
Q 68.9,169.9,53.0,149.3
Q 39.9,132.3,40.8,131.4
Q 41.2,130.9,45.0,136.0
Q 48.8,141.0,52.9,146.1
Q 67.5,164.2,68.7,177.1
Q 68.9,178.7,69.0,180.4
Q 69.8,178.4,70.5,176.5
Q 84.4,140.8,69.4,125.7
Q 65.5,121.8,57.3,117.2
Q 40.0,107.6,35.8,99.0
Q 33.1,93.5,32.4,90.1
Q 32.2,89.2,32.0,88.3
Q 30.7,88.7,30.5,89.1
Q 30.3,89.5,30.5,94.9
Q 30.9,104.5,28.7,104.5
Q 27.6,104.5,25.3,97.5
Q 24.3,94.6,24.0,94.6
Q 23.7,94.6,23.2,96.2
Q 21.2,102.9,16.2,97.9
Q 14.6,96.4,14.2,96.4
Q 13.7,96.4,12.0,98.1
Q 12.0,98.3,12.0,98.6
Q 12.0,110.1,11.4,111.7
Q 9.8,115.4,8.6,115.4
Q 7.2,115.4,4.4,103.9
Q 4.4,103.7,4.4,103.4
Q 4.2,103.0,4.0,102.6
Q 3.6,101.7,3.6,99.9
Q 3.6,98.6,2.7,96.8
Q 1.3,94.1,0.8,94.0
Q 0.3,93.9,-1.2,97.2
Q -3.5,102.2,-5.2,102.8
Q -7.3,103.4,-9.8,96.9
Q -10.4,95.0,-11.1,93.2
Q -11.1,93.0,-11.1,92.8
Q -11.3,92.3,-11.6,91.9
Q -12.1,91.0,-12.3,90.3
Q -12.3,90.0,-12.4,89.7
Q -13.1,91.7,-13.8,93.7
Q -20.2,112.9,-20.8,124.5
Q -22.2,154.1,5.6,178.1
Q 7.7,179.9,9.8,181.7
 " /> 
<path  
style="fill:rgb(7,193,201)" 
d="M 53.3 213.6
Q 53.3,213.7,53.9,213.5
Q 55.4,212.9,54.2,197.2
Q 52.8,178.5,43.5,160.3
Q 40.4,154.2,39.6,154.7
Q 39.1,155.0,41.0,158.7
Q 53.3,182.0,53.3,213.6
 " /> 
<path  
style="fill:rgb(7,193,201)" 
d="M 71.0 156.9
Q 72.2,160.8,72.6,160.6
Q 73.6,160.2,71.1,153.1
Q 68.2,144.9,61.7,136.8
Q 54.8,128.1,53.7,129.1
Q 53.2,129.6,56.8,133.3
Q 67.1,144.4,71.0,156.9
 " /> 
<path  
style="fill:rgb(7,193,201)" 
d="M 9.8 181.7
Q 10.2,181.9,10.7,182.1
Q 10.2,181.1,9.8,180.1
Q 2.4,163.3,0.9,152.1
Q 0.4,149.0,0.2,147.7
Q 0.0,146.3,0.0,144.0
Q 0.0,141.7,-0.7,141.7
Q -1.4,141.7,-1.3,145.5
Q -1.0,157.9,5.9,174.7
Q 7.6,178.6,9.8,181.7
 " /> 
<path  
style="fill:rgb(7,193,201)" 
d="M -12.4 89.7
Q -12.2,89.0,-12.0,88.3
Q -12.1,88.4,-12.2,88.4
Q -12.4,88.4,-12.4,89.7
 " /> 
<path  
style="fill:rgb(7,193,201)" 
d="M -12.4 89.7
Q -12.1,89.6,-11.8,89.5
Q -11.8,89.5,-11.8,89.4
Q -11.9,88.9,-12.0,88.3
Q -12.2,89.0,-12.4,89.7
 " /> 
<path  
style="fill:rgb(7,193,201)" 
d="M -12.4 89.7
Q -12.3,90.0,-12.3,90.3
Q -12.1,91.0,-11.6,91.9
Q -11.3,92.3,-11.1,92.8
Q -11.6,90.6,-11.8,89.5
Q -12.1,89.6,-12.4,89.7
 " /> 
<path  
style="fill:rgb(97,247,248)" 
d="M -11.1 92.8
Q -11.1,93.0,-11.1,93.2
Q -10.2,95.2,-9.3,97.2
Q -6.8,102.9,-5.3,102.3
Q -3.4,101.5,-1.8,97.5
Q 1.3,89.8,2.4,95.5
Q 2.5,96.2,2.7,96.8
Q 3.6,98.6,3.6,99.9
Q 4.4,101.7,4.4,103.4
Q 4.4,103.7,4.4,103.9
Q 5.0,105.6,5.6,107.3
Q 8.1,114.7,8.6,114.8
Q 10.8,115.1,11.6,104.6
Q 11.8,101.6,12.0,98.6
Q 12.0,98.3,12.0,98.1
Q 13.9,94.4,15.6,96.7
Q 20.1,102.8,22.6,96.1
Q 23.5,93.9,24.0,93.9
Q 24.5,93.9,26.4,99.1
Q 28.2,104.3,28.6,104.3
Q 30.4,104.3,30.0,95.0
Q 29.8,89.2,30.1,88.8
Q 30.4,88.5,32.0,88.3
Q 31.9,88.0,31.8,87.7
Q 31.5,87.0,31.5,85.2
Q 31.5,84.3,31.6,83.4
Q 31.1,83.5,31.1,81.3
Q 31.1,80.1,31.1,79.0
Q 28.0,72.8,27.1,70.2
Q 25.7,66.3,24.4,59.1
Q 24.0,56.8,23.1,50.1
Q 23.1,47.9,23.1,45.7
Q 24.0,42.6,24.9,40.3
Q 25.8,38.1,26.4,35.0
Q 26.8,33.4,27.1,31.9
Q 27.1,30.6,27.1,29.2
Q 27.1,27.7,27.1,26.1
Q 27.1,24.6,27.1,23.0
Q 26.9,21.7,26.7,20.3
Q 26.2,17.7,25.9,15.6
Q 25.8,14.5,25.7,13.5
Q 25.5,13.9,25.3,14.4
Q 24.9,15.2,24.4,18.2
Q 23.9,21.2,23.0,21.2
Q 22.1,21.2,23.3,13.9
Q 24.0,9.9,24.4,6.4
Q 24.7,2.8,25.3,2.8
Q 25.9,2.9,25.8,5.1
Q 25.7,7.3,26.6,10.4
Q 28.3,16.1,28.8,22.9
Q 28.8,23.8,28.9,24.8
Q 29.0,25.3,29.0,25.9
Q 29.1,26.1,29.1,26.3
Q 29.3,27.5,29.1,29.4
Q 29.0,30.0,28.9,30.6
Q 28.8,31.3,28.7,32.1
Q 28.3,35.8,27.7,37.5
Q 27.0,39.6,26.0,41.9
Q 24.5,44.8,25.4,52.8
Q 25.6,54.8,25.8,56.8
Q 26.0,56.8,26.2,56.8
Q 28.0,54.6,29.9,53.1
Q 31.7,51.7,33.5,50.1
Q 38.3,45.8,42.7,44.2
Q 43.8,43.8,44.9,43.4
Q 45.1,43.4,45.3,43.4
Q 47.5,43.4,50.4,46.3
Q 51.0,46.9,51.6,47.4
Q 45.8,35.0,42.2,28.5
Q 34.7,15.0,31.7,6.7
Q 27.0,-6.5,24.1,-7.4
Q 23.4,-7.6,20.0,-6.7
Q 15.9,-5.6,8.0,-5.0
Q 6.9,-5.0,5.8,-5.0
Q -4.9,-5.4,-7.6,-5.7
Q -10.2,-6.0,-11.4,-3.4
Q -14.9,4.5,-15.6,11.4
Q -17.3,27.6,-25.8,40.3
Q -26.7,41.7,-27.6,43.0
Q -24.4,43.0,-22.7,43.9
Q -19.9,45.3,-16.9,44.3
Q -16.2,44.1,-15.6,43.9
Q -15.3,43.9,-15.1,43.9
Q -14.5,43.9,-14.0,43.9
Q -13.4,43.9,-12.6,44.4
Q -11.8,44.8,-11.1,45.4
Q -9.3,47.0,-7.7,47.0
Q -6.0,47.0,-4.1,48.1
Q -2.3,49.2,-2.1,50.1
Q -1.9,51.0,-1.4,50.8
Q -1.1,50.7,-0.9,50.6
Q -0.6,48.4,-0.2,46.3
Q 0.4,42.1,-0.9,39.3
Q -3.0,35.3,-3.8,27.1
Q -4.2,24.2,-4.3,20.7
Q -4.3,22.6,-4.4,20.1
Q -4.3,21.9,-4.4,18.6
Q -4.4,17.0,-4.4,15.4
Q -5.3,8.8,-5.4,8.0
Q -5.5,7.3,-4.9,7.3
Q -4.3,7.3,-1.5,18.3
Q -0.2,23.5,-1.1,23.6
Q -1.4,23.6,-1.6,23.5
Q -2.1,24.1,-2.7,24.8
Q -2.7,25.9,-2.7,27.0
Q -2.4,28.2,-2.2,29.4
Q -0.8,37.1,1.9,41.0
Q 4.2,44.3,2.3,44.0
Q 1.8,43.9,1.5,46.3
Q 1.2,48.8,0.8,50.3
Q 0.8,50.6,0.7,51.0
Q 0.6,51.4,0.4,51.9
Q 0.4,52.3,0.4,52.8
Q 0.0,54.4,-0.4,56.1
Q -2.6,64.4,-4.7,69.0
Q -5.3,70.3,-5.9,72.1
Q -8.0,77.7,-9.5,80.4
Q -10.7,82.5,-12.0,88.3
Q -11.9,88.9,-11.8,89.4
Q -11.8,89.5,-11.8,89.5
Q -11.6,90.6,-11.1,92.8
 " /> 
<path  
style="fill:rgb(7,193,201)" 
d="M -11.1 93.2
Q -10.4,95.0,-9.8,96.9
Q -7.3,103.4,-5.2,102.8
Q -3.5,102.2,-1.2,97.2
Q 0.3,93.9,0.8,94.0
Q 1.3,94.1,2.7,96.8
Q 2.5,96.2,2.4,95.5
Q 1.3,89.8,-1.8,97.5
Q -3.4,101.5,-5.3,102.3
Q -6.8,102.9,-9.3,97.2
Q -10.2,95.2,-11.1,93.2
 " /> 
<path  
style="fill:rgb(7,193,201)" 
d="M 3.6 99.9
Q 3.6,101.7,4.0,102.6
Q 4.2,103.0,4.4,103.4
Q 4.4,101.7,3.6,99.9
 " /> 
<path  
style="fill:rgb(7,193,201)" 
d="M 4.4 103.9
Q 7.2,115.4,8.6,115.4
Q 9.8,115.4,11.4,111.7
Q 12.0,110.1,12.0,98.6
Q 11.8,101.6,11.6,104.6
Q 10.8,115.1,8.6,114.8
Q 8.1,114.7,5.6,107.3
Q 5.0,105.6,4.4,103.9
 " /> 
<path  
style="fill:rgb(7,193,201)" 
d="M 12.0 98.1
Q 13.7,96.4,14.2,96.4
Q 14.6,96.4,16.2,97.9
Q 21.2,102.9,23.2,96.2
Q 23.7,94.6,24.0,94.6
Q 24.3,94.6,25.3,97.5
Q 27.6,104.5,28.7,104.5
Q 30.9,104.5,30.5,94.9
Q 30.3,89.5,30.5,89.1
Q 30.7,88.7,32.0,88.3
Q 30.4,88.5,30.1,88.8
Q 29.8,89.2,30.0,95.0
Q 30.4,104.3,28.6,104.3
Q 28.2,104.3,26.4,99.1
Q 24.5,93.9,24.0,93.9
Q 23.5,93.9,22.6,96.1
Q 20.1,102.8,15.6,96.7
Q 13.9,94.4,12.0,98.1
 " /> 
<path  
style="fill:rgb(14,103,171)" 
d="M 0.4 52.8
Q 0.4,52.3,0.4,51.9
Q 0.2,51.7,-0.1,51.6
Q -0.6,51.3,-0.5,51.1
Q -0.5,51.1,-0.4,51.0
Q -1.1,51.7,-1.4,51.5
Q -1.7,51.4,-2.3,50.5
Q -4.4,47.4,-7.9,47.4
Q -9.7,47.4,-11.3,45.7
Q -12.0,44.9,-12.6,44.4
Q -13.8,43.9,-15.1,43.9
Q -15.3,43.9,-15.6,43.9
Q -16.1,44.2,-16.7,44.6
Q -19.2,46.1,-22.7,44.3
Q -24.4,43.4,-26.2,43.4
Q -27.1,43.4,-28.0,43.4
Q -28.8,44.4,-29.6,45.4
Q -34.3,51.6,-36.1,58.9
Q -35.3,59.1,-34.5,59.3
Q -34.8,58.5,-33.8,56.1
Q -32.8,53.6,-32.1,53.3
Q -30.5,52.7,-31.5,54.9
Q -32.1,56.1,-32.5,57.2
Q -34.0,60.6,-34.5,59.3
Q -35.3,59.1,-36.1,58.9
Q -37.0,62.7,-37.2,66.9
Q -37.3,69.8,-36.0,67.2
Q -35.2,65.4,-33.9,63.8
Q -24.8,52.8,-24.1,52.8
Q -22.4,52.8,-28.1,59.3
Q -36.8,69.2,-36.3,74.6
Q -35.7,80.0,-32.6,84.0
Q -31.0,86.1,-28.0,87.9
Q -28.0,75.0,-27.6,74.5
Q -26.0,72.6,-26.6,81.2
Q -27.0,87.5,-27.6,87.9
Q -20.9,88.5,-16.5,84.9
Q -14.6,83.3,-14.8,78.6
Q -16.1,58.5,-14.3,58.4
Q -13.7,58.3,-13.6,69.3
Q -13.5,79.1,-13.5,79.8
Q -13.0,82.8,-10.2,75.9
Q -8.8,72.6,-8.0,71.7
Q -6.5,69.9,-3.4,59.9
Q -1.8,54.8,-1.7,53.7
Q -1.6,52.6,-0.6,52.7
Q -0.1,52.7,0.4,52.8
 " /> 
<path  
style="fill:rgb(7,193,201)" 
d="M -9.5 65.8
Q -9.2,68.3,-8.6,68.3
Q -8.0,68.3,-8.1,63.4
Q -8.3,58.4,-8.9,58.4
Q -10.2,58.4,-9.5,65.8
 " /> 
<path  
style="fill:rgb(4,4,4)" 
d="M 0.4 51.9
Q 0.0,51.4,-0.4,51.0
Q -0.5,51.1,-0.5,51.1
Q -0.6,51.3,-0.1,51.6
Q 0.2,51.7,0.4,51.9
 " /> 
<path  
style="fill:rgb(4,4,4)" 
d="M 0.4 51.9
Q 0.6,51.4,0.7,51.0
Q 0.1,50.8,-0.5,50.6
Q -0.4,50.8,-0.4,51.0
Q 0.0,51.4,0.4,51.9
 " /> 
<path  
style="fill:rgb(14,103,171)" 
d="M -2.7 27.0
Q -2.9,26.5,-3.1,25.9
Q -3.1,25.9,-3.1,25.9
Q -3.1,26.9,-3.0,27.0
Q -2.8,27.0,-2.7,27.0
 " /> 
<path  
style="fill:rgb(14,103,171)" 
d="M -2.7 27.0
Q -2.7,25.9,-2.7,24.8
Q -2.9,24.8,-3.1,24.8
Q -3.1,25.4,-3.1,25.9
Q -2.9,26.5,-2.7,27.0
 " /> 
<path  
style="fill:rgb(4,4,4)" 
d="M -2.7 27.0
Q -2.8,27.0,-2.9,27.0
Q -2.9,27.1,-3.0,27.0
Q -3.4,27.1,-3.8,27.1
Q -3.0,35.3,-0.9,39.3
Q 0.4,42.1,-0.2,46.3
Q -0.6,48.4,-0.9,50.6
Q -0.6,50.5,-0.5,50.6
Q 0.1,50.8,0.7,51.0
Q 0.8,50.6,0.8,50.3
Q 1.2,48.8,1.5,46.3
Q 1.8,43.9,2.3,44.0
Q 4.2,44.3,1.9,41.0
Q -0.8,37.1,-2.2,29.4
Q -2.4,28.2,-2.7,27.0
 " /> 
<path  
style="fill:rgb(7,193,201)" 
d="M -2.7 24.8
Q -2.7,24.0,-2.6,23.3
Q -2.6,21.8,-2.4,21.7
Q -3.0,21.9,-3.1,22.2
Q -3.3,22.5,-3.1,24.8
Q -2.9,24.8,-2.7,24.8
 " /> 
<path  
style="fill:rgb(97,247,248)" 
d="M -2.7 24.8
Q -2.1,24.1,-1.6,23.5
Q -2.1,23.1,-2.2,21.7
Q -2.3,21.7,-2.4,21.7
Q -2.5,21.7,-2.6,21.8
Q -2.6,21.8,-2.6,23.3
Q -2.7,24.0,-2.7,24.8
 " /> 
<path  
style="fill:rgb(4,4,4)" 
d="M -2.2 21.7
Q -2.1,23.1,-1.6,23.5
Q -1.4,23.6,-1.1,23.6
Q -0.2,23.5,-1.5,18.3
Q -4.3,7.3,-4.9,7.3
Q -5.5,7.3,-5.4,8.0
Q -5.3,8.8,-4.4,15.4
Q -4.3,15.9,-4.2,16.3
Q -4.0,17.2,-4.4,18.6
Q -4.3,21.9,-4.1,24.9
Q -3.6,24.8,-3.1,24.8
Q -3.3,22.5,-3.1,22.2
Q -3.0,21.9,-2.4,21.7
Q -2.4,21.7,-2.4,21.7
Q -2.4,21.7,-2.4,21.7
Q -2.3,21.7,-2.2,21.7
 " /> 
<path  
style="fill:rgb(14,103,171)" 
d="M -4.4 15.4
Q -4.4,17.0,-4.4,18.6
Q -4.0,17.2,-4.2,16.3
Q -4.3,15.9,-4.4,15.4
 " /> 
<path  
style="fill:rgb(7,193,201)" 
d="M -0.9 50.6
Q -1.1,50.7,-1.4,50.8
Q -1.9,51.0,-2.1,50.1
Q -2.3,49.2,-4.1,48.1
Q -6.0,47.0,-7.7,47.0
Q -9.3,47.0,-11.1,45.4
Q -11.8,44.8,-12.6,44.4
Q -12.0,44.9,-11.3,45.7
Q -9.7,47.4,-7.9,47.4
Q -4.4,47.4,-2.3,50.5
Q -1.7,51.4,-1.4,51.5
Q -1.1,51.7,-0.4,51.0
Q -0.4,50.8,-0.5,50.6
Q -0.7,50.6,-0.9,50.6
 " /> 
<path  
style="fill:rgb(97,247,248)" 
d="M -15.1 43.9
Q -13.8,43.9,-12.6,44.4
Q -13.4,43.9,-14.0,43.9
Q -14.5,43.9,-15.1,43.9
 " /> 
<path  
style="fill:rgb(7,193,201)" 
d="M -15.6 43.9
Q -16.2,44.1,-16.9,44.3
Q -19.9,45.3,-22.7,43.9
Q -24.4,43.0,-27.6,43.0
Q -27.8,43.0,-28.0,43.4
Q -27.1,43.4,-26.2,43.4
Q -24.4,43.4,-22.7,44.3
Q -19.2,46.1,-16.7,44.6
Q -16.1,44.2,-15.6,43.9
 " /> 
<path  
style="fill:rgb(14,103,171)" 
d="M 5.8 -5.0
Q 6.9,-5.0,8.0,-5.0
Q 7.7,-5.1,7.4,-5.3
Q 6.7,-5.5,6.2,-5.3
Q 6.0,-5.1,5.8,-5.0
 " /> 
<path  
style="fill:rgb(7,193,201)" 
d="M 51.6 47.4
Q 51.8,48.1,52.0,48.8
Q 52.2,47.7,51.9,47.6
Q 51.7,47.5,51.6,47.4
 " /> 
<path  
style="fill:rgb(7,193,201)" 
d="M 51.6 47.4
Q 51.4,47.6,51.1,47.8
Q 51.6,48.3,52.0,48.8
Q 51.8,48.1,51.6,47.4
 " /> 
<path  
style="fill:rgb(7,193,201)" 
d="M 51.6 47.4
Q 51.0,46.9,50.4,46.3
Q 47.5,43.4,45.3,43.4
Q 48.9,45.2,50.5,47.0
Q 50.8,47.4,51.1,47.8
Q 51.4,47.6,51.6,47.4
 " /> 
<path  
style="fill:rgb(14,103,171)" 
d="M 45.3 43.4
Q 45.1,43.4,44.9,43.4
Q 40.4,45.7,39.4,46.3
Q 35.8,48.5,33.0,51.1
Q 30.7,53.2,26.2,56.8
Q 26.0,56.8,25.8,56.8
Q 26.7,60.8,27.1,63.1
Q 28.1,67.7,30.2,72.4
Q 31.1,74.5,33.3,77.7
Q 32.4,67.9,32.6,66.0
Q 32.7,64.2,33.3,64.2
Q 33.9,64.2,34.0,71.1
Q 34.1,77.5,34.0,77.8
Q 33.9,78.1,33.3,78.1
Q 34.6,79.3,35.8,80.6
Q 38.2,83.0,41.8,84.8
Q 41.7,84.2,41.5,83.7
Q 41.2,82.5,40.4,80.0
Q 39.1,75.8,37.8,67.4
Q 36.3,57.8,37.3,58.2
Q 37.9,58.4,39.2,66.6
Q 41.8,84.3,44.6,85.4
Q 48.4,86.8,52.2,83.1
Q 57.0,78.5,54.1,72.5
Q 53.0,70.3,49.4,62.4
Q 45.8,54.6,46.3,54.3
Q 47.3,53.7,50.5,60.9
Q 52.8,65.9,54.6,69.7
Q 55.5,71.6,56.4,73.4
Q 55.8,65.6,55.5,63.0
Q 55.3,61.6,55.1,60.3
Q 49.3,53.1,52.3,54.5
Q 53.1,54.9,54.2,56.8
Q 53.3,52.8,52.7,50.8
Q 52.3,49.8,52.0,48.8
Q 51.6,48.3,51.1,47.8
Q 50.8,47.4,50.5,47.0
Q 48.9,45.2,45.3,43.4
 " /> 
<path  
style="fill:rgb(7,193,201)" 
d="M 48.9 79.8
Q 50.7,85.1,51.0,83.6
Q 51.2,82.9,48.9,75.3
Q 47.0,69.2,46.3,69.2
Q 45.3,69.2,48.9,79.8
 " /> 
<path  
style="fill:rgb(7,193,201)" 
d="M 44.9 43.4
Q 43.8,43.8,42.7,44.2
Q 38.3,45.8,33.5,50.1
Q 31.7,51.7,29.9,53.1
Q 28.0,54.6,26.2,56.8
Q 30.7,53.2,33.0,51.1
Q 35.8,48.5,39.4,46.3
Q 40.4,45.7,44.9,43.4
 " /> 
<path  
style="fill:rgb(4,4,4)" 
d="M 28.9 30.6
Q 28.9,30.0,28.9,29.4
Q 28.2,29.3,27.6,29.2
Q 27.5,30.0,27.5,30.5
Q 28.2,30.5,28.9,30.6
 " /> 
<path  
style="fill:rgb(7,193,201)" 
d="M 28.9 30.6
Q 29.0,30.0,29.1,29.4
Q 29.0,29.4,28.9,29.4
Q 28.9,30.0,28.9,30.6
 " /> 
<path  
style="fill:rgb(4,4,4)" 
d="M 28.9 30.6
Q 28.2,30.5,27.5,30.5
Q 27.5,31.8,27.3,31.8
Q 27.2,31.9,27.1,31.9
Q 27.9,32.0,28.7,32.1
Q 28.8,31.3,28.9,30.6
 " /> 
<path  
style="fill:rgb(4,4,4)" 
d="M 28.9 24.8
Q 28.2,24.8,27.6,24.8
Q 27.6,25.4,27.6,26.1
Q 28.2,26.0,28.9,25.9
Q 28.9,25.3,28.9,24.8
 " /> 
<path  
style="fill:rgb(4,4,4)" 
d="M 28.9 24.8
Q 28.8,23.8,28.8,22.9
Q 28.1,22.9,27.4,23.0
Q 27.6,23.2,27.6,24.5
Q 27.6,24.6,27.6,24.8
Q 28.2,24.8,28.9,24.8
 " /> 
<path  
style="fill:rgb(7,193,201)" 
d="M 28.9 24.8
Q 28.9,25.3,28.9,25.9
Q 29.0,25.9,29.0,25.9
Q 29.0,25.3,28.9,24.8
 " /> 
<path  
style="fill:rgb(14,103,171)" 
d="M 27.1 23.0
Q 27.1,24.6,27.1,26.1
Q 27.3,26.1,27.6,26.1
Q 27.6,25.4,27.6,24.8
Q 27.6,24.6,27.6,24.5
Q 27.6,23.2,27.4,23.0
Q 27.3,23.0,27.1,23.0
 " /> 
<path  
style="fill:rgb(4,4,4)" 
d="M 27.1 23.0
Q 27.2,23.0,27.3,22.9
Q 27.4,22.9,27.4,23.0
Q 28.1,22.9,28.8,22.9
Q 28.3,16.1,26.6,10.4
Q 25.7,7.3,25.8,5.1
Q 25.9,2.9,25.3,2.8
Q 24.7,2.8,24.4,6.4
Q 24.0,9.9,23.3,13.9
Q 22.1,21.2,23.0,21.2
Q 23.9,21.2,24.4,18.2
Q 24.9,15.2,25.3,14.4
Q 25.5,13.9,25.7,13.5
Q 25.8,14.5,25.9,15.6
Q 26.2,17.7,26.7,20.3
Q 26.9,21.7,27.1,23.0
 " /> 
<path  
style="fill:rgb(7,193,201)" 
d="M 27.1 26.1
Q 27.1,27.7,27.1,29.2
Q 27.3,29.2,27.6,29.2
Q 27.6,27.7,27.6,26.1
Q 27.3,26.1,27.1,26.1
 " /> 
<path  
style="fill:rgb(14,103,171)" 
d="M 27.1 29.2
Q 27.1,30.6,27.1,31.9
Q 27.2,31.9,27.3,31.8
Q 27.5,31.8,27.5,30.5
Q 27.5,30.0,27.6,29.2
Q 27.3,29.2,27.1,29.2
 " /> 
<path  
style="fill:rgb(14,103,171)" 
d="M 23.1 45.7
Q 23.1,47.9,23.1,50.1
Q 23.2,49.6,23.3,49.0
Q 23.6,47.9,23.3,46.8
Q 23.2,46.2,23.1,45.7
 " /> 
<path  
style="fill:rgb(7,193,201)" 
d="M 31.1 79.0
Q 31.1,80.1,31.1,81.3
Q 31.1,83.5,31.6,83.4
Q 31.6,79.5,31.5,79.2
Q 31.4,78.9,31.1,79.0
 " /> 
<path  
style="fill:rgb(7,193,201)" 
d="M -28.0 87.9
Q -27.8,87.9,-27.6,87.9
Q -27.0,87.5,-26.6,81.2
Q -26.0,72.6,-27.6,74.5
Q -28.0,75.0,-28.0,87.9
 " /> 
<path  
style="fill:rgb(7,193,201)" 
d="M 33.3 77.7
Q 33.3,77.9,33.3,78.1
Q 33.9,78.1,34.0,77.8
Q 34.1,77.5,34.0,71.1
Q 33.9,64.2,33.3,64.2
Q 32.7,64.2,32.6,66.0
Q 32.4,67.9,33.3,77.7
 " /> 
<path  
style="fill:rgb(7,193,201)" 
d="M 54.2 56.8
Q 53.1,54.9,52.3,54.5
Q 49.3,53.1,55.1,60.3
Q 54.7,59.0,54.4,57.9
Q 54.3,57.3,54.2,56.8
 " /> 
<path  
style="fill:rgb(7,193,201)" 
d="M -34.5 59.3
Q -34.0,60.6,-32.5,57.2
Q -32.1,56.1,-31.5,54.9
Q -30.5,52.7,-32.1,53.3
Q -32.8,53.6,-33.8,56.1
Q -34.8,58.5,-34.5,59.3
 " /> 
<path  
style="fill:rgb(4,4,4)" 
d="M 27.6 29.2
Q 28.2,29.2,28.9,29.2
Q 28.9,27.5,28.9,25.8
Q 28.2,26.1,27.6,26.1
Q 27.6,27.7,27.6,29.2
 " /> 
<path  
style="fill:rgb(4,4,4)" 
d="M 27.6 29.2
Q 28.2,29.3,28.9,29.4
Q 28.9,28.9,28.9,28.3
Q 28.2,29.2,27.6,29.2
 " /> 
<path  
style="fill:rgb(4,4,4)" 
d="M 27.6 26.1
Q 28.2,26.1,28.9,26.1
Q 28.9,25.6,28.9,25.0
Q 28.2,26.0,27.6,26.1
 " /> 
<path  
style="fill:rgb(4,4,4)" 
d="M -100.0 -56.5
Q -99.4,-56.1,-98.9,-55.6
Q -97.8,-54.8,-96.0,-52.5
Q -93.9,-50.8,-91.8,-49.0
Q -76.6,-36.2,-57.5,-32.3
Q -54.0,-31.6,-52.0,-31.2
Q -53.4,-33.3,-54.9,-35.3
Q -57.7,-39.5,-59.6,-43.7
Q -60.7,-43.8,-61.8,-43.9
Q -70.7,-44.8,-85.3,-55.6
Q -92.9,-61.2,-92.9,-62.7
Q -92.9,-63.8,-90.1,-61.2
Q -76.1,-48.0,-60.4,-45.0
Q -61.3,-47.4,-62.2,-49.9
Q -66.4,-61.4,-68.0,-68.6
Q -68.4,-70.6,-68.9,-72.5
Q -75.1,-75.2,-78.2,-77.9
Q -84.7,-83.5,-88.2,-90.0
Q -90.8,-94.8,-89.9,-94.8
Q -89.6,-94.8,-87.4,-90.9
Q -83.2,-83.7,-76.2,-77.9
Q -73.1,-75.3,-71.2,-74.6
Q -70.3,-74.2,-69.3,-73.9
Q -69.4,-74.2,-69.5,-74.5
Q -69.8,-75.2,-69.8,-76.3
Q -69.8,-76.9,-69.8,-77.4
Q -70.3,-77.3,-70.3,-78.7
Q -70.2,-78.7,-70.2,-78.7
Q -70.2,-79.4,-70.2,-80.1
Q -70.7,-82.3,-70.7,-89.0
Q -72.3,-90.5,-74.0,-92.1
Q -79.9,-97.7,-82.9,-105.2
Q -85.9,-112.5,-84.5,-112.5
Q -84.0,-112.5,-83.5,-110.7
Q -80.7,-100.0,-73.2,-92.8
Q -72.0,-91.6,-70.7,-90.3
Q -70.7,-91.2,-70.7,-92.1
Q -70.7,-93.9,-70.4,-97.4
Q -70.3,-99.2,-70.2,-101.0
Q -70.2,-103.0,-70.0,-103.1
Q -69.9,-103.2,-69.8,-103.2
Q -69.7,-103.6,-69.7,-104.1
Q -69.6,-104.9,-69.3,-105.4
Q -70.2,-105.0,-71.8,-106.8
Q -76.9,-112.6,-79.3,-120.9
Q -79.6,-122.0,-79.1,-121.8
Q -78.6,-121.6,-77.2,-118.0
Q -74.0,-110.2,-71.0,-107.7
Q -70.2,-107.0,-69.3,-106.3
Q -69.0,-108.3,-68.7,-110.3
Q -68.0,-114.3,-66.9,-117.0
Q -66.3,-118.3,-65.8,-119.7
Q -66.3,-120.3,-66.9,-121.0
Q -69.3,-123.9,-69.3,-130.2
Q -69.3,-133.4,-68.9,-133.4
Q -68.6,-133.4,-68.3,-129.2
Q -68.0,-125.0,-65.8,-120.1
Q -65.4,-120.9,-65.1,-121.7
Q -63.0,-126.5,-59.1,-132.1
Q -59.3,-132.3,-59.5,-132.6
Q -60.0,-133.0,-60.4,-133.2
Q -60.7,-133.3,-60.9,-133.4
Q -62.2,-135.7,-62.4,-137.9
Q -62.7,-140.1,-62.7,-145.4
Q -62.7,-147.9,-62.2,-148.1
Q -62.2,-150.3,-62.2,-152.5
Q -62.2,-153.5,-62.2,-154.4
Q -62.2,-156.3,-61.8,-156.5
Q -61.8,-158.8,-61.8,-161.0
Q -61.9,-161.0,-62.0,-160.9
Q -62.3,-160.8,-62.2,-163.2
Q -62.7,-164.8,-63.1,-166.3
Q -63.9,-165.5,-64.6,-164.8
Q -69.2,-160.0,-72.4,-141.2
Q -73.8,-133.1,-74.5,-130.4
Q -74.7,-129.4,-75.5,-129.4
Q -77.1,-129.4,-76.9,-135.2
Q -77.4,-137.0,-76.9,-138.3
Q -76.9,-139.4,-76.9,-140.5
Q -77.0,-140.5,-77.1,-140.5
Q -77.4,-140.4,-77.4,-142.5
Q -77.3,-143.5,-77.3,-144.5
Q -77.4,-145.2,-77.6,-145.9
Q -78.8,-153.1,-80.9,-138.8
Q -82.1,-130.1,-82.8,-129.3
Q -85.2,-126.5,-87.7,-144.1
Q -90.8,-165.4,-95.3,-165.4
Q -98.4,-165.4,-98.7,-150.3
Q -98.5,-150.4,-98.4,-150.4
Q -98.1,-150.5,-98.2,-149.1
Q -98.2,-149.1,-98.2,-149.1
Q -98.2,-148.4,-98.2,-147.7
Q -98.0,-146.1,-97.8,-144.5
Q -97.0,-139.2,-96.0,-135.4
Q -93.4,-125.8,-92.4,-123.0
Q -91.5,-120.6,-91.5,-119.2
Q -91.5,-118.6,-91.6,-117.9
Q -91.4,-117.6,-91.3,-117.2
Q -91.0,-116.6,-91.6,-115.7
Q -92.0,-113.9,-92.9,-113.9
Q -95.9,-113.9,-99.7,-124.3
Q -100.8,-127.5,-102.0,-130.8
Q -105.0,-139.3,-106.4,-137.7
Q -108.2,-135.7,-108.9,-130.3
Q -108.9,-127.4,-109.3,-127.2
Q -109.3,-122.8,-109.3,-118.3
Q -108.8,-118.5,-108.9,-117.3
Q -108.9,-117.3,-108.9,-117.3
Q -108.9,-116.7,-108.9,-116.1
Q -108.8,-115.2,-108.7,-114.3
Q -107.2,-103.0,-96.2,-82.6
Q -94.5,-79.5,-93.3,-77.6
Q -92.0,-75.7,-91.3,-73.9
Q -91.0,-73.0,-90.7,-72.1
Q -90.5,-71.8,-90.3,-71.5
Q -90.0,-70.8,-90.6,-70.4
Q -90.8,-70.1,-91.1,-69.9
Q -91.8,-70.0,-92.4,-70.1
Q -94.7,-70.5,-105.5,-76.9
Q -110.9,-80.1,-110.6,-76.9
Q -110.1,-72.8,-105.2,-65.0
Q -103.3,-61.8,-101.6,-59.2
Q -100.8,-57.9,-100.0,-56.5
 " /> 
<path  
style="fill:rgb(14,103,171)" 
d="M -100.0 -56.5
Q -99.5,-56.0,-99.1,-55.5
Q -98.2,-54.4,-97.1,-53.5
Q -96.5,-53.0,-96.0,-52.5
Q -97.8,-54.8,-98.9,-55.6
Q -99.4,-56.1,-100.0,-56.5
 " /> 
<path  
style="fill:rgb(14,103,171)" 
d="M -91.1 -69.9
Q -90.8,-70.1,-90.6,-70.4
Q -90.0,-70.8,-90.3,-71.5
Q -90.5,-71.8,-90.7,-72.1
Q -90.7,-71.7,-90.8,-71.3
Q -90.9,-70.4,-91.0,-70.2
Q -91.1,-70.0,-91.1,-69.9
 " /> 
<path  
style="fill:rgb(14,103,171)" 
d="M -108.9 -116.1
Q -108.9,-116.7,-108.9,-117.3
Q -109.1,-117.8,-109.3,-118.3
Q -109.3,-116.4,-109.3,-116.2
Q -109.2,-115.9,-108.9,-116.1
 " /> 
<path  
style="fill:rgb(14,103,171)" 
d="M -109.3 -118.3
Q -109.1,-117.8,-108.9,-117.3
Q -108.9,-117.3,-108.9,-117.3
Q -108.8,-118.5,-109.3,-118.3
 " /> 
<path  
style="fill:rgb(14,103,171)" 
d="M -109.3 -127.2
Q -108.9,-127.4,-108.9,-130.3
Q -109.3,-130.2,-109.3,-128.7
Q -109.3,-128.0,-109.3,-127.2
 " /> 
<path  
style="fill:rgb(14,103,171)" 
d="M -91.6 -115.7
Q -91.0,-116.6,-91.3,-117.2
Q -91.4,-117.6,-91.6,-117.9
Q -91.6,-116.8,-91.6,-115.7
 " /> 
<path  
style="fill:rgb(14,103,171)" 
d="M -98.2 -147.7
Q -98.2,-148.4,-98.2,-149.1
Q -98.4,-149.7,-98.7,-150.3
Q -98.7,-148.0,-98.6,-147.7
Q -98.6,-147.5,-98.2,-147.7
 " /> 
<path  
style="fill:rgb(14,103,171)" 
d="M -98.7 -150.3
Q -98.4,-149.7,-98.2,-149.1
Q -98.2,-149.1,-98.2,-149.1
Q -98.1,-150.5,-98.4,-150.4
Q -98.5,-150.4,-98.7,-150.3
 " /> 
<path  
style="fill:rgb(14,103,171)" 
d="M -77.3 -144.5
Q -77.3,-143.5,-77.4,-142.5
Q -77.4,-140.4,-77.1,-140.5
Q -77.0,-140.5,-76.9,-140.5
Q -76.9,-144.3,-76.9,-144.5
Q -77.0,-144.7,-77.3,-144.5
 " /> 
<path  
style="fill:rgb(14,103,171)" 
d="M -76.9 -138.3
Q -77.4,-137.0,-76.9,-135.2
Q -76.9,-136.8,-76.9,-138.3
 " /> 
<path  
style="fill:rgb(14,103,171)" 
d="M -62.2 -163.2
Q -62.3,-160.8,-62.0,-160.9
Q -61.9,-161.0,-61.8,-161.0
Q -61.8,-162.9,-61.8,-163.1
Q -61.9,-163.4,-62.2,-163.2
 " /> 
<path  
style="fill:rgb(14,103,171)" 
d="M -61.8 -156.5
Q -62.2,-156.3,-62.2,-154.4
Q -62.2,-153.5,-62.2,-152.5
Q -62.1,-152.6,-62.0,-152.6
Q -61.8,-152.7,-61.8,-154.6
Q -61.8,-155.6,-61.8,-156.5
 " /> 
<path  
style="fill:rgb(14,103,171)" 
d="M -62.2 -148.1
Q -62.7,-147.9,-62.7,-145.4
Q -62.6,-145.5,-62.5,-145.5
Q -62.3,-145.6,-62.3,-146.9
Q -62.2,-147.5,-62.2,-148.1
 " /> 
<path  
style="fill:rgb(14,103,171)" 
d="M -60.9 -133.4
Q -60.7,-133.3,-60.4,-133.2
Q -60.0,-133.0,-59.5,-132.6
Q -59.3,-132.3,-59.1,-132.1
Q -59.2,-132.3,-59.3,-132.6
Q -59.5,-133.0,-60.9,-133.4
 " /> 
<path  
style="fill:rgb(97,247,248)" 
d="M -65.8 -120.1
Q -68.0,-125.0,-68.3,-129.2
Q -68.6,-133.4,-68.9,-133.4
Q -69.3,-133.4,-69.3,-130.2
Q -69.3,-123.9,-66.9,-121.0
Q -66.3,-120.3,-65.8,-119.7
Q -65.8,-119.9,-65.8,-120.1
 " /> 
<path  
style="fill:rgb(97,247,248)" 
d="M -69.3 -106.3
Q -70.2,-107.0,-71.0,-107.7
Q -74.0,-110.2,-77.2,-118.0
Q -78.6,-121.6,-79.1,-121.8
Q -79.6,-122.0,-79.3,-120.9
Q -76.9,-112.6,-71.8,-106.8
Q -70.2,-105.0,-69.3,-105.4
Q -69.3,-105.9,-69.3,-106.3
 " /> 
<path  
style="fill:rgb(14,103,171)" 
d="M -69.8 -103.2
Q -69.9,-103.2,-70.0,-103.1
Q -70.2,-103.0,-70.2,-101.0
Q -70.1,-101.0,-70.0,-101.1
Q -69.8,-101.1,-69.8,-103.2
 " /> 
<path  
style="fill:rgb(97,247,248)" 
d="M -70.7 -90.3
Q -72.0,-91.6,-73.2,-92.8
Q -80.7,-100.0,-83.5,-110.7
Q -84.0,-112.5,-84.5,-112.5
Q -85.9,-112.5,-82.9,-105.2
Q -79.9,-97.7,-74.0,-92.1
Q -72.3,-90.5,-70.7,-89.0
Q -70.7,-89.7,-70.7,-90.3
 " /> 
<path  
style="fill:rgb(14,103,171)" 
d="M -70.2 -80.1
Q -70.2,-79.4,-70.3,-78.7
Q -70.0,-78.1,-69.8,-77.4
Q -69.8,-79.8,-69.8,-80.0
Q -69.9,-80.3,-70.2,-80.1
 " /> 
<path  
style="fill:rgb(14,103,171)" 
d="M -69.8 -77.4
Q -70.0,-78.1,-70.3,-78.7
Q -70.3,-78.7,-70.3,-78.7
Q -70.3,-77.3,-69.8,-77.4
 " /> 
<path  
style="fill:rgb(4,4,4)" 
d="M -69.3 -73.9
Q -69.3,-73.7,-69.4,-73.4
Q -69.4,-73.0,-69.1,-72.8
Q -69.0,-72.7,-68.9,-72.5
Q -69.1,-73.2,-69.3,-73.9
 " /> 
<path  
style="fill:rgb(97,247,248)" 
d="M -69.3 -73.9
Q -70.3,-74.2,-71.2,-74.6
Q -73.1,-75.3,-76.2,-77.9
Q -83.2,-83.7,-87.4,-90.9
Q -89.6,-94.8,-89.9,-94.8
Q -90.8,-94.8,-88.2,-90.0
Q -84.7,-83.5,-78.2,-77.9
Q -75.1,-75.2,-68.9,-72.5
Q -69.0,-72.7,-69.1,-72.8
Q -69.4,-73.0,-69.4,-73.4
Q -69.3,-73.7,-69.3,-73.9
 " /> 
<path  
style="fill:rgb(97,247,248)" 
d="M -60.4 -45.0
Q -76.1,-48.0,-90.1,-61.2
Q -92.9,-63.8,-92.9,-62.7
Q -92.9,-61.2,-85.3,-55.6
Q -70.7,-44.8,-61.8,-43.9
Q -60.7,-43.8,-59.6,-43.7
Q -60.0,-44.3,-60.4,-45.0
 " /> 
<path  
style="fill:rgb(4,4,4)" 
d="M 73.8 -47.7
Q 75.6,-48.5,78.3,-49.4
Q 85.7,-51.7,91.2,-55.5
Q 92.4,-56.3,92.8,-55.9
Q 94.2,-54.5,81.6,-49.4
Q 78.2,-48.0,73.8,-47.2
Q 70.7,-41.0,68.4,-37.6
Q 67.2,-35.9,66.1,-34.2
Q 78.3,-36.7,87.9,-41.7
Q 91.6,-43.6,99.6,-48.5
Q 99.8,-48.9,100.0,-49.2
Q 100.5,-49.9,101.1,-50.3
Q 101.4,-50.5,101.8,-50.8
Q 102.4,-51.2,103.1,-51.7
Q 104.0,-53.0,104.7,-53.4
Q 105.0,-53.7,105.3,-53.9
Q 110.7,-60.4,110.7,-62.6
Q 110.7,-64.5,103.1,-59.4
Q 101.6,-58.3,100.3,-58.4
Q 95.7,-59.0,104.0,-69.6
Q 118.6,-88.4,122.5,-104.0
Q 124.2,-111.0,122.9,-113.1
Q 121.9,-114.8,114.1,-104.2
Q 109.4,-98.0,108.8,-100.5
Q 108.5,-101.4,111.9,-111.3
Q 115.2,-121.2,116.5,-125.8
Q 117.8,-130.3,118.7,-137.0
Q 118.7,-139.5,118.9,-139.6
Q 119.0,-139.6,119.1,-139.7
Q 119.1,-142.3,119.1,-145.0
Q 119.0,-145.0,118.9,-144.9
Q 118.7,-144.9,118.7,-145.2
Q 118.6,-145.4,118.7,-147.7
Q 117.9,-151.7,115.6,-153.0
Q 115.3,-152.8,115.1,-152.6
Q 114.6,-152.1,113.8,-151.5
Q 113.3,-151.1,112.9,-150.8
Q 108.9,-142.3,106.4,-136.0
Q 101.5,-123.5,98.7,-130.0
Q 97.8,-131.9,96.4,-137.0
Q 91.3,-155.8,86.5,-159.0
Q 85.3,-159.8,83.8,-157.4
Q 83.2,-156.5,82.7,-155.7
Q 82.7,-153.1,82.6,-152.6
Q 82.6,-152.2,82.2,-152.1
Q 82.2,-149.9,82.2,-147.7
Q 82.2,-145.2,81.8,-145.0
Q 81.8,-141.0,79.4,-139.4
Q 77.4,-138.1,72.9,-142.5
Q 71.7,-143.7,70.6,-144.8
Q 70.7,-144.1,70.9,-143.4
Q 72.5,-136.1,70.0,-135.8
Q 68.2,-135.6,62.8,-140.0
Q 61.7,-141.0,60.5,-141.9
Q 60.9,-140.8,61.2,-139.6
Q 62.3,-135.8,58.6,-134.8
Q 57.7,-134.5,56.8,-134.3
Q 61.3,-131.2,64.0,-127.7
Q 65.3,-126.8,65.8,-126.1
Q 66.0,-125.8,66.2,-125.4
Q 71.7,-117.7,73.9,-110.5
Q 75.9,-104.5,76.9,-99.2
Q 77.2,-99.8,79.3,-101.9
Q 86.9,-109.9,87.4,-128.5
Q 87.6,-137.7,87.8,-138.3
Q 88.0,-138.6,88.1,-139.0
Q 89.6,-132.2,88.4,-121.7
Q 86.8,-107.8,80.2,-101.3
Q 77.5,-98.7,77.0,-98.9
Q 78.1,-93.1,78.2,-88.3
Q 78.2,-87.3,78.2,-86.3
Q 78.3,-86.4,78.5,-86.4
Q 78.7,-86.4,78.7,-85.3
Q 78.7,-85.3,78.7,-85.3
Q 78.7,-84.7,78.7,-84.1
Q 78.7,-82.8,78.7,-81.4
Q 79.7,-82.1,80.7,-82.8
Q 84.9,-85.6,91.6,-93.7
Q 103.9,-108.6,108.7,-121.6
Q 110.6,-126.9,111.0,-125.7
Q 111.2,-125.2,109.6,-120.9
Q 105.9,-111.0,99.5,-102.1
Q 86.4,-84.0,78.7,-80.5
Q 78.7,-80.1,78.7,-79.7
Q 78.8,-78.2,78.9,-76.8
Q 79.1,-73.9,78.7,-68.5
Q 78.7,-67.7,78.7,-66.8
Q 88.0,-69.4,93.7,-74.5
Q 99.8,-80.0,103.6,-85.8
Q 105.1,-88.1,105.7,-88.1
Q 106.5,-88.1,103.6,-83.9
Q 94.4,-70.5,81.1,-66.2
Q 79.9,-65.8,78.7,-65.4
Q 78.7,-63.4,78.2,-63.2
Q 77.3,-57.0,76.4,-54.1
Q 75.5,-51.2,73.8,-47.7
 " /> 
<path  
style="fill:rgb(97,247,248)" 
d="M 73.5 -119.0
Q 73.4,-118.3,73.2,-117.7
Q 73.6,-118.0,73.9,-118.3
Q 75.6,-119.9,75.6,-125.8
Q 75.6,-129.5,75.0,-129.3
Q 74.5,-129.1,74.6,-126.7
Q 74.7,-124.3,74.2,-122.3
Q 73.7,-120.3,73.5,-119.0
 " /> 
<path  
style="fill:rgb(97,247,248)" 
d="M 65.8 -129.1
Q 65.8,-128.1,66.2,-128.1
Q 66.7,-128.1,67.4,-131.6
Q 67.6,-133.1,67.1,-132.9
Q 65.8,-132.4,65.8,-129.1
 " /> 
<path  
style="fill:rgb(97,247,248)" 
d="M 73.8 -47.7
Q 73.8,-47.4,73.8,-47.2
Q 78.2,-48.0,81.6,-49.4
Q 94.2,-54.5,92.8,-55.9
Q 92.4,-56.3,91.2,-55.5
Q 85.7,-51.7,78.3,-49.4
Q 75.6,-48.5,73.8,-47.7
 " /> 
<path  
style="fill:rgb(14,103,171)" 
d="M 78.2 -63.2
Q 78.7,-63.4,78.7,-65.4
Q 78.5,-65.4,78.2,-65.5
Q 78.2,-65.2,78.2,-64.9
Q 78.2,-64.1,78.2,-63.2
 " /> 
<path  
style="fill:rgb(14,103,171)" 
d="M 78.7 -65.4
Q 78.7,-66.1,78.7,-66.8
Q 78.6,-66.7,78.5,-66.7
Q 78.3,-66.7,78.2,-65.5
Q 78.5,-65.4,78.7,-65.4
 " /> 
<path  
style="fill:rgb(97,247,248)" 
d="M 78.7 -65.4
Q 79.9,-65.8,81.1,-66.2
Q 94.4,-70.5,103.6,-83.9
Q 106.5,-88.1,105.7,-88.1
Q 105.1,-88.1,103.6,-85.8
Q 99.8,-80.0,93.7,-74.5
Q 88.0,-69.4,78.7,-66.8
Q 78.7,-66.1,78.7,-65.4
 " /> 
<path  
style="fill:rgb(14,103,171)" 
d="M 78.7 -68.5
Q 79.1,-73.9,78.9,-76.8
Q 78.8,-78.2,78.7,-79.7
Q 78.7,-74.1,78.7,-68.5
 " /> 
<path  
style="fill:rgb(97,247,248)" 
d="M 78.7 -80.5
Q 86.4,-84.0,99.5,-102.1
Q 105.9,-111.0,109.6,-120.9
Q 111.2,-125.2,111.0,-125.7
Q 110.6,-126.9,108.7,-121.6
Q 103.9,-108.6,91.6,-93.7
Q 84.9,-85.6,80.7,-82.8
Q 79.7,-82.1,78.7,-81.4
Q 78.7,-81.0,78.7,-80.5
 " /> 
<path  
style="fill:rgb(14,103,171)" 
d="M 78.7 -84.1
Q 78.7,-84.7,78.7,-85.3
Q 78.4,-85.8,78.2,-86.3
Q 78.2,-84.0,78.4,-84.0
Q 78.6,-84.1,78.7,-84.1
 " /> 
<path  
style="fill:rgb(14,103,171)" 
d="M 78.2 -86.3
Q 78.4,-85.8,78.7,-85.3
Q 78.7,-85.3,78.7,-85.3
Q 78.7,-86.4,78.5,-86.4
Q 78.3,-86.4,78.2,-86.3
 " /> 
<path  
style="fill:rgb(14,103,171)" 
d="M 66.2 -125.4
Q 66.0,-125.8,65.8,-126.1
Q 65.3,-126.8,64.0,-127.7
Q 64.9,-126.4,65.6,-125.9
Q 65.9,-125.7,66.2,-125.4
 " /> 
<path  
style="fill:rgb(7,193,201)" 
d="M 76.9 -99.2
Q 77.5,-96.3,77.8,-93.7
Q 77.5,-98.7,80.2,-101.3
Q 86.8,-107.8,88.4,-121.7
Q 89.6,-132.2,88.1,-139.0
Q 88.0,-138.6,87.8,-138.3
Q 87.6,-137.7,87.4,-128.5
Q 86.9,-109.9,79.3,-101.9
Q 77.2,-99.8,76.9,-99.2
 " /> 
<path  
style="fill:rgb(14,103,171)" 
d="M 81.8 -145.0
Q 82.2,-145.2,82.2,-147.7
Q 82.1,-147.6,82.0,-147.6
Q 81.8,-147.5,81.8,-145.0
 " /> 
<path  
style="fill:rgb(14,103,171)" 
d="M 82.2 -152.1
Q 82.6,-152.2,82.6,-152.6
Q 82.7,-153.1,82.7,-155.7
Q 82.3,-155.5,82.2,-153.8
Q 82.2,-153.0,82.2,-152.1
 " /> 
<path  
style="fill:rgb(14,103,171)" 
d="M 112.9 -150.8
Q 113.3,-151.1,113.8,-151.5
Q 114.6,-152.1,115.1,-152.6
Q 115.3,-152.8,115.6,-153.0
Q 115.2,-152.9,114.9,-152.7
Q 114.3,-152.5,113.6,-151.6
Q 113.2,-151.2,112.9,-150.8
 " /> 
<path  
style="fill:rgb(14,103,171)" 
d="M 118.7 -147.7
Q 118.6,-145.4,118.7,-145.2
Q 118.7,-144.9,118.9,-144.9
Q 119.0,-145.0,119.1,-145.0
Q 119.1,-147.8,118.9,-147.7
Q 118.8,-147.7,118.7,-147.7
 " /> 
<path  
style="fill:rgb(14,103,171)" 
d="M 119.1 -139.7
Q 119.0,-139.6,118.9,-139.6
Q 118.7,-139.5,118.7,-137.0
Q 119.1,-137.1,119.1,-138.4
Q 119.1,-139.0,119.1,-139.7
 " /> 
<path  
style="fill:rgb(14,103,171)" 
d="M 105.3 -53.9
Q 105.0,-53.7,104.7,-53.4
Q 104.0,-53.0,103.1,-51.7
Q 103.4,-51.9,103.8,-52.1
Q 104.4,-52.6,104.9,-53.2
Q 105.1,-53.6,105.3,-53.9
 " /> 
<path  
style="fill:rgb(14,103,171)" 
d="M 101.8 -50.8
Q 101.4,-50.5,101.1,-50.3
Q 100.5,-49.9,100.0,-49.2
Q 99.8,-48.9,99.6,-48.5
Q 100.9,-49.5,101.8,-50.8
 " /> 
<path  
style="fill:rgb(4,4,4)" 
d="M -3.8 27.1
Q -3.4,27.1,-3.0,27.0
Q -3.1,26.9,-3.1,25.9
Q -3.1,25.9,-3.1,25.9
Q -3.1,25.4,-3.1,24.8
Q -3.6,24.9,-4.1,24.9
Q -3.8,28.0,-3.4,30.7
 " /> 
<path  
style="fill:rgb(7,193,201)" 
d="M 29.1 29.4
Q 29.3,27.5,29.1,26.3
Q 29.1,26.1,29.0,25.9
Q 29.0,25.9,28.9,25.9
Q 28.9,26.4,28.9,27.0
Q 28.9,27.8,28.9,29.5
Q 28.9,29.8,28.9,30.3
Q 29.0,29.4,29.1,29.4
 " /> 
<path  
style="fill:rgb(97,247,248)" 
d="M -68.4 -84.5
Q -68.3,-84.6,-68.2,-84.6
Q -67.9,-84.7,-68.0,-82.3
Q -67.7,-79.8,-67.3,-77.2
Q -66.2,-68.9,-62.0,-56.2
Q -56.1,-38.8,-46.4,-28.2
Q -45.5,-27.2,-44.6,-26.3
Q -43.9,-27.3,-43.1,-28.4
Q -40.0,-32.8,-39.3,-32.8
Q -37.0,-32.9,-46.2,-21.9
Q -54.5,-12.0,-55.9,-6.5
Q -57.8,0.3,-55.4,0.6
Q -51.4,1.2,-39.1,-19.7
Q -34.5,-27.7,-33.0,-27.7
Q -31.9,-27.7,-34.2,-24.3
Q -35.7,-22.2,-35.9,-21.7
Q -36.0,-21.2,-34.7,-20.4
Q -33.3,-19.7,-32.0,-18.9
Q -30.3,-17.9,-29.0,-21.4
Q -27.8,-24.9,-26.9,-24.1
Q -26.3,-23.6,-27.6,-20.4
Q -29.0,-17.2,-29.1,-16.5
Q -29.2,-15.8,-30.3,-13.8
Q -35.3,-5.1,-36.2,2.2
Q -37.1,9.1,-32.2,6.2
Q -27.4,3.2,-19.6,-9.0
Q -18.8,-10.2,-16.5,-13.0
Q -13.1,-17.0,-12.3,-16.2
Q -11.8,-15.7,-13.0,-14.4
Q -14.1,-13.2,-14.9,-11.9
Q -15.7,-10.6,-16.1,-10.3
Q -17.2,-9.5,-4.6,-8.2
Q -2.3,-7.9,-0.0,-7.7
Q 1.8,-7.7,3.6,-7.7
Q 4.9,-7.7,6.2,-7.7
Q 8.8,-7.8,9.3,-8.0
Q 9.5,-8.0,9.8,-8.1
Q 10.9,-8.1,12.0,-8.1
Q 18.2,-9.0,22.8,-10.1
Q 27.3,-11.3,28.6,-11.3
Q 30.1,-11.4,28.4,-15.8
Q 26.9,-19.4,27.2,-19.9
Q 27.8,-21.1,30.2,-15.4
Q 31.2,-13.2,32.0,-11.4
Q 32.8,-9.6,34.0,-6.1
Q 37.9,5.3,39.7,-1.1
Q 40.3,-3.5,40.9,-7.2
Q 40.9,-8.5,40.9,-9.9
Q 40.7,-10.9,40.4,-11.9
Q 39.1,-17.9,36.9,-22.6
Q 35.2,-26.3,35.6,-26.6
Q 36.1,-26.9,36.8,-26.1
Q 37.4,-25.2,41.5,-16.6
Q 42.7,-17.7,43.9,-18.7
Q 45.6,-20.1,45.9,-20.8
Q 46.4,-21.9,44.9,-26.0
Q 43.0,-31.7,44.1,-31.7
Q 45.6,-31.7,49.6,-16.6
Q 51.6,-8.8,53.5,-8.8
Q 55.4,-8.8,57.3,-21.0
Q 56.8,-22.3,57.1,-22.8
Q 57.2,-23.0,57.3,-23.2
Q 57.0,-24.9,56.7,-26.5
Q 56.0,-29.9,54.9,-32.9
Q 53.2,-37.2,53.4,-38.0
Q 53.8,-39.4,56.1,-34.7
Q 57.9,-31.0,58.3,-30.3
Q 59.1,-28.9,65.4,-37.5
Q 73.2,-48.1,75.3,-59.9
Q 75.7,-61.8,76.0,-63.7
Q 76.0,-65.8,76.2,-65.8
Q 76.3,-65.9,76.4,-65.9
Q 76.4,-67.3,76.4,-68.8
Q 76.5,-71.7,76.9,-75.2
Q 76.4,-75.1,76.4,-77.8
Q 76.4,-79.2,76.4,-80.5
Q 76.3,-82.4,76.2,-84.3
Q 73.9,-123.7,48.3,-136.1
Q 44.7,-137.9,44.7,-138.7
Q 44.8,-139.9,48.0,-138.8
Q 49.5,-138.3,49.7,-138.6
Q 50.0,-138.8,49.2,-140.9
Q 43.8,-155.2,31.8,-158.9
Q 23.4,-161.4,16.9,-156.6
Q 14.6,-154.9,13.3,-154.0
Q 12.7,-153.5,12.0,-153.0
Q 11.3,-152.0,10.6,-151.4
Q 10.2,-151.1,9.8,-150.8
Q 8.8,-149.3,7.7,-147.7
Q 5.7,-144.7,2.2,-144.9
Q 0.4,-144.9,-1.3,-145.0
Q -3.1,-145.0,-4.9,-145.0
Q -7.1,-146.8,-8.7,-149.4
Q -15.9,-161.5,-26.9,-163.0
Q -27.9,-163.1,-28.9,-163.2
Q -30.7,-163.2,-32.4,-163.2
Q -33.1,-163.1,-33.8,-163.0
Q -41.8,-161.7,-45.8,-148.9
Q -46.7,-146.1,-46.7,-144.5
Q -46.7,-140.6,-48.6,-140.9
Q -49.2,-141.0,-50.7,-139.7
Q -51.6,-138.4,-52.0,-137.9
Q -52.2,-137.7,-52.4,-137.4
Q -52.4,-135.7,-54.2,-134.6
Q -59.0,-131.5,-64.5,-117.7
Q -66.6,-112.2,-68.0,-100.1
Q -68.0,-97.2,-68.4,-97.0
Q -68.4,-96.4,-68.4,-95.9
Q -68.4,-94.8,-68.4,-91.7
Q -68.4,-89.9,-68.4,-88.1
Q -68.4,-86.3,-68.4,-84.5
 " /> 
<path  
style="fill:rgb(4,4,4)" 
d="M 17.8 -20.1
Q 19.8,-18.8,20.6,-18.8
Q 22.3,-18.8,19.9,-20.8
Q 13.1,-26.5,-0.3,-22.3
Q -2.9,-21.6,-2.8,-21.0
Q -2.8,-20.0,2.2,-21.2
Q 12.6,-23.6,17.8,-20.1
 " /> 
<path  
style="fill:rgb(4,4,4)" 
d="M 12.9 -45.3
Q 15.2,-41.0,15.6,-41.0
Q 16.8,-41.0,13.7,-46.9
Q 11.3,-51.3,10.7,-51.5
Q 9.3,-52.1,12.9,-45.3
 " /> 
<path  
style="fill:rgb(4,4,4)" 
d="M -1.2 -42.3
Q -1.4,-41.4,-0.7,-41.4
Q -0.0,-41.4,1.2,-43.8
Q 2.3,-46.1,4.1,-48.6
Q 5.9,-51.1,5.7,-51.9
Q 5.5,-52.7,4.8,-51.8
Q -0.5,-45.1,-1.2,-42.3
 " /> 
<path  
style="fill:rgb(4,4,4)" 
d="M 24.0 -56.1
Q 24.3,-55.9,24.7,-55.6
Q 25.3,-55.2,25.8,-54.5
Q 26.0,-54.2,26.2,-53.9
Q 26.7,-53.5,27.1,-53.2
Q 30.4,-50.7,35.4,-50.4
Q 42.0,-50.0,48.0,-53.9
Q 66.0,-65.6,65.9,-86.8
Q 65.8,-104.5,54.8,-115.6
Q 47.6,-122.8,41.2,-118.9
Q 40.4,-118.4,39.6,-117.9
Q 37.7,-115.7,36.9,-115.0
Q 36.4,-114.7,36.0,-114.3
Q 31.6,-108.1,29.1,-103.3
Q 24.3,-93.6,20.2,-81.9
Q 17.7,-74.6,17.0,-73.2
Q 16.4,-71.9,16.0,-70.1
Q 15.6,-68.3,14.7,-65.7
Q 13.8,-63.0,14.2,-62.6
Q 15.1,-61.7,16.4,-65.4
Q 16.8,-66.6,17.2,-67.8
Q 18.0,-66.0,18.9,-64.2
Q 20.6,-60.6,24.0,-56.1
 " /> 
<path  
style="fill:rgb(115,250,3)" 
d="M 41.3 -116.5
Q 40.0,-114.8,38.7,-113.9
Q 37.7,-112.7,36.7,-111.4
Q 30.1,-103.4,22.5,-82.3
Q 19.5,-74.1,19.3,-72.7
Q 19.0,-71.3,20.7,-67.4
Q 29.9,-45.4,47.8,-57.2
Q 60.8,-65.8,63.1,-81.0
Q 63.3,-82.5,63.6,-84.1
Q 63.6,-86.5,63.6,-89.0
Q 62.8,-89.0,62.0,-89.0
Q 62.0,-83.9,59.6,-78.1
Q 55.1,-67.2,47.8,-62.0
Q 39.8,-56.4,28.9,-62.8
Q 26.5,-64.2,25.7,-64.4
Q 24.9,-64.6,24.6,-66.1
Q 24.1,-68.9,26.0,-71.2
Q 26.6,-71.9,27.1,-72.5
Q 22.8,-73.5,24.4,-74.8
Q 24.9,-75.2,26.7,-74.3
Q 28.4,-74.3,30.2,-74.3
Q 30.6,-74.4,30.9,-74.5
Q 31.6,-74.8,32.7,-75.4
Q 33.2,-75.8,33.8,-76.1
Q 34.2,-76.7,34.7,-77.2
Q 35.6,-78.3,37.8,-80.1
Q 38.6,-81.5,39.3,-82.4
Q 39.6,-82.8,40.0,-83.2
Q 39.5,-83.7,39.1,-84.3
Q 31.2,-77.3,28.8,-79.7
Q 26.3,-82.3,33.1,-93.6
Q 35.3,-97.2,35.4,-98.3
Q 35.4,-99.5,36.9,-102.1
Q 39.9,-107.6,44.1,-109.5
Q 43.7,-108.4,45.3,-107.4
Q 49.2,-105.0,51.1,-97.0
Q 52.1,-92.7,46.8,-89.9
Q 44.9,-89.0,43.0,-87.5
Q 43.3,-87.2,43.6,-86.8
Q 44.3,-87.1,45.1,-87.5
Q 49.2,-89.3,52.7,-82.9
Q 53.6,-81.1,53.9,-80.9
Q 54.5,-80.3,55.1,-83.0
Q 55.3,-84.0,55.6,-85.0
Q 55.6,-87.2,55.6,-89.4
Q 55.4,-91.0,55.1,-92.6
Q 54.5,-97.2,52.1,-102.1
Q 50.0,-106.3,51.0,-106.3
Q 52.3,-106.3,55.1,-99.7
Q 59.0,-102.2,61.2,-94.8
Q 62.0,-92.0,62.0,-89.0
Q 62.8,-89.0,63.6,-89.0
Q 63.4,-90.2,63.3,-91.4
Q 62.8,-97.2,58.7,-105.3
Q 51.6,-119.5,43.5,-117.2
Q 42.4,-116.9,41.3,-116.5
 " /> 
<path  
style="fill:rgb(31,181,0)" 
d="M 41.3 -116.5
Q 40.9,-116.2,40.5,-115.9
Q 39.6,-115.2,39.1,-114.5
Q 38.9,-114.2,38.7,-113.9
Q 40.0,-114.8,41.3,-116.5
 " /> 
<path  
style="fill:rgb(31,181,0)" 
d="M 63.6 -89.0
Q 63.6,-86.5,63.6,-84.1
Q 64.0,-86.8,63.6,-89.0
 " /> 
<path  
style="fill:rgb(115,250,3)" 
d="M 44.4 -85.0
Q 43.8,-84.1,43.1,-83.1
Q 46.0,-83.6,46.8,-83.3
Q 48.8,-82.7,51.3,-78.9
Q 51.8,-79.0,52.4,-79.2
Q 52.0,-79.9,51.5,-80.5
Q 50.6,-81.9,49.8,-84.1
Q 48.5,-85.1,47.1,-85.9
Q 46.6,-85.7,45.5,-85.3
Q 45.0,-85.2,44.4,-85.0
 " /> 
<path  
style="fill:rgb(31,181,0)" 
d="M 44.4 -85.0
Q 43.1,-83.4,41.8,-81.9
Q 37.8,-77.3,34.7,-74.9
Q 30.9,-72.0,28.4,-72.4
Q 27.8,-72.5,27.1,-72.5
Q 26.6,-71.9,26.0,-71.2
Q 24.1,-68.9,24.6,-66.1
Q 24.9,-64.6,25.7,-64.4
Q 26.5,-64.2,28.9,-62.8
Q 39.8,-56.4,47.8,-62.0
Q 55.1,-67.2,59.6,-78.1
Q 62.0,-83.9,62.0,-89.0
Q 62.0,-92.0,61.2,-94.8
Q 59.0,-102.2,55.1,-99.7
Q 58.4,-89.8,57.3,-82.1
Q 56.5,-76.3,52.4,-79.2
Q 54.2,-77.0,53.3,-77.0
Q 52.4,-77.0,51.3,-78.9
Q 51.3,-78.9,51.3,-78.9
Q 48.8,-82.7,46.8,-83.3
Q 46.0,-83.6,43.1,-83.1
Q 43.8,-84.1,44.4,-85.0
 " /> 
<path  
style="fill:rgb(4,4,4)" 
d="M 44.4 -85.0
Q 45.0,-85.2,45.5,-85.3
Q 46.6,-85.7,47.1,-85.9
Q 47.4,-85.9,47.8,-85.9
Q 48.5,-86.0,49.1,-85.0
Q 49.4,-84.6,49.8,-84.1
Q 50.6,-81.9,51.5,-80.5
Q 52.0,-79.9,52.4,-79.2
Q 56.5,-76.3,57.3,-82.1
Q 58.4,-89.8,55.1,-99.7
Q 52.3,-106.3,51.0,-106.3
Q 50.0,-106.3,52.1,-102.1
Q 54.5,-97.2,55.1,-92.6
Q 55.4,-91.0,55.6,-89.4
Q 56.0,-87.2,55.6,-85.0
Q 55.3,-84.0,55.1,-83.0
Q 54.5,-80.3,53.9,-80.9
Q 53.6,-81.1,52.7,-82.9
Q 49.2,-89.3,45.1,-87.5
Q 44.3,-87.1,43.6,-86.8
Q 43.1,-86.2,42.6,-85.7
Q 41.7,-84.6,40.0,-83.2
Q 39.6,-82.8,39.3,-82.4
Q 38.6,-81.5,37.8,-80.1
Q 37.3,-79.6,36.9,-79.0
Q 36.0,-77.9,34.9,-77.0
Q 34.3,-76.6,33.8,-76.1
Q 34.2,-75.5,34.7,-74.9
Q 37.8,-77.3,41.8,-81.9
Q 43.1,-83.4,44.4,-85.0
 " /> 
<path  
style="fill:rgb(4,4,4)" 
d="M 27.1 -72.5
Q 27.3,-73.3,27.5,-74.1
Q 27.1,-74.2,26.7,-74.3
Q 24.9,-75.2,24.4,-74.8
Q 22.8,-73.5,27.1,-72.5
 " /> 
<path  
style="fill:rgb(4,4,4)" 
d="M 27.1 -72.5
Q 27.8,-72.5,28.4,-72.4
Q 30.9,-72.0,34.7,-74.9
Q 34.2,-75.5,33.8,-76.1
Q 33.2,-75.8,32.7,-75.4
Q 31.6,-74.8,30.9,-74.5
Q 30.6,-74.4,30.2,-74.3
Q 29.8,-74.2,29.3,-74.1
Q 28.4,-73.9,27.6,-74.1
Q 27.5,-74.1,27.5,-74.1
Q 27.3,-73.3,27.1,-72.5
 " /> 
<path  
style="fill:rgb(115,250,3)" 
d="M 52.4 -79.2
Q 51.8,-79.0,51.3,-78.9
Q 51.3,-78.9,51.3,-78.9
Q 52.4,-77.0,53.3,-77.0
Q 54.2,-77.0,52.4,-79.2
 " /> 
<path  
style="fill:rgb(31,181,0)" 
d="M 26.7 -74.3
Q 27.1,-74.2,27.5,-74.1
Q 27.5,-74.1,27.6,-74.1
Q 28.4,-73.9,29.3,-74.1
Q 29.8,-74.2,30.2,-74.3
Q 28.4,-74.3,26.7,-74.3
 " /> 
<path  
style="fill:rgb(31,181,0)" 
d="M 33.8 -76.1
Q 34.3,-76.6,34.9,-77.0
Q 36.0,-77.9,36.9,-79.0
Q 37.3,-79.6,37.8,-80.1
Q 35.6,-78.3,34.7,-77.2
Q 34.2,-76.7,33.8,-76.1
 " /> 
<path  
style="fill:rgb(115,250,3)" 
d="M 40.0 -83.2
Q 40.3,-83.7,40.7,-84.1
Q 41.4,-85.0,42.5,-85.9
Q 43.0,-86.3,43.6,-86.8
Q 43.3,-87.2,43.0,-87.5
Q 41.3,-86.3,39.6,-84.7
Q 39.3,-84.5,39.1,-84.3
Q 39.5,-83.7,40.0,-83.2
 " /> 
<path  
style="fill:rgb(31,181,0)" 
d="M 40.0 -83.2
Q 41.7,-84.6,42.6,-85.7
Q 43.1,-86.2,43.6,-86.8
Q 43.0,-86.3,42.5,-85.9
Q 41.4,-85.0,40.7,-84.1
Q 40.3,-83.7,40.0,-83.2
 " /> 
<path  
style="fill:rgb(31,181,0)" 
d="M 55.6 -85.0
Q 56.0,-87.2,55.6,-89.4
Q 55.6,-87.2,55.6,-85.0
 " /> 
<path  
style="fill:rgb(31,181,0)" 
d="M 49.8 -84.1
Q 49.4,-84.6,49.1,-85.0
Q 48.5,-86.0,47.8,-85.9
Q 47.4,-85.9,47.1,-85.9
Q 48.5,-85.1,49.8,-84.1
 " /> 
<path  
style="fill:rgb(209,251,185)" 
d="M 28.8 -79.7
Q 31.2,-77.3,39.1,-84.3
Q 39.3,-84.5,39.6,-84.7
Q 41.3,-86.3,43.0,-87.5
Q 44.9,-89.0,46.8,-89.9
Q 52.1,-92.7,51.1,-97.0
Q 49.2,-105.0,45.3,-107.4
Q 43.7,-108.4,44.1,-109.5
Q 39.9,-107.6,36.9,-102.1
Q 35.4,-99.5,35.4,-98.3
Q 35.3,-97.2,33.1,-93.6
Q 26.3,-82.3,28.8,-79.7
 " /> 
<path  
style="fill:rgb(7,193,201)" 
d="M 24.0 -56.1
Q 24.2,-55.8,24.5,-55.5
Q 24.9,-54.8,25.6,-54.3
Q 25.9,-54.1,26.2,-53.9
Q 26.0,-54.2,25.8,-54.5
Q 25.3,-55.2,24.7,-55.6
Q 24.3,-55.9,24.0,-56.1
 " /> 
<path  
style="fill:rgb(14,103,171)" 
d="M 36.0 -114.3
Q 36.4,-114.7,36.9,-115.0
Q 37.7,-115.7,39.6,-117.9
Q 37.3,-116.1,36.0,-114.3
 " /> 
<path  
style="fill:rgb(4,4,4)" 
d="M -38.7 -63.2
Q -38.3,-63.0,-38.0,-62.8
Q -37.4,-62.3,-36.9,-61.6
Q -36.7,-61.3,-36.4,-61.0
Q -35.4,-60.1,-34.4,-59.2
Q -23.9,-49.8,-13.4,-54.4
Q -6.4,-57.4,-1.7,-67.4
Q -1.3,-66.0,-1.0,-64.5
Q -0.4,-61.7,0.0,-61.1
Q 2.8,-57.3,-2.5,-81.2
Q -8.8,-109.9,-21.4,-120.9
Q -31.4,-129.5,-40.1,-124.4
Q -41.2,-123.8,-42.2,-123.2
Q -42.5,-122.9,-42.8,-122.5
Q -43.3,-121.8,-44.1,-121.2
Q -44.5,-120.9,-44.9,-120.5
Q -45.7,-119.5,-46.4,-118.5
Q -51.6,-112.0,-51.6,-98.5
Q -51.6,-78.0,-40.6,-65.5
Q -39.6,-64.3,-38.7,-63.2
 " /> 
<path  
style="fill:rgb(115,250,3)" 
d="M -38.7 -66.3
Q -35.6,-63.6,-34.5,-62.3
Q -33.9,-61.7,-33.3,-61.0
Q -31.9,-60.1,-30.4,-59.2
Q -22.2,-54.1,-16.0,-56.1
Q -14.2,-56.7,-10.7,-58.8
Q -9.3,-60.5,-8.4,-61.2
Q -8.0,-61.5,-7.6,-61.9
Q -6.8,-63.2,-6.0,-64.5
Q -4.4,-67.2,-3.5,-69.8
Q -1.8,-74.5,-7.4,-91.6
Q -11.3,-103.6,-19.1,-115.7
Q -21.8,-117.9,-23.6,-120.1
Q -24.8,-120.8,-26.0,-121.4
Q -39.3,-128.7,-46.3,-114.5
Q -48.4,-110.1,-49.3,-101.9
Q -49.3,-98.3,-49.3,-94.8
Q -48.4,-86.8,-47.1,-82.4
Q -45.0,-75.9,-38.7,-66.3
 " /> 
<path  
style="fill:rgb(4,4,4)" 
d="M -42.2 -105.0
Q -42.2,-102.6,-42.2,-100.2
Q -42.1,-99.0,-42.1,-97.8
Q -41.3,-97.9,-40.4,-97.9
Q -40.6,-98.9,-40.7,-99.9
Q -40.9,-101.9,-40.4,-105.4
Q -39.6,-110.3,-38.2,-112.2
Q -36.9,-114.1,-37.4,-114.5
Q -37.8,-115.0,-39.1,-113.6
Q -42.4,-109.9,-42.2,-105.0
 " /> 
<path  
style="fill:rgb(31,181,0)" 
d="M -42.2 -105.0
Q -42.4,-104.4,-42.7,-103.9
Q -43.1,-102.8,-43.6,-102.9
Q -45.3,-103.3,-45.3,-97.2
Q -45.3,-93.2,-43.8,-87.2
Q -39.1,-68.2,-29.6,-62.7
Q -20.2,-57.4,-11.1,-65.7
Q -6.4,-70.0,-7.6,-72.7
Q -8.1,-74.0,-7.1,-74.8
Q -7.7,-74.5,-8.2,-74.3
Q -8.7,-74.1,-9.3,-74.1
Q -12.4,-74.1,-18.1,-79.4
Q -22.2,-83.2,-26.3,-81.5
Q -28.4,-80.6,-30.5,-78.4
Q -33.4,-75.3,-36.6,-78.6
Q -41.5,-83.7,-42.1,-97.8
Q -42.1,-99.0,-42.2,-100.2
Q -42.2,-102.6,-42.2,-105.0
 " /> 
<path  
style="fill:rgb(4,4,4)" 
d="M -7.1 -74.8
Q -7.5,-75.8,-8.4,-75.7
Q -8.9,-75.7,-9.3,-75.7
Q -9.3,-74.9,-9.3,-74.1
Q -8.7,-74.1,-8.2,-74.3
Q -7.7,-74.5,-7.1,-74.8
 " /> 
<path  
style="fill:rgb(31,181,0)" 
d="M -40.4 -105.4
Q -40.9,-101.9,-40.7,-99.9
Q -40.6,-98.9,-40.4,-97.9
Q -40.4,-101.7,-40.4,-105.4
 " /> 
<path  
style="fill:rgb(4,4,4)" 
d="M -40.4 -97.9
Q -41.3,-97.9,-42.1,-97.8
Q -41.5,-83.7,-36.6,-78.6
Q -33.4,-75.3,-30.5,-78.4
Q -28.4,-80.6,-26.3,-81.5
Q -26.5,-81.9,-26.6,-82.2
Q -27.2,-82.1,-27.6,-81.9
Q -27.3,-82.4,-26.9,-82.9
Q -25.5,-84.9,-23.4,-83.8
Q -22.7,-83.4,-22.0,-83.1
Q -24.8,-82.8,-26.6,-82.2
Q -26.5,-81.9,-26.3,-81.5
Q -22.2,-83.2,-18.1,-79.4
Q -12.4,-74.1,-9.3,-74.1
Q -9.3,-74.9,-9.3,-75.7
Q -9.7,-75.7,-10.0,-75.6
Q -10.7,-75.6,-11.3,-76.3
Q -11.7,-76.7,-12.0,-77.0
Q -16.9,-80.5,-18.8,-82.6
Q -25.4,-90.0,-29.4,-82.8
Q -30.6,-80.8,-32.0,-79.8
Q -32.6,-79.3,-33.3,-78.8
Q -36.0,-80.5,-36.9,-82.8
Q -38.2,-87.2,-38.9,-89.9
Q -39.6,-92.5,-40.0,-95.2
Q -40.2,-96.5,-40.4,-97.9
 " /> 
<path  
style="fill:rgb(31,181,0)" 
d="M -12.0 -77.0
Q -11.7,-76.7,-11.3,-76.3
Q -10.7,-75.6,-10.0,-75.6
Q -9.7,-75.7,-9.3,-75.7
Q -9.6,-75.8,-9.8,-75.9
Q -10.2,-76.1,-12.0,-77.0
 " /> 
<path  
style="fill:rgb(255,255,255)" 
d="M -26.9 -82.9
Q -26.8,-82.6,-26.6,-82.2
Q -24.8,-82.8,-22.0,-83.1
Q -22.7,-83.4,-23.4,-83.8
Q -25.5,-84.9,-26.9,-82.9
 " /> 
<path  
style="fill:rgb(255,255,255)" 
d="M -26.9 -82.9
Q -27.3,-82.4,-27.6,-81.9
Q -27.2,-82.1,-26.6,-82.2
Q -26.8,-82.6,-26.9,-82.9
 " /> 
<path  
style="fill:rgb(209,251,185)" 
d="M -12.5 -82.9
Q -9.8,-81.5,-10.0,-82.9
Q -10.6,-86.9,-18.3,-99.6
Q -25.5,-111.4,-30.8,-105.3
Q -35.2,-100.2,-32.5,-94.9
Q -30.5,-90.9,-25.9,-89.6
Q -20.3,-88.1,-17.1,-85.8
Q -14.5,-84.0,-12.5,-82.9
 " /> 
<path  
style="fill:rgb(31,181,0)" 
d="M -38.7 -66.3
Q -38.0,-65.6,-37.3,-64.8
Q -36.0,-63.2,-34.7,-62.1
Q -34.0,-61.6,-33.3,-61.0
Q -33.9,-61.7,-34.5,-62.3
Q -35.6,-63.6,-38.7,-66.3
 " /> 
<path  
style="fill:rgb(31,181,0)" 
d="M -49.3 -94.8
Q -49.3,-98.3,-49.3,-101.9
Q -49.8,-98.3,-49.6,-96.6
Q -49.4,-95.7,-49.3,-94.8
 " /> 
<path  
style="fill:rgb(31,181,0)" 
d="M -23.6 -120.1
Q -21.8,-117.9,-19.1,-115.7
Q -21.4,-118.3,-23.6,-120.1
 " /> 
<path  
style="fill:rgb(31,181,0)" 
d="M -7.6 -61.9
Q -8.0,-61.5,-8.4,-61.2
Q -9.3,-60.5,-10.7,-58.8
Q -10.2,-59.1,-9.8,-59.4
Q -8.9,-60.1,-7.6,-61.9
 " /> 
<path  
style="fill:rgb(14,103,171)" 
d="M -38.7 -63.2
Q -38.4,-62.9,-38.2,-62.6
Q -37.8,-61.9,-37.1,-61.5
Q -36.8,-61.2,-36.4,-61.0
Q -36.7,-61.3,-36.9,-61.6
Q -37.4,-62.3,-38.0,-62.8
Q -38.3,-63.0,-38.7,-63.2
 " /> 
<path  
style="fill:rgb(14,103,171)" 
d="M -44.9 -120.5
Q -44.5,-120.9,-44.1,-121.2
Q -43.3,-121.8,-42.8,-122.5
Q -42.5,-122.9,-42.2,-123.2
Q -42.6,-122.9,-43.0,-122.5
Q -43.9,-121.8,-44.9,-120.5
 " /> 
<path  
style="fill:rgb(7,193,201)" 
d="M -68.4 -84.5
Q -68.4,-82.7,-68.4,-82.4
Q -68.3,-82.2,-68.0,-82.3
Q -67.9,-84.7,-68.2,-84.6
Q -68.3,-84.6,-68.4,-84.5
 " /> 
<path  
style="fill:rgb(14,103,171)" 
d="M -68.4 -88.1
Q -68.4,-89.9,-68.4,-91.7
Q -68.9,-89.9,-68.4,-88.1
 " /> 
<path  
style="fill:rgb(7,193,201)" 
d="M -68.4 -97.0
Q -68.0,-97.2,-68.0,-100.1
Q -68.1,-100.1,-68.2,-100.0
Q -68.4,-100.0,-68.4,-97.0
 " /> 
<path  
style="fill:rgb(14,103,171)" 
d="M -52.4 -137.4
Q -52.2,-137.7,-52.0,-137.9
Q -51.6,-138.4,-50.7,-139.7
Q -51.0,-139.4,-51.3,-139.2
Q -52.0,-138.7,-52.2,-138.1
Q -52.3,-137.8,-52.4,-137.4
 " /> 
<path  
style="fill:rgb(4,4,4)" 
d="M -50.7 -139.7
Q -49.2,-141.0,-48.6,-140.9
Q -46.7,-140.6,-46.7,-144.5
Q -46.7,-146.1,-45.8,-148.9
Q -41.8,-161.7,-33.8,-163.0
Q -33.1,-163.1,-32.4,-163.2
Q -30.7,-163.7,-29.8,-163.5
Q -29.3,-163.3,-28.9,-163.2
Q -27.9,-163.1,-26.9,-163.0
Q -15.9,-161.5,-8.7,-149.4
Q -7.1,-146.8,-4.9,-145.0
Q -4.4,-145.1,-4.0,-145.2
Q -3.1,-145.5,-1.3,-145.0
Q 0.4,-144.9,2.2,-144.9
Q 5.7,-144.7,7.7,-147.7
Q 8.8,-149.3,9.8,-150.8
Q 9.2,-151.3,8.6,-151.8
Q 7.4,-150.4,6.6,-149.2
Q 4.7,-146.3,2.4,-146.5
Q 0.2,-146.8,-2.1,-146.8
Q -4.4,-146.8,-5.7,-149.0
Q -7.1,-151.2,-8.7,-153.2
Q -9.4,-154.2,-10.2,-155.2
Q -12.4,-157.0,-13.5,-158.3
Q -14.1,-159.0,-14.7,-159.7
Q -15.5,-160.4,-16.3,-161.1
Q -18.0,-162.5,-20.4,-163.3
Q -24.1,-164.7,-25.9,-168.6
Q -29.9,-177.1,-31.6,-191.4
Q -32.0,-194.3,-32.0,-194.8
Q -31.9,-197.9,-27.6,-189.7
Q -25.4,-185.6,-23.7,-182.7
Q -21.9,-179.9,-19.4,-175.9
Q -12.4,-164.3,-11.6,-165.6
Q -11.1,-166.5,-13.0,-169.3
Q -14.1,-171.0,-15.6,-173.4
Q -17.0,-175.8,-18.6,-178.3
Q -21.5,-183.0,-21.5,-184.4
Q -21.6,-186.2,-18.7,-187.6
Q -17.9,-188.1,-17.0,-188.5
Q -15.5,-181.7,-15.1,-180.3
Q -14.7,-179.0,-14.0,-176.3
Q -12.1,-169.5,-11.1,-169.1
Q -9.7,-168.6,-11.5,-174.5
Q -13.5,-181.1,-14.8,-187.7
Q -15.5,-191.0,-16.2,-193.9
Q -16.8,-196.8,-17.2,-201.1
Q -16.6,-200.3,-16.0,-198.8
Q -13.3,-191.1,-12.7,-189.4
Q -12.1,-187.9,-11.1,-184.8
Q -9.7,-180.4,-8.8,-181.3
Q -8.4,-181.8,-9.5,-185.6
Q -10.7,-189.4,-11.1,-191.7
Q -11.3,-192.8,-11.6,-193.9
Q -11.9,-193.7,-11.9,-194.0
Q -12.0,-194.2,-12.0,-196.1
Q -11.1,-199.2,-8.9,-201.4
Q -8.4,-201.7,-8.4,-199.8
Q -8.4,-198.8,-8.4,-197.9
Q -8.4,-196.7,-8.3,-195.6
Q -7.5,-195.6,-6.7,-195.7
Q -6.8,-200.4,-6.9,-205.2
Q -7.2,-214.8,-6.7,-216.8
Q -6.5,-217.8,-6.2,-218.8
Q -5.4,-220.0,-5.1,-220.0
Q -4.8,-220.0,-4.3,-219.2
Q -3.9,-218.5,-3.6,-217.9
Q -2.8,-218.2,-2.0,-218.5
Q -3.7,-222.5,-5.9,-222.0
Q -9.0,-221.4,-9.1,-210.1
Q -9.1,-203.7,-10.8,-202.3
Q -12.4,-201.0,-13.5,-198.0
Q -15.9,-203.1,-16.9,-203.4
Q -21.1,-204.8,-18.6,-195.4
Q -17.3,-190.2,-19.1,-189.6
Q -20.6,-189.0,-21.9,-187.8
Q -23.5,-186.3,-25.6,-190.4
Q -28.8,-196.8,-31.0,-198.0
Q -35.7,-200.7,-32.4,-183.0
Q -30.7,-173.3,-27.7,-167.6
Q -27.2,-166.5,-26.7,-165.4
Q -34.6,-165.4,-37.2,-164.1
Q -45.6,-159.6,-48.2,-146.8
Q -48.7,-144.3,-51.9,-140.8
Q -51.3,-140.2,-50.7,-139.7
 " /> 
<path  
style="fill:rgb(7,193,201)" 
d="M -32.4 -163.2
Q -30.7,-163.2,-28.9,-163.2
Q -29.3,-163.3,-29.8,-163.5
Q -30.7,-163.7,-32.4,-163.2
 " /> 
<path  
style="fill:rgb(14,103,171)" 
d="M -4.9 -145.0
Q -3.1,-145.0,-1.3,-145.0
Q -3.1,-145.5,-4.0,-145.2
Q -4.4,-145.1,-4.9,-145.0
 " /> 
<path  
style="fill:rgb(4,4,4)" 
d="M 9.8 -150.8
Q 10.1,-151.1,10.3,-151.5
Q 10.9,-152.2,11.5,-152.6
Q 11.7,-152.8,12.0,-153.0
Q 11.4,-153.6,10.8,-154.1
Q 8.8,-152.1,7.5,-150.4
Q 9.2,-151.3,9.8,-150.8
 " /> 
<path  
style="fill:rgb(14,103,171)" 
d="M 9.8 -150.8
Q 10.2,-151.1,10.6,-151.4
Q 11.3,-152.0,12.0,-153.0
Q 11.7,-152.8,11.5,-152.6
Q 10.9,-152.2,10.3,-151.5
Q 10.1,-151.1,9.8,-150.8
 " /> 
<path  
style="fill:rgb(7,193,201)" 
d="M 76.4 -80.5
Q 76.4,-79.2,76.4,-77.8
Q 76.4,-75.1,76.9,-75.2
Q 76.9,-80.7,76.7,-80.6
Q 76.6,-80.6,76.4,-80.5
 " /> 
<path  
style="fill:rgb(7,193,201)" 
d="M 76.4 -65.9
Q 76.3,-65.9,76.2,-65.8
Q 76.0,-65.8,76.0,-63.7
Q 76.1,-63.7,76.2,-63.7
Q 76.4,-63.8,76.4,-64.8
Q 76.4,-65.4,76.4,-65.9
 " /> 
<path  
style="fill:rgb(7,193,201)" 
d="M 57.3 -23.2
Q 57.2,-23.0,57.1,-22.8
Q 56.8,-22.3,57.3,-21.0
Q 57.3,-22.1,57.3,-23.2
 " /> 
<path  
style="fill:rgb(14,103,171)" 
d="M 40.9 -9.9
Q 40.9,-8.5,40.9,-7.2
Q 41.0,-7.5,41.1,-7.9
Q 41.4,-8.5,40.9,-9.9
 " /> 
<path  
style="fill:rgb(14,103,171)" 
d="M 12.0 -8.1
Q 10.9,-8.1,9.8,-8.1
Q 10.1,-8.0,10.4,-7.8
Q 11.1,-7.6,12.0,-8.1
 " /> 
<path  
style="fill:rgb(14,103,171)" 
d="M 3.6 -7.7
Q 1.8,-7.7,0.0,-7.7
Q 1.8,-7.2,3.6,-7.7
 " /> 
<path  
style="fill:rgb(7,193,201)" 
d="M -14.7 -159.7
Q -14.0,-159.1,-13.3,-158.5
Q -12.0,-157.4,-11.1,-156.3
Q -10.7,-155.8,-10.2,-155.2
Q -9.4,-154.2,-8.7,-153.2
Q -7.1,-151.2,-5.7,-149.0
Q -4.4,-146.8,-2.1,-146.8
Q 0.2,-146.8,2.4,-146.5
Q 4.7,-146.3,6.6,-149.2
Q 7.4,-150.4,8.6,-151.8
Q 10.2,-153.6,12.4,-155.8
Q 13.4,-156.9,17.3,-160.3
Q 19.5,-162.2,23.3,-172.8
Q 26.1,-180.3,26.9,-186.3
Q 27.0,-187.6,27.2,-188.8
Q 26.5,-188.1,25.9,-187.4
Q 23.1,-184.6,18.6,-173.3
Q 16.2,-167.3,15.6,-168.3
Q 15.1,-169.2,17.3,-175.0
Q 19.5,-180.6,16.6,-183.2
Q 14.1,-185.4,12.7,-184.2
Q 12.1,-183.7,9.7,-175.5
Q 8.7,-172.1,8.0,-172.3
Q 7.0,-172.5,8.4,-177.4
Q 10.2,-183.7,9.5,-183.7
Q 8.9,-183.7,8.9,-184.3
Q 8.9,-184.9,9.8,-185.5
Q 12.0,-187.0,12.7,-198.1
Q 12.8,-199.9,12.9,-201.7
Q 10.6,-196.8,8.1,-185.5
Q 7.3,-181.7,6.5,-181.5
Q 5.7,-181.4,5.9,-183.4
Q 6.2,-185.5,7.1,-189.4
Q 7.1,-190.8,7.1,-192.1
Q 6.8,-193.4,6.4,-194.8
Q 5.5,-198.7,2.4,-201.6
Q 1.7,-202.2,1.7,-198.9
Q 1.8,-197.5,1.8,-196.1
Q 2.2,-196.2,2.2,-196.0
Q 2.3,-195.7,2.3,-194.0
Q 2.2,-192.8,2.2,-191.7
Q 2.2,-189.7,2.2,-187.7
Q 2.3,-187.3,2.5,-187.0
Q 2.7,-186.3,2.5,-185.9
Q 2.3,-185.7,2.2,-185.4
Q 2.2,-185.2,2.2,-185.0
Q 2.2,-184.3,2.2,-183.7
Q 2.7,-181.9,2.5,-181.2
Q 2.3,-180.9,2.2,-180.5
Q 1.8,-179.7,1.3,-179.9
Q 0.9,-180.1,0.9,-183.6
Q 0.9,-184.3,0.9,-185.0
Q 0.8,-185.0,0.6,-184.9
Q 0.4,-184.8,0.4,-190.3
Q -0.8,-205.7,-3.6,-217.9
Q -4.0,-218.3,-4.4,-218.8
Q -5.3,-219.6,-5.8,-219.2
Q -6.0,-219.0,-6.2,-218.8
Q -6.5,-217.8,-6.7,-216.8
Q -7.2,-214.8,-6.9,-205.2
Q -6.8,-200.4,-6.7,-195.7
Q -6.5,-195.7,-6.4,-195.7
Q -6.1,-195.8,-6.2,-193.0
Q -6.2,-192.1,-6.2,-191.2
Q -6.1,-191.3,-6.0,-191.3
Q -5.7,-191.4,-5.7,-190.0
Q -5.7,-190.0,-5.7,-190.0
Q -5.8,-189.3,-5.8,-188.5
Q -5.8,-187.7,-5.8,-186.8
Q -5.6,-186.8,-5.5,-186.9
Q -5.3,-186.9,-5.3,-185.1
Q -5.3,-184.1,-5.3,-183.2
Q -5.6,-182.9,-5.8,-182.5
Q -7.1,-180.6,-7.1,-183.7
Q -7.1,-184.3,-7.1,-185.0
Q -7.5,-184.9,-7.5,-185.1
Q -7.6,-185.4,-7.6,-187.7
Q -7.7,-188.7,-7.8,-189.7
Q -8.0,-191.7,-8.2,-194.8
Q -8.3,-195.2,-8.3,-195.6
Q -8.4,-196.7,-8.4,-197.9
Q -8.8,-197.8,-8.9,-198.0
Q -8.9,-198.3,-8.9,-201.4
Q -11.1,-199.2,-12.0,-196.1
Q -11.9,-196.1,-11.7,-196.2
Q -11.5,-196.3,-11.6,-193.9
Q -11.3,-192.8,-11.1,-191.7
Q -10.7,-189.4,-9.5,-185.6
Q -8.4,-181.8,-8.8,-181.3
Q -9.7,-180.4,-11.1,-184.8
Q -12.1,-187.9,-12.7,-189.4
Q -13.3,-191.1,-16.0,-198.8
Q -16.6,-200.3,-17.2,-201.1
Q -16.8,-196.8,-16.2,-193.9
Q -15.5,-191.0,-14.8,-187.7
Q -13.5,-181.1,-11.5,-174.5
Q -9.7,-168.6,-11.1,-169.1
Q -12.1,-169.5,-14.0,-176.3
Q -14.7,-179.0,-15.1,-180.3
Q -15.5,-181.7,-17.0,-188.5
Q -17.9,-188.1,-18.7,-187.6
Q -21.6,-186.2,-21.5,-184.4
Q -21.5,-183.0,-18.6,-178.3
Q -17.0,-175.8,-15.6,-173.4
Q -14.1,-171.0,-13.0,-169.3
Q -11.1,-166.5,-11.6,-165.6
Q -12.4,-164.3,-19.4,-175.9
Q -21.9,-179.9,-23.7,-182.7
Q -25.4,-185.6,-27.6,-189.7
Q -31.9,-197.9,-32.0,-194.8
Q -32.0,-194.3,-31.6,-191.4
Q -29.9,-177.1,-25.9,-168.6
Q -24.1,-164.7,-20.4,-163.3
Q -18.0,-162.5,-16.3,-161.1
Q -15.5,-160.4,-14.7,-159.7
 " /> 
<path  
style="fill:rgb(14,103,171)" 
d="M -14.7 -159.7
Q -14.1,-159.0,-13.5,-158.3
Q -12.4,-157.0,-10.2,-155.2
Q -10.7,-155.8,-11.1,-156.3
Q -12.0,-157.4,-13.3,-158.5
Q -14.0,-159.1,-14.7,-159.7
 " /> 
<path  
style="fill:rgb(14,103,171)" 
d="M -11.6 -193.9
Q -11.5,-196.3,-11.7,-196.2
Q -11.9,-196.1,-12.0,-196.1
Q -12.0,-194.2,-11.9,-194.0
Q -11.9,-193.7,-11.6,-193.9
 " /> 
<path  
style="fill:rgb(14,103,171)" 
d="M -8.9 -201.4
Q -8.9,-198.3,-8.9,-198.0
Q -8.8,-197.8,-8.4,-197.9
Q -8.4,-198.8,-8.4,-199.8
Q -8.4,-201.7,-8.9,-201.4
 " /> 
<path  
style="fill:rgb(14,103,171)" 
d="M -7.6 -187.7
Q -7.6,-185.4,-7.5,-185.1
Q -7.5,-184.9,-7.1,-185.0
Q -7.1,-186.1,-7.1,-186.7
Q -7.1,-187.5,-7.2,-187.6
Q -7.2,-187.8,-7.6,-187.7
 " /> 
<path  
style="fill:rgb(4,4,4)" 
d="M -7.6 -187.7
Q -7.2,-187.8,-7.2,-187.6
Q -7.1,-187.5,-7.1,-186.7
Q -6.4,-186.8,-5.8,-186.8
Q -5.8,-187.7,-5.8,-188.5
Q -6.2,-188.3,-6.2,-189.8
Q -6.2,-190.5,-6.2,-191.2
Q -6.2,-192.1,-6.2,-193.0
Q -6.7,-192.8,-6.7,-194.2
Q -6.7,-194.9,-6.7,-195.7
Q -7.5,-195.6,-8.3,-195.6
Q -8.3,-195.2,-8.2,-194.8
Q -8.0,-191.7,-7.8,-189.7
Q -7.7,-188.7,-7.6,-187.7
 " /> 
<path  
style="fill:rgb(4,4,4)" 
d="M -7.1 -185.0
Q -6.4,-185.0,-5.8,-185.0
Q -5.8,-185.9,-5.8,-186.8
Q -6.4,-186.8,-7.1,-186.7
Q -7.1,-186.1,-7.1,-185.0
 " /> 
<path  
style="fill:rgb(4,4,4)" 
d="M -7.1 -185.0
Q -7.1,-184.3,-7.1,-183.7
Q -7.1,-180.6,-5.8,-182.5
Q -5.6,-182.9,-5.3,-183.2
Q -5.7,-183.0,-5.7,-183.3
Q -5.8,-183.5,-5.8,-184.9
Q -5.8,-184.9,-5.8,-185.0
Q -6.4,-185.0,-7.1,-185.0
 " /> 
<path  
style="fill:rgb(14,103,171)" 
d="M -5.3 -183.2
Q -5.3,-184.1,-5.3,-185.1
Q -5.3,-186.9,-5.5,-186.9
Q -5.6,-186.8,-5.8,-186.8
Q -5.8,-185.9,-5.8,-185.0
Q -5.8,-184.9,-5.8,-184.9
Q -5.8,-183.5,-5.7,-183.3
Q -5.7,-183.0,-5.3,-183.2
 " /> 
<path  
style="fill:rgb(14,103,171)" 
d="M -5.8 -188.5
Q -5.8,-189.3,-5.7,-190.0
Q -6.0,-190.6,-6.2,-191.2
Q -6.2,-190.5,-6.2,-189.8
Q -6.2,-188.3,-5.8,-188.5
 " /> 
<path  
style="fill:rgb(14,103,171)" 
d="M -6.2 -191.2
Q -6.0,-190.6,-5.7,-190.0
Q -5.7,-190.0,-5.7,-190.0
Q -5.7,-191.4,-6.0,-191.3
Q -6.1,-191.3,-6.2,-191.2
 " /> 
<path  
style="fill:rgb(14,103,171)" 
d="M -6.2 -193.0
Q -6.1,-195.8,-6.4,-195.7
Q -6.5,-195.7,-6.7,-195.7
Q -6.7,-194.9,-6.7,-194.2
Q -6.7,-192.8,-6.2,-193.0
 " /> 
<path  
style="fill:rgb(14,103,171)" 
d="M -6.2 -218.8
Q -6.0,-219.0,-5.8,-219.2
Q -5.3,-219.6,-4.4,-218.8
Q -4.0,-218.3,-3.6,-217.9
Q -3.9,-218.5,-4.3,-219.2
Q -4.8,-220.0,-5.1,-220.0
Q -5.4,-220.0,-6.2,-218.8
 " /> 
<path  
style="fill:rgb(14,103,171)" 
d="M 0.4 -190.3
Q 0.4,-184.8,0.6,-184.9
Q 0.8,-185.0,0.9,-185.0
Q 0.9,-186.3,0.9,-187.7
Q 0.9,-187.7,0.9,-187.8
Q 0.9,-190.5,0.4,-190.3
 " /> 
<path  
style="fill:rgb(4,4,4)" 
d="M 0.9 -185.0
Q 1.6,-185.2,2.2,-185.4
Q 2.2,-186.5,2.2,-187.7
Q 1.6,-187.7,0.9,-187.7
Q 0.9,-186.3,0.9,-185.0
 " /> 
<path  
style="fill:rgb(4,4,4)" 
d="M 0.9 -185.0
Q 1.6,-185.0,2.2,-185.0
Q 2.2,-185.2,2.2,-185.4
Q 1.6,-185.2,0.9,-185.0
 " /> 
<path  
style="fill:rgb(4,4,4)" 
d="M 0.9 -185.0
Q 0.9,-184.3,0.9,-183.6
Q 1.6,-183.7,2.2,-183.7
Q 2.2,-184.3,2.2,-185.0
Q 1.6,-185.0,0.9,-185.0
 " /> 
<path  
style="fill:rgb(4,4,4)" 
d="M 2.2 -180.5
Q 2.2,-182.1,2.2,-183.7
Q 1.6,-183.7,0.9,-183.6
Q 0.9,-180.1,1.3,-179.9
Q 1.8,-179.7,2.2,-180.5
 " /> 
<path  
style="fill:rgb(14,103,171)" 
d="M 2.2 -180.5
Q 2.3,-180.9,2.5,-181.2
Q 2.7,-181.9,2.2,-183.7
Q 2.2,-182.1,2.2,-180.5
 " /> 
<path  
style="fill:rgb(14,103,171)" 
d="M 2.2 -185.4
Q 2.3,-185.7,2.5,-185.9
Q 2.7,-186.3,2.5,-187.0
Q 2.3,-187.3,2.2,-187.7
Q 2.2,-186.5,2.2,-185.4
 " /> 
<path  
style="fill:rgb(14,103,171)" 
d="M 2.2 -191.7
Q 2.2,-192.8,2.3,-194.0
Q 2.3,-195.7,2.2,-196.0
Q 2.2,-196.2,1.8,-196.1
Q 1.8,-194.9,1.8,-193.8
Q 1.8,-191.4,2.2,-191.7
 " /> 
<path  
style="fill:rgb(14,103,171)" 
d="M 7.1 -192.1
Q 7.1,-190.8,7.1,-189.4
Q 7.2,-189.8,7.4,-190.1
Q 7.6,-190.8,7.4,-191.4
Q 7.2,-191.8,7.1,-192.1
 " /> 
</g> 
</svg> 
