<?xml version="1.0" encoding="UTF-8" standalone="no"?>
<!-- Created with Inkscape (http://www.inkscape.org/) -->

<svg
   width="145mm"
   height="145mm"
   viewBox="0 0 145 145"
   version="1.1"
   id="svg1"
   inkscape:version="1.4 (e7c3feb1, 2024-10-09)"
   sodipodi:docname="snail-logo.svg"
   xmlns:inkscape="http://www.inkscape.org/namespaces/inkscape"
   xmlns:sodipodi="http://sodipodi.sourceforge.net/DTD/sodipodi-0.dtd"
   xmlns="http://www.w3.org/2000/svg"
   xmlns:svg="http://www.w3.org/2000/svg">
  <sodipodi:namedview
     id="namedview1"
     pagecolor="#ffffff"
     bordercolor="#666666"
     borderopacity="1.0"
     inkscape:showpageshadow="2"
     inkscape:pageopacity="0.0"
     inkscape:pagecheckerboard="0"
     inkscape:deskcolor="#d1d1d1"
     inkscape:document-units="mm"
     inkscape:zoom="0.26205012"
     inkscape:cx="417.85899"
     inkscape:cy="560.96139"
     inkscape:window-width="1176"
     inkscape:window-height="579"
     inkscape:window-x="0"
     inkscape:window-y="25"
     inkscape:window-maximized="0"
     inkscape:current-layer="layer1" />
  <defs
     id="defs1" />
  <g
     inkscape:label="Layer 1"
     inkscape:groupmode="layer"
     id="layer1">
    <path
       fill-rule="nonzero"
       fill="#393536"
       fill-opacity="1"
       d="m 17.797491,109.13548 c 1.18752,-0.7855 2.47737,-1.41285 3.82716,-1.89135 -6.95462,-4.97957 -12.3630699,-12.205997 -14.7608599,-20.431837 -4.64571,-15.93805 1.81177,-34.258382 14.8797099,-44.497546 13.06794,-10.236067 31.86059,-12.400279 47.14854,-5.929338 26.40356,11.178645 29.03596,32.271914 35.523419,39.690594 -3.52847,6.61149 -8.169019,10.37661 -8.169019,10.37661 10.440709,-2.07428 15.004769,-14.94586 25.024839,-20.57857 -2.79363,-9.72654 -1.06351,-20.521747 4.12997,-29.178596 -0.42581,-0.38653 -0.69453,-0.939482 -0.69453,-1.558554 0,-1.16168 0.94052,-2.101162 2.10117,-2.101162 1.16065,0 2.1022,0.939482 2.1022,2.101162 0,1.161679 -0.94155,2.101162 -2.1022,2.101162 -0.13746,0 -0.27182,-0.01349 -0.40204,-0.0403 -2.0991,4.516517 -5.7733,14.470432 -2.9404,24.159768 0.032,-5.96141 1.72497,-11.930039 4.79455,-17.050123 -0.37414,-0.339011 -0.60979,-0.825791 -0.60979,-1.368399 0,-1.021133 0.82683,-1.845892 1.84588,-1.845892 1.02113,0 1.84796,0.824759 1.84796,1.845892 0,1.019043 -0.82683,1.846924 -1.84796,1.846924 -0.11988,0 -0.23874,-0.01243 -0.35346,-0.03413 -1.69602,3.648366 -4.562,11.337818 -3.07682,19.171978 2.91559,-0.76999 6.25802,-0.94258 10.20093,-0.25114 2.48977,0.43923 3.83129,1.22988 4.41007,2.23758 -3.43958,-34.562236 -32.6037,-61.5548952 -68.072329,-61.5548952 -37.78271,0 -68.4123599,30.6306802 -68.4123599,68.4133952 0,14.17071 4.30878,27.336827 11.6892099,38.258107 0.31936,-0.63457 1.02319,-1.30119 1.91616,-1.89134"
       id="path700"
       style="stroke-width:0.264583" />
    <path
       fill-rule="nonzero"
       fill="#918f90"
       fill-opacity="1"
       d="m 135.74068,76.996863 c -4.78007,8.67854 -11.91659,24.153567 -19.09031,30.210037 -13.48652,11.38537 -36.366769,8.37367 -44.879949,7.1355 15.76235,-11.0753 19.49235,-45.005017 -3.44888,-62.163642 -10.2185,-7.643998 -24.44192,-10.011807 -36.23138,-5.130456 -11.78947,4.879287 -20.35638,17.235141 -19.83342,29.982661 0.524,12.75067 10.74353,24.706527 23.40219,26.312627 4.69636,0.59531 9.69037,-0.19844 13.58263,-2.89388 3.13263,-2.170427 5.41569,-5.676157 5.89318,-9.411307 0.83509,-5.56969 -2.92488,-10.81381 -8.50077,-11.77708 -5.42189,-0.93946 -10.5854,2.50529 -11.86491,7.77629 -2.13423,-7.7711 1.96164,-17.13177 9.40925,-20.68505 8.72711,-4.16512 20.13417,-0.39997 25.45788,7.67292 5.32473,8.07186 4.64571,19.35385 -0.81856,27.331667 -5.46427,7.97676 -15.11432,12.61732 -24.77782,12.96458 -0.5612,0.0206 -1.12241,0.0238 -1.68155,0.0153 -7.64501,0.0693 -15.71997,-0.10851 -23.26163,-0.82577 -0.65939,-0.061 -1.20922,-0.15814 -1.66088,-0.28321 12.45092,16.94987 32.52515,27.95387 55.16873,27.95387 37.783739,0 68.412359,-30.63068 68.412359,-68.413387 0,-1.46865 -0.0465,-2.92592 -0.13746,-4.37391 -0.7121,2.74092 -3.74447,6.06991 -5.1387,8.60205"
       id="path701"
       style="stroke-width:0.264583" />
  </g>
</svg>
