<svg xmlns="http://www.w3.org/2000/svg" viewBox="0 0 200 240" fill="none" aria-hidden="true" width="20" height="24"><circle cx="108" cy="115" r="70" fill="url(#neonGlow)" fill-opacity="0.25"></circle><path d="M100 20L175 90L115 210L35 105L100 20Z" fill="url(#kiteFill)" fill-opacity="0.15"></path><g stroke="url(#edgeGradient)" stroke-width="3" stroke-linecap="round" stroke-linejoin="round"><path d="M100 20L175 90"></path><path d="M175 90L115 210"></path><path d="M115 210L35 105"></path><path d="M35 105L100 20"></path><path d="M100 20L108 108"></path><path d="M175 90L108 108"></path><path d="M115 210L108 108"></path><path d="M35 105L108 108"></path></g><circle cx="100" cy="20" r="5" fill="#06B6D4" stroke="white" stroke-width="1.5"></circle><circle cx="175" cy="90" r="5" fill="#06B6D4" stroke="white" stroke-width="1.5"></circle><circle cx="115" cy="210" r="5" fill="#3B82F6" stroke="white" stroke-width="1.5"></circle><circle cx="35" cy="105" r="5" fill="#06B6D4" stroke="white" stroke-width="1.5"></circle><circle cx="108" cy="108" r="7" fill="white"></circle><circle cx="108" cy="108" r="14" stroke="#00F0FF" stroke-width="1.5" stroke-opacity="0.6" stroke-dasharray="4 2"></circle><defs><linearGradient id="edgeGradient" x1="100" y1="20" x2="115" y2="210" gradientUnits="userSpaceOnUse"><stop stop-color="#00F0FF"></stop><stop offset="1" stop-color="#2563EB"></stop></linearGradient><linearGradient id="kiteFill" x1="100" y1="20" x2="115" y2="210" gradientUnits="userSpaceOnUse"><stop stop-color="#22D3EE"></stop><stop offset="1" stop-color="#1E40AF"></stop></linearGradient></defs></svg>
