<?xml version="1.0" encoding="UTF-8" standalone="no"?>
<svg
   width="256"
   height="256"
   viewBox="0 0 256 256"
   version="1.1"
   id="svg3"
   xmlns="http://www.w3.org/2000/svg"
   xmlns:svg="http://www.w3.org/2000/svg">
  <!-- Modern Sv in Circle - Option 8 -->
  <defs
     id="defs2">
    <linearGradient
       id="circleGrad"
       x1="0%"
       y1="0%"
       x2="100%"
       y2="100%">
      <stop
         offset="0%"
         style="stop-color:#1976D2;stop-opacity:1"
         id="stop1" />
      <stop
         offset="100%"
         style="stop-color:#2196F3;stop-opacity:1"
         id="stop2" />
    </linearGradient>
  </defs>
  <!-- Transparent background -->
  <circle
     cx="128"
     cy="128"
     r="112"
     fill="url(#circleGrad)"
     id="circle2" />
  <!-- Sv text -->
  <g
     id="text3"
     style="font-weight:bold;font-family:Arial, sans-serif;text-anchor:middle;fill:#ffffff"
     aria-label="Sv">
    <path
       style="font-size:135px"
       d="m 56.711426,146.55713 18.984375,-1.8457 q 1.713867,9.5581 6.921386,14.04052 5.273438,4.48242 14.172364,4.48242 9.426269,0 14.172359,-3.95507 4.81202,-4.021 4.81202,-9.36035 0,-3.42774 -2.04346,-5.80079 -1.97754,-2.43896 -6.98731,-4.21875 -3.42773,-1.18652 -15.622555,-4.21875 -15.688476,-3.88916 -22.016601,-9.5581 -8.898926,-7.97608 -8.898926,-19.4458 0,-7.382815 4.152832,-13.776858 4.21875,-6.459961 12.062988,-9.821777 7.910157,-3.361816 19.050293,-3.361816 18.193359,0 27.355959,7.976074 9.22851,7.976074 9.68994,21.291507 l -19.51172,0.85693 q -1.25244,-7.44873 -5.40527,-10.678711 -4.08692,-3.295898 -12.326663,-3.295898 -8.503417,0 -13.315429,3.493652 -3.098145,2.241207 -3.098145,5.998537 0,3.42773 2.900391,5.8667 3.691406,3.09814 17.929687,6.45996 14.238279,3.36182 21.027829,6.9873 6.85547,3.55957 10.67871,9.82178 3.88916,6.19629 3.88916,15.35889 0,8.30566 -4.61425,15.55664 -4.61426,7.25097 -13.05176,10.81054 -8.4375,3.49366 -21.027833,3.49366 -18.325195,0 -28.146973,-8.4375 -9.821777,-8.50342 -11.733398,-24.71924 z"
       id="path3" />
    <path
       style="font-size:112px"
       d="M 165.88525,180 142.479,121.92188 h 16.13282 l 10.9375,29.64062 3.17187,9.89844 q 1.25781,-3.77344 1.58594,-4.97657 0.76562,-2.46093 1.64062,-4.92187 l 11.04688,-29.64062 h 15.80469 L 179.72119,180 Z"
       id="path4" />
  </g>
</svg>
