<svg xmlns:xlink="http://www.w3.org/1999/xlink" xmlns="http://www.w3.org/2000/svg" id="Flying_Bird_2a" image-rendering="optimizeSpeed" baseProfile="tiny" version="1.1" x="0px" y="0px" width="99" height="145" viewBox="-48.35 -51.55 98.20000000000002 144.8">
  <defs>
    <symbol id="BirdBody--0" viewBox="0 0 122.7 43.85">
      <g id="BirdBody--0_0">
        <g id="element21">
          <path id="path225" fill="#000" d="M122.7,36 Q122.5,33.8 121.9,31.75 121.6,30.7 121.6,29.65 121.55,27.45 120.1,25.7 118.75,24.05 116.8,23.55 116.3,22.6 115.65,21.9 114.6,20.75 113.35,19.8 113.15,19 112.35,18.6 111.6,18.15 110.9,17.75 109.35,16.65 107.65,16.2 102.9,15.15 97.95,15.5 93.25,16.25 88.45,15.5 84.05,15 79.9,14.05 77.85,13.55 75.8,13.3 74.15,12.9 72.75,12.1 69.05,10.1 65.55,8.3 61,6.1 56.5,4.35 52.3,2.7 48,1.8 44.5,1 40.95,0.55 36.15,-0.2 31.3,0.1 27.05,0.6 22.6,1.15 17.85,1.7 13.3,2.8 13.2,2.8 13.1,2.85 9.85,2.95 6.65,3.1 4.8,2.65 3,2.05 1.6,1.55 0.25,1 0.1,0.9 0,0.9 L0,2.1 Q0.1,2.15 0.25,2.25 0.45,2.35 0.7,2.45 3.55,3.7 6.6,4.2 10,4 13.45,3.95 14.1,3.7 14.8,3.45 19.95,2.45 25.2,1.8 28.15,1.45 31.15,1.05 35.95,0.85 40.95,1.55 44.35,2 47.8,2.8 60.55,5.85 71.6,12.9 72,12.95 72.45,13.05 72.65,13.15 72.85,13.25 76.15,14.25 79.7,15.05 83.95,15.95 88.45,16.55 90.55,16.9 92.75,16.9 95.3,16.75 97.95,16.5 101.7,16.35 105.45,16.8 106.75,17.1 108.05,17.55 110.1,18.25 111.85,19.5 110.7,19.5 109.55,19.55 107.25,19.2 105,18.9 106.9,19.4 109.45,20.2 110.9,20.5 112.4,20.45 114.5,21.35 115.65,23.35 114.95,23.3 114.3,23.25 107.25,22.5 100.25,21.3 100.1,21.35 100,21.4 100.2,21.4 100.45,21.45 102.85,21.65 108.15,22.9 113.45,24.15 114.85,24.3 115.95,24.5 117,24.85 118.4,25.3 119.15,26.3 120.5,27.95 120.35,30.2 L107.6,26.65 Q108.3,26.9 109.05,27.2 114.25,29.15 120.45,31.3 L121.7,35.6 Q120.7,36.1 119.7,36.6 119.45,36.45 119.25,36.35 117.7,35.5 116.1,34.85 113.5,33.75 110.9,32.65 106.5,30.95 102.1,29.9 103.8,30.35 108.05,32.2 113.75,34.7 119.6,37.6 L119.55,39.2 Q119.5,40.75 118.25,41.55 117.1,42.3 115.75,42.3 114.65,42.1 113.45,41.8 109.9,40.95 106.55,39.55 104.25,38.6 101.9,37.75 98.7,36.6 95.6,35.35 92.05,33.85 88.15,33.8 L72.4,34.45 Q72.45,34.6 72.55,34.8 79.25,34.8 85.95,34.8 L85.95,35.65 Q85.05,35.45 84.15,35.25 81.1,35.2 79.6,37.85 78.85,37.9 78.1,37.9 72.9,37.85 68.65,35.2 68.35,35.1 68.15,35.25 63.95,37.3 59.65,39.1 56.9,40.25 54.05,40.55 46.85,41.05 39.65,40.55 33.4,40.15 27.85,38.3 19.9,35.55 13.65,30.15 13.3,30.15 12.95,30.2 8.35,30.3 3.85,29.85 2.05,29.65 0.25,29.4 0.15,29.35 0,29.35 L0,30.3 Q0.15,30.3 0.25,30.35 3.65,30.9 7.2,31.15 10.35,31.2 13.35,31.15 16,33.1 18.75,34.9 22.8,37.55 27.3,39.15 31.85,40.7 36.65,41.2 39.7,41.45 42.8,41.7 50.1,42 57.35,41.1 58.7,40.8 60,40.3 62.4,39.35 64.75,38.15 67.35,39.95 70.4,41.25 71.45,41.7 72.55,42.1 77.65,44.05 83.1,43.8 85.85,43.6 88.15,41.9 89,41.2 89.3,40.05 89.4,39.55 89.25,39.1 88.7,37.25 86.95,36.15 L86.95,34.8 Q88.05,34.8 89.15,34.8 91.05,34.9 92.7,35.45 99.6,38.05 106.45,40.45 109.4,41.5 112.4,42.5 114.45,43.25 116.45,43.25 117.5,43.15 118.35,42.85 119.75,42.2 120.25,40.7 120.7,39.25 120.6,37.6 L122.7,36z M84.6,36.3 Q85.4,36.55 86.1,37 87,37.55 87.9,38.25 88.75,39 88.2,40.1 87.5,41.35 86.25,41.85 84.15,42.85 81.75,42.8 77.15,42.75 72.65,41.15 68.9,39.85 65.65,37.6 L68.15,36.1 Q72.15,38.55 76.75,38.85 78.65,39.1 80.2,38.7 80.65,37.75 81.8,36.9 83.1,36.05 84.6,36.3z"/>
          <path id="path226" fill="#FC0" d="M84.6,36.3 Q83.1,36.05 81.8,36.9 80.65,37.75 80.2,38.7 78.65,39.1 76.75,38.85 72.15,38.55 68.15,36.1 L65.65,37.6 Q68.9,39.85 72.65,41.15 77.15,42.75 81.75,42.8 84.15,42.85 86.25,41.85 87.5,41.35 88.2,40.1 88.75,39 87.9,38.25 87,37.55 86.1,37 85.4,36.55 84.6,36.3z M84.15,35.25 Q85.05,35.45 85.95,35.65 L85.95,34.8 Q79.25,34.8 72.55,34.8 72.45,34.6 72.4,34.45 L69.85,34.45 68.65,35.2 Q72.9,37.85 78.1,37.9 78.85,37.9 79.6,37.85 81.1,35.2 84.15,35.25z"/>
          <path id="path229" fill="#F9F8F4" d="M108.05,17.55 Q106.75,17.1 105.45,16.8 101.7,16.35 97.95,16.5 95.3,16.75 92.75,16.9 90.55,16.9 88.45,16.55 83.95,15.95 79.7,15.05 76.15,14.25 72.85,13.25 72.65,13.15 72.45,13.05 72,12.95 71.6,12.9 60.55,5.85 47.8,2.8 44.35,2 40.95,1.55 35.95,0.85 31.15,1.05 28.15,1.45 25.2,1.8 19.95,2.45 14.8,3.45 14.1,3.7 13.45,3.95 10,4 6.6,4.2 3.55,3.7 0.7,2.45 0.45,2.35 0.25,2.25 0.1,2.15 0,2.1 L0,23.45 Q0.1,23.45 0.25,23.45 0.75,23.5 1.25,23.55 5.35,23.95 7,23.45 8.65,22.95 9.5,18.9 10.75,21.6 12.95,23.4 21.35,30.1 31.35,34.05 34.3,35.15 37.15,35.8 45.1,37.4 53.05,35.7 58.35,34.5 63.35,32.3 65.75,31.2 68.55,30.1 69.15,29.9 69.75,29.55 70.7,29.85 71.6,29.85 76.2,30.6 80.7,30.95 85.55,30.9 90.3,30.75 91.85,30.6 93.25,31.05 97.55,32.25 101.9,34.05 106.35,35.95 110.85,37.4 115.05,38.8 119.55,39.2 L119.6,37.6 Q113.75,34.7 108.05,32.2 103.8,30.35 102.1,29.9 106.5,30.95 110.9,32.65 113.5,33.75 116.1,34.85 117.7,35.5 119.25,36.35 119.45,36.45 119.7,36.6 120.7,36.1 121.7,35.6 L120.45,31.3 Q114.25,29.15 109.05,27.2 108.3,26.9 107.6,26.65 L120.35,30.2 Q120.5,27.95 119.15,26.3 118.4,25.3 117,24.85 115.95,24.5 114.85,24.3 113.45,24.15 108.15,22.9 102.85,21.65 100.45,21.45 100.2,21.4 100,21.4 100.1,21.35 100.25,21.3 107.25,22.5 114.3,23.25 114.95,23.3 115.65,23.35 114.5,21.35 112.4,20.45 110.9,20.5 109.45,20.2 106.9,19.4 105,18.9 107.25,19.2 109.55,19.55 110.7,19.5 111.85,19.5 110.1,18.25 108.05,17.55z"/>
          <path id="path232" fill="#DDD8C1" d="M93.25,31.05 Q91.85,30.6 90.3,30.75 85.55,30.9 80.7,30.95 76.2,30.6 71.6,29.85 70.7,29.85 69.75,29.55 69.15,29.9 68.55,30.1 65.75,31.2 63.35,32.3 58.35,34.5 53.05,35.7 45.1,37.4 37.15,35.8 34.3,35.15 31.35,34.05 21.35,30.1 12.95,23.4 10.75,21.6 9.5,18.9 8.65,22.95 7,23.45 5.35,23.95 1.25,23.55 0.75,23.5 0.25,23.45 0.1,23.45 0,23.45 L0,29.35 Q0.15,29.35 0.25,29.4 2.05,29.65 3.85,29.85 8.35,30.3 12.95,30.2 13.3,30.15 13.65,30.15 19.9,35.55 27.85,38.3 33.4,40.15 39.65,40.55 46.85,41.05 54.05,40.55 56.9,40.25 59.65,39.1 63.95,37.3 68.15,35.25 68.35,35.1 68.65,35.2 L69.85,34.45 72.4,34.45 88.15,33.8 Q92.05,33.85 95.6,35.35 98.7,36.6 101.9,37.75 104.25,38.6 106.55,39.55 109.9,40.95 113.45,41.8 114.65,42.1 115.75,42.3 117.1,42.3 118.25,41.55 119.5,40.75 119.55,39.2 115.05,38.8 110.85,37.4 106.35,35.95 101.9,34.05 97.55,32.25 93.25,31.05z"/>
        </g>
      </g>
    </symbol>
  </defs>


       <g id="BirdFlapBack_0010">
      <g id="element24">
        <path id="path244" fill="#000" d="M-10.35,-28.65 Q-10.35,-28.7 -10.4,-28.7 -10.5,-28.8 -10.65,-28.9 -10.8,-28.95 -10.9,-29 -10.95,-29.05 -11.05,-29.05 -11.1,-29.05 -11.15,-29 -13.55,-27.3 -14.7,-24.35 -15.4,-22.65 -16.1,-20.9 -16.45,-20.1 -16.75,-19.3 -18.95,-14 -20.4,-8.5 -20.8,-7.05 -20.35,-5.65 -18,1.4 -14.8,8.15 -13.7,10.4 -12.85,12.9 -11.1,18.55 -11.05,24.4 -11.05,25.95 -11.3,27.5 -11.75,29.9 -12.15,32.25 -12.15,32.3 -12.1,32.4 -12.05,32.5 -11.95,32.5 -9.95,32.95 -7.95,33.25 1.25,34.75 10.65,34.2 10.75,34.2 10.8,34.15 10.85,34.1 10.9,34 L11.05,33.4 Q11.05,33.3 11.05,33.25 11,33.15 10.95,33.1 L6.2,29.3 Q6.95,28.5 6.75,27.55 6.65,27 6.25,26.65 L6.2,26.65 Q5.55,26.05 4.95,25.45 5.55,24.2 5.55,22.7 5.55,20.3 3.3,20 3.9,16.8 2.9,13.85 2.8,13.5 2.55,13.2 1.45,11.75 1.5,9.85 1.55,5.9 1.2,2 1.2,1.5 0.85,1.15 -0.75,-0.55 -2.35,-2.45 -2,-4.85 -2.5,-7.2 -2.65,-7.9 -2.85,-8.55 -3.1,-9.35 -3.65,-9.95 L-3.65,-10 Q-3.95,-10.3 -4.25,-10.55 -4.05,-13.75 -5.75,-16.45 -6.1,-17 -6.45,-17.5 -6.15,-19.65 -6.95,-21.55 -7,-21.65 -7,-21.75 -7.05,-21.8 -7.1,-21.85 L-7.2,-22 Q-7.25,-22.05 -7.3,-22.05 L-8.75,-22.65 Q-7.75,-26.05 -10.35,-28.65z"/>
        <path id="path245" fill="#DDD8C1" d="M-10.9,-28.45 Q-10.947,-28.45 -11,-28.5 L-10.9,-28.4 -10.9,-28.45"/>
        <path id="path246" fill="#F9F8F4" d="M-10.9,-28.45 L-10.9,-28.4 -10.7,-28.3 Q-10.806,-28.356 -10.9,-28.45"/>
        <path id="path247" fill="#1B1B1B" d="M-10.9,-28.4 L-11,-28.5 Q-13.15,-26.9 -14.2,-24.2 -14.9,-22.55 -15.55,-20.9 L-14.45,-20.9 -14.4,-20.95 -14.25,-20.9 Q-13.9,-20.15 -12.75,-18 -11.9,-16.1 -12.25,-15.05 L-12.15,-15 -9.3,-22.55 -9.25,-22.55 -9.25,-22.6 Q-8.25,-25.85 -10.7,-28.3 L-10.9,-28.4z M-7.4,-21.35 Q-7.45,-21.5 -7.5,-21.55 L-7.5,-21.6 -8.9,-22.15 -12,-15.05 Q-10.1,-15.25 -8.7,-13.45 -8.6,-13.3 -8.5,-13.15 -7.95,-14.85 -7,-17.45 L-7,-17.5 Q-6.65,-19.55 -7.4,-21.35z M-6.65,-16.9 L-8.2,-12.7 Q-7,-10.75 -6.7,-7.45 -5.9,-7.6 -5.1,-7.6 -5,-8.7 -4.8,-10.45 L-4.8,-10.5 Q-4.55,-13.55 -6.15,-16.15 -6.4,-16.55 -6.65,-16.9z M-4.05,-9.65 Q-4.2,-9.8 -4.3,-9.9 L-4.75,-7.6 Q-3.85,-7.6 -3.05,-7.35 -3.2,-7.9 -3.35,-8.4 -3.55,-9.1 -4.05,-9.65z"/>
        <path id="path248" fill="#F9F8F4" d="M-8.5,-13.15 Q-8.6,-13.3 -8.7,-13.45 -10.1,-15.25 -12,-15.05 L-12.75,-13.25 Q-12.8,-13.15 -12.9,-13.1 L-12.15,-15 -12.25,-15.05 Q-11.9,-16.1 -12.75,-18 -13.9,-20.15 -14.25,-20.9 L-14.4,-20.95 -14.45,-20.9 Q-14.85,-19.8 -15.25,-18.65 -17.55,-12.15 -18.3,-9.05 -19.05,-5.9 -13.3,6.85 -8,18.6 -8,28.2 -8,28.45 -7.95,30.45 -7.95,31.7 -7.95,32.75 1.15,34.25 10.45,33.7 L10.5,33.4 5.65,29.55 Q5.6,29.5 5.6,29.4 5.55,29.35 5.6,29.3 5.6,29.2 5.65,29.15 6.4,28.5 6.25,27.6 6.2,27.25 5.9,27.05 5.1,26.35 4.45,25.65 4.4,25.6 4.35,25.55 4.35,25.45 4.4,25.4 5.05,24.2 5.05,22.7 5.05,20.6 2.95,20.45 2.9,20.45 2.85,20.4 2.8,20.35 2.75,20.3 2.7,20.2 2.75,20.15 3.4,16.95 2.45,14 2.35,13.75 2.15,13.5 0.95,11.9 1,9.85 1.05,5.9 0.7,2 0.7,1.7 0.5,1.5 -1,-0.1 -2.45,-1.8 L-3.45,1.2 -2.85,-2.4 Q-2.5,-4.95 -3.05,-7.35 -3.85,-7.6 -4.75,-7.6 L-4.9,-6.65 Q-5.45,-4.35 -5.1,-7.6 -5.9,-7.6 -6.7,-7.45 -7,-10.75 -8.2,-12.7 L-9.1,-10.3 Q-9.65,-9.7 -8.5,-13.15z"/>
        <path id="path249" fill="#DDD8C1" d="M-15.55,-20.9 Q-15.95,-20 -16.3,-19.1 -18.5,-13.85 -19.95,-8.4 -20.3,-7.05 -19.85,-5.8 -17.55,1.2 -14.35,7.9 -13.25,10.2 -12.4,12.75 -10.6,18.45 -10.55,24.4 -10.55,26 -10.8,27.6 -11.2,29.85 -11.6,32.05 -9.8,32.45 -7.95,32.75 -7.95,31.7 -7.95,30.45 -8,28.45 -8,28.2 -8,18.6 -13.3,6.85 -19.05,-5.9 -18.3,-9.05 -17.55,-12.15 -15.25,-18.65 -14.85,-19.8 -14.45,-20.9 L-15.55,-20.9z"/>
      </g>
    </g>


      <g id="BirdBody_0010" overflow="visible" transform="translate(-0.199,35.55)">
        <g id="BirdBodyClosed--0_1_1">
          <use xlink:href="#BirdBody--0" id="element32" width="123" height="44" x="0" y="0" overflow="visible" transform="matrix(0.5 0 0 0.5 -13.449 -8.299)"/>
        </g>
        <g id="BirdBodyClosed--0_0_1">
          <g id="element33">
            <path id="path278" fill="#000" d="M-20.325,-12.675 Q-22.5,-13.8 -24.8,-13.275 -27.05,-12.775 -28.85,-11.475 -28.925,-11.375 -28.9,-11.175 -28.9,-11 -28.6,-11.025 -26.3,-12.65 -23.425,-12.975 -23.025,-12.975 -22.625,-12.825 -22.025,-12.75 -21.625,-12.625 -19.65,-12.25 -18.05,-10.8 -17.775,-10.575 -17.55,-10.325 -17.3,-10.025 -16.9,-9.575 -16.675,-9.325 -16.4,-9.1 -14.972,-7.953 -13.325,-7.163 L-13.325,-7.788 Q-13.691,-7.95 -14.05,-8.125 -15.875,-9.025 -17.1,-10.6 -17.2,-10.7 -17.275,-10.775 -17.75,-11.175 -18.25,-11.5 -19.25,-12.15 -20.325,-12.675z"/>
            <path id="path279" fill="#F9F8F4" d="M-21.625,-12.625 Q-22.025,-12.75 -22.625,-12.825 -23.025,-12.975 -23.425,-12.975 -26.3,-12.65 -28.6,-11.025 -28.15,-10.1 -28.2,-9.025 -28.2,-8.8 -28.225,-8.575 -28.25,-8.375 -28.425,-8.475 -28.525,-7.425 -28.575,-6.45 -28.625,-5.2 -27.925,-4.1 -27.625,-3.65 -27.225,-3.25 -26.375,-2.5 -25.275,-2.2 -25.159,-2.176 -25.05,-2.15 -22.738,-1.73 -20.5,-2.325 -18.897,-2.726 -17.45,-2.5 -17.363,-2.552 -17.275,-2.6 L-17.1,-2.225 Q-17.25,-1.925 -17.425,-1.625 -17.6,-1.35 -17.8,-1.1 -18.4,-0.35 -19.075,0.325 -19.326,0.567 -19.587,0.8 -20.062,1.215 -20.575,1.6 -20.828,1.799 -21.1,1.975 -20.592,2.329 -20.1,2.55 -19.331,2.862 -17.562,3.275 -17.189,3.293 -16.8,3.3 -16.75,3.3 -16.7,3.3 -16.563,3.3 -16.425,3.3 -15.047,3.3 -13.325,3.45 L-13.325,-7.163 Q-14.972,-7.953 -16.4,-9.1 -16.675,-9.325 -16.9,-9.575 -17.3,-10.025 -17.55,-10.325 -17.775,-10.575 -18.05,-10.8 -19.65,-12.25 -21.625,-12.625z M-20.4,-10.375 Q-19.3,-9 -19.3,-7.075 -19.3,-5.15 -20.4,-3.775 -21.525,-2.4 -23.1,-2.4 -23.775,-2.4 -24.362,-2.65 -25.146,-2.989 -25.775,-3.775 -26.9,-5.15 -26.9,-7.075 -26.9,-9 -25.775,-10.375 -24.675,-11.75 -23.1,-11.75 -21.525,-11.75 -20.4,-10.375z"/>
            <path id="path280" fill="#FC0" d="M-20.4,-10.375 Q-21.525,-11.75 -23.1,-11.75 -24.675,-11.75 -25.775,-10.375 -26.9,-9 -26.9,-7.075 -26.9,-5.15 -25.775,-3.775 -25.146,-2.989 -24.362,-2.65 -23.775,-2.4 -23.1,-2.4 -21.525,-2.4 -20.4,-3.775 -19.3,-5.15 -19.3,-7.075 -19.3,-9 -20.4,-10.375z M-20.75,-10.025 Q-19.8,-8.8 -19.8,-7.075 -19.8,-5.35 -20.75,-4.125 -21.725,-2.9 -23.1,-2.9 -24.475,-2.9 -25.425,-4.125 -26.4,-5.35 -26.4,-7.075 -26.4,-8.8 -25.425,-10.025 -24.475,-11.25 -23.1,-11.25 -21.725,-11.25 -20.75,-10.025z M-32.95,-11.625 Q-34.275,-9.7 -33.5,-7.4 -33.125,-6.275 -32.275,-5.7 -32.1,-5.7 -31.95,-5.625 -31.825,-5.55 -31.825,-5.425 L-31.375,-5.3 -30.825,-5.275 Q-32.7,-3.05 -35.375,-1.725 -36.775,-1.05 -38.3,-0.525 -38.932,-0.304 -39.588,-0.187 -39.343,0.246 -38.75,0.35 L-36.85,0.35 Q-31.675,0.35 -29.925,-0.075 -28.771,-0.348 -25.7,-1.825 -26.677,-2.2 -27.55,-2.925 -28.025,-3.35 -28.375,-3.85 -28.95,-4.65 -29,-5.675 -29.05,-6.525 -29.025,-7.425 L-30.65,-5.45 Q-30.75,-5.475 -30.825,-5.5 -30.875,-5.55 -30.9,-5.575 -30.925,-5.625 -30.925,-5.675 -30.925,-5.725 -30.9,-5.775 -31.75,-5.75 -32.25,-6.325 -33.1,-7.275 -33.2,-8.575 -33.25,-9.125 -33.2,-9.65 -33.075,-11.2 -31.8,-11.975 -30.925,-12.525 -30.125,-12 -29.525,-11.575 -29.175,-10.95 -28.55,-9.9 -28.65,-8.625 -28.55,-8.625 -28.475,-8.575 -28.425,-8.525 -28.425,-8.475 -28.25,-8.375 -28.225,-8.575 -28.2,-8.8 -28.2,-9.025 -28.15,-10.1 -28.6,-11.025 -28.9,-11 -28.9,-11.175 -28.925,-11.375 -28.85,-11.475 -29.125,-11.8 -29.425,-12.1 -30.05,-12.7 -30.975,-12.775 -32.275,-12.625 -32.95,-11.625z M-30.7,-2.775 Q-30.7,-3 -30.55,-3.15 -30.4,-3.3 -30.175,-3.3 -29.95,-3.3 -29.8,-3.15 -29.65,-3 -29.65,-2.775 -29.65,-2.55 -29.8,-2.4 -29.95,-2.25 -30.175,-2.25 -30.4,-2.25 -30.55,-2.4 -30.7,-2.55 -30.7,-2.775z"/>
            <path id="path281" fill="#F9F8F4" d="M-20.75,-10.025 Q-21.725,-11.25 -23.1,-11.25 -24.475,-11.25 -25.425,-10.025 -26.4,-8.8 -26.4,-7.075 -26.4,-5.35 -25.425,-4.125 -24.475,-2.9 -23.1,-2.9 -21.725,-2.9 -20.75,-4.125 -19.8,-5.35 -19.8,-7.075 -19.8,-8.8 -20.75,-10.025z M-23.725,-7.8 Q-23.1,-7.8 -22.65,-7.225 -22.2,-6.675 -22.2,-5.875 -22.2,-5.075 -22.65,-4.5 -23.1,-3.95 -23.725,-3.95 -24.35,-3.95 -24.8,-4.5 -25.25,-5.075 -25.25,-5.875 -25.25,-6.675 -24.8,-7.225 -24.35,-7.8 -23.725,-7.8z M-31.8,-11.975 Q-33.075,-11.2 -33.2,-9.65 -33.25,-9.125 -33.2,-8.575 -33.1,-7.275 -32.25,-6.325 -31.75,-5.75 -30.9,-5.775 L-28.65,-8.625 Q-28.55,-9.9 -29.175,-10.95 -29.525,-11.575 -30.125,-12 -30.925,-12.525 -31.8,-11.975z M-32.2,-8.825 Q-31.875,-9.25 -31.4,-9.25 -30.925,-9.25 -30.575,-8.825 -30.25,-8.425 -30.25,-7.825 -30.25,-7.225 -30.575,-6.8 -30.925,-6.4 -31.4,-6.4 -31.875,-6.4 -32.2,-6.8 -32.55,-7.225 -32.55,-7.825 -32.55,-8.425 -32.2,-8.825z"/>
            <path id="path282" fill="#000" d="M-23.725,-7.8 Q-24.35,-7.8 -24.8,-7.225 -25.25,-6.675 -25.25,-5.875 -25.25,-5.075 -24.8,-4.5 -24.35,-3.95 -23.725,-3.95 -23.1,-3.95 -22.65,-4.5 -22.2,-5.075 -22.2,-5.875 -22.2,-6.675 -22.65,-7.225 -23.1,-7.8 -23.725,-7.8z M-23,-6.875 Q-22.7,-6.475 -22.7,-5.875 -22.7,-5.275 -23,-4.85 -23.3,-4.45 -23.725,-4.45 -24.15,-4.45 -24.45,-4.85 -24.75,-5.275 -24.75,-5.875 -24.75,-6.475 -24.45,-6.875 -24.15,-7.3 -23.725,-7.3 -23.3,-7.3 -23,-6.875z"/>
            <path id="path283" fill="#441704" d="M-23,-6.875 Q-23.3,-7.3 -23.725,-7.3 -24.15,-7.3 -24.45,-6.875 -24.75,-6.475 -24.75,-5.875 -24.75,-5.275 -24.45,-4.85 -24.15,-4.45 -23.725,-4.45 -23.3,-4.45 -23,-4.85 -22.7,-5.275 -22.7,-5.875 -22.7,-6.475 -23,-6.875z"/>
            <path id="path284" fill="#441704" d="M-30.7,-2.775 Q-30.7,-2.55 -30.55,-2.4 -30.4,-2.25 -30.175,-2.25 -29.95,-2.25 -29.8,-2.4 -29.65,-2.55 -29.65,-2.775 -29.65,-3 -29.8,-3.15 -29.95,-3.3 -30.175,-3.3 -30.4,-3.3 -30.55,-3.15 -30.7,-3 -30.7,-2.775z"/>
            <path id="path285" fill="#000" d="M-32.2,-8.825 Q-32.55,-8.425 -32.55,-7.825 -32.55,-7.225 -32.2,-6.8 -31.875,-6.4 -31.4,-6.4 -30.925,-6.4 -30.575,-6.8 -30.25,-7.225 -30.25,-7.825 -30.25,-8.425 -30.575,-8.825 -30.925,-9.25 -31.4,-9.25 -31.875,-9.25 -32.2,-8.825z M-30.925,-8.475 Q-30.75,-8.2 -30.75,-7.825 -30.75,-7.45 -30.925,-7.175 -31.125,-6.9 -31.4,-6.9 -31.675,-6.9 -31.85,-7.175 -32.05,-7.45 -32.05,-7.825 -32.05,-8.2 -31.85,-8.475 -31.675,-8.75 -31.4,-8.75 -31.125,-8.75 -30.925,-8.475z M-39.738,-0.687 Q-40.078,-0.623 -40.425,-0.575 -42.1,-0.475 -43.75,-0.3 -44.875,-0.225 -45.875,0.425 -47.275,1.4 -47.775,3.05 L-47.7,3.35 Q-47.625,3.375 -47.575,3.35 -46.257,2.791 -44.9,2.463 -38.458,3.171 -31.975,3.675 -30.075,3.725 -28.15,3.7 -27.05,3.7 -25.925,3.625 -25.837,3.612 -25.75,3.6 -24.438,3.392 -23.212,2.95 -23.201,3.013 -23.15,3.063 -22.655,3.53 -21.587,4.1 -20.013,4.9 -19.162,5.35 -19.138,5.36 -19.112,5.363 -19.056,5.381 -19.012,5.413 -18.926,5.47 -18.825,5.45 -18.808,5.446 -18.787,5.438 -18.186,5.653 -17.575,5.85 -17.14,5.988 -16.7,6.113 -15.044,6.587 -13.325,6.887 L-13.325,6.413 Q-15.032,6.142 -16.7,5.663 -17.719,5.368 -18.725,5 L-18.737,4.988 Q-18.824,4.932 -18.937,4.9 -18.992,4.871 -19.05,4.837 -19.888,4.399 -21.362,3.65 -22.266,3.163 -22.725,2.763 -22.014,2.466 -21.325,2.1 -21.238,2.051 -21.15,2 -21.127,1.986 -21.1,1.975 -20.828,1.799 -20.575,1.6 -20.062,1.215 -19.587,0.8 -19.326,0.567 -19.075,0.325 -18.4,-0.35 -17.8,-1.1 -17.6,-1.35 -17.425,-1.625 -17.25,-1.925 -17.1,-2.225 L-17.275,-2.6 Q-17.363,-2.552 -17.45,-2.5 -18.897,-2.726 -20.5,-2.325 -22.738,-1.73 -25.05,-2.15 -25.159,-2.176 -25.275,-2.2 -26.375,-2.5 -27.225,-3.25 -27.625,-3.65 -27.925,-4.1 -28.625,-5.2 -28.575,-6.45 -28.525,-7.425 -28.425,-8.475 -28.425,-8.525 -28.475,-8.575 -28.55,-8.625 -28.65,-8.625 L-30.9,-5.775 Q-30.925,-5.725 -30.925,-5.675 -30.925,-5.625 -30.9,-5.575 -30.875,-5.55 -30.825,-5.5 -30.75,-5.475 -30.65,-5.45 L-29.025,-7.425 Q-29.05,-6.525 -29,-5.675 -28.95,-4.65 -28.375,-3.85 -28.025,-3.35 -27.55,-2.925 -26.677,-2.2 -25.7,-1.825 -24.228,-1.269 -22.525,-1.525 -22.475,-1.525 -22.4,-1.5 -21.45,-1.65 -20.5,-1.8 -19.6,-1.95 -18.7,-2.05 L-20.637,-0.812 Q-20.795,-0.729 -20.95,-0.65 -22.075,-0.1 -23.25,0.375 -24.95,1.05 -26.925,1.35 -27.415,1.396 -27.9,1.45 -28.552,1.475 -29.2,1.475 -29.7,1.475 -30.15,1.575 L-33.4,1.65 Q-35.75,1.575 -38.075,1.5 -40.3,1.375 -42.575,1.575 -44.975,1.7 -47.1,2.625 -46.3,0.825 -44.45,0.325 -43.3,0.1 -42.1,0.05 -41.25,-0.025 -40.35,-0.075 -39.964,-0.112 -39.588,-0.187 -38.932,-0.304 -38.3,-0.525 -36.775,-1.05 -35.375,-1.725 -32.7,-3.05 -30.825,-5.275 L-31.375,-5.3 -31.9,-4.775 -31.825,-5.425 Q-31.825,-5.55 -31.95,-5.625 -32.1,-5.7 -32.275,-5.7 L-32.45,-4.3 Q-33.625,-3.475 -34.8,-2.7 -37.062,-1.192 -39.738,-0.687z M-18.025,-1.7 Q-18.05,-1.661 -18.075,-1.625 -18.942,-0.318 -20.137,0.688 -20.206,0.744 -20.275,0.8 -20.485,0.967 -20.7,1.125 -21.11,1.411 -21.537,1.65 -21.871,1.84 -22.212,2 -22.856,2.307 -23.55,2.525 -23.858,2.621 -24.175,2.7 -24.304,2.723 -24.437,2.75 -24.576,2.775 -24.712,2.8 -25.231,2.893 -25.75,2.988 -26.337,3.093 -26.925,3.2 -28.775,3.4 -30.65,3.3 -31.3,3.225 -31.95,3.175 L-43.5,2.35 Q-38.704,1.754 -33.963,2.2 -33.929,2.197 -33.9,2.2 -33.596,2.208 -33.287,2.213 -32.29,2.222 -31.3,2.175 -30.873,2.157 -30.45,2.125 L-30.075,2.1 Q-28.371,1.958 -26.7,1.65 -25.125,1.45 -23.625,0.925 -23.587,0.914 -23.55,0.9 -23.382,0.852 -23.212,0.8 -21.933,0.404 -20.725,-0.2 -20.376,-0.378 -20.025,-0.562 -19.013,-1.103 -18.025,-1.7z"/>
            <path id="path286" fill="#441704" d="M-30.925,-8.475 Q-31.125,-8.75 -31.4,-8.75 -31.675,-8.75 -31.85,-8.475 -32.05,-8.2 -32.05,-7.825 -32.05,-7.45 -31.85,-7.175 -31.675,-6.9 -31.4,-6.9 -31.125,-6.9 -30.925,-7.175 -30.75,-7.45 -30.75,-7.825 -30.75,-8.2 -30.925,-8.475z M-47.1,2.625 Q-44.975,1.7 -42.575,1.575 L-42.1,0.05 Q-43.3,0.1 -44.45,0.325 -46.3,0.825 -47.1,2.625z"/>
            <path id="path287" fill="#D5AA00" d="M-18.025,-1.7 Q-19.013,-1.103 -20.025,-0.562 -20.376,-0.378 -20.725,-0.2 -21.933,0.404 -23.212,0.8 -23.382,0.852 -23.55,0.9 -23.587,0.914 -23.625,0.925 -25.125,1.45 -26.7,1.65 -28.371,1.958 -30.075,2.1 L-30.45,2.125 Q-30.873,2.157 -31.3,2.175 -32.29,2.222 -33.287,2.213 -33.596,2.208 -33.9,2.2 -33.929,2.197 -33.963,2.2 -38.704,1.754 -43.5,2.35 L-31.95,3.175 Q-31.3,3.225 -30.65,3.3 -28.775,3.4 -26.925,3.2 -26.337,3.093 -25.75,2.988 -25.231,2.893 -24.712,2.8 -24.576,2.775 -24.437,2.75 -24.304,2.723 -24.175,2.7 -23.858,2.621 -23.55,2.525 -22.856,2.307 -22.212,2 -21.871,1.84 -21.537,1.65 -21.11,1.411 -20.7,1.125 -20.485,0.967 -20.275,0.8 -20.206,0.744 -20.137,0.688 -18.942,-0.318 -18.075,-1.625 -18.05,-1.661 -18.025,-1.7z M-39.588,-0.187 Q-39.964,-0.112 -40.35,-0.075 -41.25,-0.025 -42.1,0.05 L-42.575,1.575 Q-40.3,1.375 -38.075,1.5 -35.75,1.575 -33.4,1.65 L-30.15,1.575 Q-29.7,1.475 -29.2,1.475 -28.552,1.475 -27.9,1.45 -27.415,1.396 -26.925,1.35 -24.95,1.05 -23.25,0.375 -22.075,-0.1 -20.95,-0.65 -20.795,-0.729 -20.637,-0.812 L-18.7,-2.05 Q-19.6,-1.95 -20.5,-1.8 -21.45,-1.65 -22.4,-1.5 -22.475,-1.525 -22.525,-1.525 -24.228,-1.269 -25.7,-1.825 -28.771,-0.348 -29.925,-0.075 -31.675,0.35 -36.85,0.35 L-38.75,0.35 Q-39.343,0.246 -39.588,-0.187z M-31.825,-5.425 L-31.375,-5.3 -31.9,-4.775 -31.825,-5.425z"/>
            <path id="path288" fill="#DDD8C1" d="M-18.737,4.988 L-18.725,5 Q-17.719,5.368 -16.7,5.663 -15.032,6.142 -13.325,6.413 L-13.325,3.45 Q-15.047,3.3 -16.425,3.3 -16.563,3.3 -16.7,3.3 -16.75,3.3 -16.8,3.3 -17.189,3.293 -17.562,3.275 -19.331,2.862 -20.1,2.55 -20.592,2.329 -21.1,1.975 -21.127,1.986 -21.15,2 -21.238,2.051 -21.325,2.1 -22.014,2.466 -22.725,2.763 -22.266,3.163 -21.362,3.65 -19.888,4.399 -19.05,4.837 -18.992,4.871 -18.937,4.9 -18.824,4.932 -18.737,4.988z"/>
          </g>
        </g>
      </g>




    <g id="BirdFlapFront_0010">
      <g id="element34">
        <path id="path289" fill="#333" d="M7,-39.5 Q6.45,-39.65 5.9,-39.6 4.05,-39.25 2.7,-37.7 1.75,-36.55 0.85,-35.35 2.4,-34.7 2.95,-33.9 3.45,-33.2 3.6,-31.7 5.05,-33.6 6.2,-33.6 6.7,-33.6 6.8,-33.55 6.9,-33.5 7.05,-33.3 8.3,-34.7 8.75,-36.35 9.45,-38.95 7,-39.5z"/>
        <path id="path290" fill="#000" d="M5.9,-39.6 Q6.45,-39.65 7,-39.5 9.45,-38.95 8.75,-36.35 8.3,-34.7 7.05,-33.3 L3.55,-28.3 2.35,-26.6 Q2.9,-27.2 3.4,-27.7 4,-28.35 4.45,-28.9 7.2,-32.15 9.1,-35.85 9.4,-35.6 9.65,-35.3 9.8,-35.15 9.95,-34.9 10.65,-33.55 10.25,-32.05 9.65,-29.65 7.15,-25.15 L7.15,-25.1 Q6.5,-24 5.95,-23.1 6.2,-23.4 6.45,-23.7 6.9,-24.25 7.35,-24.85 9.2,-27.45 10.25,-30.45 10.9,-30 11.4,-29.4 11.85,-28.85 11.8,-28.1 11.6,-25.3 9.4,-21.5 8.05,-19.2 6.6,-17.05 6.25,-16.55 5.9,-16.05 6.3,-16.5 6.65,-16.95 9.4,-20.3 11.35,-24.15 L12.1,-23.7 Q12.35,-21.8 12.05,-19.9 11.5,-16.55 9.85,-13.2 9.7,-12.85 9.5,-12.5 8.8,-11.1 8.15,-9.85 8.9,-10.95 9.55,-12.05 10.45,-13.7 11.25,-15.4 12.45,-12.75 10.3,-6.8 10.05,-6.1 9.8,-5.5 9.05,-3.55 8.45,-2.45 L8.45,-2.4 10.5,-6 Q10.6,-5.15 10.6,-4.25 10.7,-0.75 9.75,2.7 9.15,5 9.75,7.25 10,8.25 10.1,9.3 10.15,10.2 10.55,11 10.8,11.5 11.35,11.7 13.05,12.45 14.3,13.85 14.85,14.45 14.95,15.25 15.1,17.25 16.25,18.85 17.05,19.9 17.05,21.25 17.1,23.1 16.75,24.65 18.3,25.05 18.95,26.45 19.35,27.3 19.35,28.25 19.35,29.55 19.15,30.85 L21.05,31.8 Q21.05,31.9 21,31.95 20.4,33.05 19.5,33.9 21.6,32.75 21.5,31.55 L19.6,30.45 Q20.2,29.05 19.9,27.55 19.4,25.15 17.3,24.3 17.35,24.15 17.4,24 17.55,23.3 17.6,22.65 17.75,21.5 17.5,20.45 17.3,19.6 16.9,19 16.4,18.15 16.05,17.25 15.65,16.3 15.35,15.15 14.75,12.5 12.1,11.6 11.1,11.25 10.85,10.4 10.75,10.05 10.65,9.7 9.45,5 10.7,0.25 10.85,-0.35 10.85,-0.9 10.95,-2.25 11.05,-3.55 11.15,-5.1 11.25,-6.7 11.4,-8.2 12,-9.9 13.05,-13.1 11.5,-15.9 12.5,-18.1 12.65,-20.45 12.7,-21.3 12.8,-22.2 13.05,-24 11.55,-24.6 12.1,-25.95 12.3,-27.3 12.6,-29.7 10.4,-30.9 10.7,-32.15 10.75,-33.45 10.85,-35.4 9.2,-36.35 9.4,-37.1 9.4,-37.7 9.35,-38.9 8.45,-39.5 6.3,-40.95 4,-39.4 2.1,-38.1 0.7,-36.1 0.55,-35.8 0.35,-35.55 0,-35.05 -0.3,-34.55 -2,-31.9 -3.45,-29.1 -6.2,-23.95 -8.8,-18.6 -11.05,-14 -12.95,-9.25 -15.8,-2.15 -13.55,5.1 -13.25,6.2 -12.7,7.2 -12.05,8.4 -11.2,9.6 -8.8,12.85 -7.65,16.75 -5.65,23.25 -7.45,29.45 -8.35,32.5 -7,35.2 -6.95,35.15 -6.85,35.05 L-7.05,34.55 Q-7.4,33.4 -7.3,32.2 -7,29.75 -6.5,27.3 -5.55,22.7 -6.7,18 -7.9,13.2 -10.75,9.25 -11.3,8.5 -11.8,7.75 -13.75,4.65 -14.05,0.75 -14.35,-3.65 -12.9,-7.95 -11.5,-11.9 -9.75,-15.6 -7.75,-19.7 -5.7,-23.8 -3.7,-27.75 -1.6,-31.5 -0.5,-33.5 0.85,-35.35 1.75,-36.55 2.7,-37.7 4.05,-39.25 5.9,-39.6z"/>
        <path id="path291" fill="#1B1B1B" d="M6.8,-33.55 Q6.7,-33.6 6.2,-33.6 5.05,-33.6 3.6,-31.7 3.7,-31 3.7,-30.15 3.7,-29.15 3.55,-28.3 L7.05,-33.3 Q6.9,-33.5 6.8,-33.55z M9.95,-34.9 Q9.8,-35.15 9.65,-35.3 9.4,-35.6 9.1,-35.85 7.2,-32.15 4.45,-28.9 4,-28.35 3.4,-27.7 3.3,-27.35 3.15,-27.05 L6.45,-27.05 Q6.45,-26.25 7.15,-25.15 9.65,-29.65 10.25,-32.05 10.65,-33.55 9.95,-34.9z M11.8,-28.1 Q11.85,-28.85 11.4,-29.4 10.9,-30 10.25,-30.45 9.2,-27.45 7.35,-24.85 7.85,-23.85 7.85,-22.7 7.85,-20.3 7.75,-20 7.6,-19.6 5.9,-17.85 6.2,-17.45 6.6,-17.05 8.05,-19.2 9.4,-21.5 11.6,-25.3 11.8,-28.1z M12.1,-23.7 L11.35,-24.15 Q9.4,-20.3 6.65,-16.95 7.35,-16.25 8.35,-15.35 9.3,-14.3 9.5,-12.5 9.7,-12.85 9.85,-13.2 11.5,-16.55 12.05,-19.9 12.35,-21.8 12.1,-23.7z M9.55,-12.05 Q9.55,-11.8 9.55,-11.5 9.55,-10.95 8.85,-9.6 8.5,-8.95 8.15,-8.3 8.15,-8 9.8,-5.5 10.05,-6.1 10.3,-6.8 12.45,-12.75 11.25,-15.4 10.45,-13.7 9.55,-12.05z"/>
        <path id="path292" fill="#F9F8F4" d="M2.95,-33.9 Q2.4,-34.7 0.85,-35.35 -0.5,-33.5 -1.6,-31.5 -3.7,-27.75 -5.7,-23.8 -7.75,-19.7 -9.75,-15.6 -11.5,-11.9 -12.9,-7.95 -14.35,-3.65 -14.05,0.75 -13.75,4.65 -11.8,7.75 -11.3,8.5 -10.75,9.25 -7.9,13.2 -6.7,18 -5.55,22.7 -6.5,27.3 -7,29.75 -7.3,32.2 -7.4,33.4 -7.05,34.55 -4,34.6 -0.55,34.6 -0.5,34.65 -0.4,34.75 -0.55,32.25 -1.5,31.4 L-1.5,30.05 -1.2,30.05 Q-0.95,30.05 -0.95,30.6 L0.85,30.6 Q0.55,28.45 -0.3,25.05 -1,22.2 -1.2,20.15 -1.2,15.55 -1.35,13.55 -1.6,10.05 -3.55,10.2 L-3.55,9.45 Q-2.45,8.65 -1.5,8.65 -1.8,6.5 -3.85,5.75 -5.3,5.2 -6.4,5.5 -6.25,3.9 -5,3.3 -3.85,2.65 -3.85,2.5 -3.85,2.1 -3.95,1.85 L-4.1,1.65 Q-6.8,0.05 -8.25,0.05 -6,-8.9 -2.4,-18.85 1.05,-28.3 3.6,-31.7 3.45,-33.2 2.95,-33.9z"/>
        <path id="path293" fill="#DDD8C1" d="M3.15,-27.05 Q3.3,-27.35 3.4,-27.7 2.9,-27.2 2.35,-26.6 L3.55,-28.3 Q3.7,-29.15 3.7,-30.15 3.7,-31 3.6,-31.7 1.05,-28.3 -2.4,-18.85 -6,-8.9 -8.25,0.05 -6.8,0.05 -4.1,1.65 L-3.95,1.85 Q-3.85,2.1 -3.85,2.5 -3.85,2.65 -5,3.3 -6.25,3.9 -6.4,5.5 -5.3,5.2 -3.85,5.75 -1.8,6.5 -1.5,8.65 -2.45,8.65 -3.55,9.45 L-3.55,10.2 Q-1.6,10.05 -1.35,13.55 -1.2,15.55 -1.2,20.15 -1,22.2 -0.3,25.05 0.55,28.45 0.85,30.6 L-0.95,30.6 Q-0.95,30.05 -1.2,30.05 L-1.5,30.05 -1.5,31.4 Q-0.55,32.25 -0.4,34.75 1.45,36.1 5.25,37 9,37.85 17.85,34.95 18.15,34.6 19.3,34 19.4,33.95 19.5,33.9 20.4,33.05 21,31.95 21.05,31.9 21.05,31.8 L19.15,30.85 Q19.35,29.55 19.35,28.25 19.35,27.3 18.95,26.45 18.3,25.05 16.75,24.65 17.1,23.1 17.05,21.25 17.05,19.9 16.25,18.85 15.1,17.25 14.95,15.25 14.85,14.45 14.3,13.85 13.05,12.45 11.35,11.7 10.8,11.5 10.55,11 10.15,10.2 10.1,9.3 10,8.25 9.75,7.25 9.15,5 9.75,2.7 10.7,-0.75 10.6,-4.25 10.6,-5.15 10.5,-6 L8.45,-2.4 8.45,-2.45 Q9.05,-3.55 9.8,-5.5 8.15,-8 8.15,-8.3 8.5,-8.95 8.85,-9.6 9.55,-10.95 9.55,-11.5 9.55,-11.8 9.55,-12.05 8.9,-10.95 8.15,-9.85 8.8,-11.1 9.5,-12.5 9.3,-14.3 8.35,-15.35 7.35,-16.25 6.65,-16.95 6.3,-16.5 5.9,-16.05 6.25,-16.55 6.6,-17.05 6.2,-17.45 5.9,-17.85 7.6,-19.6 7.75,-20 7.85,-20.3 7.85,-22.7 7.85,-23.85 7.35,-24.85 6.9,-24.25 6.45,-23.7 6.2,-23.4 5.95,-23.1 6.5,-24 7.15,-25.1 L7.15,-25.15 Q6.45,-26.25 6.45,-27.05 L3.15,-27.05z"/>
      </g>
    </g>

</svg>
