<?xml version="1.0" encoding="UTF-8"?>
<svg id="Layer_2" data-name="Layer 2" xmlns="http://www.w3.org/2000/svg" viewBox="0 0 257.68 100.13">
  <defs>
    <style>
      .cls-1 {
        fill: #fff;
      }
    </style>
  </defs>
  <g id="Layer_2-2" data-name="Layer 2">
    <g id="xm3ggt">
      <g>
        <path class="cls-1" d="M127.69,30.25l8.8.31,8.16,24.01.65-.79,8.61-23.37c.53.24,1.2-.16,1.46-.16h6.4l.48.48v39.84c-2.26-.47-4.97-.54-7.21-.04l-.32-.28.17-23.68c-.93-.16-.52.22-.68.74-1.34,4.42-4.33,15.61-6.62,19-.94,1.39-2.11,1.25-3.76,1.08-1.07-.11-1.26-.06-1.81-1.07-2.79-5.19-4.28-13.34-6.57-19.04-.2-.49.19-.86-.72-.7v24h-6.88l-.41-.48c0-.13.25-.24.25-.32V30.25Z"/>
        <g>
          <path class="cls-1" d="M204.49,2.09l-.34,9.58c-1.86.21-3.69.57-5.49,1.07-1.41.39-6.64,2.54-7.44,2.47-1.95-.19-5.1-5.54-6.04-5.39l-8.08,5.71c-.33.34,0,.55.15.82.92,1.7,4.67,4.88,4.51,6.67-.22,2.38-3.4,4.51-5.76,3.71.63-1.14,3.02-3.01,2.89-4.31-.06-.58-3.32-3.69-3.98-4.68-.96-1.44-1.76-2-.26-3.49,1.86-1.85,6.39-5.23,8.67-6.6,2.58-1.56,2.61-.93,4.85,1,1.35,1.16,2.72,3.61,4.61,3.36,1.5-1.14,7.08-1.59,8.03-2.56s.28-7.8,2.08-9.44l12.91.23c1.74.51,1.58,7.5,1.85,9.19,2.13-.27,7.6,2.98,9.05,2.83,1.91-.2,4.52-6.23,7.33-5.63,2.19.47,7.6,6.98,9.97,8.28,2.09,2.57-3.83,5.99-4.27,8.4,1.18,1.37,2.57,2.61,3.62,4.09.47.67,1.89,3.53,2.1,3.65,1.46.89,7.98-1.64,9.31-.03.35.43,2.62,9.56,2.77,10.67.13.93.41,2.65-.42,3.25-1.23.89-7.45,1.83-7.77,2.79l-.31,10.31c1.44.8,7.54,3.42,7.61,5l-4.82,12.14c-1.52,1.95-6.69-1.42-8.7-1.36-2.19,2.73-3.88,5.77-6.55,8.11l12.08,13.6c-3.23,1.38-6.51,3.82-10.12,4.13-3.14.28-7.63-1.66-10.05-3.65-1.48-1.21-3.95-4.55-5.26-5.3-1.52-.88-6.6.59-8.42,1.05-.71,1.35-.6,6.96-1.57,7.63-1.26.86-8.96.8-10.84.63-4.04-.36-2.61-6.05-3.42-9.06-.43-1.62-2.91-1.41-4.47-1.93-1.34-.44-2.54-1.23-3.92-1.52-1.08.11-3.82,5.16-6.04,5.04-2.5-.14-7.63-5.57-10.13-6.78-.24-.27-.52-.65-.56-1.01-.06-.6,4.84-10.53,5.35-10.86s1.32.3,1.57.7c1.2,1.9-.51,3.95-1.43,5.54-.51.87-2.73,3.41-2.23,4.19l7.7,5.12c1.15,0,3.53-4.51,5.13-4.8,2.65-.49,8.03,3.83,11.35,2.88.42,2.94.11,6.25.64,9.12.07.37.1.65.52.76l8.75.04c.28-1.55.63-6.9,1.6-7.84.45-.43,8.92-2.45,9.75-2.39,1.75.13,5.11,4.33,6.57,5.59,3.13,2.73,5.95,4.59,10.38,3.97.74-.1,4.84-1.55,4.66-2.35l-11.8-12.46c1.53-1.69,3.42-2.97,4.94-4.68.96-1.08,4.36-6.3,4.96-6.57,1.56-.71,7.47,2.51,8,2.27.38-.3.58-.71.79-1.14.33-.68,2.73-7.14,2.72-7.54,0-.34-.12-.41-.32-.63-.92-.98-5.31-2.43-6.58-3.66-.35-.34-.5-.63-.48-1.12l.81-12.98c.4-.81,6.55-2.51,7.85-2.56l-2.24-10.56-9.29,1.15c-.55-1.43-1.18-2.82-1.97-4.13-.96-1.59-4.21-4.84-4.41-6.17-.48-3.17,4.47-5.82,4.48-7.02l-7.89-7.5-6.67,6.37c-1.97-1.65-10.94-3.48-11.77-5.19-1.07-2.2-.18-5.81-.88-8.24h-9.92Z"/>
          <path class="cls-1" d="M222.41,75.05c-1.68.28-4.16,1.94-5.83,1.54-1.5-.36-5.65-5.13-7.27-6.16-15.95,1.5-16.45-16.74-14.7-28.14,2.39-15.59,23.78-16.49,27.39-2.18,1.14,4.5,1.19,15.08.33,19.66-.77,4.08-2.98,7.3-6.31,9.69l6.39,5.6ZM207.62,36.73c-2.77.33-4.43,1.74-5.21,4.4-.87,2.99-.78,12.77-.47,16.16.27,2.98,1.71,6.09,4.98,6.54,3.56.49,6.72-.34,7.72-4.07,1.11-4.15.84-12.47.41-16.86-.4-4.04-3.33-6.65-7.43-6.16Z"/>
          <path class="cls-1" d="M176.65,37.61v9.6h10.88v6.4h-10.88v9.44c0,.1-.41.25-.32.48h14.72v6.72h-21.76V30.25l20.59.03.54.77c-.83,2.16.57,4.62-.81,6.56h-12.96Z"/>
          <path class="cls-1" d="M224.02,71.85c-.12-.53.17-.65.48-.95,2.29-2.23,4.12-3.76,5.85-6.63,12.03-19.85-6.2-45.9-28.91-38.51-1.2.39-5.75,2.9-6.08,2.9-.77-.02-1.04-1.2-1.35-1.77,12.51-9.18,29.91-4.84,38.14,7.87,6.76,10.45,5.91,24.82-2.06,34.37-1.57,1.88-3.55,4.38-6.07,2.73Z"/>
          <path class="cls-1" d="M212.49,77.93c-3.59.62-7.67.69-11.26-.09-1.32-.29-7.63-2.47-8.11-3.43-.2-.4-.16-.62-.09-1.04.03-.2.56-1.99,1.07-1.85,3.18,2.11,6.8,3.59,10.6,4.13,2.62.37,6.13-.46,7.8,2.28Z"/>
        </g>
        <path class="cls-1" d="M92.33,70.57l10.44-39.82.43-.39,8.61-.07,11.41,40.29-7.7-.15-2.42-7.81-11.12-.06-2.12,8.02h-7.52ZM111.69,55.53l-4-15.36-4.32,15.36h8.32Z"/>
        <g>
          <path class="cls-1" d="M0,30.25l8.48.31,8.65,24.34,8.81-24.65c2.8.62,5.81.36,8.63,0v40.32c-1.2-.17-2.81-.36-4-.35s-2.7.96-3.68-.13v-22.4c0-.32.83-.67-.32-.48-1.71,5.14-3.16,10.48-5.12,15.53-1.32,3.4-1.32,5.23-5.62,4.65-1.38-.19-1.71-1.42-2.22-2.58-2.25-5.18-3.74-11.69-5.6-17.12-.12-.36-.18-1.16-.64-1.11v23.52c-2.13,1.46-5.06-.6-7.36.48V30.25Z"/>
          <path class="cls-1" d="M62.4,37.61h-12.32c-.11,0-.35-.57-.8.16v9.44h10.88v6.4h-10.88v9.92h14.08v6.72h-21.76V30.73c0-.95,2.77-.17,3.35-.15,5.07.16,10.07-.34,15.07-.34.65,0,1.96.07,2.39.49v6.88Z"/>
          <path class="cls-1" d="M92.49,30.25v7.04h-8.96v32.8l-.48.48h-6.88v-33.28h-9.28v-6.56c.28-.46.64-.44,1.1-.5,1.62-.19,4.06-.01,5.79,0,5.61.06,11.32.43,16.94.35.6,0,1.16-.41,1.77-.34Z"/>
        </g>
      </g>
    </g>
  </g>
</svg>