<?xml version="1.0" encoding="UTF-8" standalone="no"?>
<svg
   height="24px"
   viewBox="0 -960 960 960"
   width="24px"
   fill="#000000"
   version="1.1"
   id="svg1"
   sodipodi:docname="gcode-symbolic.svg"
   inkscape:version="1.4.2 (ebf0e940d0, 2025-05-08)"
   xmlns:inkscape="http://www.inkscape.org/namespaces/inkscape"
   xmlns:sodipodi="http://sodipodi.sourceforge.net/DTD/sodipodi-0.dtd"
   xmlns="http://www.w3.org/2000/svg"
   xmlns:svg="http://www.w3.org/2000/svg">
  <defs
     id="defs1" />
  <sodipodi:namedview
     id="namedview1"
     pagecolor="#ffffff"
     bordercolor="#000000"
     borderopacity="0.25"
     inkscape:showpageshadow="2"
     inkscape:pageopacity="0.0"
     inkscape:pagecheckerboard="0"
     inkscape:deskcolor="#d1d1d1"
     inkscape:zoom="36.916667"
     inkscape:cx="25.78781"
     inkscape:cy="18.555305"
     inkscape:window-width="3840"
     inkscape:window-height="2020"
     inkscape:window-x="0"
     inkscape:window-y="32"
     inkscape:window-maximized="1"
     inkscape:current-layer="svg1" />
  <path
     d="m 151.12115,-57.155755 c -25.84049,0 -47.96151,-9.20077 -66.36306,-27.602335 -18.401565,-18.40155 -27.602335,-40.52257 -27.602335,-66.36306 v -657.7577 c 0,-25.84049 9.20077,-47.96151 27.602335,-66.36306 18.40155,-18.40156 40.52257,-27.60234 66.36306,-27.60234 h 657.7577 c 25.84049,0 47.96151,9.20078 66.36306,27.60234 18.40156,18.40155 27.60234,40.52257 27.60234,66.36306 v 657.7577 c 0,25.84049 -9.20078,47.96151 -27.60234,66.36306 -18.40155,18.401565 -40.52257,27.602335 -66.36306,27.602335 z M 137.03537,-137.03537 H 824.04815 V -822.96463 H 137.03537 Z m 0,-685.92926 v 685.92926 z"
     id="path1"
     sodipodi:nodetypes="ssssssssssssscccccccc"
     style="stroke-width:1.17456" />
  <path
     d="m 487.14788,-255.64413 q -61.55928,0 -108.23931,-28.00802 -46.38827,-28.00801 -72.64578,-78.48078 -25.96577,-50.47278 -25.96577,-117.57532 0,-69.43653 26.84102,-119.90931 26.84102,-50.47277 73.52104,-77.60554 46.68002,-27.13276 105.03005,-27.13276 37.34402,0 70.31179,11.0865 32.96776,10.79476 58.35003,31.21727 25.67401,20.13076 42.01202,48.13878 16.33801,28.00801 20.42251,62.14278 h -91.02605 q -3.79275,-16.62977 -11.96175,-30.05027 -8.16901,-13.71226 -21.00602,-23.34001 -12.54525,-9.62775 -28.88326,-14.58751 -16.04626,-5.2515 -35.59351,-5.2515 -36.46878,0 -63.01804,17.79676 -26.25751,17.505 -40.55328,50.18102 -14.004,32.38427 -14.004,77.31379 0,44.63778 14.29576,77.02204 14.29575,32.38427 40.84503,50.18103 26.54926,17.50501 63.60152,17.50501 30.34202,0 53.39028,-11.37826 23.04826,-11.67 35.88527,-32.38427 13.12876,-21.006 13.12876,-48.43052 l 21.29776,1.7505 H 497.06738 v -68.26954 h 182.6356 v 55.43254 q 0,53.97378 -24.79876,95.11055 -24.50701,41.13677 -67.97778,64.47678 -43.47078,23.04826 -99.77856,23.04826 z"
     id="text1"
     style="font-weight:bold;font-size:626.681px;font-family:'Adwaita Sans';-inkscape-font-specification:'Adwaita Sans, Bold';letter-spacing:0px;word-spacing:0px;stroke-width:0.856885"
     aria-label="G" />
</svg>
