<?xml version="1.0" encoding="UTF-8" standalone="no"?>
<svg
   height="24px"
   viewBox="0 -960 960 960"
   width="24px"
   fill="#000000"
   version="1.1"
   id="svg1"
   sodipodi:docname="laser-off-symbolic.svg"
   inkscape:version="1.4.2 (ebf0e940d0, 2025-05-08)"
   xmlns:inkscape="http://www.inkscape.org/namespaces/inkscape"
   xmlns:sodipodi="http://sodipodi.sourceforge.net/DTD/sodipodi-0.dtd"
   xmlns="http://www.w3.org/2000/svg"
   xmlns:svg="http://www.w3.org/2000/svg">
  <defs
     id="defs1" />
  <sodipodi:namedview
     id="namedview1"
     pagecolor="#ffffff"
     bordercolor="#000000"
     borderopacity="0.25"
     inkscape:showpageshadow="2"
     inkscape:pageopacity="0.0"
     inkscape:pagecheckerboard="0"
     inkscape:deskcolor="#d1d1d1"
     inkscape:zoom="36.916667"
     inkscape:cx="12"
     inkscape:cy="12"
     inkscape:window-width="3840"
     inkscape:window-height="2020"
     inkscape:window-x="0"
     inkscape:window-y="32"
     inkscape:window-maximized="1"
     inkscape:current-layer="svg1" />
  <path
     id="path1"
     d="m 480,-880 c -55.33333,0 -107.34896,10.48438 -156.01562,31.48438 -18.12491,7.82101 -35.35077,16.66092 -51.71876,26.5625 l 57.89063,57.42187 C 374.90543,-788.18356 424.82346,-800 480,-800 c 89.33333,0 165.03125,30.96875 227.03125,92.96875 62,62 92.96875,137.69792 92.96875,227.03125 0,54.10197 -11.40061,103.18882 -34.14062,147.26562 l 57.89062,57.34376 c 9.15603,-15.44188 17.43662,-31.60907 24.76562,-48.59376 C 869.51562,-372.65104 880,-424.66667 880,-480 c 0,-55.33333 -10.48438,-107.34896 -31.48438,-156.01562 -21,-48.66667 -49.54687,-90.95313 -85.54687,-126.95313 -36,-36 -78.28646,-64.54687 -126.95313,-85.54687 C 587.34896,-869.51562 535.33333,-880 480,-880 Z m -272.26562,106.64062 c -3.63574,3.37198 -7.18815,6.87565 -10.70313,10.39063 -36,36 -64.54687,78.28646 -85.54687,126.95313 C 90.484375,-587.34896 80,-535.33333 80,-480 c 0,55.33333 10.484375,107.34896 31.48438,156.01562 21,48.66667 49.54687,90.95313 85.54687,126.95313 36,36 78.28646,64.54688 126.95313,85.54687 C 372.65104,-90.484375 424.66667,-80 480,-80 c 55.33333,0 107.34896,-10.484375 156.01562,-31.48438 48.66667,-21 90.95313,-49.54687 126.95313,-85.54687 4.35335,-4.35335 8.60037,-8.74267 12.73437,-13.28125 l -56.25,-55.78125 c -4.00506,4.43554 -8.11804,8.82117 -12.42187,13.125 -62,62 -137.69792,92.96875 -227.03125,92.96875 -89.33333,0 -165.03125,-30.96875 -227.03125,-92.96875 C 190.96875,-314.96875 160,-390.66667 160,-480 c 0,-89.33333 30.96875,-165.03125 92.96875,-227.03125 3.62176,-3.62176 7.30059,-7.13668 11.01563,-10.54687 z M 497.34375,-598.90625 598.75,-498.4375 C 595.16761,-523.92201 583.91387,-546.08613 565,-565 c -19.16967,-19.16967 -41.73702,-30.48556 -67.65625,-33.90625 z m -90.23437,23.20313 c -4.1743,3.24519 -8.21381,6.80755 -12.10938,10.70312 -23.33333,23.33333 -35,51.66667 -35,85 0,33.33333 11.66667,61.66667 35,85 23.33333,23.33333 51.66667,35 85,35 33.33333,0 61.66667,-11.66667 85,-35 4.15741,-4.15741 7.91146,-8.49387 11.32812,-12.96875 z"
     sodipodi:nodetypes="ssccsssccsssssscsssssssssccsssssccccsccssssscc" />
  <path
     style="opacity:1;fill:none;stroke:#000000;stroke-width:80;stroke-dasharray:none;stroke-opacity:1"
     d="M 101.85103,-823.47631 838.6456,-93.182833"
     id="path2" />
</svg>
