<?xml version="1.0" encoding="UTF-8" standalone="no"?>
<svg
   height="24px"
   viewBox="0 -960 960 960"
   width="24px"
   fill="#000000"
   version="1.1"
   id="svg1"
   sodipodi:docname="ui-settings-symbolic.svg"
   inkscape:version="1.4.2 (ebf0e940d0, 2025-05-08)"
   xmlns:inkscape="http://www.inkscape.org/namespaces/inkscape"
   xmlns:sodipodi="http://sodipodi.sourceforge.net/DTD/sodipodi-0.dtd"
   xmlns="http://www.w3.org/2000/svg"
   xmlns:svg="http://www.w3.org/2000/svg">
  <defs
     id="defs1" />
  <sodipodi:namedview
     id="namedview1"
     pagecolor="#ffffff"
     bordercolor="#000000"
     borderopacity="0.25"
     inkscape:showpageshadow="2"
     inkscape:pageopacity="0.0"
     inkscape:pagecheckerboard="0"
     inkscape:deskcolor="#d1d1d1"
     inkscape:zoom="36.916667"
     inkscape:cx="12"
     inkscape:cy="12"
     inkscape:window-width="3840"
     inkscape:window-height="2020"
     inkscape:window-x="0"
     inkscape:window-y="32"
     inkscape:window-maximized="1"
     inkscape:current-layer="svg1" />
  <path
     d="M350-240q46 0 78-32t32-78q0-46-32-78t-78-32q-46 0-78 32t-32 78q0 46 32 78t78 32Zm260 0q46 0 78-32t32-78q0-46-32-78t-78-32q-46 0-78 32t-32 78q0 46 32 78t78 32Zm-260-80q-12 0-21-9t-9-21q0-12 9-21t21-9q12 0 21 9t9 21q0 12-9 21t-21 9Zm260 0q-12 0-21-9t-9-21q0-12 9-21t21-9q12 0 21 9t9 21q0 12-9 21t-21 9ZM340-520h280q42 0 71-29t29-71q0-42-29-71t-71-29H340q-42 0-71 29t-29 71q0 42 29 71t71 29Zm0-80q-8 0-14-6t-6-14q0-8 6-14t14-6h280q8 0 14 6t6 14q0 8-6 14t-14 6H340ZM200-120q-33 0-56.5-23.5T120-200v-560q0-33 23.5-56.5T200-840h560q33 0 56.5 23.5T840-760v560q0 33-23.5 56.5T760-120H200Zm0-80h560v-560H200v560Zm0-560v560-560Z"
     id="path1" />
</svg>
