<svg xmlns:xlink="http://www.w3.org/1999/xlink" xmlns="http://www.w3.org/2000/svg" id="Flying_Bird_2a" image-rendering="optimizeSpeed" baseProfile="tiny" version="1.1" x="0px" y="0px" width="99" height="145" viewBox="-48.35 -51.55 98.20000000000002 144.8">
  <defs>
    <symbol id="BirdBody--0" viewBox="0 0 122.7 43.85">
      <g id="BirdBody--0_0">
        <g id="element21">
          <path id="path225" fill="#000" d="M122.7,36 Q122.5,33.8 121.9,31.75 121.6,30.7 121.6,29.65 121.55,27.45 120.1,25.7 118.75,24.05 116.8,23.55 116.3,22.6 115.65,21.9 114.6,20.75 113.35,19.8 113.15,19 112.35,18.6 111.6,18.15 110.9,17.75 109.35,16.65 107.65,16.2 102.9,15.15 97.95,15.5 93.25,16.25 88.45,15.5 84.05,15 79.9,14.05 77.85,13.55 75.8,13.3 74.15,12.9 72.75,12.1 69.05,10.1 65.55,8.3 61,6.1 56.5,4.35 52.3,2.7 48,1.8 44.5,1 40.95,0.55 36.15,-0.2 31.3,0.1 27.05,0.6 22.6,1.15 17.85,1.7 13.3,2.8 13.2,2.8 13.1,2.85 9.85,2.95 6.65,3.1 4.8,2.65 3,2.05 1.6,1.55 0.25,1 0.1,0.9 0,0.9 L0,2.1 Q0.1,2.15 0.25,2.25 0.45,2.35 0.7,2.45 3.55,3.7 6.6,4.2 10,4 13.45,3.95 14.1,3.7 14.8,3.45 19.95,2.45 25.2,1.8 28.15,1.45 31.15,1.05 35.95,0.85 40.95,1.55 44.35,2 47.8,2.8 60.55,5.85 71.6,12.9 72,12.95 72.45,13.05 72.65,13.15 72.85,13.25 76.15,14.25 79.7,15.05 83.95,15.95 88.45,16.55 90.55,16.9 92.75,16.9 95.3,16.75 97.95,16.5 101.7,16.35 105.45,16.8 106.75,17.1 108.05,17.55 110.1,18.25 111.85,19.5 110.7,19.5 109.55,19.55 107.25,19.2 105,18.9 106.9,19.4 109.45,20.2 110.9,20.5 112.4,20.45 114.5,21.35 115.65,23.35 114.95,23.3 114.3,23.25 107.25,22.5 100.25,21.3 100.1,21.35 100,21.4 100.2,21.4 100.45,21.45 102.85,21.65 108.15,22.9 113.45,24.15 114.85,24.3 115.95,24.5 117,24.85 118.4,25.3 119.15,26.3 120.5,27.95 120.35,30.2 L107.6,26.65 Q108.3,26.9 109.05,27.2 114.25,29.15 120.45,31.3 L121.7,35.6 Q120.7,36.1 119.7,36.6 119.45,36.45 119.25,36.35 117.7,35.5 116.1,34.85 113.5,33.75 110.9,32.65 106.5,30.95 102.1,29.9 103.8,30.35 108.05,32.2 113.75,34.7 119.6,37.6 L119.55,39.2 Q119.5,40.75 118.25,41.55 117.1,42.3 115.75,42.3 114.65,42.1 113.45,41.8 109.9,40.95 106.55,39.55 104.25,38.6 101.9,37.75 98.7,36.6 95.6,35.35 92.05,33.85 88.15,33.8 L72.4,34.45 Q72.45,34.6 72.55,34.8 79.25,34.8 85.95,34.8 L85.95,35.65 Q85.05,35.45 84.15,35.25 81.1,35.2 79.6,37.85 78.85,37.9 78.1,37.9 72.9,37.85 68.65,35.2 68.35,35.1 68.15,35.25 63.95,37.3 59.65,39.1 56.9,40.25 54.05,40.55 46.85,41.05 39.65,40.55 33.4,40.15 27.85,38.3 19.9,35.55 13.65,30.15 13.3,30.15 12.95,30.2 8.35,30.3 3.85,29.85 2.05,29.65 0.25,29.4 0.15,29.35 0,29.35 L0,30.3 Q0.15,30.3 0.25,30.35 3.65,30.9 7.2,31.15 10.35,31.2 13.35,31.15 16,33.1 18.75,34.9 22.8,37.55 27.3,39.15 31.85,40.7 36.65,41.2 39.7,41.45 42.8,41.7 50.1,42 57.35,41.1 58.7,40.8 60,40.3 62.4,39.35 64.75,38.15 67.35,39.95 70.4,41.25 71.45,41.7 72.55,42.1 77.65,44.05 83.1,43.8 85.85,43.6 88.15,41.9 89,41.2 89.3,40.05 89.4,39.55 89.25,39.1 88.7,37.25 86.95,36.15 L86.95,34.8 Q88.05,34.8 89.15,34.8 91.05,34.9 92.7,35.45 99.6,38.05 106.45,40.45 109.4,41.5 112.4,42.5 114.45,43.25 116.45,43.25 117.5,43.15 118.35,42.85 119.75,42.2 120.25,40.7 120.7,39.25 120.6,37.6 L122.7,36z M84.6,36.3 Q85.4,36.55 86.1,37 87,37.55 87.9,38.25 88.75,39 88.2,40.1 87.5,41.35 86.25,41.85 84.15,42.85 81.75,42.8 77.15,42.75 72.65,41.15 68.9,39.85 65.65,37.6 L68.15,36.1 Q72.15,38.55 76.75,38.85 78.65,39.1 80.2,38.7 80.65,37.75 81.8,36.9 83.1,36.05 84.6,36.3z"/>
          <path id="path226" fill="#FC0" d="M84.6,36.3 Q83.1,36.05 81.8,36.9 80.65,37.75 80.2,38.7 78.65,39.1 76.75,38.85 72.15,38.55 68.15,36.1 L65.65,37.6 Q68.9,39.85 72.65,41.15 77.15,42.75 81.75,42.8 84.15,42.85 86.25,41.85 87.5,41.35 88.2,40.1 88.75,39 87.9,38.25 87,37.55 86.1,37 85.4,36.55 84.6,36.3z M84.15,35.25 Q85.05,35.45 85.95,35.65 L85.95,34.8 Q79.25,34.8 72.55,34.8 72.45,34.6 72.4,34.45 L69.85,34.45 68.65,35.2 Q72.9,37.85 78.1,37.9 78.85,37.9 79.6,37.85 81.1,35.2 84.15,35.25z"/>
          <path id="path229" fill="#F9F8F4" d="M108.05,17.55 Q106.75,17.1 105.45,16.8 101.7,16.35 97.95,16.5 95.3,16.75 92.75,16.9 90.55,16.9 88.45,16.55 83.95,15.95 79.7,15.05 76.15,14.25 72.85,13.25 72.65,13.15 72.45,13.05 72,12.95 71.6,12.9 60.55,5.85 47.8,2.8 44.35,2 40.95,1.55 35.95,0.85 31.15,1.05 28.15,1.45 25.2,1.8 19.95,2.45 14.8,3.45 14.1,3.7 13.45,3.95 10,4 6.6,4.2 3.55,3.7 0.7,2.45 0.45,2.35 0.25,2.25 0.1,2.15 0,2.1 L0,23.45 Q0.1,23.45 0.25,23.45 0.75,23.5 1.25,23.55 5.35,23.95 7,23.45 8.65,22.95 9.5,18.9 10.75,21.6 12.95,23.4 21.35,30.1 31.35,34.05 34.3,35.15 37.15,35.8 45.1,37.4 53.05,35.7 58.35,34.5 63.35,32.3 65.75,31.2 68.55,30.1 69.15,29.9 69.75,29.55 70.7,29.85 71.6,29.85 76.2,30.6 80.7,30.95 85.55,30.9 90.3,30.75 91.85,30.6 93.25,31.05 97.55,32.25 101.9,34.05 106.35,35.95 110.85,37.4 115.05,38.8 119.55,39.2 L119.6,37.6 Q113.75,34.7 108.05,32.2 103.8,30.35 102.1,29.9 106.5,30.95 110.9,32.65 113.5,33.75 116.1,34.85 117.7,35.5 119.25,36.35 119.45,36.45 119.7,36.6 120.7,36.1 121.7,35.6 L120.45,31.3 Q114.25,29.15 109.05,27.2 108.3,26.9 107.6,26.65 L120.35,30.2 Q120.5,27.95 119.15,26.3 118.4,25.3 117,24.85 115.95,24.5 114.85,24.3 113.45,24.15 108.15,22.9 102.85,21.65 100.45,21.45 100.2,21.4 100,21.4 100.1,21.35 100.25,21.3 107.25,22.5 114.3,23.25 114.95,23.3 115.65,23.35 114.5,21.35 112.4,20.45 110.9,20.5 109.45,20.2 106.9,19.4 105,18.9 107.25,19.2 109.55,19.55 110.7,19.5 111.85,19.5 110.1,18.25 108.05,17.55z"/>
          <path id="path232" fill="#DDD8C1" d="M93.25,31.05 Q91.85,30.6 90.3,30.75 85.55,30.9 80.7,30.95 76.2,30.6 71.6,29.85 70.7,29.85 69.75,29.55 69.15,29.9 68.55,30.1 65.75,31.2 63.35,32.3 58.35,34.5 53.05,35.7 45.1,37.4 37.15,35.8 34.3,35.15 31.35,34.05 21.35,30.1 12.95,23.4 10.75,21.6 9.5,18.9 8.65,22.95 7,23.45 5.35,23.95 1.25,23.55 0.75,23.5 0.25,23.45 0.1,23.45 0,23.45 L0,29.35 Q0.15,29.35 0.25,29.4 2.05,29.65 3.85,29.85 8.35,30.3 12.95,30.2 13.3,30.15 13.65,30.15 19.9,35.55 27.85,38.3 33.4,40.15 39.65,40.55 46.85,41.05 54.05,40.55 56.9,40.25 59.65,39.1 63.95,37.3 68.15,35.25 68.35,35.1 68.65,35.2 L69.85,34.45 72.4,34.45 88.15,33.8 Q92.05,33.85 95.6,35.35 98.7,36.6 101.9,37.75 104.25,38.6 106.55,39.55 109.9,40.95 113.45,41.8 114.65,42.1 115.75,42.3 117.1,42.3 118.25,41.55 119.5,40.75 119.55,39.2 115.05,38.8 110.85,37.4 106.35,35.95 101.9,34.05 97.55,32.25 93.25,31.05z"/>
        </g>
      </g>
    </symbol>
  </defs>


   <g id="BirdFlapBack_0008">
      <g id="element27">
        <path id="path257" fill="#DDD8C1" d="M4.6,33.45 Q4.1,32.75 3.8,32.15 1.3,31.35 0.05,30.95 -2.15,30.2 -3.95,29.7 -7.5,28.7 -13.05,28.85 -14.9,28.9 -17.15,28.15 -18.4,27.65 -19.2,27.35 -19.65,27.45 -20.15,27.5 -20.65,27.6 -21.15,27.7 -21.85,27.9 -22.45,28.3 -23.5,29 -24.35,30 -26.2,32.15 -26.6,34.95 -26.7,35.65 -26.45,36.45 -25.9,38.25 -24.45,39.55 -20.45,43.1 -15.75,45.8 -12.85,47.5 -10.3,49.6 -8.3,51.3 -6.1,52.65 -5.15,52.15 -4.75,51.7 -4.45,51.4 -4,50.4 -3.85,50.05 -3.55,49.75 -4.45,49 -5.5,48.1 -7.7,46.2 -9.5,45.05 -6.55,46.5 -4.4,48.3 -3.8,48.8 -3.15,49.35 -3,49.25 -2.85,49.15 -2.3,48.8 -1.85,47.45 -2,47.3 -2.2,47.15 -3.55,46 -5,45.05 -6.4,44.1 -7.55,42.85 -7.5,42.65 -7.4,42.7 -6.65,43.1 -5.95,43.55 -3.7,45.1 -1.7,46.9 -1.4,45.8 -1.15,44.15 -1.55,43.65 -2.05,43.3 -3.65,42.2 -4.95,40.65 L-4.5,40.45 -1.1,43.7 Q-0.9,42.35 -0.75,40.75 L-0.7,40.75 Q-0.75,40.7 -0.75,40.65 -1,40.3 -1.4,40 -2.55,39.2 -3.7,38.3 -3.7,37.9 -3.3,38.05 L-1.2,39.65 Q-1.15,39.6 -1.1,39.6 0,39.1 0.25,37.8 0.45,36.7 0.3,35.65 0.65,35.15 1.35,35.3 1.95,35.45 2.6,35.25 4,34.85 4.6,33.45z"/>
        <path id="path258" fill="#000" d="M4.9,32.75 Q4.75,33.1 4.6,33.45 4,34.85 2.6,35.25 1.95,35.45 1.35,35.3 0.65,35.15 0.3,35.65 0.45,36.7 0.25,37.8 0,39.1 -1.1,39.6 -1.15,39.6 -1.2,39.65 L-3.3,38.05 Q-3.7,37.9 -3.7,38.3 -2.55,39.2 -1.4,40 -1,40.3 -0.75,40.65 -0.75,40.7 -0.7,40.75 -0.55,41 -0.5,41.25 -0.05,42.95 -0.15,44.55 L-1.1,43.7 -4.5,40.45 -4.95,40.65 Q-3.65,42.2 -2.05,43.3 -1.55,43.65 -1.15,44.15 -0.65,44.7 -0.3,45.5 0.7,47.65 0.15,49.9 0,49.45 -0.15,49 -0.5,48.05 -1.15,47.4 -1.45,47.15 -1.7,46.9 -3.7,45.1 -5.95,43.55 -6.65,43.1 -7.4,42.7 -7.5,42.65 -7.55,42.85 -6.4,44.1 -5,45.05 -3.55,46 -2.2,47.15 -2,47.3 -1.85,47.45 -0.05,49.3 -0.15,52 -1.65,50.65 -3.15,49.35 -3.8,48.8 -4.4,48.3 -6.55,46.5 -9.5,45.05 -7.7,46.2 -5.5,48.1 -4.45,49 -3.55,49.75 -0.45,52.45 0.25,53 1.2,53.8 1.25,54.9 L1.25,54.95 Q-1.7,55.15 -4.3,53.7 -5.25,53.2 -6.1,52.65 -8.3,51.3 -10.3,49.6 -12.85,47.5 -15.75,45.8 -20.45,43.1 -24.45,39.55 -25.9,38.25 -26.45,36.45 -26.7,35.65 -26.6,34.95 -26.2,32.15 -24.35,30 -23.5,29 -22.45,28.3 -21.85,27.9 -21.15,27.7 -20.65,27.6 -20.15,27.5 -19.65,27.45 -19.2,27.35 -18.55,27.25 -17.95,27.1 L-17.8,26.75 Q-17.95,26.7 -18.05,26.75 -18.5,26.8 -19,26.9 -19.1,26.9 -19.25,26.9 -19.75,26.85 -20.25,26.9 -22.05,27 -23.4,28.3 -25.6,30.3 -26.85,33.05 -27.9,35.25 -26.65,37.35 -24.8,40.55 -21.55,42.6 -14.2,47.1 -7.5,52.45 -7.15,52.75 -6.8,53 -3,55.7 1.65,55.35 1.75,55.15 1.75,54.95 1.75,54.8 1.7,54.6 1.45,53.35 0.3,52.45 L0.25,50.5 Q0.55,50.25 0.6,49.85 1.1,47.55 0.3,45.3 0.4,44.25 0.45,43.15 0.5,41.3 -0.75,40 1.3,38.55 0.85,35.95 1.55,35.95 2.2,35.8 4.2,35.5 4.95,34 5.25,33.45 5.35,32.7 L5.05,32.55 Q4.95,32.65 4.9,32.75z"/>
        <path id="path259" fill="#333" d="M1.25,54.9 Q1.2,53.8 0.25,53 -0.45,52.45 -3.55,49.75 -3.85,50.05 -4,50.4 -4.45,51.4 -4.75,51.7 -1.35,54.45 1.25,54.9z M-0.7,40.75 L-0.75,40.75 Q-0.9,42.35 -1.1,43.7 L-0.15,44.55 Q-0.05,42.95 -0.5,41.25 -0.55,41 -0.7,40.75z M-0.3,45.5 Q-0.65,44.7 -1.15,44.15 -1.4,45.8 -1.7,46.9 -1.45,47.15 -1.15,47.4 -0.5,48.05 -0.15,49 0,49.45 0.15,49.9 0.7,47.65 -0.3,45.5z M-2.85,49.15 Q-3,49.25 -3.15,49.35 -1.65,50.65 -0.15,52 -0.05,49.3 -1.85,47.45 -2.3,48.8 -2.85,49.15z"/>
        <path id="path260" fill="#1B1B1B" d="M1.25,54.95 L1.25,54.9 Q-1.35,54.45 -4.75,51.7 -5.15,52.15 -6.1,52.65 -5.25,53.2 -4.3,53.7 -1.7,55.15 1.25,54.95z"/>
      </g>
    </g>

      <g id="BirdBody_0008" overflow="visible" transform="translate(0,30.4)">
        <g id="BirdBodyClosed--0_1_1">
          <use xlink:href="#BirdBody--0" id="element32" width="123" height="44" x="0" y="0" overflow="visible" transform="matrix(0.5 0 0 0.5 -13.449 -8.299)"/>
        </g>
        <g id="BirdBodyClosed--0_0_1">
          <g id="element33">
            <path id="path278" fill="#000" d="M-20.325,-12.675 Q-22.5,-13.8 -24.8,-13.275 -27.05,-12.775 -28.85,-11.475 -28.925,-11.375 -28.9,-11.175 -28.9,-11 -28.6,-11.025 -26.3,-12.65 -23.425,-12.975 -23.025,-12.975 -22.625,-12.825 -22.025,-12.75 -21.625,-12.625 -19.65,-12.25 -18.05,-10.8 -17.775,-10.575 -17.55,-10.325 -17.3,-10.025 -16.9,-9.575 -16.675,-9.325 -16.4,-9.1 -14.972,-7.953 -13.325,-7.163 L-13.325,-7.788 Q-13.691,-7.95 -14.05,-8.125 -15.875,-9.025 -17.1,-10.6 -17.2,-10.7 -17.275,-10.775 -17.75,-11.175 -18.25,-11.5 -19.25,-12.15 -20.325,-12.675z"/>
            <path id="path279" fill="#F9F8F4" d="M-21.625,-12.625 Q-22.025,-12.75 -22.625,-12.825 -23.025,-12.975 -23.425,-12.975 -26.3,-12.65 -28.6,-11.025 -28.15,-10.1 -28.2,-9.025 -28.2,-8.8 -28.225,-8.575 -28.25,-8.375 -28.425,-8.475 -28.525,-7.425 -28.575,-6.45 -28.625,-5.2 -27.925,-4.1 -27.625,-3.65 -27.225,-3.25 -26.375,-2.5 -25.275,-2.2 -25.159,-2.176 -25.05,-2.15 -22.738,-1.73 -20.5,-2.325 -18.897,-2.726 -17.45,-2.5 -17.363,-2.552 -17.275,-2.6 L-17.1,-2.225 Q-17.25,-1.925 -17.425,-1.625 -17.6,-1.35 -17.8,-1.1 -18.4,-0.35 -19.075,0.325 -19.326,0.567 -19.587,0.8 -20.062,1.215 -20.575,1.6 -20.828,1.799 -21.1,1.975 -20.592,2.329 -20.1,2.55 -19.331,2.862 -17.562,3.275 -17.189,3.293 -16.8,3.3 -16.75,3.3 -16.7,3.3 -16.563,3.3 -16.425,3.3 -15.047,3.3 -13.325,3.45 L-13.325,-7.163 Q-14.972,-7.953 -16.4,-9.1 -16.675,-9.325 -16.9,-9.575 -17.3,-10.025 -17.55,-10.325 -17.775,-10.575 -18.05,-10.8 -19.65,-12.25 -21.625,-12.625z M-20.4,-10.375 Q-19.3,-9 -19.3,-7.075 -19.3,-5.15 -20.4,-3.775 -21.525,-2.4 -23.1,-2.4 -23.775,-2.4 -24.362,-2.65 -25.146,-2.989 -25.775,-3.775 -26.9,-5.15 -26.9,-7.075 -26.9,-9 -25.775,-10.375 -24.675,-11.75 -23.1,-11.75 -21.525,-11.75 -20.4,-10.375z"/>
            <path id="path280" fill="#FC0" d="M-20.4,-10.375 Q-21.525,-11.75 -23.1,-11.75 -24.675,-11.75 -25.775,-10.375 -26.9,-9 -26.9,-7.075 -26.9,-5.15 -25.775,-3.775 -25.146,-2.989 -24.362,-2.65 -23.775,-2.4 -23.1,-2.4 -21.525,-2.4 -20.4,-3.775 -19.3,-5.15 -19.3,-7.075 -19.3,-9 -20.4,-10.375z M-20.75,-10.025 Q-19.8,-8.8 -19.8,-7.075 -19.8,-5.35 -20.75,-4.125 -21.725,-2.9 -23.1,-2.9 -24.475,-2.9 -25.425,-4.125 -26.4,-5.35 -26.4,-7.075 -26.4,-8.8 -25.425,-10.025 -24.475,-11.25 -23.1,-11.25 -21.725,-11.25 -20.75,-10.025z M-32.95,-11.625 Q-34.275,-9.7 -33.5,-7.4 -33.125,-6.275 -32.275,-5.7 -32.1,-5.7 -31.95,-5.625 -31.825,-5.55 -31.825,-5.425 L-31.375,-5.3 -30.825,-5.275 Q-32.7,-3.05 -35.375,-1.725 -36.775,-1.05 -38.3,-0.525 -38.932,-0.304 -39.588,-0.187 -39.343,0.246 -38.75,0.35 L-36.85,0.35 Q-31.675,0.35 -29.925,-0.075 -28.771,-0.348 -25.7,-1.825 -26.677,-2.2 -27.55,-2.925 -28.025,-3.35 -28.375,-3.85 -28.95,-4.65 -29,-5.675 -29.05,-6.525 -29.025,-7.425 L-30.65,-5.45 Q-30.75,-5.475 -30.825,-5.5 -30.875,-5.55 -30.9,-5.575 -30.925,-5.625 -30.925,-5.675 -30.925,-5.725 -30.9,-5.775 -31.75,-5.75 -32.25,-6.325 -33.1,-7.275 -33.2,-8.575 -33.25,-9.125 -33.2,-9.65 -33.075,-11.2 -31.8,-11.975 -30.925,-12.525 -30.125,-12 -29.525,-11.575 -29.175,-10.95 -28.55,-9.9 -28.65,-8.625 -28.55,-8.625 -28.475,-8.575 -28.425,-8.525 -28.425,-8.475 -28.25,-8.375 -28.225,-8.575 -28.2,-8.8 -28.2,-9.025 -28.15,-10.1 -28.6,-11.025 -28.9,-11 -28.9,-11.175 -28.925,-11.375 -28.85,-11.475 -29.125,-11.8 -29.425,-12.1 -30.05,-12.7 -30.975,-12.775 -32.275,-12.625 -32.95,-11.625z M-30.7,-2.775 Q-30.7,-3 -30.55,-3.15 -30.4,-3.3 -30.175,-3.3 -29.95,-3.3 -29.8,-3.15 -29.65,-3 -29.65,-2.775 -29.65,-2.55 -29.8,-2.4 -29.95,-2.25 -30.175,-2.25 -30.4,-2.25 -30.55,-2.4 -30.7,-2.55 -30.7,-2.775z"/>
            <path id="path281" fill="#F9F8F4" d="M-20.75,-10.025 Q-21.725,-11.25 -23.1,-11.25 -24.475,-11.25 -25.425,-10.025 -26.4,-8.8 -26.4,-7.075 -26.4,-5.35 -25.425,-4.125 -24.475,-2.9 -23.1,-2.9 -21.725,-2.9 -20.75,-4.125 -19.8,-5.35 -19.8,-7.075 -19.8,-8.8 -20.75,-10.025z M-23.725,-7.8 Q-23.1,-7.8 -22.65,-7.225 -22.2,-6.675 -22.2,-5.875 -22.2,-5.075 -22.65,-4.5 -23.1,-3.95 -23.725,-3.95 -24.35,-3.95 -24.8,-4.5 -25.25,-5.075 -25.25,-5.875 -25.25,-6.675 -24.8,-7.225 -24.35,-7.8 -23.725,-7.8z M-31.8,-11.975 Q-33.075,-11.2 -33.2,-9.65 -33.25,-9.125 -33.2,-8.575 -33.1,-7.275 -32.25,-6.325 -31.75,-5.75 -30.9,-5.775 L-28.65,-8.625 Q-28.55,-9.9 -29.175,-10.95 -29.525,-11.575 -30.125,-12 -30.925,-12.525 -31.8,-11.975z M-32.2,-8.825 Q-31.875,-9.25 -31.4,-9.25 -30.925,-9.25 -30.575,-8.825 -30.25,-8.425 -30.25,-7.825 -30.25,-7.225 -30.575,-6.8 -30.925,-6.4 -31.4,-6.4 -31.875,-6.4 -32.2,-6.8 -32.55,-7.225 -32.55,-7.825 -32.55,-8.425 -32.2,-8.825z"/>
            <path id="path282" fill="#000" d="M-23.725,-7.8 Q-24.35,-7.8 -24.8,-7.225 -25.25,-6.675 -25.25,-5.875 -25.25,-5.075 -24.8,-4.5 -24.35,-3.95 -23.725,-3.95 -23.1,-3.95 -22.65,-4.5 -22.2,-5.075 -22.2,-5.875 -22.2,-6.675 -22.65,-7.225 -23.1,-7.8 -23.725,-7.8z M-23,-6.875 Q-22.7,-6.475 -22.7,-5.875 -22.7,-5.275 -23,-4.85 -23.3,-4.45 -23.725,-4.45 -24.15,-4.45 -24.45,-4.85 -24.75,-5.275 -24.75,-5.875 -24.75,-6.475 -24.45,-6.875 -24.15,-7.3 -23.725,-7.3 -23.3,-7.3 -23,-6.875z"/>
            <path id="path283" fill="#441704" d="M-23,-6.875 Q-23.3,-7.3 -23.725,-7.3 -24.15,-7.3 -24.45,-6.875 -24.75,-6.475 -24.75,-5.875 -24.75,-5.275 -24.45,-4.85 -24.15,-4.45 -23.725,-4.45 -23.3,-4.45 -23,-4.85 -22.7,-5.275 -22.7,-5.875 -22.7,-6.475 -23,-6.875z"/>
            <path id="path284" fill="#441704" d="M-30.7,-2.775 Q-30.7,-2.55 -30.55,-2.4 -30.4,-2.25 -30.175,-2.25 -29.95,-2.25 -29.8,-2.4 -29.65,-2.55 -29.65,-2.775 -29.65,-3 -29.8,-3.15 -29.95,-3.3 -30.175,-3.3 -30.4,-3.3 -30.55,-3.15 -30.7,-3 -30.7,-2.775z"/>
            <path id="path285" fill="#000" d="M-32.2,-8.825 Q-32.55,-8.425 -32.55,-7.825 -32.55,-7.225 -32.2,-6.8 -31.875,-6.4 -31.4,-6.4 -30.925,-6.4 -30.575,-6.8 -30.25,-7.225 -30.25,-7.825 -30.25,-8.425 -30.575,-8.825 -30.925,-9.25 -31.4,-9.25 -31.875,-9.25 -32.2,-8.825z M-30.925,-8.475 Q-30.75,-8.2 -30.75,-7.825 -30.75,-7.45 -30.925,-7.175 -31.125,-6.9 -31.4,-6.9 -31.675,-6.9 -31.85,-7.175 -32.05,-7.45 -32.05,-7.825 -32.05,-8.2 -31.85,-8.475 -31.675,-8.75 -31.4,-8.75 -31.125,-8.75 -30.925,-8.475z M-39.738,-0.687 Q-40.078,-0.623 -40.425,-0.575 -42.1,-0.475 -43.75,-0.3 -44.875,-0.225 -45.875,0.425 -47.275,1.4 -47.775,3.05 L-47.7,3.35 Q-47.625,3.375 -47.575,3.35 -46.257,2.791 -44.9,2.463 -38.458,3.171 -31.975,3.675 -30.075,3.725 -28.15,3.7 -27.05,3.7 -25.925,3.625 -25.837,3.612 -25.75,3.6 -24.438,3.392 -23.212,2.95 -23.201,3.013 -23.15,3.063 -22.655,3.53 -21.587,4.1 -20.013,4.9 -19.162,5.35 -19.138,5.36 -19.112,5.363 -19.056,5.381 -19.012,5.413 -18.926,5.47 -18.825,5.45 -18.808,5.446 -18.787,5.438 -18.186,5.653 -17.575,5.85 -17.14,5.988 -16.7,6.113 -15.044,6.587 -13.325,6.887 L-13.325,6.413 Q-15.032,6.142 -16.7,5.663 -17.719,5.368 -18.725,5 L-18.737,4.988 Q-18.824,4.932 -18.937,4.9 -18.992,4.871 -19.05,4.837 -19.888,4.399 -21.362,3.65 -22.266,3.163 -22.725,2.763 -22.014,2.466 -21.325,2.1 -21.238,2.051 -21.15,2 -21.127,1.986 -21.1,1.975 -20.828,1.799 -20.575,1.6 -20.062,1.215 -19.587,0.8 -19.326,0.567 -19.075,0.325 -18.4,-0.35 -17.8,-1.1 -17.6,-1.35 -17.425,-1.625 -17.25,-1.925 -17.1,-2.225 L-17.275,-2.6 Q-17.363,-2.552 -17.45,-2.5 -18.897,-2.726 -20.5,-2.325 -22.738,-1.73 -25.05,-2.15 -25.159,-2.176 -25.275,-2.2 -26.375,-2.5 -27.225,-3.25 -27.625,-3.65 -27.925,-4.1 -28.625,-5.2 -28.575,-6.45 -28.525,-7.425 -28.425,-8.475 -28.425,-8.525 -28.475,-8.575 -28.55,-8.625 -28.65,-8.625 L-30.9,-5.775 Q-30.925,-5.725 -30.925,-5.675 -30.925,-5.625 -30.9,-5.575 -30.875,-5.55 -30.825,-5.5 -30.75,-5.475 -30.65,-5.45 L-29.025,-7.425 Q-29.05,-6.525 -29,-5.675 -28.95,-4.65 -28.375,-3.85 -28.025,-3.35 -27.55,-2.925 -26.677,-2.2 -25.7,-1.825 -24.228,-1.269 -22.525,-1.525 -22.475,-1.525 -22.4,-1.5 -21.45,-1.65 -20.5,-1.8 -19.6,-1.95 -18.7,-2.05 L-20.637,-0.812 Q-20.795,-0.729 -20.95,-0.65 -22.075,-0.1 -23.25,0.375 -24.95,1.05 -26.925,1.35 -27.415,1.396 -27.9,1.45 -28.552,1.475 -29.2,1.475 -29.7,1.475 -30.15,1.575 L-33.4,1.65 Q-35.75,1.575 -38.075,1.5 -40.3,1.375 -42.575,1.575 -44.975,1.7 -47.1,2.625 -46.3,0.825 -44.45,0.325 -43.3,0.1 -42.1,0.05 -41.25,-0.025 -40.35,-0.075 -39.964,-0.112 -39.588,-0.187 -38.932,-0.304 -38.3,-0.525 -36.775,-1.05 -35.375,-1.725 -32.7,-3.05 -30.825,-5.275 L-31.375,-5.3 -31.9,-4.775 -31.825,-5.425 Q-31.825,-5.55 -31.95,-5.625 -32.1,-5.7 -32.275,-5.7 L-32.45,-4.3 Q-33.625,-3.475 -34.8,-2.7 -37.062,-1.192 -39.738,-0.687z M-18.025,-1.7 Q-18.05,-1.661 -18.075,-1.625 -18.942,-0.318 -20.137,0.688 -20.206,0.744 -20.275,0.8 -20.485,0.967 -20.7,1.125 -21.11,1.411 -21.537,1.65 -21.871,1.84 -22.212,2 -22.856,2.307 -23.55,2.525 -23.858,2.621 -24.175,2.7 -24.304,2.723 -24.437,2.75 -24.576,2.775 -24.712,2.8 -25.231,2.893 -25.75,2.988 -26.337,3.093 -26.925,3.2 -28.775,3.4 -30.65,3.3 -31.3,3.225 -31.95,3.175 L-43.5,2.35 Q-38.704,1.754 -33.963,2.2 -33.929,2.197 -33.9,2.2 -33.596,2.208 -33.287,2.213 -32.29,2.222 -31.3,2.175 -30.873,2.157 -30.45,2.125 L-30.075,2.1 Q-28.371,1.958 -26.7,1.65 -25.125,1.45 -23.625,0.925 -23.587,0.914 -23.55,0.9 -23.382,0.852 -23.212,0.8 -21.933,0.404 -20.725,-0.2 -20.376,-0.378 -20.025,-0.562 -19.013,-1.103 -18.025,-1.7z"/>
            <path id="path286" fill="#441704" d="M-30.925,-8.475 Q-31.125,-8.75 -31.4,-8.75 -31.675,-8.75 -31.85,-8.475 -32.05,-8.2 -32.05,-7.825 -32.05,-7.45 -31.85,-7.175 -31.675,-6.9 -31.4,-6.9 -31.125,-6.9 -30.925,-7.175 -30.75,-7.45 -30.75,-7.825 -30.75,-8.2 -30.925,-8.475z M-47.1,2.625 Q-44.975,1.7 -42.575,1.575 L-42.1,0.05 Q-43.3,0.1 -44.45,0.325 -46.3,0.825 -47.1,2.625z"/>
            <path id="path287" fill="#D5AA00" d="M-18.025,-1.7 Q-19.013,-1.103 -20.025,-0.562 -20.376,-0.378 -20.725,-0.2 -21.933,0.404 -23.212,0.8 -23.382,0.852 -23.55,0.9 -23.587,0.914 -23.625,0.925 -25.125,1.45 -26.7,1.65 -28.371,1.958 -30.075,2.1 L-30.45,2.125 Q-30.873,2.157 -31.3,2.175 -32.29,2.222 -33.287,2.213 -33.596,2.208 -33.9,2.2 -33.929,2.197 -33.963,2.2 -38.704,1.754 -43.5,2.35 L-31.95,3.175 Q-31.3,3.225 -30.65,3.3 -28.775,3.4 -26.925,3.2 -26.337,3.093 -25.75,2.988 -25.231,2.893 -24.712,2.8 -24.576,2.775 -24.437,2.75 -24.304,2.723 -24.175,2.7 -23.858,2.621 -23.55,2.525 -22.856,2.307 -22.212,2 -21.871,1.84 -21.537,1.65 -21.11,1.411 -20.7,1.125 -20.485,0.967 -20.275,0.8 -20.206,0.744 -20.137,0.688 -18.942,-0.318 -18.075,-1.625 -18.05,-1.661 -18.025,-1.7z M-39.588,-0.187 Q-39.964,-0.112 -40.35,-0.075 -41.25,-0.025 -42.1,0.05 L-42.575,1.575 Q-40.3,1.375 -38.075,1.5 -35.75,1.575 -33.4,1.65 L-30.15,1.575 Q-29.7,1.475 -29.2,1.475 -28.552,1.475 -27.9,1.45 -27.415,1.396 -26.925,1.35 -24.95,1.05 -23.25,0.375 -22.075,-0.1 -20.95,-0.65 -20.795,-0.729 -20.637,-0.812 L-18.7,-2.05 Q-19.6,-1.95 -20.5,-1.8 -21.45,-1.65 -22.4,-1.5 -22.475,-1.525 -22.525,-1.525 -24.228,-1.269 -25.7,-1.825 -28.771,-0.348 -29.925,-0.075 -31.675,0.35 -36.85,0.35 L-38.75,0.35 Q-39.343,0.246 -39.588,-0.187z M-31.825,-5.425 L-31.375,-5.3 -31.9,-4.775 -31.825,-5.425z"/>
            <path id="path288" fill="#DDD8C1" d="M-18.737,4.988 L-18.725,5 Q-17.719,5.368 -16.7,5.663 -15.032,6.142 -13.325,6.413 L-13.325,3.45 Q-15.047,3.3 -16.425,3.3 -16.563,3.3 -16.7,3.3 -16.75,3.3 -16.8,3.3 -17.189,3.293 -17.562,3.275 -19.331,2.862 -20.1,2.55 -20.592,2.329 -21.1,1.975 -21.127,1.986 -21.15,2 -21.238,2.051 -21.325,2.1 -22.014,2.466 -22.725,2.763 -22.266,3.163 -21.362,3.65 -19.888,4.399 -19.05,4.837 -18.992,4.871 -18.937,4.9 -18.824,4.932 -18.737,4.988z"/>
          </g>
        </g>
      </g>




    <g id="BirdFlapFront_0008">

      <g id="element36">
        <path id="path299" fill="#F9F8F4" d="M16.7,34.95 Q16.2,34.25 15.9,33.65 13.45,32.85 12.2,32.45 9.95,31.7 8.2,31.2 4.65,30.2 -0.95,30.35 -2.75,30.4 -5,29.65 -6.25,29.15 -7.05,28.85 -7.55,28.95 -8,29 -9.55,30 -10.8,31.45 -12.85,33.9 -12.85,36.4 -12.85,38.15 -10.6,40.1 -8.85,41.65 -7.3,42.25 -5.4,42.95 -3.2,44.6 -0.3,46.7 0.55,47.2 1.9,48 6.45,52.45 6.9,52.85 7.35,53.2 L7.4,53.2 Q7.65,52.9 8.15,51.9 8.3,51.55 8.55,51.25 7.7,50.5 6.6,49.6 4.4,47.7 2.65,46.55 5.6,48 7.7,49.8 8.35,50.3 9,50.85 9.1,50.75 9.25,50.65 9.8,50.3 10.25,48.95 10.1,48.8 9.95,48.65 8.6,47.5 7.1,46.55 5.7,45.6 4.55,44.35 4.6,44.15 4.7,44.2 5.45,44.6 6.2,45.05 8.4,46.6 10.45,48.4 10.75,47.3 11,45.65 10.55,45.15 10.05,44.8 8.45,43.7 7.2,42.15 L7.6,41.95 11.05,45.2 Q11.2,43.85 11.35,42.25 L11.4,42.25 Q11.4,42.2 11.35,42.15 11.1,41.8 10.7,41.5 9.55,40.7 8.4,39.8 8.45,39.4 8.8,39.55 L10.95,41.15 Q11,41.1 11.05,41.1 12.15,40.6 12.4,39.3 12.6,38.2 12.45,37.15 12.75,36.65 13.5,36.8 14.1,36.95 14.7,36.75 16.15,36.35 16.7,34.95z"/>
        <path id="path300" fill="#000" d="M14.7,36.75 Q14.1,36.95 13.5,36.8 12.75,36.65 12.45,37.15 12.6,38.2 12.4,39.3 12.15,40.6 11.05,41.1 11,41.1 10.95,41.15 L8.8,39.55 Q8.45,39.4 8.4,39.8 9.55,40.7 10.7,41.5 11.1,41.8 11.35,42.15 11.4,42.2 11.4,42.25 11.55,42.5 11.65,42.75 12.1,44.45 11.95,46.05 L11.05,45.2 7.6,41.95 7.2,42.15 Q8.45,43.7 10.05,44.8 10.55,45.15 11,45.65 11.5,46.2 11.85,47 12.85,49.15 12.25,51.4 12.1,50.95 11.95,50.5 11.65,49.55 10.95,48.9 10.7,48.65 10.45,48.4 8.4,46.6 6.2,45.05 5.45,44.6 4.7,44.2 4.6,44.15 4.55,44.35 5.7,45.6 7.1,46.55 8.6,47.5 9.95,48.65 10.1,48.8 10.25,48.95 12.05,50.8 11.95,53.5 10.5,52.15 9,50.85 8.35,50.3 7.7,49.8 5.6,48 2.65,46.55 4.4,47.7 6.6,49.6 7.7,50.5 8.55,51.25 11.65,53.95 12.4,54.5 13.35,55.3 13.4,56.4 L13.4,56.45 Q10.4,56.65 7.8,55.2 6.9,54.7 6,54.15 3.8,52.8 1.8,51.1 -0.75,49 -3.65,47.3 -8.3,44.6 -12.35,41.05 -13.8,39.75 -14.35,37.95 -14.55,37.15 -14.45,36.45 -14.05,33.65 -12.2,31.5 -11.35,30.5 -10.35,29.8 -9.75,29.4 -9.05,29.2 -8.55,29.1 -8,29 -7.55,28.95 -7.05,28.85 -6.45,28.75 -5.8,28.6 L-5.65,28.25 Q-5.8,28.2 -5.9,28.25 -6.4,28.3 -6.85,28.4 -7,28.4 -7.1,28.4 -7.65,28.35 -8.15,28.4 -9.9,28.5 -11.3,29.8 -13.45,31.8 -14.75,34.55 -15.75,36.75 -14.55,38.85 -12.7,42.05 -9.4,44.1 -2.1,48.6 4.6,53.95 4.95,54.25 5.3,54.5 9.1,57.2 13.75,56.85 13.85,56.65 13.9,56.45 13.9,56.3 13.85,56.1 13.55,54.85 12.4,53.95 L12.35,52 Q12.65,51.75 12.75,51.35 13.25,49.05 12.4,46.8 12.5,45.75 12.55,44.65 12.65,42.8 11.4,41.5 13.4,40.05 13,37.45 13.65,37.45 14.3,37.3 16.3,37 17.1,35.5 17.35,34.95 17.5,34.2 L17.15,34.05 Q17.05,34.15 17,34.25 16.85,34.6 16.7,34.95 16.15,36.35 14.7,36.75z"/>
        <path id="path301" fill="#333" d="M11.65,42.75 Q11.55,42.5 11.4,42.25 L11.35,42.25 Q11.2,43.85 11.05,45.2 L11.95,46.05 Q12.1,44.45 11.65,42.75z M11,45.65 Q10.75,47.3 10.45,48.4 10.7,48.65 10.95,48.9 11.65,49.55 11.95,50.5 12.1,50.95 12.25,51.4 12.85,49.15 11.85,47 11.5,46.2 11,45.65z M13.4,56.4 Q13.35,55.3 12.4,54.5 11.65,53.95 8.55,51.25 8.3,51.55 8.15,51.9 7.65,52.9 7.4,53.2 L7.35,53.2 Q10.75,55.95 13.4,56.4z M9.25,50.65 Q9.1,50.75 9,50.85 10.5,52.15 11.95,53.5 12.05,50.8 10.25,48.95 9.8,50.3 9.25,50.65z"/>
        <path id="path302" fill="#1B1B1B" d="M13.4,56.45 L13.4,56.4 Q10.75,55.95 7.35,53.2 7,53.65 6,54.15 6.9,54.7 7.8,55.2 10.4,56.65 13.4,56.45z"/>
        <path id="path303" fill="#DDD8C1" d="M6,54.15 Q7,53.65 7.35,53.2 6.9,52.85 6.45,52.45 1.9,48 0.55,47.2 -0.3,46.7 -3.2,44.6 -5.4,42.95 -7.3,42.25 -8.85,41.65 -10.6,40.1 -12.85,38.15 -12.85,36.4 -12.85,33.9 -10.8,31.45 -9.55,30 -8,29 -8.55,29.1 -9.05,29.2 -9.75,29.4 -10.35,29.8 -11.35,30.5 -12.2,31.5 -14.05,33.65 -14.45,36.45 -14.55,37.15 -14.35,37.95 -13.8,39.75 -12.35,41.05 -8.3,44.6 -3.65,47.3 -0.75,49 1.8,51.1 3.8,52.8 6,54.15z"/>
      </g>
    </g>

</svg>
