<?xml version="1.0" encoding="UTF-8" standalone="no"?>
<!-- Created with Inkscape (http://www.inkscape.org/) -->

<svg
   width="22"
   height="22"
   viewBox="0 0 5.8208332 5.8208333"
   version="1.1"
   id="svg5429"
   inkscape:version="1.2.2 (b0a8486541, 2022-12-01)"
   sodipodi:docname="metadata.svg"
   xmlns:inkscape="http://www.inkscape.org/namespaces/inkscape"
   xmlns:sodipodi="http://sodipodi.sourceforge.net/DTD/sodipodi-0.dtd"
   xmlns="http://www.w3.org/2000/svg"
   xmlns:svg="http://www.w3.org/2000/svg">
  <sodipodi:namedview
     id="namedview5431"
     pagecolor="#ffffff"
     bordercolor="#000000"
     borderopacity="0.25"
     inkscape:showpageshadow="2"
     inkscape:pageopacity="0.0"
     inkscape:pagecheckerboard="0"
     inkscape:deskcolor="#d1d1d1"
     inkscape:document-units="px"
     showgrid="false"
     inkscape:zoom="29.276992"
     inkscape:cx="25.788168"
     inkscape:cy="11.630293"
     inkscape:window-width="2580"
     inkscape:window-height="1080"
     inkscape:window-x="858"
     inkscape:window-y="299"
     inkscape:window-maximized="0"
     inkscape:current-layer="layer1" />
  <defs
     id="defs5426" />
  <g
     inkscape:label="Ebene 1"
     inkscape:groupmode="layer"
     id="layer1">
    <path
       style="fill:#232629;fill-opacity:1;stroke-width:0.0113462"
       d="M 1.3986622,5.5459331 C 0.86709885,5.4815537 0.44580157,5.1702635 0.29863915,4.7331422 L 0.26458333,4.631985 V 3.4687837 2.3055822 L 0.29917486,2.2021865 C 0.36663191,2.0005542 0.49278445,1.8252869 0.67181473,1.6844673 0.77135079,1.6061752 1.957054,0.89930276 2.0886522,0.83980108 2.2281149,0.77674347 2.3946167,0.73472619 2.5898042,0.71333361 l 0.059142,-0.006482 2.729e-4,-0.13636579 c 3.106e-4,-0.15611873 0.015012,-0.19694205 0.090814,-0.25221057 0.098186,-0.0715892 0.2425805,-0.0715892 0.3407662,0 0.07588,0.0553256 0.090501,0.0960336 0.090814,0.25284411 1.506e-4,0.0753496 0.00448,0.13702673 0.00961,0.13706026 0.00514,3.31e-5 0.062566,0.006728 0.1276225,0.0148777 0.1363761,0.017083 0.3068577,0.0638799 0.4233334,0.11620435 C 3.861716,0.89745357 5.048596,1.6054794 5.1490167,1.6844673 5.3280469,1.8252869 5.4541994,2.0005542 5.5216563,2.2021865 l 0.034592,0.1033957 V 3.4687837 4.631985 L 5.5215923,4.735381 C 5.3754257,5.1714733 4.9470121,5.4844448 4.4115754,5.5462884 4.2946668,5.5597912 1.5103737,5.559463 1.3986596,5.5459367 Z M 4.4270924,5.0970843 c 0.2619844,-0.05129 0.4813765,-0.221405 0.57211,-0.4436091 l 0.034107,-0.083528 V 3.4739535 2.3779591 l -0.02903,-0.077547 C 4.9664101,2.1992551 4.9053292,2.1091039 4.8255412,2.0366075 4.7820911,1.997128 4.5633472,1.8607428 4.151669,1.6164528 3.8164226,1.4175174 3.513454,1.2414632 3.4784059,1.2252212 3.4433576,1.2089792 3.3726597,1.1848588 3.3212994,1.1716204 3.2334284,1.148971 3.2088111,1.1475736 2.9041915,1.1479444 2.5869059,1.1483313 2.5784845,1.1488889 2.4808581,1.1760164 2.4260741,1.1912393 2.3532355,1.2184491 2.3189953,1.2364827 2.2847553,1.2545163 1.9865537,1.4295291 1.6563254,1.6254001 1.2614968,1.8595881 1.0345185,2.0009665 0.99343506,2.0382954 0.91540766,2.1091922 0.85416478,2.1999473 0.81655485,2.3004124 l -0.0290303,0.077547 v 1.0959944 1.0959941 l 0.0346423,0.084935 c 0.0677644,0.1661415 0.21081245,0.305348 0.39598205,0.3853475 0.1726246,0.074579 0.082226,0.070744 1.6860426,0.071531 1.2372587,6.057e-4 1.4555801,-0.0015 1.5229009,-0.014677 z M 2.5270837,4.8693912 C 2.4496153,4.8368195 2.4065088,4.789367 2.3863141,4.7144301 L 2.3719675,4.6611936 2.6487943,3.9693478 C 2.801049,3.5888324 2.9389595,3.2581321 2.9552618,3.2344583 c 0.033033,-0.04797 0.085077,-0.078633 0.1624454,-0.095711 0.1353049,-0.029866 0.2858168,0.050433 0.3152553,0.1681899 l 0.014594,0.058377 -0.282347,0.7057122 C 2.9606231,4.5823809 2.8736153,4.7865053 2.8492851,4.8121999 c -0.04391,0.046372 -0.1143372,0.07588 -0.1929905,0.080859 -0.050368,0.00319 -0.076891,-0.00167 -0.1292109,-0.023668 z M 3.8845679,4.6647115 C 3.7376823,4.620474 3.6652385,4.4777239 3.7318773,4.3638361 3.7458862,4.3398941 3.8368683,4.2552016 3.9432333,4.1670914 L 4.1299919,4.0123847 3.9330897,3.8465648 C 3.7560655,3.6974849 3.7346551,3.6756044 3.7210068,3.6298257 3.6901338,3.5262735 3.7470498,3.424116 3.8599305,3.3804742 c 0.072471,-0.028019 0.124297,-0.031431 0.2007578,-0.013219 0.042281,0.010071 0.1041223,0.055706 0.3534227,0.2608027 0.1909118,0.1570613 0.3112558,0.2641744 0.3268383,0.2909051 0.031147,0.05343 0.031509,0.131197 8.654e-4,0.185704 -0.014922,0.026543 -0.1341336,0.1326889 -0.3327904,0.2963177 -0.2554276,0.2103891 -0.3182451,0.2569216 -0.3593427,0.266186 -0.062253,0.014034 -0.1128534,0.01328 -0.1651139,-0.00246 z M 1.7337992,4.651191 C 1.6723411,4.6246109 1.1054892,4.1514136 1.079108,4.1046672 1.0484393,4.0503235 1.0487072,3.9724368 1.0797457,3.9192345 1.1134326,3.8614926 1.6805028,3.3926519 1.7427373,3.3710881 c 0.1710815,-0.059279 0.3706778,0.049001 0.3706778,0.2010913 0,0.077023 -0.022918,0.1049511 -0.2250574,0.2742619 L 1.6905333,4.0121379 1.8717979,4.1617982 c 0.099695,0.082313 0.1931693,0.1682715 0.2077193,0.1910185 0.051387,0.080338 0.026636,0.1971969 -0.055191,0.2605806 -0.068278,0.052889 -0.2123036,0.071625 -0.290527,0.037794 z M 2.7980203,2.6828328 C 2.4189714,2.6339406 2.1419364,2.3813562 2.1177504,2.0626023 2.0940675,1.7504794 2.3592138,1.4568645 2.7298777,1.3847508 2.8565503,1.3601068 3.0490572,1.3683618 3.1694819,1.4036018 3.5018704,1.5008698 3.72435,1.7760018 3.7032187,2.0636528 3.6846937,2.3158317 3.5084187,2.5272221 3.230251,2.630841 3.0990573,2.679711 2.9307634,2.699955 2.7980203,2.6828328 Z M 3.007312,2.2326567 C 3.1429698,2.1855987 3.2090113,2.0530042 3.1526169,1.9409214 3.0647479,1.7662835 2.7560861,1.7662835 2.6682171,1.9409214 2.5786171,2.119 2.7959468,2.3059766 3.007312,2.2326567 Z"
       id="path377" />
  </g>
</svg>
