<?xml version="1.0" encoding="UTF-8" standalone="no"?>
<svg
   version="1.1"
   viewBox="0 0 22 22"
   id="svg5767"
   sodipodi:docname="multiProjectOpenRecent.svg"
   inkscape:version="1.2.2 (b0a8486541, 2022-12-01)"
   xmlns:inkscape="http://www.inkscape.org/namespaces/inkscape"
   xmlns:sodipodi="http://sodipodi.sourceforge.net/DTD/sodipodi-0.dtd"
   xmlns="http://www.w3.org/2000/svg"
   xmlns:svg="http://www.w3.org/2000/svg">
  <sodipodi:namedview
     id="namedview5769"
     pagecolor="#ffffff"
     bordercolor="#000000"
     borderopacity="0.25"
     inkscape:showpageshadow="2"
     inkscape:pageopacity="0.0"
     inkscape:pagecheckerboard="0"
     inkscape:deskcolor="#d1d1d1"
     showgrid="false"
     inkscape:zoom="46.681818"
     inkscape:cx="11.449854"
     inkscape:cy="11.235638"
     inkscape:window-width="2580"
     inkscape:window-height="1326"
     inkscape:window-x="861"
     inkscape:window-y="55"
     inkscape:window-maximized="0"
     inkscape:current-layer="svg5767" />
  <defs
     id="defs5755">
    <style
       type="text/css"
       id="style5753">.ColorScheme-Text {
        color:#232629;
      }</style>
  </defs>
  <g
     fill="#232629"
     id="g5763"
     style="fill:#232629;fill-opacity:1">
    <path
       class="ColorScheme-Text"
       d="m2.1875 11.5v1.1875h-1.1875v1.7812h1.1875v3.5625h-1.1875v1.7812h1.1875v1.1875h8.3125v-9.5zm0.59375 0.59375h7.125v1.1875h-7.125v-0.59375zm0 1.7812h7.125v6.5312h-7.125z"
       color="#232629"
       id="path5757"
       style="fill:#232629;fill-opacity:1" />
    <path
       class="ColorScheme-Text"
       d="m2.1875 1v1.1875h-1.1875v1.7812h1.1875v3.5625h-1.1875v1.7812h1.1875v1.1875h8.3125v-9.5zm0.59375 0.59375h7.125v1.1875h-7.125v-0.59375zm0 1.7812h7.125v6.5312h-7.125z"
       color="#232629"
       id="path5759"
       style="fill:#232629;fill-opacity:1" />
    <path
       class="ColorScheme-Text"
       d="m12.688 1v1.1875h-1.1875v1.7812h1.1875v3.5625h-1.1875v1.7812h1.1875v1.1875h8.3125v-9.5zm0.59375 0.59375h7.125v1.1875h-7.125v-0.59375zm0 1.7812h7.125v6.5312h-7.125z"
       color="#232629"
       id="path5761"
       style="fill:#232629;fill-opacity:1" />
  </g>
  <path
     style="color:#232629;fill:#232629;fill-opacity:1;stroke:none;stroke-width:0.75"
     d="M 16.5,12 C 14.014718,12 12,14.014719 12,16.5 12,18.985281 14.014718,21 16.5,21 18.98528,21 21,18.985281 21,16.5 21,14.014719 18.98528,12 16.5,12 Z m 0,0.75 c 2.071067,0 3.749999,1.678932 3.749999,3.75 0,2.071068 -1.678932,3.75 -3.749999,3.75 -2.071068,0 -3.75,-1.678932 -3.75,-3.75 0,-2.071068 1.678932,-3.75 3.75,-3.75 z m -0.75,0.75 v 3 0.75 h 3.749999 V 16.5 H 16.5 v -3 z"
     class="ColorScheme-Text"
     id="path4" />
</svg>
