<?xml version="1.0" encoding="UTF-8" standalone="no"?>
<svg
   viewBox="0 0 22 22"
   version="1.1"
   id="svg6"
   sodipodi:docname="nameOrderError.svg"
   inkscape:version="1.2.2 (b0a8486541, 2022-12-01)"
   xmlns:inkscape="http://www.inkscape.org/namespaces/inkscape"
   xmlns:sodipodi="http://sodipodi.sourceforge.net/DTD/sodipodi-0.dtd"
   xmlns="http://www.w3.org/2000/svg"
   xmlns:svg="http://www.w3.org/2000/svg">
  <sodipodi:namedview
     id="namedview8"
     pagecolor="#ffffff"
     bordercolor="#666666"
     borderopacity="1.0"
     inkscape:showpageshadow="2"
     inkscape:pageopacity="0.0"
     inkscape:pagecheckerboard="0"
     inkscape:deskcolor="#d1d1d1"
     showgrid="false"
     inkscape:zoom="33.772727"
     inkscape:cx="4.8707941"
     inkscape:cy="11"
     inkscape:window-width="2580"
     inkscape:window-height="1080"
     inkscape:window-x="426"
     inkscape:window-y="146"
     inkscape:window-maximized="0"
     inkscape:current-layer="svg6" />
  <defs
     id="defs3051">
    <style
       type="text/css"
       id="current-color-scheme">
      .ColorScheme-Text {
        color:#232629;
      }
      </style>
  </defs>
  <path
     style="fill:currentColor;fill-opacity:1;stroke:none;stroke-width:1.25"
     d="m 6.1196289,1 c -0.97905,0.02275 -1.731382,0.1938859 -2.277832,0.444336 L 4.149414,2.5698242 C 4.4112515,2.4786992 5.4023139,2.1621094 5.9829101,2.1621094 h 0.078125 c 0.8082875,0.034125 0.8666993,0.3285117 0.8666993,1.0229492 V 3.4584961 L 6.5053711,3.5268555 C 4.5472586,3.811468 3.5,4.0504851 3.5,5.5532226 3.5,6.6005851 4.2633882,7.25 5.3676757,7.25 c 0.76275,0 1.2626124,-0.3193531 1.7749024,-0.7519531 l 0.1586914,0.637207 H 8.509766 V 2.9238281 C 8.509766,1.6374031 7.6200325,1 6.2539062,1 Z M 6.9277344,4.347168 V 5.7460937 C 6.5065219,6.0307063 6.1875632,6.2368164 5.6411132,6.2368164 c -0.489525,0 -0.7299805,-0.307146 -0.7299805,-0.7397462 0,-0.8196748 0.7176384,-0.9563178 1.5942384,-1.0815428 z M 14.125,8.241211 13.866211,8.5 9.75,12.616211 10.633789,13.5 13.5,10.633789 V 21 h 1.25 V 10.633789 L 17.616211,13.5 18.5,12.616211 14.383789,8.5 Z M 3.6391601,8.749024 V 9.76709 H 6.2294922 L 3.5,13.836914 V 14.75 H 8.2851563 V 13.685548 H 5.477539 L 8.1948243,9.571777 V 8.749024 Z"
     class="ColorScheme-Text"
     id="path4" />
</svg>
