<?xml version="1.0" encoding="UTF-8" standalone="no"?>
<svg
   version="1.1"
   viewBox="0 0 22 22"
   id="svg10"
   sodipodi:docname="projectSaveAs-remote.svg"
   inkscape:version="1.2.2 (b0a8486541, 2022-12-01)"
   xmlns:inkscape="http://www.inkscape.org/namespaces/inkscape"
   xmlns:sodipodi="http://sodipodi.sourceforge.net/DTD/sodipodi-0.dtd"
   xmlns="http://www.w3.org/2000/svg"
   xmlns:svg="http://www.w3.org/2000/svg">
  <sodipodi:namedview
     id="namedview12"
     pagecolor="#ffffff"
     bordercolor="#000000"
     borderopacity="0.25"
     inkscape:showpageshadow="2"
     inkscape:pageopacity="0.0"
     inkscape:pagecheckerboard="0"
     inkscape:deskcolor="#d1d1d1"
     showgrid="false"
     inkscape:zoom="46.681818"
     inkscape:cx="11.407011"
     inkscape:cy="11.214216"
     inkscape:window-width="2580"
     inkscape:window-height="1274"
     inkscape:window-x="861"
     inkscape:window-y="0"
     inkscape:window-maximized="0"
     inkscape:current-layer="svg10" />
  <defs
     id="defs4">
    <style
       type="text/css"
       id="style2">.ColorScheme-Text {
        color:#eff0f1;
      }</style>
  </defs>
  <g
     id="g2428"
     transform="matrix(0.74999663,0,0,0.74999663,2.7500034,0.25000337)">
    <path
       d="M 3.5,1 V 3.5 H 1 v 3.75 h 2.5 v 7.5 H 1 V 18.5 H 3.5 V 21 H 11 V 19.75 H 4.75 V 6 h 15 v 5 H 21 V 1 Z m 1.25,1.25 h 15 v 2.5 h -15 z"
       color="#eff0f1"
       fill="#232629"
       id="path6" />
    <path
       class="ColorScheme-Text"
       d="m 12,12.5 v 8.4969 h 4.5 V 20.46594 H 14 v -3.186 h 2.5 v -0.531 h -3 v 3.717 h -1 v -7.4339 H 14 v 2.655 h 4 v -2.655 h 0.14648 l 1.3535,1.4374 v 1.7486 h 0.5 v -1.9643 h -0.0039 l 0.0039,-0.0051 -1.6465,-1.7486 -0.0039,0.0051 v -0.0051 h -0.34961 z m 2.5,0.53203 h 1.9502 v 2.124 H 14.5 Z m 5.5,3.717 -0.49805,0.52788 h -0.0019 l -2.5,2.6539 0.0039,0.0051 -0.0019,0.53307 h -0.0019 v 0.531 h 1 l 0.0029,-0.0051 h 0.0068 l -0.0029,-0.0051 0.49316,-0.52374 2,-2.1219 -0.35254,-0.37647 -2.4951,2.6477 -0.29688,-0.31424 2.4961,-2.6488 0.2959,0.31528 0.35254,0.37336 0.49996,-0.531 z"
       color="#eff0f1"
       fill="#232629"
       id="path8" />
  </g>
  <path
     style="color:#232629;fill:currentColor;fill-opacity:1;stroke:none;stroke-width:1.29099"
     d="m 8.4999983,17 v 1.333333 H 1 v 1.333334 H 8.4999983 V 21 h 4.9999987 v -1.333333 h 7.499999 V 18.333333 H 13.499997 V 17 H 8.4999983 m 2.4999997,0.666667 c 0.6925,0 1.25,0.594666 1.25,1.333333 0,0.738667 -0.5575,1.333333 -1.25,1.333333 -0.6925,0 -1.25,-0.594666 -1.25,-1.333333 0,-0.738667 0.5575,-1.333333 1.25,-1.333333"
     class="ColorScheme-Text"
     id="path4"
     sodipodi:nodetypes="ccccccccccccccsssc" />
</svg>
