<?xml version="1.0" encoding="UTF-8" standalone="no"?>
<svg
   fill="none"
   version="1.1"
   viewBox="0 0 22 22"
   id="svg4"
   xmlns="http://www.w3.org/2000/svg">
  <path
     d="M 1.936317,15.000021 C 1.6834172,14.996479 1.4338475,14.94174 1.202645,14.839026 0.97142792,14.736306 0.76337042,14.587761 0.59097562,14.402399 0.25553102,14.096294 0.04749612,13.674906 0.00830122,13.22205 -0.03618957,12.753975 0.09930602,12.286575 0.38713322,11.915177 1.6797572,10.549503 4.22923,7.995529 6.0836784,6.1767056 5.6890964,5.1078065 5.7075313,3.9297076 6.1353857,2.8737084 6.4872103,1.9950842 7.1128598,1.2537097 7.9192591,0.75998511 c 0.6325795,-0.419677 1.3596731,-0.6747144 2.1154479,-0.7420267 0.755775,-0.0673051 1.516273,0.055233 2.212947,0.3565422 l 0.661178,0.2868747 -3.0704978,3.16754729 1.3442988,1.3506738 3.154048,-3.0878972 0.286394,0.6643942 C 14.86447,3.316238 14.992503,3.9188176 14.99968,4.5289421 15.00688,5.1390215 14.893084,5.7444659 14.664858,6.3101155 14.438576,6.869465 14.102465,7.3775896 13.676434,7.8042641 13.435039,8.0408965 13.168257,8.2500189 12.88091,8.4278137 12.286378,8.8255534 11.606135,9.0762855 10.896112,9.1594075 10.185967,9.2425275 9.4663122,9.1556075 8.7962638,8.9059384 7.6199644,10.101212 4.6837169,13.06266 3.0977683,14.545709 2.779626,14.835179 2.3661213,14.996931 1.9363943,14.999938 Z M 10.44056,0.99603251 C 9.7357712,0.99426251 9.0463852,1.2022824 8.4598868,1.5936846 8.231144,1.7335893 8.0187067,1.8986342 7.8265043,2.0857442 7.315335,2.6019312 6.9739801,3.262343 6.8481302,3.9784425 6.7223028,4.6945118 6.8180477,5.4320162 7.122525,6.0920155 L 7.2677024,6.4107578 7.018125,6.6548002 C 5.1557266,8.4756482 2.444179,11.184047 1.1406052,12.56262 c -0.11607,0.173122 -0.16571978,0.382425 -0.139755,0.589252 0.02595,0.206933 0.125745,0.397448 0.2809498,0.536333 0.089445,0.09983 0.1984275,0.18021 0.3201823,0.236025 0.1073174,0.04863 0.2233046,0.07503 0.3410547,0.07771 0.1788298,-0.0045 0.3500472,-0.07353 0.4822495,-0.19416 C 4.1106851,12.23195 7.3671073,8.9369022 8.3226814,7.9686527 L 8.5682843,7.7206243 8.8844835,7.8650592 c 0.5504467,0.2570472 1.1578495,0.3670947 1.7633225,0.3194397 0.60546,-0.047646 1.188299,-0.2513698 1.692,-0.5913746 0.229177,-0.1415398 0.441645,-0.3086096 0.633322,-0.4980371 0.331928,-0.3315671 0.594216,-0.7263218 0.771523,-1.1609989 0.17721,-0.4346846 0.265823,-0.9005242 0.260678,-1.3700239 0,-0.2314722 -0.02292,-0.4623821 -0.06867,-0.6892943 L 11.175379,6.5741676 8.4420068,3.8398951 11.136604,1.0608475 c -0.229283,-0.04465 -0.462428,-0.066341 -0.695999,-0.064742 z"
     fill="#eff0f1"
     stroke-width="1.07235"
     id="path2"
     style="fill:#232629;fill-opacity:1" />
  <path
     d="m 20.063684,7 c 0.252898,0.00354 0.502468,0.058275 0.73367,0.1609939 0.231218,0.10272 0.439274,0.2512651 0.611669,0.4366265 0.335445,0.306105 0.543479,0.7274925 0.582674,1.1803479 0.0445,0.468075 -0.09101,0.9354751 -0.378831,1.3068727 -1.292624,1.365672 -3.842095,3.919643 -5.696541,5.738465 0.394581,1.068898 0.376147,2.246996 -0.05171,3.302997 -0.351825,0.878623 -0.977474,1.619996 -1.783873,2.113721 -0.632579,0.419677 -1.359672,0.674714 -2.115447,0.742026 -0.755773,0.06731 -1.516271,-0.05523 -2.2129444,-0.356541 L 9.0911771,21.338634 12.161671,18.171088 10.817373,16.820415 7.6633292,19.908311 7.3769341,19.243918 c -0.241395,-0.560146 -0.3694275,-1.162726 -0.376605,-1.772849 -0.00729,-0.61008 0.1065965,-1.215523 0.3348225,-1.781173 0.2262826,-0.559348 0.5623929,-1.067473 0.988423,-1.494147 0.241395,-0.236633 0.5081775,-0.445754 0.7955229,-0.623549 0.5945325,-0.39774 1.2747745,-0.648471 1.9847975,-0.731594 0.710144,-0.08311 1.429798,0.0038 2.099847,0.25347 1.176298,-1.195273 4.112544,-4.1567177 5.698491,-5.6397656 0.318141,-0.28947 0.731646,-0.4512204 1.161374,-0.4542279 z m -8.504238,14.003976 c 0.704788,0.0017 1.394173,-0.20625 1.980672,-0.59765 0.228743,-0.139905 0.441179,-0.30495 0.633382,-0.49206 0.51117,-0.516186 0.852524,-1.176599 0.978373,-1.892697 0.125827,-0.71607 0.03008,-1.453573 -0.274394,-2.113573 l -0.145178,-0.318743 0.249578,-0.244041 c 1.862397,-1.820847 4.573942,-4.529242 5.877515,-5.9078136 0.11607,-0.1731225 0.16572,-0.3824251 0.139755,-0.5892526 -0.02595,-0.2069325 -0.125745,-0.3974475 -0.28095,-0.5363325 -0.08945,-0.099825 -0.198427,-0.1802089 -0.320182,-0.2360239 -0.107312,-0.048621 -0.223303,-0.075022 -0.341053,-0.077711 -0.17883,0.0045 -0.350048,0.073521 -0.48225,0.19416 -1.685398,1.5758273 -4.941817,4.8708726 -5.897391,5.8391206 l -0.245602,0.248031 -0.316199,-0.144434 c -0.550448,-0.257047 -1.157849,-0.367094 -1.763322,-0.319439 -0.60546,0.04765 -1.188298,0.251369 -1.6919979,0.591373 -0.2291775,0.14154 -0.441645,0.30861 -0.6333214,0.498038 -0.3319276,0.331567 -0.5942165,0.72632 -0.771524,1.160998 -0.17721,0.434685 -0.2658225,0.900522 -0.2606775,1.370022 0,0.231473 0.022928,0.462383 0.068679,0.689293 l 2.7612688,-2.699397 2.733371,2.73427 -2.694596,2.779047 c 0.229283,0.04465 0.462428,0.06633 0.695999,0.06474 z"
     fill="#eff0f1"
     stroke-width="1.07235"
     id="path2-3"
     style="fill:#232629;fill-opacity:1" />
</svg>
