<?xml version="1.0" encoding="UTF-8" standalone="no"?>
<svg
   version="1.1"
   viewBox="0 0 96 96"
   id="svg8"
   sodipodi:docname="sbChart96.svg"
   width="96"
   height="96"
   inkscape:version="1.2.2 (b0a8486541, 2022-12-01)"
   xmlns:inkscape="http://www.inkscape.org/namespaces/inkscape"
   xmlns:sodipodi="http://sodipodi.sourceforge.net/DTD/sodipodi-0.dtd"
   xmlns="http://www.w3.org/2000/svg"
   xmlns:svg="http://www.w3.org/2000/svg">
  <sodipodi:namedview
     id="namedview10"
     pagecolor="#ffffff"
     bordercolor="#000000"
     borderopacity="0.25"
     inkscape:showpageshadow="2"
     inkscape:pageopacity="0.0"
     inkscape:pagecheckerboard="0"
     inkscape:deskcolor="#d1d1d1"
     showgrid="false"
     inkscape:zoom="11.670455"
     inkscape:cx="46.484907"
     inkscape:cy="47.256086"
     inkscape:window-width="2111"
     inkscape:window-height="1368"
     inkscape:window-x="637"
     inkscape:window-y="0"
     inkscape:window-maximized="0"
     inkscape:current-layer="svg8" />
  <defs
     id="defs4">
    <style
       type="text/css"
       id="style2">.ColorScheme-Text {
        color:#232629;
      }
      .ColorScheme-Highlight {
        color:#3daee9;
      }</style>
  </defs>
  <path
     class="ColorScheme-Text"
     d="M 11.25,6.0001575 V 79.50002 H 6 v 5.24999 h 5.25 V 90 H 16.5 V 84.75001 H 90 v -5.24999 h -1.538093 l -18.775049,-18.775015 -0.02048,0.02047 -0.03097,-0.02047 -11.14575,11.145729 -21.64575,-21.645709 h -20.34375 v -7.474936 h 20.34375 l 21.64575,-21.64571 11.14575,11.145729 0.03097,-0.02047 0.02048,0.02047 20.312774,-20.312737 -3.711907,-3.7119002 -16.6215,16.6214692 -11.16675,-11.156229 -0.0105,0.01024 -0.0105,-0.01024 -8.018325,8.01831 H 16.49895 V 6 h -5.25 z M 16.5,21.750128 h 33.919725 l -15.75,15.74997 H 16.5 Z m 0,33.724887 h 18.169725 l 15.75,15.74997 H 16.5 Z M 69.66675,68.128541 81.03825,79.50002 H 16.5 v -8.234085 h 33.9612 l 8.018325,8.01831 0.0105,-0.0105 0.0105,0.0105 11.16675,-11.156229 z"
     fill="#eff0f1"
     id="path6"
     style="stroke-width:5.25" />
</svg>
