<?xml version="1.0" encoding="UTF-8" standalone="no"?>
<svg
   xmlns:dc="http://purl.org/dc/elements/1.1/"
   xmlns:cc="http://creativecommons.org/ns#"
   xmlns:rdf="http://www.w3.org/1999/02/22-rdf-syntax-ns#"
   xmlns:svg="http://www.w3.org/2000/svg"
   xmlns="http://www.w3.org/2000/svg"
   xmlns:sodipodi="http://sodipodi.sourceforge.net/DTD/sodipodi-0.dtd"
   xmlns:inkscape="http://www.inkscape.org/namespaces/inkscape"
   viewBox="0 0 36 96"
   version="1.1"
   id="svg6"
   sodipodi:docname="sbDotsh96.svg"
   inkscape:version="0.92.0 r15299"
   width="36"
   height="96">
  <metadata
     id="metadata10">
    <rdf:RDF>
      <cc:Work
         rdf:about="">
        <dc:format>image/svg+xml</dc:format>
        <dc:type
           rdf:resource="http://purl.org/dc/dcmitype/StillImage" />
        <dc:title></dc:title>
      </cc:Work>
    </rdf:RDF>
  </metadata>
  <sodipodi:namedview
     pagecolor="#ffffff"
     bordercolor="#666666"
     borderopacity="1"
     objecttolerance="10"
     gridtolerance="10"
     guidetolerance="10"
     inkscape:pageopacity="0"
     inkscape:pageshadow="2"
     inkscape:window-width="1638"
     inkscape:window-height="1189"
     id="namedview8"
     showgrid="false"
     inkscape:zoom="7.8997086"
     inkscape:cx="42.108537"
     inkscape:cy="41.16976"
     inkscape:window-x="0"
     inkscape:window-y="0"
     inkscape:window-maximized="0"
     inkscape:current-layer="svg6" />
  <defs
     id="defs3051">
    <style
       type="text/css"
       id="current-color-scheme">
      .ColorScheme-Text {
        color:#232629;
      }
      </style>
  </defs>
  <g
     id="g44"
     transform="rotate(-90,48,48)">
    <path
       inkscape:connector-curvature="0"
       id="path4"
       d="M 6.0274765,18.576229 C 6.0215775,27.5822 17.586699,33.300678 24.821463,27.907576 32.430977,23.258438 31.433651,10.757407 23.278384,7.2393439 15.307845,3.1722069 5.4104916,9.6772929 6.0274765,18.576229 Z m 5.7290345,-0.91844 c -0.03931,-6.419372 9.92938,-8.1289271 12.097799,-2.114081 3.055773,6.142636 -6.142615,11.978797 -10.470766,6.684571 -1.13452,-1.222997 -1.728507,-2.911011 -1.627033,-4.57049 z"
       style="color:#232629;fill:#eff0f1;fill-opacity:1;stroke:none;stroke-width:2.28622389" />
    <path
       inkscape:connector-curvature="0"
       id="path4-9"
       d="M 36.027477,18.576229 C 36.021579,27.5822 47.586699,33.300678 54.821463,27.907575 62.430977,23.258438 61.433651,10.757407 53.278384,7.239344 45.307845,3.172207 35.410492,9.677293 36.027477,18.576229 Z m 5.729034,-0.91844 c -0.03931,-6.419372 9.92938,-8.128927 12.097799,-2.114081 3.055773,6.142636 -6.142615,11.978796 -10.470766,6.684571 -1.13452,-1.222998 -1.728507,-2.911011 -1.627033,-4.57049 z"
       style="color:#232629;fill:#eff0f1;fill-opacity:1;stroke:none;stroke-width:2.28622389" />
    <path
       inkscape:connector-curvature="0"
       id="path4-8"
       d="M 66.027477,18.576229 C 66.021579,27.5822 77.586699,33.300678 84.821463,27.907575 92.430977,23.258438 91.433651,10.757407 83.278384,7.239344 75.307845,3.172207 65.410492,9.677293 66.027477,18.576229 Z m 5.729034,-0.91844 c -0.03931,-6.419372 9.92938,-8.128927 12.097799,-2.114081 3.055773,6.142636 -6.142615,11.978796 -10.470766,6.684571 -1.13452,-1.222998 -1.728507,-2.911011 -1.627033,-4.57049 z"
       style="color:#232629;fill:#eff0f1;fill-opacity:1;stroke:none;stroke-width:2.28622389" />
  </g>
</svg>
