<?xml version="1.0" encoding="UTF-8" standalone="no"?>
<svg
   xmlns:dc="http://purl.org/dc/elements/1.1/"
   xmlns:cc="http://creativecommons.org/ns#"
   xmlns:rdf="http://www.w3.org/1999/02/22-rdf-syntax-ns#"
   xmlns:svg="http://www.w3.org/2000/svg"
   xmlns="http://www.w3.org/2000/svg"
   xmlns:sodipodi="http://sodipodi.sourceforge.net/DTD/sodipodi-0.dtd"
   xmlns:inkscape="http://www.inkscape.org/namespaces/inkscape"
   viewBox="0 0 96 96"
   version="1.1"
   id="svg6"
   sodipodi:docname="sbFind96.svg"
   inkscape:version="1.0.2 (e86c870879, 2021-01-15)"
   width="96"
   height="96">
  <metadata
     id="metadata10">
    <rdf:RDF>
      <cc:Work
         rdf:about="">
        <dc:format>image/svg+xml</dc:format>
        <dc:type
           rdf:resource="http://purl.org/dc/dcmitype/StillImage" />
        <dc:title></dc:title>
      </cc:Work>
    </rdf:RDF>
  </metadata>
  <sodipodi:namedview
     pagecolor="#ffffff"
     bordercolor="#666666"
     borderopacity="1"
     objecttolerance="10"
     gridtolerance="10"
     guidetolerance="10"
     inkscape:pageopacity="0"
     inkscape:pageshadow="2"
     inkscape:window-width="1638"
     inkscape:window-height="1189"
     id="namedview8"
     showgrid="false"
     inkscape:zoom="7.8997086"
     inkscape:cx="42.108537"
     inkscape:cy="41.16976"
     inkscape:window-x="0"
     inkscape:window-y="0"
     inkscape:window-maximized="0"
     inkscape:current-layer="svg6" />
  <defs
     id="defs3051">
    <style
       type="text/css"
       id="current-color-scheme">
      .ColorScheme-Text {
        color:#232629;
      }
      </style>
  </defs>
  <path
     style="fill:#eff0f1;fill-opacity:1;stroke:none;stroke-width:6.99886"
     d="M 37.5,6 C 20.049,6 6,20.065422 6,37.48975 6,54.935072 20.07,68.9795 37.5,68.9795 c 7.445501,0 14.184387,-2.667525 19.564454,-6.956722 L 85.050783,90 90,85.052393 62.013671,57.075171 C 66.323228,51.688464 69,44.94469 69,37.48975 69,20.044429 54.93,6 37.5,6 Z m 0,6.997722 c 13.573,0 24.5,10.923445 24.5,24.492028 C 62,51.058334 51.073,61.981778 37.5,61.981778 23.927,61.981778 13,51.058334 13,37.48975 13,23.921167 23.927,12.997722 37.5,12.997722 Z"
     class="ColorScheme-Text"
     id="path4" />
</svg>
