<?xml version="1.0" encoding="UTF-8" standalone="no"?>
<svg
   viewBox="0 0 22 22"
   version="1.1"
   id="svg6642"
   sodipodi:docname="securityKey.svg"
   inkscape:version="1.2.2 (b0a8486541, 2022-12-01)"
   xmlns:inkscape="http://www.inkscape.org/namespaces/inkscape"
   xmlns:sodipodi="http://sodipodi.sourceforge.net/DTD/sodipodi-0.dtd"
   xmlns="http://www.w3.org/2000/svg"
   xmlns:svg="http://www.w3.org/2000/svg">
  <sodipodi:namedview
     id="namedview6644"
     pagecolor="#ffffff"
     bordercolor="#000000"
     borderopacity="0.25"
     inkscape:showpageshadow="2"
     inkscape:pageopacity="0.0"
     inkscape:pagecheckerboard="0"
     inkscape:deskcolor="#d1d1d1"
     showgrid="false"
     inkscape:zoom="46.681818"
     inkscape:cx="10.978578"
     inkscape:cy="11.578384"
     inkscape:window-width="1696"
     inkscape:window-height="1286"
     inkscape:window-x="0"
     inkscape:window-y="95"
     inkscape:window-maximized="0"
     inkscape:current-layer="svg6642" />
  <defs
     id="defs3051">
    <style
       type="text/css"
       id="current-color-scheme">
      .ColorScheme-Text {
        color:#232629;
      }
      .ColorScheme-NegativeText {
        color:#da4453;
      }
      </style>
  </defs>
  <path
     style="fill:currentColor;fill-opacity:1;stroke:none;stroke-width:1.25"
     d="M 11,1 C 11,1 8.5,4.3218985 1,5.1552735 1,5.1552735 1,16.822625 11,21 21,16.822625 21,5.1552735 21,5.1552735 13.5,4.3218985 11,1 11,1 Z m 0,1.7211914 c 1.983744,1.680875 4.84645,2.8021992 8.557129,3.3666992 -0.201574,1.8065 -0.394844,3.1659805 -0.861817,4.4799804 -0.981362,2.761375 -2.125593,4.441289 -3.151855,5.649414 C 13.953173,18.08941 12.50899,18.847074 11,19.601074 9.49101,18.847074 8.0468268,18.08941 6.456543,16.217285 5.4302818,15.00916 4.28605,13.329246 3.3046875,10.567871 2.837715,9.2538711 2.6444449,7.8943906 2.4428711,6.0878906 6.1535499,5.5233906 9.0162563,4.4020664 11,2.7211914 Z"
     class="ColorScheme-Text"
     id="path6637" />
  <g
     id="g4764"
     transform="matrix(0.68800376,0,0,0.68808798,-219.8492,-364.76725)">
    <path
       style="fill:#51db51;fill-opacity:1"
       d="m 13.734375,3.0214844 c -2.89753,0 -5.2460938,2.3471175 -5.2460938,5.2421875 0,0.78688 0.1780513,1.5297787 0.4882813,2.1992191 l -0.8964844,1.0625 -0.078125,0.996093 c -0.00799,0.0074 -0.9785156,0.03711 -0.9785156,0.03711 l -0.4980469,0.361328 c 0,0 0.00205,1.086865 -0.00195,1.072266 L 5.4550781,14.009766 5.0039062,14.525391 4.9941406,15.5 c 0,0 -0.922225,-0.06051 -1.015625,0.02539 l 0.00195,0.002 c -0.5889901,0.54252 -0.9863282,0.929687 -0.9863282,0.929687 l 0.00391,2.548828 0.5,-0.002 6.7929696,-6.792968 c 0.456666,0.39786 0.985818,0.711139 1.560546,0.933593 0.585766,0.227934 1.218413,0.361328 1.884765,0.361328 2.89804,0 5.246094,-2.34855 5.246094,-5.2441402 0,-2.8950801 -2.348917,-5.2409244 -5.248047,-5.2402334 z m 1.001953,2.4960937 c 0.96567,0 1.748047,0.78431 1.748047,1.75 0,0.96568 -0.782377,1.7480469 -1.748047,1.7480469 -0.96619,0 -1.75,-0.7823669 -1.75,-1.7480469 0,-0.96569 0.78381,-1.75 1.75,-1.75 z"
       transform="translate(326,534.3622)"
       id="path5" />
    <path
       style="opacity:0.5;fill:#51db51;fill-opacity:1"
       d="m 14.736328,5.5175781 c -0.96619,0 -1.75,0.78431 -1.75,1.75 0,0.96568 0.78381,1.7480469 1.75,1.7480469 0.96567,0 1.748047,-0.7823669 1.748047,-1.7480469 0,-0.96569 -0.782377,-1.75 -1.748047,-1.75 z m 0,1 c 0.41361,0 0.748047,0.33588 0.748047,0.75 0,0.41362 -0.334387,0.7480469 -0.748047,0.7480469 -0.41368,0 -0.75,-0.3344269 -0.75,-0.7480469 0,-0.41412 0.33632,-0.75 0.75,-0.75 z m -4.445312,5.6933599 -6.7968754,6.796874 h 2.4980469 l 5.9335935,-5.828124 c -0.60498,-0.223331 -1.157655,-0.553081 -1.634765,-0.96875 z"
       transform="translate(326,534.3622)"
       id="path7" />
  </g>
</svg>
