<?xml version="1.0" encoding="UTF-8" standalone="no"?>
<svg
   fill="none"
   version="1.1"
   viewBox="0 0 16 16"
   id="svg1551"
   sodipodi:docname="syntaxError.svg"
   inkscape:version="1.2.2 (b0a8486541, 2022-12-01)"
   xmlns:inkscape="http://www.inkscape.org/namespaces/inkscape"
   xmlns:sodipodi="http://sodipodi.sourceforge.net/DTD/sodipodi-0.dtd"
   xmlns="http://www.w3.org/2000/svg"
   xmlns:svg="http://www.w3.org/2000/svg">
  <defs
     id="defs1555" />
  <sodipodi:namedview
     id="namedview1553"
     pagecolor="#ffffff"
     bordercolor="#000000"
     borderopacity="0.25"
     inkscape:showpageshadow="2"
     inkscape:pageopacity="0.0"
     inkscape:pagecheckerboard="0"
     inkscape:deskcolor="#d1d1d1"
     showgrid="false"
     inkscape:zoom="46.4375"
     inkscape:cx="8.0215343"
     inkscape:cy="8.0215343"
     inkscape:window-width="1432"
     inkscape:window-height="928"
     inkscape:window-x="542"
     inkscape:window-y="375"
     inkscape:window-maximized="0"
     inkscape:current-layer="svg1551" />
  <g
     transform="matrix(1.0057 0 0 1.0258 -.0057471 -.025784)"
     fill="#eff0f1"
     id="g1549"
     style="stroke:#da4453;stroke-opacity:1;stroke-width:0.11420692;stroke-dasharray:none">
    <path
       d="m3.02 8.5017-0.00271-0.04081c8.7e-4 0.01361 0.00178 0.02722 0.00271 0.04081z"
       id="path1543"
       style="stroke:#da4453;stroke-opacity:1;stroke-width:0.11420692;stroke-dasharray:none" />
    <path
       d="m7.2577 8.9047-1.7701-1.7791 0.59162-0.59161 1.8718 1.8812 1.8451-1.8451 0.59165 0.5916-1.77 1.77 1.7701 1.7791-0.59161 0.5916-1.8717-1.8813-1.8451 1.8451-0.59161-0.5916z"
       id="path1545"
       style="stroke:#da4453;stroke-opacity:1;stroke-width:0.11420692;stroke-dasharray:none" />
    <path
       d="m10.878 3.9183v0.58167h0.7849l1.6579-1.6579 0.5916 0.59161-1.5698 1.5698 0.0189 0.04949c0.3304 0.86212 0.5165 1.8351 0.5165 2.8653 0 0.1957-0.0067 0.38933-0.0199 0.58053l-3e-3 0.04364h2.0654v0.83666h-2.1705l-0.0061 0.03349c-0.1764 0.96445-0.5195 1.8438-0.9869 2.5838l-0.0347 0.0551 1.9964 2.0065-0.5931 0.5901-1.9098-1.9194-0.0577 0.0645c-0.8627 0.965-1.9806 1.5435-3.1984 1.5435-1.2367 0-2.3704-0.5966-3.2384-1.5887l-0.05749-0.0657-1.8717 1.8717-0.59162-0.5916 1.9632-1.9632-0.03399-0.055c-0.45068-0.729-0.782-1.5897-0.95424-2.5316l-0.00612-0.03349h-2.1688v-0.83666h2.0637l-3e-3 -0.04364c-0.01315-0.1912-0.01986-0.38483-0.01986-0.58053 0-1.0167 0.18128-1.9778 0.50362-2.8315l0.01857-0.04919-1.6109-1.619 0.59311-0.59012 1.6631 1.6715h0.83249v-0.58167c0-1.6118 1.3066-2.9183 2.9183-2.9183s2.9183 1.3066 2.9183 2.9183zm-5 0v0.58167h4.1633v-0.58167c0-1.1497-0.93196-2.0817-2.0816-2.0817s-2.0817 0.93199-2.0817 2.0817zm5.7163 1.4712-0.0199-0.0529h-7.2295l-0.0199 0.0529c-0.28341 0.75313-0.44701 1.6105-0.44701 2.5288 0 1.6099 0.50298 3.0339 1.274 4.0363 0.77037 1.0015 1.771 1.5454 2.8076 1.5454s2.0373-0.5439 2.8076-1.5454c0.7711-1.0024 1.274-2.4263 1.274-4.0363 0-0.91822-0.1636-1.7756-0.447-2.5288z"
       clip-rule="evenodd"
       fill-rule="evenodd"
       id="path1547"
       style="fill:#da4453;fill-opacity:1;stroke:#da4453;stroke-opacity:1;stroke-width:0.11420692;stroke-dasharray:none" />
    <path
       style="fill:#da4453;fill-opacity:1;stroke-width:0.116;stroke:#da4453;stroke-opacity:1;stroke-dasharray:none"
       d="m 12.280822,14.04576 c -0.49278,-0.506325 -0.920069,-0.943133 -0.949533,-0.970683 l -0.05357,-0.05009 -0.309115,0.308584 C 10.267851,14.03312 9.4982733,14.457433 8.6463202,14.61398 8.3932086,14.66049 7.8364399,14.67651 7.5758655,14.64478 6.5899112,14.524708 5.6707551,14.029401 4.893171,13.199147 L 4.6827082,12.974428 3.7410849,13.928789 2.7994616,14.883149 2.5102941,14.592218 2.2211266,14.301287 3.0414602,13.465583 c 0.4511835,-0.459637 0.8655516,-0.879311 0.9208181,-0.932609 0.055267,-0.0533 0.1289762,-0.13249 0.1637991,-0.175983 l 0.063314,-0.07908 -0.15246,-0.272374 C 3.7030596,11.409066 3.4683422,10.797364 3.2971758,10.077644 3.2563876,9.9061377 3.2165007,9.7246299 3.2085381,9.6742934 L 3.1940608,9.5827725 H 2.0977034 1.0013459 V 9.1628533 8.7429341 l 1.039031,-1.15e-5 1.0390309,-1.12e-5 7.451e-4,-0.6729363 C 3.0807264,7.5519795 3.0898115,7.3276244 3.1196111,7.0955585 3.1988722,6.4783059 3.3155338,5.9547428 3.4907641,5.4298672 L 3.5867448,5.1423722 3.3600338,4.9022764 C 3.2353428,4.7702236 2.8721591,4.3956931 2.552959,4.0699865 L 1.9725954,3.4777927 2.2625302,3.1870794 2.552465,2.8963661 2.8811572,3.230148 c 0.1807807,0.1835801 0.5584334,0.5687753 0.8392283,0.8559893 l 0.5105361,0.5222072 h 0.417312 0.4173121 l 0.01207,-0.5006729 C 5.0909026,3.5565112 5.1220578,3.3519003 5.2463136,2.9997525 5.6832017,1.7615872 6.8441572,0.96111506 8.1184388,1.0194386 c 0.45277,0.020723 0.7918531,0.1113207 1.2032357,0.3214852 0.674667,0.3446696 1.1976885,0.9607014 1.4458115,1.7029241 0.1128,0.3374248 0.14287,0.5473142 0.155494,1.085358 l 0.01124,0.4791386 h 0.393775 0.393775 l 0.836288,-0.8527166 0.836287,-0.8527168 0.284956,0.298208 0.284956,0.298208 -0.252562,0.2584118 c -0.138909,0.1421265 -0.492353,0.5006729 -0.785431,0.7967698 l -0.53287,0.5383581 0.0989,0.2907133 c 0.183112,0.538254 0.328602,1.1997317 0.400227,1.81965 0.01621,0.1402925 0.02751,0.5024851 0.02772,0.8882875 l 3.51e-4,0.6514102 1.039031,3e-6 1.03903,3.3e-6 V 9.1628533 9.5827725 H 13.904072 12.80949 l -0.05754,0.2780906 c -0.07341,0.3548149 -0.206,0.8169489 -0.330165,1.1508089 -0.139652,0.375497 -0.448187,1.006924 -0.620571,1.270015 l -0.03629,0.05539 1.003939,1.028216 1.00394,1.028215 -0.285831,0.286421 c -0.157207,0.157531 -0.291311,0.286421 -0.298008,0.286421 -0.0067,0 -0.415359,-0.414267 -0.908138,-0.920593 z M 8.46363,13.793322 c 1.1792709,-0.191272 2.232087,-1.07477 2.915399,-2.446532 0.353839,-0.710338 0.576659,-1.4749188 0.683527,-2.3454441 0.05388,-0.438931 0.0538,-1.3984922 -1.72e-4,-1.8196501 -0.06995,-0.5459561 -0.16317,-0.9700287 -0.31952,-1.4535666 -0.09142,-0.2827183 -0.09632,-0.2943808 -0.115601,-0.2750956 -0.0066,0.00662 0.0033,0.048747 0.02207,0.093626 0.06621,0.1584601 0.205193,0.6623373 0.268786,0.974465 0.434605,2.1331237 -0.03645,4.3683414 -1.233095,5.8511404 -0.195338,0.242051 -0.614555,0.63961 -0.8559143,0.811697 -0.3784715,0.269846 -0.8483613,0.473226 -1.3082545,0.566244 -0.2810507,0.05685 -0.9542064,0.03613 -1.2314828,-0.03791 C 6.202411,13.422075 5.2686355,12.573986 4.651276,11.316285 4.4417016,10.889335 4.349319,10.658128 4.2315779,10.265902 3.8381545,8.9553059 3.8117573,7.497825 4.1575854,6.1805272 4.2330724,5.8929889 4.352443,5.5138847 4.3744312,5.4918553 c 0.00624,-0.00625 0.4393538,-0.016462 0.96247,-0.022683 L 6.2880215,5.4578595 5.3183576,5.4530214 4.3486936,5.448183 4.2585156,5.7227456 C 3.7109679,7.3898507 3.7701448,9.314195 4.4178929,10.905442 c 0.6465081,1.588201 1.8051269,2.667715 3.0975849,2.886099 0.2339163,0.03952 0.7099338,0.04042 0.9481522,0.0018 z M 6.730858,10.923284 C 7.0800909,10.570929 7.5012479,10.144342 7.6667626,9.9753135 L 7.9676985,9.667989 8.8901575,10.61596 c 0.5073527,0.521383 0.9338619,0.94797 0.9477987,0.94797 0.013937,0 0.160183,-0.135102 0.3249918,-0.300227 L 10.4626,10.963477 10.250166,10.741496 C 10.133327,10.619407 9.7391343,10.212084 9.3741821,9.8363331 9.0092298,9.4605829 8.7106326,9.1437229 8.7106326,9.1321996 c 0,-0.018032 0.2672357,-0.2943089 1.5372384,-1.5892475 L 10.463801,7.3227816 10.151185,7.0081107 9.8385695,6.6934398 8.9144693,7.6337899 7.990369,8.5741401 7.720704,8.2978371 C 6.7179818,7.2704336 6.128216,6.6756393 6.1122205,6.6756393 c -0.010222,0 -0.1533799,0.1350534 -0.3181293,0.3001189 l -0.2995443,0.3001186 0.082068,0.092883 c 0.045137,0.051085 0.4392816,0.4581448 0.875876,0.9045763 0.4365943,0.4464316 0.793808,0.8220681 0.793808,0.8347478 0,0.01268 -0.3918387,0.4222059 -0.870753,0.9100581 -0.6685437,0.681022 -0.8664764,0.894647 -0.8523376,0.919911 0.010128,0.0181 0.1427475,0.165446 0.2947096,0.327438 0.1519621,0.161993 0.2766721,0.295412 0.2771332,0.296486 4.608e-4,0.0011 0.2865742,-0.286338 0.6358069,-0.638693 z M 10.110187,4.2799462 C 10.109868,3.6871253 10.054105,3.391515 9.8735649,3.025572 9.6074627,2.4861996 9.102754,2.0699119 8.5275908,1.9154022 8.267739,1.8455966 7.8573218,1.8349526 7.5864963,1.8909955 6.9406146,2.02465 6.3957872,2.4533483 6.1111162,3.051901 5.9491237,3.3925084 5.9089869,3.5949254 5.8953652,4.1399731 l -0.011705,0.4683714 h 2.1133517 2.1133511 l -1.72e-4,-0.3283983 z"
       id="path1307"
       transform="matrix(0.99433231,0,0,0.9748489,0.00571453,0.0251355)" />
    <path
       style="fill:#da4453;fill-opacity:1;stroke-width:0.116;stroke:#da4453;stroke-opacity:1;stroke-dasharray:none"
       d="M 5.9388987,4.1184388 C 5.9540795,3.5665119 5.9818592,3.4101082 6.1144076,3.1302958 6.2405962,2.863909 6.3423107,2.7143666 6.5345016,2.5126666 6.9631967,2.0627609 7.549639,1.8450535 8.1884253,1.8986739 c 0.4582592,0.038467 0.8625893,0.2209417 1.2057064,0.5441376 0.3159268,0.2975841 0.4851611,0.5835128 0.6125803,1.0349812 0.03426,0.1214068 0.04484,0.2439789 0.05434,0.6298789 l 0.0118,0.4791386 H 7.9994325 5.9260161 Z"
       id="path1309"
       transform="matrix(0.99433231,0,0,0.9748489,0.00571453,0.0251355)" />
  </g>
  <path
     style="fill:#da4453;stroke-width:0.0312463;stroke:#da4453;stroke-opacity:1"
     d="M 5.9278531,4.0969044 C 5.9395103,3.5261348 5.9645535,3.4003933 6.1369353,3.0471063 6.4920966,2.3192228 7.1996819,1.8734859 8,1.8734859 c 1.0071287,0 1.8527834,0.7122067 2.044278,1.7216814 0.02321,0.1223619 0.03378,0.3053944 0.03378,0.5848697 V 4.5868102 H 7.9979547 5.9178475 Z"
     id="path1557" />
  <path
     style="fill:#da4453;stroke-width:0.0312463;stroke:#da4453;stroke-opacity:1"
     d="M 7.4985826,13.77018 C 6.3241025,13.5556 5.287698,12.664845 4.6183904,11.294751 3.9496019,9.9257193 3.7406289,8.2957207 4.0289608,6.6971736 4.0982105,6.3132448 4.2514542,5.7536993 4.3607031,5.4858681 4.3752572,5.4501877 4.5688909,5.448183 8.0007567,5.448183 h 3.6246813 l 0.0465,0.1238224 c 0.02557,0.068102 0.07859,0.2352624 0.117818,0.371467 0.530371,1.8416398 0.357654,3.8737232 -0.464665,5.4669806 -0.492496,0.95422 -1.178263,1.678158 -1.963818,2.073128 -0.2239218,0.112585 -0.6217268,0.244102 -0.8659826,0.286299 -0.2369798,0.04094 -0.773384,0.0411 -0.9967068,2.99e-4 z M 10.152206,11.263678 10.451884,10.963425 9.9150404,10.412446 C 9.6197763,10.109407 9.2198221,9.6971017 9.0262536,9.4962113 L 8.6743106,9.1309556 9.5538444,8.236138 C 10.037588,7.7439884 10.435833,7.3343788 10.438834,7.3258946 c 0.003,-0.00848 -0.130278,-0.1509001 -0.296176,-0.3164798 L 9.841027,6.7083607 9.6282827,6.923494 C 9.5112734,7.0418172 9.0975653,7.4632571 8.7089314,7.8600269 8.3202974,8.2567968 7.9969559,8.5814266 7.9903948,8.5814266 c -0.00656,0 -0.428298,-0.4263795 -0.9371934,-0.94751 C 6.544306,7.112786 6.1226741,6.6839514 6.1162418,6.6809507 6.1098095,6.6779501 5.9698941,6.8104059 5.8053185,6.9752971 L 5.5060901,7.2750993 5.6655619,7.4472696 c 0.087709,0.094694 0.4876507,0.507243 0.888758,0.9167765 l 0.7292865,0.744606 -0.8800267,0.8958989 c -0.4840146,0.492745 -0.8824048,0.902248 -0.8853116,0.910008 -0.00291,0.0078 0.1279142,0.15307 0.2907133,0.322912 l 0.2959984,0.308804 0.3660835,-0.373459 C 6.6724092,10.967413 7.0916555,10.541348 7.4027219,10.226005 L 7.968297,9.6526542 8.8984162,10.608292 c 0.5115654,0.525601 0.9355176,0.955638 0.9421157,0.955638 0.0066,0 0.1468516,-0.135114 0.3116741,-0.300252 z"
     id="path1559" />
</svg>
