<?xml version="1.0" encoding="UTF-8" standalone="no"?>
<svg
   version="1.1"
   viewBox="0 0 22 22"
   id="svg42"
   sodipodi:docname="themeExport.svg"
   width="22"
   height="22"
   inkscape:version="1.1.1 (3bf5ae0d25, 2021-09-20)"
   xmlns:inkscape="http://www.inkscape.org/namespaces/inkscape"
   xmlns:sodipodi="http://sodipodi.sourceforge.net/DTD/sodipodi-0.dtd"
   xmlns="http://www.w3.org/2000/svg"
   xmlns:svg="http://www.w3.org/2000/svg">
  <sodipodi:namedview
     id="namedview44"
     pagecolor="#ffffff"
     bordercolor="#666666"
     borderopacity="1.0"
     inkscape:pageshadow="2"
     inkscape:pageopacity="0.0"
     inkscape:pagecheckerboard="0"
     showgrid="false"
     width="22px"
     inkscape:zoom="19.6875"
     inkscape:cx="24.101587"
     inkscape:cy="16"
     inkscape:window-width="1828"
     inkscape:window-height="1080"
     inkscape:window-x="28"
     inkscape:window-y="31"
     inkscape:window-maximized="0"
     inkscape:current-layer="svg42" />
  <defs
     id="defs22">
    <linearGradient
       id="f"
       x2="0"
       y1="543.79999"
       y2="502.66"
       gradientTransform="matrix(0.45833562,0,0,0.45369932,-176.26125,-227.05679)"
       gradientUnits="userSpaceOnUse">
      <stop
         stop-color="#c6cdd1"
         offset="0"
         id="stop2" />
      <stop
         stop-color="#e0e5e7"
         offset="1"
         id="stop4" />
    </linearGradient>
    <linearGradient
       id="e"
       x1="391.57001"
       x2="406.57001"
       y1="525.79999"
       y2="540.79999"
       gradientUnits="userSpaceOnUse"
       gradientTransform="matrix(0.6875,0,0,0.71428464,-264.39187,-368.85658)">
      <stop
         offset="0"
         id="stop7" />
      <stop
         stop-opacity="0"
         offset="1"
         id="stop9" />
    </linearGradient>
    <linearGradient
       id="g"
       x1="393.41"
       x2="407.41"
       y1="526.65002"
       y2="526.65002"
       gradientTransform="matrix(0.6875,0,0,0.7142775,-269.81551,-370.84319)"
       gradientUnits="userSpaceOnUse">
      <stop
         stop-color="#2e3436"
         offset="0"
         id="stop12" />
      <stop
         stop-color="#555753"
         offset="1"
         id="stop14" />
    </linearGradient>
    <linearGradient
       id="h"
       x1="392.57001"
       x2="407.57001"
       y1="521.79999"
       y2="536.79999"
       gradientTransform="matrix(0.6875,0,0,0.71428464,-269.92059,-368.09756)"
       gradientUnits="userSpaceOnUse">
      <stop
         offset="0"
         id="stop17" />
      <stop
         stop-opacity="0"
         offset="1"
         id="stop19" />
    </linearGradient>
  </defs>
  <rect
     x="1.00354e-05"
     y="0.99999785"
     width="22"
     height="19.999969"
     rx="0"
     fill="url(#f)"
     id="rect24"
     style="fill:url(#f);stroke-width:0.700764" />
  <path
     d="m 0.687505,19.571407 20.625,-14.2856926 0.6875,0.7142847 -7e-6,14.9999779 -19.9374999,2.1e-5 z"
     fill="url(#e)"
     fill-rule="evenodd"
     opacity="0.2"
     id="path26"
     style="fill:url(#e);stroke-width:0.700764" />
  <rect
     x="1.00354e-05"
     y="0.99999785"
     width="22"
     height="2.8571386"
     fill="#566069"
     id="rect28"
     style="stroke-width:0.700764" />
  <rect
     x="1.00354e-05"
     y="3.8571365"
     width="22"
     height="0.71428466"
     fill="#3daee9"
     id="rect30"
     style="stroke-width:0.700764" />
  <rect
     x="0.68751001"
     y="5.2857056"
     width="20.625"
     height="14.285693"
     fill="#ffffff"
     id="rect32"
     style="stroke-width:0.700764" />
  <rect
     x="19.93751"
     y="1.7142825"
     width="1.375"
     height="1.4285693"
     rx="0.6875"
     fill="#eff0f1"
     id="rect34"
     style="stroke-width:0.700764" />
  <g
     id="g6661">
    <path
       d="M 10.187947,5.4300882 C 10.655282,5.9201446 9.322385,8.095441 7.209697,10.290581 6.391985,11.139722 5.537972,11.905793 4.772578,12.476649 l 4.824119,4.996278 h 6.1875 l 0.683719,-5.51842 z m -6.770225,5.6068488 -0.0121,0.0098 0.00275,0.0029 0.00942,-0.01257 z m 0.093995,0.121371 1.170881,1.224855 C 4.472395,11.820293 4.0509164,11.381522 3.511717,11.158308 Z m 0.4780256,1.156498 c 0.2901938,0.277557 0.2752682,0.672635 0.2752682,0.931928 0,0.834427 -1.2012,2.085639 -3.60937498,2.085639 L 2.7217108,17.472942 H 8.909211 Z"
       fill="url(#h)"
       opacity="0.25"
       id="path36"
       style="fill:url(#h);stroke-width:0.700764" />
    <path
       d="M 9.9875614,5.3371745 A 1.2258419,5.520681 43.78975 0 0 5.5089804,8.5232413 1.2258419,5.520681 43.78975 0 0 3.3777302,11.094094 c 0.6472812,0.21415 1.1520442,0.73857 1.3581562,1.411141 A 1.2258419,5.520681 43.78975 0 0 7.2101984,10.29081 1.2258419,5.520681 43.78975 0 0 10.187348,5.4298886 1.2258419,5.520681 43.78975 0 0 9.9876234,5.3371026 M 3.0617483,11.997378 c -2.40611248,0.669885 -0.6015419,2.252497 -2.40611248,3.334995 2.40817498,0 3.60923748,-1.250569 3.60923748,-2.084996 0,-0.415564 0.040631,-1.180927 -1.2030563,-1.249999 z"
       fill="url(#g)"
       id="path38"
       style="fill:url(#g);stroke-width:0.700764" />
  </g>
  <path
     class="ColorScheme-Text"
     d="M 11.5,10.000083 V 20 h 10 V 11.901067 L 19.599,10 h -7.265583 z m 0.833333,0.833327 H 14 v 3.333305 h 5 V 10.83341 h 0.234375 l 1.432333,1.432321 v 6.900943 h -0.833333 v -3.333306 h -6.692667 v 3.333306 h -0.807291 z m 2.5,0 h 1.5885 v 2.499979 h -1.5885 z M 14,16.666695 h 5 v 2.499979 h -5 z"
     color="#eff0f1"
     id="path8"
     style="color:#eff0f1;fill:#424645;fill-opacity:1;stroke-width:0.83333" />
</svg>
