<?xml version='1.0' encoding='utf-8'?>
<svg xmlns="http://www.w3.org/2000/svg" id="pure_smill_no_javascript" version="1.1" x="0px" y="0px" width="515.76923" height="156.8541" viewBox="0 0 515.76924 305.22959">
  <defs id="defs82" />
  
  <defs id="defs83" />
  
  <g id="g1852" transform="translate(-1444.8213,-217.91024)">
    <g id="g1">
      <path d="M 1370.351296 320.440659 L 1358.953525 320.440659 L 1364.417625 311.134614 L 1380.297666 311.134614 L 1380.297666 377.045320 L 1370.351296 377.045320 Z" id="text12_path" fill="#fb3d0f" stroke-width="36.4275" /><path d="M 1399.080580 343.663084 Q 1399.080580 327.911108 1406.422965 318.519686 Q 1412.996960 310.024718 1422.345694 310.024718 Q 1431.694427 310.024718 1438.268423 318.519686 Q 1445.610807 327.911108 1445.610807 344.089967 Q 1445.610807 360.226137 1438.268423 369.617559 Q 1431.694427 378.112527 1422.388382 378.112527 Q 1413.082337 378.112527 1406.422965 369.617559 Q 1399.080580 360.226137 1399.080580 343.663084 Z M 1408.856197 343.705772 Q 1408.856197 354.676661 1412.655454 361.933668 Q 1416.454711 369.062611 1422.345694 369.062611 Q 1428.193988 369.062611 1432.035934 361.933668 Q 1435.877879 354.847414 1435.877879 344.047279 Q 1435.877879 333.247143 1432.035934 326.118200 Q 1428.193988 319.031946 1422.345694 319.031946 Q 1416.540088 319.031946 1412.698142 326.118200 Q 1408.856197 333.161767 1408.856197 343.705772 Z" id="text11_path" fill="#fb3d0f" stroke-width="36.4275" /><path d="M 1453.038580 343.663084 Q 1453.038580 327.911108 1460.380965 318.519686 Q 1466.954960 310.024718 1476.303694 310.024718 Q 1485.652427 310.024718 1492.226423 318.519686 Q 1499.568807 327.911108 1499.568807 344.089967 Q 1499.568807 360.226137 1492.226423 369.617559 Q 1485.652427 378.112527 1476.346382 378.112527 Q 1467.040337 378.112527 1460.380965 369.617559 Q 1453.038580 360.226137 1453.038580 343.663084 Z M 1462.814197 343.705772 Q 1462.814197 354.676661 1466.613454 361.933668 Q 1470.412711 369.062611 1476.303694 369.062611 Q 1482.151988 369.062611 1485.993934 361.933668 Q 1489.835879 354.847414 1489.835879 344.047279 Q 1489.835879 333.247143 1485.993934 326.118200 Q 1482.151988 319.031946 1476.303694 319.031946 Q 1470.498087 319.031946 1466.656142 326.118200 Q 1462.814197 333.161767 1462.814197 343.705772 Z" id="text10_path" fill="#fb3d0f" stroke-width="36.4275" /><path d="M 1506.569598 325.776694 Q 1506.569598 319.586893 1511.307997 315.019247 Q 1516.131773 310.451601 1522.449638 310.451601 Q 1528.938257 310.451601 1533.633968 315.061936 Q 1538.329679 319.629582 1538.329679 325.990136 Q 1538.329679 332.393378 1533.633968 336.961024 Q 1528.938257 341.528670 1522.321573 341.528670 Q 1515.832955 341.528670 1511.179932 336.875647 Q 1506.569598 332.222625 1506.569598 325.776694 Z M 1513.997359 325.904759 Q 1513.997359 329.490575 1516.473279 331.966495 Q 1518.949199 334.442415 1522.492327 334.442415 Q 1525.950077 334.442415 1528.425998 331.966495 Q 1530.901918 329.490575 1530.901918 325.990136 Q 1530.901918 322.532385 1528.425998 320.056465 Q 1525.950077 317.580544 1522.449638 317.580544 Q 1518.949199 317.580544 1516.473279 320.056465 Q 1513.997359 322.532385 1513.997359 325.904759 Z M 1559.887261 309.982030 L 1564.540284 312.628704 L 1526.803843 378.112527 L 1522.108132 375.295100 Z M 1548.276048 361.890980 Q 1548.276048 355.743868 1553.014448 351.176222 Q 1557.838223 346.608575 1564.156089 346.608575 Q 1570.687396 346.608575 1575.383107 351.218910 Q 1580.078818 355.786556 1580.078818 362.147110 Q 1580.078818 368.593040 1575.340419 373.117998 Q 1570.687396 377.642956 1564.028024 377.642956 Q 1557.539405 377.642956 1552.886383 373.032622 Q 1548.276048 368.422287 1548.276048 361.890980 Z M 1555.746498 362.061733 Q 1555.746498 365.647549 1558.179730 368.123469 Q 1560.655650 370.599390 1564.198777 370.599390 Q 1567.699216 370.599390 1570.132448 368.123469 Q 1572.608369 365.647549 1572.608369 362.147110 Q 1572.608369 358.646671 1570.132448 356.170750 Q 1567.699216 353.694830 1564.156089 353.694830 Q 1560.698338 353.694830 1558.222418 356.170750 Q 1555.746498 358.646671 1555.746498 362.061733 Z" id="text9_path" fill="#fb3d0f" stroke-width="36.4275" /><path d="M 1628.188502 350.279768 L 1628.188502 377.045320 L 1618.242132 377.045320 L 1618.242132 311.134614 L 1629.511838 311.134614 Q 1637.793365 311.134614 1642.019505 312.287197 Q 1646.288333 313.439781 1649.532642 316.641402 Q 1655.210184 322.190879 1655.210184 330.643158 Q 1655.210184 339.693074 1649.148448 344.986421 Q 1643.086712 350.279768 1632.798836 350.279768 Z M 1628.188502 341.059099 L 1631.902382 341.059099 Q 1645.605320 341.059099 1645.605320 330.515093 Q 1645.605320 320.312594 1631.475499 320.312594 L 1628.188502 320.312594 Z" id="text8_path" fill="#fb3d0f" stroke-width="36.4275" /><path d="M 1675.401802 311.134614 L 1675.401802 350.834715 Q 1675.401802 359.329683 1678.176540 363.257005 Q 1682.317303 368.934547 1689.830441 368.934547 Q 1697.386266 368.934547 1701.527030 363.257005 Q 1704.301768 359.457748 1704.301768 350.834715 L 1704.301768 311.134614 L 1714.248137 311.134614 L 1714.248137 353.566765 Q 1714.248137 363.982706 1707.759519 370.727454 Q 1700.459823 378.240592 1689.830441 378.240592 Q 1679.201059 378.240592 1671.944051 370.727454 Q 1665.455432 363.982706 1665.455432 353.566765 L 1665.455432 311.134614 Z" id="text7_path" fill="#fb3d0f" stroke-width="36.4275" /><path d="M 1752.368803 348.956431 L 1772.773802 377.045320 L 1760.607641 377.045320 L 1741.782109 350.066326 L 1739.989202 350.066326 L 1739.989202 377.045320 L 1730.042832 377.045320 L 1730.042832 311.134614 L 1741.696733 311.134614 Q 1754.759347 311.134614 1760.564953 316.043766 Q 1766.968195 321.507866 1766.968195 330.472405 Q 1766.968195 337.473283 1762.955497 342.510500 Q 1758.942798 347.547718 1752.368803 348.956431 Z M 1739.989202 341.400605 L 1743.148134 341.400605 Q 1757.277955 341.400605 1757.277955 330.600470 Q 1757.277955 320.483347 1743.532329 320.483347 L 1739.989202 320.483347 Z" id="text6_path" fill="#fb3d0f" stroke-width="36.4275" /><path d="M 1819.047948 320.483347 L 1792.623902 320.483347 L 1792.623902 336.320700 L 1818.279559 336.320700 L 1818.279559 345.669433 L 1792.623902 345.669433 L 1792.623902 367.696586 L 1819.047948 367.696586 L 1819.047948 377.045320 L 1782.677532 377.045320 L 1782.677532 311.134614 L 1819.047948 311.134614 Z" id="text5_path" fill="#fb3d0f" stroke-width="36.4275" /><path d="M 1896.356302 320.952918 L 1888.288216 325.734006 Q 1886.025737 321.806684 1883.976700 320.611412 Q 1881.842286 319.245387 1878.469912 319.245387 Q 1874.329148 319.245387 1871.597098 321.593243 Q 1868.865048 323.898410 1868.865048 327.398849 Q 1868.865048 332.222625 1876.036680 335.168116 L 1882.610675 337.857478 Q 1890.636072 341.101787 1894.349952 345.776154 Q 1898.063833 350.450521 1898.063833 357.237957 Q 1898.063833 366.330561 1892.002097 372.264232 Q 1885.897673 378.240592 1876.847757 378.240592 Q 1868.267413 378.240592 1862.675248 373.160686 Q 1857.168459 368.080781 1855.802434 358.860112 L 1865.876869 356.640322 Q 1866.559881 362.445928 1868.267413 364.665718 Q 1871.340969 368.934547 1877.231952 368.934547 Q 1881.884974 368.934547 1884.958530 365.818302 Q 1888.032087 362.702058 1888.032087 357.920970 Q 1888.032087 355.999997 1887.498483 354.399187 Q 1886.964880 352.798376 1885.833640 351.453695 Q 1884.702401 350.109015 1882.909493 348.935087 Q 1881.116585 347.761159 1878.640665 346.693952 L 1872.280111 344.047279 Q 1858.747926 338.327049 1858.747926 327.313472 Q 1858.747926 319.885711 1864.425467 314.891183 Q 1870.103009 309.853965 1878.555288 309.853965 Q 1889.953059 309.853965 1896.356302 320.952918 Z" id="text4_path" fill="#fb3d0f" stroke-width="36.4275" /><path d="M 1907.754065 377.045320 L 1921.627756 306.182773 L 1944.252545 357.408711 L 1967.688412 306.182773 L 1980.153390 377.045320 L 1969.950891 377.045320 L 1963.590337 337.259842 L 1944.081792 380.076188 L 1925.128195 337.217154 L 1918.041941 377.045320 Z" id="text3_path" fill="#fb3d0f" stroke-width="36.4275" /><path d="M 2004.058802 311.134614 L 2004.058802 377.045320 L 1994.112432 377.045320 L 1994.112432 311.134614 Z" id="text2_path" fill="#fb3d0f" stroke-width="36.4275" /><path d="M 2029.842602 311.134614 L 2029.842602 367.696586 L 2049.223081 367.696586 L 2049.223081 377.045320 L 2019.896232 377.045320 L 2019.896232 311.134614 Z" id="text1_path" fill="#fb3d0f" stroke-width="36.4275" /><path d="M 1308.412235 474.076690 L 1308.412235 431.074023 L 1337.776094 461.793939 L 1337.776094 433.812216 L 1343.852274 433.812216 L 1343.852274 476.528025 L 1314.488415 445.886342 L 1314.488415 474.076690 Z" id="text36_path" transform="scale(1.1058552,0.90427753)" fill="#fa1c00" stroke-width="40.0558" /><path d="M 1331.126191 461.194144 Q 1331.126191 455.691681 1335.063973 451.832133 Q 1339.001755 447.972585 1344.660687 447.972585 Q 1350.345697 447.972585 1354.309557 451.858211 Q 1358.221261 455.743837 1358.221261 461.402769 Q 1358.221261 467.113857 1354.283479 470.973405 Q 1350.319619 474.806875 1344.556375 474.806875 Q 1338.845287 474.806875 1334.985739 470.895171 Q 1331.126191 467.035623 1331.126191 461.194144 Z M 1337.124137 461.298457 Q 1337.124137 465.105849 1339.158223 467.322481 Q 1341.244465 469.565191 1344.660687 469.565191 Q 1348.102986 469.565191 1350.163151 467.348559 Q 1352.223315 465.131927 1352.223315 461.428847 Q 1352.223315 457.725767 1350.163151 455.509135 Q 1348.076908 453.266424 1344.660687 453.266424 Q 1341.296621 453.266424 1339.210379 455.509135 Q 1337.124137 457.751845 1337.124137 461.298457 Z" id="text35_path" transform="scale(1.1058552,0.90427753)" fill="#fa1c00" stroke-width="40.0558" /><path d="M 1369.826036 448.676691 L 1369.826036 487.898044 L 1363.958480 487.898044 L 1363.958480 448.676691 Z M 1363.071827 438.115090 Q 1363.071827 436.576487 1364.193182 435.455132 Q 1365.314537 434.333776 1366.879219 434.333776 Q 1368.469979 434.333776 1369.591334 435.455132 Q 1370.712689 436.550409 1370.712689 438.141168 Q 1370.712689 439.731928 1369.591334 440.853283 Q 1368.496057 441.974638 1366.905297 441.974638 Q 1365.314537 441.974638 1364.193182 440.853283 Q 1363.071827 439.731928 1363.071827 438.115090 Z" id="text34_path" transform="scale(1.1058552,0.90427753)" fill="#fa1c00" stroke-width="40.0558" /><path d="M 1393.296204 448.676691 L 1399.189838 448.676691 L 1399.189838 474.076690 L 1393.296204 474.076690 L 1393.296204 471.416731 Q 1389.671358 474.806875 1385.498873 474.806875 Q 1380.231112 474.806875 1376.788812 470.999483 Q 1373.372591 467.113857 1373.372591 461.298457 Q 1373.372591 455.587369 1376.788812 451.779977 Q 1380.205034 447.972585 1385.342405 447.972585 Q 1389.775670 447.972585 1393.296204 451.623508 Z M 1379.370537 461.298457 Q 1379.370537 464.949380 1381.326389 467.244247 Q 1383.334397 469.565191 1386.385526 469.565191 Q 1389.645280 469.565191 1391.653288 467.322481 Q 1393.661296 465.001536 1393.661296 461.428847 Q 1393.661296 457.856157 1391.653288 455.535213 Q 1389.645280 453.266424 1386.437682 453.266424 Q 1383.412631 453.266424 1381.378545 455.561291 Q 1379.370537 457.882235 1379.370537 461.298457 Z" id="text33_path" transform="scale(1.1058552,0.90427753)" fill="#fa1c00" stroke-width="40.0558" /><path d="M 1399.111621 448.676691 L 1405.683284 462.941372 L 1412.228869 448.676691 L 1418.826610 448.676691 L 1405.631128 475.823918 L 1392.539958 448.676691 Z" id="text32_path" transform="scale(1.1058552,0.90427753)" fill="#fa1c00" stroke-width="40.0558" /><path d="M 1432.648004 448.676691 L 1438.541638 448.676691 L 1438.541638 474.076690 L 1432.648004 474.076690 L 1432.648004 471.416731 Q 1429.023158 474.806875 1424.850673 474.806875 Q 1419.582912 474.806875 1416.140612 470.999483 Q 1412.724391 467.113857 1412.724391 461.298457 Q 1412.724391 455.587369 1416.140612 451.779977 Q 1419.556834 447.972585 1424.694205 447.972585 Q 1429.127470 447.972585 1432.648004 451.623508 Z M 1418.722337 461.298457 Q 1418.722337 464.949380 1420.678189 467.244247 Q 1422.686197 469.565191 1425.737326 469.565191 Q 1428.997080 469.565191 1431.005088 467.322481 Q 1433.013096 465.001536 1433.013096 461.428847 Q 1433.013096 457.856157 1431.005088 455.535213 Q 1428.997080 453.266424 1425.789482 453.266424 Q 1422.764431 453.266424 1420.730345 455.561291 Q 1418.722337 457.882235 1418.722337 461.298457 Z" id="text31_path" transform="scale(1.1058552,0.90427753)" fill="#fa1c00" stroke-width="40.0558" /><path d="M 1449.755143 453.005644 L 1444.904630 455.587369 Q 1443.757197 453.240346 1442.062125 453.240346 Q 1441.253706 453.240346 1440.679990 453.774946 Q 1440.106273 454.309545 1440.106273 455.144042 Q 1440.106273 456.604412 1443.496417 458.038703 Q 1448.164384 460.046711 1449.781221 461.741783 Q 1451.398059 463.436855 1451.398059 466.305438 Q 1451.398059 469.982440 1448.685944 472.459852 Q 1446.052063 474.806875 1442.322906 474.806875 Q 1435.933789 474.806875 1433.273830 468.574226 L 1438.280811 466.253282 Q 1439.323932 468.078744 1439.871571 468.574226 Q 1440.940770 469.565191 1442.427218 469.565191 Q 1445.400113 469.565191 1445.400113 466.853076 Q 1445.400113 465.288395 1443.105246 463.932337 Q 1442.218593 463.489011 1441.331941 463.071762 Q 1440.445288 462.654514 1439.532557 462.211188 Q 1436.976910 460.959442 1435.933789 459.707697 Q 1434.603809 458.116937 1434.603809 455.613447 Q 1434.603809 452.301537 1436.872598 450.137061 Q 1439.193542 447.972585 1442.505452 447.972585 Q 1447.382043 447.972585 1449.755143 453.005644 Z" id="text30_path" transform="scale(1.1058552,0.90427753)" fill="#fa1c00" stroke-width="40.0558" /><path d="M 1470.461025 449.771969 L 1470.461025 457.569299 Q 1468.453017 455.117964 1466.862257 454.205233 Q 1465.297575 453.266424 1463.185255 453.266424 Q 1459.873346 453.266424 1457.682791 455.587369 Q 1455.492237 457.908313 1455.492237 461.402769 Q 1455.492237 464.975458 1457.604557 467.270325 Q 1459.742955 469.565191 1463.054865 469.565191 Q 1465.167185 469.565191 1466.784023 468.652460 Q 1468.348704 467.765807 1470.461025 465.210161 L 1470.461025 472.955335 Q 1466.888335 474.806875 1463.315645 474.806875 Q 1457.422011 474.806875 1453.458151 470.999483 Q 1449.494291 467.166013 1449.494291 461.481003 Q 1449.494291 455.795993 1453.510307 451.884289 Q 1457.526323 447.972585 1463.367801 447.972585 Q 1467.123037 447.972585 1470.461025 449.771969 Z" id="text29_path" transform="scale(1.1058552,0.90427753)" fill="#fa1c00" stroke-width="40.0558" /><path d="M 1465.949580 448.676691 L 1471.817136 448.676691 L 1471.817136 450.945480 Q 1473.433974 449.250408 1474.685719 448.624535 Q 1475.963542 447.972585 1477.710770 447.972585 Q 1480.031715 447.972585 1482.561283 449.485110 L 1479.875246 454.857184 Q 1478.206253 453.657595 1476.615493 453.657595 Q 1471.817136 453.657595 1471.817136 460.907286 L 1471.817136 474.076690 L 1465.949580 474.076690 Z" id="text28_path" transform="scale(1.1058552,0.90427753)" fill="#fa1c00" stroke-width="40.0558" /><path d="M 1486.186136 448.676691 L 1486.186136 474.076690 L 1480.318580 474.076690 L 1480.318580 448.676691 Z M 1479.431927 438.115090 Q 1479.431927 436.576487 1480.553282 435.455132 Q 1481.674637 434.333776 1483.239319 434.333776 Q 1484.830079 434.333776 1485.951434 435.455132 Q 1487.072789 436.550409 1487.072789 438.141168 Q 1487.072789 439.731928 1485.951434 440.853283 Q 1484.856157 441.974638 1483.265397 441.974638 Q 1481.674637 441.974638 1480.553282 440.853283 Q 1479.431927 439.731928 1479.431927 438.115090 Z" id="text27_path" transform="scale(1.1058552,0.90427753)" fill="#fa1c00" stroke-width="40.0558" /><path d="M 1496.799836 487.898044 L 1490.932280 487.898044 L 1490.932280 448.676691 L 1496.799836 448.676691 L 1496.799836 451.440962 Q 1500.268214 447.972585 1504.675400 447.972585 Q 1509.917084 447.972585 1513.307227 451.832133 Q 1516.749527 455.665603 1516.749527 461.507081 Q 1516.749527 467.218169 1513.333305 471.025561 Q 1509.943162 474.806875 1504.779712 474.806875 Q 1500.320370 474.806875 1496.799836 471.234185 Z M 1510.751581 461.533159 Q 1510.751581 457.882235 1508.769651 455.587369 Q 1506.761642 453.266424 1503.710513 453.266424 Q 1500.476838 453.266424 1498.468830 455.509135 Q 1496.460822 457.751845 1496.460822 461.402769 Q 1496.460822 464.975458 1498.468830 467.296403 Q 1500.450760 469.565191 1503.684435 469.565191 Q 1506.735564 469.565191 1508.717495 467.270325 Q 1510.751581 464.975458 1510.751581 461.533159 Z" id="text26_path" transform="scale(1.1058552,0.90427753)" fill="#fa1c00" stroke-width="40.0558" /><path d="M 1518.105682 454.153077 L 1518.105682 474.076690 L 1512.238126 474.076690 L 1512.238126 454.153077 L 1509.734635 454.153077 L 1509.734635 448.676691 L 1512.238126 448.676691 L 1512.238126 439.366836 L 1518.105682 439.366836 L 1518.105682 448.676691 L 1522.669337 448.676691 L 1522.669337 454.153077 Z" id="text25_path" transform="scale(1.1058552,0.90427753)" fill="#fa1c00" stroke-width="40.0558" /><path d="M 1533.778591 461.194144 Q 1533.778591 455.691681 1537.716373 451.832133 Q 1541.654155 447.972585 1547.313087 447.972585 Q 1552.998097 447.972585 1556.961957 451.858211 Q 1560.873661 455.743837 1560.873661 461.402769 Q 1560.873661 467.113857 1556.935879 470.973405 Q 1552.972019 474.806875 1547.208775 474.806875 Q 1541.497687 474.806875 1537.638139 470.895171 Q 1533.778591 467.035623 1533.778591 461.194144 Z M 1539.776537 461.298457 Q 1539.776537 465.105849 1541.810623 467.322481 Q 1543.896865 469.565191 1547.313087 469.565191 Q 1550.755386 469.565191 1552.815551 467.348559 Q 1554.875715 465.131927 1554.875715 461.428847 Q 1554.875715 457.725767 1552.815551 455.509135 Q 1550.729308 453.266424 1547.313087 453.266424 Q 1543.949021 453.266424 1541.862779 455.509135 Q 1539.776537 457.751845 1539.776537 461.298457 Z" id="text24_path" transform="scale(1.1058552,0.90427753)" fill="#fa1c00" stroke-width="40.0558" /><path d="M 1555.553680 448.676691 L 1561.421236 448.676691 L 1561.421236 450.945480 Q 1563.038074 449.250408 1564.289819 448.624535 Q 1565.567642 447.972585 1567.314870 447.972585 Q 1569.635815 447.972585 1572.165383 449.485110 L 1569.479346 454.857184 Q 1567.810353 453.657595 1566.219593 453.657595 Q 1561.421236 453.657595 1561.421236 460.907286 L 1561.421236 474.076690 L 1555.553680 474.076690 Z" id="text23_path" transform="scale(1.1058552,0.90427753)" fill="#fa1c00" stroke-width="40.0558" /><path d="M 1600.642625 449.771969 L 1600.642625 457.569299 Q 1598.634617 455.117964 1597.043857 454.205233 Q 1595.479175 453.266424 1593.366855 453.266424 Q 1590.054946 453.266424 1587.864391 455.587369 Q 1585.673837 457.908313 1585.673837 461.402769 Q 1585.673837 464.975458 1587.786157 467.270325 Q 1589.924555 469.565191 1593.236465 469.565191 Q 1595.348785 469.565191 1596.965623 468.652460 Q 1598.530304 467.765807 1600.642625 465.210161 L 1600.642625 472.955335 Q 1597.069935 474.806875 1593.497245 474.806875 Q 1587.603611 474.806875 1583.639751 470.999483 Q 1579.675891 467.166013 1579.675891 461.481003 Q 1579.675891 455.795993 1583.691907 451.884289 Q 1587.707923 447.972585 1593.549401 447.972585 Q 1597.304637 447.972585 1600.642625 449.771969 Z" id="text22_path" transform="scale(1.1058552,0.90427753)" fill="#fa1c00" stroke-width="40.0558" /><path d="M 1610.891243 453.005644 L 1606.040730 455.587369 Q 1604.893297 453.240346 1603.198225 453.240346 Q 1602.389806 453.240346 1601.816090 453.774946 Q 1601.242373 454.309545 1601.242373 455.144042 Q 1601.242373 456.604412 1604.632517 458.038703 Q 1609.300484 460.046711 1610.917321 461.741783 Q 1612.534159 463.436855 1612.534159 466.305438 Q 1612.534159 469.982440 1609.822044 472.459852 Q 1607.188163 474.806875 1603.459006 474.806875 Q 1597.069889 474.806875 1594.409930 468.574226 L 1599.416911 466.253282 Q 1600.460032 468.078744 1601.007671 468.574226 Q 1602.076870 469.565191 1603.563318 469.565191 Q 1606.536213 469.565191 1606.536213 466.853076 Q 1606.536213 465.288395 1604.241346 463.932337 Q 1603.354693 463.489011 1602.468041 463.071762 Q 1601.581388 462.654514 1600.668657 462.211188 Q 1598.113010 460.959442 1597.069889 459.707697 Q 1595.739909 458.116937 1595.739909 455.613447 Q 1595.739909 452.301537 1598.008698 450.137061 Q 1600.329642 447.972585 1603.641552 447.972585 Q 1608.518143 447.972585 1610.891243 453.005644 Z" id="text21_path" transform="scale(1.1058552,0.90427753)" fill="#fa1c00" stroke-width="40.0558" /><path d="M 1626.590243 453.005644 L 1621.739730 455.587369 Q 1620.592297 453.240346 1618.897225 453.240346 Q 1618.088806 453.240346 1617.515090 453.774946 Q 1616.941373 454.309545 1616.941373 455.144042 Q 1616.941373 456.604412 1620.331517 458.038703 Q 1624.999484 460.046711 1626.616321 461.741783 Q 1628.233159 463.436855 1628.233159 466.305438 Q 1628.233159 469.982440 1625.521044 472.459852 Q 1622.887163 474.806875 1619.158006 474.806875 Q 1612.768889 474.806875 1610.108930 468.574226 L 1615.115911 466.253282 Q 1616.159032 468.078744 1616.706671 468.574226 Q 1617.775870 469.565191 1619.262318 469.565191 Q 1622.235213 469.565191 1622.235213 466.853076 Q 1622.235213 465.288395 1619.940346 463.932337 Q 1619.053693 463.489011 1618.167041 463.071762 Q 1617.280388 462.654514 1616.367657 462.211188 Q 1613.812010 460.959442 1612.768889 459.707697 Q 1611.438909 458.116937 1611.438909 455.613447 Q 1611.438909 452.301537 1613.707698 450.137061 Q 1616.028642 447.972585 1619.340552 447.972585 Q 1624.217143 447.972585 1626.590243 453.005644 Z" id="text20_path" transform="scale(1.1058552,0.90427753)" fill="#fa1c00" stroke-width="40.0558" /><path d="M 1638.586180 448.676691 L 1644.479814 448.676691 L 1644.479814 451.023714 Q 1647.557021 447.972585 1651.416569 447.972585 Q 1655.849834 447.972585 1658.327247 450.762934 Q 1660.465645 453.136034 1660.465645 458.508108 L 1660.465645 474.076690 L 1654.572011 474.076690 L 1654.572011 459.890243 Q 1654.572011 456.135007 1653.528890 454.700716 Q 1652.511846 453.240346 1649.825810 453.240346 Q 1646.905071 453.240346 1645.679403 455.170120 Q 1644.479814 457.073816 1644.479814 461.820017 L 1644.479814 474.076690 L 1638.586180 474.076690 Z" id="text19_path" transform="scale(1.1058552,0.90427753)" fill="#fa1c00" stroke-width="40.0558" /><path d="M 1683.336090 462.758826 L 1665.133627 462.758826 Q 1665.368329 465.888189 1667.167713 467.739729 Q 1668.967097 469.565191 1671.783524 469.565191 Q 1673.974078 469.565191 1675.408370 468.522070 Q 1676.816583 467.478949 1678.615967 464.662522 L 1683.570792 467.426793 Q 1682.423359 469.382645 1681.145536 470.777820 Q 1679.867712 472.172994 1678.407343 473.072686 Q 1676.946973 473.972378 1675.251902 474.389626 Q 1673.556830 474.806875 1671.574900 474.806875 Q 1665.889890 474.806875 1662.447590 471.155951 Q 1659.005291 467.478949 1659.005291 461.402769 Q 1659.005291 455.378744 1662.343278 451.649586 Q 1665.707344 447.972585 1671.261963 447.972585 Q 1676.868739 447.972585 1680.128493 451.545274 Q 1683.362168 455.091886 1683.362168 461.376691 Z M 1677.312066 457.960469 Q 1676.086399 453.266424 1671.392354 453.266424 Q 1670.323154 453.266424 1669.384346 453.592400 Q 1668.445537 453.918375 1667.676235 454.531209 Q 1666.906933 455.144042 1666.359294 456.004617 Q 1665.811656 456.865192 1665.524797 457.960469 Z" id="text18_path" transform="scale(1.1058552,0.90427753)" fill="#fa1c00" stroke-width="40.0558" /><path d="M 1703.024990 462.758826 L 1684.822527 462.758826 Q 1685.057229 465.888189 1686.856613 467.739729 Q 1688.655997 469.565191 1691.472424 469.565191 Q 1693.662978 469.565191 1695.097270 468.522070 Q 1696.505483 467.478949 1698.304867 464.662522 L 1703.259692 467.426793 Q 1702.112259 469.382645 1700.834436 470.777820 Q 1699.556613 472.172994 1698.096243 473.072686 Q 1696.635873 473.972378 1694.940802 474.389626 Q 1693.245730 474.806875 1691.263800 474.806875 Q 1685.578790 474.806875 1682.136490 471.155951 Q 1678.694191 467.478949 1678.694191 461.402769 Q 1678.694191 455.378744 1682.032178 451.649586 Q 1685.396244 447.972585 1690.950863 447.972585 Q 1696.557639 447.972585 1699.817393 451.545274 Q 1703.051068 455.091886 1703.051068 461.376691 Z M 1697.000966 457.960469 Q 1695.775299 453.266424 1691.081254 453.266424 Q 1690.012054 453.266424 1689.073246 453.592400 Q 1688.134437 453.918375 1687.365135 454.531209 Q 1686.595833 455.144042 1686.048194 456.004617 Q 1685.500556 456.865192 1685.213697 457.960469 Z" id="text17_path" transform="scale(1.1058552,0.90427753)" fill="#fa1c00" stroke-width="40.0558" /><path d="M 1718.306704 430.030902 L 1724.200338 430.030902 L 1724.200338 474.076690 L 1718.306704 474.076690 L 1718.306704 471.416731 Q 1714.838326 474.806875 1710.457217 474.806875 Q 1705.241612 474.806875 1701.799312 470.999483 Q 1698.383091 467.113857 1698.383091 461.298457 Q 1698.383091 455.613447 1701.799312 451.806055 Q 1705.189456 447.972585 1710.326827 447.972585 Q 1714.786170 447.972585 1718.306704 451.623508 Z M 1704.381037 461.298457 Q 1704.381037 464.949380 1706.336889 467.244247 Q 1708.344897 469.565191 1711.396026 469.565191 Q 1714.655780 469.565191 1716.663788 467.322481 Q 1718.671796 465.001536 1718.671796 461.428847 Q 1718.671796 457.856157 1716.663788 455.535213 Q 1714.655780 453.266424 1711.448182 453.266424 Q 1708.423131 453.266424 1706.389045 455.561291 Q 1704.381037 457.882235 1704.381037 461.298457 Z" id="text16_path" transform="scale(1.1058552,0.90427753)" fill="#fa1c00" stroke-width="40.0558" /><path d="M 1743.784890 462.758826 L 1725.582427 462.758826 Q 1725.817129 465.888189 1727.616513 467.739729 Q 1729.415897 469.565191 1732.232324 469.565191 Q 1734.422878 469.565191 1735.857170 468.522070 Q 1737.265383 467.478949 1739.064767 464.662522 L 1744.019592 467.426793 Q 1742.872159 469.382645 1741.594336 470.777820 Q 1740.316512 472.172994 1738.856143 473.072686 Q 1737.395773 473.972378 1735.700702 474.389626 Q 1734.005630 474.806875 1732.023700 474.806875 Q 1726.338690 474.806875 1722.896390 471.155951 Q 1719.454091 467.478949 1719.454091 461.402769 Q 1719.454091 455.378744 1722.792078 451.649586 Q 1726.156144 447.972585 1731.710763 447.972585 Q 1737.317539 447.972585 1740.577293 451.545274 Q 1743.810968 455.091886 1743.810968 461.376691 Z M 1737.760866 457.960469 Q 1736.535199 453.266424 1731.841154 453.266424 Q 1730.771954 453.266424 1729.833146 453.592400 Q 1728.894337 453.918375 1728.125035 454.531209 Q 1727.355733 455.144042 1726.808094 456.004617 Q 1726.260456 456.865192 1725.973597 457.960469 Z" id="text15_path" transform="scale(1.1058552,0.90427753)" fill="#fa1c00" stroke-width="40.0558" /><path d="M 1759.066604 430.030902 L 1764.960238 430.030902 L 1764.960238 474.076690 L 1759.066604 474.076690 L 1759.066604 471.416731 Q 1755.598226 474.806875 1751.217117 474.806875 Q 1746.001512 474.806875 1742.559212 470.999483 Q 1739.142991 467.113857 1739.142991 461.298457 Q 1739.142991 455.613447 1742.559212 451.806055 Q 1745.949356 447.972585 1751.086727 447.972585 Q 1755.546070 447.972585 1759.066604 451.623508 Z M 1745.140937 461.298457 Q 1745.140937 464.949380 1747.096789 467.244247 Q 1749.104797 469.565191 1752.155926 469.565191 Q 1755.415680 469.565191 1757.423688 467.322481 Q 1759.431696 465.001536 1759.431696 461.428847 Q 1759.431696 457.856157 1757.423688 455.535213 Q 1755.415680 453.266424 1752.208082 453.266424 Q 1749.183031 453.266424 1747.148945 455.561291 Q 1745.140937 457.882235 1745.140937 461.298457 Z" id="text14_path" transform="scale(1.1058552,0.90427753)" fill="#fa1c00" stroke-width="40.0558" /><path d="M 1762.952283 471.155951 Q 1762.952283 469.695581 1764.021483 468.626382 Q 1765.090682 467.557183 1766.577129 467.557183 Q 1768.063577 467.557183 1769.132776 468.626382 Q 1770.201975 469.695581 1770.201975 471.182029 Q 1770.201975 472.694555 1769.132776 473.763754 Q 1768.089655 474.806875 1766.577129 474.806875 Q 1765.038526 474.806875 1763.995405 473.763754 Q 1762.952283 472.720633 1762.952283 471.155951 Z M 1763.630312 465.105849 L 1763.630312 433.812216 L 1769.523946 433.812216 L 1769.523946 465.105849 Z" id="text13_path" transform="scale(1.1058552,0.90427753)" fill="#fa1c00" stroke-width="40.0558" /><path id="rect1851" style="fill:none;stroke:#fe0000;stroke-width:14.5557;stroke-dasharray:87.3339, 14.5557;stroke-dashoffset:0;stroke-opacity:1" d="m 1318.7684,284.08405 c 307.4737,-77.43295 477.4693,-79.6744 779.5799,0 132.9776,50.26731 130.7718,132.64482 0,168.79753 -297.0165,89.1289 -485.8097,78.65553 -779.5799,0 -143.454,-38.49011 -151.4589,-124.05689 0,-168.79753 z" />
    </g>
  </g>
</svg>