<?xml version="1.0" encoding="UTF-8" standalone="yes"?>
<svg width="100%" height="100%" image-rendering="optimizeSpeed" baseProfile="full" preserveAspectRatio="xMidYMid meet" version="1.1" viewBox="0.0 0.0 44.0 44.0" xmlns="http://www.w3.org/2000/svg" xmlns:cc="http://creativecommons.org/ns#" xmlns:dc="http://purl.org/dc/elements/1.1/" xmlns:fbf="http://opentoonz.github.io/fbf/1.0#" xmlns:rdf="http://www.w3.org/1999/02/22-rdf-syntax-ns#" xmlns:svg="http://www.w3.org/2000/svg" xmlns:xlink="http://www.w3.org/1999/xlink">
	<!--	FILE GENERATED BY svg2fbf v0.1.0	-->
	<metadata>
		<rdf:RDF xmlns:cc="http://creativecommons.org/ns#" xmlns:dc="http://purl.org/dc/elements/1.1/" xmlns:fbf="http://opentoonz.github.io/fbf/1.0#" xmlns:rdf="http://www.w3.org/1999/02/22-rdf-syntax-ns#">
			<rdf:Description rdf:about="">
				<dc:format>image/svg+xml</dc:format>
				<dc:type rdf:resource="http://purl.org/dc/dcmitype/MovingImage"/>
				<dc:title>Interactive Splat Button</dc:title>
				<dc:creator/>
				<dc:description>CODE-FREE interactive animated button with click-triggered splash effect - pure SVG, no JavaScript required</dc:description>
				<dc:date/>
				<dc:language>en</dc:language>
				<dc:rights>Apache-2.0</dc:rights>
				<dc:source/>
				<fbf:episodeNumber/>
				<fbf:episodeTitle/>
				<fbf:creators>Emasoft</fbf:creators>
				<fbf:originalCreators/>
				<fbf:copyrights/>
				<fbf:website/>
				<fbf:originalLanguage/>
				<fbf:keywords>interactive button, click animation, splash effect, code-free</fbf:keywords>
				<fbf:sourceFramesPath>examples/splat_button/input_frames/</fbf:sourceFramesPath>
				<fbf:frameCount>11</fbf:frameCount>
				<fbf:fps>4.0</fbf:fps>
				<fbf:duration>2.75</fbf:duration>
				<fbf:playbackMode>pingpong_loop</fbf:playbackMode>
				<fbf:width>100%</fbf:width>
				<fbf:height>100%</fbf:height>
				<fbf:viewBox>0.0 0.0 44.0 44.0</fbf:viewBox>
				<fbf:aspectRatio/>
				<fbf:firstFrameWidth>0</fbf:firstFrameWidth>
				<fbf:firstFrameHeight>0</fbf:firstFrameHeight>
				<fbf:generator>svg2fbf</fbf:generator>
				<fbf:generatorVersion>0.1.0</fbf:generatorVersion>
				<fbf:generatedDate>2025-11-09T22:49:46.711558+00:00</fbf:generatedDate>
				<fbf:formatVersion>1.0</fbf:formatVersion>
				<fbf:precisionDigits>28</fbf:precisionDigits>
				<fbf:precisionCDigits>28</fbf:precisionCDigits>
				<fbf:useCssClasses>false</fbf:useCssClasses>
				<fbf:hasBackdropImage>true</fbf:hasBackdropImage>
				<fbf:useExternalMedia>false</fbf:useExternalMedia>
				<fbf:useExternalFonts>false</fbf:useExternalFonts>
				<fbf:useEmbeddedImages>false</fbf:useEmbeddedImages>
				<fbf:useMeshGradient>false</fbf:useMeshGradient>
				<fbf:hasInteractivity>true</fbf:hasInteractivity>
				<fbf:interactivityType>click_to_start</fbf:interactivityType>
				<fbf:hasJavaScript/>
				<fbf:hasCSS/>
				<fbf:containsText/>
				<fbf:colorProfile/>
			</rdf:Description>
		</rdf:RDF>
	</metadata>
	<desc>__________________________________________________________

    ╔════════════════════════════════════════╗
    ║	This is a FBF.SVG animation file	 ║
    ╚════════════════════════════════════════╝

FBF.SVG stands for "Frame-By-Frame SVG".

FBF.SVG is a format meant to be the MPEG of vector animations.
It is designed to be compact, portable, and optimized for streaming.

The following are some of the mandatory specifications:

    - The FBF.SVG format is a subset of the SVG 1.1 Full profile.
    - No CSS or external JavaScript allowed. No imperative scripting.
    - Only exception: mesh gradient polyfill script (if meshgradients present).
    - The file is minified because it is a format meant for the
      exchange and playback of vector encoded video animations,
      like those exported by OpenToonz or other vector applications.
    - The FBF.SVG format is designed to be played as an XML stream, so
      each frame is encoded in a way to include only the
      differences from the previous frame and minimize the size.
    - The structure of the FBF.SVG file must follow the schema
      available online[1], and it should be composed by the
      following parts disposed in this exact order:

            SVG[
                metadata[]
                desc[]
                ANIMATION_BACKDROP[
                    ANIMATION_STAGE[
                        ANIMATED_GROUP[
                            PROSKENION
                ]	]	]
                defs[
                    SHARED_DEFINITIONS[]
                    FRAMES[]
                ]
            ]

    - The PROSKENION Animation element must always have the
      following attributes set at these values:

                attributeName="xlink:href"
                begin="0s"
                calcMode="discrete"
                repeatCount="indefinite"

    - The 'values' attribute must contain a string with the
      concatenated id of all the group frames present in the
      'FRAMES' group under the 'defs' section. The order is
      the same order of the playback.
    - The frame group IDs must have the form: 'FRAME0...1',
      where the digits are the left-zero-padded frame numbers,
      with the frame count starting from 1 not 0. The number of
      digits varies according to the number of frames, but
      there should always be an additional 0 before the other
      digits. Frame group IDs like 'FRAME1' are not allowed.
    - The attribute 'repeatCount' can be changed to allow looping,
      repeat once or ping-pong modes.
    - The PROSKENION 'use' element should have the xlink:href
      attribute set with the value of the first frame id, for
      example:

                xlink:href="#FRAME0001"

    - The value of the 'dur' attribute of the PROSKENION animation should be
      expressed in seconds. The value represents the duration of the
      entire animated sequence. For example if you have "1.0s"
      this is equal to each frame duration multiplied by the number of
      frames. For example: for an animation of 3 frames, "1.0s" means 0.333*3,
      where 0.333s is the 'Frame Duration' (FD) in seconds. A FD of 1.0 means
      1 frame per second (1 fps). For 60fps the frame duration is "0.01667s".
      For 24fps you have "0.04167" seconds. To get it just divide 1 second
      for the number of frames per second (fps) that you want.
      More explicitly:

                fps = 60
                FD = 1/60=0.0166666... approx: 0.01667s
                NumberOfFrames = 3
                dur = 0.01667*3 = 0.05001s

        The general formula for 'dur' then is:

                dur = (1/fps)*NumberOfFrames

        And the inverse formulas for fps and FD are:

                fps = NumberOfFrames/dur
                FD  = 1/fps

    - The FBF.SVG files extension must ALWAYS be ".fbf.svg".
    - Document has always the attributes height and width set at 100%.
    - SVG attribute preserveAspectRatio must be set as "xMidYMid meet".
    - Viewport values are mandatory and should be defined in pixels,
      with the first two values always set to 0.
    - Any rendering server recognizing this format must render it
      only in SECURE ANIMATED MODE.[2]
    - No external resources allowed (except optional meshgradient polyfill).
    - All resources must be embedded in base64.

METADATA:
    - FBF.SVG files include comprehensive RDF/XML metadata in the &lt;metadata&gt; element
    - Metadata uses Dublin Core (dc:), Creative Commons (cc:), and FBF.SVG (fbf:) namespaces
    - Required metadata fields include: title, creator, date, format, language
    - Optional fields: description, subject, rights, license, source
    - FBF-specific fields: frameCount, frameRate, duration, generatorName, generatorVersion
    - All metadata is machine-readable and follows the FBF.SVG metadata specification[3]


    For more information about the FBF.SVG format and svg2fbf, refer to:
    https://github.com/Emasoft/svg2fbf

    For information about OpenToonz:
    https://opentoonz.github.io



[1] Schema and specification: https://github.com/Emasoft/svg2fbf
[2] Secure animated mode: https://www.w3.org/TR/SVG/conform.html#secure-animated-mode
[3] Metadata specification: https://github.com/Emasoft/svg2fbf/blob/main/docs/FBF_METADATA_SPEC.md


___________________________________________________________________</desc>
	<!--	ANIMATION BACKDROP	  -->
	<g id="ANIMATION_BACKDROP">
		<!--	STAGE BACKGROUND (Z-order: behind animation)	-->
		<g id="STAGE_BACKGROUND">
			<!-- Empty group for background SVG elements (dynamic API) --></g>
		<!--	END OF STAGE BACKGROUND	-->
		<!--	ANIMATION STAGE	-->
		<g id="ANIMATION_STAGE">
			<!--	ANIMATED GROUP	 -->
			<g id="ANIMATED_GROUP">
				<use id="PROSKENION" overflow="visible" xlink:href="#FRAME00001">
					<animate attributeName="xlink:href" begin="click" calcMode="discrete" dur="2.75s" repeatCount="indefinite" values="#FRAME00001;#FRAME00002;#FRAME00003;#FRAME00004;#FRAME00005;#FRAME00006;#FRAME00007;#FRAME00008;#FRAME00009;#FRAME00010;#FRAME00011;#FRAME00010;#FRAME00009;#FRAME00008;#FRAME00007;#FRAME00006;#FRAME00005;#FRAME00004;#FRAME00003;#FRAME00002;#FRAME00001"/>
				</use>
			</g>
			<!--	END OF ANIMATED GROUP	-->
		</g>
		<!--	END OF ANIMATION STAGE	 -->
		<!--	STAGE FOREGROUND (Z-order: in front of animation)	-->
		<g id="STAGE_FOREGROUND">
			<!-- Empty group for foreground SVG elements (dynamic API) --></g>
		<!--	END OF STAGE FOREGROUND	-->
	</g>
	<!--	END OF ANIMATION BACKDROP	  -->
	<!--	OVERLAY LAYER (Z-order: superimposed on all)	-->
	<g id="OVERLAY_LAYER">
		<!-- Empty group for badges, titles, logos, subtitles, borders, PiP (dynamic API) --></g>
	<!--	END OF OVERLAY LAYER	-->
	<defs>
		<g id="SHARED_DEFINITIONS"></g>
		<!--	FRAMES	 -->
		<g id="FRAME00001" transform="matrix(1.0 0.0 0.0 1.0 0.0 0.0)">
			<rect id="b_FBF00001" width="44" height="44" fill="none"/>
			<path id="c_FBF00001" transform="translate(-3320 -224)" d="M3342,242.5a2.5,2.5,0,0,1,2.5,2.5v2a2.5,2.5,0,0,1-5,0v-2a2.5,2.5,0,0,1,2.5-2.5m0-1.5a4,4,0,0,0-4,4v2a4,4,0,0,0,8,0v-2a4,4,0,0,0-4-4h0Z" fill="#0288d1"/>
			<rect id="d_FBF00001" x="17" y="17" width="10" height="10" rx="1" ry="1" fill="#0288d1"/>
		</g>
		<g id="FRAME00002" transform="matrix(1.0 0.0 0.0 1.0 0.0 0.0)">
			<rect id="b_FBF00002" width="44" height="44" fill="none"/>
			<rect id="c_FBF00002" x="18" y="17" width="8" height="10" rx="4" ry="4" fill="#0288d1"/>
		</g>
		<g id="FRAME00003" transform="matrix(1.0 0.0 0.0 1.0 0.0 0.0)">
			<rect id="b_FBF00003" width="44" height="44" fill="none"/>
			<rect id="c_FBF00003" x="18" y="16" width="8" height="12" rx="4" ry="4" fill="#0288d1"/>
			<g id="d_FBF00003" fill="none" stroke="#0288d1" stroke-linecap="round" stroke-miterlimit="10" stroke-width="1.5">
				<line id="e_FBF00003" x1="29.07" x2="28.83" y1="14.93" y2="15.17"/>
				<line id="f_FBF00003" x1="29.07" x2="28.83" y1="29.07" y2="28.83"/>
				<line id="g_FBF00003" x1="14.93" x2="15.17" y1="29.07" y2="28.83"/>
				<line id="h_FBF00003" x1="14.93" x2="15.17" y1="14.93" y2="15.17"/>
				<line id="i_FBF00003" x1="32" x2="31.66" y1="22" y2="22"/>
				<line id="j_FBF00003" x1="22" x2="22" y1="12" y2="12.34"/>
				<line id="k_FBF00003" x1="12" x2="12.34" y1="22" y2="22"/>
				<line id="l_FBF00003" x1="22" x2="22" y1="32" y2="31.66"/>
			</g>
		</g>
		<g id="FRAME00004" transform="matrix(1.0 0.0 0.0 1.0 0.0 0.0)">
			<rect id="b_FBF00004" width="44" height="44" fill="none"/>
			<rect id="c_FBF00004" x="18" y="17" width="8" height="10" rx="1" ry="1" fill="#0288d1"/>
			<path id="d_FBF00004" transform="translate(-3464 -224)" d="M3486,239.5a2.5,2.5,0,0,1,2.5,2.5v8a2.5,2.5,0,0,1-5,0v-8a2.5,2.5,0,0,1,2.5-2.5m0-1.5a4,4,0,0,0-4,4v8a4,4,0,0,0,8,0v-8a4,4,0,0,0-4-4h0Z" fill="#0288d1"/>
			<g id="e_FBF00004" fill="none" stroke="#0288d1" stroke-linecap="round" stroke-miterlimit="10" stroke-width="1.5">
				<line id="f_FBF00004" x1="28.83" x2="30.48" y1="15.12" y2="13.46"/>
				<line id="g_FBF00004" x1="15.17" x2="13.51" y1="15.12" y2="13.46"/>
				<line id="h_FBF00004" x1="15.17" x2="13.51" y1="28.78" y2="30.43"/>
				<line id="i_FBF00004" x1="28.83" x2="30.48" y1="28.78" y2="30.43"/>
				<line id="j_FBF00004" x1="21.96" x2="21.96" y1="12.31" y2="9.96"/>
				<line id="k_FBF00004" x1="12.31" x2="9.96" y1="22.04" y2="22.04"/>
				<line id="l_FBF00004" x1="22.04" x2="22.04" y1="31.69" y2="34.04"/>
				<line id="m_FBF00004" x1="33.69" x2="36.04" y1="21.96" y2="21.96"/>
			</g>
		</g>
		<g id="FRAME00005" transform="matrix(1.0 0.0 0.0 1.0 0.0 0.0)">
			<rect id="b_FBF00005" width="44" height="44" fill="none"/>
			<rect id="c_FBF00005" x="17" y="17" width="10" height="10" rx="1" ry="1" fill="#0288d1"/>
			<path id="d_FBF00005" transform="translate(-3512 -224)" d="M3535,239.5a2.5,2.5,0,0,1,2.5,2.5v8a2.5,2.5,0,0,1-2.5,2.5h-2a2.5,2.5,0,0,1-2.5-2.5v-8a2.5,2.5,0,0,1,2.5-2.5h2m0-1.5h-2a4,4,0,0,0-4,4v8a4,4,0,0,0,4,4h2a4,4,0,0,0,4-4v-8a4,4,0,0,0-4-4h0Z" fill="#0288d1"/>
			<g id="e_FBF00005" fill="none" stroke="#0288d1" stroke-linecap="round" stroke-miterlimit="10" stroke-width="1.5">
				<line id="f_FBF00005" x1="29.83" x2="32.9" y1="14.17" y2="11.1"/>
				<line id="g_FBF00005" x1="14.17" x2="11.1" y1="14.17" y2="11.1"/>
				<line id="h_FBF00005" x1="14.17" x2="11.1" y1="29.83" y2="32.9"/>
				<line id="i_FBF00005" x1="29.83" x2="32.9" y1="29.83" y2="32.9"/>
				<line id="j_FBF00005" x1="10.93" x2="6.59" y1="22" y2="22"/>
				<line id="k_FBF00005" x1="22" x2="22" y1="33.07" y2="37.41"/>
				<line id="l_FBF00005" x1="33.07" x2="37.41" y1="22" y2="22"/>
				<line id="m_FBF00005" x1="22" x2="22" y1="10.93" y2="6.59"/>
			</g>
		</g>
		<g id="FRAME00006" transform="matrix(1.0 0.0 0.0 1.0 0.0 0.0)">
			<rect id="b_FBF00006" width="44" height="44" fill="none"/>
			<rect id="c_FBF00006" x="17" y="17" width="10" height="10" rx="1" ry="1" fill="#0288d1"/>
			<path id="d_FBF00006" transform="translate(-3560 -224)" d="M3585,239.5a2.5,2.5,0,0,1,2.5,2.5v8a2.5,2.5,0,0,1-2.5,2.5h-6a2.5,2.5,0,0,1-2.5-2.5v-8a2.5,2.5,0,0,1,2.5-2.5h6m0-1.5h-6a4,4,0,0,0-4,4v8a4,4,0,0,0,4,4h6a4,4,0,0,0,4-4v-8a4,4,0,0,0-4-4h0Z" fill="#0288d1"/>
			<g id="e_FBF00006" fill="none" stroke="#0288d1" stroke-linecap="round" stroke-miterlimit="10" stroke-width="1.5">
				<line id="f_FBF00006" x1="30.83" x2="33.9" y1="13.17" y2="10.1"/>
				<line id="g_FBF00006" x1="13.17" x2="10.1" y1="13.17" y2="10.1"/>
				<line id="h_FBF00006" x1="13.17" x2="10.1" y1="30.83" y2="33.9"/>
				<line id="i_FBF00006" x1="30.83" x2="33.9" y1="30.83" y2="33.9"/>
				<line id="j_FBF00006" x1="9.51" x2="5.17" y1="22" y2="22"/>
				<line id="k_FBF00006" x1="22" x2="22" y1="9.51" y2="5.17"/>
				<line id="l_FBF00006" x1="34.49" x2="38.83" y1="22" y2="22"/>
				<line id="m_FBF00006" x1="22" x2="22" y1="34.49" y2="38.83"/>
			</g>
		</g>
		<g id="FRAME00007" transform="matrix(1.0 0.0 0.0 1.0 0.0 0.0)">
			<rect id="b_FBF00007" width="44" height="44" fill="none"/>
			<path id="c_FBF00007" transform="translate(-3608 -224)" d="M3634,239.5a2.5,2.5,0,0,1,2.5,2.5v8a2.5,2.5,0,0,1-2.5,2.5h-8a2.5,2.5,0,0,1-2.5-2.5v-8a2.5,2.5,0,0,1,2.5-2.5h8m0-1.5h-8a4,4,0,0,0-4,4v8a4,4,0,0,0,4,4h8a4,4,0,0,0,4-4v-8a4,4,0,0,0-4-4h0Z" fill="#0288d1"/>
			<rect id="d_FBF00007" x="17" y="17" width="10" height="10" rx="1" ry="1" fill="#0288d1"/>
			<g id="e_FBF00007" fill="none" stroke="#0288d1" stroke-linecap="round" stroke-miterlimit="10" stroke-width="1.5">
				<line id="f_FBF00007" x1="33.83" x2="35.9" y1="10.17" y2="8.1"/>
				<line id="g_FBF00007" x1="10.17" x2="8.1" y1="10.17" y2="8.1"/>
				<line id="h_FBF00007" x1="10.17" x2="8.1" y1="33.83" y2="35.9"/>
				<line id="i_FBF00007" x1="33.83" x2="35.9" y1="33.83" y2="35.9"/>
				<line id="j_FBF00007" x1="22" x2="22" y1="5.27" y2="2.34"/>
				<line id="k_FBF00007" x1="38.73" x2="41.66" y1="22" y2="22"/>
				<line id="l_FBF00007" x1="22" x2="22" y1="38.73" y2="41.66"/>
				<line id="m_FBF00007" x1="5.27" x2="2.34" y1="22" y2="22"/>
			</g>
		</g>
		<g id="FRAME00008" transform="matrix(1.0 0.0 0.0 1.0 0.0 0.0)">
			<rect id="b_FBF00008" width="44" height="44" fill="none"/>
			<path id="c_FBF00008" transform="translate(-3656 -224)" d="M3682,239.5a2.5,2.5,0,0,1,2.5,2.5v8a2.5,2.5,0,0,1-2.5,2.5h-8a2.5,2.5,0,0,1-2.5-2.5v-8a2.5,2.5,0,0,1,2.5-2.5h8m0-1.5h-8a4,4,0,0,0-4,4v8a4,4,0,0,0,4,4h8a4,4,0,0,0,4-4v-8a4,4,0,0,0-4-4h0Z" fill="#0288d1"/>
			<rect id="d_FBF00008" x="17" y="17" width="10" height="10" rx="1" ry="1" fill="#0288d1"/>
			<g id="e_FBF00008" fill="none" stroke="#0288d1" stroke-linecap="round" stroke-miterlimit="10" stroke-width="1.5">
				<line id="f_FBF00008" x1="8.17" x2="7.1" y1="8.17" y2="7.1"/>
				<line id="g_FBF00008" x1="22" x2="22" y1="2.44" y2=".93"/>
				<line id="h_FBF00008" x1="35.83" x2="36.9" y1="8.17" y2="7.1"/>
				<line id="i_FBF00008" x1="41.56" x2="43.07" y1="22" y2="22"/>
				<line id="j_FBF00008" x1="35.83" x2="36.9" y1="35.83" y2="36.9"/>
				<line id="k_FBF00008" x1="22" x2="22" y1="41.56" y2="43.07"/>
				<line id="l_FBF00008" x1="8.17" x2="7.1" y1="35.83" y2="36.9"/>
				<line id="m_FBF00008" x1="2.44" x2=".93" y1="22" y2="22"/>
			</g>
		</g>
		<g id="FRAME00009" transform="matrix(1.0 0.0 0.0 1.0 0.0 0.0)">
			<rect id="b_FBF00009" width="44" height="44" fill="none"/>
			<path id="c_FBF00009" transform="translate(-3704 -224)" d="M3730,239.5a2.5,2.5,0,0,1,2.5,2.5v8a2.5,2.5,0,0,1-2.5,2.5h-8a2.5,2.5,0,0,1-2.5-2.5v-8a2.5,2.5,0,0,1,2.5-2.5h8m0-1.5h-8a4,4,0,0,0-4,4v8a4,4,0,0,0,4,4h8a4,4,0,0,0,4-4v-8a4,4,0,0,0-4-4h0Z" fill="#0288d1"/>
			<rect id="d_FBF00009" x="17" y="17" width="10" height="10" rx="1" ry="1" fill="#0288d1"/>
			<g id="e_FBF00009" fill="none" stroke="#0288d1" stroke-linecap="round" stroke-miterlimit="10" stroke-width="1.5">
				<line id="f_FBF00009" x1="22" x2="22" y1=".75" y2="1.09"/>
				<line id="g_FBF00009" x1="37.03" x2="36.78" y1="6.97" y2="7.22"/>
				<line id="h_FBF00009" x1="43.25" x2="42.91" y1="22" y2="22"/>
				<line id="i_FBF00009" x1="37.03" x2="36.78" y1="37.03" y2="36.78"/>
				<line id="j_FBF00009" x1="22" x2="22" y1="43.25" y2="42.91"/>
				<line id="k_FBF00009" x1="6.97" x2="7.22" y1="37.03" y2="36.78"/>
				<line id="l_FBF00009" x1=".75" x2="1.09" y1="22" y2="22"/>
				<line id="m_FBF00009" x1="6.97" x2="7.22" y1="6.97" y2="7.22"/>
			</g>
		</g>
		<g id="FRAME00010" transform="matrix(1.0 0.0 0.0 1.0 0.0 0.0)">
			<rect id="b_FBF00010" width="44" height="44" fill="none"/>
			<path id="c_FBF00010" transform="translate(-3752 -224)" d="M3778,239.5a2.5,2.5,0,0,1,2.5,2.5v8a2.5,2.5,0,0,1-2.5,2.5h-8a2.5,2.5,0,0,1-2.5-2.5v-8a2.5,2.5,0,0,1,2.5-2.5h8m0-1.5h-8a4,4,0,0,0-4,4v8a4,4,0,0,0,4,4h8a4,4,0,0,0,4-4v-8a4,4,0,0,0-4-4h0Z" fill="#0288d1"/>
			<rect id="d_FBF00010" x="17" y="17" width="10" height="10" rx="1" ry="1" fill="#0288d1"/>
			<g id="e_FBF00010" fill="none" stroke="#0288d1" stroke-linecap="round" stroke-miterlimit="10" stroke-width="1.5">
				<line id="f_FBF00010" x1="22" x2="22" y1=".75" y2="1.09"/>
				<line id="g_FBF00010" x1="37.03" x2="36.78" y1="6.97" y2="7.22"/>
				<line id="h_FBF00010" x1="43.25" x2="42.91" y1="22" y2="22"/>
				<line id="i_FBF00010" x1="37.03" x2="36.78" y1="37.03" y2="36.78"/>
				<line id="j_FBF00010" x1="22" x2="22" y1="43.25" y2="42.91"/>
				<line id="k_FBF00010" x1="6.97" x2="7.22" y1="37.03" y2="36.78"/>
				<line id="l_FBF00010" x1=".75" x2="1.09" y1="22" y2="22"/>
				<line id="m_FBF00010" x1="6.97" x2="7.22" y1="6.97" y2="7.22"/>
			</g>
		</g>
		<g id="FRAME00011" transform="matrix(1.0 0.0 0.0 1.0 0.0 0.0)">
			<rect id="b_FBF00011" width="44" height="44" fill="none"/>
			<path id="c_FBF00011" transform="translate(-3800 -224)" d="M3826,239.5a2.5,2.5,0,0,1,2.5,2.5v8a2.5,2.5,0,0,1-2.5,2.5h-8a2.5,2.5,0,0,1-2.5-2.5v-8a2.5,2.5,0,0,1,2.5-2.5h8m0-1.5h-8a4,4,0,0,0-4,4v8a4,4,0,0,0,4,4h8a4,4,0,0,0,4-4v-8a4,4,0,0,0-4-4h0Z" fill="#0288d1"/>
			<rect id="d_FBF00011" x="17" y="17" width="10" height="10" rx="1" ry="1" fill="#0288d1"/>
		</g>
	</defs>
</svg>
