<?xml version='1.0' encoding='utf-8'?>
<svg xmlns="http://www.w3.org/2000/svg" xmlns:inkscape="http://www.inkscape.org/namespaces/inkscape" xmlns:sodipodi="http://sodipodi.sourceforge.net/DTD/sodipodi-0.dtd" id="panther_bird" version="1.1" x="0px" y="0px" width="237.61539" height="89.923073" viewBox="0 0 237.61539 174.98544" sodipodi:docname="logo_FBF•SVG_vector.svg" inkscape:version="1.4.2 (ebf0e940, 2025-05-08)">
  <sodipodi:namedview id="namedview1" pagecolor="#ffffff" bordercolor="#000000" borderopacity="0.25" inkscape:showpageshadow="2" inkscape:pageopacity="0.0" inkscape:pagecheckerboard="true" inkscape:deskcolor="#d1d1d1" showgrid="false" inkscape:zoom="1.1741664" inkscape:cx="118.38186" inkscape:cy="45.138406" inkscape:window-width="976" inkscape:window-height="1027" inkscape:window-x="0" inkscape:window-y="25" inkscape:window-maximized="0" inkscape:current-layer="g1851" showborder="false" />
  <desc id="desc1">
	SIMPLE PANTHER AND BIRD FRAME BY FRAME ANIMATION
	Coded by Emasoft for Opentoonz (https://github.com/opentoonz/opentoonz)
	
	Example implementation of basic SVG frame-by-frame animation, for 
	educational purpouses. A frame based animation is easy to export.
	No javascript or CSS, just pure SVG.
	In this way the SVG format is used like an MPEG for vector animations.
	
	This animation has two animation groups:
	- the panther (17 frames, 0.75s per frame)
	- the bird (9 frames, 0.75s per frame)
	
	Usually they would be joined in a single frame sequence. But to show
	the flexibility of this method, since the cycle of the bird is shorter than
	the cycle of the panther, we are going to treat them as separate
	entities standing on the same animation scene. In this way we reduce both the
	svg file size and the ram used during playback. For small entities like those
  two it would seem nothing much, but when bigger elements with thousands of
	vectors are used in more realistic scenarios, the gains become evident.
	
	
	This file is divided in two sections:
	
	1) The Definitions (defs) : Here you need to put all frames and clipping paths.
	All frames require an unique id. For example: frame0001, frame0002, etc.
	All elements of a frame must be wrapped in a group with such id or, if needed
	to reduce memory consumption, a frame can be broken into different parts,
	with different amount of frames for each element. In such case, the ids can be
	named with the sub element name followed by the frame number (e.g. bird_0001).
	Objects written here are not displayed until the animation cycle instances them.
	
	2) The Animation Scene (a group called "animation_scene") : Here you need to put
	the elements on the scene. First the background rectangle (with or without a
	clipping path), then the animated groups of objects (one called "animated_group_1"
	and the other called "animated_group_2").
	The animation elements needs the following parameters:
	
	values : the id of the frames, with a leading # char and separated by a ; char.
	The frames must be named in the exact order you need them to be displayed.
	Also the first frame id must be indicated in the "use" element as the href
	(example: xlink:href="#frame0001" ).
	
	begin : the start time delay, in seconds (example: 0s).
	
	repeatCount : this should set on "indefinite" if you want a looping animation. 
	Otherwise on "0" if you want the animation to stop at the last frame. Any other
	number would be the number of repetitions of the entire sequence.
	
	dur : the duration in seconds of each frame. For example: "1.0" means 1 frame
	per second. For 60fps is "0.01667". For 24fps you have "0.04167" seconds.
	(just divide 1 for the number of frames, i.e. 1/60=0.0166666.., aprox: "0.01667").
	
	Please refer to Opentoonz repository on GitHub for any error/issue/question.
	Enjoy.
	
	</desc>
  <defs id="defs82" />
  
  <defs id="defs83" />
  
  <g id="g1852" transform="translate(-1581.5454,-280.99008)" inkscape:label="TITLE_FBF•SVG_GROUP">
    <g id="g1">
      <g id="g1851" transform="translate(1060.3531,8.6007945)" inkscape:label="text_content">
        <path d="M 485.596497 311.882547 L 462.630202 311.882547 L 462.630202 327.719900 L 484.785420 327.719900 L 484.785420 337.068633 L 462.630202 337.068633 L 462.630202 368.444520 L 452.683832 368.444520 L 452.683832 302.533814 L 485.596497 302.533814 Z" id="text7_path" fill="#ffffff" stroke-width="36.4275" /><path d="M 497.122332 368.444520 L 497.122332 302.533814 L 507.026013 302.533814 Q 513.642697 302.533814 517.570019 303.558333 Q 521.540029 304.582851 524.272079 307.016083 Q 527.046817 309.534692 528.668972 313.291261 Q 530.333815 317.090518 530.333815 320.975151 Q 530.333815 328.061406 524.912403 332.970558 Q 530.163062 334.763466 533.193930 339.245736 Q 536.267486 343.685317 536.267486 349.576300 Q 536.267486 357.302879 530.803386 362.638914 Q 527.516388 365.925911 523.418313 367.206560 Q 518.936044 368.444520 512.191295 368.444520 Z M 507.068702 330.836144 L 510.184946 330.836144 Q 515.734423 330.836144 518.317064 328.381568 Q 520.899705 325.926992 520.899705 321.145904 Q 520.899705 316.492882 518.253031 314.080994 Q 515.606358 311.669106 510.569141 311.669106 L 507.068702 311.669106 Z M 507.068702 359.095786 L 513.215814 359.095786 Q 519.960563 359.095786 523.119495 356.449113 Q 526.449181 353.588998 526.449181 349.192105 Q 526.449181 344.923277 523.247560 342.020474 Q 520.131316 339.160359 512.105919 339.160359 L 507.068702 339.160359 Z" id="text6_path" fill="#ffffff" stroke-width="36.4275" /><path d="M 581.730497 311.882547 L 558.764202 311.882547 L 558.764202 327.719900 L 580.919420 327.719900 L 580.919420 337.068633 L 558.764202 337.068633 L 558.764202 368.444520 L 548.817832 368.444520 L 548.817832 302.533814 L 581.730497 302.533814 Z" id="text5_path" fill="#ffffff" stroke-width="36.4275" /><path d="M 618.527805 320.975151 Q 623.991905 320.975151 627.919226 325.073226 Q 631.889237 329.128613 631.889237 334.806154 Q 631.889237 340.611761 627.919226 344.624459 Q 623.949216 348.679846 618.314363 348.679846 Q 612.764887 348.679846 608.709500 344.624459 Q 604.739490 340.526384 604.739490 334.848843 Q 604.739490 329.043236 608.752188 325.030538 Q 612.807575 320.975151 618.527805 320.975151 Z" id="text4_path" fill="#ffffff" stroke-width="36.4275" /><path d="M 696.433912 312.352118 L 688.365826 317.133206 Q 686.103348 313.205884 684.054310 312.010612 Q 681.919896 310.644587 678.547522 310.644587 Q 674.406758 310.644587 671.674708 312.992443 Q 668.942658 315.297610 668.942658 318.798049 Q 668.942658 323.621825 676.114290 326.567316 L 682.688285 329.256678 Q 690.713682 332.500987 694.427562 337.175354 Q 698.141443 341.849721 698.141443 348.637158 Q 698.141443 357.729761 692.079707 363.663432 Q 685.975283 369.639792 676.925367 369.639792 Q 668.345023 369.639792 662.752858 364.559886 Q 657.246069 359.479981 655.880044 350.259312 L 665.954479 348.039522 Q 666.637491 353.845128 668.345023 356.064918 Q 671.418579 360.333747 677.309562 360.333747 Q 681.962584 360.333747 685.036140 357.217502 Q 688.109697 354.101258 688.109697 349.320170 Q 688.109697 347.399197 687.576093 345.798387 Q 687.042490 344.197576 685.911250 342.852895 Q 684.780011 341.508215 682.987103 340.334287 Q 681.194195 339.160359 678.718275 338.093152 L 672.357721 335.446479 Q 658.825536 329.726249 658.825536 318.712672 Q 658.825536 311.284911 664.503077 306.290383 Q 670.180619 301.253165 678.632898 301.253165 Q 690.030669 301.253165 696.433912 312.352118 Z" id="text3_path" fill="#ffffff" stroke-width="36.4275" /><path d="M 713.295778 302.533814 L 731.523674 348.210275 L 750.007700 302.533814 L 760.893212 302.533814 L 731.310233 373.396361 L 702.410266 302.533814 Z" id="text2_path" fill="#ffffff" stroke-width="36.4275" /><path d="M 800.081077 334.123142 L 827.316201 334.123142 L 827.316201 336.300244 Q 827.316201 343.728005 825.565981 349.448235 Q 823.858450 354.741582 819.803063 359.351916 Q 810.625083 369.682480 796.452573 369.682480 Q 782.621570 369.682480 772.760577 359.693422 Q 762.899584 349.661676 762.899584 335.617232 Q 762.899584 321.273969 772.931330 311.284911 Q 782.963077 301.253165 797.349027 301.253165 Q 805.075606 301.253165 811.777666 304.412098 Q 818.180909 307.571031 824.370709 314.657286 L 817.284455 321.444722 Q 809.173681 310.644587 797.519780 310.644587 Q 787.061152 310.644587 779.974897 317.858907 Q 772.888642 324.945161 772.888642 335.617232 Q 772.888642 346.630808 780.785974 353.759751 Q 788.171047 360.376435 796.794080 360.376435 Q 804.136464 360.376435 809.984759 355.424594 Q 815.833053 350.430065 816.516066 343.471875 L 800.081077 343.471875 Z" id="text1_path" fill="#ffffff" stroke-width="36.4275" /><path d="M 460.627436 396.352992 L 460.627436 413.139280 L 457.675583 413.139280 L 457.675583 396.352992 L 453.178125 396.352992 L 453.178125 393.578504 L 465.112225 393.578504 L 465.112225 396.352992 Z" id="text43_path" fill="#ffffff" stroke-width="19.4595" /><path d="M 463.161213 391.741514 L 466.011715 391.741514 L 466.011715 401.825955 Q 467.531983 400.457715 469.368973 400.457715 Q 471.459340 400.457715 472.713561 401.813287 Q 473.777749 402.991494 473.777749 405.575949 L 473.777749 413.139280 L 470.927247 413.139280 L 470.927247 405.841996 Q 470.927247 404.359735 470.401488 403.694618 Q 469.875728 403.029501 468.710190 403.029501 Q 467.215260 403.029501 466.607153 403.954330 Q 466.011715 404.891828 466.011715 407.172230 L 466.011715 413.139280 L 463.161213 413.139280 Z" id="text42_path" fill="#ffffff" stroke-width="19.4595" /><path d="M 484.901044 407.640979 L 476.058155 407.640979 Q 476.172175 409.161247 477.046329 410.060738 Q 477.920483 410.947561 479.288723 410.947561 Q 480.352911 410.947561 481.049700 410.440805 Q 481.733820 409.934049 482.607974 408.565808 L 485.015065 409.908711 Q 484.457633 410.858879 483.836857 411.536665 Q 483.216081 412.214451 482.506623 412.651527 Q 481.797165 413.088604 480.973687 413.291307 Q 480.150208 413.494009 479.187372 413.494009 Q 476.425553 413.494009 474.753258 411.720364 Q 473.080964 409.934049 473.080964 406.982196 Q 473.080964 404.055681 474.702583 402.244029 Q 476.336870 400.457715 479.035345 400.457715 Q 481.759158 400.457715 483.342770 402.193353 Q 484.913713 403.916323 484.913713 406.969527 Z M 481.974529 405.309902 Q 481.379091 403.029501 479.098690 403.029501 Q 478.579265 403.029501 478.123185 403.187862 Q 477.667105 403.346223 477.293372 403.643942 Q 476.919640 403.941661 476.653593 404.359735 Q 476.387546 404.777808 476.248188 405.309902 Z" id="text41_path" fill="#ffffff" stroke-width="19.4595" /><path d="M 498.912845 396.352992 L 492.096979 396.352992 L 492.096979 401.053153 L 498.672136 401.053153 L 498.672136 403.827641 L 492.096979 403.827641 L 492.096979 413.139280 L 489.145126 413.139280 L 489.145126 393.578504 L 498.912845 393.578504 Z" id="text40_path" fill="#ffffff" stroke-width="19.4595" /><path d="M 497.493923 400.799775 L 500.344425 400.799775 L 500.344425 401.901969 Q 501.129897 401.078491 501.738004 400.774437 Q 502.358780 400.457715 503.207596 400.457715 Q 504.335127 400.457715 505.564010 401.192511 L 504.259114 403.802303 Q 503.448305 403.219534 502.675502 403.219534 Q 500.344425 403.219534 500.344425 406.741487 L 500.344425 413.139280 L 497.493923 413.139280 Z" id="text39_path" fill="#ffffff" stroke-width="19.4595" /><path d="M 513.672111 400.799775 L 516.535282 400.799775 L 516.535282 413.139280 L 513.672111 413.139280 L 513.672111 411.847053 Q 511.911134 413.494009 509.884111 413.494009 Q 507.324994 413.494009 505.652700 411.644350 Q 503.993074 409.756685 503.993074 406.931521 Q 503.993074 404.157032 505.652700 402.307374 Q 507.312325 400.457715 509.808098 400.457715 Q 511.961810 400.457715 513.672111 402.231360 Z M 506.906920 406.931521 Q 506.906920 408.705166 507.857087 409.820029 Q 508.832593 410.947561 510.314853 410.947561 Q 511.898465 410.947561 512.873970 409.858036 Q 513.849476 408.730504 513.849476 406.994865 Q 513.849476 405.259226 512.873970 404.131695 Q 511.898465 403.029501 510.340191 403.029501 Q 508.870599 403.029501 507.882425 404.144363 Q 506.906920 405.271895 506.906920 406.931521 Z" id="text38_path" fill="#ffffff" stroke-width="19.4595" /><path d="M 514.812313 400.799775 L 517.662815 400.799775 L 517.662815 401.939976 Q 518.486293 401.078491 519.069063 400.774437 Q 519.689838 400.457715 520.627337 400.457715 Q 522.717705 400.457715 523.933919 402.282036 Q 525.276822 400.457715 527.569892 400.457715 Q 531.737959 400.457715 531.737959 405.512604 L 531.737959 413.139280 L 528.874788 413.139280 L 528.874788 406.285407 Q 528.874788 404.511761 528.444046 403.776965 Q 528.000635 403.029501 526.987123 403.029501 Q 525.808915 403.029501 525.270487 403.916323 Q 524.732059 404.803146 524.732059 406.766825 L 524.732059 413.139280 L 521.868889 413.139280 L 521.868889 406.323414 Q 521.868889 403.029501 519.968554 403.029501 Q 518.765009 403.029501 518.213912 403.928992 Q 517.662815 404.828484 517.662815 406.766825 L 517.662815 413.139280 L 514.812313 413.139280 Z" id="text37_path" fill="#ffffff" stroke-width="19.4595" /><path d="M 541.898404 407.640979 L 533.055515 407.640979 Q 533.169535 409.161247 534.043689 410.060738 Q 534.917843 410.947561 536.286083 410.947561 Q 537.350271 410.947561 538.047060 410.440805 Q 538.731180 409.934049 539.605334 408.565808 L 542.012425 409.908711 Q 541.454993 410.858879 540.834217 411.536665 Q 540.213441 412.214451 539.503983 412.651527 Q 538.794525 413.088604 537.971047 413.291307 Q 537.147568 413.494009 536.184732 413.494009 Q 533.422913 413.494009 531.750618 411.720364 Q 530.078324 409.934049 530.078324 406.982196 Q 530.078324 404.055681 531.699943 402.244029 Q 533.334230 400.457715 536.032705 400.457715 Q 538.756518 400.457715 540.340130 402.193353 Q 541.911073 403.916323 541.911073 406.969527 Z M 538.971889 405.309902 Q 538.376451 403.029501 536.096050 403.029501 Q 535.576625 403.029501 535.120545 403.187862 Q 534.664465 403.346223 534.290732 403.643942 Q 533.917000 403.941661 533.650953 404.359735 Q 533.384906 404.777808 533.245548 405.309902 Z" id="text36_path" fill="#ffffff" stroke-width="19.4595" /><path d="M 546.142486 413.139280 L 546.142486 393.578504 L 549.081670 393.578504 Q 551.045349 393.578504 552.210887 393.882557 Q 553.389095 394.186611 554.199904 394.908738 Q 555.023382 395.656203 555.504800 396.771066 Q 555.998887 397.898598 555.998887 399.051467 Q 555.998887 401.154504 554.389937 402.611427 Q 555.948212 403.143521 556.847703 404.473755 Q 557.759864 405.791320 557.759864 407.539628 Q 557.759864 409.832698 556.138245 411.416310 Q 555.162740 412.391815 553.946526 412.771882 Q 552.616292 413.139280 550.614606 413.139280 Z M 549.094339 401.977982 L 550.019168 401.977982 Q 551.666125 401.977982 552.432593 401.249521 Q 553.199061 400.521059 553.199061 399.102143 Q 553.199061 397.721233 552.413590 397.005440 Q 551.628118 396.289648 550.133188 396.289648 L 549.094339 396.289648 Z M 549.094339 410.364792 L 550.918660 410.364792 Q 552.920345 410.364792 553.857844 409.579320 Q 554.846018 408.730504 554.846018 407.425608 Q 554.846018 406.158718 553.895850 405.297233 Q 552.971021 404.448417 550.589269 404.448417 L 549.094339 404.448417 Z" id="text35_path" fill="#ffffff" stroke-width="19.4595" /><path d="M 560.166955 410.846210 L 554.617978 400.799775 L 557.924560 400.799775 L 561.699891 407.894357 L 565.221844 400.799775 L 568.439744 400.799775 L 558.608680 419.853795 L 555.352774 419.853795 Z" id="text34_path" fill="#ffffff" stroke-width="19.4595" /><path d="M 581.526715 396.352992 L 574.710849 396.352992 L 574.710849 401.053153 L 581.286006 401.053153 L 581.286006 403.827641 L 574.710849 403.827641 L 574.710849 413.139280 L 571.758996 413.139280 L 571.758996 393.578504 L 581.526715 393.578504 Z" id="text33_path" fill="#ffffff" stroke-width="19.4595" /><path d="M 580.107803 400.799775 L 582.958305 400.799775 L 582.958305 401.901969 Q 583.743777 401.078491 584.351884 400.774437 Q 584.972660 400.457715 585.821476 400.457715 Q 586.949007 400.457715 588.177890 401.192511 L 586.872994 403.802303 Q 586.062185 403.219534 585.289382 403.219534 Q 582.958305 403.219534 582.958305 406.741487 L 582.958305 413.139280 L 580.107803 413.139280 Z" id="text32_path" fill="#ffffff" stroke-width="19.4595" /><path d="M 596.285971 400.799775 L 599.149142 400.799775 L 599.149142 413.139280 L 596.285971 413.139280 L 596.285971 411.847053 Q 594.524994 413.494009 592.497971 413.494009 Q 589.938854 413.494009 588.266560 411.644350 Q 586.606934 409.756685 586.606934 406.931521 Q 586.606934 404.157032 588.266560 402.307374 Q 589.926185 400.457715 592.421958 400.457715 Q 594.575670 400.457715 596.285971 402.231360 Z M 589.520780 406.931521 Q 589.520780 408.705166 590.470947 409.820029 Q 591.446453 410.947561 592.928713 410.947561 Q 594.512325 410.947561 595.487830 409.858036 Q 596.463336 408.730504 596.463336 406.994865 Q 596.463336 405.259226 595.487830 404.131695 Q 594.512325 403.029501 592.954051 403.029501 Q 591.484459 403.029501 590.496285 404.144363 Q 589.520780 405.271895 589.520780 406.931521 Z" id="text31_path" fill="#ffffff" stroke-width="19.4595" /><path d="M 597.426173 400.799775 L 600.276675 400.799775 L 600.276675 401.939976 Q 601.100153 401.078491 601.682923 400.774437 Q 602.303698 400.457715 603.241197 400.457715 Q 605.331565 400.457715 606.547779 402.282036 Q 607.890682 400.457715 610.183752 400.457715 Q 614.351819 400.457715 614.351819 405.512604 L 614.351819 413.139280 L 611.488648 413.139280 L 611.488648 406.285407 Q 611.488648 404.511761 611.057906 403.776965 Q 610.614495 403.029501 609.600983 403.029501 Q 608.422775 403.029501 607.884347 403.916323 Q 607.345919 404.803146 607.345919 406.766825 L 607.345919 413.139280 L 604.482749 413.139280 L 604.482749 406.323414 Q 604.482749 403.029501 602.582414 403.029501 Q 601.378869 403.029501 600.827772 403.928992 Q 600.276675 404.828484 600.276675 406.766825 L 600.276675 413.139280 L 597.426173 413.139280 Z" id="text30_path" fill="#ffffff" stroke-width="19.4595" /><path d="M 624.512284 407.640979 L 615.669395 407.640979 Q 615.783415 409.161247 616.657569 410.060738 Q 617.531723 410.947561 618.899963 410.947561 Q 619.964151 410.947561 620.660940 410.440805 Q 621.345060 409.934049 622.219214 408.565808 L 624.626305 409.908711 Q 624.068873 410.858879 623.448097 411.536665 Q 622.827321 412.214451 622.117863 412.651527 Q 621.408405 413.088604 620.584927 413.291307 Q 619.761448 413.494009 618.798612 413.494009 Q 616.036793 413.494009 614.364498 411.720364 Q 612.692204 409.934049 612.692204 406.982196 Q 612.692204 404.055681 614.313823 402.244029 Q 615.948110 400.457715 618.646585 400.457715 Q 621.370398 400.457715 622.954010 402.193353 Q 624.524953 403.916323 624.524953 406.969527 Z M 621.585769 405.309902 Q 620.990331 403.029501 618.709930 403.029501 Q 618.190505 403.029501 617.734425 403.187862 Q 617.278345 403.346223 616.904612 403.643942 Q 616.530880 403.941661 616.264833 404.359735 Q 615.998786 404.777808 615.859428 405.309902 Z" id="text29_path" fill="#ffffff" stroke-width="19.4595" /><path d="M 629.744540 393.578504 L 635.154159 407.134223 L 640.639791 393.578504 L 643.870359 393.578504 L 635.090814 414.608872 L 626.513971 393.578504 Z" id="text28_path" fill="#ffffff" stroke-width="19.4595" /><path d="M 648.545184 407.640979 L 639.702295 407.640979 Q 639.816315 409.161247 640.690469 410.060738 Q 641.564623 410.947561 642.932863 410.947561 Q 643.997051 410.947561 644.693840 410.440805 Q 645.377960 409.934049 646.252114 408.565808 L 648.659205 409.908711 Q 648.101773 410.858879 647.480997 411.536665 Q 646.860221 412.214451 646.150763 412.651527 Q 645.441305 413.088604 644.617827 413.291307 Q 643.794348 413.494009 642.831512 413.494009 Q 640.069693 413.494009 638.397398 411.720364 Q 636.725104 409.934049 636.725104 406.982196 Q 636.725104 404.055681 638.346723 402.244029 Q 639.981010 400.457715 642.679485 400.457715 Q 645.403298 400.457715 646.986910 402.193353 Q 648.557853 403.916323 648.557853 406.969527 Z M 645.618669 405.309902 Q 645.023231 403.029501 642.742830 403.029501 Q 642.223405 403.029501 641.767325 403.187862 Q 641.311245 403.346223 640.937512 403.643942 Q 640.563780 403.941661 640.297733 404.359735 Q 640.031686 404.777808 639.892328 405.309902 Z" id="text27_path" fill="#ffffff" stroke-width="19.4595" /><path d="M 656.475917 401.331868 L 656.475917 405.119869 Q 655.500412 403.928992 654.727609 403.485581 Q 653.967475 403.029501 652.941295 403.029501 Q 651.332345 403.029501 650.268158 404.157032 Q 649.203970 405.284564 649.203970 406.982196 Q 649.203970 408.717835 650.230151 409.832698 Q 651.269000 410.947561 652.877950 410.947561 Q 653.904131 410.947561 654.689602 410.504150 Q 655.449736 410.073407 656.475917 408.831855 L 656.475917 412.594517 Q 654.740278 413.494009 653.004639 413.494009 Q 650.141469 413.494009 648.215796 411.644350 Q 646.290124 409.782022 646.290124 407.020203 Q 646.290124 404.258384 648.241134 402.358049 Q 650.192144 400.457715 653.029977 400.457715 Q 654.854298 400.457715 656.475917 401.331868 Z" id="text26_path" fill="#ffffff" stroke-width="19.4595" /><path d="M 657.223377 403.460243 L 657.223377 413.139280 L 654.372876 413.139280 L 654.372876 403.460243 L 653.156662 403.460243 L 653.156662 400.799775 L 654.372876 400.799775 L 654.372876 396.276979 L 657.223377 396.276979 L 657.223377 400.799775 L 659.440434 400.799775 L 659.440434 403.460243 Z" id="text25_path" fill="#ffffff" stroke-width="19.4595" /><path d="M 659.415094 406.880845 Q 659.415094 404.207708 661.328097 402.332711 Q 663.241101 400.457715 665.990251 400.457715 Q 668.752071 400.457715 670.677743 402.345380 Q 672.578078 404.233046 672.578078 406.982196 Q 672.578078 409.756685 670.665074 411.631681 Q 668.739402 413.494009 665.939576 413.494009 Q 663.165087 413.494009 661.290091 411.593675 Q 659.415094 409.718678 659.415094 406.880845 Z M 662.328940 406.931521 Q 662.328940 408.781180 663.317114 409.858036 Q 664.330626 410.947561 665.990251 410.947561 Q 667.662546 410.947561 668.663388 409.870705 Q 669.664231 408.793849 669.664231 406.994865 Q 669.664231 405.195882 668.663388 404.119026 Q 667.649877 403.029501 665.990251 403.029501 Q 664.355964 403.029501 663.342452 404.119026 Q 662.328940 405.208551 662.328940 406.931521 Z" id="text24_path" fill="#ffffff" stroke-width="19.4595" /><path d="M 669.993613 400.799775 L 672.844115 400.799775 L 672.844115 401.901969 Q 673.629587 401.078491 674.237694 400.774437 Q 674.858470 400.457715 675.707286 400.457715 Q 676.834817 400.457715 678.063700 401.192511 L 676.758804 403.802303 Q 675.947995 403.219534 675.175192 403.219534 Q 672.844115 403.219534 672.844115 406.741487 L 672.844115 413.139280 L 669.993613 413.139280 Z" id="text23_path" fill="#ffffff" stroke-width="19.4595" /><path d="M 694.330565 408.388444 L 685.956424 408.388444 L 683.777374 413.139280 L 680.597481 413.139280 L 690.276518 392.349621 L 699.613495 413.139280 L 696.382926 413.139280 Z M 693.127020 405.613955 L 690.225842 398.962785 L 687.185307 405.613955 Z" id="text22_path" fill="#ffffff" stroke-width="19.4595" /><path d="M 692.873653 400.799775 L 695.736824 400.799775 L 695.736824 401.939976 Q 697.231754 400.457715 699.106750 400.457715 Q 701.260463 400.457715 702.464008 401.813287 Q 703.502857 402.966156 703.502857 405.575949 L 703.502857 413.139280 L 700.639687 413.139280 L 700.639687 406.247400 Q 700.639687 404.423079 700.132931 403.726290 Q 699.638844 403.016832 698.333948 403.016832 Q 696.915031 403.016832 696.319593 403.954330 Q 695.736824 404.879159 695.736824 407.184899 L 695.736824 413.139280 L 692.873653 413.139280 Z" id="text21_path" fill="#ffffff" stroke-width="19.4595" /><path d="M 706.226655 400.799775 L 706.226655 413.139280 L 703.376153 413.139280 L 703.376153 400.799775 Z M 702.945411 395.668872 Q 702.945411 394.921407 703.490173 394.376644 Q 704.034936 393.831882 704.795070 393.831882 Q 705.567872 393.831882 706.112635 394.376644 Q 706.657397 394.908738 706.657397 395.681541 Q 706.657397 396.454343 706.112635 396.999106 Q 705.580541 397.543868 704.807739 397.543868 Q 704.034936 397.543868 703.490173 396.999106 Q 702.945411 396.454343 702.945411 395.668872 Z" id="text20_path" fill="#ffffff" stroke-width="19.4595" /><path d="M 708.532403 400.799775 L 711.382905 400.799775 L 711.382905 401.939976 Q 712.206383 401.078491 712.789153 400.774437 Q 713.409928 400.457715 714.347427 400.457715 Q 716.437795 400.457715 717.654009 402.282036 Q 718.996912 400.457715 721.289982 400.457715 Q 725.458049 400.457715 725.458049 405.512604 L 725.458049 413.139280 L 722.594878 413.139280 L 722.594878 406.285407 Q 722.594878 404.511761 722.164136 403.776965 Q 721.720725 403.029501 720.707213 403.029501 Q 719.529005 403.029501 718.990577 403.916323 Q 718.452149 404.803146 718.452149 406.766825 L 718.452149 413.139280 L 715.588979 413.139280 L 715.588979 406.323414 Q 715.588979 403.029501 713.688644 403.029501 Q 712.485099 403.029501 711.934002 403.928992 Q 711.382905 404.828484 711.382905 406.766825 L 711.382905 413.139280 L 708.532403 413.139280 Z" id="text19_path" fill="#ffffff" stroke-width="19.4595" /><path d="M 733.477461 400.799775 L 736.340632 400.799775 L 736.340632 413.139280 L 733.477461 413.139280 L 733.477461 411.847053 Q 731.716484 413.494009 729.689461 413.494009 Q 727.130344 413.494009 725.458050 411.644350 Q 723.798424 409.756685 723.798424 406.931521 Q 723.798424 404.157032 725.458050 402.307374 Q 727.117675 400.457715 729.613448 400.457715 Q 731.767160 400.457715 733.477461 402.231360 Z M 726.712270 406.931521 Q 726.712270 408.705166 727.662437 409.820029 Q 728.637943 410.947561 730.120203 410.947561 Q 731.703815 410.947561 732.679320 409.858036 Q 733.654826 408.730504 733.654826 406.994865 Q 733.654826 405.259226 732.679320 404.131695 Q 731.703815 403.029501 730.145541 403.029501 Q 728.675949 403.029501 727.687775 404.144363 Q 726.712270 405.271895 726.712270 406.931521 Z" id="text18_path" fill="#ffffff" stroke-width="19.4595" /><path d="M 737.556857 403.460243 L 737.556857 413.139280 L 734.706356 413.139280 L 734.706356 403.460243 L 733.490142 403.460243 L 733.490142 400.799775 L 734.706356 400.799775 L 734.706356 396.276979 L 737.556857 396.276979 L 737.556857 400.799775 L 739.773914 400.799775 L 739.773914 403.460243 Z" id="text17_path" fill="#ffffff" stroke-width="19.4595" /><path d="M 743.232515 400.799775 L 743.232515 413.139280 L 740.382013 413.139280 L 740.382013 400.799775 Z M 739.951271 395.668872 Q 739.951271 394.921407 740.496033 394.376644 Q 741.040796 393.831882 741.800930 393.831882 Q 742.573732 393.831882 743.118495 394.376644 Q 743.663257 394.908738 743.663257 395.681541 Q 743.663257 396.454343 743.118495 396.999106 Q 742.586401 397.543868 741.813599 397.543868 Q 741.040796 397.543868 740.496033 396.999106 Q 739.951271 396.454343 739.951271 395.668872 Z" id="text16_path" fill="#ffffff" stroke-width="19.4595" /><path d="M 744.955464 406.880845 Q 744.955464 404.207708 746.868467 402.332711 Q 748.781471 400.457715 751.530621 400.457715 Q 754.292441 400.457715 756.218113 402.345380 Q 758.118448 404.233046 758.118448 406.982196 Q 758.118448 409.756685 756.205444 411.631681 Q 754.279772 413.494009 751.479946 413.494009 Q 748.705457 413.494009 746.830461 411.593675 Q 744.955464 409.718678 744.955464 406.880845 Z M 747.869310 406.931521 Q 747.869310 408.781180 748.857484 409.858036 Q 749.870996 410.947561 751.530621 410.947561 Q 753.202916 410.947561 754.203758 409.870705 Q 755.204601 408.793849 755.204601 406.994865 Q 755.204601 405.195882 754.203758 404.119026 Q 753.190247 403.029501 751.530621 403.029501 Q 749.896334 403.029501 748.882822 404.119026 Q 747.869310 405.208551 747.869310 406.931521 Z" id="text15_path" fill="#ffffff" stroke-width="19.4595" /><path d="M 755.533993 400.799775 L 758.397164 400.799775 L 758.397164 401.939976 Q 759.892094 400.457715 761.767090 400.457715 Q 763.920803 400.457715 765.124348 401.813287 Q 766.163197 402.966156 766.163197 405.575949 L 766.163197 413.139280 L 763.300027 413.139280 L 763.300027 406.247400 Q 763.300027 404.423079 762.793271 403.726290 Q 762.299184 403.016832 760.994288 403.016832 Q 759.575371 403.016832 758.979933 403.954330 Q 758.397164 404.879159 758.397164 407.184899 L 758.397164 413.139280 L 755.533993 413.139280 Z" id="text14_path" fill="#ffffff" stroke-width="19.4595" /><path d="M 781.720615 396.352992 L 774.904749 396.352992 L 774.904749 401.053153 L 781.479906 401.053153 L 781.479906 403.827641 L 774.904749 403.827641 L 774.904749 413.139280 L 771.952896 413.139280 L 771.952896 393.578504 L 781.720615 393.578504 Z" id="text13_path" fill="#ffffff" stroke-width="19.4595" /><path d="M 779.921624 406.880845 Q 779.921624 404.207708 781.834627 402.332711 Q 783.747631 400.457715 786.496781 400.457715 Q 789.258601 400.457715 791.184273 402.345380 Q 793.084608 404.233046 793.084608 406.982196 Q 793.084608 409.756685 791.171604 411.631681 Q 789.245932 413.494009 786.446106 413.494009 Q 783.671617 413.494009 781.796621 411.593675 Q 779.921624 409.718678 779.921624 406.880845 Z M 782.835470 406.931521 Q 782.835470 408.781180 783.823644 409.858036 Q 784.837156 410.947561 786.496781 410.947561 Q 788.169076 410.947561 789.169918 409.870705 Q 790.170761 408.793849 790.170761 406.994865 Q 790.170761 405.195882 789.169918 404.119026 Q 788.156407 403.029501 786.496781 403.029501 Q 784.862494 403.029501 783.848982 404.119026 Q 782.835470 405.208551 782.835470 406.931521 Z" id="text12_path" fill="#ffffff" stroke-width="19.4595" /><path d="M 790.500143 400.799775 L 793.350645 400.799775 L 793.350645 401.901969 Q 794.136117 401.078491 794.744224 400.774437 Q 795.365000 400.457715 796.213816 400.457715 Q 797.341347 400.457715 798.570230 401.192511 L 797.265334 403.802303 Q 796.454525 403.219534 795.681722 403.219534 Q 793.350645 403.219534 793.350645 406.741487 L 793.350645 413.139280 L 790.500143 413.139280 Z" id="text11_path" fill="#ffffff" stroke-width="19.4595" /><path d="M 797.480713 400.799775 L 800.331215 400.799775 L 800.331215 401.939976 Q 801.154693 401.078491 801.737463 400.774437 Q 802.358238 400.457715 803.295737 400.457715 Q 805.386105 400.457715 806.602319 402.282036 Q 807.945222 400.457715 810.238292 400.457715 Q 814.406359 400.457715 814.406359 405.512604 L 814.406359 413.139280 L 811.543188 413.139280 L 811.543188 406.285407 Q 811.543188 404.511761 811.112446 403.776965 Q 810.669035 403.029501 809.655523 403.029501 Q 808.477315 403.029501 807.938887 403.916323 Q 807.400459 404.803146 807.400459 406.766825 L 807.400459 413.139280 L 804.537289 413.139280 L 804.537289 406.323414 Q 804.537289 403.029501 802.636954 403.029501 Q 801.433409 403.029501 800.882312 403.928992 Q 800.331215 404.828484 800.331215 406.766825 L 800.331215 413.139280 L 797.480713 413.139280 Z" id="text10_path" fill="#ffffff" stroke-width="19.4595" /><path d="M 822.425791 400.799775 L 825.288962 400.799775 L 825.288962 413.139280 L 822.425791 413.139280 L 822.425791 411.847053 Q 820.664814 413.494009 818.637791 413.494009 Q 816.078674 413.494009 814.406380 411.644350 Q 812.746754 409.756685 812.746754 406.931521 Q 812.746754 404.157032 814.406380 402.307374 Q 816.066005 400.457715 818.561778 400.457715 Q 820.715490 400.457715 822.425791 402.231360 Z M 815.660600 406.931521 Q 815.660600 408.705166 816.610767 409.820029 Q 817.586273 410.947561 819.068533 410.947561 Q 820.652145 410.947561 821.627650 409.858036 Q 822.603156 408.730504 822.603156 406.994865 Q 822.603156 405.259226 821.627650 404.131695 Q 820.652145 403.029501 819.093871 403.029501 Q 817.624279 403.029501 816.636105 404.144363 Q 815.660600 405.271895 815.660600 406.931521 Z" id="text9_path" fill="#ffffff" stroke-width="19.4595" /><path d="M 826.505157 403.460243 L 826.505157 413.139280 L 823.654656 413.139280 L 823.654656 403.460243 L 822.438442 403.460243 L 822.438442 400.799775 L 823.654656 400.799775 L 823.654656 396.276979 L 826.505157 396.276979 L 826.505157 400.799775 L 828.722214 400.799775 L 828.722214 403.460243 Z" id="text8_path" fill="#ffffff" stroke-width="19.4595" /></g>
      <rect style="fill:none;fill-opacity:1;stroke:#fefefe;stroke-width:4.76099;stroke-dasharray:none;stroke-opacity:1" id="rect1851" width="457.6257" height="170.22446" x="1471.5403" y="283.37057" inkscape:label="rectangular_border" />
    </g>
  </g>
</svg>