<?xml version="1.0" encoding="UTF-8" standalone="no"?>
<svg
   height="24px"
   viewBox="0 -960 960 960"
   width="24px"
   fill="#000000"
   version="1.1"
   id="svg1"
   sodipodi:docname="addon-symbolic.svg"
   inkscape:version="1.4.3 (0d15f75042, 2025-12-25)"
   xmlns:inkscape="http://www.inkscape.org/namespaces/inkscape"
   xmlns:sodipodi="http://sodipodi.sourceforge.net/DTD/sodipodi-0.dtd"
   xmlns="http://www.w3.org/2000/svg"
   xmlns:svg="http://www.w3.org/2000/svg">
  <defs
     id="defs1" />
  <sodipodi:namedview
     id="namedview1"
     pagecolor="#ffffff"
     bordercolor="#000000"
     borderopacity="0.25"
     inkscape:showpageshadow="2"
     inkscape:pageopacity="0.0"
     inkscape:pagecheckerboard="0"
     inkscape:deskcolor="#d1d1d1"
     inkscape:zoom="36.916667"
     inkscape:cx="11.986456"
     inkscape:cy="11.986456"
     inkscape:window-width="3291"
     inkscape:window-height="1701"
     inkscape:window-x="50"
     inkscape:window-y="82"
     inkscape:window-maximized="0"
     inkscape:current-layer="svg1" />
  <path
     d="M352-120H200q-33 0-56.5-23.5T120-200v-152q48 0 84-30.5t36-77.5q0-47-36-77.5T120-568v-152q0-33 23.5-56.5T200-800h160q0-42 29-71t71-29q42 0 71 29t29 71h160q33 0 56.5 23.5T800-720v160q42 0 71 29t29 71q0 42-29 71t-71 29v160q0 33-23.5 56.5T720-120H568q0-50-31.5-85T460-240q-45 0-76.5 35T352-120Zm-152-80h85q24-66 77-93t98-27q45 0 98 27t77 93h85v-240h80q8 0 14-6t6-14q0-8-6-14t-14-6h-80v-240H480v-80q0-8-6-14t-14-6q-8 0-14 6t-6 14v80H200v88q54 20 87 67t33 105q0 57-33 104t-87 68v88Zm260-260Z"
     id="path1" />
</svg>
