<?xml version="1.0" encoding="UTF-8" standalone="no"?>
<svg
   height="24px"
   viewBox="0 -960 960 960"
   width="24px"
   fill="#000000"
   version="1.1"
   id="svg1"
   sodipodi:docname="batch-symbolic.svg"
   inkscape:version="1.4.2 (ebf0e940d0, 2025-05-08)"
   xmlns:inkscape="http://www.inkscape.org/namespaces/inkscape"
   xmlns:sodipodi="http://sodipodi.sourceforge.net/DTD/sodipodi-0.dtd"
   xmlns="http://www.w3.org/2000/svg"
   xmlns:svg="http://www.w3.org/2000/svg">
  <defs
     id="defs1" />
  <sodipodi:namedview
     id="namedview1"
     pagecolor="#ffffff"
     bordercolor="#000000"
     borderopacity="0.25"
     inkscape:showpageshadow="2"
     inkscape:pageopacity="0.0"
     inkscape:pagecheckerboard="0"
     inkscape:deskcolor="#d1d1d1"
     inkscape:zoom="36.916667"
     inkscape:cx="12"
     inkscape:cy="12"
     inkscape:window-width="3840"
     inkscape:window-height="2020"
     inkscape:window-x="0"
     inkscape:window-y="32"
     inkscape:window-maximized="1"
     inkscape:current-layer="svg1" />
  <path
     d="m 280,-80 c -22,0 -40.83333,-7.833333 -56.5,-23.5 C 207.83333,-119.16667 200,-138 200,-160 v -400 c 0,-22 7.83333,-40.83333 23.5,-56.5 15.66667,-15.66667 34.5,-23.5 56.5,-23.5 h 400 c 22,0 40.83333,7.83333 56.5,23.5 15.66667,15.66667 23.5,34.5 23.5,56.5 v 400 c 0,22 -7.83333,40.83333 -23.5,56.5 C 720.83333,-87.833333 702,-80 680,-80 Z m 0,-80 H 680 V -560 H 280 Z m -40,-540 c 0,-16.66667 5.83333,-30.83333 17.5,-42.5 11.66667,-11.66667 25.83333,-17.5 42.5,-17.5 h 360 c 16.66667,0 30.83333,5.83333 42.5,17.5 11.66667,11.66667 17.5,25.83333 17.5,42.5 z m 40,-120 c 0,-16.66667 5.83333,-30.83333 17.5,-42.5 11.66667,-11.66667 25.83333,-17.5 42.5,-17.5 h 280 c 16.66667,0 30.83333,5.83333 42.5,17.5 11.66667,11.66667 17.5,25.83333 17.5,42.5 z"
     id="path1"
     sodipodi:nodetypes="sssssssssssssccccccsssscccsssscc" />
</svg>
