<?xml version="1.0" encoding="UTF-8" standalone="no"?>
<svg
   height="24px"
   viewBox="0 -960 960 960"
   width="24px"
   fill="#000000"
   version="1.1"
   id="svg1"
   xmlns="http://www.w3.org/2000/svg"
   xmlns:svg="http://www.w3.org/2000/svg">
  <defs
     id="defs1" />
  <path
     d="m644-448-56-58 122-94-230-178-94 72-56-58 150-116 360 280-196 152Zm115 114-58-58 73-56 66 50-81 64Zm33 258L632-236 480-118 120-398l66-50 294 228 94-73-57-56-37 29-360-280 83-65L55-811l57-57 736 736-56 56ZM487-606Z"
     id="path1" />
</svg>
