<?xml version="1.0" encoding="UTF-8" standalone="no"?>
<svg
   height="24px"
   viewBox="0 -960 960 960"
   width="24px"
   fill="#000000"
   version="1.1"
   id="svg1"
   xmlns="http://www.w3.org/2000/svg"
   xmlns:svg="http://www.w3.org/2000/svg">
  <defs
     id="defs1" />
  <path
     d="m 200,-160 v -80 h 64 l 79,-263 c 5.33333,-17.33333 15.16667,-31.16667 29.5,-41.5 14.33333,-10.33333 30.16667,-15.5 47.5,-15.5 h 120 c 17.33333,0 33.16667,5.16667 47.5,15.5 14.33333,10.33333 24.16667,24.16667 29.5,41.5 l 79,263 h 64 v 80 z m 148,-80 H 612 L 540,-480 H 420 Z m 92,-400 v -200 h 80 v 200 z m 238,99 -57,-57 142,-141 56,56 z m 42,181 v -80 h 200 v 80 z m -438,-181 -141,-142 56,-56 142,141 z M 40,-360 v -80 h 200 v 80 z"
     id="path1" />
  <path
     style="fill:none;stroke-width:64;stroke-dasharray:none;fill-opacity:1;stroke:#000000;stroke-opacity:1"
     d="M 80.180588,-857.06546 875.48532,-83.43116"
     id="path2" />
</svg>
