<?xml version="1.0" encoding="UTF-8" standalone="no"?>
<svg
   height="24px"
   viewBox="0 -960 960 960"
   width="24px"
   fill="#000000"
   version="1.1"
   id="svg1"
   sodipodi:docname="machine-settings-advanced-symbolic.svg"
   inkscape:version="1.4.2 (ebf0e940d0, 2025-05-08)"
   xmlns:inkscape="http://www.inkscape.org/namespaces/inkscape"
   xmlns:sodipodi="http://sodipodi.sourceforge.net/DTD/sodipodi-0.dtd"
   xmlns="http://www.w3.org/2000/svg"
   xmlns:svg="http://www.w3.org/2000/svg">
  <defs
     id="defs1" />
  <sodipodi:namedview
     id="namedview1"
     pagecolor="#ffffff"
     bordercolor="#000000"
     borderopacity="0.25"
     inkscape:showpageshadow="2"
     inkscape:pageopacity="0.0"
     inkscape:pagecheckerboard="0"
     inkscape:deskcolor="#d1d1d1"
     inkscape:zoom="36.916667"
     inkscape:cx="12"
     inkscape:cy="12"
     inkscape:window-width="3840"
     inkscape:window-height="2020"
     inkscape:window-x="0"
     inkscape:window-y="32"
     inkscape:window-maximized="1"
     inkscape:current-layer="svg1" />
  <path
     d="M756-120 537-339l84-84 219 219-84 84Zm-552 0-84-84 276-276-68-68-28 28-51-51v82l-28 28-121-121 28-28h82l-50-50 142-142q20-20 43-29t47-9q24 0 47 9t43 29l-92 92 50 50-28 28 68 68 90-90q-4-11-6.5-23t-2.5-24q0-59 40.5-99.5T701-841q15 0 28.5 3t27.5 9l-99 99 72 72 99-99q7 14 9.5 27.5T841-701q0 59-40.5 99.5T701-561q-12 0-24-2t-23-7L204-120Z"
     id="path1" />
</svg>
