<?xml version="1.0" encoding="UTF-8" standalone="no"?>
<svg
   height="24px"
   viewBox="0 -960 960 960"
   width="24px"
   fill="#000000"
   version="1.1"
   id="svg1"
   sodipodi:docname="recipe-symbolic.svg"
   inkscape:version="1.4.2 (ebf0e940d0, 2025-05-08)"
   xmlns:inkscape="http://www.inkscape.org/namespaces/inkscape"
   xmlns:sodipodi="http://sodipodi.sourceforge.net/DTD/sodipodi-0.dtd"
   xmlns="http://www.w3.org/2000/svg"
   xmlns:svg="http://www.w3.org/2000/svg">
  <defs
     id="defs1" />
  <sodipodi:namedview
     id="namedview1"
     pagecolor="#ffffff"
     bordercolor="#000000"
     borderopacity="0.25"
     inkscape:showpageshadow="2"
     inkscape:pageopacity="0.0"
     inkscape:pagecheckerboard="0"
     inkscape:deskcolor="#d1d1d1"
     inkscape:zoom="36.916667"
     inkscape:cx="12"
     inkscape:cy="12"
     inkscape:window-width="3840"
     inkscape:window-height="2020"
     inkscape:window-x="0"
     inkscape:window-y="32"
     inkscape:window-maximized="1"
     inkscape:current-layer="svg1" />
  <path
     d="M360-400h80v-200h-80v200Zm-160-60q-46-23-73-66.5T100-621q0-75 51.5-127T278-800q12 0 24.5 2t24.5 5q25-41 65-64t88-23q48 0 88 23t65 64q12-3 24-5t25-2q75 0 126.5 52T860-621q0 51-27 94.5T760-460v220H200v-220Zm320 60h80v-200h-80v200Zm-240 80h400v-189l44-22q26-13 41-36.5t15-52.5q0-42-28.5-71T682-720q-11 0-20 2t-19 5l-47 13-31-52q-14-23-36.5-35.5T480-800q-26 0-48.5 12.5T395-752l-31 52-48-13q-10-2-19.5-4.5T277-720q-41 0-69 29t-28 71q0 29 15 52.5t41 36.5l44 22v189Zm-80 80h80v80h400v-80h80v160H200v-160Zm280-80Z"
     id="path1" />
</svg>
