<?xml version="1.0" encoding="UTF-8" standalone="no"?>
<svg
   height="24px"
   viewBox="0 -960 960 960"
   width="24px"
   fill="#000000"
   version="1.1"
   id="svg1"
   xmlns="http://www.w3.org/2000/svg"
   xmlns:svg="http://www.w3.org/2000/svg">
  <defs
     id="defs1" />
  <path
     d="m 160,-120 v -80 h 94 c -41.33333,-33.33333 -74,-74.16667 -98,-122.5 -24,-48.33333 -36,-100.83333 -36,-157.5 0,-50 9.5,-96.83333 28.5,-140.5 19,-43.66667 44.66667,-81.66667 77,-114 32.33333,-32.33333 70.33333,-58 114,-77 43.66667,-19 90.5,-28.5 140.5,-28.5 86,0 161.5,26.5 226.5,79.5 65,53 106.5,119.83333 124.5,200.5 h -83 c -17.33333,-58.66667 -50.33333,-106.66667 -99,-144 -48.66667,-37.33333 -105,-56 -169,-56 -78,0 -144.16667,27.16667 -198.5,81.5 -54.33333,54.33333 -81.5,120.5 -81.5,198.5 0,48 10.83333,92 32.5,132 21.66667,40 50.83333,72.66667 87.5,98 v -110 h 80 v 240 z m 380,40 c -16.66667,0 -30.83333,-5.833333 -42.5,-17.5 C 485.83333,-109.16667 480,-123.33333 480,-140 v -280 c 0,-16.66667 5.83333,-30.83333 17.5,-42.5 11.66667,-11.66667 25.83333,-17.5 42.5,-17.5 h 280 c 16.66667,0 30.83333,5.83333 42.5,17.5 11.66667,11.66667 17.5,25.83333 17.5,42.5 v 280 c 0,16.66667 -5.83333,30.83333 -17.5,42.5 C 850.83333,-85.833333 836.66667,-80 820,-80 Z m 20,-80 H 800 V -400.27088 H 560 Z"
     id="path1" />
</svg>
