<?xml version="1.0" encoding="UTF-8" standalone="no"?>
<svg
   height="24px"
   viewBox="0 -960 960 960"
   width="24px"
   fill="#000000"
   version="1.1"
   id="svg1"
   sodipodi:docname="sketch-constrain-point-symbolic.svg"
   inkscape:version="1.4.2 (ebf0e940d0, 2025-05-08)"
   xmlns:inkscape="http://www.inkscape.org/namespaces/inkscape"
   xmlns:sodipodi="http://sodipodi.sourceforge.net/DTD/sodipodi-0.dtd"
   xmlns="http://www.w3.org/2000/svg"
   xmlns:svg="http://www.w3.org/2000/svg">
  <defs
     id="defs1" />
  <sodipodi:namedview
     id="namedview1"
     pagecolor="#ffffff"
     bordercolor="#000000"
     borderopacity="0.25"
     inkscape:showpageshadow="2"
     inkscape:pageopacity="0.0"
     inkscape:pagecheckerboard="0"
     inkscape:deskcolor="#d1d1d1"
     inkscape:zoom="36.916667"
     inkscape:cx="12"
     inkscape:cy="12"
     inkscape:window-width="3840"
     inkscape:window-height="2020"
     inkscape:window-x="0"
     inkscape:window-y="32"
     inkscape:window-maximized="1"
     inkscape:current-layer="g6" />
  <g
     id="g6"
     transform="matrix(0.82281092,-0.82281092,0.82281092,0.82281092,480.00001,309.89848)">
    <path
       d="m 479.99997,-381.62092 c -13.44515,0 -26.15244,-2.58245 -38.12189,-7.74735 -11.96946,-5.1649 -22.42223,-12.2154 -31.35833,-21.15151 -8.93611,-8.9361 -15.98661,-19.38887 -21.15151,-31.35833 -5.1649,-11.96945 -7.74735,-24.67674 -7.74735,-38.12189 0,-13.60911 2.58245,-26.35739 7.74735,-38.24487 5.1649,-11.88747 12.2154,-22.29925 21.15151,-31.23535 8.9361,-8.93611 19.38887,-15.98661 31.35833,-21.15151 11.96945,-5.1649 24.67674,-7.74735 38.12189,-7.74735 13.60911,0 26.3574,2.58245 38.24487,7.74735 11.88748,5.1649 22.29925,12.2154 31.23535,21.15151 8.93611,8.9361 15.98662,19.34788 21.15152,31.23535 5.16489,11.88748 7.74734,24.63576 7.74734,38.24487 0,13.44515 -2.58245,26.15244 -7.74734,38.12189 -5.1649,11.96946 -12.21541,22.42223 -21.15152,31.35833 -8.93609,8.93611 -19.34787,15.98661 -31.23535,21.15151 -11.88747,5.1649 -24.63576,7.74735 -38.24487,7.74735 z"
       id="path1"
       style="stroke:none;stroke-width:0.245947"
       sodipodi:nodetypes="sssssssssssssssss" />
    <path
       style="fill:none;stroke:#000000;stroke-width:94.28;stroke-dasharray:none;stroke-dashoffset:0"
       d="M 105.73361,-480 H 326.77198"
       id="path2" />
    <path
       style="fill:none;stroke:#000000;stroke-width:94.28;stroke-dasharray:none;stroke-dashoffset:0"
       d="M 633.22797,-480 H 854.26639"
       id="path3" />
    <path
       style="fill:none;stroke:#000000;stroke-width:94.28;stroke-dasharray:none;stroke-dashoffset:0"
       d="m 480,-854.2664 v 221.03837"
       id="path5" />
    <path
       style="fill:none;stroke:#000000;stroke-width:94.28;stroke-dasharray:none;stroke-dashoffset:0"
       d="m 480,-326.77204 v 221.03842"
       id="path6" />
  </g>
</svg>
