<?xml version="1.0" encoding="UTF-8" standalone="no"?>
<svg
   height="24px"
   viewBox="0 -960 960 960"
   width="24px"
   fill="#000000"
   version="1.1"
   id="svg1"
   sodipodi:docname="sketch-rounded-rect-symbolic.svg"
   inkscape:version="1.4.3 (0d15f75042, 2025-12-25)"
   xmlns:inkscape="http://www.inkscape.org/namespaces/inkscape"
   xmlns:sodipodi="http://sodipodi.sourceforge.net/DTD/sodipodi-0.dtd"
   xmlns="http://www.w3.org/2000/svg"
   xmlns:svg="http://www.w3.org/2000/svg">
  <defs
     id="defs1" />
  <sodipodi:namedview
     id="namedview1"
     pagecolor="#ffffff"
     bordercolor="#000000"
     borderopacity="0.25"
     inkscape:showpageshadow="2"
     inkscape:pageopacity="0.0"
     inkscape:pagecheckerboard="0"
     inkscape:deskcolor="#d1d1d1"
     inkscape:zoom="73.833333"
     inkscape:cx="14.207675"
     inkscape:cy="10.659142"
     inkscape:window-width="3840"
     inkscape:window-height="2020"
     inkscape:window-x="0"
     inkscape:window-y="32"
     inkscape:window-maximized="1"
     inkscape:current-layer="svg1" />
  <path
     d="m 200,-200 c -22,0 -40.83333,-7.83333 -56.5,-23.5 C 127.83333,-239.16667 120,-258 120,-280 v -400 c 0,-22 7.83333,-40.83333 23.5,-56.5 15.66667,-15.66667 34.5,-23.5 56.5,-23.5 h 560 c 22,0 40.83333,7.83333 56.5,23.5 15.66667,15.66667 23.5,34.5 23.5,56.5 v 400 c 0,22 -7.83333,40.83333 -23.5,56.5 -15.66667,15.66667 -34.5,23.5 -56.5,23.5 z m 7.58465,-88.66817 C 216.79992,-279.4529 239.41309,-280 239.41309,-280 H 480 722.21219 c 0,0 21.17943,1.98084 30.20316,-7.04289 C 761.43908,-296.06662 760,-318.78104 760,-318.78104 V -480 -636.88488 c 0,0 2.49161,-25.45421 -7.04289,-34.98871 C 743.42261,-681.40809 722.21219,-680 722.21219,-680 H 480 239.41309 c 0,0 -20.47712,-1.59963 -30.20316,8.12641 C 199.48389,-662.14755 200,-636.88488 200,-636.88488 V -480 -318.78104 c 0,0 -1.63062,20.8976 7.58465,30.11287 z m 0,0 L 200,-318.78104 V -480 -636.88488 l 9.20993,-34.98871 L 200,-636.88488 V -480 -318.78104 Z"
     id="path1"
     sodipodi:nodetypes="ssssssssssssszccczccczccczccczzccczcccz" />
</svg>
