<?xml version="1.0" encoding="UTF-8" standalone="no"?>
<svg
   height="24px"
   viewBox="0 -960 960 960"
   width="24px"
   fill="#000000"
   version="1.1"
   id="svg1"
   sodipodi:docname="status-offline-symbolic.svg"
   inkscape:version="1.4.2 (ebf0e940d0, 2025-05-08)"
   xmlns:inkscape="http://www.inkscape.org/namespaces/inkscape"
   xmlns:sodipodi="http://sodipodi.sourceforge.net/DTD/sodipodi-0.dtd"
   xmlns="http://www.w3.org/2000/svg"
   xmlns:svg="http://www.w3.org/2000/svg">
  <defs
     id="defs1" />
  <sodipodi:namedview
     id="namedview1"
     pagecolor="#ffffff"
     bordercolor="#000000"
     borderopacity="0.25"
     inkscape:showpageshadow="2"
     inkscape:pageopacity="0.0"
     inkscape:pagecheckerboard="0"
     inkscape:deskcolor="#d1d1d1"
     inkscape:zoom="36.916667"
     inkscape:cx="12"
     inkscape:cy="12"
     inkscape:window-width="3840"
     inkscape:window-height="2020"
     inkscape:window-x="0"
     inkscape:window-y="32"
     inkscape:window-maximized="1"
     inkscape:current-layer="svg1" />
  <path
     d="M280-160v-40h-40q-50 0-85-35t-35-85v-120H40v-80h80v-120q0-50 35-85t85-35h40v-40h80v640h-80Zm-40-120h40v-400h-40q-17 0-28.5 11.5T200-640v320q0 17 11.5 28.5T240-280Zm360 120v-160H440v-80h160v-160H440v-80h160v-160h80v40h40q50 0 85 35t35 85v120h80v80h-80v120q0 50-35 85t-85 35h-40v40h-80Zm80-120h40q17 0 28.5-11.5T760-320v-320q0-17-11.5-28.5T720-680h-40v400ZM280-480Zm400 0Z"
     id="path1" />
</svg>
