<?xml version="1.0" encoding="UTF-8" standalone="no"?>
<svg
   height="24px"
   viewBox="0 -960 960 960"
   width="24px"
   fill="#000000"
   version="1.1"
   id="svg1"
   sodipodi:docname="status-connecting-symbolic.svg"
   inkscape:version="1.4.2 (ebf0e940d0, 2025-05-08)"
   xmlns:inkscape="http://www.inkscape.org/namespaces/inkscape"
   xmlns:sodipodi="http://sodipodi.sourceforge.net/DTD/sodipodi-0.dtd"
   xmlns="http://www.w3.org/2000/svg"
   xmlns:svg="http://www.w3.org/2000/svg">
  <defs
     id="defs1" />
  <sodipodi:namedview
     id="namedview1"
     pagecolor="#ffffff"
     bordercolor="#000000"
     borderopacity="0.25"
     inkscape:showpageshadow="2"
     inkscape:pageopacity="0.0"
     inkscape:pagecheckerboard="0"
     inkscape:deskcolor="#d1d1d1"
     inkscape:zoom="36.916667"
     inkscape:cx="12"
     inkscape:cy="12"
     inkscape:window-width="3840"
     inkscape:window-height="2020"
     inkscape:window-x="0"
     inkscape:window-y="32"
     inkscape:window-maximized="1"
     inkscape:current-layer="svg1" />
  <path
     d="m 120,-80 v -280 h 120 v -160 h 200 v -80 H 320 v -280 h 320 v 280 H 520 v 80 440 -360 H 320 v 80 H 440 V -80 Z M 400,-680 H 560 V -800 H 400 Z M 200,-160 H 360 V -280 H 200 Z"
     id="path1"
     sodipodi:nodetypes="ccccccccccccccccccccccccccccc" />
  <path
     d="m 728.53273,-320.54176 c 19.4041,0 35.8051,-6.69902 49.2032,-20.09707 13.398,-13.39804 20.097,-29.79909 20.097,-49.20316 v -69.30022 H 659.2325 v 69.30022 c 0,19.40407 6.69903,35.80512 20.09707,49.20316 13.39804,13.39805 29.79906,20.09707 49.20316,20.09707 z m -69.30023,194.04063 h 138.60043 v -69.30022 c 0,-19.40407 -6.699,-35.80512 -20.097,-49.20316 -13.3981,-13.39805 -29.7991,-20.09707 -49.2032,-20.09707 -19.4041,0 -35.80512,6.69902 -49.20316,20.09707 -13.39804,13.39804 -20.09707,29.79909 -20.09707,49.20316 z m -97.02031,55.440179 v -55.440179 h 41.58013 v -69.30022 c 0,-19.40407 4.15802,-37.42213 12.47404,-54.05418 8.31603,-16.63205 19.86607,-30.9541 34.65012,-42.96614 -14.78405,-12.01204 -26.33409,-26.33409 -34.65012,-42.96614 -8.31602,-16.63205 -12.47404,-34.65011 -12.47404,-54.05418 v -69.30022 h -41.58013 v -55.44018 h 332.64104 v 55.44018 h -41.5801 v 69.30022 c 0,19.40407 -4.158,37.42213 -12.474,54.05418 -8.3161,16.63205 -19.8661,30.9541 -34.6501,42.96614 14.784,12.01204 26.334,26.33409 34.6501,42.96614 8.316,16.63205 12.474,34.65011 12.474,54.05418 v 69.30022 h 41.5801 v 55.440179 z"
     id="path1-5"
     sodipodi:nodetypes="sssccsssccsssssccccsscssccccccsscsscccc"
     style="stroke-width:0.693002" />
</svg>
