<?xml version="1.0" encoding="UTF-8" standalone="no"?>
<svg
   height="24px"
   viewBox="0 -960 960 960"
   width="24px"
   fill="#000000"
   version="1.1"
   id="svg1"
   sodipodi:docname="step-settings-symbolic.svg"
   inkscape:version="1.4.2 (ebf0e940d0, 2025-05-08)"
   xmlns:inkscape="http://www.inkscape.org/namespaces/inkscape"
   xmlns:sodipodi="http://sodipodi.sourceforge.net/DTD/sodipodi-0.dtd"
   xmlns="http://www.w3.org/2000/svg"
   xmlns:svg="http://www.w3.org/2000/svg">
  <defs
     id="defs1" />
  <sodipodi:namedview
     id="namedview1"
     pagecolor="#ffffff"
     bordercolor="#000000"
     borderopacity="0.25"
     inkscape:showpageshadow="2"
     inkscape:pageopacity="0.0"
     inkscape:pagecheckerboard="0"
     inkscape:deskcolor="#d1d1d1"
     inkscape:zoom="36.916667"
     inkscape:cx="12"
     inkscape:cy="12"
     inkscape:window-width="3840"
     inkscape:window-height="2020"
     inkscape:window-x="0"
     inkscape:window-y="32"
     inkscape:window-maximized="1"
     inkscape:current-layer="svg1" />
  <path
     d="M710-150q-63 0-106.5-43.5T560-300q0-63 43.5-106.5T710-450q63 0 106.5 43.5T860-300q0 63-43.5 106.5T710-150Zm0-80q29 0 49.5-20.5T780-300q0-29-20.5-49.5T710-370q-29 0-49.5 20.5T640-300q0 29 20.5 49.5T710-230Zm-550-30v-80h320v80H160Zm90-250q-63 0-106.5-43.5T100-660q0-63 43.5-106.5T250-810q63 0 106.5 43.5T400-660q0 63-43.5 106.5T250-510Zm0-80q29 0 49.5-20.5T320-660q0-29-20.5-49.5T250-730q-29 0-49.5 20.5T180-660q0 29 20.5 49.5T250-590Zm230-30v-80h320v80H480Zm230 320ZM250-660Z"
     id="path1" />
</svg>
