<?xml version="1.0" encoding="UTF-8" standalone="no"?>
<svg
   height="24px"
   viewBox="0 -960 960 960"
   width="24px"
   fill="#000000"
   version="1.1"
   id="svg1"
   xmlns="http://www.w3.org/2000/svg"
   xmlns:svg="http://www.w3.org/2000/svg">
  <defs
     id="defs1" />
  <path
     d="m 643.61174,-191.41326 c 27.34455,0 50.58742,-9.6507 69.7286,-28.9521 19.14119,-19.30141 28.71178,-42.73882 28.71178,-70.31225 0,-27.57344 -9.57059,-51.01086 -28.71178,-70.31226 -19.14118,-19.3014 -42.38405,-28.9521 -69.7286,-28.9521 -27.34455,0 -50.58742,9.6507 -69.72861,28.9521 -19.14118,19.3014 -28.71177,42.73882 -28.71177,70.31226 0,27.57343 9.57059,51.01084 28.71177,70.31225 19.14119,19.3014 42.38406,28.9521 69.72861,28.9521 z m 0,-39.70574 c -16.40673,0 -30.35245,-5.79042 -41.83716,-17.37127 -11.48471,-11.58083 -17.22707,-25.64328 -17.22707,-42.18734 0,-16.54407 5.74236,-30.60652 17.22707,-42.18735 11.48471,-11.58084 25.43043,-17.37126 41.83716,-17.37126 16.40673,0 30.35245,5.79042 41.83715,17.37126 11.48472,11.58083 17.22708,25.64328 17.22708,42.18735 0,16.54406 -5.74236,30.60651 -17.22708,42.18734 -11.4847,11.58085 -25.43042,17.37127 -41.83715,17.37127 z m 0,105.88198 c -53.23072,0 -101.72173,-14.98157 -145.47302,-44.9447 -43.75128,-29.96313 -75.47096,-70.12843 -95.15903,-120.49589 19.68807,-50.36747 51.40775,-90.53277 95.15903,-120.4959 43.75129,-29.96313 92.2423,-44.94469 145.47302,-44.94469 53.23072,0 101.72173,14.98156 145.47302,44.94469 43.75128,29.96313 75.47096,70.12843 95.15903,120.4959 -19.68807,50.36746 -51.40775,90.53276 -95.15903,120.49589 -43.75129,29.96313 -92.2423,44.9447 -145.47302,44.9447 z m 0,-44.1175 c 41.19913,0 79.02576,-10.93746 113.47989,-32.81238 34.45413,-21.87493 60.79605,-51.3785 79.02576,-88.51071 -18.22971,-37.13223 -44.57163,-66.6358 -79.02576,-88.51071 -34.45413,-21.87493 -72.28076,-32.81239 -113.47989,-32.81239 -41.19913,0 -79.02576,10.93746 -113.47989,32.81239 -34.45413,21.87491 -60.79605,51.37848 -79.02576,88.51071 18.22971,37.13221 44.57163,66.63578 79.02576,88.51071 34.45413,21.87492 72.28076,32.81238 113.47989,32.81238 z"
     id="path1"
     style="stroke-width:0.549174" />
  <path
     d="M 680,-496.25282 H 600 V -680 c 0,-34 -12,-62.5 -36,-85.5 -24,-23 -52,-34.5 -84,-34.5 -32,0 -60,11.5 -84,34.5 -24,23 -36,51.5 -36,85.5 v 400 c 0,32 12,60 36,84 24,24 38.99774,30.58239 70.99774,30.58239 v 80.000003 C 410.33107,-85.417607 375.83333,-99.16667 337.5,-137.5 299.16667,-175.83333 280,-223.33333 280,-280 v -400 c 0,-56.66667 19.16667,-104.16667 57.5,-142.5 38.33333,-38.3333 85.83333,-57.5 142.5,-57.5 56.66667,0 104.16667,19.1667 142.5,57.5 38.3333,38.33333 57.5,85.83333 57.5,142.5 z"
     id="path1-2" />
</svg>
