<svg xmlns="http://www.w3.org/2000/svg" xmlns:xlink="http://www.w3.org/1999/xlink" version="1.1" class="marks" width="644" height="473" viewBox="0 0 644 473"><rect width="644" height="473" fill="white"/><g fill="none" stroke-miterlimit="10" transform="translate(39,36)"><g class="mark-group role-frame root" role="graphics-object" aria-roledescription="group mark container"><g transform="translate(0,0)"><path class="background" aria-hidden="true" d="M0.5,0.5h600v400h-600Z" stroke="#ddd"/><g><g class="mark-group role-axis" aria-hidden="true"><g transform="translate(0.5,0.5)"><path class="background" aria-hidden="true" d="M0,0h0v0h0Z" pointer-events="none"/><g><g class="mark-rule role-axis-grid" pointer-events="none"><line transform="translate(0,400)" x2="600" y2="0" stroke="#ddd" stroke-width="1" opacity="1"/><line transform="translate(0,365)" x2="600" y2="0" stroke="#ddd" stroke-width="1" opacity="1"/><line transform="translate(0,330)" x2="600" y2="0" stroke="#ddd" stroke-width="1" opacity="1"/><line transform="translate(0,296)" x2="600" y2="0" stroke="#ddd" stroke-width="1" opacity="1"/><line transform="translate(0,261)" x2="600" y2="0" stroke="#ddd" stroke-width="1" opacity="1"/><line transform="translate(0,226)" x2="600" y2="0" stroke="#ddd" stroke-width="1" opacity="1"/><line transform="translate(0,191)" x2="600" y2="0" stroke="#ddd" stroke-width="1" opacity="1"/><line transform="translate(0,157)" x2="600" y2="0" stroke="#ddd" stroke-width="1" opacity="1"/><line transform="translate(0,122)" x2="600" y2="0" stroke="#ddd" stroke-width="1" opacity="1"/><line transform="translate(0,87)" x2="600" y2="0" stroke="#ddd" stroke-width="1" opacity="1"/><line transform="translate(0,52)" x2="600" y2="0" stroke="#ddd" stroke-width="1" opacity="1"/><line transform="translate(0,17)" x2="600" y2="0" stroke="#ddd" stroke-width="1" opacity="1"/></g></g><path class="foreground" aria-hidden="true" d="" pointer-events="none" display="none"/></g></g><g class="mark-group role-axis" role="graphics-symbol" aria-roledescription="axis" aria-label="X-axis titled 'Libraries' for a discrete scale with 6 values: toml_rs (0.2.0), rtoml (0.13.0), pytomlpp (1.1.0), toml (0.10.2), qtoml (0.3.1), tomlkit (0.13.3)"><g transform="translate(0.5,400.5)"><path class="background" aria-hidden="true" d="M0,0h0v0h0Z" pointer-events="none"/><g><g class="mark-rule role-axis-tick" pointer-events="none"><line transform="translate(50,0)" x2="0" y2="5" stroke="#888" stroke-width="1" opacity="1"/><line transform="translate(150,0)" x2="0" y2="5" stroke="#888" stroke-width="1" opacity="1"/><line transform="translate(250,0)" x2="0" y2="5" stroke="#888" stroke-width="1" opacity="1"/><line transform="translate(350,0)" x2="0" y2="5" stroke="#888" stroke-width="1" opacity="1"/><line transform="translate(450,0)" x2="0" y2="5" stroke="#888" stroke-width="1" opacity="1"/><line transform="translate(550,0)" x2="0" y2="5" stroke="#888" stroke-width="1" opacity="1"/></g><g class="mark-text role-axis-label" pointer-events="none"><text text-anchor="middle" transform="translate(49.5,15)" font-family="sans-serif" font-size="10px" fill="#000" opacity="1">toml_rs (0.2.0)</text><text text-anchor="middle" transform="translate(149.5,15)" font-family="sans-serif" font-size="10px" fill="#000" opacity="1">rtoml (0.13.0)</text><text text-anchor="middle" transform="translate(249.5,15)" font-family="sans-serif" font-size="10px" fill="#000" opacity="1">pytomlpp (1.1.0)</text><text text-anchor="middle" transform="translate(349.5,15)" font-family="sans-serif" font-size="10px" fill="#000" opacity="1">toml (0.10.2)</text><text text-anchor="middle" transform="translate(449.5,15)" font-family="sans-serif" font-size="10px" fill="#000" opacity="1">qtoml (0.3.1)</text><text text-anchor="middle" transform="translate(549.5,15)" font-family="sans-serif" font-size="10px" fill="#000" opacity="1">tomlkit (0.13.3)</text></g><g class="mark-rule role-axis-domain" pointer-events="none"><line transform="translate(0,0)" x2="600" y2="0" stroke="#888" stroke-width="1" opacity="1"/></g><g class="mark-text role-axis-title" pointer-events="none"><text text-anchor="middle" transform="translate(300,30)" font-family="sans-serif" font-size="11px" font-weight="bold" fill="#000" opacity="1">Libraries</text></g></g><path class="foreground" aria-hidden="true" d="" pointer-events="none" display="none"/></g></g><g class="mark-group role-axis" role="graphics-symbol" aria-roledescription="axis" aria-label="Y-axis titled 'Execution Time (seconds, lower=better)' for a linear scale with values from 0 to 23"><g transform="translate(0.5,0.5)"><path class="background" aria-hidden="true" d="M0,0h0v0h0Z" pointer-events="none"/><g><g class="mark-rule role-axis-tick" pointer-events="none"><line transform="translate(0,400)" x2="-5" y2="0" stroke="#888" stroke-width="1" opacity="1"/><line transform="translate(0,365)" x2="-5" y2="0" stroke="#888" stroke-width="1" opacity="1"/><line transform="translate(0,330)" x2="-5" y2="0" stroke="#888" stroke-width="1" opacity="1"/><line transform="translate(0,296)" x2="-5" y2="0" stroke="#888" stroke-width="1" opacity="1"/><line transform="translate(0,261)" x2="-5" y2="0" stroke="#888" stroke-width="1" opacity="1"/><line transform="translate(0,226)" x2="-5" y2="0" stroke="#888" stroke-width="1" opacity="1"/><line transform="translate(0,191)" x2="-5" y2="0" stroke="#888" stroke-width="1" opacity="1"/><line transform="translate(0,157)" x2="-5" y2="0" stroke="#888" stroke-width="1" opacity="1"/><line transform="translate(0,122)" x2="-5" y2="0" stroke="#888" stroke-width="1" opacity="1"/><line transform="translate(0,87)" x2="-5" y2="0" stroke="#888" stroke-width="1" opacity="1"/><line transform="translate(0,52)" x2="-5" y2="0" stroke="#888" stroke-width="1" opacity="1"/><line transform="translate(0,17)" x2="-5" y2="0" stroke="#888" stroke-width="1" opacity="1"/></g><g class="mark-text role-axis-label" pointer-events="none"><text text-anchor="end" transform="translate(-7,403)" font-family="sans-serif" font-size="10px" fill="#000" opacity="1">0</text><text text-anchor="end" transform="translate(-7,368.2154540168734)" font-family="sans-serif" font-size="10px" fill="#000" opacity="1">2</text><text text-anchor="end" transform="translate(-7,333.43090803374685)" font-family="sans-serif" font-size="10px" fill="#000" opacity="1">4</text><text text-anchor="end" transform="translate(-7,298.64636205062027)" font-family="sans-serif" font-size="10px" fill="#000" opacity="1">6</text><text text-anchor="end" transform="translate(-7,263.8618160674937)" font-family="sans-serif" font-size="10px" fill="#000" opacity="1">8</text><text text-anchor="end" transform="translate(-7,229.07727008436714)" font-family="sans-serif" font-size="10px" fill="#000" opacity="1">10</text><text text-anchor="end" transform="translate(-7,194.29272410124054)" font-family="sans-serif" font-size="10px" fill="#000" opacity="1">12</text><text text-anchor="end" transform="translate(-7,159.50817811811396)" font-family="sans-serif" font-size="10px" fill="#000" opacity="1">14</text><text text-anchor="end" transform="translate(-7,124.72363213498735)" font-family="sans-serif" font-size="10px" fill="#000" opacity="1">16</text><text text-anchor="end" transform="translate(-7,89.9390861518608)" font-family="sans-serif" font-size="10px" fill="#000" opacity="1">18</text><text text-anchor="end" transform="translate(-7,55.15454016873422)" font-family="sans-serif" font-size="10px" fill="#000" opacity="1">20</text><text text-anchor="end" transform="translate(-7,20.36999418560763)" font-family="sans-serif" font-size="10px" fill="#000" opacity="1">22</text></g><g class="mark-rule role-axis-domain" pointer-events="none"><line transform="translate(0,400)" x2="0" y2="-400" stroke="#888" stroke-width="1" opacity="1"/></g><g class="mark-text role-axis-title" pointer-events="none"><text text-anchor="middle" transform="translate(-22.123046875,200) rotate(-90) translate(0,-2)" font-family="sans-serif" font-size="11px" font-weight="bold" fill="#000" opacity="1">Execution Time (seconds, lower=better)</text></g></g><path class="foreground" aria-hidden="true" d="" pointer-events="none" display="none"/></g></g><g class="mark-group role-scope" role="graphics-object" aria-roledescription="group mark container"><g transform="translate(5,395.32453090913316)"><path class="background" aria-hidden="true" d="M2.3377345454334204,0L87.66226545456658,0C88.95249627346993,0,90,1.0475037265300642,90,2.3377345454334204L90,4.675469090866841C90,4.675469090866841,90,4.675469090866841,90,4.675469090866841L0,4.675469090866841C0,4.675469090866841,0,4.675469090866841,0,4.675469090866841L0,2.3377345454334204C0,1.0475037265300642,1.0475037265300642,0,2.3377345454334204,0Z"/><g clip-path="url(#clip8)"><g class="mark-group role-scope" role="graphics-object" aria-roledescription="group mark container"><g transform="translate(0,-395.32453090913316)"><path class="background" aria-hidden="true" d="M0,0h90v0h-90Z"/><g><g class="mark-rect role-mark layer_0_marks" role="graphics-object" aria-roledescription="rect mark container"><path aria-label="Libraries: toml_rs (0.2.0); Execution Time (seconds, lower=better): 0.268824500003; parser: toml_rs (0.2.0); Execution Time (s): 0.2688; Slowdown: 1.00" role="graphics-symbol" aria-roledescription="bar" d="M0,395.32453090913316h90v4.675469090866841h-90Z" fill="#66a61e"/></g></g><path class="foreground" aria-hidden="true" d="" display="none"/></g></g></g><path class="foreground" aria-hidden="true" d="" display="none"/></g><g transform="translate(105,393.5758126466192)"><path class="background" aria-hidden="true" d="M3.2120936766903867,0L86.78790632330961,0C88.56070908355721,0,90,1.4392909164427894,90,3.2120936766903867L90,6.424187353380773C90,6.424187353380773,90,6.424187353380773,90,6.424187353380773L0,6.424187353380773C0,6.424187353380773,0,6.424187353380773,0,6.424187353380773L0,3.2120936766903867C0,1.4392909164427894,1.4392909164427894,0,3.2120936766903867,0Z"/><g clip-path="url(#clip9)"><g class="mark-group role-scope" role="graphics-object" aria-roledescription="group mark container"><g transform="translate(0,-393.5758126466192)"><path class="background" aria-hidden="true" d="M0,0h90v0h-90Z"/><g><g class="mark-rect role-mark layer_0_marks" role="graphics-object" aria-roledescription="rect mark container"><path aria-label="Libraries: rtoml (0.13.0); Execution Time (seconds, lower=better): 0.369370200002; parser: rtoml (0.13.0); Execution Time (s): 0.3694; Slowdown: 1.37" role="graphics-symbol" aria-roledescription="bar" d="M0,393.5758126466192h90v6.424187353380773h-90Z" fill="#7570b3"/></g></g><path class="foreground" aria-hidden="true" d="" display="none"/></g></g></g><path class="foreground" aria-hidden="true" d="" display="none"/></g><g transform="translate(205,391.4250911254886)"><path class="background" aria-hidden="true" d="M4.28745443725569,0L85.71254556274431,0C88.07885608349919,0,90,1.9211439165008068,90,4.28745443725569L90,8.57490887451138C90,8.57490887451138,90,8.57490887451138,90,8.57490887451138L0,8.57490887451138C0,8.57490887451138,0,8.57490887451138,0,8.57490887451138L0,4.28745443725569C0,1.9211439165008068,1.9211439165008068,0,4.28745443725569,0Z"/><g clip-path="url(#clip10)"><g class="mark-group role-scope" role="graphics-object" aria-roledescription="group mark container"><g transform="translate(0,-391.4250911254886)"><path class="background" aria-hidden="true" d="M0,0h90v0h-90Z"/><g><g class="mark-rect role-mark layer_0_marks" role="graphics-object" aria-roledescription="rect mark container"><path aria-label="Libraries: pytomlpp (1.1.0); Execution Time (seconds, lower=better): 0.493029799996; parser: pytomlpp (1.1.0); Execution Time (s): 0.4930; Slowdown: 1.83" role="graphics-symbol" aria-roledescription="bar" d="M0,391.4250911254886h90v8.57490887451138h-90Z" fill="#1b9e77"/></g></g><path class="foreground" aria-hidden="true" d="" display="none"/></g></g></g><path class="foreground" aria-hidden="true" d="" display="none"/></g><g transform="translate(305,381.6828494114604)"><path class="background" aria-hidden="true" d="M6,0L84,0C87.311490146964,0,90,2.688509853036,90,6L90,18.31715058853962C90,18.31715058853962,90,18.31715058853962,90,18.31715058853962L0,18.31715058853962C0,18.31715058853962,0,18.31715058853962,0,18.31715058853962L0,6C0,2.688509853036,2.688509853036,0,6,0Z"/><g clip-path="url(#clip11)"><g class="mark-group role-scope" role="graphics-object" aria-roledescription="group mark container"><g transform="translate(0,-381.6828494114604)"><path class="background" aria-hidden="true" d="M0,0h90v0h-90Z"/><g><g class="mark-rect role-mark layer_0_marks" role="graphics-object" aria-roledescription="rect mark container"><path aria-label="Libraries: toml (0.10.2); Execution Time (seconds, lower=better): 1.0531775; parser: toml (0.10.2); Execution Time (s): 1.0532; Slowdown: 3.92" role="graphics-symbol" aria-roledescription="bar" d="M0,381.6828494114604h90v18.31715058853962h-90Z" fill="#e7298a"/></g></g><path class="foreground" aria-hidden="true" d="" display="none"/></g></g></g><path class="foreground" aria-hidden="true" d="" display="none"/></g><g transform="translate(405,352.7376547315496)"><path class="background" aria-hidden="true" d="M6,0L84,0C87.311490146964,0,90,2.688509853036,90,6L90,47.26234526845042C90,47.26234526845042,90,47.26234526845042,90,47.26234526845042L0,47.26234526845042C0,47.26234526845042,0,47.26234526845042,0,47.26234526845042L0,6C0,2.688509853036,2.688509853036,0,6,0Z"/><g clip-path="url(#clip12)"><g class="mark-group role-scope" role="graphics-object" aria-roledescription="group mark container"><g transform="translate(0,-352.7376547315496)"><path class="background" aria-hidden="true" d="M0,0h90v0h-90Z"/><g><g class="mark-rect role-mark layer_0_marks" role="graphics-object" aria-roledescription="rect mark container"><path aria-label="Libraries: qtoml (0.3.1); Execution Time (seconds, lower=better): 2.7174335; parser: qtoml (0.3.1); Execution Time (s): 2.7174; Slowdown: 10.11" role="graphics-symbol" aria-roledescription="bar" d="M0,352.7376547315496h90v47.26234526845042h-90Z" fill="#d95f02"/></g></g><path class="foreground" aria-hidden="true" d="" display="none"/></g></g></g><path class="foreground" aria-hidden="true" d="" display="none"/></g><g transform="translate(505,36.363636363636374)"><path class="background" aria-hidden="true" d="M6,0L84,0C87.311490146964,0,90,2.688509853036,90,6L90,363.6363636363636C90,363.6363636363636,90,363.6363636363636,90,363.6363636363636L0,363.6363636363636C0,363.6363636363636,0,363.6363636363636,0,363.6363636363636L0,6C0,2.688509853036,2.688509853036,0,6,0Z"/><g clip-path="url(#clip13)"><g class="mark-group role-scope" role="graphics-object" aria-roledescription="group mark container"><g transform="translate(0,-36.363636363636374)"><path class="background" aria-hidden="true" d="M0,0h90v0h-90Z"/><g><g class="mark-rect role-mark layer_0_marks" role="graphics-object" aria-roledescription="rect mark container"><path aria-label="Libraries: tomlkit (0.13.3); Execution Time (seconds, lower=better): 20.9079264; parser: tomlkit (0.13.3); Execution Time (s): 20.9079; Slowdown: 77.78" role="graphics-symbol" aria-roledescription="bar" d="M0,36.363636363636374h90v363.6363636363636h-90Z" fill="#e6ab02"/></g></g><path class="foreground" aria-hidden="true" d="" display="none"/></g></g></g><path class="foreground" aria-hidden="true" d="" display="none"/></g></g><g class="mark-text role-mark layer_1_marks" role="graphics-object" aria-roledescription="text mark container"><text aria-label="Libraries: toml_rs (0.2.0); Execution Time (seconds, lower=better): 0.268824500003; parser: toml_rs (0.2.0); label: 0.2688s (x1.00); Execution Time (s): 0.2688; Slowdown: 1.00" role="graphics-symbol" aria-roledescription="text mark" text-anchor="middle" transform="translate(50,391.32453090913316)" font-family="sans-serif" font-size="9px" font-weight="bold" fill="#66a61e">0.2688s (x1.00)</text><text aria-label="Libraries: rtoml (0.13.0); Execution Time (seconds, lower=better): 0.369370200002; parser: rtoml (0.13.0); label: 0.3694s (x1.37); Execution Time (s): 0.3694; Slowdown: 1.37" role="graphics-symbol" aria-roledescription="text mark" text-anchor="middle" transform="translate(150,389.5758126466192)" font-family="sans-serif" font-size="9px" font-weight="bold" fill="#7570b3">0.3694s (x1.37)</text><text aria-label="Libraries: pytomlpp (1.1.0); Execution Time (seconds, lower=better): 0.493029799996; parser: pytomlpp (1.1.0); label: 0.4930s (x1.83); Execution Time (s): 0.4930; Slowdown: 1.83" role="graphics-symbol" aria-roledescription="text mark" text-anchor="middle" transform="translate(250,387.4250911254886)" font-family="sans-serif" font-size="9px" font-weight="bold" fill="#1b9e77">0.4930s (x1.83)</text><text aria-label="Libraries: toml (0.10.2); Execution Time (seconds, lower=better): 1.0531775; parser: toml (0.10.2); label: 1.0532s (x3.92); Execution Time (s): 1.0532; Slowdown: 3.92" role="graphics-symbol" aria-roledescription="text mark" text-anchor="middle" transform="translate(350,377.6828494114604)" font-family="sans-serif" font-size="9px" font-weight="bold" fill="#e7298a">1.0532s (x3.92)</text><text aria-label="Libraries: qtoml (0.3.1); Execution Time (seconds, lower=better): 2.7174335; parser: qtoml (0.3.1); label: 2.7174s (x10.11); Execution Time (s): 2.7174; Slowdown: 10.11" role="graphics-symbol" aria-roledescription="text mark" text-anchor="middle" transform="translate(450,348.7376547315496)" font-family="sans-serif" font-size="9px" font-weight="bold" fill="#d95f02">2.7174s (x10.11)</text><text aria-label="Libraries: tomlkit (0.13.3); Execution Time (seconds, lower=better): 20.9079264; parser: tomlkit (0.13.3); label: 20.9079s (x77.78); Execution Time (s): 20.9079; Slowdown: 77.78" role="graphics-symbol" aria-roledescription="text mark" text-anchor="middle" transform="translate(550,32.363636363636374)" font-family="sans-serif" font-size="9px" font-weight="bold" fill="#e6ab02">20.9079s (x77.78)</text></g><g class="mark-group role-title"><g transform="translate(300,-31)"><path class="background" aria-hidden="true" d="M0,0h0v0h0Z" pointer-events="none"/><g><g class="mark-text role-title-text" role="graphics-symbol" aria-roledescription="title" aria-label="Title text 'TOML parsers benchmark (dumps)'" pointer-events="none"><text text-anchor="middle" transform="translate(0,10)" font-family="sans-serif" font-size="13px" font-weight="bold" fill="#000" opacity="1">TOML parsers benchmark (dumps)</text></g><g class="mark-text role-title-subtitle" role="graphics-symbol" aria-roledescription="subtitle" aria-label="Subtitle text 'Python: 3.13.8 (Windows 10) | CPU: 11th Gen Intel(R) Core(TM) i5-11300H @ 3.10GHz'" pointer-events="none"><text text-anchor="middle" transform="translate(0,25)" font-family="sans-serif" font-size="12px" fill="#000" opacity="1">Python: 3.13.8 (Windows 10) | CPU: 11th Gen Intel(R) Core(TM) i5-11300H @ 3.10GHz</text></g></g><path class="foreground" aria-hidden="true" d="" pointer-events="none" display="none"/></g></g></g><path class="foreground" aria-hidden="true" d="" display="none"/></g></g></g><defs><clipPath id="clip8"><path d="M2.3377345454334204,0L87.66226545456658,0C88.95249627346993,0,90,1.0475037265300642,90,2.3377345454334204L90,4.675469090866841C90,4.675469090866841,90,4.675469090866841,90,4.675469090866841L0,4.675469090866841C0,4.675469090866841,0,4.675469090866841,0,4.675469090866841L0,2.3377345454334204C0,1.0475037265300642,1.0475037265300642,0,2.3377345454334204,0Z"/></clipPath><clipPath id="clip9"><path d="M3.2120936766903867,0L86.78790632330961,0C88.56070908355721,0,90,1.4392909164427894,90,3.2120936766903867L90,6.424187353380773C90,6.424187353380773,90,6.424187353380773,90,6.424187353380773L0,6.424187353380773C0,6.424187353380773,0,6.424187353380773,0,6.424187353380773L0,3.2120936766903867C0,1.4392909164427894,1.4392909164427894,0,3.2120936766903867,0Z"/></clipPath><clipPath id="clip10"><path d="M4.28745443725569,0L85.71254556274431,0C88.07885608349919,0,90,1.9211439165008068,90,4.28745443725569L90,8.57490887451138C90,8.57490887451138,90,8.57490887451138,90,8.57490887451138L0,8.57490887451138C0,8.57490887451138,0,8.57490887451138,0,8.57490887451138L0,4.28745443725569C0,1.9211439165008068,1.9211439165008068,0,4.28745443725569,0Z"/></clipPath><clipPath id="clip11"><path d="M6,0L84,0C87.311490146964,0,90,2.688509853036,90,6L90,18.31715058853962C90,18.31715058853962,90,18.31715058853962,90,18.31715058853962L0,18.31715058853962C0,18.31715058853962,0,18.31715058853962,0,18.31715058853962L0,6C0,2.688509853036,2.688509853036,0,6,0Z"/></clipPath><clipPath id="clip12"><path d="M6,0L84,0C87.311490146964,0,90,2.688509853036,90,6L90,47.26234526845042C90,47.26234526845042,90,47.26234526845042,90,47.26234526845042L0,47.26234526845042C0,47.26234526845042,0,47.26234526845042,0,47.26234526845042L0,6C0,2.688509853036,2.688509853036,0,6,0Z"/></clipPath><clipPath id="clip13"><path d="M6,0L84,0C87.311490146964,0,90,2.688509853036,90,6L90,363.6363636363636C90,363.6363636363636,90,363.6363636363636,90,363.6363636363636L0,363.6363636363636C0,363.6363636363636,0,363.6363636363636,0,363.6363636363636L0,6C0,2.688509853036,2.688509853036,0,6,0Z"/></clipPath></defs></svg>