<svg xmlns="http://www.w3.org/2000/svg" xmlns:xlink="http://www.w3.org/1999/xlink" version="1.1" class="marks" width="644" height="473" viewBox="0 0 644 473"><rect width="644" height="473" fill="white"/><g fill="none" stroke-miterlimit="10" transform="translate(39,36)"><g class="mark-group role-frame root" role="graphics-object" aria-roledescription="group mark container"><g transform="translate(0,0)"><path class="background" aria-hidden="true" d="M0.5,0.5h600v400h-600Z" stroke="#ddd"/><g><g class="mark-group role-axis" aria-hidden="true"><g transform="translate(0.5,0.5)"><path class="background" aria-hidden="true" d="M0,0h0v0h0Z" pointer-events="none"/><g><g class="mark-rule role-axis-grid" pointer-events="none"><line transform="translate(0,400)" x2="600" y2="0" stroke="#ddd" stroke-width="1" opacity="1"/><line transform="translate(0,364)" x2="600" y2="0" stroke="#ddd" stroke-width="1" opacity="1"/><line transform="translate(0,329)" x2="600" y2="0" stroke="#ddd" stroke-width="1" opacity="1"/><line transform="translate(0,293)" x2="600" y2="0" stroke="#ddd" stroke-width="1" opacity="1"/><line transform="translate(0,257)" x2="600" y2="0" stroke="#ddd" stroke-width="1" opacity="1"/><line transform="translate(0,221)" x2="600" y2="0" stroke="#ddd" stroke-width="1" opacity="1"/><line transform="translate(0,186)" x2="600" y2="0" stroke="#ddd" stroke-width="1" opacity="1"/><line transform="translate(0,150)" x2="600" y2="0" stroke="#ddd" stroke-width="1" opacity="1"/><line transform="translate(0,114)" x2="600" y2="0" stroke="#ddd" stroke-width="1" opacity="1"/><line transform="translate(0,78)" x2="600" y2="0" stroke="#ddd" stroke-width="1" opacity="1"/><line transform="translate(0,43)" x2="600" y2="0" stroke="#ddd" stroke-width="1" opacity="1"/><line transform="translate(0,7)" x2="600" y2="0" stroke="#ddd" stroke-width="1" opacity="1"/></g></g><path class="foreground" aria-hidden="true" d="" pointer-events="none" display="none"/></g></g><g class="mark-group role-axis" role="graphics-symbol" aria-roledescription="axis" aria-label="X-axis titled 'Libraries' for a discrete scale with 7 values: toml_rs (0.2.0), rtoml (0.13.0), pytomlpp (1.1.0), tomllib (built-in), toml (0.10.2), qtoml (0.3.1), tomlkit (0.13.3)"><g transform="translate(0.5,400.5)"><path class="background" aria-hidden="true" d="M0,0h0v0h0Z" pointer-events="none"/><g><g class="mark-rule role-axis-tick" pointer-events="none"><line transform="translate(42,0)" x2="0" y2="5" stroke="#888" stroke-width="1" opacity="1"/><line transform="translate(128,0)" x2="0" y2="5" stroke="#888" stroke-width="1" opacity="1"/><line transform="translate(214,0)" x2="0" y2="5" stroke="#888" stroke-width="1" opacity="1"/><line transform="translate(299,0)" x2="0" y2="5" stroke="#888" stroke-width="1" opacity="1"/><line transform="translate(385,0)" x2="0" y2="5" stroke="#888" stroke-width="1" opacity="1"/><line transform="translate(471,0)" x2="0" y2="5" stroke="#888" stroke-width="1" opacity="1"/><line transform="translate(557,0)" x2="0" y2="5" stroke="#888" stroke-width="1" opacity="1"/></g><g class="mark-text role-axis-label" pointer-events="none"><text text-anchor="middle" transform="translate(42.35714285714285,15)" font-family="sans-serif" font-size="10px" fill="#000" opacity="1">toml_rs (0.2.0)</text><text text-anchor="middle" transform="translate(128.07142857142856,15)" font-family="sans-serif" font-size="10px" fill="#000" opacity="1">rtoml (0.13.0)</text><text text-anchor="middle" transform="translate(213.78571428571428,15)" font-family="sans-serif" font-size="10px" fill="#000" opacity="1">pytomlpp (1.1.0)</text><text text-anchor="middle" transform="translate(299.49999999999994,15)" font-family="sans-serif" font-size="10px" fill="#000" opacity="1">tomllib (built-in)</text><text text-anchor="middle" transform="translate(385.21428571428567,15)" font-family="sans-serif" font-size="10px" fill="#000" opacity="1">toml (0.10.2)</text><text text-anchor="middle" transform="translate(470.9285714285714,15)" font-family="sans-serif" font-size="10px" fill="#000" opacity="1">qtoml (0.3.1)</text><text text-anchor="middle" transform="translate(556.642857142857,15)" font-family="sans-serif" font-size="10px" fill="#000" opacity="1">tomlkit (0.13.3)</text></g><g class="mark-rule role-axis-domain" pointer-events="none"><line transform="translate(0,0)" x2="600" y2="0" stroke="#888" stroke-width="1" opacity="1"/></g><g class="mark-text role-axis-title" pointer-events="none"><text text-anchor="middle" transform="translate(300,30)" font-family="sans-serif" font-size="11px" font-weight="bold" fill="#000" opacity="1">Libraries</text></g></g><path class="foreground" aria-hidden="true" d="" pointer-events="none" display="none"/></g></g><g class="mark-group role-axis" role="graphics-symbol" aria-roledescription="axis" aria-label="Y-axis titled 'Execution Time (seconds, lower=better)' for a linear scale with values from 0 to 56"><g transform="translate(0.5,0.5)"><path class="background" aria-hidden="true" d="M0,0h0v0h0Z" pointer-events="none"/><g><g class="mark-rule role-axis-tick" pointer-events="none"><line transform="translate(0,400)" x2="-5" y2="0" stroke="#888" stroke-width="1" opacity="1"/><line transform="translate(0,364)" x2="-5" y2="0" stroke="#888" stroke-width="1" opacity="1"/><line transform="translate(0,329)" x2="-5" y2="0" stroke="#888" stroke-width="1" opacity="1"/><line transform="translate(0,293)" x2="-5" y2="0" stroke="#888" stroke-width="1" opacity="1"/><line transform="translate(0,257)" x2="-5" y2="0" stroke="#888" stroke-width="1" opacity="1"/><line transform="translate(0,221)" x2="-5" y2="0" stroke="#888" stroke-width="1" opacity="1"/><line transform="translate(0,186)" x2="-5" y2="0" stroke="#888" stroke-width="1" opacity="1"/><line transform="translate(0,150)" x2="-5" y2="0" stroke="#888" stroke-width="1" opacity="1"/><line transform="translate(0,114)" x2="-5" y2="0" stroke="#888" stroke-width="1" opacity="1"/><line transform="translate(0,78)" x2="-5" y2="0" stroke="#888" stroke-width="1" opacity="1"/><line transform="translate(0,43)" x2="-5" y2="0" stroke="#888" stroke-width="1" opacity="1"/><line transform="translate(0,7)" x2="-5" y2="0" stroke="#888" stroke-width="1" opacity="1"/></g><g class="mark-text role-axis-label" pointer-events="none"><text text-anchor="end" transform="translate(-7,403)" font-family="sans-serif" font-size="10px" fill="#000" opacity="1">0</text><text text-anchor="end" transform="translate(-7,367.27648024067827)" font-family="sans-serif" font-size="10px" fill="#000" opacity="1">5</text><text text-anchor="end" transform="translate(-7,331.5529604813566)" font-family="sans-serif" font-size="10px" fill="#000" opacity="1">10</text><text text-anchor="end" transform="translate(-7,295.8294407220348)" font-family="sans-serif" font-size="10px" fill="#000" opacity="1">15</text><text text-anchor="end" transform="translate(-7,260.1059209627131)" font-family="sans-serif" font-size="10px" fill="#000" opacity="1">20</text><text text-anchor="end" transform="translate(-7,224.3824012033914)" font-family="sans-serif" font-size="10px" fill="#000" opacity="1">25</text><text text-anchor="end" transform="translate(-7,188.65888144406966)" font-family="sans-serif" font-size="10px" fill="#000" opacity="1">30</text><text text-anchor="end" transform="translate(-7,152.93536168474796)" font-family="sans-serif" font-size="10px" fill="#000" opacity="1">35</text><text text-anchor="end" transform="translate(-7,117.21184192542624)" font-family="sans-serif" font-size="10px" fill="#000" opacity="1">40</text><text text-anchor="end" transform="translate(-7,81.48832216610452)" font-family="sans-serif" font-size="10px" fill="#000" opacity="1">45</text><text text-anchor="end" transform="translate(-7,45.76480240678278)" font-family="sans-serif" font-size="10px" fill="#000" opacity="1">50</text><text text-anchor="end" transform="translate(-7,10.041282647461067)" font-family="sans-serif" font-size="10px" fill="#000" opacity="1">55</text></g><g class="mark-rule role-axis-domain" pointer-events="none"><line transform="translate(0,400)" x2="0" y2="-400" stroke="#888" stroke-width="1" opacity="1"/></g><g class="mark-text role-axis-title" pointer-events="none"><text text-anchor="middle" transform="translate(-22.123046875,200) rotate(-90) translate(0,-2)" font-family="sans-serif" font-size="11px" font-weight="bold" fill="#000" opacity="1">Execution Time (seconds, lower=better)</text></g></g><path class="foreground" aria-hidden="true" d="" pointer-events="none" display="none"/></g></g><g class="mark-group role-scope" role="graphics-object" aria-roledescription="group mark container"><g transform="translate(4.285714285714278,398.25619067751217)"><path class="background" aria-hidden="true" d="M0.8719046612439172,0L76.27095248161322,0C76.7521697640801,0,77.14285714285714,0.3906873787770479,77.14285714285714,0.8719046612439172L77.14285714285714,1.7438093224878344C77.14285714285714,1.7438093224878344,77.14285714285714,1.7438093224878344,77.14285714285714,1.7438093224878344L0,1.7438093224878344C0,1.7438093224878344,0,1.7438093224878344,0,1.7438093224878344L0,0.8719046612439172C0,0.3906873787770479,0.3906873787770479,0,0.8719046612439172,0Z"/><g clip-path="url(#clip1)"><g class="mark-group role-scope" role="graphics-object" aria-roledescription="group mark container"><g transform="translate(0,-398.25619067751217)"><path class="background" aria-hidden="true" d="M0,0h77.14285714285714v0h-77.14285714285714Z"/><g><g class="mark-rect role-mark layer_0_marks" role="graphics-object" aria-roledescription="rect mark container"><path aria-label="Libraries: toml_rs (0.2.0); Execution Time (seconds, lower=better): 0.244070200002; parser: toml_rs (0.2.0); Execution Time (s): 0.2441; Slowdown: 1.00" role="graphics-symbol" aria-roledescription="bar" d="M0,398.25619067751217h77.14285714285714v1.7438093224878344h-77.14285714285714Z" fill="#66a61e"/></g></g><path class="foreground" aria-hidden="true" d="" display="none"/></g></g></g><path class="foreground" aria-hidden="true" d="" display="none"/></g><g transform="translate(89.99999999999999,395.80899239568623)"><path class="background" aria-hidden="true" d="M2.095503802156884,0L75.04735334070025,0C76.20389337299494,0,77.14285714285714,0.9389637698621972,77.14285714285714,2.095503802156884L77.14285714285714,4.191007604313768C77.14285714285714,4.191007604313768,77.14285714285714,4.191007604313768,77.14285714285714,4.191007604313768L0,4.191007604313768C0,4.191007604313768,0,4.191007604313768,0,4.191007604313768L0,2.095503802156884C0,0.9389637698621972,0.9389637698621972,0,2.095503802156884,0Z"/><g clip-path="url(#clip2)"><g class="mark-group role-scope" role="graphics-object" aria-roledescription="group mark container"><g transform="translate(0,-395.80899239568623)"><path class="background" aria-hidden="true" d="M0,0h77.14285714285714v0h-77.14285714285714Z"/><g><g class="mark-rect role-mark layer_0_marks" role="graphics-object" aria-roledescription="rect mark container"><path aria-label="Libraries: rtoml (0.13.0); Execution Time (seconds, lower=better): 0.586589400002; parser: rtoml (0.13.0); Execution Time (s): 0.5866; Slowdown: 2.40" role="graphics-symbol" aria-roledescription="bar" d="M0,395.80899239568623h77.14285714285714v4.191007604313768h-77.14285714285714Z" fill="#7570b3"/></g></g><path class="foreground" aria-hidden="true" d="" display="none"/></g></g></g><path class="foreground" aria-hidden="true" d="" display="none"/></g><g transform="translate(175.7142857142857,394.7370588868721)"><path class="background" aria-hidden="true" d="M2.6314705565639542,0L74.51138658629318,0C75.96373472297442,0,77.14285714285714,1.1791224198827197,77.14285714285714,2.6314705565639542L77.14285714285714,5.2629411131279085C77.14285714285714,5.2629411131279085,77.14285714285714,5.2629411131279085,77.14285714285714,5.2629411131279085L0,5.2629411131279085C0,5.2629411131279085,0,5.2629411131279085,0,5.2629411131279085L0,2.6314705565639542C0,1.1791224198827197,1.1791224198827197,0,2.6314705565639542,0Z"/><g clip-path="url(#clip3)"><g class="mark-group role-scope" role="graphics-object" aria-roledescription="group mark container"><g transform="translate(0,-394.7370588868721)"><path class="background" aria-hidden="true" d="M0,0h77.14285714285714v0h-77.14285714285714Z"/><g><g class="mark-rect role-mark layer_0_marks" role="graphics-object" aria-roledescription="rect mark container"><path aria-label="Libraries: pytomlpp (1.1.0); Execution Time (seconds, lower=better): 0.736621299999; parser: pytomlpp (1.1.0); Execution Time (s): 0.7366; Slowdown: 3.02" role="graphics-symbol" aria-roledescription="bar" d="M0,394.7370588868721h77.14285714285714v5.2629411131279085h-77.14285714285714Z" fill="#1b9e77"/></g></g><path class="foreground" aria-hidden="true" d="" display="none"/></g></g></g><path class="foreground" aria-hidden="true" d="" display="none"/></g><g transform="translate(261.4285714285714,378.97812898880613)"><path class="background" aria-hidden="true" d="M6,0L71.14285714285714,0C74.45434728982114,0,77.14285714285714,2.688509853036,77.14285714285714,6L77.14285714285714,21.021871011193866C77.14285714285714,21.021871011193866,77.14285714285714,21.021871011193866,77.14285714285714,21.021871011193866L0,21.021871011193866C0,21.021871011193866,0,21.021871011193866,0,21.021871011193866L0,6C0,2.688509853036,2.688509853036,0,6,0Z"/><g clip-path="url(#clip4)"><g class="mark-group role-scope" role="graphics-object" aria-roledescription="group mark container"><g transform="translate(0,-378.97812898880613)"><path class="background" aria-hidden="true" d="M0,0h77.14285714285714v0h-77.14285714285714Z"/><g><g class="mark-rect role-mark layer_0_marks" role="graphics-object" aria-roledescription="rect mark container"><path aria-label="Libraries: tomllib (built-in); Execution Time (seconds, lower=better): 2.9423012; parser: tomllib (built-in); Execution Time (s): 2.9423; Slowdown: 12.06" role="graphics-symbol" aria-roledescription="bar" d="M0,378.97812898880613h77.14285714285714v21.021871011193866h-77.14285714285714Z" fill="#a6761d"/></g></g><path class="foreground" aria-hidden="true" d="" display="none"/></g></g></g><path class="foreground" aria-hidden="true" d="" display="none"/></g><g transform="translate(347.1428571428571,348.4875111493159)"><path class="background" aria-hidden="true" d="M6,0L71.14285714285714,0C74.45434728982114,0,77.14285714285714,2.688509853036,77.14285714285714,6L77.14285714285714,51.51248885068412C77.14285714285714,51.51248885068412,77.14285714285714,51.51248885068412,77.14285714285714,51.51248885068412L0,51.51248885068412C0,51.51248885068412,0,51.51248885068412,0,51.51248885068412L0,6C0,2.688509853036,2.688509853036,0,6,0Z"/><g clip-path="url(#clip5)"><g class="mark-group role-scope" role="graphics-object" aria-roledescription="group mark container"><g transform="translate(0,-348.4875111493159)"><path class="background" aria-hidden="true" d="M0,0h77.14285714285714v0h-77.14285714285714Z"/><g><g class="mark-rect role-mark layer_0_marks" role="graphics-object" aria-roledescription="rect mark container"><path aria-label="Libraries: toml (0.10.2); Execution Time (seconds, lower=better): 7.2098843; parser: toml (0.10.2); Execution Time (s): 7.2099; Slowdown: 29.54" role="graphics-symbol" aria-roledescription="bar" d="M0,348.4875111493159h77.14285714285714v51.51248885068412h-77.14285714285714Z" fill="#e7298a"/></g></g><path class="foreground" aria-hidden="true" d="" display="none"/></g></g></g><path class="foreground" aria-hidden="true" d="" display="none"/></g><g transform="translate(432.85714285714283,347.0254189326329)"><path class="background" aria-hidden="true" d="M6,0L71.14285714285714,0C74.45434728982114,0,77.14285714285714,2.688509853036,77.14285714285714,6L77.14285714285714,52.974581067367126C77.14285714285714,52.974581067367126,77.14285714285714,52.974581067367126,77.14285714285714,52.974581067367126L0,52.974581067367126C0,52.974581067367126,0,52.974581067367126,0,52.974581067367126L0,6C0,2.688509853036,2.688509853036,0,6,0Z"/><g clip-path="url(#clip6)"><g class="mark-group role-scope" role="graphics-object" aria-roledescription="group mark container"><g transform="translate(0,-347.0254189326329)"><path class="background" aria-hidden="true" d="M0,0h77.14285714285714v0h-77.14285714285714Z"/><g><g class="mark-rect role-mark layer_0_marks" role="graphics-object" aria-roledescription="rect mark container"><path aria-label="Libraries: qtoml (0.3.1); Execution Time (seconds, lower=better): 7.41452429999; parser: qtoml (0.3.1); Execution Time (s): 7.4145; Slowdown: 30.38" role="graphics-symbol" aria-roledescription="bar" d="M0,347.0254189326329h77.14285714285714v52.974581067367126h-77.14285714285714Z" fill="#d95f02"/></g></g><path class="foreground" aria-hidden="true" d="" display="none"/></g></g></g><path class="foreground" aria-hidden="true" d="" display="none"/></g><g transform="translate(518.5714285714284,36.363636363636374)"><path class="background" aria-hidden="true" d="M6,0L71.14285714285714,0C74.45434728982114,0,77.14285714285714,2.688509853036,77.14285714285714,6L77.14285714285714,363.6363636363636C77.14285714285714,363.6363636363636,77.14285714285714,363.6363636363636,77.14285714285714,363.6363636363636L0,363.6363636363636C0,363.6363636363636,0,363.6363636363636,0,363.6363636363636L0,6C0,2.688509853036,2.688509853036,0,6,0Z"/><g clip-path="url(#clip7)"><g class="mark-group role-scope" role="graphics-object" aria-roledescription="group mark container"><g transform="translate(0,-36.363636363636374)"><path class="background" aria-hidden="true" d="M0,0h77.14285714285714v0h-77.14285714285714Z"/><g><g class="mark-rect role-mark layer_0_marks" role="graphics-object" aria-roledescription="rect mark container"><path aria-label="Libraries: tomlkit (0.13.3); Execution Time (seconds, lower=better): 50.8959316; parser: tomlkit (0.13.3); Execution Time (s): 50.8959; Slowdown: 208.53" role="graphics-symbol" aria-roledescription="bar" d="M0,36.363636363636374h77.14285714285714v363.6363636363636h-77.14285714285714Z" fill="#e6ab02"/></g></g><path class="foreground" aria-hidden="true" d="" display="none"/></g></g></g><path class="foreground" aria-hidden="true" d="" display="none"/></g></g><g class="mark-text role-mark layer_1_marks" role="graphics-object" aria-roledescription="text mark container"><text aria-label="Libraries: toml_rs (0.2.0); Execution Time (seconds, lower=better): 0.244070200002; parser: toml_rs (0.2.0); label: 0.2441s (x1.00); Execution Time (s): 0.2441; Slowdown: 1.00" role="graphics-symbol" aria-roledescription="text mark" text-anchor="middle" transform="translate(42.85714285714285,394.25619067751217)" font-family="sans-serif" font-size="9px" font-weight="bold" fill="#66a61e">0.2441s (x1.00)</text><text aria-label="Libraries: rtoml (0.13.0); Execution Time (seconds, lower=better): 0.586589400002; parser: rtoml (0.13.0); label: 0.5866s (x2.40); Execution Time (s): 0.5866; Slowdown: 2.40" role="graphics-symbol" aria-roledescription="text mark" text-anchor="middle" transform="translate(128.57142857142856,391.80899239568623)" font-family="sans-serif" font-size="9px" font-weight="bold" fill="#7570b3">0.5866s (x2.40)</text><text aria-label="Libraries: pytomlpp (1.1.0); Execution Time (seconds, lower=better): 0.736621299999; parser: pytomlpp (1.1.0); label: 0.7366s (x3.02); Execution Time (s): 0.7366; Slowdown: 3.02" role="graphics-symbol" aria-roledescription="text mark" text-anchor="middle" transform="translate(214.28571428571428,390.7370588868721)" font-family="sans-serif" font-size="9px" font-weight="bold" fill="#1b9e77">0.7366s (x3.02)</text><text aria-label="Libraries: tomllib (built-in); Execution Time (seconds, lower=better): 2.9423012; parser: tomllib (built-in); label: 2.9423s (x12.06); Execution Time (s): 2.9423; Slowdown: 12.06" role="graphics-symbol" aria-roledescription="text mark" text-anchor="middle" transform="translate(299.99999999999994,374.97812898880613)" font-family="sans-serif" font-size="9px" font-weight="bold" fill="#a6761d">2.9423s (x12.06)</text><text aria-label="Libraries: toml (0.10.2); Execution Time (seconds, lower=better): 7.2098843; parser: toml (0.10.2); label: 7.2099s (x29.54); Execution Time (s): 7.2099; Slowdown: 29.54" role="graphics-symbol" aria-roledescription="text mark" text-anchor="middle" transform="translate(385.71428571428567,344.4875111493159)" font-family="sans-serif" font-size="9px" font-weight="bold" fill="#e7298a">7.2099s (x29.54)</text><text aria-label="Libraries: qtoml (0.3.1); Execution Time (seconds, lower=better): 7.41452429999; parser: qtoml (0.3.1); label: 7.4145s (x30.38); Execution Time (s): 7.4145; Slowdown: 30.38" role="graphics-symbol" aria-roledescription="text mark" text-anchor="middle" transform="translate(471.4285714285714,343.0254189326329)" font-family="sans-serif" font-size="9px" font-weight="bold" fill="#d95f02">7.4145s (x30.38)</text><text aria-label="Libraries: tomlkit (0.13.3); Execution Time (seconds, lower=better): 50.8959316; parser: tomlkit (0.13.3); label: 50.8959s (x208.53); Execution Time (s): 50.8959; Slowdown: 208.53" role="graphics-symbol" aria-roledescription="text mark" text-anchor="middle" transform="translate(557.142857142857,32.363636363636374)" font-family="sans-serif" font-size="9px" font-weight="bold" fill="#e6ab02">50.8959s (x208.53)</text></g><g class="mark-group role-title"><g transform="translate(300,-31)"><path class="background" aria-hidden="true" d="M0,0h0v0h0Z" pointer-events="none"/><g><g class="mark-text role-title-text" role="graphics-symbol" aria-roledescription="title" aria-label="Title text 'TOML parsers benchmark (loads)'" pointer-events="none"><text text-anchor="middle" transform="translate(0,10)" font-family="sans-serif" font-size="13px" font-weight="bold" fill="#000" opacity="1">TOML parsers benchmark (loads)</text></g><g class="mark-text role-title-subtitle" role="graphics-symbol" aria-roledescription="subtitle" aria-label="Subtitle text 'Python: 3.13.8 (Windows 10) | CPU: 11th Gen Intel(R) Core(TM) i5-11300H @ 3.10GHz'" pointer-events="none"><text text-anchor="middle" transform="translate(0,25)" font-family="sans-serif" font-size="12px" fill="#000" opacity="1">Python: 3.13.8 (Windows 10) | CPU: 11th Gen Intel(R) Core(TM) i5-11300H @ 3.10GHz</text></g></g><path class="foreground" aria-hidden="true" d="" pointer-events="none" display="none"/></g></g></g><path class="foreground" aria-hidden="true" d="" display="none"/></g></g></g><defs><clipPath id="clip1"><path d="M0.8719046612439172,0L76.27095248161322,0C76.7521697640801,0,77.14285714285714,0.3906873787770479,77.14285714285714,0.8719046612439172L77.14285714285714,1.7438093224878344C77.14285714285714,1.7438093224878344,77.14285714285714,1.7438093224878344,77.14285714285714,1.7438093224878344L0,1.7438093224878344C0,1.7438093224878344,0,1.7438093224878344,0,1.7438093224878344L0,0.8719046612439172C0,0.3906873787770479,0.3906873787770479,0,0.8719046612439172,0Z"/></clipPath><clipPath id="clip2"><path d="M2.095503802156884,0L75.04735334070025,0C76.20389337299494,0,77.14285714285714,0.9389637698621972,77.14285714285714,2.095503802156884L77.14285714285714,4.191007604313768C77.14285714285714,4.191007604313768,77.14285714285714,4.191007604313768,77.14285714285714,4.191007604313768L0,4.191007604313768C0,4.191007604313768,0,4.191007604313768,0,4.191007604313768L0,2.095503802156884C0,0.9389637698621972,0.9389637698621972,0,2.095503802156884,0Z"/></clipPath><clipPath id="clip3"><path d="M2.6314705565639542,0L74.51138658629318,0C75.96373472297442,0,77.14285714285714,1.1791224198827197,77.14285714285714,2.6314705565639542L77.14285714285714,5.2629411131279085C77.14285714285714,5.2629411131279085,77.14285714285714,5.2629411131279085,77.14285714285714,5.2629411131279085L0,5.2629411131279085C0,5.2629411131279085,0,5.2629411131279085,0,5.2629411131279085L0,2.6314705565639542C0,1.1791224198827197,1.1791224198827197,0,2.6314705565639542,0Z"/></clipPath><clipPath id="clip4"><path d="M6,0L71.14285714285714,0C74.45434728982114,0,77.14285714285714,2.688509853036,77.14285714285714,6L77.14285714285714,21.021871011193866C77.14285714285714,21.021871011193866,77.14285714285714,21.021871011193866,77.14285714285714,21.021871011193866L0,21.021871011193866C0,21.021871011193866,0,21.021871011193866,0,21.021871011193866L0,6C0,2.688509853036,2.688509853036,0,6,0Z"/></clipPath><clipPath id="clip5"><path d="M6,0L71.14285714285714,0C74.45434728982114,0,77.14285714285714,2.688509853036,77.14285714285714,6L77.14285714285714,51.51248885068412C77.14285714285714,51.51248885068412,77.14285714285714,51.51248885068412,77.14285714285714,51.51248885068412L0,51.51248885068412C0,51.51248885068412,0,51.51248885068412,0,51.51248885068412L0,6C0,2.688509853036,2.688509853036,0,6,0Z"/></clipPath><clipPath id="clip6"><path d="M6,0L71.14285714285714,0C74.45434728982114,0,77.14285714285714,2.688509853036,77.14285714285714,6L77.14285714285714,52.974581067367126C77.14285714285714,52.974581067367126,77.14285714285714,52.974581067367126,77.14285714285714,52.974581067367126L0,52.974581067367126C0,52.974581067367126,0,52.974581067367126,0,52.974581067367126L0,6C0,2.688509853036,2.688509853036,0,6,0Z"/></clipPath><clipPath id="clip7"><path d="M6,0L71.14285714285714,0C74.45434728982114,0,77.14285714285714,2.688509853036,77.14285714285714,6L77.14285714285714,363.6363636363636C77.14285714285714,363.6363636363636,77.14285714285714,363.6363636363636,77.14285714285714,363.6363636363636L0,363.6363636363636C0,363.6363636363636,0,363.6363636363636,0,363.6363636363636L0,6C0,2.688509853036,2.688509853036,0,6,0Z"/></clipPath></defs></svg>