<?xml version="1.0" standalone="no"?><!DOCTYPE svg PUBLIC "-//W3C//DTD SVG 1.1//EN" "http://www.w3.org/Graphics/SVG/1.1/DTD/svg11.dtd"><svg t="1768960417824" class="icon" viewBox="0 0 1024 1024" version="1.1" xmlns="http://www.w3.org/2000/svg" p-id="36120" xmlns:xlink="http://www.w3.org/1999/xlink" width="200" height="200"><path d="M515.2768 111.9232c277.7088 0 506.88 177.408 506.88 402.8416 0 159.2832-162.9184 302.5408-361.1648 323.1232l-12.6976 0.9728-15.0528 0.4096h-17.92l-28.6208-0.7168 3.9424 7.68c3.2256 5.7856 6.7072 11.3664 10.24 16.2816l8.9088 11.4688a46.08 46.08 0 0 1-30.976 70.8096C263.0656 997.0176 8.3968 773.9392 8.3968 514.7648c0-225.4336 229.12-402.8416 506.88-402.8416z m0 92.16c-231.2704 0-414.72 142.08-414.72 310.6816 0 181.6064 163.584 344.0128 383.488 345.4976l11.6224-0.1024-0.6656-1.6896-3.6864-10.7008c-15.36-48.896-8.3968-95.5392 47.5136-101.5296l6.1952-0.512 9.216-0.1024 61.3888 1.4336 14.9504 0.0512 11.9808-0.256 8.8576-0.6144c155.2384-16.128 278.528-124.5696 278.528-231.424 0-168.6528-183.4496-310.7328-414.72-310.7328zM312.6272 376.7296a102.4 102.4 0 1 1 0 204.8 102.4 102.4 0 0 1 0-204.8z m421.888-16.9984a64 64 0 1 1 0 128 64 64 0 0 1 0-128zM523.9808 300.032a76.8 76.8 0 1 1 0 153.6 76.8 76.8 0 0 1 0-153.6z" p-id="36121" fill="#8a8a8a"></path></svg>