<?xml version="1.0" encoding="UTF-8"?>
<svg id="Layer_1" data-name="Layer 1" xmlns="http://www.w3.org/2000/svg" xmlns:xlink="http://www.w3.org/1999/xlink" viewBox="0 0 1920 921">
  <defs>
    <style>
      .cls-1 {
        fill: url(#linear-gradient);
      }

      .cls-1, .cls-2, .cls-3, .cls-4 {
        stroke-width: 0px;
      }

      .cls-2 {
        fill: #000;
      }

      .cls-3 {
        fill: #666;
      }

      .cls-4 {
        fill: #333;
      }
    </style>
    <linearGradient id="linear-gradient" x1="718.96" y1="-396.44" x2="709.48" y2="1021.66" gradientUnits="userSpaceOnUse">
      <stop offset="0" stop-color="#0079c2"/>
      <stop offset=".14" stop-color="#0277c0"/>
      <stop offset=".23" stop-color="#0b71bd"/>
      <stop offset=".31" stop-color="#1a68b6"/>
      <stop offset=".38" stop-color="#305bad"/>
      <stop offset=".45" stop-color="#4b49a1"/>
      <stop offset=".51" stop-color="#6d3593"/>
      <stop offset=".55" stop-color="#8a2387"/>
    </linearGradient>
  </defs>
  <g>
    <path class="cls-1" d="M128.95,138.45v169.14c0,7.15,8.64,10.72,13.69,5.67l81.75-81.75c3.13-3.13,3.14-8.19.02-11.32-10.02-10.08-31.21-31.38-45.2-45.47-5.02-5.06-1.45-13.65,5.68-13.65,53.08,0,201.57,0,254.85,0,7.15,0,10.7,8.64,5.65,13.69l-69.25,69.25.21.21-245.06,245.06c-1.97.82-4.66,1.93-6.63,2.75h0c-34.71,0-69.43,0-104.14,0-4.43,0-8.02-3.59-8.02-8.02V130.43s0-108.43,0-108.43c0-4.43,3.59-8.02,8.02-8.02h567.11c7.15,0,10.72,8.64,5.67,13.69-33.47,33.47-66.94,66.94-100.41,100.41-1.5,1.5-3.54,2.35-5.67,2.35H136.97c-4.43,0-8.02,3.59-8.02,8.02ZM726.75,68.39v415.62c0,4.43,3.59,8.02,8.02,8.02h100.41c4.43,0,8.02-3.59,8.02-8.02V168.8c0-2.13-.85-4.17-2.35-5.67l-94.45-94.44-5.96-5.96c-5.05-5.05-13.69-1.47-13.69,5.67ZM989.02,33.13l-94.45,94.44c-1.5,1.5-2.35,3.54-2.35,5.67v350.76c0,4.43,3.59,8.02,8.02,8.02h100.41c4.43,0,8.02-3.59,8.02-8.02V32.84c0-7.15-8.64-10.72-13.69-5.67l-5.96,5.96ZM676.82,21.06c0-2.6-3.15-3.9-4.99-2.05l-111.46,112.4L213.28,478.5c-4.99,4.99-1.46,13.53,5.6,13.53h142.22c2.13,0,4.17-.84,5.67-2.35l179.9-179.9c5.05-5.05,13.69-1.47,13.69,5.67v168.55c0,4.43,3.59,8.02,8.02,8.02h100.41c4.43,0,8.02-3.59,8.02-8.02V21.06ZM841.97,101.81V22c0-4.43-3.59-8.02-8.02-8.02h-79.81c-7.15,0-10.72,8.64-5.67,13.69l79.81,79.81c5.05,5.05,13.69,1.47,13.69-5.67ZM1411.8,12.76h-142c-2.13,0-4.17.84-5.67,2.35l-256.04,256.04.02.02-.02.02,218.49,218.49c1.5,1.5,3.54,2.35,5.67,2.35h142c7.15,0,10.72-8.64,5.67-13.69l-201.5-201.5c-3.13-3.13-3.13-8.21,0-11.34l239.05-239.05c5.05-5.05,1.47-13.69-5.67-13.69Z"/>
    <path class="cls-3" d="M1810.55,108c-34.36,0-62.21,27.85-62.21,62.21,0,9.22,2.02,17.95,5.62,25.82-7.85,3.16-16.59,5.87-26.13,7.17-6.8.92-13.5,1.06-20.79,1.84-13-28.26-41.54-47.88-74.68-47.88-9.72,0-19.05,1.7-27.71,4.8-6.36-21.07-17-49.65-27.88-69.36,10.89-8.28,17.95-21.33,17.95-36.06,0-25.03-20.29-45.32-45.32-45.32s-45.32,20.29-45.32,45.32c0,15.62,7.9,29.39,19.93,37.54-5.47,22.49-25.24,47.04-60.03,99.88-2.32-.95-4.86-1.48-7.52-1.48-11.03,0-19.97,8.94-19.97,19.97s8.94,19.97,19.97,19.97c5.8,0,11.01-2.49,14.66-6.45,43.9,60.69,64.66,82.31,65.44,109.47.03,1.15.05,2.87.13,4.76-6.79,5.91-11.11,14.6-11.11,24.32,0,17.82,14.44,32.26,32.26,32.26s32.26-14.44,32.26-32.26c0-7.87-2.82-15.07-7.5-20.67,6.46-7.74,13.38-17.62,19.97-27.93,9.23,3.59,19.27,5.58,29.77,5.58,45.39,0,82.18-36.79,82.18-82.18,0-5.22-.51-10.32-1.44-15.27,18.8-1.23,39.72-3.51,57.01-6.6,10.88,9.32,24.99,14.96,40.44,14.96,34.36,0,62.21-27.85,62.21-62.21s-27.85-62.21-62.21-62.21ZM1550.26,242.83c-10.14-1.91-22.96-4.68-37.12-10.79-11.2-4.83-21.63-11.04-37.15-15.39.29-1.35.45-2.75.45-4.19,0-.92-.08-1.82-.21-2.71,39.08-5.9,65.87-11.14,86.03-13.32-7.67,12.49-12.09,27.19-12.09,42.92,0,1.17.04,2.34.09,3.5ZM1534.99,99.47c4.53,1.52,9.37,2.38,14.42,2.38s9.75-.83,14.23-2.31c5.85,8.61,12.46,19.36,17.64,32.82,4.07,10.58,6.77,21.5,13.06,34.12-9.2,4.81-17.37,11.31-24.11,19.09-32.37,3.52-71.89,13.88-94.76,20.74-1.41-4.35-4.26-8.04-8-10.51,20.3-23.24,54.67-65.96,67.52-96.32ZM1572.47,335.8c-4.39-2.24-9.35-3.53-14.62-3.53-2.43,0-4.78.29-7.05.8-3.58-27.12-46.71-77.84-73.16-106.1,21.18,10.95,53.27,25,74.37,29.65,5.06,23.64,20.28,43.5,40.87,54.8-6.99,10.24-14.28,18.1-20.41,24.37Z"/>
    <path class="cls-4" d="M1531.74,422.92l-10.34,51.51c-1.8,8.98,5.06,17.36,14.22,17.36h353.37c9.11,0,15.97-8.3,14.25-17.25l-38.15-198.15h-86.58l-13.83,65.1-102.37,13.83c-4.61,17.92-9.22,35.84-13.83,53.76"/>
  </g>
  <g>
    <path class="cls-2" d="M96.22,697.99l-6.02,5.7c-4.33-4.26-9.07-7.48-14.22-9.68-5.16-2.2-10.18-3.3-15.07-3.3-6.09,0-11.89,1.5-17.39,4.49s-9.77,7.05-12.8,12.16c-3.03,5.12-4.54,10.53-4.54,16.23s1.57,11.39,4.7,16.65c3.13,5.26,7.46,9.39,12.98,12.4,5.52,3.01,11.58,4.51,18.16,4.51,7.99,0,14.74-2.25,20.27-6.76,5.52-4.5,8.8-10.34,9.82-17.52h-24.75v-7.49h33.46c-.07,12-3.63,21.53-10.69,28.58-7.06,7.05-16.49,10.58-28.32,10.58-14.36,0-25.72-4.89-34.09-14.67-6.44-7.53-9.66-16.24-9.66-26.12,0-7.35,1.85-14.2,5.54-20.53,3.69-6.33,8.76-11.28,15.2-14.86,6.44-3.57,13.72-5.36,21.85-5.36,6.58,0,12.77,1.19,18.58,3.56,5.81,2.38,11.47,6.19,16.99,11.43Z"/>
    <path class="cls-2" d="M190.39,743.54l6.23,3.27c-2.04,4.01-4.4,7.25-7.08,9.71-2.68,2.46-5.69,4.34-9.03,5.62-3.35,1.28-7.13,1.93-11.36,1.93-9.37,0-16.69-3.07-21.98-9.21-5.28-6.14-7.92-13.08-7.92-20.82,0-7.28,2.23-13.77,6.71-19.47,5.67-7.25,13.26-10.87,22.76-10.87s17.61,3.71,23.45,11.14c4.16,5.24,6.27,11.79,6.34,19.63h-51.67c.14,6.67,2.27,12.14,6.39,16.4,4.12,4.26,9.21,6.4,15.27,6.4,2.92,0,5.77-.51,8.54-1.52,2.77-1.02,5.12-2.37,7.05-4.05,1.94-1.68,4.03-4.4,6.29-8.15ZM190.39,728.07c-.99-3.94-2.42-7.09-4.31-9.45s-4.38-4.26-7.48-5.7c-3.1-1.44-6.36-2.16-9.78-2.16-5.64,0-10.48,1.81-14.53,5.44-2.96,2.64-5.2,6.6-6.71,11.87h42.8Z"/>
    <path class="cls-2" d="M239.97,705.17h7.39v10.29c2.96-3.94,6.23-6.89,9.82-8.84,3.59-1.95,7.49-2.93,11.72-2.93s8.1,1.09,11.43,3.27c3.32,2.18,5.78,5.12,7.36,8.81,1.58,3.69,2.37,9.45,2.37,17.26v29.56h-7.39v-27.39c0-6.61-.27-11.03-.82-13.25-.85-3.8-2.5-6.66-4.93-8.58-2.43-1.91-5.59-2.87-9.5-2.87-4.47,0-8.47,1.48-12.01,4.43-3.54,2.96-5.87,6.61-6.99,10.98-.7,2.85-1.06,8.06-1.06,15.62v21.06h-7.39v-57.42Z"/>
    <path class="cls-2" d="M381.9,743.54l6.23,3.27c-2.04,4.01-4.4,7.25-7.08,9.71-2.68,2.46-5.69,4.34-9.03,5.62-3.35,1.28-7.13,1.93-11.36,1.93-9.37,0-16.69-3.07-21.98-9.21-5.28-6.14-7.92-13.08-7.92-20.82,0-7.28,2.23-13.77,6.71-19.47,5.67-7.25,13.26-10.87,22.76-10.87s17.61,3.71,23.45,11.14c4.16,5.24,6.27,11.79,6.34,19.63h-51.67c.14,6.67,2.27,12.14,6.39,16.4,4.12,4.26,9.21,6.4,15.27,6.4,2.92,0,5.77-.51,8.54-1.52,2.77-1.02,5.12-2.37,7.05-4.05,1.94-1.68,4.03-4.4,6.29-8.15ZM381.9,728.07c-.99-3.94-2.42-7.09-4.31-9.45s-4.38-4.26-7.48-5.7c-3.1-1.44-6.36-2.16-9.78-2.16-5.64,0-10.48,1.81-14.53,5.44-2.96,2.64-5.2,6.6-6.71,11.87h42.8Z"/>
    <path class="cls-2" d="M428.67,705.17h7.55v8.39c2.25-3.31,4.63-5.78,7.12-7.41,2.5-1.64,5.1-2.46,7.81-2.46,2.04,0,4.22.65,6.54,1.95l-3.85,6.23c-1.55-.67-2.85-1-3.91-1-2.46,0-4.84,1.01-7.12,3.03-2.29,2.03-4.03,5.17-5.22,9.42-.91,3.27-1.37,9.89-1.37,19.84v19.42h-7.55v-57.42Z"/>
    <path class="cls-2" d="M548.86,705.17v57.42h-7.28v-9.87c-3.1,3.76-6.57,6.6-10.42,8.5-3.86,1.9-8.07,2.85-12.64,2.85-8.13,0-15.07-2.94-20.82-8.84-5.76-5.89-8.63-13.06-8.63-21.51s2.9-15.34,8.71-21.22c5.81-5.88,12.79-8.81,20.95-8.81,4.71,0,8.98,1,12.8,3.01,3.82,2.01,7.17,5.01,10.06,9.02v-10.56h7.28ZM519.33,710.81c-4.11,0-7.91,1.01-11.39,3.03-3.48,2.02-6.25,4.86-8.3,8.51-2.05,3.66-3.08,7.52-3.08,11.6s1.04,7.91,3.11,11.6c2.07,3.69,4.86,6.56,8.36,8.62,3.49,2.06,7.25,3.09,11.25,3.09s7.87-1.02,11.49-3.06c3.62-2.04,6.4-4.8,8.35-8.28,1.95-3.48,2.93-7.4,2.93-11.76,0-6.64-2.19-12.19-6.56-16.66-4.38-4.46-9.76-6.7-16.16-6.7Z"/>
    <path class="cls-2" d="M599.59,683.84h7.39v21.32h11.72v6.39h-11.72v51.04h-7.39v-51.04h-10.08v-6.39h10.08v-21.32Z"/>
    <path class="cls-2" d="M660.01,681.52c1.68,0,3.12.6,4.31,1.79,1.19,1.2,1.79,2.64,1.79,4.33s-.59,3.08-1.79,4.27c-1.19,1.2-2.63,1.79-4.31,1.79s-3.07-.6-4.26-1.79c-1.19-1.2-1.79-2.62-1.79-4.27s.59-3.13,1.79-4.33c1.19-1.2,2.61-1.79,4.26-1.79ZM656.34,705.17h7.39v57.42h-7.39v-57.42Z"/>
    <path class="cls-2" d="M701.33,705.17h7.86l19.27,41.86,19.04-41.86h7.92l-26.28,57.42h-1.37l-26.44-57.42Z"/>
    <path class="cls-2" d="M842.68,743.54l6.23,3.27c-2.04,4.01-4.4,7.25-7.08,9.71-2.68,2.46-5.69,4.34-9.03,5.62-3.35,1.28-7.13,1.93-11.36,1.93-9.37,0-16.69-3.07-21.98-9.21-5.28-6.14-7.92-13.08-7.92-20.82,0-7.28,2.23-13.77,6.71-19.47,5.67-7.25,13.26-10.87,22.76-10.87s17.61,3.71,23.45,11.14c4.16,5.24,6.27,11.79,6.34,19.63h-51.67c.14,6.67,2.27,12.14,6.39,16.4,4.12,4.26,9.21,6.4,15.27,6.4,2.92,0,5.77-.51,8.54-1.52,2.77-1.02,5.12-2.37,7.05-4.05,1.94-1.68,4.03-4.4,6.29-8.15ZM842.68,728.07c-.99-3.94-2.42-7.09-4.31-9.45-1.89-2.36-4.38-4.26-7.48-5.7-3.1-1.44-6.36-2.16-9.78-2.16-5.64,0-10.48,1.81-14.53,5.44-2.96,2.64-5.2,6.6-6.71,11.87h42.8Z"/>
    <path class="cls-2" d="M982.78,684.95l36.21,77.63h-8.38l-12.21-25.54h-33.45l-12.09,25.54h-8.66l36.68-77.63h1.9ZM981.8,701.45l-13.3,28.1h26.54l-13.24-28.1Z"/>
    <path class="cls-2" d="M1057.58,684.95h7.76v77.63h-7.76v-77.63Z"/>
    <path class="cls-2" d="M1104.78,730.18h29.03v6.44h-29.03v-6.44Z"/>
    <path class="cls-2" d="M1174.4,684.95h44.49v7.6h-36.73v24.33h36.42v7.6h-36.42v30.51h36.42v7.6h-44.17v-77.63Z"/>
    <path class="cls-2" d="M1258.76,705.17h7.39v10.29c2.96-3.94,6.23-6.89,9.82-8.84,3.59-1.95,7.49-2.93,11.72-2.93s8.1,1.09,11.43,3.27c3.32,2.18,5.78,5.12,7.36,8.81s2.37,9.45,2.37,17.26v29.56h-7.39v-27.39c0-6.61-.27-11.03-.82-13.25-.85-3.8-2.5-6.66-4.93-8.58-2.43-1.91-5.59-2.87-9.5-2.87-4.47,0-8.47,1.48-12.01,4.43-3.54,2.96-5.87,6.61-6.99,10.98-.7,2.85-1.06,8.06-1.06,15.62v21.06h-7.39v-57.42Z"/>
    <path class="cls-2" d="M1352.35,683h7.39v32.46c2.99-3.94,6.28-6.89,9.87-8.84,3.59-1.95,7.48-2.93,11.66-2.93s8.1,1.09,11.43,3.27c3.32,2.18,5.78,5.11,7.36,8.79,1.58,3.68,2.37,9.44,2.37,17.28v29.56h-7.39v-27.39c0-6.61-.26-11.03-.79-13.25-.91-3.8-2.58-6.66-4.99-8.58-2.41-1.91-5.57-2.87-9.47-2.87-4.47,0-8.47,1.48-12.01,4.43-3.54,2.96-5.87,6.61-6.99,10.98-.7,2.81-1.06,8.02-1.06,15.62v21.06h-7.39v-79.59Z"/>
    <path class="cls-2" d="M1503.14,705.17v57.42h-7.28v-9.87c-3.1,3.76-6.57,6.6-10.42,8.5-3.86,1.9-8.07,2.85-12.64,2.85-8.13,0-15.07-2.94-20.82-8.84-5.76-5.89-8.63-13.06-8.63-21.51s2.9-15.34,8.71-21.22c5.81-5.88,12.79-8.81,20.95-8.81,4.71,0,8.98,1,12.8,3.01s7.17,5.01,10.06,9.02v-10.56h7.28ZM1473.62,710.81c-4.11,0-7.91,1.01-11.39,3.03-3.48,2.02-6.25,4.86-8.3,8.51-2.05,3.66-3.08,7.52-3.08,11.6s1.04,7.91,3.11,11.6c2.07,3.69,4.86,6.56,8.36,8.62,3.49,2.06,7.25,3.09,11.25,3.09s7.87-1.02,11.49-3.06c3.62-2.04,6.4-4.8,8.35-8.28,1.95-3.48,2.93-7.4,2.93-11.76,0-6.64-2.19-12.19-6.56-16.66-4.38-4.46-9.76-6.7-16.16-6.7Z"/>
    <path class="cls-2" d="M1547.44,705.17h7.39v10.29c2.96-3.94,6.23-6.89,9.82-8.84,3.59-1.95,7.49-2.93,11.72-2.93s8.1,1.09,11.43,3.27c3.32,2.18,5.78,5.12,7.36,8.81s2.37,9.45,2.37,17.26v29.56h-7.39v-27.39c0-6.61-.27-11.03-.82-13.25-.85-3.8-2.5-6.66-4.93-8.58-2.43-1.91-5.59-2.87-9.5-2.87-4.47,0-8.47,1.48-12.01,4.43-3.54,2.96-5.87,6.61-6.99,10.98-.7,2.85-1.06,8.06-1.06,15.62v21.06h-7.39v-57.42Z"/>
    <path class="cls-2" d="M1696.76,717.09l-5.86,3.64c-5.06-6.72-11.97-10.08-20.72-10.08-6.99,0-12.8,2.25-17.42,6.75-4.62,4.5-6.93,9.96-6.93,16.4,0,4.18,1.06,8.12,3.19,11.81,2.13,3.69,5.05,6.55,8.75,8.59,3.7,2.04,7.86,3.06,12.47,3.06,8.43,0,15.32-3.36,20.66-10.08l5.86,3.85c-2.74,4.13-6.43,7.34-11.06,9.62-4.63,2.28-9.9,3.42-15.81,3.42-9.08,0-16.61-2.89-22.59-8.66-5.98-5.77-8.97-12.79-8.97-21.06,0-5.56,1.4-10.72,4.2-15.49,2.79-4.76,6.64-8.49,11.53-11.16,4.89-2.67,10.36-4.01,16.41-4.01,3.8,0,7.47.58,11.01,1.74,3.53,1.16,6.53,2.67,9,4.54,2.46,1.86,4.56,4.24,6.28,7.12Z"/>
    <path class="cls-2" d="M1786.97,743.54l6.23,3.27c-2.04,4.01-4.4,7.25-7.08,9.71-2.68,2.46-5.69,4.34-9.03,5.62-3.35,1.28-7.13,1.93-11.36,1.93-9.37,0-16.69-3.07-21.98-9.21-5.28-6.14-7.92-13.08-7.92-20.82,0-7.28,2.23-13.77,6.71-19.47,5.67-7.25,13.26-10.87,22.76-10.87s17.61,3.71,23.45,11.14c4.16,5.24,6.27,11.79,6.34,19.63h-51.67c.14,6.67,2.27,12.14,6.39,16.4,4.12,4.26,9.21,6.4,15.27,6.4,2.92,0,5.77-.51,8.54-1.52,2.77-1.02,5.12-2.37,7.05-4.05,1.94-1.68,4.03-4.4,6.29-8.15ZM1786.97,728.07c-.99-3.94-2.42-7.09-4.31-9.45s-4.38-4.26-7.48-5.7c-3.1-1.44-6.36-2.16-9.78-2.16-5.64,0-10.48,1.81-14.53,5.44-2.96,2.64-5.2,6.6-6.71,11.87h42.8Z"/>
    <path class="cls-2" d="M1893.86,683v79.59h-7.28v-9.87c-3.1,3.76-6.57,6.6-10.42,8.5-3.86,1.9-8.07,2.85-12.64,2.85-8.13,0-15.07-2.94-20.82-8.84-5.76-5.89-8.63-13.06-8.63-21.51s2.9-15.34,8.71-21.22c5.81-5.88,12.79-8.81,20.95-8.81,4.71,0,8.98,1,12.8,3.01,3.82,2.01,7.17,5.01,10.06,9.02v-32.72h7.28ZM1864.34,710.81c-4.11,0-7.91,1.01-11.39,3.03-3.48,2.02-6.25,4.86-8.3,8.51-2.05,3.66-3.08,7.52-3.08,11.6s1.04,7.91,3.11,11.6,4.86,6.56,8.36,8.62c3.49,2.06,7.25,3.09,11.25,3.09s7.87-1.02,11.49-3.06c3.62-2.04,6.4-4.8,8.35-8.28,1.95-3.48,2.93-7.4,2.93-11.76,0-6.64-2.19-12.19-6.56-16.66-4.38-4.46-9.76-6.7-16.16-6.7Z"/>
  </g>
  <g>
    <path class="cls-2" d="M19.44,828.69h6.33v23.31l24.83-23.31h8.34l-29.83,27.87,32.15,34.24h-8.27l-27.22-28.93v28.93h-6.33v-62.11Z"/>
    <path class="cls-2" d="M81.06,844.86h5.91v8.23c2.36-3.15,4.98-5.51,7.85-7.07s6-2.34,9.37-2.34,6.48.87,9.14,2.62c2.66,1.75,4.62,4.1,5.89,7.05s1.9,7.56,1.9,13.81v23.64h-5.91v-21.91c0-5.29-.22-8.82-.66-10.6-.69-3.04-2-5.33-3.94-6.86s-4.48-2.3-7.6-2.3c-3.58,0-6.78,1.18-9.61,3.55-2.83,2.36-4.69,5.29-5.59,8.78-.56,2.28-.84,6.45-.84,12.5v16.85h-5.91v-45.94Z"/>
    <path class="cls-2" d="M167.04,843.67c7.08,0,12.94,2.56,17.6,7.68,4.23,4.67,6.34,10.2,6.34,16.59s-2.23,12.03-6.7,16.83c-4.47,4.8-10.22,7.2-17.24,7.2s-12.81-2.4-17.28-7.2c-4.47-4.8-6.7-10.41-6.7-16.83s2.11-11.88,6.34-16.55c4.65-5.15,10.53-7.73,17.64-7.73ZM167.02,849.46c-4.92,0-9.14,1.82-12.67,5.45-3.53,3.63-5.3,8.02-5.3,13.17,0,3.32.81,6.42,2.41,9.29,1.61,2.87,3.79,5.09,6.53,6.65,2.74,1.56,5.75,2.34,9.02,2.34s6.28-.78,9.02-2.34c2.74-1.56,4.92-3.78,6.53-6.65,1.61-2.87,2.41-5.97,2.41-9.29,0-5.15-1.77-9.54-5.32-13.17-3.55-3.63-7.76-5.45-12.65-5.45Z"/>
    <path class="cls-2" d="M207.21,844.86h6.08l14.08,33.36,14.66-33.36h1.07l14.76,33.36,14.35-33.36h6.15l-19.96,45.94h-1.09l-14.69-32.89-14.68,32.89h-1.1l-19.62-45.94Z"/>
    <path class="cls-2" d="M295.89,827.12h5.91v63.67h-5.91v-63.67Z"/>
    <path class="cls-2" d="M364.26,875.55l4.98,2.62c-1.63,3.21-3.52,5.8-5.66,7.77-2.14,1.97-4.55,3.47-7.22,4.5-2.68,1.03-5.71,1.54-9.09,1.54-7.49,0-13.35-2.46-17.58-7.37-4.23-4.91-6.34-10.46-6.34-16.66,0-5.83,1.79-11.02,5.37-15.58,4.54-5.8,10.61-8.7,18.22-8.7s14.09,2.97,18.76,8.91c3.32,4.19,5.01,9.43,5.07,15.71h-41.33c.11,5.33,1.82,9.71,5.12,13.12,3.3,3.41,7.37,5.12,12.22,5.12,2.34,0,4.61-.41,6.83-1.22s4.1-1.89,5.64-3.24c1.55-1.35,3.23-3.52,5.03-6.52ZM364.26,863.18c-.79-3.15-1.94-5.67-3.44-7.56-1.51-1.89-3.5-3.41-5.98-4.56-2.48-1.15-5.09-1.73-7.82-1.73-4.51,0-8.38,1.45-11.63,4.35-2.37,2.11-4.16,5.28-5.37,9.5h34.24Z"/>
    <path class="cls-2" d="M439.14,827.12v63.67h-5.83v-7.9c-2.48,3.01-5.26,5.28-8.34,6.8-3.08,1.52-6.45,2.28-10.11,2.28-6.5,0-12.05-2.36-16.66-7.07-4.6-4.71-6.9-10.45-6.9-17.21s2.32-12.27,6.97-16.97c4.64-4.7,10.23-7.05,16.76-7.05,3.77,0,7.18.8,10.24,2.41,3.05,1.6,5.74,4.01,8.04,7.22v-26.18h5.83ZM415.52,849.37c-3.29,0-6.33.81-9.11,2.42-2.78,1.62-5,3.89-6.64,6.81-1.64,2.92-2.47,6.02-2.47,9.28s.83,6.33,2.49,9.28c1.66,2.95,3.89,5.25,6.69,6.9,2.8,1.64,5.8,2.47,9,2.47s6.3-.82,9.19-2.45c2.9-1.63,5.12-3.84,6.69-6.62,1.56-2.78,2.34-5.92,2.34-9.4,0-5.31-1.75-9.76-5.25-13.33-3.5-3.57-7.81-5.36-12.93-5.36Z"/>
    <path class="cls-2" d="M503.62,844.86h5.91v36.61c0,6.45-.56,11.16-1.69,14.14-1.55,4.22-4.24,7.47-8.06,9.75-3.83,2.28-8.43,3.42-13.81,3.42-3.94,0-7.48-.56-10.62-1.67-3.14-1.12-5.69-2.61-7.66-4.49-1.97-1.88-3.79-4.62-5.45-8.24h6.42c1.75,3.04,4,5.29,6.76,6.76,2.76,1.46,6.19,2.2,10.27,2.2s7.43-.75,10.21-2.25c2.78-1.5,4.76-3.39,5.94-5.66,1.19-2.27,1.78-5.94,1.78-11.01v-2.36c-2.23,2.81-4.95,4.98-8.16,6.48-3.21,1.51-6.62,2.26-10.23,2.26-4.23,0-8.2-1.05-11.92-3.15-3.72-2.1-6.59-4.92-8.62-8.47-2.03-3.55-3.04-7.45-3.04-11.7s1.06-8.21,3.17-11.89,5.03-6.58,8.77-8.72c3.73-2.14,7.67-3.21,11.82-3.21,3.44,0,6.64.71,9.62,2.13,2.97,1.42,5.84,3.76,8.6,7.03v-7.98ZM486.19,849.37c-3.35,0-6.46.81-9.33,2.43s-5.12,3.86-6.76,6.71c-1.63,2.86-2.45,5.95-2.45,9.27,0,5.04,1.69,9.2,5.07,12.5,3.38,3.29,7.75,4.94,13.13,4.94s9.8-1.63,13.11-4.9c3.31-3.27,4.96-7.56,4.96-12.88,0-3.46-.76-6.55-2.28-9.27-1.52-2.72-3.67-4.86-6.46-6.44-2.79-1.58-5.78-2.36-8.99-2.36Z"/>
    <path class="cls-2" d="M572.38,875.55l4.98,2.62c-1.63,3.21-3.52,5.8-5.66,7.77-2.14,1.97-4.55,3.47-7.22,4.5-2.68,1.03-5.71,1.54-9.09,1.54-7.49,0-13.35-2.46-17.58-7.37-4.23-4.91-6.34-10.46-6.34-16.66,0-5.83,1.79-11.02,5.37-15.58,4.54-5.8,10.61-8.7,18.22-8.7s14.09,2.97,18.76,8.91c3.32,4.19,5.01,9.43,5.07,15.71h-41.33c.11,5.33,1.82,9.71,5.12,13.12,3.3,3.41,7.37,5.12,12.22,5.12,2.34,0,4.61-.41,6.83-1.22s4.1-1.89,5.64-3.24c1.55-1.35,3.23-3.52,5.03-6.52ZM572.38,863.18c-.79-3.15-1.94-5.67-3.44-7.56-1.51-1.89-3.5-3.41-5.98-4.56-2.48-1.15-5.09-1.73-7.82-1.73-4.51,0-8.38,1.45-11.63,4.35-2.37,2.11-4.16,5.28-5.37,9.5h34.24Z"/>
    <path class="cls-2" d="M634.98,890.79l8.89-62.11h1.01l25.25,50.96,25.01-50.96h1l8.94,62.11h-6.09l-6.14-44.42-21.96,44.42h-1.59l-22.22-44.75-6.1,44.75h-6Z"/>
    <path class="cls-2" d="M773.57,844.86v45.94h-5.83v-7.9c-2.48,3.01-5.26,5.28-8.34,6.8-3.08,1.52-6.45,2.28-10.11,2.28-6.5,0-12.05-2.36-16.66-7.07-4.6-4.71-6.9-10.45-6.9-17.21s2.32-12.27,6.97-16.97c4.64-4.7,10.23-7.05,16.76-7.05,3.77,0,7.18.8,10.24,2.41s5.74,4.01,8.04,7.22v-8.44h5.83ZM749.95,849.37c-3.29,0-6.33.81-9.11,2.42-2.78,1.62-5,3.89-6.64,6.81s-2.47,6.02-2.47,9.28.83,6.33,2.49,9.28c1.66,2.95,3.89,5.25,6.69,6.9,2.8,1.64,5.8,2.47,9,2.47s6.3-.82,9.19-2.45c2.9-1.63,5.12-3.84,6.69-6.62,1.56-2.78,2.34-5.92,2.34-9.4,0-5.31-1.75-9.76-5.25-13.33-3.5-3.57-7.81-5.36-12.93-5.36Z"/>
    <path class="cls-2" d="M798.37,844.86h5.91v8.23c2.36-3.15,4.98-5.51,7.85-7.07,2.87-1.56,6-2.34,9.37-2.34s6.48.87,9.14,2.62c2.66,1.75,4.62,4.1,5.89,7.05,1.27,2.96,1.9,7.56,1.9,13.81v23.64h-5.91v-21.91c0-5.29-.22-8.82-.66-10.6-.69-3.04-2-5.33-3.94-6.86s-4.48-2.3-7.6-2.3c-3.58,0-6.78,1.18-9.61,3.55s-4.69,5.29-5.59,8.78c-.56,2.28-.84,6.45-.84,12.5v16.85h-5.91v-45.94Z"/>
    <path class="cls-2" d="M908.38,844.86v45.94h-5.83v-7.9c-2.48,3.01-5.26,5.28-8.34,6.8-3.08,1.52-6.45,2.28-10.11,2.28-6.5,0-12.05-2.36-16.66-7.07s-6.9-10.45-6.9-17.21,2.32-12.27,6.97-16.97,10.23-7.05,16.76-7.05c3.77,0,7.18.8,10.24,2.41,3.05,1.6,5.74,4.01,8.04,7.22v-8.44h5.83ZM884.75,849.37c-3.29,0-6.33.81-9.11,2.42-2.78,1.62-5,3.89-6.64,6.81-1.64,2.92-2.47,6.02-2.47,9.28s.83,6.33,2.49,9.28c1.66,2.95,3.89,5.25,6.69,6.9,2.8,1.64,5.8,2.47,9,2.47s6.3-.82,9.19-2.45c2.9-1.63,5.12-3.84,6.69-6.62,1.56-2.78,2.34-5.92,2.34-9.4,0-5.31-1.75-9.76-5.25-13.33-3.5-3.57-7.81-5.36-12.93-5.36Z"/>
    <path class="cls-2" d="M972.78,844.86h5.91v36.61c0,6.45-.56,11.16-1.69,14.14-1.55,4.22-4.24,7.47-8.06,9.75s-8.43,3.42-13.81,3.42c-3.94,0-7.48-.56-10.62-1.67-3.14-1.12-5.69-2.61-7.66-4.49-1.97-1.88-3.79-4.62-5.45-8.24h6.42c1.75,3.04,4,5.29,6.76,6.76,2.76,1.46,6.19,2.2,10.27,2.2s7.43-.75,10.21-2.25c2.78-1.5,4.76-3.39,5.94-5.66,1.19-2.27,1.78-5.94,1.78-11.01v-2.36c-2.23,2.81-4.95,4.98-8.16,6.48-3.21,1.51-6.62,2.26-10.23,2.26-4.23,0-8.2-1.05-11.92-3.15-3.72-2.1-6.59-4.92-8.62-8.47-2.03-3.55-3.04-7.45-3.04-11.7s1.06-8.21,3.17-11.89c2.11-3.67,5.03-6.58,8.77-8.72,3.73-2.14,7.67-3.21,11.82-3.21,3.44,0,6.64.71,9.62,2.13,2.97,1.42,5.84,3.76,8.6,7.03v-7.98ZM955.34,849.37c-3.35,0-6.46.81-9.33,2.43s-5.12,3.86-6.76,6.71c-1.63,2.86-2.45,5.95-2.45,9.27,0,5.04,1.69,9.2,5.07,12.5,3.38,3.29,7.75,4.94,13.13,4.94s9.8-1.63,13.11-4.9,4.96-7.56,4.96-12.88c0-3.46-.76-6.55-2.28-9.27-1.52-2.72-3.67-4.86-6.46-6.44-2.79-1.58-5.78-2.36-8.99-2.36Z"/>
    <path class="cls-2" d="M1041.53,875.55l4.98,2.62c-1.63,3.21-3.52,5.8-5.66,7.77-2.14,1.97-4.55,3.47-7.22,4.5-2.68,1.03-5.71,1.54-9.09,1.54-7.49,0-13.35-2.46-17.58-7.37-4.23-4.91-6.34-10.46-6.34-16.66,0-5.83,1.79-11.02,5.37-15.58,4.54-5.8,10.61-8.7,18.22-8.7s14.09,2.97,18.76,8.91c3.32,4.19,5.01,9.43,5.07,15.71h-41.33c.11,5.33,1.82,9.71,5.12,13.12,3.3,3.41,7.37,5.12,12.22,5.12,2.34,0,4.61-.41,6.83-1.22s4.1-1.89,5.64-3.24c1.55-1.35,3.23-3.52,5.03-6.52ZM1041.53,863.18c-.79-3.15-1.94-5.67-3.44-7.56-1.51-1.89-3.5-3.41-5.98-4.56-2.48-1.15-5.09-1.73-7.82-1.73-4.51,0-8.38,1.45-11.63,4.35-2.37,2.11-4.16,5.28-5.37,9.5h34.24Z"/>
    <path class="cls-2" d="M1070.51,844.86h5.91v7.94c2.06-2.93,4.17-5.07,6.34-6.42,2.99-1.8,6.13-2.7,9.43-2.7,2.23,0,4.34.44,6.34,1.31s3.63,2.03,4.9,3.48c1.27,1.45,2.37,3.53,3.3,6.23,1.96-3.6,4.42-6.34,7.37-8.21,2.95-1.87,6.12-2.81,9.52-2.81,3.17,0,5.97.8,8.41,2.41,2.43,1.6,4.23,3.84,5.41,6.71s1.77,7.18,1.77,12.92v25.08h-6.04v-25.08c0-4.93-.35-8.31-1.05-10.15-.7-1.84-1.9-3.33-3.6-4.45-1.7-1.13-3.72-1.69-6.08-1.69-2.86,0-5.48.84-7.85,2.53-2.37,1.69-4.1,3.94-5.2,6.76-1.09,2.81-1.64,7.52-1.64,14.1v17.99h-5.91v-23.52c0-5.55-.34-9.31-1.03-11.29s-1.89-3.57-3.61-4.77-3.76-1.79-6.12-1.79c-2.73,0-5.28.82-7.66,2.47-2.38,1.65-4.14,3.86-5.28,6.65s-1.71,7.05-1.71,12.79v19.46h-5.91v-45.94Z"/>
    <path class="cls-2" d="M1201.84,875.55l4.98,2.62c-1.63,3.21-3.52,5.8-5.66,7.77-2.14,1.97-4.55,3.47-7.22,4.5-2.68,1.03-5.71,1.54-9.09,1.54-7.49,0-13.35-2.46-17.58-7.37-4.23-4.91-6.34-10.46-6.34-16.66,0-5.83,1.79-11.02,5.37-15.58,4.54-5.8,10.61-8.7,18.22-8.7s14.09,2.97,18.76,8.91c3.32,4.19,5.01,9.43,5.07,15.71h-41.33c.11,5.33,1.82,9.71,5.12,13.12,3.3,3.41,7.37,5.12,12.22,5.12,2.34,0,4.61-.41,6.83-1.22s4.1-1.89,5.64-3.24c1.55-1.35,3.23-3.52,5.03-6.52ZM1201.84,863.18c-.79-3.15-1.94-5.67-3.44-7.56-1.51-1.89-3.5-3.41-5.98-4.56-2.48-1.15-5.09-1.73-7.82-1.73-4.51,0-8.38,1.45-11.63,4.35-2.37,2.11-4.16,5.28-5.37,9.5h34.24Z"/>
    <path class="cls-2" d="M1230.86,844.86h5.91v8.23c2.36-3.15,4.98-5.51,7.85-7.07s6-2.34,9.37-2.34,6.48.87,9.14,2.62c2.66,1.75,4.62,4.1,5.89,7.05,1.27,2.96,1.9,7.56,1.9,13.81v23.64h-5.91v-21.91c0-5.29-.22-8.82-.66-10.6-.69-3.04-2-5.33-3.94-6.86s-4.48-2.3-7.6-2.3c-3.58,0-6.78,1.18-9.61,3.55-2.83,2.36-4.69,5.29-5.59,8.78-.56,2.28-.84,6.45-.84,12.5v16.85h-5.91v-45.94Z"/>
    <path class="cls-2" d="M1300.25,827.8h5.91v17.06h9.37v5.11h-9.37v40.83h-5.91v-40.83h-8.06v-5.11h8.06v-17.06Z"/>
    <path class="cls-2" d="M1373.39,825.94c1.34,0,2.49.48,3.45,1.44.95.96,1.43,2.11,1.43,3.46s-.48,2.46-1.43,3.42c-.95.96-2.1,1.44-3.45,1.44s-2.45-.48-3.41-1.44-1.43-2.1-1.43-3.42.47-2.51,1.43-3.46c.95-.96,2.09-1.44,3.41-1.44ZM1370.45,844.86h5.91v45.94h-5.91v-45.94Z"/>
    <path class="cls-2" d="M1400.15,844.86h5.91v8.23c2.36-3.15,4.98-5.51,7.85-7.07s6-2.34,9.37-2.34,6.48.87,9.14,2.62c2.66,1.75,4.62,4.1,5.89,7.05,1.27,2.96,1.9,7.56,1.9,13.81v23.64h-5.91v-21.91c0-5.29-.22-8.82-.66-10.6-.69-3.04-2-5.33-3.94-6.86-1.94-1.53-4.48-2.3-7.6-2.3-3.58,0-6.78,1.18-9.61,3.55-2.83,2.36-4.69,5.29-5.59,8.78-.56,2.28-.84,6.45-.84,12.5v16.85h-5.91v-45.94Z"/>
    <path class="cls-2" d="M1500.97,828.69h12.24c4.93,0,8.71.58,11.36,1.75s4.74,2.96,6.27,5.38,2.3,5.11,2.3,8.06c0,2.76-.67,5.27-2.02,7.54s-3.32,4.1-5.93,5.51c3.23,1.1,5.71,2.39,7.45,3.86,1.74,1.48,3.09,3.27,4.06,5.36.97,2.1,1.45,4.37,1.45,6.82,0,4.98-1.82,9.2-5.47,12.65-3.65,3.45-8.54,5.17-14.67,5.17h-17.06v-62.11ZM1507.05,834.77v19.89h3.55c4.32,0,7.49-.4,9.52-1.2s3.64-2.07,4.82-3.8c1.19-1.73,1.78-3.65,1.78-5.76,0-2.84-1-5.07-2.98-6.69-1.99-1.62-5.15-2.43-9.5-2.43h-7.19ZM1507.05,860.9v23.81h7.7c4.54,0,7.87-.44,9.98-1.33s3.81-2.27,5.09-4.16c1.28-1.89,1.92-3.93,1.92-6.12,0-2.76-.9-5.17-2.71-7.22s-4.28-3.46-7.44-4.22c-2.11-.51-5.8-.76-11.04-.76h-3.51Z"/>
    <path class="cls-2" d="M1560.22,844.86h5.91v21.45c0,5.24.28,8.84.84,10.81.85,2.81,2.46,5.04,4.84,6.67,2.38,1.63,5.22,2.45,8.52,2.45s6.09-.8,8.4-2.39c2.29-1.59,3.88-3.68,4.76-6.27.59-1.77.89-5.53.89-11.27v-21.45h6.04v22.55c0,6.33-.74,11.1-2.22,14.31-1.48,3.21-3.7,5.72-6.67,7.54-2.97,1.82-6.69,2.72-11.17,2.72s-8.21-.91-11.21-2.72c-3-1.82-5.24-4.35-6.71-7.6-1.48-3.25-2.22-8.14-2.22-14.67v-22.12Z"/>
    <path class="cls-2" d="M1648.14,849.88l-3.8,3.93c-3.16-3.07-6.25-4.6-9.27-4.6-1.92,0-3.56.63-4.93,1.9-1.37,1.27-2.05,2.74-2.05,4.43,0,1.49.56,2.91,1.69,4.26,1.13,1.38,3.5,3,7.11,4.86,4.4,2.28,7.39,4.48,8.97,6.59,1.55,2.14,2.33,4.55,2.33,7.22,0,3.77-1.33,6.97-3.98,9.58s-5.96,3.93-9.94,3.93c-2.65,0-5.18-.58-7.59-1.73-2.41-1.15-4.41-2.74-5.98-4.77l3.72-4.22c3.02,3.41,6.22,5.11,9.61,5.11,2.37,0,4.39-.76,6.05-2.28,1.66-1.52,2.5-3.31,2.5-5.36,0-1.69-.55-3.19-1.65-4.52-1.1-1.29-3.58-2.93-7.45-4.9-4.15-2.14-6.97-4.25-8.47-6.33-1.5-2.08-2.24-4.46-2.24-7.14,0-3.49,1.19-6.39,3.57-8.7,2.38-2.31,5.39-3.46,9.03-3.46,4.23,0,8.49,2.07,12.77,6.21Z"/>
    <path class="cls-2" d="M1672.16,825.94c1.34,0,2.49.48,3.45,1.44.95.96,1.43,2.11,1.43,3.46s-.48,2.46-1.43,3.42c-.95.96-2.1,1.44-3.45,1.44s-2.45-.48-3.41-1.44-1.43-2.1-1.43-3.42.47-2.51,1.43-3.46,2.09-1.44,3.41-1.44ZM1669.22,844.86h5.91v45.94h-5.91v-45.94Z"/>
    <path class="cls-2" d="M1698.92,844.86h5.91v8.23c2.36-3.15,4.98-5.51,7.85-7.07s6-2.34,9.37-2.34,6.48.87,9.14,2.62,4.62,4.1,5.89,7.05,1.9,7.56,1.9,13.81v23.64h-5.91v-21.91c0-5.29-.22-8.82-.66-10.6-.69-3.04-2-5.33-3.94-6.86-1.94-1.53-4.48-2.3-7.6-2.3-3.58,0-6.78,1.18-9.61,3.55-2.83,2.36-4.69,5.29-5.59,8.78-.56,2.28-.84,6.45-.84,12.5v16.85h-5.91v-45.94Z"/>
    <path class="cls-2" d="M1801.83,875.55l4.98,2.62c-1.63,3.21-3.52,5.8-5.66,7.77-2.14,1.97-4.55,3.47-7.22,4.5-2.68,1.03-5.71,1.54-9.09,1.54-7.49,0-13.35-2.46-17.58-7.37s-6.34-10.46-6.34-16.66c0-5.83,1.79-11.02,5.37-15.58,4.54-5.8,10.61-8.7,18.22-8.7s14.09,2.97,18.76,8.91c3.32,4.19,5.01,9.43,5.07,15.71h-41.33c.11,5.33,1.82,9.71,5.12,13.12,3.3,3.41,7.37,5.12,12.22,5.12,2.34,0,4.61-.41,6.83-1.22s4.1-1.89,5.64-3.24c1.55-1.35,3.23-3.52,5.03-6.52ZM1801.83,863.18c-.79-3.15-1.94-5.67-3.44-7.56-1.51-1.89-3.5-3.41-5.98-4.56-2.48-1.15-5.09-1.73-7.82-1.73-4.51,0-8.38,1.45-11.63,4.35-2.37,2.11-4.16,5.28-5.37,9.5h34.24Z"/>
    <path class="cls-2" d="M1853.95,849.88l-3.8,3.93c-3.16-3.07-6.25-4.6-9.27-4.6-1.92,0-3.56.63-4.93,1.9-1.37,1.27-2.05,2.74-2.05,4.43,0,1.49.56,2.91,1.69,4.26,1.13,1.38,3.5,3,7.11,4.86,4.4,2.28,7.39,4.48,8.97,6.59,1.55,2.14,2.33,4.55,2.33,7.22,0,3.77-1.33,6.97-3.98,9.58s-5.96,3.93-9.94,3.93c-2.65,0-5.18-.58-7.59-1.73-2.41-1.15-4.41-2.74-5.98-4.77l3.72-4.22c3.02,3.41,6.22,5.11,9.61,5.11,2.37,0,4.39-.76,6.05-2.28,1.66-1.52,2.5-3.31,2.5-5.36,0-1.69-.55-3.19-1.65-4.52-1.1-1.29-3.58-2.93-7.45-4.9-4.15-2.14-6.97-4.25-8.47-6.33s-2.24-4.46-2.24-7.14c0-3.49,1.19-6.39,3.57-8.7,2.38-2.31,5.39-3.46,9.03-3.46,4.23,0,8.49,2.07,12.77,6.21Z"/>
    <path class="cls-2" d="M1899.02,849.88l-3.8,3.93c-3.16-3.07-6.25-4.6-9.27-4.6-1.92,0-3.56.63-4.93,1.9-1.37,1.27-2.05,2.74-2.05,4.43,0,1.49.56,2.91,1.69,4.26,1.13,1.38,3.5,3,7.11,4.86,4.4,2.28,7.39,4.48,8.97,6.59,1.55,2.14,2.33,4.55,2.33,7.22,0,3.77-1.33,6.97-3.98,9.58s-5.96,3.93-9.94,3.93c-2.65,0-5.18-.58-7.59-1.73-2.41-1.15-4.41-2.74-5.98-4.77l3.72-4.22c3.02,3.41,6.22,5.11,9.61,5.11,2.37,0,4.39-.76,6.05-2.28,1.66-1.52,2.5-3.31,2.5-5.36,0-1.69-.55-3.19-1.65-4.52-1.1-1.29-3.58-2.93-7.45-4.9-4.15-2.14-6.97-4.25-8.47-6.33s-2.24-4.46-2.24-7.14c0-3.49,1.19-6.39,3.57-8.7,2.38-2.31,5.39-3.46,9.03-3.46,4.23,0,8.49,2.07,12.77,6.21Z"/>
  </g>
</svg>