<svg width="41" height="41" viewBox="0 0 41 41" fill="none" xmlns="http://www.w3.org/2000/svg">
  <path fill-rule="evenodd" clip-rule="evenodd"
    d="M39.1422 33.7824L35.479 30.0952C39.4031 24.2073 39.7699 16.638 36.4334 10.3982C33.097 4.15844 26.5984 0.260118 19.5226 0.253906C12.1575 0.293485 5.45754 4.52321 2.25444 11.1555L3.69412 11.8433C7.24887 4.44454 15.447 0.486468 23.4516 2.30439C31.4562 4.12231 37.1404 11.2332 37.1507 19.4416C37.1598 22.8099 36.19 26.1082 34.3593 28.9355L31.3279 25.8962C33.4765 21.5283 33.0446 16.3321 30.2043 12.3789C27.364 8.42574 22.5771 6.35841 17.752 7.00104C12.9269 7.64368 8.848 10.8918 7.14135 15.4505H1.85453V17.0502H6.69345C6.51726 17.8385 6.41815 18.6421 6.39751 19.4496H0.254883V21.0493H6.4535C6.51739 21.8621 6.6648 22.6661 6.8934 23.4487H1.94251V25.0484H7.46927C8.93815 28.4788 11.7938 31.1247 15.3261 32.328C18.8585 33.5314 22.7355 33.1792 25.9931 31.359L28.9285 34.2943C20.85 39.4073 10.1671 37.1343 4.86985 29.1755L3.54215 30.0633C9.39788 38.8618 21.2644 41.2716 30.0882 35.4541L33.7754 39.1412C35.2552 40.6232 37.6562 40.625 39.1382 39.1452C40.6202 37.6654 40.622 35.2644 39.1422 33.7824ZM19.5787 31.4307C14.8905 31.4307 10.6641 28.6061 8.87074 24.2745C7.07739 19.9429 8.0704 14.9574 11.3866 11.6435C14.7028 8.32957 19.6889 7.34001 24.0193 9.13635C28.3498 10.9327 31.1714 15.1611 31.1681 19.8493C31.1549 26.2432 25.9726 31.4219 19.5787 31.4307ZM34.8869 37.9971C35.7483 38.828 37.1128 38.828 37.9742 37.9971L37.9822 37.9571C38.3934 37.5487 38.6247 36.993 38.6247 36.4134C38.6247 35.8338 38.3934 35.2782 37.9822 34.8698L30.4159 27.2635C29.5839 28.4961 28.5479 29.578 27.3525 30.4628L34.8869 37.9971Z"
    fill="#DD7A01"></path>
  <path fill-rule="evenodd" clip-rule="evenodd"
    d="M26.9524 21.0106C26.6128 20.2945 26.095 19.6777 25.4488 19.219L25.9766 15.3238V15.2199V15.1079V14.9959C25.9766 13.1003 21.8016 12.3965 19.1702 12.3965C16.5387 12.3965 12.3717 13.1003 12.3717 14.9959C12.368 15.0331 12.368 15.0706 12.3717 15.1079V15.2199C12.3672 15.2544 12.3672 15.2893 12.3717 15.3238L13.7074 25.2816C13.8114 27.2652 18.5943 27.3212 19.1462 27.3212C20.1838 27.3273 21.2191 27.22 22.2335 27.0012C22.5705 26.9222 22.9018 26.8207 23.2253 26.6973C24.0971 26.3534 24.553 25.8975 24.5849 25.2816L25.0009 22.1703C25.2637 22.2272 25.5317 22.2567 25.8007 22.2583C26.2112 22.3175 26.6164 22.1212 26.8244 21.7624C26.971 21.5409 27.0174 21.268 26.9524 21.0106ZM23.7048 20.0914C22.6811 19.6995 21.4413 19.1636 20.2656 18.5958C20.0781 18.0439 19.5056 17.7213 18.9365 17.8468C18.3673 17.9722 17.9835 18.5056 18.0454 19.0851C18.1073 19.6647 18.595 20.105 19.1778 20.1074C19.3093 20.1083 19.4396 20.0838 19.5618 20.0354C20.8386 20.6726 22.1496 21.2386 23.4889 21.7311L23.049 25.0263C22.9336 25.1012 22.8102 25.1629 22.6811 25.2103C22.4205 25.307 22.1532 25.3845 21.8812 25.4422C20.9879 25.6358 20.0759 25.7297 19.1619 25.7222C17.8398 25.7995 16.5183 25.561 15.3067 25.0263L14.187 16.7002C17.4472 17.5853 20.8845 17.5853 24.1447 16.7002L23.7048 20.0914ZM14.1395 14.9635C15.7457 15.5759 17.4615 15.8483 19.1783 15.7633C20.8953 15.8492 22.6113 15.5768 24.2172 14.9635C22.6384 14.2438 20.912 13.9067 19.1783 13.9797C17.4447 13.9067 15.7183 14.2438 14.1395 14.9635Z"
    fill="#DD7A01"></path>
</svg>