<svg width="20" height="18" viewBox="0 0 20 18" fill="currentColor"
  xmlns="http://www.w3.org/2000/svg">
  <g id="Icon">
    <path id="Shape" fill-rule="evenodd" clip-rule="evenodd"
      d="M14.2425 4.75737C14.6331 5.14789 14.6331 5.78106 14.2425 6.17158L11.4141 9.00001L14.2425 11.8284C14.6331 12.219 14.6331 12.8521 14.2425 13.2427C13.852 13.6332 13.2188 13.6332 12.8283 13.2427L9.99989 10.4142L7.17146 13.2427C6.78094 13.6332 6.14777 13.6332 5.75725 13.2427C5.36672 12.8521 5.36672 12.219 5.75725 11.8284L8.58568 9.00001L5.75725 6.17158C5.36672 5.78106 5.36672 5.14789 5.75725 4.75737C6.14777 4.36685 6.78094 4.36685 7.17146 4.75737L9.99989 7.5858L12.8283 4.75737C13.2188 4.36685 13.852 4.36685 14.2425 4.75737Z"
    />
  </g>
</svg>