<svg width="92" height="92" viewBox="0 0 92 92" fill="none" xmlns="http://www.w3.org/2000/svg">
  <path fill-rule="evenodd" clip-rule="evenodd"
    d="M37.0658 24.5453L35.3952 22.8596L44.847 13.3222C45.309 12.8561 46.0557 12.8561 46.5177 13.3222L55.9695 22.8596L54.2989 24.5453L45.6824 15.8508L37.0658 24.5453ZM78.4178 47.1964L68.9659 56.7337L67.2953 55.048L75.9118 46.3535L67.2953 37.6591L68.9659 35.9734L78.4178 45.5107C78.8797 45.9768 78.8797 46.7303 78.4178 47.1964ZM54.2989 68.1618L55.9695 69.8475L46.5177 79.3848C46.2873 79.6173 45.9848 79.7341 45.6824 79.7341C45.3799 79.7341 45.0774 79.6173 44.847 79.3848L35.3952 69.8475L37.0658 68.1618L45.6824 76.8562L54.2989 68.1618ZM24.0694 55.048L22.3988 56.7337L12.9469 47.1964C12.485 46.7303 12.485 45.9768 12.9469 45.5107L22.3988 35.9734L24.0694 37.6591L15.4529 46.3535L24.0694 55.048ZM61.6324 66.6203C59.3521 66.6203 57.4972 64.7486 57.4972 62.4477C57.4972 60.1469 59.3521 58.2752 61.6324 58.2752C63.9127 58.2752 65.7676 60.1469 65.7676 62.4477C65.7676 64.7486 63.9127 66.6203 61.6324 66.6203ZM55.8514 59.4673H35.5133C34.8907 58.243 33.8994 57.2428 32.686 56.6145V36.0926C33.8994 35.4643 34.8907 34.4641 35.5133 33.2397H55.8514C56.474 34.4641 57.4653 35.4643 58.6787 36.0926V56.6145C57.4653 57.2428 56.474 58.243 55.8514 59.4673ZM29.7323 66.6203C27.452 66.6203 25.5971 64.7486 25.5971 62.4477C25.5971 60.1469 27.452 58.2752 29.7323 58.2752C32.0126 58.2752 33.8675 60.1469 33.8675 62.4477C33.8675 64.7486 32.0126 66.6203 29.7323 66.6203ZM25.5971 30.2593C25.5971 27.9584 27.452 26.0867 29.7323 26.0867C32.0126 26.0867 33.8675 27.9584 33.8675 30.2593C33.8675 32.5602 32.0126 34.4319 29.7323 34.4319C27.452 34.4319 25.5971 32.5602 25.5971 30.2593ZM61.6324 26.0867C63.9127 26.0867 65.7676 27.9584 65.7676 30.2593C65.7676 32.5602 63.9127 34.4319 61.6324 34.4319C59.3521 34.4319 57.4972 32.5602 57.4972 30.2593C57.4972 27.9584 59.3521 26.0867 61.6324 26.0867ZM61.6324 55.8908C61.4327 55.8908 61.2366 55.9028 61.0417 55.9206V36.7864C61.2366 36.8043 61.4327 36.8162 61.6324 36.8162C65.2147 36.8162 68.1306 33.8751 68.1306 30.2593C68.1306 26.6435 65.2147 23.7024 61.6324 23.7024C58.0501 23.7024 55.1342 26.6435 55.1342 30.2593C55.1342 30.4608 55.146 30.6587 55.1638 30.8554H36.2009C36.2187 30.6587 36.2305 30.4608 36.2305 30.2593C36.2305 26.6435 33.3146 23.7024 29.7323 23.7024C26.15 23.7024 23.2341 26.6435 23.2341 30.2593C23.2341 33.8751 26.15 36.8162 29.7323 36.8162C29.932 36.8162 30.1281 36.8043 30.323 36.7864V55.9206C30.1281 55.9028 29.932 55.8908 29.7323 55.8908C26.15 55.8908 23.2341 58.8319 23.2341 62.4477C23.2341 66.0636 26.15 69.0047 29.7323 69.0047C33.3146 69.0047 36.2305 66.0636 36.2305 62.4477C36.2305 62.2463 36.2187 62.0484 36.2009 61.8517H55.1638C55.146 62.0484 55.1342 62.2463 55.1342 62.4477C55.1342 66.0636 58.0501 69.0047 61.6324 69.0047C65.2147 69.0047 68.1306 66.0636 68.1306 62.4477C68.1306 58.8319 65.2147 55.8908 61.6324 55.8908Z"
    fill="#EC7211" />
</svg>