<svg width="32" height="32" viewBox="0 0 32 32" fill="currentColor"
  xmlns="http://www.w3.org/2000/svg">
  <g id="Icon">
    <g id="Shape">
      <path
        d="M16 14C20.9706 14 25 12.2091 25 10C25 7.79086 20.9706 6 16 6C11.0294 6 7 7.79086 7 10C7 12.2091 11.0294 14 16 14Z" />
      <path
        d="M7 12.5V16C7 18.2091 11.0294 20 16 20C20.9706 20 25 18.2091 25 16V12.5C25 14.7091 20.9706 16.5 16 16.5C11.0294 16.5 7 14.7091 7 12.5Z" />
      <path
        d="M7 18.5V22C7 24.2091 11.0294 26 16 26C20.9706 26 25 24.2091 25 22V18.5C25 20.7091 20.9706 22.5 16 22.5C11.0294 22.5 7 20.7091 7 18.5Z" />
    </g>
  </g>
</svg>