<svg width="20" height="20" viewBox="0 0 20 20" fill="none" xmlns="http://www.w3.org/2000/svg">
<path id="SageMaker Brand/MLBrain" fill-rule="evenodd" clip-rule="evenodd" d="M17.1665 6.13103L19.4181 7.21937C19.6383 7.32543 19.7777 7.54512 19.7777 7.78375V12.834C19.7777 13.0739 19.6383 13.2936 19.4155 13.3997L17.1456 14.4893V16.6218C17.1456 16.8478 17.0219 17.0574 16.8186 17.1697L12.2789 19.6949C12.1786 19.7504 12.0665 19.7782 11.9545 19.7782C11.8294 19.7782 11.7069 19.7441 11.5987 19.6759L9.96737 18.6432L8.41158 19.6684C8.30082 19.7416 8.17443 19.7782 8.04543 19.7782C7.93337 19.7782 7.82131 19.7504 7.72098 19.6949L3.1813 17.1697C2.97803 17.0574 2.85425 16.8478 2.85425 16.6218V14.4893L0.585707 13.3997C0.362893 13.2936 0.222168 13.0739 0.222168 12.834V7.78375C0.222168 7.54891 0.357681 7.33174 0.57398 7.22316L2.73176 6.13735V2.73344C2.73176 2.47967 2.88812 2.25114 3.12918 2.15266L7.70404 0.272683C7.84868 0.213343 8.00895 0.20703 8.15619 0.252482L9.95564 0.808015L11.6613 0.25627C11.8111 0.208292 11.9727 0.212081 12.1186 0.271421L16.7652 2.1514C17.0088 2.24861 17.1665 2.4784 17.1665 2.73344V6.13103ZM16.2713 9.81523L18.4747 11.5222V8.17388L16.2231 7.08554C16.0042 6.97948 15.8635 6.76106 15.8635 6.52117V5.33814H13.2575V4.07556H15.8635V3.15388L11.8424 1.52768L10.6111 1.92666V6.21563L13.6614 8.55139L12.8548 9.54125L9.55562 7.0161C9.39926 6.89615 9.30805 6.71434 9.30805 6.52117V1.93297L7.99071 1.52642L6.74242 2.03903V5.21314H5.43941V2.57436L4.03477 3.15136V6.12472L6.0388 7.05903L7.6845 5.99594L8.40637 7.0464L6.74242 8.12211V10.3089C6.74242 10.5197 6.63297 10.7167 6.45185 10.8341L4.49734 12.0967L3.77547 11.0462L5.43941 9.97053V8.18146L3.39499 7.22695L1.52518 8.16757V12.4426L3.79372 13.531C4.01653 13.637 4.15725 13.8567 4.15725 14.0966V16.2569L5.45375 16.9778L7.58547 14.9135L8.5067 15.8062L6.62385 17.628L8.01677 18.4033L9.30805 17.5498V10.3089H10.6111V12.8542H13.2575V14.1168H10.6111V17.5435L11.9766 18.4071L15.8426 16.2569V14.0966C15.8426 13.8567 15.9834 13.637 16.2062 13.531L17.9196 12.7078L15.4569 10.8026L16.2713 9.81523Z" fill="url(#paint0_linear_1930_76058)"/>
<defs>
<linearGradient id="paint0_linear_1930_76058" x1="9.99995" y1="0.222656" x2="9.99995" y2="19.7782" gradientUnits="userSpaceOnUse">
<stop stop-color="#ED38E0"/>
<stop offset="1" stop-color="#7E32E3"/>
</linearGradient>
</defs>
</svg>
