<svg width="30" height="42" viewBox="0 0 30 42" fill="none" xmlns="http://www.w3.org/2000/svg">
  <path fill-rule="evenodd" clip-rule="evenodd"
    d="M23.1188 17.3779C22.3239 17.3779 21.6781 16.7333 21.6781 15.9407C21.6781 15.1481 22.3239 14.5027 23.1188 14.5027C23.9129 14.5027 24.5587 15.1481 24.5587 15.9407C24.5587 16.7333 23.9129 17.3779 23.1188 17.3779ZM19.4696 26.1184C18.6754 26.1184 18.0297 25.4738 18.0297 24.6812C18.0297 23.8886 18.6754 23.244 19.4696 23.244C20.2637 23.244 20.9102 23.8886 20.9102 24.6812C20.9102 25.4738 20.2637 26.1184 19.4696 26.1184ZM10.7117 24.6618C9.91837 24.6618 9.27258 24.0172 9.27258 23.2246C9.27258 22.432 9.91837 21.7866 10.7117 21.7866C11.5066 21.7866 12.1524 22.432 12.1524 23.2246C12.1524 24.0172 11.5066 24.6618 10.7117 24.6618ZM7.06327 32.674C6.2699 32.674 5.62336 32.0294 5.62336 31.2368C5.62336 30.4442 6.2699 29.7996 7.06327 29.7996C7.85814 29.7996 8.50393 30.4442 8.50393 31.2368C8.50393 32.0294 7.85814 32.674 7.06327 32.674ZM23.1188 13.0072C21.4983 13.0072 20.1798 14.3233 20.1798 15.9407C20.1798 16.9322 20.678 17.8063 21.4354 18.338L20.0644 21.8091C19.8719 21.7694 19.6726 21.7485 19.4696 21.7485C18.181 21.7485 17.0954 22.586 16.7006 23.7413L13.6328 23.0451C13.5376 21.513 12.2715 20.2911 10.7117 20.2911C9.09203 20.2911 7.77424 21.6072 7.77424 23.2246C7.77424 23.9806 8.06941 24.664 8.54214 25.1844L7.20337 28.3183C7.15542 28.3153 7.11122 28.3041 7.06327 28.3041C5.44356 28.3041 4.12502 29.6194 4.12502 31.2368C4.12502 32.8534 5.44356 34.1695 7.06327 34.1695C8.68373 34.1695 10.0023 32.8534 10.0023 31.2368C10.0023 30.1989 9.45688 29.2911 8.63953 28.7692L9.82097 26.0047C10.1042 26.0952 10.3993 26.1573 10.7117 26.1573C11.8677 26.1573 12.8604 25.4821 13.3391 24.5122L16.589 25.2495C16.8549 26.5955 18.0446 27.6139 19.4696 27.6139C21.09 27.6139 22.4086 26.2986 22.4086 24.6812C22.4086 23.8071 22.0152 23.0302 21.4054 22.4918L22.8461 18.8457C22.9375 18.8547 23.0251 18.8734 23.1188 18.8734C24.7385 18.8734 26.057 17.5573 26.057 15.9407C26.057 14.3233 24.7385 13.0072 23.1188 13.0072ZM15 40.5045C7.70157 40.5045 2.24834 38.3136 2.24834 36.3544V8.36366C4.7311 10.3811 9.98654 11.4474 15.0157 11.4474C20.0224 11.4474 25.2554 10.3901 27.7517 8.38983V36.3544C27.7517 38.3136 22.2977 40.5045 15 40.5045ZM15.0157 1.49551C22.5209 1.49551 27.7517 3.72383 27.7517 5.72408C27.7517 7.72358 22.5209 9.95189 15.0157 9.95189C7.50978 9.95189 2.27981 7.72358 2.27981 5.72408C2.27981 3.72383 7.50978 1.49551 15.0157 1.49551ZM29.25 5.72408C29.25 2.00623 21.9164 0 15.0157 0C8.11511 0 0.781465 2.00623 0.781465 5.72408C0.781465 5.73006 0.782964 5.73679 0.782964 5.74277H0.75V36.3544C0.75 40.0214 8.09189 42 15 42C21.9081 42 29.25 40.0214 29.25 36.3544V5.74277H29.2485C29.2485 5.73679 29.25 5.73006 29.25 5.72408Z"
    fill="#DD7A01"></path>
</svg>