<svg width="18" height="18" viewBox="0 0 18 18" fill="currentColor"
  xmlns="http://www.w3.org/2000/svg">
  <g id="Icon">
    <g id="Shape">
      <path
        d="M14.5506 11C15.129 11 15.5431 11.5595 15.2883 12.0788C14.1491 14.4012 11.7613 16 9 16C5.13401 16 2 12.866 2 9C2 5.13401 5.13401 2 9 2C12.171 2 14.8496 4.10851 15.7101 7H13.9668C13.1745 5.03437 11.2493 3.64706 8.99999 3.64706C6.04364 3.64706 3.64705 6.04365 3.64705 9C3.64705 11.9563 6.04364 14.3529 8.99999 14.3529C11.0418 14.3529 12.8167 13.2097 13.7193 11.5285C13.8862 11.2177 14.1978 11 14.5506 11Z" />
      <path d="M16.5 1.5V7.5H10.5L16.5 1.5Z" />
    </g>
  </g>
</svg>