<svg width="16" height="16" viewBox="0 0 16 16" fill="currentColor"
  xmlns="http://www.w3.org/2000/svg">
  <g id="Logo" clip-path="url(#clip0_1930_70663)">
    <path id="SageMaker Brand/MLBrain" fill-rule="evenodd" clip-rule="evenodd"
      d="M13.8635 4.83413L15.7058 5.72459C15.8859 5.81136 16 5.99111 16 6.18635V10.3184C16 10.5147 15.8859 10.6944 15.7036 10.7812L13.8465 11.6727V13.4175C13.8465 13.6024 13.7452 13.7738 13.5789 13.8658L9.86461 15.9318C9.78252 15.9773 9.69083 16 9.59915 16C9.4968 16 9.39659 15.9721 9.3081 15.9163L7.97335 15.0713L6.70043 15.9101C6.60981 15.97 6.5064 16 6.40085 16C6.30917 16 6.21748 15.9773 6.13539 15.9318L2.42111 13.8658C2.2548 13.7738 2.15352 13.6024 2.15352 13.4175V11.6727L0.297441 10.7812C0.115139 10.6944 0 10.5147 0 10.3184V6.18635C0 5.9942 0.110874 5.81653 0.287847 5.72769L2.0533 4.83929V2.05428C2.0533 1.84664 2.18124 1.65967 2.37846 1.57909L6.12154 0.0409312C6.23987 -0.00762026 6.371 -0.0127851 6.49147 0.0244032L7.96375 0.47893L9.35927 0.0275019C9.48188 -0.0117525 9.61407 -0.0086528 9.73348 0.0398987L13.5352 1.57806C13.7345 1.6576 13.8635 1.84561 13.8635 2.05428V4.83413ZM13.1311 7.84847L14.9339 9.24511V6.50555L13.0917 5.61509C12.9126 5.52831 12.7974 5.3496 12.7974 5.15333V4.18539H10.6652V3.15238H12.7974V2.39828L9.50746 1.06775L8.5 1.39418V4.90334L10.9957 6.81442L10.3358 7.6243L7.63646 5.55827C7.50853 5.46014 7.4339 5.31138 7.4339 5.15333V1.39935L6.35608 1.06672L5.33475 1.48612V4.08312H4.26866V1.92412L3.1194 2.39621V4.82896L4.75906 5.59339L6.10554 4.72359L6.69616 5.58306L5.33475 6.46319V8.25238C5.33475 8.42489 5.2452 8.58604 5.09701 8.68211L3.49787 9.71513L2.90725 8.85566L4.26866 7.97553V6.51174L2.59595 5.73078L1.0661 6.50038V9.99818L2.92217 10.8886C3.10448 10.9754 3.21962 11.1552 3.21962 11.3514V13.1189L4.28038 13.7088L6.02452 12.0198L6.77825 12.7501L5.23774 14.2408L6.3774 14.875L7.4339 14.1767V8.25238H8.5V10.3349H10.6652V11.368H8.5V14.1716L9.61727 14.8781L12.7804 13.1189V11.3514C12.7804 11.1552 12.8955 10.9754 13.0778 10.8886L14.4797 10.2151L12.4648 8.65629L13.1311 7.84847Z" />
  </g>
</svg>