<svg
  xmlns="http://www.w3.org/2000/svg"
  width="20"
  height="20"
  viewBox="0 0 20 20"
  fill="currentColor"
>
  <path
    fill-rule="evenodd"
    clip-rule="evenodd"
    d="M12.3433 11.8129C12.9655 11.071 13.3403 10.1145 13.3403 9.07052C13.3403 6.71241 11.4286 4.80078 9.07052 4.80078C6.71241 4.80078 4.80078 6.71241 4.80078 9.07052C4.80078 11.4286 6.71241 13.3403 9.07052 13.3403C10.1146 13.3403 11.0711 12.9655 11.813 12.3432L12.3961 12.9264C12.2418 13.2904 12.3131 13.7274 12.6099 14.0241L14.5351 15.9494C14.9256 16.3399 15.5588 16.3399 15.9493 15.9494C16.3398 15.5589 16.3398 14.9257 15.9493 14.5352L14.0241 12.6099C13.7274 12.3132 13.2905 12.2419 12.9265 12.3961L12.3433 11.8129ZM9.07052 12.0903C10.7383 12.0903 12.0903 10.7383 12.0903 9.07052C12.0903 7.40276 10.7383 6.05078 9.07052 6.05078C7.40276 6.05078 6.05078 7.40276 6.05078 9.07052C6.05078 10.7383 7.40276 12.0903 9.07052 12.0903Z"
  />
</svg>