<svg width="20" height="20" viewBox="0 0 20 20" fill="none" xmlns="http://www.w3.org/2000/svg">
<g id="Data Icons">
<path id="Vector" fill-rule="evenodd" clip-rule="evenodd" d="M17.2454 8.88443L15.3083 10.003L17.2454 11.1216C17.7365 11.3944 17.9002 12.0219 17.6273 12.513C17.3545 13.0041 16.727 13.1678 16.2359 12.895L12.771 10.9033C12.5528 10.7669 12.3891 10.5487 12.3072 10.3304C12.28 10.2213 12.2527 10.1122 12.2527 10.003C12.2527 9.92117 12.28 9.83932 12.28 9.75748C12.3618 9.51193 12.5255 9.29367 12.7438 9.15726L16.2086 7.16563C16.6997 6.8928 17.3272 7.0565 17.6001 7.54759C17.9275 7.98411 17.7365 8.61161 17.2454 8.88443ZM15.4175 14.2864L11.9526 12.2948C11.7616 12.1856 11.5433 12.1583 11.3523 12.1856C10.834 12.2129 10.3975 12.6767 10.3975 13.1951V17.1783C10.3975 17.7513 10.8613 18.1878 11.4069 18.1878C11.9798 18.1878 12.4436 17.724 12.4436 17.1783V14.9412L14.3807 16.0598C14.8718 16.3326 15.4993 16.1689 15.7721 15.6778C16.0722 15.214 15.9085 14.5865 15.4175 14.2864ZM11.4069 10.385L9.96093 11.831C9.93365 11.8582 9.8518 11.9128 9.79723 11.9128H9.6881H9.46984H9.36071C9.30614 11.9128 9.2243 11.8855 9.16973 11.831L7.72375 10.385C7.69647 10.3577 7.66919 10.2758 7.66919 10.2213V10.1122V9.89389V9.78476C7.66919 9.73019 7.69647 9.64835 7.75104 9.59378L9.19701 8.1478C9.25158 8.09324 9.33343 8.06596 9.38799 8.06596H9.49712H9.71538H9.82452C9.87908 8.06596 9.96093 8.09324 10.0155 8.1478L11.4615 9.59378C11.516 9.64835 11.5433 9.70291 11.5433 9.78476V9.89389V10.1122V10.2213C11.4888 10.2758 11.4615 10.3577 11.4069 10.385ZM10.261 10.003C10.261 9.94846 10.2338 9.86661 10.1792 9.81204L9.76995 9.4028C9.71538 9.34824 9.66082 9.32096 9.57897 9.32096C9.52441 9.32096 9.44256 9.34824 9.38799 9.4028L8.97875 9.81204C8.92419 9.86661 8.89691 9.94846 8.89691 10.003C8.89691 10.0576 8.92419 10.1394 8.97875 10.194L9.38799 10.6032C9.44256 10.6578 9.49712 10.6851 9.57897 10.6851C9.63354 10.6851 9.71538 10.6578 9.76995 10.6032L10.1792 10.194C10.2338 10.1394 10.261 10.0576 10.261 10.003ZM3.74049 5.69237L7.20538 7.684C7.39636 7.79313 7.58734 7.82041 7.8056 7.82041C8.32397 7.79313 8.76049 7.32932 8.76049 6.81096V2.82769C8.76049 2.25476 8.29669 1.81824 7.75104 1.81824C7.1781 1.81824 6.7143 2.28204 6.7143 2.82769V5.06487L4.77723 3.94628C4.28614 3.67345 3.65864 3.83715 3.38582 4.32824C3.08571 4.79204 3.2494 5.41954 3.74049 5.69237ZM11.3523 7.82041C11.5433 7.84769 11.7616 7.79313 11.9526 7.684L15.4175 5.69237C15.9085 5.41954 16.0722 4.79204 15.7994 4.30096C15.5266 3.80987 14.8991 3.64617 14.408 3.919L12.4709 5.03759V2.82769C12.4709 2.25476 12.0071 1.81824 11.4342 1.81824C10.8613 1.81824 10.3975 2.25476 10.3975 2.82769V6.81096C10.3975 7.35661 10.834 7.79313 11.3523 7.82041ZM7.8056 12.1856C7.61462 12.1583 7.39636 12.2129 7.20538 12.322L3.74049 14.3137C3.2494 14.5865 3.08571 15.214 3.35853 15.7051C3.63136 16.1962 4.25886 16.3599 4.74995 16.087L6.68701 14.9685V17.2056C6.68701 17.7786 7.15082 18.2151 7.72375 18.2151C8.29669 18.2151 8.73321 17.7513 8.73321 17.2056V13.1951C8.73321 12.6494 8.32397 12.2129 7.8056 12.1856ZM6.85071 10.3031C6.87799 10.194 6.90527 10.0849 6.90527 9.97574C6.90527 9.89389 6.87799 9.81204 6.87799 9.73019C6.79614 9.48465 6.65973 9.26639 6.41419 9.12998L2.92201 7.13835C2.43093 6.86552 1.80343 7.02922 1.5306 7.5203C1.25777 8.01139 1.42147 8.63889 1.91256 8.91172L3.84962 10.0303L1.91256 11.1489C1.42147 11.4217 1.25777 12.0492 1.5306 12.5403C1.80343 13.0314 2.43093 13.1951 2.92201 12.9223L6.3869 10.9306C6.63245 10.7397 6.79614 10.5487 6.85071 10.3031Z" fill="#2BB5E9"/>
</g>
</svg>
