<svg width="20" height="20" viewBox="0 0 20 20" fill="none" stroke="currentColor"
  xmlns="http://www.w3.org/2000/svg">
  <rect x="3.5" y="3" width="13" height="14" rx="1.5" />
  <path d="M3.5 4.5C3.5 3.67157 4.17157 3 5 3H7.75V8H3.5V4.5Z" />
  <rect x="3.5" y="8" width="4.25" height="4" />
  <path d="M3.5 12H7.75V17H5C4.17157 17 3.5 16.3284 3.5 15.5V12Z" />
  <rect x="7.875" y="3" width="4.25" height="5" />
  <rect x="7.875" y="8" width="4.25" height="4" />
  <rect x="7.875" y="12" width="4.25" height="5" />
  <path d="M12.25 3H15C15.8284 3 16.5 3.67157 16.5 4.5V8H12.25V3Z" />
  <rect x="12.25" y="8" width="4.25" height="4" />
  <path d="M12.25 12H16.5V15.5C16.5 16.3284 15.8284 17 15 17H12.25V12Z" />
</svg>