<svg width="18" height="18" viewBox="0 0 18 18" fill="currentColor"
  xmlns="http://www.w3.org/2000/svg">
  <g id="Icon">
    <path id="Shape" fill-rule="evenodd" clip-rule="evenodd"
      d="M10.25 4.25C10.25 4.94036 9.69036 5.5 9 5.5C8.30964 5.5 7.75 4.94036 7.75 4.25C7.75 3.55964 8.30964 3 9 3C9.69036 3 10.25 3.55964 10.25 4.25ZM10.25 9C10.25 9.69036 9.69036 10.25 9 10.25C8.30964 10.25 7.75 9.69036 7.75 9C7.75 8.30964 8.30964 7.75 9 7.75C9.69036 7.75 10.25 8.30964 10.25 9ZM9 15C9.69036 15 10.25 14.4404 10.25 13.75C10.25 13.0596 9.69036 12.5 9 12.5C8.30964 12.5 7.75 13.0596 7.75 13.75C7.75 14.4404 8.30964 15 9 15Z"
      fill="currentColor" />
  </g>
</svg>