<svg xmlns="http://www.w3.org/2000/svg" width="16" height="16" viewBox="0 0 16 16" fill="none">
  <path d="M0.5 2C0.5 1.17157 1.17157 0.5 2 0.5H5.5V5.5H0.5V2Z" stroke="currentColor" />
  <mask id="path-2-inside-1_1311_522234" fill="white">
    <path d="M0 5H6V11H2C0.89543 11 0 10.1046 0 9V5Z" />
  </mask>
  <path
    d="M0 5H6H0ZM7 12H2C0.343146 12 -1 10.6569 -1 9H1C1 9.55228 1.44772 10 2 10H5L7 12ZM2 12C0.343146 12 -1 10.6569 -1 9V5H1V9C1 9.55228 1.44772 10 2 10V12ZM7 5V12L5 10V5H7Z"
    fill="currentColor" mask="url(#path-2-inside-1_1311_522234)" />
  <path d="M5.5 0.5H9C9.82843 0.5 10.5 1.17157 10.5 2V5.5H5.5V0.5Z" stroke="currentColor" />
  <mask id="path-5-inside-2_1311_522234" fill="white">
    <path d="M5 5H11V9C11 10.1046 10.1046 11 9 11H5V5Z" />
  </mask>
  <path
    d="M5 5H11H5ZM12 9C12 10.6569 10.6569 12 9 12H4L6 10H9C9.55228 10 10 9.55228 10 9H12ZM4 12V5H6V10L4 12ZM12 5V9C12 10.6569 10.6569 12 9 12V10C9.55228 10 10 9.55228 10 9V5H12Z"
    fill="currentColor" mask="url(#path-5-inside-2_1311_522234)" />
  <rect x="5.5" y="5.5" width="5" height="5" stroke="currentColor" />
  <mask id="path-8-inside-3_1311_522234" fill="white">
    <path d="M5 10H11V16H7C5.89543 16 5 15.1046 5 14V10Z" />
  </mask>
  <path
    d="M5 10H11H5ZM12 17H7C5.34315 17 4 15.6569 4 14H6C6 14.5523 6.44772 15 7 15H10L12 17ZM7 17C5.34315 17 4 15.6569 4 14V10H6V14C6 14.5523 6.44772 15 7 15V17ZM12 10V17L10 15V10H12Z"
    fill="currentColor" mask="url(#path-8-inside-3_1311_522234)" />
  <path d="M10.5 5.5H14C14.8284 5.5 15.5 6.17157 15.5 7V10.5H10.5V5.5Z" stroke="currentColor" />
  <mask id="path-11-inside-4_1311_522234" fill="white">
    <path d="M10 10H16V14C16 15.1046 15.1046 16 14 16H10V10Z" />
  </mask>
  <path
    d="M10 10H16H10ZM17 14C17 15.6569 15.6569 17 14 17H9L11 15H14C14.5523 15 15 14.5523 15 14H17ZM9 17V10H11V15L9 17ZM17 10V14C17 15.6569 15.6569 17 14 17V15C14.5523 15 15 14.5523 15 14V10H17Z"
    fill="currentColor" mask="url(#path-11-inside-4_1311_522234)" />
</svg>