<?xml version="1.0" encoding="UTF-8" standalone="no"?>
<!DOCTYPE svg PUBLIC "-//W3C//DTD SVG 1.1//EN"
 "http://www.w3.org/Graphics/SVG/1.1/DTD/svg11.dtd">
<!-- Generated by graphviz version 14.1.1 (20251213.1925)
 -->
<!-- Title: filoma Pages: 1 -->
<svg width="605pt" height="332pt"
 viewBox="0.00 0.00 605.00 332.00" xmlns="http://www.w3.org/2000/svg" xmlns:xlink="http://www.w3.org/1999/xlink">
<g id="graph0" class="graph" transform="scale(1 1) rotate(0) translate(4 327.88)">
<title>filoma</title>
<polygon fill="white" stroke="none" points="-4,4 -4,-327.88 600.5,-327.88 600.5,4 -4,4"/>
<!-- RustCore -->
<g id="node1" class="node">
<title>RustCore</title>
<path fill="none" stroke="black" d="M296,-80.88C296,-80.88 190.75,-80.88 190.75,-80.88 184.75,-80.88 178.75,-74.88 178.75,-68.88 178.75,-68.88 178.75,-51.12 178.75,-51.12 178.75,-45.12 184.75,-39.12 190.75,-39.12 190.75,-39.12 296,-39.12 296,-39.12 302,-39.12 308,-45.12 308,-51.12 308,-51.12 308,-68.88 308,-68.88 308,-74.88 302,-80.88 296,-80.88"/>
<text xml:space="preserve" text-anchor="middle" x="243.38" y="-67.38" font-family="Times,serif" font-size="10.00">Core Engine</text>
<text xml:space="preserve" text-anchor="middle" x="243.38" y="-56.12" font-family="Times,serif" font-size="10.00">(src/*.rs)</text>
<text xml:space="preserve" text-anchor="middle" x="243.38" y="-44.88" font-family="Times,serif" font-size="10.00">High&#45;performance scanning</text>
</g>
<!-- PythonPkg -->
<g id="node2" class="node">
<title>PythonPkg</title>
<path fill="none" stroke="black" d="M413.25,-152.88C413.25,-152.88 356,-152.88 356,-152.88 350,-152.88 344,-146.88 344,-140.88 344,-140.88 344,-123.12 344,-123.12 344,-117.12 350,-111.12 356,-111.12 356,-111.12 413.25,-111.12 413.25,-111.12 419.25,-111.12 425.25,-117.12 425.25,-123.12 425.25,-123.12 425.25,-140.88 425.25,-140.88 425.25,-146.88 419.25,-152.88 413.25,-152.88"/>
<text xml:space="preserve" text-anchor="middle" x="384.62" y="-139.38" font-family="Times,serif" font-size="10.00">Python Package</text>
<text xml:space="preserve" text-anchor="middle" x="384.62" y="-128.12" font-family="Times,serif" font-size="10.00">(src/filoma)</text>
<text xml:space="preserve" text-anchor="middle" x="384.62" y="-116.88" font-family="Times,serif" font-size="10.00">High&#45;level API</text>
</g>
<!-- RustCore&#45;&gt;PythonPkg -->
<g id="edge1" class="edge">
<title>RustCore&#45;&gt;PythonPkg</title>
<path fill="none" stroke="black" d="M285.4,-81.21C300.54,-89.04 317.86,-97.99 333.69,-106.18"/>
<polygon fill="black" stroke="black" points="332.01,-109.25 342.51,-110.74 335.23,-103.04 332.01,-109.25"/>
</g>
<!-- Artifacts -->
<g id="node10" class="node">
<title>Artifacts</title>
<path fill="none" stroke="black" d="M569.5,-36C569.5,-36 488.25,-36 488.25,-36 482.25,-36 476.25,-30 476.25,-24 476.25,-24 476.25,-12 476.25,-12 476.25,-6 482.25,0 488.25,0 488.25,0 569.5,0 569.5,0 575.5,0 581.5,-6 581.5,-12 581.5,-12 581.5,-24 581.5,-24 581.5,-30 575.5,-36 569.5,-36"/>
<text xml:space="preserve" text-anchor="middle" x="528.88" y="-19.75" font-family="Times,serif" font-size="10.00">Packaging &amp; Artifacts</text>
<text xml:space="preserve" text-anchor="middle" x="528.88" y="-8.5" font-family="Times,serif" font-size="10.00">(wheels/, target/)</text>
</g>
<!-- RustCore&#45;&gt;Artifacts -->
<g id="edge10" class="edge">
<title>RustCore&#45;&gt;Artifacts</title>
<path fill="none" stroke="black" d="M308.35,-50.52C355.12,-43.59 418.25,-34.24 464.81,-27.34"/>
<polygon fill="black" stroke="black" points="465.09,-30.84 474.47,-25.91 464.07,-23.92 465.09,-30.84"/>
</g>
<!-- CLI -->
<g id="node3" class="node">
<title>CLI</title>
<path fill="none" stroke="black" d="M561.25,-323.88C561.25,-323.88 496.5,-323.88 496.5,-323.88 490.5,-323.88 484.5,-317.88 484.5,-311.88 484.5,-311.88 484.5,-294.12 484.5,-294.12 484.5,-288.12 490.5,-282.12 496.5,-282.12 496.5,-282.12 561.25,-282.12 561.25,-282.12 567.25,-282.12 573.25,-288.12 573.25,-294.12 573.25,-294.12 573.25,-311.88 573.25,-311.88 573.25,-317.88 567.25,-323.88 561.25,-323.88"/>
<text xml:space="preserve" text-anchor="middle" x="528.88" y="-310.38" font-family="Times,serif" font-size="10.00">CLI</text>
<text xml:space="preserve" text-anchor="middle" x="528.88" y="-299.12" font-family="Times,serif" font-size="10.00">(src/filoma/cli.py)</text>
<text xml:space="preserve" text-anchor="middle" x="528.88" y="-287.88" font-family="Times,serif" font-size="10.00">User entrypoints</text>
</g>
<!-- PythonPkg&#45;&gt;CLI -->
<g id="edge2" class="edge">
<title>PythonPkg&#45;&gt;CLI</title>
<path fill="none" stroke="black" d="M392.08,-153.14C402.28,-183.35 424.79,-238.98 461.25,-273 465.16,-276.65 469.59,-279.91 474.26,-282.81"/>
<polygon fill="black" stroke="black" points="472.33,-285.74 482.78,-287.53 475.73,-279.62 472.33,-285.74"/>
</g>
<!-- Dataframe -->
<g id="node4" class="node">
<title>Dataframe</title>
<path fill="none" stroke="black" d="M571,-263.88C571,-263.88 486.75,-263.88 486.75,-263.88 480.75,-263.88 474.75,-257.88 474.75,-251.88 474.75,-251.88 474.75,-234.12 474.75,-234.12 474.75,-228.12 480.75,-222.12 486.75,-222.12 486.75,-222.12 571,-222.12 571,-222.12 577,-222.12 583,-228.12 583,-234.12 583,-234.12 583,-251.88 583,-251.88 583,-257.88 577,-263.88 571,-263.88"/>
<text xml:space="preserve" text-anchor="middle" x="528.88" y="-250.38" font-family="Times,serif" font-size="10.00">Data Processing</text>
<text xml:space="preserve" text-anchor="middle" x="528.88" y="-239.12" font-family="Times,serif" font-size="10.00">(dataframe, dedup)</text>
<text xml:space="preserve" text-anchor="middle" x="528.88" y="-227.88" font-family="Times,serif" font-size="10.00">Chaining &amp; transforms</text>
</g>
<!-- PythonPkg&#45;&gt;Dataframe -->
<g id="edge3" class="edge">
<title>PythonPkg&#45;&gt;Dataframe</title>
<path fill="none" stroke="black" d="M401.43,-153.17C415.56,-170.95 437.63,-196.09 461.25,-213 462.6,-213.97 463.99,-214.92 465.41,-215.85"/>
<polygon fill="black" stroke="black" points="463.45,-218.75 473.82,-220.88 467.04,-212.74 463.45,-218.75"/>
</g>
<!-- Backends -->
<g id="node5" class="node">
<title>Backends</title>
<path fill="none" stroke="black" d="M584.5,-204C584.5,-204 473.25,-204 473.25,-204 467.25,-204 461.25,-198 461.25,-192 461.25,-192 461.25,-180 461.25,-180 461.25,-174 467.25,-168 473.25,-168 473.25,-168 584.5,-168 584.5,-168 590.5,-168 596.5,-174 596.5,-180 596.5,-180 596.5,-192 596.5,-192 596.5,-198 590.5,-204 584.5,-204"/>
<text xml:space="preserve" text-anchor="middle" x="528.88" y="-187.75" font-family="Times,serif" font-size="10.00">Backends &amp; Enrichers</text>
<text xml:space="preserve" text-anchor="middle" x="528.88" y="-176.5" font-family="Times,serif" font-size="10.00">(core/backends, files, images)</text>
</g>
<!-- PythonPkg&#45;&gt;Backends -->
<g id="edge4" class="edge">
<title>PythonPkg&#45;&gt;Backends</title>
<path fill="none" stroke="black" d="M425.63,-147.19C439.05,-152.28 454.32,-158.08 468.88,-163.61"/>
<polygon fill="black" stroke="black" points="467.32,-166.76 477.92,-167.03 469.81,-160.21 467.32,-166.76"/>
</g>
<!-- Directories -->
<g id="node6" class="node">
<title>Directories</title>
<path fill="none" stroke="black" d="M579.25,-150C579.25,-150 478.5,-150 478.5,-150 472.5,-150 466.5,-144 466.5,-138 466.5,-138 466.5,-126 466.5,-126 466.5,-120 472.5,-114 478.5,-114 478.5,-114 579.25,-114 579.25,-114 585.25,-114 591.25,-120 591.25,-126 591.25,-126 591.25,-138 591.25,-138 591.25,-144 585.25,-150 579.25,-150"/>
<text xml:space="preserve" text-anchor="middle" x="528.88" y="-133.75" font-family="Times,serif" font-size="10.00">Directories &amp; Path Helpers</text>
<text xml:space="preserve" text-anchor="middle" x="528.88" y="-122.5" font-family="Times,serif" font-size="10.00">(directories)</text>
</g>
<!-- PythonPkg&#45;&gt;Directories -->
<g id="edge5" class="edge">
<title>PythonPkg&#45;&gt;Directories</title>
<path fill="none" stroke="black" d="M425.63,-132C434.76,-132 444.75,-132 454.79,-132"/>
<polygon fill="black" stroke="black" points="454.59,-135.5 464.59,-132 454.59,-128.5 454.59,-135.5"/>
</g>
<!-- Tests -->
<g id="node7" class="node">
<title>Tests</title>
<path fill="none" stroke="black" d="M571.75,-95.88C571.75,-95.88 486,-95.88 486,-95.88 480,-95.88 474,-89.88 474,-83.88 474,-83.88 474,-66.12 474,-66.12 474,-60.12 480,-54.12 486,-54.12 486,-54.12 571.75,-54.12 571.75,-54.12 577.75,-54.12 583.75,-60.12 583.75,-66.12 583.75,-66.12 583.75,-83.88 583.75,-83.88 583.75,-89.88 577.75,-95.88 571.75,-95.88"/>
<text xml:space="preserve" text-anchor="middle" x="528.88" y="-82.38" font-family="Times,serif" font-size="10.00">Tests</text>
<text xml:space="preserve" text-anchor="middle" x="528.88" y="-71.12" font-family="Times,serif" font-size="10.00">(tests/)</text>
<text xml:space="preserve" text-anchor="middle" x="528.88" y="-59.88" font-family="Times,serif" font-size="10.00">Integration &amp; unit tests</text>
</g>
<!-- PythonPkg&#45;&gt;Tests -->
<g id="edge6" class="edge">
<title>PythonPkg&#45;&gt;Tests</title>
<path fill="none" stroke="black" d="M425.63,-115.97C437.62,-111.16 451.09,-105.77 464.21,-100.51"/>
<polygon fill="black" stroke="black" points="465.25,-103.87 473.23,-96.9 462.64,-97.37 465.25,-103.87"/>
</g>
<!-- PythonPkg&#45;&gt;Artifacts -->
<g id="edge11" class="edge">
<title>PythonPkg&#45;&gt;Artifacts</title>
<path fill="none" stroke="black" d="M399.6,-110.85C413.32,-91.48 435.84,-63.14 461.25,-45 462.82,-43.88 464.45,-42.79 466.11,-41.74"/>
<polygon fill="black" stroke="black" points="467.72,-44.86 474.7,-36.88 464.27,-38.76 467.72,-44.86"/>
</g>
<!-- Docs -->
<g id="node8" class="node">
<title>Docs</title>
<path fill="none" stroke="black" d="M278.38,-173C278.38,-173 208.38,-173 208.38,-173 202.38,-173 196.38,-167 196.38,-161 196.38,-161 196.38,-149 196.38,-149 196.38,-143 202.38,-137 208.38,-137 208.38,-137 278.38,-137 278.38,-137 284.38,-137 290.38,-143 290.38,-149 290.38,-149 290.38,-161 290.38,-161 290.38,-167 284.38,-173 278.38,-173"/>
<text xml:space="preserve" text-anchor="middle" x="243.38" y="-156.75" font-family="Times,serif" font-size="10.00">Docs &amp; Notebooks</text>
<text xml:space="preserve" text-anchor="middle" x="243.38" y="-145.5" font-family="Times,serif" font-size="10.00">(docs/, notebooks/)</text>
</g>
<!-- Docs&#45;&gt;PythonPkg -->
<g id="edge7" class="edge">
<title>Docs&#45;&gt;PythonPkg</title>
<path fill="none" stroke="black" d="M290.74,-147.34C304.09,-145.14 318.73,-142.72 332.36,-140.47"/>
<polygon fill="black" stroke="black" points="332.73,-143.95 342.03,-138.87 331.59,-137.05 332.73,-143.95"/>
</g>
<!-- Tooling -->
<g id="node9" class="node">
<title>Tooling</title>
<path fill="none" stroke="black" d="M130.75,-102C130.75,-102 12,-102 12,-102 6,-102 0,-96 0,-90 0,-90 0,-78 0,-78 0,-72 6,-66 12,-66 12,-66 130.75,-66 130.75,-66 136.75,-66 142.75,-72 142.75,-78 142.75,-78 142.75,-90 142.75,-90 142.75,-96 136.75,-102 130.75,-102"/>
<text xml:space="preserve" text-anchor="middle" x="71.38" y="-85.75" font-family="Times,serif" font-size="10.00">Tooling &amp; Scripts</text>
<text xml:space="preserve" text-anchor="middle" x="71.38" y="-74.5" font-family="Times,serif" font-size="10.00">(scripts/, Makefile, Cargo.toml)</text>
</g>
<!-- Tooling&#45;&gt;RustCore -->
<g id="edge8" class="edge">
<title>Tooling&#45;&gt;RustCore</title>
<path fill="none" stroke="black" d="M142.99,-74.03C150.99,-72.9 159.17,-71.75 167.22,-70.61"/>
<polygon fill="black" stroke="black" points="167.58,-74.09 177,-69.23 166.61,-67.16 167.58,-74.09"/>
</g>
<!-- Tooling&#45;&gt;PythonPkg -->
<g id="edge9" class="edge">
<title>Tooling&#45;&gt;PythonPkg</title>
<path fill="none" stroke="black" d="M143,-94.89C200.7,-103.79 280.87,-116.15 332.51,-124.12"/>
<polygon fill="black" stroke="black" points="331.8,-127.55 342.22,-125.61 332.87,-120.63 331.8,-127.55"/>
</g>
</g>
</svg>
