<?xml version="1.0" encoding="UTF-8" standalone="no"?>
<!DOCTYPE svg PUBLIC "-//W3C//DTD SVG 1.1//EN"
 "http://www.w3.org/Graphics/SVG/1.1/DTD/svg11.dtd">
<!-- Generated by graphviz version 14.1.1 (20251213.1925)
 -->
<!-- Title: profiling_flow Pages: 1 -->
<svg width="893pt" height="209pt"
 viewBox="0.00 0.00 893.00 209.00" xmlns="http://www.w3.org/2000/svg" xmlns:xlink="http://www.w3.org/1999/xlink">
<g id="graph0" class="graph" transform="scale(1 1) rotate(0) translate(4 205)">
<title>profiling_flow</title>
<polygon fill="white" stroke="none" points="-4,4 -4,-205 888.75,-205 888.75,4 -4,4"/>
<g id="clust1" class="cluster">
<title>cluster_fs</title>
<polygon fill="none" stroke="gray" stroke-dasharray="5,2" points="8,-62 8,-139 138.25,-139 138.25,-62 8,-62"/>
<text xml:space="preserve" text-anchor="middle" x="73.12" y="-121.7" font-family="Times,serif" font-size="14.00">Filesystem</text>
</g>
<g id="clust2" class="cluster">
<title>cluster_backends</title>
<path fill="none" stroke="#0288d1" d="M346.25,-8C346.25,-8 506.25,-8 506.25,-8 512.25,-8 518.25,-14 518.25,-20 518.25,-20 518.25,-181 518.25,-181 518.25,-187 512.25,-193 506.25,-193 506.25,-193 346.25,-193 346.25,-193 340.25,-193 334.25,-187 334.25,-181 334.25,-181 334.25,-20 334.25,-20 334.25,-14 340.25,-8 346.25,-8"/>
<text xml:space="preserve" text-anchor="middle" x="426.25" y="-175.7" font-family="Times,serif" font-size="14.00">Smart Multi&#45;Backend Strategy</text>
</g>
<!-- Files -->
<g id="node1" class="node">
<title>Files</title>
<polygon fill="#f9f9f9" stroke="black" points="130.25,-106 127.25,-110 106.25,-110 103.25,-106 16,-106 16,-70 130.25,-70 130.25,-106"/>
<text xml:space="preserve" text-anchor="middle" x="73.12" y="-82.97" font-family="Helvetica,sans-Serif" font-size="12.00">Files &amp; Directories</text>
</g>
<!-- Scanner -->
<g id="node2" class="node">
<title>Scanner</title>
<path fill="#e1f5fe" stroke="black" d="M256,-106C256,-106 179.25,-106 179.25,-106 173.25,-106 167.25,-100 167.25,-94 167.25,-94 167.25,-82 167.25,-82 167.25,-76 173.25,-70 179.25,-70 179.25,-70 256,-70 256,-70 262,-70 268,-76 268,-82 268,-82 268,-94 268,-94 268,-100 262,-106 256,-106"/>
<text xml:space="preserve" text-anchor="middle" x="217.62" y="-82.97" font-family="Helvetica,sans-Serif" font-size="12.00">Filoma Scanner</text>
</g>
<!-- Files&#45;&gt;Scanner -->
<g id="edge1" class="edge">
<title>Files&#45;&gt;Scanner</title>
<path fill="none" stroke="black" d="M130.44,-88C138.79,-88 147.42,-88 155.85,-88"/>
<polygon fill="black" stroke="black" points="155.66,-91.5 165.66,-88 155.66,-84.5 155.66,-91.5"/>
</g>
<!-- Rust -->
<g id="node3" class="node">
<title>Rust</title>
<path fill="#f9f9f9" stroke="black" d="M458.88,-160C458.88,-160 392.62,-160 392.62,-160 386.62,-160 380.62,-154 380.62,-148 380.62,-148 380.62,-136 380.62,-136 380.62,-130 386.62,-124 392.62,-124 392.62,-124 458.88,-124 458.88,-124 464.88,-124 470.88,-130 470.88,-136 470.88,-136 470.88,-148 470.88,-148 470.88,-154 464.88,-160 458.88,-160"/>
<text xml:space="preserve" text-anchor="middle" x="425.75" y="-136.97" font-family="Helvetica,sans-Serif" font-size="12.00">Rust (Fastest)</text>
</g>
<!-- Scanner&#45;&gt;Rust -->
<g id="edge2" class="edge">
<title>Scanner&#45;&gt;Rust</title>
<path fill="none" stroke="black" d="M268.26,-101C298.84,-109.02 338.1,-119.3 369.65,-127.56"/>
<polygon fill="black" stroke="black" points="368.43,-130.86 378.99,-130.01 370.2,-124.09 368.43,-130.86"/>
<text xml:space="preserve" text-anchor="middle" x="305.12" y="-116.75" font-family="Helvetica,sans-Serif" font-size="10.00">preferred</text>
</g>
<!-- FD -->
<g id="node4" class="node">
<title>FD</title>
<path fill="#f9f9f9" stroke="black" d="M455.12,-106C455.12,-106 396.38,-106 396.38,-106 390.38,-106 384.38,-100 384.38,-94 384.38,-94 384.38,-82 384.38,-82 384.38,-76 390.38,-70 396.38,-70 396.38,-70 455.12,-70 455.12,-70 461.12,-70 467.12,-76 467.12,-82 467.12,-82 467.12,-94 467.12,-94 467.12,-100 461.12,-106 455.12,-106"/>
<text xml:space="preserve" text-anchor="middle" x="425.75" y="-82.97" font-family="Helvetica,sans-Serif" font-size="12.00">fd&#45;find (Fast)</text>
</g>
<!-- Scanner&#45;&gt;FD -->
<g id="edge3" class="edge">
<title>Scanner&#45;&gt;FD</title>
<path fill="none" stroke="black" d="M268.26,-88C299.88,-88 340.76,-88 372.82,-88"/>
<polygon fill="black" stroke="black" points="372.68,-91.5 382.68,-88 372.68,-84.5 372.68,-91.5"/>
</g>
<!-- Python -->
<g id="node5" class="node">
<title>Python</title>
<path fill="#f9f9f9" stroke="black" d="M468.62,-52C468.62,-52 382.88,-52 382.88,-52 376.88,-52 370.88,-46 370.88,-40 370.88,-40 370.88,-28 370.88,-28 370.88,-22 376.88,-16 382.88,-16 382.88,-16 468.62,-16 468.62,-16 474.62,-16 480.62,-22 480.62,-28 480.62,-28 480.62,-40 480.62,-40 480.62,-46 474.62,-52 468.62,-52"/>
<text xml:space="preserve" text-anchor="middle" x="425.75" y="-28.98" font-family="Helvetica,sans-Serif" font-size="12.00">Python (Fallback)</text>
</g>
<!-- Scanner&#45;&gt;Python -->
<g id="edge4" class="edge">
<title>Scanner&#45;&gt;Python</title>
<path fill="none" stroke="black" d="M268.26,-75C295.62,-67.83 329.92,-58.84 359.43,-51.11"/>
<polygon fill="black" stroke="black" points="360.23,-54.52 369.02,-48.6 358.46,-47.75 360.23,-54.52"/>
</g>
<!-- Enricher -->
<g id="node6" class="node">
<title>Enricher</title>
<path fill="#e8f5e9" stroke="black" d="M678,-106C678,-106 559.25,-106 559.25,-106 553.25,-106 547.25,-100 547.25,-94 547.25,-94 547.25,-82 547.25,-82 547.25,-76 553.25,-70 559.25,-70 559.25,-70 678,-70 678,-70 684,-70 690,-76 690,-82 690,-82 690,-94 690,-94 690,-100 684,-106 678,-106"/>
<text xml:space="preserve" text-anchor="middle" x="618.62" y="-89.35" font-family="Helvetica,sans-Serif" font-size="12.00">Metadata Enricher</text>
<text xml:space="preserve" text-anchor="middle" x="618.62" y="-76.6" font-family="Helvetica,sans-Serif" font-size="12.00">(Stats, Hashes, Images)</text>
</g>
<!-- Rust&#45;&gt;Enricher -->
<g id="edge5" class="edge">
<title>Rust&#45;&gt;Enricher</title>
<path fill="none" stroke="black" d="M471.02,-129.48C491.94,-123.56 517.51,-116.32 541.4,-109.56"/>
<polygon fill="black" stroke="black" points="542.11,-113 550.78,-106.91 540.21,-106.27 542.11,-113"/>
</g>
<!-- FD&#45;&gt;Enricher -->
<g id="edge6" class="edge">
<title>FD&#45;&gt;Enricher</title>
<path fill="none" stroke="black" d="M467.23,-88C487.17,-88 511.96,-88 535.62,-88"/>
<polygon fill="black" stroke="black" points="535.61,-91.5 545.61,-88 535.61,-84.5 535.61,-91.5"/>
</g>
<!-- Python&#45;&gt;Enricher -->
<g id="edge7" class="edge">
<title>Python&#45;&gt;Enricher</title>
<path fill="none" stroke="black" d="M480.94,-49.33C499.81,-54.67 521.35,-60.76 541.65,-66.51"/>
<polygon fill="black" stroke="black" points="540.43,-69.8 551.01,-69.15 542.34,-63.06 540.43,-69.8"/>
</g>
<!-- Result -->
<g id="node7" class="node">
<title>Result</title>
<polygon fill="#fff9c4" stroke="black" points="878.75,-106 727,-106 727,-70 884.75,-70 884.75,-100 878.75,-106"/>
<polyline fill="none" stroke="black" points="878.75,-106 878.75,-100"/>
<polyline fill="none" stroke="black" points="884.75,-100 878.75,-100"/>
<text xml:space="preserve" text-anchor="middle" x="805.88" y="-82.97" font-family="Helvetica,sans-Serif" font-size="12.00">Rich Analysis / DataFrame</text>
</g>
<!-- Enricher&#45;&gt;Result -->
<g id="edge8" class="edge">
<title>Enricher&#45;&gt;Result</title>
<path fill="none" stroke="black" d="M690.45,-88C698.6,-88 706.98,-88 715.33,-88"/>
<polygon fill="black" stroke="black" points="715.16,-91.5 725.16,-88 715.16,-84.5 715.16,-91.5"/>
</g>
</g>
</svg>
