<?xml version="1.0" encoding="UTF-8" standalone="no"?>
<svg version="1.0" width="100%" height="100%" viewBox="0 0 2113 1993" preserveAspectRatio="xMidYMid" id="svg73" xmlns="http://www.w3.org/2000/svg" xmlns:svg="http://www.w3.org/2000/svg" xmlns:rdf="http://www.w3.org/1999/02/22-rdf-syntax-ns#" xmlns:cc="http://creativecommons.org/ns#" xmlns:dc="http://purl.org/dc/elements/1.1/">
  <title id="title73">fbf SVG official logo</title>
  <defs id="defs73" />
  <g id="g22">
    <path d="m 0.5,996.5 c 0,-996 0,-996 1056,-996 1056,0 1056,0 1056,996 0,996 0,996 -1056,996 -1056,0 -1056,0 -1056,-996 z" id="path1" style="display:inline;fill:none;fill-opacity:1;stroke:#000000;stroke-opacity:0.99646" />
    <path d="m 1703.5,1440.5 c -5.8,-0.5 -20.6,-2.2 -33,-3.9 -24.4,-3.4 -45.5,-5.7 -85,-9.6 -59.8,-5.9 -76.6,-7.6 -79,-8 -1.4,-0.3 -16.2,-1.4 -33,-2.5 -16.8,-1.1 -31.8,-2.2 -33.5,-2.5 -3.3,-0.5 -73.3,-5 -92,-5.9 -6.6,-0.4 -24.1,-1.3 -39,-2.1 -42.5,-2.4 -97.8,-4.6 -137,-5.5 -78.6,-1.8 -247.5,-0.7 -301.5,2 -11.3,0.5 -35.4,1.4 -53.7,2 -18.2,0.6 -38.9,1.5 -46,2 -7,0.6 -23.1,1.5 -35.8,2 -12.6,0.6 -28.4,1.5 -35,2 -6.6,0.6 -20.3,1.4 -30.5,2 -32.3,1.7 -72.1,5.1 -113,9.5 -14.4,1.6 -37.2,3.8 -56,5.5 -27.2,2.4 -69,6.9 -99,10.5 -28.7,3.6 -48.1,3.2 -61,-1 -16.3,-5.2 -26.7,-11.8 -40.3,-25.3 -14.8,-14.5 -24.2,-31 -27.9,-48.7 -1.4,-6.8 -1.3,-1039.9 0.1,-1050.5 2.6,-19 10.2,-33 27.1,-50 13.1,-13 20.7,-17.9 35.9,-23 17.1,-5.7 32.6,-5.6 85.1,1 17.3,2.1 41,4.8 52.5,6 11.6,1.1 28.9,2.9 38.5,4 17,1.9 40.8,4.3 56,5.5 4.1,0.3 16.5,1.5 27.5,2.5 20.1,1.9 52,4.3 82.5,6 9.1,0.6 25.5,1.7 36.5,2.5 21.1,1.6 43.3,2.8 78,4.5 11.6,0.6 29.1,1.5 39,2 61.6,3.5 167.5,5.4 251.2,4.7 110.8,-1 143.3,-2.1 242.3,-7.7 18.4,-1.1 39.1,-2.2 46,-2.6 6.9,-0.3 16.1,-1 20.5,-1.5 4.4,-0.5 15.4,-1.4 24.5,-1.9 27,-1.7 68.6,-4.9 83,-6.4 7.4,-0.8 17.6,-1.8 22.5,-2.1 13.6,-1 103.1,-10.1 127,-12.9 70.6,-8.5 79.5,-9.1 93,-5.5 4.4,1.1 11.1,3.5 15,5.3 13.1,6.1 31.3,21.6 39.1,33.3 4.9,7.3 11,20.6 13.1,28.3 1.7,6.2 1.8,31.7 1.7,525 -0.1,391.6 -0.4,521.2 -1.3,529.5 -2,18.4 -10.6,36.3 -24.5,51.2 -9.3,10 -17.4,15.9 -28.8,21.3 -18.6,8.7 -30.2,10.7 -51.8,9 z" id="path3" style="display:inline;fill:#fefeff;fill-opacity:1;stroke:#fefefe;stroke-opacity:0.99469" />
    <path d="m 0.5,996.5 c 0,-996 0,-996 1056,-996 1056,0 1056,0 1056,996 0,996 0,996 -1056,996 -1056,0 -1056,0 -1056,-996 z m 408.5,440 c 13.2,-1.6 29.4,-3.4 36,-4 6.6,-0.6 17.6,-1.7 24.5,-2.5 6.9,-0.8 20.2,-2.1 29.5,-3 25.3,-2.3 42.7,-4 75.5,-7.4 33.4,-3.4 59.6,-5.6 94.5,-7.6 13.2,-0.8 29.9,-1.9 37,-2.4 7.2,-0.6 19.5,-1.3 27.5,-1.6 8,-0.3 24.4,-1.2 36.5,-2 12.1,-0.8 31.2,-1.6 42.5,-2 29.3,-0.8 49.6,-1.5 56,-2 3,-0.2 14.7,-0.7 26,-1 11.3,-0.4 25,-0.9 30.5,-1.1 12.7,-0.7 211.7,-1.3 212.8,-0.7 0.4,0.3 16.4,0.6 35.5,0.8 19.1,0.1 35.7,0.5 36.9,0.8 1.3,0.3 15.9,1.1 32.5,1.7 30.4,1 65.1,2.6 76.3,3.5 5.8,0.4 14.5,0.9 39,2 6.6,0.3 18.3,1 26,1.5 7.7,0.6 21.2,1.5 30,2 8.8,0.6 23.7,1.7 33,2.5 9.4,0.8 22.2,1.7 28.5,2 6.3,0.4 17.8,1.3 25.5,2.1 21,2.1 42.6,4.2 66,6.4 38.9,3.7 43,4.1 44.5,4.5 0.8,0.2 8.6,1.1 17.3,2 8.6,0.8 27.5,3.1 42,5 31.1,4.2 50.7,5.3 59.8,3.6 9,-1.8 25.1,-8.2 33.9,-13.6 9.5,-5.8 25,-21.5 30.8,-31.2 5.7,-9.4 9.8,-19.4 11.8,-28.4 1.4,-6.3 1.7,-17.2 2,-73.9 0.1,-36.6 0.3,-78.4 0.2,-93 -0.1,-32 -0.1,-16.9 0.1,-495 0.1,-212 -0.1,-388.4 -0.5,-392 -1.2,-11.4 -9.5,-30.5 -17.9,-41 -7.7,-9.5 -24.4,-22.6 -36,-28.1 -10.6,-5.1 -19.2,-7.2 -29.5,-7.3 -8.6,-0.1 -26.6,1 -30.4,1.9 -1.2,0.3 -12,1.6 -24.1,3 -12.1,1.4 -31.7,3.6 -43.5,4.9 -19.7,2.3 -72,7.5 -128,12.6 -24.5,2.3 -26.7,2.5 -47.5,4 -7.7,0.6 -16.5,1.3 -19.5,1.5 -3,0.2 -10.4,0.7 -16.5,1 -6,0.3 -17.3,1.2 -25,2 -7.7,0.8 -20.7,1.7 -29,2 -8.2,0.3 -24.2,1.2 -35.5,2 -11.3,0.8 -28.6,1.7 -38.5,2.1 -9.9,0.3 -25.4,1.2 -34.5,1.9 -9.1,0.6 -26.4,1.3 -38.5,1.4 -12.1,0.2 -23.6,0.4 -25.5,0.6 -16.9,1.5 -188,2.6 -221,1.4 -10.2,-0.4 -35.4,-1 -56,-1.3 -20.6,-0.4 -40.9,-0.9 -45,-1.1 -4.1,-0.3 -15.1,-0.9 -24.5,-1.5 -9.3,-0.5 -24.4,-1.2 -33.5,-1.5 -9.1,-0.3 -26.8,-1.2 -39.5,-2 -12.6,-0.8 -31.6,-1.9 -42.2,-2.5 -10.5,-0.6 -20,-1.2 -21,-1.4 -2.1,-0.4 -15.8,-1.3 -31.8,-2.1 -6,-0.3 -19.1,-1.2 -29,-2 -9.9,-0.8 -22.9,-1.7 -29,-2 -11.5,-0.6 -16,-1 -28.5,-2.5 -4.1,-0.5 -11.1,-1.2 -15.5,-1.5 -7.7,-0.5 -11,-0.8 -22,-2 -2.7,-0.3 -12.6,-1.2 -22,-2 -9.3,-0.8 -18,-1.7 -19.2,-2 -1.2,-0.3 -15.9,-1.9 -32.5,-3.6 -26,-2.6 -41,-4.3 -56.8,-6.4 -33,-4.5 -57.9,-6.2 -69.6,-4.6 -23.8,3 -44.5,16 -61.9,38.6 -6.4,8.3 -10.8,16.8 -13.9,27 -1.5,4.8 -1.8,6.8 -3.1,20 -0.8,7.7 -1.4,180.3 -0.6,181 0.9,1 0.7,680.5 -0.3,680.5 -0.5,0 -0.5,4.7 0,11.3 0.4,6.1 0.8,13.2 0.8,15.7 0,2.5 -0.1,35.8 -0.3,74 -0.1,38.2 0,70.9 0.3,72.5 0.3,1.7 0.9,4.6 1.2,6.5 1.2,7.6 7.8,23.4 12.8,30.5 6.1,8.7 14.5,18 24.1,26.3 9.9,8.6 31,17.8 44,19.1 11.2,1.2 29.3,0.2 55,-2.9 z" id="path2" style="display:inline;fill:#000000;fill-opacity:1;stroke:#000000;stroke-opacity:0.99646" />
    <g id="g21">
      <path d="m 342.3,1388.3 c -11,-1.4 -21.9,-9.1 -26.6,-18.8 -3.3,-7 -3.9,-14.5 -3.6,-48.6 0.4,-40.2 1,-43.4 9.6,-52.6 7.4,-7.7 9.8,-8.1 51.8,-8.3 27.9,-0.1 36.4,0.2 39.7,1.3 8.4,2.7 17.1,13.2 18.9,22.6 1,5.7 1.1,75.1 0.1,81.1 -1.1,6.2 -2.9,9.8 -7.3,14 -7.5,7.4 -16.5,9.7 -34.3,8.9 -6.7,-0.3 -12.1,-0.2 -12.1,0.3 0,1 -28.3,1.1 -36.2,0.1 z" id="path4" style="fill:#000000;fill-opacity:1;stroke:#000000;stroke-opacity:1" />
      <path d="m 1674.6,1388.3 c -15.1,-2.3 -24.5,-14.1 -25.8,-32 -0.9,-11.7 -0.9,-64.9 0,-70.3 1.3,-8.6 4,-14 9.7,-19.3 7.3,-7 5.3,-6.7 49.5,-6.7 37.1,0 40.2,0.1 43.4,1.9 5,2.7 10.9,8.5 13.9,13.5 2.4,4.1 2.7,5.8 3.2,17.9 0.3,7.4 0.5,26.2 0.4,41.7 -0.1,28.3 -0.1,28.3 -2.7,33.7 -4.3,8.7 -13.2,16.5 -21.6,18.8 -4.8,1.3 -19.1,1.9 -19.1,0.8 0,-0.4 -2.4,-0.5 -5.2,-0.3 -10.9,1 -40.5,1.1 -45.7,0.3 z" id="path5" style="fill:#000000;fill-opacity:1;stroke:#000000;stroke-opacity:1" />
      <path d="m 606.4,1313.1 c -0.2,-0.2 -3.5,-0.6 -7.4,-0.9 -14.3,-1.2 -42,-7.9 -45.3,-11 -2.3,-2.1 -2.3,-2.6 -2.1,-16.8 0.2,-8.1 0.6,-15.6 1,-16.7 1,-2.6 3.7,-1.9 13.6,3.2 15.6,8.1 31.5,12 56.3,14 3,0.3 10,0 15.4,-0.5 15.9,-1.4 25.8,-7.1 28.9,-16.4 4.3,-12.8 -6.6,-20.6 -37.3,-27.1 -18,-3.8 -43.6,-11.8 -53,-16.5 -21.4,-10.7 -30.9,-31.9 -24.5,-54.5 1.8,-6.1 5.9,-12.2 13.4,-19.2 10.2,-9.7 17.8,-13 37.6,-16.2 20.7,-3.3 34.8,-3.1 60,0.6 6.1,0.9 12.6,1.8 14.5,2.1 7.8,1.2 17.3,4.3 19.7,6.5 2.5,2.3 2.5,2.4 1.9,14.3 -0.6,13.4 -1.4,19.3 -2.8,20.1 -0.5,0.3 -5,-1.5 -10.2,-4 -17.3,-8.4 -38,-12.8 -60.1,-12.8 -11.7,0 -15,0.4 -19.9,2.1 -8.1,2.9 -10.2,4.4 -13.7,9.9 -3.6,5.7 -3.7,8.9 -0.1,13.4 5.7,7.5 15.3,12 32.2,15.3 26.2,5 47.1,11.3 59.2,17.7 8.1,4.3 16.5,12.9 20.1,20.8 4.3,9.1 5,22.5 1.7,33.1 -6.4,21.2 -23.6,34.4 -49.9,38.3 -7.6,1.2 -48.2,2.1 -49.2,1.2 z" id="path6" style="fill:#000000;fill-opacity:1;stroke:#000000;stroke-opacity:1" />
      <path d="m 1437.5,1312.4 c -25.2,-1.5 -40.7,-8 -57.8,-24.4 -10.5,-9.9 -17.6,-22.7 -21.7,-38.8 -2.1,-8.3 -2.3,-11 -2,-28.7 0.3,-18.7 1.1,-25.7 4,-34.5 5.6,-16.7 18.2,-31.7 34.7,-41.2 20.2,-11.7 65.4,-14.9 108.2,-7.7 12.1,2.1 16.2,3.8 17.5,7.6 1.4,4 1.4,12.3 0,18.9 -1.1,5.2 -1.1,5.2 -7.8,4.6 -3.6,-0.3 -9.5,-1.1 -13.1,-1.6 -12.2,-2 -21.5,-2.6 -41.5,-2.6 -23,0.1 -28.9,1.2 -38.9,7.2 -8.2,5 -12.9,10.3 -17.6,19.8 -7.3,14.7 -8.8,34.6 -4.1,52.9 2.7,10.2 5.2,15 10.9,21.2 12.8,13.6 25.7,17.5 57.4,17.1 15.5,-0.2 18,-0.4 19.5,-2 1.6,-1.6 1.9,-4.6 2.3,-28.2 0.4,-19.7 0.8,-26.7 1.8,-27.7 2,-2 31,-2.4 33.6,-0.5 1.9,1.4 2,2.9 2,39.3 0,20.9 -0.3,39 -0.7,40.4 -0.3,1.4 -1.5,3 -2.6,3.7 -5.8,3.6 -56.7,6.7 -84.1,5.2 z" id="path7" style="fill:#000000;fill-opacity:1;stroke:#000000;stroke-opacity:1" />
      <path d="m 1016.5,1309.8 c -1.3,-0.3 -3,-1.2 -3.8,-2.1 -1.4,-1.9 -18.9,-36.7 -26.9,-53.7 -18.5,-39.4 -28.9,-62.1 -32,-69.5 -2,-4.7 -6.9,-16.1 -11,-25.3 -4.1,-9.2 -7.3,-17.7 -7.1,-18.9 0.4,-3.2 4.5,-4 19,-4 14.6,0.1 17.2,1 20,7 1,2 6.2,13.8 11.7,26.2 5.5,12.4 12.2,27.2 14.9,33 2.7,5.8 7.7,17 11.2,25 12.9,30.1 17.2,39.5 18.5,40.8 2,2.1 4.7,-1.6 9.6,-12.7 2.3,-5.3 11.6,-26.2 20.7,-46.6 9,-20.3 19.3,-43.4 22.7,-51.1 3.4,-7.8 7.1,-15.8 8.3,-17.8 2.4,-4.1 2,-4 19.1,-3.7 11.3,0.1 17.9,1.4 18.7,3.6 0.3,0.8 -1.5,5.9 -4,11.4 -2.5,5.5 -4.6,10.3 -4.6,10.6 0,0.6 -2.4,5.8 -17.8,38.5 -1.9,4.1 -5.2,11.1 -7.2,15.5 -2.1,4.4 -5.6,11.8 -7.8,16.5 -2.2,4.7 -7.4,16 -11.5,25.1 -11.3,24.8 -23.2,48.1 -25.7,50.4 -2,1.8 -3.7,2 -17.4,2.2 -8.3,0.1 -16.2,-0.1 -17.6,-0.4 z" id="path8" style="fill:#000000;fill-opacity:1;stroke:#000000;stroke-opacity:1" />
      <path d="m 330.7,1191 c -6.4,-3 -12.8,-9.3 -15.6,-15.5 -2,-4.3 -2.1,-6 -2.1,-44.5 0,-45.9 0.2,-46.9 7.2,-54 5.6,-5.7 11,-8.5 18.7,-9.5 3.4,-0.5 21,-1 39.1,-1.1 32.8,-0.3 33,-0.3 37.5,2 8,4.2 13.9,12 16.1,21.1 0.9,4 1.3,15.9 1.3,44 0,38.5 0,38.5 -2.6,43.6 -1.5,2.8 -4.3,6.7 -6.4,8.8 -7.3,7.3 -5.5,7.1 -48.9,7.4 -39,0.3 -39,0.3 -44.3,-2.3 z" id="path9" style="fill:#000000;fill-opacity:1;stroke:#000000;stroke-opacity:1" />
      <path d="m 1669.2,1192.5 c -9,-2.7 -17.3,-13.6 -19.2,-25 -1.5,-8.5 -1.1,-70.5 0.4,-77.9 2,-9.7 9.6,-19.8 16.8,-22.1 3.7,-1.3 25.2,-2 25.9,-0.9 0.2,0.4 8.2,0.5 17.7,0.3 31.7,-1 37.2,-0.8 42,1.5 8.8,4.3 13.8,11.3 15.4,21.6 0.5,3.3 0.9,23.1 0.8,44 -0.1,34.3 -0.3,38.4 -1.9,41.7 -2.1,4.3 -8.4,11 -14,14.7 -4,2.6 -4,2.6 -42.5,2.8 -21.2,0.1 -39.9,-0.2 -41.4,-0.7 z" id="path10" style="fill:#000000;fill-opacity:1;stroke:#000000;stroke-opacity:1" />
      <path d="m 547.5,1036.5 c -13.8,-3.5 -26.3,-12.8 -31.6,-23.5 -6.2,-12.8 -0.9,-38.4 8.7,-41.8 3.2,-1.1 4,0.6 2.9,6.3 -3.1,16.5 1.4,26.1 15.4,32.6 6.4,3 10.3,3 18.9,0 9.5,-3.4 18.8,-9.7 25.5,-17.5 3.1,-3.6 6.3,-7.3 7.1,-8.1 3.6,-3.7 11.2,-16.6 14.5,-24.6 2,-4.8 7.3,-19.8 11.7,-33.3 11.6,-35.6 24.1,-72.8 37.3,-111.6 6.4,-18.7 20,-59 30.2,-89.5 10.3,-30.5 20.6,-60.9 23.1,-67.5 5.2,-13.9 19.7,-57.5 20.7,-62.2 1,-4.5 -0.8,-5.2 -16,-5.8 -31.6,-1.3 -32.4,-1.5 -32.4,-4.9 0,-3.9 5.7,-19.8 7.9,-21.9 2,-2 3.2,-2.2 13.9,-2.2 29.7,0 33.9,-0.3 36.7,-2.7 2,-1.8 4.6,-8.4 11.9,-29.8 10.8,-31.8 11.9,-34.7 18.7,-48.3 17.6,-35.1 48.3,-67.9 76.4,-81.7 20.7,-10 42.3,-15.9 65,-17.5 13.7,-0.9 39.8,6.5 47.2,13.5 7.8,7.2 7.5,22.6 -0.8,40.9 -3.5,7.6 -5.5,10.1 -8.2,10.1 -1.9,0 -1.9,-0.4 -1.2,-8.3 1.2,-13.3 1.2,-14 0.3,-17.3 -1,-3.9 -3.2,-6.3 -8.1,-9.3 -3.3,-2 -4.8,-2.3 -10.7,-1.9 -5.5,0.4 -8.6,1.4 -14.9,4.6 -9.4,4.7 -9.1,4.5 -19,14.2 -16.1,15.8 -25,33.8 -45.9,92.5 -7.8,21.8 -12.2,36.4 -11.6,38 0.4,0.9 2,1.5 3.8,1.6 1.7,0.1 4.5,0.3 6.1,0.6 1.7,0.3 13.3,0.6 25.8,0.7 18.9,0.1 23,0.4 23.7,1.6 1.3,1.9 0.4,8.9 -2.2,16.8 -3.2,9.9 -2.3,9.7 -34.8,9.7 -25.5,0 -27.7,0.1 -30.7,2 -4,2.4 -6.8,8 -11.7,24 -2,6.6 -7,21.7 -11.1,33.5 -17.1,49.6 -23.9,69.3 -28.1,82.5 -2.5,7.7 -7.4,21.9 -10.9,31.5 -3.5,9.6 -8.4,24.3 -11,32.5 -7.6,24.4 -30,91.2 -34,101.5 -12.9,33.2 -26.6,58.1 -42.4,76.9 -15.8,18.9 -40.8,39.4 -60.6,49.7 -8.5,4.5 -25.7,10.5 -37,12.9 -4.9,1.1 -34.7,1.5 -38.5,0.5 z" id="path11" style="fill:#000000;fill-opacity:1;stroke:#000000;stroke-opacity:1" />
      <path d="m 1100.6,1036.4 c -18.5,-3.6 -33.8,-13.7 -37.5,-24.6 -2,-5.9 -2,-16.3 0,-26.1 2.4,-11.5 5.1,-15.6 9.5,-14.5 1.7,0.5 1.9,1.6 1.9,10.3 0,14.7 3.5,22.3 12.9,27.8 4.1,2.4 5.6,2.7 13.6,2.7 8,0 9.6,-0.3 14.5,-2.9 6.2,-3.2 15.1,-10.2 18.3,-14.3 1.2,-1.6 2.8,-3.5 3.6,-4.3 3.4,-3.4 12.6,-18.8 17.1,-28.3 5,-10.5 9.4,-23.3 41.6,-119.2 28.7,-85.7 37.1,-110.5 39.4,-117 11.5,-31.5 44,-128.9 44,-131.6 0,-3.9 -2.6,-4.4 -24.7,-5 -17.1,-0.4 -21.6,-0.8 -22.4,-2 -2.1,-3.1 1.5,-19 5.6,-24.4 1.5,-1.8 3,-2 25.8,-2.3 18.1,-0.2 24.7,-0.7 26.3,-1.7 2,-1.3 7.7,-15.7 17.2,-43.5 9.4,-27.4 20.6,-50.3 32.6,-66.6 1.7,-2.3 4,-5.5 5.1,-7 4.7,-6.6 20.8,-22.2 30.5,-29.6 17.4,-13.1 43.8,-24.7 64.3,-28.4 14.3,-2.5 34,-2.9 43.5,-1 13.5,2.7 25.9,9.1 30.3,15.5 4.7,6.7 3.1,23.2 -3.9,40.9 -4.0451,10.33745 -12.4036,10.71951 -8.9,-2.2 2.3,-8.8 2.1,-13.3 -0.8,-19.2 -3.7,-7.5 -8.2,-9.7 -18.8,-9.2 -6.6,0.3 -9.4,0.9 -14.2,3.3 -17.5,8.5 -32.2,24.3 -42.8,45.8 -4.7,9.8 -7.1,15.9 -14.7,38.2 -3.2,9.4 -7.9,22.9 -10.4,30 -6,16.8 -10,31.5 -8.9,32.5 1.4,1.4 9.9,1.9 32.5,2 25,0.2 26.3,0.5 26,7.5 -0.2,5.5 -4.1,16.5 -6.8,19.2 -2.3,2.3 -2.4,2.3 -30.1,2.3 -29.6,0 -30.9,0.2 -34.5,5 -1,1.4 -4.9,11.5 -8.7,22.5 -3.8,11 -9.4,27.4 -12.6,36.5 -3.1,9.1 -7.4,21.7 -9.5,28 -2.1,6.3 -6.6,19.4 -10,29 -3.4,9.6 -7,20.2 -8,23.5 -1,3.3 -3.9,12.1 -6.5,19.5 -2.5,7.4 -6.6,19.6 -9,27 -4.7,14.7 -17.6,52.2 -25.7,74.5 -2.7,7.7 -6.8,19.1 -9,25.4 -14.8,42.7 -32.6,76.4 -50.9,96.6 -8.3,9.2 -24.6,25.4 -28.4,28.4 -8.8,6.9 -25.1,16.6 -34.4,20.5 -16.9,7.1 -31.9,10.7 -47,11.1 -6.9,0.1 -14.6,-0.1 -17,-0.6 z" id="path12" style="fill:#000000;fill-opacity:1;stroke:#000000;stroke-opacity:1" />
      <path d="m 340.4,998.4 c -7.4,-0.6 -11.5,-2.7 -18,-9.2 -8.9,-8.7 -9.8,-14.1 -9.5,-58.2 0.2,-39.6 0.5,-41.7 7.6,-49.7 2.2,-2.5 6.1,-5.6 8.7,-6.9 4.8,-2.3 5.1,-2.3 43.3,-2.3 38.1,0 38.5,0.1 43.3,2.3 6,2.9 12.1,9.8 14.5,16.5 1.8,4.8 1.9,7.9 1.6,46.5 -0.3,41.4 -0.3,41.4 -2.9,46.7 -3.2,6.5 -6.8,10.1 -12.5,12.7 -4.2,1.9 -6.6,2 -37,2.1 -17.9,0.1 -35.5,-0.1 -39.1,-0.5 z" id="path13" style="fill:#000000;fill-opacity:1;stroke:#000000;stroke-opacity:1" />
      <path d="m 1674.9,998.5 c -7.7,-0.7 -12.5,-3 -16.9,-8.2 -3.6,-4.3 -7.2,-11.6 -8,-16.3 -1.2,-7.1 -1.5,-66.5 -0.4,-74.9 1.6,-12.2 6.5,-20.1 15.4,-24.9 3.9,-2.2 4.9,-2.2 43.5,-2.1 38.7,0 39.6,0.1 43.7,2.2 4.2,2.2 10.7,8.4 13,12.5 3.2,5.6 3.6,10.6 3.7,45.2 0.1,19.3 -0.2,37.8 -0.6,41.2 -0.9,7.5 -3.3,12.4 -8.8,18 -7,7.1 -9.6,7.6 -45.9,7.7 -17.4,0.1 -34.8,-0.1 -38.7,-0.4 z" id="path14" style="fill:#000000;fill-opacity:1;stroke:#000000;stroke-opacity:1" />
      <path d="m 987,851.8 c -21.1,-1.7 -44.4,-9.3 -60.2,-19.5 -7.7,-5.1 -19.2,-16.1 -25.1,-24.1 -7.9,-10.7 -16.4,-31 -17.8,-42.8 -0.4,-3 -1,-6.3 -1.3,-7.4 -1.1,-3.3 -0.2,-23.4 1.4,-30.9 4.3,-20.6 11.1,-41.5 31.2,-95.6 2,-5.2 4.6,-12.6 5.8,-16.5 1.3,-3.8 5.7,-16.2 10,-27.5 4.3,-11.3 11.3,-31.3 15.7,-44.5 4.4,-13.2 12.2,-35.9 17.3,-50.5 8.7,-24.4 11.7,-32.2 20.5,-53 1.8,-4.1 5.3,-13.6 8,-21.1 5.7,-16.2 8.9,-23.2 12.9,-27.9 2.9,-3.5 2.9,-3.5 42.7,-3.7 22,-0.1 41.5,0.2 43.4,0.6 3.4,0.7 3.5,0.9 3.3,5 -0.1,2.3 -4.2,16.2 -9.1,30.9 -5,14.7 -10.2,30.5 -11.7,35.2 -1.5,4.7 -5.4,15.9 -8.7,25 -13.9,37.8 -22.5,62.5 -25.8,74 -1.1,4.1 -4.1,13.1 -6.6,20 -2.5,6.9 -9.4,26.9 -15.4,44.5 -6,17.6 -17.1,49.3 -24.8,70.5 -20,55.3 -22.5,63.4 -22.5,75.1 0,11.2 6.8,22 16.9,26.9 8.5,4.2 22.7,1.7 33.9,-5.8 5.8,-3.8 13.7,-10.3 15.8,-13 1,-1.2 2.4,-2.8 3.1,-3.5 2.7,-2.7 9.6,-13.7 13.6,-21.7 4.2,-8.3 9.7,-22.2 14.5,-36.5 2.2,-6.6 17.4,-50.6 23.5,-68 4.8,-13.8 7.3,-25.5 7.4,-34 0.1,-6.7 -0.3,-8.9 -2.6,-13.9 -5,-10.5 -13.1,-16.1 -25.4,-17.2 -8.7,-0.8 -14.1,0.6 -22.1,5.8 -9.6,6.2 -10.9,3.6 -3.9,-8.2 14.7,-25 40.7,-39.1 72.1,-39.2 6.6,0 13.1,0.3 14.4,0.6 10.3,2.4 23.7,8.7 32.1,14.9 18.2,13.4 27.8,29.8 32.5,55.2 0.6,3.5 0.7,22.8 0.1,26.5 -0.3,1.4 -0.7,4.8 -1.1,7.5 -0.7,5.8 -3.6,19.3 -6.1,28 -0.9,3.3 -2.2,8.3 -3,11 -3.8,13.5 -13.8,37.9 -21.7,52.5 -4.8,8.9 -15.9,27 -19.6,32 -9.3,12.5 -30.7,35.3 -37.7,40 -1.2,0.8 -4.8,3.5 -8,6 -10,7.6 -26,17.7 -36.1,22.8 -9.1,4.7 -29.7,11.2 -39.8,12.7 -2.2,0.3 -6.5,1 -9.5,1.5 -6.4,1 -20.7,1.7 -26.5,1.3 z" id="path15" style="fill:#000000;fill-opacity:1;stroke:#000000;stroke-opacity:1" />
      <path d="m 342.3,805.4 c -7.2,-0.5 -9.5,-1.1 -12.8,-3.3 -6.5,-4.3 -11.7,-10.3 -14.2,-16.4 -2.3,-5.6 -2.3,-6.3 -2.3,-44.7 0,-38.1 0.1,-39.1 2.2,-44.5 2.9,-6.9 7.9,-12.5 14.1,-15.3 4.6,-2.1 5.6,-2.2 44.4,-2.2 39.7,0 39.7,0 45.5,4.1 7,5 10.9,10.9 12.4,18.9 1.6,8.6 1.7,77.6 0,83.2 -1.7,6.1 -10.3,16 -16,18.6 -4.3,1.9 -6.5,2.1 -34.6,2.1 -16.5,0.1 -33.9,-0.2 -38.7,-0.5 z" id="path16" style="fill:#000000;fill-opacity:1;stroke:#000000;stroke-opacity:1" />
      <path d="m 1680,418.4 c -14.4,-0.8 -18.9,-2.8 -24.8,-11.5 -5.3,-7.9 -5.6,-10.2 -6.1,-49.4 -0.4,-34 0.4,-45.2 3.4,-51.6 2.7,-5.4 11,-13 15.8,-14.5 2.5,-0.7 15.9,-1 41.7,-0.7 37.3,0.3 38.1,0.3 42.4,2.6 5.8,3 10.8,8.5 14,15.2 2.6,5.5 2.6,5.5 2.5,47.5 -0.1,41.1 -0.1,42.1 -2.2,46.2 -3.2,6.3 -7.7,10.9 -13,13.5 -4.4,2.1 -8.1447,2.73963 -21.2447,2.43963 0,0 -14.3,0.1 -14.3,0.5 0,1 -21.8553,0.66037 -38.1553,-0.23963 z" id="path22" style="fill:#000000;fill-opacity:1;stroke:#000000;stroke-opacity:1" />
      <path d="m 1667.8,804.3 c -4.5,-1.2 -13,-10 -16.1,-16.6 -2.7,-5.7 -2.7,-5.7 -2.7,-41.2 0,-49.7 0.2,-50.8 11.3,-62.4 5.1,-5.4 5.8,-5.5 46.6,-5.6 39.2,-0.1 43,0.3 49,4.2 4.8,3.2 10.4,10.4 11.8,15.1 0.8,3 1.2,15.8 1.1,45.2 0,34.2 -0.3,41.6 -1.5,44.5 -2.2,5 -9.3,12.7 -14.2,15.3 -4,2.2 -4.9,2.2 -43.1,2.3 -21.4,0 -40.4,-0.3 -42.2,-0.8 z" id="path17" style="fill:#000000;fill-opacity:1;stroke:#000000;stroke-opacity:1" />
      <path d="m 342,611.4 c -12.8,-1.2 -22.3,-7.9 -26.7,-18.9 -2.2,-5.3 -2.3,-6.6 -2.3,-43.5 0,-42 0.2,-44 6.1,-52.2 4.5,-6.3 10,-9.8 17.6,-11.2 9,-1.7 71.7,-0.9 77.8,1 5.4,1.6 12.7,8.8 16.2,15.7 2.3,4.7 2.3,4.8 2.2,46.2 -0.1,47.7 0.1,46.5 -9.4,55.8 -4.3,4.1 -6.4,5.3 -10.4,6.1 -5.9,1.2 -60.8,1.9 -71.1,1 z" id="path18" style="fill:#000000;fill-opacity:1;stroke:#000000;stroke-opacity:1" />
      <path d="m 1674,611.4 c -9.9,-1.1 -13.5,-3.3 -19.1,-12.2 -4.7,-7.3 -5.1,-11.4 -5,-53.7 0.1,-38.8 0.1,-39.6 2.3,-44 3,-6.1 10.4,-13.5 15,-15.2 2.9,-1 12.8,-1.3 42.3,-1.3 38.3,0 38.5,0 43.2,2.3 5.6,2.8 11.2,8.8 14.1,15.2 2,4.3 2.1,6.1 2.1,46.5 0,23.1 -0.3,43.2 -0.7,44.8 -1,3.6 -11.6,14.2 -16.4,16.3 -3.2,1.4 -8.7,1.6 -37.8,1.8 -18.7,0 -36.7,-0.2 -40,-0.5 z" id="path19" style="fill:#000000;fill-opacity:1;stroke:#000000;stroke-opacity:1" />
      <path d="m 338.5,418.1 c -14.6,-2.5 -24,-13.3 -25,-28.6 -0.6,-9.4 -0.4,-62.2 0.3,-68.6 1.4,-13.8 8.6,-24.5 18.9,-28 4.8,-1.7 8.9,-1.9 41.8,-1.9 36,0 36.6,0 41.1,2.3 8.7,4.2 15.1,12.4 16.5,20.9 0.4,2.1 0.7,21.8 0.7,43.8 0,40 0,40 -2.6,45.1 -4.5,8.9 -12,14.1 -21.4,14.9 -12.6,1.1 -64,1.1 -70.3,0.1 z" id="path21" style="fill:#000000;fill-opacity:1;stroke:#000000;stroke-opacity:1" />
    </g>
    <path d="m 1703.5,1440.5 c -5.8,-0.5 -20.6,-2.2 -33,-3.9 -24.4,-3.4 -45.5,-5.7 -85,-9.6 -59.8,-5.9 -76.6,-7.6 -79,-8 -1.4,-0.3 -16.2,-1.4 -33,-2.5 -16.8,-1.1 -31.8,-2.2 -33.5,-2.5 -3.3,-0.5 -73.3,-5 -92,-5.9 -6.6,-0.4 -24.1,-1.3 -39,-2.1 -42.5,-2.4 -97.8,-4.6 -137,-5.5 -78.6,-1.8 -247.5,-0.7 -301.5,2 -11.3,0.5 -35.4,1.4 -53.7,2 -18.2,0.6 -38.9,1.5 -46,2 -7,0.6 -23.1,1.5 -35.8,2 -12.6,0.6 -28.4,1.5 -35,2 -6.6,0.6 -20.3,1.4 -30.5,2 -32.3,1.7 -72.1,5.1 -113,9.5 -14.4,1.6 -37.2,3.8 -56,5.5 -27.2,2.4 -69,6.9 -99,10.5 -28.7,3.6 -48.1,3.2 -61,-1 -16.3,-5.2 -26.7,-11.8 -40.3,-25.3 -14.8,-14.5 -24.2,-31 -27.9,-48.7 -1.4,-6.8 -1.3,-1039.9 0.1,-1050.5 2.6,-19 10.2,-33 27.1,-50 13.1,-13 20.7,-17.9 35.9,-23 17.1,-5.7 32.6,-5.6 85.1,1 17.3,2.1 41,4.8 52.5,6 11.6,1.1 28.9,2.9 38.5,4 17,1.9 40.8,4.3 56,5.5 4.1,0.3 16.5,1.5 27.5,2.5 20.1,1.9 52,4.3 82.5,6 9.1,0.6 25.5,1.7 36.5,2.5 21.1,1.6 43.3,2.8 78,4.5 11.6,0.6 29.1,1.5 39,2 61.6,3.5 167.5,5.4 251.2,4.7 110.8,-1 143.3,-2.1 242.3,-7.7 18.4,-1.1 39.1,-2.2 46,-2.6 6.9,-0.3 16.1,-1 20.5,-1.5 4.4,-0.5 15.4,-1.4 24.5,-1.9 27,-1.7 68.6,-4.9 83,-6.4 7.4,-0.8 17.6,-1.8 22.5,-2.1 13.6,-1 103.1,-10.1 127,-12.9 70.6,-8.5 79.5,-9.1 93,-5.5 4.4,1.1 11.1,3.5 15,5.3 13.1,6.1 31.3,21.6 39.1,33.3 4.9,7.3 11,20.6 13.1,28.3 1.7,6.2 1.8,31.7 1.7,525 -0.1,391.6 -0.4,521.2 -1.3,529.5 -2,18.4 -10.6,36.3 -24.5,51.2 -9.3,10 -17.4,15.9 -28.8,21.3 -18.6,8.7 -30.2,10.7 -51.8,9 z m -1322,-2 c 6.9,-0.5 23.5,-2.3 37,-3.9 22.8,-2.8 60.2,-6.7 87,-9.1 16,-1.4 35.7,-3.4 69.5,-6.9 32.1,-3.4 57.8,-5.4 94,-7.6 13.2,-0.8 29.9,-1.9 37,-2.4 7.2,-0.6 20,-1.3 28.5,-1.6 8.5,-0.3 25.4,-1.2 37.5,-2 12.1,-0.8 38,-1.9 57.5,-2.5 19.5,-0.6 37.8,-1.2 40.5,-1.5 11.1,-1.1 80.3,-2.6 131.5,-2.9 72.6,-0.3 197.2,0.9 219,2.3 9.6,0.6 30.1,1.5 45.5,2.1 15.4,0.6 39.5,1.7 53.5,2.5 14,0.8 34.1,1.9 44.5,2.5 29.9,1.6 50.1,2.9 76,5 13.2,1 31.7,2.4 41,3 9.4,0.5 18.6,1.2 20.5,1.5 5.4,0.8 59.9,6.2 85.5,8.5 12.7,1.1 23.7,2.3 24.5,2.5 0.8,0.2 10.5,1.4 21.5,2.5 11,1.2 29.7,3.5 41.5,5.2 17,2.4 25.3,3.1 39.5,3.2 17.3,0.1 18.3,0 26,-2.7 19.9,-6.9 33.3,-15.8 45.5,-29.8 13.8,-16.1 20.7,-32.5 22.1,-52.8 0.4,-6.9 0.9,-172.6 1,-368.1 0.2,-542.4 0,-671.2 -1,-676.6 -5.7,-30.1 -33.3,-59.6 -65.1,-69.6 -6.4,-2 -9.4,-2.3 -21,-2.2 -7.4,0.1 -20.9,1.1 -30,2.2 -28.3,3.6 -76.4,9.1 -103,11.7 -14,1.4 -31.8,3.2 -39.5,4 -7.7,0.8 -20.5,2 -28.5,2.5 -8,0.6 -17.9,1.5 -22,2 -8.5,1.1 -50.9,4.4 -76.5,6 -9.3,0.6 -23.7,1.7 -32,2.5 -8.2,0.7 -21.3,1.6 -29,2 -7.7,0.3 -23.9,1.2 -36,2 -12.1,0.8 -28.3,1.6 -36,2 -7.7,0.3 -25.2,1.2 -39,2 -77.4,4.5 -304.8,4.7 -388,0.5 -10.4,-0.6 -29.1,-1.5 -41.5,-2 -12.4,-0.6 -34,-1.7 -48,-2.5 -14,-0.8 -30.9,-1.7 -37.5,-2 -6.6,-0.3 -16.5,-1 -22,-1.5 -5.5,-0.5 -17.9,-1.4 -27.5,-2 -16,-0.9 -40.2,-2.6 -73,-5 -6.9,-0.5 -19.5,-1.6 -28,-2.4 -8.5,-0.9 -25.8,-2.5 -38.5,-3.6 -12.6,-1.2 -28.2,-2.7 -34.5,-3.5 -6.3,-0.8 -21.2,-2.4 -33,-3.5 -11.8,-1.2 -35.9,-3.9 -53.5,-6 -44.4,-5.4 -55.4,-6.3 -67.5,-5.7 -24.4,1.3 -46.5,13.1 -64.3,34.5 -11.8,14.1 -18,28.3 -19.8,45.1 -0.5,5 -0.9,202.1 -0.9,478.6 0,258.5 -0.1,490.3 -0.2,515 -0.1,50.9 0.2,53.9 7.1,69.6 5.2,11.8 13.6,23.2 24.7,33.8 17.8,16.8 37.8,25.3 60.9,25.9 2.2,0.1 9.6,-0.3 16.5,-0.8 z" id="path51" style="fill:none;fill-opacity:1;stroke:#ffffff;stroke-opacity:0.99646" />
    <g id="g1">
      <g id="g20" style="fill:none;fill-opacity:1">
        <path d="m 335.5,1387.9 c -9.1,-3.3 -17.4,-10.8 -21.4,-19.3 -2,-4.4 -2.1,-6.5 -2.4,-41.1 -0.2,-23.9 0.1,-38.8 0.8,-43 1.3,-7.7 4.4,-13.3 9.9,-18.3 7,-6.4 9.7,-6.7 52,-6.7 35.5,0 37.7,0.1 41.6,2 5.9,2.8 11.3,8.5 14.4,15 2.6,5.5 2.6,5.5 2.6,49 0,43.5 0,43.5 -2.7,48.2 -3.3,5.6 -9.1,10.3 -16.1,13.1 -4.9,2 -7.2,2.2 -39.7,2.4 -29.6,0.2 -35.1,0 -39,-1.3 z m 76,-1.9 c 5.5,-1.6 7.5,-2.8 12.6,-7.9 5.3,-5.2 6.4,-6.9 7.3,-11.4 1.4,-6.7 1.5,-71 0.1,-80.5 -0.6,-3.8 -1.7,-8.2 -2.6,-9.8 -2.4,-4.7 -8.4,-10.8 -12.8,-13.2 -4,-2.1 -5.4,-2.2 -39.1,-2.5 -36.4,-0.4 -42.2,0.1 -49.7,3.9 -4.8,2.4 -9.4,8.1 -11.9,14.9 -2,5.2 -2.1,7.6 -2.3,44 -0.1,37.6 -0.1,38.6 2.1,43.2 3.2,6.9 6.7,11.1 12.8,15.4 9,6.1 11.2,6.4 46,6 26.4,-0.2 32,-0.6 37.5,-2.1 z" id="path53" style="fill:none;fill-opacity:1;stroke:#000000;stroke-opacity:1" />
        <path d="m 1670.5,1388.6 c -11.8,-3.7 -20.1,-14 -22.1,-27.3 -0.5,-3.5 -0.9,-21.6 -0.9,-40.3 0,-36.8 0.5,-41.6 5.4,-49.3 2.7,-4.3 7.2,-8.4 12,-10.9 2.7,-1.5 7.8,-1.7 43.1,-1.7 46.1,0 43.9,-0.4 53.3,9.9 8.1,8.9 8.2,9.3 8.2,55.5 0,39.6 0,39.6 -2.7,45.1 -3.4,6.7 -10.2,13.6 -16.8,16.9 -5,2.5 -5,2.5 -41,2.7 -19.8,0.1 -37.1,-0.2 -38.5,-0.6 z m 78.3,-3.4 c 6.5,-3.2 12.5,-9.1 16.3,-16 2.9,-5.2 2.9,-5.2 2.9,-45.7 0,-40.5 0,-40.5 -2.8,-46.2 -3.3,-6.8 -10.9,-13.9 -16.5,-15.6 -2.7,-0.8 -15.3,-1.2 -41.4,-1.2 -37.4,0 -37.4,0 -42.6,2.6 -6,3 -10.5,8.3 -13.5,15.7 -1.9,4.7 -2.1,7.7 -2.5,31.7 -0.4,33.2 0.7,52.8 3.5,59.1 4,9 12.4,16.3 20.5,17.8 2.4,0.4 19.2,0.7 37.5,0.6 33.1,-0.2 33.1,-0.2 38.6,-2.8 z" id="path54" style="fill:none;fill-opacity:1;stroke:#000000;stroke-opacity:1" />
        <path d="m 601.5,1313.5 c -16.6,-1.6 -45.9,-8.5 -48.9,-11.4 -1.4,-1.4 -1.6,-4.2 -1.5,-18.1 0,-11.4 0.4,-16.8 1.3,-17.9 1.6,-1.9 4.3,-1.1 14.7,4.2 20.1,10.2 47.7,15.4 70.1,13.3 16.5,-1.5 25.7,-6.7 28.9,-16.3 1.5,-4.6 1.5,-5 -0.3,-8.5 -3.9,-7.5 -14.6,-12.3 -39.4,-17.8 -16.9,-3.7 -43.3,-12.1 -51.2,-16.2 -3.8,-2 -9.5,-6.2 -12.7,-9.4 -10.1,-9.9 -13.6,-19.7 -12.8,-35.5 0.6,-11.6 3.2,-17.4 12.2,-27.1 11,-11.8 20.1,-16 42.1,-19.4 22.6,-3.5 45.8,-2.4 76.3,3.7 20.1,4 20.8,4.7 19.8,21.6 -0.9,14.8 -1.7,19.9 -3.2,20.5 -0.8,0.3 -5.6,-1.6 -10.8,-4.1 -17.3,-8.4 -37.5,-12.8 -59.6,-13 -19,-0.1 -28.5,3.2 -33.5,11.8 -3.8,6.6 -3.4,9.1 2.8,15.1 6.4,6.2 14.4,9.5 30.9,12.5 36.5,6.9 60.7,16.3 71,27.8 14.7,16.4 14.3,44.2 -0.9,62.9 -4.4,5.5 -14.6,12.7 -22,15.8 -10.5,4.2 -20.3,5.6 -42.8,6 -11.5,0.2 -25.3,0 -30.5,-0.5 z m 63.3,-3.8 c 10.7,-2.9 18.9,-7.5 26.8,-14.9 7.9,-7.4 12.1,-14.9 14.4,-25.5 3.2,-14.8 -1.3,-30.8 -11.4,-40.7 -9.2,-8.9 -29.4,-17.4 -54.1,-22.6 -28.8,-6.1 -31.5,-6.8 -38.3,-10.4 -12.9,-6.7 -16.3,-14.5 -10.1,-23.3 5.7,-8.1 16.2,-11.8 33.9,-11.8 20.7,0 43.2,4.8 59.8,12.7 6.6,3.2 10.1,4.3 10.8,3.6 1.1,-1.1 2.5,-26.8 1.6,-30.4 -0.9,-3.5 -5.5,-5.4 -20.4,-8.3 -30.2,-5.9 -51.1,-6.7 -74.8,-3.1 -14.1,2.2 -22,4.9 -30,10.4 -12.8,8.7 -20.9,21.1 -22.1,33.6 -1.6,17.6 6.7,33.3 22.6,42.9 9.2,5.6 33.9,13.5 59.5,19.2 20.1,4.4 29.3,8.7 33.6,15.8 5.3,8.7 -1.4,20.4 -14.8,25.7 -5.3,2.2 -7.3,2.4 -23.8,2.3 -25.8,0 -43.7,-4 -63.8,-14.1 -4.8,-2.5 -9.4,-4.2 -10.2,-3.9 -2.1,0.7 -2.2,32.8 -0.2,34.4 2.4,2 31.5,8.9 43.2,10.2 3.9,0.5 18.9,0.7 33.5,0.6 23.5,-0.3 27.4,-0.5 34.3,-2.4 z" id="path55" style="fill:none;fill-opacity:1;stroke:#000000;stroke-opacity:1" />
        <path d="m 1427.1,1312.4 c -28.9,-4.4 -51.8,-20.8 -63.6,-45.3 -7.2,-14.9 -8.4,-21.4 -8.5,-43.6 0,-11.8 0.5,-22.2 1.3,-26.2 3.2,-17 9.4,-28.8 21.6,-40.8 17.2,-17 34.1,-22.5 72.7,-23.7 20.2,-0.6 37.5,0.6 54.2,3.8 16.6,3.1 18.3,5.1 17.1,20.9 -0.9,12.1 -1.1,12.4 -9.3,11.7 -3.6,-0.3 -11.1,-1.4 -16.6,-2.3 -7.7,-1.4 -15.9,-1.8 -35,-1.8 -23.6,-0.1 -25.3,0 -31.4,2.2 -21.3,7.7 -32.1,24 -33.8,51.1 -0.6,10.7 0.5,19.8 3.9,30.1 2.8,8.5 5.4,12.5 12.3,18.8 11.3,10.4 20.1,13.1 45.1,13.9 18.6,0.6 25.5,0 27.9,-2.3 1.2,-1.3 1.5,-5.4 1.5,-24.7 0,-29.5 0.2,-30.4 4.9,-31.7 5,-1.4 28.4,-1.3 31.6,0.2 2.5,1.1 2.5,1.1 2.5,41 0,23.7 -0.4,40.7 -1,41.7 -2.7,5.1 -19.2,7.2 -59.5,7.6 -17.6,0.2 -34.7,0 -37.9,-0.6 z m 76.9,-2.5 c 16.9,-2.1 19,-3 19.8,-8 0.4,-2.2 0.7,-20.2 0.7,-40 0,-31 -0.2,-36.3 -1.5,-37.4 -2,-1.7 -29.2,-1.7 -32.3,-0.1 -2.2,1.1 -2.2,1.6 -2.3,23.9 -0.1,28.5 -0.4,31.2 -4.4,33.2 -4.3,2.1 -36.9,1.9 -48,-0.4 -21.8,-4.4 -35.4,-18 -39.9,-39.9 -2,-9.5 -2.1,-26.1 -0.1,-36.1 4,-21 19.2,-37 38.5,-40.6 15.5,-3 42.6,-2.1 69.4,2.1 16.3,2.6 16,2.8 16.4,-11 0.2,-6 -0.1,-10.7 -0.7,-12 -0.7,-1.2 -3.2,-2.7 -6.4,-3.6 -13.5,-4 -45.9,-7.1 -64.2,-6.1 -35.5,2 -52,7.3 -67.4,21.3 -13.2,12.1 -20.4,24.8 -23.7,41.8 -2.2,12.1 -2.3,40.1 0,49.9 6,25.7 21.6,45.4 45.2,57 7.6,3.7 17.8,6.4 29.4,7.6 12,1.4 56.8,0.4 71.5,-1.6 z" id="path56" style="fill:none;fill-opacity:1;stroke:#000000;stroke-opacity:1" />
        <path d="m 1017,1310.7 c -3.2,-0.6 -4.4,-1.5 -6.5,-4.7 -3,-4.7 -35,-70.5 -35,-72 0,-0.2 -2.7,-6.2 -6.1,-13.2 -8.6,-18.1 -16.9,-36.2 -18.4,-40.3 -0.7,-1.9 -4.7,-11.2 -8.9,-20.6 -4.2,-9.5 -7.6,-18.3 -7.6,-19.8 0,-3.6 4.5,-4.6 20.5,-4.6 15.2,0 17.1,0.7 20.3,7 2.3,4.6 17.4,38.4 35.4,79 17.5,39.7 19.2,43.5 20.4,45.3 1,1.6 1.2,1.6 2.8,-0.2 0.9,-1 8.8,-18 17.5,-37.7 8.7,-19.8 19.1,-43.1 23.1,-51.9 4,-8.8 9.3,-20.7 11.7,-26.5 6.5,-15.4 5.9,-15 22.2,-15 19.3,0 24.8,2 22.4,7.8 -4.4,10.5 -14.9,33.8 -25.8,56.7 -7,14.9 -17.6,37.7 -23.6,50.8 -15.6,34 -27.6,57.5 -30.2,58.9 -2.5,1.3 -27.8,2 -34.2,1 z m 32.6,-2.3 c 2,-0.8 4.5,-4.9 11.7,-19.3 5,-10.1 12.8,-26.4 17.3,-36.3 4.4,-9.8 10.4,-22.5 13.1,-28.3 2.8,-5.8 6.4,-13.4 8,-16.8 1.6,-3.5 5.8,-12.5 9.4,-20 7.9,-16.6 20.4,-45.4 20.4,-47 0,-2.4 -5.7,-3.5 -19.7,-3.6 -11.6,-0.1 -14.5,0.2 -15.8,1.4 -0.8,0.9 -4.4,8.1 -7.9,16 -3.5,8 -14.7,33.4 -25,56.5 -27.3,61.5 -27.2,61.3 -30.1,58.4 -0.8,-0.8 -7.7,-15.6 -15.4,-32.9 -19.3,-43.8 -38.5,-86.5 -41.7,-92.7 -3.2,-6.4 -5.4,-7.3 -18.5,-7.3 -11.1,0 -19.9,1.5 -19.9,3.4 0,0.7 1.9,5.3 4.1,10.2 2.3,4.9 7.4,16.8 11.4,26.4 4,9.6 11.5,26.3 16.5,37 5.1,10.7 12.3,26.3 16.2,34.5 13.8,29.5 28.7,59.3 30,60.1 3.4,2.3 30.3,2.5 35.9,0.3 z" id="path57" style="fill:none;fill-opacity:1;stroke:#000000;stroke-opacity:1" />
        <path d="m 333.9,1193.5 c -8.5,-2.6 -18.2,-12.1 -20.6,-20.3 -1.8,-6 -1.7,-79 0.1,-86.5 2.5,-10 12.6,-18.2 24.8,-20.2 3.2,-0.6 20.9,-1 39.3,-1 33.1,0 33.6,0 38.5,2.4 7.9,3.7 14,11.5 16.1,20.5 1,4.1 1.4,15.7 1.4,44.6 0,36.7 -0.2,39.3 -2,43.4 -2.9,6.4 -7.6,11.8 -12.8,14.9 -4.7,2.7 -4.7,2.7 -43.2,2.9 -22.2,0.1 -39.8,-0.2 -41.6,-0.7 z m 85.3,-4.4 c 5.2,-3.5 11.3,-12.4 12.4,-18 1.1,-5.8 1,-68.6 -0.1,-77.3 -1.4,-11 -5.7,-17.9 -14.5,-23.6 -5,-3.2 -5,-3.2 -41.5,-2.9 -27.8,0.2 -37.7,0.6 -41.5,1.7 -9.5,2.7 -17.4,10.6 -19.4,19.5 -1.5,6.3 -1.4,76.4 0,83.1 1.3,6 7.2,13.2 14.9,18.1 4.5,2.9 4.5,2.9 45,2.6 40.5,-0.3 40.5,-0.3 44.7,-3.2 z" id="path58" style="fill:none;fill-opacity:1;stroke:#000000;stroke-opacity:1" />
        <path d="m 1670.5,1193.6 c -4.8,-1 -12,-6.1 -15.3,-10.8 -6.4,-9.2 -6.2,-7.9 -6.2,-52.3 0,-29.8 0.3,-41.6 1.3,-44.7 1.7,-5.8 7.1,-13.3 12.1,-16.8 4.3,-3 4.3,-3 42.9,-3.3 21.3,-0.2 40.6,0 42.8,0.3 5.3,0.8 12.4,5.4 15.8,10.4 5.3,7.6 5.5,9.8 5.7,54.4 0.1,37.3 0,41.7 -1.6,45 -2.5,5.3 -9,12.3 -14.3,15.5 -4.7,2.7 -4.7,2.7 -42.2,2.9 -20.6,0.1 -39.1,-0.2 -41,-0.6 z m 84.6,-5.3 c 2.9,-2.1 6.9,-6.3 9,-9.4 3.9,-5.6 3.9,-5.6 3.9,-47.8 0,-38.9 -0.1,-42.5 -1.9,-47 -2.3,-6 -7.6,-12 -13,-14.9 -4,-2.2 -4.9,-2.2 -44.1,-2.2 -44.6,0 -42.5,-0.3 -49.7,7.2 -9,9.4 -10.1,16 -9.6,61.3 0.4,38.2 0.6,39.3 8.5,48 8.4,9.4 6.1,9 51.8,8.7 40.1,-0.2 40.1,-0.2 45.1,-3.9 z" id="path59" style="fill:none;fill-opacity:1;stroke:#000000;stroke-opacity:1" />
        <path d="m 547.8,1037.4 c -9.3,-1.8 -23.3,-10.3 -28.7,-17.3 -5.7,-7.5 -7.19777,-15.0265 -6.4,-23 0.9,-16.6 6.9,-28.5 13.6,-26.7 1.61773,0.25887 2.7,1.1 2.2,4.7 -0.3,2.1 -0.5,7.5 -0.5,12 0,1.98283 -0.49129,6.23918 2.8,12.3 2.76088,5.1652 10,9.5 16,11.3 10.81731,2.3131 20.1,-2.1 30.9,-10.3 6.6,-4.9 19.4,-20.2 24.7,-29.4 4.9,-8.5 12,-27 20.2,-52.7 13,-41 17.2,-53.8 22.6,-68.8 3,-8.5 17.6,-51.3 32.3,-95 14.8,-43.7 28.5,-84.2 30.5,-90 17.1,-48 24.2,-70.7 22.7,-72.2 -0.5,-0.5 -10.3,-1.3 -21.8,-1.8 -22,-0.9 -26.4,-1.7 -26.4,-4.9 0,-3.7 6.1,-21.6 8.1,-23.6 1.8,-1.9 3.5,-2 25.9,-2.3 23.9,-0.3 24,-0.3 25.8,-2.7 1.1,-1.3 4.7,-10.8 8.2,-21.2 13.5,-40.4 19.3,-54.3 30,-71.8 15.2,-24.9 42.8,-52.8 63.1,-63.9 19.3,-10.5 46.1,-18.3 66.6,-19.3 14.5,-0.7 24.2,0.6 36,4.9 14.3,5.2 19.9,10.3 21.7,19.9 1.3,7.2 -4.4,28 -10.1,37.2 -1.8,2.9 -2.90046,3.74681 -5.3,3.7 -1.87635,-0.0366 -2.91075,-1.91167 -3,-3.2 -0.29297,-4.2291 0.5,-7 1.1,-11.8 1.4,-10.6 0.1,-14.4 -6.3,-19 -1.92248,-1.308 -6.67043,-3.13575 -11.3,-2.8 -18.1,1 -39.7,19.2 -52.9,44.8 -7,13.5 -11.9,25.1 -20.9,50.1 -12.8,35.4 -18,52 -16.7,53.3 0.7,0.7 10.7,1.3 29.3,1.7 15.5,0.3 28.3,0.7 28.4,0.8 2.8,1.9 2.1,11.3 -1.6,21.2 -1.5,4 -2.9,6 -4.9,6.9 -2,1 -10.2,1.5 -30.7,1.8 -22,0.3 -28.5,0.7 -30.2,1.8 -3.5,2.2 -6.7,9.4 -12.4,28 -2.8,9.3 -7.9,24.3 -11.1,33.4 -3.3,9.1 -8.6,24.4 -11.8,34 -3.3,9.6 -10.7,31.5 -16.5,48.5 -14.7,43 -17.3,50.6 -34.9,104.2 -8.5,26 -18.3,54.3 -21.8,63 -12.2,30.7 -27.4,56.7 -44.3,75.7 -16.3,18.3 -42,38.3 -60,46.7 -10.4,4.8 -29,10.5 -38.8,11.8 -9.1,1.3 -17.77149,3.9799 -33.4,0 z m 36.3,-1.9 c 8.7,-1.4 27.6,-7.6 36.5,-12 10.4,-5.1 24.1,-14.4 35.7,-24.2 16.8,-14.1 28.5,-27.1 39.8,-44.3 17.2,-26.2 27.2,-50.1 49.3,-117.5 8.4,-25.6 17.7,-53.7 20.8,-62.5 3,-8.8 9.7,-28.6 14.9,-44 5.3,-15.4 13.1,-38.3 17.4,-51 4.3,-12.6 10,-29.5 12.8,-37.5 2.8,-8 6.9,-20.2 9.1,-27.1 5.2,-16.6 7.8,-22.5 10.8,-24.4 2.1,-1.4 6.5,-1.7 28.6,-2 28.6,-0.4 32.8,-0.8 35,-3.3 2.1,-2.3 5.7,-14.6 5.7,-19.2 0,-2.7 -0.5,-4 -1.7,-4.5 -1,-0.4 -13.5,-0.9 -27.8,-1.1 -14.3,-0.2 -27,-0.6 -28.2,-0.9 -3.1,-0.7 -3,-2.7 1.3,-16.4 3.2,-10.5 5.5,-17.1 15.6,-45.1 13.2,-36.8 24.2,-57.5 38.1,-71.8 21.92714,-22.31183 46.70264,-22.78056 53.3,-9.9 1.7,3.1 1.7,5.4 0.1,25.7 -0.1,1.6 0.4,2.6 1.5,2.8 3.2,0.6 10.1,-14.7 12.8,-28.5 2.7,-13.7 -0.5,-20.3 -13,-26.6 -12.1,-6 -21.2,-8 -37,-8 -11.2,0 -15.5,0.4 -25.4,2.7 -24.2,5.6 -46.7,15.5 -60.6,26.6 -10.5,8.4 -24.9,22.9 -33.5,33.5 -19.5,24.3 -30.2,46.8 -46.1,97.5 -1.4,4.7 -3.7,10.6 -5,13.2 -2.3,4.6 -2.3,4.6 -9.9,5.3 -4.2,0.4 -11.6,0.4 -16.5,0.1 -11.9,-1 -24.8,0.2 -27,2.4 -2,2 -7.2,18.3 -6.8,21.3 0.4,2.9 2.7,3.3 24,4.1 22.7,0.9 24.4,1.3 24.1,5.2 -0.3,3.5 -11.5,38.3 -19.1,58.9 -3,8.3 -17.9,52.1 -33.2,97.5 -15.3,45.4 -31.2,92 -35.3,103.7 -4.1,11.7 -9.4,27.2 -11.7,34.5 -20.7,66.4 -25.5,78.7 -36.8,93.8 -12,16.2 -24.7,25.8 -38.7,29.4 -4.4,1.2 -6.8,1.3 -10.2,0.5 -9,-2 -17.5,-8.8 -20.9,-16.7 -1.6,-3.7 -1.5,-10.8 0.2,-20.4 0.6,-3.3 0.4,-3.8 -1.3,-3.8 -4.1,0 -8.7,7.5 -10.9,17.8 -3.1,15 -1.1,22.7 8.4,32.2 8.7,8.7 18.9,13.9 29.3,15 8.3,0.8 22.3,0.4 31.5,-1 z" id="path60" style="fill:none;fill-opacity:1;stroke:#000000;stroke-opacity:1" />
        <path d="m 1102.7,1037.5 c -19.8,-2.8 -36.6,-13.5 -40.8,-26.2 -3.9677,-11.0355 -0.4,-31.3 4.4,-37.8 1.4,-1.8 2.8343,-2.08753 5.3,-2.5 3.2662,-0.54637 4.356,3.12011 4,11.5 0.084,8.37859 1.9,17 8,22.4 5.6,5.1 9.6,6.6 17.7,6.6 6,0 7.9,-0.5 14.3,-3.7 15.7,-7.8 32.8,-30.4 42.6,-56.3 3.4,-8.7 18.1,-52.2 43.8,-129 11.7,-34.9 30.5,-90.3 41.8,-123 21.4,-62.3 34.7,-102.6 34.7,-105.4 0,-2.8 -3.7,-3.3 -24.7,-3.8 -23.9,-0.6 -23.8,-0.5 -23,-8.8 0.7,-6.7 4.3,-16.7 6.9,-19.5 1.7,-1.9 3.5,-2 26.8,-2.5 14.6,-0.3 25.3,-0.9 25.9,-1.5 1.2,-1.3 7.8,-18.7 14.6,-38.5 14.2,-41.7 28.8,-68 49.9,-89.7 19.6,-20.3 39.7,-33.1 65.6,-41.7 15.2,-5.1 26.9,-6.9 45,-7 17.4,-0.1 23.4,1.1 35.5,6.8 16.2,7.6 19.4,16.3 14,37.7 -3.7,14.5 -6.5,20.4 -10.5,21.7 -1.8,0.7 -3.2391,0.0447 -3.6391,-0.25533 -1.8,-1.1 -2.3609,-5.24467 -0.8609,-10.04467 4.3,-14.1 -1,-25.4 -12.9,-27.6 -14,-2.6 -35,9.2 -48.7,27.3 -10.1,13.6 -16.4,25.9 -23.7,46.8 -2.2,6.3 -7.6,21.9 -12,34.5 -8.7,25.2 -12.8,39.2 -11.7,40.3 0.3,0.4 12.9,0.9 27.9,1.2 30.9,0.6 30.6,0.5 30.6,7.7 0,5 -4.3,19 -6.6,21.3 -1.2,1.2 -6.6,1.6 -31.5,2 -30.1,0.5 -30.1,0.5 -32.5,3.5 -1.3,1.7 -3.2,5.5 -4.3,8.5 -5,14.3 -23.9,69.3 -29.1,84.5 -3.2,9.4 -13.9,41.1 -23.8,70.5 -29.3,87.1 -46.1,134.7 -56.2,159 -8,19.3 -23,44 -36.1,59.6 -15.7,18.6 -39.1,38.4 -54.7,46.3 -23,11.7 -41.6549,20.1656 -72,15.1 z m 38.3,-4.3 c 34.7,-9.1 58.3,-24.9 87.6,-58.7 16.5,-19.1 31.6,-46.5 43.9,-80 2.3,-6.3 5,-13.7 6,-16.5 2.8,-7.5 12.2,-34.2 21.1,-60 11.1,-31.9 11.7,-33.9 14.9,-44 3.5,-11 19.3,-57.6 33,-97.5 5.6,-16.2 13.7,-40 18.1,-52.9 8.6,-25.1 10.5,-29.5 13.9,-32.6 2.1,-1.9 3.9,-2 31.6,-2.4 23.9,-0.3 29.7,-0.6 30.9,-1.8 0.8,-0.7 2.6,-5 4,-9.4 5,-15.8 4.9,-15.9 -19.3,-16 -21.8,-0.1 -35.7,-1 -37.1,-2.4 -1.2,-1.3 2.1,-14 8.3,-31.5 2.6,-7.4 8.1,-23.4 12.3,-35.5 4.1,-12.1 9.9,-27 12.9,-33.1 12.4,-25.5 27.4,-41 47.6,-49.1 5.2,-2.1 7.3,-2.5 13.4,-2.1 8,0.5 10.9,1.9 14.8,7 4.3,5.7 5.2,11.3 3.2,19.9 -1,4.1 -1.1329,7.94188 -0.9329,9.44188 0.3,2.6 0.691,2.38156 2.991,1.18156 3.5,-1.7 5.6419,-6.52344 8.9419,-18.22344 6.6,-24.2 2.1,-33.1 -21,-41.2 -13.2,-4.7 -41.9,-4.2 -61.5,0.9 -9.9,2.5 -28.8,10 -37.1,14.5 -10.5,5.7 -24.7,16.8 -36.1,28.2 -21.5,21.6 -36.1,47.4 -50.5,89.3 -8.8,25.6 -14.3,39.4 -16.1,41 -1.2,1 -7.5,1.4 -25.2,1.5 -15.7,0.1 -24.3,0.6 -25.7,1.4 -3.8,2 -9.9,21.8 -7.5,24.2 0.8,0.8 8.7,1.4 22.4,1.8 21.4,0.6 25.7,1.4 25.7,4.5 0,2.5 -17.2,54.9 -33,100.4 -8.3,23.9 -25.9,75.5 -38.9,114.5 -50.3,149.7 -49,146 -56.1,160 -13.2,26 -31.7,43.2 -48.1,45.1 -12.1,1.4 -22.5,-4 -27.5,-14.3 -2.6,-5.3 -2.9,-6.7 -2.9,-16.5 0,-10.6 0,-10.8 -2.3,-10.8 -4.8,0 -9.5,14.5 -9.6,29.1 0,6.3 0.5,8.6 2.8,13.3 4.1,8.4 13.6,15.3 26.6,19.4 9.3,3 10,3.1 25.5,2.8 11.3,-0.2 15.9,-0.8 24,-2.9 z" id="path61" style="fill:none;fill-opacity:1;stroke:#000000;stroke-opacity:1" />
        <path d="m 366,999.5 c -32,-0.5 -32,-0.5 -36.6,-3.2 -5.8,-3.4 -11.6,-9.8 -14.1,-15.6 -2.7,-6.1 -3.7,-19.1 -3.7,-49.7 -0.1,-35.3 1.2,-42.7 8.7,-50.8 8.4,-9 8,-8.9 51.9,-8.7 40.3,0.1 42.1,0.3 48.3,4.9 5,3.6 6.8,5.8 9.8,12.1 2.7,5.5 2.7,5.5 2.7,47.5 0,42 0,42 -2.6,47.6 -3.2,6.8 -8.7,12.3 -14.3,14.3 -5.5,2 -12.6,2.2 -50.1,1.6 z m 48.1,-2.5 c 6.2,-1.8 11.3,-6.9 15.1,-15 2.8,-6 2.8,-6 2.7,-45.5 -0.1,-25.4 -0.6,-41 -1.3,-43.6 -2.2,-8.3 -11.1,-17.3 -19.3,-19.4 -2.4,-0.7 -17.4,-1 -41.1,-0.8 -37.2,0.3 -37.2,0.3 -41.9,3 -2.5,1.6 -6.2,4.6 -8.2,6.9 -5.9,6.9 -6.6,12.4 -6.6,51.2 0,42.2 0.8,46.5 9.6,55.4 4.7,4.7 9.3,7.3 14.4,8.4 1.9,0.4 18.8,0.7 37.6,0.8 27.3,0.1 35,-0.2 39,-1.4 z" id="path62" style="fill:none;fill-opacity:1;stroke:#000000;stroke-opacity:1" />
        <path d="m 1671,999 c -0.5,-0.2 -2.2,-0.6 -3.7,-0.9 -6.4,-1.4 -15,-12 -17.2,-21.3 -1.8,-7.2 -2.9,-68 -1.5,-78 1.7,-11.9 7.4,-20.9 16.2,-25.5 3.7,-1.8 5.9,-1.9 43.8,-1.9 40,0 40,0 45.1,2.8 2.8,1.5 6.8,4.9 8.9,7.5 6.9,8.8 7,9.5 6.7,55.9 -0.3,41.4 -0.3,41.4 -3.2,46.7 -1.7,2.9 -4.7,6.8 -6.7,8.7 -6.8,6.1 -9.9,6.5 -50.8,6.4 -20.1,0 -37,-0.2 -37.6,-0.4 z m 82.5,-4.1 c 7,-3.9 12.6,-11.8 14.1,-19.8 0.6,-3.5 0.9,-20.2 0.7,-43.4 -0.3,-37.7 -0.3,-37.7 -3,-42.7 -1.4,-2.7 -4.3,-6.7 -6.5,-8.8 -7.4,-7.5 -5.4,-7.2 -49.1,-7.5 -38.4,-0.3 -39.5,-0.2 -43.8,1.8 -5.7,2.8 -11.8,9.9 -14.1,16.3 -1.6,4.7 -1.8,9.2 -1.8,43.7 0,34.6 0.2,39 1.8,43.7 2.1,6 7.3,13.1 11.8,16.4 4.6,3.2 11.4,3.7 50.4,3.6 34,-0.2 34,-0.2 39.5,-3.3 z" id="path63" style="fill:none;fill-opacity:1;stroke:#000000;stroke-opacity:1" />
        <path d="m 972,850.5 c -29.6,-5.4 -54.4,-19.6 -70.1,-40.3 -6.4,-8.4 -13.9,-24.4 -17.1,-36.4 -2.4,-8.7 -2.7,-11.7 -2.7,-26.3 -0.1,-23.6 2.9,-35.6 23.6,-92.5 6.6,-18.1 13.9,-38.6 16.3,-45.5 2.4,-6.9 6.9,-19.2 10,-27.5 3.2,-8.2 10.8,-30.1 17,-48.5 16,-47.3 23.1,-66.9 31.8,-87.5 4.1,-9.9 9.4,-23.3 11.6,-29.7 5,-14.8 8.2,-21.4 12.5,-26.4 3.4,-3.9 3.4,-3.9 46.5,-3.9 48,0 45.7,-0.4 44.6,6.8 -0.7,4.8 -28.6,88 -39,116.2 -4.2,11.6 -10.1,28.7 -13.2,38 -6.6,20.7 -7.9,24.4 -25.8,76.5 -7.9,22.8 -20,57.3 -27,76.5 -14.9,41 -17.9,50.5 -19.6,61.2 -1,6.8 -0.9,8.6 0.5,13.5 1.9,6.7 6.5,13.1 12.4,17.2 5.4,3.8 14.9,4.7 23.5,2.2 7.2,-2.1 22.2,-12.1 28.2,-18.9 14.2,-15.7 19.6,-27.4 40,-87.2 6.2,-18.1 12.2,-35.5 13.3,-38.5 4.2,-11.1 8.3,-27.1 8.8,-34.7 0.8,-10.5 -1.8,-17.7 -9,-24.9 -10.3,-10.4 -26.5,-11.4 -39.8,-2.5 -3.4,2.3 -7.1,4.1 -8.2,4.1 -1.6,-0.1 -1.1,-0.6 1.9,-2.2 2.2,-1.1 5.4,-3.1 7,-4.3 4.5,-3.4 10,-4.8 18.5,-4.8 19.1,0 31,12.4 31,32.2 0,9.5 -2.8,20.8 -10.4,42.3 -3,8.4 -9.2,26.6 -13.9,40.3 -10.9,32.1 -14.9,42.9 -20.2,54.1 -9.9,21.3 -23.3,35.7 -40.9,44 -6.6,3.2 -8.3,3.5 -15.9,3.6 -7.5,0.1 -9.1,-0.3 -13.7,-2.8 -12.6,-6.8 -17.4,-20.5 -13.6,-38.6 2.3,-10.8 3.6,-14.5 23.8,-70.3 11.2,-30.8 20,-56.1 39.1,-112.5 2,-5.8 5.6,-16.9 8.1,-24.8 2.6,-7.9 10.2,-29.7 17,-48.5 12.6,-35 33.7,-97.8 35.4,-105.5 0.8,-3.5 0.7,-4.4 -0.7,-5.1 -1.3,-0.7 -63.5,-1.7 -79.9,-1.2 -7.6,0.2 -12.4,7.3 -20.1,29.8 -2.3,6.7 -7.8,20.9 -12.2,31.5 -7.9,19 -21,55.3 -34.7,96.3 -3.9,11.6 -9.6,27.8 -12.7,36 -3.1,8.3 -8.7,23.8 -12.5,34.5 -3.7,10.7 -9.7,27.4 -13.3,37 -26.3,71.1 -30,92.8 -21,124 12.5,43.3 50.6,71.3 101.9,74.6 15,1 38.7,-2.7 56.8,-8.8 32,-10.7 70.9,-39.8 94.8,-70.8 8.6,-11.2 20.6,-31.3 28.4,-47.5 21.6,-45 31.7,-95.1 24.6,-122.5 -2.9,-11 -9.9,-25 -16.6,-33.2 -8.5,-10.2 -21.9,-19.4 -36.7,-25 -8,-3 -9.1,-3.2 -22.9,-3.2 -13,0 -15.5,0.3 -24,2.8 -11.4,3.3 -22.6,9 -30.6,15.4 -7,5.7 -16.3,17.4 -20.4,25.7 -1.6,3.3 -3,5.2 -3,4.2 0,-2.6 4.2,-10.4 9.5,-17.4 15.4,-20.6 39.9,-32.4 67.5,-32.4 12.6,-0.1 18.1,0.9 28,4.8 10.8,4.3 19.9,10.4 28.5,18.8 26.5,26.1 31.1,61.4 15.1,116.5 -10.1,34.5 -26.1,67.3 -45.4,93 -21.9,29 -62,60 -91.5,70.7 -26.7,9.6 -55.5,12.6 -79.2,8.3 z" id="path64" style="fill:none;fill-opacity:1;stroke:#000000;stroke-opacity:1" />
        <path d="m 333.2,805.1 c -4.7,-1.7 -12.1,-7.8 -15.2,-12.5 -5.5,-8.3 -5.8,-10.2 -6.3,-44 -0.4,-32.2 0.5,-47 3.3,-53.8 2.5,-6 7.3,-11.1 13.3,-14 5.7,-2.8 5.7,-2.8 45.2,-2.8 35,0 39.8,0.2 42.5,1.7 5.9,3.2 11.4,8.9 14.2,14.6 2.8,5.7 2.8,5.7 2.8,48.7 0,48.6 0.5,45.3 -8.4,54.8 -8.2,8.8 -7.2,8.7 -50.1,8.6 -28.8,0 -38.4,-0.3 -41.3,-1.3 z m 82.6,-2 c 4.3,-2.1 10.9,-9.2 14.1,-15.1 2,-3.9 2.1,-5 2.1,-45 0,-41 0,-41 -2.6,-46.6 -3.1,-6.6 -8.7,-12.4 -14.3,-15 -3.8,-1.7 -7.2,-1.9 -41.5,-1.9 -26.4,0 -38.6,0.4 -41.5,1.2 -2.7,0.8 -6.1,3.2 -9.7,6.8 -8.5,8.4 -8.9,11.1 -8.9,54.7 0,38 0.5,42.1 5.6,49.5 2.8,3.9 7.8,8.4 12.4,10.9 4.1,2.2 11.8,2.6 47,2.5 30.6,-0.1 33.8,-0.3 37.3,-2 z" id="path65" style="fill:none;fill-opacity:1;stroke:#000000;stroke-opacity:1" />
        <path d="m 1667.6,805.4 c -2.1,-0.6 -6,-3.6 -9.6,-7.3 -9.7,-9.9 -9.7,-9.5 -9.3,-58.2 0.4,-45.6 0,-43.4 7.7,-53.1 2.4,-3 6,-6 8.5,-7.3 4.4,-2.1 5.4,-2.1 44.3,-1.8 39.8,0.3 39.8,0.3 44.7,2.8 2.7,1.4 6.6,4.4 8.7,6.8 6.9,7.9 7,8.9 6.9,55.7 0,46.8 0.2,45.2 -7.6,53.5 -9.4,10.1 -6.3,9.5 -51.4,9.7 -24.7,0.1 -40.8,-0.2 -42.9,-0.8 z m 84.2,-2.6 c 4.5,-2.3 10.6,-8.3 13.5,-13.2 2.7,-4.6 2.7,-4.6 3,-45.7 0.3,-39.6 0.2,-41.3 -1.8,-46.7 -2.5,-6.6 -8.5,-13.1 -14.5,-15.8 -3.9,-1.7 -7.3,-1.9 -43.8,-1.9 -44.4,-0.1 -42.3,-0.4 -49.4,7.3 -8.9,9.6 -9.3,12.3 -9.3,56.6 0,39.8 0.3,42.3 6.4,50.2 4.6,6.1 10.8,10.2 16.5,10.9 2.5,0.3 20.8,0.4 40.6,0.1 28.8,-0.3 36.6,-0.6 38.8,-1.8 z" id="path66" style="fill:none;fill-opacity:1;stroke:#000000;stroke-opacity:1" />
        <path d="m 334.2,611.1 c -10.1,-2.7 -18.4,-11.7 -20.9,-22.4 -0.9,-4.1 -1.3,-15.9 -1.3,-41.7 0,-31.6 0.2,-36.7 1.8,-41.7 2,-6.5 6.7,-13.2 11.6,-16.5 6.8,-4.6 9.3,-4.8 48.6,-4.5 43.5,0.4 43.8,0.4 51.4,8.8 8.4,9.2 8.5,9.4 8.2,56.9 -0.2,41 -0.2,41 -2.7,46.2 -3.5,7.3 -11.1,13.8 -17.5,15.2 -7.5,1.6 -73,1.3 -79.2,-0.3 z m 81,-1.8 c 4.5,-1.3 12.1,-9.2 14.9,-15.3 2.4,-5 2.4,-5.2 2.4,-44.7 0,-38.2 -0.1,-39.9 -2.1,-45.5 -1.4,-3.7 -3.8,-7.3 -6.9,-10.4 -7.8,-7.8 -9.4,-8 -52.7,-7.7 -36.8,0.3 -36.8,0.3 -42.2,3.3 -6.2,3.4 -11.3,9.8 -13.3,16.5 -1,3.4 -1.3,14.2 -1.3,43 0,34.6 0.2,39 1.8,43.7 3.2,9 12.4,16.5 22.6,18.3 6.2,1.1 72.8,0.1 76.8,-1.2 z" id="path68" style="fill:none;fill-opacity:1;stroke:#000000;stroke-opacity:1" />
        <path d="m 1666.6,611.1 c -8.8,-3.2 -15.5,-13.1 -17.3,-25.7 -0.5,-4.3 -0.8,-22.4 -0.6,-43.4 0.3,-34.2 0.4,-36.2 2.4,-40.5 3.1,-6.5 8.7,-12.5 14.2,-15.2 4.7,-2.3 4.9,-2.3 42.7,-2.3 44.6,0 44.3,0 52.6,8.4 9,9.2 8.9,8.4 8.9,57.8 0,33.2 -0.3,43.1 -1.3,45.6 -1.9,4.5 -12.9,14.4 -17.5,15.6 -5.5,1.6 -79.7,1.3 -84.1,-0.3 z m 85.7,-1.9 c 1.8,-1 5.9,-4.4 9.2,-7.7 5.8,-5.8 5.8,-5.8 6.5,-13.2 0.3,-4 0.5,-24.2 0.3,-44.8 -0.3,-37.2 -0.3,-37.5 -2.7,-42 -3.4,-6.6 -11.1,-13.5 -16.5,-14.9 -2.9,-0.7 -17.3,-1.1 -41.3,-1.1 -41.6,0 -41.1,0 -49,8 -7.7,7.8 -7.7,7.8 -8.4,41.5 -1.1,50.9 0.2,60.2 9.6,69.5 6.9,6.8 8.4,7 51.5,6.7 34,-0.2 37.8,-0.4 40.8,-2 z" id="path69" style="fill:none;fill-opacity:1;stroke:#000000;stroke-opacity:1" />
        <path d="m 333.7,418 c -8.7,-2.7 -15.4,-9 -18.9,-17.6 -1.6,-4 -1.8,-8.3 -1.8,-44.9 0,-40.4 0,-40.5 2.4,-46.4 3.2,-7.9 9.9,-14.7 17.2,-17.2 4.9,-1.7 8.7,-1.9 41.9,-1.9 36.5,0 36.5,0 42.2,2.8 6.1,3 10.5,7.4 14,14 2.3,4.1 2.3,4.7 2.6,47.9 0.3,43.7 0.3,43.7 -2.2,48.5 -2.6,5.2 -9.9,12.6 -14.4,14.6 -4.2,1.8 -77.3,2.1 -83,0.2 z m 82.3,-1.9 c 4.6,-1.9 10.2,-7.2 13.3,-12.5 2.7,-4.6 2.7,-4.6 2.7,-47.6 0,-42.4 0,-43.1 -2.2,-47.5 -2.8,-5.6 -8.4,-11.5 -13.7,-14.3 -4,-2.2 -5,-2.2 -42.6,-2.2 -38.5,0 -38.5,0 -43.8,2.9 -9.6,5.3 -13.6,12.4 -15.3,27 -1.5,13.2 -0.7,71.8 1.2,77 1.7,4.9 9.7,13.8 14.4,16 1.9,1 5.4,2.1 7.8,2.6 6.6,1.4 74.3,0.2 78.2,-1.4 z" id="path71" style="fill:none;fill-opacity:1;stroke:#000000;stroke-opacity:1" />
        <path d="m 1668.4,418.1 c -7.6,-2 -13.9,-8.5 -17.7,-17.9 -1.5,-3.7 -1.7,-9.1 -1.7,-46.2 0,-38 0.2,-42.4 1.8,-46.6 2.3,-6 11.8,-15.3 17.3,-16.9 2.8,-0.9 14.8,-1.1 42.4,-0.8 38.5,0.3 38.5,0.3 43.1,3 5.9,3.5 10.5,8.8 13.7,15.6 2.5,5.4 2.5,5.4 2.3,47.9 -0.1,42.5 -0.2465,42.79309 -2.5,47.1 -3,5.8 -8.8,11.5 -14.1,13.9 -3.6,1.6 -7.9,1.8 -42,2 -28.4,0.2 -39.2,-0.1 -42.6,-1.1 z m 74.3,-0.5 c 11.7,-1.3 16.8,-4.5 22.9,-14.6 4.0853,-8.83596 2.3267,-5.46544 2.7,-44 0.2,-27.4 0,-41.6 -0.8,-45.2 -1.6,-7.5 -8.5,-16.4 -15.2,-19.7 -5.2,-2.6 -5.2,-2.6 -44.8,-2.6 -39.7,0 -39.7,0 -43.7,2.9 -6.3,4.6 -11,10.8 -12.5,16.4 -1,3.9 -1.3,14.9 -1.3,44.2 0.1,38 0.1,39.1 2.3,44.6 2.6,6.5 8,13.2 12.6,15.6 1.7,0.9 5.8,1.9 9.1,2.3 9,1.1 58.8,1.1 68.7,0.1 z" id="path72" style="fill:none;fill-opacity:1;stroke:#000000;stroke-opacity:1" />
      </g>
    </g>
    <g id="g73" transform="translate(0.5,-81.5)">
      <path d="m 313.10108,1621.033 v 72.9122 h -18.9533 v -72.9122 z m 15.27869,72.9122 v -72.9122 h 18.9533 l 35.00558,44.5789 v -44.5789 h 18.8566 v 72.9122 h -18.8566 l -35.00558,-44.579 v 44.579 z m 129.8687,-56.8599 h -22.82132 v 12.1842 h 20.79061 v 16.0523 h -20.79061 v 28.6234 h -18.95329 v -72.9122 h 41.77461 z m 30.26724,-16.0523 v 72.9122 h -18.9533 v -72.9122 z m 15.27868,72.9122 v -72.9122 h 18.9533 l 35.00558,44.5789 v -44.5789 h 18.8566 v 72.9122 h -18.8566 l -35.00558,-44.579 v 44.579 z m 107.04738,-72.9122 v 72.9122 h -18.95329 v -72.9122 z m 42.93504,16.0523 v 56.8599 h -18.95329 v -56.8599 h -15.56878 v -16.0523 h 50.09085 v 16.0523 z m 65.46627,0 h -22.53122 v 12.1842 h 21.27411 v 16.0523 h -21.27411 v 12.5711 h 22.53122 v 16.0523 h -41.48452 v -72.9122 h 41.48452 z m 59.47082,-16.0523 17.59949,44.3855 17.69619,-44.3855 h 20.59721 l -30.75076,72.9122 h -15.08528 l -30.65406,-72.9122 z m 82.48557,0 v 72.9122 h -18.9533 v -72.9122 z m 34.23193,56.8599 h 4.35153 q 4.93172,0 8.79974,-1.5472 3.86802,-1.5472 6.47894,-4.2548 2.70761,-2.7077 4.06142,-6.3823 1.4505,-3.7713 1.4505,-8.2195 0,-4.3515 -1.4505,-8.1229 -1.45051,-3.7713 -4.15812,-6.4789 -2.61092,-2.7076 -6.47894,-4.2548 -3.86802,-1.5472 -8.70304,-1.5472 h -4.35153 z m -18.95329,-56.8599 h 28.04314 q 7.44594,0 13.92487,2.9977 6.57564,2.9977 11.41066,8.0262 4.93173,4.9317 7.73604,11.604 2.80432,6.5756 2.80432,13.8282 0,7.1558 -2.80432,13.8282 -2.70761,6.5756 -7.63934,11.604 -4.83502,5.0284 -11.41066,8.0262 -6.47893,2.9977 -14.02157,2.9977 h -28.04314 z m 117.49104,16.0523 h -22.53122 v 12.1842 h 21.27412 v 16.0523 h -21.27412 v 12.5711 h 22.53122 v 16.0523 h -41.48451 v -72.9122 h 41.48451 z m 30.17055,20.4038 q 0,4.3515 1.6439,8.0261 1.6439,3.6746 4.4482,6.3823 2.8043,2.7076 6.479,4.2548 3.7713,1.4505 7.9294,1.4505 4.1581,0 7.8327,-1.4505 3.7714,-1.5472 6.5757,-4.2548 2.901,-2.7077 4.5449,-6.3823 1.6439,-3.6746 1.6439,-8.0261 0,-4.3515 -1.6439,-8.0262 -1.6439,-3.6746 -4.5449,-6.3822 -2.8043,-2.7076 -6.5757,-4.1581 -3.6746,-1.5472 -7.8327,-1.5472 -4.1581,0 -7.9294,1.5472 -3.6747,1.4505 -6.479,4.1581 -2.8043,2.7076 -4.4482,6.3822 -1.6439,3.6747 -1.6439,8.0262 z m -19.8236,0 q 0,-8.1229 2.9977,-15.0853 2.9977,-7.0591 8.3162,-12.281 5.3186,-5.2218 12.6678,-8.1228 7.4459,-2.9977 16.3424,-2.9977 8.7997,0 16.2457,2.9977 7.4459,2.901 12.7644,8.1228 5.4153,5.2219 8.413,12.281 2.9977,6.9624 2.9977,15.0853 0,8.1228 -2.9977,15.182 -2.9977,6.9624 -8.413,12.1842 -5.3185,5.2219 -12.7644,8.2196 -7.446,2.901 -16.2457,2.901 -8.8965,0 -16.3424,-2.901 -7.3492,-2.9977 -12.6678,-8.2196 -5.3185,-5.2218 -8.3162,-12.1842 -2.9977,-7.0592 -2.9977,-15.182 z m 144.5672,-3.868 h 3.5779 q 5.6087,0 8.6064,-2.3208 2.9977,-2.3209 2.9977,-6.6724 0,-4.3515 -2.9977,-6.6723 -2.9977,-2.3208 -8.6064,-2.3208 h -3.5779 z m 41.6779,40.3241 h -23.5949 l -18.083,-28.0432 v 28.0432 H 1129.93 v -72.9122 h 29.4937 q 6.0921,0 10.637,1.8373 4.5449,1.7406 7.446,4.835 2.9977,3.0944 4.4482,7.1559 1.5472,4.0614 1.5472,8.703 0,8.3163 -4.0614,13.5381 -3.9648,5.1251 -11.7975,6.9624 z m 49.4139,-56.8599 h -22.5312 v 12.1842 h 21.2741 v 16.0523 h -21.2741 v 12.5711 h 22.5312 v 16.0523 h -41.4845 v -72.9122 h 41.4845 z m 53.6688,2.6109 q -3.0944,-2.5142 -6.1888,-3.6746 -3.0945,-1.2571 -5.9955,-1.2571 -3.6746,0 -5.9954,1.7406 -2.3208,1.7406 -2.3208,4.5449 0,1.934 1.1604,3.1911 1.1604,1.2571 2.9977,2.2241 1.934,0.8703 4.2548,1.5472 2.4175,0.6769 4.7384,1.4505 9.2832,3.0945 13.538,8.3163 4.3515,5.1251 4.3515,13.4414 0,5.6086 -1.934,10.1535 -1.8373,4.5449 -5.5119,7.8327 -3.5779,3.1912 -8.8964,4.9318 -5.2219,1.8373 -11.8942,1.8373 -13.8282,0 -25.6256,-8.2196 l 8.1228,-15.2786 q 4.2548,3.7713 8.4129,5.6086 4.1582,1.8373 8.2196,1.8373 4.6416,0 6.8657,-2.1274 2.3208,-2.1274 2.3208,-4.835 0,-1.6439 -0.5802,-2.8044 -0.5802,-1.2571 -1.934,-2.2241 -1.3538,-1.0637 -3.5779,-1.934 -2.1274,-0.8703 -5.2218,-1.934 -3.6746,-1.1604 -7.2526,-2.5142 -3.4812,-1.4505 -6.2855,-3.7713 -2.7076,-2.3208 -4.4482,-5.802 -1.6439,-3.578 -1.6439,-8.9932 0,-5.4152 1.7406,-9.7667 1.8373,-4.4483 5.0284,-7.5427 3.2878,-3.1911 7.9295,-4.9317 4.7383,-1.7406 10.5403,-1.7406 5.4152,0 11.314,1.5472 5.8987,1.4505 11.3139,4.3515 z m 38.9703,17.7929 q 0,4.3515 1.6439,8.0261 1.6439,3.6746 4.4482,6.3823 2.8043,2.7076 6.4789,4.2548 3.7714,1.4505 7.9295,1.4505 4.1581,0 7.8327,-1.4505 3.7713,-1.5472 6.5757,-4.2548 2.901,-2.7077 4.5449,-6.3823 1.6439,-3.6746 1.6439,-8.0261 0,-4.3515 -1.6439,-8.0262 -1.6439,-3.6746 -4.5449,-6.3822 -2.8044,-2.7076 -6.5757,-4.1581 -3.6746,-1.5472 -7.8327,-1.5472 -4.1581,0 -7.9295,1.5472 -3.6746,1.4505 -6.4789,4.1581 -2.8043,2.7076 -4.4482,6.3822 -1.6439,3.6747 -1.6439,8.0262 z m -19.8236,0 q 0,-8.1229 2.9977,-15.0853 2.9977,-7.0591 8.3162,-12.281 5.3186,-5.2218 12.6678,-8.1228 7.4459,-2.9977 16.3424,-2.9977 8.7997,0 16.2457,2.9977 7.4459,2.901 12.7644,8.1228 5.4153,5.2219 8.413,12.281 2.9977,6.9624 2.9977,15.0853 0,8.1228 -2.9977,15.182 -2.9977,6.9624 -8.413,12.1842 -5.3185,5.2219 -12.7644,8.2196 -7.446,2.901 -16.2457,2.901 -8.8965,0 -16.3424,-2.901 -7.3492,-2.9977 -12.6678,-8.2196 -5.3185,-5.2218 -8.3162,-12.1842 -2.9977,-7.0592 -2.9977,-15.182 z m 111.689,-36.4561 v 56.8599 h 22.7246 v 16.0523 h -41.6779 v -72.9122 z m 50.0908,0 v 39.6472 q 0,3.1911 0.1934,6.5756 0.2901,3.2879 1.4506,5.9955 1.2571,2.7076 3.868,4.4482 2.6109,1.6439 7.3492,1.6439 4.7383,0 7.2525,-1.6439 2.611,-1.7406 3.8681,-4.4482 1.2571,-2.7076 1.4505,-5.9955 0.2901,-3.3845 0.2901,-6.5756 v -39.6472 h 18.8566 v 42.2581 q 0,17.0193 -7.8328,24.852 -7.736,7.8328 -23.885,7.8328 -16.149,0 -23.9817,-7.8328 -7.8328,-7.8327 -7.8328,-24.852 v -42.2581 z m 87.514,16.0523 v 56.8599 h -18.9533 v -56.8599 h -15.5688 v -16.0523 h 50.0909 v 16.0523 z m 42.935,-16.0523 v 72.9122 h -18.9533 v -72.9122 z m 31.8146,36.4561 q 0,4.3515 1.6439,8.0261 1.6439,3.6746 4.4482,6.3823 2.8043,2.7076 6.4789,4.2548 3.7713,1.4505 7.9295,1.4505 4.1581,0 7.8327,-1.4505 3.7713,-1.5472 6.5756,-4.2548 2.9011,-2.7077 4.545,-6.3823 1.6439,-3.6746 1.6439,-8.0261 0,-4.3515 -1.6439,-8.0262 -1.6439,-3.6746 -4.545,-6.3822 -2.8043,-2.7076 -6.5756,-4.1581 -3.6746,-1.5472 -7.8327,-1.5472 -4.1582,0 -7.9295,1.5472 -3.6746,1.4505 -6.4789,4.1581 -2.8043,2.7076 -4.4482,6.3822 -1.6439,3.6747 -1.6439,8.0262 z m -19.8236,0 q 0,-8.1229 2.9977,-15.0853 2.9977,-7.0591 8.3162,-12.281 5.3185,-5.2218 12.6678,-8.1228 7.4459,-2.9977 16.3424,-2.9977 8.7997,0 16.2457,2.9977 7.4459,2.901 12.7644,8.1228 5.4152,5.2219 8.413,12.281 2.9977,6.9624 2.9977,15.0853 0,8.1228 -2.9977,15.182 -2.9978,6.9624 -8.413,12.1842 -5.3185,5.2219 -12.7644,8.2196 -7.446,2.901 -16.2457,2.901 -8.8965,0 -16.3424,-2.901 -7.3493,-2.9977 -12.6678,-8.2196 -5.3185,-5.2218 -8.3162,-12.1842 -2.9977,-7.0592 -2.9977,-15.182 z m 92.7357,36.4561 v -72.9122 h 18.9532 l 35.0056,44.5789 v -44.5789 h 18.8566 v 72.9122 h -18.8566 l -35.0056,-44.579 v 44.579 z" id="text72" style="font-weight:bold;font-size:96.7005px;font-family:Futura;-inkscape-font-specification:'Futura, Bold';dominant-baseline:central;text-anchor:middle;fill:#ffffff;fill-opacity:1;stroke:none;stroke-opacity:1" aria-label="INFINITE VIDEO RESOLUTION" />
    </g>
  </g>
  <metadata id="metadata73">
    <rdf:RDF>
      <cc:Work rdf:about="">
        <dc:title>fbf SVG official logo</dc:title>
        <dc:date>2025/11/17</dc:date>
        <dc:creator>
          <cc:Agent>
            <dc:title>Emanuele Sabetta</dc:title>
          </cc:Agent>
        </dc:creator>
      </cc:Work>
    </rdf:RDF>
  </metadata>
</svg>
